<svg xmlns="http://www.w3.org/2000/svg" viewBox="0 0 70.18 65.57">
    <g>
        <path d="M59.47,41c-1.88-.32-2.27-1.37-1.8-2.85,1.35-4.28-.16-8-2.29-11.52a2.82,2.82,0,0,1-.59-2.38C56.52,16,51.26,10.82,44.73,9.69c-3.22-.56-3-1.94-2.6-4,.43-2.27-.43-3.39-2.64-4.11l-.44-.13a5.63,5.63,0,0,1-1,1.16c.21.07.41.12.63.2A13.14,13.14,0,0,1,33.11,4.5l-4.91.55c-4.19-.22-8.42.56-12.56-.55-2.45.17-4.75-.57-7.09-1.09L4.18,2.05a4.47,4.47,0,0,1,1-.51A4.76,4.76,0,0,1,4.24,0L3.51.16c-1.07.23-2.09.5-2.06,2C1.52,5.79.89,9.38.87,13,.82,19.19.61,25.36.14,31.5c-.41,5.28-.2,6.2,4.85,8.1a51.4,51.4,0,0,0,29.53,2c3.61-.79,7.63-1.54,7-7.06,2.25,4,5.16,6.77,9.84,7.63-1.07.68-1.83,1.14-2.55,1.64A12.21,12.21,0,0,0,45.66,59.9c3.05,4.71,8.65,6.71,14.44,5.15,6.28-1.68,10.31-6.87,10.07-13C70,46.43,65.86,42.11,59.47,41ZM40.21,5.9c-.26,5,.13,10.1-.36,15.16a101.57,101.57,0,0,0-.18,13.29c.1,2.75-1,4.26-3.54,4.91-1.91.5-3.74,1.35-5.79,1.18-1.26.23-2.48.78-3.81.48H24.34l-3.23,0a5.59,5.59,0,0,1-2.81-.24c-1.42-.47-3,.17-4.36-.61a12.52,12.52,0,0,1-4.89-1.16c-2.46-.09-4.4-1.51-6.5-2.52-1-.49-1.08-1.31-1-2.26.63-8,.89-16,1-24,0-1.26,0-2.53.05-3.79.1-1.91.35-3.42,3-2.09a25.8,25.8,0,0,0,5.17,1.44l4.35.59c1.57.76,3.29.17,4.9.53h1.1l3.77,0h3.28l3.27-.23C34,5.91,36.58,5.83,39,4.79,40.09,4.33,40.25,5.09,40.21,5.9ZM52.46,38.84c.23-1.11-2-2.15-.48-3s1.61,1.45,2.64,2c.24.13.3.61.44.93A3.44,3.44,0,0,1,55.89,41a2,2,0,0,1,.56,1.62c.38,1.65,1.74,4.11-.46,4.61s-2.39-2.23-2.7-4a2.06,2.06,0,0,1-.47-1.65Zm3.67-5.44c.79.89.22,1.87.37,3.17-1.22-.89-2.16-1.51-2.56-2.7a18.06,18.06,0,0,0-1.06-3.29c-.76-1.38-.52-2.29.88-3.08A9.79,9.79,0,0,1,56.13,33.4ZM42,11.5c.71-1.09,2.09-.52,3.16,0a4.19,4.19,0,0,1,2.71,1.13,2.25,2.25,0,0,1,1.67,1.07c1.12.92,2.39,1.73,2.71,3.31.52.19.46.65.51,1.07.88,1,.48,2.16.47,3.27.29,3.69-1.51,6.33-4.29,8.46-.75.57-1.73,1.76-2.44,1s-.38-2.19.66-3.06a8.66,8.66,0,0,0,2.91-6.44l-.12-1c-.55-.44-.45-1.07-.48-1.67L47.3,15.88l-2-1.5c-.67-.1-1.41.09-1.94-.53A1.46,1.46,0,0,1,42,11.5ZM41.8,17c0-1.6.39-1.83,1.88-1.18a6.71,6.71,0,0,1,3,2.14c.95,1.36,2.37,2.92-1,3.12-1.39.08-2.55,1.15-3.88,2.73C41.82,21.11,41.87,19,41.8,17Zm9,22.5c-.51,1.05-1.53.27-2.31,0a3.57,3.57,0,0,1-1.79-1.53c-2-1.31-3.43-3-3.3-5.6-1.54-.71-.93-2.08-1-3.25-.18-3.38,1.24-5.9,3.66-6.44.58-.12,1.32-.36,1.61.45a1.08,1.08,0,0,1-.78,1.49c-2.53.61-2.28,2.65-2.43,4.51,0,1.12.4,2.3-.53,3.26l3.38,3.76a9.44,9.44,0,0,0,2.27,1.32A1.66,1.66,0,0,1,50.82,39.48ZM48.55,34c-.21.29-.49.55-.79.1-.19-.29-.53-.78-.43-.92a7.15,7.15,0,0,1,3.41-2.42c1.24-.43.81,1.24,1.68,2C50.68,32.84,49.4,32.83,48.55,34Zm12,29.25a7.12,7.12,0,0,1-3.79.68c-5,0-9.48-3.07-10.86-7.29a11.17,11.17,0,0,1,4-11.87c1.25-1,1.89-.87,2.36.68a8.4,8.4,0,0,0,1.17,2.43,3,3,0,0,0,3.35,1.26c1.43-.37,1.84-1.5,2.06-2.84.18-1.18-.81-2.89.46-3.43s2.76.49,4,1.23c3.56,2.12,5.54,5.32,5.18,9.42C68,58.36,65,61.58,60.5,63.24Z"
              style="fill:#3a3b53"/>
        <path d="M56.71,63.92c-5,0-9.48-3.07-10.86-7.29a11.17,11.17,0,0,1,4-11.87c1.25-1,1.89-.87,2.36.68a8.4,8.4,0,0,0,1.17,2.43,3,3,0,0,0,3.35,1.26c1.43-.37,1.84-1.5,2.06-2.84.18-1.18-.81-2.89.46-3.43s2.76.49,4,1.23c3.56,2.12,5.54,5.32,5.18,9.42C68,58.36,65,61.58,60.5,63.24A7.12,7.12,0,0,1,56.71,63.92Z"
              style="fill:#78c1e4"/>
        <path d="M31.44,6.55C34,5.91,36.58,5.83,39,4.79c1.09-.46,1.25.3,1.21,1.11-.26,5,.13,10.1-.36,15.16a101.57,101.57,0,0,0-.18,13.29c.1,2.75-1,4.26-3.54,4.91-1.91.5-3.74,1.35-5.79,1.18-.05-2,.53-4,.49-5.93C30.66,25.18,31.84,15.88,31.44,6.55Z"
              style="fill:#787d89"/>
        <path d="M9.05,38.93c-2.46-.09-4.4-1.51-6.5-2.52-1-.49-1.08-1.31-1-2.26.63-8,.89-16,1-24,0-1.26,0-2.53.05-3.79.1-1.91.35-3.42,3-2.09a25.8,25.8,0,0,0,5.17,1.44,25.2,25.2,0,0,0-.53,4c.14,8.52-1,17-.6,25.52A11.47,11.47,0,0,1,9.05,38.93Z"
              style="fill:#787d89"/>
        <path d="M9.05,38.93a11.47,11.47,0,0,0,.59-3.73c-.4-8.52.74-17,.6-25.52a25.2,25.2,0,0,1,.53-4l4.35.59c.84,4.91.41,9.81.08,14.75-.43,6.36-.54,12.74-1.26,19.08A12.52,12.52,0,0,1,9.05,38.93Z"
              style="fill:#9599a4"/>
        <path d="M13.94,40.09c.72-6.34.83-12.72,1.26-19.08.33-4.94.76-9.84-.08-14.75,1.57.76,3.29.17,4.9.53-.05,2.88-.45,5.77-.43,8.6.06,8.47-1.69,16.84-1.3,25.31C16.88,40.23,15.31,40.87,13.94,40.09Z"
              style="fill:#a5aab5"/>
        <path d="M31.44,6.55c.4,9.33-.78,18.63-.61,28,0,2-.54,3.93-.49,5.93-1.26.23-2.48.78-3.81.48,0-2.16-.15-4.34.08-6.48,1-9.2-.11-18.51,1.56-27.66Z"
              style="fill:#9599a4"/>
        <path d="M21.12,6.79l3.77,0c-.27,11.38-.7,22.76-.55,34.14l-3.23,0Q21.13,23.87,21.12,6.79Z"
              style="fill:#c7cbd4"/>
        <path d="M24.34,40.91c-.15-11.38.28-22.76.55-34.14h3.28c-1.67,9.15-.54,18.46-1.56,27.66-.23,2.14-.06,4.32-.08,6.48Z"
              style="fill:#a6abb6"/>
        <path d="M21.12,6.79q0,17.07,0,34.15a5.63,5.63,0,0,1-2.82-.24c-.39-8.47,1.36-16.84,1.3-25.31,0-2.83.38-5.72.43-8.6Z"
              style="fill:#b3b7c2"/>
        <path d="M53.21,21.38c.29,3.69-1.51,6.33-4.29,8.46-.75.57-1.73,1.76-2.44,1s-.38-2.19.66-3.06a8.66,8.66,0,0,0,2.91-6.44Z"
              style="fill:#787d89"/>
        <path d="M41.82,23.79c0-2.68,0-4.75,0-6.81,0-1.6.39-1.83,1.88-1.18a6.71,6.71,0,0,1,3,2.14c.95,1.36,2.37,2.92-1,3.12C44.31,21.14,43.15,22.21,41.82,23.79Z"
              style="fill:#fbfbfc"/>
        <path d="M42.41,29.06c-.18-3.38,1.24-5.9,3.66-6.44.58-.12,1.32-.36,1.61.45a1.08,1.08,0,0,1-.78,1.49c-2.53.61-2.28,2.65-2.43,4.51Z"
              style="fill:#787d89"/>
        <path d="M53.94,33.87a18.06,18.06,0,0,0-1.06-3.29c-.76-1.38-.52-2.29.88-3.08a9.79,9.79,0,0,1,2.37,5.9A3.71,3.71,0,0,1,53.94,33.87Z"
              style="fill:#b3b7c2"/>
        <path d="M49.45,18.69,47.3,15.88a2.37,2.37,0,0,1,2.22-2.15c1.12.92,2.39,1.73,2.71,3.31A8.61,8.61,0,0,0,49.45,18.69Z"
              style="fill:#c7cbd4"/>
        <path d="M56.45,42.63c.38,1.65,1.74,4.11-.46,4.61s-2.39-2.23-2.7-4A6.25,6.25,0,0,0,56.45,42.63Z"
              style="fill:#868b96"/>
        <path d="M46.72,37.91c-2-1.31-3.43-3-3.3-5.6l.52,0,3.38,3.76Z" style="fill:#b3b7c2"/>
        <path d="M46.72,37.91l.6-1.82a9.44,9.44,0,0,0,2.27,1.32,1.66,1.66,0,0,1,1.23,2.07c-.51,1.05-1.53.27-2.31,0A3.57,3.57,0,0,1,46.72,37.91Z"
              style="fill:#787d89"/>
        <path d="M52.42,32.77c-1.74.07-3,.06-3.87,1.22-.21.29-.49.55-.79.1-.19-.29-.53-.78-.43-.92a7.15,7.15,0,0,1,3.41-2.42C52,30.32,51.55,32,52.42,32.77Z"
              style="fill:#f5f4f6"/>
        <path d="M45.33,14.38c-.67-.1-1.41.09-1.94-.53a2.9,2.9,0,0,1,1.75-2.32,4.19,4.19,0,0,1,2.71,1.13Z"
              style="fill:#9599a4"/>
        <path d="M55.06,38.73A3.44,3.44,0,0,1,55.89,41l-3.07.54-.36-2.71Z" style="fill:#c7cbd4"/>
        <path d="M55.06,38.73l-2.6.11c.23-1.11-2-2.15-.48-3s1.61,1.45,2.64,2C54.86,37.93,54.92,38.41,55.06,38.73Z"
              style="fill:#9da1ad"/>
        <path d="M49.45,18.69A8.61,8.61,0,0,1,52.23,17c.52.19.46.65.51,1.07-.55,1.23-1.71,1.71-2.81,2.25C49.38,19.92,49.48,19.29,49.45,18.69Z"
              style="fill:#a5aab5"/>
        <path d="M49.93,20.36c1.1-.54,2.26-1,2.81-2.25.88,1,.48,2.16.47,3.27H50.05Z" style="fill:#9599a4"/>
        <path d="M45.14,11.53a2.9,2.9,0,0,0-1.75,2.32A1.46,1.46,0,0,1,42,11.5C42.69,10.41,44.07,11,45.14,11.53Z"
              style="fill:#787d89"/>
        <path d="M43.94,32.33l-.52,0c-1.54-.71-.93-2.08-1-3.25h2.06C44.49,30.19,44.87,31.37,43.94,32.33Z"
              style="fill:#9599a4"/>
        <path d="M52.82,41.55,55.89,41a2,2,0,0,1,.56,1.62,6.25,6.25,0,0,1-3.16.57A2.06,2.06,0,0,1,52.82,41.55Z"
              style="fill:#a5aab5"/>
        <path d="M45.33,14.38l2.52-1.72a2.25,2.25,0,0,1,1.67,1.07,2.37,2.37,0,0,0-2.22,2.15Z" style="fill:#a5aab5"/>
        <path d="M53.94,33.87a3.71,3.71,0,0,0,2.19-.47c.79.89.22,1.87.37,3.17C55.28,35.68,54.34,35.06,53.94,33.87Z"
              style="fill:#868b96"/>
    </g>
</svg>