<svg xmlns="http://www.w3.org/2000/svg" viewBox="0 0 61.69 82.15"><g id="Ebene_2" data-name="Ebene 2"><g id="Ebene_1-2" data-name="Ebene 1"><path d="M61.69,8.26c-.25.24-.5.49-.77.72-1.22,1-2.53,1.44-3.9.35-.67-.54-1.51-1.17-.89-2.23a2.83,2.83,0,0,1,3.68-1.41c.22.07.42.39.67,0-.1-5.27-6.66-6-10.73-2s-5.47,9.78-7.61,15c-.24.59.11,1.05.58,1.39,5.51,4,6.25,10,6.18,16a36.26,36.26,0,0,1-6.71,21.3,6.28,6.28,0,0,1-2.53,2.41c-2.84,1.12-2.76,3.63-3,6-.24,2.08.9,2.35,2.51,1.69s3.22-1.49,5.14-1.41A2.55,2.55,0,0,1,47,68.12c.84,3.31.5,6.67.51,10,0,1.42-1.17,2.09-2.26,2.41-7.78,2.28-15.49,2.32-23-1.15a3.22,3.22,0,0,1-2.11-3.66c.23-1.88,0-3.83.35-5.69.36-2.15,1.35-4,4.25-4.13a38.7,38.7,0,0,1-11.06-9.23,11.94,11.94,0,0,1-2.12-12.24c1.08-2.91.36-5.51-.21-8.17a13.68,13.68,0,0,1,2.49-11.49,3.36,3.36,0,0,0,.5-3.44,73.09,73.09,0,0,0-5.24-12A4.15,4.15,0,0,0,5,6.8,3.74,3.74,0,0,0,1.29,9.91c2-.24,3.6.12,3.67,2.45a2.31,2.31,0,0,1-2.72,2.35C.11,14.58.13,12.82,0,11.08A4.75,4.75,0,0,1,3.13,5.94a6.64,6.64,0,0,1,7.23,1.44c3.43,3,5.57,7.07,7.89,10.92.77,1.27,1.23,1.29,2.4.69a21.11,21.11,0,0,1,15.18-2c1.63.42,2.28-.21,3-1.62,2.22-4.44,4.62-8.79,8.5-12.06A13.05,13.05,0,0,1,55.11,0c3.21-.19,5.33,1,6.58,3.88ZM13.88,14.67c-.29-.58.06-1.6-1.29-1.6l1.05,1.79q.86,2.85,1.72,5.68c.22.71.45,1.52,1.46,1,.82-.4,1.25-1,.66-2C16.38,17.89,15.58,16,13.88,14.67ZM47,36.76c0-5.41-.61-9.37-2.86-12.91-1.5-2.37-2.17-2.35-3.64-.16-.61.91-1.31,1.86-2.62,1.35a2.47,2.47,0,0,1-1.77-3,6,6,0,0,1,.58-1.77c.55-1,.16-1.45-.85-1.64-6.36-1.24-12.28-.12-17.4,3.84-4.54,3.51-7.11,8.24-5.1,14a14.6,14.6,0,0,1-.2,10,8.49,8.49,0,0,0,1.13,7.72A27.45,27.45,0,0,0,25,63.84a2.93,2.93,0,0,0,2.58.43c4.31-1.86,8.75-3.64,12.05-7C45.45,51.2,46.39,43.36,47,36.76ZM40,80c-.31-.66-.47-1.07-.69-1.44-1.27-2.09-1.27-2.07.43-3,.24-.13.21-.68.39-1,.27-.49.11-1.37,1.06-1.29.51.3.38.79.35,1.2,0,.62,0,1.4-.35,1.81-1,1.13-.18,1.94.27,2.86s1.06.67,1.61.41c1.09-.51,2.65-.66,2.69-2.29,0-1.35-.24-2.7-.32-4-.33-5.78-.32-5.78-5.79-3.93-3.27,1.1-5.27-.58-4.84-4.08.09-.75.48-1.52-.13-2.34-2.29,1.48-5.63,1.75-5.49,5.65,0,.76-.84,1.56-1.32,2.31-.24.38-.56.79-1.08.64s-.38-.67-.38-1.11c0-1.6-1.3-2-2.43-2.18S22.69,69.24,22.5,70A35.26,35.26,0,0,0,22,74c1.54.08,2-1.91,3.71-1.91-.1,2.68-3,3.19-3.65,5.53,1.83.15,3.38,2.46,5.16,1.08,1.33-1,1.89-3,2.95-4.88.4,1.75.4,1.75-1.11,5.52C32.15,80.33,35.21,80.53,40,80ZM45,8.1c-2.59,2.82-6.9,10.67-7.69,13.58-.24.89-.22,1.63.74,2s1.41-.41,1.64-1c.59-1.49.94-3.07,1.49-4.57C42.36,15,43.59,11.83,45,8.1ZM58.91,6.65a1.27,1.27,0,0,0-1.5,1c-.14.65.5.93,1,1a1.28,1.28,0,0,0,1.53-.83C60.14,7.12,59.47,6.8,58.91,6.65Z" style="fill:#3c3d55"/><path d="M47,36.76c-.58,6.6-1.52,14.44-7.36,20.46-3.3,3.41-7.74,5.19-12,7A2.93,2.93,0,0,1,25,63.84a27.45,27.45,0,0,1-10.74-9.68,8.49,8.49,0,0,1-1.13-7.72,14.6,14.6,0,0,0,.2-10c-2-5.74.56-10.47,5.1-14,5.12-4,11-5.08,17.4-3.84,1,.19,1.4.61.85,1.64a6,6,0,0,0-.58,1.77,2.47,2.47,0,0,0,1.77,3c1.31.51,2-.44,2.62-1.35,1.47-2.19,2.14-2.21,3.64.16C46.36,27.39,47,31.35,47,36.76Z" style="fill:#f2e7e2"/><path d="M40,80c-4.76.55-7.82.35-10.92-.64,1.51-3.77,1.51-3.77,1.11-5.52-1.06,1.84-1.62,3.85-2.95,4.88-1.78,1.38-3.33-.93-5.16-1.08.66-2.34,3.55-2.85,3.65-5.53-1.68,0-2.17,2-3.71,1.91a35.26,35.26,0,0,1,.51-4c.19-.76.27-2.06,1.45-1.87s2.44.58,2.43,2.18c0,.44-.23.94.38,1.11s.84-.26,1.08-.64c.48-.75,1.34-1.55,1.32-2.31-.14-3.9,3.2-4.17,5.49-5.65.61.82.22,1.59.13,2.34-.43,3.5,1.57,5.18,4.84,4.08,5.47-1.85,5.46-1.85,5.79,3.93.08,1.35.35,2.7.32,4,0,1.63-1.6,1.78-2.69,2.29-.55.26-1.22.4-1.61-.41s-1.26-1.73-.27-2.86c.35-.41.3-1.19.35-1.81,0-.41.16-.9-.35-1.2-.95-.08-.79.8-1.06,1.29-.18.31-.15.86-.39,1-1.7,1-1.7.94-.43,3C39.5,78.91,39.66,79.32,40,80Z" style="fill:#f1e6e1"/><path d="M45,8.1c-1.43,3.73-2.66,6.86-3.82,10-.55,1.5-.9,3.08-1.49,4.57-.23.59-.71,1.37-1.64,1s-1-1.12-.74-2C38.12,18.77,42.43,10.92,45,8.1Z" style="fill:#114582"/><path d="M13.88,14.66c1.7,1.29,2.5,3.23,3.6,4.95.59.93.16,1.56-.66,2-1,.49-1.24-.32-1.46-1q-.87-2.84-1.72-5.68Z" style="fill:#114582"/><path d="M58.91,6.65c.56.15,1.23.47,1,1.2a1.28,1.28,0,0,1-1.53.83c-.5-.12-1.14-.4-1-1A1.27,1.27,0,0,1,58.91,6.65Z" style="fill:#dbedf5"/><path d="M13.64,14.86l-1.05-1.79c1.35,0,1,1,1.29,1.6Z" style="fill:#114582"/></g></g></svg>