<svg xmlns="http://www.w3.org/2000/svg" viewBox="0 0 55.69 93.14"><g id="Ebene_2" data-name="Ebene 2"><g id="Ebene_1-2" data-name="Ebene 1"><path d="M28.91,93.14c-1.59-1.51-3.81-1.23-5.68-2-3.79-1.53-4.29-2-4.24-6.06a24.11,24.11,0,0,1,.3-4.34c.44-2.13,1.39-4,4.28-4.1a38,38,0,0,1-11.09-9.24,11.89,11.89,0,0,1-2.1-12.24c1.06-2.82.4-5.33-.18-7.89a13.72,13.72,0,0,1,3-12.39c1.2-1.45.75-2-.59-2.74-3.16-1.78-6.62-3.71-8-7C3,21.68.42,18.56,0,14.58a2,2,0,0,1,.7-1.95c.62-.45.81.4,1.46.86a33.46,33.46,0,0,1,0-3.65C2.36,8.4,2.79,6.24,3.72,6c2.53-.64,4-3.06,6.65-3.3a1.15,1.15,0,0,1,.9.43c.39.56-.1,1-.41,1.44C6.73,10,6.62,15.8,9.3,21.8c1.64,3.68,4.92,5.93,7.87,8.45.76.66,1.35-.09,1.95-.39,6.28-3.17,12.72-3.81,19.24-1,1.41.61,2.12-.09,2.81-.74,6.92-6.5,9.84-16.68,2.71-25.58-.46-.56-1.61-1-.91-1.89s1.57-.85,2.66-.3C47.38,1.24,48.69,2.63,51,3c1.95.31,2.12,3.62,2.44,5.82a23.64,23.64,0,0,1,0,3.26c1.11.46.76-1.53,1.7-1s.41,1.48.46,2.24a5.36,5.36,0,0,1-.31,2.11c-1.16,3.51-3.43,6.5-4.43,10.15-.72,2.64-3.59,3.93-5.81,5.47-1.17.81-1.8,1.28-.58,2.81,3,3.72,3.39,8.4,3.27,12.84-.2,7.64-2,14.95-6.68,21.3a6.18,6.18,0,0,1-2.49,2.43c-2.7,1-2.84,3.4-3.09,5.67s.45,2.82,2.63,2c1.59-.61,3.07-1.4,4.89-1.33A2.62,2.62,0,0,1,45.84,79c.81,3.23.46,6.5.49,9.75,0,1.68-1.4,2.26-2.64,2.7-2,.68-4,1.13-6.06,1.68ZM2.55,16.37c-.18-.28-.45-.77-.72-.53s-.23.8.26,1.07a8.71,8.71,0,0,0,3.79,5.64c.55.37,1.66,1.05,1.06,1.58-2,1.69.07,2.37.75,3.07,2.35,2.41,5.45,3.8,8.18,5.7a1.77,1.77,0,0,0,2.25-.17C13.8,29,9.13,26,7.16,20.48S6.2,10,9,4.67A4.55,4.55,0,0,0,5.92,7.6c-.23.54-.51,1.6-1,1.39-2-.8-1.45.77-1.56,1.54a9.48,9.48,0,0,0,.69,5c.28.63.63,1.21-.15,1.57C3.27,17.38,3,16.68,2.55,16.37Zm51.12-2.05c-.55.21-.94,1.22-1.57.69s-.29-1.5-.12-2.28c1.16-5.31-.28-7.9-6.19-10C49.26,8.54,50.07,14.28,48,20.28S41.17,30,35.65,33.15a2.37,2.37,0,0,0,2.84.3,53.6,53.6,0,0,0,5.6-3.24c2-1.41,4.19-2.58,5.49-4.76.24-.41,1-1,.38-1.34-1.86-1.08-.22-1.74.27-2.36,1.66-2.14,3.42-4.19,3.9-7,.44-.2.38-.51.18-.85ZM37.59,30.64c-6-3-12.69-1.46-17,.46-.49.22-1.08.45-1,1.36.18,1.85-1.28,2.18-2.66,2.33-.82.09-1.59,0-2.17.79-2.27,3-3.91,6.07-2.95,10s1.92,7.64.2,11.55c-1.29,2.94-.43,5.75,1.28,8.19A27.14,27.14,0,0,0,24,74.63a2.89,2.89,0,0,0,2.58.3c4.22-1.82,8.5-3.66,11.85-6.89C45,61.66,47.88,45.73,44.2,37c-1.71-4-2-4.12-5.85-2.16-.24.12-.45.35-.71.39-1.15.22-2.29,0-2.66-1.19-.3-1-.48-2.21,1.09-2.61A7.31,7.31,0,0,0,37.59,30.64ZM21,88.11c4.62,2.52,4.67,2.49,7.08-1.89.24-.45,0-1.45,1.14-1.21,1.13,2.09-1.26,3.33-1.36,5.12,2.71,1.18,5.53.77,8.3.81.78,0,1.84.41,2.29-.28s-.45-1.44-.84-2.11c-1.08-1.87-1.1-1.84.79-2.33.2,0,.27-.52.45-.76.36-.52.1-1.57,1.37-1.48.05.41.12.83.14,1.24A2.31,2.31,0,0,1,40,87c-1.08,1.1-.14,1.93.3,2.84s1.08.61,1.63.35c1.09-.51,2.63-.67,2.64-2.33,0-1.34-.25-2.69-.33-4-.3-5.68-.29-5.68-5.82-3.84-3.12,1-5.23-.61-4.86-3.88a5.15,5.15,0,0,0,0-2.68C31.17,75,27.87,75.34,28,79.22c0,.76-.83,1.56-1.32,2.31-.24.38-.56.78-1.08.63s-.38-.68-.37-1.12c0-1.6-1.31-2-2.43-2.14s-1.3,1.07-1.46,1.89c-.27,1.31-.35,2.65-.51,4,1.54,0,2-1.81,3.6-2C24.66,85.51,21.57,85.92,21,88.11ZM45.41,2.47a2.58,2.58,0,0,0,.45.31c.42.18.42-.15.36-.39s-.27-.23-.41-.21S45.55,2.37,45.41,2.47Z" style="fill:#3d3e56"/><path d="M37.59,30.64a7.31,7.31,0,0,1-1.52.83c-1.57.4-1.39,1.64-1.09,2.61.37,1.18,1.51,1.41,2.66,1.19.26,0,.47-.27.71-.39,3.9-2,4.14-1.87,5.85,2.16,3.68,8.69.8,24.62-5.79,31-3.35,3.23-7.63,5.07-11.85,6.89a2.89,2.89,0,0,1-2.58-.3,27.14,27.14,0,0,1-10.69-9.35C11.58,62.84,10.72,60,12,57.09c1.72-3.91.75-7.71-.2-11.55s.68-7,2.95-10c.58-.76,1.35-.7,2.17-.79,1.38-.15,2.84-.48,2.66-2.33-.08-.91.51-1.14,1-1.36C24.9,29.18,31.63,27.6,37.59,30.64Z" style="fill:#f2e7e2"/><path d="M21,88.11c.57-2.19,3.66-2.6,3.42-5.34-1.59.19-2.06,2-3.6,2,.16-1.33.24-2.67.51-4,.16-.82.3-2.05,1.46-1.89s2.44.54,2.43,2.14c0,.44-.24.94.37,1.12s.84-.25,1.08-.63C27.16,80.78,28,80,28,79.22c-.12-3.88,3.18-4.18,5.6-5.76a5.15,5.15,0,0,1,0,2.68c-.37,3.27,1.74,4.92,4.86,3.88,5.53-1.84,5.52-1.84,5.82,3.84.08,1.35.34,2.7.33,4,0,1.66-1.55,1.82-2.64,2.33-.55.26-1.25.46-1.63-.35S38.92,88.14,40,87a2.31,2.31,0,0,0,.36-1.82c0-.41-.09-.83-.14-1.24-1.27-.09-1,1-1.37,1.48-.18.24-.25.71-.45.76-1.89.49-1.87.46-.79,2.33.39.67,1.36,1.33.84,2.11s-1.51.29-2.29.28c-2.77,0-5.59.37-8.3-.81.1-1.79,2.49-3,1.36-5.12-1.1-.24-.9.76-1.14,1.21C25.67,90.6,25.62,90.63,21,88.11Z" style="fill:#f1e6e1"/><path d="M54.13,14.77c-.48,2.79-2.24,4.84-3.9,7-.49.62-2.13,1.28-.27,2.36.63.37-.14.93-.38,1.34-1.3,2.18-3.53,3.35-5.49,4.76a53.6,53.6,0,0,1-5.6,3.24,2.37,2.37,0,0,1-2.84-.3C41.17,30,45.82,26.29,48,20.28S49.26,8.54,45.79,2.69c5.91,2.14,7.35,4.73,6.19,10-.17.78-.55,1.71.12,2.28s1-.48,1.57-.69Z" style="fill:#dbedf5"/><path d="M2.55,16.37c.4.31.72,1,1.3.75.78-.36.43-.94.15-1.57a9.48,9.48,0,0,1-.69-5c.11-.77-.4-2.34,1.56-1.54.54.21.82-.85,1-1.39A4.55,4.55,0,0,1,9,4.67C6.2,10,5.23,15.08,7.16,20.48s6.64,8.56,11,12.25a1.77,1.77,0,0,1-2.25.17C13.14,31,10,29.61,7.69,27.2,7,26.5,5,25.82,6.94,24.13c.6-.53-.51-1.21-1.06-1.58a8.71,8.71,0,0,1-3.79-5.64Z" style="fill:#dbedf5"/><path d="M2.09,16.91c-.49-.27-.61-.77-.26-1.07s.54.25.72.53Z" style="fill:#dbedf5"/><path d="M53.67,14.32l.64-.4c.2.34.26.65-.18.85Z" style="fill:#dbedf5"/><path d="M45.41,2.47c.14-.1.26-.27.4-.29s.39.11.41.21.06.57-.36.39A2.58,2.58,0,0,1,45.41,2.47Z" style="fill:#dbedf5"/></g></g></svg>