<svg xmlns="http://www.w3.org/2000/svg" viewBox="0 0 93.94 76.11"><g id="Ebene_2" data-name="Ebene 2"><g id="Ebene_1-2" data-name="Ebene 1"><path d="M74.23,29.83c1.39-.28,1.68.41,1.65,1.66,0,3-1.61,5.43-3.4,8.26a35.31,35.31,0,0,0,9.7-6.3A38.44,38.44,0,0,0,90,24.54c.34-.58.52-1.58,1.48-1.25s.65,1.26.45,2.06a30.74,30.74,0,0,1-3,8.22,4.27,4.27,0,0,0,2.63-1.2c.59-.52,1.32-1.38,2.07-.71.57.52.21,1.52,0,2.32-.61,2.36-2.06,4.32-3.2,6.57l3.47.3a14,14,0,0,1-9,9A35.58,35.58,0,0,0,72.5,57.62,63.86,63.86,0,0,1,51.25,70.18c-1.54.57-2.92,1.07-3.57,3.1C46.74,76.22,42.42,77,39.6,75c-.44-.3-.82-1-1.24-1C35,74,33,72.67,33.29,69c0-.64-.55-.88-1-1.2-6.9-5-10.72-12.07-13.68-19.76a82.37,82.37,0,0,0-3.71-8.38,14.33,14.33,0,0,0-5.55-5.43c-2.47-1.53-4.67.11-6.93.69-.75.2-1.52.93-2.19.22s0-1.39.38-2c2-3.15,2.45-6.89,3.84-10.27,1.84-4.45,4.82-7.49,10-8,3.52-.33,5.87,1.52,7.91,3.87,1.9,2.18,3.53,4.58,5.5,7.18C30.58,18.64,36.46,14.36,42,9.74c2.72-2.27,4.68-5.26,6.75-8.14,1.6-2.23,2.54-2.17,3.57.43a11.44,11.44,0,0,1,.53,8.33C54,10.12,54.13,8.07,55.59,9c1.14.71,1.19,1.9,1.23,3.08s.51,2.26-.15,3.8c5.12-1.66,9.39-3.8,12.82-7.37a29.35,29.35,0,0,0,4.07-4.73c1.23-2,1.93-.88,2.69.14,2.16,2.87,1.13,5.83,0,8.72-.38,1-1,1.32.5,2.32,1.76,1.18,1.81,3.9,1.64,6a11.11,11.11,0,0,1-4.53,8.53l-.69.71C73.69,30.48,74,30.31,74.23,29.83Zm0,2.12c-4.17.52-8.32,1.17-12.48,1.92,3.91-1.93,8-3.11,11.44-5.81,3.57-2.84,4.5-6.85,2.68-11.9a15.47,15.47,0,0,1-9.47,3.23c.79-1.75,2.16-1.57,3.18-1.89,4-1.27,7.52-7.7,6.18-11.57-.39-1.1-1.09-1.85-2-.41-4.3,6.83-11.07,10-18.24,12.8a46,46,0,0,0-20.12,15c-1.2,1.55-2.4,3.48-4.92,3.69l2.73-3.66a21.63,21.63,0,0,1-6.13-5.5c-1.94-2.61-3.8-5.29-5.9-7.77-4.5-5.31-10.91-4.66-14.35,1.45a49.47,49.47,0,0,0-2.44,6.11c1.49-.36,2.87.14,3.08,1.26.51,2.75,2.63,3.67,4.59,5a15,15,0,0,1,5.41,6.65c1.13,2.64,2.23,5.29,3.35,7.94,2.4,5.68,5.12,11.2,9.85,15.35,5.73,5,12,7.43,19.8,4.77,10.08-3.42,18.15-9.8,26.29-16.24,1.3-1-1.23-1.12-.23-1.63A10.58,10.58,0,0,1,79.34,50a18.22,18.22,0,0,0,12.24-7.44c-3.88-1.19-6.36,3.08-10.12,2.16,4.84-2.07,8.74-4.93,10.31-10.56C88.52,35.47,86,37.47,83.24,39c1.91-3.67,5.6-6.2,6.31-11.16C82.19,37.92,71.48,42,61.36,47.18a5.69,5.69,0,0,0,3-.33c2-.79,2.67-.19,2.25,1.9a5.3,5.3,0,0,1-.9,2.22c-4.06,5.11-9,8.58-15.88,8.27-3.08-.14-6.74-2.15-8-4.49,4.46,2.64,8.87,4.07,13.53,2.24,4.35-1.72,8.35-4.05,10.24-9-5.06,1.38-12.71.23-14.53-2.08C62.48,47.46,73.6,40.78,74.21,32ZM50.4,1.63c-3.28,6.11-8,10.16-12.91,14.07a24.92,24.92,0,0,0-8,10.13c-.46,1.12-.51,2,.56,2.77.87.65,1.58,1.5,2.39,2.23,1.16,1,2,1.18,3.21-.27a46.45,46.45,0,0,1,17.19-12.9c3.08-1.31,3.75-3.68,2-6.85l-5.4,4.82C51.28,11.14,52.92,6.84,50.4,1.63ZM42.8,74.51c.78-.23,1.39-.39,2-.59s1.25-.58,1.27-1.23c0-.85-.85-.94-1.38-.81-1.51.35-3.12-1.14-4.47.16-.44.44.06,1.29.55,1.62A11.17,11.17,0,0,0,42.8,74.51ZM4.08,32.72a12.74,12.74,0,0,0,2-.87c.87-.57.61-1.39.14-2.07s-1-1.28-1.74-.93c-1,.45-.55,1,0,1.6C5.47,31.35,3.93,31.73,4.08,32.72ZM38.7,71.51c0-.56-1.74-1.57-2.77-1.7-.56-.07-1,.08-.88.61.19,1.44,1.37,1.68,2.52,1.88C38.11,72.39,38.64,72.23,38.7,71.51Z" style="fill:#3c3e56"/><path d="M15.31,5.25a14,14,0,0,1,5.35.63c1.23.32,2.55.89,2.61,2.35,0,1.27-1,2-2.11,2.54A25.16,25.16,0,0,1,8,12.68a19.8,19.8,0,0,1-3.37-.85,2.26,2.26,0,0,1-1.86-2A2.32,2.32,0,0,1,4.36,7.5C7.81,5.78,11.54,5.4,15.31,5.25ZM4.58,9.67C10,12,15.38,11.28,20.65,9.12c.28-.11.46-.47.69-.72-.31-.28-.58-.74-.94-.82C14.9,6.33,9.59,6.69,4.58,9.67Z" style="fill:#3e3f57"/><path d="M74.21,32c-.61,8.83-11.73,15.51-23.18,14,1.82,2.31,9.47,3.46,14.53,2.08-1.89,4.94-5.89,7.27-10.24,9-4.66,1.83-9.07.4-13.53-2.24,1.25,2.34,4.91,4.35,8,4.49,6.87.31,11.82-3.16,15.88-8.27a5.3,5.3,0,0,0,.9-2.22c.42-2.09-.26-2.69-2.25-1.9a5.69,5.69,0,0,1-3,.33C71.48,42,82.19,37.92,89.55,27.87c-.71,5-4.4,7.49-6.31,11.16,2.8-1.56,5.28-3.56,8.53-4.89C90.2,39.77,86.3,42.63,81.46,44.7c3.76.92,6.24-3.35,10.12-2.16A18.22,18.22,0,0,1,79.34,50a10.58,10.58,0,0,0-2.83.78c-1,.51,1.53.6.23,1.63C68.6,58.83,60.53,65.21,50.45,68.63c-7.85,2.66-14.07.24-19.8-4.77-4.73-4.15-7.45-9.67-9.85-15.35-1.12-2.65-2.22-5.3-3.35-7.94A15,15,0,0,0,12,33.92c-2-1.31-4.08-2.23-4.59-5-.21-1.12-1.59-1.62-3.08-1.26a49.47,49.47,0,0,1,2.44-6.11c3.44-6.11,9.85-6.76,14.35-1.45,2.1,2.48,4,5.16,5.9,7.77a21.63,21.63,0,0,0,6.13,5.5l-2.73,3.66c2.52-.21,3.72-2.14,4.92-3.69a46,46,0,0,1,20.12-15c7.17-2.78,13.94-6,18.24-12.8.91-1.44,1.61-.69,2,.41,1.34,3.87-2.18,10.3-6.18,11.57-1,.32-2.39.14-3.18,1.89a15.47,15.47,0,0,0,9.47-3.23c1.82,5.05.89,9.06-2.68,11.9-3.4,2.7-7.53,3.88-11.44,5.81C65.89,33.12,70,32.47,74.21,32Zm-65-7.14c.19,1.33.48,2.75,2.4,2.82a4.05,4.05,0,0,0,3.74-3.88,2.65,2.65,0,0,0-2.53-2.66A3.55,3.55,0,0,0,9.16,24.81Z" style="fill:#fefefe"/><path d="M50.4,1.63c2.52,5.21.88,9.51-.95,14l5.4-4.82c1.77,3.17,1.1,5.54-2,6.85a46.45,46.45,0,0,0-17.19,12.9c-1.24,1.45-2,1.31-3.21.27-.81-.73-1.52-1.58-2.39-2.23-1.07-.8-1-1.65-.56-2.77a24.92,24.92,0,0,1,8-10.13C42.43,11.79,47.12,7.74,50.4,1.63Z" style="fill:#fefefe"/><path d="M42.8,74.51a11.17,11.17,0,0,1-2-.85c-.49-.33-1-1.18-.55-1.62,1.35-1.3,3,.19,4.47-.16.53-.13,1.41,0,1.38.81,0,.65-.66,1-1.27,1.23S43.58,74.28,42.8,74.51Z" style="fill:#104683"/><path d="M4.08,32.72c-.15-1,1.39-1.37.46-2.27-.6-.58-1-1.15,0-1.6.79-.35,1.34.35,1.74.93s.73,1.5-.14,2.07A12.74,12.74,0,0,1,4.08,32.72Z" style="fill:#104683"/><path d="M38.7,71.51c-.06.72-.59.88-1.13.79-1.15-.2-2.33-.44-2.52-1.88-.07-.53.32-.68.88-.61C37,69.94,38.71,71,38.7,71.51Z" style="fill:#104683"/><path d="M74.23,29.83c-.22.48-.54.65-1,.33l.69-.71A2.43,2.43,0,0,1,74.23,29.83Z" style="fill:#fefefe"/><path d="M4.58,9.67c5-3,10.32-3.34,15.82-2.09.36.08.63.54.94.82-.23.25-.41.61-.69.72C15.38,11.28,10,12,4.58,9.67Z" style="fill:#f8f8f9"/><path d="M9.16,24.81a3.55,3.55,0,0,1,3.61-3.72,2.65,2.65,0,0,1,2.53,2.66,4.05,4.05,0,0,1-3.74,3.88C9.64,27.56,9.35,26.14,9.16,24.81Z" style="fill:#42435a"/></g></g></svg>