<svg xmlns="http://www.w3.org/2000/svg" viewBox="0 0 79.24 72.75">
    <g>
            <path d="M4.11,42.45c-7.84-7.1-3.24-19.1,3.61-22.52,1.29-.64,2.42-1,1.64-3.07-.69-1.84.66-3,2.66-2.32,1.23.4,2,.38,2.81-.55a1.52,1.52,0,0,1,2.55,0,1.32,1.32,0,0,0,.86.52c3.55.69,3.54.7,1.53,3.75-.14.22-.25.47-.52,1a9.8,9.8,0,0,1,6.59,3,4.51,4.51,0,0,0,2-4.16A2.69,2.69,0,0,1,29,15.72c2.3-1.5,4-3.71,6.28-5.3a21.79,21.79,0,0,0,5.69-5C43.3,2.19,47.23-.22,50.8,0c4.85.32,10,1.89,13.59,5.71,1.62,1.72,2,4.42,3.31,6.53a9.34,9.34,0,0,0,3.24,3.31c6.28,3.8,9,9.48,8.14,16.76a15.53,15.53,0,0,1-9.44,13c-5.58,2.55-12.3.78-17.25-4.3C48.17,36.66,47.23,29.7,50,23.6a16.56,16.56,0,0,1,7.34-8.07c.85-.45,2.42-.51,2-2.08a3.76,3.76,0,0,0-3-2.72C54.11,10.46,52,9.61,49.59,10s-4.09,1.11-5,3.37c-.21.49-.53,1.18-.93,1.29-2.78.77-3.93,3.56-6.31,4.94a9,9,0,0,0-3.57,5,22.09,22.09,0,0,0-1,7.94c1.59-.69,1.18-4.06,3.4-3.17,1,.42,4.11,1.12,2.37,4.16A10.4,10.4,0,0,1,40.63,33c1.44,0,2.47.48,1.53,2.11-1.2,2.08-.82,4-.25,6.24,1,3.88,2.4,7.76,1.31,11.91a23.67,23.67,0,0,1-10.38,14c-1.09.71-2.41,1-1.78,2.81.3.88-.53,1.43-1.34,1.77a10.43,10.43,0,0,1-8,.15,13.66,13.66,0,0,0-8.88-.31c-1.88.65-7-.35-8.28-1.88-.38-.45-.87-1.35-.68-1.66,1.47-2.38-.65-3.68-1.44-5.39C-.83,55.71-.79,48.89,4.11,42.45ZM8.56,69.74c.26.28.77.42.87.14.17-.46-.41-.27-.64-.39A6,6,0,0,0,5.5,67.43C6.46,69.13,6.46,69.13,8.56,69.74Zm27.89-9c-1.83,1.17-4.22,0-5.92,1.24-2.29,1.69-4.47,1.16-6.58,0-2.48-1.35-3.07-3.73-2.56-6.31.33-1.72.73-3.61,3.11-4.09.05,1.38-.89,2-1.23,2.92-1.23,3.33,0,5.91,3.26,6.7,1.64.39,3,0,3.39-1.74s-1-2.32-2.26-2.91c-.49-.24-1.75.7-1.41-.72a1.55,1.55,0,0,1,2.25-.87c1.51.79,3,1.76,3.14,3.76,0,.77.13,1.73,1.1,1.41,1.31-.43,3.08-.3,3.84-2.36A5.69,5.69,0,0,1,34,57.67c-.68-.3-2,0-1.79-1.13.27-1.4,1.25-.17,1.93-.16a6.65,6.65,0,0,0,1.89,0c1.36-.36,3.25-.63,3.09-2.39s-1.9-.49-2.9-.78C35.43,53,34,53.5,34,52.35c0-1.3,1.39-.79,2.18-.78,2.08,0,3.93-.23,4.79-2.6a15.36,15.36,0,0,1-10.33-2.35c2-.95,3.62,0,5.09.88,2.07,1.31,3.68-.13,5.22-.89,1.24-.62-.06-2-.25-2.87-.61-2.81-2.37-5.44-.32-9C37.71,36,35.5,37.27,37,33.37c.19-.51,0-.94-.66-.72s-1-1.1-1.48.06c-.41,1-1.26,1.89-1.38,2.89-.61,5.09-.54,5.1-5.31,5.83-2.19.33-2.22.32-1.44-1.92a16.58,16.58,0,0,0,0-12.14c-1.27-3-3.34-5.52-6.64-6.31-3.81-.91-3.84-.74-1.7-3.89.2-.29.8-.49.41-1-1.15-.09-1.29,1.51-2.36,1.36-1-.3-.21-1.4-1-1.89-1,3.09-2.76.79-4.41.43-.06,2,1.4,2.54,2.46,3.39.3.25.86.49.5,1a.81.81,0,0,1-.89.31,8.08,8.08,0,0,0-8.56,5.3C7,25,9,25.33,10.08,28c.75,1.82-.06,3.17-1.34,4.27-2.27,2-4.46,1.67-6.44-.75-.91,7.57,3.4,10.64,8.79,11.73,3,.61,5.85-.59,8.65-1.55.7-.24,1.46-.66,1.82.31.29.8-.47,1.08-1,1.32C16.35,45.09,12,46,7.69,44.15c-2.2-1-2.87,0-3.76,1.44C0,52.15,2.7,63.06,9.5,67.48c5,3.24,10.41,2.36,15.71,1.18C30,67.6,34.15,65.37,37,61.14a31.73,31.73,0,0,0,2.1-2.68c.23-.35,1.14-1,.19-1.39-.72-.31-1,.34-1.12,1A5.11,5.11,0,0,1,36.45,60.71ZM52.29,32c-.24,2.11.76,4.8,2.39,7.24,2,2.92,4.7,4.59,8.27,4C69.69,42,73.82,37.9,75.55,31.38c1.54-5.78-1.13-11.71-6-13.6-.77-.3-1.51-.81-2.37.2a3.43,3.43,0,0,1-4.87.48c-1.41-1.05-2.34-.48-3.37.25C54.64,21.7,52.35,25.77,52.29,32ZM50.06,1.38c-.72.21-2.17.28-1.53,1.77a8.41,8.41,0,0,1,.57,3.68c0,.86-.07,1.66,1.18,1.63s1-1,1-1.75A5,5,0,0,1,52,3.89C52.86,2.3,52.21,1.32,50.06,1.38ZM31.41,15.66c-2.7,2.46-2.67,2.77.19,4.34a3.57,3.57,0,0,1,1.08.8c.59.72,1,.57,1.44-.13.3-.52.72-1-.16-1.5A5.51,5.51,0,0,1,31.41,15.66ZM45.05,4c-3.57,1.63-3.61,2.17-.78,5.25.49.54.78.85,1.51.33s.82-.94.31-1.54C45.14,6.94,45.22,5.55,45.05,4ZM40.73,14.42a3.65,3.65,0,0,0,2.21-1.86c.41-1-.78-.71-1.12-1.15s-1.06-1-1.44-1.6c-.76-1.22-1.48-.81-2.1,0-.36.5-.92,1.18.21,1.66S40,13.54,40.73,14.42ZM59.4,4.34c-.89-1.08-2.23-1.86-3.25-1.62C55,3,55.8,4.56,55.68,5.55a5.26,5.26,0,0,1-.67,2c-.25.46-.74.93,0,1.3s1.09.07,1.26-.77A5,5,0,0,1,59.4,4.34ZM35.51,12.11a16.19,16.19,0,0,0-1.48,1,.66.66,0,0,0,.17,1.12,5,5,0,0,1,2.27,2.85c.31.75.71.69,1.19.27.78-.67,1.59-1.32,0-2.1C36.46,14.69,36.32,13.16,35.51,12.11ZM27.93,22c-.05.61-.12,1-.12,1.31,0,1.57,2.26,3.09,3.63,2.39.33-.16.54-.7.68-1.11s0-.92-.64-.86C30.05,23.9,29.38,22.52,27.93,22Zm39.83-8.31c-1.45-1-1.63-2.87-2.6-2.33a24.2,24.2,0,0,0-4,2.33ZM29.39,30.2c.36.88-.45,2.69,1.06,2.46,1.3-.19.47-2,.65-3.07.14-.86-.05-1.64-1.24-1.41C28.12,28.51,30,29.6,29.39,30.2ZM60.55,9.08l3.7-.31c-.42-1.08-.47-2.4-1.63-2.39S61.62,7.87,60.55,9.08ZM23.51,71c3.59.44,3.62.43,5.25-1.44Z"
                  style="fill:#3b3c54"/>
            <path d="M37,61.15c-2.83,4.22-7,6.45-11.77,7.51-5.3,1.18-10.71,2.06-15.71-1.18C2.7,63.06,0,52.15,3.93,45.59c.89-1.47,1.56-2.41,3.76-1.44,4.28,1.88,8.66.94,12.84-.85.56-.24,1.32-.52,1-1.32-.36-1-1.12-.55-1.82-.31-2.8,1-5.64,2.16-8.65,1.55C5.7,42.13,1.39,39.06,2.3,31.49c2,2.42,4.17,2.71,6.44.75,1.28-1.1,2.09-2.45,1.34-4.27C9,25.33,7,25,4.49,26.09a8.08,8.08,0,0,1,8.56-5.3.81.81,0,0,0,.89-.31c.36-.55-.2-.79-.5-1-1.06-.85-2.52-1.39-2.46-3.39,1.65.36,3.44,2.66,4.41-.43.81.49,0,1.59,1,1.89,1.07.15,1.21-1.45,2.36-1.36.39.53-.21.73-.41,1-2.14,3.15-2.11,3,1.7,3.89,3.3.79,5.37,3.27,6.64,6.31a16.58,16.58,0,0,1,0,12.14c-.78,2.24-.75,2.25,1.44,1.92,4.77-.73,4.7-.74,5.31-5.83.12-1,1-1.9,1.38-2.89.48-1.16,1,.11,1.48-.06s.85.21.66.72c-1.5,3.9.71,2.63,3.37,1.38-2,3.55-.29,6.18.32,9,.19.92,1.49,2.25.25,2.87-1.54.76-3.15,2.2-5.22.89-1.47-.93-3.07-1.83-5.09-.88A15.36,15.36,0,0,0,41,49c-.86,2.37-2.71,2.62-4.79,2.6-.79,0-2.21-.52-2.18.78,0,1.15,1.44.63,2.25.86,1,.29,2.75-1,2.9.78s-1.73,2-3.09,2.39a6.65,6.65,0,0,1-1.89,0c-.68,0-1.66-1.24-1.93.16-.22,1.13,1.11.83,1.79,1.13a5.69,5.69,0,0,0,2.56.08c-.76,2.06-2.53,1.93-3.84,2.36-1,.32-1.06-.64-1.1-1.41-.13-2-1.63-3-3.14-3.76a1.55,1.55,0,0,0-2.25.87c-.34,1.42.92.48,1.41.72,1.24.59,2.63,1.23,2.26,2.91s-1.75,2.13-3.39,1.74c-3.27-.79-4.49-3.37-3.26-6.7.34-.92,1.28-1.54,1.23-2.92-2.38.48-2.78,2.37-3.11,4.09-.51,2.58.08,5,2.56,6.31,2.11,1.15,4.29,1.68,6.58,0,1.7-1.24,4.09-.07,5.92-1.24ZM13.08,30.73c-.07,3.1.76,4,3.64,4s5.07-1.74,5.11-4.09c.05-2.74-1.65-4.72-4.09-4.77C15,25.84,13.15,27.73,13.08,30.73ZM5,35.44C6.28,37,8.26,36.86,9.8,37.68c.71.37,1.49.41,1.92-.33A3.23,3.23,0,0,0,11.51,34c-.38-.67-.86-1.32-1.7-.91C8.24,33.89,6.35,34,5,35.44Z"
                  style="fill:#dff0f8"/>
            <path d="M50.06,1.38c2.15-.06,2.8.92,1.93,2.51a5,5,0,0,0-.74,2.82c0,.73.42,1.72-1,1.75s-1.2-.77-1.18-1.63a8.41,8.41,0,0,0-.57-3.68C47.89,1.66,49.34,1.59,50.06,1.38Z"
                  style="fill:#f8f8f9"/>
            <path d="M31.41,15.66A5.51,5.51,0,0,0,34,19.17c.88.52.46,1,.16,1.5-.41.7-.85.85-1.44.13A3.57,3.57,0,0,0,31.6,20C28.74,18.43,28.71,18.12,31.41,15.66Z"
                  style="fill:#f3f3f5"/>
            <path d="M45.05,4c.17,1.52.09,2.91,1,4,.51.6.36,1.06-.31,1.54s-1,.21-1.51-.33C41.44,6.2,41.48,5.66,45.05,4Z"
                  style="fill:#f8f8f9"/>
            <path d="M40.73,14.42c-.75-.88-1-2.4-2.24-2.93s-.57-1.16-.21-1.66c.62-.83,1.34-1.24,2.1,0,.38.6,1,1,1.44,1.6s1.53.15,1.12,1.15A3.65,3.65,0,0,1,40.73,14.42Z"
                  style="fill:#f8f8f9"/>
            <path d="M59.4,4.34a5,5,0,0,0-3.11,3.74c-.17.84-.54,1.11-1.26.77s-.27-.84,0-1.3a5.26,5.26,0,0,0,.67-2c.12-1-.71-2.55.47-2.83C57.17,2.48,58.51,3.26,59.4,4.34Z"
                  style="fill:#f3f3f5"/>
            <path d="M35.51,12.11c.81,1.05,1,2.58,2.17,3.18,1.57.78.76,1.43,0,2.1-.48.42-.88.48-1.19-.27a5,5,0,0,0-2.27-2.85A.66.66,0,0,1,34,13.15,16.19,16.19,0,0,1,35.51,12.11Z"
                  style="fill:#f3f3f5"/>
            <path d="M27.93,22c1.45.5,2.12,1.88,3.55,1.73.59-.06.81.36.64.86s-.35.95-.68,1.11c-1.37.7-3.61-.82-3.63-2.39C27.81,23,27.88,22.63,27.93,22Z"
                  style="fill:#f8f8f9"/>
            <path d="M67.76,13.71H61.15a24.2,24.2,0,0,1,4-2.33C66.13,10.84,66.31,12.76,67.76,13.71Z"
                  style="fill:#f3f3f5"/>
            <path d="M29.39,30.2c.59-.6-1.27-1.69.47-2,1.19-.23,1.38.55,1.24,1.41-.18,1.08.65,2.88-.65,3.07C28.94,32.89,29.75,31.08,29.39,30.2Z"
                  style="fill:#f3f3f5"/>
            <path d="M60.55,9.08c1.07-1.21.94-2.68,2.07-2.7s1.21,1.31,1.63,2.39Z" style="fill:#f3f3f5"/>
            <path d="M23.51,71l5.25-1.44C27.13,71.4,27.1,71.41,23.51,71Z" style="fill:#9aa0af"/>
            <path d="M36.45,60.71a5.11,5.11,0,0,0,1.7-2.59c.12-.71.4-1.36,1.12-1,.95.41,0,1-.19,1.39A33.56,33.56,0,0,1,37,61.15Z"
                  style="fill:#dff0f8"/>
            <path d="M8.55,69.74c-2.09-.61-2.09-.61-3.05-2.31a6,6,0,0,1,3.29,2.06Z" style="fill:#9aa0af"/>
            <path d="M8.79,69.49c.23.12.81-.07.64.39-.1.28-.61.14-.88-.14Z" style="fill:#9aa0af"/>
            <path d="M13.08,30.73c.07-3,1.89-4.89,4.66-4.82,2.44.05,4.14,2,4.09,4.77,0,2.35-2.25,4.12-5.11,4.09S13,33.83,13.08,30.73Z"
                  style="fill:#3c3e56"/>
            <path d="M5,35.44c1.31-1.41,3.2-1.55,4.77-2.32.84-.41,1.32.24,1.7.91a3.23,3.23,0,0,1,.21,3.32c-.43.74-1.21.7-1.92.33C8.26,36.86,6.28,37,5,35.44Z"
                  style="fill:#393a53"/>
        </g>
</svg>