<svg xmlns="http://www.w3.org/2000/svg" viewBox="0 0 80.28 88.94">
    <g>
            <path d="M38.82,88.94c-2.46-1-5.2-.76-7.7-1.62-.33-.12-.7-.16-1-.26-8.8-2.61-11.36-8.23-7.65-16.74a5.56,5.56,0,0,1,4.89-3.68c.89.57,1.79,1.13,2.67,1.71.46.3,1,.7,1.43.27s.25-1,.25-1.52c0-.88-.69-.56-1.16-.54a5.23,5.23,0,0,1-2.63-.34C23,64.11,19.19,60.44,15.15,56.5c-.69,4.66-1.34,9-1.93,13.24-.12.9.09,2-1,2.25-1.31.35-2.75.57-3.82-.54A15,15,0,0,1,6.51,68.8,16.66,16.66,0,0,0,3,64.09C.17,61.73.57,57.84.18,54.5c-.32-2.81-.38-5.65,1.3-8.35,1.41-2.26-.81-4.43-1-6.73C.1,35.59.45,32.15,3,29.06c1.94-2.37,3.75-4.86,5.53-7.36a7.08,7.08,0,0,0,1.28-2.65C11.6,9.13,18.23,3.9,27.32,1.25a35.54,35.54,0,0,1,18.73,0,15.05,15.05,0,0,1,10.13,8c1.82,3.7,4.69,6,7.8,8.3,3.71,2.74,7.29,5.64,11,8.43,5.68,4.33,7,11.22,3.16,17.31-.78,1.25-1.08,2-.18,3.51,3.16,5.32,1.3,14.24-3.46,18.29-.93.79-2.12,1.71-3.09,1.41-2.64-.84-3.67,1-5.17,2.38a10.21,10.21,0,0,1-6,2.66c-1.31.11-2,.54-1.78,2.22.49,3.24-.31,6.49-.43,9.74a1.84,1.84,0,0,1-1.27,1.77,26.7,26.7,0,0,1-11.61,3.13c-.49,0-1.12-.21-1.35.53ZM54.26,9.6a14,14,0,0,0-8.59-6.67,33.32,33.32,0,0,0-19.74.55C16.51,6.59,9.15,15.62,11.57,27a20.67,20.67,0,0,1-.48,11.83,13,13,0,0,0,1.77,12.37A49.81,49.81,0,0,0,24.62,62.38c2.37,1.71,5,3.23,8.21,1.85a53.44,53.44,0,0,0,14.55-8.7,23.84,23.84,0,0,0,4.4-4.78c1.87-2.9,1-5.89.69-8.92-.65-7.2-1-14.42-1.81-21.59-.25-2.14.25-4.5-.76-6.39-.79-1.46-1.12-2.74-.26-4C50.67,8.38,52.26,8.63,54.26,9.6Zm-4.9,66.82c.7,2.12-.27,3.25-.59,4.53-.51,2,.77,3.45,2,4.63.68.62,5.39-1.9,5.39-2.83,0-3.33,1.08-6.59.17-10-1.05-3.9-2.28-4.73-6.1-3.41C48.33,70,46.49,71,44.34,71c-1.74,0-2.56-.68-2.91-2.46-.43-2.14.39-4.22.07-6.52-2.19,1.07-4.15,2.14-6.22,3a2.81,2.81,0,0,0-2,3,7.43,7.43,0,0,1-1.54,4.28.89.89,0,0,1-1.14.41.67.67,0,0,1-.36-.89c.62-2.52-1.84-2.36-3-3.12S25,69,24.46,70.08c-1.3,2.68-1.43,5.54-1.37,8.82,1.65-1.19,3.15-1.69,4.1-3,.29-.38.58-.85,1-.49a1,1,0,0,1,0,1.45,20,20,0,0,1-3.38,2.67c-2.24,1.28-1.8,2.31.12,3.3A50.42,50.42,0,0,0,29.6,85c.41.16,1.37.71,1.52-.32.38-2.7,3.47-3.69,3.66-7,1.54,2.65,0,3.85-1.09,5.2-1.41,1.73-1.23,2.92.47,3.25a46.33,46.33,0,0,0,11.64.49c3.24-.19,3.25-.36,1.59-3.23-.45-.78-.86-1.58-1.25-2.4s-.54-1.69.34-2.15S47.13,80,47.86,80Zm5.06-63.11c-1.48.4-1.16,1.48-.87,2.5q6.6,23,13.23,46c1,3.52,4.4,4.43,7.18,2.06,4-3.37,5.55-12.45,2.73-16.77C69.33,35.78,61.86,24.57,54.42,13.31ZM52,15H51.4c.17,1.69.36,3.38.51,5.07.4,4.59.78,9.18,1.2,13.77.67,7.37,1.38,14.73,2.07,22.1.37,3.86.64,7.74,1.16,11.58.15,1.13.54,2.7,1.94,2.89,3.18.42,5.69-1.15,8-3.13,2-1.72-.39-2.83-.49-4.24,0-.17-.17-.32-.22-.49Q61.19,47,56.8,31.58,54.43,23.27,52,15ZM76.09,43.88c.44-.73.73-1.19,1-1.66,3.22-5.82,2-11.46-3.19-15.37-3-2.21-5.87-4.49-8.81-6.72-2.64-2-5.29-4-7.94-6l-.35.39Zm-65.95-13c-2.08,4.67-4,9.42-6.27,14C2.21,48.25,1,51.53,1.72,55.34c.45,2.29.63,4.62,1.63,6.77.27.58.52,1.2,1.31,1.17s.83-.8,1-1.38c1.22-4,2.47-8,3.63-12.08a4.61,4.61,0,0,0,0-2.15,19.6,19.6,0,0,1,.42-10.38C10.32,35.31,11.86,33.2,10.14,30.91ZM53.42,51.35a17.38,17.38,0,0,1-6.19,6.5c-3.67,2.06-4.09,5.27-4.14,8.89,0,2.34.61,3.06,3,2.26s4.78-2.21,7.52-1.92c1.46.16,1-1,1-1.65C54.26,60.94,53.86,56.47,53.42,51.35Zm-42.95.1C9.4,55,8.54,58.77,7.17,62.29c-1.08,2.77,0,4.77,1.4,6.82.5.72,1.07,1.52,2.17,1.33s1.12-1.35,1.25-2.12c.48-2.73.65-5.53,1.22-8.25C13.92,56.69,13.83,53.68,10.47,51.45ZM3.12,42.59c1.87-4.17,3.56-8,5.29-11.84,1.45-3.18,1.47-3.17.57-6.95C5,29.41-1.07,34.27,3.12,42.59ZM51.84,10.51c-.85,0-1.1.53-1.06,1.22S51.16,13,51.91,13s1-.61,1.05-1.3S52.62,10.49,51.84,10.51Z"
                  style="fill:#3c3d55"/>
            <path d="M27.88,66.22a5.23,5.23,0,0,0,2.63.34c.47,0,1.15-.34,1.16.54,0,.52,0,1.21-.25,1.52s-1,0-1.43-.27c-.88-.58-1.78-1.14-2.67-1.71Z"
                  style="fill:#f3e7e2"/>
            <path d="M54.26,9.6c-2-1-3.59-1.22-4.62.27-.86,1.24-.53,2.52.26,4,1,1.89.51,4.25.76,6.39.81,7.17,1.16,14.39,1.81,21.59.27,3,1.18,6-.69,8.92a23.84,23.84,0,0,1-4.4,4.78,53.44,53.44,0,0,1-14.55,8.7c-3.19,1.38-5.84-.14-8.21-1.85A49.81,49.81,0,0,1,12.86,51.19a13,13,0,0,1-1.77-12.37A20.67,20.67,0,0,0,11.57,27C9.15,15.62,16.51,6.59,25.93,3.48a33.32,33.32,0,0,1,19.74-.55A14,14,0,0,1,54.26,9.6Z"
                  style="fill:#f3e7e2"/>
            <path d="M49.36,76.42,47.86,80c-.73,0-.48-1.52-1.38-1.06s-.71,1.37-.34,2.15.8,1.62,1.25,2.4c1.66,2.87,1.65,3-1.59,3.23a46.33,46.33,0,0,1-11.64-.49c-1.7-.33-1.88-1.52-.47-3.25,1.1-1.35,2.63-2.55,1.09-5.2-.19,3.26-3.28,4.25-3.66,7-.15,1-1.11.48-1.52.32a50.42,50.42,0,0,1-4.68-2.12c-1.92-1-2.36-2-.12-3.3a20,20,0,0,0,3.38-2.67,1,1,0,0,0,0-1.45c-.44-.36-.73.11-1,.49-1,1.26-2.45,1.76-4.1,3-.06-3.28.07-6.14,1.37-8.82.53-1.1,1.65-2.14,2.76-1.41s3.6.6,3,3.12a.67.67,0,0,0,.36.89.89.89,0,0,0,1.14-.41A7.43,7.43,0,0,0,33.24,68a2.81,2.81,0,0,1,2-3c2.07-.85,4-1.92,6.22-3,.32,2.3-.5,4.38-.07,6.52C41.78,70.31,42.6,71,44.34,71c2.15,0,4-1,5.94-1.63,3.82-1.32,5-.49,6.1,3.41.91,3.39-.18,6.65-.17,10,0,.93-4.71,3.45-5.39,2.83-1.28-1.18-2.56-2.6-2-4.63C49.09,79.67,50.06,78.54,49.36,76.42Z"
                  style="fill:#f3e7e2"/>
            <path d="M54.42,13.31c7.44,11.26,14.91,22.47,22.27,33.77,2.82,4.32,1.22,13.4-2.73,16.77-2.78,2.37-6.16,1.46-7.18-2.06q-6.68-23-13.23-46C53.26,14.79,52.94,13.71,54.42,13.31Z"
                  style="fill:#ddeff7"/>
            <path d="M52,15q2.4,8.32,4.78,16.63Q61.21,47,65.59,62.49c0,.17.21.32.22.49.1,1.41,2.5,2.52.49,4.24-2.33,2-4.84,3.55-8,3.13-1.4-.19-1.79-1.76-1.94-2.89-.52-3.84-.79-7.72-1.16-11.58-.69-7.37-1.4-14.73-2.07-22.1-.42-4.59-.8-9.18-1.2-13.77-.15-1.69-.34-3.38-.51-5.07Z"
                  style="fill:#ddeff7"/>
            <path d="M76.09,43.88,56.79,14.52l.35-.39c2.65,2,5.3,4,7.94,6,2.94,2.23,5.85,4.51,8.81,6.72,5.22,3.91,6.41,9.55,3.19,15.37C76.82,42.69,76.53,43.15,76.09,43.88Z"
                  style="fill:#ddeff7"/>
            <path d="M10.14,30.91c1.72,2.29.18,4.4-.48,6.38a19.6,19.6,0,0,0-.42,10.38,4.61,4.61,0,0,1,0,2.15c-1.16,4-2.41,8.06-3.63,12.08-.17.58-.13,1.35-1,1.38s-1-.59-1.31-1.17c-1-2.15-1.18-4.48-1.63-6.77-.76-3.81.49-7.09,2.15-10.43C6.14,40.33,8.06,35.58,10.14,30.91Z"
                  style="fill:#ddeff7"/>
            <path d="M10.47,51.45c3.36,2.23,3.45,5.24,2.74,8.62-.57,2.72-.74,5.52-1.22,8.25-.13.77,0,1.91-1.25,2.12s-1.67-.61-2.17-1.33c-1.44-2-2.48-4-1.4-6.82C8.54,58.77,9.4,55,10.47,51.45Z"
                  style="fill:#ddeff7"/>
            <path d="M3.12,42.59C-1.07,34.27,5,29.41,9,23.8c.9,3.78.88,3.77-.57,7C6.68,34.58,5,38.42,3.12,42.59Z"
                  style="fill:#d9eaf3"/>
            <path d="M51.83,10.51c.79,0,1.15.4,1.13,1.16S52.66,13,51.91,13s-1.1-.57-1.13-1.24S51,10.49,51.83,10.51Z"
                  style="fill:#104582"/>
        </g>
</svg>