<svg xmlns="http://www.w3.org/2000/svg" viewBox="0 0 67.65 88.51"><g id="Ebene_2" data-name="Ebene 2"><g id="Ebene_1-2" data-name="Ebene 1"><path d="M27.19,66c-6.14-2.83-10.8-7.5-15.22-12.42C7.87,49.06,6.67,43.48,8.86,38c2-4.94,0-9.33-.21-13.95-.07-1.13-.82-.57-1.38-.41-2.11.6-4.64.79-5.53-1.3C.93,20.4-.47,18,.16,16.11a14.61,14.61,0,0,0,.43-5.17c0-2.49,1.49-3.06,3.59-1.65,2.81,1.88,7.71,1.32,10.09-1,7.22-7.2,16.06-9,25.89-8,5.21.55,9.82,2,13.42,6,.87,1,1.2,2.87,2.73,2.76,2.21-.15,4.53-.39,6.36-1.91,1.18-1,2.5-2,3.76-.68a4.13,4.13,0,0,1,.7,4.75c-.51,1.1-1.56,1.7-2.06,2.73.78.56,2.25-.58,2.45.94.22,1.69.36,3.47-1.25,4.74-.79.63-1.58.85-.92,2.51.85,2.11-1.35,3.15-3.17,3.36S60,26.22,59.81,28a59.21,59.21,0,0,1-5.75,20.6,26.31,26.31,0,0,1-8.48,10c-2.48,1.85-4.14,7.1-3,9.87.44,1.13,1.38.8,2.05.65a33.11,33.11,0,0,0,3.82-1.31c5.68-2.11,8.63-.35,9.32,5.66.4,3.45-.39,6.86-.49,10.3,0,.94-.68,1.08-1.36,1.41C45.59,90,35.27,89.25,25,85.19,21.89,84,20,82,20.57,78.14c.31-2.2.32-4.53.76-6.71.55-2.72,2.21-4.73,5.3-5l2.68,1.72c.45.29,1,.69,1.43.27s.25-1,.24-1.52c0-.89-.68-.57-1.16-.55A5.15,5.15,0,0,1,27.19,66ZM53.09,8.61a14.28,14.28,0,0,0-8.4-5.92,34.75,34.75,0,0,0-18.94.47C16.66,5.89,8.36,14.9,10.88,26.82a20.32,20.32,0,0,1-.41,11.55,13.35,13.35,0,0,0,2.18,13.27A53.62,53.62,0,0,0,23.91,62.18c2.37,1.72,5,3.25,8.2,1.88,5.23-2.25,10.34-4.79,14.54-8.68C54.85,47.77,57,37.59,58.23,27.09c.06-.51.15-1.33-.51-1.37-3.37-.21-5.48-4-9.42-3-2.13.53-4.95-2.26-5.7-4.59A6.76,6.76,0,0,1,44.55,11C46.89,9.05,49.69,8.56,53.09,8.61ZM34,78a1.75,1.75,0,0,1,.56,2.69c-.55.92-1.35,1.69-1.91,2.6s-1.18,2.35.38,2.63c4.94.87,9.92,1.28,15.08-.05-1-1.85-1.87-3.41-2.67-5a1.48,1.48,0,0,1,.21-2c1.1-.84.76,1.18,1.6.9.54-1,.36-2.29,1.64-2.88.49,1.48-.4,2.55-.73,3.73s1,4.65,2,4.88,5.37-2,5.38-3c0-3.41,1.07-6.76.12-10.24s-2.06-4.24-5.6-3.19c-2,.59-3.78,1.67-5.93,1.74S41,70.27,40.7,68c-.31-2,.6-4,0-6.16-2.19,1.08-4.17,2.11-6.2,3-1.22.56-2,1.13-2,2.74A7.28,7.28,0,0,1,31,72.15a.84.84,0,0,1-1.16.32c-.42-.22-.35-.56-.27-.92.57-2.55-1.94-2.31-3.08-3.08s-2.2.38-2.72,1.49c-1.25,2.65-1.41,5.47-1.36,8.62a14.33,14.33,0,0,0,5-3.77c.85,2.24-.81,2.75-1.79,3.57s-2.95,1.3-2.93,2.57c0,1.59,2,2.1,3.31,2.65s3.79,2.26,4.21,1C31.09,82.06,34,80.9,34,78ZM60.08,15.11l-.1-.65a26.45,26.45,0,0,0,2.66-1c2-1,3.69-2.37,3.26-5-.16-1-.6-1.51-1.59-.66-2.89,2.47-6.33,2.65-9.92,2.54-2.57-.08-5.21-.48-7.69.92-2.26,1.27-3.27,3.09-2.84,5.54a6.29,6.29,0,0,0,5.42,4.89c2,.1,5.09-2.07,5.64-4,.18-.62.34-1.35-.25-1.76s-1.17,0-1.67.45-1.18,1.71-2.11.46c-.48-.64-.35-2.09-1.69-1.38-1,.55-.55,1.52-.17,2.38.14.35.32.89-.34,1.07-1.47-1.68-1.71-2.8-.78-3.94a2.18,2.18,0,0,1,3.5-.28c.66.6,1.11.15,1.68,0,1.19-.24,2.4-.28,3.25.77s.14,2.09-.25,3a5.71,5.71,0,0,1-1.48,2.2c-1.26,1-.58,1.57.25,2.29,2.24,1.92,6.12,2,9.46,0a10.83,10.83,0,0,0-3.6-1.75c-.64-.11-1.4-.2-1.15-1.08s.84-.21,1.32-.16c3.18.29,5-1.18,5.41-4.62C64.11,16.42,62.19,14.85,60.08,15.11ZM1.63,16.89c.2,1.4,1.16,1.9,2.4,2.11.48.08,1.23-.25,1.29.54s-.62,1-1.28,1.1-1.88.2-.9,1.08c1.31,1.16,3.07.76,4.58,0s.86-1.93.35-3c-.68-1.39-1.2-3.12.55-3.63,2-.59,2.2-1.94,2.83-3.51-3.31.43-6.39.82-9.23-1.4-.31,2.82,1.56,3.89,3.25,5.06C4.42,16.66,2.93,16.5,1.63,16.89Z" style="fill:#3c3d55"/><path d="M27.19,66a5.15,5.15,0,0,0,2.63.34c.48,0,1.15-.34,1.16.55,0,.52.05,1.2-.24,1.52s-1,0-1.43-.27l-2.68-1.72Z" style="fill:#f3e7e2"/><path d="M53.09,8.61c-3.4,0-6.2.44-8.54,2.37a6.76,6.76,0,0,0-1.95,7.18c.75,2.33,3.57,5.12,5.7,4.59,3.94-1,6.05,2.76,9.42,3,.66,0,.57.86.51,1.37C57,37.59,54.85,47.77,46.65,55.38c-4.2,3.89-9.31,6.43-14.54,8.68-3.18,1.37-5.83-.16-8.2-1.88A53.62,53.62,0,0,1,12.65,51.64a13.35,13.35,0,0,1-2.18-13.27,20.32,20.32,0,0,0,.41-11.55C8.36,14.9,16.66,5.89,25.75,3.16a34.75,34.75,0,0,1,18.94-.47A14.28,14.28,0,0,1,53.09,8.61Z" style="fill:#f3e7e2"/><path d="M34,78c0,3-2.9,4.11-3.79,6.67-.42,1.24-2.81-.45-4.21-1S22.71,82.54,22.68,81c0-1.27,1.91-1.71,2.93-2.57s2.64-1.33,1.79-3.57a14.33,14.33,0,0,1-5,3.77c-.05-3.15.11-6,1.36-8.62.52-1.11,1.7-2.17,2.72-1.49s3.65.53,3.08,3.08c-.08.36-.15.7.27.92A.84.84,0,0,0,31,72.15a7.28,7.28,0,0,0,1.6-4.53c-.07-1.61.76-2.18,2-2.74,2-.92,4-1.95,6.2-3C41.3,64,40.39,66,40.7,68c.34,2.26,1.37,2.88,3.42,2.8s4-1.15,5.93-1.74c3.54-1,4.65-.29,5.6,3.19s-.08,6.83-.12,10.24c0,1-4.32,3.22-5.38,3s-2.36-3.6-2-4.88,1.22-2.25.73-3.73c-1.28.59-1.1,1.93-1.64,2.88-.84.28-.5-1.74-1.6-.9a1.48,1.48,0,0,0-.21,2c.8,1.6,1.67,3.16,2.67,5-5.16,1.33-10.14.92-15.08.05-1.56-.28-1-1.69-.38-2.63s1.36-1.68,1.91-2.6A1.75,1.75,0,0,0,34,78Z" style="fill:#f3e7e2"/><path d="M60.08,15.11c2.11-.26,4,1.31,6.22.28-.45,3.44-2.23,4.91-5.41,4.62-.48-.05-1.09-.65-1.32.16s.51,1,1.15,1.08A10.83,10.83,0,0,1,64.32,23c-3.34,2-7.22,1.91-9.46,0-.83-.72-1.51-1.27-.25-2.29a5.71,5.71,0,0,0,1.48-2.2c.39-.95,1.1-2,.25-3s-2.06-1-3.25-.77c-.57.12-1,.57-1.68,0a2.18,2.18,0,0,0-3.5.28c-.93,1.14-.69,2.26.78,3.94.66-.18.48-.72.34-1.07-.38-.86-.87-1.83.17-2.38,1.34-.71,1.21.74,1.69,1.38.93,1.25,1.52.12,2.11-.46s1.07-.86,1.67-.45.43,1.14.25,1.76c-.55,1.95-3.6,4.12-5.64,4a6.29,6.29,0,0,1-5.42-4.89c-.43-2.45.58-4.27,2.84-5.54,2.48-1.4,5.12-1,7.69-.92,3.59.11,7-.07,9.92-2.54,1-.85,1.43-.37,1.59.66.43,2.64-1.23,4-3.26,5a26.45,26.45,0,0,1-2.66,1Z" style="fill:#d9eaf3"/><path d="M1.63,16.89c1.3-.39,2.79-.23,3.84-1.59-1.69-1.17-3.56-2.24-3.25-5.06,2.84,2.22,5.92,1.83,9.23,1.4-.63,1.57-.83,2.92-2.83,3.51-1.75.51-1.23,2.24-.55,3.63.51,1,1.22,2.21-.35,3s-3.27,1.13-4.58,0c-1-.88.3-1,.9-1.08s1.34-.32,1.28-1.1S4.51,19.08,4,19C2.79,18.79,1.83,18.29,1.63,16.89Z" style="fill:#d9eaf3"/></g></g></svg>