<svg xmlns="http://www.w3.org/2000/svg" viewBox="0 0 56.96 88.05">
    <style>
        g {fill: #fff}
    </style>
    <g>
        <path d="M56.9,84.16v2.18a2.36,2.36,0,0,1-2.74,1.36C51.47,87.3,49,86,46.07,86.39c-1.8.27-3.17-1.52-4.35-2.93-1.57-1.88-3.07-3.85-5.9-3.8a1.59,1.59,0,0,1-1-.39c-3.67-3.2-8.41-5-11.92-8.17-4.13-3.7-7-8.78-10.77-13C10,55.67,9.45,51.86,6.54,49.73c-.28-.2,0,.11-.15-.22C3.63,43.17.27,37.05.21,29.81c0-3-.2-5.95-.21-8.94C0,17,1.14,13.22.31,9.35a2,2,0,0,1,1.18-2.5c1.77-.69,3-2.42,5-2.66a1.29,1.29,0,0,0,1.13-.66C8.57,1,10.66.92,12.77,1.39,15,1.89,16.58-.16,18.7,0,20.62.29,22.21,1.43,24,2.07a8.83,8.83,0,0,0,6.88,0c1.27-.57,2.67-.89,3.76.39a3,3,0,0,1,.21,3.78c.18.32-1.26.47-.07.88,2.26.5,4.52.94,4.93,3.85.15,1.06,1.29,1.14,2,1.62,1.53,1,2.29,2.25.71,3.72-.89.82-.74,1.25.09,1.85.51.37,1,.78,1.47,1.2,2.87,2.54,2.58,4.15-1,5.51a13.93,13.93,0,0,0,1.19,2.71c.4,1.08.64,2.27-.27,3.06-1.61,1.37-1,2.68-.26,4.1a14.84,14.84,0,0,1,1.06,2.2c.45,1.39.22,2.65-1.32,3.05-1.28.33-1.5.92-1.31,2.12.52,3.16,1.72,6.32,0,9.56-.39.75.3,1.73.65,2.57A83,83,0,0,0,47.54,64c1.08,1.87,1.72,3.79.62,5.91-.67,1.29.15,2.25.82,3.21a69,69,0,0,0,4.72,5.25A12.54,12.54,0,0,1,56.9,84.16Z"
              style="fill:#343651"/>
        <path d="M54.18,88c0-.15,0-.3,0-.45a3.71,3.71,0,0,0,2.73-1.19C57.31,89.08,55.2,87.61,54.18,88Z"
              class="ears0"/>
        <path d="M30.22,39.24c3.49,8.31,3.73,17.54,8.36,25.4a3.63,3.63,0,0,1,.34,1.55c.06.9.24,2-.66,2.48-1.19.55-1.43-.85-1.85-1.47-4.36-6.37-6.31-13.69-8.47-21C27,42.89,30.08,41.75,30.22,39.24Z"
              class="ears0"/>
        <path d="M23.72,37.84c1-.49.85.24,1.12.82,1.45,3.06,1.53,6.42,2.29,9.63a74.81,74.81,0,0,0,5.1,14.65c.43.91.75,1.94-.15,2.55s-1.58-.42-2.21-1A12.7,12.7,0,0,1,27,59.92,63.73,63.73,0,0,1,22.1,40.49C22,39.36,21.25,37.48,23.72,37.84Z"
              class="ears0"/>
        <path d="M36.42,44.3c3,7.75,5.69,15.41,9.83,22.44.41.71.54,1.46-.22,1.91a2,2,0,0,1-2.48-.24c-2.77-2.21-4.37-5.2-5.65-8.37-1.63-4-2.49-8.35-3.72-12.53C33.51,45.22,36.69,46.19,36.42,44.3Z"
              class="ears0"/>
        <path d="M15.76,35.55C18,37,19.16,35.94,20,33.88,20.63,37.51,21,41,21.36,44.53c.4,4.37,1.79,8.37,3.15,12.43.2.59.45,1.16.61,1.76.28,1,.69,2.58-.14,3-1.31.64-1.89-.85-2.49-1.85-3.57-6-4.42-12.76-5.87-19.37C16.29,39,16.08,37.41,15.76,35.55Z"
              class="ears0"/>
        <path d="M12.82,15.93c3.63.37,4.31.92,5,4.68.74,4.11,1.79,8.23.44,12.42-.17.53.3,1.39-.66,1.51-.79.1-1-.67-1.33-1.18a27.24,27.24,0,0,1-2.85-9.72c-.3-2.12-.92-4.25-.65-6.44A1,1,0,0,1,12.82,15.93Z"
              class="ears0"/>
        <path d="M13.29,29.41c1.9,7.15,2.19,14.63,4.31,21.74A1.49,1.49,0,0,1,16.84,53c-.66.25-1-.59-1.28-1.16a55.29,55.29,0,0,1-4.39-15.65c-.11-.9.22-1.92-.11-2.69C10.07,31.14,11,30,13.29,29.41Z"
              class="ears0"/>
        <path d="M40.14,67.36c6,4.46,9.51,10.77,14.37,15.86.64.66,1.36,1.84.5,2.66s-1.64-.28-2.28-.77C47.41,81,43.64,75.66,40.4,69.87A3.67,3.67,0,0,1,40.14,67.36Z"
              class="ears0"/>
        <path d="M27.76,40.92c-2.6-2.89-2.45-6.59-3-10.06-.41-2.84-.61-5.71-.88-8.57-.05-.49-.65-1.27.39-1.36.67-.06,1.64-.14,1.86.72,1.55,6.18,3.9,12.28,2.14,18.84C28.27,40.62,28,40.7,27.76,40.92Z"
              class="ears0"/>
        <path d="M34.36,68c4.9,2,6.89,6.5,9.67,10.24,1,1.38,2.22,2.61,3.26,4a1.42,1.42,0,0,1,0,2c-.65.68-1.26,0-1.6-.28A46.08,46.08,0,0,1,34.36,68Z"
              class="ears0"/>
        <path d="M7.25,15.61c.42-.81-.52-2.43.86-2.13,1,.21,2.79.47,3,2,.51,3.54.77,7.12,1.19,10.67.13,1.08-.06,2.25-1,2.45s-1.39-1-1.68-1.83A57,57,0,0,1,7.25,15.61Z"
              class="ears0"/>
        <path d="M11.34,44.2c.3.51.07.85-.25,1-.8.32-1.14-.51-1.36-.9C8.36,41.74,8,38.88,7.39,36.11c-.66-3-1-6.15-1.65-9.21a1.75,1.75,0,0,1,1.11-2.12c.92-.27.75.92,1.07,1.49C10.55,30.84,9,36.16,10.6,40.92A31.68,31.68,0,0,1,11.34,44.2Z"
              class="ears0"/>
        <path d="M19.08,18.93c2.65-.64,3.55.27,3.6,3,.06,4,.68,8.08,1,12.12.05.72.49,1.94-.53,2.11S21.85,35,21.64,34.23A86.1,86.1,0,0,1,19.33,21C19.26,20.36,19.18,19.74,19.08,18.93Z"
              class="ears0"/>
        <path d="M28.68,71.67c-2.94-.35-4.55-2.2-6-4.09C20,64,18.79,59.78,17.36,55.64c-.19-.53-.42-1.08.25-1.37a.77.77,0,0,1,1,.6C20.36,61,26,64.67,28.18,70.5,28.3,70.8,28.44,71.1,28.68,71.67Z"
              class="ears0"/>
        <path d="M29,24.81c5.2,5.53,4.84,12.59,6.3,19.16l-1.46.41c-2.76-6.23-3.7-13-5.41-19.56A.33.33,0,0,1,29,24.81Z"
              class="ears0"/>
        <path d="M4.57,11.71c1.08-.1,1.78.41,1.61,1.34-.44,2.53.18,4.93.57,7.38C7,22,6.66,23.72,5,24.15c-1.9.5-2.17-1.26-2.67-2.63-1.16-3.25.41-6.1,1.11-9.09C3.58,11.72,4.08,11.68,4.57,11.71Z"
              class="ears0"/>
        <path d="M26.63,62.43c1.52,2,2.55,4.42,5.37,4.91.32,0,.61.63.78,1a41.86,41.86,0,0,0,5.07,8.9C34.22,77.79,25.48,66.15,26.63,62.43Z"
              class="ears0"/>
        <path d="M33.8,31.21c6.11,4,5.82,10.06,6.78,15.63a4.52,4.52,0,0,1,.15,1.62C36.76,43.49,35.86,37.32,33.8,31.21Z"
              class="ears0"/>
        <path d="M2,25.06c1.9.15,2.71.93,2.78,3A49.2,49.2,0,0,0,6,36c.18.86.48,1.74-.47,2.07s-1.67-.46-2-1.35A30.2,30.2,0,0,1,2,25.06Z"
              class="ears0"/>
        <path d="M17,60.15c-3.58-2.51-4.06-6.42-5.14-9.94-.32-1.07-1.66-3-.42-3.4s1.32,1.88,1.75,3C14.5,53.14,16.89,56.09,17,60.15Z"
              class="ears0"/>
        <path d="M34.47,29.42c-2.57-2.47-2.44-5.77-3-8.85a.67.67,0,0,1,.35-.58c.42-.13,1-.2,1.22.26A6.27,6.27,0,0,1,34,22.71,47.44,47.44,0,0,0,34.47,29.42Z"
              class="ears0"/>
        <path d="M9.86,49.62a15.36,15.36,0,0,1-4.27-9.14c-.1-.73.13-1.06.63-1.19,1-.25.53.66.6,1C7.41,43.53,9.71,46.16,9.86,49.62Z"
              class="ears0"/>
        <path d="M42.23,28.89c-3.26-1.87-3.95-5-4.44-8.75C41.16,22.5,39.87,26.58,42.23,28.89Z"
              class="ears0"/>
        <path d="M38.32,27.58c2.75,2.59,1.31,6.77,3.69,9.53C38.54,34.84,39.22,30.9,38.32,27.58Z"
              class="ears0"/>
        <path d="M30.57,24.94a19.54,19.54,0,0,1-2.12-6.3c-.08-.54-.84-1.16.28-1.44a1.05,1.05,0,0,1,1.34,1C30.35,20.29,31.13,22.34,30.57,24.94Z"
              class="ears0"/>
        <path d="M37.36,32.92c-2-2.57-1.67-5.66-2-8.61A23.28,23.28,0,0,1,37.36,32.92Z" class="ears0"/>
        <path d="M16.43,10.08c.42,1.59-.45,2.81-.81,4.14a.92.92,0,0,1-1.18.74c-.81-.1-.6-.75-.57-1.23C14,12.05,14.59,10.68,16.43,10.08Z"
              class="ears0"/>
        <path d="M10.25,3.76l6.06,1.61C11.5,6.72,10.82,6.53,10.25,3.76Z" class="ears0"/>
        <path d="M24.74,19.78c-2.83-1.23-2.09-3.55-2.09-5.84C24.61,15.56,24.71,17.59,24.74,19.78Z"
              class="ears0"/>
        <path d="M42,21.22C39.18,20,37.6,17.51,36,15.07,38.89,16.19,39.5,19.71,42,21.22Z" class="ears0"/>
        <path d="M27.36,21.3C25.83,19,25.19,17,25.93,14.72,26.67,16.68,27.62,18.59,27.36,21.3Z"
              class="ears0"/>
        <path d="M13.33,11.24a2.87,2.87,0,0,1-2.11,2.09c-.67.16-1.6-.21-1.45-.72a3.08,3.08,0,0,1,2.41-2.13C12.42,10.43,13.34,10.4,13.33,11.24Z"
              class="ears0"/>
        <path d="M21.32,16.43c0,.05.65,1.24-.39,1.16-1.23-.08-1.47-1.37-1.58-2.44-.07-.59-.14-1.38.81-1.33C21.49,13.88,21.7,14.78,21.32,16.43Z"
              class="ears0"/>
        <path d="M41.33,14.64c-2.94.82-4.81-.77-6.5-2.74C37.26,12.19,38.76,14.72,41.33,14.64Z"
              class="ears0"/>
        <path d="M36.3,23.15c-1.48-.65-1-2.18-1.85-3-.38-.37-.71-1-.17-1.39.26-.21.84,0,1.27,0,.79,0,.75.59.75,1.15C36.29,20.94,36.3,22,36.3,23.15Z"
              class="ears0"/>
        <path d="M12.31,7.61C9.71,8.59,7.6,8.72,6,6.42,7.87,7.36,10,6.67,12.31,7.61Z" class="ears0"/>
        <path d="M7.11,9.18c-1.79,1.14-3.5,1.56-5.34-.38C3.82,8.18,5.43,9.47,7.11,9.18Z" class="ears0"/>
        <path d="M18.16,1.14A15.7,15.7,0,0,0,22.41,4C19.79,4.73,19,4.23,18.16,1.14Z" class="ears0"/>
        <path d="M32.9,17.83c.12.66-.08,1-.82,1-1.16-.09-.82-1.19-1.17-1.8s.21-.95.81-.92C32.86,16.14,32.71,17.11,32.9,17.83Z"
              class="ears0"/>
        <path d="M18.14,14.07c-.32.4.87,1.84-.8,2-.79.08-.89-.64-.68-1.09.36-.76,0-2.05,1.26-2.18C18.75,12.72,18.62,13.26,18.14,14.07Z"
              class="ears0"/>
        <path d="M29.62,12.5c.67.62,2.47-.39,2.22,1.46-.08.57-.37,1.12-1,1C29.56,14.7,29.74,13.52,29.62,12.5Z"
              class="ears0"/>
        <path d="M16,8.81a2.87,2.87,0,0,1-3.15.53C14.06,7.4,14.06,7.4,16,8.81Z" class="ears0"/>
        <path d="M10.66,9.58c-.33.45-.41.67-.55.72-1,.35-1.4,1.83-2.71,1.67-.21,0-.76-.45-.37-.78C8,10.37,8.94,9.38,10.66,9.58Z"
              class="ears0"/>
        <path d="M29.53,15.92c-1.31.31-2.06.14-2.05-1.13,0-.34,0-.84.42-.83C29.07,14,29,15.15,29.53,15.92Z"
              class="ears0"/>
        <path d="M28.18,10c-.24,1.23.39,2.25-.74,2.69-.2.07-.81-.43-.94-.77C26,10.65,27.21,10.61,28.18,10Z"
              class="ears0"/>
        <path d="M34.47,17a5.82,5.82,0,0,1-1.59-3.23C34.86,14.34,34.62,15.62,34.47,17Z" class="ears0"/>
        <path d="M25.6,12.79c0,.82-.41,1.34-1,1.31-.29,0-.7-.72-.8-1.17-.15-.71.64-.76,1-.93C25.73,11.6,25,12.84,25.6,12.79Z"
              class="ears0"/>
        <path d="M21.42,8.71a1.35,1.35,0,0,1-1.1,1c-.64.13-.94-.33-1-.92s.27-1,.94-1S21.3,8,21.42,8.71Z"
              class="ears0"/>
        <path d="M23.83,11.17c-.75,0-1.19-.27-1.16-.73a1.65,1.65,0,0,1,1.2-1.29c.46-.17.68.48.76.83C24.81,10.76,24.08,10.9,23.83,11.17Z"
              class="ears0"/>
        <path d="M28.06,6.45c0,.46-.14,1-.69.84a1.19,1.19,0,0,1-.93-1.37.71.71,0,0,1,.9-.69C28,5.37,28.06,5.9,28.06,6.45Z"
              class="ears0"/>
        <path d="M31.25,11.4c-1.2.09-1.76-.58-2.36-1.67C30.47,9.56,30.84,10.54,31.25,11.4Z" class="ears0"/>
        <path d="M36.09,10c-1.26.5-2-.37-3.2-.75C34.37,8.55,35.11,9.72,36.09,10Z" class="ears0"/>
        <path d="M17.78,9.59c.72.47,1.4.75,1.31,1.52a.93.93,0,0,1-.8.47C17.37,11.25,17.72,10.47,17.78,9.59Z"
              class="ears0"/>
        <path d="M31,5c.67-.14.94-1.4,1.87-.84.12.08.12.55,0,.75C32.41,5.8,31.72,5.26,31,5Z" class="ears0"/>
        <path d="M27,9.52c-.84-.3-1.58-.27-1.68-1.16,0-.23.16-.47.25-.71A2,2,0,0,1,27,9.52Z" class="ears0"/>
        <path d="M12.82,15.93l-.06,1.27a2.35,2.35,0,0,1-.35-2.65C13,14.89,12.83,15.44,12.82,15.93Z"
              class="ears0"/>
        <path d="M19.49,5.74H22C21.15,6.71,20.35,6.53,19.49,5.74Z" class="ears0"/>
        <path d="M24.56,7.12c-.63,1-1.24,1.07-2,.6A1.32,1.32,0,0,1,24.56,7.12Z" class="ears0"/>
        <path d="M29,24.81h-.57c-.71-.52-.44-1.2-.27-2.28Z" class="ears0"/>
        <path d="M21.13,10.74c.44.53,1.23.87.59,1.7-.09.12-.39.25-.43.21C20.72,12.09,21,11.44,21.13,10.74Z"
              class="ears0"/>
        <path d="M34,6.2l0,1.62C32.64,7.12,32.64,7.12,34,6.2Z" class="ears0"/>
    </g>
</svg>