<svg xmlns="http://www.w3.org/2000/svg" viewBox="0 0 61.96 109.61"><g id="Ebene_2" data-name="Ebene 2"><g id="Ebene_1-2" data-name="Ebene 1"><path d="M22.49,91.83a39.81,39.81,0,0,1-11.28-10,12.76,12.76,0,0,1-1.82-13,8.11,8.11,0,0,0,.07-5.74c-1.77-5.66-.6-10.88,3.33-15.78-2.06-.11-3.78-.13-5.23-1.11-.69-.47-1,0-1.26.46a6.78,6.78,0,0,1-1.06,1.51C4.17,49,3,49.91,1.56,49.32c-1.15-.45-1-1.58-1-2.59,0-1.69,1.09-2.33,3-2.46a17.84,17.84,0,0,1-3-3.35A3.09,3.09,0,0,1,0,38.64a1.93,1.93,0,0,1,1.46-1.77c.82-.18,1.2.55,1.4,1.33a7.63,7.63,0,0,0,.79,1.43c.08-.68.1-.92.14-1.15.24-1.2-.66-3.16,1.38-3.26S7,37.35,7,38.35c0,2.87,1.65,3.61,3.88,3.82,3.36.31,6-1.19,6.64-3.71a2.2,2.2,0,0,1,.45-1.2c3.59-3.73,3.7-8.32.38-12.42a19.28,19.28,0,0,1-1.79-2.36c-.58-1-1.24-2.18-.21-3.24s2.18-.23,3.45.26c-1.11-2.29-2.13-4.63-3.35-6.86-.72-1.32-.92-2.5.43-3.28s2.31.3,3,1.38a18.47,18.47,0,0,1,2.05,4.47,30.35,30.35,0,0,1,0-3.44c.11-1.08.43-2.34,1.76-2.36s1.86,1.24,2,2.27a20.39,20.39,0,0,1-.17,5.41c-.23,1.19-.19,2.33-.38,3.79,1.48-1.24,1.07-2.92,1.77-4.14.49-.85.82-2,2.1-1.74s1.14,1.44,1.11,2.41a13.47,13.47,0,0,1-4.24,9.31c2.5,1,2.75,2.66.47,4.19a3.81,3.81,0,0,0-1.73,2.75c-.27,1.24-.45,2.05,1.12,2.36a1.68,1.68,0,0,1,1,1.18c.17,2.94,2.13,2.92,4.37,3.08a23.25,23.25,0,0,1,6.36,1.27c2.72,1,4.37-1.29,6-2.84a18.78,18.78,0,0,0,4.1-6.63,7.86,7.86,0,0,0-.33-6.76c-1.05-2.08-2-4.23-3-6.32a4.75,4.75,0,0,1-.5-2.08,2.24,2.24,0,0,1,1.48-2.37c1.15-.4,1.83.54,2.34,1.41a11.57,11.57,0,0,0,1,1.82,14.15,14.15,0,0,0-1.52-9.23c-1.14-2.22-1.78-4.46-.7-6.92C46.56.84,46.84.07,47.8,0S49,.74,49.37,1.33A19.82,19.82,0,0,1,52.07,12a12.36,12.36,0,0,0,1.4-5.71,5,5,0,0,1,.4-2.63c.41-.64.74-1.23,1.62-1.21s1.15.65,1.37,1.4c1.37,4.57.11,8.82-1.57,13-.36.88-1.14,1.67-.58,2.86,2.07-.55,2.39-2.43,3.12-4s.6-4.56,3-3.77c2,.64.77,3.16.3,4.83-1.3,4.61-2.57,6.12-7.8,9.4,1.55.27,3.2.31,3.07,2.29s-1.5,2.59-3,3c-.76.2-1.37.25-1.57,1.13-1,4.51-4.35,7.57-7.1,11-.47.59-1.13.82-.34,1.88,6.24,8.42,5.56,17.68,2.8,27-1.84,6.22-5.22,11.51-11,15-1.78,1-1.75,7.11-.12,8.33,1.17.88,2.07.13,3-.4,4.66-2.71,6.37-1.81,6.84,3.63,0,.27.05.54.08.81.66,5.91-.3,7.61-6.15,9A25,25,0,0,1,20,105.7c-1.33-.84-2.08-1.69-1.54-3.49.46-1.53.25-3.25.48-4.86.32-2.13,1.07-4,3.42-4.76l3.72,1.22c.25-1.06.42-2-1.22-1.88A19.11,19.11,0,0,1,22.49,91.83ZM46.38,38.42l-.44.61.22.15.24-.74L47,37.9a5.32,5.32,0,0,0,2.47-3.46c.89-2.76,2-5.1,5.31-5.45a2,2,0,0,0,0-.45c-2.2-.44-2.3-.46-2.39-1.85-.06-1-.31-2.27,1-2.84.74-.33,1.57-.43,2.3-.77a1.47,1.47,0,0,0,.79-1c.06-.61-.56-.51-1-.59-2.7-.53-3.16-1.44-2.11-4.08a26.45,26.45,0,0,0,1.91-5.07c.41-2.37,1.73-4.82,0-7.61a11.9,11.9,0,0,1-.25,1.31c-.72,2.25-.16,4.73-1.2,6.91a2.07,2.07,0,0,1-2.1,1.43c-1.22-.12-.93-1.1-1-1.87-.22-1.52-.48-3-.61-4.55A8.18,8.18,0,0,0,47.7,2.65a5.66,5.66,0,0,0,.45,4.43,19.11,19.11,0,0,1,2.09,10.51c-.13,2.28-1,3.19-3.27,2.27a5.42,5.42,0,0,0-1.31-3.35,2.87,2.87,0,0,0,1.24,3.41c.22.48.41,1,.65,1.45,2.55,4.93,3.4,9.85-.14,14.72a2.76,2.76,0,0,0-.5,1.78ZM58.92,18.25a.85.85,0,0,0,.43-1.07c0-.06-.14-.09-.21-.14-.07.41-.13.82-.2,1.23l-.55.54c-.73.42-1.31.9-.85,1.89.91-.43.84-1.18.84-1.9ZM19.65,15l.23.73.2-.16c-.12-.21-.26-.41-.39-.61a4.36,4.36,0,0,0-2.3-4.3A8.41,8.41,0,0,0,19.65,15ZM24,46.6c-.67.25-1.36.44-2,.75s-1.41.49-1.57,1.32a.75.75,0,0,0,.45.55,2.34,2.34,0,0,0,2.26-.46A2.31,2.31,0,0,0,24,46.62l.57-.52c1,0,1.44-1.6,2.61-1.05,3,1.42,6.23,1,9.38,1,1.65,0,1.75,1,1.53,2.14a5.32,5.32,0,0,1-.63,1.5c-.49,1-.47,1.82.62,2.24,1.27.49,1.87-.34,2.13-1.42a10.83,10.83,0,0,0,.13-1.9c.15-2.51.6-4.8,3.18-6.13a2.67,2.67,0,0,0,1.66-2.71C43.49,41,42,42.3,40.34,43.33c-2.82,1.77-6.05,2-9.21,1.58-3.62-.43-5.69-2.63-5.74-6.56a13.22,13.22,0,0,0-.25,2.84c0,.66.64,1.48-.3,2a2,2,0,0,1-2.27-.39,6.39,6.39,0,0,0-1.21-.56,5.1,5.1,0,0,0-2-2.77c0,1.39.32,2.57,1.85,2.9.13,1.11.83,1.5,1.86,1.58C24.45,44,24.63,45,24.55,46Zm-7.12-3.85a6.52,6.52,0,0,1-1,.31c-3.23.49-6.57,1.8-9.39-1.17-.38-.39-.59-1.75-1.51-.62-.34.42-1.74.32-1,1s1.11,2.33,1.47,2.13c1.7-1,2.95.62,4.4.49,2.51-.24,5.51,1.08,7.18-2.09l.21-.29Zm6.55-25.06a4.1,4.1,0,0,1-2.71.58L20.56,17c-.08.05-.19.08-.21.14a.84.84,0,0,0,.42,1.07c-.18,1.25,1.28,2.86.18,3.6-2,1.36-.85,2.25-.08,3.41.29.45.38,1,.63,1.49,1.65,3.2.63,6.43-.25,10,2.68-2.06.89-5.91,3.95-7.28-.12-.13-.23-.26-.36-.38-2.06-2-1.38-3.41.83-4.65a2,2,0,0,0,1.09-1.78c1.61-1.54,1.6-3.61,2-6-1.79,1.9-1.48,4.07-2,6-3.26.88-3.27.88-3.27-2.48,0-.81,0-1.61,0-2.41,1.06-1.94.36-3.93.58-6.59-.49.77-.58.84-.58.92C23.49,13.93,23.47,15.81,23.46,17.69ZM21.8,45.52a2.63,2.63,0,0,0-3.51-.5,14.89,14.89,0,0,0-7.35,16.64,13.08,13.08,0,0,1-.21,8.27c-1,2.68-1.37,5.42.13,8.14A30.93,30.93,0,0,0,23.28,90.31a2.5,2.5,0,0,0,2.07.29c9.46-3,17.09-8,20.13-18.11a44.92,44.92,0,0,0,1.78-7.65c.7-6,0-11.75-3.17-17-.32-.54-.6-1.27-1.33-1.22-.91.06-.57,1-.79,1.5a10.82,10.82,0,0,0-.51,3.2c-.2,2.08-1.76,2.95-3.71,2.2s-2.39-2.37-1-5.86c-2.15,0-4.31.37-6.27-.09-2.4-.57-4.18-.8-5.61,1.74a3.5,3.5,0,0,1-4.52,1.5,2.32,2.32,0,0,1-1.77-2.19C18.64,46.69,20.1,46.11,21.8,45.52ZM33.83,89c-3.44,1.34-7.12,2.1-6,6.88a.85.85,0,0,1-.14.52c-.27.56-.38,1.35-1.14,1.38-1,0-.79-.76-.83-1.37-.12-1.6-1.28-2.12-2.59-2.29s-1.87.92-2.24,2c-.46,1.37-1.35,3.23-.34,4.11s2-1.13,3.42-1.74c.11,2.14-1.33,2.71-2.63,3.47-.73.43-2.29.83-1.13,2.08a8.41,8.41,0,0,0,4.77,2.46c1.4.23,1.4-1.66,2.31-2.38a9.5,9.5,0,0,0,1.53-2.11c.64,1.72-.32,2.58-1.19,3.54s-.68,1.64.73,2a20.11,20.11,0,0,0,9.66.19c1.11-.27,1.7-.82.81-1.88-.71-.84-1.62-1.64-1.58-2.76.06-1.75,2.07.54,2.37-1l.79.19c-.58,1.58-1.09,3.39.57,4.18,1.31.62,2.46-.78,3.39-1.74.7-.73.45-1.73.39-2.61-.09-1.53-.32-3.06-.45-4.59-.14-1.75-1.24-2.14-2.66-1.75A10.72,10.72,0,0,0,39.23,97c-2.57,1.48-5.19.11-5.38-2.88C33.75,92.44,33.83,90.81,33.83,89ZM35.45,43.1c-2.13-.69-4.23-1.57-7-1.14C30.84,43.64,33.15,43.31,35.45,43.1ZM21.17,37.85l-.11-.19-.16.11.19.27Z" style="fill:#4f3534"/><path d="M22.49,91.83a19.11,19.11,0,0,0,2.38.1c1.64-.12,1.47.82,1.22,1.88l-3.72-1.22Z" style="fill:#d7d7b5"/><path d="M21.8,45.52c-1.7.59-3.16,1.17-3.2,3.06a2.32,2.32,0,0,0,1.77,2.19,3.5,3.5,0,0,0,4.52-1.5c1.43-2.54,3.21-2.31,5.61-1.74,2,.46,4.12.09,6.27.09-1.41,3.49-1.12,5.05,1,5.86s3.51-.12,3.71-2.2a10.82,10.82,0,0,1,.51-3.2c.22-.54-.12-1.44.79-1.5.73,0,1,.68,1.33,1.22,3.15,5.29,3.87,11.07,3.17,17a44.92,44.92,0,0,1-1.78,7.65c-3,10.09-10.67,15.13-20.13,18.11a2.5,2.5,0,0,1-2.07-.29A30.93,30.93,0,0,1,10.86,78.07c-1.5-2.72-1.15-5.46-.13-8.14a13.08,13.08,0,0,0,.21-8.27A14.89,14.89,0,0,1,18.29,45,2.63,2.63,0,0,1,21.8,45.52Z" style="fill:#b18369"/><path d="M33.83,89c0,1.86-.08,3.49,0,5.12.19,3,2.81,4.36,5.38,2.88a10.72,10.72,0,0,1,2.38-1.27c1.42-.39,2.52,0,2.66,1.75.13,1.53.36,3.06.45,4.59.06.88.31,1.88-.39,2.61-.93,1-2.08,2.36-3.39,1.74-1.66-.79-1.15-2.6-.57-4.18l-.79-.19c-.3,1.54-2.31-.75-2.37,1,0,1.12.87,1.92,1.58,2.76.89,1.06.3,1.61-.81,1.88a20.11,20.11,0,0,1-9.66-.19c-1.41-.34-1.65-1-.73-2s1.83-1.82,1.19-3.54A9.5,9.5,0,0,1,27.25,104c-.91.72-.91,2.61-2.31,2.38A8.41,8.41,0,0,1,20.17,104c-1.16-1.25.4-1.65,1.13-2.08,1.3-.76,2.74-1.33,2.63-3.47-1.39.61-2.26,2.77-3.42,1.74s-.12-2.74.34-4.11c.37-1.05.86-2.15,2.24-2s2.47.69,2.59,2.29c0,.61-.12,1.41.83,1.37.76,0,.87-.82,1.14-1.38a.85.85,0,0,0,.14-.52C26.71,91.05,30.39,90.29,33.83,89Z" style="fill:#b18369"/><path d="M47,19.86c2.26.92,3.14,0,3.27-2.27A19.11,19.11,0,0,0,48.15,7.08a5.66,5.66,0,0,1-.45-4.43A8.18,8.18,0,0,1,50.12,8c.13,1.53.39,3,.61,4.55.11.77-.18,1.75,1,1.87A2.07,2.07,0,0,0,53.87,13c1-2.18.48-4.66,1.2-6.91a11.9,11.9,0,0,0,.25-1.31c1.68,2.79.36,5.24,0,7.61a26.45,26.45,0,0,1-1.91,5.07c-1,2.64-.59,3.55,2.11,4.08.43.08,1.05,0,1,.59a1.47,1.47,0,0,1-.79,1c-.73.34-1.56.44-2.3.77-1.3.57-1,1.8-1,2.84.09,1.39.19,1.41,2.39,1.85a2,2,0,0,1,0,.45c-3.3.35-4.42,2.69-5.31,5.45A5.32,5.32,0,0,1,47,37.9l0,0a2.76,2.76,0,0,1,.5-1.78c3.54-4.87,2.69-9.79.14-14.72-.24-.47-.43-1-.65-1.45Z" style="fill:#8c5143"/><path d="M21.36,42.19a6.39,6.39,0,0,1,1.21.56,2,2,0,0,0,2.27.39c.94-.47.27-1.29.3-2a13.22,13.22,0,0,1,.25-2.84c.05,3.93,2.12,6.13,5.74,6.56,3.16.38,6.39.19,9.21-1.58,1.65-1,3.15-2.29,4.88-3.57a2.67,2.67,0,0,1-1.66,2.71c-2.58,1.33-3,3.62-3.18,6.13a10.83,10.83,0,0,1-.13,1.9c-.26,1.08-.86,1.91-2.13,1.42C37,51.5,37,50.64,37.5,49.68a5.32,5.32,0,0,0,.63-1.5C38.35,47,38.25,46,36.6,46c-3.15,0-6.36.43-9.38-1-1.17-.55-1.61,1-2.61,1.05L24.55,46c.08-1.09-.1-2-1.45-2.14-1-.08-1.73-.47-1.86-1.58Z" style="fill:#8c5143"/><path d="M26.76,22.62a2,2,0,0,1-1.09,1.78c-2.21,1.24-2.89,2.68-.83,4.65.13.12.24.25.36.38-3.06,1.37-1.27,5.22-3.95,7.28.88-3.53,1.9-6.76.25-10-.25-.47-.34-1-.63-1.49-.77-1.16-1.95-2.05.08-3.41,1.1-.74-.36-2.35-.18-3.6l0,0a4.1,4.1,0,0,0,2.71-.58l.05,0c0,.8,0,1.6,0,2.41,0,3.36,0,3.36,3.27,2.48Z" style="fill:#8c5143"/><path d="M17,42.84c-1.68,3.16-4.68,1.84-7.19,2.08-1.45.13-2.7-1.45-4.4-.49-.36.2-.77-1.44-1.47-2.13s.69-.61,1-1c.92-1.13,1.13.23,1.51.62,2.82,3,6.16,1.66,9.39,1.17a6.52,6.52,0,0,0,1-.31Z" style="fill:#8c5143"/><path d="M35.45,43.1c-2.3.21-4.61.54-7-1.14C31.22,41.53,33.32,42.41,35.45,43.1Z" style="fill:#b18369"/><path d="M24.05,46.62a2.44,2.44,0,0,1-3.13,2.6.75.75,0,0,1-.45-.55c.16-.83,1-1,1.57-1.32s1.32-.5,2-.75Z" style="fill:#8c5143"/><path d="M26.75,22.62c.54-1.9.23-4.07,2-6-.41,2.36-.4,4.43-2,6Z" style="fill:#8c5143"/><path d="M19.65,15a8.41,8.41,0,0,1-2.26-4.34,4.36,4.36,0,0,1,2.3,4.3Z" style="fill:#8c5143"/><path d="M21.24,42.32c-1.53-.33-1.82-1.51-1.85-2.9a5.1,5.1,0,0,1,2,2.77Z" style="fill:#8c5143"/><path d="M23.46,17.69c0-1.88,0-3.76.05-5.63,0-.08.09-.15.58-.92-.22,2.66.48,4.65-.58,6.59Z" style="fill:#8c5143"/><path d="M46.9,19.92a2.87,2.87,0,0,1-1.24-3.41A5.42,5.42,0,0,1,47,19.86Z" style="fill:#8c5143"/><path d="M58.38,18.8c0,.72.07,1.47-.84,1.9-.46-1,.12-1.47.85-1.89Z" style="fill:#8c5143"/><path d="M20.77,18.25a.84.84,0,0,1-.42-1.07c0-.06.13-.09.21-.14.06.41.13.82.19,1.23Z" style="fill:#8c5143"/><path d="M58.94,18.27l.2-1.23c.07.05.19.08.21.14a.85.85,0,0,1-.43,1.07Z" style="fill:#8c5143"/><path d="M46.4,38.44l-.24.74L45.94,39l.44-.61Z" style="fill:#8c5143"/><path d="M21.17,37.85l-.08.19-.19-.27.16-.11Z" style="fill:#8c5143"/><path d="M19.69,15c.13.2.27.4.39.61l-.2.16c-.07-.25-.15-.49-.23-.73Z" style="fill:#8c5143"/><path d="M47,37.9l-.55.54,0,0,.53-.55Z" style="fill:#8c5143"/><path d="M24.61,46.1c-.19.17-.38.34-.56.52l0,0,.52-.56Z" style="fill:#8c5143"/><path d="M58.39,18.81l.55-.54,0,0-.54.55Z" style="fill:#8c5143"/><path d="M16.91,42.75l.29-.21-.2.29Z" style="fill:#8c5143"/></g></g></svg>