<svg xmlns="http://www.w3.org/2000/svg" viewBox="0 0 74.56 81.59"><g id="Ebene_2" data-name="Ebene 2"><g id="Ebene_1-2" data-name="Ebene 1"><path d="M29.89,63.78a40,40,0,0,1-11.28-10,12.77,12.77,0,0,1-1.82-13A8.11,8.11,0,0,0,16.87,35a15.69,15.69,0,0,1,1-12.35,39.91,39.91,0,0,1-12.8-6.5,13,13,0,0,1-4.49-14C.89,1.17,1-.2,2.6,0,4,.23,4.06,1.33,4.22,2.45c.27,1.85.7,3.68,1,5.52A1.85,1.85,0,0,0,6.82,9.59c.85.12,1-.8,1.42-1.36,1.34-1.75.61-3.66.72-5.51C9,1.88,8.52.56,10.15.48a2,2,0,0,1,2.3,1.73c.55,2.34,1.55,4.62.6,7.1a3.42,3.42,0,0,0-.14,1.07c0,.8-.18,1.84.82,2,.82.15,1-.86,1.34-1.47.74-1.34.18-2.84.47-4.26.25-1.2.18-2.41,1.91-2.33S19.4,5.6,19.5,7a26.36,26.36,0,0,1-.83,7c-.09.44-.42.93,0,1.23a1.12,1.12,0,0,0,1.46-.27A25.07,25.07,0,0,1,23,12.36c1.09-.74,2.28-.55,2.4.92s.42,1.62,1.73,1a23.17,23.17,0,0,1,15.64-1.4c1.44.35,2.23.49,2.39-1.53.15-1.75,1.9-2,3.17-.67.19.2.27.54.49.65,1.33.7,2,3.05,3.44,2.53,1-.39.25-2.61.42-4,.25-2.13.46-4.26,1.94-6,.45-.51.81-1.46,1.66-1A2.09,2.09,0,0,1,57.6,4.8c-.05,1-.12,2-.22,3a12.69,12.69,0,0,0-.29,1.57c0,1.36.11,3.22,1.49,3.38S60,10.8,60.18,9.79c.37-2.7.77-5.32,2.34-7.63C63.12,1.28,63.71.11,65,.81s.86,1.81.45,2.86a7.94,7.94,0,0,0-.3,5.76c.31.89.66,1.41,1.54,1.62s1.41-.43,1.76-1a24.1,24.1,0,0,0,1.63-3.35,13.64,13.64,0,0,1,.65-2c.73-1.12.7-3.33,2.59-2.94C75,2.1,74.45,4,74.51,5.24c.28,5.95-2.42,10.1-7.74,12.62a41.77,41.77,0,0,1-12.08,3.57C58.26,33.63,56.77,44.9,48.8,55a8.66,8.66,0,0,1-3.19,2.91c-4,1.58-3.33,4.88-3.16,7.94.12,1.95,1.74,2.62,3.53,1.69.56-.29,1-.73,1.58-1,2.91-1.74,5.41-.39,5.66,3,.06.81.11,1.63.2,2.44.63,5.6,0,7-5.4,8.55A24.71,24.71,0,0,1,27,77.33a2.24,2.24,0,0,1-1.12-2.9c.47-1.62.27-3.43.52-5.13.31-2.14,1.06-4,3.41-4.76l3.73,1.24c.37-1.31.19-2.11-1.48-1.87A10.25,10.25,0,0,1,29.89,63.78Zm17.5-46.62a3.64,3.64,0,0,0-2.48-1.9A23.19,23.19,0,0,0,28,15.79C20.23,19,16.57,26,18.44,34a12.79,12.79,0,0,1-.28,7.74c-1.1,2.89-1.38,5.79.28,8.63A31.14,31.14,0,0,0,30.56,62.18a2.47,2.47,0,0,0,2.05.41C38.84,60.44,45.06,58,48.87,52.31c5.8-8.72,7.66-18.24,4.56-28.5a2.34,2.34,0,0,0-2.66-2c-1.79,0-3.61.34-5.38-.37a2.12,2.12,0,0,1-1.46-2.56c.16-1.15.91-1.43,1.94-1.44C46.36,17.44,46.93,17.66,47.39,17.16ZM47.59,74c-.4,2.44-.19,4,.74,4.31,1.55.43,2.47-.77,3.4-1.71.71-.72.45-1.73.39-2.61-.09-1.53-.32-3.06-.45-4.59-.14-1.75-1.25-2.13-2.67-1.74a10.88,10.88,0,0,0-2.37,1.27c-2.57,1.48-5.19.11-5.38-2.89-.1-1.66,0-3.34,0-5.17-1.4.6-2.44,1.15-3.55,1.49-2.18.67-3.34,1.88-3,4.34a2.85,2.85,0,0,1-1.51,3.12c.44-2.67-.91-3.66-2.9-3.75-1.83-.08-2.93,3-2.35,6.29,1.46.2,2.06-1.36,3.4-1.89.05,2.25-1.54,2.7-2.81,3.48-.77.47-2.1.84-.87,2.16,2.33,2.53,5.1,2.47,7.14-.19.47-.61.87-1.28,1.36-2,.68,1.62-.24,2.5-1.09,3.48-.56.64-1.37,1.49.3,1.92a20.57,20.57,0,0,0,10.19.28c1-.24,1.49-.92.68-1.77-1.74-1.82-2.41-3.28.89-3.89A1.65,1.65,0,0,1,47.59,74Zm8.5-69.48a4.46,4.46,0,0,0-1.65,3.38c-.24,1.69,0,3.45-.12,5.17-.14,2.65-1.83,3.54-4,2.11a24.6,24.6,0,0,1-2-1.83c-.55-.46-.6-2-1.58-1.34s0,1.6.45,2.33c.22.38.65.63.91,1,.58.82,2.17,1.26,1.56,2.52s-1.87,1.29-3.1,1.3c-.37,0-.92-.18-1,.54.22.15.43.39.66.42a36.46,36.46,0,0,0,21.48-4.45C72,13.22,73.94,8.54,73.07,3.5,71.29,5.4,71.48,8,70.13,9.89c-.95,1.31-1.72,3.08-3.73,2.55s-2.63-2.22-2.83-4.18c-.22-2.14.47-4.13.88-6.2A8.41,8.41,0,0,0,62,7.37a20.78,20.78,0,0,1-1.16,5,2.22,2.22,0,0,1-2.11,1.81,2.47,2.47,0,0,1-2.25-1.7,7.53,7.53,0,0,1-.31-5.06C56.37,6.47,56.75,5.57,56.09,4.49ZM11.25,3.94,10.7,4a13,13,0,0,1,0,2.65c-.41,2-.9,4-3.41,4.3-2.72.32-3.15-1.77-3.88-3.67-.63-1.68.19-3.59-.95-5.55a9.82,9.82,0,0,0,.68,9.5c2.8,4.63,7.51,6.6,12.2,8.56,3.69,1.54,5.61.41,6.44-4-1.24,1-2.52,1.76-3.82.88s-.61-2.34-.66-3.56a10.2,10.2,0,0,1,.35-1.85,7.11,7.11,0,0,0-.5-4.83,26.78,26.78,0,0,0-.45,4.69,3.08,3.08,0,0,1-3.19,3.07c-2,0-2.14-1.7-2.2-3.15C11.18,8.63,11.25,6.28,11.25,3.94Zm12.39,11,.05-.24-.33.07c0,.07,0,.16.09.2S23.57,14.9,23.64,14.89Z" style="fill:#4f3534"/><path d="M29.89,63.78a10.25,10.25,0,0,0,2.13.13c1.67-.24,1.85.56,1.48,1.87l-3.73-1.24Z" style="fill:#d7d7b5"/><path d="M47.39,17.16c-.46.5-1,.28-1.52.28-1,0-1.78.29-1.94,1.44a2.12,2.12,0,0,0,1.46,2.56c1.77.71,3.59.38,5.38.37a2.34,2.34,0,0,1,2.66,2c3.1,10.26,1.24,19.78-4.56,28.5-3.81,5.72-10,8.13-16.26,10.28a2.47,2.47,0,0,1-2.05-.41A31.14,31.14,0,0,1,18.44,50.39c-1.66-2.84-1.38-5.74-.28-8.63A12.79,12.79,0,0,0,18.44,34C16.57,26,20.23,19,28,15.79a23.19,23.19,0,0,1,16.95-.53A3.64,3.64,0,0,1,47.39,17.16Z" style="fill:#b18369"/><path d="M47.59,74a1.65,1.65,0,0,0-.46-.07c-3.3.61-2.63,2.07-.89,3.89.81.85.29,1.53-.68,1.77a20.57,20.57,0,0,1-10.19-.28c-1.67-.43-.86-1.28-.3-1.92.85-1,1.77-1.86,1.09-3.48-.49.73-.89,1.4-1.36,2-2,2.66-4.81,2.72-7.14.19-1.23-1.32.1-1.69.87-2.16,1.27-.78,2.86-1.23,2.81-3.48-1.34.53-1.94,2.09-3.4,1.89-.58-3.25.52-6.37,2.35-6.29,2,.09,3.34,1.08,2.9,3.75a2.85,2.85,0,0,0,1.51-3.12c-.36-2.46.8-3.67,3-4.34,1.11-.34,2.15-.89,3.55-1.49,0,1.83-.08,3.51,0,5.17.19,3,2.81,4.37,5.38,2.89A10.88,10.88,0,0,1,49,67.63c1.42-.39,2.53,0,2.67,1.74.13,1.53.36,3.06.45,4.59.06.88.32,1.89-.39,2.61-.93.94-1.85,2.14-3.4,1.71C47.4,78,47.19,76.41,47.59,74Z" style="fill:#b18369"/><path d="M56.09,4.49c.66,1.08.28,2,.08,2.93a7.53,7.53,0,0,0,.31,5.06,2.47,2.47,0,0,0,2.25,1.7,2.22,2.22,0,0,0,2.11-1.81,20.78,20.78,0,0,0,1.16-5,8.41,8.41,0,0,1,2.45-5.31c-.41,2.07-1.1,4.06-.88,6.2.2,2,.82,3.65,2.83,4.18s2.78-1.24,3.73-2.55C71.48,8,71.29,5.4,73.07,3.5c.87,5-1.06,9.72-5.42,12.14a36.46,36.46,0,0,1-21.48,4.45c-.23,0-.44-.27-.66-.42.09-.72.64-.54,1-.54,1.23,0,2.57-.19,3.1-1.3s-1-1.7-1.56-2.52c-.26-.37-.69-.62-.91-1-.42-.73-1.48-1.65-.45-2.33s1,.88,1.58,1.34a24.6,24.6,0,0,0,2,1.83c2.2,1.43,3.89.54,4-2.11.09-1.72-.12-3.48.12-5.17A4.46,4.46,0,0,1,56.09,4.49Z" style="fill:#8c5143"/><path d="M11.25,3.94c0,2.34-.07,4.69,0,7,.06,1.45.25,3.16,2.2,3.15a3.08,3.08,0,0,0,3.19-3.07,26.78,26.78,0,0,1,.45-4.69,7.11,7.11,0,0,1,.5,4.83A10.2,10.2,0,0,0,17.27,13c.05,1.22-.58,2.7.66,3.56s2.58.15,3.82-.88c-.83,4.46-2.75,5.59-6.44,4-4.69-2-9.4-3.93-12.2-8.56a9.82,9.82,0,0,1-.68-9.5c1.14,2,.32,3.87.95,5.55.73,1.9,1.16,4,3.88,3.67,2.51-.3,3-2.33,3.41-4.3A13,13,0,0,0,10.7,4Z" style="fill:#8c5143"/><path d="M23.64,14.89c-.07,0-.16.06-.19,0s-.06-.13-.09-.2l.33-.07Z" style="fill:#8c5143"/></g></g></svg>