<svg xmlns="http://www.w3.org/2000/svg" viewBox="0 0 57.36 93.51"><g id="Ebene_2" data-name="Ebene 2"><g id="Ebene_1-2" data-name="Ebene 1"><path d="M8.18,26.74a16,16,0,0,1-1.91-7c0-2.17-1.08-3.16-2.63-4.24C1.53,14.05-.24,12.29,0,9.31A2.38,2.38,0,0,1,1.5,7c1-.37,1.76.34,2.3,1.06C4.49,9,5,10,5.62,11c.74,1.16,1.26,1.06,1.78-.24a9.86,9.86,0,0,0,.36-2.67A2,2,0,0,1,9.32,6.43a1.56,1.56,0,0,1,1.71,1C12,9.3,13,11.09,12.26,13.29c-.27.85-.53,2,.1,2.61.85.8,1.82-.17,2.71-.48a9.74,9.74,0,0,0,1.44-.73c1-.53,2-1.22,2.91-.11a2.85,2.85,0,0,1,0,3.51c-1.09,1.73-2.86,2.37-4.59,3.11-.86.36-1.84.4-1.73,1.9a7.53,7.53,0,0,0,1.7,4.67c.42.5.75-.19,1.07-.39,7-4.36,14.39-4.7,22-2,1,.35,1.6.43,2.1-.7s1.46-2.27,2-3.49c1.25-3.14,1-3.46-2.2-4.5a9.41,9.41,0,0,1-5.36-3.86,2.35,2.35,0,0,1,.12-3.2c1-1.05,2-.89,3.09,0a10.77,10.77,0,0,0,1.9.92c1.24.63,2.77,1.21,3.83.44s.09-2.13-.09-3.26a8.75,8.75,0,0,1,1.41-6.41c1.11-1.64,2.39-1.42,3.14.38.06.17.17.32.22.49.36,1.22.07,3.16,1.33,3.41s1.35-1.87,2.29-2.7c.53-.47.81-1.21,1.31-1.72.75-.76,1.56-1.64,2.79-.95a2.74,2.74,0,0,1,1.5,3.18c-.67,2.87-1.81,5.4-4.61,6.92a4.4,4.4,0,0,0-2.51,4,27,27,0,0,1-3.27,10c.69.57,1.07.08,1.36-.06,1.16-.55,2.39-1.91,3.36,0a3.11,3.11,0,0,1-1.31,4.41A8.73,8.73,0,0,1,45,29.78c5.23,10,4.54,20,1,30.2a18.68,18.68,0,0,1-9,10.7c-2.48,1.31-3.2,6.37-1.38,8.45,1,1.18,2,.66,2.85,0,4.85-3.79,7.27-1.7,7.51,4.44.24,6.53-1.53,8.37-8.07,9.5a27.1,27.1,0,0,1-16.59-2.26c-2.45-1.15-4.49-2.67-3.25-6,.52-1.41.35-3.06.63-4.57.35-1.93,1.1-3.63,3.41-4.33A44.37,44.37,0,0,1,10.67,65.78c-2.94-3.91-3.83-8.17-2.19-12.73a9.81,9.81,0,0,0-.09-7.54c-1.34-3.26-.29-6.57.86-9.74.37-1,.85-2,1.39-3.17A40.46,40.46,0,0,1,6.43,32C4.35,31.39,3.55,30,4,28.16c.51-2,2.13-1.79,3.68-1.05.18.45.47.64,1,.39Zm9.37-10.07c-.76.29-1.5.62-2.27.85-1.35.42-2.81,1.5-4.11.42s-1.2-2.61-.8-4.24a4.86,4.86,0,0,0-.83-4.56c-.46,4.4-1.52,5.29-5,4.25C4,11.87,3.57,10.28,1.92,9c-.21,2.37.65,3.69,2.53,4.4a8.49,8.49,0,0,1,4,8.16c-.06,1.18.69,2.42,1.17,3.59s2.2,2.38.9,3.85-2.83.42-4.24-.15c-.09,0-.26.18-.39.27.89.92,5.47,1.8,6.4,1.17a1.25,1.25,0,0,0,.52-1.85,14,14,0,0,1-1.05-2.21c-1.56-4.37-1.11-5.29,3.13-7.2,1.08-.49,2.56-.71,2.67-2.37l.23-.25Zm19.11-4.91-.26-.21.22.25c.69,2.45,2.76,2.91,4.83,3.22,2.83.43,3.33,1.26,3,4.18-.36,3.48-2.48,5.92-4.39,8.54-.73,1-3,1.75-1.85,3.05s2.54-.55,3.59-1.27c1.48-1,2.55-2.32,4.77-1.68A2.48,2.48,0,0,0,49.72,26l.14-.21-.12.23a12.41,12.41,0,0,1-1.56.42c-1,.13-2.32.59-3.08-.32S45,24,45.44,23c.62-1.5,1.55-3,1.7-4.54.49-4.92,2-9,6.61-11.66,1.55-.9,1.82-2.81,1-5.1-1.38,2.22-2.19,4.17-3.88,5.48s-3.11.88-3.76-1.08c-.35-1-.56-2.08-.94-3.54-1.21,2.62-.8,4.91-.67,7.11.19,3.46-.81,4.4-4.19,3.58C39.69,12.87,38.37,11.72,36.66,11.76Zm9.79,33.85A32.17,32.17,0,0,0,44.8,34.94c-1.13-3.52-1.17-3.51-4.54-2-1.33.59-2.62.93-3.61-.54-.83-1.21-1.67-2.44,0-3.71.78-.6,1.09-1.24-.28-1.63C29.11,25,22.18,25.38,16,30.12c-4.75,3.62-7.21,10.51-5.31,15.45a9.88,9.88,0,0,1,0,7.33C9.34,56.76,9.43,60.58,12.08,64a37.33,37.33,0,0,0,10.65,9.57,2.23,2.23,0,0,0,1.81.36c9.3-2.8,17.33-7.11,20.23-17.36A36.53,36.53,0,0,0,46.45,45.61ZM28.56,84.67c.94,2-.16,3.07-1,4.17s-.93,1.75.83,2.06a31.83,31.83,0,0,0,5.67.47c4.46,0,4.45,0,2.79-4-.26-.61-1-1.38-.4-2,.86-.93,1.09.24,1.52.68s.64.22.89-.11c.37-.51.82-.8,1.33-.27s-.1,1-.33,1.42c-.68,1.37-.14,2.93,1.07,2.8,1.53-.16,3.41-1.05,3.29-3.31-.07-1.26-.29-2.51-.41-3.77-.38-4-.38-4-3.74-2-3.64,2.16-7,.37-7.2-3.85,0-.81,0-1.63,0-2.45,0-.44,0-.89-.61-1-1.26-.3-4.23,1.9-4.21,3.22,0,2.15-.34,4.07-2.65,5.66.46-3-.93-4.93-3.26-4.31s-1.71,3.31-1.67,5.3c1.76.32,2.2-2.31,4.09-1.61a6.57,6.57,0,0,1-3.73,3.92c-.6.29-1.74.76-1.25,1.44,1.08,1.49,2.85,2.12,4.57,2.74,1.52.56,1.27-.81,1.72-1.41C26.65,87.28,27.49,86.13,28.56,84.67Z" style="fill:#4f3534"/><path d="M46.44,45.61a36.2,36.2,0,0,1-1.67,10.94C41.87,66.8,33.84,71.11,24.54,73.91a2.23,2.23,0,0,1-1.81-.36A37.33,37.33,0,0,1,12.08,64c-2.65-3.4-2.74-7.22-1.38-11.08a9.88,9.88,0,0,0,0-7.33c-1.9-4.94.56-11.83,5.31-15.45,6.21-4.74,13.14-5.1,20.4-3.05,1.37.39,1.06,1,.28,1.63-1.67,1.27-.83,2.5,0,3.71,1,1.47,2.28,1.13,3.61.54,3.37-1.52,3.41-1.53,4.54,2A31.91,31.91,0,0,1,46.44,45.61Z" style="fill:#b18369"/><path d="M28.56,84.67c-1.07,1.46-1.91,2.61-2.76,3.75-.45.6-.2,2-1.72,1.41-1.72-.62-3.49-1.25-4.57-2.74-.49-.68.65-1.15,1.25-1.44a6.57,6.57,0,0,0,3.73-3.92c-1.89-.7-2.33,1.93-4.09,1.61,0-2-.58-4.7,1.67-5.3s3.72,1.35,3.26,4.31C27.64,80.76,28,78.84,28,76.69c0-1.32,2.95-3.52,4.21-3.22.59.14.6.59.61,1,0,.82,0,1.64,0,2.45.21,4.22,3.56,6,7.2,3.85,3.36-2,3.36-2,3.74,2,.12,1.26.34,2.51.41,3.77.12,2.26-1.76,3.15-3.29,3.31-1.21.13-1.75-1.43-1.07-2.8.23-.44.86-.86.33-1.42s-1-.24-1.33.27c-.25.33-.55.45-.89.11s-.66-1.61-1.52-.68c-.57.62.14,1.39.4,2,1.66,3.92,1.67,3.94-2.79,4a31.83,31.83,0,0,1-5.67-.47c-1.76-.31-1.77-.89-.83-2.06S29.5,86.7,28.56,84.67Z" style="fill:#b18369"/><path d="M49.72,26a2.48,2.48,0,0,1-3.12,1.89c-2.22-.64-3.29.67-4.77,1.68-1,.72-2.38,2.7-3.59,1.27s1.12-2.05,1.85-3.05c1.91-2.62,4-5.06,4.39-8.54.3-2.92-.2-3.75-3-4.18-2.07-.31-4.14-.77-4.83-3.22l0,0c1.71,0,3,1.11,4.61,1.5,3.38.82,4.38-.12,4.19-3.58-.13-2.2-.54-4.49.67-7.11.38,1.46.59,2.52.94,3.54.65,2,2.14,2.34,3.76,1.08s2.5-3.26,3.88-5.48c.86,2.29.59,4.2-1,5.1-4.57,2.65-6.12,6.74-6.61,11.66-.15,1.55-1.08,3-1.7,4.54-.42,1-1.12,2.12-.34,3.06s2,.45,3.08.32A12.41,12.41,0,0,0,49.74,26Z" style="fill:#8c5143"/><path d="M17.58,16.71c-.11,1.65-1.59,1.87-2.67,2.36-4.24,1.91-4.69,2.83-3.13,7.2a14,14,0,0,0,1.05,2.21,1.25,1.25,0,0,1-.52,1.85c-.93.63-5.51-.25-6.4-1.17.13-.09.3-.3.39-.27,1.41.57,3,1.62,4.24.15s-.38-2.59-.9-3.85S8.41,22.78,8.47,21.6a8.49,8.49,0,0,0-4-8.16l.06,0c3.51,1,4.57.15,5-4.25a4.86,4.86,0,0,1,.83,4.56c-.4,1.63-.47,3.2.8,4.24s2.76,0,4.11-.42c.77-.23,1.51-.56,2.27-.85Z" style="fill:#8c5143"/><path d="M4.45,13.44c-1.88-.71-2.74-2-2.53-4.4C3.57,10.28,4,11.87,4.51,13.39Z" style="fill:#8c5143"/><path d="M8.18,26.74l.47.76c-.48.25-.77.06-1-.39Z" style="fill:#fefefe"/><path d="M17.55,16.67l.26-.22-.23.25Z" style="fill:#8c5143"/><path d="M36.62,11.8l-.22-.25.26.21Z" style="fill:#8c5143"/><path d="M49.74,26l.12-.23-.14.21Z" style="fill:#8c5143"/></g></g></svg>