<svg xmlns="http://www.w3.org/2000/svg" viewBox="0 0 52.49 69.54"><g id="Ebene_2" data-name="Ebene 2"><g id="Ebene_1-2" data-name="Ebene 1"><path d="M17.38,51.72c-5-3-9.65-6.41-12.21-11.69C2.34,34.17-2,28.25,1,21.3,2.9,17.06,3.9,12.39,6.67,8.56,13.79-1.28,29.5-2.72,38.27,4.67A122.24,122.24,0,0,1,48,14c6.52,6.9,5.71,18.36-1.19,24.91-1.4,1.33-3.09,2.8-4.84,2.72-5-.23-7.53,3.68-11.12,5.8-1.61,1-1.41,7.07.08,8.2,1.29,1,2.25.06,3.21-.52,4.24-2.56,6.22-1.53,6.6,3.48,0,.45.09.9.14,1.35.64,5.61,0,7-5.39,8.56a24.71,24.71,0,0,1-21.06-3.21,2.24,2.24,0,0,1-1.12-2.91c.47-1.61.26-3.42.51-5.12.31-2.14,1.07-4,3.42-4.77L21,53.72c.37-1.31.19-2.11-1.48-1.86A9.62,9.62,0,0,1,17.38,51.72ZM4.52,33.92A8.84,8.84,0,0,0,5.6,37.59,29.68,29.68,0,0,0,18.3,50.25a2.33,2.33,0,0,0,1.54.31,36.81,36.81,0,0,0,14.08-7.42c.76-.67,1.23-1.18-.23-1.89-8.21-3.93-8.06-12.25-4-17.81a6.34,6.34,0,0,0,1.28-3.94,10.33,10.33,0,0,1,6.3-9.65c2.42-.9,2.6-1.6.84-3.5a6.24,6.24,0,0,0-1.5-1.15C29.77,1.27,22.66.68,15.46,3.77c-5.8,2.5-10,6.85-10,13.37C5.42,22.76,7.48,28.42,4.52,33.92ZM37,30.26c.61,3.33,2.85,4.65,5.46,3.49,3.14-1.4,4.25-4.63,2.86-8.29-2.17-5.73-7.56-7-12.75-2.95C28.17,25.89,27,32.08,30,36.22a10.58,10.58,0,0,0,14.08,2.44c8.91-5.77,8.77-20.35-.25-26.1-5-3.22-10.39-.77-11.2,5.16-.21,1.5-.33,2.69,2,1.75,4.52-1.81,7.83-.85,10.79,3s3.16,11.73-3.57,13.21c-3.48.76-7-2.64-6.49-6,.42-2.68,2.94-1.31,4.08-2.53.73-.78,1.74-.4,2.46.26s.56,1.71.34,2.56C42,31,41,31.14,40,31A27.07,27.07,0,0,1,37,30.26ZM28.72,48.78a37.41,37.41,0,0,1-3.56,1.5c-2.2.67-3.32,1.9-3,4.35a2.76,2.76,0,0,1-1.35,3c0-2.28-1.42-3.82-3.07-3.7-1.83.13-2.93,3.13-2.33,6.31,1.49.28,2.05-1.38,3.53-1.9-.2,2.19-1.63,2.78-2.95,3.53-.79.44-2.09.84-.86,2.16,2.38,2.53,5.1,2.46,7.15-.21.46-.61.86-1.28,1.35-2,.67,1.64-.26,2.52-1.11,3.5-.57.65-1.32,1.49.34,1.91a20.77,20.77,0,0,0,10.18.27c1-.25,1.48-.94.66-1.78-1.82-1.85-2.32-3.28.91-3.87.13,0,.29.16.58.33-.39,1.61-1.34,3.94,1.39,4a3.12,3.12,0,0,0,3-3.52c-.16-1.89-.32-3.78-.52-5.67-.14-1.24-.95-1.64-2.12-1.57a6,6,0,0,0-2.67,1.24c-2.82,1.72-5.46.3-5.6-3C28.66,52.13,28.72,50.59,28.72,48.78ZM3.25,32.09C5,24.83,5,24.83,3.19,18.9,1.35,23.26.79,27.43,3.25,32.09Z" style="fill:#4f3534"/><path d="M17.38,51.72a9.62,9.62,0,0,0,2.13.14c1.67-.25,1.85.55,1.48,1.86l-3.73-1.24Z" style="fill:#d7d7b5"/><path d="M4.52,33.92c3-5.5.9-11.16.93-16.78,0-6.52,4.21-10.87,10-13.37C22.66.68,29.77,1.27,36.57,5.2a6.24,6.24,0,0,1,1.5,1.15c1.76,1.9,1.58,2.6-.84,3.5a10.33,10.33,0,0,0-6.3,9.65,6.34,6.34,0,0,1-1.28,3.94c-4,5.56-4.17,13.88,4,17.81,1.46.71,1,1.22.23,1.89a36.81,36.81,0,0,1-14.08,7.42,2.33,2.33,0,0,1-1.54-.31A29.68,29.68,0,0,1,5.6,37.59,8.84,8.84,0,0,1,4.52,33.92Z" style="fill:#b18369"/><path d="M37,30.26A27.07,27.07,0,0,0,40,31c.92.13,1.93,0,2.22-1.07.22-.85.44-1.85-.34-2.56s-1.73-1-2.46-.26c-1.14,1.22-3.66-.15-4.08,2.53-.52,3.35,3,6.75,6.49,6,6.73-1.48,6.45-9.51,3.57-13.21s-6.27-4.77-10.79-3c-2.36.94-2.24-.25-2-1.75.81-5.93,6.16-8.38,11.2-5.16,9,5.75,9.16,20.33.25,26.1A10.58,10.58,0,0,1,30,36.22c-3-4.14-1.81-10.33,2.55-13.71,5.19-4,10.58-2.78,12.75,2.95,1.39,3.66.28,6.89-2.86,8.29C39.81,34.91,37.57,33.59,37,30.26Z" style="fill:#8c5143"/><path d="M28.72,48.78c0,1.81-.06,3.35,0,4.89.14,3.33,2.78,4.75,5.6,3A6,6,0,0,1,37,55.46c1.17-.07,2,.33,2.12,1.57.2,1.89.36,3.78.52,5.67a3.12,3.12,0,0,1-3,3.52c-2.73-.1-1.78-2.43-1.39-4-.29-.17-.45-.35-.58-.33-3.23.59-2.73,2-.91,3.87.82.84.33,1.53-.66,1.78a20.77,20.77,0,0,1-10.18-.27c-1.66-.42-.91-1.26-.34-1.91.85-1,1.78-1.86,1.11-3.5-.49.73-.89,1.4-1.35,2-2.05,2.67-4.77,2.74-7.15.21-1.23-1.32.07-1.72.86-2.16,1.32-.75,2.75-1.34,2.95-3.53-1.48.52-2,2.18-3.53,1.9-.6-3.18.5-6.18,2.33-6.31,1.65-.12,3,1.42,3.07,3.7a2.76,2.76,0,0,0,1.35-3c-.34-2.45.78-3.68,3-4.35A37.41,37.41,0,0,0,28.72,48.78Z" style="fill:#b18369"/><path d="M3.25,32.09c-2.46-4.66-1.9-8.83-.06-13.19C5,24.83,5,24.83,3.25,32.09Z" style="fill:#8c5143"/></g></g></svg>