<svg xmlns="http://www.w3.org/2000/svg" viewBox="0 0 58.07 64.06">
    <g>
        <path d="M58.07,33.53A17.86,17.86,0,0,1,52.6,45.67,122.89,122.89,0,0,1,40,56c-3,2.25-5.82,4.63-8.69,7-1.35,1.12-2.59,1.51-4.12.28C20.57,58,13.92,52.83,7.37,47.51A19.82,19.82,0,0,1,.3,35.88C-1,29.6,2.11,23.75,8.62,20.76a3.14,3.14,0,0,0,2.21-3.06C11.76,8.05,16.64,2.55,25.73.37c8.4-2,18.54,4.31,19.65,13,.58,4.5,2.09,7.06,6.29,8.77C55.44,23.63,58,28.73,58.07,33.53Zm-2.2-.44c.39-6.16-7.09-12.88-13.66-12-5.41.72-8.63,4.19-11.41,8.39-.78,1.16-.55,3.48-2.13,3.44s-1.49-2.39-2.18-3.68c-2.75-5.1-8.89-8.73-13.58-7.75C2.29,23.7-1.48,33.4,5.75,42.67c6.06,7.76,15,12.42,22.39,18.83,1,.86,1.6.32,2.32-.32,5.6-5,11.89-9.2,17.67-14C52.64,43.43,55.69,38.9,55.87,33.09ZM28.81,29.56c.58-.89,1-1.58,1.46-2.23,2.91-3.89,6.42-7.12,11.42-7.61,2.53-.25,3.05-1.18,2.76-3.32-.11-.8-.12-1.59-.29-2.4A15.79,15.79,0,0,0,27.28,1.58c-9.42.68-15.31,9.62-15,16.49,0,.7-.14,1.49,1,1.53C20.36,19.83,25.53,23.11,28.81,29.56Z"
              style="fill:#563b3a"/>
        <path d="M55.87,33.09c-.18,5.81-3.23,10.34-7.74,14.09-5.78,4.8-12.07,9-17.67,14-.72.64-1.33,1.18-2.32.32C20.78,55.09,11.81,50.43,5.75,42.67c-7.23-9.27-3.46-19,7.16-21.17,4.69-1,10.83,2.65,13.58,7.75.69,1.29.47,3.64,2.18,3.68S30,30.65,30.8,29.49c2.78-4.2,6-7.67,11.41-8.39C48.78,20.21,56.26,26.93,55.87,33.09ZM29.22,53.38c2.25.49,2.81-.51,2.77-2.64-.06-3.09-.46-6.17,1.34-9.18a4,4,0,0,0-1.76-5.45,4.72,4.72,0,0,0-5.82.4c-1.83,1.52-2.4,4.18-1.12,5.64,2.36,2.67,1.78,5.55,1.76,8.43C26.37,52.72,26.78,54,29.22,53.38Z"
              style="fill:#a06d51"/>
        <path d="M28.81,29.56c-3.28-6.45-8.45-9.73-15.51-10-1.14,0-1-.83-1-1.53C12,11.2,17.86,2.26,27.28,1.58A15.79,15.79,0,0,1,44.16,14c.17.81.18,1.6.29,2.4.29,2.14-.23,3.07-2.76,3.32-5,.49-8.51,3.72-11.42,7.61C29.79,28,29.39,28.67,28.81,29.56Z"
              style="fill:none"/>
        <path d="M29.22,53.38c-2.44.6-2.85-.66-2.83-2.8,0-2.88.6-5.76-1.76-8.43-1.28-1.46-.71-4.12,1.12-5.64a4.72,4.72,0,0,1,5.82-.4,4,4,0,0,1,1.76,5.45c-1.8,3-1.4,6.09-1.34,9.18C32,52.87,31.47,53.87,29.22,53.38Zm-1.65-5.93c0,.81-.06,1.63,0,2.43.09,1.08-.67,2.58,1.61,2.48s1.19-1.48,1.32-2.44c.37-2.88-1.15-5.94,1.28-8.68.87-1,.5-2.9-1-3.77s-2.88-1-4.19.25c-1.15,1.12-1.83,2.7-.63,3.79C27.94,43.27,27.51,45.36,27.57,47.45Z"
              style="fill:#563b3a"/>
        <path d="M27.57,47.45c-.06-2.09.37-4.18-1.57-5.94-1.2-1.09-.52-2.67.63-3.79,1.31-1.28,2.82-1.06,4.19-.25s1.84,2.8,1,3.77c-2.43,2.74-.91,5.8-1.28,8.68-.13,1,.87,2.36-1.32,2.44s-1.52-1.4-1.61-2.48C27.51,49.08,27.57,48.26,27.57,47.45Z"
              style="fill:none"/>
    </g>
</svg>