<svg xmlns="http://www.w3.org/2000/svg" viewBox="0 0 90.74 91.45"><g id="Ebene_2" data-name="Ebene 2"><g id="Ebene_1-2" data-name="Ebene 1"><path d="M39.39,71.67c-.13-1.4,1-3-1.79-2.49-1.34.26-3.1-.8-4.47-1.6-6.46-3.76-11.8-8.69-15-15.54-1.71-3.6-2.4-7.46-.66-11.22,1.54-3.34,1.36-6.61.5-10-.73-2.85.66-6.24-.41-8.41-1-2-4.77-2.38-6.92-4.25C6.66,14.74,3.78,10.44.67,6.33-.6,4.67,0,3.41,2,3c8-1.59,15.65-1.44,22,4.54,1.18,1.11,1.93,1,3.2.21,9.89-6.6,20.28-6.16,30.88-2a5.71,5.71,0,0,1,.68.45c4,2.34,4.12,2.47,7.72-.77C73-.36,80.5-.8,88.5.8c1.55.31,3,1.05,1.74,2.88C86.29,9.16,82.71,15,76.46,18.37c-2,1.09-4,2-6.44,1.26-1.4-.42-2,.22-1.78,1.68A45.47,45.47,0,0,1,68.81,30,45.12,45.12,0,0,1,61,54.84a24.86,24.86,0,0,1-7.47,6.61,4.15,4.15,0,0,0-2.2,4c.06,1.81-.12,3.65.09,5.44C51.7,73.19,53,73.71,55,72.6c1.63-.87,3.05-2.24,5.17-1.81,3.49.71,5,2.51,5.32,6.69.08,1.08,0,2.17,0,3.26,0,6.45-1.22,8.47-7.57,9.79-8.3,1.71-16.5,1.14-24.29-2.65-3.37-1.65-5.51-3.88-4.68-8a40.69,40.69,0,0,1,1-5.55C31.6,69.74,35.15,68.57,39.39,71.67ZM6.69,7.43c.47-2,2.21-1.83,3.47-1.66,4.47.58,9,1.3,12.61,4.31.59.49,1.11.61,1.5-.21C17.09,3.48,7.73,1.46,1.54,5,3,6.83,4.36,8.7,5.83,10.51,8.68,14,11.73,17.37,16,19.32c.86.4,1.94,1.2,2.54-.18s-.8-1.31-1.51-1.76c-2.37-1.53-5.15-2.68-5.81-5.89,1.74.68,2.57,2.46,4.13,3.4,3.5,2.1,3.29,2,6-1,2-2.23.41-3-1.08-3.74A22.56,22.56,0,0,0,6.69,7.43Zm73,1.5c.68,1.23-.42,1.76-1,2.44C75,15.54,70.36,17,65,16.62c-.92-.06-2.35-.38-2.44,1s1.46,1.84,2.37,1.62c4.65-1.16,9.64-1,13.72-4.42S85.29,7.21,88.71,3.5c.92-1,.05-1.3-.61-1.43C81.32.63,74.79.8,69,5.25,66.75,6.94,64.76,9,62.13,10.1c-3.21,1.35-4.08.86-1.28,5.64.75-.15.91-.86,1.19-1.38A19.14,19.14,0,0,1,73.49,5.05c3.06-.94,6.18-2.11,9.5-1,.68.21,1.36.39.46,1.19a23.47,23.47,0,0,0-17.84,6.29c-.93.85-2.77,2.13-1.9,3.46s2.81.54,4.31.36C72.74,14.71,76.18,11.79,79.65,8.93ZM18.56,45.21a13.86,13.86,0,0,0,2,7.24c3,5.5,7.5,9.45,12.65,12.8,2.63,1.72,5.32,2.62,8.35.94C43.66,65,45.9,64,48,62.77c4.2-2.5,8.63-4.88,11.43-9,6.32-9.36,8.41-19.78,7.2-31-.14-1.28-1-1.43-1.8-1.64-3.53-.94-5.33-3.5-6.56-6.67-.55-1.42-.95-3.3,0-4.14,2.07-1.93.25-2.36-.84-2.92C49.27,3.23,41,3.54,32.72,6.83A20.61,20.61,0,0,0,19.45,28.34c.5,4.83,2,9.53-.59,14.2A7.64,7.64,0,0,0,18.56,45.21ZM57,81.67c.34.4.14.73,0,1-1.32,2.13.08,3.71,1.42,4.84,1.19,1,2.5-.37,3.65-1a3,3,0,0,0,1.82-3.32c-.2-1.43-.31-2.87-.45-4.31-.71-6.94-1.75-7.51-8-4.42-2.89,1.42-5,.33-5.83-2.81-.68-2.46-.15-4.89.07-7.44-2.72,1.3-5.16,2.48-7.61,3.62-.77.36-.9.81-.84,1.7a6.38,6.38,0,0,1-2.72,6.29c.81-2.7-.77-3.52-2.3-4.13s-2.6.21-3.55,1.35c-1.72,2.07-1.53,4.55-1.42,7,.05,1.08.81.56,1.41.43,1.66-.33,2.43-1.89,3.92-3,.25,3-1.75,3.58-3.49,4.46-.81.4-2.39,1-1.47,1.92a13.73,13.73,0,0,0,7.2,3.53c1,.18,1.12-.77,1.47-1.35,1-1.55,1.86-3.14,3.17-5.37.25,2.86-1.06,4.32-1.87,5.92-.6,1.18-.59,1.6.93,1.92,4,.81,7.94.46,11.92.47a3,3,0,0,0,2.12-.81c-.69-1.77-2.55-2.81-2.45-4.83,0-.49.35-1.49.51-1.23C56.06,84.46,56,81.3,57,81.67Z" style="fill:#4d3030"/><path d="M18.56,45.21a7.64,7.64,0,0,1,.3-2.67c2.56-4.67,1.09-9.37.59-14.2A20.61,20.61,0,0,1,32.72,6.83c8.23-3.29,16.55-3.6,24.66.59,1.09.56,2.91,1,.84,2.92-.91.84-.51,2.72,0,4.14,1.23,3.17,3,5.73,6.56,6.67.79.21,1.66.36,1.8,1.64,1.21,11.18-.88,21.6-7.2,31-2.8,4.14-7.23,6.52-11.43,9C45.9,64,43.66,65,41.54,66.19c-3,1.68-5.72.78-8.35-.94C28,61.9,23.51,58,20.54,52.45A13.86,13.86,0,0,1,18.56,45.21Z" style="fill:#b18369"/><path d="M57,81.67c-1-.37-1,2.79-2.45.5-.16-.26-.49.74-.51,1.23-.1,2,1.76,3.06,2.45,4.83a3,3,0,0,1-2.12.81c-4,0-7.95.34-11.92-.47-1.52-.32-1.53-.74-.93-1.92.81-1.6,2.12-3.06,1.87-5.92-1.31,2.23-2.21,3.82-3.17,5.37-.35.58-.5,1.53-1.47,1.35a13.73,13.73,0,0,1-7.2-3.53c-.92-.89.66-1.52,1.47-1.92,1.74-.88,3.74-1.5,3.49-4.46-1.49,1.1-2.26,2.66-3.92,3-.6.13-1.36.65-1.41-.43-.11-2.43-.3-4.91,1.42-7,1-1.14,2.12-1.93,3.55-1.35s3.11,1.43,2.3,4.13a6.38,6.38,0,0,0,2.72-6.29c-.06-.89.07-1.34.84-1.7,2.45-1.14,4.89-2.32,7.61-3.62-.22,2.55-.75,5-.07,7.44.86,3.14,2.94,4.23,5.83,2.81,6.27-3.09,7.31-2.52,8,4.42.14,1.44.25,2.88.45,4.31a3,3,0,0,1-1.82,3.32c-1.15.58-2.46,1.94-3.65,1-1.34-1.13-2.74-2.71-1.42-4.84C57.18,82.4,57.38,82.07,57,81.67Z" style="fill:#b18269"/><path d="M83.45,5.19c.9-.8.22-1-.46-1.19-3.32-1.06-6.44.11-9.5,1A19.14,19.14,0,0,0,62,14.36c-.28.52-.44,1.23-1.19,1.38-2.8-4.78-1.93-4.29,1.28-5.64C64.76,9,66.75,6.94,69,5.25,74.79.8,81.32.63,88.1,2.07c.66.13,1.53.44.61,1.43-3.42,3.71-6.13,8-10.08,11.3s-9.07,3.26-13.72,4.42c-.91.22-2.46-.29-2.37-1.62s1.52-1,2.44-1c5.38.35,10-1.08,13.66-5.25.59-.68,1.69-1.21,1-2.44C80.8,7.56,82.66,6.92,83.45,5.19Z" style="fill:#773727"/><path d="M11.17,11.48c.66,3.22,3.44,4.37,5.81,5.9.71.45,2.06.48,1.51,1.76s-1.68.58-2.54.18C11.73,17.37,8.68,14,5.83,10.51,4.36,8.7,3,6.83,1.54,5c6.19-3.52,15.55-1.5,22.73,4.89-.39.82-.91.7-1.5.21-3.66-3-8.14-3.73-12.61-4.31-1.26-.17-3-.3-3.47,1.66a19.69,19.69,0,0,0,3.78,3.74l.59.48Z" style="fill:#773727"/><path d="M83.45,5.19c-.79,1.73-2.65,2.37-3.8,3.74C76.18,11.79,72.74,14.71,68,15.3c-1.5.18-3.49.9-4.31-.36s1-2.61,1.9-3.46A23.47,23.47,0,0,1,83.45,5.19Z" style="fill:#dcac7c"/><path d="M10.47,11.17A19.69,19.69,0,0,1,6.69,7.43a22.56,22.56,0,0,1,13.5,2.68c1.49.77,3.06,1.51,1.08,3.74-2.68,3-2.47,3.14-6,1-1.56-.94-2.39-2.72-4.13-3.41l-.11.17C11.13,11.16,10.77,11.21,10.47,11.17Z" style="fill:#dcac7c"/><path d="M10.47,11.17c.3,0,.66,0,.59.48Z" style="fill:#4d3030"/></g></g></svg>