<svg xmlns="http://www.w3.org/2000/svg" viewBox="0 0 58.26 94.92"><g id="Ebene_2" data-name="Ebene 2"><g id="Ebene_1-2" data-name="Ebene 1"><path d="M23.45,75c.34-1.6.71-2.77-1.9-2.27-1.26.24-2.91-.82-4.21-1.58C10.83,67.27,5.4,62.35,2.2,55.33.58,51.78-.07,48,1.58,44.36a14.47,14.47,0,0,0,.61-9.72A21.82,21.82,0,0,1,3.91,20.18c.69-1.53.87-2.45-.6-3.78C.73,14.05,0,10.79,0,7.35,0,4.84,1.57,3.8,3.84,3.77c4.11-.06,7.84,1,10.73,4.11.49.51.92,1,1.57.68,6.34-3.08,13.11-1.95,19.75-2.05A4.58,4.58,0,0,0,39.41,5C43.35,1,48.57.25,53.79,0,57.08-.15,59,3.09,58,6.26A31.38,31.38,0,0,1,51.52,18c-1,1.08-.37,1.8-.15,2.64A45.18,45.18,0,0,1,45.2,58.31a20.69,20.69,0,0,1-7,6.3,4.93,4.93,0,0,0-2.67,5.12c.11,1.44-.07,2.91.07,4.35.24,2.63,1.48,3.18,3.81,1.9,1.54-.84,2.93-2.09,4.94-1.7,3.56.7,5.13,2.64,5.35,6.94.1,1.81-.15,3.66.13,5.44.45,2.94-1.09,4.47-3.4,5.69C38,96.81,22.18,95.27,14.72,89.28a3.76,3.76,0,0,1-1.59-3.4,52.16,52.16,0,0,1,.58-6.49C14.39,75.07,18,71.07,23.45,75ZM42.07,5.39c-4.09,2.27-6,6.87-3.9,10.24,0-4.11,2.61-6.91,3.89-10.25l.23-.21s-.11,0-.14,0S42.1,5.33,42.07,5.39ZM30,8.11V8.2a47.68,47.68,0,0,0-6,.06,33.35,33.35,0,0,0-5.49,1.43A20.88,20.88,0,0,0,3.91,33.33C4.61,37.65,5,41.71,3.16,46c-1.2,2.81-.41,6,1,8.92,3,6.06,7.77,10.38,13.34,14,2.56,1.63,5.12,2.38,8.13.88a90.84,90.84,0,0,0,9.92-5.56c3.09-2.05,6.25-4.07,8.29-7.31,6.83-10.84,9-22.45,5.93-35-.57-2.36-1.76-2.64-3.69-2.14l-1.83.45c-7.33,1.78-7.9-1.27-8.67-6.94-.23-1.67,1.62-3.88.27-4.88-1.19-.88-3.5-.24-5.31-.26ZM23,79c.51-2.4-1.23-3.15-2.73-3.73s-2.78.43-3.68,1.67c-1.43,2-1.26,4.27-1.21,6.52,0,1,.58.89,1.29.67A6.47,6.47,0,0,0,20.32,81a2,2,0,0,1-.6,3,14.27,14.27,0,0,1-2.6,1.44c-1.75.83-2.38,1.72-.24,2.84,1.53.8,3.06,1.56,4.61,2.3,1.38.66,2.32.34,3.05-1.11a15.6,15.6,0,0,1,3.22-4.9c0,2.49-1.31,4-2,5.62-.26.58-1,1.42.26,1.66a40.32,40.32,0,0,0,14.86.14c-.74-2-2.75-3.15-2.58-5.27,0-.46.31-1.52.61-1.07,1.59,2.41,1.31-1.37,2.42-.45.54.59-.16,1.32-.41,1.8-1.05,2,.92,2.72,1.59,3.91s1.68.1,2.44-.17c2.26-.83,3.62-2.33,3.15-5-.19-1.07-.31-2.15-.43-3.22C46.81,75.41,46,75,39.5,78.1c-2.75,1.33-4.87.26-5.7-2.71-.7-2.52-.27-5,.07-7.6-2.7,1.28-5.21,2.48-7.74,3.66-.83.39-.75.94-.71,1.76C25.53,75.38,25.16,77.46,23,79ZM44.67,11.69c1.09.48,3.41.39,1.34,2.6-.65.7.05.75.51,1,1.68,1,1,1.8-.37,2.44-.68.31-1.72-.14-2.13,1.14,2.59-.34,5.09-.55,6.72-2.86C53,12.89,55.31,9.75,56.48,6A3.34,3.34,0,0,0,53.69,1.6,10.34,10.34,0,0,0,42.42,9.33c1.21.26,2-1.94,3-.87C46.3,9.3,44.68,10.29,44.67,11.69Zm-39.49,4a9.63,9.63,0,0,0,.08-5.47c-.32-1,.31-1.24,1.06-1.48s1.5.73,2.4,0A12.21,12.21,0,0,0,7.67,6.55C6.5,5,4.79,5.19,3.22,5.59A2,2,0,0,0,1.75,8.14,14.11,14.11,0,0,0,5.18,15.64Zm37.9-4.78c-2.22,1.47-2.55,3.87-3.62,5.79-.21.37-.9,1.23,0,1.83a2.24,2.24,0,0,0,2.28.25c.83-.36,1.23-1.36,2.26-1.39.41,0,.52-.05.18-.58C43.15,15.1,43.05,13.16,43.08,10.86ZM10.05,7c.35,1.54.39,3,1.79,3.58.37.17,1.5-.34,1.44-.89C13.1,8,11.68,7.6,10.05,7ZM7.79,10C8.64,11.59,7,12.64,8,13.9,9.39,12.82,10.93,11.83,7.79,10Z" style="fill:#4d3030"/><path d="M30,8.11h.55c1.81,0,4.12-.62,5.31.26,1.35,1-.5,3.21-.27,4.88.77,5.67,1.34,8.72,8.67,6.94l1.83-.45c1.93-.5,3.12-.22,3.69,2.14,3,12.54.9,24.15-5.93,35-2,3.24-5.2,5.26-8.29,7.31a90.84,90.84,0,0,1-9.92,5.56c-3,1.5-5.57.75-8.13-.88C11.94,65.28,7.16,61,4.17,54.9,2.75,52,2,48.79,3.16,46c1.83-4.27,1.45-8.33.75-12.65A20.88,20.88,0,0,1,18.53,9.69,33.35,33.35,0,0,1,24,8.26a47.68,47.68,0,0,1,6-.06Z" style="fill:#b18369"/><path d="M23,79c2.17-1.52,2.54-3.6,2.43-5.77,0-.82-.12-1.37.71-1.76,2.53-1.18,5-2.38,7.74-3.66-.34,2.61-.77,5.08-.07,7.6.83,3,3,4,5.7,2.71,6.5-3.14,7.31-2.69,8.13,4.53.12,1.07.24,2.15.43,3.22.47,2.63-.89,4.13-3.15,5-.76.27-1.82,1.25-2.44.17s-2.64-1.91-1.59-3.91c.25-.48.95-1.21.41-1.8-1.11-.92-.83,2.86-2.42.45-.3-.45-.58.61-.61,1.07-.17,2.12,1.84,3.22,2.58,5.27A40.32,40.32,0,0,1,26,91.92c-1.3-.24-.52-1.08-.26-1.66.73-1.67,2-3.13,2-5.62a15.6,15.6,0,0,0-3.22,4.9c-.73,1.45-1.67,1.77-3.05,1.11-1.55-.74-3.08-1.5-4.61-2.3-2.14-1.12-1.51-2,.24-2.84a14.27,14.27,0,0,0,2.6-1.44,2,2,0,0,0,.6-3,6.47,6.47,0,0,1-3.66,3.07c-.71.22-1.27.31-1.29-.67,0-2.25-.22-4.55,1.21-6.52.9-1.24,2.12-2.28,3.68-1.67S23.5,76.58,23,79Z" style="fill:#b18269"/><path d="M44.67,11.69c0-1.4,1.63-2.39.8-3.23-1.06-1.07-1.84,1.13-3,.87A10.34,10.34,0,0,1,53.69,1.6,3.34,3.34,0,0,1,56.48,6C55.31,9.75,53,12.89,50.74,16.05c-1.63,2.31-4.13,2.52-6.72,2.86.41-1.28,1.45-.83,2.13-1.14,1.39-.64,2.05-1.4.37-2.44-.46-.29-1.16-.34-.51-1C48.08,12.08,45.76,12.17,44.67,11.69Z" style="fill:#773727"/><path d="M5.18,15.64a14.11,14.11,0,0,1-3.43-7.5A2,2,0,0,1,3.22,5.59c1.57-.4,3.28-.58,4.45,1A12.21,12.21,0,0,1,8.72,8.66c-.9.76-1.63-.23-2.4,0s-1.38.49-1.06,1.48A9.63,9.63,0,0,1,5.18,15.64Z" style="fill:#773727"/><path d="M43.08,10.86c0,2.3.07,4.24,1.13,5.9.34.53.23.56-.18.58-1,0-1.43,1-2.26,1.39a2.24,2.24,0,0,1-2.28-.25c-.93-.6-.24-1.46,0-1.83C40.53,14.73,40.86,12.33,43.08,10.86Z" style="fill:#dcac7c"/><path d="M42.06,5.38c-1.28,3.34-3.86,6.14-3.89,10.25-2.1-3.37-.19-8,3.9-10.24Z" style="fill:#773727"/><path d="M10.05,7c1.63.61,3,1,3.23,2.69.06.55-1.07,1.06-1.44.89C10.44,10,10.4,8.53,10.05,7Z" style="fill:#773727"/><path d="M7.79,10c3.14,1.81,1.6,2.8.21,3.88C7,12.64,8.64,11.59,7.79,10Z" style="fill:#dcac7c"/><path d="M42.07,5.39c0-.06,0-.14.08-.18s.09,0,.14,0l-.23.21Z" style="fill:#773727"/></g></g></svg>