<svg xmlns="http://www.w3.org/2000/svg" viewBox="0 0 52.5 105.54"><g id="Ebene_2" data-name="Ebene 2"><g id="Ebene_1-2" data-name="Ebene 1"><path d="M31.09,105.54c-2.28-1.09-4.88-.62-7.2-1.52-1.17-.45-2.41-.68-3.58-1.13-8.07-3.07-10-7.88-6.51-15.76,1.66-3.71,5.17-4.47,9-1.89.25-1.52.83-2.81-1.86-2.28-1.26.25-2.92-.8-4.22-1.57-6.52-3.84-12-8.77-15.17-15.77C0,62.06-.68,58.32.94,54.64a15.13,15.13,0,0,0,.66-9.73,22.28,22.28,0,0,1,4-18.4,2,2,0,0,0,0-2.94C3,20,3.61,15.92,4.68,11.91A26.8,26.8,0,0,0,6,6.44c.11-2.1.8-2.27,2.69-1.16,4.61,2.71,6.19,7,6.58,12,.05.63-.2,1.62,1,1.11,6-2.46,12.3-1.5,18.5-1.69a2.64,2.64,0,0,0,.43-.14C34.07,8.77,39,4.81,45,1.57c4.52-2.45,4.47-2.39,5.26,2.78.62,4,1.53,8,1.65,12a10.41,10.41,0,0,1-2.48,7.52,2.34,2.34,0,0,0-.32,2.87C55.22,41.89,52.84,56.05,44,69.36c-1.71,2.58-4.39,4.34-7,5.94a3.93,3.93,0,0,0-2.07,3.77c0,1.64-.07,3.28,0,4.91.17,3,1.35,3.59,4,2.14,1.47-.81,2.82-2,4.72-1.61,3.58.64,5.17,2.58,5.42,6.88.11,1.9-.09,3.83.12,5.71.3,2.64-.88,4.16-3.1,5.31a22.89,22.89,0,0,1-9.8,2.63c-.82,0-1.83-.51-2.47.5ZM44.16,11.8l0,0c-.26,1.66-2,2.73-1.95,4.58,1.81-.47,3.51-1.63,3.35,1.87-.09,1.72-.33,4.06,1.27,5.78a10.24,10.24,0,0,0,3.26-8.38c-.45-4.61-1.22-9.18-1.86-13.79-13.4,4.23-13.45,17.76-8.45,24.53a60.15,60.15,0,0,1,0-6.76C40.23,16.53,41,13.45,44.16,11.8Zm-15,6.55c-6.13-.31-11.92.86-17,4.46-7,5-10.13,11.85-8.91,20.42.62,4.38,1.4,8.58-.7,12.91-1.13,2.35-.66,5.27.42,7.69C6.4,71.5,12.19,76.89,19.74,80.47a4.62,4.62,0,0,0,3.9,0c4.09-1.56,7.73-3.89,11.46-6.09,6.51-3.83,10.51-9.53,12.8-16.59a60.23,60.23,0,0,0,2.42-12.16,37.58,37.58,0,0,0-2.27-16.7c-.72-2.09-1.58-2.39-3.12-.7-.68.74-1.22,1.78-2.66,1.45-2.52-.59-6.27-4.28-6.8-6.84-.29-1.45.8-3.5-.69-4.24-1.32-.66-3.2-.21-4.83-.24ZM40.35,102.3a45.87,45.87,0,0,1-2.48-3.92,2,2,0,0,1,.18-2.48c1.21,2.27,1.66-.93,2.78-.41-.24.82-.49,1.57-.67,2.33-.35,1.57,1.69,4,3.09,3.66,2.93-.66,4.3-2.37,4.17-5.34-.05-1.08-.28-2.15-.41-3.23-.84-7.26-1.64-7.72-8.09-4.58-2.77,1.35-4.9.29-5.73-2.66-.71-2.52-.29-5,.08-7.64-2.7,1.28-5.21,2.48-7.73,3.66-.8.37-.77.9-.75,1.74.07,2.2-.12,4.43-2.36,5.88-.59-.9.25-1.81-.64-2.59-1.81-1.62-3.64-1.79-5.27-.19C15.08,88,13.88,94.09,15,94.31c2.07.4,3.42-1.14,4.54-2.73,0,0,.17,0,.42,0,.7,1.74-.51,2.57-1.71,3.34-.83.53-1.81.83-2.64,1.37-.59.38-1.28,1-.27,1.66a21.36,21.36,0,0,0,6.55,3.21c1.23.34,1.52-.63,2-1.38.94-1.54,1.58-3.29,3.23-4.91.05,2.47-1.27,3.92-2,5.6-.25.57-1.08,1.42.22,1.67A40.5,40.5,0,0,0,40.35,102.3ZM8.18,23.35c-.69-1.17-.4-2.56-.78-3.79-.19-.61-.32-1.76-.16-1.72,3.73.76-.06-1.64,1.06-2.08,4.39.56.3-2.62,1.58-3.84,2,2.51,2.2,5.44,2.06,8.5,3.77-2.35,1-10.6-4.76-14.18C7.37,12.05,2.78,18,8.18,23.35ZM42.54,18.8a6.46,6.46,0,0,0-.71.61,4.19,4.19,0,0,0-.62,4.77c.9,1.38,2-.56,3.12-.8.93-.21.64-.5,0-.78s-.69-.69-.28-1.28C45.71,18.81,41.38,21,42.54,18.8Zm3.2,5.78a5.23,5.23,0,0,0-3.14,1.19c-.57.34-1.3.81-.49,1.69.62.68,1.1.38,1.55-.15C44.33,26.5,45.38,26,45.74,24.58Z" style="fill:#4d3030"/><path d="M29.14,18.36H30c1.63,0,3.51-.42,4.83.24,1.49.74.4,2.79.69,4.24.53,2.56,4.28,6.25,6.8,6.84,1.44.33,2-.71,2.66-1.45,1.54-1.69,2.4-1.39,3.12.7a37.58,37.58,0,0,1,2.27,16.7A60.23,60.23,0,0,1,47.9,57.79c-2.29,7.06-6.29,12.76-12.8,16.59-3.73,2.2-7.37,4.53-11.46,6.09a4.62,4.62,0,0,1-3.9,0C12.19,76.89,6.4,71.5,3,63.83c-1.08-2.42-1.55-5.34-.42-7.69,2.1-4.33,1.32-8.53.7-12.91C2,34.66,5.15,27.81,12.16,22.81,17.22,19.21,23,18,29.14,18.36Z" style="fill:#b18369"/><path d="M40.35,102.3a40.5,40.5,0,0,1-15-.14c-1.3-.25-.47-1.1-.22-1.67.73-1.68,2.05-3.13,2-5.6-1.65,1.62-2.29,3.37-3.23,4.91-.47.75-.76,1.72-2,1.38A21.36,21.36,0,0,1,15.34,98c-1-.71-.32-1.28.27-1.66.83-.54,1.81-.84,2.64-1.37,1.2-.77,2.41-1.6,1.71-3.34-.25,0-.39-.06-.42,0-1.12,1.59-2.47,3.13-4.54,2.73-1.12-.22.08-6.36,1.52-7.78,1.63-1.6,3.46-1.43,5.27.19.89.78.05,1.69.64,2.59,2.24-1.45,2.43-3.68,2.36-5.88,0-.84-.05-1.37.75-1.74,2.52-1.18,5-2.38,7.73-3.66-.37,2.64-.79,5.12-.08,7.64.83,3,3,4,5.73,2.66,6.45-3.14,7.25-2.68,8.09,4.58.13,1.08.36,2.15.41,3.23.13,3-1.24,4.68-4.17,5.34-1.4.31-3.44-2.09-3.09-3.66.18-.76.43-1.51.67-2.33-1.12-.52-1.57,2.68-2.78.41a2,2,0,0,0-.18,2.48A45.87,45.87,0,0,0,40.35,102.3Z" style="fill:#b18269"/><path d="M44.16,11.8c-3.21,1.65-3.93,4.73-4.3,7.86a60.15,60.15,0,0,0,0,6.76c-5-6.77-5-20.3,8.45-24.53.64,4.61,1.41,9.18,1.86,13.79a10.24,10.24,0,0,1-3.26,8.38c-1.6-1.72-1.36-4.06-1.27-5.78.16-3.5-1.54-2.34-3.35-1.87,0-1.85,1.69-2.92,1.95-4.58.13-.2.27-.4.39-.6l-.2-.14Z" style="fill:#773727"/><path d="M8.18,23.35c-5.4-5.39-.81-11.3-1-17.11,5.72,3.58,8.53,11.83,4.76,14.18.14-3.06,0-6-2.06-8.5-1.28,1.22,2.81,4.4-1.58,3.84C7.18,16.2,11,18.6,7.24,17.84c-.16,0,0,1.11.16,1.72C7.78,20.79,7.49,22.18,8.18,23.35Z" style="fill:#773727"/><path d="M42.54,18.8c-1.16,2.15,3.17,0,1.46,2.52-.41.59-.31,1,.28,1.28s1,.57,0,.78c-1.1.24-2.22,2.18-3.12.8a4.19,4.19,0,0,1,.62-4.77A6.46,6.46,0,0,1,42.54,18.8Z" style="fill:#dcac7c"/><path d="M45.74,24.58c-.36,1.41-1.41,1.92-2.08,2.73-.45.53-.93.83-1.55.15-.81-.88-.08-1.35.49-1.69A5.23,5.23,0,0,1,45.74,24.58Z" style="fill:#773727"/><path d="M44.16,11.8l.22-.71.2.14c-.12.2-.26.4-.39.6Z" style="fill:#4d3030"/></g></g></svg>