<svg xmlns="http://www.w3.org/2000/svg" viewBox="0 0 40.75 76.55"><g id="Ebene_2" data-name="Ebene 2"><g id="Ebene_1-2" data-name="Ebene 1"><path d="M40.75,34.27c-1.62,1.54-1.31,3.79-2,5.68-2.2,5.95-5.34,11-10.92,14.41-1.76,1.06-1.72,7.14-.09,8.33,1.3,1,2.25,0,3.21-.56,4.12-2.49,6.23-1.47,6.55,3.25,0,.37.06.73.1,1.09.65,6.17-.61,8.24-6.64,9.46a25.47,25.47,0,0,1-18.85-3c-1.58-1-2.64-1.89-2-4.05.49-1.61.31-3.42.58-5.11.32-2,1.21-3.6,3.31-4.24l3.71,1.23c0-1.78,0-1.77-1.46-1.83-.71,0-1.42-.1-2.13-.15A38.83,38.83,0,0,1,2.7,48.53,12.44,12.44,0,0,1,.94,36a9.49,9.49,0,0,0,0-6.52C-.28,25.27-.15,20.92,2.5,17.27c2-2.73,1.74-5.26.9-8.09a8.46,8.46,0,0,1-.3-4.49,3.75,3.75,0,0,1,3.69-3A2.91,2.91,0,0,1,10,4.31a40,40,0,0,0,1.42,4.85,24.37,24.37,0,0,1,14.5-1.51C27.64,8,28,7.27,28.15,5.93c.11-.89.23-1.78.28-2.68C28.55,1.06,29.75-.07,31.86,0a4.35,4.35,0,0,1,4.49,4.16,48.07,48.07,0,0,1-.69,6.42c-.06.43-.43.91-.07,1.25,2.85,2.71,3.46,6.59,5.16,9.9ZM35.14,13.44c-.83,3.81-2.43,4.78-5.51,3.83s-4.25-2.95-3.07-5.69c.81-1.88-.12-2.11-1.57-2.39a22.36,22.36,0,0,0-11.74,1.19C6.05,12.92,0,20.48,2.7,29.22a11.28,11.28,0,0,1-.28,7.47c-1,2.78-1.44,5.59.11,8.38A30.83,30.83,0,0,0,15,57.27a2.35,2.35,0,0,0,2.07.26c7-2.47,13.78-5.38,17.5-12.42C39.89,34.93,41.15,24.58,35.14,13.44ZM15.6,65.33c0,2.19-1.39,2.77-2.71,3.52-.69.39-2.1.79-1.23,1.89a8.92,8.92,0,0,0,4.69,2.6c1.53.45,1.46-1.31,2.19-2a18.94,18.94,0,0,0,1.93-2.48,2.82,2.82,0,0,1-.91,3.17c-1.67,1.57-.73,2.25,1,2.49,2.77.39,5.49.82,8.34.18,2.15-.49,2.53-.93,1-2.69s-1.4-2,.8-2.56c.35-.09.46-.83,1.21-.34-.22,1.42-1.11,3.33.82,4.17,1.28.54,2.27-.79,3.18-1.63.69-.64.54-1.52.49-2.32-.12-1.71-.32-3.42-.49-5.13-.14-1.39-1-1.82-2.27-1.69A6.6,6.6,0,0,0,31,63.82c-2.76,1.65-5.3.31-5.48-2.92-.08-1.61,0-3.24,0-5-1.27.53-2.32,1-3.41,1.41-2.14.76-3.64,1.84-3.14,4.52a2.46,2.46,0,0,1-1.35,2.85c.2-2.4-1-3.62-3.16-3.6-1.8,0-2.88,3.42-2.12,6.31C13.69,67.41,14.24,66,15.6,65.33ZM34.21,7.8c.7-2.48-1.29-2.46-2.65-2.84-1.95-.55-1.5,1.11-1.83,2.12a42,42,0,0,1-2.05,5.82c-.92,1.88,1,2.43,2.39,3s2.81.89,2.9-1A35.91,35.91,0,0,1,34.21,7.8ZM5,8.54c.78,1.06-.23,3.28,1.38,3.36,1,0,3.15-.8,3-2.73-.09-1,.09-3-1.92-2.52C6.48,6.85,4.82,6.7,5,8.54Z" style="fill:#4f3534"/><path d="M14.13,58.78c.71,0,1.42.12,2.13.15,1.42.06,1.42,0,1.46,1.83L14,59.53Z" style="fill:#d7d7b5"/><path d="M35.14,13.44c6,11.14,4.75,21.49-.62,31.67-3.72,7-10.47,10-17.5,12.42A2.35,2.35,0,0,1,15,57.27,30.83,30.83,0,0,1,2.53,45.07c-1.55-2.79-1.15-5.6-.11-8.38a11.28,11.28,0,0,0,.28-7.47C0,20.48,6.05,12.92,13.25,10.38A22.36,22.36,0,0,1,25,9.19c1.45.28,2.38.51,1.57,2.39-1.18,2.74,0,4.75,3.07,5.69S34.31,17.25,35.14,13.44Z" style="fill:#b18369"/><path d="M15.6,65.33c-1.36.64-1.91,2.08-3.31,2-.76-2.89.32-6.3,2.12-6.31,2.17,0,3.36,1.2,3.16,3.6a2.46,2.46,0,0,0,1.35-2.85c-.5-2.68,1-3.76,3.14-4.52,1.09-.38,2.14-.88,3.41-1.41,0,1.8-.07,3.43,0,5,.18,3.23,2.72,4.57,5.48,2.92a6.6,6.6,0,0,1,2.66-1.29c1.29-.13,2.13.3,2.27,1.69.17,1.71.37,3.42.49,5.13,0,.8.2,1.68-.49,2.32-.91.84-1.9,2.17-3.18,1.63-1.93-.84-1-2.75-.82-4.17-.75-.49-.86.25-1.21.34-2.2.53-2.36.74-.8,2.56s1.13,2.2-1,2.69c-2.85.64-5.57.21-8.34-.18-1.69-.24-2.63-.92-1-2.49a2.82,2.82,0,0,0,.91-3.17,18.94,18.94,0,0,1-1.93,2.48c-.73.67-.66,2.43-2.19,2a8.92,8.92,0,0,1-4.69-2.6c-.87-1.1.54-1.5,1.23-1.89C14.21,68.1,15.63,67.52,15.6,65.33Z" style="fill:#b18369"/><path d="M34.21,7.8A35.91,35.91,0,0,0,33,14.88c-.09,1.88-1.65,1.49-2.9,1s-3.31-1.09-2.39-3a42,42,0,0,0,2.05-5.82c.33-1-.12-2.67,1.83-2.12C32.92,5.34,34.91,5.32,34.21,7.8Z" style="fill:#8c5143"/><path d="M5,8.54C4.82,6.7,6.48,6.85,7.39,6.65c2-.45,1.83,1.49,1.92,2.52.17,1.93-2,2.77-3,2.73C4.72,11.82,5.73,9.6,5,8.54Z" style="fill:#8c5143"/></g></g></svg>