<svg xmlns="http://www.w3.org/2000/svg" viewBox="0 0 90.5 108.77"><g id="Ebene_2" data-name="Ebene 2"><g id="Ebene_1-2" data-name="Ebene 1"><path d="M14.81,12.74a36.75,36.75,0,0,1,4.5-11.25c.7-1.24,2-2.65,2.89.08.36,1.15,1,.36,1.47.24,6.12-1.37,9.91.12,12.93,5.68,1.26,2.34,2.13,1.77,3.47.4A9.11,9.11,0,0,0,41.9,5.21a1.87,1.87,0,0,1,1.84-1.37,1.92,1.92,0,0,1,1.73,1.84c.2,1.24.16,2.52.3,3.78.19,1.66-1.05,3.94,1.88,4.5.18,0,.44.69.34.94-1.18,3.15.37,5.85,1.37,8.64a26.73,26.73,0,0,1,.22,18.37c-.35,1-.59,2.07-1,3.42,4.44-.07,8.78-.38,13,.57,2.18.48,3.16.17,4.41-2.1,2.42-4.43,6.77-6.53,11.86-6.35S86,40.81,88,45.08c3.57,7.73,2.78,15.75,1.22,23.78-.79,4-2.69,8-.64,12.2.24.5,0,.86-.57,1-3.94,1.06-3.92,1-3,4.34.27.91,1.16,2,.26,2.78-1.06.9-1.38-1.12-2.58-1-1.3,4.11-1.6,8.58-3.33,12.67s-3.93,7.27-8.84,7.15-8-2.56-9.56-7.09a2.25,2.25,0,0,0-2-1.65,6.5,6.5,0,0,1-4.83-7.72c.42-2.41,1-4.8,1.29-7.22.13-1.08.69-2.66-1.56-2.62-1.76,0-2.76.4-2.48,2.44.45,3.4,1,6.81,1.14,10.23.3,7.39-3.91,14.75-12,14.35a8.69,8.69,0,0,1-8.3-6.25c-.46-1.46-.58-2.27-2.61-1.44-5.79,2.35-11.09-1.84-11.54-8.68-.26-4.12.88-8.08,1.17-12.13.31-4.45.61-8.8-1.62-13-2-3.77-1.79-7.58.2-11.44,1.39-2.69,3.17-5.24,3.86-8.66a34.38,34.38,0,0,0-7.09,2.91C10.44,52,6.72,51.27,3.05,48.82c-1.71-1.14-1.53-3.38-3-4.54V39.92c1.78-2.27,2.31-5.16,3.79-7.58,3.06-5,6.07-10,9.1-15.06.48.56,1.07,1.24.54,1.92-1.25,1.6-1.34,3.48-1.65,5.35a4.25,4.25,0,0,1-1.74,3C5.69,30.32,4,35,2.43,39.42c-2,5.47,1.38,9.75,7.22,9.92,3.75.11,6.79-1.88,9.85-3.54a55.81,55.81,0,0,1,14.13-4.94c-2.15,2.43-4.54,2.48-6.52,3.37-1.35.6-3.25.63-3.59,2.48a32.13,32.13,0,0,1-2.94,7.58c-3.86,8.28-2.75,13.63,4.08,19.25a30.69,30.69,0,0,0,6.56,3.83c1.22.57,2.22.92,2.56-.9.09-.53.27-1.17,1-1s.62.85.57,1.37c-.25,2.61-.42,5.23-.83,7.82a73.49,73.49,0,0,0-1.29,14.58,8,8,0,0,0,12.43,6.64c3.49-2.16,4.79-5.6,5.07-9.44A52.52,52.52,0,0,0,50,85.61a39.63,39.63,0,0,1-.2-9c2.3.54.42,3.65,2.88,3.63,1.71,0,3.42-.29,5.13-.45a14.94,14.94,0,0,0,2.43-.29c2.08-.57,4.69-.34,5.26-3.48a9.49,9.49,0,0,1,0,6.23A72.32,72.32,0,0,0,62.2,97.09c-.49,4.94,3.18,8.73,8.08,9,4.62.23,6.91-3.43,8.09-7.84A99.74,99.74,0,0,0,81.7,66.74c-.27-4.86-1.89-9.33-6.15-12.59.89,1.81-1.61,2-1.35,3.39.83,4.42-4.15,4.75-5.39,7.71,0,.07-.34.07-.51,0-3.53-.67-1.28-4-2.53-5.78-.5-.72.54-2,1.67-2.46a1.08,1.08,0,0,1,.79,0c1.88.85,3-.93,4-1.66,2.48-1.85,2.09-3-.82-4.58-6.74-3.54-14-4.07-21.43-3.78-1,0-1.56.4-1.54,1.44,0,1.81-.18,3.62.44,5.4s1.4,2.95,3.37,3a3.61,3.61,0,0,0,3.9-2.72c.22-.66.25-1.61,1.22-1.52s1.17,1.11,1.32,1.86c.62,3-.4,5.52-2.07,7.9a14,14,0,0,1-16.38,5.18c-5.23-1.77-8.27-6.72-8.08-13.17A32.24,32.24,0,0,1,35,42.57c1.83-4.25,3.88-8.4,5.74-12.63,1.49-3.36,2.59-6.91,1.55-10.55a4.5,4.5,0,0,1,.41-3.71c1.4-2.77,2.05-5.69.75-8.93-1.36,3.41-6,3.53-6.87,7.62-1.8-2.66-3.76-1.71-5.65-.52A11.62,11.62,0,0,0,27,18a25.78,25.78,0,0,1-5.19,6.94c-2.41,2.06-5.66,2.19-7.36.29-.57-.63-1.39-1.55.3-1.51,2.58,0,2.31-1.7,2-3.16a21.36,21.36,0,0,0-1.58-4C14.36,15.33,15.66,13.91,14.81,12.74ZM44,25.26c-.88,2.54-1.9,4.93-2.92,7.33-2.83,6.72-6.49,13.12-7.37,20.59-.6,5.15,1.17,9.79,5.38,12.27a11.77,11.77,0,0,0,13.93-1c2.24-2,4.23-4.36,4.13-7.88-5.43,3.62-9.61,2.27-10.62-3.49a17.57,17.57,0,0,1,.38-8.6c1.55-4.66,2.89-9.34,1.88-14.81-.37,3-.78,5.56-.93,8.16-.09,1.56-.69,3.35-3,3S42.18,39.17,42.8,37C43.91,33.2,43.91,29.21,44,25.26Zm40.6,55.55c-1-2.16,1.42-2.47,1.48-4,.12-2.66,1.07-5.12,1.54-7.69,1.34-7.36,2.2-14.67-.4-21.95C85.67,42.88,83,39.52,78.31,39c-4.27-.48-7.88,1.66-10.66,5-1.22,1.45-1.88,2.79.75,3.5a16.07,16.07,0,0,1,3,1.27c6.21,3.17,10.6,7.69,11.53,15A56.09,56.09,0,0,1,83,78.6C82.89,79.42,83.06,80.2,84.59,80.81ZM21,72.62c-.2,7.24-1.14,14-.86,20.74.19,4.45,3.3,7,7.64,6.51,1.83-.22,3.68-1.09,3.7-3,0-4.45,1.16-8.82.77-13.29C32,81.1,31.36,79.06,28.6,78A20.89,20.89,0,0,1,21,72.62ZM17.12,25c2.92.5,4.39-1.16,5.65-2.93s2.22-3.72,3.39-5.54a11,11,0,0,1,7.93-5.1c1.08-.18,3-.06,2-2.42-2-4.89-7.86-7.5-12.53-5.43-6.07,2.69-8.84,8.46-6.33,13.52A7.59,7.59,0,0,1,17.12,25ZM55.57,92.39c.28,2.18.92,4,3,5,1.15.53,1.83.46,2-1.06A72,72,0,0,1,63.4,82.85c.17-.59.7-1.43.12-1.74-1.45-.79-3-.09-4.45.18-.77.14-1.69-.08-1.85,1.1A67.74,67.74,0,0,1,55.57,92.39ZM47.49,27.23c-.76.76-.36,1.94-1.27,2.42-1.22.63-1.74.93-1.31,1.72,1.06,1.89.8,4,1.42,6A29.86,29.86,0,0,0,47.49,27.23ZM68.71,58.5c-.61-.08-1.22-.16-1.49.43a1,1,0,0,0,.17,1c1.1.8,2.3,1.62,3.73,1.26,1.15-.29,1.6-1.41,1.9-2.45.16-.58.26-1.35-.41-1.72a1.13,1.13,0,0,0-1.59.63C70.48,58.69,69.79,59.16,68.71,58.5ZM45.41,27.65h.86c0-2.88,0-5.76,0-8.64a.74.74,0,0,0-.91-.74.65.65,0,0,0-.6.76C45.36,21.85,45.13,24.78,45.41,27.65Zm-.24,6.1c-1.46,1.87-.13,3.63-1.43,4.82-.16.14.23.63.65.64.58,0,.77-.4.78-.87C45.19,37,45.17,35.72,45.17,33.75Z" style="fill:#593c3a"/><path d="M15.22,16.51a21.36,21.36,0,0,1,1.58,4c.27,1.46.54,3.2-2,3.16-1.69,0-.87.88-.3,1.51,1.7,1.9,4.95,1.77,7.36-.29A25.78,25.78,0,0,0,27,18a11.62,11.62,0,0,1,3.88-4.12c1.89-1.19,3.85-2.14,5.65.52.9-4.09,5.51-4.21,6.87-7.62,1.3,3.24.65,6.16-.75,8.93a4.5,4.5,0,0,0-.41,3.71c1,3.64-.06,7.19-1.55,10.55-1.86,4.23-3.91,8.38-5.74,12.63a32.24,32.24,0,0,0-2.85,11.84c-.19,6.45,2.85,11.4,8.08,13.17A14,14,0,0,0,56.57,62.4c1.67-2.38,2.69-4.95,2.07-7.9-.15-.75-.31-1.76-1.32-1.86s-1,.86-1.22,1.52a3.61,3.61,0,0,1-3.9,2.72c-2-.09-2.8-1.37-3.37-3s-.41-3.59-.44-5.4c0-1,.58-1.4,1.54-1.44,7.42-.29,14.69.24,21.43,3.78,2.91,1.53,3.3,2.73.82,4.58-1,.73-2.07,2.51-4,1.66a1.08,1.08,0,0,0-.79,0c-1.13.45-2.17,1.74-1.67,2.46,1.25,1.8-1,5.11,2.53,5.78.17,0,.48,0,.51,0,1.24-3,6.22-3.29,5.39-7.71-.26-1.38,2.24-1.58,1.35-3.39,4.26,3.26,5.88,7.73,6.15,12.59a99.74,99.74,0,0,1-3.33,31.48c-1.18,4.41-3.47,8.07-8.09,7.84-4.9-.24-8.57-4-8.08-9a72.32,72.32,0,0,1,3.22-14.82,9.49,9.49,0,0,0,0-6.23c-.57,3.14-3.18,2.91-5.26,3.48a14.94,14.94,0,0,1-2.43.29c-1.71.16-3.42.44-5.13.45-2.46,0-.58-3.09-2.88-3.63a39.63,39.63,0,0,0,.2,9,52.52,52.52,0,0,1,.77,10.83c-.28,3.84-1.58,7.28-5.07,9.44a8,8,0,0,1-12.43-6.64,73.49,73.49,0,0,1,1.29-14.58c.41-2.59.58-5.21.83-7.82,0-.52.09-1.21-.57-1.37s-.9.47-1,1c-.34,1.82-1.34,1.47-2.56.9a30.69,30.69,0,0,1-6.56-3.83c-6.83-5.62-7.94-11-4.08-19.25a32.13,32.13,0,0,0,2.94-7.58c.34-1.85,2.24-1.88,3.59-2.48,2-.89,4.37-.94,6.52-3.37A55.81,55.81,0,0,0,19.5,45.8c-3.06,1.66-6.1,3.65-9.85,3.54-5.84-.17-9.19-4.45-7.22-9.92C4,35,5.69,30.32,10,27.53a4.25,4.25,0,0,0,1.74-3c.31-1.87.4-3.75,1.65-5.35.53-.68-.06-1.36-.54-1.92l.41-.3a1,1,0,0,0,1.16-.49Zm15.92,12.9c0-2.48-1.74-4.59-3.72-4.59-2.37,0-4.07,2-4,4.85S24.87,34,27.22,34,31.17,32.16,31.14,29.41Z" style="fill:#b08269"/><path d="M15.22,16.51l-.76,0-.92-.11c.42-1.22.85-2.43,1.27-3.65C15.66,13.91,14.36,15.33,15.22,16.51Z" style="fill:#8c5143"/><path d="M13.54,16.38l.92.11A1,1,0,0,1,13.3,17Z" style="fill:#593c3a"/><path d="M44,25.26c-.08,3.95-.08,7.94-1.19,11.77-.62,2.14-.14,3.36,2.06,3.74s2.9-1.39,3-3c.15-2.6.56-5.14.93-8.16,1,5.47-.33,10.15-1.88,14.81a17.57,17.57,0,0,0-.38,8.6c1,5.76,5.19,7.11,10.62,3.49.1,3.52-1.89,5.9-4.13,7.88a11.77,11.77,0,0,1-13.93,1c-4.21-2.48-6-7.12-5.38-12.27.88-7.47,4.54-13.87,7.37-20.59C42.09,30.19,43.11,27.8,44,25.26Z" style="fill:#8c5143"/><path d="M84.59,80.81c-1.53-.61-1.7-1.39-1.59-2.21a56.09,56.09,0,0,0-.07-14.87c-.93-7.31-5.32-11.83-11.53-15a16.07,16.07,0,0,0-3-1.27c-2.63-.71-2-2.05-.75-3.5,2.78-3.3,6.39-5.44,10.66-5,4.64.52,7.36,3.88,8.9,8.21,2.6,7.28,1.74,14.59.4,21.95-.47,2.57-1.42,5-1.54,7.69C86,78.34,83.58,78.65,84.59,80.81Z" style="fill:#8c5143"/><path d="M21,72.62A20.89,20.89,0,0,0,28.6,78c2.76,1.08,3.4,3.12,3.61,5.61.39,4.47-.72,8.84-.77,13.29,0,1.9-1.87,2.77-3.7,3-4.34.54-7.45-2.06-7.64-6.51C19.82,86.59,20.76,79.86,21,72.62Z" style="fill:#b08269"/><path d="M17.12,25a7.59,7.59,0,0,0,.13-7.9c-2.51-5.06.26-10.83,6.33-13.52,4.67-2.07,10.51.54,12.53,5.43,1,2.36-.94,2.24-2,2.42a11,11,0,0,0-7.93,5.1C25,18.39,24,20.35,22.77,22.11S20,25.54,17.12,25Z" style="fill:#8c5143"/><path d="M55.57,92.39a67.74,67.74,0,0,0,1.65-10c.16-1.18,1.08-1,1.85-1.1,1.48-.27,3-1,4.45-.18.58.31,0,1.15-.12,1.74a72,72,0,0,0-2.88,13.44c-.14,1.52-.82,1.59-2,1.06C56.49,96.38,55.85,94.57,55.57,92.39Z" style="fill:#b08269"/><path d="M47.49,27.23a29.86,29.86,0,0,1-1.16,10.13c-.62-2-.36-4.1-1.42-6-.43-.79.09-1.09,1.31-1.72C47.13,29.17,46.73,28,47.49,27.23Z" style="fill:#b08269"/><path d="M68.71,58.5c1.08.66,1.77.19,2.31-.88A1.13,1.13,0,0,1,72.61,57c.67.37.57,1.14.41,1.72-.3,1-.75,2.16-1.9,2.45-1.43.36-2.63-.46-3.73-1.26a1,1,0,0,1-.17-1C67.49,58.34,68.1,58.42,68.71,58.5Z" style="fill:#8c5143"/><path d="M45.41,27.65c-.28-2.87,0-5.8-.66-8.63a.65.65,0,0,1,.6-.76.74.74,0,0,1,.91.74c0,2.88,0,5.76,0,8.64Z" style="fill:#8c5143"/><path d="M45.17,33.75c0,2,0,3.28,0,4.59,0,.47-.2.88-.78.87-.42,0-.81-.5-.65-.64C45,37.38,43.71,35.62,45.17,33.75Z" style="fill:#b08269"/><path d="M31.14,29.41c0,2.75-1.52,4.56-3.92,4.57s-3.79-1.62-3.83-4.31,1.66-4.86,4-4.85C29.4,24.82,31.11,26.93,31.14,29.41Z" style="fill:#593c3a"/></g></g></svg>