<svg xmlns="http://www.w3.org/2000/svg" viewBox="0 0 85.34 74.15">
    <g>
        <path d="M25.35,74.15c-1.37-1.89-3.89-2.83-4.41-5.48-.15-.77-1,0-1.29.12-3.71,1.87-7.9-2.23-8-5.84-.14-4.48,1.57-8.74,1.15-13.2a5.15,5.15,0,0,0-.45-2.63c-2.2-3.41-1.94-6.8.06-10.25A9.73,9.73,0,0,0,14,32.75a7.65,7.65,0,0,0-3.57,1.31c-2.74,1.44-5.43,2-8-.08C.05,32.08-.68,28.42.68,25,2.61,20.1,6,16.06,8.62,11.58c.36-.61.94-1.08.88-1.9-.25-3.4,2.14-5.8,3.39-8.63C13.36,0,14.34-.6,14.92,1c.36,1,.95.72,1.47.59,3.28-.81,5.57.66,7.42,3.16C25.5,7,26.14,7,27.75,4.59c.46-.69.53-2,1.71-1.73a2.14,2.14,0,0,1,1.16,2.28c-.79,3.19,3,5.41,1.6,8.87-.41,1,1.42,2.87,1.9,4.53,1.06,3.58.1,6.94-.81,10.33-.16.6-.66,1.22.09,1.65a1.71,1.71,0,0,0,1.33,0c1.06-.49-.17-1,0-1.51.89-3.21.41-6.9,3-9.51.53-.52.41-.76.26-1.3a2.41,2.41,0,0,1,1.2-2.79,7.79,7.79,0,0,0,4.16-5.13,1.68,1.68,0,0,1,.47-.88c2.75-2.22,4.71-5.43,8.91-5.69A49.3,49.3,0,0,1,61,3.43a13.06,13.06,0,0,1,7,3.49c2.53,2.21,3,5.28,4.78,7.76.61.88,1.25.51,1.87.53,6.39.21,10,3.59,10.65,9.87C85.77,29.94,81.45,35,76,36c-6,1.1-10.86-1.9-12.62-7.72-1.22-4,.66-6.95,3.11-9.76.58-.67,2.19-1.39,1.79-1.73-1.4-1.21-.36-3.13-1.67-4.3C63.69,9.91,61.07,7.73,56.43,8c-5.49.33-8.35,2.85-10.65,7.31A27.47,27.47,0,0,1,42,20.73c-1.78,2-1.78,4.82-2.42,7.32-.19.74-.28,1.52-.42,2.29a5.79,5.79,0,0,0,6.39-1.86c4.65-4.94,11-3.53,13.77,2.72,2.4,5.43,2,11,.56,16.65a40.21,40.21,0,0,0-.79,4.77c-.13,1.13,2.07,3.25-1.35,3.63-1.18.13-.41,2.49-.42,3.87,0,.56-2.53-.33-2.52,1.94a27.67,27.67,0,0,1-1.08,5.83,6.69,6.69,0,0,1-5.47,5.29,6.37,6.37,0,0,1-6.83-3.38,5.29,5.29,0,0,0-2.9-2.75c-2.33-.91-3-3.53-2.17-7.37.17-.79.37-1.58.54-2.37.2-1,.29-1.74-1.18-1.72s-1.39.82-1.31,1.77.2,2.17.38,3.24c1.27,7.56,0,10.21-6.66,13.55ZM22.6,29.41c-4.53.34-7,2.57-8.39,7.11-2.22,7-1.85,9.57,4.1,14,1.66,1.23,3.35,3.07,4.86-.72A8.5,8.5,0,0,1,23.56,55a51.64,51.64,0,0,0-.92,12.15,4.89,4.89,0,0,0,6.13,4.75c2.83-.63,4.75-3,4.7-6.48,0-3.24-.51-6.47-.84-9.7a9.21,9.21,0,0,1,0-3.51,1.22,1.22,0,0,1,.71-.73.58.58,0,0,1,.7.63c-.07,2.66,2,2.07,3.25,1.79,2.34-.51,5-.33,6.82-2.91a7.06,7.06,0,0,1,.09,4.11C43.41,58,42.65,60.83,42,63.72c-.77,3.16,1.28,7.06,4,7.71,3,.72,5.24-1,6.27-4.84.14-.52.27-1,.4-1.58,1.44-5.63,1.52-11.43,2.1-17.17a14.72,14.72,0,0,0-2.3-8.78c-.87-1.53-2.19-.82-2.18-.12,0,2.87-2.88,3.28-3.91,5.19-.39.71-1,.54-1.63.12s-1.51-.59-1.15-1.24c.91-1.63-.07-4.63,3.28-4.59,1.34,0,1.9-1.45,2.25-2.33s-1.14-1.17-1.89-1.58c-3.86-2.14-8.09-2.51-12.39-2.32-.89,0-2.23-.49-2.29,1.12a5.14,5.14,0,0,0,1.87,4.59c1.16.82,2.25,0,2.89-1.16.31-.55.47-1.32,1.28-1.1s.77,1,.87,1.57c.6,3.14-.94,5.46-3.21,7.31a8.84,8.84,0,0,1-9.65,1.42,7.9,7.9,0,0,1-5.14-7.87c0-3,1.09-5.68,1.3-8.57,2.47-3.18,3.45-7.09,5-10.71,1.63-3.9-.31-8.41,1.8-12.43-2.19.87-4.28,1.39-4.94,3.72-.13.48-.69,1.15-1.15.43-1.77-2.73-2.92-.33-3.82.61a51.43,51.43,0,0,0-3.67,5c-1.57,2.07-3.49,3.11-6.12,1.9-.44-.2-.88-.66-1.48-.21-3,2.24-5.47,4.8-6.47,8.62a5.93,5.93,0,0,0,1.73,6.39c1.79,1.62,3.82.93,5.82,0,3.19-1.5,6.41-2.93,9.71-4.15C20.18,28.27,21.85,27.21,22.6,29.41ZM75.06,18a9.81,9.81,0,0,0-9.26,5.86c-1,2.59-1.13,5.22.9,7.34,2.4,2.5,5.51,2.82,8.76,2,4.52-1.08,8.22-5.86,7.66-9.86C82.7,20.35,79.16,18,75.06,18ZM28.37,21.05c-.89,2.11-1.57,3.48-2.05,4.93-1.45,4.35-3.59,8.55-3.15,13.35a7.14,7.14,0,0,0,6.48,5.91c3.91.06,7.42-2.53,7.78-5.76-4.57,1-6.49-.55-6.62-5.08A18.09,18.09,0,0,1,32,28.3a15.54,15.54,0,0,0,.79-7.73,12.88,12.88,0,0,0-.88,4.75c0,1.53-.53,2.69-2.41,2.49-2.14-.22-1.43-1.78-1.2-2.87A8.39,8.39,0,0,0,28.37,21.05ZM56.08,54.41c2.16-2.61,2.13-6,2.86-9.06a20.07,20.07,0,0,0-.68-12.77C55.83,26.85,52,25.71,46.9,29.27c-2.42,1.69-2.4,1.8.33,3.2A15.65,15.65,0,0,1,56,44.66C56.55,48,55.14,51.13,56.08,54.41Zm-41.43-4c-.2,1.18-.37,2.15-.55,3.13a41.06,41.06,0,0,0-.72,9.71,4.47,4.47,0,0,0,4.34,4.33c2.19,0,3.21-1.34,3.26-4.29a29.69,29.69,0,0,1,.35-3.76c.3-2.18.77-4.59-1.6-6.1C18.13,52.41,16.48,51.49,14.65,50.41ZM10.81,9.08c.19,2.54,1.75,4.63,1.6,7.17-.05.73.84.47,1.21.06.9-1,1.77-2,2.58-3.11C17.85,11,19,8.35,22.35,8.07c1.08-.09.77-.91.41-1.64C21.44,3.8,19.19,2.37,17,2.84,13.74,3.55,10.9,6.47,10.81,9.08Zm29,57c.51-2.13.93-4,1.39-5.78s1-3.56,1.49-5.45c-2.5.08-4.79-.08-4.35,3.42a9.94,9.94,0,0,1-.64,3.67C37.16,63.81,38,65,39.8,66.06Zm-30-53.79c-.58.94-1,1.63-1.41,2.3s-.8,1.52.05,1.81a1.71,1.71,0,0,0,2.36-1C11.29,14.11,10.39,13.39,9.82,12.27Zm61.88,2.2a1.52,1.52,0,0,0-1.52-1.39c-1-.05-1.71.3-1.69,1.28s.74,1.38,1.66,1.43A1.27,1.27,0,0,0,71.7,14.47Zm-6.4-7.9c-.91-.07-1.84-.41-1.8,1,0,.92.28,1.67,1.29,1.68a1.9,1.9,0,0,0,1.92-1.89C66.85,6.07,65.73,6.73,65.3,6.57ZM57,4.39c-.52.76-2.27-.45-2.23,1.34a1.19,1.19,0,0,0,1.33,1.32A1.94,1.94,0,0,0,58,5.21C58.15,4.48,57.72,4.28,57,4.39ZM42.29,18.17c-.78-.4-1-1.61-2.08-1.69-.87-.06-.89.76-.8,1.36.13.88.34,1.81,1.56,1.75C41.7,19.55,42,19,42.29,18.17ZM51.33,8c.71-.72,1.85-1.19,1.78-2.45,0-.85-.53-.47-1.09-.4-.9.13-2-.07-1.81,1.27C50.29,6.93,50.31,7.91,51.33,8ZM62.42,5.42c0-.54,0-.88-.82-.7s-2.07.06-2.25,1.3c-.13.92.69,1.07,1.44,1.05C61.84,7,62.45,6.53,62.42,5.42Zm-14.36.94c-.78,1-2,1.62-1.06,2.94a.79.79,0,0,0,1.32.22C49.64,8.49,48.78,7.6,48.06,6.36Zm21.49,3.92c-.32-.39-.52-1-1.28-1a1.27,1.27,0,0,0-1.47,1.17c-.14.87.49,1.06,1.12,1.11C68.72,11.63,69.24,11.2,69.55,10.28ZM39,22.82a1.2,1.2,0,0,0,1-1.35c0-.8-.62-.71-1.15-.75-.7,0-1.36.16-1.42.9C37.38,22.65,38.56,22.29,39,22.82Z"
              style="fill:#4e3132"/>
        <path d="M22.7,29.5c-.21,2.89-1.3,5.6-1.3,8.57a7.9,7.9,0,0,0,5.14,7.87,8.84,8.84,0,0,0,9.65-1.42c2.27-1.85,3.81-4.17,3.21-7.31-.1-.56-.19-1.38-.87-1.57s-1,.55-1.28,1.1c-.64,1.16-1.73,2-2.89,1.16a5.14,5.14,0,0,1-1.87-4.59c.06-1.61,1.4-1.08,2.29-1.12,4.3-.19,8.53.18,12.39,2.32.75.41,2.23.69,1.89,1.58s-.91,2.35-2.25,2.33c-3.35,0-2.37,3-3.28,4.59-.36.65.65.9,1.15,1.24s1.24.59,1.63-.12c1-1.91,3.93-2.32,3.91-5.19,0-.7,1.31-1.41,2.18.12a14.72,14.72,0,0,1,2.3,8.78C54.12,53.58,54,59.38,52.6,65c-.13.53-.26,1.06-.4,1.58-1,3.86-3.23,5.56-6.27,4.84-2.7-.65-4.75-4.55-4-7.71.7-2.89,1.46-5.76,2.23-8.64A7.06,7.06,0,0,0,44.09,51c-1.81,2.58-4.48,2.4-6.82,2.91C36,54.16,34,54.75,34,52.09a.58.58,0,0,0-.7-.63,1.22,1.22,0,0,0-.71.73,9.21,9.21,0,0,0,0,3.51c.33,3.23.79,6.46.84,9.7.05,3.48-1.87,5.85-4.7,6.48a4.89,4.89,0,0,1-6.13-4.75A51.64,51.64,0,0,1,23.56,55a8.5,8.5,0,0,0-.39-5.21c-1.51,3.79-3.2,1.95-4.86.72-5.95-4.4-6.32-6.92-4.1-14,1.42-4.54,3.86-6.77,8.39-7.11Z"
              style="fill:#b08269"/>
        <path d="M22.6,29.41c-.75-2.2-2.42-1.14-3.53-.72-3.3,1.22-6.52,2.65-9.71,4.15-2,.94-4,1.63-5.82,0a5.93,5.93,0,0,1-1.73-6.39c1-3.82,3.46-6.38,6.47-8.62.6-.45,1,0,1.48.21,2.63,1.21,4.55.17,6.12-1.9a51.43,51.43,0,0,1,3.67-5c.9-.94,2.05-3.34,3.82-.61.46.72,1,.05,1.15-.43.66-2.33,2.75-2.85,4.94-3.72-2.11,4-.17,8.53-1.8,12.43-1.51,3.62-2.49,7.53-5,10.71ZM15.48,21c-.47,2,1.09,2.84,2.75,2.8S21,22.45,21,20.48c0-1.8-.66-3-2.6-3.05C16.25,17.41,15.39,18.7,15.48,21Z"
              style="fill:#b08269"/>

        <path d="M28.37,21.05a8.39,8.39,0,0,1-.1,3.89c-.23,1.09-.94,2.65,1.2,2.87,1.88.2,2.41-1,2.41-2.49a12.88,12.88,0,0,1,.88-4.75A15.54,15.54,0,0,1,32,28.3a18.09,18.09,0,0,0-1.16,6.1c.13,4.53,2.05,6,6.62,5.08-.36,3.23-3.87,5.82-7.78,5.76a7.14,7.14,0,0,1-6.48-5.91c-.44-4.8,1.7-9,3.15-13.35C26.8,24.53,27.48,23.16,28.37,21.05Z"
              style="fill:#8c5143"/>
        <path d="M56.08,54.41c-.94-3.28.47-6.43-.06-9.75a15.65,15.65,0,0,0-8.79-12.19c-2.73-1.4-2.75-1.51-.33-3.2,5.07-3.56,8.93-2.42,11.36,3.31a20.07,20.07,0,0,1,.68,12.77C58.21,48.43,58.24,51.8,56.08,54.41Z"
              style="fill:#8c5143"/>
        <path d="M14.65,50.41c1.83,1.08,3.48,2,5.08,3,2.37,1.51,1.9,3.92,1.6,6.1A29.69,29.69,0,0,0,21,63.29c-.05,2.95-1.07,4.3-3.26,4.29a4.47,4.47,0,0,1-4.34-4.33,41.06,41.06,0,0,1,.72-9.71C14.28,52.56,14.45,51.59,14.65,50.41Z"
              style="fill:#b08269"/>
        <path d="M10.81,9.08c.09-2.61,2.93-5.53,6.2-6.24,2.18-.47,4.43,1,5.75,3.59.36.73.67,1.55-.41,1.64C19,8.35,17.85,11,16.2,13.2c-.81,1.07-1.68,2.11-2.58,3.11-.37.41-1.26.67-1.21-.06C12.56,13.71,11,11.62,10.81,9.08Z"
              style="fill:#8c5143"/>
        <path d="M39.8,66.06C38,65,37.16,63.81,37.69,61.92a9.94,9.94,0,0,0,.64-3.67c-.44-3.5,1.85-3.34,4.35-3.42-.52,1.89-1,3.66-1.49,5.45S40.31,63.93,39.8,66.06Z"
              style="fill:#b08269"/>
        <path d="M9.82,12.27c.57,1.12,1.47,1.84,1,3.09a1.71,1.71,0,0,1-2.36,1c-.85-.29-.47-1.16-.05-1.81S9.24,13.21,9.82,12.27Z"
              style="fill:#b08269"/>

        <path d="M15.48,21c-.09-2.31.77-3.6,2.94-3.58,1.94,0,2.58,1.25,2.6,3.05,0,2-1,3.28-2.79,3.33S15,23,15.48,21Z"
              style="fill:#4e3132"/>
    </g>
</svg>