<svg xmlns="http://www.w3.org/2000/svg" viewBox="0 0 90.44 108.7">
    <g>
        <path d="M37.79,9.3C39.3,8,40.88,7,41.63,5.09c.32-.8.88-1.78,2-1.53a2.52,2.52,0,0,1,1.82,2.17,23.44,23.44,0,0,1,.09,5.16c0,.86-.36,1.66,1.13,1.87s1.63,1.66,1.28,2.84a4.54,4.54,0,0,0-.35,2.71c4.06.65,8-.85,12-.15a11.93,11.93,0,0,1,8.88,7.14c1.75,3.75,2.72,7.62,1.46,11.78a8.63,8.63,0,0,0,0,2.12c3.17-1.51,6.34-2.76,9.82-1.76,6,1.74,8.34,6.6,9.71,12,2,8.11.83,16.13-1.39,24-.66,2.34-1.07,4.56.06,6.86.5,1,.54,1.91-1,1.39-1.25-.4-1.53,1-2.57,1.26-2,.52.64,1.51.12,2.42-.12.21.21.66.29,1,.2.86,1,1.86.14,2.55-1,.83-1.34-1-2.53-.86-.57,2.5-1.14,5.09-1.76,7.67a24.67,24.67,0,0,1-3.77,8.94c-4,5.61-13.2,3.38-15.37-2-.74-1.84-1.4-3.31-3.77-3.91-3-.74-4.41-4-4-7.19.37-2.79,1.27-5.48,1.31-8.32,0-1.21-.22-1.9-1.63-1.75-1.2.13-2.45,0-2.24,1.84.39,3.61.75,7.22,1,10.83.55,6.65-3.14,12.59-8.71,14.1-5.34,1.44-9.76-.85-11.7-6-.36-.94-.27-2-2.09-1.44C23.23,103,18.45,99.67,18,92.74a28,28,0,0,1,.42-7.59c.89-4.32.63-8.68.63-13a6.9,6.9,0,0,0-1-3.62c-2.77-4.75-2.51-9.45.24-14.16a27.47,27.47,0,0,0,3.32-7.66c-2.8,1.25-5.09,2.21-7.34,3.28A10,10,0,0,1,2.62,48.31C-.51,45.51-.51,41.76.92,38c2.37-6.24,6-11.85,9.67-17.3,3.15-4.6,4.12-10,6.29-14.86.66-1.49,1-3.12,2.09-4.4s2-2.56,3-.06c.31.72.85.4,1.38.33,7.58-1,9.76,0,13.72,6.71A8.34,8.34,0,0,0,37.79,9.3ZM57.93,23.07c-1.4.38-2.91-1.55-4.19.27,6.39,7.77,8.53,12.47,9.14,20.42,1-1.9,2-3.51,1.62-5.45a28,28,0,0,0-5.69-12.93c-.52-.64-1.68-1.15-.9-2.34,4.05,3.08,5.5,7.75,7.44,12.58C65.6,31.47,65,28,62.5,25.13,61.41,23.87,60.15,22.18,57.93,23.07ZM75.86,54.2c-.83.51-.6,1.5-1.31,2s-.09,1.76-.43,2.57c-.6,1.45-.93,3.73-2.66,3.63s-2.07.64-2.48,1.84c-.77,2.29-1.8,0-2.73.09-1.21.18-1.25-.6-.62-1.44.92-1.22.27-2.27-.07-3.53a2,2,0,0,1,2.33-2.55c1.68.17,2.8-.88,3.9-1.6,2.41-1.57,2.23-3-.23-4.38-6.06-3.41-12.64-4.17-19.45-4-4.34.14-4.8.55-4,4.88a12.17,12.17,0,0,0,.4,1.3C49,55,49.82,56.63,52,56.69a3.93,3.93,0,0,0,4.05-3c.17-.53.27-1.13.94-1.18s1.06.58,1.29,1.18c1.29,3.31.2,6.34-1.68,8.92A14.19,14.19,0,0,1,38.82,67c-7.21-3.59-8.1-8.91-6.87-16.26,1.15-6.87,4.68-12.87,7.58-19.11,1.81-3.9,3.54-8,2.41-12.51a4,4,0,0,1,.4-3.49c1.65-2.7,1.85-7,.79-8.61-3.47,2.09-5.06,7.08-10.31,6.44-.23,0-.48.23-.73.33a12.31,12.31,0,0,0-6.31,5.73,22.28,22.28,0,0,1-5.49,6.34,4.94,4.94,0,0,1-6-.29c-.71-.74-1.52-1.88.35-2,2.63-.19,2.33-1.95,2-3.51A24,24,0,0,0,14.87,16c-1.38,3.12-3.49,5.38-3.52,8.62a3.1,3.1,0,0,1-1.29,2.6c-4.36,2.75-6,7.39-7.87,11.74C0,44,3.24,48.8,8.69,49.26A10.71,10.71,0,0,0,14.47,48c2.6-1.3,5.15-2.71,7.81-3.86a50.37,50.37,0,0,1,10.88-3.23c-2,2.27-4.31,2.35-6.23,3.18-1.43.63-3.29.69-3.73,2.72-.62,2.86-2,5.42-3.17,8.08-2.17,4.92-3.24,9.89.6,14.59A23.12,23.12,0,0,0,29,76.3c2.06.92,4.3,2.67,5.34-1.84a7.21,7.21,0,0,1,.49,4c-.45,6.23-1.66,12.37-2,18.64-.28,6,3.41,10.46,9,9.88,3.34-.36,5.6-2.27,7.14-5.21,2.55-4.86,1.34-9.92.89-14.94a68.26,68.26,0,0,1-.25-10.1c1-.08,1.18.43,1.2.81.15,3.21,2.09,2.89,4.33,2.36,1.48-.36,3.05-.36,4.55-.67,2.12-.44,4.74-.12,5.26-4,1.42,3.2.4,5.4-.08,7.62-1.14,5.2-3,10.28-2.78,15.71a8,8,0,0,0,6,7.29c3.45.87,6.34-.4,8.23-3.72a19.1,19.1,0,0,0,1.73-4,94.41,94.41,0,0,0,3.58-30.9A17.63,17.63,0,0,0,75.86,54.2Zm-18.8,1c-1.84,3.07-4.36,4-7,3s-3.67-3.49-3.76-6.39A30,30,0,0,1,48,40.1a18.79,18.79,0,0,0,.75-9.84c-.57,2.63-.87,5.3-1.37,7.93-.3,1.53-1,2.74-3,2.11-1.63-.51-2.91-1.07-2.07-3.21a8.87,8.87,0,0,0,.68-3.16c0-2.2,1.33-4.39.05-7.4-1,4.24-2.76,7.42-4.23,10.71-2.06,4.6-4.24,9.13-5.15,14.23-1.55,8.78,2.29,14.56,11,15.39C52,67.55,57.6,60.6,57.06,55.24Zm31.79,4.21c0-7-1.67-13.1-4.4-16.82a8.6,8.6,0,0,0-9-3.65c-3.84.79-7.14,2.59-8.5,6.74-.37,1.11.18,1.09.94,1.38,10.66,4,15.54,11.16,15.55,22.59,0,3.16.21,6.33-.48,9.46-.11.47-.22,1.17.46,1.4a.71.71,0,0,0,.94-.68c-.28-1.32.93-2,1.14-3C86.83,70.73,88.52,64.63,88.85,59.45Zm-68,13.27c-.46,3.29-.11,6.27-.48,9.22-.55,4.38-1.35,8.81-.16,13.23a6.75,6.75,0,0,0,7.94,4.5c1.41-.43,2.94-1.21,2.93-2.85,0-3.92,1.12-7.73,1.06-11.62,0-2.27.14-5.12-2.07-6.39A55.19,55.19,0,0,1,20.82,72.72Zm-3.93-47.9c1.78.73,2.83-.11,3.85-1,2.47-2.21,4-5.14,5.7-7.89a9.14,9.14,0,0,1,5.44-4.2C37,10.39,37.2,10.14,33.71,6a7.12,7.12,0,0,0-1-.92C29.57,2.61,25,1.45,20,5.88,16.63,8.81,15.25,13.07,17.2,17,18.52,19.64,19.26,22.21,16.89,24.82ZM57.05,38.33c1.25-.23,2.73-.16,3.32,1.33s.59,2.85-1,3.79c-.37.22-1.16.3-.69,1.13a1.36,1.36,0,0,0,1.24.85c.68,0,1.35,0,1.53-.72a5.82,5.82,0,0,0,.15-2.16c-.92-6.81-3.24-13-8.35-17.81-.53-.5-.94-1.33-1.94-.51-.71.58-1.44.88-1.15,2.1A29.64,29.64,0,0,1,49,43.43c-.19.53-.82,1.45-.08,1.65A5.82,5.82,0,0,0,52,44.86a1.6,1.6,0,0,0,1.1-1.62C52.51,39,52.82,38.6,57.05,38.33Zm11.59-4.07a15.58,15.58,0,0,0,.17-1.82c-.11-5-1.81-9.31-6.28-11.86a10.44,10.44,0,0,0-12.16.77c-.65.49-2,.51-1.36,1.77.82,1.55,1.66.18,2.39-.23,5.11-2.91,10.54-1.66,13.32,3.23a15.68,15.68,0,0,1,1.86,6.7c.29,4-.9,7.63-2.33,11.24-.28.71-1.17,1.66-.23,2.11,1.09.52,1.44-.85,1.8-1.58C67.42,41.27,69.27,38,68.64,34.26ZM55.22,92.64c.38,1.52.78,3.21,2.38,4.23.61.39,1.18,1,2,.69,1-.34.85-1.28.89-2.07.18-3.65,1.28-7.12,2-10.66.91-4.38,1.1-4.34-3.43-3.9-.88.08-2.1-.13-2.16,1.1A89.39,89.39,0,0,1,55.22,92.64ZM68.84,58.28c-.8-.35-1.46-.2-1.68.7s.58,1.23,1.23,1.48a11.2,11.2,0,0,0,2.07.52c1.45.24,1.72-1,2.25-1.88a1.32,1.32,0,0,0-.26-1.93c-1-.71-1.64,0-2.18.82C69.9,58.55,69.38,58.49,68.84,58.28ZM46,37.59A42.84,42.84,0,0,0,47.25,26.9C46.56,30.28,45.54,33.63,46,37.59Zm10.64,3.85c.13-.91-.15-1.46-1.09-1.49s-1.94.1-2,1.25,1.11,1.32,1.89,1.54C56.51,43,56.3,41.89,56.64,41.44ZM44.77,18.71c1.08,3.4.19,6.69.85,9.94.17-3,.18-5.94.16-8.91C45.78,19.44,45.93,19,44.77,18.71Zm1.56-3c0-.53,0-1.2-.72-1.16-1,.05-1.15,1-1.35,1.73s.37.68.82.71C46,17.11,46.38,16.65,46.33,15.76Z"
              style="fill:#593c3a"/>
        <path d="M75.86,54.2a17.63,17.63,0,0,1,5.79,13,94.41,94.41,0,0,1-3.58,30.9,19.1,19.1,0,0,1-1.73,4c-1.89,3.32-4.78,4.59-8.23,3.72a8,8,0,0,1-6-7.29C61.9,93.09,63.78,88,64.92,82.81c.48-2.22,1.5-4.42.08-7.62-.52,3.93-3.14,3.61-5.26,4-1.5.31-3.07.31-4.55.67-2.24.53-4.18.85-4.33-2.36,0-.38-.25-.89-1.2-.81a68.26,68.26,0,0,0,.25,10.1c.45,5,1.66,10.08-.89,14.94-1.54,2.94-3.8,4.85-7.14,5.21-5.57.58-9.26-3.84-9-9.88.3-6.27,1.51-12.41,2-18.64a7.21,7.21,0,0,0-.49-4c-1,4.51-3.28,2.76-5.34,1.84a23.12,23.12,0,0,1-8.4-6.79c-3.84-4.7-2.77-9.67-.6-14.59,1.16-2.66,2.55-5.22,3.17-8.08.44-2,2.3-2.09,3.73-2.72,1.92-.83,4.2-.91,6.23-3.18a50.37,50.37,0,0,0-10.88,3.23c-2.66,1.15-5.21,2.56-7.81,3.86a10.71,10.71,0,0,1-5.78,1.23C3.24,48.8,0,44,2.19,38.93c1.88-4.35,3.51-9,7.87-11.74a3.1,3.1,0,0,0,1.29-2.6c0-3.24,2.14-5.5,3.52-8.62a24,24,0,0,1,1.8,4.11c.33,1.56.63,3.32-2,3.51-1.87.13-1.06,1.27-.35,2a4.94,4.94,0,0,0,6,.29,22.28,22.28,0,0,0,5.49-6.34,12.31,12.31,0,0,1,6.31-5.73c.25-.1.5-.36.73-.33,5.25.64,6.84-4.35,10.31-6.44,1.06,1.62.86,5.91-.79,8.61a4,4,0,0,0-.4,3.49c1.13,4.5-.6,8.61-2.41,12.51C36.63,37.9,33.1,43.9,32,50.77c-1.23,7.35-.34,12.67,6.87,16.26a14.19,14.19,0,0,0,17.76-4.42c1.88-2.58,3-5.61,1.68-8.92-.23-.6-.51-1.24-1.29-1.18s-.77.65-.94,1.18a3.93,3.93,0,0,1-4.05,3c-2.16-.06-3-1.72-3.52-3.6a12.17,12.17,0,0,1-.4-1.3c-.75-4.33-.29-4.74,4-4.88,6.81-.21,13.39.55,19.45,4,2.46,1.37,2.64,2.81.23,4.38-1.1.72-2.22,1.77-3.9,1.6a2,2,0,0,0-2.33,2.55c.34,1.26,1,2.31.07,3.53-.63.84-.59,1.62.62,1.44.93-.13,2,2.2,2.73-.09.41-1.2.68-2,2.48-1.84s2.06-2.18,2.66-3.63c.34-.81-.37-2,.43-2.57S75,54.71,75.86,54.2ZM27.14,24.71c-2.17-.06-4.09,2-4.15,4.48s1.55,4.65,3.78,4.74c2.43.11,4.25-1.82,4.28-4.54C31.08,26.83,29.36,24.77,27.14,24.71Z"
              style="fill:#b08269"/>
        <path d="M57.06,55.24C57.6,60.6,52,67.55,44.65,66.86c-8.75-.83-12.59-6.61-11-15.39.91-5.1,3.09-9.63,5.15-14.23C40.23,34,42,30.77,43,26.53c1.28,3,0,5.2-.05,7.4a8.87,8.87,0,0,1-.68,3.16c-.84,2.14.44,2.7,2.07,3.21,2,.63,2.74-.58,3-2.11.5-2.63.8-5.3,1.37-7.93A18.79,18.79,0,0,1,48,40.1a30,30,0,0,0-1.7,11.73c.09,2.9,1.16,5.35,3.76,6.39S55.22,58.31,57.06,55.24Z"
              style="fill:#8c5143"/>
        <path d="M88.85,59.45c-.33,5.18-2,11.28-3.39,17.43-.21,1-1.42,1.67-1.14,3a.71.71,0,0,1-.94.68c-.68-.23-.57-.93-.46-1.4.69-3.13.48-6.3.48-9.46,0-11.43-4.89-18.54-15.55-22.59-.76-.29-1.31-.27-.94-1.38,1.36-4.15,4.66-5.95,8.5-6.74a8.6,8.6,0,0,1,9,3.65C87.18,46.35,88.85,52.49,88.85,59.45Z"
              style="fill:#8c5143"/>
        <path d="M20.82,72.72A55.19,55.19,0,0,0,30,78.81c2.21,1.27,2,4.12,2.07,6.39.06,3.89-1.08,7.7-1.06,11.62,0,1.64-1.52,2.42-2.93,2.85a6.75,6.75,0,0,1-7.94-4.5c-1.19-4.42-.39-8.85.16-13.23C20.71,79,20.36,76,20.82,72.72Z"
              style="fill:#b08269"/>
        <path d="M16.89,24.82c2.37-2.61,1.63-5.18.31-7.83C15.25,13.07,16.63,8.81,20,5.88c5-4.43,9.62-3.27,12.78-.81a7.12,7.12,0,0,1,1,.92c3.49,4.15,3.33,4.4-1.83,5.72a9.14,9.14,0,0,0-5.44,4.2c-1.73,2.75-3.23,5.68-5.7,7.89C19.72,24.71,18.67,25.55,16.89,24.82Z"
              style="fill:#8c5143"/>

        <path d="M68.64,34.26c.63,3.73-1.22,7-2.82,10.33-.36.73-.71,2.1-1.8,1.58-.94-.45,0-1.4.23-2.11,1.43-3.61,2.62-7.24,2.33-11.24a15.68,15.68,0,0,0-1.86-6.7C61.94,21.23,56.51,20,51.4,22.89c-.73.41-1.57,1.78-2.39.23-.67-1.26.71-1.28,1.36-1.77a10.44,10.44,0,0,1,12.16-.77c4.47,2.55,6.17,6.86,6.28,11.86A15.58,15.58,0,0,1,68.64,34.26Z"
              style="fill:#d2cf7b"/>
        <path d="M55.22,92.64A89.39,89.39,0,0,0,56.89,82c.06-1.23,1.28-1,2.16-1.1,4.53-.44,4.34-.48,3.43,3.9-.74,3.54-1.84,7-2,10.66,0,.79.12,1.73-.89,2.07-.79.27-1.36-.3-2-.69C56,95.85,55.6,94.16,55.22,92.64Z"
              style="fill:#b08269"/>
        <path d="M57.91,23c-.78,1.19.38,1.7.9,2.34A28,28,0,0,1,64.5,38.31c.34,1.94-.58,3.55-1.62,5.45-.61-7.95-2.75-12.65-9.14-20.42,1.28-1.82,2.79.11,4.19-.27Z"
              style="fill:#d2cf7b"/>

        <path d="M68.84,58.28c.54.21,1.06.27,1.43-.29.54-.8,1.14-1.53,2.18-.82a1.32,1.32,0,0,1,.26,1.93c-.53.89-.8,2.12-2.25,1.88a11.2,11.2,0,0,1-2.07-.52c-.65-.25-1.47-.52-1.23-1.48S68,57.93,68.84,58.28Z"
              style="fill:#8c5143"/>
        <path d="M46,37.59c-.46-4,.56-7.31,1.25-10.69A42.84,42.84,0,0,1,46,37.59Z" style="fill:#d2cf7b"/>
        <path d="M56.64,41.44c-.34.45-.13,1.6-1.19,1.3-.78-.22-2-.38-1.89-1.54s1-1.27,2-1.25S56.77,40.53,56.64,41.44Z"
              style="fill:#8c5143"/>
        <path d="M44.77,18.71c1.16.28,1,.73,1,1,0,3,0,5.94-.16,8.91C45,25.4,45.85,22.11,44.77,18.71Z"
              style="fill:#d2cf7b"/>
        <path d="M46.32,15.76c.06.89-.34,1.35-1.24,1.28-.45,0-1-.09-.82-.71s.34-1.68,1.35-1.73C46.37,14.56,46.31,15.23,46.32,15.76Z"
              style="fill:#d2cf7b"/>
        <path d="M27.14,24.71c2.22.06,3.94,2.12,3.91,4.68,0,2.72-1.85,4.65-4.28,4.54-2.23-.09-3.85-2.13-3.78-4.74S25,24.65,27.14,24.71Z"
              style="fill:#593c3a"/>
    </g>
</svg>