<svg xmlns="http://www.w3.org/2000/svg" viewBox="0 0 98.76 112.58"><g id="Ebene_2" data-name="Ebene 2"><g id="Ebene_1-2" data-name="Ebene 1"><path d="M65.16,105.35c-5.31,1.09-10.32,2.24-15.52,1.23a4.65,4.65,0,0,0-3.36.62c-5.74,3.34-13.09,1-14.51-5.23-.27-1.16-.61-1.57-2-1.07-6.39,2.24-11.46-1.53-11.86-8.49-.22-4,.77-7.75,1-11.64.28-5.08.7-10.08-1.94-14.84-1.7-3.06-1.15-6.33.35-9.41,1-2.12,2.09-4.23,3.12-6.35.47-1,1.14-1.86.71-3.21-2.28,1-4.5,2-6.71,3-4.15,1.9-8.95,1.42-11.91-1.59s-3-6.82-1.5-10.62A61.7,61.7,0,0,1,8.58,24c4.24-5.82,6.27-12.55,8.71-19.13A11.79,11.79,0,0,1,19,1.46c.91-1.13,2-2.66,2.89.09.26.82.75.39,1.27.29,6.94-1.28,10,0,13.34,5.84,1.13,2,1.89,1.56,3.1.34a9.5,9.5,0,0,0,2-2.87,1.87,1.87,0,0,1,1.83-1.37c1.09.07,1.53.91,1.76,1.82.48,2,.17,4,.23,6,0,.52-.4,1.43.1,1.5,3.35.47,1.84,2.83,1.85,4.55,0,2.73,1.61,5,2.31,7.48a27.34,27.34,0,0,1,0,15.55c-.52,1.73-.93,3.49-1.36,5.25-1.17,4.84-.51,6.26,4.06,8.13,1.38.56,3.18,2.37,3.91-1,.27-1.21,1.51-.67,1.57.3.18,3.16,2.44,3.45,4.8,4.32C69,60,72.78,65.05,75.36,71c1,2.37,1.11,5.67,2.82,7.07,1.55,1.27,4.7-.07,7.22.42a18.92,18.92,0,0,1,12.23,7.73c2.2,3.07,1,7.63-2.16,10.41-3.78,3.29-8.38,4.68-13,6a20.94,20.94,0,0,0-6.19,2.49c-.42.28-1,.39-1,1.13s.69.72,1.2.71c.67,0,1.3.45.88.89-1.12,1.21-.94,3.9-3.48,3.47-1.35-.23-1.76,1.07-2.82,1.23-3,.44-4.4-2-6.34-3.39C63.37,108.23,64.9,106.75,65.16,105.35ZM49,54.09a1.39,1.39,0,0,0-.11-.21s-.09,0-.15,0l.29.21c.6,2.7,1.5,3.17,4.63,2.23ZM10.87,25.18c0-.42.09-.89-.48-1-.14,0-.45.28-.44.4.05.56.51.56.94.55A2.16,2.16,0,0,1,10,27.32c-4.23,2.75-5.89,7.26-7.79,11.53A7.12,7.12,0,0,0,7.14,49.06a9.62,9.62,0,0,0,6.63-.68c3-1.53,6-3,9.07-4.37a29.66,29.66,0,0,1,9.67-2.66c-1.25,1.63-3.13,1.88-4.85,2.53s-3.95.63-4.48,3a39.26,39.26,0,0,1-3,7.57c-2.65,5.71-3.35,11.24,1.41,16.4a23.37,23.37,0,0,0,7.34,5.49c1.86.87,4.24,3.28,5.55-1.31a17.24,17.24,0,0,1,.05,6.86A85.79,85.79,0,0,0,33.1,99.45c.23,5.49,5.1,9,10.24,7.32,1.11-.37,2.62-.76.6-2.16a4.08,4.08,0,0,1-1.49-3.34,8.52,8.52,0,0,1,4.62-8.57c2.66-1.53,3.36-3.32,2.82-6.4s-.13-6.44-.13-9.67h.72c1.14,2.71.58,5.63.76,8.45.18,3.07,2,4.42,4.92,3.57,2.51-.72,5-1.62,7.49-2.35.84-.24,2.14-1.35,2.54-.07S64.84,87.42,64,87.7c-4.09,1.4-8.29,2.5-12.35,4C48.13,93,45,95,43.92,99.05c-.77,2.86.37,5.23,3.31,5.71,8.71,1.41,17.13.72,24.73-4.33a12.09,12.09,0,0,0,4.3-5.51c-3.81.11-5.18-1.13-5.16-4.56L68.6,91c1.22-1.78,1.22-1.78-.47-2.49a3.15,3.15,0,0,0,2.48-2.72c1.11.55,1.19,1.51,1.65,2.23a2.14,2.14,0,0,1,2.58-1.09c1.07.4,1,1.43.92,2.34a5.31,5.31,0,0,0,1.18,3.53,9.52,9.52,0,0,0,.93-5.65c-.81-5.73-1.82-11.43-4.41-16.67-2.25-4.53-5.22-8.45-9.9-10.81C59.76,57.73,59,58,56.78,61.41c-3,4.65-7,7.49-12.91,6.88-5.09-.52-9-2.75-11.09-7.54-1.72-3.85-1.14-7.82-.25-11.73,1.23-5.45,4-10.29,6.24-15.33,2-4.51,4.4-9,3.12-14.24a5.43,5.43,0,0,1,.48-3.83c1.22-2.75,2-5.65.78-8.84-1.66,3.13-6,3.55-6.78,7.87-1.59-3.22-3.56-1.92-5.29-1.13C28.27,14.8,27,17.57,25.45,20c-1.33,2.06-2.54,4.25-4.77,5.48-2,1.07-4,1.7-6,0-.47-.39-1.24-.69-.94-1.46s.93-.11,1.41-.15c1.27-.13,1.53-1.15,1.65-2.16.23-2-.89-3.49-1.87-5.32A28.72,28.72,0,0,0,10.87,25.18ZM43.92,22a38.47,38.47,0,0,1-3.56,11.85c-2.68,5.81-5.61,11.5-6.87,17.91-1.42,7.18,1.9,13.09,8.94,15.06,7.33,2,15.39-4.66,14.56-12.4-.88,3-2.64,4.27-5.65,4.06s-4.12-1.93-4.74-4.41c-1.14-4.55-.38-9,1.19-13.24,1.34-3.66,1.31-7.39,1-11.17-.59,2.81-1,5.65-1.36,8.49-.23,1.75-1,2.72-2.91,2.16-1.47-.44-2.84-.66-2.2-3.08A48.45,48.45,0,0,0,43.92,22ZM82.61,85.17a5.18,5.18,0,0,1-1,3.1c-1,1.62-2.38,3-3,4.78a17.77,17.77,0,0,1-10.09,11c-1.57.67-2.85,2.15-2.52,3.49a5.31,5.31,0,0,0,2.93,3.3c1.73.77,2.91-1.32,4.58-.79.15,0-.13-.4-.13-.58,0-3.84,1.08-5.49,4.45-6.77A59.5,59.5,0,0,1,83.47,101c4.42-1.18,8.59-2.79,11.83-6.21,2.61-2.77,2.82-5.14.74-8.27C93,81.87,85.37,78.75,79.79,79.7c-1.33.22-1.41,1-1.27,1.92.35,2.29.81,4.56,1.23,6.87C81,87.51,80.84,85.74,82.61,85.17Zm-63,4.62c0,1-.08,2,0,3,.42,4.67,3.1,7.26,7.29,7.07,1.82-.09,3.88-.74,4-2.63C31.1,92.79,32.5,88.44,32,84c-.2-1.82,0-4.15-2.15-5.23a34.39,34.39,0,0,1-7.74-5c-.81-.72-1.58-.81-1.5.56C21,79.56,19.75,84.64,19.65,89.79ZM17.11,25a4.11,4.11,0,0,0,3.37-1c3-1.93,4.08-5.2,5.81-8a10.08,10.08,0,0,1,6.24-4.4c1.27-.36,3.16,0,3.53-1.38s-.91-2.63-2-3.64c-.33-.31-.64-.64-1-1-3.36-3.32-7.42-3.77-11.27-1.25-4.81,3.16-7,8-5.08,12.19C18.05,19.39,18.46,22,17.11,25ZM74.52,89.88c0-.5.57-1.48-.34-1.71-1.1-.28-1.06,1-1.32,1.65-.19.5-.24,1.05-.42,1.55a1.25,1.25,0,0,0,.88,1.86c.55.17,1.13.92,1.68.24a1.48,1.48,0,0,0-.26-2A1.22,1.22,0,0,1,74.52,89.88ZM45.76,28.72V19.4c0-.54,0-1.24-.79-1.07s-.3.93-.21,1.32C45.39,22.64,45.38,25.65,45.76,28.72Zm1.46-1.81c-.66,3.38-1.72,6.7-1.25,10.7C47,33.79,47,30.34,47.22,26.91ZM75,108.26s0,.14,0,.16a.72.72,0,0,0,.21,0l-.06-.29Z" style="fill:#593c3a"/><path d="M10.87,25.18a28.72,28.72,0,0,1,4-8.79c1,1.83,2.1,3.32,1.87,5.32-.12,1-.38,2-1.65,2.16-.48,0-1.11-.59-1.41.15s.47,1.07.94,1.46c2,1.69,4.06,1.06,6,0,2.23-1.23,3.44-3.42,4.77-5.48,1.57-2.42,2.82-5.19,5.63-6.47,1.73-.79,3.7-2.09,5.29,1.13.81-4.32,5.12-4.74,6.78-7.87,1.24,3.19.44,6.09-.78,8.84a5.43,5.43,0,0,0-.48,3.83c1.28,5.22-1.11,9.73-3.12,14.24-2.26,5-5,9.88-6.24,15.33-.89,3.91-1.47,7.88.25,11.73,2.12,4.79,6,7,11.09,7.54,5.88.61,9.92-2.23,12.91-6.88,2.2-3.42,3-3.68,6.78-1.77,4.68,2.36,7.65,6.28,9.9,10.81,2.59,5.24,3.6,10.94,4.41,16.67a9.52,9.52,0,0,1-.93,5.65,5.31,5.31,0,0,1-1.18-3.53c.07-.91.15-1.94-.92-2.34A2.14,2.14,0,0,0,72.26,88c-.46-.72-.54-1.68-1.65-2.23a3.15,3.15,0,0,1-2.48,2.72c1.69.71,1.69.71.47,2.49l2.5-.61c0,3.43,1.35,4.67,5.16,4.56a12.09,12.09,0,0,1-4.3,5.51c-7.6,5-16,5.74-24.73,4.33-2.94-.48-4.08-2.85-3.31-5.71,1.1-4,4.21-6,7.75-7.35,4.06-1.5,8.26-2.6,12.35-4,.82-.28,2.54-.31,2.17-1.48s-1.7-.17-2.54.07c-2.51.73-5,1.63-7.49,2.35-3,.85-4.74-.5-4.92-3.57-.18-2.82.38-5.74-.76-8.45h-.72c0,3.23-.43,6.54.13,9.67s-.16,4.87-2.82,6.4a8.52,8.52,0,0,0-4.62,8.57,4.08,4.08,0,0,0,1.49,3.34c2,1.4.51,1.79-.6,2.16-5.14,1.69-10-1.83-10.24-7.32a85.79,85.79,0,0,1,1.43-17.59A17.24,17.24,0,0,0,34.48,75c-1.31,4.59-3.69,2.18-5.55,1.31a23.37,23.37,0,0,1-7.34-5.49c-4.76-5.16-4.06-10.69-1.41-16.4a39.26,39.26,0,0,0,3-7.57c.53-2.34,2.79-2.33,4.48-3s3.6-.9,4.85-2.53A29.66,29.66,0,0,0,22.84,44c-3.07,1.34-6.08,2.84-9.07,4.37a9.62,9.62,0,0,1-6.63.68A7.12,7.12,0,0,1,2.19,38.85c1.9-4.27,3.56-8.78,7.79-11.53a2.16,2.16,0,0,0,.91-2.15ZM31,29.35c0-2.44-1.67-4.52-3.71-4.61S23,27,23,29.45A4.23,4.23,0,0,0,27,33.93C29.33,33.89,31,32,31,29.35Z" style="fill:#b08269"/><path d="M43.92,22A48.45,48.45,0,0,1,42.3,37.25c-.64,2.42.73,2.64,2.2,3.08,1.87.56,2.68-.41,2.91-2.16.37-2.84.77-5.68,1.36-8.49.33,3.78.36,7.51-1,11.17-1.57,4.29-2.33,8.69-1.19,13.24.62,2.48,1.85,4.21,4.74,4.41s4.77-1.07,5.65-4.06c.83,7.74-7.23,14.45-14.56,12.4-7-2-10.36-7.88-8.94-15.06,1.26-6.41,4.19-12.1,6.87-17.91A38.47,38.47,0,0,0,43.92,22Z" style="fill:#8c5143"/><path d="M82.61,85.17c-1.77.57-1.6,2.34-2.86,3.32-.42-2.31-.88-4.58-1.23-6.87-.14-.91-.06-1.7,1.27-1.92,5.58-1,13.2,2.17,16.25,6.78,2.08,3.13,1.87,5.5-.74,8.27-3.24,3.42-7.41,5-11.83,6.21a59.5,59.5,0,0,0-5.69,1.78c-3.37,1.28-4.41,2.93-4.45,6.77,0,.18.28.62.13.58-1.67-.53-2.85,1.56-4.58.79a5.31,5.31,0,0,1-2.93-3.3c-.33-1.34,1-2.82,2.52-3.49a17.77,17.77,0,0,0,10.09-11c.62-1.73,2-3.16,3-4.78A5.18,5.18,0,0,0,82.61,85.17Z" style="fill:#8c5143"/><path d="M19.65,89.79c.1-5.15,1.3-10.23,1-15.41-.08-1.37.69-1.28,1.5-.56a34.39,34.39,0,0,0,7.74,5C32,79.87,31.81,82.2,32,84c.49,4.42-.91,8.77-1.1,13.2-.08,1.89-2.14,2.54-4,2.63-4.19.19-6.87-2.4-7.29-7.07C19.57,91.79,19.65,90.79,19.65,89.79Z" style="fill:#b08269"/><path d="M17.11,25c1.35-3,.94-5.62-.35-8.41-1.91-4.18.27-9,5.08-12.19,3.85-2.52,7.91-2.07,11.27,1.25.32.32.63.65,1,1,1.08,1,2.34,2.29,2,3.64s-2.26,1-3.53,1.38A10.08,10.08,0,0,0,26.29,16c-1.73,2.8-2.85,6.07-5.81,8A4.11,4.11,0,0,1,17.11,25Z" style="fill:#8c5143"/><path d="M74.52,89.88a1.22,1.22,0,0,0,.22,1.62,1.48,1.48,0,0,1,.26,2c-.55.68-1.13-.07-1.68-.24a1.25,1.25,0,0,1-.88-1.86c.18-.5.23-1.05.42-1.55.26-.7.22-1.93,1.32-1.65C75.09,88.4,74.47,89.38,74.52,89.88Z" style="fill:#8c5143"/><path d="M45.76,28.72c-.38-3.07-.37-6.08-1-9.07-.09-.39-.61-1.14.21-1.32s.78.53.79,1.07Z" style="fill:#d2cf7b"/><path d="M47.22,26.91C47,30.34,47,33.79,46,37.61,45.5,33.61,46.56,30.29,47.22,26.91Z" style="fill:#d2cf7b"/><path d="M49,54.09l4.66,2.2c-3.13.94-4,.47-4.63-2.23Z" style="fill:#b08269"/><path d="M10.89,25.17c-.43,0-.89,0-.94-.55,0-.12.3-.41.44-.4.57.07.5.54.48,1Z" style="fill:#b08269"/><path d="M75,108.26l.19-.08.06.29a.72.72,0,0,1-.21,0S75,108.31,75,108.26Z" style="fill:#8c5143"/><path d="M49.06,54.06l-.29-.21c.06,0,.13,0,.15,0a1.39,1.39,0,0,1,.11.21Z" style="fill:#b08269"/><path d="M31,29.35c0,2.62-1.68,4.54-4,4.58A4.23,4.23,0,0,1,23,29.45c0-2.44,2.2-4.8,4.35-4.71S31,26.91,31,29.35Z" style="fill:#593c3a"/></g></g></svg>