<svg xmlns="http://www.w3.org/2000/svg" viewBox="0 0 84.95 119.86"><g id="Ebene_2" data-name="Ebene 2"><g id="Ebene_1-2" data-name="Ebene 1"><path d="M30.74,77.08c1.44,5.48,3.71,10.16,5.36,15,2,6,3.06,12,.77,18.2-.95,2.57-2.36,4.88-5.21,5.93-.58-.85,0-1.87-.43-3-1.21,1.82-2.31,3.55-3.5,5.21-.24.34-.49,1.08-1.21.66a1.11,1.11,0,0,1-.46-1.43,17.69,17.69,0,0,0,1.08-4.92c-.93-.54-1.37,1.44-2.29.3-.52-.65-.28-1.23-.14-2,1.05-5.92,1.43-11.82-1.49-17.4a2.08,2.08,0,0,0-.88-.82c1.72,9.44,3.42,18.83-3.31,27-.72-2.51-3.38-4.17-2.51-7.14-2.55,2.82-4.25,6.26-9.08,6.77,3.79-5.19,3.79-10.68,3.21-16.12S8.09,92.58,6.37,87.3C3.24,77.71.35,68,0,57.9-.38,45.06,3.35,33.67,13.89,25.37a18,18,0,0,1,9.72-3.55,3.21,3.21,0,0,0,2.6-1.46,83.4,83.4,0,0,1,22-20A1.46,1.46,0,0,1,49.88.21C64,7.79,76,17.48,82.1,32.91,88.94,50.33,83.24,67.8,67.36,79.2a76.26,76.26,0,0,1-17.31,9.14A4.09,4.09,0,0,1,47,88c-5.74-2-10.28-5.89-14.81-9.78C31.82,77.94,31.47,77.67,30.74,77.08ZM43,72.32c-.14-.18-.29-.37-.48-.07,0,0,.15.2.24.31a36,36,0,0,0,5.34,12.08c1.07,1.67,2.18,1.69,3.86,1A61.5,61.5,0,0,0,69.84,74.46c11.07-9.95,15.29-26.07,10-40C74.3,19.87,63.44,10,50.55,2a1.87,1.87,0,0,0-2.26-.08A78.73,78.73,0,0,0,28,22.05a31.76,31.76,0,0,1,13.64,6.07L42,25.43c.3,3.71,3.1,7.8-1.52,10.75-.45.29-.58,1.09-.84,1.67a37.74,37.74,0,0,0-3,10.92C35.54,57.84,37,65.91,46,71a30.62,30.62,0,0,0,12.23,3.91C52.83,75.78,47.88,74.35,43,72.32ZM32.51,114a10.8,10.8,0,0,0,3.83-7.23A33.66,33.66,0,0,0,34,91.32c-3-7.2-5.54-14.48-6.74-22.25-1.47-9.56-.94-18.73,3.72-27.42a14.28,14.28,0,0,1,8.1-7.25c3.12-1,3.63-2.11,1.3-4.46-6.81-6.85-20-10.26-28.82-.48S.36,50.68,2.15,63.3c1.36,9.61,4.28,18.82,7.3,28,2.75,8.4,4.71,16.91,1.25,25.73a14.16,14.16,0,0,0,4.88-6.61c.21-.61-.28-1.77.79-1.69s.75,1.22.92,2c.51,2.29.07,5,2.64,6.44a14.82,14.82,0,0,0,1.69-4.26c2.37-8.06.43-15.72-2.09-23.34-.18-.54-.93-1.16-.18-1.68s1.19.14,1.65.58a18.43,18.43,0,0,1,4.93,9.24,24.27,24.27,0,0,1,.2,10.76c-.13.71-.82,2.56.67,2.14,2.84-.79,1.89.86,1.69,2.07-.11.66-.5,1.27,0,2,1.33-1.26,1.61-2.91,2.24-4.38.2-.47.18-1.22.94-1.06.57.11.8.69.81,1.27C32.52,111.69,32.51,112.84,32.51,114Zm6.57-78.44c-1.5,1.06-2.42,1.62-3.24,2.31a10,10,0,0,0-1.87,2C28,48.5,27.19,58.1,29,68.14c.16.91.52,1.72,1.74,1.69,2.76-.07,5.56.28,8.29-.93C31.21,58,33.55,47.17,39.08,35.55Zm6.7,49.85a38.6,38.6,0,0,1-5.11-14.11c-.13-1-.69-.71-1.36-.59-2.56.46-5.15.83-7.72,1.24-.57.09-1.34-.3-1.66.5s.23,1.18.67,1.64A47.39,47.39,0,0,0,45.78,85.4Z" style="fill:#4c3030"/><path d="M43,72.32c4.84,2,9.79,3.46,15.15,2.59A30.62,30.62,0,0,1,46,71c-9-5.09-10.42-13.16-9.39-22.23a37.74,37.74,0,0,1,3-10.92c.26-.58.39-1.38.84-1.67,4.62-3,1.82-7,1.52-10.75l-.37,2.69A31.76,31.76,0,0,0,28,22.05,78.73,78.73,0,0,1,48.29,1.91,1.87,1.87,0,0,1,50.55,2c12.89,8,23.75,17.88,29.3,32.5,5.28,13.9,1.06,30-10,40A61.5,61.5,0,0,1,52,85.63c-1.68.7-2.79.68-3.86-1a36,36,0,0,1-5.34-12.08Z" style="fill:#b18369"/><path d="M32.51,114c0-1.15,0-2.3,0-3.45,0-.58-.24-1.16-.81-1.27-.76-.16-.74.59-.94,1.06-.63,1.47-.91,3.12-2.24,4.38-.53-.75-.14-1.36,0-2,.2-1.21,1.15-2.86-1.69-2.07-1.49.42-.8-1.43-.67-2.14a24.27,24.27,0,0,0-.2-10.76A18.43,18.43,0,0,0,21,88.48c-.46-.44-1-1-1.65-.58s0,1.14.18,1.68c2.52,7.62,4.46,15.28,2.09,23.34a14.82,14.82,0,0,1-1.69,4.26c-2.57-1.46-2.13-4.15-2.64-6.44-.17-.77.13-1.91-.92-2s-.58,1.08-.79,1.69a14.16,14.16,0,0,1-4.88,6.61c3.46-8.82,1.5-17.33-1.25-25.73-3-9.2-5.94-18.41-7.3-28-1.79-12.62.66-24.19,9.41-33.84s22-6.37,28.82.48c2.33,2.35,1.82,3.43-1.3,4.46A14.28,14.28,0,0,0,31,41.65c-4.66,8.69-5.19,17.86-3.72,27.42C28.46,76.84,31,84.12,34,91.32a33.66,33.66,0,0,1,2.34,15.44A10.8,10.8,0,0,1,32.51,114Z" style="fill:#8d5243"/><path d="M39.08,35.55C33.55,47.17,31.21,58,39,68.9c-2.73,1.21-5.53.86-8.29.93-1.22,0-1.58-.78-1.74-1.69-1.77-10-.94-19.64,5-28.31a10,10,0,0,1,1.87-2C36.66,37.17,37.58,36.61,39.08,35.55Z" style="fill:#b18369"/><path d="M45.78,85.4A47.39,47.39,0,0,1,30.6,74.08c-.44-.46-1-.92-.67-1.64s1.09-.41,1.66-.5c2.57-.41,5.16-.78,7.72-1.24.67-.12,1.23-.42,1.36.59A38.6,38.6,0,0,0,45.78,85.4Z" style="fill:#b18369"/><path d="M42.79,72.56c-.09-.11-.27-.28-.24-.31.19-.3.34-.11.49.07Z" style="fill:#b18369"/></g></g></svg>