<svg xmlns="http://www.w3.org/2000/svg" viewBox="0 0 88.51 122.61"><g id="Ebene_2" data-name="Ebene 2"><g id="Ebene_1-2" data-name="Ebene 1"><path d="M32.83,122.61c-2.51-1.44-5.34-2.35-7.47-4.46-3.4-3.38-3.72-7.36-2.43-11.71.38-1.25.61-2.54,1-4.11L21.18,104c-1,.65-2.26,1.21-3.13.06s.18-1.94.85-2.76c1.73-2.1,4.26-3.18,6.66-5A43.84,43.84,0,0,1,11.85,88.2C6,83.27,3.32,76.55,1.56,69.44c-3-11.93-1.93-23.39,5-33.86,4.55-6.86,10.82-11.16,19.11-12.24a4.58,4.58,0,0,0,3.37-2A80,80,0,0,1,51.61.47c.7-.46,1.17-.66,1.92-.25C67.63,7.81,79.66,17.5,85.69,32.94c6.8,17.42,1.09,34.87-14.78,46.24a76.4,76.4,0,0,1-17.3,9.14,3.79,3.79,0,0,1-2.85-.23,37.08,37.08,0,0,1-10.6-6.17A28.35,28.35,0,0,1,34.3,93.83c-.71.84-.4,1.33.19,1.75,5.46,3.86,5.73,9.24,4.54,15.11a9.56,9.56,0,0,0-.48,3.69c.58,3.15,2.17,4.26,6.88,4.49-2.39,2-5.35,2.27-7.69,3.74ZM46.61,72.3c-.14-.18-.3-.38-.49-.08,0,0,.16.21.24.32A36.16,36.16,0,0,0,51.7,84.62c1.08,1.66,2.18,1.69,3.86,1A60.16,60.16,0,0,0,73,74.78C86.3,62.72,89.51,44.17,80.8,28.51c-6.16-11.08-15.12-19.32-25.73-26a3.34,3.34,0,0,0-4.35.08A82.35,82.35,0,0,0,32.3,20.93c-.39.53-1.3,1.12-.62,1.79s2,.65,3.11.65a1.13,1.13,0,0,0,1.32-1c.93-3.12,2-3.53,4.81-2.07a5.88,5.88,0,0,1,3.13,3.26c.73,2.13,1.69,1.79,3,.56A9.41,9.41,0,0,1,51.94,22c2.06-.4,3.66.33,4.23,2.36S55.12,27,53.6,27.48a27.17,27.17,0,0,1-3.68.82c-1.39.23-2.22.57-1.86,2.35s-.18,3.92-2.05,4.61c-2.11.77-2.74,2.28-3.43,4.07a39.41,39.41,0,0,0-2.44,9.41C39,58.8,41.27,68.13,53,72.58a44.35,44.35,0,0,0,9.58,2.34C56.4,75.75,51.45,74.32,46.61,72.3ZM1.72,60.77c.43,9,3,20.27,13.52,28.18a44.22,44.22,0,0,0,9.84,5.71c4.59,1.87,7.49.34,10.64-5.09,4.26-7.35,3.74-14.86,1-22.48-1.69-4.66-4.46-8.85-5.33-13.9-1.15-6.71,2.28-18,10.13-19.38a2.45,2.45,0,0,0,2.25-2.62c0-1.61-.14-3-1.81-3.89-9-5-22.36-3.3-29.82,4S1.62,47.37,1.72,60.77ZM27.25,100.9c-4.08,5.33-5,11.37-2.08,14.78,3.72,4.4,9.15,7.9,16.43,3.92-4.06-1.79-5-3.72-4-8.17,1-4.6,1.32-9-1.82-13.17-1.9-2.53-2.87-.05-4.26.22-2,.38-.61,1.41-.4,2.16.83,3,1.87,5.86.72,9-.42,1.16-.83,2.49-2.18,2.39s-1.94-1.33-2.3-2.66A18.69,18.69,0,0,1,27.25,100.9Zm15.4-32.21a21.54,21.54,0,0,1-5-13.2,36,36,0,0,1,4.24-18.25c.25-.48,1-1.06.37-1.66-.49-.45-1.19-.21-1.8,0a10,10,0,0,0-5.16,4.6C31.75,46.55,32,53,35,59.42c1.18,2.55,2.65,5,3.38,7.69C39,69.49,40.12,70.38,42.65,68.69ZM50,85.79a39.21,39.21,0,0,1-5.72-13.26c-.18-.7.41-2-.71-2s-2.6.05-3.47,1.15c-.62.8.34,8.21,1.17,8.84A32.93,32.93,0,0,0,50,85.79ZM28.73,98.66c-.28,1.58-.55,2.78-.7,4a16.94,16.94,0,0,0,.47,6.72c.19.66.54,1.29,1.2,1.32s.78-.75,1-1.34C32,105.51,30.43,102.25,28.73,98.66ZM55.19,24.85c-.45-.37-.47-1.14-1.27-1.45-1.9-.74-6.57,1.07-7.32,2.93-.34.84-.16,1.52.92,1.28,2.09-.44,4.15-1,6.23-1.47A1.71,1.71,0,0,0,55.19,24.85ZM43.9,26.55C43.24,24,42.06,22.27,40,21.27c-.84-.41-2.12-1.34-2.68.29-.41,1.19-.47,2.45,1.32,2.94S41.94,25.77,43.9,26.55ZM25.37,98.18c-2.33,1.38-5,2.38-5.92,5.17C22,102.26,24.4,101,25.37,98.18ZM45.12,28.87c-.77,1.41.19,3.05-.62,4.41a.67.67,0,0,0-.13.23c0,.4.09.73.5.8a1.05,1.05,0,0,0,.73-.17C47,33.19,46.69,30.13,45.12,28.87Z" style="fill:#4c3030"/><path d="M46.61,72.29c4.84,2,9.79,3.46,15.94,2.63A44.35,44.35,0,0,1,53,72.58C41.27,68.13,39,58.8,40.14,48.74a39.41,39.41,0,0,1,2.44-9.41c.69-1.79,1.32-3.3,3.43-4.07,1.87-.69,2.43-2.73,2.05-4.61s.47-2.12,1.86-2.35a27.17,27.17,0,0,0,3.68-.82c1.52-.45,3.15-1.08,2.57-3.12S54,21.6,51.94,22a9.41,9.41,0,0,0-4.89,2.16c-1.31,1.23-2.27,1.57-3-.56a5.88,5.88,0,0,0-3.13-3.26c-2.8-1.46-3.88-1.05-4.81,2.07a1.13,1.13,0,0,1-1.32,1c-1.09,0-2.31.14-3.11-.65s.23-1.26.62-1.79A82.35,82.35,0,0,1,50.72,2.6a3.34,3.34,0,0,1,4.35-.08c10.61,6.67,19.57,14.91,25.73,26C89.51,44.17,86.3,62.72,73,74.78A60.16,60.16,0,0,1,55.56,85.6c-1.68.71-2.78.68-3.86-1a36.16,36.16,0,0,1-5.34-12.08Z" style="fill:#b18369"/><path d="M1.72,60.77c-.1-13.4,3.05-22.27,10.39-29.46s20.82-9,29.82-4c1.67.94,1.84,2.28,1.81,3.89a2.45,2.45,0,0,1-2.25,2.62c-7.85,1.34-11.28,12.67-10.13,19.38.87,5.05,3.64,9.24,5.33,13.9,2.77,7.62,3.29,15.13-1,22.48-3.15,5.43-6,7-10.64,5.09A44.22,44.22,0,0,1,15.24,89C4.7,81,2.15,69.76,1.72,60.77Z" style="fill:#8d5243"/><path d="M27.25,100.9a18.69,18.69,0,0,0,.08,8.47c.36,1.33,1,2.56,2.3,2.66s1.76-1.23,2.18-2.39c1.15-3.14.11-6-.72-9-.21-.75-1.57-1.78.4-2.16,1.39-.27,2.36-2.75,4.26-.22,3.14,4.17,2.81,8.57,1.82,13.17-1,4.45,0,6.38,4,8.17-7.28,4-12.71.48-16.43-3.92C22.28,112.27,23.17,106.23,27.25,100.9Z" style="fill:#8d5243"/><path d="M42.65,68.69c-2.53,1.69-3.63.8-4.27-1.58-.73-2.72-2.2-5.14-3.38-7.69-3-6.44-3.25-12.87.32-19.21a10,10,0,0,1,5.16-4.6c.61-.24,1.31-.48,1.8,0,.63.6-.12,1.18-.37,1.66a36,36,0,0,0-4.24,18.25A21.54,21.54,0,0,0,42.65,68.69Z" style="fill:#b18369"/><path d="M50,85.79a32.93,32.93,0,0,1-8.73-5.23c-.83-.63-1.79-8-1.17-8.84.87-1.1,2.31-1.08,3.47-1.15s.53,1.26.71,2A39.21,39.21,0,0,0,50,85.79Z" style="fill:#b18369"/><path d="M28.73,98.66c1.7,3.59,3.28,6.85,1.95,10.7-.2.59-.2,1.39-1,1.34s-1-.66-1.2-1.32a16.94,16.94,0,0,1-.47-6.72C28.18,101.44,28.45,100.24,28.73,98.66Z" style="fill:#d2cf7b"/><path d="M55.19,24.85a1.71,1.71,0,0,1-1.44,1.29c-2.08.47-4.14,1-6.23,1.47-1.08.24-1.26-.44-.92-1.28.75-1.86,5.42-3.67,7.32-2.93C54.72,23.71,54.74,24.48,55.19,24.85Z" style="fill:#d2cf7b"/><path d="M43.9,26.55c-2-.78-3.55-1.58-5.23-2.05s-1.73-1.75-1.32-2.94c.56-1.63,1.84-.7,2.68-.29C42.06,22.27,43.24,24,43.9,26.55Z" style="fill:#d2cf7b"/><path d="M25.37,98.18c-1,2.81-3.36,4.08-5.92,5.17C20.41,100.56,23,99.56,25.37,98.18Z" style="fill:#d2cf7b"/><path d="M45.12,28.87c1.57,1.26,1.83,4.32.48,5.27a1.05,1.05,0,0,1-.73.17c-.41-.07-.55-.4-.5-.8a.67.67,0,0,1,.13-.23C45.31,31.92,44.35,30.28,45.12,28.87Z" style="fill:#d2cf7b"/><path d="M46.36,72.54c-.08-.11-.26-.28-.24-.32.19-.3.35-.1.49.07Z" style="fill:#b18369"/></g></g></svg>