<svg xmlns="http://www.w3.org/2000/svg" viewBox="0 0 71.44 88.52"><g id="Ebene_2" data-name="Ebene 2"><g id="Ebene_1-2" data-name="Ebene 1"><path d="M71.43,47.22c-.19,14.84-7.78,25.33-19.58,33.37a75.25,75.25,0,0,1-15.3,7.73A3.93,3.93,0,0,1,33.47,88c-8.2-3.27-14.57-8.92-20.09-15.63a3.68,3.68,0,0,0-1.81-1.48C3.89,68.69.27,61.53,0,53.71-.28,44.4,3.1,36.06,7.53,28.09c.7-1.26,1.4-2.21.65-3.89a2.47,2.47,0,0,1,2-3.6c2.24-.42,3.71-1.77,5.14-3.52A80.81,80.81,0,0,1,34.57.46,1.63,1.63,0,0,1,36.49.22c14.75,8,27.17,18.2,32.87,34.76A35.19,35.19,0,0,1,71.43,47.22Zm-60-25.49c-1.27-.07-2.35.36-2.11,1.77a3.38,3.38,0,0,0,3,3c3.86,0,7.58-.91,10.33-3.89,1.75-1.89.89-4.4-1.82-5.1,1.89,1.64,1.94,3.47.36,4.81a14.12,14.12,0,0,1-7.08,3.17,3.68,3.68,0,0,1-3.36-1.45c-1-1.08.45-1.55.64-2.33,2.58,0,5.18-.22,8,.59C17.17,20.16,14.77,20.06,11.42,21.73ZM29.56,72.3c-.14-.18-.29-.38-.49-.08,0,0,.16.21.25.32a36,36,0,0,0,5.34,12.08c1.08,1.68,2.19,1.68,3.86,1A61.45,61.45,0,0,0,56.38,74.42C67.3,64.59,71.57,48.7,66.54,35,61.08,20,50.07,10.07,37,1.93a2,2,0,0,0-2.48.15,74.6,74.6,0,0,0-18,17.17c1.07.38,2,.68,2.91,1,.49.2,1,.68,1.46.14s.16-1.18-.42-1.57c-.76-.51-1.3-1.13-.61-2s1.57-.68,2.47-.29a4,4,0,0,1,1.94,5.53c-1,1.87-.29,3.48-.3,5.18,0,1.9,1.86,2.7,3.11,2.92,1,.16,1.05-1.73,1.17-2.86.07-.62-.29-1.33.39-1.87a4.57,4.57,0,0,1,.48,4.16,3.07,3.07,0,0,0,.21,2.83,3.19,3.19,0,0,1-1.31,4.85c-2.29,1.23-3.12,3.06-3.6,5.34a59.51,59.51,0,0,0-1.39,6.06c-1,9.27.5,17.32,9.62,22.4a30.5,30.5,0,0,0,12,3.77C39.35,75.75,34.4,74.32,29.56,72.3Zm-3.9-3.58a19.26,19.26,0,0,1-3.88-6.81,29.38,29.38,0,0,1,1.16-20.16c1-2.51,1.08-4.34-.55-6.65-1.16-1.65-1.76-1.62-3.19-.65-3.52,2.38-7.12,3.1-10.65,0-1.4-1.24-1.49.31-1.76.92a44.48,44.48,0,0,0-4.18,18.9C2.77,66,12.26,72.73,25.66,68.72Zm6.65,16.65A39.58,39.58,0,0,1,27.2,71.44c-.07-.56-.14-1.11-.94-.9A42.25,42.25,0,0,1,15.19,72C20.37,77.68,25.62,82.4,32.31,85.37ZM13.61,34.83a9.16,9.16,0,0,0,8.87-7.25c.22-.91.7-2-.45-2.3-1.31-.35-1.15,1-1.4,1.78-1.12,3.78-4.27,6.4-7.29,6.13a2.69,2.69,0,0,1-2.48-3.74c.2-.64,1-1.42,0-1.85S9.45,28.08,9,28.76c-1,1.36-.74,2.61,0,4C10,34.72,11.74,34.9,13.61,34.83ZM23.47,30a2.4,2.4,0,0,0-1.14,2.23C22.36,34,24.75,37.12,26,37a3,3,0,0,0,2.8-2.48C29,33.59,24.91,30,23.47,30Zm-9.35,2.1c1.39.15,2.84-.68,2.86-1.77,0-1.43-1.83-1.18-2.92-1.41s-2,.13-2.08,1.45S12.85,32.13,14.12,32.08Zm3.31-8.43a1.3,1.3,0,0,0-1.59-.79c-.85,0-1.86-.35-2.43.66-.1.18-.09.6,0,.67.8.53,1.54,0,2.3-.2C16.23,23.86,16.75,23.79,17.43,23.65ZM15.93,28c1.69.6,3.21,1.62,3.44-1.26Z" style="fill:#4c3030"/><path d="M29.56,72.29c4.84,2,9.79,3.46,15.15,2.59a30.5,30.5,0,0,1-12-3.77C23.59,66,22.1,58,23.09,48.71a59.51,59.51,0,0,1,1.39-6.06c.48-2.28,1.31-4.11,3.6-5.34a3.19,3.19,0,0,0,1.31-4.85,3.07,3.07,0,0,1-.21-2.83,4.57,4.57,0,0,0-.48-4.16c-.68.54-.32,1.25-.39,1.87-.12,1.13-.21,3-1.17,2.86C25.89,30,24,29.18,24,27.28c0-1.7-.67-3.31.3-5.18a4,4,0,0,0-1.94-5.53c-.9-.39-1.79-.55-2.47.29s-.15,1.49.61,2c.58.39,1,.94.42,1.57s-1,.06-1.46-.14c-.91-.36-1.84-.66-2.91-1a74.6,74.6,0,0,1,18-17.17A2,2,0,0,1,37,1.93c13,8.14,24,18.1,29.51,33,5,13.75.76,29.64-10.16,39.47A61.45,61.45,0,0,1,38.52,85.6c-1.67.7-2.78.7-3.86-1a36,36,0,0,1-5.34-12.08Z" style="fill:#b18369"/><path d="M25.66,68.72c-13.4,4-22.89-2.74-23-14.49a44.48,44.48,0,0,1,4.18-18.9c.27-.61.36-2.16,1.76-.92,3.53,3.14,7.13,2.42,10.65,0,1.43-1,2-1,3.19.65,1.63,2.31,1.56,4.14.55,6.65a29.38,29.38,0,0,0-1.16,20.16A19.26,19.26,0,0,0,25.66,68.72Z" style="fill:#b18369"/><path d="M32.31,85.37c-6.69-3-11.94-7.69-17.12-13.38a42.25,42.25,0,0,0,11.07-1.45c.8-.21.87.34.94.9A39.58,39.58,0,0,0,32.31,85.37Z" style="fill:#b18369"/><path d="M13.61,34.83c-1.87.07-3.57-.11-4.62-2-.76-1.41-1-2.66,0-4,.48-.68.94-1.56,1.85-1.16s.24,1.21,0,1.85a2.69,2.69,0,0,0,2.48,3.74c3,.27,6.17-2.35,7.29-6.13.25-.82.09-2.13,1.4-1.78,1.15.32.67,1.39.45,2.3A9.16,9.16,0,0,1,13.61,34.83Z" style="fill:#8d5243"/><path d="M23.47,30c1.44,0,5.52,3.61,5.3,4.57A3,3,0,0,1,26,37c-1.22.09-3.61-3.08-3.64-4.82A2.4,2.4,0,0,1,23.47,30Z" style="fill:#8d5243"/><path d="M11.43,21.74c-.19.78-1.6,1.25-.64,2.33a3.68,3.68,0,0,0,3.36,1.45,14.12,14.12,0,0,0,7.08-3.17c1.58-1.34,1.53-3.17-.36-4.81,2.71.7,3.57,3.21,1.82,5.1-2.75,3-6.47,3.9-10.33,3.89a3.38,3.38,0,0,1-3-3c-.24-1.41.84-1.84,2.11-1.77Z" style="fill:#8d5243"/><path d="M14.12,32.08c-1.27.05-2.23-.26-2.14-1.73s1-1.67,2.08-1.45,2.94,0,2.92,1.41C17,31.4,15.51,32.23,14.12,32.08Z" style="fill:#b18369"/><path d="M11.42,21.73c3.35-1.67,5.75-1.57,8,.6-2.86-.81-5.46-.58-8-.59Z" style="fill:#8d5243"/><path d="M17.43,23.65c-.68.14-1.2.21-1.7.34-.76.2-1.5.73-2.3.2-.11-.07-.12-.49,0-.67.57-1,1.58-.63,2.43-.66A1.3,1.3,0,0,1,17.43,23.65Z" style="fill:#b18369"/><path d="M15.93,28l3.44-1.26C19.14,29.61,17.62,28.59,15.93,28Z" style="fill:#8d5243"/><path d="M29.32,72.54c-.09-.11-.27-.28-.25-.32.2-.3.35-.1.49.07Z" style="fill:#b18369"/></g></g></svg>