<svg xmlns="http://www.w3.org/2000/svg" viewBox="0 0 78.71 57.7"><g id="Ebene_2" data-name="Ebene 2"><g id="Ebene_1-2" data-name="Ebene 1"><path d="M24.9,34.72c-1.91,1.15-2.21,2.91-2.39,4.54-.49,4.48-.88,9-1.12,13.48-.11,2.06-.5,2.74-2.72,1.94-6.08-2.19-6.16-2.1-6-8.42,0-2.53.36-5,.51-7.58.06-1.07.23-2-1.52-2.15a4.5,4.5,0,0,1-3.91-4c-.17-.9-.13-1.47-1.4-1.3C2.7,31.76.19,29.49,0,25.77-.39,17,5.94,8.64,15.06,5.51c4.8-1.65,9.19-.51,13.55,1.25,2.21.88,3.88.3,4.61-2,.41-1.34.25-3.36,1.11-3.93C35.84-.2,38,0,39.87.08c1,.05,2,0,3,0,1.66,0,2.85.38,2.64,2.5a4.72,4.72,0,0,0,.65,2.57c.87,1.54,1.75,2.69,4,1.57,14.68-7.25,29.23,7,28.48,18.65-.25,4-2.41,6.17-6.48,5.86-1.08-.09-1.12.41-1.24,1.22a4.48,4.48,0,0,1-3.81,4c-1.8.25-1.66,1.13-1.64,2.32,0,3.54.66,7,.62,10.58,0,1.8-.51,2.9-2.1,3.58l-4,1.68c-2.6,1.11-2.72,1-2.76-1.94,0-3.46-.3-6.93,0-10.35a7.9,7.9,0,0,0-3.45-7.58,85.9,85.9,0,0,0-2.48,13.33c-.28,2.32-.7,4.62-1,6.93-.28,2-1.33,2.18-2.92,2.31a97.38,97.38,0,0,1-16,0c-1.77-.15-3.37-.15-3.51-2.64A119.41,119.41,0,0,0,24.9,34.72Zm7.55-9.47a7.6,7.6,0,0,1-5.29,3.86c-1.64.27-1.66,1.51-1.33,2.72a106.1,106.1,0,0,1,3.69,22.38c.05,1,.45,1.41,1.46,1.48a103.79,103.79,0,0,0,16.54,0c1.11-.09,1.57-.45,1.63-1.62A107,107,0,0,1,52.77,32c.25-.91.59-2-.62-2.62a2.53,2.53,0,0,0-3.17.47,1.23,1.23,0,0,1-1.52,0c-1.61-.83-2.89-1.86-2.69-4A20.4,20.4,0,0,0,44.35,20,12.74,12.74,0,0,1,46,10.55c.83-1.32,1.14-2-.17-3.1A4.3,4.3,0,0,1,44.24,3.6c.18-2-.82-2.56-2.61-2.41-1,.08-2,0-3,0-2,.12-4,.21-3.79,3.2a3.57,3.57,0,0,1-1.35,2.88C32,8.43,31.38,9.61,33,11.14c.23.22.23.68.38,1,2.4,5,0,10.36.92,15.51.22,1.24-1.27,2.07-2.44,2.66-.56.28-1.26.65-1.64-.09-.29-.56.32-1,.77-1.28C32.34,28.22,33.19,27.33,32.45,25.25ZM11.88,20.57a10.66,10.66,0,0,1-1.68,8c-1.63,2.43-1.11,4.89,1.08,6s3.83.29,4.8-2.75C17,29,19.32,25.86,15.84,23a3.58,3.58,0,0,1-.9-1.94,4.51,4.51,0,0,1,1.64-4.6,2.88,2.88,0,0,1,3.74-.13c.83.61,1.08.26,1.72-.22,2.16-1.61,4-.74,4.4,1.94a5.82,5.82,0,0,1-1.11,4.08c-.41.68-.77,1.81-1.7,1.34-1.16-.59.19-1.23.34-1.87s.46-1.34.68-2c.31-1,.65-2.22-.56-2.54s-1.58.85-1.66,1.93c-.05.66-.19,1.33-1,1.36s-.59-.77-.83-1.21c-.58-1.08-1.3-2.23-2.7-1.54s-1.64,1.93-1,3.45a10.78,10.78,0,0,0,6.54,6.11,5.44,5.44,0,0,0,5.45-.68,11.51,11.51,0,0,0,3.73-10.8c-.6-3.95-2.7-7-6.91-8.16A18.69,18.69,0,0,0,3.69,17C2.08,20.2,1,23.57,2.27,27.18c.94,2.7,3.47,3.37,5.51,1.42a7.45,7.45,0,0,0,2.66-4.86A4.68,4.68,0,0,1,11.88,20.57Zm43.76,3.14c-3.08-1.31-4.36-5.15-2.87-7.33.73-1.07,2.09-1.59,2.79-.89,1.44,1.44,2.68.78,4.14.39a2.8,2.8,0,0,1,3.21,1.47,4.53,4.53,0,0,1,0,5.56c-1.39,1.83-2.9,3.32-1.31,6,.77,1.29.95,3.06,1.81,4.45a2.78,2.78,0,0,0,3.18,1.55,3.42,3.42,0,0,0,2.76-3,5.15,5.15,0,0,0-1.06-3.8A8.05,8.05,0,0,1,67.06,21a5.44,5.44,0,0,1,1.13,2.65A7.6,7.6,0,0,0,71,28.7a3.12,3.12,0,0,0,5.29-1.15,9.72,9.72,0,0,0,.58-3.17c.26-10-11.06-18.91-21.18-17.56-8.6,1.14-11.54,9.25-8.74,15.6,1.75,4,3.68,5.37,7.37,4.94,3-.35,7.41-4.43,7.76-7.23a2.29,2.29,0,0,0-1.46-2.62c-1-.39-1.65.27-2.27,1-.49.59-.16,1.95-1.27,1.79s-.74-1.28-.92-2S55.48,16.8,54.67,17s-1,1.07-.86,2C54,20.57,55.05,21.84,55.64,23.71ZM14.88,36.63c.34,3.76-.55,7.36-.61,11-.07,4.11,0,4,4,5.37,1.56.52,1.91.15,1.89-1.33a53.91,53.91,0,0,1,1-12.09c.18-.84.09-1.47-1.1-1C17.91,39.34,16.26,38.53,14.88,36.63Zm48.86.07c-1,1.13-2,2.25-3.58,2.1s-1.72.66-1.76,1.94c-.1,3.71.91,7.35.59,11.06,0,.54,0,1,.8,1.12,2,.2,4.56-2.16,4.61-4.22C64.48,44.72,63.42,40.81,63.74,36.7ZM18.6,26.62c.14,3.05,0,5.59-1.82,7.94-1,1.29.41,2.31,1.77,2.5,1.8.24,4.08-2.23,5-4.7s-.08-3.47-2.23-4.15A16.14,16.14,0,0,1,18.6,26.62ZM60,26.79c-1.51.79-2.82,1.53-4.18,2.14a1.67,1.67,0,0,0-1.09,1.39c-.3,2.34,2.39,6.16,4.66,6.68a2.09,2.09,0,0,0,2.37-.86c.36-.52.76-1.12.17-1.7C59.76,32.34,60,29.6,60,26.79Z" style="fill:#4f3534"/><path d="M32.45,25.25c.74,2.08-.11,3-1.45,3.69-.45.24-1.06.72-.77,1.28.38.74,1.08.37,1.64.09,1.17-.59,2.66-1.42,2.44-2.66-.92-5.15,1.48-10.47-.92-15.51-.15-.32-.15-.78-.38-1-1.63-1.53-1-2.71.48-3.85a3.57,3.57,0,0,0,1.35-2.88c-.19-3,1.76-3.08,3.79-3.2,1-.06,2,.06,3,0,1.79-.15,2.79.4,2.61,2.41a4.3,4.3,0,0,0,1.62,3.85c1.31,1.06,1,1.78.17,3.1A12.74,12.74,0,0,0,44.35,20a20.4,20.4,0,0,1,.42,5.92c-.2,2.1,1.08,3.13,2.69,4a1.23,1.23,0,0,0,1.52,0,2.53,2.53,0,0,1,3.17-.47c1.21.66.87,1.71.62,2.62a107,107,0,0,0-3.62,22.12c-.06,1.17-.52,1.53-1.63,1.62a103.79,103.79,0,0,1-16.54,0c-1-.07-1.41-.45-1.46-1.48a106.1,106.1,0,0,0-3.69-22.38c-.33-1.21-.31-2.45,1.33-2.72A7.6,7.6,0,0,0,32.45,25.25Z" style="fill:#b18369"/><path d="M11.88,20.57a4.68,4.68,0,0,0-1.44,3.17A7.45,7.45,0,0,1,7.78,28.6c-2,1.95-4.57,1.28-5.51-1.42C1,23.57,2.08,20.2,3.69,17a18.69,18.69,0,0,1,22-9.52c4.21,1.17,6.31,4.21,6.91,8.16a11.51,11.51,0,0,1-3.73,10.8,5.44,5.44,0,0,1-5.45.68A10.78,10.78,0,0,1,16.92,21c-.64-1.52-.41-2.76,1-3.45s2.12.46,2.7,1.54c.24.44.07,1.24.83,1.21s.93-.7,1-1.36c.08-1.08.42-2.26,1.66-1.93s.87,1.57.56,2.54c-.22.67-.51,1.33-.68,2s-1.5,1.28-.34,1.87c.93.47,1.29-.66,1.7-1.34a5.82,5.82,0,0,0,1.11-4.08C26,15.37,24.2,14.5,22,16.11c-.64.48-.89.83-1.72.22a2.88,2.88,0,0,0-3.74.13,4.51,4.51,0,0,0-1.64,4.6,3.58,3.58,0,0,0,.9,1.94c3.48,2.86,1.16,5.95.24,8.79-1,3-2.75,3.8-4.8,2.75s-2.71-3.58-1.08-6A10.66,10.66,0,0,0,11.88,20.57Z" style="fill:#d7d7b5"/><path d="M55.64,23.71C55.05,21.84,54,20.57,53.81,19c-.11-.9-.06-1.75.86-2s1.3.57,1.48,1.31-.07,1.9.92,2,.78-1.2,1.27-1.79c.62-.76,1.26-1.42,2.27-1a2.29,2.29,0,0,1,1.46,2.62c-.35,2.8-4.77,6.88-7.76,7.23-3.69.43-5.62-1-7.37-4.94-2.8-6.35.14-14.46,8.74-15.6C65.8,5.47,77.12,14.34,76.86,24.38a9.72,9.72,0,0,1-.58,3.17A3.12,3.12,0,0,1,71,28.7a7.6,7.6,0,0,1-2.8-5.07A5.44,5.44,0,0,0,67.06,21a8.05,8.05,0,0,0,1.19,7.17A5.15,5.15,0,0,1,69.31,32a3.42,3.42,0,0,1-2.76,3,2.78,2.78,0,0,1-3.18-1.55c-.86-1.39-1-3.16-1.81-4.45-1.59-2.69-.08-4.18,1.31-6a4.53,4.53,0,0,0,0-5.56,2.8,2.8,0,0,0-3.21-1.47c-1.46.39-2.7,1-4.14-.39-.7-.7-2.06-.18-2.79.89C51.28,18.56,52.56,22.4,55.64,23.71Z" style="fill:#d7d7b5"/><path d="M14.88,36.63c1.38,1.9,3,2.71,5.2,1.94,1.19-.43,1.28.2,1.1,1a53.91,53.91,0,0,0-1,12.09c0,1.48-.33,1.85-1.89,1.33-4.05-1.34-4.1-1.26-4-5.37C14.33,44,15.22,40.39,14.88,36.63Z" style="fill:#b18369"/><path d="M63.74,36.7c-.32,4.11.74,8,.66,12-.05,2.06-2.65,4.42-4.61,4.22-.77-.08-.84-.58-.8-1.12.32-3.71-.69-7.35-.59-11.06,0-1.28.21-2.09,1.76-1.94S62.73,37.83,63.74,36.7Z" style="fill:#b18369"/><path d="M18.6,26.62a16.14,16.14,0,0,0,2.71,1.59c2.15.68,3.12,1.73,2.23,4.15s-3.19,4.94-5,4.7c-1.36-.19-2.79-1.21-1.77-2.5C18.62,32.21,18.74,29.67,18.6,26.62Z" style="fill:#d7d7b5"/><path d="M60,26.79c0,2.81-.23,5.55,1.93,7.65.59.58.19,1.18-.17,1.7a2.09,2.09,0,0,1-2.37.86c-2.27-.52-5-4.34-4.66-6.68a1.67,1.67,0,0,1,1.09-1.39C57.17,28.32,58.48,27.58,60,26.79Z" style="fill:#d7d7b5"/></g></g></svg>