<svg xmlns="http://www.w3.org/2000/svg" viewBox="0 0 95.32 62.26"><g id="Ebene_2" data-name="Ebene 2"><g id="Ebene_1-2" data-name="Ebene 1"><path d="M85.07,45.84c.68,3.07,1.38,5.19,1.37,7.47s-1.14,3-3.22,3c-2.33,0-4.07-1.3-5.89-2.45-.73-.46-1.25-1.27-2.43-1.37A11.89,11.89,0,0,1,75,58.22a4.07,4.07,0,0,1-2.81,3.33c-1.55.58-2.83-.55-3.75-1.67a60.33,60.33,0,0,1-6.64-11.12c-.47-.92-.92-1.86-1.72-3.48-.62,3.78-.7,6.91-1.41,10-.38,1.64-1.14,2-2.55,2.1a113.91,113.91,0,0,1-16.83,0c-2-.12-3.05-.94-3.11-3.1a46.86,46.86,0,0,0-1-7.83c-1.8,3.6-3.85,7-5.75,10.47a19.16,19.16,0,0,1-2.9,3.88c-.93,1-2.15,2-3.58,1.28a4.12,4.12,0,0,1-2.62-3.2c-.25-1.87-.61-3.71.17-5.73-1.52.09-2.16,1.22-3.11,1.78-1.55.93-3.06,1.93-4.93,2C10,57.06,9,56.12,9,53.65c-.07-2.25.69-4.36,1.31-7a12.52,12.52,0,0,1-7.88,2C.25,48.4-.5,47.36.33,45.34c2.58-6.21,6.89-11.17,11.53-15.89A43.57,43.57,0,0,1,20,23.12c1.31-.8,2-1.65,1.9-3.22A18.36,18.36,0,0,1,22,17.45c.23-4.14,2.39-6.53,6.55-6.77a29.71,29.71,0,0,0,7.9-1.9c3.17-1.08,5.61-3,5.66-6.69,0-1.28.6-1.37,1.56-1.63C46.54-.3,49.44.09,52.32.2c.75,0,1.52.36,1.55,1.83C54,5.89,56.19,8.11,60.3,8.8a57,57,0,0,1,8.07,2.13c3.38,1.09,5,2.93,4.94,6.46a6.44,6.44,0,0,0,3.34,6.11A49.26,49.26,0,0,1,94.73,44.27c1.28,2.79.5,3.81-2.5,3.9A10.59,10.59,0,0,1,85.07,45.84ZM59.74,24.53c-.15-.42-.56-.6-.83-.34s.25.49.38.75A99.68,99.68,0,0,0,74.73,49a17.87,17.87,0,0,0,6.79,5.29c1.27.51,3.09.86,3-1.21-.07-3.66-.11-7.49-3.85-9.81C79,42.19,77.27,41,75.59,39.72,69.63,35.37,64.82,29.81,59.74,24.53Zm11.78-4.42c.37-4.17-.27-6.26-2.45-7.11a27.36,27.36,0,0,0-7-2c-5.67-.62-8.36-3-9.52-8.38-.18-.83-.53-1.38-1.39-1.36C49.1,1.26,47,.93,45,1.51c-1.13.31-1.63.69-1.66,2a5.64,5.64,0,0,1-3.51,5.36A55.33,55.33,0,0,1,28.73,12.4c-3.9.77-4.92,2-5.11,6-.1,2.34.68,2.35,2.4,1.43a43.19,43.19,0,0,1,10.55-4.1c2.84-.68,4.86-1.16,4.39,2.82-.07.52.48.44.67.69,2.12,2.82,1.15,9.2-1.7,11.22-.28.2-.79.42-.8.64-.05,4.33-3.06,8.06-2.38,12.57a62.68,62.68,0,0,1,1.13,10.49c0,1.27.69,1.43,1.72,1.51a103,103,0,0,0,16,0c1.35-.11,1.93-.46,1.91-1.9,0-2.9.64-5.74.92-8.61.19-1.82,1-3.63.18-5.57a30.74,30.74,0,0,1-2.19-8.34,1.94,1.94,0,0,0-1.09-1.71c-2-1-2.44-2.73-2.14-4.81.23-1.61.3-3.24.5-4.85.68-5.43.9-5.59,6.09-4.55.79.16,1.54.52,2.33.72C65.36,16.92,68.12,19,71.52,20.11Zm-33-3.19A62.68,62.68,0,0,0,26.37,21.4c-10.53,5.07-18.3,13-23.93,23.15-1,1.81-.72,2.7,1.55,2.47a10.76,10.76,0,0,0,4.1-1.3c10.5-5.53,19-13.41,26.56-22.44A17.78,17.78,0,0,0,38.55,16.92Zm18.6-.47a2.17,2.17,0,0,0,.64,2.22,86.37,86.37,0,0,0,29.6,26.54,14.06,14.06,0,0,0,3.3,1.16c.86.2,2,.5,2.6-.22s-.11-1.7-.55-2.48C84.86,29.47,72.87,20.65,57.15,16.45ZM36.26,24.28c-1.77,1.87-3.26,3.29-4.59,4.85A64.26,64.26,0,0,1,16,42.85c-3.9,2.36-5,5.68-5.26,9.67-.19,2.59.85,3.24,3.32,2.21a15.8,15.8,0,0,0,5.45-4,99.73,99.73,0,0,0,14.57-21A14.57,14.57,0,0,0,36.26,24.28ZM58.45,28,58,28.2a17,17,0,0,0,.2,2.14,102.36,102.36,0,0,0,7.09,21.22,17.07,17.07,0,0,0,5.17,6.85c.66.48,1.81,2,2.74,0,1.27-2.7.23-7.94-1.89-10.09a35.14,35.14,0,0,1-6.22-8.11C62.9,36.15,60.66,32.1,58.45,28Zm-21.54.46C35.6,31,34.24,33.48,33,36c-2.25,4.53-4.8,8.91-8.45,12.43-2.92,2.82-3.1,6.06-2.55,9.67.36,2.39,1.68,2,2.9.92a16,16,0,0,0,3.26-3.58c3.59-5.63,5.55-11.91,7.4-18.22C36.36,34.44,37.43,31.66,36.91,28.5Zm4.18-6.07-.61-.1c-.29,1.52-.61,3-.86,4.56-.08.47-.34,1.21.4,1.31s1-.58,1.06-1.24C41.12,25.45,41.09,23.94,41.09,22.43Zm13.84.65c.4,1.46-.88,3.14.75,4.68C56,26,55.22,24.55,54.93,23.08Z" style="fill:#4f3534"/><path d="M71.52,20.11c-3.4-1.15-6.16-3.19-9.41-4-.79-.2-1.54-.56-2.33-.72-5.19-1-5.41-.88-6.09,4.55-.2,1.61-.27,3.24-.5,4.85-.3,2.08.12,3.8,2.14,4.81a1.94,1.94,0,0,1,1.09,1.71,30.74,30.74,0,0,0,2.19,8.34c.83,1.94,0,3.75-.18,5.57-.28,2.87-1,5.71-.92,8.61,0,1.44-.56,1.79-1.91,1.9a103,103,0,0,1-16,0c-1-.08-1.75-.24-1.72-1.51a62.68,62.68,0,0,0-1.13-10.49c-.68-4.51,2.33-8.24,2.38-12.57,0-.22.52-.44.8-.64,2.85-2,3.82-8.4,1.7-11.22-.19-.25-.74-.17-.67-.69.47-4-1.55-3.5-4.39-2.82A43.19,43.19,0,0,0,26,19.84c-1.72.92-2.5.91-2.4-1.43.19-4.05,1.21-5.24,5.11-6A55.33,55.33,0,0,0,39.79,8.83,5.64,5.64,0,0,0,43.3,3.47c0-1.27.53-1.65,1.66-2,2.07-.58,4.14-.25,6.22-.29.86,0,1.21.53,1.39,1.36,1.16,5.35,3.85,7.76,9.52,8.38a27.36,27.36,0,0,1,7,2C71.25,13.85,71.89,15.94,71.52,20.11Z" style="fill:#b18369"/><path d="M38.55,16.92a17.78,17.78,0,0,1-3.9,6.36c-7.55,9-16.06,16.91-26.56,22.44A10.76,10.76,0,0,1,4,47c-2.27.23-2.56-.66-1.55-2.47C8.07,34.41,15.84,26.47,26.37,21.4A62.68,62.68,0,0,1,38.55,16.92Z" style="fill:#d7d7b5"/><path d="M57.15,16.45c15.72,4.2,27.71,13,35.59,27.22.44.78,1.2,1.7.55,2.48s-1.74.42-2.6.22a14.06,14.06,0,0,1-3.3-1.16,86.37,86.37,0,0,1-29.6-26.54A2.17,2.17,0,0,1,57.15,16.45Z" style="fill:#d7d7b5"/><path d="M36.26,24.28a14.57,14.57,0,0,1-2.18,5.42A99.73,99.73,0,0,1,19.51,50.75a15.8,15.8,0,0,1-5.45,4c-2.47,1-3.51.38-3.32-2.21.28-4,1.36-7.31,5.26-9.67A64.26,64.26,0,0,0,31.67,29.13C33,27.57,34.49,26.15,36.26,24.28Z" style="fill:#d7d7b5"/><path d="M59.74,24.53c5.08,5.28,9.89,10.84,15.85,15.19C77.27,41,79,42.19,80.72,43.28c3.74,2.32,3.78,6.15,3.85,9.81,0,2.07-1.78,1.72-3,1.21A17.87,17.87,0,0,1,74.73,49,99.68,99.68,0,0,1,59.29,24.94Z" style="fill:#d7d7b5"/><path d="M58.45,28c2.21,4.06,4.45,8.11,6.62,12.2a35.14,35.14,0,0,0,6.22,8.11c2.12,2.15,3.16,7.39,1.89,10.09-.93,2-2.08.45-2.74,0a17.07,17.07,0,0,1-5.17-6.85,102.36,102.36,0,0,1-7.09-21.22A17,17,0,0,1,58,28.2Z" style="fill:#d7d7b5"/><path d="M36.91,28.5c.52,3.16-.55,5.94-1.37,8.73-1.85,6.31-3.81,12.59-7.4,18.22A16,16,0,0,1,24.88,59c-1.22,1-2.54,1.47-2.9-.92-.55-3.61-.37-6.85,2.55-9.67,3.65-3.52,6.2-7.9,8.45-12.43C34.24,33.48,35.6,31,36.91,28.5Z" style="fill:#d7d7b5"/><path d="M41.09,22.43c0,1.51,0,3,0,4.53,0,.66-.29,1.34-1.06,1.24s-.48-.84-.4-1.31c.25-1.52.57-3,.86-4.56Z" style="fill:#b18369"/><path d="M54.93,23.08c.29,1.47,1.11,2.88.75,4.68C54.05,26.22,55.33,24.54,54.93,23.08Z" style="fill:#b18369"/><path d="M59.29,24.94c-.13-.26-.77-.37-.38-.75s.68-.08.83.34Z" style="fill:#d7d7b5"/></g></g></svg>