<svg xmlns="http://www.w3.org/2000/svg" viewBox="0 0 100.89 59.41"><g id="Ebene_2" data-name="Ebene 2"><g id="Ebene_1-2" data-name="Ebene 1"><path d="M44,59.41c-5.93.1-5.75-4.28-5.93-8.25-.09-1.89-.48-3.71-.79-5.78-1.91,3-2.69,6.37-4.12,9.41a10.33,10.33,0,0,1-1.93,3.48c-1.35,1.27-3.19.88-3.62-.71C27,55.45,24,53,21.74,52.92c-5.35-.31-7.2-3.27-5-8.18a17.65,17.65,0,0,1,5.77-7.08c2-1.43,1.09-3.23,1.18-4.89,0-.93-.94-.54-1.5-.6A30.45,30.45,0,0,1,5.94,25.8C1.43,22.15-1,16,.41,10.93c1.21-4.29,7-9.77,12.3-10.5,9.18-1.26,16.4,2.41,23.09,8,1,.79,1.52,2.65,3.25,1.78,2-1,4.22-1.72,4.89-4.28,1.12-4.32,1.14-4.31,5.54-4.32,1,0,2,.08,3,0,2.32-.22,3.87.33,3.88,3.08,0,3.75,3.12,4.46,5.74,5.61.95.41,1.5-.23,2.09-.82A31,31,0,0,1,83.07.1c8.27-.94,17,4.81,17.75,12.91.58,6.07-2.48,10.52-7.21,13.91a30.52,30.52,0,0,1-15,5.27c-.84.09-2.24-.73-2.42.8-.15,1.25-.53,2.69,1,3.67a20.25,20.25,0,0,1,6,6.17,13.55,13.55,0,0,1,1.64,3.38c1.14,3.88-.92,6.76-5,6.62a9.11,9.11,0,0,0-5.46,1.76c-.55.36-1,.68-.94,1.47.12,1.4.16,3-1.82,2.92A3.88,3.88,0,0,1,68,55.83a69.13,69.13,0,0,0-4.92-12c-1.22,3.55-1,6.88-1.63,10,0,.08,0,.18,0,.27-1.19,5.13-.21,4.69-5,4.74-.55,0-1.31-.35-1.63.51H52.13a4.45,4.45,0,0,0-4.36,0Zm24.54-7.63A1.53,1.53,0,0,0,69,53.41c.13.43.22.87.38,1.28.34.9.47,2.17,1.84,1.87s1.06-1.76,1-2.71c-.15-2.12-1.46,0-2.16-.47-.24-.15-.7,0-1,0,0-.62.13-1.26-.55-1.64a1.61,1.61,0,0,1,1.65-1.73c.9-.5,1.3,2,2,.56C73,48.74,74,50,75,50.06l1.52.66a3.22,3.22,0,0,0,2.4,1c2.41.37,4.81-1.46,4.83-3.51,0-3.59-5.08-9.85-8.73-10.7-1.78-2.87-4.56-4-7.76-4.38A20.61,20.61,0,0,0,75,38.24a24.78,24.78,0,0,0,3.66,3.58c1.32,1.16,2.47,2.64,1.83,4.49s-2.5.81-3.81,1.06L75,46.44l-3.75-2.89c-.77-.91-1.37-2-2.71-2.21a18.12,18.12,0,0,0-3.85-5.4c-1.06-1.53-2.11-3-3.23-4.65,1.76-.71,2.5,1.6,4.3.89-1-.64-1.82-1.21-2.68-1.75-.53-.33-1.3-.6-1-1.36s1-.26,1.46-.14c.65.17,1.29.84,1.87-.06s-.34-1.42-.85-1.94c-1.21-1.28-2.92-2.3-2-4.52A7.21,7.21,0,0,1,68.1,24c1.33.92,3.25,2,3,3.84-.34,2.13-2.64.54-4.17,1.48,3,2.09,6.16,1.65,9.27,1.7a28,28,0,0,0,17.12-5.43c4.17-3.17,7.31-7.31,6.13-12.95-1.24-6-5.49-9.3-11.32-10.44-9.39-1.83-16.71,2-22.9,8.74A22.54,22.54,0,0,0,57.6,23.46c-.91.59-.51,1.38-.33,2.15a57.49,57.49,0,0,0,4,10.46c.58,1.32.57,3.06,2.14,3.86.3,4.12,3,7.22,4.56,10.81C68,51.17,67.94,51.62,68.49,51.78Zm-36,1.65.07-1.09,5.06-11.05c-1.52.62-2.19,1.84-3.17.73-.35-.4-.95-.76-.74-1.34a2.53,2.53,0,0,1,2.58-1.58c1.06,0,.3,1.59,1.64,1.55,1.79-4.31,3.64-8.66,5.39-13.06.28-.7.53-2-.13-2.28-1.72-.79-2.71-2.65-4.66-3l0,0c-.28-1.05-1.2-1.49-2-2a40.09,40.09,0,0,0-10-4.38L25,15.75a5.51,5.51,0,0,0-.88-.5c-5.8-1.87-12-1.67-17.81-3.3l0,.05c-1.73-2.64-1.47-3.94,1-5.83,3.94-3,8.35-2.86,12.86-2,5.34,1,9.55,4.27,13.82,7.34a66.17,66.17,0,0,1,8.69,10.55c-.94-4.58-3.59-8.12-6.8-11.32C29.46,4.2,22,.1,12.5,2.21c-5.06,1.12-9,4-10.58,9.28s.64,9.28,4.34,12.75c4.9,4.61,11,6.23,17.48,6.71,1.89-.05,3.77.29,5.67-.07A65.51,65.51,0,0,0,37.23,29c.49-.16,1.33-.67,1.64.19s-.55,1-1.09,1.3-.82.38-1.22.57c-4.53,2.12-9.39,3.7-12.78,7.7-3.06,1.63-4.8,4.34-6.08,7.43-.61,1.48-1,3,.46,4.13s3.1,2.18,5.05.88a4.23,4.23,0,0,1,1-.27c1.61,0,3.22-3,4.89.05.27.48.7-.57,1.16-.77s.86-.62.32-1c-2.5-1.59-1.26-3.46-.48-5.31.94-.3,1.68-1.34,2.86-.8,1.39,1.4,1.73,3.16.41,4.53s-1.19,2.86-1.15,4.44l-.51,1.33L28.81,53a6.12,6.12,0,0,0-.13,1.33c.12.92-.33,2.24,1,2.49s1.39-1,1.76-1.82A11,11,0,0,1,32.44,53.43ZM51.33,2.72a14.12,14.12,0,0,0-4.3.4c-.86.29-1.43.47-1.45,1.55-.07,3.31-1.81,5.38-5,6.31-1.41.41-1.56,1-.62,2.25a21.79,21.79,0,0,1,4.61,9.13c.59,3.07,1.15,6.08-1.14,9.22s-3.33,7-4.86,10.52a3.44,3.44,0,0,0,.12,1.6,81.63,81.63,0,0,1,1.38,11.55c0,1.58.63,1.9,2.09,2a113.8,113.8,0,0,0,15.45,0c1.69-.11,2.08-.67,2.15-2.26a32.49,32.49,0,0,1,.93-7.78c1.76-6-.11-11.46-3.45-15.77-3-3.85-1.76-7.39-.91-10.69a17.59,17.59,0,0,1,3.8-6.41c1.42-1.61,1.67-2.7-.87-3.5-2.24-.7-4.37-2.31-4.31-4.73C55.08,2.68,53.38,2.38,51.33,2.72ZM40,21.1C37.05,14.59,28,7.36,20.37,5.45c-3.75-1-7.51-1.15-11,.87-1.31.76-3.33,1.47-2.95,3.42.31,1.64,2.19,1.53,3.57,1.81a15.44,15.44,0,0,0,2.11.42A61.93,61.93,0,0,1,32.87,17,71.88,71.88,0,0,1,40,21.1Zm25.85,14c1.25,1.5,2.59,2.93,3.72,4.51a20.15,20.15,0,0,0,7.32,6.18c.75.39,1.63.87,2.21.22s.18-1.71-.46-2.4C75.12,39.82,70.66,37.3,65.89,35.15ZM63.34,23.44c2.25,3.22,4,4.22,6.54,3.94C68.15,25.4,66.43,23.76,63.34,23.44ZM31.41,47.93A2.22,2.22,0,0,0,33,45.62c0-.7-.25-1.47-1-1.34a2,2,0,0,0-1.73,2.36C30.36,47.26,30.21,48,31.41,47.93Zm-5.61-13,4.49-2.67C25.32,32.12,25.32,32.12,25.8,34.9Zm45-2.52,1.8,1a2.57,2.57,0,0,0,1.69.61C74.11,32.06,74.11,32.06,70.8,32.38ZM27.22,51.29,24.9,52.7a4.34,4.34,0,0,0,2.45,1.06A2.66,2.66,0,0,0,27.22,51.29Z" style="fill:#4f3534"/><path d="M47.77,59.41a4.45,4.45,0,0,1,4.36,0Z" style="fill:#8c5143"/><path d="M51.33,2.72c2.05-.34,3.75,0,3.66,3.41-.06,2.42,2.07,4,4.31,4.73,2.54.8,2.29,1.89.87,3.5a17.59,17.59,0,0,0-3.8,6.41c-.85,3.3-2.07,6.84.91,10.69,3.34,4.31,5.21,9.8,3.45,15.77A32.49,32.49,0,0,0,59.8,55c-.07,1.59-.46,2.15-2.15,2.26a113.8,113.8,0,0,1-15.45,0c-1.46-.11-2.07-.43-2.09-2A81.63,81.63,0,0,0,38.73,43.7a3.44,3.44,0,0,1-.12-1.6c1.53-3.56,2.63-7.45,4.86-10.52s1.73-6.15,1.14-9.22A21.79,21.79,0,0,0,40,13.23c-.94-1.21-.79-1.84.62-2.25,3.15-.93,4.89-3,5-6.31,0-1.08.59-1.26,1.45-1.55A14.12,14.12,0,0,1,51.33,2.72Z" style="fill:#b18369"/><path d="M65.18,10.89C71.37,4.19,78.69.32,88.08,2.15,93.91,3.29,98.16,6.61,99.4,12.59c1.18,5.64-2,9.78-6.13,13A28,28,0,0,1,76.15,31c-.19-.89-.38-1.77-.58-2.66l1.62,0c1,0,2.27.45,3-.66s.21-2.53-.58-3.49c-1.3-1.58-2.82-3-4.25-4.47.58-1.34-.11-2.57-.31-3.85,6.31-2.51,13.2-2.14,19.66-3.92-1,1.47,0,3,0,4.42a10.41,10.41,0,0,0-1.27-.94c-1.55-.84-3.46-2.35-4.85-.68s0,3.61,1.52,4.81,3.15,3.32,5.32,1.67-.25-3.28-.75-4.89c.52-.83,1.09,0,1.63,0a1.93,1.93,0,0,0,2-1.81,2.09,2.09,0,0,0-1.48-2.48A8.54,8.54,0,0,0,94.63,12c1.4-1.77,1.7-3.6-.16-5.17a12.26,12.26,0,0,0-6.76-3.05C81.46,3.12,76.14,5.28,71,8.57c-1.56,1-2.64,2.81-4.72,3C66.15,11,65.67,10.93,65.18,10.89ZM87.39,26.75c2.39.11,3.18-.72,2.87-3-.45-3.35-6.24-8.44-9.56-8.47-2,0-2.9,1-2.73,2.82C78.3,21.57,83.88,26.59,87.39,26.75Z" style="fill:#d7d7b5"/><path d="M23.74,31c-6.5-.48-12.58-2.1-17.48-6.71C2.56,20.77.33,16.78,1.92,11.49S7.44,3.33,12.5,2.21c9.52-2.11,17,2,23.42,8.55-.42.77-1.18.7-1.89.77-4.27-3.07-8.48-6.29-13.82-7.34-4.51-.88-8.92-1-12.86,2C4.88,8.06,4.62,9.36,6.35,12c-.45,0-.9,0-1.34,0a2,2,0,0,0-2.31,2.3,1.91,1.91,0,0,0,2.55,2c.36-.08.79-.54,1.1.1a21.65,21.65,0,0,0-1.41,2.58A2,2,0,0,0,7.27,21.7a8,8,0,0,0,5.41-4.45,2.44,2.44,0,0,0-.16-2.58A2.15,2.15,0,0,0,10,14.28a28,28,0,0,0-3.68,2.09c-.06-1.47,1-3,0-4.42,5.84,1.63,12,1.43,17.81,3.3a5.51,5.51,0,0,1,.88.5c-.48,1.47-1,2.94-.45,4.51-.37,1.29-1.56,1.92-2.35,2.87-1.07,1.26-2.17,2.62-1.51,4.31s2.39.67,3.6,1ZM13.4,26.81c3.23,0,8.07-4.09,9.28-7.78.85-2.57-.71-4.47-3.27-3.69A13.39,13.39,0,0,0,10.88,23C9.86,25.37,11,26.83,13.4,26.81Z" style="fill:#d7d7b5"/><path d="M40,21.1A71.88,71.88,0,0,0,32.87,17,61.93,61.93,0,0,0,12.12,12,15.44,15.44,0,0,1,10,11.55c-1.38-.28-3.26-.17-3.57-1.81-.38-1.95,1.64-2.66,3-3.42,3.47-2,7.23-1.82,11-.87C28,7.36,37.05,14.59,40,21.1Z" style="fill:#d7d7b5"/><path d="M23.74,31l.54-2.47c3.41-1.35,6.42-3.25,8.13-6.64,1-2,.13-3.2-2.12-3.37-1.64-.13-2.85,1-4.35,1.18A8.2,8.2,0,0,1,26.52,16a40.09,40.09,0,0,1,10,4.38c.8.5,1.72.94,2,2-3.56-.2-6.17,1.5-8.25,4.19-.89,1.14-.6,2,.85,2.34,3.28.75,7.72-3.22,7.37-6.56,2,.34,2.94,2.2,4.66,3,.66.3.41,1.58.13,2.28-1.75,4.4-3.6,8.75-5.39,13.06-1.34,0-.58-1.59-1.64-1.55-.54-.58-.22-1.58-1-2a38,38,0,0,0,4.45-6.37C33.74,33.46,29,37,24,40l-.18-1.22c3.39-4,8.25-5.58,12.78-7.7.4-.19.82-.36,1.22-.57s1.36-.52,1.09-1.3-1.15-.35-1.64-.19a65.51,65.51,0,0,1-7.82,1.9C27.51,31.24,25.63,30.9,23.74,31Z" style="fill:#bca68b"/><path d="M63.39,39.93c-1.57-.8-1.56-2.54-2.14-3.86a57.49,57.49,0,0,1-4-10.46c-.18-.77-.58-1.56.33-2.15l0-.05c.09.93-.21,2.39,1.5,1.08,1.06-.81,2.15-1.6,3.22-2.4l.27.32c-.88,2.22.83,3.24,2,4.52.51.52,1.53.9.85,1.94s-1.22.23-1.87.06c-.48-.12-1.19-.47-1.46.14s.45,1,1,1.36c.86.54,1.69,1.11,2.68,1.75-1.8.71-2.54-1.6-4.3-.89,1.12,1.6,2.17,3.12,3.23,4.65-.89,1-.56,2.2-.54,3.35l0,0Z" style="fill:#bca68b"/><path d="M75.57,28.31c.2.89.39,1.77.58,2.66-3.11,0-6.32.39-9.27-1.7,1.53-.94,3.83.65,4.17-1.48.3-1.83-1.62-2.92-3-3.84a7.21,7.21,0,0,0-5.55-1.54l-.27-.32A24,24,0,0,1,74,16.5v2.57a8.42,8.42,0,0,0-1.29-.33c-1.47-.18-3.17-.94-4.19.76-.88,1.48.19,2.8,1,3.91C71.08,25.55,73.41,26.84,75.57,28.31Z" style="fill:#bca68b"/><path d="M76.64,47.37c1.31-.25,3.15.84,3.81-1.06s-.51-3.33-1.83-4.49A24.78,24.78,0,0,1,75,38.24l.09-.75c3.65.85,8.75,7.11,8.73,10.7,0,2.05-2.42,3.88-4.83,3.51a3.22,3.22,0,0,1-2.4-1Z" style="fill:#d7d7b5"/><path d="M65.89,35.15c4.77,2.15,9.23,4.67,12.79,8.51.64.69,1.15,1.63.46,2.4s-1.46.17-2.21-.22a20.15,20.15,0,0,1-7.32-6.18C68.48,38.08,67.14,36.65,65.89,35.15Z" style="fill:#d7d7b5"/><path d="M23.78,38.74,24,40c-.34,1.54-2,1.89-2.75,3.12-1.63,2.66-1.07,4.06,2,4.44,0,1.22,0,2.44,0,3.66-1.95,1.3-3.57.24-5.05-.88s-1.07-2.65-.46-4.13C19,43.08,20.72,40.37,23.78,38.74Z" style="fill:#d7d7b5"/><path d="M23.21,51.18c0-1.22,0-2.44,0-3.66,2.65-.54,4.39-2.57,6.52-4l.41.37c-.78,1.85-2,3.72.48,5.31.54.34.11.78-.32,1s-.89,1.25-1.16.77c-1.67-3-3.28-.07-4.89-.05A4.23,4.23,0,0,0,23.21,51.18Z" style="fill:#bca68b"/><path d="M64.16,39.29c0-1.15-.35-2.35.54-3.35a18.12,18.12,0,0,1,3.85,5.4c0,.54-.07,1.09-.1,1.63-2.91,1.87-1.25,3.94-.27,6-.08.59-.15,1.19-.23,1.78-1.55-3.59-4.26-6.69-4.56-10.81l.79-.66a2.92,2.92,0,0,0,1,3.08.92.92,0,0,0,1.22-.22c.42-.43,1.15-.8.86-1.51C66.72,39.2,65.49,39.06,64.16,39.29Z" style="fill:#d7d7b5"/><path d="M35.25,37.06c.77.46.45,1.46,1,2a2.53,2.53,0,0,0-2.58,1.58c-.21.58.39.94.74,1.34,1,1.11,1.65-.11,3.17-.73L32.51,52.34a3.19,3.19,0,0,0-.26-.26c0-1.57-.19-3,1.15-4.43s1-3.13-.41-4.53l-.12-2.41C33.1,39.12,34.42,38.25,35.25,37.06Z" style="fill:#d7d7b5"/><path d="M65.18,10.89c.49,0,1,.09,1.14.66L57.56,23.41l0,.05A22.54,22.54,0,0,1,65.18,10.89Z" style="fill:#bca68b"/><path d="M34,11.53c.71-.07,1.47,0,1.89-.77,3.21,3.2,5.86,6.74,6.8,11.32A66.17,66.17,0,0,0,34,11.53Z" style="fill:#bca68b"/><path d="M75,50.06c-1-.08-2-1.32-2.89.55-.71,1.48-1.11-1.06-2-.56,0-.31,0-.63,0-.94,3.18-1.3,1.37-3.29.71-5.12l.43-.44L75,46.44C75,47.65,75,48.85,75,50.06Z" style="fill:#bca68b"/><path d="M75.05,37.49l-.09.75a20.61,20.61,0,0,1-7.67-5.13C70.49,33.5,73.27,34.62,75.05,37.49Z" style="fill:#bca68b"/><path d="M63.34,23.44c3.09.32,4.81,2,6.54,3.94C67.31,27.66,65.59,26.66,63.34,23.44Z" style="fill:#d7d7b5"/><path d="M32.44,53.43a11,11,0,0,0-1,1.58c-.37.86-.53,2.06-1.76,1.82s-.89-1.57-1-2.49A6.12,6.12,0,0,1,28.81,53l2.93.41Z" style="fill:#b18369"/><path d="M69,53.42c.35,0,.81-.19,1,0,.7.46,2-1.65,2.16.47.07.95.53,2.37-1,2.71s-1.5-1-1.84-1.87c-.16-.41-.25-.85-.38-1.28Z" style="fill:#b18369"/><path d="M31.41,47.93c-1.2.07-1.05-.67-1.08-1.29a2,2,0,0,1,1.73-2.36c.72-.13,1,.64,1,1.34A2.22,2.22,0,0,1,31.41,47.93Z" style="fill:#d7d7b5"/><path d="M25.8,34.9c-.48-2.78-.48-2.78,4.49-2.67Z" style="fill:#b18369"/><path d="M26.52,16a8.2,8.2,0,0,0-.58,3.67c-.3.59-.85.59-1.4.61-.53-1.57,0-3,.45-4.51Z" style="fill:#b18369"/><path d="M75,50.06c0-1.21,0-2.41,0-3.62l1.63.93-.09,3.35Z" style="fill:#b18369"/><path d="M32.87,40.71,33,43.12c-1.18-.54-1.92.5-2.86.8l-.41-.37A10.07,10.07,0,0,1,32.87,40.71Z" style="fill:#bca68b"/><path d="M70.8,32.38c3.31-.32,3.31-.32,3.49,1.6a2.57,2.57,0,0,1-1.69-.61Z" style="fill:#b18369"/><path d="M27.22,51.29a2.66,2.66,0,0,1,.13,2.47A4.34,4.34,0,0,1,24.9,52.7Z" style="fill:#b18369"/><path d="M68.45,43c0-.54.07-1.09.1-1.63,1.34.2,1.94,1.3,2.71,2.21l-.43.43Z" style="fill:#bca68b"/><path d="M70.12,49.11c0,.31,0,.63,0,.94a1.61,1.61,0,0,0-1.65,1.73h0c-.55-.16-.53-.61-.54-1,.08-.59.15-1.19.23-1.78Z" style="fill:#b18369"/><path d="M68.48,51.78c.68.38.58,1,.55,1.64h0a1.53,1.53,0,0,1-.54-1.63Z" style="fill:#b18369"/><path d="M32.44,53.43h-.7l.51-1.33a2,2,0,0,1,.26.25Z" style="fill:#d7d7b5"/><path d="M57.56,23.41l8.76-11.86c2.08-.17,3.16-2,4.72-3,5.1-3.29,10.42-5.45,16.67-4.79a12.26,12.26,0,0,1,6.76,3.05c1.86,1.57,1.56,3.4.16,5.17l.06-.05C88.23,13.73,81.34,13.36,75,15.87c-.48,0-.93,0-1.07.63a24,24,0,0,0-11.68,5.59c-1.07.8-2.16,1.59-3.22,2.4C57.35,25.8,57.65,24.34,57.56,23.41Zm2.88-2.21A4.9,4.9,0,0,0,61.51,21c7-5.14,15-7.4,23.5-8.51,2.5-.33,5-.66,7.48-1.17.78-.17,1.84-.41,2.11-1.48S94,8.21,93.37,7.6c-3.51-3.25-7.74-3.27-12-2.3C72.29,7.41,65.92,13.29,60.44,21.2Z" style="fill:#4f3534"/><path d="M87.39,26.75c-3.51-.16-9.09-5.18-9.42-8.66-.17-1.79.77-2.84,2.73-2.82,3.32,0,9.11,5.12,9.56,8.47C90.57,26,89.78,26.86,87.39,26.75Zm1.78-2.33c0-2.41-4.25-6.6-7.54-7.61-.68-.21-1.34-.7-1.94.08A2,2,0,0,0,79.56,19,12.41,12.41,0,0,0,87,25.52C88,25.87,89,25.61,89.17,24.42Z" style="fill:#4f3534"/><path d="M75.57,28.31c-2.16-1.47-4.49-2.76-6.08-4.9-.82-1.11-1.89-2.43-1-3.91,1-1.7,2.72-.94,4.19-.76a8.42,8.42,0,0,1,1.29.33c.28.59.89.5,1.38.65,1.43,1.48,3,2.89,4.25,4.47.79,1,1.38,2.24.58,3.49s-1.93.67-3,.66Zm2-1c1-.11,2.4.21,1.48-1.55-1.7-3.26-4.6-5-8-6-1.39-.42-1.9.53-1.21,1.69A13.2,13.2,0,0,0,77.52,27.26Z" style="fill:#4f3534"/><path d="M94.64,16.34c.5,1.61,3,3.14.75,4.89s-3.8-.47-5.32-1.67-3-3.08-1.52-4.81,3.3-.16,4.85.68a10.41,10.41,0,0,1,1.27.94Zm-4.35-1c-.9-.13-1.11.23-1,.91.15,1.32,3,3.83,4.39,4,.81.07,1.33-.18,1-1A7.29,7.29,0,0,0,90.29,15.33Z" style="fill:#4f3534"/><path d="M94.63,12a8.54,8.54,0,0,1,2.15.05,2.09,2.09,0,0,1,1.48,2.48,1.93,1.93,0,0,1-2,1.81c-.54,0-1.11-.83-1.63,0l0,0c0-1.47-1-3,0-4.42Z" style="fill:#4f3534"/><path d="M75.34,19.72c-.49-.15-1.1-.06-1.38-.65V16.5c.14-.59.59-.63,1.07-.63C75.23,17.15,75.92,18.38,75.34,19.72Z" style="fill:#b18369"/><path d="M13.4,26.81c-2.41,0-3.54-1.44-2.52-3.77a13.39,13.39,0,0,1,8.53-7.7c2.56-.78,4.12,1.12,3.27,3.69C21.47,22.72,16.63,26.78,13.4,26.81Zm8.19-9c0-.94-.35-1.68-1.79-1.22A12.19,12.19,0,0,0,12,23.53c-.54,1.2-.1,1.93,1.2,2.06C15.83,25.85,21.52,20.73,21.59,17.85Z" style="fill:#4f3534"/><path d="M24.54,20.26c.55,0,1.1,0,1.4-.61,1.5-.21,2.71-1.31,4.35-1.18,2.25.17,3.13,1.33,2.12,3.37-1.71,3.39-4.72,5.29-8.13,6.64-1.21-.37-3,.6-3.6-1s.44-3.05,1.51-4.31C23,22.18,24.17,21.55,24.54,20.26Zm-1.53,7c2.36,0,7.7-4,8.29-6.1.45-1.6-.61-1.8-1.63-1.45-3.13,1.07-5.86,2.73-7.55,5.75C21.46,26.62,21.52,27.34,23,27.24Z" style="fill:#4f3534"/><path d="M6.32,16.37A28,28,0,0,1,10,14.28a2.15,2.15,0,0,1,2.52.39,2.44,2.44,0,0,1,.16,2.58A8,8,0,0,1,7.27,21.7a2,2,0,0,1-2.33-2.78,21.65,21.65,0,0,1,1.41-2.58Zm5.4-.1c.1-.64-.1-1.18-.83-.95a6.94,6.94,0,0,0-4.54,3.83c-.34.77.08,1.11,1,1.05C8.69,20.09,11.53,17.63,11.72,16.27Z" style="fill:#4f3534"/><path d="M6.3,12c1,1.47,0,3,0,4.42l0,0c-.31-.64-.74-.18-1.1-.1a1.91,1.91,0,0,1-2.55-2A2,2,0,0,1,5,12c.44,0,.89,0,1.34,0Z" style="fill:#4f3534"/><path d="M32.87,40.71a10.07,10.07,0,0,0-3.15,2.84c-2.13,1.4-3.87,3.43-6.52,4-3.06-.38-3.62-1.78-2-4.44C22,41.85,23.62,41.5,24,40,29,37,33.74,33.46,39.7,30.69a38,38,0,0,1-4.45,6.37C34.42,38.25,33.1,39.12,32.87,40.71Zm2-5.72c-3.89,2.08-7.8,4-11,7.09-1.13,1.09-3.25,2.35-2.07,3.83s2.91-.39,4.19-1.19C29.89,42.34,32.22,38.49,34.91,35Z" style="fill:#4f3534"/><path d="M38.48,22.32c.35,3.34-4.09,7.31-7.37,6.56-1.45-.33-1.74-1.2-.85-2.34,2.08-2.69,4.69-4.39,8.25-4.19ZM31,27.86a8.57,8.57,0,0,0,6.71-4.43C34.54,23.82,32.65,25.31,31,27.86Z" style="fill:#4f3534"/><path d="M70.12,49.11,68.18,49c-1-2.05-2.64-4.12.27-6l2.38,1C71.49,45.82,73.3,47.81,70.12,49.11Zm-.54-1.18c1.22.09,1-.66,1.08-1.27a2.07,2.07,0,0,0-1.73-2.38c-.7-.12-1,.64-1,1.34A2.25,2.25,0,0,0,69.58,47.93Z" style="fill:#4f3534"/><path d="M64.16,39.29c1.33-.23,2.56-.09,3.15,1.33.29.71-.44,1.08-.86,1.51a.92.92,0,0,1-1.22.22,2.92,2.92,0,0,1-1-3.08Z" style="fill:#4f3534"/><path d="M60.44,21.2c5.48-7.91,11.85-13.79,21-15.9,4.23-1,8.46-1,12,2.3.66.61,1.52,1.1,1.23,2.21s-1.33,1.31-2.11,1.48c-2.47.51-5,.84-7.48,1.17-8.46,1.11-16.5,3.37-23.5,8.51A4.9,4.9,0,0,1,60.44,21.2Z" style="fill:#d7d7b5"/><path d="M89.17,24.42C89,25.61,88,25.87,87,25.52A12.41,12.41,0,0,1,79.56,19a2,2,0,0,1,.13-2.06c.6-.78,1.26-.29,1.94-.08C84.92,17.82,89.21,22,89.17,24.42Z" style="fill:#d7d7b5"/><path d="M77.52,27.26a13.2,13.2,0,0,1-7.68-5.89c-.69-1.16-.18-2.11,1.21-1.69,3.35,1,6.25,2.77,8,6C79.92,27.47,78.53,27.15,77.52,27.26Z" style="fill:#d7d7b5"/><path d="M90.29,15.33a7.29,7.29,0,0,1,4.35,3.85c.34.83-.18,1.08-1,1-1.4-.12-4.24-2.63-4.39-4C89.18,15.56,89.39,15.2,90.29,15.33Z" style="fill:#d7d7b5"/><path d="M21.59,17.85c-.07,2.88-5.76,8-8.36,7.74-1.3-.13-1.74-.86-1.2-2.06a12.19,12.19,0,0,1,7.77-6.9C21.24,16.17,21.57,16.91,21.59,17.85Z" style="fill:#d7d7b5"/><path d="M23,27.24c-1.49.1-1.55-.62-.89-1.8,1.69-3,4.42-4.68,7.55-5.75,1-.35,2.08-.15,1.63,1.45C30.71,23.24,25.37,27.21,23,27.24Z" style="fill:#d7d7b5"/><path d="M11.72,16.27c-.19,1.36-3,3.82-4.42,3.93-.87.06-1.29-.28-1-1.05a6.94,6.94,0,0,1,4.54-3.83C11.62,15.09,11.82,15.63,11.72,16.27Z" style="fill:#d7d7b5"/><path d="M34.91,35c-2.69,3.5-5,7.35-8.86,9.73-1.28.8-3,2.63-4.19,1.19s.94-2.74,2.07-3.83C27.11,39,31,37.07,34.91,35Z" style="fill:#d7d7b5"/><path d="M31,27.86c1.7-2.55,3.59-4,6.71-4.43A8.57,8.57,0,0,1,31,27.86Z" style="fill:#d7d7b5"/><path d="M69.58,47.93A2.25,2.25,0,0,1,68,45.62c0-.7.28-1.46,1-1.34a2.07,2.07,0,0,1,1.73,2.38C70.62,47.27,70.8,48,69.58,47.93Z" style="fill:#d7d7b5"/></g></g></svg>