<svg xmlns="http://www.w3.org/2000/svg" viewBox="0 0 66.89 50.75">
    <g>
        <path d="M66,0a2.1,2.1,0,0,1,.49,3,49.75,49.75,0,0,0-2,4.76c-.31.74-.63,1.81-1.63,1.44-1.3-.47-.49-1.47-.22-2.28a2.32,2.32,0,0,0,0-1.68Q60.1,7,57.54,8.83c-.75.53-.36.95,0,1.54,4.31,7.11,3.54,14.13-2.18,20.25a71.61,71.61,0,0,1-8,7c-4.48,3.56-9,7-13.47,10.63-1.71,1.39-3,1.46-4.77,0C26,45.54,22.78,43,19.53,40.54s-4.72-1.8-5.38,2.26c-.21,1.3.15,3.05-2,3.47l-.23-4c-2,1.76.29,5.28-3.16,6.3l.56-5C6.79,45.52,9.23,49.43,6,50.75a3.14,3.14,0,0,1-.16-2.25c.37-4.6.39-4.6-4.2-5.86-.59-.16-1.3-.11-1.67-1.1,2.56-1.71,5,1,7.58.29-.82-1.39-2.64-.91-3.67-2.21C6.33,37.94,8.48,40.77,11,40c-1.24-1.24-2.83-1.29-4.08-2,1.12-1.1,2.35-.83,3.62-.37a17.82,17.82,0,0,0,2.35.65,1.55,1.55,0,0,0,1.67-.7c.44-.79-.45-1-.87-1.42-2-1.83-4.16-3.52-6.09-5.44a18.66,18.66,0,0,1-5.23-11.7C1.62,11.08,10.62,3.46,18.55,5.11c6,1.25,8.8,3.34,12.65,9.66,2.33-3.28,4.6-6.62,8.35-8.23,4.53-1.94,9.2-2.42,13.63.2,1.63,1,2.71.91,4.07-.26S60.09,4.33,61.6,3.2A3.84,3.84,0,0,0,61,2.81c-1-.3-2.91.69-3-.67S60,1.48,61,1s2.57.29,3.39-1ZM58.34,17.88c-.05-5.3-5.41-10.82-11-11.34s-11,2.6-14.12,8.27c-.66,1.21-.5,3.44-2.14,3.42S29.68,16,29,14.75c-2.72-5.16-9-8.92-13.71-8C5.06,8.87.85,18.58,8.22,28c6.07,7.74,15,12.39,22.37,18.81,1,.86,1.6.31,2.32-.33,5.59-5,11.87-9.19,17.65-14C55.15,28.67,58.22,24.06,58.34,17.88Z"
              style="fill:#563b3a"/>
        <path d="M58.34,17.88c-.12,6.18-3.19,10.79-7.78,14.59-5.78,4.8-12.06,9-17.65,14-.72.64-1.33,1.19-2.32.33C23.24,40.37,14.29,35.72,8.22,28,.85,18.58,5.06,8.87,15.33,6.78c4.67-1,11,2.81,13.71,8,.64,1.21.41,3.45,2,3.48s1.48-2.21,2.14-3.42C36.29,9.14,41.58,6,47.33,6.54S58.29,12.58,58.34,17.88Z"
              style="fill:#a06d51"/>
    </g>
</svg>