<svg xmlns="http://www.w3.org/2000/svg" viewBox="0 0 52.4 98.28"><g id="Ebene_2" data-name="Ebene 2"><g id="Ebene_1-2" data-name="Ebene 1"><path d="M0,49.56A16.18,16.18,0,0,0,1.63,38c-1.78-8.29.58-15.51,6.62-21.44a3.67,3.67,0,0,0,1-3.11C9.17,8.21,11.73,4.18,15.36.69c1.3-1.24,2.4-.72,2.28.86-.23,3.06,2.17,5.09,2.64,7.82.1.61.53.87,1.2.74,3.6-.72,7.23-.26,10.85-.32,2.76,0,6.75-4.83,6.21-7.53-.12-.6-.7-1.19,0-1.69s1.2.07,1.74.37c4.57,2.58,6.17,6.92,6.51,11.74a14.22,14.22,0,0,0,1.69,6.07C52.39,25.92,53,33.64,52,41.59a45.77,45.77,0,0,1-6,18,23.14,23.14,0,0,1-8.16,8.17,5.27,5.27,0,0,0-2.9,5.55c.13,1.36-.06,2.74.07,4.09.26,2.62,1.49,3.17,3.82,1.89,1.54-.84,2.93-2.09,4.94-1.69,3.5.69,5,2.48,5.34,6.66.09,1.08,0,2.18,0,3.27,0,6.48-1.17,8.47-7.54,9.79-8.1,1.68-16.16,1.31-23.78-2.46-2.06-1-4.87-2-5.07-4.33-.37-4.24-.58-8.77,2.58-12.33,1.84-2.08,4.38-2,7.68.14-.23-1.15,1.18-3.1-1.77-2.31-.92.25-2.23-.53-3.25-1.06C10.07,70.87,4,65.1.74,56.66.46,55.93.92,55,0,54.47ZM14.18,9.24c.05-.43-.14-1.19.31-1.19.87,0,.94,1,1.17,1.6.32.88.12,2.14,1.78,1.49s.77-1.65.45-2.45C17.2,7,16.33,5.3,15.46,3.47c-2.57,2.11-3.66,4.88-4.29,7.93-.16.78-.64,1.73,0,2.25s1.28-.42,1.95-.64C15.92,12.41,14.91,10.78,14.18,9.24ZM37.56,20.05c.49,1-1.6,1.85-.47,2.56s2.38-.32,3.32-1.18a31,31,0,0,0,2.49-2.51c3.48-4.06,2.17-12.38-2.56-15.36-.67,3.32-2.78,5.64-5.11,7.84a8.59,8.59,0,0,0-2.37,4.21c-.82,3.38-.15,5.22,2.23,6.33.29-.34,0-.66,0-1-.65-3.79,1.28-8.31,4.25-10-.85,2.35-2.73,4.24-3.15,6.76C36,18.66,35,20.5,37.56,20.05Zm-5.51-8.27a29,29,0,0,0-17,2.37A20.93,20.93,0,0,0,3.25,36.48C4,40.87,4.38,45,2.51,49.39c-1.19,2.79-.35,6,1.08,8.91,3.06,6.14,8,10.41,13.6,14.09,3.09,2,6.09,1.75,9.14.11,2.31-1.25,4.59-2.56,6.87-3.87C39.6,65,44.49,60.07,47.14,53a52,52,0,0,0,3.43-17.43A32,32,0,0,0,47,19.84c-.76-1.43-1.3-1.82-2.38-.23a15.34,15.34,0,0,1-3,3.17c-2.51,2-5.28,1.48-7.94.35-2.34-1-3.17-3-3.27-5.46A9.75,9.75,0,0,1,32.05,11.78Zm1.26,59.27c-2.8,1.34-5.24,2.53-7.68,3.67a1.31,1.31,0,0,0-.86,1.68,7.26,7.26,0,0,1-1.41,5.35,1.14,1.14,0,0,1-.9.4c-.51-.05-.3-.47-.24-.81.34-1.93-1.44-2.13-2.47-2.73a2.56,2.56,0,0,0-3,.71c-1.6,1.44-2.67,5.49-2,7.58.3,1,.83.59,1.44.46,1.66-.35,2.46-1.87,3.91-3,.3,3-1.71,3.59-3.45,4.46-.82.41-2.38,1-1.5,1.92a13.87,13.87,0,0,0,7.2,3.55c1,.18,1.12-.76,1.47-1.33,1-1.56,1.86-3.16,3.15-5.37.32,2.84-1.12,4.23-1.8,5.89-.27.65-1.19,1.48.34,1.81a47.15,47.15,0,0,0,13.26.46c1.4-.1,1.54-.83.64-2s-2-2.19-1.77-3.82c.05-.43.42-1.19.52-1,1.33,2.33,1.53-1.15,2.64-.33-.19.68-.41,1.42-.59,2.17-.33,1.39,1.48,4,2.71,3.86a5,5,0,0,0,4.51-5.09c0-1.17-.26-2.34-.4-3.5-.9-7.46-1.47-7.77-8.26-4.59-2.61,1.23-4.76.15-5.55-2.65C32.49,76.31,32.84,73.82,33.31,71.05Z" style="fill:#4d3030"/><path d="M32.05,11.78a9.75,9.75,0,0,0-1.57,5.89c.1,2.5.93,4.47,3.27,5.46,2.66,1.13,5.43,1.69,7.94-.35a15.34,15.34,0,0,0,3-3.17c1.08-1.59,1.62-1.2,2.38.23a32,32,0,0,1,3.54,15.69A52,52,0,0,1,47.14,53C44.49,60.07,39.6,65,33.2,68.63c-2.28,1.31-4.56,2.62-6.87,3.87-3,1.64-6,1.92-9.14-.11-5.61-3.68-10.54-8-13.6-14.09-1.43-2.88-2.27-6.12-1.08-8.91C4.38,45,4,40.87,3.25,36.48A20.93,20.93,0,0,1,15,14.15,29,29,0,0,1,32.05,11.78Z" style="fill:#b18369"/><path d="M33.31,71.05c-.47,2.77-.82,5.26-.11,7.78.79,2.8,2.94,3.88,5.55,2.65,6.79-3.18,7.36-2.87,8.26,4.59.14,1.16.37,2.33.4,3.5a5,5,0,0,1-4.51,5.09c-1.23.1-3-2.47-2.71-3.86.18-.75.4-1.49.59-2.17-1.11-.82-1.31,2.66-2.64.33-.1-.19-.47.57-.52,1-.18,1.63.88,2.72,1.77,3.82s.76,1.85-.64,2a47.15,47.15,0,0,1-13.26-.46c-1.53-.33-.61-1.16-.34-1.81.68-1.66,2.12-3,1.8-5.89-1.29,2.21-2.19,3.81-3.15,5.37-.35.57-.5,1.51-1.47,1.33a13.87,13.87,0,0,1-7.2-3.55c-.88-.87.68-1.51,1.5-1.92,1.74-.87,3.75-1.49,3.45-4.46-1.45,1.15-2.25,2.67-3.91,3-.61.13-1.14.57-1.44-.46-.63-2.09.44-6.14,2-7.58a2.56,2.56,0,0,1,3-.71c1,.6,2.81.8,2.47,2.73-.06.34-.27.76.24.81a1.14,1.14,0,0,0,.9-.4,7.26,7.26,0,0,0,1.41-5.35,1.31,1.31,0,0,1,.86-1.68C28.07,73.58,30.51,72.39,33.31,71.05Z" style="fill:#b18269"/><path d="M39.33,10.92c-3,1.71-4.9,6.23-4.25,10,.06.34.3.66,0,1-2.38-1.11-3.05-3-2.23-6.33a8.59,8.59,0,0,1,2.37-4.21c2.33-2.2,4.44-4.52,5.11-7.84,4.73,3,6,11.3,2.56,15.36a31,31,0,0,1-2.49,2.51c-.94.86-2.11,2-3.32,1.18s1-1.55.47-2.56v.05c2-.71,3.68-1.7,2.84-4.31.26-2.16.8-4.29.48-6.49-.18-.43-.35-.42-.52,0l0-.05-.57.59h.11c-.6.14-.69.58-.65,1.09Z" style="fill:#773727"/><path d="M13.16,13c-.67.22-1.37,1.08-1.95.64s-.2-1.47,0-2.25c.63-3.05,1.72-5.82,4.29-7.93C16.33,5.3,17.2,7,17.89,8.69c.32.8,1.08,1.84-.45,2.45S16,10.53,15.66,9.65c-.23-.63-.3-1.59-1.17-1.6-.45,0-.26.76-.31,1.19Z" style="fill:#773727"/><path d="M40.88,9.3c.32,2.2-.22,4.33-.48,6.49-.95,1.44-1.9,2.87-2.84,4.31v-.05C35,20.5,36,18.66,36.18,17.68c.42-2.52,2.3-4.41,3.15-6.76h0c.46-.22,1-.39.65-1.09h-.11c.55.15.45-.33.57-.59l0,.05.26,0Z" style="fill:#dcac7c"/><path d="M13.16,13l1-3.77C14.91,10.78,15.92,12.41,13.16,13Z" style="fill:#dcac7c"/><path d="M37.56,20.1c.94-1.44,1.89-2.87,2.84-4.31C41.24,18.4,39.61,19.39,37.56,20.1Z" style="fill:#4d3030"/><path d="M39.94,9.84c.36.7-.19.87-.65,1.09C39.25,10.42,39.34,10,39.94,9.84Z" style="fill:#4d3030"/><path d="M40.4,9.25c-.12.26,0,.74-.57.59Z" style="fill:#4d3030"/><path d="M40.88,9.3l-.26,0-.26,0C40.53,8.88,40.7,8.87,40.88,9.3Z" style="fill:#4d3030"/></g></g></svg>