<svg xmlns="http://www.w3.org/2000/svg" viewBox="0 0 63.24 103.66"><g id="Ebene_2" data-name="Ebene 2"><g id="Ebene_1-2" data-name="Ebene 1"><path d="M25.58,83.83c.1-1.57.79-2.92-1.82-2.4-1.34.26-3.09-.84-4.47-1.65C12.84,76,7.52,71.08,4.3,64.21,2.6,60.59,2.09,56.82,3.66,53a12.85,12.85,0,0,0,.71-8.65A19.53,19.53,0,0,1,5,31.86a2.06,2.06,0,0,0-.54-2.55c-4.46-5-5.8-10.6-3.1-16.95,1.12-2.63,2-5.35,3.07-8,.22-.56.46-1.16,1.3-1.16,1.16,0,.65.86.77,1.35C8,10.32,12.63,13.44,16.77,17c.68.58,1.26.28,2,0,7.44-2.71,15.09-2.12,22.73-1.24a3.24,3.24,0,0,0,2.67-.61,41.28,41.28,0,0,0,8.51-9.8,7,7,0,0,0,.8-3.9c0-.49-.37-1.16.33-1.41s1,.29,1.22.8c2.31,6.26,6.07,12,7.19,18.69.47,2.84,1.21,5.64,1,8.55-.27,3.68-1,7.14-4.72,9.05-2.76,1.41-3.41,3.62-3.6,6.78-.57,9.7-3.2,18.81-10.24,26a19.7,19.7,0,0,1-4.29,3.3,5,5,0,0,0-2.8,5.33c.14,1.44-.07,2.92.09,4.35.27,2.49,1.5,3.06,3.67,1.86,1.55-.86,3-2.13,4.93-1.82,3.64.57,5.3,2.69,5.5,7.1.08,1.9-.09,3.82.11,5.71.27,2.55-1,3.9-3,5.06-5.87,3.29-12.19,3.07-18.48,2.4a25.44,25.44,0,0,1-13.86-5.48A3,3,0,0,1,15.2,95c.12-2.79.07-5.58,1-8.28C17.85,82,21.28,80.78,25.58,83.83ZM52.85,8.67c.47-.24,1-.48.91-1.14,0-.06-.16-.17-.2-.15a1.22,1.22,0,0,0-.71,1.29,1,1,0,0,0-.55,1.09,1.68,1.68,0,0,0-1.4.69,30.31,30.31,0,0,1-8.1,7.87c-2.53,1.61-2.07,3.21-.8,5.12.72,1.08,1.5,1.76,2.21-.1A25.85,25.85,0,0,1,48.66,16c1.54-1.87,3.09-3.76,3.65-6.22A1.14,1.14,0,0,0,52.85,8.67ZM48.43,21.15c-1.76,1.41-2.75,3.41-2,5.42A3,3,0,0,0,50.62,28c-.52-1-2-.77-2.3-1.57-.13-1.19,1.52-1.12,1.07-1.24-3.32-.85-.47-2.51-.62-3.73.19-.22.3-.46,0-.67A3.55,3.55,0,0,0,48.43,21.15Zm.6-2.67h1.36c1.53,0,3.15-.42,1.4,2.16-.88,1.3-1.43,3.76,1.6,4.45a3,3,0,0,1,2.08,2.62c-1.49-.19-3.65-2-3.65,1.2,0,.13-.44.39-.67.38-2.52-.19-2.17,1.59-2.09,3.09a21.63,21.63,0,0,1,.45,2.91c-.21,3,1.62,3.11,3.68,2.74,4.73-.86,8.91-6.66,8.36-11.43-.81-7-2.24-13.85-5.88-20.39-.72,5-4.19,8.37-6.64,12.27a1,1,0,0,0-.18.09s0,.09,0,.14ZM40.88,17c-8.17-.21-16-1.08-23.41,2.62C10.73,23,4.13,31.26,5.94,41.9c.75,4.4,1,8.56-.75,12.93-1.15,2.82-.34,6,1.09,8.92,3.07,6.14,8,10.39,13.61,14.08,3.12,2.06,6.12,1.68,9.16.07,2.32-1.23,4.59-2.55,6.87-3.86,6.49-3.71,11.42-8.73,14-16A70.14,70.14,0,0,0,53.34,42a1.65,1.65,0,0,0-1.89-2c-2.81.09-3.57-1.7-3.87-3.92A34.38,34.38,0,0,1,47.39,32c0-2.81-1.39-4.55-4.21-5.33C39.31,25.56,37.8,20.36,40.88,17Zm2.6,77c-.21.73-.47,1.48-.64,2.24-.36,1.56,1.69,4,3.08,3.66,2.93-.66,4.3-2.37,4.18-5.34-.05-1.08-.28-2.15-.41-3.22-.84-7.27-1.65-7.73-8.09-4.59-2.77,1.34-4.91.29-5.73-2.65-.71-2.52-.3-5,.08-7.65-2.7,1.28-5.21,2.48-7.72,3.65-.81.38-.79.9-.77,1.74.08,2.2-.12,4.43-2.63,6.08-.07-1.15.46-2-.36-2.77-1.85-1.72-3.78-1.81-5.44,0-1.3,1.4-2.38,7.41-1.37,7.59,2.09.37,3.44-1.12,4.54-2.74,0,0,.18,0,.48,0,.57,1.69-.49,2.58-1.74,3.32-.86.51-1.82.84-2.65,1.38-.58.37-1.3.94-.28,1.66a21,21,0,0,0,6.54,3.21c1.23.35,1.54-.6,2-1.36.94-1.55,1.6-3.29,3.22-4.94.08,2.48-1.25,3.93-2,5.6-.25.57-1.1,1.43.2,1.68a40.22,40.22,0,0,0,14.84.19c-.59-2.08-2.69-3.13-2.53-5.26,0-.47.33-1.5.58-1.13C42.42,96.78,42.25,93.29,43.48,94.07ZM5.21,23.4a3.11,3.11,0,0,0,.32-4.19c-.61-.81-2.29-1.32-1.44-2.48s2.11.17,3.19.44c.2,0,.45-.13.73-.23L4.92,8.8C.86,15.88.6,20.54,4,25.94c.49.77.77,2.24,1.89,2,1.28-.23,1-1.75,1.28-2.74C7.89,23.16,5.66,24.46,5.21,23.4Zm2.3-12.59a17.76,17.76,0,0,0,2.4,5.86c.8,1.34.26,3.84,1.91,4,1.29.11,2.74-1.52,4.3-2.49C12.78,16.41,10.74,13.32,7.51,10.81Zm.73,8.74c0,1.38-1.28,2.53-.12,3.72.33.35,1.11,0,1.37-.48C10.15,21.43,9.66,20.43,8.24,19.55ZM54.13,5.8,54.06,6l.29,0c0-.07,0-.15-.05-.2S54.19,5.8,54.13,5.8Z" style="fill:#4d3030"/><path d="M40.88,17c-3.08,3.32-1.57,8.52,2.3,9.6,2.82.78,4.18,2.52,4.21,5.33A34.38,34.38,0,0,0,47.58,36c.3,2.22,1.06,4,3.87,3.92a1.65,1.65,0,0,1,1.89,2A70.14,70.14,0,0,1,50,58.09c-2.62,7.22-7.55,12.24-14,16-2.28,1.31-4.55,2.63-6.87,3.86-3,1.61-6,2-9.16-.07-5.6-3.69-10.54-7.94-13.61-14.08C4.85,60.86,4,57.65,5.19,54.83,7,50.46,6.69,46.3,5.94,41.9,4.13,31.26,10.73,23,17.47,19.66,24.93,16,32.71,16.83,40.88,17Z" style="fill:#b18369"/><path d="M43.48,94.07c-1.23-.78-1.06,2.71-2.59.37-.25-.37-.54.66-.58,1.13-.16,2.13,1.94,3.18,2.53,5.26A40.22,40.22,0,0,1,28,100.64c-1.3-.25-.45-1.11-.2-1.68.72-1.67,2.05-3.12,2-5.6-1.62,1.65-2.28,3.39-3.22,4.94-.46.76-.77,1.71-2,1.36A21,21,0,0,1,18,96.45c-1-.72-.3-1.29.28-1.66.83-.54,1.79-.87,2.65-1.38,1.25-.74,2.31-1.63,1.74-3.32-.3,0-.45-.06-.48,0-1.1,1.62-2.45,3.11-4.54,2.74-1-.18.07-6.19,1.37-7.59,1.66-1.8,3.59-1.71,5.44,0,.82.76.29,1.62.36,2.77,2.51-1.65,2.71-3.88,2.63-6.08,0-.84,0-1.36.77-1.74,2.51-1.17,5-2.37,7.72-3.65-.38,2.64-.79,5.13-.08,7.65.82,2.94,3,4,5.73,2.65,6.44-3.14,7.25-2.68,8.09,4.59.13,1.07.36,2.14.41,3.22.12,3-1.25,4.68-4.18,5.34-1.39.31-3.44-2.1-3.08-3.66C43,95.55,43.27,94.8,43.48,94.07Z" style="fill:#b18269"/><path d="M49,18.48c2.45-3.9,5.92-7.23,6.64-12.27,3.64,6.54,5.07,13.37,5.88,20.39.55,4.77-3.63,10.57-8.36,11.43-2.06.37-3.89.22-3.68-2.74a21.63,21.63,0,0,0-.45-2.91c-.08-1.5-.43-3.28,2.09-3.09.23,0,.67-.25.67-.38,0-3.18,2.16-1.39,3.65-1.2a3,3,0,0,0-2.08-2.62c-3-.69-2.48-3.15-1.6-4.45,1.75-2.58.13-2.15-1.4-2.16Z" style="fill:#773727"/><path d="M5.21,23.4c.45,1.06,2.68-.24,2,1.84-.31,1,0,2.51-1.28,2.74-1.12.2-1.4-1.27-1.89-2C.6,20.54.86,15.88,4.92,8.8L8,16.94c-.28.1-.53.28-.73.23C6.2,16.9,5,15.54,4.09,16.73s.83,1.67,1.44,2.48A3.11,3.11,0,0,1,5.21,23.4Z" style="fill:#773727"/><path d="M52.31,9.77c-.56,2.46-2.11,4.35-3.65,6.22a25.85,25.85,0,0,0-4.45,7.35c-.71,1.86-1.49,1.18-2.21.1-1.27-1.91-1.73-3.51.8-5.12a30.31,30.31,0,0,0,8.1-7.87,1.68,1.68,0,0,1,1.4-.69Z" style="fill:#773727"/><path d="M7.51,10.81c3.23,2.51,5.27,5.6,8.61,7.36-1.56,1-3,2.6-4.3,2.49-1.65-.15-1.11-2.65-1.91-4A17.76,17.76,0,0,1,7.51,10.81Z" style="fill:#773727"/><path d="M48.78,21.47c.14,1.21-2.71,2.87.61,3.72.45.12-1.2,0-1.07,1.24.32.8,1.78.56,2.3,1.57a3,3,0,0,1-4.19-1.43c-.75-2,.24-4,2-5.42A3.59,3.59,0,0,0,48.78,21.47Z" style="fill:#dcac7c"/><path d="M8.24,19.55c1.42.88,1.91,1.88,1.25,3.24-.26.52-1,.83-1.37.48C7,22.08,8.23,20.93,8.24,19.55Z" style="fill:#dcac7c"/><path d="M52.85,8.67a1.22,1.22,0,0,1,.71-1.29s.19.09.2.15c.05.66-.44.9-.91,1.14Z" style="fill:#773727"/><path d="M52.3,9.76a1,1,0,0,1,.55-1.09h0a1.14,1.14,0,0,1-.54,1.1Z" style="fill:#773727"/><path d="M54.13,5.8c.06,0,.15,0,.17,0s0,.13.05.2l-.29,0Z" style="fill:#773727"/><path d="M48.43,21.15a3.55,3.55,0,0,1,.33-.36c.31.21.2.45,0,.67A3.28,3.28,0,0,1,48.43,21.15Z" style="fill:#dcac7c"/><path d="M49,18.48l-.22.23c0-.05,0-.11,0-.14a1,1,0,0,1,.18-.09Z" style="fill:#773727"/></g></g></svg>