<svg xmlns="http://www.w3.org/2000/svg" viewBox="0 0 58.04 95.78"><g id="Ebene_2" data-name="Ebene 2"><g id="Ebene_1-2" data-name="Ebene 1"><path d="M14.11,78a39.68,39.68,0,0,1-11.28-10A12.74,12.74,0,0,1,1,54.93a8.27,8.27,0,0,0,.07-5.74A15.33,15.33,0,0,1,4,34.13a5,5,0,0,0,1.31-4A9.79,9.79,0,0,1,9.2,20.92a6.32,6.32,0,0,0,2.64-6.13A14.32,14.32,0,0,1,14.17,4.51c.9-1.31.9-2.87,1.07-4.5,1.39.31,1.49,1.25,1.53,2.24C16.84,4.6,17.05,7,16,9.18a4.8,4.8,0,0,0-.27,3.45A11.2,11.2,0,0,1,14,22.86a6.26,6.26,0,0,0-.65,1.19c-.4,1-1.18,2.05-.47,3s1.78,0,2.66-.09c2.87-.33,5.68-1.14,8.62-.38a3.08,3.08,0,0,0,3.68-1.32c1.8-2.45,4.54-3.73,7.48-4.56,1.71-.48,3.43-1,5.09-1.65a5.77,5.77,0,0,0,3.92-4.18c.58-3.44,2.76-5.7,5.27-7.55,2.85-2.11,6-3.83,8.27-7.36.63,3.21-.73,5.17-2.13,7.07A9.45,9.45,0,0,1,53.82,9a11,11,0,0,0-4.31,7.21,9.08,9.08,0,0,1-4.35,6.21C42.76,24,40,25,38,27.1c-2.21,2.27-2.29,3.54-.61,6.21C40.21,37.86,41,43,40.72,48.19c-.4,7.88-2.56,15.16-7.86,21.23a9.17,9.17,0,0,1-3,2.7c-4.05,1.55-3.34,4.87-3.17,7.93.11,2,1.73,2.63,3.53,1.7.55-.29,1-.73,1.58-1,2.91-1.75,5.41-.4,5.66,3,.06.81.1,1.63.19,2.44.64,5.6,0,7-5.39,8.55a24.71,24.71,0,0,1-21.06-3.21,2.25,2.25,0,0,1-1.12-2.91c.47-1.62.26-3.42.51-5.12.31-2.14,1.07-4,3.42-4.77L17.72,80c.37-1.31.19-2.11-1.48-1.86A9.62,9.62,0,0,1,14.11,78Zm21.15-44.8c-1.44,3.51-1.83,3.87-3.91,4-3.8.15-6.32-2.64-5.76-6.71.21-1.54,0-1.87-1.57-2.13a21.51,21.51,0,0,0-11.67,1.66C5.46,32.72.18,39.94,2.66,48.3a11.56,11.56,0,0,1-.22,7.48C1.49,58.36.88,61,2.23,63.68A30.44,30.44,0,0,0,15.09,76.56a2.81,2.81,0,0,0,2.34,0C28.89,73.18,36.09,65.92,38.37,54,39.74,46.81,39.29,40,35.26,33.16ZM25.45,75c-1.38.58-2.42,1.12-3.52,1.48-2.13.69-3.41,1.81-3,4.31a2.78,2.78,0,0,1-1.31,3c-.08-2.25-1.42-3.76-3.06-3.68-1.85.09-2.95,3-2.41,6.33,1.48.23,2.09-1.33,3.29-1.85.41,1.44-.47,2-1.22,2.64-.92.78-2.95.83-2.69,2.27s2.14,1.76,3.4,2.44,2.43.93,3.23-.87a16.85,16.85,0,0,1,2.26-3c.67,1.52-.22,2.43-1.11,3.37-1.11,1.18-.72,1.83.79,2.11,3.12.6,6.24,1,9.4.19,1.25-.34,1.74-.76.86-2-1.69-2.47-1.64-2.49.75-3.56.29-.13.48-.15.68.09-.37,2.43,0,4.17,1,4.27,1.39.15,2.3-.88,3.19-1.78a2.75,2.75,0,0,0,.41-2.33c-.11-1.62-.33-3.24-.46-4.86s-1.2-2.17-2.64-1.78a10.9,10.9,0,0,0-2.38,1.26c-2.57,1.49-5.21.14-5.4-2.84C25.36,78.61,25.45,77,25.45,75Zm1.66-44.41c0,.37,0,.73,0,1.09a3.72,3.72,0,0,0,3.24,3.74c2.39.46,2.73-1.34,3.07-2.9a14.16,14.16,0,0,1,8.25-10.11c2.65-1.28,5.17-2.81,6.08-5.82.65-2.16.92-4.44,2.46-6.24.29-.35.5-.86.13-1.23-.56-.58-1,0-1.33.36a11.32,11.32,0,0,0-3.23,5.27c-.83,3.66-3.3,5.45-6.57,6.5-1.38.44-2.79.76-4.18,1.14C30.66,23.6,27.15,27.23,27.11,30.62ZM14.48,8.11a4,4,0,0,0-1.41,3.7c1.46,5-.32,8.61-4.17,11.63C7,25,6.83,27.15,6.94,29.37c0,.56.26,1.35.88.87,1.06-.81,2.93-.83,2.93-2.81a11.19,11.19,0,0,1,2.33-6.28,8.68,8.68,0,0,0,1.5-5.63C14.43,13.07,13.35,10.63,14.48,8.11Zm37.44.09L52.33,8c-.11-.09-.24-.28-.32-.26a2.32,2.32,0,0,0-.5.29Zm1.53-1.27c0-.07,0-.16,0-.19a.56.56,0,0,0-.23,0l.06.31Z" style="fill:#4f3534"/><path d="M14.11,78a9.62,9.62,0,0,0,2.13.14c1.67-.25,1.85.55,1.48,1.86L14,78.72Z" style="fill:#d7d7b5"/><path d="M35.26,33.16c4,6.83,4.48,13.65,3.11,20.82-2.28,11.94-9.48,19.2-20.94,22.58a2.81,2.81,0,0,1-2.34,0A30.44,30.44,0,0,1,2.23,63.68c-1.35-2.65-.74-5.32.21-7.9a11.56,11.56,0,0,0,.22-7.48c-2.48-8.36,2.8-15.58,9.69-18.36A21.51,21.51,0,0,1,24,28.28c1.58.26,1.78.59,1.57,2.13-.56,4.07,2,6.86,5.76,6.71C33.43,37,33.82,36.67,35.26,33.16Z" style="fill:#b18369"/><path d="M25.45,75c0,1.94-.09,3.58,0,5.2.19,3,2.83,4.33,5.4,2.84a10.9,10.9,0,0,1,2.38-1.26c1.44-.39,2.51,0,2.64,1.78s.35,3.24.46,4.86a2.75,2.75,0,0,1-.41,2.33c-.89.9-1.8,1.93-3.19,1.78-1-.1-1.35-1.84-1-4.27-.2-.24-.39-.22-.68-.09-2.39,1.07-2.44,1.09-.75,3.56.88,1.29.39,1.71-.86,2-3.16.84-6.28.41-9.4-.19-1.51-.28-1.9-.93-.79-2.11.89-.94,1.78-1.85,1.11-3.37a16.85,16.85,0,0,0-2.26,3c-.8,1.8-1.88,1.59-3.23.87s-3.14-1-3.4-2.44,1.77-1.49,2.69-2.27c.75-.63,1.63-1.2,1.22-2.64-1.2.52-1.81,2.08-3.29,1.85-.54-3.35.56-6.24,2.41-6.33,1.64-.08,3,1.43,3.06,3.68a2.78,2.78,0,0,0,1.31-3c-.39-2.5.89-3.62,3-4.31C23,76.15,24.07,75.61,25.45,75Z" style="fill:#b18369"/><path d="M27.11,30.62c0-3.39,3.55-7,7.92-8.2,1.39-.38,2.8-.7,4.18-1.14,3.27-1.05,5.74-2.84,6.57-6.5A11.32,11.32,0,0,1,49,9.51c.35-.35.77-.94,1.33-.36.37.37.16.88-.13,1.23-1.54,1.8-1.81,4.08-2.46,6.24-.91,3-3.43,4.54-6.08,5.82a14.16,14.16,0,0,0-8.25,10.11c-.34,1.56-.68,3.36-3.07,2.9a3.72,3.72,0,0,1-3.24-3.74C27.08,31.35,27.11,31,27.11,30.62Z" style="fill:#8c5143"/><path d="M14.48,8.11c-1.13,2.52-.05,5,.1,7.41a8.68,8.68,0,0,1-1.5,5.63,11.19,11.19,0,0,0-2.33,6.28c0,2-1.87,2-2.93,2.81-.62.48-.85-.31-.88-.87-.11-2.22,0-4.42,2-5.93,3.85-3,5.63-6.66,4.17-11.63A4,4,0,0,1,14.48,8.11Z" style="fill:#8c5143"/><path d="M51.92,8.2,51.51,8a2.32,2.32,0,0,1,.5-.29c.08,0,.21.17.32.26Z" style="fill:#8c5143"/><path d="M53.45,6.93,53.24,7l-.06-.31a.56.56,0,0,1,.23,0S53.44,6.86,53.45,6.93Z" style="fill:#8c5143"/></g></g></svg>