<svg xmlns="http://www.w3.org/2000/svg" viewBox="0 0 42.33 82.17"><g id="Ebene_2" data-name="Ebene 2"><g id="Ebene_1-2" data-name="Ebene 1"><path d="M15.67,64.36a39.68,39.68,0,0,1-11.28-10,12.79,12.79,0,0,1-1.83-13,7.47,7.47,0,0,0,.07-5.74A9.38,9.38,0,0,1,2,29.71c1-3.58-.38-6.66-1.28-9.91A18.66,18.66,0,0,1,2,6.43,5.84,5.84,0,0,1,5.59,3a1.49,1.49,0,0,1,0,1.5C3,8.88,4.48,13.11,6.15,17.35c.54,1.38,1.12,1.19,2.11.37A19.07,19.07,0,0,1,18,13.27c1.74-.24,2-.95,1.93-2.42A13.75,13.75,0,0,1,23.6,1c.54-.59,1.17-1.43,2-.74s-.18,1.29-.43,1.85c-1.49,3.24-.94,6.5-.28,9.78.17.8.77,1,1.57,1.22,11.12,2.42,14.33,5.39,15.6,16.62,1.1,9.79-1.33,18.9-8,26.5a7.78,7.78,0,0,1-2.64,2.31c-4.07,1.52-3.35,4.86-3.16,7.92.12,1.94,1.75,2.61,3.54,1.67.64-.33,1.19-.82,1.82-1.17,2.7-1.5,5.12-.18,5.4,2.91.08.91.1,1.82.21,2.72.63,5.58,0,7-5.41,8.54a24.69,24.69,0,0,1-21-3.22A2.26,2.26,0,0,1,11.61,75c.48-1.61.27-3.42.52-5.12.31-2.14,1.07-4,3.42-4.76l3.73,1.24c.36-1.32.19-2.12-1.49-1.87A10.19,10.19,0,0,1,15.67,64.36ZM22.64,6c-2.29,6-1.22,11.48,2.24,16.67.72,1.08,1.55,3.11,2.71,2.48s.53-2.78.31-4.27a1.5,1.5,0,0,0-.35-.73c-3.4-4.1-4.33-9-4.87-14.13A.85.85,0,0,0,23.08,5c0-.06-.13-.1-.2-.15Zm3.59,9a9.43,9.43,0,0,0,2.2,3.68c1.84,2.09,1.76,4.51.77,6.87-.73,1.78-1.91,2.22-3.55.68a17.81,17.81,0,0,1-5.19-9.33c-.23-1-.26-2.38-1.88-2a20.82,20.82,0,0,0-9.11,4A1.67,1.67,0,0,0,9,21.44a5.83,5.83,0,0,1-1.08,6.75c-.58.55-1.08.94-1.86.32C3.85,26.74,3.6,28.19,3.59,30A12.5,12.5,0,0,0,4,33.51a13.76,13.76,0,0,1-.19,9.32,8.91,8.91,0,0,0,.55,8.35A31,31,0,0,0,16.07,62.6c.64.35,1.26.87,2,.62,6.52-2.14,12.82-4.76,16.85-10.74a31.76,31.76,0,0,0,5.6-21.14C39.65,22,37.19,15.89,26.23,15ZM21.92,74.35c.67,1.83-.29,2.7-1.15,3.65s-.68,1.68.73,2a20.75,20.75,0,0,0,9.66.2c1.1-.28,1.69-.82.8-1.88-.7-.84-1.61-1.64-1.58-2.76.06-1.76,2.07.55,2.37-1l.89.21c-.75,1.48-1,2.87.31,4,.64.56,1.17.11,1.73-.17,1.62-.8,2.56-2,2.25-3.89-.18-1.07-.37-2.14-.45-3.22-.29-3.88-1.26-4.36-4.69-2.26-3.11,1.9-5.68.46-5.78-3.28,0-1.46,0-2.94,0-4.55-1.38.6-2.36,1.07-3.37,1.43-2.11.77-3.68,1.8-3.17,4.49a2.68,2.68,0,0,1-1.55,3c.79-2.66-.78-3.56-2.66-3.74s-2,1.66-2.53,3c-.39,1.06-.77,2.65-.07,3.09C15,73.56,15.72,71.55,17,71c.28,2.34-1.47,2.8-2.81,3.54-1.6.89-1.66,1.6-.05,2.66,3.43,2.27,4.3,2.2,6.62-1C21.16,75.71,21.44,75.15,21.92,74.35ZM2.46,10.83A14.89,14.89,0,0,0,4.91,24.39c.51.71,1.14,2.16,2.17,1.38a2.43,2.43,0,0,0,.53-3.22A26.49,26.49,0,0,1,2.46,10.83Z" style="fill:#4f3534"/><path d="M15.67,64.36a10.19,10.19,0,0,0,2.12.13c1.68-.25,1.85.55,1.49,1.87l-3.73-1.24Z" style="fill:#d7d7b5"/><path d="M26.23,15c11,.85,13.42,7,14.31,16.3a31.76,31.76,0,0,1-5.6,21.14c-4,6-10.33,8.6-16.85,10.74-.76.25-1.38-.27-2-.62A31,31,0,0,1,4.33,51.18a8.91,8.91,0,0,1-.55-8.35A13.76,13.76,0,0,0,4,33.51,12.5,12.5,0,0,1,3.59,30c0-1.83.26-3.28,2.46-1.51.78.62,1.28.23,1.86-.32A5.83,5.83,0,0,0,9,21.44a1.67,1.67,0,0,1,.48-2.51,20.82,20.82,0,0,1,9.11-4c1.62-.34,1.65,1,1.88,2a17.81,17.81,0,0,0,5.19,9.33c1.64,1.54,2.82,1.1,3.55-.68,1-2.36,1.07-4.78-.77-6.87A9.43,9.43,0,0,1,26.23,15Z" style="fill:#b18369"/><path d="M21.92,74.35c-.48.8-.76,1.36-1.13,1.86-2.32,3.16-3.19,3.23-6.62,1-1.61-1.06-1.55-1.77.05-2.66,1.34-.74,3.09-1.2,2.81-3.54-1.31.58-2,2.59-3.38,1.73-.7-.44-.32-2,.07-3.09.49-1.32.58-3.17,2.53-3s3.45,1.08,2.66,3.74a2.68,2.68,0,0,0,1.55-3c-.51-2.69,1.06-3.72,3.17-4.49,1-.36,2-.83,3.37-1.43C27,63,27,64.5,27,66c.1,3.74,2.67,5.18,5.78,3.28,3.43-2.1,4.4-1.62,4.69,2.26.08,1.08.27,2.15.45,3.22.31,1.92-.63,3.09-2.25,3.89-.56.28-1.09.73-1.73.17-1.3-1.17-1.06-2.56-.31-4l-.89-.21c-.3,1.55-2.31-.76-2.37,1,0,1.12.88,1.92,1.58,2.76.89,1.06.3,1.6-.8,1.88A20.75,20.75,0,0,1,21.5,80c-1.41-.29-1.67-.93-.73-2S22.59,76.18,21.92,74.35Z" style="fill:#b18369"/><path d="M22.68,6.06c.54,5.09,1.47,10,4.87,14.13a1.5,1.5,0,0,1,.35.73c.22,1.49.91,3.61-.31,4.27s-2-1.4-2.71-2.48C21.42,17.52,20.35,12,22.64,6Z" style="fill:#8c5143"/><path d="M2.46,10.83A26.49,26.49,0,0,0,7.61,22.55a2.43,2.43,0,0,1-.53,3.22c-1,.78-1.66-.67-2.17-1.38A14.89,14.89,0,0,1,2.46,10.83Z" style="fill:#8c5143"/><path d="M22.64,6l.24-1.19c.07.05.18.09.2.15a.85.85,0,0,1-.4,1.06Z" style="fill:#8c5143"/></g></g></svg>