<svg xmlns="http://www.w3.org/2000/svg" viewBox="0 0 53.03 89.19"><g id="Ebene_2" data-name="Ebene 2"><g id="Ebene_1-2" data-name="Ebene 1"><path d="M26.41,71.42A38.56,38.56,0,0,1,14.68,60.71c-2.9-4.14-2.85-8.2-1.3-12.57a7,7,0,0,0,.37-4.45c-2.36-8.42-1-13.17,5.6-19.38-4.27-3.11-6.32-8-9.66-11.9S3.2,4.53,0,.51c1.21-1,2.1-.34,2.9.13C7,3,11,5.45,13.77,9.4c.45.64,1.13.78,1.76,1.12a20.27,20.27,0,0,1,6.23,5.09A11.12,11.12,0,0,0,31.63,20c8.27-.55,17.21,1.87,20,10.74.38,1.22.11,2.76,1.39,3.65V46.91c-1.62,1.54-1.31,3.79-2,5.68-2.2,5.95-5.34,11-10.92,14.41-1.76,1.06-1.72,7.14-.09,8.33,1.3,1,2.25,0,3.21-.56,4.12-2.49,6.23-1.46,6.55,3.25,0,.37.06.73.1,1.09.65,6.17-.61,8.24-6.64,9.46a25.47,25.47,0,0,1-18.85-3c-1.58-1-2.64-1.89-2-4,.49-1.62.31-3.42.58-5.11.32-2,1.21-3.6,3.31-4.24L30,73.4c0-1.79,0-1.78-1.46-1.83C27.83,71.54,27.12,71.47,26.41,71.42Zm-2.8-51.8-.25-.2.2.25a28.92,28.92,0,0,1-1,3.07c-.41.94-.9,1.81-.15,2.76,1.22,1.54,2.18,3.26,3.92,4.4s2.79.62,3.57-1.11C31.48,25.32,28.34,20.75,23.61,19.62Zm6.76,2.44A10.2,10.2,0,0,1,32,25.71a6.42,6.42,0,0,1-3,6.48c-2.32,1.34-3.43-.64-4.82-1.8a12.23,12.23,0,0,1-2.93-3.55c-.54-1-1-1-1.77-.25-4.1,3.9-6.13,8.47-4.74,14.18a14.13,14.13,0,0,1-.26,9.06A8.93,8.93,0,0,0,14.92,58,31,31,0,0,0,27,69.78a2.49,2.49,0,0,0,2,.46c6.17-2.07,12.28-4.49,16.14-10A32.68,32.68,0,0,0,50.8,34.67C49,24.87,40.21,19.41,30.37,22.06ZM24.25,79.91c1.66.39,2.19-1.35,3.6-1.86.09,2.17-1.41,2.69-2.7,3.45-.69.4-2.1.79-1.19,1.9A9,9,0,0,0,28.66,86c1.51.42,1.44-1.34,2.18-2a17.54,17.54,0,0,0,1.89-2.42c.53,1.61-.24,2.47-1.09,3.34-1,1.07-1,1.83.67,2.15a21.56,21.56,0,0,0,9.39.22c1.5-.36,1.86-.92.8-2.21s-2.9-2.8.67-3.18c.25,0,.46-.51.92-.14,0,.2.12.51,0,.71-.65,1.32-.54,2.68.68,3.38S47,85.2,48,84.48a2.3,2.3,0,0,0,.66-2.24c-.14-1.81-.32-3.61-.5-5.41-.14-1.39-1-1.79-2.3-1.66a6.6,6.6,0,0,0-2.65,1.31c-2.74,1.63-5.29.26-5.46-3-.08-1.61,0-3.22,0-5-1.37.59-2.5,1.15-3.68,1.55-2,.68-3.25,1.75-2.86,4.14a3,3,0,0,1-1.41,3.23c.28-2.43-.87-3.58-2.87-3.75C25.17,73.52,24.11,76,24.25,79.91Zm-8.49-67.5c-1.65,3.77,0,6.48,2.64,8.83.67.6,1.2,2,2.33,1.31a2.69,2.69,0,0,0,1-3.36A11.46,11.46,0,0,0,15.76,12.41ZM5.21,4.31l6.54,8.74c.52.68,1,1.84,2.05,1.21s.31-1.65-.11-2.4C11.79,8.48,8.75,6.23,5.21,4.31Z" style="fill:#4f3534"/><path d="M26.41,71.42c.71,0,1.42.12,2.13.15,1.42.05,1.42,0,1.46,1.83l-3.71-1.23Z" style="fill:#d7d7b5"/><path d="M30.37,22.06C40.21,19.41,49,24.87,50.8,34.67a32.68,32.68,0,0,1-5.61,25.56c-3.86,5.52-10,7.94-16.14,10a2.49,2.49,0,0,1-2-.46A31,31,0,0,1,14.92,58a8.93,8.93,0,0,1-.39-8.12,14.13,14.13,0,0,0,.26-9.06c-1.39-5.71.64-10.28,4.74-14.18.78-.74,1.23-.76,1.77.25a12.23,12.23,0,0,0,2.93,3.55c1.39,1.16,2.5,3.14,4.82,1.8a6.42,6.42,0,0,0,3-6.48A10.2,10.2,0,0,0,30.37,22.06Z" style="fill:#b18369"/><path d="M24.25,79.91c-.14-3.88.92-6.39,2.68-6.25,2,.17,3.15,1.32,2.87,3.75a3,3,0,0,0,1.41-3.23c-.39-2.39.84-3.46,2.86-4.14,1.18-.4,2.31-1,3.68-1.55,0,1.8-.07,3.41,0,5,.17,3.23,2.72,4.6,5.46,3a6.6,6.6,0,0,1,2.65-1.31c1.28-.13,2.16.27,2.3,1.66.18,1.8.36,3.6.5,5.41A2.3,2.3,0,0,1,48,84.48c-1,.72-1.86,2.15-3.22,1.35s-1.33-2.06-.68-3.38c.1-.2,0-.51,0-.71-.46-.37-.67.11-.92.14-3.57.38-1.71,1.93-.67,3.18s.7,1.85-.8,2.21a21.56,21.56,0,0,1-9.39-.22c-1.64-.32-1.71-1.08-.67-2.15.85-.87,1.62-1.73,1.09-3.34A17.54,17.54,0,0,1,30.84,84c-.74.67-.67,2.43-2.18,2A9,9,0,0,1,24,83.4c-.91-1.11.5-1.5,1.19-1.9,1.29-.76,2.79-1.28,2.7-3.45C26.44,78.56,25.91,80.3,24.25,79.91Z" style="fill:#b18369"/><path d="M23.61,19.62c4.73,1.13,7.87,5.7,6.3,9.17-.78,1.73-1.74,2.31-3.57,1.11s-2.7-2.86-3.92-4.4c-.75-.95-.26-1.82.15-2.76a28.92,28.92,0,0,0,1-3.07Z" style="fill:#8c5143"/><path d="M15.76,12.41a11.46,11.46,0,0,1,6,6.78,2.69,2.69,0,0,1-1,3.36c-1.13.71-1.66-.71-2.33-1.31C15.77,18.89,14.11,16.18,15.76,12.41Z" style="fill:#8c5143"/><path d="M5.21,4.31c3.54,1.92,6.58,4.17,8.48,7.55.42.75,1.14,1.78.11,2.4s-1.53-.53-2.05-1.21Z" style="fill:#8c5143"/><path d="M23.56,19.67l-.2-.25.25.2Z" style="fill:#8c5143"/></g></g></svg>