<svg xmlns="http://www.w3.org/2000/svg" viewBox="0 0 72.75 103.99"><g id="Ebene_2" data-name="Ebene 2"><g id="Ebene_1-2" data-name="Ebene 1"><path d="M19.64,52a30,30,0,0,1-9.26,0C2.4,50.49-1.56,44.5.57,36.65,2,31.44,4.82,26.89,7.26,22.16a46.81,46.81,0,0,0,3.41-9.3c1.12-4.08,2.44-8.41,5.8-11.5C17.1.78,17.56-.32,18.65.09s.16,1.66.82,2.55a13.91,13.91,0,0,1,11,.22,12,12,0,0,1,6.87,8.91c2.11-1.53,3.84-3,4.74-5.32.25-.62.23-1.58,1.23-1.54s1.16,1.15,1.35,1.81a24.5,24.5,0,0,1,.71,7.78c0,.41-.75,1.05.19,1.3,2.34.6,2.14,2.5,1.92,4.15a7.59,7.59,0,0,0,1.15,4.57c3.8,7.86,2.93,15.9.91,24-.17.7-.48,1.37-.63,2.07-.19.92-.86,2.32.16,2.66a3.34,3.34,0,0,0,3.52-.74c1.12-1.18,2.14-2.44,3.29-3.59,6-6,14.5-3.33,16.15,5.77,1.21,6.64.55,13.37.4,20.06,0,1.87-.64,3.71.1,5.6a2.14,2.14,0,0,1-.14,1.81c-.44.54-1.13.15-1.65-.29s-1.12-.85-1.1.39-1,1.27-1.87,1.3c.5,1,1,1.88,1.35,2.77s.38,1.74-.91,1.49c-1.86-.35-1.77,1.16-2.09,2.12-.82,2.45-1.47,5-2.22,7.43A6,6,0,0,1,58.29,102a7.53,7.53,0,0,1-7.47-3.32c-.85-1.24-.74-3.33-2.86-3.57-1.63-.18-2.56-1.53-4.12-2.92,1,4.49.09,7.69-3.34,10.12-4,2.85-11.73,2.35-13.11-3.58-.2-.87-.45-1.36-1.4-1C20.27,99.9,15.18,95,15.7,87.83c.31-4.42-.11-8.88.73-13.27.29-1.55-.48-3-.83-4.48a14.26,14.26,0,0,1,1-10.53C17.87,57.2,19.26,54.87,19.64,52ZM43.22,30a7.15,7.15,0,0,0,.85-4.58c-1,1.5-.9,3-.94,4.51a6.19,6.19,0,0,0-1.07,3.82c-1.5,1.49-1.4,3.65-2.26,5.43-4.19,8.69-7.65,17.56-7,27.52.36,5.59,5.34,10.58,10.6,10.13a22.09,22.09,0,0,0,10.92-4.44,8.34,8.34,0,0,0,3.55-7.58c-5.55,3.22-8.41,2.56-10.07-2.32A17.39,17.39,0,0,1,46.94,58c-.31-4.69.78-9.15,1.86-13.64A28.55,28.55,0,0,0,47.71,26.3c-.48,2.9.33,5.25.68,7.64.51,3.55.47,7-1.15,10.32-1.05,2.13-2.82,2.42-4.82,1.92s-2.13-2-1.7-3.82c.64-2.8.94-5.68,1.39-8.52A6.06,6.06,0,0,0,43.22,30Zm8.7,33.75-.24-.26c0,.06,0,.14,0,.17a.67.67,0,0,0,.2.12c.68,2.7,2,1.37,3.27.53a2,2,0,0,0,1.45-2.25,1.82,1.82,0,0,0-1.43,2.27ZM10.59,19.7C9.72,21.39,8.19,23,8.3,24.4c.32,4.23-.82,7.31-4.8,9.09C.23,40.48,2,47.33,9.63,50c4.43,1.57,9,.62,13.41-.15,3.35-.58,6.61-1.74,10-2.32,1-.16,1.61-.13,1.94-1.11C36.86,40.89,40,35.83,41.25,30c.51-2.39,1.69-5.21.55-7.13-1.31-2.2-.25-3.26.54-4.73,1.77-3.24,1.73-6.64.9-10.23-1.93,4-6.86,5-8.39,9.64-.7-3.11-.94-3.13-3.63-2.44-4.51,1.16-6.77,4.56-8.76,8.32-1.51,2.83-3.32,5.43-6.2,7a5,5,0,0,1-7-1.84c-.25-.5-.59-1-.25-1.51.46-.68.94-.09,1.37.15,1.79,1,2.24,0,2.43-1.55C13.07,23.43,11.9,21.67,10.59,19.7Zm18.21,55c.28,3.35,1.08,5.89.54,8.63a48.53,48.53,0,0,0-.85,12.44c.33,5.48,5.57,8.3,10.1,5.47a7.28,7.28,0,0,0,3.61-6.6c0-4.09-.92-8.11-1-12.16-.06-3-1.22-4.32-3.77-5.61-5.49-2.77-6.79-8.15-6.61-13.62a32.32,32.32,0,0,1,2.5-12.18c.23-.51.78-1.23.23-1.75s-1.33-.1-2,.09c-2.44.67-4.87,1.39-7.34,1.85a3.75,3.75,0,0,0-3.44,3.1A52.92,52.92,0,0,1,18,61.43c-2.84,6.71,2.43,16,9.75,17.18C28.21,77.61,27.53,76.42,28.8,74.71ZM58.65,56.47A4.86,4.86,0,0,1,57,59.92c-.11.1-.76,1.13.31,1.25,1.65.19,2.09.41,2.2,2A11.76,11.76,0,0,1,57.7,71c-2.12,3.1-5.13,4.8-8.5,6-2.12.75-4.3,1.3-7,2.1a5.37,5.37,0,0,0,4,.48c2-.57,4.21.09,6-1.24.45-.34.14-1.52,1.08-1.23.78.24.78,1.16.8,1.88a20.62,20.62,0,0,1-1.76,8.15,16.36,16.36,0,0,0-1.38,7.39,6.35,6.35,0,0,0,5.46,5.86c3.09.33,5.12-.77,6-3.44,3-8.77,5.36-17.6,3.69-27C65.16,64.69,63.5,60,58.65,56.47Zm-47.1-27a5.38,5.38,0,0,0,5.38-1.29,18.59,18.59,0,0,0,4.55-6c2.38-5,6.12-8.19,11.72-9,2.74-.4,3-.95,1.73-3.44-3.1-5.89-9.35-7.58-15.34-5.21-6.25,2.47-10,9.84-6.05,17.38C15.18,25,14.62,27.29,11.55,29.44ZM71,65.21C71,61,71.2,56.73,69.4,52.67s-5.24-6.19-8.7-5c-2.27.8-4,2.52-5.65,4.12-1.07,1-.55,1.44.81,1.79,4.38,1.14,7.33,4.09,9.42,8,2.51,4.7,3,9.79,3,15,0,.67-.26,1.67.74,1.76s.7-1,.93-1.6C71.35,73,70.9,69.08,71,65.21ZM18.31,74.86l-.87.18c0,3.22.36,6.5-.12,9.65a22.08,22.08,0,0,0,.36,7.23c.41,2.48,2.34,3.91,4.58,4.5,1.85.49,4.22-.21,4.37-2.13.31-4,1.18-7.89.71-11.89a2.16,2.16,0,0,0-1.41-2.12A16.26,16.26,0,0,1,18.31,74.86ZM46.44,90.11c0-.09,0,.28,0,.64a2,2,0,0,0,1.75,2.35c1.52.23,1-1.26,1.2-1.94.94-2.81,1.71-5.67,2.53-8.52.56-1.94.45-2.26-.25-2-1.35.42-3.7-.9-3.95,1.1C47.37,84.38,46.35,86.94,46.44,90.11ZM45,22c1.7,5.33-1.13,10-1.89,15-.33,2.12-1.05,4.18-1.06,6.37,0,.83.1,1.42,1.15,1.35.89,0,.77-.48.85-1.21.41-3.83,1.06-7.63,1.54-11.45C46,28.7,46.31,25.32,45,22Zm3.75,38.74c1-1,1.09-2.59,2.46-2.35,2.6.45,3.92-1.05,5.14-2.9C49.32,53,48.24,53.67,48.77,60.73ZM43.94,92.22c.65-3.32,1.24-6.27,1.8-9.23.18-.92.36-1.84-1.15-1.74-1.09.06-2.23-.22-1.94,1.6C43.13,85.84,43.48,88.86,43.94,92.22Zm2.2-49.31c.5-2.53,2.17-5,.43-7.88C46.1,37.8,45,40.29,46.14,42.91Zm9.39,17.34c-.05-.2,0-.44-.15-.52-1.2-.91-2.17,1.23-3.45.27-.29-.22-.91,0-1,.58a.94.94,0,0,0,.15.74,2.82,2.82,0,0,0,2.71.84C54.75,61.94,55,60.92,55.53,60.25Zm-9.64-41.2c-.13-.63.29-1.63-.84-1.59s-1.35,1.13-1.45,1.92.69,1.24,1.44,1.24C46.19,20.64,45.74,19.65,45.89,19.05Z" style="fill:#4e3132"/><path d="M10.59,19.7c1.31,2,2.48,3.73,2.19,6-.19,1.51-.64,2.56-2.43,1.55-.43-.24-.91-.83-1.37-.15-.34.5,0,1,.25,1.51a5,5,0,0,0,7,1.84c2.88-1.61,4.69-4.21,6.2-7,2-3.76,4.25-7.16,8.76-8.32,2.69-.69,2.93-.67,3.63,2.44,1.53-4.62,6.46-5.67,8.39-9.64.83,3.59.87,7-.9,10.23-.79,1.47-1.85,2.53-.54,4.73,1.14,1.92,0,4.74-.55,7.13C40,35.83,36.86,40.89,35,46.44c-.33,1-1,1-1.94,1.11-3.36.58-6.62,1.74-10,2.32-4.44.77-9,1.72-13.41.15C2,47.33.23,40.48,3.5,33.49c4-1.78,5.12-4.86,4.8-9.09C8.19,23,9.72,21.39,10.59,19.7Zm15.08,7.55c-3.82,0-6.75,3.1-6.85,7.27-.09,3.7,2.59,6.81,5.89,6.81,3.66,0,7-3.71,7-7.65A6.32,6.32,0,0,0,25.67,27.25Z" style="fill:#b08269"/><path d="M28.8,74.71c-1.27,1.71-.59,2.9-1.08,3.89C20.4,77.46,15.13,68.14,18,61.43a52.92,52.92,0,0,0,2.76-7.06,3.75,3.75,0,0,1,3.44-3.1c2.47-.46,4.9-1.18,7.34-1.85.69-.19,1.44-.66,2-.09s0,1.24-.23,1.75a32.32,32.32,0,0,0-2.5,12.18c-.18,5.47,1.12,10.85,6.61,13.62,2.55,1.29,3.71,2.63,3.77,5.61.1,4.05,1,8.07,1,12.16a7.28,7.28,0,0,1-3.61,6.6c-4.53,2.83-9.77,0-10.1-5.47a48.53,48.53,0,0,1,.85-12.44C29.88,80.6,29.08,78.06,28.8,74.71Z" style="fill:#b08269"/><path d="M42.11,33.84c-.45,2.84-.75,5.72-1.39,8.52-.43,1.87-.39,3.3,1.7,3.82s3.77.21,4.82-1.92c1.62-3.31,1.66-6.77,1.15-10.32-.35-2.39-1.16-4.74-.68-7.64A28.55,28.55,0,0,1,48.8,44.38c-1.08,4.49-2.17,8.95-1.86,13.64a17.39,17.39,0,0,0,.85,4.51c1.66,4.88,4.52,5.54,10.07,2.32a8.34,8.34,0,0,1-3.55,7.58,22.09,22.09,0,0,1-10.92,4.44c-5.26.45-10.24-4.54-10.6-10.13-.64-10,2.82-18.83,7-27.52.86-1.78.76-3.94,2.26-5.43Z" style="fill:#8c5143"/><path d="M58.65,56.47c4.85,3.51,6.51,8.22,7.43,13.41,1.67,9.43-.74,18.26-3.69,27-.9,2.67-2.93,3.77-6,3.44a6.35,6.35,0,0,1-5.46-5.86,16.36,16.36,0,0,1,1.38-7.39A20.62,20.62,0,0,0,54.05,79c0-.72,0-1.64-.8-1.88-.94-.29-.63.89-1.08,1.23-1.79,1.33-4,.67-6,1.24a5.37,5.37,0,0,1-4-.48c2.69-.8,4.87-1.35,7-2.1,3.37-1.2,6.38-2.9,8.5-6a11.76,11.76,0,0,0,1.77-7.75c-.11-1.63-.55-1.85-2.2-2-1.07-.12-.42-1.15-.31-1.25A4.86,4.86,0,0,0,58.65,56.47Z" style="fill:#b08269"/><path d="M11.55,29.44c3.07-2.15,3.63-4.47,2-7.6-3.95-7.54-.2-14.91,6.05-17.38,6-2.37,12.24-.68,15.34,5.21,1.31,2.49,1,3-1.73,3.44-5.6.82-9.34,4-11.72,9a18.59,18.59,0,0,1-4.55,6A5.38,5.38,0,0,1,11.55,29.44Z" style="fill:#8c5143"/><path d="M71,65.21c0,3.87.4,7.78-1,11.54-.23.61.18,1.7-.93,1.6s-.74-1.09-.74-1.76c0-5.19-.48-10.28-3-15-2.09-3.92-5-6.87-9.42-8-1.36-.35-1.88-.79-.81-1.79,1.7-1.6,3.38-3.32,5.65-4.12,3.46-1.21,6.91.94,8.7,5S71,61,71,65.21Z" style="fill:#8c5143"/><path d="M18.31,74.86a16.26,16.26,0,0,0,7.62,5.42,2.16,2.16,0,0,1,1.41,2.12c.47,4-.4,7.94-.71,11.89-.15,1.92-2.52,2.62-4.37,2.13-2.24-.59-4.17-2-4.58-4.5a22.08,22.08,0,0,1-.36-7.23c.48-3.15.12-6.43.12-9.65Z" style="fill:#b08269"/><path d="M46.44,90.11c-.09-3.17.93-5.73,1.27-8.41.25-2,2.6-.68,3.95-1.1.7-.22.81.1.25,2-.82,2.85-1.59,5.71-2.53,8.52-.22.68.32,2.17-1.2,1.94a2,2,0,0,1-1.75-2.35C46.45,90.39,46.44,90,46.44,90.11Z" style="fill:#b08269"/><path d="M45,22c1.29,3.33,1,6.71.59,10.07-.48,3.82-1.13,7.62-1.54,11.45-.08.73,0,1.16-.85,1.21-1,.07-1.15-.52-1.15-1.35,0-2.19.73-4.25,1.06-6.37C43.89,32,46.72,27.32,45,22Z" style="fill:#d2cf7b"/><path d="M48.77,60.73c-.53-7.06.55-7.77,7.6-5.25-1.22,1.85-2.54,3.35-5.14,2.9C49.86,58.14,49.76,59.74,48.77,60.73Z" style="fill:#b08269"/><path d="M43.94,92.22c-.46-3.36-.81-6.38-1.29-9.37-.29-1.82.85-1.54,1.94-1.6,1.51-.1,1.33.82,1.15,1.74C45.18,86,44.59,88.9,43.94,92.22Z" style="fill:#fefefe"/><path d="M46.14,42.91c-1.13-2.62,0-5.11.43-7.88C48.31,37.93,46.64,40.38,46.14,42.91Z" style="fill:#d2cf7b"/><path d="M55.53,60.25c-.54.67-.78,1.69-1.75,1.91a2.82,2.82,0,0,1-2.71-.84.94.94,0,0,1-.15-.74c.1-.56.72-.8,1-.58,1.28,1,2.25-1.18,3.45-.27C55.49,59.81,55.48,60.05,55.53,60.25Z" style="fill:#8c5143"/><path d="M45.89,19.05c-.15.6.3,1.59-.85,1.57-.75,0-1.54-.46-1.44-1.24s.34-1.88,1.45-1.92S45.76,18.42,45.89,19.05Z" style="fill:#d2cf7b"/><path d="M55.16,64.35c-1.25.84-2.59,2.17-3.27-.53l0,0,3.26.58Z" style="fill:#b08269"/><path d="M43.13,30c0-1.49-.06-3,.94-4.51A7.15,7.15,0,0,1,43.22,30Z" style="fill:#8c5143"/><path d="M42.06,33.79A6.19,6.19,0,0,1,43.13,30l.09.07a6.06,6.06,0,0,1-1.11,3.8Z" style="fill:#8c5143"/><path d="M55.18,64.37a1.82,1.82,0,0,1,1.43-2.27,2,2,0,0,1-1.45,2.25Z" style="fill:#b08269"/><path d="M51.89,63.82a.67.67,0,0,1-.2-.12s0-.11,0-.17l.24.26Z" style="fill:#b08269"/><path d="M25.67,27.25a6.32,6.32,0,0,1,6,6.43c.07,3.94-3.31,7.65-7,7.65-3.3,0-6-3.11-5.89-6.81C18.92,30.35,21.85,27.24,25.67,27.25Z" style="fill:#4e3132"/></g></g></svg>