<svg xmlns="http://www.w3.org/2000/svg" viewBox="0 0 71.47 88.48"><g id="Ebene_2" data-name="Ebene 2"><g id="Ebene_1-2" data-name="Ebene 1"><path d="M11.48,12.59c1.18.27,1.18,1.3,2,2,.2-1.61,0-3.14,2.33-3.5.75-.12,1.23-2.87,1.55-4.47.2-.95.14-1.92.86-2.66,1.18.05.52,1.39,1.35,1.84.91-1.15.89-2.9,2.47-3.95.43.95-.07,2.35,2,2s.2,2.19,1.34,3.07c3-2.07,6.12-4.16,9.14-6.37A1.67,1.67,0,0,1,36.65.3c13.2,7.06,24.53,16.08,30.93,30.07,8.33,18.18,3,36.77-13.67,48.76a75.83,75.83,0,0,1-17.3,9.15A3.94,3.94,0,0,1,33.52,88c-8.19-3.27-14.58-8.9-20.1-15.61a3.67,3.67,0,0,0-1.8-1.51C3.83,68.67.34,61.39,0,53.71c-.28-7.1,2.09-13.61,4.56-20.16,1.08-2.84,3.6-4.86,3.88-8,0-.26.3-.65.21-.75-1.84-2,0-3,1.15-4.12C12.27,18.41,11.15,15.45,11.48,12.59ZM16.34,19c-1.69,0-3.46-.22-4.84,1.44,1.52,1.07,1.94,2.07,0,3.34-.49.32-3.11,2,.05,3,.75.24.48,1.08,0,1.6-3.18,3.74-1.81,7.44.17,11.26,2.15-3.23,2.81-.86,3.64,1.3,1.84-2.83,3.22-2,4.35.39a9,9,0,0,1,3.05-1.8c1.56-.4,2.35-1.38.63-2.82a8.09,8.09,0,0,1-2.57-3.11c-.25-.64-.43-1.8.71-1.25,2.31,1.11,1.75-.46,1.88-1.65.2-2-.79-3.46-1.65-5.05-.33-.6-.94-1.85-.39-1.9,3.3-.34.69-2.23.73-3.15.05-1.17,0-2.42,0-3.62-.11-3.8,1.27-7.39,1.42-12.22-1.93,5.42-1.42.26-2,.42a2.82,2.82,0,0,0-.65,3c.33,1,.94,2.12-.19,2.95s-2-.24-3.08-.6c-.37,1.05.59,3.36-2.17,2.21-.71-.29-.53.79-.47,1.42.17,1.72,1.46,3.1,1.36,4.88Zm13.23,53.3c-.14-.18-.29-.38-.48-.08,0,0,.15.21.24.32a36.07,36.07,0,0,0,5.34,12.08c1.08,1.67,2.18,1.69,3.86,1A61.76,61.76,0,0,0,56.39,74.41c11.08-10,15.29-26.06,10-40C60.83,19.81,50,10,37.08,1.92a2.18,2.18,0,0,0-2.71.25,95.16,95.16,0,0,0-7.68,6,4.5,4.5,0,0,0-1.49,4.86,39.78,39.78,0,0,0,3.21,9.47,35.9,35.9,0,0,1,3,7c1,4-1.24,10.49-4.43,11.64A4.14,4.14,0,0,0,23.87,45c-.15,1.25-.67,2.46-.79,3.7-.64,6.94-.28,13.64,5.1,19,4.58,4.54,10.41,6.22,17.16,7.25C39.37,75.73,34.42,74.3,29.57,72.27Zm-4-3.56a22.12,22.12,0,0,1-5-14.3,37.32,37.32,0,0,1,1.8-11.47c.21-.66.37-2-.36-1.53-2,1.33-3.23,1.18-4.33-.87a3.37,3.37,0,0,0-.84.54c-1.42,1.73-2.14.57-3.12-.57-.79-.92-1.95,2-3-.12S8.46,36.52,7.3,34.58c-3,5.21-4.67,12.78-4.65,19.59C2.69,66,12.26,72.7,25.61,68.71Zm-10.06,3.2c3.57,5.27,13.05,12.66,17,13.28a34.29,34.29,0,0,1-5.31-13.81c-.11-.84-.4-1-1.24-.78A38.05,38.05,0,0,1,15.55,71.91Zm9-31.67a3.82,3.82,0,0,0,3.19-1.93,10.54,10.54,0,0,0,.93-11.49c-2.15-4.26-4.26-8.53-4.91-13.7-.8,2,.33,3.57.12,5.14A23.37,23.37,0,0,0,24.36,28c.77,2.66.11,5.36-1.64,6.2C23.72,36,27.42,36.88,24.56,40.24Z" style="fill:#4c3030"/><path d="M29.58,72.27c4.84,2,9.79,3.46,15.76,2.65-6.75-1-12.58-2.71-17.16-7.25-5.38-5.33-5.74-12-5.1-19,.12-1.24.64-2.45.79-3.7A4.14,4.14,0,0,1,27,41.16c3.19-1.15,5.46-7.66,4.43-11.64a35.9,35.9,0,0,0-3-7,39.78,39.78,0,0,1-3.21-9.47A4.5,4.5,0,0,1,26.69,8.2a95.16,95.16,0,0,1,7.68-6,2.18,2.18,0,0,1,2.71-.25C50,10,60.83,19.81,66.39,34.43c5.29,13.92,1.08,30-10,40A61.76,61.76,0,0,1,38.53,85.58c-1.68.7-2.78.68-3.86-1a36.07,36.07,0,0,1-5.34-12.08Z" style="fill:#b18369"/><path d="M25.61,68.71c-13.35,4-22.92-2.76-23-14.54,0-6.81,1.64-14.38,4.65-19.59,1.16,1.94,2.41,3.81,3.43,5.81s2.23-.8,3,.12c1,1.14,1.7,2.3,3.12.57a3.37,3.37,0,0,1,.84-.54c1.1,2.05,2.34,2.2,4.33.87.73-.49.57.87.36,1.53a37.32,37.32,0,0,0-1.8,11.47A22.12,22.12,0,0,0,25.61,68.71Z" style="fill:#b18369"/><path d="M16.31,19c.1-1.78-1.19-3.16-1.36-4.88-.06-.63-.24-1.71.47-1.42,2.76,1.15,1.8-1.16,2.17-2.21,1.05.36,2,1.39,3.08.6s.52-1.91.19-2.95a2.82,2.82,0,0,1,.65-3c.6-.16.09,5,2-.42C23.38,9.56,22,13.15,22.11,17c0,1.2.08,2.45,0,3.62,0,.92,2.57,2.81-.73,3.15-.55.05.06,1.3.39,1.9.86,1.59,1.85,3.1,1.65,5.05-.13,1.19.43,2.76-1.88,1.65-1.14-.55-1,.61-.71,1.25a8.09,8.09,0,0,0,2.57,3.11c1.72,1.44.93,2.42-.63,2.82a9,9,0,0,0-3.05,1.8c-1.13-2.37-2.51-3.22-4.35-.39-.83-2.16-1.49-4.53-3.64-1.3-2-3.82-3.35-7.52-.17-11.26.44-.52.71-1.36,0-1.6-3.16-1-.54-2.68-.05-3,1.94-1.27,1.52-2.27,0-3.34C12.88,18.75,14.65,19,16.34,19c.47,1.06.52,2.88,2,2.59s.45-2,.7-3-.44-2,.47-2.75c.29-.25,1.34,0,.62-.85a1.06,1.06,0,0,0-1.65,0c-.71.71-.57,1.69-.63,2.55C17.79,18.6,17.59,19.33,16.31,19ZM16,37.38a2.2,2.2,0,0,0,2.08,1,2.14,2.14,0,0,0-1.61-1.55c-1.15-1.35-3.71.08-4.27-2.91-.8,2.92.26,3.74,2.3,3.43A2.63,2.63,0,0,1,16,37.38Zm.86-3.47C16,33,14.59,32.7,14.8,31.27c2.66.31,3-.15,2.13-2.61a29.16,29.16,0,0,1-1-3.3c-.09-.42,1.48-.44.45-1.28a.75.75,0,0,0-.74,0,1.82,1.82,0,0,0-.76,1.64c.33,1.34.8,2.65,1.2,3.93-1.13.64-1.93-1.58-2.83-.3-.66.95-.08,2.15.54,3S14.73,35,16.88,33.91Z" style="fill:#dbac7d"/><path d="M15.55,71.91A38.05,38.05,0,0,0,26,70.6c.84-.2,1.13-.06,1.24.78a34.29,34.29,0,0,0,5.31,13.81C28.6,84.57,19.12,77.18,15.55,71.91Z" style="fill:#b18369"/><path d="M24.56,40.24c2.86-3.36-.84-4.21-1.84-6.07,1.75-.84,2.41-3.54,1.64-6.2a23.37,23.37,0,0,1-.47-9.71c.21-1.57-.92-3.12-.12-5.14.65,5.17,2.76,9.44,4.91,13.7a10.54,10.54,0,0,1-.93,11.49A3.82,3.82,0,0,1,24.56,40.24Z" style="fill:#8d5243"/><path d="M29.33,72.51c-.09-.11-.27-.28-.24-.32.19-.3.34-.1.49.08Z" style="fill:#b18369"/><path d="M16.88,33.91c-2.15,1.09-2.44-.63-3.09-1.52s-1.2-2.06-.54-3c.9-1.28,1.7.94,2.83.3-.4-1.28-.87-2.59-1.2-3.93a1.82,1.82,0,0,1,.76-1.64.75.75,0,0,1,.74,0c1,.84-.54.86-.45,1.28a29.16,29.16,0,0,0,1,3.3c.89,2.46.53,2.92-2.13,2.61C14.59,32.7,16,33,16.88,33.91Z" style="fill:#4c3030"/><path d="M16.31,19c1.28.32,1.48-.41,1.56-1.46.06-.86-.08-1.84.63-2.55a1.06,1.06,0,0,1,1.65,0c.72.87-.33.6-.62.85-.91.78-.25,1.84-.47,2.75s.78,2.72-.7,3S16.81,20,16.34,19Z" style="fill:#4c3030"/><path d="M16,37.38a2.63,2.63,0,0,0-1.5,0c-2,.31-3.1-.51-2.3-3.43.56,3,3.12,1.56,4.27,2.91Z" style="fill:#4c3030"/><path d="M16.49,36.82a2.14,2.14,0,0,1,1.61,1.55,2.2,2.2,0,0,1-2.08-1C16.18,37.2,16.34,37,16.49,36.82Z" style="fill:#4c3030"/></g></g></svg>