<svg xmlns="http://www.w3.org/2000/svg" viewBox="0 0 51.96 48.53">
    <defs>
        <style>.cls-1{fill:#6a6d60;}.cls-2{fill:#af9177;}.cls-3{fill:#6c6f61;}.cls-4{fill:#b6bcbf;}</style>
    </defs>
    <g>
        <path class="cls-1"
              d="M38.33,1.42,38.23,0h2c.3.51.83.38,1.29.5,4.07,1.11,8.29,1.94,9.76,6.86.35,1.14-.34,2.46.71,3.42v3.43c-.83.62-.56,1.56-.44,2.26.67,3.9-1.71,6.06-4.44,8-3.89,2.74-8.33,4.17-13.13,5.18a28.52,28.52,0,0,0,3.4,5.47,3.57,3.57,0,0,1,.37,3.81c-1.37,3.18-2.61,6.41-3.9,9.62h-1c-2-2.94-3.94-5.91-6-8.78a2.79,2.79,0,0,1-.35-3.09c.85-2,1.62-4,2.54-6.33a40.38,40.38,0,0,1-12.31.1A33,33,0,0,1,3.46,26.24C1.63,25.14,1.58,23.16,1,21.47a14.44,14.44,0,0,0-1-3.33V7.84C3.4,4,8,2.49,12.77,1.16c1.37-.39,1.6.1,1.37,1.27A28.35,28.35,0,0,0,4.75,5.72C2.56,7,1,8.56,1.44,11.39a31.82,31.82,0,0,1,0,3.91c.17,6.83,2.08,10,7.54,11.94a45.44,45.44,0,0,0,17.57,2.1c1.41-.08,2.63-.26,1.53-2.47-.76-1.54-1.18-3.86,1.69-4.52.48-.11,1.21-.41.76-1.2-.33-.56-.74-1.13-1.56-.86-.63.21-1.37.56-1.46-.49-.08-.77.62-1.15,1.26-1.29,1.39-.32,2.93,0,3.27,1.36.66,2.72,2.54,5.1,2.24,8.07l-.21.19s.1,0,.12,0a.89.89,0,0,0,.08-.17,26,26,0,0,0,9.45-3c3.7-1.86,6.86-4.21,6.29-9.1-.06-.46.25-1,.3-1.43.51-5.22-.3-9.89-5.62-11.57A22.2,22.2,0,0,0,38.33,1.42ZM33.14,46.65c1.28-3.08,2.45-5.9,3.61-8.73a1.41,1.41,0,0,0,0-1.56c-1.32-1.84-2.46-3.82-3.82-5.64-1.05-1.4-2.38-1.08-3,.57-.7,1.81-1.33,3.66-2.11,5.43A2.36,2.36,0,0,0,28,39.23Zm-.52-19c.15-.4.22-.63.31-.84.38-.92.31-2.09-.66-2.1a3.29,3.29,0,0,0-2.79,1.43c-.12.19.05.61.17.88a.69.69,0,0,0,.59,0C31.36,25.64,31.78,27.14,32.62,27.69Z"/>
        <path class="cls-2"
              d="M38.33,1.42a22.2,22.2,0,0,1,6.4,1.39c5.32,1.68,6.13,6.35,5.62,11.57-.05.48-.36,1-.3,1.43.57,4.89-2.59,7.24-6.29,9.1a26,26,0,0,1-9.45,3h0c.3-3-1.58-5.35-2.24-8.07-.34-1.36-1.88-1.68-3.27-1.36-.64.14-1.34.52-1.26,1.29.09,1.05.83.7,1.46.49.82-.27,1.23.3,1.56.86.45.79-.28,1.09-.76,1.2-2.87.66-2.45,3-1.69,4.52,1.1,2.21-.12,2.39-1.53,2.47A45.44,45.44,0,0,1,9,27.24c-5.46-1.9-7.37-5.11-7.54-11.94a31.82,31.82,0,0,0,0-3.91C1,8.56,2.56,7,4.75,5.72a28.35,28.35,0,0,1,9.39-3.29c0,3.42.09,6.84.13,10.26A16.84,16.84,0,0,1,5,8.36a2.93,2.93,0,0,0,1.94,3.07,26.7,26.7,0,0,0,6.4,2.29,49.22,49.22,0,0,0,17.41.46c4.74-.72,9.47-1.61,13.5-4.48,1.07-.76,2.37-1.48,2.62-3.48-2.86,2.06-5.13,4.42-8.51,4.62Z"/>
        <path class="cls-3"
              d="M38.34,10.84c3.38-.2,5.65-2.56,8.51-4.62-.25,2-1.55,2.72-2.62,3.48-4,2.87-8.76,3.76-13.5,4.48a49.22,49.22,0,0,1-17.41-.46,26.7,26.7,0,0,1-6.4-2.29A2.93,2.93,0,0,1,5,8.36a16.84,16.84,0,0,0,9.29,4.33,64.34,64.34,0,0,0,13,.57c3.55-.11,7-1,10.43-1.52C38.24,11.66,38.23,11.21,38.34,10.84Z"/>
        <path class="cls-4"
              d="M33.14,46.65,28,39.23a2.36,2.36,0,0,1-.24-2.51c.78-1.77,1.41-3.62,2.11-5.43.63-1.65,2-2,3-.57,1.36,1.82,2.5,3.8,3.82,5.64a1.41,1.41,0,0,1,0,1.56C35.59,40.75,34.42,43.57,33.14,46.65Z"/>
        <path class="cls-2"
              d="M32.62,27.69c-.84-.55-1.26-2.05-2.38-.66a.69.69,0,0,1-.59,0c-.12-.27-.29-.69-.17-.88a3.29,3.29,0,0,1,2.79-1.43c1,0,1,1.18.66,2.1C32.84,27.06,32.77,27.29,32.62,27.69Z"/>
        <path class="cls-2" d="M34.31,27.93a.89.89,0,0,1-.08.17s-.08,0-.12,0l.21-.19Z"/>
    </g>
</svg>