<svg xmlns="http://www.w3.org/2000/svg" viewBox="0 0 51.95 43.11">
    <defs>
        <style>.cls-1{fill:#6a6d60;}.cls-2{fill:#af9177;}.cls-3{fill:#6c6f61;}.cls-4{fill:#b6bcc0;}</style>
    </defs>
    <g>
        <path class="cls-1"
              d="M41.25,1.36,40.91,0c6.86,1.05,10.62,3.37,10.63,9.69,0,.18.27.35.41.52v3.43c-.82.61-.56,1.55-.44,2.25.67,3.89-1.73,6-4.43,8A32.63,32.63,0,0,1,38.2,28c1.69,2.13,3.21,4.37,2.91,7.17a8.65,8.65,0,0,1-2.52,5.39,8.41,8.41,0,0,1-10,1.47c-3.88-2.08-5-5.64-3.59-11.68-5.19-.13-10.34-.38-15.31-2-.07,0-.16,0-.24,0C4.68,27.07,1,24.75.57,19.27c0-.55.24-1.36-.57-1.71V7.27c2.84-3.19,6.48-4.9,10.64-6l-.42,1.57A21.42,21.42,0,0,0,5.06,5c-2.38,1.26-3.83,2.92-3.66,6A43.57,43.57,0,0,0,2.79,21,7.07,7.07,0,0,0,7.3,26a43.4,43.4,0,0,0,17.16,2.84c3.12,0,4.06-.91,3.37-3.91-.39-1.73.16-2.33,1.51-2.93.55-.24,1.68-.28,1.22-1.38a1.23,1.23,0,0,0-1.76-.82c-.58.26-1.19.29-1.26-.54-.05-.66.45-1,1.06-1.14,1.74-.27,3.36-.16,3.82,2,.37,1.67,1.25,3.15,1.68,4.74.59,2.12,1.84,2.26,3.49,1.87a26.73,26.73,0,0,0,6.35-2.44c3.6-1.91,6.66-4.21,6.09-9a3.63,3.63,0,0,1,.16-.95C51.33,6.13,48.72,2.53,41.25,1.36ZM32,27.44c-3.59.38-6.33,3-6.55,6.14-.29,4.16,1.55,7,5.17,8a7.22,7.22,0,0,0,8.49-3.87,7.43,7.43,0,0,0-2.29-8.94c-1.52-1.09-3.1-1.78-4.49.27a.52.52,0,0,1-.84.05C31.17,28.38,32.14,28.17,32,27.44Zm-1.11-1.07c.71-.17,2.08.45,2.15-1.19,0-.46-.36-1.4-.94-1.07-.91.51-2.4.34-2.67,1.64C29.23,26.88,30.17,26.43,30.93,26.37Z"/>
        <path class="cls-2"
              d="M41.25,1.36c7.47,1.17,10.08,4.77,8.94,13a3.63,3.63,0,0,0-.16.95c.57,4.77-2.49,7.07-6.09,9a26.73,26.73,0,0,1-6.35,2.44c-1.65.39-2.9.25-3.49-1.87-.43-1.59-1.31-3.07-1.68-4.74-.46-2.14-2.08-2.25-3.82-2-.61.1-1.11.48-1.06,1.14.07.83.68.8,1.26.54a1.23,1.23,0,0,1,1.76.82c.46,1.1-.67,1.14-1.22,1.38-1.35.6-1.9,1.2-1.51,2.93.69,3-.25,3.89-3.37,3.91A43.4,43.4,0,0,1,7.3,26a7.07,7.07,0,0,1-4.51-5A43.57,43.57,0,0,1,1.4,10.94c-.17-3,1.28-4.7,3.66-6a21.42,21.42,0,0,1,5.16-2.15c0,2.77.09,5.54.13,8.31C8.23,10.81,7,8.83,5,8.39c3.57,4.95,9.27,5.33,14.47,5.55,9.73.4,19.56.13,27.22-7.34-2.14.17-3.29,2.34-5.41,2.68Z"/>
        <path class="cls-3"
              d="M41.27,9.28c2.12-.34,3.27-2.51,5.41-2.68C39,14.07,29.19,14.34,19.46,13.94c-5.2-.22-10.9-.6-14.47-5.55,2,.44,3.24,2.42,5.36,2.75,1.59,1.41,3.69,1.35,5.51,1.42,6.22.24,12.55.88,18.61-1C36.74,10.88,39.42,11.22,41.27,9.28Z"/>
        <path class="cls-4"
              d="M32,27.44c.1.73-.87.94-.51,1.63a.52.52,0,0,0,.84-.05c1.39-2.05,3-1.36,4.49-.27a7.43,7.43,0,0,1,2.29,8.94,7.22,7.22,0,0,1-8.49,3.87c-3.62-1-5.46-3.82-5.17-8C25.71,30.44,28.45,27.82,32,27.44Z"/>
        <path class="cls-2"
              d="M30.93,26.37c-.76.06-1.7.51-1.46-.62.27-1.3,1.76-1.13,2.67-1.64.58-.33,1,.61.94,1.07C33,26.82,31.64,26.2,30.93,26.37Z"/>
    </g>
</svg>