<svg xmlns="http://www.w3.org/2000/svg" viewBox="0 0 54.92 100.81"><g id="Ebene_2" data-name="Ebene 2"><g id="Ebene_1-2" data-name="Ebene 1"><path d="M4.73,0c6.58,2.32,11.45,6.51,14.15,13,.33.79.64,1.31,1.54,1,3.15-1.14,6.41-1,9.66-.91a3.11,3.11,0,0,0,3.05-1.63C34.76,9.06,36.68,6.84,40.06,7c1.2,0,2.32.1,3.14,1.21a3.17,3.17,0,0,0,2.91,1.09c5-.12,7.82,2.21,8.19,7s.41,9.42.6,14.13c0,.83.11,1.94-.72,2.17-2.46.67-1.58,2.36-1.63,4-.32,10.07-2.22,19.75-8,28.27-2.14,3.18-5.18,5.54-8.3,7.76-1.9,1.35-2.71,8-1.19,9.69.76.84,1.59.58,2.47.24,1.42-.56,2.84-1.14,4.3-1.59,3.48-1.08,5.78.4,6.57,3.94S48.71,92.29,49,96c.07.93-.45,1.34-1.16,1.88a14.38,14.38,0,0,1-7.78,2.75c-7.79.55-15.53,0-22.9-3-3-1.22-4.87-2.92-4.28-6.51.27-1.68.11-3.42.44-5.14.81-4.17,2.5-5.46,6.66-5.4.85,0,2.59,2,2.84-.59.24-2.41-1.67-.7-2.5-1-1.66-.67-3.38-1-4.84-2.25C11.11,73.1,6.83,69.45,3.38,65A15.2,15.2,0,0,1,1.22,49.38a11.7,11.7,0,0,0,.42-8.29,19.77,19.77,0,0,1,1-14.29,7.16,7.16,0,0,0,.58-4C2.51,16.58,1.73,10.42.67,4.3.3,2.21,1.58,1,3.09,0ZM50.59,37c-.36-1.65.52-3.46-.79-4.78-2.78-2.79-4.68-6.17-6.6-9.55-1.24-2.17-1.65-2.18-3.2,0A2.65,2.65,0,0,1,38.38,24c-4.23.93-8.49-3-7.66-7.33.32-1.63-.33-1.8-1.65-1.9-2.29-.17-4.5.41-6.76.53C11.26,15.87.4,25.81,3.48,40.35a15.16,15.16,0,0,1-.39,8.95C.89,55.05,2,60.35,6,64.94a88.48,88.48,0,0,0,7.43,7.57C16.14,75,19,77.89,23.14,76.76c6.84-1.84,13-5.17,17.63-10.57C47.88,57.83,49.81,47.52,50.59,37ZM32.51,75.15a41.94,41.94,0,0,1-5.89,2.53,2.56,2.56,0,0,0-2.22,2.8c-.08,1.87-.34,3.71-2.39,4.54-.88-.77.76-1.71-.53-2.44-2-1.14-5.42-.11-6,2.14a19.73,19.73,0,0,0-.64,6c2.32,0,3.74-1.33,5.32-3.12-.07,4.07-4.17,3.56-5.43,5.85,1.94,1.69,3.23,2.23,6.47,3.25a1.83,1.83,0,0,0,2.58-1c.84-1.48,1.89-2.84,3.06-4.56.52,2-.57,3-1.29,4-1.1,1.62-.63,2.47,1.22,2.67,2.43.26,4.86.6,7.3.66,1.65,0,3.81.86,4.88-.55s-.67-2.76-1.31-4.11c-.25-.53.12-2,.43-1.6,1.69,2.11,1-.64,1.64-.74.43-.07.36-1.26,1.37-.91a4.81,4.81,0,0,1-.92,2.69c-.89,1.8.25,3.41,1,4.39s2.66-.16,4-.53a2.48,2.48,0,0,0,2.13-2.66,81,81,0,0,0-.65-9.22c-.26-2.37-2-3.4-4.27-2.72-1.29.39-2.56.86-3.8,1.37-3.69,1.51-6,0-6.06-4C32.49,78.4,32.51,76.89,32.51,75.15Zm5.88-63.1c1,0,1,.84,1.4,1.45,3,5.22,5.61,10.72,9.34,15.54A6.41,6.41,0,0,0,51.32,31c1.53.77,2.15.41,2-1.32-.43-4.24-.47-8.5-.68-12.75-.23-4.62-2.29-6.13-7.06-6a3.75,3.75,0,0,1-3.13-1.33c-1.71-2.16-3.56-1.44-5.24-.22a14.25,14.25,0,0,0-4.13,5c-2.74,5.09.82,8.75,5.5,8.28C34.84,19.05,38.46,15.58,38.39,12.05Zm-33.54,11c3.51-3.92,7-6.69,11.43-8.17,1.35-.46,1.06-1.47.78-2.45C15.87,8.35,8.87,2.61,4.57,2.16,2.7,2,1.93,2.31,2.38,4.53A111.28,111.28,0,0,1,4.85,23.09ZM39,15.44c-.44,2.1-1.06,3.73.37,5.08.23.22,1.74-.28,1.81-.64C41.53,18.1,40,17.14,39,15.44Z" style="fill:#6c6f62"/><path d="M50.59,37c-.78,10.52-2.71,20.83-9.82,29.19-4.6,5.4-10.79,8.73-17.63,10.57-4.19,1.13-7-1.78-9.74-4.25A88.48,88.48,0,0,1,6,64.94C2,60.35.89,55.05,3.09,49.3a15.16,15.16,0,0,0,.39-8.95C.4,25.81,11.26,15.87,22.31,15.29c2.26-.12,4.47-.7,6.76-.53,1.32.1,2,.27,1.65,1.9-.83,4.28,3.43,8.26,7.66,7.33A2.65,2.65,0,0,0,40,22.67c1.55-2.18,2-2.17,3.2,0,1.92,3.38,3.82,6.76,6.6,9.55C51.11,33.54,50.23,35.35,50.59,37Z" style="fill:#f2e7cd"/><path d="M32.51,75.15c0,1.74,0,3.25,0,4.76.06,4,2.37,5.56,6.06,4,1.24-.51,2.51-1,3.8-1.37,2.27-.68,4,.35,4.27,2.72a81,81,0,0,1,.65,9.22,2.48,2.48,0,0,1-2.13,2.66c-1.35.37-3.1,1.66-4,.53s-1.93-2.59-1-4.39A4.81,4.81,0,0,0,41,90.64c-1-.35-.94.84-1.37.91-.6.1,0,2.85-1.64.74-.31-.37-.68,1.07-.43,1.6.64,1.35,2.32,2.79,1.31,4.11s-3.23.59-4.88.55c-2.44-.06-4.87-.4-7.3-.66-1.85-.2-2.32-1-1.22-2.67.72-1.06,1.81-2,1.29-4-1.17,1.72-2.22,3.08-3.06,4.56a1.83,1.83,0,0,1-2.58,1c-3.24-1-4.53-1.56-6.47-3.25,1.26-2.29,5.36-1.78,5.43-5.85-1.58,1.79-3,3.16-5.32,3.12a19.73,19.73,0,0,1,.64-6c.62-2.25,4-3.28,6-2.14,1.29.73-.35,1.67.53,2.44,2-.83,2.31-2.67,2.39-4.54a2.56,2.56,0,0,1,2.22-2.8A41.94,41.94,0,0,0,32.51,75.15Z" style="fill:#f1e5cc"/><path d="M38.39,12.05c.07,3.53-3.55,7,.16,10.54-4.68.47-8.24-3.19-5.5-8.28a14.25,14.25,0,0,1,4.13-5c1.68-1.22,3.53-1.94,5.24.22a3.75,3.75,0,0,0,3.13,1.33c4.77-.12,6.83,1.39,7.06,6,.21,4.25.25,8.51.68,12.75.18,1.73-.44,2.09-2,1.32A6.41,6.41,0,0,1,49.13,29c-3.73-4.82-6.3-10.32-9.34-15.54C39.44,12.89,39.38,12.08,38.39,12.05Z" style="fill:#efd89f"/><path d="M4.85,23.09A111.28,111.28,0,0,0,2.38,4.53C1.93,2.31,2.7,2,4.57,2.16c4.3.45,11.3,6.19,12.49,10.31.28,1,.57,2-.78,2.45C11.88,16.4,8.36,19.17,4.85,23.09Z" style="fill:#efd89f"/><path d="M39,15.44c1.09,1.7,2.58,2.66,2.18,4.44-.07.36-1.58.86-1.81.64C37.89,19.17,38.51,17.54,39,15.44Z" style="fill:#efd89f"/></g></g></svg>