<svg xmlns="http://www.w3.org/2000/svg" viewBox="0 0 52.52 97.8"><g id="Ebene_2" data-name="Ebene 2"><g id="Ebene_1-2" data-name="Ebene 1"><path d="M10.42,10.6c-2-1.15.34-1.42.53-2.08.68-2.37,1.65-4.67,2.54-7C13.71,1,13.93.31,14.7.22c1-.1.81.76,1.11,1.25a52,52,0,0,0,3.19,5c1.8,2.34,3.82,4.2,7.28,3.64a22.14,22.14,0,0,1,6.49.21c1.28.18,1.31-.59,1.63-1.28a27.93,27.93,0,0,1,5.38-7.71c.54-.54,1-1.71,2.06-1.24A2.2,2.2,0,0,1,42.9,2.44C42.73,6.37,44,10,45,13.73c.63,2.2,2.14,3.75,3.41,5.4C52,23.66,52.59,29,52.52,34.26a53.74,53.74,0,0,1-6,24.49c-2.4,4.55-6.1,7.82-10.15,10.77-1.92,1.4-2.83,7.83-1.36,9.66.72.9,1.57.7,2.45.38,1.51-.57,3-1.24,4.54-1.71,3.31-1,5.66.54,6.41,3.9.84,3.77.32,7.59.58,11.39.05.83-.47,1.15-1.07,1.64a13.78,13.78,0,0,1-7.76,2.81c-7.87.59-15.7,0-23.15-3.06-2.88-1.19-4.67-2.89-4.14-6.35.26-1.68.09-3.42.42-5.13.86-4.51,3.15-6.18,7.64-5.33.84.16,1.71,1,1.91-.66.18-1.45-.56-1.12-1.57-1.19a9.6,9.6,0,0,1-5.48-2c-4.54-3.64-9-7.41-12.49-12s-4.18-10.06-2-15.61a12,12,0,0,0,.43-8c-2.31-8.47-.08-16,6.46-21.89,1.55-1.41,2.95-2.24-.05-3.62,1-.75,2.68-.37,2.35-2.07,1.22,0,1.79.39,1,1.61-.27.44-.9,1-.13,1.28s1.71-.32,2.51-.7c1-.46.66-1.38.6-2.14A1.59,1.59,0,0,0,13,9.3C11.89,9.14,11.36,10.33,10.42,10.6Zm40.2,22.84c-.67-4.31-.2-9.15-3.94-12.88-.9-.91-1.25-1-2.27-.34-1.62,1-4.16,2-5.24.76a37.14,37.14,0,0,0-6.05-5.45,1.28,1.28,0,0,1-.35-1.7c.68-1.17,0-1.41-1.08-1.7-3.1-.79-6.13,0-9.19.11C11.42,12.69.13,23,3.57,37.69a13.24,13.24,0,0,1-.39,8.18,14.92,14.92,0,0,0,3,16.37A87.11,87.11,0,0,0,13.3,69.4C16,71.82,18.76,74.87,23,73.76,29.88,72,36.1,68.64,40.7,63.27,47.91,54.85,49.84,44.43,50.62,33.44Zm-9.3,54a22.48,22.48,0,0,0-1.27,3.25c-.38,1.71.17,3.62,1.55,4.28,2.29,1.08,5.71-1.69,5.62-4.27s-.27-5.43-.55-8.12-2-3.65-4.59-2.82c-1.36.43-2.69,1-4,1.48-3,1.1-5.3-.34-5.5-3.53-.12-1.76,0-3.54,0-5.53a39.54,39.54,0,0,1-6,2.55c-1.73.43-2.08,1.35-2.18,2.84-.12,1.83-.32,3.69-2.42,4.48-.8-.81.83-1.74-.53-2.46-2.09-1.1-5.35-.07-6,2.21A18.79,18.79,0,0,0,15,85c-.11.94-.91,2.3.05,2.71s2.18-.45,3.2-1c.71-.42.67-1.53,1.66-1.73.51,1.28-.24,2.12-1.11,2.74s-2.11,1-3.06,1.69c-.43.3-1.64.77-.66,1.56a16,16,0,0,0,7.43,3c.85.15.86-.81,1.2-1.27,1-1.36,1.91-2.78,3.11-4.56.4,1.87-.43,2.74-1,3.71-1.47,2.32-1.26,2.85,1.52,3.17s5.59.53,8.39.59c4.21.09,4.34-.2,2.24-4a2.71,2.71,0,0,1-.47-1.78c.1-.6.73-.84.87-.42.56,1.67.65.4,1-.06C39.77,88.67,39.78,87.68,41.32,87.39ZM38.42,8c1.27,1.61.44,3.46.7,5.14.07.42-.12,1,.46,1.13s1-.47,1-1c.21-3.68,1.14-7.36.32-11.51a33.36,33.36,0,0,0-5.43,8.44,2.12,2.12,0,0,0,.32,2c.06.11.24.15.37.22.18-.39.31-1.08.55-1.12C38.9,11,37.4,9,38.42,8Zm4.2,2.32c-.58,2.79-1.11,5.41-1.69,8-.16.74-.54,1.47.7,1.51a3.06,3.06,0,0,0,2.93-3.89C43.93,14.08,43.29,12.24,42.62,10.29Zm-21.82.26a37.81,37.81,0,0,1-5.52-6,16.65,16.65,0,0,0,.34,2.77c.21,1.58-.73,3.83.48,4.56,1,.6,3-.51,4.55-.87C20.69,11,20.7,10.85,20.8,10.55Zm18.57,8.29c.84-2.52-2.79-3.5-.63-6.37-1.42.77-1.48,1.89-2.25,1.81s-1.25,0-1.37,1c-.15,1.15.85,1.2,1.33,1.22C37.85,16.5,38.42,17.5,39.37,18.84Z" style="fill:#6c6f62"/><path d="M50.62,33.44c-.78,11-2.71,21.41-9.92,29.83C36.1,68.64,29.88,72,23,73.76c-4.25,1.11-7-1.94-9.71-4.36a87.11,87.11,0,0,1-7.09-7.16,14.92,14.92,0,0,1-3-16.37,13.24,13.24,0,0,0,.39-8.18C.13,23,11.42,12.69,22.5,12.24c3.06-.12,6.09-.9,9.19-.11,1.12.29,1.76.53,1.08,1.7a1.28,1.28,0,0,0,.35,1.7A37.14,37.14,0,0,1,39.17,21c1.08,1.19,3.62.24,5.24-.76,1-.63,1.37-.57,2.27.34C50.42,24.29,50,29.13,50.62,33.44Z" style="fill:#f2e7cd"/><path d="M41.32,87.39c-1.54.29-1.55,1.28-2,1.9-.34.46-.43,1.73-1,.06-.14-.42-.77-.18-.87.42a2.71,2.71,0,0,0,.47,1.78c2.1,3.82,2,4.11-2.24,4-2.8-.06-5.61-.28-8.39-.59s-3-.85-1.52-3.17c.61-1,1.44-1.84,1-3.71-1.2,1.78-2.12,3.2-3.11,4.56-.34.46-.35,1.42-1.2,1.27a16,16,0,0,1-7.43-3c-1-.79.23-1.26.66-1.56.95-.66,2.11-1,3.06-1.69s1.62-1.46,1.11-2.74c-1,.2-1,1.31-1.66,1.73-1,.58-2.27,1.42-3.2,1S14.9,85.89,15,85a18.79,18.79,0,0,1,.4-3.2c.68-2.28,3.94-3.31,6-2.21,1.36.72-.27,1.65.53,2.46,2.1-.79,2.3-2.65,2.42-4.48.1-1.49.45-2.41,2.18-2.84a39.54,39.54,0,0,0,6-2.55c0,2-.1,3.77,0,5.53.2,3.19,2.52,4.63,5.5,3.53,1.35-.5,2.68-1,4-1.48,2.62-.83,4.31.16,4.59,2.82s.45,5.41.55,8.12S43.89,96,41.6,94.92c-1.38-.66-1.93-2.57-1.55-4.28A22.48,22.48,0,0,1,41.32,87.39Z" style="fill:#f1e5cc"/><path d="M38.42,8c-1,1,.48,3-1.67,3.34-.24,0-.37.73-.55,1.12-.13-.07-.31-.11-.37-.22a2.12,2.12,0,0,1-.32-2,33.36,33.36,0,0,1,5.43-8.44c.82,4.15-.11,7.83-.32,11.51,0,.5-.37,1.09-1,1s-.39-.71-.46-1.13C38.86,11.43,39.69,9.58,38.42,8Z" style="fill:#efd89f"/><path d="M42.62,10.29c.67,2,1.31,3.79,1.94,5.64a3.06,3.06,0,0,1-2.93,3.89c-1.24,0-.86-.77-.7-1.51C41.51,15.7,42,13.08,42.62,10.29Z" style="fill:#efd89f"/><path d="M20.8,10.55c-.1.3-.11.44-.15.45-1.55.36-3.58,1.47-4.55.87-1.21-.73-.27-3-.48-4.56a16.65,16.65,0,0,1-.34-2.77A37.81,37.81,0,0,0,20.8,10.55Z" style="fill:#efd89f"/><path d="M10.42,10.6c.94-.27,1.47-1.46,2.55-1.3a1.59,1.59,0,0,1,1.49,1.37c.06.76.41,1.68-.6,2.14-.8.38-1.63,1-2.51.7s-.14-.84.13-1.28c.76-1.22.19-1.63-1-1.61Z" style="fill:#b5a88b"/><path d="M39.37,18.84c-.95-1.34-1.52-2.34-2.92-2.37-.48,0-1.48-.07-1.33-1.22.12-.94.51-1.07,1.37-1s.83-1,2.25-1.81C36.58,15.34,40.21,16.32,39.37,18.84Z" style="fill:#b5a88b"/></g></g></svg>