<svg xmlns="http://www.w3.org/2000/svg" viewBox="0 0 61.99 92.77"><g id="Ebene_2" data-name="Ebene 2"><g id="Ebene_1-2" data-name="Ebene 1"><path d="M49.83,83.63c0,.37,0,.73,0,1.09.09,4.86-.5,5.73-5.32,6.91-9.16,2.26-18.06,1-26.75-2.28-2.8-1-4.5-2.82-4-6.16.27-1.68.07-3.42.4-5.14.89-4.66,3.19-6.36,7.82-5.32,1.16.26,1.67.4,1.77-.93s-.61-1-1.5-1c-3.53,0-6-2.2-8.44-4.36a65.37,65.37,0,0,1-9.58-9.6,15.33,15.33,0,0,1-2.1-15.6c1.07-2.77,1.6-5.36.36-8.29a12.32,12.32,0,0,1-.72-5.6C2,25.1,1.93,22.87.59,20.85a3.31,3.31,0,0,1-.22-3.39c1.43-2.18,1.81-4.85,2.31-7.07,1.23-5.53,4.63-5.91,9-5.58.43,0,.88-.57,1.37-.74,1.53-.54,3-1.12,4.23.76.93,1.38,2.56,1.46,4.17,1a34.27,34.27,0,0,1,12.89-.53,7.09,7.09,0,0,0,7-2.86c2-2.86,3.91-3.21,6.59-1.18a2.3,2.3,0,0,0,1.88.47c1.82-.16,3.88-.69,4.5,2,.13.58.78.73,1.36.67,1.37-.14,1.72.88,2.55,1.68,2.06,2,1.94,3.75,1.59,6.39-.23,1.67.62,4.17,1.58,6.1.52,1,.81,2.37.29,3.13-1.48,2.17-.47,4.38-.32,6.47.26,3.67-2.76,7.85-6.39,7.75-1.93-.05-2.23.79-2.47,2.34a53.84,53.84,0,0,1-4.08,13.39c-2.39,5.41-6.39,9.37-11.09,12.74-2,1.4-2.89,7.71-1.46,9.63.7.94,1.55.77,2.43.46,1.44-.51,2.84-1.12,4.29-1.59,3.69-1.18,5.93.22,6.74,4A30.74,30.74,0,0,1,49.83,83.63ZM35.09,7.53c-4-1.14-7.8-.61-11.66-.41C12.32,7.7,1.08,17.9,4.5,32.57A13.73,13.73,0,0,1,4.07,41,14.66,14.66,0,0,0,6.93,56.89a96.49,96.49,0,0,0,7.44,7.56c2.8,2.57,5.74,5.37,10,4.19a36.23,36.23,0,0,0,16.91-9.9c5.17-5.5,7.45-12.68,9.05-20,.34-1.53-.26-2.33-1.65-2.86s-2.8-1.26-3-2.82a4.32,4.32,0,0,0-1.82-3,4.23,4.23,0,0,1-1-5.83c.24-.42.92-.61.61-1.31-1-2.28.09-5.55-3.49-6.71-.67-.21-1.12-1.26-2.37-1.1a1.68,1.68,0,0,1-2-1.74c0-.5.26-1-.45-1.36C32.46,10.7,33.27,9.1,35.09,7.53Zm6.09,3.15c2,.45,2.18.46,2.1,1.89a11.08,11.08,0,0,0,1.3,6,2.06,2.06,0,0,1,.18,1.52c-.41,2.12.74,4.42-.95,6.47-.46.56,0,1.86.85,2.4,1.49,1,3.73,1.36,2.6,4.07-.09.22.86.82,1.26,1.3,2.65,3.13,5.27-1.7,8-.1.23.14,1.39-1,1.91-1.71a5.33,5.33,0,0,0,1.35-4.62c-.4-2-1.41-4.39.32-6.48.26-.32.06-1.05,0-1.59C60,16.35,56.68,13.27,59,9.53c.06-.11-.16-.57-.34-.63C56.84,8.27,57,5.22,54.36,5.6c-.32.05-.92-.42-1-.76-.87-2.64-2.56-2.32-4.42-1.28-.9.5-1.26,0-1.73-.61C45.91,1.17,44,1.09,42.64,2.78c-.78,1-1.3,2.45-2.57,2.66-1.92.31-3.59.55-3.63,3-4.17,2-.07,2.26.63,3.28a1.46,1.46,0,0,1,.08,1c-.08.42-.4,1,.33.95,2.09-.22,3.07,1.49,5.1,3-.82-1.56-1.35-2.62-.82-3.45C42.51,12.08,40.6,11.69,41.18,10.68ZM33.45,67.05a43.44,43.44,0,0,1-5.78,2.48,2.72,2.72,0,0,0-2.36,3c0,1.83-.42,3.56-2.27,4.43-1.14-.68.65-1.64-.51-2.4-1.53-1-5.25-.29-5.92,1.44a18.3,18.3,0,0,0-.87,6.69c2.34-.16,3.84-1.28,5.32-3.41a3.8,3.8,0,0,1-2.29,3.94c-1.11.56-3,.9-2.94,2,.1,1.45,2.1,1.67,3.32,2.34.47.26,1,.36,1.52.58,2,.9,3.66,1,4.62-1.6a17.29,17.29,0,0,1,2.38-3.38C28.33,85,27.22,86,26.5,87c-1.23,1.75-.59,2.6,1.3,2.8,2.7.29,5.4.6,8.11.67,4.77.12,4.76.05,2.79-4.33a3.85,3.85,0,0,1-.26-1.56c0-.39.57-.73.72-.42,1,2,1-.07,1.25-.32.48-.44.43-1.42,1.76-1.43a21.21,21.21,0,0,1-1.08,2.69c-1,1.76.16,3.39.9,4.44.9,1.27,2.65-.08,4-.41a2.6,2.6,0,0,0,2.26-2.85c0-3-.34-6-.65-8.94-.25-2.53-2-3.56-4.41-2.8-1.37.42-2.71.93-4,1.45-3.16,1.22-5.47-.17-5.66-3.52C33.37,70.78,33.45,69.06,33.45,67.05ZM2.34,21.46c1.91-3.26,3.47-6.37,5.84-8.9a23.29,23.29,0,0,1,9.06-5.84c-1-.88-1.7-2.39-2.77-1.62-2.05,1.48-4.28.63-6.35,1.08C6.61,6.52,4.42,6.8,5,9.46a1.51,1.51,0,0,1-.46,1.19c-2.13,1.9-1.52,4.83-2.67,7.12A4.28,4.28,0,0,0,2.34,21.46Z" style="fill:#6c6f62"/><path d="M35.09,7.53c-1.82,1.57-2.63,3.17,0,4.53.71.36.47.86.45,1.36a1.68,1.68,0,0,0,2,1.74c1.25-.16,1.7.89,2.37,1.1,3.58,1.16,2.49,4.43,3.49,6.71.31.7-.37.89-.61,1.31a4.23,4.23,0,0,0,1,5.83,4.32,4.32,0,0,1,1.82,3c.23,1.56,1.67,2.29,3,2.82s2,1.33,1.65,2.86c-1.6,7.31-3.88,14.49-9.05,20a36.23,36.23,0,0,1-16.91,9.9c-4.27,1.18-7.21-1.62-10-4.19a96.49,96.49,0,0,1-7.44-7.56A14.66,14.66,0,0,1,4.07,41a13.73,13.73,0,0,0,.43-8.43C1.08,17.9,12.32,7.7,23.43,7.12,27.29,6.92,31.11,6.39,35.09,7.53Z" style="fill:#f2e7cd"/><path d="M41.18,10.68c-.58,1,1.33,1.4.58,2.6-.53.83,0,1.89.82,3.45-2-1.55-3-3.26-5.1-3-.73.08-.41-.53-.33-.95a1.46,1.46,0,0,0-.08-1c-.7-1-4.8-1.32-.63-3.28,0-2.45,1.71-2.69,3.63-3,1.27-.21,1.79-1.68,2.57-2.66C44,1.09,45.91,1.17,47.17,3c.47.66.83,1.11,1.73.61,1.86-1,3.55-1.36,4.42,1.28.12.34.72.81,1,.76,2.59-.38,2.48,2.67,4.26,3.3.18.06.4.52.34.63-2.28,3.74,1,6.82,1.17,10.26,0,.54.23,1.27,0,1.59-1.73,2.09-.72,4.45-.32,6.48a5.33,5.33,0,0,1-1.35,4.62c-.52.7-1.68,1.85-1.91,1.71-2.73-1.6-5.35,3.23-8,.1-.4-.48-1.35-1.08-1.26-1.3,1.13-2.71-1.11-3.09-2.6-4.07-.83-.54-1.31-1.84-.85-2.4,1.69-2.05.54-4.35.95-6.47a2.06,2.06,0,0,0-.18-1.52,11.08,11.08,0,0,1-1.3-6C43.36,11.14,43.23,11.13,41.18,10.68Z" style="fill:#efd89f"/><path d="M33.45,67.05c0,2-.08,3.73,0,5.44.19,3.35,2.5,4.74,5.66,3.52,1.34-.52,2.68-1,4-1.45,2.44-.76,4.16.27,4.41,2.8.31,3,.63,5.93.65,8.94A2.6,2.6,0,0,1,46,89.15c-1.34.33-3.09,1.68-4,.41-.74-1-1.89-2.68-.9-4.44a21.21,21.21,0,0,0,1.08-2.69c-1.33,0-1.28,1-1.76,1.43-.26.25-.29,2.35-1.25.32-.15-.31-.71,0-.72.42a3.85,3.85,0,0,0,.26,1.56c2,4.38,2,4.45-2.79,4.33-2.71-.07-5.41-.38-8.11-.67-1.89-.2-2.53-1-1.3-2.8.72-1,1.83-2,1.17-3.82a17.29,17.29,0,0,0-2.38,3.38c-1,2.57-2.58,2.5-4.62,1.6-.5-.22-1.05-.32-1.52-.58-1.22-.67-3.22-.89-3.32-2.34-.07-1.14,1.83-1.48,2.94-2a3.8,3.8,0,0,0,2.29-3.94c-1.48,2.13-3,3.25-5.32,3.41A18.3,18.3,0,0,1,16.61,76c.67-1.73,4.39-2.43,5.92-1.44,1.16.76-.63,1.72.51,2.4,1.85-.87,2.23-2.6,2.27-4.43a2.72,2.72,0,0,1,2.36-3A43.44,43.44,0,0,0,33.45,67.05Z" style="fill:#f1e5cc"/><path d="M2.34,21.46a4.28,4.28,0,0,1-.43-3.69c1.15-2.29.54-5.22,2.67-7.12A1.51,1.51,0,0,0,5,9.46C4.42,6.8,6.61,6.52,8.12,6.18c2.07-.45,4.3.4,6.35-1.08,1.07-.77,1.75.74,2.77,1.62a23.29,23.29,0,0,0-9.06,5.84C5.81,15.09,4.25,18.2,2.34,21.46Z" style="fill:#efd89f"/></g></g></svg>