<svg xmlns="http://www.w3.org/2000/svg" viewBox="0 0 52.78 88.37"><g id="Ebene_2" data-name="Ebene 2"><g id="Ebene_1-2" data-name="Ebene 1"><path d="M0,40.42c1.76-4,3.33-7.83,1.73-12.49S.89,18.26,3.16,13.72c.86-1.74.6-3.54.64-5.34C3.93,3.05,6.4.9,11.65,1.64A5.68,5.68,0,0,0,15,.69a5.6,5.6,0,0,1,5.43,0A3.47,3.47,0,0,0,23,1.06,32.34,32.34,0,0,1,40,2.67a4.11,4.11,0,0,0,2.78.2C48,1.32,51.05,4.2,50.11,9.62c-.12.67-.62,1.2-.23,2,5.12,11.12,2.63,22.05-1,32.89-2.22,6.59-6.56,11.59-12.22,15.51-2,1.39-2.93,7.67-1.5,9.63.69.94,1.54.79,2.42.48,1.44-.5,2.84-1.12,4.3-1.59,3.7-1.18,5.93.21,6.75,3.93s.29,7.42.55,11.12c.06.79-.37,1.17-1,1.69a13.67,13.67,0,0,1-7.76,2.82c-7.78.62-15.52,0-22.91-2.93-3.09-1.24-5.07-2.94-4.45-6.66.27-1.59.09-3.24.4-4.87.89-4.66,3.17-6.29,7.86-5.3.89.18,1.51.64,1.7-.69s-.37-1.25-1.51-1.24c-3.74,0-6.29-2.44-8.85-4.72-3.58-3.2-7.19-6.38-10-10.35C1.36,49.52,1.2,47.2,0,45.32ZM36.9,3.77c-2.2-1.28-4.46-.86-6.56-1.31-2.51-.55-5.05.26-7.58.36C11.54,3.23.23,13.63,3.8,28.46a12.61,12.61,0,0,1-.41,7.91c-2.34,6-1.32,11.53,2.94,16.4a87.5,87.5,0,0,0,10.41,10,7.33,7.33,0,0,0,7.16,1.48c9.19-3.2,17.23-7.9,21.55-17.31a60.55,60.55,0,0,0,5.16-20.08,28.75,28.75,0,0,0-1.86-13.27c-1.55,3.16-3,6-4.31,8.78a5.76,5.76,0,0,1-5.74,3.34c-2.48-.09-3.63-2-4.46-4.12-1.77-4.61-1.65-9.79-4.47-14.1-.86-1.3.34-2.28,1.53-2.95C33,3.57,34.86,4.05,36.9,3.77ZM41.19,78a4.74,4.74,0,0,1-.89,2.9c-.9,1.8.25,3.4,1,4.39s2.66-.15,4-.53a2.47,2.47,0,0,0,2.13-2.65,76.64,76.64,0,0,0-.65-9.22c-.27-2.37-2-3.41-4.26-2.73-1.29.39-2.56.86-3.81,1.37-3.68,1.51-6,0-6.06-4,0-1.5,0-3,0-4.74a47.42,47.42,0,0,1-5.64,2.39c-1.78.5-2.5,1.37-2.51,3.19s-.42,3.51-2.35,4.28c-.88-.77.78-1.72-.52-2.44-1.85-1-5.27-.14-6,1.88a21.22,21.22,0,0,0-.79,6.31c2.33-.07,3.83-1.31,5.41-3.25-.16,4.11-4.18,3.67-5.53,6,2.07,1.93,4.75,2.55,7.3,3.4.86.28,1.23-.29,1.65-1,.94-1.54,2-3,3.3-4.9.39,2.1-.63,3.09-1.37,4.15-1.1,1.61-.65,2.48,1.22,2.66,2.79.28,5.58.63,8.38.7,4.83.12,4.85,0,2.72-4.19a2.67,2.67,0,0,1-.36-1.55c.07-.59.71-.89.85-.52.43,1.12.52,1.12,1,0C39.81,79.24,40,78.32,41.19,78ZM48.61,8c.16-2.4-.89-4.44-3.26-3.92A45.65,45.65,0,0,1,33,5.36c-.08,0-.17.07-.25.09-2.05.49-2.17,1.61-1,3.12a13,13,0,0,1,2.12,5.21,41.26,41.26,0,0,0,1.82,7c.66,1.58,1.4,3.11,3.28,3.17A4.28,4.28,0,0,0,43,21.34c1.76-3.64,3.51-7.3,5.18-11A9.19,9.19,0,0,0,48.61,8ZM5.13,10.58C6,8.91,6.5,7.68,8.21,6.72,11.61,4.79,14.87,2.78,19,2a2.22,2.22,0,0,0-3-.39A9.78,9.78,0,0,1,12,2.84C6.44,2.84,5.09,4.32,5.13,10.58Z" style="fill:#6c6f62"/><path d="M36.9,3.77c-2,.28-3.91-.2-5.6.73-1.19.67-2.39,1.65-1.53,3,2.82,4.31,2.7,9.49,4.47,14.1.83,2.16,2,4,4.46,4.12a5.76,5.76,0,0,0,5.74-3.34c1.36-2.82,2.76-5.62,4.31-8.78a28.75,28.75,0,0,1,1.86,13.27A60.55,60.55,0,0,1,45.45,46.9C41.13,56.31,33.09,61,23.9,64.21a7.33,7.33,0,0,1-7.16-1.48,87.5,87.5,0,0,1-10.41-10C2.07,47.9,1.05,42.38,3.39,36.37a12.61,12.61,0,0,0,.41-7.91C.23,13.63,11.54,3.23,22.76,2.82c2.53-.1,5.07-.91,7.58-.36C32.44,2.91,34.7,2.49,36.9,3.77Z" style="fill:#f2e7cd"/><path d="M41.19,78c-1.23.33-1.38,1.25-1.68,1.92-.49,1.09-.58,1.09-1,0-.14-.37-.78-.07-.85.52A2.67,2.67,0,0,0,38,82c2.13,4.23,2.11,4.31-2.72,4.19-2.8-.07-5.59-.42-8.38-.7-1.87-.18-2.32-1-1.22-2.66.74-1.06,1.76-2,1.37-4.15-1.3,1.91-2.36,3.36-3.3,4.9-.42.68-.79,1.25-1.65,1-2.55-.85-5.23-1.47-7.3-3.4,1.35-2.34,5.37-1.9,5.53-6-1.58,1.94-3.08,3.18-5.41,3.25A21.22,21.22,0,0,1,15.72,72c.68-2,4.1-2.92,6-1.88,1.3.72-.36,1.67.52,2.44,1.93-.77,2.35-2.48,2.35-4.28s.73-2.69,2.51-3.19a47.42,47.42,0,0,0,5.64-2.39c0,1.72,0,3.24,0,4.74.06,4,2.38,5.56,6.06,4,1.25-.51,2.52-1,3.81-1.37,2.26-.68,4,.36,4.26,2.73a76.64,76.64,0,0,1,.65,9.22,2.47,2.47,0,0,1-2.13,2.65c-1.35.38-3.11,1.66-4,.53s-1.94-2.59-1-4.39A4.74,4.74,0,0,0,41.19,78Z" style="fill:#f1e5cc"/><path d="M48.61,8a9.19,9.19,0,0,1-.39,2.38C46.55,14,44.8,17.7,43,21.34A4.28,4.28,0,0,1,39,24c-1.88-.06-2.62-1.59-3.28-3.17a41.26,41.26,0,0,1-1.82-7,13,13,0,0,0-2.12-5.21c-1.16-1.51-1-2.63,1-3.12.08,0,.17-.09.25-.09A45.65,45.65,0,0,0,45.35,4.05C47.72,3.53,48.77,5.57,48.61,8Z" style="fill:#efd89f"/><path d="M5.13,10.58c0-6.26,1.31-7.74,6.83-7.74a9.78,9.78,0,0,0,4.12-1.19A2.22,2.22,0,0,1,19,2c-4.16.74-7.42,2.75-10.82,4.68C6.5,7.68,6,8.91,5.13,10.58Z" style="fill:#efd89f"/></g></g></svg>