<svg xmlns="http://www.w3.org/2000/svg" viewBox="0 0 79.03 72.81"><g id="Ebene_2" data-name="Ebene 2"><g id="Ebene_1-2" data-name="Ebene 1"><path d="M70.6,50.82a1.35,1.35,0,0,1-.78.62A34.85,34.85,0,0,1,59.8,53a9.89,9.89,0,0,0,4.66-5.45c2.12-5.32,4.26-10.63,6.46-15.91.92-2.2,2-4.73,1.32-6.76-1.34-4.13.34-7.53,1.48-11.11.88-2.75,1.3-6,5.11-6.5,0,0,.07-.14.2-.4-3.8-.22-2.07-2.45-1.57-4.26.07-.25.24-.48.32-.73.22-.67.55-1.45-.37-1.82C76.65-.23,76.2.48,76,1c-.74,1.79-2,3.33-2.4,5.28-2.68-.2-5.45.56-8.09-.52.43-1.44,2.23-1.15,2.55-2.79-5.4.72-10.6-1.49-15.89,0-1.53.44-3,1.45-4.67,1.08-4.16-.93-8,.21-11.7,1.79-1,.43-1.43-.13-2.13-.43-2.32-1-4.16-3-7.22-3.63a22.15,22.15,0,0,0,4.7,5.32c1.43,1.3,1,2.12-.38,2.83a3.08,3.08,0,0,1-3.47-.05c-2.67-1.81-5.44-3.47-8.2-5.14-.58-.36-1.16-1.31-2.09-.34,1.93,2.13,3.47,4.58,5.87,6.24a3.08,3.08,0,0,0,.44,1c1.24,1.26,2,2.48.14,3.85a1.48,1.48,0,0,0-.48.94c-.25,2.28-1.5,2.66-3.42,1.88a6.36,6.36,0,0,0-1.3-.33C14,17.27,9.9,16.09,5.52,16c4,2.46,8.19,4.63,12.32,6.84,1,.53,2.31.72,1.85,2.58s-1.74,1-2.57,1c-5.7.09-11.41,0-17.12,0v1.09a11.19,11.19,0,0,1,2.11.19c5.53,1.66,11,3.45,16.58,5a3.69,3.69,0,0,1,2.81,2.7,47,47,0,0,0,8.85,15.23c.14.25.75.35.4.73s-.66.09-.83-.32l-9.51-1.74C24.75,52.9,30.1,54.17,35,56.85,29.43,58.94,23.72,60,18.65,63c2.68.68,5.32.42,8,.39,3.81,0,8.13-2.8,11.3,1.71a1.73,1.73,0,0,0,1.2.54c4.12.12,4.38,3,4.49,6.1,0,.42-.1.93.69,1.07a10.21,10.21,0,0,0,2.52-3.93C48.34,65,54,63.48,57.51,65.75a36.89,36.89,0,0,0,8.26,4,18.29,18.29,0,0,0-2.15-3.38,5.53,5.53,0,0,1-2.37-2.71c-.33-.37-.67-.74-1-1.11-2.33-2.71-2.37-2.8.9-4.38l.74-.34a1,1,0,0,1,1-.12A5.44,5.44,0,0,1,66.1,56a4.86,4.86,0,0,1,.59-.42c.92-.53,1.92-.56,2.45-1.3.71-1,1.21-2,1.94-3A4.72,4.72,0,0,1,70.6,50.82ZM73.34,8.17c.25-.55.8-1.15.28-1.85,1.34.33,1.23,1.11.8,2.21-.73,1.89-1.28,3.86-1.93,5.79s-1.25,3.67-1.92,5.6c-1.9-.59-2.37-1.46-1.31-3.34C70.78,13.87,72,11,73.34,8.17ZM66,8.43c0-.63-.07-1.23,1-1.17,1.77.11,3.55,0,5.33,0l0,.81L67,9.5C66.07,9.74,66,9.15,66,8.43ZM71.6,9.77C70.21,12.51,69,15,67.74,17.43c-.28.57-.46,1.19-1.19,1.31-6.16,1-5.71,2.47-8.75,7.53,0-2.54,0-4.44,0-6.34,0-1.11.71-1.32,1.52-1.53a8.89,8.89,0,0,0,5.59-4.81C66.69,10.31,67.16,10,71.6,9.77Zm-26.79-5c.83-.17,1.13.46.49,1.17q-1.72,1.89-3.5,3.75c-.42.44-.79.13-1.18-.1-1.3-.78-2.6-1.54-4.29-2.53C39.28,5.33,42.13,5.36,44.81,4.79Zm-21.93,5.9c.74-1.18-.74-1.53-.86-2.46.83-.52,1.2.41,1.72.72,3.87,2.35,7.72,4.75,11.57,7.15A7.09,7.09,0,0,1,37,17.43c1.26,1.46.78,2.83-.47,4s-2.35.87-3.45-.35c-2-2.27-3.77-4.83-6.29-6.63C25.86,12.8,25,11.12,22.88,10.69Zm3.86,3.78C26.39,16.26,28,16.9,28.84,18c.34.45.73.91.48,1.45-.34.73-.9.22-1.37.08a1.94,1.94,0,0,0-.54-.05c-1.38.14-3.47.57-3.71-.85A3.66,3.66,0,0,1,26.74,14.47ZM11.13,18.05l.1-.33c2.94.57,5.91,1,8.81,1.75,2.63.67,5.27,1.16,7.93,1.57a2.07,2.07,0,0,1,2,1.9c.12,1.21.42,2.49-.72,3.55s-1.92.18-2.69-.22C21.36,23.58,16.25,20.8,11.13,18.05ZM6.44,28.11a5.2,5.2,0,0,1-.88-.52h17.7a2.29,2.29,0,0,1,2.35,1.85,2.8,2.8,0,0,1-.47,3,2.41,2.41,0,0,1-2.55.42Q14.52,30.49,6.44,28.11Zm16.14,6.34c4.28-.88,5.16-2.42,3.66-6.65,1.9.4,3.67.32,4.56-1.58.74-1.59.14-3.31-.05-4.93.83-.25,1.11.31,1.5.65,2.08,1.86,4,1.78,5.52-.25a4,4,0,0,0-.84-5.91c-1.28-.85-2.65-1.57-3.88-2.47-.69-.5-2.33-.43-1.19-2.24,1-1.59,1.74-1.46,2.91-.43.14.13.5,0,.77,0-.41-1.53-2.09-2.07-2.7-3.45-.17-.27-.51-.74-.49-.76.49-.39.73,0,.95.36,3.73,1.58,6.93,4.06,10.47,6a3.68,3.68,0,0,0,2,.71,1,1,0,0,0-.48-1.13c-2.8-2-2.95-2.24-.28-4.34,4.51-3.55,9.63-5.3,15.41-3.66,2.67.75,4.45,3.36,4.12,5.56C63.79,15,61,16.85,58.19,17.45c-1.65.34-.31-1.68-1.7-2.17-.11,6.66,1.94,13.44-2.27,19.6l1,.18c1.82-3.87,3.63-7.76,5.47-11.62A5.93,5.93,0,0,1,66.59,20a4,4,0,0,1,4.34,4.16A15.32,15.32,0,0,1,70,31c-2.46,5.73-4.7,11.55-7.27,17.22a6,6,0,0,1-9.89,2c-1.06-1-.53-2.61-.26-3.88a19.77,19.77,0,0,0,.15-6.13c-2.12,2.56-2.73,5.13-3.52,7.52a3.33,3.33,0,0,1-3.54,2.65,15.22,15.22,0,0,0-6.78,1.66,5.39,5.39,0,0,1-6.66-1.42A44.59,44.59,0,0,1,22.58,34.45Zm29,10.39A117.46,117.46,0,0,0,51.19,57c-3.47.6-4.42-1.34-3-4.07C49.52,50.34,50.36,47.52,51.62,44.84Zm-25.22,7,.08-.26c4.95,1.07,9.88,2.23,14.85,3.18,1.64.31,1.26,1.36,1.12,2.21-.19,1.13-1,1.3-2.07.85C35.73,55.85,31.06,53.87,26.4,51.88ZM35,61.3c-4.06.51-8.15.88-12.22,1.3,0-.19-.08-.38-.13-.58,4.05-1.29,8.08-2.62,12.14-3.86a1.29,1.29,0,0,1,1.73,1.22A1.65,1.65,0,0,1,35,61.3Zm9.81,8.94c-1.26-3.48-.92-4.08,2.1-3.69A11.24,11.24,0,0,1,44.77,70.24Zm8.51-6.87a26.92,26.92,0,0,1-11.14,1.84c-3.81-.24-4.93-1.49-4.58-5.28a8.34,8.34,0,0,0-.36-2.06c2.18,0,5,3.62,6.36-.75.66-2.1.1-2.56-3.64-3.85,1.11-1.14,2.59-1.3,3.9-1.59,3-.66,3.46-.08,2.65,2.84-.48,1.71.5,2.66,1.71,3.27s2.46,1.06,3-.81c1.18-.73,1.23-1.93,1.13-3.08-.23-2.5.88-2.58,2.67-1.59.63.34,1.25.7,2.09,1.17-1.14,1-2.26,1.9-2,3.52.1.7.25,1.24,1.12,1.1C57.07,61.65,56.92,62,53.28,63.37Zm8.41,2.84c.21.08.46.17.27.44,0,0-.36-.1-.55-.17L55.77,64c.38-1.25,1.84-1.29,2.3-2.53C59,63.33,61,64.26,61.69,66.21ZM56.2,58.08c-.46-2.3.42-3.14,2.83-3.34,2.92-.23,5.79-1.1,8.78-1.37C63.93,55,60.89,58.5,56.2,58.08Z" style="fill:#6c6f62"/><path d="M45.78,13.48a1,1,0,0,0-.48-1.13c-2.8-2-2.95-2.24-.28-4.34,4.51-3.55,9.63-5.3,15.41-3.66,2.67.75,4.45,3.36,4.12,5.56C63.79,15,61,16.85,58.19,17.45c-1.65.34-.31-1.68-1.7-2.17-.11,6.66,1.94,13.44-2.27,19.6l1,.18c1.82-3.87,3.63-7.76,5.47-11.62A5.93,5.93,0,0,1,66.59,20a4,4,0,0,1,4.34,4.16A15.32,15.32,0,0,1,70,31c-2.46,5.73-4.7,11.55-7.27,17.22a6,6,0,0,1-9.89,2c-1.06-1-.53-2.61-.26-3.88a19.77,19.77,0,0,0,.15-6.13c-2.12,2.56-2.73,5.13-3.52,7.52a3.33,3.33,0,0,1-3.54,2.65,15.22,15.22,0,0,0-6.78,1.66,5.39,5.39,0,0,1-6.66-1.42,44.59,44.59,0,0,1-9.62-16.22c4.28-.88,5.16-2.42,3.66-6.65,1.9.4,3.67.32,4.56-1.58.74-1.59.14-3.31-.05-4.93.83-.25,1.11.31,1.5.65,2.08,1.86,4,1.78,5.52-.25a4,4,0,0,0-.84-5.91c-1.28-.85-2.65-1.57-3.88-2.47-.69-.5-2.33-.43-1.19-2.24,1-1.59,1.74-1.46,2.91-.43.14.13.5,0,.77,0h-.07c0,.35-.13.81,0,1a45.94,45.94,0,0,0,7.69,8c1,.84,2.5.61,2.57-1.35h0c1.73,0,1.67-1.26,1.68-2.44s.05-2.42-1.68-2.42Z" style="fill:#b9ab8c"/><path d="M51.19,57c1.19-.73,1.24-1.93,1.14-3.09-.23-2.5.88-2.58,2.67-1.59.63.34,1.25.7,2.09,1.17-1.14,1-2.26,1.9-2,3.52.1.7.25,1.25,1.14,1.1l0,0c.9,3.57.75,3.94-2.9,5.29a26.92,26.92,0,0,1-11.14,1.84c-3.81-.24-4.93-1.49-4.58-5.28a8.34,8.34,0,0,0-.36-2.06c2.18,0,5,3.62,6.36-.75.66-2.1.1-2.56-3.64-3.85,1.11-1.14,2.59-1.3,3.9-1.59,3-.66,3.46-.08,2.65,2.84-.48,1.71.5,2.66,1.71,3.27s2.46,1.07,3-.81Zm3.6,4.06c-5.66-1.9-13.29-.52-15.27,2.69C44.58,61.61,49.48,60.05,54.79,61.05Z" style="fill:#b8ab8b"/><path d="M26.75,14.47c-.89-1.67-1.77-3.36-3.88-3.78h0c.74-1.19-.74-1.54-.86-2.47.83-.52,1.2.41,1.72.72,3.87,2.35,7.72,4.75,11.57,7.15A7.09,7.09,0,0,1,37,17.43c1.26,1.46.78,2.83-.47,4s-2.35.87-3.45-.35c-2-2.27-3.77-4.83-6.3-6.63Z" style="fill:#f8f3e8"/><path d="M11.23,17.72c2.94.57,5.91,1,8.81,1.75,2.63.67,5.27,1.16,7.93,1.57a2.07,2.07,0,0,1,2,1.9c.12,1.21.42,2.49-.72,3.55s-1.92.18-2.69-.22c-5.16-2.69-10.27-5.47-15.39-8.22Z" style="fill:#f8f3e8"/><path d="M5.56,27.59h17.7a2.29,2.29,0,0,1,2.35,1.85,2.8,2.8,0,0,1-.47,3,2.41,2.41,0,0,1-2.55.42q-8.07-2.39-16.15-4.77A5.2,5.2,0,0,1,5.56,27.59Z" style="fill:#f8f3e8"/><path d="M35.54,10.66c-.41-1.53-2.09-2.07-2.7-3.45l.46-.4c3.73,1.58,6.93,4.06,10.47,6a3.68,3.68,0,0,0,2,.71l0-.05a5.37,5.37,0,0,1,0,4.86h0c-1.27.73-2.15.4-3.2-.67-2.33-2.35-4.39-5-7.1-7Z" style="fill:#f8f3e8"/><path d="M26.48,51.62c4.95,1.07,9.88,2.23,14.85,3.18,1.64.31,1.26,1.36,1.12,2.21-.19,1.13-1,1.3-2.07.85-4.65-2-9.32-4-14-6Z" style="fill:#f8f3e8"/><path d="M22.61,62c4.05-1.29,8.08-2.62,12.14-3.86a1.29,1.29,0,0,1,1.73,1.22A1.65,1.65,0,0,1,35,61.3c-4.06.51-8.15.88-12.22,1.3Z" style="fill:#f8f3e8"/><path d="M51.2,57c-3.48.61-4.44-1.34-3-4.07,1.34-2.57,2.18-5.39,3.44-8.07A117.66,117.66,0,0,0,51.19,57Z" style="fill:#f8f3e8"/><path d="M56.2,58.1c-.46-2.32.42-3.16,2.83-3.36,2.92-.23,5.79-1.1,8.78-1.37-3.89,1.59-6.93,5.15-11.63,4.71Z" style="fill:#f8f3e8"/><path d="M36.33,7.08c3-1.75,5.8-1.72,8.48-2.29.83-.17,1.13.46.49,1.17q-1.72,1.89-3.5,3.75c-.42.44-.79.13-1.18-.1C39.32,8.83,38,8.07,36.33,7.08Z" style="fill:#b6a98a"/><path d="M73.58,6.31c1.39.33,1.27,1.11.84,2.22-.73,1.89-1.28,3.86-1.93,5.79s-1.25,3.67-1.92,5.6c-1.9-.59-2.37-1.46-1.31-3.34C70.78,13.87,72,11,73.34,8.17c.25-.56.82-1.17.26-1.87Z" style="fill:#f8f3e8"/><path d="M26.74,14.47C26.39,16.26,28,16.9,28.84,18c.34.45.73.91.48,1.45-.34.73-.9.22-1.37.08a1.94,1.94,0,0,0-.54-.05c-1.38.14-3.47.57-3.71-.85a3.65,3.65,0,0,1,3.05-4.14Z" style="fill:#b8ab8b"/><path d="M61.41,66.49,55.77,64c.38-1.25,1.84-1.29,2.3-2.53,1,1.89,2.94,2.82,3.62,4.77Z" style="fill:#f8f3e8"/><path d="M72.32,8.1,67,9.5c-.94.24-1.06-.35-1-1.07s-.07-1.23,1-1.17c1.77.11,3.55,0,5.33,0Z" style="fill:#f8f3e8"/><path d="M46.87,66.55a11.24,11.24,0,0,1-2.1,3.69C43.51,66.76,43.85,66.16,46.87,66.55Z" style="fill:#f8f3e8"/><path d="M30.35,50.69c.14.25.75.35.4.73s-.66.09-.83-.32Z" style="fill:#fefefe"/><path d="M32.84,7.21c-.17-.27-.51-.74-.49-.76.49-.39.73,0,.95.36Z" style="fill:#f8f3e8"/><path d="M61.69,66.21c.21.08.46.17.27.44,0,0-.36-.1-.55-.17Z" style="fill:#f8f3e8"/><path d="M35.47,10.65c2.71,2,4.77,4.61,7.1,7,1,1.07,1.93,1.4,3.2.67-.07,2-1.53,2.19-2.57,1.35a45.94,45.94,0,0,1-7.69-7.95C35.34,11.46,35.48,11,35.47,10.65Z" style="fill:#6c6f62"/><path d="M45.76,18.29a5.37,5.37,0,0,0,0-4.86c1.73,0,1.69,1.23,1.68,2.42S47.49,18.28,45.76,18.29Z" style="fill:#6c6f62"/><path d="M54.79,61.05c-5.31-1-10.21.56-15.27,2.69C41.5,60.53,49.13,59.15,54.79,61.05Z" style="fill:#6c6f62"/></g></g></svg>