<svg xmlns="http://www.w3.org/2000/svg" viewBox="0 0 44.02 87.7"><g id="Ebene_2" data-name="Ebene 2"><g id="Ebene_1-2" data-name="Ebene 1"><path d="M11.18,0c1.55,3.83,1.25,8,2.74,11.74.95,2.41,1.95,3.3,4.69,2.6a25.58,25.58,0,0,1,11.08.12C38.4,16.07,44.23,23.29,44,34.06a45.43,45.43,0,0,1-5.44,21.39,25.37,25.37,0,0,1-7.41,7.85c-1.95,1.46-3.07,5.82-2.11,8a1.53,1.53,0,0,0,2.15,1c.43-.15.83-.37,1.25-.53,6.06-2.39,8.27-1,8.51,5.49a21.8,21.8,0,0,0,.09,3.8c.74,3.29-1.09,4.64-3.8,5.42-8.2,2.35-16.11,1.05-23.85-2-1.9-.76-3.08-2.15-2.72-4.46.2-1.34,0-2.73.24-4.07.78-4.66,1.78-5.42,6.52-5.18.58,0,1.3.52,1.51-.49.12-.58.1-1.08-.71-1.11-5.57-.17-8.36-4.64-12-7.8C3.16,58.62.65,55.51.1,51.12a15.59,15.59,0,0,1,1.07-7.44,9.13,9.13,0,0,0,.24-5.8c-2-7.52-.16-14,5.81-19.12a3.24,3.24,0,0,0,1.33-3A42.15,42.15,0,0,1,11.18,0Zm.62,10.87c.09.13,0,.58.38.17l-.36-.19c-.23-2.16-.45-4.31-.68-6.47C11.08,6.58,9.46,9,11.8,10.87Zm4.45,5.18a8.89,8.89,0,0,0,2.54,3.69,5.08,5.08,0,0,1-.24,7.06c-1.55,1.47-3.81,1-5.9-1.15a10,10,0,0,1-2.4-4.2c-.59-2.11-1.31-2.26-2.78-.75A16.83,16.83,0,0,0,2.94,37a10.93,10.93,0,0,1-.34,7.12A11.91,11.91,0,0,0,4.45,56.84a55.53,55.53,0,0,0,9.77,9.42,5.63,5.63,0,0,0,5.12,1.15c5.7-1.74,11.09-4.35,14.88-9,6.23-7.66,8.21-16.9,8-26.5C41.94,22.71,37.58,17.8,29.09,16,24.88,15,20.67,15.41,16.25,16.05Zm.52,60.57c-.1,2.44-1.79,2.84-3.14,3.61-.71.41-2,1-.55,1.86a29.48,29.48,0,0,0,5.23,2.23c1.56.54,1.19-1.92,2.91-1.83-1.21,2.71.72,2.59,2.4,2.71,2,.15,4,.38,6,.42,3.62.06,3.62,0,2.09-3.41-.26-.58-.48-1.15-.05-1.65,1.31.28,1.54,1.36,1.95,2.36.47,1.17.6,2.78,2.67,2.12,1.74-.55,3.66-.74,3.35-3.35-.25-2.16-.31-4.34-.56-6.5-.32-2.84-1.56-3.6-4.22-2.69C28,74.8,28,74.8,27.14,67.75c-.13-1.07-.43-1.58-1.5-1-2.41,1.24-5.77,1.5-5.51,5.47a2.39,2.39,0,0,1-.7,1.43c-.3.36-1,.91-1.1-.07-.27-2.48-2.12-1.52-3.33-1.5-1.49,0-2.2,1.26-2.25,2.63s-1.19,3.31,0,4.09C14.22,79.73,15.36,77.82,16.77,76.62Zm-5.33-57.3c-.4,1,.17,1.75.46,2.46a3.41,3.41,0,0,0,5.71,1.08c.54-.53,1.15-1.29.45-1.82s-1-2.24-2.11-1.6C14.33,20.35,13,19.42,11.44,19.32ZM10.2,11.78a24.77,24.77,0,0,0,0,3.56A3.5,3.5,0,0,0,14,18.54c1.37.06,1.89-.35,1.09-1.71C13.89,14.84,13.06,12.58,10.2,11.78Zm4.51,13.47c2.31,1.4,3.05,1.14,3.63-1.22A10.26,10.26,0,0,1,14.71,25.25Z" style="fill:#747568"/><path d="M16.25,16.05c4.42-.64,8.63-1,12.84-.09,8.49,1.84,12.85,6.75,13.09,15.92.25,9.6-1.73,18.84-8,26.5-3.79,4.68-9.18,7.29-14.88,9a5.63,5.63,0,0,1-5.12-1.15,55.53,55.53,0,0,1-9.77-9.42A11.91,11.91,0,0,1,2.6,44.08,10.93,10.93,0,0,0,2.94,37,16.83,16.83,0,0,1,7.47,20.7c1.47-1.51,2.19-1.36,2.78.75a10,10,0,0,0,2.4,4.2c2.09,2.17,4.35,2.62,5.9,1.15a5.08,5.08,0,0,0,.24-7.06A8.89,8.89,0,0,1,16.25,16.05Z" style="fill:#f2e6cc"/><path d="M16.77,76.62c-1.41,1.2-2.55,3.11-4,2.16-1.21-.78-.08-2.69,0-4.09s.76-2.6,2.25-2.63c1.21,0,3.06-1,3.33,1.5.1,1,.8.43,1.1.07a2.39,2.39,0,0,0,.7-1.43c-.26-4,3.1-4.23,5.51-5.47,1.07-.56,1.37,0,1.5,1,.88,7,.9,7,7.68,4.75,2.66-.91,3.9-.15,4.22,2.69.25,2.16.31,4.34.56,6.5.31,2.61-1.61,2.8-3.35,3.35-2.07.66-2.2-1-2.67-2.12-.41-1-.64-2.08-1.95-2.36-.43.5-.21,1.07.05,1.65,1.53,3.42,1.53,3.47-2.09,3.41-2,0-4-.27-6-.42-1.68-.12-3.61,0-2.4-2.71-1.72-.09-1.35,2.37-2.91,1.83a29.48,29.48,0,0,1-5.23-2.23c-1.48-.86-.16-1.45.55-1.86C15,79.46,16.67,79.06,16.77,76.62Z" style="fill:#eee3ca"/><path d="M11.44,19.32c1.57.1,2.89,1,4.51.12,1.15-.64,1.4,1,2.11,1.6s.09,1.29-.45,1.82a3.41,3.41,0,0,1-5.71-1.08C11.61,21.07,11,20.36,11.44,19.32Z" style="fill:#b6bbbd"/><path d="M10.2,11.78c2.86.8,3.69,3.06,4.85,5,.8,1.36.28,1.77-1.09,1.71a3.5,3.5,0,0,1-3.73-3.2A24.77,24.77,0,0,1,10.2,11.78Z" style="fill:#b6bbbd"/><path d="M11.8,10.87C9.46,9,11.08,6.58,11.14,4.38c.23,2.16.45,4.31.68,6.47Z" style="fill:#b6bbbd"/><path d="M14.71,25.25A10.26,10.26,0,0,0,18.34,24C17.76,26.39,17,26.65,14.71,25.25Z" style="fill:#b6bbbd"/><path d="M11.82,10.85l.36.19c-.33.41-.29,0-.38-.17Z" style="fill:#b6bbbd"/></g></g></svg>