<svg xmlns="http://www.w3.org/2000/svg" viewBox="0 0 43.92 74.09"><g id="Ebene_2" data-name="Ebene 2"><g id="Ebene_1-2" data-name="Ebene 1"><path d="M19.45.54V0h8.18V.55Z" style="fill:#b6bbbd"/><path d="M35.28,46.08l-.83.82c-.91-1-.85-.91-2.46.18-5.6,3.79-10.86,8.74-18.58,5.83h0c-.22-1.8-1.84-2.21-3-3.05h0l-.61-.62a6.1,6.1,0,0,0-2.26-2.41c-1.06-.95-1.48-2.7-3.34-2.64h0c.77-.66,0-1.15-.25-1.58A12.7,12.7,0,0,1,2.25,31.14L2.61,30a6.31,6.31,0,0,0,.59-5.18,19.23,19.23,0,0,1-.62-8c.47-5.85,5.92-12.32,11-13.27-2,2.93-1.79,6-.38,9.06.55,1.19,1.33,2.72,3,2.08s2-2.47,1.92-4.08A4.08,4.08,0,0,0,16.7,7.74a6.49,6.49,0,0,1-1.7-3c-.54-1.62-.11-2.21,1.39-2.42,6.72-1,13.32-1,19.45,2.54l1,.6L39,7.67l.67.79.21,0,.05.2c1.24,3.82,2.63,7.62,2.4,11.73-.46,8.39-2.27,16.39-7.17,23.44C34.2,45.21,34.24,45.24,35.28,46.08Z" style="fill:#f2e6cc"/><path d="M14.29,58.3l-.06,0h3.35c.13-.31.3-.32.49-.05.26.58.54,1.28,1.32,1.06a1.58,1.58,0,0,0,1-1.74c-.17-2.17,1-3,2.91-3.41A5.7,5.7,0,0,0,25,53.43c1.61-1,2.32-.65,2.13,1.3a10.94,10.94,0,0,0,0,1.62c.1,3.32,1.9,4.59,5,3.53,1-.35,2-.77,3-1.11,2.2-.7,3.5,0,3.85,2.31a58.7,58.7,0,0,1,.63,7c.07,1.83-.82,2.52-2.28,3.16-2.28,1-3.35-.33-4.23-2.09-1,.83.63,2.9-1.65,2.9A53.61,53.61,0,0,1,22,71.48c-1-.18-1.46-.6-1.16-1.63.26-.35.52-.83,0-1s-.77.43-.89.92c-.54.52-.85,1.42-1.94.93-1.47-.67-3-1.23-4.5-1.87s-1.19-1.5-.07-2.31c1.66-.43,3.06-1.11,3.14-3.08a9.13,9.13,0,0,1-3.14,2c-.55,0-1.11-.13-1.08-.85C12.48,62.37,12.22,60,14.29,58.3ZM31.5,67.18c-.05.95.06,1.69,1.09,1.86.13,0,.45-.29.47-.48C33.19,67.47,32.39,67.37,31.5,67.18ZM18.64,60c-.06.06-.17.13-.16.18a1.23,1.23,0,0,0,.16.35c.06-.06.17-.12.16-.17A1.42,1.42,0,0,0,18.64,60Z" style="fill:#eee3ca"/><path d="M14.29,58.3c-2.07,1.68-1.81,4.07-1.92,6.34,0,.72.53.8,1.08.85v1c-1.12.81-1.55,1.61.07,2.31s3,1.2,4.5,1.87c1.09.49,1.4-.41,1.94-.93l.92.08c-.3,1,.15,1.45,1.16,1.63a53.61,53.61,0,0,0,9.47.58c2.28,0,.6-2.07,1.65-2.9.88,1.76,2,3.1,4.23,2.09,1.46-.64,2.35-1.33,2.28-3.16a58.7,58.7,0,0,0-.63-7c-.35-2.27-1.65-3-3.85-2.31-1,.34-2,.76-3,1.11-3.1,1.06-4.9-.21-5-3.53a10.94,10.94,0,0,1,0-1.62c.19-1.95-.52-2.3-2.13-1.3a5.7,5.7,0,0,1-1.73.77c-1.88.4-3.08,1.24-2.91,3.41a1.58,1.58,0,0,1-1,1.74c-.78.22-1.06-.48-1.32-1.06,1.18-1.74,1.44-2.84-1.37-3-1.29-.06-3.47.11-3.29-2.4,7.72,2.91,13-2,18.58-5.83,1.61-1.09,1.55-1.18,2.46-.18a23.69,23.69,0,0,1-3,2.56,4.94,4.94,0,0,0-2.62,4c-.82.49-.8,1-.11,1.63.21,4.05.54,4.28,4.24,3a18.17,18.17,0,0,1,2.61-.77c2.81-.55,4.7.64,5,3.49s.35,6,.52,9c.09,1.67-1.28,2.08-2.38,2.6a22.67,22.67,0,0,1-12.46,1.59c-1.59-.18-3.29.12-4.78-.75a.85.85,0,0,0-.35-.08,21.53,21.53,0,0,1-8-2.3,4.07,4.07,0,0,1-2.49-4.32A30,30,0,0,1,11.45,60C12,58.19,12.73,57.81,14.29,58.3Z" style="fill:#6c6f62"/><path d="M35.84,4.89C29.71,1.37,23.11,1.4,16.39,2.35c-1.5.21-1.93.8-1.39,2.42a6.49,6.49,0,0,0,1.7,3,4.08,4.08,0,0,1,1.43,2.81c.09,1.61-.17,3.42-1.92,4.08s-2.46-.89-3-2.08c-1.41-3.05-1.62-6.13.38-9.06-5.08,1-10.53,7.42-11,13.27a19.23,19.23,0,0,0,.62,8A6.31,6.31,0,0,1,2.61,30l-1.19-.06a10.38,10.38,0,0,0-.13-6.09C-1.41,13.7,4.47,4.05,14.69,1.6c1.58-.38,3.17-.71,4.76-1.06h8.17c3.11.5,6.17,1.14,8.75,3.14C36.34,4.16,36.31,4.62,35.84,4.89ZM13.58,6.43a7.77,7.77,0,0,0,.51,4.75c.35.72.57,1.62,1.49,1.77.64.11,1-.5,1-1,0-.9.65-2.1-.63-2.6S14.52,7.43,13.58,6.43Z" style="fill:#6c6f62"/><path d="M35.28,46.08c-1-.84-1.08-.87-.13-2.23,4.9-7.05,6.71-15,7.17-23.44.23-4.11-1.16-7.91-2.4-11.73,1.41-.58,1.52.76,2,1.43,1.66,2.51,1.85,5.42,2,8.3a42.52,42.52,0,0,1-6.29,25A22,22,0,0,1,35.28,46.08Z" style="fill:#6c6f62"/><path d="M2.25,31.14A12.7,12.7,0,0,0,3.9,42.62c.28.43,1,.92.25,1.58-.66,1.08-1,.17-1.34-.26A12.81,12.81,0,0,1,1,30.87Z" style="fill:#6c6f62"/><path d="M4.14,44.19c1.86-.06,2.28,1.69,3.34,2.64a1.29,1.29,0,0,1-.76,1.24C5.9,46.75,3.49,46.49,4.14,44.19Z" style="fill:#6c6f62"/><path d="M10.39,49.87c1.2.84,2.82,1.25,3,3.05-1.93.87-2.3-1.24-3.48-1.81C10.1,50.7,10.25,50.28,10.39,49.87Z" style="fill:#6c6f62"/><path d="M6.72,48.07a1.29,1.29,0,0,0,.76-1.24,6.1,6.1,0,0,1,2.26,2.41c0,.31-.07.61-.11.92l-.26.47Z" style="fill:#747568"/><path d="M39,7.67,36.82,5.49l1.12-.57c.9.94,2.43,1.47,2.07,3.22C39.67,8,39.33,7.82,39,7.67Z" style="fill:#6c6f62"/><path d="M17.58,58.34H14.23c-.39-1.92,1.12-1.09,1.82-1.15S18,56.71,17.58,58.34Z" style="fill:#6c6f62"/><path d="M37.94,4.92l-1.12.57-1-.6c.47-.27.5-.73.53-1.2A2.23,2.23,0,0,1,37.94,4.92Z" style="fill:#747568"/><path d="M28.68,55.05c-.69-.59-.71-1.14.11-1.63A1.84,1.84,0,0,1,28.68,55.05Z" style="fill:#747568"/><path d="M2.25,31.14,1,30.87c.13-.31.25-.62.38-.94L2.61,30Z" style="fill:#747568"/><path d="M10.39,49.87c-.14.41-.29.83-.44,1.24l-.58-.48c.09-.16.18-.31.26-.47l.72-.3Z" style="fill:#747568"/><path d="M39,7.67c.34.15.68.3,1,.47a.31.31,0,0,1-.35.32Z" style="fill:#747568"/><path d="M21.12,73a.85.85,0,0,1,.35.08l-.19.06Z" style="fill:#747568"/><path d="M10.35,49.86l-.72.3c0-.31.08-.61.11-.92Z" style="fill:#6c6f62"/><path d="M13.45,66.52v-1a9.13,9.13,0,0,0,3.14-2C16.51,65.41,15.11,66.09,13.45,66.52Z" style="fill:#747568"/><path d="M31.5,67.18c.89.19,1.69.29,1.56,1.38,0,.19-.34.5-.47.48C31.56,68.87,31.45,68.13,31.5,67.18Z" style="fill:#6c6f62"/><path d="M20.88,69.85,20,69.77c.12-.49.25-1.11.89-.92S21.14,69.5,20.88,69.85Z" style="fill:#747568"/><path d="M18.64,60a1.42,1.42,0,0,1,.16.36s-.1.11-.16.17a1.23,1.23,0,0,1-.16-.35S18.58,60,18.64,60Z" style="fill:#747568"/><path d="M13.58,6.43c.94,1,1.08,2.38,2.41,2.91s.65,1.7.63,2.6c0,.51-.4,1.12-1,1-.92-.15-1.14-1-1.49-1.77A7.77,7.77,0,0,1,13.58,6.43Z" style="fill:#b6bbbd"/></g></g></svg>