<svg xmlns="http://www.w3.org/2000/svg" viewBox="0 0 54.53 28.18">
    <defs>
        <style>
            .cls-1{fill:#6e7063;}.cls-2{fill:#6a6d5f;}.cls-3{fill:#cf7c6b;}.cls-4{fill:#d0e0e8;}.cls-5{fill:#cfdfe7;}.cls-6{fill:#d1e1e8;}.cls-7{fill:#cddee6;}
        </style>
    </defs>
    <g>
        <path class="cls-1"
              d="M0,.44C2-.47,3,.15,3.29,2.32,3.83,6.32,5.18,7,9.13,6c3.78-1,7-3.43,11-3.94C26.82,1.16,33.45.78,39.75,4a28.56,28.56,0,0,0,4.93,2C48.45,7,50,6.22,50.59,2.33c.19-1.33.49-2.52,1.8-2.3S53.85,1.66,54,3c.22,2.78-.86,5.57.41,8.38.55,1.22-.34,2.46-1.7,3.23s-1.87.29-2-1,0-2.53-.06-3.79c0-.61.5-1.75-.6-1.72S49.14,9,49.39,10a9.29,9.29,0,0,1,.11,4.29c-.44,1.92-.35,4.2-3.25,4.9-1,.24-1.22,2.54-1.59,4a15.71,15.71,0,0,1-1.27,3.72A2.63,2.63,0,0,1,40.09,28c-1.35-.38-1.32-1.36-1.47-2.49A7.14,7.14,0,0,1,39.92,21c1.47-2.4.78-4.78.92-7.52-1.22,1.24-2.33,2.47-3.9,1.23s-1.13-2.59-.59-4.13c.42-1.17.51-2.45,1.79-3.09.47,1.79-1.24,3.09-1.12,4.8,0,.6-.14,1.32.61,1.63a1.36,1.36,0,0,0,1.5-.2c1.22-1.11.55-5.14-1-6.2-.36-2.71-1.77-4.32-5.7-4.7-4.79-.46-9.7-.74-14.4.92-3.33,1.18-4.5,3.39-3.89,7A3.34,3.34,0,0,1,13,13.8c-.52.49-1.12.15-1.72-.16-1.38-.71-.83-1.74-.66-2.77.5-3-1.41-1.1-2.36-1.15l0,0a1.91,1.91,0,0,1,2.9-.88,1.85,1.85,0,0,1,.58,2.6c-.32.52-.5,1.25.44,1.48.5.13.83-.09,1-.64.4-1.84-1-3.65-.1-5.52.09-.19-.65-.55-.86-.31C9.76,9,3.15,6.36,4,12.91c0,.11-.24.25-.36.38l-.44-.39C4.18,9.26,2,6.79,0,4.24ZM43,14c1.37-.09,2.71-.18,3.29,1.52.22.64,1.24,1.09,1.4.69a9.08,9.08,0,0,0,.6-5.77c-.49-1.69-1.75-2.24-3.46-2.18a5.87,5.87,0,0,1,0,3.59c-1.19-2.65-1.39-6.12-5.39-6.35.4,3.25,3.59,5.19,3.55,8.52-.85-.3-.57-1.62-2-1.91a13.44,13.44,0,0,1-1.15,12.05,1.29,1.29,0,0,0-.07.53c-.06.91-.12,1.88,1,2.17s1.85-.58,2.14-1.53A11.36,11.36,0,0,0,43.55,22c0-2.26.65-3.91,3.25-4.33-1.51-1.08-1.91-3-3.76-3.34C43,14.28,43,14.12,43,14Zm9.77-7.39c-1.5,3.05-1.53,3.67-.53,7.64C54.59,11.6,51.35,9,52.79,6.64Z"/>
        <path class="cls-2" d="M34,10.68c-4.28.39-8.08-1.5-11.89-.18C25.89,8.25,29.69,8.92,34,10.68Z"/>
        <path class="cls-1"
              d="M8.21,9.72a4.31,4.31,0,0,0-.71,4.1c.36,1.15.77,2.81-.64,3.9l-.39-.5A14.68,14.68,0,0,0,6.15,13c-.43-1.49-.08-3.07,2-3.27Z"/>
        <path class="cls-1"
              d="M6.86,17.72c-1.05,1.43-2.22.49-2.9-.17-1.29-1.26-1.9-2.88-.74-4.65l.43.39c-.3,2.19.16,3.85,2.82,3.93Z"/>
        <path class="cls-3"
              d="M43,14.05c0-3.33-3.15-5.27-3.55-8.52,4,.23,4.2,3.7,5.39,6.35a5.87,5.87,0,0,0,0-3.59c1.71-.06,3,.49,3.46,2.18a9.08,9.08,0,0,1-.6,5.77c-.16.4-1.18,0-1.4-.69-.58-1.7-1.92-1.61-3.29-1.52Z"/>
        <path class="cls-4"
              d="M43,14c0,.09,0,.25,0,.25,1.85.33,2.25,2.26,3.76,3.34-2.6.42-3.28,2.07-3.25,4.33A11.36,11.36,0,0,1,43,25.36c-.29.95-.9,1.85-2.14,1.53s-1.09-1.26-1-2.17a1.29,1.29,0,0,1,.07-.53,13.44,13.44,0,0,0,1.15-12c1.46.29,1.18,1.61,2,1.91Z"/>
        <path class="cls-5"
              d="M6.47,17.22c-2.66-.08-3.12-1.74-2.82-3.93.13-.13.39-.27.37-.38C3.15,6.36,9.76,9,12.09,6.42c.21-.24.95.12.86.31-.93,1.87.5,3.68.1,5.52-.12.55-.45.77-1,.64-.94-.23-.76-1-.44-1.48a1.85,1.85,0,0,0-.58-2.6,1.91,1.91,0,0,0-2.9.88c-2.11.2-2.46,1.78-2,3.27A14.68,14.68,0,0,1,6.47,17.22Z"/>
        <path class="cls-6"
              d="M38.11,7.5c1.57,1.06,2.24,5.09,1,6.2a1.36,1.36,0,0,1-1.5.2c-.75-.31-.56-1-.61-1.63-.12-1.71,1.59-3,1.12-4.8Z"/>
        <path class="cls-7" d="M52.79,6.64c-1.44,2.35,1.8,5-.53,7.64C51.26,10.31,51.29,9.69,52.79,6.64Z"/>
    </g>
</svg>