<svg xmlns="http://www.w3.org/2000/svg" viewBox="0 0 54 28.87">
    <defs>
        <style>.cls-1{fill:#6f7164;}.cls-2{fill:#cf7c6b;}.cls-3{fill:#faf1ee;}.cls-4{fill:#fbf5f3;}</style>
    </defs>
    <g>
        <path class="cls-1"
              d="M53.88,3.91c-1.37,3-3.32,4.83-7,5-2.5.11-2.27,3-2.7,4.78a32.8,32.8,0,0,0-.52,5.54,11.94,11.94,0,0,1-5.55,9.64H36c-3.57-2.65-4.13-4.65-2.77-9.21,1.27-4.27,2.31-8.55,1.18-13.09-.75-3-1.34-3.74-4.43-3.73-2.62,0-5.25-.11-7.86.11-5.91.5-9.65,3.94-12,9.18-.33.73-.39,2.07-1.43,1.95s-1.48-1.55-1.37-2.35c.3-2.34-.82-2.92-2.83-3.35S1.11,6.26.11,4.45a12,12,0,0,0,0-2.16C-.26.42.42-.3,2.28.11c1,.68,1,1.67,1.14,2.76.28,3,2.14,4.37,4.9,3.68A17.45,17.45,0,0,0,12.52,5C20,.81,28,1.53,36,2.82c3.27.53,6,2.69,9.14,3.53s4.15.21,5.21-2.77c.42-1.16-.17-2.76,1.39-3.47C55.53-.39,53.26,2.59,53.88,3.91ZM41.19,6.27c-.24-.14-.38-.68-.71-.36s-.08.62.31.76c.31,2.15,1.47,3.94,2.43,6,2-4.05,2-4.05-1.57-6.09ZM34.88,3.8C37.07,8.94,36.74,14,34.73,19a9.8,9.8,0,0,0-.91,5A3.47,3.47,0,0,0,36,27.13a3.2,3.2,0,0,0,3.64-1.08,9.33,9.33,0,0,0,1.66-2.44A14.27,14.27,0,0,0,39.89,8.83c-.49,2.33.54,4.86-1.23,7.42,0-2.83.08-5.17,0-7.5C38.51,5.62,37.45,4.25,34.88,3.8ZM11.56,7.35c-3.76.91-4,1.35-2.7,4.82A22.81,22.81,0,0,0,11.56,7.35Z"/>
        <path class="cls-1" d="M21.77,10.58a22.4,22.4,0,0,1,11.69.16C29.57,11.27,25.68,9.43,21.77,10.58Z"/>
        <path class="cls-2"
              d="M34.88,3.8c2.57.45,3.63,1.82,3.76,5,.1,2.33,0,4.67,0,7.5,1.77-2.56.74-5.09,1.23-7.42A14.27,14.27,0,0,1,41.3,23.61a9.33,9.33,0,0,1-1.66,2.44A3.2,3.2,0,0,1,36,27.13,3.47,3.47,0,0,1,33.82,24a9.8,9.8,0,0,1,.91-5C36.74,14,37.07,8.94,34.88,3.8Z"/>
        <path class="cls-3" d="M41.19,6.27l.46.28c3.53,2,3.53,2,1.57,6.09-1-2-2.12-3.82-2.43-6Z"/>
        <path class="cls-4" d="M11.56,7.35a22.81,22.81,0,0,1-2.7,4.82C7.55,8.7,7.8,8.26,11.56,7.35Z"/>
        <path class="cls-3"
              d="M40.79,6.67c-.39-.14-.57-.51-.31-.76s.47.22.71.36C41.06,6.41,40.93,6.54,40.79,6.67Z"/>
    </g>
</svg>