<svg xmlns="http://www.w3.org/2000/svg" viewBox="0 0 53.94 25.6">
    <defs>
        <style>.cls-1{fill:#6d6f62;}.cls-2{fill:#cf7c6b;}</style>
    </defs>
    <g>
        <path class="cls-1"
              d="M40.8,25.6c-3.83-1.21-4.9-4.09-4.93-7.75,0-3.47.35-7-.5-10.4-.89-3.64-1.92-4.32-5.6-4.64-6.86-.6-13,1.2-18.86,4.57-2.68,1.53-5.5,2.44-8.41,0C.17,5.44-.63,3.18.52.15H2.15c.36.59,1,1.15,1.05,1.78C4,7.27,5.55,7.43,10.28,5.86A24.24,24.24,0,0,0,13.4,4.45C19.84,1.22,26.62,1.3,33.53,2.23c4.14.56,7.53,3,11.48,4.07,3.15.83,4,.36,5.2-2.61.47-1.18-.06-2.56.93-3.54,3.85-.83,2.55,2,2.72,3.79-1.22,2.81-3.21,4.71-6.44,5,1.28,2.36.91,4.79,1,7.16.21,4.35-1.2,7.71-5.46,9.47Zm1.57-9.93c-.73-4.76.49-10.54-6.8-11.6,2.12,5.14,2.1,10.34,1.89,15.54a3.87,3.87,0,0,0,2.81,4.1,4.16,4.16,0,0,0,5.09-1.52c2.23-3.37,2.08-7.27,1.38-11.12-.46-2.52-2.48-3.34-5-4.32A12.11,12.11,0,0,1,42.37,15.67Z"/>
        <path class="cls-1" d="M21.39,10.65c4-.89,8.06-1.2,12.08.13C29.44,11.22,25.42,9.49,21.39,10.65Z"/>
        <path class="cls-2"
              d="M42.37,15.67a12.11,12.11,0,0,0-.6-8.92c2.49,1,4.51,1.8,5,4.32.7,3.85.85,7.75-1.38,11.12a4.16,4.16,0,0,1-5.09,1.52,3.87,3.87,0,0,1-2.81-4.1c.21-5.2.23-10.4-1.89-15.54C42.86,5.13,41.64,10.91,42.37,15.67Z"/>
    </g>

</svg>