<svg xmlns="http://www.w3.org/2000/svg" viewBox="0 0 69.61 94.08"><g id="Ebene_2" data-name="Ebene 2"><g id="Ebene_1-2" data-name="Ebene 1"><path d="M69.61,36.58c-1.8.25-3.07,2.1-3.59,3-1.82,3.07-4.8,3-7.41,4a31.49,31.49,0,0,1-4.26,1.81c-.54.35-1.33.32-1.67,1l0,0c-1.71-.79-3.48-.28-5.24-.26-1.93,0-2.48,1.06-2.17,2.78s.59,3.13.89,4.7c-1.57-.48-1.36-1.93-1.67-3.08-.47-1.75-.19-4.1-3.42-3.66a28,28,0,0,1,6.44-2c2.54-.33,5.18.29,7.59-1.2,3.31-2,8.28-1,10.23-5.63.21-.51,1.11-.29,1.58-.87.84-1,.86-4.25-.14-4.84-1.77-1.06-6.39-.63-8.26,1-4.12,3.58-9,3.71-14.06,3.49l.08-.89c1.27.24,2.59.41,3.62-.48,1.25-1.06,2.57.07,4-.22a14.13,14.13,0,0,0,7.09-3.72c1.82-1.76,4,.77,5.39-1.11,1,1.31,3.78.57,3.69,3.25,0,.41.82.85,1.27,1.28Z" style="fill:#81806f"/><path d="M54.36,46.22c1.82.27,3.2.83,2.47,3.18-.15.47.38,1.15.61,1.73s.83,1.55.68,1.68c-1.87,1.62-.86,4.17-2.12,6.1-1.13,1.73-1.72,3.84-3.3,5.34-.18.18-.18.63-.36.7-5.13,1.88-2.59,5.71-2,8.75.74,3.78,1,7.62,1.7,11.41.44,2.4-.64,5-1.93,7.35-.64,1.16-1.75.86-2.6,1.1a7.67,7.67,0,0,1-8.37-3.43c-1.36-2.19-3.28-4.16-4.08-6.52A15.86,15.86,0,0,1,33.93,78c.12-2.83-2.18-2.59-3.74-3.08-2-.62-1.71,1-2,2.24a114.82,114.82,0,0,1-2.85,12.26c-.67,2.09-2.18,4.31-4.67,4.64a6.87,6.87,0,0,1-7.41-4c-2.14-4.52-1.42-9-.2-13.54.44-1.64.42-3.4.7-5.09.57-3.37,1.69-6.74,1.68-10.11s1.5-6.53.73-9.89c-.24-1,.72-1.76.42-3.05-.33-1.45.07-2.44-2.06-2.65-.92-.09-1.79-2-2.78-3A28.59,28.59,0,0,0,4.92,37C.67,34.67-.9,30.5.5,26.37c1.24-3.68,5.66-4.45,8.76-2.11,3.64,2.74,6.1,6.65,9.82,9.2a10.85,10.85,0,0,0,3.26,1c.06.92,1.23.92,1.44,1.72-3.38-.11-6-1.92-8.22-4.14-2.5-2.43-4.77-5.1-7.48-7.31-1.31-1.06-4.76-.67-5.83.65-1.7,2.12-.93,7.38,1.26,9.06,3.15,2.41,6.75,4.18,9.21,7.57a7.43,7.43,0,0,0,5.65,3.41c1.51.06,2,1.63,3.37,2.24a2,2,0,0,1-2.53-.07c-1.3-.93-1.56-.42-1.22.9a2.62,2.62,0,0,1,.17,1,82,82,0,0,0-1.37,10.93A36,36,0,0,1,16,67c-1.67,6.5-2.94,13-2.51,19.78a6.7,6.7,0,0,0,6,5.92c2.52.16,4.87-1.87,5.26-5.15.42-3.52,2-6.74,2.22-10.32.1-1.5,0-1.94-1.48-1.88s-2.94-.19-3.43-2c1.18.59,2.42,1.66,3.61,1.2,2.6-1,5.19-.6,7.73-.25,1.84.26,3.19-1.4,5.3-1a8.63,8.63,0,0,1-4.17,2.22c.29.46.74.85.73,1.22-.13,4.89,2.18,8.84,4.76,12.71,1.76,2.64,5.66,3.89,8.33,2.65,1.5-.71,3-5.43,2.63-7.52-1-4.92-1.76-9.87-2.78-14.77-.47-2.29-.74-4.72-1.38-6.81a16.42,16.42,0,0,1-1-6.75c1.3-.28.49,1.53,1.51,1.54.06.71-.8,1.19-.45,2,.7,1.66,1.92,3.18,1.13,5.24-.13.35.59,1.38,1.45.46,1.84-2,4.29-3.27,5.22-6.34.44-1.48.27-3.49,1.14-4.35,1.75-1.69,1.19-2.91.14-4.39a1.71,1.71,0,0,1,0-1.77c.24-.64-.12-1-.74-1.17s-1.07,0-1.25.68A10.76,10.76,0,0,1,53,51c-1.12,1.78-1.06,4.41-3.62,5.18.42-.86.8-1.74,1.25-2.59,1.19-2.26,2.45-4.49,2.12-7.21l0,0Z" style="fill:#81806f"/><path d="M23.78,36.14c-.21-.8-1.38-.8-1.44-1.72-.24-.54-.49-1.09-.73-1.64l.81-.12a6.8,6.8,0,0,0,4.71,3c.16.74-1.62,1-.49,1.95s2.34.24,3.23-.26-.54-.84-.57-1.41c5.62,2.37,10.72.71,15.7-2l.06.83L44.58,36c0,.3,0,.59-.08.89-.34,0-.87-.15-1,0-3,3.59-6.76,4.53-11.19,3.74-.86-.15-1.55.27-1.64,1.41a3.41,3.41,0,0,0,1.06.13c.9-.18,1.84-.49,2.36.6a1.92,1.92,0,0,1-.55,2.44c-.38.34-.53.93-.85,1.36-1,1.36-2.21,1.49-2.92,0-1-2.2-2.49-2.39-4.53-1.79-1.25.36-2.46-.27-2.1-1.6.46-1.67.35-3.84,2.79-4.61A5.75,5.75,0,0,1,23.78,36.14Zm.67,7.28c3-.6,5.52-.06,7.24,2.94-.91-1.93.92-2,2-3-3.23-.58-6.34-.2-8.43-3Zm15.19-4.68,0-.78c-2.16,0-4.33-.06-6.48,0-.46,0-1.46,0-1.41.9s.8.87,1.43.9A16.47,16.47,0,0,0,39.64,38.74Z" style="fill:#747566"/><path d="M22.42,32.66l-.81.12C19,32.34,19,29.46,17.25,28.11c-2.2-1.73-1.43-4.76-2.57-7a4.13,4.13,0,0,0-.85-1.5c-3.06-2.82-3.78-6.06-2.36-10.13.53-1.52-.1-3.37,1-5.13,1.23-2,2.78-3.15,5.09-2.19,1.13.47,1.71.43,2.43-.66C21-.14,22.69,0,23.89,1.5c.56.72.56.72,1.8-.18l.46.5c-.86,2-2,2.55-3.44.55-.77-1.1-1.38-1.13-1.92,0-.71,1.48-2.11,1.43-3.17,1.19C15.11,3,12,4.62,12.57,7c.67,2.61-1,4.65-.58,7.2.32,2.19,1.69,3.15,2.71,4.55a1,1,0,0,0,1.78-.57c.21-1.73,1.47-2.61,2.55-3.68a6.8,6.8,0,0,0,2.07-4.29c.11-1.26.21-2.51.34-4.08.42.47.69.64.72.85.1.53,0,1.09.13,1.62,1,5-3.73,7.5-5.53,11.22-1.24,2.57,1.19,4,0,5.81C19,27.67,20.07,30.67,22.42,32.66Z" style="fill:#81806f"/><path d="M25.69,1.32A15.65,15.65,0,0,1,33.84.05C37.59.23,41,3.19,44.53,2.6c3.23-.53,4.95-.14,6.3,2.63a.56.56,0,0,0,.47.19c2.46-2.18,3.76,1.13,5.8,1.28,1.81.13,1,2.22,1.25,3.42,1.06,4.28-.18,8.1-2.57,11.65l-.45-.56c1.19-3.75,3.62-7.28,1.51-11.55-.35-.71.84-2.21-1.17-2-1.27.12-1.81-1.95-2.92-1.34-2.6,1.43-3.19-.34-3.94-2.07-.44-1-1.28-1.92-2.2-1-2,2.07-4.09.92-5.68-.08C38.46,1.63,35.65,1.8,33.07,1.1c-2.09-.56-4.6.43-6.92.72Z" style="fill:#81806f"/><path d="M45.06,34.8,45,34a32,32,0,0,1,4.44-4.26c3.1-2.62,2.94-6.52.16-9.34-2.09-2.13-2.7-4.88-3.18-7.65a1.86,1.86,0,0,1,1.31-2.13c-.07,4.13,1.7,7.4,4.06,10.45,1.15,1.49,2.29,1.57,3.54.17l.45.56c-.48.63-.65,1.56-1.6,1.73-1.29.22-1.21,1.19-1.48,2.18-.62,2.25-1.05,5-3.66,5.73C47.06,32,47.55,35.1,45.06,34.8Z" style="fill:#81806f"/><path d="M54.36,46.22l-1.68.19c.34-.69,1.13-.66,1.67-1Z" style="fill:#f8f8f7"/><path d="M23.78,36.14a5.75,5.75,0,0,0,2.15,2.36c-2.44.77-2.33,2.94-2.79,4.61-.36,1.33.85,2,2.1,1.6,2-.6,3.51-.41,4.53,1.79.71,1.53,1.94,1.4,2.92,0,.32-.43.47-1,.85-1.36a1.92,1.92,0,0,0,.55-2.44c-.52-1.09-1.46-.78-2.36-.6A3.41,3.41,0,0,1,30.67,42c.09-1.14.78-1.56,1.64-1.41,4.43.79,8.23-.15,11.19-3.74.13-.17.66,0,1,0,5,.22,9.94.09,14.06-3.49,1.87-1.62,6.49-2.05,8.26-1,1,.59,1,3.8.14,4.84-.47.58-1.37.36-1.58.87-1.95,4.59-6.92,3.59-10.23,5.63-2.41,1.49-5,.87-7.59,1.2a28,28,0,0,0-6.44,2c3.23-.44,3,1.91,3.42,3.66.31,1.15.1,2.6,1.67,3.08L45.38,56l0,0a.46.46,0,0,1,.32.27,16.42,16.42,0,0,0,1,6.75c.64,2.09.91,4.52,1.38,6.81,1,4.9,1.8,9.85,2.78,14.77.41,2.09-1.13,6.81-2.63,7.52-2.67,1.24-6.57,0-8.33-2.65-2.58-3.87-4.89-7.82-4.76-12.71,0-.37-.44-.76-.73-1.22a8.63,8.63,0,0,0,4.17-2.22c-2.11-.42-3.46,1.24-5.3,1-2.54-.35-5.13-.77-7.73.25-1.19.46-2.43-.61-3.61-1.2.49,1.86,1.94,2.11,3.43,2s1.58.38,1.48,1.88c-.21,3.58-1.8,6.8-2.22,10.32-.39,3.28-2.74,5.31-5.26,5.15a6.7,6.7,0,0,1-6-5.92C13,80.08,14.28,73.54,16,67a36,36,0,0,0,.84-6.65,82,82,0,0,1,1.37-10.93,2.62,2.62,0,0,0-.17-1c-.34-1.32-.08-1.83,1.22-.9a2,2,0,0,0,2.53.07c-1.35-.61-1.86-2.18-3.37-2.24A7.43,7.43,0,0,1,12.72,42c-2.46-3.39-6.06-5.16-9.21-7.57-2.19-1.68-3-6.94-1.26-9.06,1.07-1.32,4.52-1.71,5.83-.65,2.71,2.21,5,4.88,7.48,7.31C17.83,34.22,20.4,36,23.78,36.14Z" style="fill:#eed79f"/><path d="M45.38,56l.83-2.42c-.3-1.57-.61-3.13-.89-4.7s.24-2.75,2.17-2.78c1.76,0,3.53-.53,5.24.26.33,2.72-.93,5-2.12,7.21-.45.85-.83,1.73-1.25,2.59h.06c-.45-.07-.52.22-.55.56h0c-.62.26-1.39.29-1.64,1.1l0,0c-1,0-.21-1.82-1.51-1.54a.46.46,0,0,0-.32-.27Z" style="fill:#f8f8f7"/><path d="M49.36,56.17c2.56-.77,2.5-3.4,3.62-5.18a10.76,10.76,0,0,0,.89-2.83c.18-.69.69-.78,1.25-.68s1,.53.74,1.17a1.71,1.71,0,0,0,0,1.77c1,1.48,1.61,2.7-.14,4.39-.87.86-.7,2.87-1.14,4.35-.93,3.07-3.38,4.34-5.22,6.34-.86.92-1.58-.11-1.45-.46.79-2.06-.43-3.58-1.13-5.24-.35-.81.51-1.29.45-2l0,0c.91.19,1.79.31,1.64-1.1h0c.57.2.68-.06.55-.56Z" style="fill:#edd79f"/><path d="M55.33,21.21c-1.25,1.4-2.39,1.32-3.54-.17-2.36-3.05-4.13-6.32-4.06-10.45a1.86,1.86,0,0,0-1.31,2.13c.48,2.77,1.09,5.52,3.18,7.65,2.78,2.82,2.94,6.72-.16,9.34A32,32,0,0,0,45,34c-5,2.72-10.08,4.38-15.7,2,1.17-1,2.72-1.58,3.36-3.07.83-1.92,1.59-2.67,3.9-1.42,3,1.61,5.09.18,5.06-2.83-2.72,3-2.73,3-6.58.47-.47-.31-.92-.74-1.37-.12-2,2.85-4.54,2.72-7.46,1.12,1.77,1.76.82,3.74.92,5.57a6.8,6.8,0,0,1-4.71-3c-2.35-2-3.44-5-5.68-7.07,1.21-1.81-1.22-3.24,0-5.81,1.8-3.72,6.53-6.17,5.53-11.22-.11-.53,0-1.09-.13-1.62,0-.21-.3-.38-.72-.85-.13,1.57-.23,2.82-.34,4.08A6.8,6.8,0,0,1,19,14.46c-1.08,1.07-2.34,1.95-2.55,3.68a1,1,0,0,1-1.78.57c-1-1.4-2.39-2.36-2.71-4.55-.37-2.55,1.25-4.59.58-7.2-.6-2.34,2.54-4,5.05-3.42,1.06.24,2.46.29,3.17-1.19.54-1.11,1.15-1.08,1.92,0,1.4,2,2.58,1.49,3.44-.55C28.47,1.53,31,.54,33.07,1.1c2.58.7,5.39.53,7.86,2.08,1.59,1,3.65,2.15,5.68.08.92-.95,1.76-.06,2.2,1,.75,1.73,1.34,3.5,3.94,2.07,1.11-.61,1.65,1.46,2.92,1.34,2-.19.82,1.31,1.17,2C59,13.93,56.52,17.46,55.33,21.21ZM31.39,22.92l1.13.51c-.71.66-1.92,1.56-.54,2.27s3.11,2.58,5,.1c1.22-1.59.58-2.16-.62-2.92V22c1.73-.05,2.93,1.37,4.52,1.83.52-1.09-1.16-1.49-.53-2.44a4.51,4.51,0,0,0,3.15-6.89c-.92-1.32-2-1.51-3.21-.56-2.36,1.8-2.56,4.18-1.75,6.81a42.84,42.84,0,0,0-4.81.05,8.1,8.1,0,0,0-6,3.21l.39.61ZM29.6,18.41c0-2.08-1.47-4.07-3.21-4-2.29.06-3,1.66-3.1,3.65-.1,2.41,1.29,4.29,3.11,4.32S29.58,20.67,29.6,18.41Z" style="fill:#edd79f"/><path d="M27.13,35.7c-.1-1.83.85-3.81-.92-5.57,2.92,1.6,5.43,1.73,7.46-1.12.45-.62.9-.19,1.37.12,3.85,2.57,3.86,2.56,6.58-.47,0,3-2.08,4.44-5.06,2.83-2.31-1.25-3.07-.5-3.9,1.42C32,34.4,30.47,35,29.3,36c0,.57,1.41,1,.57,1.41s-2.13,1.15-3.23.26S27.29,36.44,27.13,35.7Z" style="fill:#777869"/><path d="M24.45,43.42l.85-3c2.09,2.77,5.2,2.39,8.43,3-1.12.94-2.95,1-2,3C30,43.36,27.49,42.82,24.45,43.42Z" style="fill:#aeb3b4"/><path d="M39.64,38.74a16.47,16.47,0,0,1-6.49,1.07c-.63,0-1.38-.13-1.43-.9s1-.87,1.41-.9c2.15-.11,4.32,0,6.48,0Z" style="fill:#a28d77"/><path d="M45.38,56l0,0Z" style="fill:#81806f"/><path d="M48.88,56.73c.15,1.41-.73,1.29-1.64,1.1C47.49,57,48.26,57,48.88,56.73Z" style="fill:#81806f"/><path d="M49.42,56.18c.13.5,0,.76-.55.56C48.9,56.4,49,56.11,49.42,56.18Z" style="fill:#81806f"/><path d="M29.6,18.41c0,2.26-1.41,4-3.2,3.95S23.19,20.45,23.29,18c.09-2,.81-3.59,3.1-3.65C28.13,14.34,29.62,16.33,29.6,18.41Z" style="fill:#727364"/><path d="M38.55,20.77c-.81-2.63-.61-5,1.75-6.81,1.25-1,2.29-.76,3.21.56a4.51,4.51,0,0,1-3.15,6.89l-1-.08-.86-.58Z" style="fill:#747566"/><path d="M36.37,22.88c1.2.76,1.84,1.33.62,2.92-1.9,2.48-3.55.65-5-.1s-.17-1.61.54-2.27Z" style="fill:#747566"/><path d="M39.39,21.33l1,.08c-.63.95,1,1.35.53,2.44C39.3,23.39,38.1,22,36.37,22a6.61,6.61,0,0,0-5,.9l-3.24,1.72L27.76,24a8.1,8.1,0,0,1,6-3.21,42.84,42.84,0,0,1,4.81-.05l0,0C38.6,21.26,39,21.31,39.39,21.33Z" style="fill:#81806f"/><path d="M31.39,22.92a6.61,6.61,0,0,1,5-.9v.86l-3.85.55Z" style="fill:#e7d29c"/><path d="M39.39,21.33c-.41,0-.79-.07-.86-.58Z" style="fill:#edd79f"/></g></g></svg>