<svg xmlns="http://www.w3.org/2000/svg" viewBox="0 0 91.56 123.98"><g id="Ebene_2" data-name="Ebene 2"><g id="Ebene_1-2" data-name="Ebene 1"><path d="M91.56,42.58c-1.48,4.83-5.51,7.44-9.19,10.23-4.86,3.68-9.66,7.58-15.87,8.93a1.35,1.35,0,0,0-1.1,1.34,90.13,90.13,0,0,0-.32,17.38c.06.73.25,1.44.27,2.16q.32,13.06.6,26.14A34.9,34.9,0,0,1,65,116c-.8,4.47-4.15,6.35-7.82,7.76A4.61,4.61,0,0,1,51.42,121,31.4,31.4,0,0,1,49,110.24c-.13-3.6-1.12-7.08-1.63-10.63-.1-.73-.53-.84-1.12-.85a7.93,7.93,0,0,1-1.09,0c-5.33-.66-6.12-.18-8.1,4.77a48.69,48.69,0,0,1-6.66,12.3,9.64,9.64,0,0,1-10.67,3.11c-3.15-1.25-4.94-4.86-4.62-9,.77-9.73,5-18.45,8-27.5.23-.68.5-1.35.79-2A4.47,4.47,0,0,0,23.15,75c-3.59-4-3.19-9-2.85-13.91a2.12,2.12,0,0,1,2.59-2.12,2.36,2.36,0,0,1,2.2,2.59c.11,3-.58,6.16,1.1,9,.18.3.41.57.8,1.11,1-3.74,2.22-7.11,2.65-10.76.22-1.88-.54-2.25-1.87-2.44-5.52-.78-10.44-3.09-15.32-5.65A33.93,33.93,0,0,1,2.22,44.43c-1.16-1.37-2.95-2.51-1.9-4.9a7.58,7.58,0,0,1,5.58-4.6C9.75,34,12.47,36,15.09,38.32c4.61,4,11.14,6.31,16.6,5.62-4.67-4.06-7.89-8.82-9-14.82-.47-2.59-.87-4.92-2.9-7.17-2.77-3.07-2-11.83.42-15.3,1.38-2,3.21-3,5.58-2.54a4.79,4.79,0,0,0,4.46-1.37,3.67,3.67,0,0,1,3.48-1.11c4.39,1.1,8.58.26,12.8-1A14.5,14.5,0,0,1,58.06,2a9.36,9.36,0,0,0,7.55,1.13c.57-.18,1.49-.28,1.85,0,2.3,2,5.32,1.82,8,2.73a5.11,5.11,0,0,1,3.38,4c.47,3.55,1.43,7.2.27,10.78-.76,2.32-1.66,4.69-4.55,5.22-.83.15-.85.77-1,1.42A26,26,0,0,1,61.33,45.71c-.13.08-.16.31-.32.64,5.72-1.12,10.32-4.2,14.84-7.42,1.25-.89,2.47-1.83,3.74-2.69,5-3.42,9.53-2.25,12,3.07ZM36.51,47c-.2-.21-.32-.71-.71-.19l.72.18c1.3,2.52,8.87,5.32,11.45,4.24.53-.22,1-.57,1-1.18,0-.94-.8-.89-1.39-.84C43.63,49.53,40.12,48,36.51,47Zm19.08,4.36c2-.13,2.84,1,2.59,2.84a2,2,0,0,0,.33,1.43,2.28,2.28,0,0,1-.34,3.18c-.93.79-1.86.59-3-.07a3.94,3.94,0,0,0-5.36,1.71,2.24,2.24,0,0,1-2.2,1.29,2,2,0,0,1-2-1.54c-.14-.52-.17-1.19-.5-1.52-1.09-1.08-1.61-2.2-.68-3.6s2.06-1.07,3.26-.28a1.13,1.13,0,0,0,1.48-.34c.38-.57-.27-.93-.61-1.32-.87-1-2-.53-3.08-.62C40.7,52,36.21,50.9,33.6,46.25c-.73-1.3-1.85-.91-2.86-.91a24,24,0,0,1-12.15-3.18,78.42,78.42,0,0,1-7-5.08c-3.11-2.26-8.25-1-9.86,2.29A2.4,2.4,0,0,0,2,42.27C7.91,50,16.19,53.86,25.11,56.62a66.65,66.65,0,0,0,7.5,1.44c-1.89.82-2,2.34-2.05,3.85a18.63,18.63,0,0,1-.42,2.93C28.56,71.61,26,78.05,23.7,84.59c-2.66,7.55-5.48,15-7.15,22.9-.88,4.2.69,8.87,3.41,10.08,3.49,1.56,7.7,0,10.52-3.93,2.34-3.25,3.83-7,5.46-10.57.77-1.72,2.25-3.6,2-5.18s-3.1-1.41-4.52-2.82a83.52,83.52,0,0,0,21.94,3.06,10.18,10.18,0,0,1-4.35.66c-1.89-.15-2.12.77-1.91,2.28.38,2.67.64,5.36,1.06,8,.57,3.54.82,7.13,2.09,10.57a3.58,3.58,0,0,0,4.33,2.64c3.14-.41,6.68-3.8,7.15-7,1.29-8.57.57-17.2.36-25.79-.2-8.35-.78-16.68.1-25,.06-.58.39-1.39-.31-1.72-2.51-1.2-.16-1.52.39-1.64,7-1.45,12.61-5.67,18.1-9.91,2.41-1.86,5.05-3.59,6.71-6.29,1.32-2.14,1.29-6.39,0-7.72-2-2.05-4.78-2.33-7.74-.68a29.41,29.41,0,0,0-3.1,2.18c-4.95,3.68-10,7.22-16.13,8.6a13.65,13.65,0,0,0-6.49,3.94c-2.75.32-2.79.37-2.15,2.77Zm-8.15-3.63A24.16,24.16,0,0,0,71.59,28.84a3.75,3.75,0,0,0-1.43-4.4c-3.34-2.75-4.48-6.69-4.16-11,0-.57.2-1.39,1-1.32.61,0,.47.6.38,1-.74,4.08,1.23,7.19,3.79,9.94,2,2.1,3.75,1.72,5.32-.7,1.78-2.73,1.39-5.71,1.19-8.7-.13-2-.2-4.49-2-5.38-3.09-1.5-6.49-2.91-9.85-3.14-2.11-.14-4.27.11-6.25-.78C53.76,1.79,47.84,1.07,41.7,3.36a8.5,8.5,0,0,1-5.59.1c-2.16-.65-4.24-.62-5.95,1.29-.92,1-2.26.91-3.56.89-3.69-.06-5.62,1.6-6.43,5.2a18.69,18.69,0,0,0,0,7.81c.37,1.86,1,3.7,3,4.1,1.82.36,3.28-.69,4.42-2.12a16.59,16.59,0,0,0,3.54-7.28c.09-.5.14-1.22.85-1.15s.7.8.6,1.29c-.85,4.27-2.2,8.46-6.56,10.26-2.31.95-2.44,2.11-2.16,4.11C25.51,39,35.48,47.44,47.44,47.68ZM24,64.81c0-1.07,0-2.06,0-3.05a1.47,1.47,0,0,0-1.12-1.63c-1-.23-1.34.73-1.38,1.29-.29,4.24-.32,8.48,2.26,12.17.39.55.79,2,1.85,1.3s.61-1.68.1-2.67C24.48,69.89,23.5,67.47,24,64.81ZM56.31,53c-.94.66-.72,1.9-1.66,2-2.62.39-5.18,1.59-7.9.69-.6-.2-1.06-.32-1.32.31a1.47,1.47,0,0,0,.08,1c1.81.18,2.16,1,1.63,2.71-.12.39,1,.43,1.17-.16.87-3.24,3.73-2.33,5.82-2.72C56,56.46,56.77,56,56.69,54A3.77,3.77,0,0,0,56.31,53ZM58,47.43c-1.88.53-3,.87-4.05,1.14-.55.14-1.13.25-1,1s.78.41,1.26.29A9.15,9.15,0,0,0,58,47.43Z" style="fill:#6e7063"/><path d="M55.59,51.32a13.59,13.59,0,0,1,6.49-4c6.12-1.38,11.18-4.92,16.13-8.6a29.41,29.41,0,0,1,3.1-2.18c3-1.65,5.69-1.37,7.74.68,1.33,1.33,1.36,5.58,0,7.72-1.66,2.7-4.3,4.43-6.71,6.29-5.49,4.24-11,8.46-18.1,9.91-.55.12-2.9.44-.39,1.64.7.33.37,1.14.31,1.72-.88,8.33-.3,16.66-.1,25,.21,8.59.93,17.22-.36,25.79-.47,3.16-4,6.55-7.15,7a3.58,3.58,0,0,1-4.33-2.64c-1.27-3.44-1.52-7-2.09-10.57-.42-2.67-.68-5.36-1.06-8-.21-1.51,0-2.43,1.91-2.28a10.18,10.18,0,0,0,4.35-.66,83.52,83.52,0,0,1-21.94-3.06c1.42,1.41,4.25,1.14,4.52,2.82s-1.24,3.46-2,5.18c-1.63,3.62-3.12,7.32-5.46,10.57-2.82,3.94-7,5.49-10.52,3.93-2.72-1.21-4.29-5.88-3.41-10.08,1.67-7.86,4.49-15.35,7.15-22.9,2.3-6.54,4.86-13,6.44-19.75a18.63,18.63,0,0,0,.42-2.93c.09-1.51.16-3,2.05-3.85a66.65,66.65,0,0,1-7.5-1.44C16.19,53.86,7.91,50,2,42.27a2.4,2.4,0,0,1-.29-2.9C3.35,36,8.49,34.82,11.6,37.08a78.42,78.42,0,0,0,7,5.08,24,24,0,0,0,12.15,3.18c1,0,2.13-.39,2.86.91,2.61,4.65,7.1,5.78,11.94,6.22,1,.09,2.21-.37,3.08.62.34.39,1,.75.61,1.32a1.13,1.13,0,0,1-1.48.34c-1.2-.79-2.3-1.15-3.26.28s-.41,2.52.68,3.6c.33.33.36,1,.5,1.52a2,2,0,0,0,2,1.54,2.24,2.24,0,0,0,2.2-1.29,3.94,3.94,0,0,1,5.36-1.71c1.1.66,2,.86,3,.07a2.28,2.28,0,0,0,.34-3.18,2,2,0,0,1-.33-1.43c.25-1.85-.56-3-2.59-2.84Z" style="fill:#efd8a0"/><path d="M47.44,47.68C35.48,47.44,25.51,39,24,27.86c-.28-2-.15-3.16,2.16-4.11,4.36-1.8,5.71-6,6.56-10.26.1-.49.14-1.23-.6-1.29s-.76.65-.85,1.15a16.59,16.59,0,0,1-3.54,7.28c-1.14,1.43-2.6,2.48-4.42,2.12-2.05-.4-2.67-2.24-3-4.1a18.69,18.69,0,0,1,0-7.81c.81-3.6,2.74-5.26,6.43-5.2,1.3,0,2.64.14,3.56-.89C31.87,2.84,34,2.81,36.11,3.46a8.5,8.5,0,0,0,5.59-.1c6.14-2.29,12.06-1.57,17.92,1.06,2,.89,4.14.64,6.25.78,3.36.23,6.76,1.64,9.85,3.14,1.81.89,1.88,3.34,2,5.38.2,3,.59,6-1.19,8.7-1.57,2.42-3.36,2.8-5.32.7-2.56-2.75-4.53-5.86-3.79-9.94.09-.45.23-1-.38-1-.85-.07-1,.75-1,1.32-.32,4.3.82,8.24,4.16,11a3.75,3.75,0,0,1,1.43,4.4A24.16,24.16,0,0,1,47.44,47.68ZM57.2,28.39c2.11.75,3.7,0,5-1.7a7.19,7.19,0,0,0,1.35-6.89A2.58,2.58,0,0,0,60,18.25c-4.12,1.42-5.51,6.48-2.72,10.17-.69.25-1.21-.13-1.77-.43a13.26,13.26,0,0,0-8.7-1.2c-3,.49-4.58,1.7-5.31,4,5.92-3.52,11.62-4.21,17,1.09C59,30,57,29.66,57.2,28.39Zm-17-1.06c2.28,0,4.2-2.47,4.22-5.39,0-2.76-1.87-5-4.22-5S36,19.34,36.11,22.54C36.18,25.23,38,27.35,40.24,27.33Zm18.3,10.51c-3.51,3.83-4.17,4.07-8.73-.23-1.34-1.26-1.84-.19-2.62.46-2.92,2.46-5.33,2.31-8-.49-.25-.27-.53-.49-1.2.18,1.71,1.61,1.3,3.54.83,5.73-.32,1.49,1.42,2.15,2.94,1.68a7.14,7.14,0,0,0,3.93-2.78c1.71-2.67,3.39-4.22,6.19-1.25a4.11,4.11,0,0,0,2,.82A3.86,3.86,0,0,0,58.54,37.84Zm-8.3-8.37c-1.66.22-3.82,0-4.37,1.92s1.75,1.59,2.72,2.33a3.76,3.76,0,0,0,5.33-1.31,1.7,1.7,0,0,0-.81-2.32A4.63,4.63,0,0,0,50.24,29.47Z" style="fill:#edd79f"/><path d="M24,64.81c-.46,2.66.52,5.08,1.71,7.41.51,1,.85,2.06-.1,2.67s-1.46-.75-1.85-1.3c-2.58-3.69-2.55-7.93-2.26-12.17,0-.56.35-1.52,1.38-1.29A1.47,1.47,0,0,1,24,61.76C24,62.75,24,63.74,24,64.81Z" style="fill:#edd79f"/><path d="M56.31,53a3.77,3.77,0,0,1,.38,1c.08,2-.65,2.51-2.56,2.87-2.09.39-5-.52-5.82,2.72-.16.59-1.29.55-1.17.16.53-1.68.18-2.53-1.63-2.71a1.47,1.47,0,0,1-.08-1c.26-.63.72-.51,1.32-.31,2.72.9,5.28-.3,7.9-.69C55.59,54.88,55.37,53.64,56.31,53Z" style="fill:#aeb3b4"/><path d="M36.51,47c3.61,1,7.12,2.58,11,2.21.59,0,1.37-.1,1.39.84,0,.61-.42,1-1,1.18-2.58,1.08-10.15-1.72-11.45-4.24Z" style="fill:#a28d77"/><path d="M58,47.43a9.15,9.15,0,0,1-3.76,2.39c-.48.12-1.08.54-1.26-.29s.42-.82,1-1C55.06,48.3,56.14,48,58,47.43Z" style="fill:#a28d77"/><path d="M55.59,51.31l-2.15,2.77c-.64-2.4-.6-2.45,2.15-2.77Z" style="fill:#efd8a0"/><path d="M36.52,46.94l-.72-.18c.39-.52.51,0,.71.19Z" style="fill:#a28d77"/><path d="M40.24,27.33c-2.24,0-4.06-2.1-4.13-4.79-.08-3.2,1.72-5.65,4.13-5.63s4.23,2.27,4.22,5C44.44,24.86,42.52,27.31,40.24,27.33Z" style="fill:#6e7063"/><path d="M57.24,28.42c-2.79-3.69-1.4-8.75,2.72-10.17a2.58,2.58,0,0,1,3.56,1.55,7.19,7.19,0,0,1-1.35,6.89c-1.27,1.7-2.86,2.45-5,1.7Z" style="fill:#6e7063"/><path d="M58.54,37.84A3.86,3.86,0,0,1,53.87,42a4.11,4.11,0,0,1-2-.82c-2.8-3-4.48-1.42-6.19,1.25a7.14,7.14,0,0,1-3.93,2.78c-1.52.47-3.26-.19-2.94-1.68.47-2.19.88-4.12-.83-5.73.67-.67,1-.45,1.2-.18,2.66,2.8,5.07,3,8,.49.78-.65,1.28-1.72,2.62-.46C54.37,41.91,55,41.67,58.54,37.84Zm-14,3.27c-1.53.11-1.85,1.7-3.09,1.89-.72-.63,1-1.16,0-1.83-1,.57-1.54,1.58-1,2.44.7,1.07,1.57-.08,2.3-.41S44.44,42.44,44.51,41.11Z" style="fill:#6e7063"/><path d="M50.24,29.47a4.63,4.63,0,0,1,2.87.62,1.7,1.7,0,0,1,.81,2.32,3.76,3.76,0,0,1-5.33,1.31c-1-.74-3.26-.41-2.72-2.33S48.58,29.69,50.24,29.47Z" style="fill:#6e7063"/><path d="M57.2,28.39C57,29.66,59,30,58.43,31.86c-5.35-5.3-11-4.61-17-1.09.73-2.28,2.33-3.49,5.31-4a13.26,13.26,0,0,1,8.7,1.2c.56.3,1.08.68,1.77.43Z" style="fill:#727364"/><path d="M44.51,41.11c-.07,1.33-.94,1.73-1.73,2.09s-1.6,1.48-2.3.41c-.56-.86,0-1.87,1-2.44.94.67-.76,1.2,0,1.83C42.66,42.81,43,41.22,44.51,41.11Z" style="fill:#ae7b6c"/></g></g></svg>