<svg xmlns="http://www.w3.org/2000/svg" viewBox="0 0 80.21 108.49"><g id="Ebene_2" data-name="Ebene 2"><g id="Ebene_1-2" data-name="Ebene 1"><path d="M15.33,104.71c-2.54-1.59-2.59-4.4-3.18-6.85-1.08-4.5,1.67-10.24,5.81-12.35,1.46-.74,1.49-1.4.35-2.37C12.28,78,11,70.89,10.36,63.59c-.22-2.65-1.11-5.29-.13-8.06.67-1.88,1.63-3.05,3.63-2.89,2.21.18,2,2,2,3.5-.15,4.15-.52,8.3.6,12.92,1.44-3.79,1.09-7.39,2.08-10.72a23,23,0,0,1,5.11-9.54c-4.25-1.85-8-4.18-10.72-7.74-.83-1.07-1.53-2.24-2.27-3.38C9.11,35.35,9,32.39,5.2,31.24c-3.38-1-4.55-5.1-4.72-8.86,0-.73.47-1.65-.48-2.2V16.9C1.32,13.81,3,11.12,6.86,11a1.22,1.22,0,0,0,.89-.54c1.31-2.56,3.65-2.62,6.05-2.6a6.48,6.48,0,0,0,4.05-1.31A23.05,23.05,0,0,1,35,2.26c3,.35,5.56-.8,8.05-2.26h1.63c2.12,1.48,4.13,2.36,6.94,1.26s5,.7,6.39,3a18.18,18.18,0,0,1,2.49,13.29c-.08.43-.24,1-.55,1.2-2.36,1.4-1.75,3.56-1.59,5.63a21.27,21.27,0,0,1-4.94,15.92c-1.32,1.56-1.33,2.5.53,3.34l-.11.87c-1,.07-2-1.76-2.88.22-2.22,4.78-6.46,6.92-11.25,8.1a3.16,3.16,0,0,0-2.54,2.06.67.67,0,0,0,.45.86c1.21.5,1.69-.84,2.63-1,0,.3.05.6.07.89-1.81,1.61-7.51,1.73-9.26.15-.27-.24-.46-.64-.8-.31a1.3,1.3,0,0,0-.23,1c.07.42.5.85.43,1.22-.16.91-1.15,2-.07,2.66s1-1,1.69-1.3a3.63,3.63,0,0,1,1.32-.17c2.65,0,5.5-.61,7.29,2.22l.93.13a1.8,1.8,0,0,1-2.86-.07C37.3,58.47,35,60,33.2,59.86c-1.09-.08-1.81,2.46-3.57,1.36s0-2.78-.58-3.91a2,2,0,0,1,.6-2.83c1.13-.86,1.93-.06,2.66.88a1.17,1.17,0,0,0,1.89.07c.54-.71,0-1.43-.65-1.8a7.15,7.15,0,0,0-2-.67,12.07,12.07,0,0,1-5.61-2.56c-1.2-1.06-1.79-.67-2.54.43A26.67,26.67,0,0,0,19.12,61.6c-1.53,8.95-.42,17.71,2.28,26.27a42.84,42.84,0,0,0,9,16.3c1.78,2,4,3.56,6.89,3.11,2.45-.38,3.79-2.14,4.47-4.29a8.08,8.08,0,0,0-2-8.31L36.5,91.1l.52-.56c2.17,2.12,5,3.71,5.95,6.86.14.46.44.84,1,.65.71-.23.27-.76.15-1.1-1.29-3.49-.11-6.28,2.23-8.9a47.78,47.78,0,0,0,3.31-4.62l.85.07a17,17,0,0,1-3.81,6.18,6.9,6.9,0,0,0,2.53,11c3.2,1.32,6.26.33,9-3.49a42.83,42.83,0,0,0,7.85-31.83C65.49,61,63.55,57,62.22,52.8c1.67-.17,1.6,1.39,2,2.26,3.58,7.14,3.87,14.8,3.19,22.56-.11,1.26-.35,2.13,1.49,1.84,7.43-1.14,12.74,5.34,10.93,12.71-1.41,5.72-5.54,8.81-11.58,9.16-3.33.19-6.65.87-9.76-1-.66-.39-1.17,0-1.73.38-3.92,2.47-6.66,2.35-10.44-.4-1.92-1.4-2.74-1-3.12,1.41-.95,6-5.38,8.36-10.87,5.58a5.92,5.92,0,0,0-4.28-.58c-3.34.7-6.77,1.59-10.19.27-.65-.25-1.42-.4-1.54-1.3,4.3.73,8.58,1.06,13.36-1-2.31-.61-1.93-4.6-5.47-2.36,1.28-2.53.16-4.34-.83-6.3a59.14,59.14,0,0,1-3-7.26c-1.07-3-1.71-3.2-4-.86-3.17,3.19-4,9.55-1.66,14C15.14,102.85,15.82,103.62,15.33,104.71Zm36-87.33a8.76,8.76,0,0,0,3.51,2,3.63,3.63,0,0,0,4.39-3,18,18,0,0,0-2.11-11C56,3.21,54,2,51.43,2.84a6.18,6.18,0,0,1-5.94-.73A2.69,2.69,0,0,0,42.64,2C39.4,3.49,36,3.53,32.52,3.35A18.94,18.94,0,0,0,20.21,6.81c-2.4,1.69-5.21,2.08-8,2.74C8.88,10.32,6,12.76,3,14.65A3.48,3.48,0,0,0,1.83,17c-.39,4-.33,8,2.31,11.37,2.27,2.93,5,2.72,6.84-.55a14.75,14.75,0,0,0,1-2.52,14.42,14.42,0,0,0,.14-8.21c2.33,3,2.33,9.24-.46,12.13-2.06,2.14-1.65,3.88-.65,6a21.06,21.06,0,0,0,1.64,3.12c5.16,7.32,12.22,10.49,21.19,10.42,11.84-.08,24.86-10.29,23.54-25.11-.15-1.75-.78-2.72-2.52-2.89a5.61,5.61,0,0,1-4.24-2.6Zm13.12,77.2c-1.62-.56-2.5-1-3.06.4a9.51,9.51,0,0,1-1.84,2.67c-1.06,1.17-.48,1.61.63,2.12,3.81,1.75,12.68.15,15.59-2.86S79.62,89,78,85.55s-4.66-5.14-8.61-5a2.76,2.76,0,0,0-2.91,2.25A52.94,52.94,0,0,1,64,90,4,4,0,0,0,64.47,94.58ZM18.08,80.72a23.59,23.59,0,0,0-1.75-8.4,28.13,28.13,0,0,1-2-13.81c.15-1.61,1.65-4.14-.86-4.43s-2.34,2.6-2.3,4.37A58.81,58.81,0,0,0,13.92,75,10.74,10.74,0,0,0,18.08,80.72ZM35.82,50c3.73,3,12.31-.73,13.37-5.31A26.4,26.4,0,0,1,35.82,50Zm-1.18.24c-2.58-.07-4.78.11-7.29-.61C30.26,52.19,32.06,52.35,34.64,50.21Z" style="fill:#777869"/><path d="M40.26,54.69c-.94.19-1.42,1.53-2.63,1a.67.67,0,0,1-.45-.86,3.16,3.16,0,0,1,2.54-2.06c4.79-1.18,9-3.32,11.25-8.1.92-2,1.92-.15,2.88-.22,2.93,2.19,5.2,5.06,7.79,7.6l0,0c-.07.45,0,.78.55.83l0-.07C63.55,57,65.49,61,66.08,65.39a42.83,42.83,0,0,1-7.85,31.83c-2.76,3.82-5.82,4.81-9,3.49a6.9,6.9,0,0,1-2.53-11,17,17,0,0,0,3.81-6.18c3.3-5.85,3.21-16.61-.38-20.62a28,28,0,0,1-.47,20.55,47.78,47.78,0,0,1-3.31,4.62C44,90.67,42.81,93.46,44.1,97c.12.34.56.87-.15,1.1-.54.19-.84-.19-1-.65-1-3.15-3.78-4.74-5.95-6.86C33.33,84.2,31,77.45,30.87,70,29,74.48,32.14,85.8,36.5,91.1l3.3,3.58a8.08,8.08,0,0,1,2,8.31c-.68,2.15-2,3.91-4.47,4.29-2.94.45-5.11-1.16-6.89-3.11a42.84,42.84,0,0,1-9-16.3c-2.7-8.56-3.81-17.32-2.28-26.27a26.67,26.67,0,0,1,4.23-10.77c.75-1.1,1.34-1.49,2.54-.43A12.07,12.07,0,0,0,31.5,53a7.15,7.15,0,0,1,2,.67c.63.37,1.19,1.09.65,1.8a1.17,1.17,0,0,1-1.89-.07c-.73-.94-1.53-1.74-2.66-.88a2,2,0,0,0-.6,2.83c.59,1.13-1.05,2.88.58,3.91s2.48-1.44,3.57-1.36c1.82.13,4.1-1.39,5.57,1.21a1.8,1.8,0,0,0,2.86.07c.67-1,.14-2.23.36-3.33v0c1.49-.28.88-1.28.61-2A1.65,1.65,0,0,0,40.26,54.69Z" style="fill:#eed79f"/><path d="M15.33,104.71c.49-1.09-.19-1.86-.64-2.74-2.29-4.45-1.51-10.81,1.66-14,2.32-2.34,3-2.16,4,.86a59.14,59.14,0,0,0,3,7.26c1,2,2.11,3.77.83,6.3,3.54-2.24,3.16,1.75,5.47,2.36-4.78,2-9.06,1.7-13.36,1Z" style="fill:#edd79f"/><path d="M61.64,52.08c-2.59-2.54-4.86-5.41-7.79-7.6,0-.29.08-.58.11-.87,3.42,1.49,5.66,4.27,7.83,7.13C62.1,51.16,62.71,51.75,61.64,52.08Z" style="fill:#81806f"/><path d="M62.17,52.87c-.51,0-.62-.38-.55-.83C62.33,52,62.54,52.22,62.17,52.87Z" style="fill:#81806f"/><path d="M50.59,18.18a5.61,5.61,0,0,0,4.24,2.6c1.74.17,2.37,1.14,2.52,2.89,1.32,14.82-11.7,25-23.54,25.11-9,.07-16-3.1-21.19-10.42A21.06,21.06,0,0,1,11,35.24c-1-2.12-1.41-3.86.65-6,2.79-2.89,2.79-9.11.46-12.13A14.42,14.42,0,0,1,12,25.32a14.75,14.75,0,0,1-1,2.52c-1.88,3.27-4.57,3.48-6.84.55C1.5,25,1.44,21,1.83,17A3.48,3.48,0,0,1,3,14.65c3-1.89,5.89-4.33,9.17-5.1C15,8.89,17.81,8.5,20.21,6.81A18.94,18.94,0,0,1,32.52,3.35C36,3.53,39.4,3.49,42.64,2a2.69,2.69,0,0,1,2.85.11,6.18,6.18,0,0,0,5.94.73C54,2,56,3.21,57.14,5.35a18,18,0,0,1,2.11,11,3.63,3.63,0,0,1-4.39,3,8.76,8.76,0,0,1-3.51-2,30.77,30.77,0,0,1-4.71-6.74A9.92,9.92,0,0,0,50.59,18.18Zm-25,9.3c0-3.07-2.2-5.64-4.71-5.59-2,0-3.52,2.07-3.49,4.65,0,3.06,2.21,5.66,4.7,5.6C24,32.09,25.64,29.9,25.62,27.48ZM44,21.82c0-2.94-1.84-5.53-3.82-5.45-2.13.08-3.73,2.48-3.7,5.52,0,2.78,1.77,5.09,3.84,5.12S44,24.67,44,21.82ZM25.18,40.91c-.12,1.66.83,2.37,2.06,2.85,2.14.85,4.91-.21,6.72-2.83.94-1.35,1.54-1.42,2.65-.21a11.57,11.57,0,0,0,5.52,3.82c1.19.31,2.37.34,3.2-.81s.15-2.16-.59-2.93a1.59,1.59,0,0,1-.13-2.51c.31-.38.84-1.07,0-1.62-2.88,3.71-5,4.18-8.9,1.76-1.24-.77-1.54-.43-2.12.73Q30.52,45.34,25.18,40.91ZM41,30.5c-2.43-2.83-7.45-3.46-11.7-1.71-3.06,1.27-5.41,3.85-5.21,6.27C28.31,28.22,34.34,28.58,41,30.5Zm-8.15,1.12h-.93c-1.64,0-3.46.39-3.67,2C28,35.56,30,35,31.2,35.3a3.44,3.44,0,0,1,.78.2c2.61,1.29,3.46-1,3.74-2.46C36.19,30.64,33.88,32.21,32.81,31.62Z" style="fill:#edd79f"/><path d="M64.47,94.58A4,4,0,0,1,64,90a52.94,52.94,0,0,0,2.51-7.17,2.76,2.76,0,0,1,2.91-2.25c4-.17,7,1.53,8.61,5s.65,8.4-2.21,11.36S64,101.52,60.2,99.77c-1.11-.51-1.69-1-.63-2.12A9.51,9.51,0,0,0,61.41,95C62,93.6,62.85,94,64.47,94.58Z" style="fill:#edd79f"/><path d="M18.08,80.72A10.74,10.74,0,0,1,13.92,75a58.81,58.81,0,0,1-2.8-16.53c0-1.77-.21-4.66,2.3-4.37s1,2.82.86,4.43a28.13,28.13,0,0,0,2,13.81A23.59,23.59,0,0,1,18.08,80.72Z" style="fill:#e7d29c"/><path d="M40.7,61c-1.79-2.83-4.64-2.22-7.29-2.22a3.63,3.63,0,0,0-1.32.17c-.69.28-.73,1.88-1.69,1.3s-.09-1.75.07-2.66c.07-.37-.36-.8-.43-1.22a1.3,1.3,0,0,1,.23-1c.34-.33.53.07.8.31,1.75,1.58,7.45,1.46,9.26-.15,1.6,0,1.62,1.12,1.65,2.25v0c-.67,0-1.39-.22-2,.36C40.32,59.07,41.33,59.84,40.7,61Z" style="fill:#aeb3b4"/><path d="M35.82,50a26.4,26.4,0,0,0,13.37-5.31C48.13,49.24,39.55,53,35.82,50Z" style="fill:#a28d77"/><path d="M36.5,91.1C32.14,85.8,29,74.48,30.87,70,31,77.45,33.33,84.2,37,90.54Z" style="fill:#7e7d69"/><path d="M49.64,83.43a28,28,0,0,0,.47-20.55c3.59,4,3.68,14.77.38,20.62Z" style="fill:#7e7d69"/><path d="M50.59,18.18a9.92,9.92,0,0,1-4-7.54,30.77,30.77,0,0,0,4.71,6.74Z" style="fill:#7e7d69"/><path d="M34.64,50.21c-2.58,2.14-4.38,2-7.29-.61C29.86,50.32,32.06,50.14,34.64,50.21Z" style="fill:#a28d77"/><path d="M40.7,61c.63-1.17-.38-1.94-.75-2.84.65-.58,1.37-.32,2-.36-.22,1.1.31,2.28-.36,3.33Z" style="fill:#747566"/><path d="M42,57.83c0-1.13,0-2.27-1.65-2.25,0-.29,0-.59-.07-.89a1.65,1.65,0,0,1,2.33,1.11C42.86,56.55,43.47,57.55,42,57.83Z" style="fill:#747566"/><path d="M25.62,27.48c0,2.42-1.63,4.61-3.5,4.66-2.49.06-4.67-2.54-4.7-5.6,0-2.58,1.49-4.61,3.49-4.65C23.42,21.84,25.59,24.41,25.62,27.48Z" style="fill:#727364"/><path d="M44,21.82C44,24.67,42.35,27,40.32,27s-3.8-2.34-3.84-5.12c0-3,1.57-5.44,3.7-5.52C42.16,16.29,44,18.88,44,21.82Z" style="fill:#727364"/><path d="M25.18,40.91q5.33,4.43,8.44-1.75c.58-1.16.88-1.5,2.12-.73,3.9,2.42,6,2,8.9-1.76.81.55.28,1.24,0,1.62a1.59,1.59,0,0,0,.13,2.51c.74.77,1.41,1.77.59,2.93s-2,1.12-3.2.81a11.57,11.57,0,0,1-5.52-3.82c-1.11-1.21-1.71-1.14-2.65.21-1.81,2.62-4.58,3.68-6.72,2.83C26,43.28,25.06,42.57,25.18,40.91Zm19.43,1.62c-.12-.64-.75-1.16-1.35-1.69-.33-.3-1-.61-1,0-.13,1-.26,1.33-1.18.6-.48-.39-1.16-.86-1.53,0-.25.6.46.89.92,1.14a5.43,5.43,0,0,0,3,1C44,43.56,44.54,43.51,44.61,42.53Z" style="fill:#7e7d69"/><path d="M41,30.5c-6.62-1.92-12.65-2.28-16.91,4.56-.2-2.42,2.15-5,5.21-6.27C33.51,27,38.53,27.67,41,30.5Z" style="fill:#7e7d69"/><path d="M32.81,31.62c1.07.59,3.38-1,2.91,1.42-.28,1.48-1.13,3.75-3.74,2.46a3.44,3.44,0,0,0-.78-.2c-1.2-.27-3.24.26-3-1.67.21-1.63,2-2.06,3.67-2Z" style="fill:#727364"/><path d="M44.61,42.53c-.07,1-.61,1-1.17,1.07a5.43,5.43,0,0,1-3-1c-.46-.25-1.17-.54-.92-1.14.37-.87,1.05-.4,1.53,0,.92.73,1.05.4,1.18-.6.08-.59.71-.28,1,0C43.86,41.37,44.49,41.89,44.61,42.53Z" style="fill:#ae7b6c"/></g></g></svg>