<svg xmlns="http://www.w3.org/2000/svg" viewBox="0 0 66.65 75.25"><g id="Ebene_2" data-name="Ebene 2"><g id="Ebene_1-2" data-name="Ebene 1"><path d="M37.8,74.7c-1.36,1.19-2.61.16-3.75-.34-6.58-2.84-11.62-7.64-16.15-13a4.36,4.36,0,0,0-1.75-1.63C8.64,57,6.42,49.45,7.4,42a31.49,31.49,0,0,1,2.44-8.88A1.67,1.67,0,0,0,9,30.52a21.47,21.47,0,0,1-6.17-5.59C-3.57,16.92,1.43,1.56,12.43.4c.11,0,.2-.26.3-.4h1.63C15,.94,16.12.56,17,1a6.11,6.11,0,0,1,2.89,8.21c-.56,1-1.22,1.73-2.55,1.27a1.65,1.65,0,0,1-1.2-2.29c.54-2.06-.66-2.74-2.43-2.84-4-.24-7.84,3.11-8.56,7.47-1,6,.54,9.26,5.67,12.55,1.56,1,2.38.89,3.4-.72A73,73,0,0,1,35.83,2.79,2.4,2.4,0,0,1,39,2.67c9.16,6.05,17.46,13,23.25,22.5C69.73,37.58,67.57,52,56.68,61.62c-.85-1.33.39-2,1-2.75,7.41-10,8.91-20.57,3.07-31.88C55.61,17.09,47.53,10,38.63,3.75a1.55,1.55,0,0,0-2.14,0A74,74,0,0,0,15.77,25.48c-.89,1.45-.53,2.15,1,2.28,5.41.43,11,1.32,14.23-5.36.65,3,.53,5.35-.69,7.63A39.29,39.29,0,0,0,26,44.52c-.83,7.74,3.4,14.3,10.78,16.55,2.34.71,4.71,1.34,7.06,2a20.94,20.94,0,0,1-13.39-2.74c1.59,5,3.24,9.24,6.22,12.85Zm-4.51-2.56c.36.21.67,1,1.13.42.31-.37-.34-.63-.62-.9-1.55-3.26-3.25-6.46-3.95-10.06-.16-.82-.38-1.44-1.58-1.23a30.74,30.74,0,0,1-9.26.21C23.6,65.31,27.81,69.5,33.29,72.14Zm-5-41a18.78,18.78,0,0,1-14.56,1.52c-1.21-.32-1.59-.1-2,.88a36.26,36.26,0,0,0-2.23,8.11c-.73,4.15-.4,8.19,1.93,11.77,2.85,4.39,10.7,6.77,15.7,5,1.56-.56.28-1.23,0-1.75A19.38,19.38,0,0,1,24.47,43,45.71,45.71,0,0,1,28.29,31.1Zm1.61-4.67a10.56,10.56,0,0,1-4.42,2.47,20.35,20.35,0,0,1-19-5.26C1.3,18.87,2.69,6,12,4c3.39-.71,5.79,1,5.6,4.48,0,.41-.08.69.61.76C19.58,8.14,19.51,6.53,19,5a4.72,4.72,0,0,0-4.22-3.32A10.54,10.54,0,0,0,6.5,4.36C-1.14,11.12-.4,22.53,8,28.42c7.23,5.06,15.41,5.16,21,.33C29.82,28.11,30.49,27.62,29.9,26.43Z" style="fill:#727468"/><path d="M36.69,73.18c-3-3.61-4.63-7.86-6.22-12.85a20.94,20.94,0,0,0,13.39,2.74c-2.35-.66-4.72-1.29-7.06-2C29.42,58.82,25.19,52.26,26,44.52A39.29,39.29,0,0,1,30.34,30c1.22-2.28,1.34-4.62.69-7.63-3.23,6.68-8.82,5.79-14.23,5.36-1.56-.13-1.92-.83-1-2.28A74,74,0,0,1,36.49,3.77a1.55,1.55,0,0,1,2.14,0c8.9,6.29,17,13.34,22.1,23.24,5.84,11.31,4.34,21.86-3.07,31.88-.59.79-1.83,1.42-1,2.75h0c-.84-.73-1.14-.13-1.39.57l0,0c-.41,0-.62.14-.57.57l0,0c-.67.13-1.16.34-.56,1.11h0c-.76-.71-1.07,0-1.43.47-2.59,1.76-5.08,3.69-7.81,5.22S40,73.23,36.69,73.18Z" style="fill:#f1e6cc"/><path d="M36.69,73.18c3.31,0,5.63-2.21,8.25-3.67s5.22-3.46,7.81-5.22l1,.12c-4.67,4.42-10.26,7.43-16,10.29Z" style="fill:#7e7f73"/><path d="M53.75,64.41l-1-.12c.36-.52.67-1.18,1.43-.47Z" style="fill:#727468"/><path d="M54.18,63.82c-.6-.77-.11-1,.56-1.11C55.3,63.46,54.74,63.64,54.18,63.82Z" style="fill:#727468"/><path d="M55.25,62.2c.25-.7.55-1.3,1.39-.57C56.23,62,56.09,63,55.25,62.2Z" style="fill:#727468"/><path d="M54.71,62.74c-.05-.43.16-.6.57-.57Q55.7,63.16,54.71,62.74Z" style="fill:#727468"/><path d="M28.29,31.1A45.71,45.71,0,0,0,24.47,43,19.38,19.38,0,0,0,27.09,56.6c.31.52,1.59,1.19,0,1.75-5,1.8-12.85-.58-15.7-5C9.09,49.8,8.76,45.76,9.49,41.61a36.26,36.26,0,0,1,2.23-8.11c.42-1,.8-1.2,2-.88A18.78,18.78,0,0,0,28.29,31.1Z" style="fill:#f1e6cc"/><path d="M29.9,26.43c.59,1.19-.08,1.68-.83,2.32-5.63,4.83-13.81,4.73-21-.33C-.4,22.53-1.14,11.12,6.5,4.36a10.54,10.54,0,0,1,8.26-2.69A4.72,4.72,0,0,1,19,5c.53,1.54.6,3.15-.82,4.28-.69-.07-.63-.35-.61-.76C17.74,5.08,15.34,3.32,12,4,2.69,6,1.3,18.87,6.5,23.64a20.35,20.35,0,0,0,19,5.26A10.56,10.56,0,0,0,29.9,26.43Z" style="fill:#edd69f"/><path d="M33.29,72.14C27.81,69.5,23.6,65.31,19,60.58a30.74,30.74,0,0,0,9.26-.21c1.2-.21,1.42.41,1.58,1.23.7,3.6,2.4,6.8,3.95,10.06Z" style="fill:#eae0c8"/><path d="M33.8,71.66c.28.27.93.53.62.9-.46.54-.77-.21-1.13-.42Z" style="fill:#eae0c8"/></g></g></svg>