<svg xmlns="http://www.w3.org/2000/svg" viewBox="0 0 76.82 73.22"><g id="Ebene_2" data-name="Ebene 2"><g id="Ebene_1-2" data-name="Ebene 1"><path d="M48,72.67c-1.36,1.18-2.61.15-3.75-.34-6.49-2.78-11.47-7.5-16-12.79-2.31-2.71-3.11-2.92-5.84-1a47.36,47.36,0,0,1-9.93,5.87C6.63,66.73,3,65.45,0,60.13V54.67c.76-.25.53-1.06.88-1.57.83-1.23,1.78-2.08,3.36-1.64S6,53.09,6,54.45v.27c0,4.61,1.21,5.44,5.57,3.64A19.27,19.27,0,0,0,14,57.19c1.87-1.09,4.22-1.84,5.44-3.44,1.41-1.84-1.66-3.45-1.5-5.51.39-4.81-2.11-6.06-6.57-6.81C3.05,40-1.22,32.85,1.08,25.61a9.36,9.36,0,0,1,10.35-6.42,2.57,2.57,0,0,1,2.2,2.93c0,1.59-1.29,1.61-2.35,1.56-2.77-.15-4.66.8-5.38,3.68a7.15,7.15,0,0,0,2.61,6.89c1.93,1.49,4.23,1.93,6.51,2.37,1.94.38,3.1-.13,3.87-2.42C23.85,19.58,33.87,9,46.41.49a1.73,1.73,0,0,1,2.2-.16C59.13,7.33,69,15,74.21,27s2.48,23.88-7.36,32.56c-.85-1.33.39-2,1-2.75,7.4-10,8.9-20.57,3.07-31.87C65.74,15,57.57,7.91,48.6,1.56c-.93-.66-1.47-.14-2.14.33a71.78,71.78,0,0,0-20,20.85c-2.65,4.26-5.05,8.67-6.05,13.93a32.41,32.41,0,0,0,13.25-5A15.68,15.68,0,0,0,41,20.4c.6,3.36.74,6.54-1.76,9.21-.11-.3-.22-.6-.32-.9l-1.07,1.11a30.49,30.49,0,0,1-10.57,6.49c-6.45,2.1-12.9,2.8-19.09-.8C5.62,34,4,30.08,4.57,27.61c.71-2.83,2.59-5.18,6.4-5.07.55,0,1.43.19,1.47-.76a1.3,1.3,0,0,0-1.32-1.42,7.42,7.42,0,0,0-5.66,1.33,9.77,9.77,0,0,0,.27,15.69c6.74,5,14,4.34,21.41,1.85a21,21,0,0,0,8.21-5.31c-.6,2.85-2.72,3.6-3.51,5.51-3.93,9.43-10.45,16.38-20.08,20.2-5.21,2.07-7.15.76-6.88-4.74a1.93,1.93,0,0,0-1.21-2.2c-1-.37-1.52.53-1.83,1.21-2,4.28-.05,10.44,5.73,10.07a14.23,14.23,0,0,0,4.5-.83c6.18-2.55,11-6.78,15.29-11.84,5.25-6.21,7.43-14,10.89-21.08l1-.64a14.62,14.62,0,0,1-.69,3.14,30.78,30.78,0,0,0-2.37,9.71A15,15,0,0,0,47.16,59.09c2.28.68,4.57,1.3,6.86,1.94-4.53.36-8.91.06-13.4-3,1.51,5.13,3.23,9.4,6.24,13.08ZM29.53,58.79c4.62,4.64,9.1,9.18,15.67,12.35a34.4,34.4,0,0,1-5.29-11.85c-.16-.66-.3-1.11-1.22-1A37.77,37.77,0,0,1,29.53,58.79Zm-3.36-3.68a16.11,16.11,0,0,0,12,.69c-3.05-3.68-3.76-8.08-3.94-13.34A51.36,51.36,0,0,1,26.17,55.11Zm4.34-15.8c-3.58,1.39-6.71,2.74-10.16,2.85-1,0-1.28.65-1.12,1.46.43,2.2.57,4.47,1.61,6.55.67,1.34,1.16,1.49,2.32.36C26.31,47.44,28.37,43.67,30.51,39.31Z" style="fill:#727468"/><path d="M39.25,29.61c2.5-2.67,2.36-5.85,1.76-9.21a15.68,15.68,0,0,1-7.4,11.23,32.41,32.41,0,0,1-13.25,5c1-5.26,3.4-9.67,6.05-13.93A71.78,71.78,0,0,1,46.46,1.89c.67-.47,1.21-1,2.14-.33C57.57,7.91,65.74,15,70.9,25c5.83,11.3,4.33,21.85-3.07,31.87-.59.79-1.83,1.42-1,2.75h0c-.84-.73-1.14-.14-1.39.57l0,0c-.41,0-.63.13-.57.57l0,0c-.68.12-1.17.34-.56,1.1h0c-.76-.71-1.07,0-1.42.47C60.33,64,57.83,66,55.11,67.47s-5,3.72-8.25,3.67c-3-3.68-4.73-8-6.24-13.08,4.49,3,8.87,3.33,13.4,3-2.29-.64-4.58-1.26-6.86-1.94A15,15,0,0,1,36.21,42.43a30.78,30.78,0,0,1,2.37-9.71,14.62,14.62,0,0,0,.69-3.14Z" style="fill:#f1e6cc"/><path d="M46.86,71.14c3.3,0,5.63-2.2,8.25-3.67s5.22-3.46,7.81-5.21l1,.11c-4.68,4.43-10.27,7.44-16,10.3Z" style="fill:#7e7f73"/><path d="M65.41,60.17c.25-.71.55-1.3,1.39-.57C66.39,59.92,66.26,60.92,65.41,60.17Z" style="fill:#727468"/><path d="M64.35,61.78c-.61-.76-.12-1,.56-1.1C65.47,61.42,64.91,61.6,64.35,61.78Z" style="fill:#727468"/><path d="M63.92,62.37l-1-.11c.35-.52.66-1.18,1.42-.47Z" style="fill:#727468"/><path d="M64.88,60.71c-.06-.44.16-.6.57-.57Q65.87,61.13,64.88,60.71Z" style="fill:#727468"/><path d="M38.25,30.22c-3.46,7.11-5.64,14.87-10.89,21.08-4.26,5.06-9.11,9.29-15.29,11.84a14.23,14.23,0,0,1-4.5.83c-5.78.37-7.71-5.79-5.73-10.07.31-.68.8-1.58,1.83-1.21a1.93,1.93,0,0,1,1.21,2.2c-.27,5.5,1.67,6.81,6.88,4.74,9.63-3.82,16.15-10.77,20.08-20.2.79-1.91,2.91-2.66,3.51-5.51a21,21,0,0,1-8.21,5.31c-7.39,2.49-14.67,3.17-21.41-1.85a9.77,9.77,0,0,1-.27-15.69,7.42,7.42,0,0,1,5.66-1.33,1.3,1.3,0,0,1,1.32,1.42c0,.95-.92.77-1.47.76-3.81-.11-5.69,2.24-6.4,5.07-.62,2.47,1,6.4,3.63,7.9,6.19,3.6,12.64,2.9,19.09.8a30.62,30.62,0,0,0,10.57-6.48Z" style="fill:#edd69f"/><path d="M29.53,58.79a37.77,37.77,0,0,0,9.16-.47c.92-.14,1.06.31,1.22,1A34.4,34.4,0,0,0,45.2,71.14C38.63,68,34.15,63.43,29.53,58.79Z" style="fill:#eae0c8"/><path d="M26.17,55.11a51.36,51.36,0,0,0,8.06-12.65c.18,5.26.89,9.66,3.94,13.34A16.11,16.11,0,0,1,26.17,55.11Z" style="fill:#eae0c8"/><path d="M30.51,39.31c-2.14,4.36-4.2,8.13-7.35,11.22-1.16,1.13-1.65,1-2.32-.36-1-2.08-1.18-4.35-1.61-6.55-.16-.81.13-1.42,1.12-1.46C23.8,42.05,26.93,40.7,30.51,39.31Z" style="fill:#f1e6cc"/><path d="M39.27,29.58l-1,.64-.39-.39c.35-.38.71-.75,1.07-1.12.1.3.21.6.32.9Z" style="fill:#edd69f"/></g></g></svg>