<svg xmlns="http://www.w3.org/2000/svg" viewBox="0 0 59.48 73.22"><g id="Ebene_2" data-name="Ebene 2"><g id="Ebene_1-2" data-name="Ebene 1"><path d="M49.71,59.34l-.05.21-.21.05c-.84-.73-1.14-.14-1.39.57l0,0c-.41,0-.62.14-.56.57l0,0c-.67.12-1.16.34-.56,1.11h0c-.76-.71-1.07,0-1.42.47C43,64,40.48,66,37.76,67.48s-4.95,3.71-8.26,3.67a33.68,33.68,0,0,1-6.11-12.91,20.38,20.38,0,0,0,13.24,2.9,2.37,2.37,0,0,0-1.25-.53c-4-1-8.22-1.69-11.44-4.58C18.5,51.14,18.3,44.91,19.4,38.26c1-6.13,5.8-11.24,4.71-17.91-.06-.34.47-.75.65-1.15A4.43,4.43,0,0,0,22.35,13a16.34,16.34,0,0,0-4.8-1A69,69,0,0,1,29.26,1.78a1.55,1.55,0,0,1,2.14-.1c8.45,6,16.21,12.58,21.32,21.76,3.17,5.7,5.16,11.71,4.16,18.45a32.93,32.93,0,0,1-6.48,15C49.9,57.6,48.64,58.18,49.71,59.34Z" style="fill:#f1e6cc"/><path d="M49.71,59.34c-1.07-1.16.19-1.74.69-2.4a32.93,32.93,0,0,0,6.48-15c1-6.74-1-12.75-4.16-18.45C47.61,14.26,39.85,7.63,31.4,1.68a1.55,1.55,0,0,0-2.14.1A69,69,0,0,0,17.55,12a16.34,16.34,0,0,1,4.8,1,4.43,4.43,0,0,1,2.41,6.23c-.18.4-.71.81-.65,1.15C25.2,27,20.42,32.13,19.4,38.26c-1.1,6.65-.9,12.88,4.54,17.77,3.22,2.89,7.42,3.58,11.44,4.58a2.37,2.37,0,0,1,1.25.53,20.38,20.38,0,0,1-13.24-2.9A33.68,33.68,0,0,0,29.5,71.15l1.12,1.52c-1.37,1.19-2.62.16-3.76-.34-6.58-2.84-11.61-7.64-16.14-13A4.45,4.45,0,0,0,9,57.67C1.44,54.94-.74,47.42.21,39.94c.73-5.7,3-10.8,5.75-15.73a6.15,6.15,0,0,0,.88-3c.09-3.27,1.55-6.16,4.63-7.33,3.74-1.42,6.08-4.4,8.91-6.83A93.46,93.46,0,0,1,28.82.67c.76-.52,1.42-1,2.41-.35,10.78,7.13,20.69,15.1,26,27.41A27.07,27.07,0,0,1,49.71,59.34ZM20.6,28.84c-4.88.78-9.19-.33-12.7-4a40.42,40.42,0,0,0-6,17.79,12.52,12.52,0,0,0,10.2,13.73,32.58,32.58,0,0,0,7.32.07c1.4-.07,1.46-.51.7-1.63-2.88-4.26-3.51-8.91-2.78-14,.59-4.11,2.26-7.78,3.61-11.6.1-.13.32-.33.29-.37C21,28.5,20.8,28.64,20.6,28.84ZM15,21.73c2.67,1.37,5.61.48,8.07-2.36a3.12,3.12,0,0,0-1.24-5.23,11,11,0,0,0-11,1.6,6.17,6.17,0,0,0-2.54,6.42c.43,2.45,2.27,3.84,4.51,4.63A28.53,28.53,0,0,0,17,27.88c2.47.46,5-.87,5.63-2.81-1.33.4-2.66.92-4,1.2-2.45.5-6.33-1.19-7.24-3.32a5.3,5.3,0,0,1,1.22-6.22,6.18,6.18,0,0,1,7.24-1.07c2,1.08,2.1,2.83.2,4.22C18.57,21,16.73,21.06,15,21.73Zm-2.66,37A48.15,48.15,0,0,0,27.83,71.13a31.17,31.17,0,0,1-5-11.29c-.25-1.26-.83-1.7-2.2-1.46A25.23,25.23,0,0,1,12.38,58.7ZM22.8,21.57c-.7.35-1.33.63-1.92,1a6.69,6.69,0,0,1-5.44.86,1.85,1.85,0,0,1-1.56-1.94c.09-.81.76-1,1.57-1.2A15.06,15.06,0,0,0,19.28,19c1.36-.68,1.38-1.73-.06-2.34a4.3,4.3,0,0,0-2.86-.54c-2.76.7-4.34,2.39-4.27,4.82.07,2.09,2.38,3.94,5.24,4.2A4.86,4.86,0,0,0,22.8,21.57Z" style="fill:#727468"/><path d="M30.62,72.67,29.5,71.15c3.31,0,5.64-2.21,8.26-3.67S43,64,45.57,62.26l1,.12C41.89,66.8,36.3,69.81,30.62,72.67Z" style="fill:#7e7f73"/><path d="M48.06,60.17c.25-.71.55-1.3,1.39-.57C49,59.93,48.91,60.93,48.06,60.17Z" style="fill:#727468"/><path d="M46.56,62.38l-1-.12c.35-.52.66-1.18,1.42-.47Z" style="fill:#727468"/><path d="M47,61.79c-.6-.77-.11-1,.56-1.11C48.12,61.43,47.55,61.61,47,61.79Z" style="fill:#727468"/><path d="M47.53,60.71c-.06-.43.15-.6.56-.57C48.38,60.8,48.19,61,47.53,60.71Z" style="fill:#727468"/><path d="M20.93,29.17c-1.35,3.82-3,7.49-3.61,11.6-.73,5.08-.1,9.73,2.78,14,.76,1.12.7,1.56-.7,1.63a32.58,32.58,0,0,1-7.32-.07A12.52,12.52,0,0,1,1.88,42.59a40.42,40.42,0,0,1,6-17.79c3.51,3.71,7.82,4.82,12.7,4Z" style="fill:#f1e6cc"/><path d="M15,21.73c1.69-.67,3.53-.77,5-1.85,1.9-1.39,1.82-3.14-.2-4.22a6.18,6.18,0,0,0-7.24,1.07A5.3,5.3,0,0,0,11.38,23c.91,2.13,4.79,3.82,7.24,3.32,1.38-.28,2.71-.8,4-1.2C22.05,27,19.5,28.34,17,27.88a28.53,28.53,0,0,1-4.18-1.09c-2.24-.79-4.08-2.18-4.51-4.63a6.17,6.17,0,0,1,2.54-6.42,11,11,0,0,1,11-1.6,3.12,3.12,0,0,1,1.24,5.23C20.65,22.21,17.71,23.1,15,21.73Z" style="fill:#edd69f"/><path d="M12.38,58.7a25.23,25.23,0,0,0,8.2-.32c1.37-.24,2,.2,2.2,1.46a31.17,31.17,0,0,0,5,11.29A48.15,48.15,0,0,1,12.38,58.7Z" style="fill:#eae0c8"/><path d="M22.8,21.57a4.86,4.86,0,0,1-5.47,3.6c-2.86-.26-5.17-2.11-5.24-4.2-.07-2.43,1.51-4.12,4.27-4.82a4.3,4.3,0,0,1,2.86.54c1.44.61,1.42,1.66.06,2.34a15.06,15.06,0,0,1-3.83,1.24c-.81.16-1.48.39-1.57,1.2a1.85,1.85,0,0,0,1.56,1.94,6.69,6.69,0,0,0,5.44-.86C21.47,22.2,22.1,21.92,22.8,21.57Z" style="fill:#eae0c8"/><path d="M20.6,28.84c.2-.2.42-.34.62,0,0,0-.19.24-.29.37Z" style="fill:#f1e6cc"/></g></g></svg>