<svg xmlns="http://www.w3.org/2000/svg" viewBox="0 0 83.83 73.21"><g id="Ebene_2" data-name="Ebene 2"><g id="Ebene_1-2" data-name="Ebene 1"><path d="M52.8,73.21a46.85,46.85,0,0,1-18-14.38c-1.29-1.66-1.93-1.54-2.74.52-2.81,7.12-7.24,10.28-13.71,10.12-3.77-.1-9-3.88-10.21-7.45A4,4,0,0,0,6,59.64a8,8,0,0,1-4.79-7.22c-.1-2.94-1.85-5.55-1-8.72C1.81,37.58,6.14,34.58,11.65,33a39.39,39.39,0,0,1,12-1.73,4.37,4.37,0,0,0,4.58-2.86C33.86,16.73,42.53,7.75,53.22.63c.78-.52,1.44-.95,2.43-.3C66.16,7.34,76,15,81.23,27s2.47,23.87-7.36,32.54c-.85-1.33.39-1.95,1-2.75,7.4-10,8.92-20.55,3.08-31.86C72.77,15,64.6,7.91,55.63,1.57c-.92-.66-1.46-.17-2.14.3a75.12,75.12,0,0,0-13.22,11.7,65.43,65.43,0,0,0-9.65,14.11c-.33.67-1.13,1.48-.53,2.2s1.33-.05,2-.24C37.78,28,43.27,26,47,21c.24-.33.56-.78,1.11-.54s.38.77.4,1.19a13.48,13.48,0,0,1-1.33,7.12,38.49,38.49,0,0,0-4,14A15,15,0,0,0,54,59c2.34.72,4.7,1.34,7,2a20.94,20.94,0,0,1-13.43-2.79c1.66,5,3.22,9.3,6.25,12.89L55,72.67v.54ZM4.31,56.83c.1.1,0,.6.35.19l-.39-.15c-.23-1.26.68-3-1.4-3.8C2.36,54.94,3.49,55.82,4.31,56.83ZM50.47,70.1c.37.21.68,1,1.13.42.31-.37-.33-.63-.62-.9-1.55-3.26-3.25-6.46-3.95-10.07-.16-.81-.38-1.44-1.58-1.22a30.67,30.67,0,0,1-9.25.21C40.78,63.27,45,67.46,50.47,70.1ZM47.79,22.35a30.1,30.1,0,0,1-4.92,4.06c-7.21,4.73-15.41,5.75-23.72,6.48-5.45.49-10.71,1.64-14.83,5.69C.49,42.34.12,49.25,4.11,52.14c1-7.93,7.92-15,15.48-15.86-.66,1-1.7,1.22-2.67,1.62C11.33,40.2,7.45,44.14,5.81,50c-1.82,6.6,1.4,12,8.6,11.22a15,15,0,0,0,7.37-3.09c1-.7,1.89-1.43,2.83-2.15a11.9,11.9,0,0,1-7.39,5.82c-1.34.42-3.07.76-2.46,2.81.54,1.82,1.14,3.64,3.67,3.67,5.15.06,8.74-2.37,11.24-6.69C31.74,58,32.53,54,33.09,50c1.28-9.29,5-17,12.83-22.56C47.59,26.3,48,24.72,47.79,22.35ZM45,29.85c-.94.72-1.29,1-1.61,1.24-7.19,6.11-8.32,14.76-9.81,23.28-.22,1.25.62,1.34,1.36,1.57a22,22,0,0,0,8.32.48c1.52-.11,2.21-.17,1-1.93A18.36,18.36,0,0,1,41.66,41,50.79,50.79,0,0,1,45,29.85ZM9.19,62.14a5.72,5.72,0,0,0,4.85,4,5.18,5.18,0,0,1-.26-3.68Z" style="fill:#727468"/><path d="M53.87,71.14c-3-3.59-4.59-7.87-6.25-12.89A20.94,20.94,0,0,0,61.05,61c-2.35-.67-4.71-1.29-7-2A15,15,0,0,1,43.17,42.78a38.49,38.49,0,0,1,4-14,13.48,13.48,0,0,0,1.33-7.12c0-.42.15-.95-.4-1.19s-.87.21-1.11.54c-3.7,5-9.19,7-14.87,8.66-.68.19-1.47.87-2,.24s.2-1.53.53-2.2a65.43,65.43,0,0,1,9.65-14.11A75.12,75.12,0,0,1,53.49,1.87c.68-.47,1.22-1,2.14-.3C64.6,7.91,72.77,15,77.92,25c5.84,11.31,4.32,21.85-3.08,31.86-.58.8-1.82,1.42-1,2.75h-.05c-.84-.73-1.14-.14-1.39.57l0,0c-.42,0-.63.14-.57.57l0,0c-.67.12-1.16.34-.55,1.11h0c-.76-.71-1.07-.05-1.42.47-2.6,1.76-5.09,3.69-7.81,5.22S57.18,71.19,53.87,71.14Z" style="fill:#f1e6cc"/><path d="M53.87,71.14c3.31,0,5.64-2.21,8.26-3.67s5.21-3.46,7.81-5.22l1,.12C66.26,66.8,60.67,69.8,55,72.67Z" style="fill:#7e7f73"/><path d="M72.43,60.16c.25-.71.55-1.3,1.39-.57C73.41,59.92,73.28,60.92,72.43,60.16Z" style="fill:#727468"/><path d="M71.37,61.78c-.61-.77-.12-1,.55-1.11C72.49,61.42,71.92,61.6,71.37,61.78Z" style="fill:#727468"/><path d="M70.93,62.37l-1-.12c.35-.52.66-1.18,1.42-.47Z" style="fill:#727468"/><path d="M71.9,60.7c-.06-.43.15-.6.57-.57Q72.89,61.12,71.9,60.7Z" style="fill:#727468"/><path d="M47.79,22.35c.23,2.37-.2,3.95-1.87,5.13C38.13,33,34.37,40.75,33.09,50c-.56,4-1.35,8-3.42,11.58-2.5,4.32-6.09,6.75-11.24,6.69-2.53,0-3.13-1.85-3.67-3.67-.61-2,1.12-2.39,2.46-2.81A11.9,11.9,0,0,0,24.61,56c-.94.72-1.87,1.45-2.83,2.15a15,15,0,0,1-7.37,3.09C7.21,62.08,4,56.63,5.81,50c1.64-5.89,5.52-9.83,11.11-12.13,1-.4,2-.61,2.67-1.62C12,37.13,5.16,44.21,4.11,52.14c-4-2.89-3.62-9.8.21-13.56,4.12-4,9.38-5.2,14.83-5.69,8.31-.73,16.51-1.75,23.72-6.48A30.1,30.1,0,0,0,47.79,22.35ZM28.55,50.09l-3.63,5.54.61.37a10.6,10.6,0,0,0,3.36-5.64c.38-.17.61-.58.29-.8S28.74,49.87,28.55,50.09Z" style="fill:#edd69f"/><path d="M45,29.85A50.79,50.79,0,0,0,41.66,41a18.36,18.36,0,0,0,2.65,13.47c1.17,1.76.48,1.82-1,1.93A22,22,0,0,1,35,55.94c-.74-.23-1.58-.32-1.36-1.57,1.49-8.52,2.62-17.17,9.81-23.28C43.72,30.81,44.07,30.57,45,29.85Z" style="fill:#f1e6cc"/><path d="M50.47,70.1C45,67.46,40.78,63.27,36.2,58.54a30.67,30.67,0,0,0,9.25-.21c1.2-.22,1.42.41,1.58,1.22.7,3.61,2.4,6.81,3.95,10.07Z" style="fill:#eae0c8"/><path d="M9.19,62.14l4.59.32A5.18,5.18,0,0,0,14,66.14,5.72,5.72,0,0,1,9.19,62.14Z" style="fill:#edd69f"/><path d="M4.31,56.83c-.82-1-1.95-1.89-1.44-3.76,2.08.81,1.17,2.54,1.4,3.8Z" style="fill:#edd69f"/><path d="M51,69.62c.29.27.93.53.62.9-.45.54-.76-.21-1.13-.42Z" style="fill:#eae0c8"/><path d="M4.27,56.87l.39.15c-.37.41-.25-.09-.35-.19Z" style="fill:#edd69f"/><path d="M28.89,50.36A10.6,10.6,0,0,1,25.53,56l-.61-.37,3.63-5.54Z" style="fill:#727468"/><path d="M28.55,50.09c.19-.22.23-.82.63-.53s.09.63-.29.8Z" style="fill:#727468"/></g></g></svg>