<svg xmlns="http://www.w3.org/2000/svg" viewBox="0 0 59.48 73.22"><g id="Ebene_2" data-name="Ebene 2"><g id="Ebene_1-2" data-name="Ebene 1"><path d="M46.43,62.61c-.19.34-.44.52-.83.28.07-.29,0-.57-.32-.52s-.33.34-.5.52l0,0c-.58.31-1.27.58-.57,1.41,0,.18-.07.27-.26.25-.67-.91-1.27-.22-1.82.13-1.51,1-2.9,2.12-4.49,2.92-2.66,1.33-4.91,3.66-8.18,3.6A33.51,33.51,0,0,1,23.42,58.3a20.39,20.39,0,0,0,13.19,2.81,70.83,70.83,0,0,1-7.76-2.34c-5.58-1.91-8.75-5.88-9.71-11.68-1.05-6.38.86-12.21,3.44-17.86,1.27-2.8,2.22-5.57,2-8.69-.91,0-1.12.46-1.38,1-1.17,2.25-3.49,2.66-5.26.86a15.84,15.84,0,0,1-1.54-2.52c-1-1.51-2.3-1.38-2.88.09a6.89,6.89,0,0,0-.59,4.7c1,3.31,3.43,4.29,6.31,4.62,1.44.17,1.79.47,1.11,1.75a17,17,0,0,0-1,2.22C16.94,39.6,15.9,46,18.68,52.56c.5,1.19,2.34,2.21,1.47,3.44-.71,1-2.56.48-3.89.55C8.17,57,3.48,53,2.16,45.08a20.65,20.65,0,0,1,1.09-9.61C7.77,21,17.34,10.34,29.41,1.66c.88-.64,1.41-.38,2.14.14,8.08,5.68,15.52,12,20.6,20.65,3.61,6.15,5.88,12.63,4.67,20A32.76,32.76,0,0,1,50.4,56.94c-.5.66-1.76,1.23-.68,2.39l0,.22-.22.05c-.84-.73-1.14-.14-1.39.57l0,0c-.41,0-.63.13-.57.57l0,0c-.68.12-1.17.34-.56,1.11v0c-.32-.07-.67-.16-.79.25C46.18,62.18,46.35,62.41,46.43,62.61Z" style="fill:#f1e6cc"/><path d="M49.72,59.33c-1.08-1.16.18-1.73.68-2.39A32.76,32.76,0,0,0,56.82,42.4c1.21-7.32-1.06-13.8-4.67-19.95-5.08-8.64-12.52-15-20.6-20.65-.73-.52-1.26-.78-2.14-.14C17.34,10.34,7.77,21,3.25,35.47a20.65,20.65,0,0,0-1.09,9.61c1.32,8,6,11.89,14.1,11.47,1.33-.07,3.18.46,3.89-.55.87-1.23-1-2.25-1.47-3.44-2.78-6.55-1.74-13,.61-19.33a17,17,0,0,1,1-2.22c.68-1.28.33-1.58-1.11-1.75-2.88-.33-5.35-1.31-6.31-4.62a6.89,6.89,0,0,1,.59-4.7c.58-1.47,1.88-1.6,2.88-.09a15.84,15.84,0,0,0,1.54,2.52c1.77,1.8,4.09,1.39,5.26-.86.26-.51.47-1,1.38-1,.27,3.12-.68,5.89-2,8.69C20,34.88,18.09,40.71,19.14,47.09c1,5.8,4.13,9.77,9.71,11.68a70.83,70.83,0,0,0,7.76,2.34A20.39,20.39,0,0,1,23.42,58.3a33.51,33.51,0,0,0,6.09,12.85l1.11,1.52c-1.36,1.18-2.62.15-3.76-.34-6.57-2.83-11.6-7.64-16.13-13C10.2,58.68,9.8,58,9,57.67,1.43,54.94-.76,47.37.22,40c1-7.58,4.34-14.17,8.71-20.27A72.89,72.89,0,0,1,28.63.8c.83-.53,1.51-1.22,2.64-.47C42,7.47,51.94,15.44,57.24,27.74A27.1,27.1,0,0,1,49.72,59.33ZM26.1,70.11c.37.21.68,1,1.13.41.31-.36-.33-.63-.61-.89-1.56-3.27-3.28-6.47-3.94-10.08-.21-1.11-.78-1.35-1.87-1.18a29,29,0,0,1-9,.18C16.4,63.27,20.62,67.46,26.1,70.11ZM14.92,20.33a5.15,5.15,0,0,0-.11,4.93c1,2,3,2.25,4.79,2.53A2.84,2.84,0,0,0,22.68,26c.45-1,.3-1.55-.48-1.39C18.61,25.37,16.41,23.66,14.92,20.33Z" style="fill:#727468"/><path d="M30.62,72.67l-1.11-1.52c3.27.06,5.52-2.27,8.18-3.6,1.59-.8,3-2,4.49-2.92.55-.35,1.15-1,1.82-.13C39.94,67.89,35.3,70.31,30.62,72.67Z" style="fill:#7e7f73"/><path d="M44.26,64.25c-.7-.83,0-1.1.57-1.41C45.56,63.69,44.64,63.86,44.26,64.25Z" style="fill:#727468"/><path d="M48.06,60.17c.25-.71.55-1.3,1.39-.57C49,59.92,48.91,60.92,48.06,60.17Z" style="fill:#727468"/><path d="M47,61.79c-.61-.77-.12-1,.56-1.11C48.12,61.42,47.56,61.6,47,61.79Z" style="fill:#727468"/><path d="M44.78,62.89c.17-.18.31-.5.5-.52s.39.23.32.52A.46.46,0,0,1,44.78,62.89Z" style="fill:#727468"/><path d="M46.43,62.61c-.08-.2-.25-.43-.21-.59.12-.41.47-.32.79-.25Z" style="fill:#727468"/><path d="M47.53,60.71c-.06-.44.16-.6.57-.57Q48.52,61.13,47.53,60.71Z" style="fill:#727468"/><path d="M26.1,70.11c-5.48-2.65-9.7-6.84-14.27-11.56a29,29,0,0,0,9-.18c1.09-.17,1.66.07,1.87,1.18.66,3.61,2.38,6.81,3.94,10.08Z" style="fill:#eae0c8"/><path d="M14.92,20.33c1.49,3.33,3.69,5,7.28,4.3.78-.16.93.4.48,1.39a2.84,2.84,0,0,1-3.08,1.77c-1.82-.28-3.83-.52-4.79-2.53A5.15,5.15,0,0,1,14.92,20.33Z" style="fill:#edd69f"/><path d="M26.62,69.63c.28.26.92.53.61.89-.45.54-.76-.2-1.13-.41Z" style="fill:#eae0c8"/></g></g></svg>