<svg xmlns="http://www.w3.org/2000/svg" viewBox="0 0 50.94 66.06"><g id="Ebene_2" data-name="Ebene 2"><g id="Ebene_1-2" data-name="Ebene 1"><path d="M23,58.92c0-2-1.18-2.8-2.87-3.69C11.93,51,5.1,45.19.94,36.71A8.1,8.1,0,0,1,0,32.82,76.73,76.73,0,0,1,1.07,21a6.94,6.94,0,0,1,3.29-5.08,11.78,11.78,0,0,0,4.55-5,12.63,12.63,0,0,1,9.26-6,19.81,19.81,0,0,0,6.7-2.48A20.33,20.33,0,0,1,31.2.15,7.5,7.5,0,0,1,39.91,10c-.29.93-.32,2-1.2,2.64L38.1,12c.24-.78.52-1.54.72-2.32,1.11-4.34-1.21-7.87-5.57-8.46C28.63.61,21.28,5,19.57,9.38a25.39,25.39,0,0,0-1.83,7.87c-1.46-3.83-.47-6.58.85-9.3.24-.49.64-1,.31-1.52a1.17,1.17,0,0,0-1.49-.29C13.63,7.78,9.93,9.47,8.67,14a16.37,16.37,0,0,0,.66,10.06c-2.86-2.62-2-5.72-2.53-8.5-4.89,3.76-6,8.5-3.6,14.83C1,29.52,1.06,31,1,32.36a8.46,8.46,0,0,0,1.07,4.17c4.3,8,10.74,13.77,18.68,18,1.19.63,2.05.38,3.1-.56a21.31,21.31,0,0,1,18.58-5.32c0,.3,0,.61,0,.91A19.3,19.3,0,0,0,28.36,52c-4.58,2.63-5.58,3.89-4.49,6.94Z" style="fill:#747568"/><path d="M42.49,49.56c0-.3,0-.61,0-.91,2.09-.47,2.55-2.31,3.29-3.92a32.61,32.61,0,0,0,2.47-10.46c.49-4.79,1.82-9.45,1.43-14.39s-4.72-6.18-8.17-4.45c-1.2.6-1.85,2.06-3.38,2.05L38,17.4c2-3,5.28-4.45,8.3-3.65a6.49,6.49,0,0,1,4.59,7.17c-.72,8.14-.69,16.6-4.25,24.09-1.84,3.89-2.35,7.14-1,11,.36,1,.76,2.55-.77,3.38l-.27-.55A13.53,13.53,0,0,0,42.49,49.56Z" style="fill:#7a7868"/><path d="M23,58.92h.9c2.72,7.41,2.84,6.52,9.73,5.23,3.85-.72,7.11-2.85,10.46-4.74l.5.33a27.3,27.3,0,0,1-13.07,6c-4.79.92-6.28,0-7.87-4.49C23.36,60.48,23.18,59.7,23,58.92Z" style="fill:#7a7868"/><path d="M37.63,13.73c-2.48,1.6-2.72,3.75-1.53,6.25a1.13,1.13,0,0,1-.22.27c-1.55-1.45-1.5-3.54-2.13-5.35-.07-.21,0-1,.39-.68,1.44,1.22,2.23-.89,3.44-.54Z" style="fill:#7e7e70"/><path d="M36.1,20c1.59-.16.73-2.12,1.92-2.58l.09.08c.29,2.3-.68,4.38-1.11,6.55h-.92l-.2-3.77A1.13,1.13,0,0,0,36.1,20Z" style="fill:#7a7868"/><path d="M38.1,12l.61.59-1.08,1.12-.05-.05A1.48,1.48,0,0,1,38.1,12Z" style="fill:#7e7e70"/><path d="M44.88,59.43a.67.67,0,0,1-.33.31l-.49-.33.55-.53Z" style="fill:#7a7868"/><path d="M38.1,12a1.48,1.48,0,0,0-.52,1.66c-1.21-.35-2,1.76-3.44.54-.41-.34-.46.47-.39.68.63,1.81.58,3.9,2.13,5.35.07,1.26.13,2.51.2,3.77a16.35,16.35,0,0,0,.38,6.71c.91-2.19.44-4.47.54-6.7.43-2.17,1.4-4.25,1.11-6.55,1.53,0,2.18-1.45,3.38-2.05,3.45-1.73,7.79-.37,8.17,4.45s-.94,9.6-1.43,14.39a32.61,32.61,0,0,1-2.47,10.46c-.74,1.61-1.2,3.45-3.29,3.92A21.31,21.31,0,0,0,23.89,54c-1.05.94-1.91,1.19-3.1.56-7.94-4.23-14.38-10-18.68-18A8.46,8.46,0,0,1,1,32.36c0-1.41-.09-2.84,2.16-2C.76,24.05,1.91,19.31,6.8,15.55c.53,2.78-.33,5.88,2.53,8.5A16.37,16.37,0,0,1,8.67,14c1.26-4.52,5-6.21,8.74-7.85a1.17,1.17,0,0,1,1.49.29c.33.52-.07,1-.31,1.52-1.32,2.72-2.31,5.47-.85,9.3a25.39,25.39,0,0,1,1.83-7.87C21.28,5,28.63.61,33.25,1.24c4.36.59,6.68,4.12,5.57,8.46C38.62,10.48,38.34,11.24,38.1,12Zm-20,5.85c0,.07-.08.15-.07.21.06.25.17.26.27,0a.33.33,0,0,0,0-.21S18.19,17.88,18.14,17.87Z" style="fill:#b9ab8c"/><path d="M44.61,58.88l-.55.53c-3.35,1.89-6.61,4-10.46,4.74-6.89,1.29-7,2.18-9.73-5.23-1.09-3.05-.09-4.31,4.49-6.94a19.3,19.3,0,0,1,14.13-2.42A13.53,13.53,0,0,1,44.61,58.88ZM29.3,62.65l-.59.5c-.36.05-.71.14-.79.55,0,.1.15.23.24.34l.75-.69c.19-.18.37-.36.55-.55l.6-.47a1.14,1.14,0,0,0,1-.63,1.24,1.24,0,0,0,1.11-.52,103.85,103.85,0,0,1,10.58-3.32,7.85,7.85,0,0,0-3.49.07c-2.5.81-5.38.77-7.27,3l-1,.61a1.23,1.23,0,0,0-1.12.54Z" style="fill:#b8ab8b"/><path d="M37,24c-.1,2.23.37,4.51-.54,6.7A16.35,16.35,0,0,1,36.08,24Z" style="fill:#7e7e70"/><path d="M18.14,17.87c.05,0,.14,0,.16,0a.33.33,0,0,1,0,.21c-.1.24-.21.23-.27,0C18.06,18,18.12,17.94,18.14,17.87Z" style="fill:#747568"/><path d="M32,61c1.89-2.26,4.77-2.22,7.27-3a7.85,7.85,0,0,1,3.49-.07,103.85,103.85,0,0,0-10.58,3.32Z" style="fill:#7a7868"/><path d="M28.91,63.35l-.75.69c-.09-.11-.26-.24-.24-.34.08-.41.43-.5.79-.55Z" style="fill:#7a7868"/><path d="M31.08,61.7a1.16,1.16,0,0,1-1,.63l-.22-.22A1.23,1.23,0,0,1,31,61.57Z" style="fill:#7a7868"/><path d="M32.18,61.18a1.24,1.24,0,0,1-1.11.52L31,61.57,32,61Z" style="fill:#7a7868"/><path d="M29.46,62.81l-.55.54-.2-.2.59-.5Z" style="fill:#7a7868"/><path d="M29.3,62.65l.54-.54.22.22-.6.47Z" style="fill:#7a7868"/></g></g></svg>