<svg xmlns="http://www.w3.org/2000/svg" viewBox="0 0 50.87 66.18"><g id="Ebene_2" data-name="Ebene 2"><g id="Ebene_1-2" data-name="Ebene 1"><path d="M38.78,50a37.46,37.46,0,0,1-8.87,5.69c-1.15.49-1.81.78-1,2.32s-1.14,5.49-3,6.38l-1.13,0c.12-.66.23-1.32.35-2,.34.08.78.34,1,.22,1.56-.79,2-3.7.86-5-1.67-1.8-3.41-3.59-5.73-4.47-1.18-.45-2.54-2.38-3.89-.19s-.17,3.24,1.66,4.17,3.61,1.74,4.07,4a1.83,1.83,0,0,1-1.41-.62c-2-1.9-4-4.09-7.18-2.26l-1.17-.45A12.32,12.32,0,0,0,8,56.72c-1.71-.1-2.5.46-2.32,2.21L5.64,59C3,55.76,3.12,52.62,6,49.59c.45-.48.08-.81-.15-1.17-3.92-6-4-13-5-19.79-.46-3.11-1.16-6.2-.57-9.39.49-2.68,2.64-5.18.92-8.13-.25-.43.08-.67.46-.73A1,1,0,0,1,2.72,11c1,2.26,2.88,2.49,5.08,2.78a6.39,6.39,0,0,1,5.08,3.61l-.07.07C11,17.11,10,15.23,8.14,14.9c-.49-.09-1.1-.45-1.41.14C5.4,17.58,5.4,17.73,3.08,17.23c-1.18-.25-1.65.21-1.66,1.08,0,1.78-.72,3.45-.28,5.36.7,3.06.86,6.25,1.33,9.38.72,4.72,1.14,9.51,3.67,13.78a3.19,3.19,0,0,0,3.6,1.65c6.34-.75,12.13.81,16.8,5.14,1.83,1.7,3,1.34,4.65.33l7.16-4.38Zm-21.86.74c-.32-1-1.25-.66-1.83-.22-1.44,1.09-2.54.86-3.79-.34-1-.94-2-.69-2.59.6-.44,1-.84,2-1.21,3a1.41,1.41,0,0,0,.14,1.53c.57.58,1.16.17,1.72-.11,1.68-.88,3.2-1.19,4.32.9a.79.79,0,0,0,1.49,0C15.83,54.4,16.3,52.66,16.92,50.74ZM7.61,50c-2.14,1.24-2.11,3.14-2.86,4.56a.66.66,0,0,0,.59,1c.55.07.74-.29.88-.76C6.62,53.34,7,51.92,7.61,50Zm-2-33.72c-.73-1-.92-2.31-2.61-2.61C3.28,15.28,3.21,16.84,5.59,16.28Z" style="fill:#707265"/><path d="M27,3.23C30.54,5,34.72,4.66,38.11,7.07c4.28,3,6,8.34,10.57,11.14,1,.62,1.08,2.41,1.39,3.75,2.64,11.76-1.24,21.45-11.29,28l-.43-.43a35,35,0,0,0,3.88-4.13c1.27-1.88,3.74-2.95,3.84-5.61l0,0c3-1.6,3.43-4.57,3.78-7.49.16-1.31.3-3-2.12-1.95,2.58-6.81,1-12.67-3.76-14.53-.19,5.15-.19,5.15-1.7,6.76.07-.62.09-1.07.17-1.49C43.9,14.07,41,8.91,34.23,6.36c-.69-.26-1.46-.59-2-.09-.77.65,0,1.35.28,1.92a11.14,11.14,0,0,1,.78,8.32c-.72-4.82-1.82-9.41-6.11-12.46C27,4,27,3.56,27,3.3ZM31,5.77l.13.08,0-.13Z" style="fill:#707265"/><path d="M12.21,12.6a3.55,3.55,0,0,1-1.11-2.38c-.39-1.87-1-3.42-3.23-3.8C7,6.28,6.12,5.6,7.67,4.74,10.08,3.39,12.48,1.86,15,.79,19.28-1.1,23.35.68,27,3.23L27,3.3c-1.62.24-3-.59-4.39-1.15C18.49.53,15.41,1,13.21,3.64S11.49,9.15,12.8,12Z" style="fill:#707265"/><path d="M24.8,64.37l1.13,0c-2.65,3-5.88,1.45-8.79.84a23.3,23.3,0,0,1-8.57-3.8l.5-.45c1.66.71,3.27,1.57,5,2.11C17.54,64.21,21,65.74,24.8,64.37Z" style="fill:#7e7e70"/><path d="M14.85,20c1.13-2.49.89-4.64-1.57-6.23l.05-.05c1.21-.35,2,1.75,3.45.54.4-.34.45.48.38.68-.65,1.8-.55,3.92-2.16,5.33A.46.46,0,0,1,14.85,20Z" style="fill:#7e7e70"/><path d="M12.88,17.4c1.26.38.22,2.54,2,2.55a.46.46,0,0,0,.15.27c-.15,1.27-.29,2.53-.44,3.8h-.64c-.43-2.18-1.39-4.26-1.11-6.55Z" style="fill:#707265"/><path d="M8.57,61.43,6.76,60l.67,0a2.2,2.2,0,0,1,1.64,1Z" style="fill:#7e7e70"/><path d="M12.21,12.6,12.8,12a1.49,1.49,0,0,1,.53,1.66l-.05.05Z" style="fill:#7e7e70"/><path d="M6.5,59.85,5.64,59l.06-.06a.9.9,0,0,1,1.11.51A1.77,1.77,0,0,0,6.5,59.85Z" style="fill:#707265"/><path d="M7.43,60l-.67,0a.24.24,0,0,1-.26-.16,1.77,1.77,0,0,1,.31-.41Z" style="fill:#707265"/><path d="M13.33,13.67A1.49,1.49,0,0,0,12.8,12c-1.31-2.86-1.82-5.69.41-8.37S18.49.53,22.59,2.15C24,2.71,25.36,3.54,27,3.3c.05.26,0,.65.15.75,4.29,3.05,5.39,7.64,6.11,12.46a11.14,11.14,0,0,0-.78-8.32c-.32-.57-1.05-1.27-.28-1.92.59-.5,1.36-.17,2,.09C41,8.91,43.9,14.07,42.42,21.15c-.08.42-.1.87-.17,1.49C43.76,21,43.76,21,44,15.88c4.75,1.86,6.34,7.72,3.76,14.53,2.42-1,2.28.64,2.12,1.95-.35,2.92-.76,5.89-3.78,7.49-.13-.32-.22-.88-.4-.92A4.67,4.67,0,0,1,42,35.81a5.41,5.41,0,0,0-1.91-1.89c-4-2.94-7.62-7-13.59-5.68,1.72,1.59,1.08,3.27-.52,4.26s-3.65-.31-5.32,1a14.91,14.91,0,0,0,3.63.32c.5,0,1.49-.05,1.31.52-.73,2.34,1.51,2.28,2.42,3.27,1.85,2,4.4,3.07,6.29,5.09,1.06,1.12,2.72,3,4.84,1.27.55.67,0,1.56.66,2.08.65-.23.7-.77.68-1.33-.13-4.74,1-5.74,5.54-4.92-.1,2.66-2.57,3.73-3.84,5.61a35,35,0,0,1-3.88,4.13L31.19,54c-1.63,1-2.82,1.37-4.65-.33-4.67-4.33-10.46-5.89-16.8-5.14a3.19,3.19,0,0,1-3.6-1.65c-2.53-4.27-2.95-9.06-3.67-13.78-.47-3.13-.63-6.32-1.33-9.38-.44-1.91.27-3.58.28-5.36,0-.87.48-1.33,1.66-1.08,2.32.5,2.32.35,3.65-2.19.31-.59.92-.23,1.41-.14,1.85.33,2.84,2.21,4.67,2.57-.28,2.29.68,4.37,1.11,6.55.09,2.23-.39,4.52.62,6.7.38-2.24.84-4.46,0-6.7.15-1.27.29-2.53.44-3.8,1.61-1.41,1.51-3.53,2.16-5.33.07-.2,0-1-.38-.68C15.33,15.42,14.54,13.32,13.33,13.67ZM23.75,23.93A3.94,3.94,0,0,0,26.15,27C25.49,25.59,25.45,24.57,23.75,23.93Zm8.88-6.06c0,.06-.08.14-.06.2,0,.25.15.26.25,0a.22.22,0,0,0,0-.2S32.68,17.87,32.63,17.87Z" style="fill:#b9ab8c"/><path d="M7.43,60l-.62-.54a.9.9,0,0,0-1.11-.51c-.18-1.75.61-2.31,2.32-2.21a12.32,12.32,0,0,1,5.36,1.06l-.07.09H8.15a82.09,82.09,0,0,1,10.59,3.29,1.2,1.2,0,0,0,1.11.53,1,1,0,0,0,1.07.56l.57.51.51.57.75.7c.09-.12.26-.25.24-.34-.09-.41-.44-.5-.81-.54l-.63-.45L21,62.14A1.11,1.11,0,0,0,20,61.57L18.9,61c-.94-1.85-3.14-1.45-4.53-2.51l.18-.23c3.21-1.82,5.15.37,7.18,2.27a1.83,1.83,0,0,0,1.41.62h0c.39.79.94,1.33,1.92,1.09l.09.19c-.12.66-.23,1.32-.35,2-3.79,1.37-7.26-.16-10.75-1.28-1.71-.54-3.32-1.4-5-2.11A2.2,2.2,0,0,0,7.43,60Z" style="fill:#b6a98a"/><path d="M25.15,62.39l-.09-.19a1.61,1.61,0,0,0-1.92-1.09h0c-.46-2.23-2.31-3.08-4.07-4s-3-2.08-1.66-4.17,2.71-.26,3.89.19c2.32.88,4.06,2.67,5.73,4.47,1.18,1.28.7,4.19-.86,5C25.93,62.73,25.49,62.47,25.15,62.39Z" style="fill:#aa927b"/><path d="M16.92,50.74c-.62,1.92-1.09,3.66-1.75,5.32a.79.79,0,0,1-1.49,0C12.56,54,11,54.31,9.36,55.19c-.56.28-1.15.69-1.72.11a1.41,1.41,0,0,1-.14-1.53c.37-1,.77-2,1.21-3,.59-1.29,1.62-1.54,2.59-.6,1.25,1.2,2.35,1.43,3.79.34C15.67,50.08,16.6,49.79,16.92,50.74Z" style="fill:#aa927b"/><path d="M7.61,50c-.57,1.92-1,3.34-1.39,4.76-.14.47-.33.83-.88.76a.66.66,0,0,1-.59-1C5.5,53.14,5.47,51.24,7.61,50Z" style="fill:#aa927b"/><path d="M5.59,16.28c-2.38.56-2.31-1-2.61-2.61C4.67,14,4.86,15.28,5.59,16.28Z" style="fill:#eee3ca"/><path d="M13.38,57.78l1.17.45-.18.22c-.42-.07-.85-.12-1.06-.58Z" style="fill:#b6a98a"/><polygon points="30.98 5.76 31.13 5.72 31.11 5.85 30.98 5.76" style="fill:#b9ab8c"/><path d="M14.56,24c.82,2.24.36,4.46,0,6.7-1-2.18-.53-4.47-.62-6.7Z" style="fill:#7e7e70"/><path d="M46.07,39.83c-4.55-.82-5.67.18-5.54,4.92,0,.56,0,1.1-.68,1.33-.69-.52-.11-1.41-.66-2.08-2.12,1.77-3.78-.15-4.84-1.27-1.89-2-4.44-3.1-6.29-5.09-.91-1-3.15-.93-2.42-3.27.18-.57-.81-.5-1.31-.52a14.91,14.91,0,0,1-3.63-.32c1.67-1.34,3.81-.09,5.32-1s2.24-2.67.52-4.26c6-1.28,9.55,2.74,13.59,5.68A5.41,5.41,0,0,1,42,35.81a4.67,4.67,0,0,0,3.61,3.12c.18,0,.27.6.4.92Zm-7-3.18-.16-.13c-.34-.65,1.52-2.44-.59-2-2.78.64-3.8-.21-4.37-2.77-.44-2-3.71-3.63-4.56-2.45A12.15,12.15,0,0,0,27,34.45c-.22,1.32.7,1.81,1.71,2a24.34,24.34,0,0,0,3,.12c1.48.09,2.52.85,2.33,2.38-.3,2.53,1.84,3.51,3.25,4.13s2.32-1.45,3.09-2.72c.32-.54.55-1.14.87-1.69a1.82,1.82,0,0,0-.12-2.45C40.09,35.15,39.81,36.9,39.07,36.65Z" style="fill:#6b6d60"/><path d="M23.75,23.93c1.7.64,1.74,1.66,2.4,3.07A3.94,3.94,0,0,1,23.75,23.93Z" style="fill:#6b6d60"/><path d="M32.63,17.87s.14,0,.15,0a.22.22,0,0,1,0,.2c-.1.24-.2.23-.25,0C32.55,18,32.61,17.93,32.63,17.87Z" style="fill:#707265"/><path d="M13.31,57.87c.21.46.64.51,1.06.58,1.39,1.06,3.59.66,4.53,2.51l-.16.21a80.6,80.6,0,0,0-10.59-3.3Z" style="fill:#7a7868"/><path d="M23.14,61.11a1.61,1.61,0,0,1,1.92,1.09C24.08,62.44,23.53,61.9,23.14,61.11Z" style="fill:#707265"/><path d="M22.18,63.15c.37,0,.72.13.81.54,0,.09-.15.22-.24.34l-.75-.7Z" style="fill:#7a7868"/><path d="M18.9,61l1.05.61-.1.12a1.2,1.2,0,0,1-1.11-.53Z" style="fill:#7a7868"/><path d="M20.92,62.25a1,1,0,0,1-1.07-.56l.1-.12a1.11,1.11,0,0,1,1.07.57Z" style="fill:#7a7868"/><path d="M22,63.33l-.51-.57.06-.06.63.45Z" style="fill:#7a7868"/><path d="M21,62.14l.53.56-.06.06-.57-.51Z" style="fill:#7a7868"/><path d="M39.07,36.65c.74.25,1-1.5,2-.43a1.82,1.82,0,0,1,.12,2.45c-.32.55-.55,1.15-.87,1.69-.77,1.27-1.65,3.36-3.09,2.72S33.69,41.48,34,39c.19-1.53-.85-2.29-2.33-2.38a24.34,24.34,0,0,1-3-.12c-1-.19-1.93-.68-1.71-2a12.15,12.15,0,0,1,2.41-5.1c.85-1.18,4.12.45,4.56,2.45.57,2.56,1.59,3.41,4.37,2.77,2.11-.49.25,1.3.59,2a1.89,1.89,0,0,0-1.08,1.64c-.67.51-1.51.92-1.34,2.19,1.26-.32,1.44-1.14,1.46-2.07C39,38.18,39,37.4,39.07,36.65Z" style="fill:#aa927b"/><path d="M38,38.28c0,.93-.2,1.75-1.46,2.07-.17-1.27.67-1.68,1.34-2.19Z" style="fill:#6b6d60"/><path d="M39.07,36.65C39,37.4,39,38.18,38,38.28l-.12-.12a1.89,1.89,0,0,1,1.08-1.64Z" style="fill:#6b6d60"/></g></g></svg>