<svg xmlns="http://www.w3.org/2000/svg" viewBox="0 0 44.58 73.91"><g id="Ebene_2" data-name="Ebene 2"><g id="Ebene_1-2" data-name="Ebene 1"><path d="M44.58,22.75c-1.16.49-.66,1.55-.76,2.36a48.26,48.26,0,0,1-4.47,15.31,24.93,24.93,0,0,1-8,9.07c-2,1.49-3.17,5.64-2.26,8a1.57,1.57,0,0,0,2.33,1.07c.16-.07.3-.2.47-.26C39.06,55.6,41,57,41,64.74a3.37,3.37,0,0,1,0,.55c-.31,1.92,1.09,4.27-.52,5.73-2.09,1.89-4.94,2.48-7.77,2.73a41.89,41.89,0,0,1-17.39-2.19c-4.09-1.4-4.6-2.28-4.6-6.48a18.34,18.34,0,0,1,.46-4c.75-3.28,1.94-4.16,5.29-4.15.81,0,2.2,1.11,2.47-.46.31-1.84-1.41-.73-2.14-1.06-1.14-.52-2.43-.6-3.47-1.45A66.64,66.64,0,0,1,3,44,13,13,0,0,1,1,30.65a10.76,10.76,0,0,0,.31-7.09A16.35,16.35,0,0,1,2,12.11a10.69,10.69,0,0,0,.56-4.24c.14-3.09.72-3.55,3.6-2.75.88.24,1.31-.41,1.9-.75,8.35-4.82,17.14-5.82,26-2.16,6,2.47,8.89,7.68,9.72,14.05.12.89-.44,2,.74,2.67ZM3.44,13.48A16.65,16.65,0,0,0,3,23.37a10,10,0,0,1-.34,6.86C.62,35.13,1.58,39.66,5,43.66a58.84,58.84,0,0,0,9.25,8.8,5.63,5.63,0,0,0,5.11,1.22c5.73-1.68,11.11-4.34,14.92-9,6.26-7.63,8.24-16.89,8-26.51C42,9,38,4.32,29.43,2.35a30.19,30.19,0,0,0-10-.42A20.7,20.7,0,0,0,9,5.8c-1.4,1-1.94,1.81-.36,3.06a2.55,2.55,0,0,1,.78,3.38C8.19,15,6.55,15.39,3.44,13.48Zm15,47c.18-1.94-.9-2.29-2.49-2.25s-2.93.69-3.06,2.4c-.11,1.52-1.39,3.47.11,4.48,1.15.77,2.38-.77,3.31-1.78,0,0,.26.06.49.12-.12,1.92-1.76,2.28-3,3-.67.4-2,.7-.73,1.9a5.86,5.86,0,0,0,8.17,0c-.92,3,.89,3,2.66,3.09s3.44.36,5.16.4c4.06.08,4,.05,2.55-3.84a4,4,0,0,1,0-1.34,3.24,3.24,0,0,1,2.06,2.4c.43,1.32.72,2.86,2.88,2.17,1.83-.58,3.51-1,3.17-3.51-.28-2.06-.33-4.16-.56-6.23-.34-3-1.58-3.72-4.41-2.73-6.64,2.32-6.76,2.25-7.5-4.7-.09-.78-.23-1.8-1.15-1.22-2.18,1.4-6.06,1-5.74,5.26A2.32,2.32,0,0,1,18.45,60.45ZM4.58,5.54c-.66,2.74-.51,4.81.7,6.76.38.62.68,1.44,1.59.84.75-.49,1.75-1.36.92-2.16C6.31,9.56,6.08,7.48,4.58,5.54Z" style="fill:#747568"/><path d="M3.44,13.48C6.55,15.39,8.19,15,9.37,12.24a2.55,2.55,0,0,0-.78-3.38C7,7.61,7.55,6.81,9,5.8A20.7,20.7,0,0,1,19.47,1.93a30.19,30.19,0,0,1,10,.42C38,4.32,42,9,42.25,18.18c.23,9.62-1.75,18.88-8,26.51-3.81,4.65-9.19,7.31-14.92,9a5.63,5.63,0,0,1-5.11-1.22A58.84,58.84,0,0,1,5,43.66c-3.38-4-4.34-8.53-2.26-13.43A10,10,0,0,0,3,23.37,16.65,16.65,0,0,1,3.44,13.48ZM31.55,6.93c-.37-.65-.18-1.76-1.19-2.1a1.94,1.94,0,0,0-2.31,1,14.11,14.11,0,0,1-3.93,4.3c-1.57,1.06-1.69,3.88-.62,4.75a3.65,3.65,0,0,0,5.38-.82C30.39,12,30.94,9.53,31.55,6.93Z" style="fill:#f2e6cc"/><path d="M18.45,60.45a2.32,2.32,0,0,0,1.86-2.31c-.32-4.26,3.56-3.86,5.74-5.26.92-.58,1.06.44,1.15,1.22.74,6.95.86,7,7.5,4.7,2.83-1,4.07-.25,4.41,2.73.23,2.07.28,4.17.56,6.23.34,2.52-1.34,2.93-3.17,3.51-2.16.69-2.45-.85-2.88-2.17a3.24,3.24,0,0,0-2.06-2.4,4,4,0,0,0,0,1.34C33.07,71.93,33.09,72,29,71.88c-1.72,0-3.44-.3-5.16-.4s-3.58-.1-2.66-3.09a5.86,5.86,0,0,1-8.17,0c-1.27-1.2.06-1.5.73-1.9,1.28-.76,2.92-1.12,3-3-.23-.06-.45-.17-.49-.12-.93,1-2.16,2.55-3.31,1.78-1.5-1-.22-3-.11-4.48.13-1.71,1.36-2.35,3.06-2.4S18.63,58.51,18.45,60.45Z" style="fill:#eee3ca"/><path d="M4.58,5.54c1.5,1.94,1.73,4,3.21,5.44.83.8-.17,1.67-.92,2.16-.91.6-1.21-.22-1.59-.84C4.07,10.35,3.92,8.28,4.58,5.54Z" style="fill:#b6bbbd"/><path d="M31.55,6.93c-.61,2.6-1.16,5-2.67,7.13a3.65,3.65,0,0,1-5.38.82c-1.07-.87-.95-3.69.62-4.75a14.11,14.11,0,0,0,3.93-4.3,1.94,1.94,0,0,1,2.31-1C31.37,5.17,31.18,6.28,31.55,6.93ZM29.72,5.77C28,8,26.9,9.91,25,11.24A1.64,1.64,0,0,0,25,14c1.07.78,1.9.55,2.63-.65C29,11.17,30.16,9,29.72,5.77Z" style="fill:#6c6f62"/><path d="M29.72,5.77c.44,3.24-.74,5.4-2.07,7.57-.73,1.2-1.56,1.43-2.63.65a1.64,1.64,0,0,1,0-2.75C26.9,9.91,28,8,29.72,5.77Z" style="fill:#b6bbbd"/></g></g></svg>