<svg xmlns="http://www.w3.org/2000/svg" viewBox="0 0 71.72 99.24"><g id="Ebene_2" data-name="Ebene 2"><g id="Ebene_1-2" data-name="Ebene 1"><path d="M58.68,69.74c-4.38.84-5.54,3.81-5.4,7.62.09,2.61-.56,4.6-3.09,6-1.61.93-.85,3.24-1.25,4.9s-.34,3.6-.67,5.37c-.61,3.29-2.47,5.4-4.67,5.55a7.27,7.27,0,0,1-7.18-5.11A30.87,30.87,0,0,1,35.3,82.58c.12-2-.46-2.66-2.52-2.54-3.39.19-6.5-1-9.84-2.77-.38,3.65-.26,7.14-.67,10.58a22.17,22.17,0,0,1-2.26,8c-1,1.87-2.22,3.61-4.75,3.35S9.8,96.75,9.19,94.5a12.89,12.89,0,0,1-.57-2.92C8.37,81.27,8.09,70.93,11,60.89A57.39,57.39,0,0,1,17.39,47c.65-1.07,1.11-1.66-.36-2.61A22.37,22.37,0,0,1,6.33,26.8c-.1-1.17-.74-1.49-1.72-1.72a4.59,4.59,0,0,1-3.34-3.21A17.65,17.65,0,0,1,.89,9.76c.63-1.95,1.94-4.39,3.65-4.42,3.92-.09,6.76-3.81,10.63-2.9A8.92,8.92,0,0,0,21.48,2C27.31-.91,33.21-.21,39.17,1.4a7.47,7.47,0,0,0,4,.2c2.62-.68,5.21-.71,7.35,1.46a3.55,3.55,0,0,0,2.83.67c1.17,0,2.63-.44,3.47.09,2.9,1.82,5.26,4.19,8.58,5.71s3.64,6,3.72,9.86c.14,6.89-1.29,13.21-5.6,18.72-.72.93-.89,1.46.35,2.4,4.7,3.58,6.89,8.43,7.47,14.39a61.43,61.43,0,0,1-1.71,23.31,19.4,19.4,0,0,1-1.66,4,4.6,4.6,0,0,1-5.16,2.6A4.92,4.92,0,0,1,58.71,80C58.59,76.56,58.68,73.12,58.68,69.74ZM50,81.7c3.87-2,1.27-5.76,3.13-8.87-1.79.75-3.06.91-3.07,2.47,0,2.15,0,4.29,0,6.44l-.27.16s.1,0,.12,0A.5.5,0,0,0,50,81.7ZM24.61,51.45c.7,1,.64,3,3.06,2C26.8,52.45,26.6,51,25,51.1a15.68,15.68,0,0,1-5.88-5c-3.39,6.69-6.7,13-7.94,20.3-1,5.65-.87,11.35-1.38,17a32.91,32.91,0,0,0,1.05,11c.55,2.15,2.5,2.66,4.38,3.08s2.74-1,3.52-2.34a15.28,15.28,0,0,0,2.08-8c-.11-4.71,2.78-9.87-1.73-14.06,0,0,.12-.3.19-.48.91-.18,1.2.65,1.69,1.1a17.19,17.19,0,0,0,12.28,4.8c2.07,0,2.62-.64,2.61-2.61,0-1.77-.68-3.73,1-5.89,0,6.09.06,11.6,0,17.1A18.3,18.3,0,0,0,38,93.46c.92,2.69,3.11,4.45,5.36,4.11,2.63-.39,3-2.66,3.34-4.66a174,174,0,0,0,2.19-21c0-.85-.56-2.49.77-2.4s.31,1.61.5,2.47c0,.15.21.26.35.44A35,35,0,0,0,63.32,63c.65,1.88-.85,2.42-1.51,3.38-.54.79-1.63,1.16-1.6,2.39.08,3.63,0,7.26.16,10.89A3.5,3.5,0,0,0,63.1,83c1.66.45,2.74-.71,3.47-2a17.25,17.25,0,0,0,1.37-3.52,52.69,52.69,0,0,0,1.65-23.05c-.75-5.09-2.58-9.63-6.65-12.88-3-2.39-6.51-3.58-10.37-2.37-2.54.8-4.35,3-5.48,5-3.28,5.85-8.58,7.37-14.51,8-1.3.14-2.31.36-2.55,1.83a1.43,1.43,0,0,0,2-.16c1.15-1,2-.21,2.88.4,1,.73.92,1.63.37,2.62a3.06,3.06,0,0,0-.51,1.5c.05,1.22-.22,2-1.56,2.39a2.38,2.38,0,0,1-3-1.26c-1.4-2.19-3.56-1.86-5.5-1.45-1.12.24-2.13,1.22-3.2.15s-.49-2.17-.17-3.3a4.51,4.51,0,0,0,.16-1.32C21.45,51.36,22.52,50.71,24.61,51.45ZM12.36,10.53c1.34.91,1.65,1.77,1.6,2.63-.28,4.15-1.15,8.08-4.65,10.88-.82.66-1.93,1.14-1.6,2.56a39.21,39.21,0,0,0,1.34,5.54A23.83,23.83,0,0,0,34.32,46.9c10.3-1.4,18.39-8.08,20.88-17.23,1.2-4.4,1.17-4.36-2.43-6.76a9.82,9.82,0,0,1-2.25-2.34,20.66,20.66,0,0,1-3.32-7.39c-.13-.54-.88-1.3,0-1.61s1,.68,1.19,1.36a18.08,18.08,0,0,0,3.44,7c2.62,3.18,5.66,2.7,7.18-1.06a14.84,14.84,0,0,0,.25-9.84c-.84-3-2.32-3.92-5.41-3.76-.9,0-1.92.4-2.66-.19-2.84-2.28-6-2.46-9.44-1.89a5.27,5.27,0,0,1-2.12-.32C33.6,1.22,27.6.66,21.74,3.78a8.17,8.17,0,0,1-6.52.44c-1.76-.55-10.56,2.54-11.72,4a3.16,3.16,0,0,0-.59.91C1.41,13.32,1,17.57,3.12,21.7c1.21,2.34,3.39,2.69,5.35.89,2.25-2.07,3.9-4.53,3.89-7.78Zm44.7,26.73c5.79,1.94,4.2,2.13,7.11-2.27,3.72-5.6,4.19-12,3.67-18.46a9.58,9.58,0,0,0-2.54-5.85c-.8-.84-1.76-1.94-3-1.22-1,.59-.81,1.78-.48,2.94.86,3.1,2.08,6.13,2.3,9.39C64.55,28.05,61.79,32.93,57.06,37.26Zm4.56-20.08c-1,2.67-1.35,5.34-4,6.54-.24.11-.41.63-.41,1,0,4.56-1.62,8.68-3.84,12.82C59.77,35.61,65.44,25.32,61.62,17.18ZM32.18,59.62c1.52-.6-.58-2,.93-2.52.75-.24,1.37-.78,1-1.61s-1.18-.28-1.86-.12c-2.94.72-7.76-.74-9.3-3.07.15,1.67.55,3.08-.67,4.13-.11.1.07.73.28,1s.62,0,.95-.16C26.17,55.66,30.52,56.88,32.18,59.62ZM29.9,48.4c2.89,3.59,11.71,1.71,13.94-2.84A23.68,23.68,0,0,1,29.9,48.4ZM23,47.84c1.45,1,2.81,2.66,4.84.85C26.31,47.61,24.61,47.86,23,47.84Z" style="fill:#6e7063"/><path d="M24.6,51.45c-2.08-.74-3.15-.09-3.07,2.2A4.51,4.51,0,0,1,21.37,55c-.32,1.13-.8,2.33.17,3.3s2.08.09,3.2-.15c1.94-.41,4.1-.74,5.5,1.45a2.38,2.38,0,0,0,3,1.26c1.34-.4,1.61-1.17,1.56-2.39a3.06,3.06,0,0,1,.51-1.5c.55-1,.67-1.89-.37-2.62-.87-.61-1.73-1.38-2.88-.4a1.43,1.43,0,0,1-2,.16c.24-1.47,1.25-1.69,2.55-1.83,5.93-.63,11.23-2.15,14.51-8,1.13-2,2.94-4.24,5.48-5,3.86-1.21,7.39,0,10.37,2.37,4.07,3.25,5.9,7.79,6.65,12.88a52.69,52.69,0,0,1-1.65,23.05A17.25,17.25,0,0,1,66.57,81c-.73,1.28-1.81,2.44-3.47,2a3.5,3.5,0,0,1-2.73-3.35c-.12-3.63-.08-7.26-.16-10.89,0-1.23,1.06-1.6,1.6-2.39.66-1,2.16-1.5,1.51-3.38a35,35,0,0,1-12.84,9.41c-.14-.18-.31-.29-.35-.44-.19-.86,1-2.38-.5-2.47s-.72,1.55-.77,2.4a174,174,0,0,1-2.19,21c-.37,2-.71,4.27-3.34,4.66-2.25.34-4.44-1.42-5.36-4.11a18.3,18.3,0,0,1-1.09-6.36c.08-5.5,0-11,0-17.1-1.73,2.16-1.07,4.12-1,5.89,0,2-.54,2.58-2.61,2.61A17.19,17.19,0,0,1,21,73.7c-.49-.45-.78-1.28-1.69-1.1-.07.18-.23.44-.19.48,4.51,4.19,1.62,9.35,1.73,14.06a15.28,15.28,0,0,1-2.08,8C18,96.51,17.17,98,15.21,97.51s-3.83-.93-4.38-3.08a32.91,32.91,0,0,1-1.05-11c.51-5.66.42-11.36,1.38-17,1.24-7.29,4.55-13.61,7.94-20.3a15.68,15.68,0,0,0,5.88,5Z" style="fill:#efd8a0"/><path d="M12.36,10.53v4.28c0,3.25-1.64,5.71-3.89,7.78-2,1.8-4.14,1.45-5.35-.89C1,17.57,1.41,13.32,2.91,9.09a3.16,3.16,0,0,1,.59-.91c1.16-1.42,10-4.51,11.72-4a8.17,8.17,0,0,0,6.52-.44C27.6.66,33.6,1.22,39.68,2.89a5.27,5.27,0,0,0,2.12.32c3.41-.57,6.6-.39,9.44,1.89.74.59,1.76.24,2.66.19,3.09-.16,4.57.77,5.41,3.76a14.84,14.84,0,0,1-.25,9.84c-1.52,3.76-4.56,4.24-7.18,1.06a18.08,18.08,0,0,1-3.44-7c-.17-.68-.16-1.7-1.19-1.36s-.18,1.07,0,1.61a20.66,20.66,0,0,0,3.32,7.39,9.82,9.82,0,0,0,2.25,2.34c3.6,2.4,3.63,2.36,2.43,6.76C52.71,38.82,44.62,45.5,34.32,46.9A23.83,23.83,0,0,1,9.05,32.14,39.21,39.21,0,0,1,7.71,26.6c-.33-1.42.78-1.9,1.6-2.56,3.5-2.8,4.37-6.73,4.65-10.88C14,12.3,13.7,11.44,12.36,10.53Zm10.7,16.71c.65-1.67,1.56-3.22,1.34-5.15-.32-2.84-1.44-4.15-3.9-4.23-2.22-.08-3.91,1.48-4.32,4-.65,3.93,1.31,6.51,5.4,7.08-.17.8-1.48,1.64-.36,2.35.93.58,1.16-.84,1.74-1.3a9.48,9.48,0,0,1,5.67-2.25,14.36,14.36,0,0,1,8.26,2.15c.41.24.94.84,1.41.21s-.22-1.11-.71-1.45c-3.48-2.36-7.24-3.28-11.35-2A9.17,9.17,0,0,1,23.06,27.24Zm12.63-4.66c.1,1.35,0,3.45,2.36,4.06s3.72-.87,4.62-2.82a19.82,19.82,0,0,0,1-2.79c.59-2.08-.55-3.46-2.07-4.57s-2.91-.07-4,.94C36.24,18.61,35.68,20.23,35.69,22.58Zm6.94,13.08c-.69.48-1.05.72-1.39,1C36.68,40,36.47,40,31.61,36.8c-1-.65-1.41-.29-1.92.54C28.68,39,27,39.65,25.2,40.1c-2.48.63-3-1.55-4.12-3.06-.65,2.48.31,4,2.62,4.32a6.9,6.9,0,0,0,5.77-1.78c1.4-1.26,2.15-1.09,3.07.54,1.22,2.15,2.79,4.08,5.44,4.52,2.13.36,3.48-.88,2.67-2.76s-.24-3,1.15-4.07A2.61,2.61,0,0,0,42.63,35.66ZM30.32,29.3c-1.7,0-2.92,0-4,.57-1.31.77-1.42,1.79-.21,2.81a4.73,4.73,0,0,0,6.51-.08c1.4-1.27,1.13-2.61-.72-3.15A5.78,5.78,0,0,0,30.32,29.3Z" style="fill:#edd79f"/><path d="M57.06,37.26c4.73-4.33,7.49-9.21,7.08-15.47-.22-3.26-1.44-6.29-2.3-9.39-.33-1.16-.53-2.35.48-2.94,1.22-.72,2.18.38,3,1.22a9.58,9.58,0,0,1,2.54,5.85c.52,6.46,0,12.86-3.67,18.46C61.26,39.39,62.85,39.2,57.06,37.26Z" style="fill:#eed79f"/><path d="M61.62,17.18c3.82,8.14-1.85,18.43-8.24,20.32,2.22-4.14,3.8-8.26,3.84-12.82,0-.33.17-.85.41-1C60.27,22.52,60.59,19.85,61.62,17.18Z" style="fill:#f8f8f7"/><path d="M32.18,59.62c-1.66-2.74-6-4-8.71-2.4-.33.19-.68.43-.95.16s-.39-.85-.28-1c1.22-1,.82-2.46.67-4.13,1.54,2.33,6.36,3.79,9.3,3.07.68-.16,1.4-.8,1.86.12s-.21,1.37-1,1.61C31.6,57.59,33.7,59,32.18,59.62Z" style="fill:#aeb3b4"/><path d="M29.9,48.4a23.68,23.68,0,0,0,13.94-2.84C41.61,50.11,32.79,52,29.9,48.4Z" style="fill:#a28d77"/><path d="M50,81.74c0-2.15,0-4.29,0-6.44,0-1.56,1.28-1.72,3.07-2.47-1.86,3.11.74,6.91-3.13,8.87Z" style="fill:#e7d29c"/><path d="M23,47.84c1.63,0,3.33-.23,4.84.85C25.79,50.5,24.43,48.86,23,47.84Z" style="fill:#a28d77"/><path d="M25,51.1c1.62-.07,1.82,1.35,2.69,2.31-2.42,1.09-2.36-1-3.07-2Z" style="fill:#efd8a0"/><path d="M50,81.7a.5.5,0,0,1-.11.17s-.08,0-.12,0l.27-.16Z" style="fill:#e7d29c"/><path d="M35.69,22.58c0-2.35.55-4,1.89-5.18,1.13-1,2.39-2.15,4-.94S44.28,19,43.69,21a19.82,19.82,0,0,1-1,2.79c-.9,1.95-2.23,3.44-4.62,2.82S35.79,23.93,35.69,22.58Z" style="fill:#6e7063"/><path d="M21.58,28.92c-4.09-.57-6-3.15-5.4-7.08.41-2.5,2.1-4.06,4.32-4,2.46.08,3.58,1.39,3.9,4.23.22,1.93-.69,3.48-1.34,5.14C22,27.29,21.68,28,21.58,28.92ZM21,21.12c.11-.7-.26-1-.86-1.11a1.13,1.13,0,0,0-1.36,1c-.18.7.23,1.19,1,1.26S20.78,21.69,21,21.12Z" style="fill:#6e7063"/><path d="M42.63,35.66a2.61,2.61,0,0,1-.83,2.15c-1.39,1.09-2,2.12-1.15,4.07S40.11,45,38,44.64c-2.65-.44-4.22-2.37-5.44-4.52-.92-1.63-1.67-1.8-3.07-.54a6.9,6.9,0,0,1-5.77,1.78C21.39,41,20.43,39.52,21.08,37c1.1,1.51,1.64,3.69,4.12,3.06,1.8-.45,3.48-1.09,4.49-2.76.51-.83.93-1.19,1.92-.54,4.86,3.21,5.07,3.18,9.63-.17C41.58,36.38,41.94,36.14,42.63,35.66Zm-5.32,5.82c-.9.1-1.29-1.33-2.52-.77a4.72,4.72,0,0,0,3.38,2.75c.52.12,1.13.09,1.33-.58a2,2,0,0,0-1-2.29c-.73-.48-.91.07-1,.68Z" style="fill:#6e7063"/><path d="M21.58,28.92c.1-.91.41-1.63,1.48-1.69a8.94,8.94,0,0,0,3.18-.61c4.11-1.27,7.87-.35,11.35,2,.49.34,1.28.67.71,1.45s-1,0-1.41-.21a14.36,14.36,0,0,0-8.26-2.15A9.48,9.48,0,0,0,23,30c-.58.46-.81,1.88-1.74,1.3C20.1,30.56,21.41,29.72,21.58,28.92Z" style="fill:#727364"/><path d="M30.32,29.3a5.78,5.78,0,0,1,1.62.15c1.85.54,2.12,1.88.72,3.15a4.73,4.73,0,0,1-6.51.08c-1.21-1-1.1-2,.21-2.81C27.4,29.26,28.62,29.28,30.32,29.3Z" style="fill:#6e7063"/><path d="M21,21.12c-.21.57-.43,1.18-1.23,1.11s-1.17-.56-1-1.26a1.13,1.13,0,0,1,1.36-1C20.73,20.13,21.1,20.42,21,21.12Z" style="fill:#e5e1d6"/><path d="M37.52,41.27c0-.61.23-1.16,1-.68a2,2,0,0,1,1,2.29c-.2.67-.81.7-1.33.58a4.72,4.72,0,0,1-3.38-2.75c1.23-.56,1.62.87,2.53.77.14.38.21.85.79.74.09,0,.22-.37.19-.4A9,9,0,0,0,37.52,41.27Z" style="fill:#ae7b6c"/><path d="M37.52,41.27a9,9,0,0,1,.78.55s-.1.38-.19.4c-.58.11-.65-.36-.79-.74Z" style="fill:#6e7063"/></g></g></svg>