<svg xmlns="http://www.w3.org/2000/svg" viewBox="0 0 105.19 112.45"><g id="Ebene_2" data-name="Ebene 2"><g id="Ebene_1-2" data-name="Ebene 1"><path d="M1.09,34.53C.47,34.39.37,34,.55,33.45a.26.26,0,0,0,.24-.33,9.47,9.47,0,0,1,5.3-7.92,4.46,4.46,0,0,0,2.09-4.63l0,0c1.19-.67,2.16-1.68,3.66-1.86.48-.05,1.73-.2,1.26-1.44h0c1.23.86,1.78-.3,2.33-.92A26,26,0,0,1,32.67,7.5c1.85-.2,3.54-1,3.84-3.29h0c1.8-.32,3.57-.92,5.46-.49a2.45,2.45,0,0,0,2-.58,5.2,5.2,0,0,1,7.57,1.11c1.32,1.7,2.69,3.37,4,5.09s2,3.23,1,5.41-2.35,3-4.67,2.62c-.45-.09-1.13-.19-1.26.65,1,1.21,2.81.5,3.91,1.52l1,1.85c.3,2.14,1.2,4.16,1.2,6.37,0,10.71-5,18.53-14.17,23.55-9.58,5.22-20.38,3.27-26.88-4.5-1.42-1.7-3.17-3.45-.55-5.72.64-.56.74-1.77.79-2.81.14-2.81-.83-5.32-1.82-7.85,0-.72-.26-1.65-1-1.44-.89.25.06.93.11,1.43-.24,2.3,1.36,4.28,1.08,6.62C14,39.15,13.34,41,11.42,42s-3.21-.41-4.64-1.31C6,40.22,5.57,39,4.36,39.74h0C4.52,37.2,3.21,35.62,1.09,34.53ZM42.66,10.7l-.43-.76c-.35.39-.2.73.09,1.07a10.14,10.14,0,0,0,6.5,6.51Zm-4,11.86A6.17,6.17,0,0,0,39.3,26c1,1.58,2.16,3,4.3,2.64s2.8-2,3-3.75a5.75,5.75,0,0,0-1.5-4.72C44,19,42.82,17.45,40.93,18.32A4,4,0,0,0,38.62,22.56ZM29.47,33.67c0-3.3-2.21-5.94-5-6a3.81,3.81,0,0,0-3.63,4.16c.07,2.89,2.59,5.7,5.13,5.74C28.13,37.59,29.48,36.09,29.47,33.67Zm2.21,13c2.45.72,3,2.65,3.61,4.7.37,1.2,1.88,1.28,3,.45a6.9,6.9,0,0,0,2.17-3.31c.8-2-.23-4.14.5-6.13,4.15,1.12,6.89.53,8.29-1.75,1.13-1.83,1-2.85-.37-4.36-.91,4.23-1.21,4.63-3.81,5.08a4.73,4.73,0,0,1-3.39-.61c-1.06-.65-1.58-.65-2,.83C38.16,46.35,37,47,31.68,46.67Zm4.92-8.06c2-.82,5,0,5.47-3.57.26-2-.11-2.86-2-2.4a9,9,0,0,0-4.83,3.21,2.08,2.08,0,0,0-.26,2C35.19,38.65,35.88,38.6,36.6,38.61Zm9.14-8c-.16-.3-.21-.54-.33-.59-5.56-2.29-13.76,2-15.07,7.87-.1.44-.33.95.23,1.14.89.3.88-.43,1.16-1C34.17,32.82,38,30.63,43.83,31,44.43,31,45.08,31.27,45.74,30.64Z" style="fill:#edd79f"/><path d="M72.49,109.47c-.21,1.81-1.83,1.61-2.9,1.74a20.41,20.41,0,0,1-4.87-.19c-3.32-.42-6.38-1.06-9.78.84s-7.85-1.27-8.69-5.68c-.68-3.58-1-3.7-3.89-1.53-2.41,1.79-6.58,2.16-8.93.39-1.48-1.1-2.59-.83-4.17-.41-6.19,1.62-14.74.71-18.25-5.08-4.22-7-1-15,7-16.57.27,0,.58-.21.8-.13,3.52,1.27,3.28-.58,3.1-3.23-.47-6.72-.14-13.41,2.75-19.7a18.92,18.92,0,0,1,2.24-4l1,.17a39.52,39.52,0,0,0-5,18.13c-.11,10.52,2.68,20,9.55,28.16,2.78,3.28,6.85,3.46,9.81.77s3.09-6.8.32-9.93a17.82,17.82,0,0,1-3.65-6l.85,0a40.52,40.52,0,0,0,4,5.43,7.57,7.57,0,0,1,1.74,7.53c-.17.53-.62,1.16.38,1.76,1.31-2.43,2.66-4.85,5.26-6.13l.43.44c-.78.88-1.59,1.73-2.34,2.62-2.8,3.35-2.59,8.48.44,11.07,2.61,2.23,6.75,1.23,9.69-2.35.06-.06.09-.15.15-.22,5.39-6.17,8.3-13.54,10-21.38,2.3-10.46,2.54-20.81-2.81-30.6l.72-.75c3.31,4.69,4.32,10.05,4.58,15.64,0,.71-.52,2,.55,2.06,1.22.12.71-1.21.84-1.88.71-3.51.27-7,.17-10.57,0-1.54-.16-3.29,2-3.47,1.87-.15,2.87.92,3.53,2.67,1.21,3.18.17,6.31-.14,9.38-.7,7-2.16,13.79-8.06,18.6-1,.86-.83,1.71.5,2.18,5.89,2.08,7.7,12,4,18a1.85,1.85,0,0,1-1.84.83,16.07,16.07,0,0,0,2.31-9.81,9.85,9.85,0,0,0-4.16-7.58c-.65-.47-1.86-1.27-2.13.2-1,5.31-5.32,9.46-5,15.2-1.54-1.51-1.59-1.48-4.25,2.74C63.38,110,66,110.17,72.49,109.47ZM25.26,97.84c1.25-1.5.74-2.83.1-4.3A48.79,48.79,0,0,1,23,86.62c-.45-1.74-1.36-2.29-3.06-2.34C12.72,84,8.3,91.17,11.6,97.77c2.58,5.15,12.7,8.35,17.9,5.65.37-.2.88-.48,1-.82C30.8,101.39,26.9,97.69,25.26,97.84Zm46.13-13.7a4.33,4.33,0,0,0,2.55-2.44c3.6-6.63,4.17-13.91,4.29-21.23,0-1.31-.53-3.27-2.53-2.77s-1.09,2.35-.86,3.46c1.07,5.26.1,10.28-1.85,15.07A21.72,21.72,0,0,0,71.39,84.14Z" style="fill:#747566"/><path d="M27.85,56.06l-1-.17c.18-1-.63-.77-1.17-.93C19.75,53.16,14.94,49.9,12,44.25l-.12-.15a.45.45,0,0,1-.4-.32.4.4,0,0,0-.38-.19,5.62,5.62,0,0,1-6.75-3.85c1.21-.75,1.68.48,2.42.94,1.43.9,2.78,2.3,4.64,1.31s2.58-2.84,2.83-4.94c.28-2.34-1.32-4.32-1.08-6.62h.89c1,2.53,2,5,1.82,7.85-.05,1-.15,2.25-.79,2.81-2.62,2.27-.87,4,.55,5.72,6.5,7.77,17.3,9.72,26.88,4.5,9.21-5,14.18-12.84,14.17-23.55,0-2.21-.9-4.23-1.2-6.37l.92-.87a21.11,21.11,0,0,1,1.18,14.6C57,37.46,58,39,59.37,40.29c1.51,1.43,3.33,3,5.77,1.48,1.5-.94,2.14-.54,2.56,1.24.8,3.46,3.65,4.81,6.57,3.34.43-.22.73-.91,1.47-.22a2.93,2.93,0,0,1-3.06,2.37A5.62,5.62,0,0,1,67,45c-1-2.29-2-1.91-3.53-.68a8.1,8.1,0,0,1-6,2,2.56,2.56,0,0,1-2.15-1.44,2,2,0,0,1,.58-2.46c.71-.81,2.4-1.73.92-2.75-1.67-1.15-1.24,1.19-1.74,1.8-2.35,2.91-2.11,3.87.83,6.18a24.45,24.45,0,0,0,11.63,4.94c8.17,1.24,18.77-2,23.45-9.43.85-1.35,2-2.69.88-4.44l1-.16c1.59,1,3.13,1.45,5,.36,3.41-2,7.64-9.24,4.89-13.89-1.71-2.9-4.86-5-7.63-6.3-3.28-1.54-6.6-2.64-9-5.51A14.08,14.08,0,0,0,77.82,8.5c-3-.64-6.35-.55-8.89-2.8l.65-.85c3.34,1.44,7,1.73,10.43,2.64a11.34,11.34,0,0,1,6.13,3.71c2.49,3,5.44,5.33,9.55,5.6.18,0,.46,0,.52.1,2.42,3.72,8,4.46,8.88,9.71.81,4.62-3.56,13.93-8,14.24-3.53.25-4.13,2.4-5.63,4.26-5.43,6.74-12.64,9.34-21.09,9.1-1,0-1.93-.53-2.92-.1,0,0-.08.14-.07.21a1.09,1.09,0,0,0,.1.25l-.72.75A2.93,2.93,0,0,0,63,53.59a2.09,2.09,0,0,0-2.9-1c-1.81,1-3.68.69-5.55.8l-1.21,0a11.51,11.51,0,0,1-6-1.43c-1.61-.81-3-1-3.28,1.47-3.08-.13-5.89,1.21-8.82,1.84C32.8,55.79,30.2,54.73,27.85,56.06Zm31.21-4.31c-1.33-1-2.73-1.93-4-3-2.19-1.9-4-1.87-6.11.1-1.4,1.33-1.23,2.17.58,2.82C52.62,52.76,55.78,52,59.06,51.75Zm-.72-7.81c-.52-.73,1.13-1.17,0-1.9-.89.42-1.69.88-1.55,2,.09.72.68,1,1.37,1.1,1.12.17,1.7-.13,2.55-1.42C59.86,43.21,59.19,44.27,58.34,43.94Z" style="fill:#6e7063"/><path d="M72.49,109.47c-6.46.7-9.11.54-12.12-.74,2.66-4.22,2.71-4.25,4.25-2.74-.3-5.74,4-9.89,5-15.2.27-1.47,1.48-.67,2.13-.2a9.85,9.85,0,0,1,4.16,7.58A16.07,16.07,0,0,1,73.62,108Z" style="fill:#edd79f"/><path d="M54.49,19.55c-1.1-1-2.89-.31-3.91-1.52.13-.84.81-.74,1.26-.65,2.32.43,3.66-.52,4.67-2.62s.26-3.79-1-5.41-2.68-3.39-4-5.09A5.2,5.2,0,0,0,44,3.15a2.45,2.45,0,0,1-2,.58c-1.89-.43-3.66.17-5.46.49a2.71,2.71,0,0,1,3.41-2.31c1.08.17,2.24.51,3.1-.38,2.72-2.81,5.48-1.07,8.23-.14.41.13.93.76,1.1.66,3.94-2.36,7.46,2.16,11.46.58,2.21-.87,4.11.76,5.77,2.22l-.65.84C67.05,5.09,65.6,3,63.22,4.15A5.32,5.32,0,0,1,58.54,4,11.46,11.46,0,0,0,55.7,3.2c-.7-.12-1.55-.14-2,.6s.41,1.29.85,1.76c2.27,2.44,4.11,5,3.74,8.6.14.23.31.31.52.07a.61.61,0,0,1,.37-.35l.61.52c-.54,2.3-2.94,2.91-4.17,4.58Z" style="fill:#6e7063"/><path d="M36.51,4.21c-.3,2.24-2,3.09-3.84,3.29a26,26,0,0,0-17.25,8.88c-.55.62-1.1,1.78-2.33.92C17.16,12,21.94,7.71,28.9,6.7A35.87,35.87,0,0,0,36.51,4.21Z" style="fill:#6e7063"/><path d="M8.18,20.57A4.46,4.46,0,0,1,6.09,25.2a9.46,9.46,0,0,0-5.3,7.91L.13,31.54a3.69,3.69,0,0,1,.34-2.87.77.77,0,0,0,.12-.36,4.46,4.46,0,0,1,2.09-2.72c2-1.16,3.69-2.49,4.5-4.75C7.29,20.55,7.68,20,8.18,20.57Z" style="fill:#6e7063"/><path d="M1.09,34.53c2.12,1.09,3.43,2.67,3.26,5.2C2.36,38.56,1.57,36.64,1.09,34.53Z" style="fill:#6e7063"/><path d="M13.08,17.31c.47,1.24-.78,1.39-1.26,1.44-1.5.18-2.47,1.19-3.66,1.86-1-1.46.51-1.84,1.19-2.26A5.32,5.32,0,0,1,13.08,17.31Z" style="fill:#6e7063"/><path d="M.13,31.54l.66,1.57a.26.26,0,0,1-.24.34A2.19,2.19,0,0,1,.13,31.54Z" style="fill:#747566"/><path d="M11.11,43.59a.4.4,0,0,1,.38.19A.36.36,0,0,1,11.11,43.59Z" style="fill:#747566"/><polygon points="11.88 44.1 12.01 44.25 11.87 44.24 11.88 44.1" style="fill:#747566"/><path d="M.59,28.31a.77.77,0,0,1-.12.36A.24.24,0,0,1,.59,28.31Z" style="fill:#747566"/><path d="M38.62,22.56a4,4,0,0,1,2.31-4.24c1.89-.87,3,.72,4.13,1.82a5.75,5.75,0,0,1,1.5,4.72c-.16,1.77-1,3.38-3,3.75S40.29,27.55,39.3,26A6.17,6.17,0,0,1,38.62,22.56Z" style="fill:#6e7063"/><path d="M29.47,33.67c0,2.42-1.34,3.92-3.51,3.89-2.54,0-5.06-2.85-5.13-5.74a3.81,3.81,0,0,1,3.63-4.16C27.26,27.73,29.46,30.37,29.47,33.67Zm-5.21-4.3A1.34,1.34,0,0,0,23,30.59a1.15,1.15,0,0,0,1.17,1.22,1.19,1.19,0,0,0,1.34-1.3C25.52,29.8,24.91,29.51,24.26,29.37Z" style="fill:#6e7063"/><path d="M31.68,46.67c5.3.34,6.48-.32,8-5.1.46-1.48,1-1.48,2-.83a4.73,4.73,0,0,0,3.39.61c2.6-.45,2.9-.85,3.81-5.08,1.41,1.51,1.5,2.53.37,4.36-1.4,2.28-4.14,2.87-8.29,1.75-.73,2,.3,4.1-.5,6.13a6.9,6.9,0,0,1-2.17,3.31c-1.13.83-2.64.75-3-.45C34.64,49.32,34.13,47.39,31.68,46.67Zm7.47.21c-1.52-.31-.37,3.2-2.64,1.23-.16.19-.42.37-.45.58-.09.8-.26,1.72.64,2.16s1.34-.36,1.72-.92C39.07,49,39.6,47.91,39.15,46.88Z" style="fill:#6e7063"/><path d="M36.6,38.61c-.72,0-1.41,0-1.65-.72a2.08,2.08,0,0,1,.26-2A9,9,0,0,1,40,32.64c1.92-.46,2.29.44,2,2.4C41.59,38.65,38.58,37.79,36.6,38.61Z" style="fill:#6e7063"/><path d="M45.74,30.64c-.66.63-1.31.37-1.91.34C38,30.63,34.17,32.82,31.73,38c-.28.59-.27,1.32-1.16,1-.56-.19-.33-.7-.23-1.14,1.31-5.86,9.51-10.16,15.07-7.87C45.53,30.1,45.58,30.34,45.74,30.64Z" style="fill:#6e7063"/><path d="M42.66,10.7l6.16,6.82A10.14,10.14,0,0,1,42.32,11Z" style="fill:#747566"/><path d="M54.49,19.55,55.67,19c.24.52.49,1,.74,1.55l-.92.87Z" style="fill:#747566"/><path d="M14.06,30.44h-.89c-.05-.5-1-1.18-.11-1.43C13.8,28.79,14,29.72,14.06,30.44Z" style="fill:#747566"/><path d="M42.32,11c-.29-.34-.44-.68-.09-1.07.14.25.28.51.43.76Z" style="fill:#747566"/><path d="M63,53.6a2.92,2.92,0,0,1,3.68,1.72c5.35,9.79,5.11,20.14,2.81,30.6-1.72,7.84-4.63,15.21-10,21.38-.06.07-.09.16-.15.22-2.94,3.58-7.08,4.58-9.69,2.35-3-2.59-3.24-7.72-.44-11.07.75-.89,1.56-1.74,2.34-2.62a2.65,2.65,0,0,0,1.35-1.37,30.7,30.7,0,0,0,5.91-21A45,45,0,0,1,52.4,94.25a3,3,0,0,0-1.26,1.49c-2.6,1.28-4,3.7-5.26,6.13-1-.6-.55-1.23-.38-1.76a7.57,7.57,0,0,0-1.74-7.53,40.52,40.52,0,0,1-4-5.43,28.1,28.1,0,0,1-.46-20.55c-3.59,4-3.69,14.74-.39,20.6a17.82,17.82,0,0,0,3.65,6c2.77,3.13,2.64,7.25-.32,9.93s-7,2.51-9.81-.77c-6.87-8.11-9.66-17.64-9.55-28.16a39.52,39.52,0,0,1,5-18.13c2.35-1.33,4.95-.27,7.44-.8,2.93-.63,5.74-2,8.82-1.84l0-.06c-.24,1.6,1,1.47,2,1.74a14.33,14.33,0,0,0,4.52,1.63c1,.26,1.87,1.27,1.51,2.21-.44,1.13-1.4.64-2.13-.08a1.74,1.74,0,0,0-2.64-.13c-.92.87-1.39,1.93-.2,3,1,1.09-1,4.19,2.44,3.53,1.79-.8,3.1-2.68,5.65-1.78a5.22,5.22,0,0,1,2.31,1.26,1.79,1.79,0,0,0,2,.33,1.52,1.52,0,0,0,.94-1.76c-.11-.78-.33-1.55-.51-2.33,1.4-.92.71-1.86-.06-2.67-.93-1-1.91-.43-2.54.35s-1,1-1.79.78a.73.73,0,0,1-.57-1,1.8,1.8,0,0,1,1.48-1.39,10.25,10.25,0,0,0,2.59-.72c1.41-.7,3.49-.51,3.84-2.72Z" style="fill:#eed79f"/><path d="M25.26,97.84c1.64-.15,5.54,3.55,5.21,4.76-.09.34-.6.62-1,.82-5.2,2.7-15.32-.5-17.9-5.65C8.3,91.17,12.72,84,19.91,84.28c1.7,0,2.61.6,3.06,2.34a48.79,48.79,0,0,0,2.39,6.92C26,95,26.51,96.34,25.26,97.84Z" style="fill:#edd79f"/><path d="M71.39,84.14A21.72,21.72,0,0,1,73,76.23c2-4.79,2.92-9.81,1.85-15.07-.23-1.11-1-3,.86-3.46s2.56,1.46,2.53,2.77c-.12,7.32-.69,14.6-4.29,21.23A4.33,4.33,0,0,1,71.39,84.14Z" style="fill:#e7d29c"/><path d="M38.92,87.2c-3.3-5.86-3.2-16.64.39-20.6a28.1,28.1,0,0,0,.46,20.55Z" style="fill:#7e7d69"/><path d="M56.41,20.53c-.25-.52-.5-1-.74-1.55,1.23-1.67,3.63-2.28,4.17-4.58.55-.33,1.2-.89.6-1.39s-1,.32-1.21.87a.61.61,0,0,0-.37.35,1.31,1.31,0,0,1-.52-.07c.37-3.57-1.47-6.16-3.74-8.6-.44-.47-1.32-.9-.85-1.76s1.25-.72,2-.6A11.46,11.46,0,0,1,58.54,4a5.32,5.32,0,0,0,4.68.19c2.38-1.13,3.83.94,5.71,1.54C71.47,8,74.8,7.86,77.82,8.5a14.08,14.08,0,0,1,8.28,4.69c2.42,2.87,5.74,4,9,5.51,2.77,1.3,5.92,3.4,7.63,6.3,2.75,4.65-1.48,11.88-4.89,13.89-1.84,1.09-3.38.65-5-.36a4.91,4.91,0,0,1-1.31-4c.2-2.53.36-5.07.57-8.08a10.73,10.73,0,0,0-.29,12.24c1.07,1.75,0,3.09-.88,4.44-4.68,7.48-15.28,10.67-23.45,9.43a24.45,24.45,0,0,1-11.63-4.94c-2.94-2.31-3.18-3.27-.83-6.18.5-.61.07-2.95,1.74-1.8,1.48,1-.21,1.94-.92,2.75a2,2,0,0,0-.58,2.46,2.56,2.56,0,0,0,2.15,1.44,8.1,8.1,0,0,0,6-2C65.08,43.09,66,42.71,67,45a5.62,5.62,0,0,0,5.65,3.5,2.93,2.93,0,0,0,3.06-2.37c-.74-.69-1,0-1.47.22-2.92,1.47-5.77.12-6.57-3.34-.42-1.78-1.06-2.18-2.56-1.24-2.44,1.53-4.26-.05-5.77-1.48C58,39,57,37.46,57.59,35.13A21.11,21.11,0,0,0,56.41,20.53ZM78,36.75c3.45,2.34,8.32-.11,8.72-4.39.26-2.66-1-3.88-3.69-3.66-3.67.3-5.92,3.93-5,8.09a3.28,3.28,0,0,1-1.71-1.25,11.89,11.89,0,0,0-7.62-4.2c-2.63-.35-5.24.22-6.26,1.53,6.68-.72,12.48.36,15.38,7.74C79,38.91,77.55,37.85,78,36.75ZM60.48,25.41c0,2.49,1.24,4,3.37,4.06a5.65,5.65,0,0,0,5.42-5.64c.07-2.28-1.61-4.33-3.54-4.35C63.13,19.47,60.51,22.42,60.48,25.41Zm9.67,14.85c1-.72,2.62-.13,3.52-1.42a1.39,1.39,0,0,0-.16-1.75c-1.53-1.91-3.81-2.22-6-2.63-.59-.11-1.17.49-1.4,1.11C65.76,36.53,69,40.32,70.15,40.26ZM60.9,12.2s-.1-.15-.16-.15-.11.09-.16.14l.23.17Z" style="fill:#edd79f"/><path d="M47.18,61.74c-1.19-1.08-.72-2.14.2-3a1.74,1.74,0,0,1,2.64.13c.73.72,1.69,1.21,2.13.08.36-.94-.51-1.95-1.51-2.21a14.33,14.33,0,0,1-4.52-1.63l.88-.17a14,14,0,0,1,2.91.27c1.86.58,2.82-.25,3.47-1.82l1.21,0c.85,1.85,2.21,2.63,4.21,1.91,1.41-.51,2.78-1.1,4.18-1.66-.35,2.21-2.43,2-3.84,2.72a10.25,10.25,0,0,1-2.59.72,1.8,1.8,0,0,0-1.48,1.39.73.73,0,0,0,.57,1c.81.2,1.27-.13,1.79-.78S59,57.33,60,58.32c.77.81,1.46,1.75.06,2.67l-.71-.15c0-.59.49-1.24-.18-1.73a.71.71,0,0,0-.65.14c-2.71,2.47-6,1.55-8.67.63-2.31-.79-2.31-.12-2.3,1.57C47.41,61.55,47.3,61.65,47.18,61.74Z" style="fill:#747566"/><path d="M59.06,51.75c-3.28.29-6.44,1-9.52-.1-1.81-.65-2-1.49-.58-2.82,2.08-2,3.92-2,6.11-.1C56.33,49.82,57.73,50.75,59.06,51.75ZM52.4,49.6,51.94,49c-.12.21-.34.42-.35.63s0,.73.48.66C52.2,50.25,52.28,49.85,52.4,49.6Z" style="fill:#edd79f"/><path d="M53.38,53.38c-.65,1.57-1.61,2.4-3.47,1.82A14,14,0,0,0,47,54.93a3.73,3.73,0,0,0-2.86-1.57l0,.06c.23-2.42,1.67-2.28,3.28-1.47A11.51,11.51,0,0,0,53.38,53.38Z" style="fill:#a28d77"/><path d="M91.85,38.69a10.73,10.73,0,0,1,.29-12.24c-.21,3-.37,5.55-.57,8.08a4.91,4.91,0,0,0,1.31,4Z" style="fill:#747566"/><path d="M63,53.61c-1.4.56-2.77,1.15-4.18,1.66-2,.72-3.36-.06-4.21-1.91,1.87-.11,3.74.16,5.55-.8a2.09,2.09,0,0,1,2.9,1Z" style="fill:#a28d77"/><path d="M58.34,43.94c.85.33,1.52-.73,2.36-.23-.85,1.29-1.43,1.59-2.55,1.42-.69-.11-1.28-.38-1.37-1.1-.14-1.11.66-1.57,1.55-2C59.47,42.77,57.82,43.21,58.34,43.94Z" style="fill:#ae7b6c"/><path d="M58.34,14.16a1.31,1.31,0,0,0,.52.07C58.65,14.47,58.48,14.39,58.34,14.16Z" style="fill:#747566"/><path d="M24.26,29.37c.65.14,1.26.43,1.28,1.14a1.19,1.19,0,0,1-1.34,1.3A1.15,1.15,0,0,1,23,30.59,1.34,1.34,0,0,1,24.26,29.37Z" style="fill:#e5e1d6"/><path d="M39.15,46.88c.45,1-.08,2.08-.73,3-.38.56-.84,1.35-1.72.92s-.73-1.36-.64-2.16c0-.21.29-.39.45-.58C38.78,50.08,37.63,46.57,39.15,46.88Z" style="fill:#ae7b6c"/><path d="M52.4,94.25a45,45,0,0,0,6.43-20.46,30.7,30.7,0,0,1-5.91,21Z" style="fill:#7e7d69"/><path d="M59.32,60.84,60,61c.18.78.4,1.55.51,2.33a1.52,1.52,0,0,1-.94,1.76,1.79,1.79,0,0,1-2-.33,5.22,5.22,0,0,0-2.31-1.26c-2.55-.9-3.86,1-5.65,1.78l0-.72c1-1.83,6.33-3,8-1.7.51.39.65,1.65,1.49,1.09s.25-1.63-.11-2.44l.46-.58Z" style="fill:#7e7d69"/><path d="M49.58,64.55l0,.72c-3.46.66-1.49-2.44-2.44-3.53.12-.09.23-.19.34-.29,1.16.1,2.84-.22,1.17,1.83C48.25,63.81,48.45,64.7,49.58,64.55Z" style="fill:#747566"/><path d="M44.14,53.36A3.73,3.73,0,0,1,47,54.93l-.88.17C45.19,54.83,43.9,55,44.14,53.36Z" style="fill:#6e7063"/><path d="M52.4,94.25l.52.56a2.65,2.65,0,0,1-1.35,1.37l-.43-.44A3,3,0,0,1,52.4,94.25Z" style="fill:#747566"/><path d="M60.48,25.41c0-3,2.65-5.94,5.25-5.93,1.93,0,3.61,2.07,3.54,4.35a5.65,5.65,0,0,1-5.42,5.64C61.72,29.42,60.46,27.9,60.48,25.41Z" style="fill:#6e7063"/><path d="M78.07,36.79c-.92-4.16,1.33-7.79,5-8.09,2.71-.22,4,1,3.69,3.66-.4,4.28-5.27,6.73-8.72,4.39Z" style="fill:#6e7063"/><path d="M70.15,40.26c-1.2.06-4.39-3.73-4-4.69.23-.62.81-1.22,1.4-1.11,2.19.41,4.47.72,6,2.63a1.39,1.39,0,0,1,.16,1.75C72.77,40.13,71.14,39.54,70.15,40.26Z" style="fill:#6e7063"/><path d="M78.07,36.79l0,0c-.49,1.1.94,2.16-.18,3.86-2.9-7.38-8.7-8.46-15.38-7.74,1-1.31,3.63-1.88,6.26-1.53a11.89,11.89,0,0,1,7.62,4.2A3.28,3.28,0,0,0,78.07,36.79Z" style="fill:#81806f"/><path d="M59.23,13.88c.24-.55.54-1.41,1.21-.87s0,1.06-.6,1.39Z" style="fill:#6e7063"/><path d="M60.9,12.2l-.09.16-.23-.17c.05,0,.11-.15.16-.14S60.85,12.15,60.9,12.2Z" style="fill:#6e7063"/><path d="M49.58,64.55c-1.13.15-1.33-.74-.89-1.27,1.67-2.05,0-1.73-1.17-1.83,0-1.69,0-2.36,2.3-1.57,2.71.92,6,1.84,8.67-.63a.71.71,0,0,1,.65-.14c.67.49.23,1.14.18,1.73l.09.08c-.39,0-.49.24-.46.58.36.81,1,1.82.11,2.44s-1-.7-1.49-1.09C55.91,61.54,50.62,62.72,49.58,64.55Z" style="fill:#aeb3b4"/><path d="M52.4,49.6c-.12.25-.2.65-.33.66-.45.07-.49-.37-.48-.66s.23-.42.35-.63Z" style="fill:#6e7063"/><path d="M59,61.5c0-.34.07-.57.46-.58C59.26,61.12,59.1,61.31,59,61.5Z" style="fill:#747566"/></g></g></svg>