<svg xmlns="http://www.w3.org/2000/svg" viewBox="0 0 67.23 73.12"><g id="Ebene_2" data-name="Ebene 2"><g id="Ebene_1-2" data-name="Ebene 1"><path d="M57.5,59.24l0,.22-.22,0c-.83-.74-1.13-.14-1.39.56l0,0c-.41,0-.62.14-.57.57l0,0a2.75,2.75,0,0,0-2,1.54c-2.58,1.77-5.06,3.72-7.78,5.26s-4.94,3.71-8.24,3.66a33.1,33.1,0,0,1-6-12.67c5.82,2.78,10.53,3.62,13.27,2.43-1.32-.28-2.56-.49-3.77-.82C29.34,56.89,25.35,51,27,39.42a34.49,34.49,0,0,1,3.55-10.79,10,10,0,0,0,.71-8.38C30.47,23,28.91,24.81,26,25.1a15.2,15.2,0,0,1-7.16-1.05c-1.75-.69-2.16-1.37-1-3.1A75.9,75.9,0,0,1,37,1.72a1.72,1.72,0,0,1,2.38,0c8.06,5.7,15.5,12,20.59,20.67,3.61,6.14,5.88,12.62,4.67,20a32.61,32.61,0,0,1-6.42,14.53C57.69,57.5,56.42,58.08,57.5,59.24Z" style="fill:#f1e6cc"/><path d="M57.5,59.24c-1.08-1.16.19-1.74.68-2.4A32.61,32.61,0,0,0,64.6,42.31c1.21-7.33-1.06-13.81-4.67-20-5.09-8.65-12.53-15-20.59-20.67a1.72,1.72,0,0,0-2.38,0A75.9,75.9,0,0,0,17.9,21c-1.18,1.73-.77,2.41,1,3.1A15.2,15.2,0,0,0,26,25.1c2.87-.29,4.43-2.1,5.25-4.85a10,10,0,0,1-.71,8.38A34.49,34.49,0,0,0,27,39.42C25.35,51,29.34,56.89,40.75,60c1.21.33,2.45.54,3.77.82-2.74,1.19-7.45.35-13.27-2.43a33.1,33.1,0,0,0,6,12.67l1.11,1.53c-1.36,1.18-2.62.15-3.76-.35C28.06,69.39,23,64.6,18.5,59.17a6,6,0,0,0-2.26-1.84c-4.86-2.09-7.93-5.85-8.09-11C8,40.6,5.3,35.24,6.29,29.33c-1.39,1.2-2.15.69-2.72-.63a17.17,17.17,0,0,1-1.32-7.09c0-1.9-1.82-2.26-2.07-3.81-1-6.62,2.46-11,7.2-14.69,1.33-1,3-3.09,4.51-2.14C13,1.7,11.17,3.8,11,5.36c-.67,5.24-1.36,10.41,2.95,14.72,1.38,1.37,1.78,1,2.72-.35A74.16,74.16,0,0,1,36.31.75c1-.68,1.84-1.13,3.12-.29,9.26,6.1,17.65,13.07,23.46,22.72C70.28,35.48,68.08,50.14,57.5,59.24ZM29.93,24.8c-2.14,1.89-4.74,1.56-7.25,1.45C16.35,26,10,19.28,9.38,13A21,21,0,0,1,10.8,2.05c-4.94,3.67-9.17,6.84-9.51,13C2.62,14.7,2.54,12.89,4,13,2.88,20.8,3.13,24.92,5,28.16A10.17,10.17,0,0,1,6.13,23.4c.4-.64,1-1.25,1.77-.91,1,.41.16,1.05,0,1.58A30.44,30.44,0,0,0,8.1,38.14c1-2.33,1.17-4.64,2.36-6.58.29-.47.5-1.08,1.14-1s.61.77.65,1.3a23.78,23.78,0,0,0,2,7.35,10.81,10.81,0,0,1,2-5.32c.36-.49.6-1.24,1.4-1.08s.56,1,.64,1.56A24.13,24.13,0,0,0,20.38,42c.74-2.88.82-5.46,2.18-7.65.6-1,.94-2.68,2.16-2.45s.39,1.88.64,2.86c.06.26.1.35.52.12,1.49-3.09,3.48-6.13,4.53-9.62.08-.3.3-.79.19-.88C30.21,24.09,30.15,24.64,29.93,24.8ZM17,35a6.23,6.23,0,0,0-1.47,4.65c.06.79.25,1.94-.7,2.11S13.66,40.73,13.37,40c-.74-1.74-1.32-3.55-2-5.49a19.87,19.87,0,0,0-1.57,7.58c-.25,6.76,2.71,13.2,11,14.23A42.87,42.87,0,0,0,27,56.3c1.47,0,1.75-.47.79-1.73-2.25-2.92-2.94-6.4-3-10s1.36-7-1-10.11c-1.53,2.07-1.56,4.84-2.26,7.39-.21.77.63,2.1-.72,2.23-1.2.12-1.46-1.25-1.76-2.11C18.28,39.75,17.68,37.42,17,35ZM35,70.5a38.61,38.61,0,0,1-4.44-10.79c-.16-.78-.22-1.73-1.67-1.47a28.35,28.35,0,0,1-9.25.16C24.38,63.56,29.12,67.72,35,70.5Z" style="fill:#727468"/><path d="M38.4,72.58l-1.11-1.53c3.3,0,5.63-2.19,8.24-3.66s5.2-3.49,7.78-5.26l1,.15C49.68,66.71,44.09,69.71,38.4,72.58Z" style="fill:#7e7f73"/><path d="M54.35,62.28l-1-.15a2.75,2.75,0,0,1,2-1.54C56,61.73,54.68,61.71,54.35,62.28Z" style="fill:#727468"/><path d="M55.84,60.07c.26-.7.56-1.3,1.39-.56C56.83,59.83,56.69,60.83,55.84,60.07Z" style="fill:#727468"/><path d="M55.31,60.61c-.05-.43.16-.6.57-.57Q56.3,61,55.31,60.61Z" style="fill:#727468"/><path d="M30.41,25.3c-1.05,3.49-3,6.53-4.53,9.62-.42.23-.46.14-.52-.12-.25-1,.58-2.63-.64-2.86s-1.56,1.48-2.16,2.45c-1.36,2.19-1.44,4.77-2.18,7.65a24.13,24.13,0,0,1-2.13-7.66c-.08-.57.28-1.38-.64-1.56s-1,.59-1.4,1.08a10.81,10.81,0,0,0-2,5.32,23.78,23.78,0,0,1-2-7.35c0-.53.07-1.2-.65-1.3s-.85.52-1.14,1C9.27,33.5,9.05,35.81,8.1,38.14A30.44,30.44,0,0,1,8,24.07c.11-.53.94-1.17,0-1.58-.82-.34-1.37.27-1.77.91A10.17,10.17,0,0,0,5,28.16C3.13,24.92,2.88,20.8,4,13c-1.47-.1-1.39,1.71-2.72,2.1.34-6.2,4.57-9.37,9.51-13A21,21,0,0,0,9.38,13c.65,6.29,7,13,13.3,13.26,2.51.11,5.11.44,7.25-1.45Z" style="fill:#edd69f"/><path d="M17,35c.7,2.4,1.3,4.73,2.07,7,.3.86.56,2.23,1.76,2.11,1.35-.13.51-1.46.72-2.23.7-2.55.73-5.32,2.26-7.39,2.37,3.15.93,6.68,1,10.11s.77,7,3,10c1,1.26.68,1.71-.79,1.73a42.87,42.87,0,0,1-6.21.06c-8.33-1-11.29-7.47-11-14.23a19.87,19.87,0,0,1,1.57-7.58c.7,1.94,1.28,3.75,2,5.49.29.69.52,1.9,1.44,1.74s.76-1.32.7-2.11A6.23,6.23,0,0,1,17,35Z" style="fill:#f1e6cc"/><path d="M35,70.5c-5.84-2.78-10.58-6.94-15.36-12.1a28.35,28.35,0,0,0,9.25-.16c1.45-.26,1.51.69,1.67,1.47A38.61,38.61,0,0,0,35,70.5Z" style="fill:#eae0c8"/><path d="M29.93,24.8c.22-.16.28-.71.67-.38.11.09-.11.58-.19.88Z" style="fill:#edd69f"/></g></g></svg>