<svg xmlns="http://www.w3.org/2000/svg" viewBox="0 0 59.48 73.22"><g id="Ebene_2" data-name="Ebene 2"><g id="Ebene_1-2" data-name="Ebene 1"><path d="M49.72,59.33l0,.22-.22.05c-.84-.73-1.14-.14-1.39.57l0,0c-.41,0-.63.14-.57.57l0,0c-.68.12-1.17.34-.56,1.11h0c-.77-.71-1.08,0-1.43.47C43,64,40.48,66,37.76,67.47s-4.95,3.72-8.25,3.68a32.64,32.64,0,0,1-6-12.68C29.28,61.26,34,62.1,36.72,60.9c-1.31-.28-2.55-.49-3.76-.82-9.68-2.62-13.28-6.41-14.1-15.17-.27-3-.46-6.49,1.47-8.6,2.17-2.35,4.15-4.51,4.59-8,1,.89,1.63,1.52,2.33,2.07,2.93,2.27,5.7,1.59,7.27-1.76,1.11-2.36.34-3.66-2.28-4-2-.27-3.86-.68-4.64-3.05-1.1-3.35-2.35-3.53-4.73-.9-2.58,2.86-4.36,3-6.93.47-1.3-1.3-2.29-1.08-3.44.07-1.95,1.95-1.53,4.82,1,7.39.35.35,1.4.25.94,1.29-1.56,3.57-1.32,4.37,2.2,5.84,1.33.55,1.49,1.2,1.15,2.43a22.09,22.09,0,0,0,.73,14.13c.52,1.35,2.73,2.59,1.64,3.75-.83.88-3.09.53-4.72.52-7.88,0-12-3.74-13.31-11.47A20.52,20.52,0,0,1,3.24,35.5C7.75,21,17.32,10.36,29.39,1.67c.88-.63,1.41-.4,2.15.12,8.07,5.68,15.51,12,20.6,20.66,3.62,6.14,5.88,12.62,4.68,20A32.7,32.7,0,0,1,50.4,56.94C49.9,57.6,48.64,58.17,49.72,59.33Z" style="fill:#f1e6cc"/><path d="M49.72,59.33c-1.08-1.16.18-1.73.68-2.39A32.7,32.7,0,0,0,56.82,42.4c1.2-7.33-1.06-13.81-4.68-19.95-5.09-8.64-12.53-15-20.6-20.66-.74-.52-1.27-.75-2.15-.12C17.32,10.36,7.75,21,3.24,35.5a20.52,20.52,0,0,0-1.07,9.61C3.45,52.84,7.6,56.53,15.48,56.58c1.63,0,3.89.36,4.72-.52,1.09-1.16-1.12-2.4-1.64-3.75a22.09,22.09,0,0,1-.73-14.13c.34-1.23.18-1.88-1.15-2.43-3.52-1.47-3.76-2.27-2.2-5.84.46-1-.59-.94-.94-1.29-2.57-2.57-3-5.44-1-7.39,1.15-1.15,2.14-1.37,3.44-.07,2.57,2.57,4.35,2.39,6.93-.47,2.38-2.63,3.63-2.45,4.73.9.78,2.37,2.64,2.78,4.64,3.05,2.62.35,3.39,1.65,2.28,4-1.57,3.35-4.34,4-7.27,1.76-.7-.55-1.34-1.18-2.33-2.07-.44,3.46-2.42,5.62-4.59,8-1.93,2.11-1.74,5.64-1.47,8.6.82,8.76,4.42,12.55,14.1,15.17,1.21.33,2.45.54,3.76.82-2.71,1.2-7.44.36-13.25-2.43a32.64,32.64,0,0,0,6,12.68l1.11,1.52c-1.36,1.18-2.62.15-3.76-.34-6.57-2.83-11.6-7.64-16.13-13C10.2,58.68,9.8,58,9,57.67,1.43,54.94-.76,47.37.22,40c1-7.58,4.34-14.17,8.71-20.27A72.75,72.75,0,0,1,28.63.8c.82-.53,1.51-1.22,2.64-.47C42,7.47,51.94,15.44,57.23,27.74A27.08,27.08,0,0,1,49.72,59.33ZM27.2,70.62a37.87,37.87,0,0,1-4.5-11c-.2-1-.61-1.47-1.81-1.26a23.14,23.14,0,0,1-9.17,0C16.54,63.64,21.32,67.78,27.2,70.62ZM23.75,22.91c-1.7,4-4.1,7-8.44,8.1-1.36.34-1,1.29-.42,2.07a4.27,4.27,0,0,0,7.59-1A17.21,17.21,0,0,0,23.75,22.91Zm1.53-2.6c-.24.3-1.43.33-.72,1.1,1,1.08.46,2.24.64,3.34a7.47,7.47,0,0,0,4.28,5.58c1.31.7,2-.29,2.82-1S34,27.74,33.67,26.6s-1.49-.7-2.35-.83c-2.29-.36-4-1.37-4.82-3.76C26.32,21.44,26.54,20.43,25.28,20.31ZM22,23.42c-2.63,1.32-4.56.51-6.52-.53-.62-.34-.55-2.12-1.94-1a2.55,2.55,0,0,0-.79,2.95A4.23,4.23,0,0,0,15.83,28a3.42,3.42,0,0,0,4-1.5C20.43,25.6,21.08,24.74,22,23.42Z" style="fill:#727468"/><path d="M30.62,72.67l-1.11-1.52c3.3,0,5.63-2.21,8.25-3.68S43,64,45.57,62.26l1,.11C41.89,66.8,36.3,69.81,30.62,72.67Z" style="fill:#7e7f73"/><path d="M48.06,60.17c.25-.71.55-1.3,1.39-.57C49,59.92,48.91,60.92,48.06,60.17Z" style="fill:#727468"/><path d="M47,61.79c-.61-.77-.12-1,.56-1.11C48.12,61.42,47.56,61.6,47,61.79Z" style="fill:#727468"/><path d="M46.57,62.37l-1-.11c.35-.52.66-1.18,1.43-.47Z" style="fill:#727468"/><path d="M47.53,60.71c-.06-.43.16-.6.57-.57Q48.52,61.13,47.53,60.71Z" style="fill:#727468"/><path d="M27.2,70.62c-5.88-2.84-10.66-7-15.48-12.27a23.14,23.14,0,0,0,9.17,0c1.2-.21,1.61.28,1.81,1.26A37.87,37.87,0,0,0,27.2,70.62Z" style="fill:#eae0c8"/><path d="M23.75,22.91a17.21,17.21,0,0,1-1.27,9.15,4.27,4.27,0,0,1-7.59,1c-.54-.78-.94-1.73.42-2.07C19.65,29.91,22.05,26.88,23.75,22.91Z" style="fill:#edd69f"/><path d="M25.28,20.31c1.26.12,1,1.13,1.22,1.7.78,2.39,2.53,3.4,4.82,3.76.86.13,2.06-.28,2.35.83s-.5,2.06-1.37,2.77-1.51,1.66-2.82,1a7.47,7.47,0,0,1-4.28-5.58c-.18-1.1.35-2.26-.64-3.34C23.85,20.64,25,20.61,25.28,20.31Z" style="fill:#edd69f"/><path d="M22,23.42c-.93,1.32-1.58,2.18-2.17,3.08a3.42,3.42,0,0,1-4,1.5,4.23,4.23,0,0,1-3.07-3.13,2.55,2.55,0,0,1,.79-2.95c1.39-1.15,1.32.63,1.94,1C17.45,23.93,19.38,24.74,22,23.42Z" style="fill:#edd69f"/></g></g></svg>