<svg xmlns="http://www.w3.org/2000/svg" viewBox="0 0 81.27 82.37"><g id="Ebene_2" data-name="Ebene 2"><g id="Ebene_1-2" data-name="Ebene 1"><path d="M71.5,59.35l0,.21-.21,0c-.84-.73-1.14-.14-1.39.57l0,0c-.41,0-.62.14-.57.57l0,0c-.67.12-1.16.34-.56,1.11h0c-.76-.71-1.07,0-1.43.47C64.76,64,62.27,66,59.54,67.49s-4.94,3.71-8.25,3.67c-3-3.65-4.74-7.84-6.09-12.84a20.54,20.54,0,0,0,13.2,2.81,78.88,78.88,0,0,1-7.76-2.34c-5.57-1.91-8.76-5.87-9.71-11.67-1-6.37.7-12.25,3.49-17.81A13.63,13.63,0,0,0,45.91,22c0-.42.09-1-.52-1.1a.94.94,0,0,0-1.12.91,8.08,8.08,0,0,1-2,4.34c-4.74,6.29-11.23,10.34-18,14.27a12.19,12.19,0,0,1,.84-5C29.62,21,39.15,10.33,51.21,1.65c.9-.64,1.44-.32,2.15.18,8.07,5.68,15.5,12,20.58,20.65,3.62,6.14,5.86,12.63,4.66,19.94A32.61,32.61,0,0,1,72.18,57C71.69,57.61,70.42,58.18,71.5,59.35Z" style="fill:#f1e6cc"/><path d="M71.5,59.35c-1.08-1.17.19-1.74.68-2.4A32.61,32.61,0,0,0,78.6,42.42c1.2-7.31-1-13.8-4.66-19.94-5.08-8.63-12.51-15-20.58-20.65-.71-.5-1.25-.82-2.15-.18C39.15,10.33,29.62,21,25,35.43a12.19,12.19,0,0,0-.84,5c6.82-3.93,13.31-8,18-14.27a8.08,8.08,0,0,0,2-4.34.94.94,0,0,1,1.12-.91c.61.1.5.68.52,1.1a13.63,13.63,0,0,1-1.49,7.28c-2.79,5.56-4.53,11.44-3.49,17.81,1,5.8,4.14,9.76,9.71,11.67a78.88,78.88,0,0,0,7.76,2.34,20.54,20.54,0,0,1-13.2-2.81c1.35,5,3.11,9.19,6.09,12.84l1.11,1.52c-1.36,1.19-2.61.15-3.75-.34-6.5-2.78-11.49-7.52-16-12.83A7.15,7.15,0,0,0,30,57.33a12.73,12.73,0,0,1-7.39-8.23c-.37-1.14-.66-2-1.88-.82C14.9,53.84,8,58.54,5.9,67.1c-.63,2.6-1,5.18.78,7.5,1.23,1.65,2.7,2,4.34.47.93-.88,1.86-1.84,3.3-.94s.82,2.16.54,3.39c-1.07,4.59-3.52,5.82-7.9,4.12C.78,79.25-.86,73.56.39,67.64c2.3-10.86,9.55-18,18.45-23.65a6.69,6.69,0,0,0,3.42-5.26c1-7.08,4.31-13.24,8.41-19A72.71,72.71,0,0,1,50.37.85C51.18.32,51.87-.44,53,.32c10.78,7.14,20.7,15.1,26,27.41A27.09,27.09,0,0,1,71.5,59.35ZM44.3,26.41c.39-.2.58-.65.28-.83s-.41.32-.54.58l-.67,1c-2.14,2.07-3.95,4.43-6.26,6.36-5.66,4.71-12.2,8.06-18.25,12.17C11,51.07,4.46,57.42,2,67.05c-1.66,6.38.85,12,6.4,13.57,1.31.38,2.66.59,3.78-.61a5.56,5.56,0,0,0,1.35-5.14c-2.08,2.07-3.84,3.68-6.32,2.21s-3.29-4.11-3.31-7a17.25,17.25,0,0,1,1-4.73c2.1-7.45,8-11.85,13.3-16.75,4.4-4.1,10-6.54,14.78-10,4.27-3.06,8.3-6.38,10.81-11.16C44.19,27.26,44.25,26.84,44.3,26.41Zm-4.12,9.13-.68-.24c-2.36,1.76-4.67,3.6-7.1,5.27s-5,3.25-7.51,4.84c-1,.65-.67,1.46-.45,2.38,1.72,7.26,9.79,10.5,18.12,8C37.72,49.58,38.31,42.64,40.18,35.54ZM49,70.61a38.64,38.64,0,0,1-4.43-10.77c-.16-.75-.18-1.75-1.65-1.5a33.33,33.33,0,0,1-9.22.22C38.38,63.67,43.12,67.83,49,70.61ZM40,34.74l-.09.16h.33c0-.06,0-.13-.08-.16S40.07,34.74,40,34.74Z" style="fill:#727468"/><path d="M52.4,72.68l-1.11-1.52c3.31,0,5.64-2.21,8.25-3.67s5.22-3.46,7.81-5.22l1,.12C63.68,66.81,58.09,69.82,52.4,72.68Z" style="fill:#7e7f73"/><path d="M68.35,62.39l-1-.12c.36-.52.67-1.18,1.43-.47Z" style="fill:#727468"/><path d="M68.78,61.8c-.6-.77-.11-1,.56-1.11C69.9,61.44,69.34,61.62,68.78,61.8Z" style="fill:#727468"/><path d="M69.85,60.18c.25-.71.55-1.3,1.39-.57C70.83,59.94,70.69,60.93,69.85,60.18Z" style="fill:#727468"/><path d="M69.31,60.72c0-.43.16-.6.57-.57Q70.3,61.14,69.31,60.72Z" style="fill:#727468"/><path d="M40.18,35.54c-1.87,7.1-2.46,14,2.38,20.27-8.33,2.48-16.4-.76-18.12-8-.22-.92-.58-1.73.45-2.38,2.52-1.59,5.07-3.14,7.51-4.84s4.74-3.51,7.1-5.27Z" style="fill:#f1e6cc"/><path d="M43.72,27.45c-2.51,4.78-6.54,8.1-10.81,11.16-4.83,3.48-10.38,5.92-14.78,10-5.26,4.9-11.2,9.3-13.3,16.75a17.25,17.25,0,0,0-1,4.73c0,2.86.68,5.4,3.31,7s4.24-.14,6.32-2.21A5.56,5.56,0,0,1,12.13,80c-1.12,1.2-2.47,1-3.78.61C2.8,79,.29,73.43,2,67.05c2.51-9.63,9-16,16.91-21.35,6.05-4.11,12.59-7.46,18.25-12.17,2.31-1.93,4.12-4.29,6.26-6.36A3.07,3.07,0,0,0,43.72,27.45Z" style="fill:#edd69f"/><path d="M49,70.61c-5.84-2.78-10.58-6.94-15.3-12a33.33,33.33,0,0,0,9.22-.22c1.47-.25,1.49.75,1.65,1.5A38.64,38.64,0,0,0,49,70.61Z" style="fill:#eae0c8"/><path d="M44,26.16c.13-.26.12-.83.54-.58s.11.63-.28.83Z" style="fill:#edd69f"/><path d="M44.3,26.41c0,.43-.11.85-.58,1a3.07,3.07,0,0,1-.35-.28l.67-1A3.07,3.07,0,0,1,44.3,26.41Z" style="fill:#edd69f"/><path d="M40,34.74s.12,0,.16,0,0,.1.08.16h-.33Z" style="fill:#f1e6cc"/></g></g></svg>