<?xml version='1.0' encoding='utf-8'?>
<svg xmlns="http://www.w3.org/2000/svg" width="100%" height="100%" viewBox="0 0 2732 2048" version="1.1"
     style="fill-rule:evenodd;clip-rule:evenodd;stroke-linecap:round;stroke-linejoin:round;stroke-miterlimit:1.5;">
    <path d="M919.338,720.767C909.651,702.891 899.968,654.735 908.023,629.476C916.077,604.217 941.637,580.228 967.665,569.214C1003.58,554.019 1076.8,528.935 1123.48,538.308C1170.16,547.68 1261.94,612.577 1247.76,625.446C1239.98,632.5 1201.01,604.82 1151.25,598.933C1110.22,594.079 1058.78,610.706 1038.36,615.524C1007.1,622.897 988.587,669.219 976.552,689.42C968.287,703.292 975.68,731.506 966.144,736.731C956.609,741.955 927.192,735.26 919.338,720.767Z"
          style="fill:rgb(72,42,89);stroke:black;stroke-width:1px;"/>
    <g transform="matrix(0.946886,0,0,1.03458,69.5437,-49.5533)">
        <path d="M1350.01,1200.73C1336.51,1202.49 1308.5,1321.25 1309.75,1359.06C1310.66,1386.89 1334.32,1416.78 1357.49,1427.6C1380.67,1438.42 1425.08,1430.66 1448.82,1424C1468.96,1418.35 1510.15,1399 1499.94,1387.63C1489.73,1376.25 1409.34,1371.99 1387.55,1355.74C1369.34,1342.15 1369.33,1316.57 1369.18,1290.11C1369.01,1260.37 1367.65,1198.44 1350.01,1200.73Z"
              style="fill:rgb(14,4,40);stroke:black;stroke-width:1.01px;"/>
    </g>
    <path d="M1378.39,638.487C1392.71,622.974 1475.76,582.279 1516.26,571.837C1550.21,563.082 1591.18,567.307 1621.38,575.835C1650.09,583.943 1684.52,596.111 1697.42,623.006C1711.9,653.192 1734.1,743.874 1708.26,756.953C1682.42,770.032 1588.72,716.819 1542.39,701.48C1505.09,689.128 1457.67,675.416 1430.33,664.918C1412.2,657.952 1365.22,652.761 1378.39,638.487Z"
          style="fill:rgb(72,42,89);stroke:black;stroke-width:1px;"/>
    <path d="M1741.93,1265.68C1717.61,1261.65 1705.67,1192.49 1697.59,1166.07C1691.83,1147.27 1695.1,1126.65 1693.41,1107.22C1691.73,1087.94 1685.26,1066.52 1687.43,1049.47C1689.47,1033.47 1698.14,1018.8 1706.41,1004.95C1716.85,987.475 1736.53,961.95 1750.04,944.639C1761.81,929.55 1774.09,914.79 1787.44,901.081C1800.83,887.331 1812.88,870.326 1830.39,862.14C1851.57,852.238 1926.26,953.223 1926.26,953.223C1926.26,953.223 1899.09,973.117 1886.77,984.547C1866.78,1003.11 1822.54,1042.34 1806.28,1064.6C1795.24,1079.7 1790.99,1099.44 1789.18,1118.07C1787.24,1137.98 1789.49,1162.6 1794.65,1184.07C1799.87,1205.78 1829.29,1234.73 1820.5,1248.33C1811.72,1261.93 1768.46,1270.08 1741.93,1265.68Z"
          style="fill:rgb(247,255,250);stroke:black;stroke-width:1px;"/>
    <path d="M1849.84,1243.89C1865.69,1241.1 1896.41,1236.46 1915.73,1231.45C1932.84,1227.01 1951.06,1223.65 1965.74,1213.81C1981.25,1203.4 2001.13,1180.45 2008.81,1169C2013.28,1162.33 2016,1148.89 2011.82,1145.09C2007.64,1141.29 1982.66,1150.1 1983.72,1146.19C1984.78,1142.28 2013.99,1133.97 2018.17,1121.64C2022.35,1109.3 2015.15,1087.7 2008.81,1072.16C2000.16,1050.96 1980.08,1014.27 1966.3,994.443C1955.35,978.69 1926.13,953.223 1926.13,953.223C1926.13,953.223 1865.89,995.776 1843.04,1019.16C1821.62,1041.06 1793.01,1063.13 1789,1093.5C1786.69,1110.99 1783.35,1143.14 1788.43,1170.71C1794.06,1201.22 1820.61,1248.2 1820.61,1248.2C1820.61,1248.2 1840.14,1245.59 1849.84,1243.89Z"
          style="fill:url(#_Linear1);stroke:black;stroke-width:1px;"/>
    <g transform="matrix(1.53659,0,0,1.57034,-1043.13,-610.186)">
        <ellipse cx="1924.16" cy="1052.45" rx="29.792" ry="28.454" style="fill:url(#_Radial2);"/>
    </g>
    <g transform="matrix(1,0,0,1.1066,0,-148.899)">
        <path d="M1418.09,1246.65C1452,1253.24 1561.5,1264.95 1552.6,1286.23C1541.72,1312.24 1514.65,1382.16 1490.23,1392.33C1463.22,1403.58 1425.55,1391.58 1403.24,1378.52C1380.93,1365.45 1365.39,1335.93 1356.37,1313.96C1347.81,1293.08 1338.86,1257.86 1349.14,1246.65C1359.43,1235.43 1395.53,1242.26 1418.09,1246.65Z"
              style="fill:rgb(235,93,0);stroke:black;stroke-width:0.95px;"/>
    </g>
    <path d="M1416.55,649.292C1468.77,657.288 1643.87,728.879 1715,764.722C1763.35,789.09 1843.29,864.353 1843.29,864.353C1843.29,864.353 1720.65,961.303 1702.11,1024C1683.56,1086.7 1715.13,1202.22 1732.01,1240.54C1735.24,1247.87 1736.99,1264.32 1750.07,1265.7C1776.49,1268.49 1618.06,1294 1553.11,1282.83C1477.27,1269.79 1320.1,1225.01 1295.04,1187.46C1269.98,1149.92 1366.12,1091.77 1402.75,1057.56C1435.63,1026.84 1510.41,1027 1514.76,982.208C1519.51,933.287 1464.78,821.547 1431.26,764.034C1431.26,764.034 1404.02,735.195 1401.65,716.751C1399.2,697.627 1393.79,645.807 1416.55,649.292Z"
          style="fill:url(#_Linear3);stroke:black;stroke-width:1px;"/>
    <path d="M906.527,946.151C897.298,949.873 893.172,966.885 895.189,973.81C897.205,980.735 916.856,981.576 918.628,987.702C920.399,993.828 904.002,1002.02 905.817,1010.57C907.874,1020.25 922.5,1034.14 930.972,1045.83C940.503,1058.99 949.363,1077.67 963.001,1089.49C976.662,1101.34 995.102,1110.39 1012.94,1116.9C1032.02,1123.87 1059.38,1127.57 1077.49,1131.27C1092.13,1134.26 1107.57,1143.62 1121.62,1139.09C1135.67,1134.56 1166.32,1117.59 1161.81,1104.11C1157.3,1090.63 1115.72,1075.19 1094.54,1058.21C1070.89,1039.26 1043.9,1008.18 1019.91,990.388C998.618,974.603 969.463,958.85 950.565,951.477C936.79,946.103 915.757,942.429 906.527,946.151Z"
          style="fill:rgb(202,80,1);stroke:black;stroke-width:1px;"/>
    <path d="M912.809,942.144C926.001,955.811 968.096,965.835 993.34,981.937C1035.36,1008.75 1119.89,1090.99 1164.95,1102.99C1209.47,1114.85 1239.05,965.403 1262.29,904.759C1282.67,851.564 1292.59,781.773 1304.39,739.124C1314.84,701.308 1286.54,651.098 1273.08,636.982C1222,583.411 1116.71,596.525 1040.24,609.684C980.531,619.957 961.765,710.699 956.757,739.259C951.616,768.571 953.009,814.888 940.813,832.977C928.571,851.133 918.858,881.741 914.191,899.936C910.693,913.571 903.033,932.015 912.809,942.144Z"
          style="fill:url(#_Linear4);stroke:black;stroke-width:1px;"/>
    <path d="M1161.19,1104.06C1161.19,1104.06 1210.29,1006.29 1228.57,962.903C1244.93,924.063 1267.35,880.215 1270.86,843.745C1273.55,815.783 1276,775.83 1278.14,748.739C1279.92,726.22 1286.84,700.009 1283.71,681.198C1282.1,671.547 1265.11,629.215 1265.11,629.215C1265.11,629.215 1294.63,636.873 1317.89,640.697C1357.48,647.204 1398.45,647.188 1414.69,649.125C1431.73,651.157 1396.94,652.478 1408.81,697.465C1414.26,718.124 1432.34,741.946 1443.78,764.354C1456.67,789.603 1473.09,821.73 1486.15,848.961C1498.65,874.996 1515.37,903.844 1522.18,927.743C1528.11,948.515 1540.49,975.462 1527.03,992.358C1509.68,1014.15 1452.68,1033.85 1418.07,1058.5C1383.15,1083.37 1337.32,1119.22 1317.49,1141.59C1305.47,1155.13 1299.06,1192.69 1299.06,1192.69C1299.06,1192.69 1235.35,1150.9 1212.37,1136.12C1195.44,1125.24 1161.19,1104.06 1161.19,1104.06Z"
          style="fill:rgb(238,247,255);stroke:black;stroke-width:1px;"/>
    <path d="M754.531,923.575C729.968,926.797 568.435,928.185 519.896,909.605C484.797,896.169 470.341,846.375 463.297,812.094C456.253,777.814 469.984,735.287 477.631,703.922C484.422,676.067 493.457,646.726 509.179,623.906C524.901,601.086 547.41,577.999 571.963,567.002C596.515,556.005 630.574,546.466 656.493,557.924C698.468,576.478 828.386,652.801 823.813,678.331C819.239,703.86 666.146,691.983 629.053,711.102C603.415,724.317 595.238,764.838 601.256,793.047C607.627,822.909 641.731,868.519 667.277,890.273C690.979,910.457 779.095,920.353 754.531,923.575Z"
          style="fill:rgb(72,42,89);stroke:black;stroke-width:1px;"/>
    <path d="M823.106,685.376C834.751,677.964 779.006,642.451 753.125,633.866C727.244,625.282 691.57,630.593 667.818,633.866C647.845,636.619 626.233,643.965 610.612,653.509C595.698,662.621 583.343,678.129 574.094,691.133C565.471,703.256 559.283,717.248 555.118,731.531C549.947,749.263 541.523,776.635 543.067,797.525C544.612,818.415 557.182,842.426 564.385,856.871C569.593,867.316 577.516,876.489 586.283,884.195C596.014,892.748 608.8,904.094 622.768,908.186C646.272,915.073 719.501,921.585 727.31,925.514C727.31,925.514 644.94,874.169 621.225,867.026C596.395,859.546 584.141,808.267 584.707,781.588C585.273,754.908 608.198,724.158 624.622,706.949C639.636,691.218 661.633,680.688 683.252,678.339C716.332,674.743 811.46,692.788 823.106,685.376Z"
          style="fill:rgb(33,12,44);stroke:black;stroke-width:1px;"/>
    <path d="M750.535,923.939C726.769,926.302 683.32,915.58 658.248,904.759C635.606,894.987 614.123,879.174 600.103,859.013C586.083,838.853 570.699,810.1 574.127,783.798C578.034,753.833 588.037,694.255 623.54,679.225C665.058,661.648 787.994,659.729 823.236,678.339C856.59,695.95 838.73,755.507 834.998,790.88C831.312,825.814 814.922,868.4 800.845,890.576C790.061,907.564 770.559,921.947 750.535,923.939Z"
          style="fill:url(#_Linear5);stroke:black;stroke-width:1px;"/>
    <path d="M899.323,936.04C891.623,942.619 881.536,984.481 879.898,1004.62C878.463,1022.27 880.846,1041.41 889.497,1056.86C899.635,1074.97 922.113,1099.33 940.724,1113.24C958.407,1126.45 979.982,1134.09 1001.16,1140.31C1023.45,1146.84 1054.55,1153.8 1074.44,1152.45C1091.17,1151.32 1135.26,1140.21 1120.51,1132.24C1104.52,1123.6 1008.96,1116.08 978.514,1100.61C956.684,1089.52 946.321,1061.7 937.848,1039.44C929.376,1017.18 932.226,984.133 927.679,967.077C920.864,941.513 912.998,924.357 899.323,936.04Z"
          style="fill:rgb(4,3,23);stroke:black;stroke-width:1px;"/>
    <path d="M823.988,679.225C823.988,679.225 835.03,727.371 833.688,749.544C832.123,775.397 829.81,813.171 817.111,841.673C804.223,870.6 756.359,923.106 756.359,923.106C756.359,923.106 805.258,919.814 835.492,925.371C865.521,930.89 883.766,943.276 908.023,935.226C942.594,923.753 943.475,843.58 950.565,809.816C955.852,784.641 975.687,738.179 950.565,732.643C911.587,724.054 823.988,679.225 823.988,679.225Z"
          style="fill:rgb(249,250,252);stroke:black;stroke-width:1px;"/>
    <defs>
        <linearGradient id="_Linear1" x1="0" y1="0" x2="1" y2="0" gradientUnits="userSpaceOnUse"
                        gradientTransform="matrix(70.1566,145.663,-145.663,70.1566,1849.56,1057.56)">
            <stop offset="0" style="stop-color:rgb(200,77,75);stop-opacity:1"/>
            <stop offset="1" style="stop-color:rgb(235,163,52);stop-opacity:1"/>
        </linearGradient>
        <radialGradient id="_Radial2" cx="0" cy="0" r="1"
                        gradientTransform="matrix(27.2125,0,0,26.6276,1924.16,1052.45)">
            <stop offset="0" style="stop-color:rgb(3,4,50);stop-opacity:1"/>
            <stop offset="0.83" style="stop-color:rgb(20,16,50);stop-opacity:1"/>
            <stop offset="1" style="stop-color:rgb(235,163,52);stop-opacity:1"/>
        </radialGradient>
        <linearGradient id="_Linear3" x1="0" y1="0" x2="1" y2="0" gradientUnits="userSpaceOnUse"
                        gradientTransform="matrix(-87.539,285.549,-285.549,-87.539,1640.65,861.21)">
            <stop offset="0" style="stop-color:rgb(168,89,162);stop-opacity:1"/>
            <stop offset="1" style="stop-color:rgb(229,95,3);stop-opacity:1"/>
        </linearGradient>
        <linearGradient id="_Linear4" x1="0" y1="0" x2="1" y2="0" gradientUnits="userSpaceOnUse"
                        gradientTransform="matrix(-63.3117,258.549,-258.549,-63.3117,1122.24,732.492)">
            <stop offset="0" style="stop-color:rgb(168,89,162);stop-opacity:1"/>
            <stop offset="0.5" style="stop-color:rgb(198,72,23);stop-opacity:1"/>
            <stop offset="1" style="stop-color:rgb(230,95,3);stop-opacity:1"/>
        </linearGradient>
        <linearGradient id="_Linear5" x1="0" y1="0" x2="1" y2="0" gradientUnits="userSpaceOnUse"
                        gradientTransform="matrix(-22.8311,127.682,-127.682,-22.8311,704.989,735.712)">
            <stop offset="0" style="stop-color:rgb(168,89,162);stop-opacity:1"/>
            <stop offset="1" style="stop-color:rgb(230,95,3);stop-opacity:1"/>
        </linearGradient>
    </defs>
</svg>