<?xml version="1.0" encoding="utf-8"?>
<!-- Generator: Adobe Illustrator 25.3.1, SVG Export Plug-In . SVG Version: 6.00 Build 0)  -->
<svg version="1.1" id="Ebene_1" xmlns="http://www.w3.org/2000/svg" xmlns:xlink="http://www.w3.org/1999/xlink" x="0px" y="0px"
	 viewBox="0 0 486.5 1000.4" style="enable-background:new 0 0 486.5 1000.4;" xml:space="preserve">
<style type="text/css">
	.st0{fill:#BCE2EB;stroke:#1D2644;stroke-miterlimit:10;}
	.st1{fill:#A692C5;}
	.st2{fill:#67627B;}
	.st3{fill:none;stroke:#000000;stroke-miterlimit:10;}
	.st4{fill:#E52521;}
	.st5{fill-rule:evenodd;clip-rule:evenodd;fill:#E94E1B;}
	.st6{fill-rule:evenodd;clip-rule:evenodd;fill:#F6F6F6;stroke:#1D1D1B;stroke-miterlimit:10;}
	.st7{fill-rule:evenodd;clip-rule:evenodd;fill:#FFFFFF;stroke:#1D1D1B;stroke-miterlimit:10;}
	.st8{fill:#1D2644;}
	.st9{fill:#6C688F;}
	.st10{fill:#C1B3D8;}
	.st11{fill:#1C2F56;}
	.st12{fill:#010101;}
	.st13{fill:#010101;stroke:#010101;stroke-width:0.5;}
	.st14{fill:#FFFFFF;stroke:#010101;stroke-width:0.5;}
	.st15{fill:none;stroke:#010101;stroke-width:0.5;}
	.st16{fill:#E71D83;stroke:#010101;stroke-width:0.5;}
	.st17{fill:#1F2745;}
	.st18{fill:#7D658E;}
	.st19{fill:#212846;}
	.st20{fill:#FFFFFF;}
	.st21{fill:#D7A9CE;stroke:#1D1D1B;stroke-miterlimit:10;}
	.st22{fill:#BCE2EB;stroke:#1D2644;stroke-width:0.75;stroke-miterlimit:10;}
</style>
<g id="Ebene_2_1_">
	<g id="HairBack">
		<path class="st0" d="M175.9,171.7c0-13.8-0.1-27.6-0.1-41.4c0-2.9-0.6-5.7-1.5-8.4c-1.8-5.6-2.4-11.4-1.8-17.3
			c0.9-8-1.1-15.9-0.7-23.9c0.8-15.4,3.2-30.5,10.5-44.3c6-11.4,14.6-20.5,26.2-26.3c5.6-2.8,11-6.6,17.5-7.5
			c5-0.7,9.9-1.9,14.9-1.5c2.8,0.2,5.6-0.6,8.2-0.6c8.6,0.2,17.2,1.3,25.2,4.9c18.6,8.5,27.9,24,32.4,43.2
			c1.8,7.7,1.7,15.5,1.6,23.4c-0.1,9.8-0.3,19.6,0.1,29.3c0.3,9.5-1.8,18.8-1.7,28.2c0.2,19.7,3.4,39.3,9.5,58
			c3.7,11.5,6.9,23.1,11.2,34.5c0.6,1.5,0.1,3.4,0.2,5.2c0.3,6.1,2.6,12,6.5,16.7c3.7,4.4,5,10,5.4,15.6c0.4,5-0.5,9.9-1.2,14.9
			s0.5,10.4,2.2,15.4c2.5,7.2,3,15,1.6,22.5c-0.9,4.7,0.4,9.4,1.7,14c0.2,0.6,0.8,1.4,0.6,1.8c-1.6,2.9-0.1,6.3-0.9,9
			c-1.4,4.8-2.7,9.6-5.2,14.1c-3.6,6.4-9.1,11.1-14,16.3c-3.6,3.7-5.7,8.5-6.1,13.6c-0.6,6.3-3,11.4-8.5,14.8
			c-0.3,0.2-0.7,0.7-0.9,0.7c-5.9-1.1-12,3-17.7-1c-2-1.4-4.2-1.4-6.5-1.3c-6.9,0.2-13.6-1.1-20.3-2.5c-2.3-0.5-4.4-1.6-6.2-3.1
			c-3.4-3.1-8-3.8-12.2-4.6c-5.2-0.9-10.5-1.2-15.9-1c-5.5,0.1-10.5-0.9-15-5.1c-3.1-2.9-8.1-3.3-12.3-4.5c-2.8-0.6-5.4-1.7-7.9-3.2
			c-0.4-0.3-0.9-0.8-1.3-0.8c-7.4,0.4-10.9-5.1-14-10.1c-2.6-4.1-5.5-7.1-10-8c-11.9-2.5-17.4-11.4-18.8-21.9
			c-1.5-11-5.9-20.6-9.6-30.7c-1.8-5-4.1-9.9-5.2-15.1c-2.2-10.4-1-20.6,2.9-30.5c6.5-15.7,14.6-30.7,24.3-44.7
			c3-4.4,4.4-9.8,6.4-14.8c2.2-5.7,4.3-11.6,6.4-17.4C176.6,174.8,176.2,173.2,175.9,171.7z"/>
	</g>
	<g id="SkirtBack">
		<path class="st1" d="M239.5,533.5c0.9-2.8,3.2-5,6.1-5.7c0.2,8,0.7,15.9,3.5,23.3c0.3,1.9,0,3.9-0.9,5.7
			c-2.3,5.7-5.7,10.5-9.1,15.2c-0.7,1-1.6,1.9-2.9,1.6c-0.5-8.5,1.1-16.8,2.1-25.2C239,543.5,239.8,538.6,239.5,533.5z"/>
		<path class="st2" d="M235.9,573.2c5.9-5.4,10.8-11.5,13.1-19.2c1.2,1.1,0.9,2.6,0.5,3.8c-2.4,7.4-7.5,13-12.6,18.6
			c-0.1,0.1-0.4,0-0.7,0.1C235.4,575.4,235.8,574.3,235.9,573.2z"/>
	</g>
	<g id="Skin">
		<path class="st3" d="M190.7,240.1c-1.3,0.4-1.7,1.6-2.5,2.5c-10.8,12-18.7,25.7-25.3,40.3c-7.2,16-13.4,32.5-19.8,48.9
			c-3.9,10-9.8,19-16.2,27.5c-8.4,11-17.6,21.3-26.2,32.1c-7.6,9.2-14.5,18.9-20.8,29c-4.7,7.9-6.8,16.7-9.2,25.4
			c-1.5,5.6-1.8,11.4-2.9,17c-1.6,8-6.2,14.4-10.6,21c-0.5,0.8-1.2,1.6-1.7,2.4c-1.7,2.5-3.1,2.7-4.8,0.2
			c-3.6-5.3-3.5-12.2,0.2-17.3c0.9-1.1,1.6-2.3,2.1-3.6c0.6-1.9,1.1-4.1-0.5-5.8c-1.2-1.2-5.7-0.2-7,1.4c-2.6,3.3-5.7,6.2-9.1,8.6
			c-4.6,3.6-8.5,8-11.7,12.9c-3.4,5-7.7,9.2-13.5,11.6c-2.9,1-6,1.4-9,1c-2.1-0.2-2-1.7-1.2-3.1c1.4-2.5,3.1-4.9,5.1-7
			c3.8-4,7.3-8.3,10.3-12.9c2.3-3.7,3.5-8,5.7-11.7c4.2-7,7.5-14.6,13.3-20.6c3.2-3.2,6.6-6.2,10.2-8.9c6.4-4.8,11-11.2,15.2-17.9
			c7.6-12.1,13.4-25,18.6-38.3c4.5-11.6,8.5-23.5,13.4-35c3.7-8.6,7.4-17.4,13.3-24.9c2.7-3.4,6-6.3,8.8-9.6
			c6.6-7.8,12-16.5,16.2-25.8c5.8-13,10.9-26.4,17.1-39.3c5.1-10.6,9.3-21.6,14.9-31.9c3.5-6.5,7.4-12.8,12.6-18.2
			c4.1-4.4,9.9-6.8,15.9-6.6c9.2,0,18-1.6,26.2-5.7c5.5-2.8,9.9-6.5,11.4-12.8c0.7-2.9,0.4-4-2.4-5.2c-7.2-3-13.7-7.2-20-11.6
			c-8.7-6-14.1-14.5-17.7-24.3c-2.8-7.7-3.8-15.7-4.4-23.8c-1-13.2-1.7-26.4-1.8-39.6c-0.1-14.6,4.4-27.7,14.1-38.7
			c8.5-9.7,18.9-16.5,31.7-19.2c6.9-1.5,13.9-0.5,20.9-0.8c5.3-0.2,10.7,0.8,15.6,2.9c15,5.9,25.9,16.1,33.1,30.4
			c3,5.9,4.1,12.2,4.9,18.7c1.2,10.7,0.2,21.3-0.6,32c-0.2,1.6-0.3,3.3-0.3,4.9c0.1,6.9-0.5,13.8-1.6,20.6c-1.8,11.5-6,22.1-14,31
			c-5.3,5.8-12.2,9.4-18.8,13.5c-2.7,1.6-5.5,3-8.4,4.1c-1.5,0.5-2.5,2.1-2.2,3.7c0.2,6.1,3.9,10.1,8.8,12.9
			c8,4.8,17.2,7.2,26.5,7.1c4.2-0.1,8.4,0.6,12.2,2.3c1.6,0.8,3.1,1.8,4.4,3.1c7.3,6.8,12.2,15.2,16.4,24.1
			c5.8,12.2,11.8,24.4,16.9,36.9s10.6,24.8,16.2,37c3.1,6.9,7.4,13.3,12.8,18.6c8.3,7.9,13.9,17.3,18.9,27.4
			c5.6,11.6,9.8,23.9,14.2,35.9c6.2,16.8,13.5,33,23.2,48.1c3.9,6.2,9,11.6,15,15.8c7.5,5.3,13,12.3,17.4,20.5
			c3.1,5.8,6.3,11.5,9,17.5c1.9,4.2,5.2,7.5,8.2,11.1c2.7,3.3,5.8,6.3,7.9,10.1c0.4,0.8,1.2,1.5,0.7,2.5s-1.8,1-2.8,1.1
			c-8.7,0.7-15.1-4-19.6-10.4c-5-6.9-10.8-13.2-17.4-18.6c-1.7-1.4-3.3-3-4.7-4.7c-0.9-1.1-2.3-1.9-3.7-2.1c-3.8-0.6-5,0.5-4.4,4.4
			c0.3,2.4,1.8,4.2,3,6.2c2.9,4.6,3,10.5,0.3,15.2c-0.5,0.9-1.2,1.7-2.1,2.4c-0.6,0.7-1.7,0.7-2.3,0.1c-0.2-0.1-0.3-0.3-0.4-0.5
			c-6-8.7-12.5-17.3-13.7-28.3c-0.6-5.3-1.6-10.6-2.9-15.7c-2.6-10.4-6.4-20.3-12.5-29.3c-11.2-16.4-24.2-31.3-36.7-46.7
			c-8.7-10.8-17.1-21.8-22.3-34.7c-4.7-11.7-9-23.5-13.8-35.1c-5.5-13.5-11.4-26.7-19.5-39c-4.1-6.1-8.5-11.8-13.4-17.3
			c-0.3-0.4-0.5-0.9-1-0.9c0,2.6-0.1,5.2,0,7.8c0.4,8.7-3.8,14.9-10.6,19.7c-1.7,1.1-2.7,2.8-2.9,4.8c-0.5,3.6-1.4,7.2-2,10.9
			c-0.8,3.9-1.4,7.9-1.7,11.9c-0.4,10.6-2.3,21.1-0.3,31.7c0.5,2.4,0,4.9,0.5,7.4c1.6,8.5,6.2,15.7,10.8,22.8
			c10,15.1,18.8,30.9,26.4,47.3c5,10.9,9.2,22.1,12.6,33.6c5.3,17.9,6.8,36.3,5.9,54.8c-0.3,6.9-1.8,13.8-3,20.7
			c-1.9,10.9-5.7,21.3-7.5,32.3c-1.6,9.3-3.4,18.7-5.9,27.9c-1.6,5.8-2.2,11.8-3.3,17.6c-1.6,9-3.2,18.1-5,27.1
			c-0.8,3.9-1.8,7.7-2.8,11.5c-1.5,5.5-2.2,11.1-3.6,16.6c-1,3.9-2,7.8-2.8,11.7c-1.1,5-1.4,10.1-2,15.1c-1,8.2-0.8,16.6,0.4,24.8
			c1.1,7.8,2.7,15.5,4.1,23.2c3.3,18.3,6.5,36.7,5.8,55.5c-0.4,11.1-1.2,22.1-2.7,33.1s-2.7,22.2-4.2,33.2c-1.1,8-2.6,15.9-3.5,23.9
			c-1.3,11.8-2,23.8-1,35.7c0.5,4.7,0.7,9.5,0.6,14.3c-0.4,8.1,1.5,16,1.7,24.1c0.1,3,1.3,6.1,2.6,8.9c3.1,6.5,5.2,13.5,6.3,20.6
			c1.8,11.9-3.2,19.2-14.4,23.8c-1.6,0.7-3.1,1.4-4.7,2c-6.9,2.9-14,4.6-21.2,1.9c-6.9-2.5-12.4-10.5-12.7-18.5
			c-0.3-8.7,1.8-17,4.8-25c2.3-6.1,4.1-12.3,3.7-18.9c-0.2-3.9-0.1-7.9-0.1-11.8c0.1-3.9,0.7-7.7,1.8-11.4c1-4.3,1.8-8.7,2.3-13
			c1.2-9.7,1.7-19.5,1.5-29.2c-0.4-10.3-1.2-20.5-2.7-30.6c-1.2-9.1-3.2-18.1-4.8-27.1s-3.4-17.9-5-26.8c-1.5-8.2-2.7-16.4-3.4-24.6
			c-1.2-13.1-2-26.2-0.6-39.4c0.7-7,1.2-14.1,2.1-21.1c1-7.6,1.4-15.2,1.2-22.8c-0.6-14.7-1.4-29.4-1.7-44.1
			c-0.2-9.8-0.9-19.7-1.5-29.5c-0.5-8.6-0.6-17.2-2-25.8c-0.7-3.9-0.2-7.9-0.6-11.8c-1-8-1.9-16-3.2-23.9c-0.8-4.8-1.2-9.6-1.6-14.4
			c-0.5-6.7-1.5-13.4-1.2-20.2c0.3-6.2,0.9-12.4,1.9-18.6c1-7,2.9-13.8,5.4-20.4c0.6-1.5,0.2-2.1-1.4-1.6c-4.8,1.4-9.8,1.4-14.6,0
			c-1.5-0.4-1.7,0-1.2,1.5c5.5,14.8,8,30.6,7.2,46.4c-0.3,8.5-1.4,17-2.5,25.5c-1.4,11.1-3.1,22.1-3.8,33.2
			c-0.9,14.1-1.9,28.2-2.6,42.3c-0.7,16-1.9,32-2,48c0,5.1-0.7,10.1-0.9,15.2c-0.4,8.9,0.8,17.7,1.8,26.5
			c1.1,10.9,2.3,21.9,2.1,32.9c-0.3,11.3-1.2,22.6-2.7,33.8c-1.1,9-3,17.8-4.3,26.7c-0.8,4.9-2.1,9.8-3,14.7c-1.2,6-2,12-3.3,17.9
			c-2.1,9.8-2.6,19.7-3.6,29.5c-0.7,8-0.7,15.9,0,23.9c0.2,3.7,0.9,7.3,1.1,11c0.3,6.2,1.3,12.3,2.8,18.2c0.9,4.3,1.4,8.6,1.3,13
			c0.1,1.4,0,2.8-0.1,4.2c-0.9,8.7,1.3,16.9,4.3,25s4.9,16.8,3.6,25.8c-1,7.4-7.4,14.2-14.7,16.1c-6.6,1.7-12.7-0.1-18.6-2.4
			c-2.4-1-4.9-2-7.2-3.1c-10.1-4.9-14.1-13-11.7-24.5c1.5-7.1,3.8-14.1,6.7-20.8c1.1-2.7,1.8-5.6,2.1-8.6c0.9-11,1.6-22,2-33
			c0.2-5.5,0.6-11,0.5-16.5c-0.1-10.7-1-21.3-2.6-31.9c-1.6-11.1-3.1-22.3-4.5-33.4c-1-8.2-2.4-16.4-3.1-24.7
			c-1-11.9-2.4-23.8-1.6-35.7c0.5-6.9,1-13.7,2-20.6c1.2-8.6,3-17.1,4.4-25.7c1.2-6.8,2.8-13.5,3.4-20.4c0.5-5.2,1.9-10.4,1.2-15.7
			c-1.2-8.1-1.1-16.3-3.1-24.4c-2.7-10.6-4.8-21.4-7.3-32.1c-2.2-9.3-3.6-18.7-5.5-28c-2-9.6-3.4-19.4-5.9-28.9
			c-1.9-7.2-3-14.6-4.3-22c-1.5-8.3-3.7-16.5-5.9-24.6c-1.6-6.1-2.5-12.4-3.6-18.6c-1.6-9.2-1.6-18.5-1.3-27.8
			c0.5-14.8,3.2-29.4,7.9-43.4c7.2-21,16.5-41.2,27.9-60.3c4.9-8.3,10.4-16.1,15.1-24.6c3.6-6.5,5.2-13.3,5.8-20.6
			c0.7-8.4,0.6-16.8-0.2-25.1c-0.5-7.6-1.5-15.2-3-22.7c-0.6-2.9-1.1-5.8-1.7-8.7c-0.1-0.9-0.6-1.7-1.4-2.2
			c-9.7-6-13.2-14.8-11.4-25.9c0.1-0.6,0.1-1.1,0.2-1.7C190.9,240.4,190.8,240.4,190.7,240.1z"/>
	</g>
	<g id="Koi">
		<path class="st4" d="M373.2,344.5c-1.8-6.2-4.3-12.2-5-18.8c-0.2-3.8,0-8,2.1-11.2c1.7-2.1,4.8-2.5,6.9-0.8
			c0.6,0.5,1.1,1.1,1.4,1.8c1.8,3.1,2,7.7,5.4,9.3c2.8,1.4,4.7,4,5.1,7.1c1.1,5.8-0.9,10.5-0.6,16.3c-0.2,3.1-0.7,6.4-2.3,9
			c-4.6,1-8.1,4.7-8.7,9.4c-0.5,2.6,0,6.1-2.3,7.8c-2.6,1.4-5-1.7-5-4.5c-0.2-5.7,1.4-11.2,4.6-15.9c1.8-1.9,1.4-5,0.2-7
			C374.4,346.1,373.6,345.3,373.2,344.5L373.2,344.5z"/>
		<path class="st4" d="M279.4,414.5c5.6-16.1,12.3-32.5,11.6-48.9c-0.5-2.4,0.4-9.2-4.4-8c-0.9,1.8-3.2,4.5-4.1,1.4
			c-5-2.9-12.5-4-18.8-1.4c-7.1,2.2-13.1-1.2-18.6-3.3c-5.1-2.2-10.4,0.7-15.7,1.1c-5.7,0.4-13,0.2-16.6,4.3
			c-4.9,5.6-10.7,10.8-15.1,16.6c-3.2,3.6-7.4,6.3-12,7.7c-6.8,3.2-9,9.7-6.8,14.8c1.5,6.4,6.4,11.5,12.8,13.2
			c5.7,2.6,13.2,2.1,19.3-0.6c6.5-2.7,12-7,14.1-12.2c1-5.4,8.6-7.9,14.6-5.4c6.9-0.1,8.7,7.3,16,5.7c5.9-2.3,15.3-1.2,16,4.1
			c-1.9,4.6,1.9,8.9,7.2,10.8L279.4,414.5L279.4,414.5z"/>
		<path class="st4" d="M232.4,196.5c6.2-1.4,12.9-3.7,19.1-0.9c10.1,0.7,7.8,7.9,1.6,9.7c-3.3,1.5-6.8,2.6-9.9,4.6
			c-10.4,5.4-21.3,10.2-29.8,18.5c-9.1,10.6-13.6,37.4-13.6,37.4c2.3-0.9,4.8-1.2,7.3-0.9c5.8,0.5,10.1-3.9,14-7.2
			c5.5-1.8,13.1-1.2,16,4.5c3.8,5.7,11.7,8.9,18.2,6c1.9-3.6,5.3-13.5,10-7c2.5,4.4,5.2,10,10.9,10.5c7.2,1.3,9.3-7.1,7-12.4
			c-1.6-4.9-0.2-12.7-7.3-13.3c-4.8-0.1-10.5-4.3-5.5-8.8c4.5-4.9,11.5-9,12.1-16.3c0.3-4.6-5.6-7.1-8.2-10.4
			c-3.6-5.5,6.7-8.9,7.9-13.6c2.2-6.3-3-12.2-7.9-15.6c-7.9-6.1-19-3.3-26.8,1.5c-4.6,3.6-10.3,5.9-14.5,10.1
			C232,193.8,231.8,195.3,232.4,196.5L232.4,196.5z"/>
		<path class="st4" d="M152,292.8c-2.2-1.2-3.7,2.2-2.8,4.3c0.5,1.9-1.1,5-2.8,2.8c-2.2-3.1-1.6-7.1-0.4-10.2c1-3.2,2.3-6.2,2.7-9.7
			c-0.1-2.2,0.4-4.8-1.1-6.6c-1.9-1.9-4.4-1.7-6.5-2.4c-4-1-7.6,2.3-8.5,6.5c-0.6,2.3-0.4,4.7,0.5,6.9c3.6,10,7,20.1,10.5,30.2
			c0.7,1.6,1.7,3.1,2.7,4.5c0.1-0.1,0.2-0.1,0.3-0.1c0-0.1,0-0.2,0-0.2l0,0c1.6-1.1,3.1-3.9,1.2-5.9c-1.3-2.1-0.4-5.4,1.7-5.9
			c2.2-1.4,2.6-4.6,3.4-7.1C153.1,297.6,153.6,294.9,152,292.8z"/>
		<path class="st4" d="M274,116.1c0.9,3.3,5.3,2.2,6.4-0.4c1.4-2,5.6-2.6,5.1,0.8c-1,4.7-5.3,7.1-9.1,8.3c-3.8,1.4-7.8,2.3-11.3,4.7
			c-1.9,1.8-4.8,3.3-5.2,6.3c-0.1,3.4,2.2,5.9,3.4,8.7c2.6,5,8.8,6.3,13.5,3.9c2.6-1.1,4.7-3.2,5.9-5.8c5-9.4,10.2-18.6,15.4-27.9
			c-0.5-0.8-0.8-1.7-1-2.7c-0.1-0.4-0.2-0.9-0.2-1.4c0-0.2-0.1-0.5-0.2-0.7l-0.1-0.2c0,0,0-0.1,0-0.1c-0.1-0.2-0.2-0.6-0.3-0.6
			l0.1,0.2l-0.1-0.2c-0.1-0.1-0.2-0.2-0.3-0.3l-0.2-0.3l0,0c0,0,0,0-0.1-0.1l-0.6-0.5l-0.2-0.2c-1.5,1.4-3.7,1.5-5.4,0.4
			c-3.2-1.3-6.5,0.8-9.6,1.9C277.5,111.2,274.5,112.7,274,116.1z"/>
	</g>
	<g id="Clownfish">
		<path class="st5" d="M323.5,215.9c-0.9-10.1-8.4-25-14.7-26.8s-14.7,12.1-22.8,16.4c-8,4.3-16.6,7.3-25.5,9.1
			c-7.5,1.4-15.7,1.9-22.8-0.4c-10.4-3.5-30.3-15.4-39.6-20.7c-3.7-2.1-9.4-6.1-13-8.6l-0.2,0.1c-0.1,0-0.1,0.1-0.2,0.1
			c-0.2,0.1-0.4,0.1-0.6,0.2c-0.2,0-0.3,0.1-0.5,0.1c-0.1,0-0.2,0.1-0.4,0.1h-0.1c-0.1,0-0.2,0-0.3,0.1l0.3-0.1l0,0
			c-0.2,0.1-0.5,0.2-0.7,0.3l-0.1,0.1c-0.1,0-0.2,0.1-0.3,0.1l-0.7,0.4c-0.3,0.2-0.6,0.4-0.9,0.5s-2.6,2.1-2.8,2.2
			c-0.2,0.2-0.4,0.3-0.6,0.5c-0.3,0.4-0.8,0.6-1.2,0.6c-9.1,11.4-24.6,32.5-20.3,37.3c5,5.5,12.9,8.1,19.6,11.4
			c6.8,3.4,13.8,6.3,20.9,8.9c8.2,3,20.2,7.5,28.1,9.4c6.3,1.5,12.9,3.1,19.4,2.1c6.9-1,14.7-5.7,22.2-8.4s15.9-3.8,22.8-7.9
			C298.3,237,324.4,225.2,323.5,215.9z"/>
		<path class="st5" d="M304.2,382.7c0-0.4-0.1-0.8-0.2-1.2l-0.2-0.1c-0.1-0.1-0.2-0.2-0.3-0.4c-0.2-0.3-0.3-0.6-0.5-0.9V380
			c-0.1-0.3-0.3-0.6-0.4-0.9c0-0.2-1.2-2.5-1.3-2.7c-1-1.5-1.9-3-2.8-4.5l-0.1-0.1c-0.1-0.1-0.2-0.2-0.2-0.3c0,0-0.1-0.1-0.1-0.1
			l-0.1-0.3c-0.1-0.2-0.3-0.4-0.4-0.5c-0.1-0.1-0.1-0.3-0.2-0.4c-0.1-0.1-0.2-0.2-0.2-0.3c-0.1-0.1-0.2-0.3-0.2-0.5l0,0
			c-0.3-0.4-0.6-0.8-0.9-1.2c-0.1-0.1-0.1-0.2-0.2-0.3c-0.1-0.3-0.3-0.6-0.5-0.9c-0.1-0.1-0.2-0.3-0.2-0.4c-0.1-0.2-0.1-0.3-0.2-0.5
			c-0.2-0.3-0.3-0.7-0.5-1c-0.1-0.1-0.1-0.2-0.1-0.2c-0.2-0.2-0.3-0.4-0.3-0.6v-0.1l0,0c0-0.1-1.3-1.9-1.3-1.9s-1.2-1.6-1.4-1.9
			s-0.3-0.6-0.5-0.8c-0.3-0.4-0.6-0.8-0.9-1.2c-0.1-0.1-0.1-0.2-0.1-0.3c-0.2-0.2-0.3-0.4-0.4-0.6c-4,1.7-10.1,1.9-15.1,2.8
			c-6.2,1.2-15.2,3.1-21.6,4.2c-8.3,1.5-19.4-0.5-29-1.6c-6.9-0.8-19.4-2.8-27.5-4.1c0,0.1-0.1,0.2-0.2,0.3
			c-1.5,2.2-2.5,4.8-4.3,6.7c0,0.2-5.7,9.1-6.5,11c-0.2,0.4-2.7,4.2-3.4,6c-0.6,1.4-3.5,6.5-4.2,7.9c-0.1,0.3,8.1,0,11.3,1.5
			c6.1,2.6,16.6,10,24.1,15.7s15,16.3,20.9,18.6c4.5,1.8,9.8-2.4,14.1-4.9c5-2.9,10.4-8.1,15.6-12.2c5.4-4.4,11.6-9.7,16.5-13.9
			c4.4-3.7,8.7-8.9,13-11.3C302.5,379.2,304.7,386.3,304.2,382.7z"/>
		<path class="st5" d="M232.2,762.5c0-0.2,0-0.5,0.1-0.7c-3.1,0.7-6.2,1.1-9.4,1.2c-6.4-0.1-15.8-0.2-22.9-2.9s-20.8-13.4-20.8-13.4
			s-3.6,30.2-1.4,35.9c3.2,8,23,7.4,31.4,8.7c6.3,1,18,5.1,19.1-0.8c0.1-0.7,0.3-1.4,0.5-2.2c0.3-1.7,0.4-3.4,0.7-5.2
			c0.3-2.3,2-12.6,2.1-13.8c0.1-2,0.5-4,0.6-6C232.1,763,232.1,762.8,232.2,762.5z"/>
	</g>
	<g id="Whales">
		<path class="st6" d="M187.3,712.8c1.2,0.1,2.6,8.2,6.6,16.4c4,8.1,7.1,17.8,8.3,21.3c0.5,2.6,1.3,5.1,2.2,7.5
			c1.5,0.1,2.3-0.6,3.7-1.1c1.4,1.3,3.9,11.3,8.5,22.3c2.1,9.2-5.7,28.1-9.2,41.8c-1.9,4.3-4,7.9-6.6,8.5l-15.6,0.1
			c-0.5-1-3.2-10.3-4-12.9c-2.3-13.7-3.6-27.6-3.8-41.6c0.1-8.4,0.3-17.6,1.7-25.7c2-11.7,3.2-21.1,5.6-31.6
			C185.7,715.5,186.3,715.1,187.3,712.8L187.3,712.8z"/>
		<path class="st6" d="M179.2,222.1c1,0.9,2.4,1.3,3.7,1.1c1.1-0.5,1.2,1.9,5.8,1c2.6-1.8,9.6-3.8,15.1-7.8
			c5.3-4.4,10.2-9.4,14.5-14.7c2.9-4.7,6.6-11.2,5.1-13.4c-3.2-1.1-6.8-0.9-11.3,1.5c-6.6,3.7-12.2,8.6-18.1,12.6
			c-4,2.2-7.6,5.1-10.6,8.6C181.2,213.7,177.9,219.6,179.2,222.1L179.2,222.1z"/>
		<path class="st6" d="M199.2,508.6c-3.2-6.3-12.2-14.9-13.3-17.8c1.6-8.2-7.8-19.9-9.3-28.9c-0.5-4.2-1.1-10.5-2.6-12.2
			c-2.3-1-5.4-0.2-7.8,1.1c-3.4,3.2-5.2,8.3-7,11.3c-3.5,6-5.9,12.5-7.2,19.4c-0.1,8.2,0,18.2,2,25.6c0.9,3.4,3,9.1,5.4,11.4
			c0.9,0.8,4.5,0.6,14.4,3.1c5-1.4,9.9-3.7,15-4.3c2.7,0.3,5.3,1.2,7.6,2.6C197.9,521.1,200.6,511.2,199.2,508.6z"/>
		<path class="st6" d="M258.3,318.2c0.1-2.4,2.6-12.3,3.9-18.4c1.4-7,3.4-16.3,4.1-20.2c2.1-1.2,10.2,10.3,10.4,13.3
			c0.9,3.6,0.8,19.3-0.9,20.8C272.3,316.2,259.7,320.1,258.3,318.2L258.3,318.2z"/>
		<path class="st7" d="M288.1,519.7c1.2-1.5-0.3-4.5-1-7.7c-11.7-31.5-20.2-64.2-25.3-97.5c0.8-4.7,2.6-7.6,4.6-7.2
			c4.9,2.4,9,8.9,11.2,13.2c10.9,28.2,15.3,58.4,25,86.8c4,7.9,6.5,14.9,8.9,17.4c1.5,2.8,6.1,5.7,9.8,5.2l0,0
			c7.7-7,9.9-17.2,12.2-26.9c1.4-17.4,0.6-44.9-2.4-56.1c-5.2-19.2-13-39.3-28.4-54.3c-26.6-30.4-35.4-29.6-39.3-38.6
			c-3.4-3.1-6.5-6.7-9.1-10.5c-0.4-0.1-0.8-0.2-1.1-0.5c-3.8-2.7-7.9,28.4-4.9,46.8c3.8,25.5,9.9,50.5,18.1,75
			c5.1,18.4,11,35.9,16.3,53C284.3,518.4,286.9,520.4,288.1,519.7z"/>
		<path class="st6" d="M347.7,273.8c2.2-2.7,0-9.8-1.7-13.3c-2.6-4.2-5.9-7.8-9.9-10.7c-5.8-5.1-11-11.1-17.6-15.8
			c-4.6-3.1-8.8-3.5-12.8-2.5c-2.4,2.5,0.1,10.4,2.2,16c4.3,7.6,8.9,14.1,12.8,18.1c5.2,5,12.8,7.8,15.4,10c5,1.3,5.9-1.5,7-0.9
			C344.7,275.2,346.4,274.8,347.7,273.8L347.7,273.8z"/>
	</g>
	<g id="Shoes">
		<path class="st8" d="M250.8,576.6c3.3,1.3,7.2,0.8,10.1,3.2c0.9,0.8,2.5-0.1,3.4-1.2c2.4-2.9,5.3-2.4,8.3-1.1
			c6.4,2.7,8.5,2,13-3.2c2.9-3.4,5.9-6.5,11.5-6.9c4.1-0.1,7.8-2.7,9.4-6.4c1.8-4.2,5.3-6.9,9.9-8.8c7.5-3.2,10.3-9.1,10.2-16.4
			c6.2-0.8,8.8-5.4,12.1-9.4c-2.9,0.3-4.8,2-6.8,3.6c-1.6,1.3-2.6,3.5-5.3,3.1c0-1.8-1-4.9,0.4-5.3c5.1-1.5,8.1-7.1,14.3-6
			c2.5,0.4,3.7,1.4,2.6,4.2c-6.8,16.9-13.1,34.1-20.3,50.8c-7.7,17.8-9.8,36.7-15.2,54.9c-3.6,12.2-5.8,24.8-6.5,37.5
			c-0.5,9.5,1.1,18.5,2.7,27.7c1.9,11.7,4.5,23.3,6.7,35c3,15.6,3.1,31.3,2.3,47c-0.6,11.6-1.5,23.2-4.1,34.7
			c-1.6,7.2-1.9,14.6-2.9,21.9c-1.2,8.3-2.7,16.6-4,24.9c-0.6,3.7-1.1,7.4-1.4,11.2c-0.4,4.8-0.5,9.7-0.7,14.6
			c-0.2,7.3,0.3,14.6,1.4,21.8c0.6,4.6-0.2,9.3,0.2,13.9c0.9,8.5,0,17.2,3.8,25.3c3.1,6.3,5.6,13,7.3,19.8c3,12.7-1,22.4-15.9,27.3
			c-5.4,1.8-10.5,4.2-16.4,4.9c-10.6,1.2-18.6-2.1-23.4-10.8c-4.2-7.7-2.5-15.7-1-23.7c1.4-7.3,5.5-13.9,7.1-21.2
			c0.3-1.2,0.5-2.3,0.5-3.5c-0.6-13.7,1.4-27,4.1-40.4c2.7-13.6,3.4-27.5,2-41.4c-1.6-16-3.7-32-7.7-47.8c-3.8-15-6.6-30.2-9-45.5
			c-1.1-7.3-1.8-14.7-2.2-22.1c-0.4-6.2-0.8-12.5-0.7-18.7c0.3-11.8,2-23.6,3.5-35.3c1.3-11.6,1.4-23.3,0.3-34.9
			c-0.7-5.6-1.1-11.3-1.1-17c0.2-13.3-2.7-26.4-5.6-39.3c-1.6-7.5-3.9-14.9-6.6-22.2c-1.2-3.1,0.7-6.3,4-7.6
			c1.8-0.7,3.5-1.7,5.4-2.4v3.8c-0.7,0.4-1.5,0.8-2.3,1.1c-2,0.9-4.1,2-3.1,4.5S248.4,577.2,250.8,576.6z"/>
		<path class="st9" d="M326.4,533c3.5-2.2,5.8-5.8,9.8-7.6c1.2-0.6,3-1.7,4-0.8c1.5,1.3-0.5,2.4-1.2,3.4c-2.6,3.2-5.6,6-9.1,8.2
			c-1.8,1.3-2.5,0.5-3.4-0.5C326.4,534.8,326.4,533.9,326.4,533z"/>
		<path class="st9" d="M250.8,576.6c-1.2,3.2-3.4,1.8-5.1,0.6c-2.3-1.5-3.2-3.7-1.1-5.9c1.5-1.5,3.4-2.9,6.1-2.2
			C250.7,571.6,250.7,574.1,250.8,576.6z"/>
		<path class="st10" d="M279.6,613.4c-0.5-11.1-3.2-21.9-7.3-32.8c4.9,1.6,9.1,1.4,13.6-1.8c-1.3,12-1.9,23.3,0.1,34.6
			c0.4,0.3,0.8,0.5,1-0.1c0.2-0.5,0.1-1.1-0.3-1.5c0.1-8.7-2-17.3,0-26c0.8-3.3,1.1-6.7,1.9-9.9c0.5-2,2.3-3.4,4.3-4.5
			c4-2.2,4.4-1.8,4.7,2.3c0.2,2.8,0.8,5.6,1.8,8.2c0.1-2,0.1-4.1,0-6.1c-0.5-4.2,0-7.8,6.3-8.1c-1,6.3-3,12.8-2.8,19.5
			c-0.3,0.8-1,1.8,0.9,1.6c0.5-8,2.3-15.7,4.1-23.5c1.5-6.7,7.1-10,14.1-12.5c-2.1,5.2-4.2,10.1-4.3,15.5c2.9-7.3,6-14.5,8.6-21.8
			c1.9-5.2,4.7-9.4,10.7-11.8c-0.2,4-2.5,7.3-3.8,10.7c-5.7,14.2-11.7,28.3-17.6,42.4c-2.7,6.4-3.1,13.2-4.8,19.8
			c-3.5,13.6-7.3,27.2-10,40.9c-1.9,10.2-2.5,20.7-1.8,31.1c0.9,17.9,5.6,35.2,8.5,52.7c3.7,21.5,3,43.1,0.1,64.6
			c-2.7,19.8-6,39.5-9,59.2c-2.3,15.9-2.8,32-1.4,48c1,12.3,2.4,24.6,3.9,36.8c0.9,7,5.2,13.1,7.3,19.9c1.3,3.7,2.1,7.6,2.5,11.5
			c0.7,9.1-2.9,14.2-13.1,18.2c-5,2-9.9,4.1-15.4,5.2c-14.6,3-24-6.8-24.4-17.7c-0.3-9.8,3.1-18.9,6.6-27.9
			c2.2-5.8,3.6-11.6,2.8-17.8c-1.1-9.2,0.8-18.1,3-27.1c2.1-8.3,2.6-16.9,3-25.4c1.2-22.7-2-45.2-6.9-67.4
			c-4.7-21.2-9.5-42.3-11.4-63.9c-1.1-12.2-2-24.4-0.7-36.7c1-10.1,2.2-20.2,3.1-30.4c1.1-11.7,0.7-23.4,0-35.1
			c-0.6-10.3-1.3-20.5-3-30.7c-2.1-11.8-5-23.5-8.7-35c2.4-0.5,5,0.3,7.5-0.6c1.9-0.7,2.5,1.1,2.8,2.3c2.5,9.7,4,19.6,4.5,29.6
			c0,3.1,0.6,6.2,1.8,9.2c0.2-14-1.1-27-5.1-40c3.4,1.8,6.3,1.8,9-1.1c1.8-1.9,3.5-1.3,4.6,1.1c3.1,6.6,4.6,13.6,5.9,20.6
			c0.8,4.4,1.3,8.8,2,13.2C280.9,615.4,279.7,614.2,279.6,613.4z"/>
		<path class="st9" d="M303.7,588.8c-0.1,0.8,0.4,2.6-0.8,2.1c-1.6-0.6-1.1-2.4-0.1-3.7C303,587.8,302.8,588.5,303.7,588.8z"/>
		<path class="st9" d="M279.6,613.4c1.2,1.1,0.8,2.4,0.5,3.7c-1.4-0.2-1.5-1.1-1.4-2.1C279.6,614.8,279.5,614,279.6,613.4z"/>
		<path class="st11" d="M286.7,611.9c0.9,1.1,1.2,2.5,0.8,3.9c-1.3-0.4-0.9-1.6-1.5-2.3C286.3,612.9,286.5,612.4,286.7,611.9z"/>
		<path class="st8" d="M217.6,854v-3.8c1.1,0,1.2,1.2,1.6,1.4c7.6,3.7,5.4,9.4,3.3,15.2c-3.9,10.2-3.6,20.6-2.7,31.4
			c0.7,8.5,4.8,16.8,3.4,25.2c-2.3,13.7,2.4,25.9,6.3,38.4c2.5,7.8,3.3,15.9,1.5,24c-2.1,9.4-13,15.7-22.6,14.4
			c-8.9-1.3-17.4-4.7-24.8-10c-7.6-5.2-8.4-13.3-7.1-20.4c1.7-9.5,5.1-18.5,8.8-27.4c1.7-4.2,1.2-8.5,1.6-12.6c1.6-17,2.7-34-4-50.3
			c-4.4-10.3-7.9-21-10.5-32c-0.6-2.7-0.9-5.4-1.3-8.1c-0.3-1.8,0.5-3.7,2.2-4.6c1.5-1.1,3.5-1.1,4.9,0.1c3.7,3.1,9,5.2,7.9,11.6
			c-2.5-0.1-3.1-2.5-4.7-3.8c-1.8-1.4-3.1-3.5-6-4.7c1.7,5.9,3.3,11.1,9,13.5c0.8,0.3,1.4,1,1.7,1.8c5.7,1.8,10.7,5.3,14.4,10
			c3.2,4,8.4,1.8,12.8,1.1c1.4-0.2,2.7-1.3,4-2C220.8,859,220.8,859,217.6,854z"/>
		<path class="st9" d="M186.1,853.3c-7.6-1.9-9.6-8.3-11.8-14.6c-0.3-0.8-0.3-1.2,0.5-1.6c1-0.5,2.3-0.2,3,0.7
			c2.9,2.8,5.6,5.8,8.3,8.7C186.1,848.7,186.1,851,186.1,853.3z"/>
		<path class="st9" d="M217.6,854c0.4,0.3,0.9,0.7,1.3,1c1.3,1.1,4,1.6,3.3,3.5c-0.6,1.8-2.2,3.8-4.8,3.8
			C217.4,859.6,217.5,856.8,217.6,854z"/>
		<path class="st10" d="M174.5,847.3c2.9,6.5,9.2,7.9,14.9,10c4.3,1.6,6.5,4.3,8,8.3c3,7.7,2.8,15.8,3.9,23.7
			c0.3,2.2,1.3,4.2,1.4,6.3c0.3-9.7-0.7-19.3-2.9-28.7c6.2,1.4,12,1.3,17.7-1.3c0.7-0.3,1.5-1.1,2.2-0.2c0.6,0.7,0,1.5-0.2,2.3
			c-1.3,4.1-2.5,8.2-3.7,12.3c-1.5,5.4-0.3,10.8,0.2,16.1c0.4,4.6,1.2,9.1,2.4,13.6c1.6,5.4,2.1,11.1,1.5,16.7
			c-1.4,12,2.6,22.7,6.2,33.7c2.4,7.2,3.7,14.5,2.4,22.2c-1.8,10.5-11,16.8-21.5,14.7c-7.8-1.5-15.1-4.7-21.6-9.2
			c-5.8-4.1-7.2-10-6-16.7c0.8-4.5,1.4-9.1,3.3-13.4c4.3-10,6.3-20.5,7.6-31.3c1.8-15.9,1.9-31.3-4-46.5c-3.4-8.5-6.6-17-9.7-25.6
			C175.6,852,175.2,849.6,174.5,847.3z"/>
	</g>
	<g id="Eyes">
		<path class="st12" d="M227.4,107.2l-0.3-0.3c-0.1-0.1-0.1-0.1-0.2-0.2l0.2,0.1c0.1,0,0.1,0.1,0.2,0.1l0,0l0,0
			c-0.3-0.5-0.7-0.9-1.2-1.3l-0.3-0.3l-0.4-0.4c-0.3-0.3-0.5-0.6-0.8-0.9s-0.4-0.5-0.6-0.7c-0.5-0.5-1-1-1.6-1.5
			c-0.9-0.7-1.8-1.3-2.7-1.9c-0.9-0.5-1.8-1-2.8-1.5s-1.9-0.8-3-1.1c-0.2-0.1-0.4-0.1-0.6-0.2c-0.3-0.1-0.7-0.2-1-0.3h-0.1
			c0,0,0.1,0,0.1,0c0.3,0.2,0.7,0.3,1,0.4c0.2,0,0.4,0.1,0.6,0.2c1.1,0.4,2.1,0.7,3,1.1c1,0.4,2,0.9,2.9,1.4c1,0.6,1.9,1.2,2.7,1.9
			c0.6,0.5,1.1,1,1.6,1.5c0.2,0.2,0.4,0.4,0.6,0.7s0.5,0.6,0.8,0.9c0.1,0.1,0.2,0.2,0.4,0.4l0.3,0.3c0.4,0.4,0.8,0.8,1.1,1.2
			l-0.2-0.1c-0.1,0-0.2-0.1-0.3-0.1l0,0l0,0c0.1,0.1,0.1,0.2,0.2,0.2C227.2,107,227.3,107.1,227.4,107.2c-0.7-0.1-1.4-0.2-2-0.2l0,0
			c-0.3,0-0.5,0-0.8,0c-0.6,0-1.3,0-1.9,0.1l-0.6,0.1c-0.9,0.1-1.8,0.2-2.6,0.4l-2,0.4l0,0c-0.4,0.1-0.8,0.2-1.2,0.2
			c-0.2,0.1-0.4,0.1-0.6,0.3c-0.1,0-0.1,0.1-0.2,0.1l0,0c-0.7,0.4-1.5,0.8-2.3,1c-0.5,0.1-1,0.2-1.6,0.2h-0.3c-0.5,0-1,0-1.4,0
			c-0.9,0-1.8,0-2.7,0.1c-1,0-2,0.3-3,0.7c-0.3,0.2-0.5,0.4-0.7,0.6c0.3-0.6,0.8-1,1.4-1.3c0.5-0.3,1.1-0.5,1.7-0.6l0,0
			c-0.3,0-0.5-0.1-0.8-0.1c-0.6,0-1.1,0.1-1.7,0.2c-0.6,0.2-1.2,0.4-1.8,0.7c-0.2,0.1-0.4,0.3-0.6,0.4l-0.5,0.3
			c0.3-0.4,0.7-0.8,1.1-1.1c0.4-0.3,0.9-0.6,1.4-0.8c0.2-0.1,0.4-0.2,0.6-0.2l0.3-0.1l0,0h-0.7c-0.4,0-0.8,0-1.2,0
			c-1.1,0.1-2.1,0.3-3.1,0.9c-0.2,0.1-0.5,0.3-0.7,0.4l0,0c-0.1,0.1-0.2,0.1-0.2,0.2c0.5-0.8,1.2-1.4,2.1-1.8c0.5-0.2,1-0.4,1.5-0.5
			c0,0,0.1,0,0.1,0c0.1,0,0.3,0,0.4-0.1l0,0c-1.1-0.1-2.2,0-3.2,0.3c-1,0.3-1.9,0.8-2.7,1.4l-0.2,0.1c0.2-0.3,0.5-0.6,0.8-0.8
			c0.3-0.2,0.7-0.4,1-0.6c0.5-0.2,1-0.4,1.5-0.5c0.1,0,0.1,0,0.1-0.1l0,0l0,0c-1,0-2,0.1-2.9,0.3c-1,0.2-2,0.6-2.9,1.1
			c0.7-0.7,1.5-1.3,2.4-1.6c0.2-0.1,0.4-0.1,0.6-0.2l0.4-0.1l0,0c-0.5,0-0.9-0.1-1.4-0.1c-0.9-0.1-1.8-0.1-2.6,0
			c-0.3,0-0.6,0.1-0.9,0.2l0,0c-0.1,0-0.1,0-0.2,0c0.2-0.1,0.4-0.3,0.6-0.4l0.3-0.2c0.4-0.3,0.9-0.5,1.4-0.6c0.5-0.1,1-0.1,1.4,0
			l0,0c-0.4-0.1-0.7-0.3-1.1-0.4c-1.1-0.5-2.2-0.8-3.4-1h0.1h0.2l0,0c-0.9-0.1-1.7-0.5-2.4-1c0,0,0.1,0,0.1,0l0,0
			c0.4,0.2,0.9,0.3,1.3,0.3l0,0c-0.6-0.1-1.1-0.4-1.6-0.7c-0.8-0.5-1.5-1.1-2.1-1.8c1.2,0.7,2.6,1,4,1l0,0l-0.7-0.3l0,0l-0.2-0.1
			c-0.1,0-0.1-0.1-0.2-0.1l0,0l-0.4-0.3c0.6,0.3,1.1,0.5,1.8,0.7h0.2c0.2,0.1,0.4,0.1,0.7,0.1l0,0l0,0c-0.2-0.2-0.5-0.5-0.8-0.6l0,0
			c0.3,0.1,0.5,0.2,0.7,0.3l0.4,0.2c0.2,0.1,0.4,0,0.5-0.1l0.2-0.1c0.1,0,0.1,0,0.2,0c0.1,0,0.2-0.1,0.4-0.1l0,0l0,0
			c-0.5-0.2-1-0.5-1.5-0.9c0.3,0.1,0.6,0.3,0.9,0.4l0.4,0.2l0,0c0.2,0.1,0.5,0.2,0.7,0.1l1.1-0.3l0,0c-1.4-0.1-2.7-0.6-3.8-1.4
			c-0.4-0.3-0.8-0.7-1-1.1c1,0.8,2.2,1.4,3.4,1.5l0,0l0,0c0,0-0.1-0.1-0.2-0.1c-0.1-0.1-0.2-0.2-0.3-0.3c0.2,0,0.3,0.1,0.5,0.2
			c0.1,0.1,0.3,0.2,0.4,0.2c0.2,0,0.4,0,0.6,0c0.1,0,0.2,0,0.3,0l0,0c-0.5-0.2-0.9-0.4-1.2-0.8l0.4,0.2c0.4,0.2,0.8,0.4,1.3,0.5
			c0.3,0.1,0.7,0.1,1,0v-0.1c-0.7-0.1-1.4-0.4-1.9-0.9c0.6,0.4,1.2,0.6,1.9,0.7l0,0l-0.2-0.1c-0.2-0.1-0.3-0.1-0.4-0.2
			c-0.4-0.2-0.7-0.6-1-0.9c0.3,0.2,0.6,0.4,0.9,0.5h0.1c0.5,0.2,1.1,0.3,1.6,0.3l0,0c-0.8-0.1-1.6-0.5-2.3-1
			c-0.3-0.3-0.6-0.7-0.7-1.1c0.5,0.6,1.2,1,2,1.2c0.7,0.2,1.3,0.3,2,0.3l0,0c-0.3-0.2-0.7-0.4-1-0.6l-0.4-0.3l0,0
			c-0.4-0.2-0.7-0.5-0.9-0.8c0,0,0.1,0.1,0.1,0.1c0.2,0.2,0.3,0.3,0.5,0.4l0,0l-0.3-0.3c-0.2-0.2-0.3-0.4-0.4-0.6
			c0.4,0.4,0.8,0.6,1.3,0.8l0,0c-0.2-0.1-0.3-0.2-0.4-0.4c0.6,0.5,1.3,0.8,2,1c0.1,0,0.1,0,0.2,0l0,0c0.3,0.1,0.6,0.1,0.9,0l0,0l0,0
			c-0.8-0.2-1.5-0.5-2.2-1c0.4,0.2,0.8,0.4,1.2,0.5l0,0c-0.7-0.5-1.3-1.2-1.6-2.1c0.9,1,2.2,1.6,3.5,1.5h0.1c0.1,0,0.3-0.1,0.4-0.1
			l0,0l0,0c-0.3-0.2-0.7-0.4-1-0.6c-0.3-0.2-0.6-0.5-0.9-0.8c-0.4-0.4-0.7-0.9-0.9-1.5c0.3,0.2,0.5,0.5,0.7,0.8c0.3,0.4,0.6,0.7,1,1
			c0.5,0.3,1,0.6,1.5,0.8l0,0c0.1-0.1,0.2-0.1,0.3-0.1l0,0l0,0c-0.5-0.3-1-0.6-1.4-1c-0.4-0.4-0.7-0.9-0.9-1.4
			c0.1,0.2,0.3,0.3,0.4,0.5c0.5,0.6,1.1,1.2,1.8,1.7c0,0,0,0,0.1,0c0.2,0.2,0.4,0.2,0.7,0.2h0.1l0,0c0.2-0.1,0.4-0.1,0.6-0.2l0,0
			l0,0c-0.1-0.1-0.2-0.2-0.3-0.2l0,0c-0.5-0.4-1-0.9-1.4-1.4c-0.1-0.2-0.2-0.4-0.3-0.6c0.1,0.1,0.2,0.3,0.3,0.4
			c0.4,0.5,0.9,1,1.4,1.4c0.2,0.2,0.5,0.3,0.8,0.3l0,0l0,0c-0.1-0.1-0.2-0.1-0.2-0.2c-0.7-0.5-1.2-1.1-1.6-1.9
			c0.1,0.1,0.2,0.2,0.2,0.3c0.4,0.5,0.8,0.9,1.3,1.2c0.3,0.2,0.5,0.3,0.8,0.3l0,0c-0.3-0.2-0.6-0.5-0.9-0.8
			c-0.3-0.3-0.5-0.6-0.6-0.9c0.4,0.6,1,1.1,1.6,1.4l0,0c-0.5-0.5-0.8-1.1-1-1.8c0.3,0.4,0.6,0.8,1,1.2c0.3,0.3,0.7,0.6,1.2,0.8
			c0.1,0,0.2,0,0.3,0h-0.1c-0.1,0-0.1,0-0.2,0c-0.4-0.2-0.8-0.4-1.1-0.8c-0.4-0.4-0.8-0.8-1.1-1.2l0,0l0,0l0,0
			c0.2,0.7,0.5,1.3,1,1.8c-0.6-0.4-1.1-0.9-1.5-1.5l0,0l0,0l0,0c0.2,0.4,0.4,0.7,0.7,1c0.3,0.3,0.6,0.5,0.9,0.8
			c-0.3-0.1-0.5-0.2-0.8-0.3c-0.5-0.4-0.9-0.8-1.3-1.3l-0.3-0.3l0,0l0,0l0,0c0.4,0.8,0.9,1.4,1.6,1.9c0.1,0.1,0.1,0.1,0.2,0.2
			c-0.3,0-0.5-0.2-0.7-0.3c-0.5-0.4-1-0.9-1.4-1.4l-0.4-0.4l0,0l0,0l0,0c0.1,0.2,0.2,0.4,0.4,0.7c0.4,0.6,0.9,1,1.4,1.4l0,0l0.3,0.2
			c-0.2,0-0.4,0.1-0.6,0.2l0,0h-0.1c-0.2,0.1-0.5,0-0.7-0.2h-0.1c-0.7-0.4-1.3-1-1.8-1.6l-0.5-0.5l0,0l0,0c0.2,0.5,0.6,1,1,1.5
			c0.4,0.4,0.9,0.8,1.4,1.1l-0.3,0.1c-0.5-0.2-1-0.5-1.5-0.8c-0.4-0.3-0.7-0.6-1-1c-0.2-0.3-0.5-0.6-0.8-0.8l0,0v0.1
			c0.2,0.6,0.5,1.1,0.9,1.5c0.3,0.3,0.6,0.6,0.9,0.8c0.3,0.2,0.7,0.4,1,0.6c-0.1,0.1-0.2,0.1-0.3,0.1c-1.4,0.1-2.8-0.5-3.7-1.6l0,0
			l0,0l0,0c0.3,0.7,0.9,1.2,1.5,1.6c-0.5-0.1-0.9-0.3-1.3-0.6l0,0l0,0l0,0c0.7,0.5,1.5,0.9,2.3,1.2c-0.3,0.1-0.6,0.1-0.9,0l0,0h-0.2
			c-0.8-0.2-1.5-0.5-2.1-1l0,0l0,0l0,0c0.1,0.2,0.2,0.3,0.4,0.4c-0.4-0.2-0.9-0.5-1.2-0.8l0,0l0,0l0,0c0.1,0.2,0.3,0.4,0.5,0.7
			c0.1,0.1,0.2,0.2,0.2,0.2c-0.2-0.1-0.3-0.2-0.5-0.4c-0.1-0.1-0.1-0.1-0.2-0.2l0,0l0,0l0,0c0.3,0.4,0.6,0.7,1,0.9l0,0
			c0.2,0.1,0.3,0.2,0.4,0.3c0.3,0.2,0.6,0.4,0.9,0.6c-0.7,0-1.3-0.1-2-0.3c-0.8-0.2-1.5-0.6-2-1.2l0,0l0,0c0.1,0.5,0.4,0.9,0.7,1.2
			c0.6,0.5,1.4,0.9,2.2,1c-0.5,0-1.1-0.1-1.6-0.3h-0.1c-0.4-0.1-0.7-0.3-1-0.5l0,0l0,0l0,0c0.3,0.4,0.6,0.7,1,1
			c0.1,0.1,0.3,0.2,0.5,0.2h0.1c-0.7-0.1-1.3-0.3-1.9-0.7l0,0l0,0l0,0c0.5,0.5,1.2,0.8,1.9,0.9c-0.3,0.1-0.6,0.1-0.9,0
			c-0.5-0.1-0.9-0.3-1.3-0.5c-0.2-0.1-0.3-0.2-0.5-0.2l0,0l0,0l0,0c0.4,0.4,0.8,0.6,1.2,0.8c-0.1,0-0.2,0-0.2,0c-0.2,0-0.4,0-0.6,0
			c-0.2-0.1-0.3-0.1-0.4-0.2c-0.2-0.1-0.3-0.2-0.5-0.2l0,0l0,0c0.1,0.1,0.2,0.2,0.3,0.3c0,0,0.1,0.1,0.1,0.1
			c-1.3-0.2-2.4-0.7-3.4-1.5l0,0l0,0l0,0c0.3,0.5,0.6,0.9,1.1,1.2c1.1,0.8,2.4,1.3,3.8,1.4c-0.3,0.1-0.6,0.2-1,0.3
			c-0.2,0-0.5,0-0.7-0.1l0,0c-0.1-0.1-0.3-0.2-0.4-0.2c-0.3-0.2-0.6-0.3-1-0.5l0,0l0,0l0,0c0.4,0.4,0.9,0.8,1.5,1
			c-0.1,0.1-0.2,0.1-0.3,0.1c-0.1,0-0.1,0-0.2,0l-0.2,0.1c-0.2,0.1-0.3,0.1-0.5,0l-0.4-0.2c-0.2-0.1-0.5-0.3-0.8-0.3l0,0l0,0
			l0.1,0.1c0.3,0.2,0.5,0.4,0.8,0.6c-0.2,0-0.4,0-0.6-0.1c-0.1,0-0.1,0-0.2,0c-0.6-0.2-1.3-0.4-1.8-0.7l0,0l0,0l0,0
			c0.2,0.1,0.3,0.2,0.5,0.3l0,0c0.1,0,0.1,0.1,0.2,0.1c0.1,0,0.2,0.1,0.2,0.1l0,0c0.2,0.1,0.4,0.2,0.6,0.3c-1.4,0-2.8-0.4-4-1.1l0,0
			l0,0l0,0c0.6,0.7,1.3,1.3,2.1,1.8c0.5,0.3,0.9,0.5,1.5,0.6c-0.4-0.1-0.8-0.2-1.2-0.3l0,0l-0.2-0.1l0,0l0,0l0,0
			c0.7,0.5,1.5,0.9,2.4,1c0,0-0.1,0-0.1,0l0,0c0,0-0.1,0-0.1,0l0,0l0,0l0,0c1.2,0.2,2.3,0.5,3.4,1c0.3,0.1,0.6,0.2,0.9,0.4
			c-0.4,0-0.9,0-1.3,0.1c-0.5,0.1-0.9,0.3-1.4,0.6l-0.3,0.2c-0.2,0.2-0.5,0.3-0.7,0.4l0,0l0,0l0,0l0.3-0.1l0,0
			c0.3-0.1,0.6-0.1,0.9-0.2c0.9-0.1,1.8-0.1,2.6,0c0.4,0,0.9,0.1,1.3,0.1c-0.1,0-0.2,0-0.4,0.1c-0.2,0-0.4,0.1-0.6,0.2
			c-1,0.3-1.8,0.9-2.5,1.7l0,0l0,0l0,0c0.9-0.5,1.9-0.9,3-1.1c0.9-0.2,1.9-0.3,2.8-0.3c0,0-0.1,0-0.1,0c-0.5,0.1-1,0.3-1.5,0.5
			c-0.4,0.2-0.7,0.4-1,0.6c-0.3,0.2-0.6,0.5-0.8,0.9l0,0l0,0c0.1,0,0.2-0.1,0.2-0.1c0.8-0.6,1.7-1,2.7-1.3c1-0.3,2.1-0.5,3.1-0.3
			l-0.3,0.1h-0.1c-1.5,0.2-2.8,1.1-3.6,2.3l0,0l0,0l0,0c0.1-0.1,0.2-0.1,0.3-0.2l0,0c0.2-0.2,0.5-0.3,0.7-0.5c0.9-0.5,2-0.8,3.1-0.9
			c0.4,0,0.8,0,1.2,0h0.6l-0.2,0.1c-0.2,0.1-0.4,0.1-0.6,0.2c-0.5,0.2-0.9,0.5-1.4,0.8c-0.4,0.3-0.8,0.7-1.1,1.1l0,0l0,0l0,0
			c0.2-0.1,0.4-0.2,0.5-0.4c0.2-0.1,0.4-0.3,0.6-0.4c0.6-0.3,1.2-0.6,1.8-0.7c0.8-0.2,1.6-0.3,2.4-0.2c-0.6,0.1-1.2,0.3-1.7,0.6
			c-0.6,0.3-1.1,0.8-1.4,1.4l0,0l0,0l0,0c0.2-0.3,0.5-0.5,0.8-0.7c0.9-0.4,2-0.6,3-0.7c0.9-0.1,1.8-0.1,2.7-0.1h1.4h0.3
			c0.5,0,1,0,1.6-0.2c0.8-0.2,1.6-0.6,2.4-1l0,0l0.2-0.1c0.2-0.1,0.4-0.2,0.6-0.3c0.4-0.1,0.8-0.2,1.2-0.2l0,0
			c0.7-0.1,1.3-0.2,2-0.4c0.9-0.2,1.7-0.3,2.6-0.4l0.6-0.1c0.6-0.1,1.3-0.1,1.9-0.1h0.8l0,0c0.7,0,1.3,0.1,2,0.2l0,0L227.4,107.2z"
			/>
		<path class="st12" d="M211.9,96.6l-0.2-0.1h-0.1l0,0c0,0-0.1,0-0.1,0l0,0l0.1,0.1L211.9,96.6z"/>
		<path class="st13" d="M227.1,106.9c-0.1-0.1-0.2-0.1-0.2-0.2l0,0l0.3,0.1c0.1,0,0.1,0.1,0.2,0.1c-0.3-0.5-0.7-0.9-1.1-1.3
			l-0.3-0.3c-0.1-0.1-0.3-0.2-0.4-0.4c-0.3-0.3-0.5-0.6-0.8-0.9s-0.4-0.5-0.6-0.7c-0.5-0.5-1-1-1.6-1.5c-0.9-0.7-1.8-1.4-2.7-1.9
			c-1.8-1.1-3.8-1.9-5.8-2.6c-0.2-0.1-0.4-0.1-0.6-0.2c-0.3-0.1-0.7-0.2-1-0.4l0,0c-0.1,0-0.2-0.1-0.3-0.1c-0.1,0-0.1-0.1-0.1-0.1
			l-0.2-0.1h-0.1c-0.4-0.1-0.8-0.1-1.2-0.2c-0.4,0-0.9,0-1.3,0h-0.3l0,0c0,0,0,0-0.1,0c-0.4,0-0.7,0.1-1.1,0.1c-0.1,0-0.1,0-0.2,0
			c-0.1,0-0.2,0-0.3-0.1c-0.4-0.2-0.8-0.4-1.2-0.8c-0.4-0.4-0.8-0.8-1.1-1.2c0.2,0.7,0.5,1.3,1,1.7l0,0c-0.6-0.4-1.2-0.9-1.7-1.6
			c0.4,0.7,1,1.3,1.7,1.8l0,0c-0.3-0.1-0.6-0.2-0.9-0.3c-0.5-0.4-0.9-0.8-1.3-1.3l-0.3-0.3c0.4,0.8,0.9,1.4,1.6,1.9
			c0.1,0.1,0.2,0.1,0.2,0.2l0,0c-0.3,0-0.5-0.2-0.8-0.3c-0.5-0.4-1-0.9-1.4-1.4c-0.1-0.2-0.2-0.3-0.4-0.4c0.1,0.2,0.2,0.4,0.3,0.6
			c0.4,0.6,0.9,1,1.4,1.4c0.1,0.1,0.2,0.2,0.3,0.2l0,0c-0.2,0-0.4,0.1-0.6,0.2h-0.1c-0.2,0.1-0.5,0-0.7-0.2h-0.1
			c-0.7-0.5-1.3-1-1.8-1.7c-0.1-0.2-0.3-0.4-0.4-0.5c0.5,1.1,1.3,1.9,2.3,2.5l0,0c-0.1,0-0.2,0.1-0.3,0.1l0,0
			c-0.5-0.2-1.1-0.5-1.5-0.8c-0.4-0.3-0.7-0.6-1-1c-0.2-0.3-0.5-0.6-0.8-0.8c0.2,0.6,0.5,1.1,0.9,1.5c0.5,0.6,1.2,1,1.9,1.3l0,0
			c-0.1,0.1-0.2,0.1-0.4,0.1h-0.1c-0.7,0-1.3-0.1-1.9-0.4c-0.3-0.1-0.6-0.3-0.9-0.5c-0.3-0.2-0.5-0.4-0.8-0.7
			c0.4,0.7,0.9,1.3,1.6,1.7l0,0c-0.5-0.1-1-0.3-1.4-0.6c0.7,0.5,1.5,0.9,2.4,1.2l0,0c-0.3,0.1-0.7,0.1-1,0H200
			c-0.8-0.2-1.5-0.5-2.1-1c0.1,0.2,0.3,0.3,0.5,0.4l0,0c-0.5-0.2-1-0.5-1.4-0.9c0.1,0.2,0.3,0.4,0.4,0.6l0.3,0.3l0,0
			c-0.2-0.1-0.4-0.2-0.5-0.4c-0.1,0-0.1-0.1-0.2-0.2c0.3,0.4,0.6,0.7,1,0.9l0,0c0.1,0.1,0.3,0.2,0.4,0.3c0.3,0.3,0.6,0.5,1,0.6l0,0
			c-0.7,0-1.4-0.1-2.1-0.3c-0.4-0.1-0.8-0.3-1.1-0.5c-0.3-0.2-0.6-0.5-0.9-0.8c0.1,0.5,0.4,0.9,0.7,1.2c0.7,0.5,1.4,0.9,2.3,1l0,0
			c-0.6,0.1-1.1,0-1.6-0.3c0,0-0.1,0-0.1,0c-0.4-0.1-0.7-0.3-1-0.5c0.3,0.4,0.6,0.7,1,1c0.1,0.1,0.3,0.2,0.4,0.2
			c0.1,0,0.1,0,0.2,0.1l0,0c-0.7-0.1-1.4-0.3-2-0.7c0.6,0.5,1.3,0.8,2,0.9l0,0c-0.3,0.1-0.7,0.1-1,0c-0.5-0.1-0.9-0.2-1.3-0.5
			c-0.2-0.1-0.3-0.2-0.5-0.2c0.4,0.4,0.8,0.6,1.3,0.8l0,0c-0.1,0-0.2,0-0.3,0c-0.2,0-0.4,0-0.6,0c-0.2,0-0.3-0.1-0.4-0.2
			c-0.2-0.1-0.3-0.2-0.5-0.2l0.3,0.3c0,0,0.1,0.1,0.1,0.1l0,0c-0.6-0.1-1.3-0.2-1.9-0.5c-0.6-0.2-1.1-0.6-1.6-1
			c0.2,0.5,0.6,0.8,1,1.2c1.1,0.8,2.5,1.3,3.8,1.4l0,0l-1.1,0.3c-0.2,0-0.5,0-0.7-0.1l0,0c-0.1-0.1-0.3-0.2-0.4-0.2
			c-0.3-0.2-0.7-0.3-1-0.4c0.4,0.4,0.9,0.8,1.5,1l0,0c-0.1,0.1-0.2,0.1-0.4,0.1h-0.2l-0.2,0.1c-0.2,0.1-0.3,0.1-0.5,0
			c-0.1-0.1-0.3-0.1-0.4-0.2c-0.2-0.1-0.5-0.2-0.8-0.3h0.1c0.3,0.2,0.6,0.4,0.8,0.6l0,0c-0.2,0-0.5,0-0.7-0.1c-0.1,0-0.1,0-0.2,0
			c-0.6-0.2-1.2-0.4-1.8-0.7c0.1,0.1,0.3,0.2,0.5,0.3c0.1,0,0.1,0.1,0.2,0.1c0.1,0,0.1,0.1,0.2,0.1l0.7,0.3l0,0
			c-0.7,0-1.4-0.1-2.1-0.3c-0.7-0.2-1.4-0.4-2-0.8c0.6,0.7,1.3,1.3,2.1,1.8c0.5,0.3,1.1,0.5,1.7,0.6l0,0c-0.5,0-0.9-0.1-1.4-0.3
			c-0.1,0-0.1,0-0.2-0.1c0.7,0.5,1.6,0.9,2.5,1l0,0h-0.2h-0.1c1.2,0.2,2.3,0.5,3.4,1c0.4,0.1,0.7,0.3,1.1,0.4l0,0
			c-1-0.2-2,0.1-2.8,0.7c-0.1,0.1-0.2,0.2-0.3,0.2c-0.2,0.2-0.5,0.3-0.7,0.4l0.2-0.1c0.3-0.1,0.6-0.1,0.9-0.2c0.9-0.1,1.8-0.1,2.6,0
			c0.4,0,1,0.1,1.4,0.1l0,0c-0.1,0-0.3,0.1-0.4,0.1c-0.2,0-0.4,0.1-0.6,0.2c-0.9,0.3-1.8,0.9-2.4,1.6c0.5-0.3,0.9-0.5,1.4-0.7
			c0.5-0.2,1-0.3,1.5-0.5c1-0.2,1.9-0.3,2.9-0.3l0,0c0,0-0.1,0.1-0.2,0.1c-0.5,0.1-1,0.3-1.5,0.5c-0.7,0.3-1.4,0.8-1.8,1.4l0.2-0.1
			c0.8-0.6,1.7-1,2.7-1.4c1-0.4,2.1-0.5,3.2-0.3l0,0c-0.1,0-0.3,0.1-0.4,0.1c0,0-0.1,0-0.1,0c-0.5,0.1-1,0.2-1.5,0.5
			c-0.9,0.4-1.6,1-2.1,1.8l0.3-0.2c0.2-0.2,0.5-0.3,0.7-0.4c0.5-0.3,1-0.5,1.5-0.6c0.5-0.1,1-0.2,1.6-0.3c0.4,0,0.8,0,1.2,0h0.7
			l-0.3,0.1c-0.2,0.1-0.4,0.1-0.7,0.2c-1,0.5-1.8,1.1-2.5,2c0.2-0.1,0.3-0.2,0.5-0.4c0.2-0.2,0.4-0.3,0.6-0.4
			c0.6-0.3,1.1-0.6,1.8-0.7c0.5-0.2,1.1-0.2,1.7-0.2c0.3,0,0.5,0,0.8,0.1l0,0c-0.6,0.1-1.2,0.3-1.8,0.7c-0.6,0.3-1.1,0.8-1.4,1.4
			c0.2-0.3,0.5-0.5,0.8-0.7c0.5-0.2,1-0.4,1.5-0.5c0.5-0.1,1-0.2,1.6-0.2c0.9-0.1,1.8-0.1,2.7-0.1c0.5,0,0.9,0,1.4,0h0.3
			c0.5,0,1,0,1.6-0.2c0.8-0.2,1.6-0.6,2.4-1l0,0c0.1,0,0.1-0.1,0.2-0.1c0.2-0.1,0.4-0.2,0.6-0.3l1.2-0.2c0.7-0.1,1.4-0.2,2-0.4
			c0.9-0.2,1.9-0.4,2.8-0.4l0.6-0.1c0.6-0.1,1.3-0.1,1.9-0.1h0.8c0.7,0,1.3,0.1,2,0.2C227.3,107.1,227.2,107,227.1,106.9z"/>
		<path class="st14" d="M193.2,104.4c1.4,0.3,2.8,0.7,4.1,1c0.5,0.1,1,0.3,1.5,0.4c2.4,0.6,4.6,1.2,6.6,1.8c-0.5-0.4-1-0.9-1.4-1.5
			c-0.5-0.8-1-1.7-1.3-2.6c-0.4-1.1-0.7-2.2-0.8-3.3c-0.2,0.1-0.5,0.3-0.7,0.5c-0.2,0.2-0.5,0.3-0.7,0.4l0,0
			c-0.4,0.2-0.8,0.4-1.1,0.7c-0.6,0.3-1.2,0.7-1.8,1l-0.2,0.1c-0.2,0.1-0.3,0.2-0.5,0.3c-0.2,0.2-0.5,0.4-0.8,0.5
			C195.3,104.1,194.2,104.4,193.2,104.4z"/>
		<path class="st15" d="M211.1,108.8c-0.3,0-0.6,0-1,0c-0.7-0.1-1.5-0.2-2.2-0.3c-0.3-0.1-0.6-0.2-0.9-0.4c-1.5-1-2.6-2.4-3.2-4
			c0-0.2-0.1-0.3-0.1-0.5c-0.1-0.4-0.2-0.7-0.3-1.1c-0.1-0.5-0.1-1-0.1-1.4c0-0.5,0.1-0.9,0.3-1.4c0-0.2,0.1-0.3,0.3-0.4
			c0.4-0.3,0.9-0.4,1.4-0.6c0.7-0.1,1.4-0.2,2.1-0.3h0.2c0.2,0,0.4,0,0.6,0l0,0c-0.6,0.3-1,0.8-1.3,1.4c-0.3,0.8-0.2,1.7,0.1,2.5
			c0.4,0.9,1,1.6,1.8,2.2c0.6,0.4,1.3,0.5,2,0.4c0.6-0.1,1.2-0.5,1.4-1.1c0.3-0.8,0.4-1.7,0.2-2.5c-0.1-0.9-0.6-1.7-1.2-2.3
			c-0.3-0.3-0.6-0.4-1-0.5h0.1c1.1,0,2.1,0.1,3.2,0.4c0.6,0.1,1.3,0.3,1.9,0.5c0.2,0.1,0.4,0.3,0.4,0.5l0,0c0.4,0.8,0.7,1.6,0.8,2.4
			c0,0.5,0,0.9,0,1.4c0,0.5-0.1,0.9-0.1,1.4c-0.1,0.7-0.4,1.4-0.8,2.1c-0.2,0.3-0.5,0.6-0.8,0.8c-0.3,0.2-0.6,0.4-1,0.5
			c-0.1,0-0.3,0.1-0.4,0.2c-0.1,0.1-0.2,0.1-0.3,0.2l-0.1,0.1c-0.2,0.1-0.4,0.2-0.6,0.3h-0.1C211.9,108.8,211.5,108.8,211.1,108.8z"
			/>
		<path class="st15" d="M214.5,108.3L214.5,108.3c0.8-0.5,1.4-1.2,1.7-2c0.5-1.1,0.7-2.2,0.8-3.4c0.1-1.2-0.1-2.4-0.5-3.6l0,0
			c0.9,0.3,1.8,0.7,2.6,1.2c0.8,0.5,1.6,1,2.4,1.6l1.5,1.1c0.9,0.6,1.8,1.3,2.6,2l0,0c-1-0.5-2.1-0.8-3.3-0.7
			c-0.8,0.1-1.6,0.3-2.3,0.7c-0.6,0.3-1.1,0.7-1.7,1C217.1,107.1,215.9,107.8,214.5,108.3z"/>
		<path class="st14" d="M216.5,99.4c0.2,0.5,0.4,1.1,0.5,1.7c0.1,0.6,0.1,1.2,0,1.8c0,0.6-0.1,1.2-0.2,1.7c-0.1,0.6-0.3,1.1-0.5,1.7
			c-0.2,0.4-0.4,0.8-0.7,1.1c-0.3,0.3-0.6,0.6-1,0.8c1.4-0.5,2.6-1.2,3.8-2c0.6-0.3,1.1-0.7,1.7-1c0.7-0.4,1.5-0.7,2.3-0.7
			c0.6-0.1,1.1,0,1.7,0.1c0.5,0.1,1.1,0.3,1.6,0.5c-0.9-0.6-1.8-1.3-2.6-1.9c-0.5-0.4-1-0.8-1.5-1.1
			C219.9,100.9,218.2,100,216.5,99.4z"/>
		<path class="st15" d="M205.4,107.7c-2-0.6-4.2-1.2-6.6-1.8c-0.5-0.1-1-0.3-1.5-0.4c-1.4-0.4-2.7-0.7-4.1-1l0,0c1,0,2-0.3,2.9-0.7
			c0.3-0.1,0.5-0.3,0.8-0.5c0.2-0.1,0.3-0.2,0.5-0.3c0.1,0,0.1,0,0.2-0.1c0.6-0.3,1.2-0.7,1.8-1c0.4-0.2,0.8-0.5,1.1-0.7l0,0
			c0.2-0.1,0.5-0.3,0.7-0.4c0.2-0.2,0.5-0.3,0.7-0.5l0,0c0.1,1.1,0.4,2.3,0.8,3.3c0.3,0.9,0.8,1.8,1.3,2.6
			C204.4,106.8,204.9,107.3,205.4,107.7L205.4,107.7z"/>
		<path id="Iris" class="st16" d="M208,98.2c-0.1,0-0.3,0-0.4,0c-0.1,0-0.1,0-0.2,0c-0.7,0.1-1.4,0.2-2.1,0.3
			c-0.5,0.1-1,0.3-1.4,0.5c-0.1,0.1-0.2,0.2-0.3,0.4c-0.3,0.9-0.3,1.9-0.1,2.8c0.1,0.4,0.2,0.8,0.3,1.1c0.1,0.2,0.1,0.3,0.1,0.5
			c0.6,1.6,1.7,3,3.2,4c0.3,0.2,0.6,0.3,0.9,0.4c0.7,0.2,1.5,0.3,2.2,0.3c0.7,0,1.4,0,2.1,0h0.1c0.2,0,0.5-0.1,0.6-0.3l0.1-0.1
			c0.1,0,0.2-0.1,0.3-0.2c0.1-0.1,0.2-0.2,0.4-0.2c0.7-0.2,1.4-0.6,1.8-1.3c0.4-0.6,0.7-1.3,0.8-2.1c0.2-0.9,0.2-1.8,0.1-2.8
			c-0.1-0.9-0.4-1.7-0.8-2.5l0,0c-0.1-0.2-0.2-0.4-0.4-0.4c-0.6-0.2-1.3-0.4-1.9-0.5c-1.1-0.2-2.2-0.4-3.3-0.4
			c0.4,0.1,0.7,0.3,0.9,0.5c0.6,0.6,1.1,1.5,1.2,2.4c0.2,0.8,0.2,1.7-0.2,2.5c-0.1,0.3-0.3,0.5-0.6,0.7c-0.5,0.4-1.2,0.6-1.9,0.4
			c-0.4-0.1-0.7-0.2-1-0.4c-0.8-0.5-1.4-1.2-1.7-2.1c-0.1-0.4-0.2-0.8-0.2-1.2c0-0.4,0-0.8,0.2-1.2c0.1-0.3,0.3-0.6,0.5-0.8
			c0.2-0.2,0.5-0.4,0.8-0.6C208.1,98.2,208,98.2,208,98.2z"/>
		<path class="st12" d="M257.6,105.2L257.6,105.2c0.7-0.1,1.4-0.2,2-0.2l0,0h0.8c0.6,0,1.3,0,1.9,0.1l0.6,0.1
			c0.9,0.1,1.8,0.2,2.6,0.4c0.7,0.2,1.4,0.3,2,0.4l0,0c0.4,0.1,0.8,0.2,1.2,0.2c0.2,0.1,0.4,0.2,0.6,0.3l0.2,0.1l0,0
			c0.7,0.4,1.5,0.8,2.4,1c0.5,0.1,1,0.2,1.5,0.2h0.3c0.5,0,1,0,1.4,0c0.9,0,1.8,0,2.7,0.1c1,0,2.1,0.3,3,0.7
			c0.3,0.2,0.6,0.4,0.8,0.7l0,0l0,0l0,0c-0.3-0.6-0.8-1.1-1.4-1.4c-0.5-0.3-1.1-0.5-1.7-0.7c0.8-0.1,1.6-0.1,2.4,0.2
			c0.6,0.2,1.2,0.4,1.8,0.7c0.2,0.1,0.4,0.3,0.6,0.4c0.2,0.1,0.4,0.3,0.5,0.4l0,0l0,0l0,0c-0.3-0.4-0.7-0.8-1.1-1.1
			c-0.4-0.3-0.9-0.6-1.4-0.8c-0.2-0.1-0.4-0.2-0.6-0.2l-0.2-0.1h0.6c0.4,0,0.8,0,1.2,0c1.1,0,2.1,0.3,3,0.9c0.3,0.1,0.5,0.3,0.7,0.4
			l0,0l0.3,0.2l0,0l0,0l0,0c-0.5-0.8-1.2-1.4-2.1-1.8c-0.5-0.2-1-0.4-1.5-0.5H283c-0.1,0-0.2,0-0.3-0.1c1-0.1,2.1,0,3.1,0.3
			c1,0.3,1.9,0.8,2.7,1.4c0.1,0,0.1,0.1,0.2,0.1h0h0c-0.2-0.3-0.5-0.6-0.8-0.9c-0.3-0.2-0.6-0.4-1-0.6c-0.5-0.2-1-0.4-1.5-0.5
			c0,0-0.1,0-0.1,0c1,0,1.9,0.1,2.8,0.3c1.1,0.2,2.1,0.6,3,1.1l0,0l0,0l0,0c-0.7-0.8-1.5-1.3-2.5-1.7c-0.2-0.1-0.4-0.1-0.6-0.2
			c-0.1,0-0.2,0-0.3-0.1c0.4,0,0.9-0.1,1.3-0.1c0.9-0.1,1.8-0.1,2.6,0c0.3,0,0.6,0.1,0.9,0.2l0,0l0.3,0.1l0,0l0,0l0,0
			c-0.3-0.1-0.5-0.3-0.7-0.4c-0.1-0.1-0.2-0.2-0.3-0.2c-0.4-0.3-0.9-0.5-1.4-0.6c-0.4-0.1-0.9-0.1-1.3-0.1l1-0.4
			c1.1-0.5,2.3-0.8,3.4-1l0,0l0,0l0,0h-0.1l0,0h-0.1c0.9-0.1,1.7-0.5,2.4-1l0,0l0,0l0,0l-0.2,0.1l0,0c-0.4,0.1-0.8,0.2-1.2,0.3
			c0.5-0.1,1-0.3,1.5-0.6c0.8-0.5,1.5-1.1,2.1-1.8l0,0l0,0l0,0c-1.2,0.7-2.6,1-4,1c0.2-0.1,0.4-0.2,0.6-0.3l0,0l0.2-0.1
			c0.1,0,0.1-0.1,0.2-0.1l0,0c0.2-0.1,0.3-0.2,0.5-0.3l0,0l0,0l0,0c-0.6,0.3-1.2,0.5-1.8,0.7c-0.1,0-0.1,0-0.2,0
			c-0.2,0.1-0.4,0.1-0.6,0.1c0.2-0.2,0.5-0.4,0.8-0.6l0.1-0.1l0,0l0,0c-0.3,0.1-0.6,0.2-0.8,0.3c-0.1,0.1-0.3,0.2-0.4,0.2
			c-0.2,0.1-0.3,0.1-0.5,0l-0.2-0.1c-0.1,0-0.1,0-0.2,0c-0.1,0-0.2,0-0.3-0.1c0.6-0.2,1.1-0.6,1.5-1l0,0l0,0l0,0
			c-0.3,0.1-0.7,0.3-1,0.5c-0.1,0.1-0.3,0.2-0.5,0.2l0,0c-0.2,0.1-0.5,0.2-0.7,0.1l-1.1-0.3c1.4-0.1,2.7-0.6,3.8-1.4
			c0.4-0.3,0.8-0.7,1.1-1.2l0,0l0,0l0,0c-1,0.8-2.1,1.4-3.4,1.5c0,0,0.1,0,0.1-0.1c0.1-0.1,0.2-0.2,0.3-0.3h0h0
			c-0.2,0.1-0.4,0.1-0.5,0.2c-0.1,0.1-0.3,0.2-0.4,0.2c-0.2,0-0.4,0-0.6,0h-0.3c0.5-0.2,0.9-0.4,1.2-0.8l0,0l0,0l0,0
			c-0.2,0.1-0.3,0.2-0.5,0.2c-0.4,0.2-0.9,0.4-1.3,0.5c-0.3,0.1-0.6,0.1-0.9,0c0.7-0.1,1.4-0.4,1.9-0.9l0,0l0,0l0,0
			c-0.6,0.4-1.2,0.6-1.9,0.7c0,0,0,0,0.1,0c0.2,0,0.3-0.1,0.4-0.2c0.4-0.3,0.7-0.6,1-1l0,0l0,0l0,0c-0.3,0.2-0.6,0.4-1,0.5l-0.1,0.1
			c-0.5,0.2-1,0.3-1.5,0.3c0.8-0.2,1.6-0.5,2.2-1c0.4-0.3,0.6-0.7,0.7-1.2l0,0l0,0c-0.5,0.6-1.2,1-2,1.2c-0.7,0.2-1.3,0.2-2,0.3
			c0.3-0.2,0.6-0.4,0.9-0.6L287,96l0,0c0.4-0.2,0.7-0.5,1-0.9l0,0l0,0l0,0c-0.1,0.1-0.1,0.1-0.2,0.2c-0.1,0.1-0.3,0.3-0.5,0.4
			c0.1-0.1,0.1-0.2,0.2-0.3c0.2-0.2,0.3-0.4,0.5-0.7l0,0l0,0l0,0c-0.4,0.3-0.8,0.6-1.2,0.8c0.2-0.1,0.3-0.2,0.4-0.4l0,0l0,0l0,0
			c-0.6,0.5-1.3,0.8-2.1,1c-0.1,0-0.1,0-0.2,0.1l0,0c-0.3,0.1-0.6,0.1-0.9,0c0.8-0.3,1.6-0.7,2.3-1.2l0,0l0,0l0,0
			c-0.4,0.3-0.9,0.5-1.3,0.6c0.6-0.4,1.2-1,1.5-1.6l0,0l0,0l0,0c-0.9,1.1-2.3,1.6-3.7,1.6c-0.1,0-0.3-0.1-0.4-0.1
			c0.4-0.2,0.7-0.3,1-0.6c0.3-0.2,0.6-0.5,0.9-0.8c0.4-0.4,0.8-0.9,1-1.5v-0.1l0,0c-0.3,0.2-0.5,0.5-0.8,0.8c-0.3,0.4-0.6,0.7-1,1
			c-0.5,0.3-1,0.6-1.5,0.8c-0.1,0-0.2-0.1-0.3-0.1c0.5-0.3,1-0.7,1.4-1.1c0.4-0.4,0.8-0.9,1-1.5l0,0l0,0l0,0l-0.5,0.5
			c-0.5,0.6-1.1,1.2-1.7,1.7h-0.1c-0.2,0.1-0.4,0.2-0.7,0.2h-0.1l0,0c-0.2-0.1-0.4-0.1-0.6-0.2l0.2-0.2l0,0c0.5-0.4,1-0.9,1.4-1.4
			l0.3-0.7l0,0l0,0l0,0l-0.4,0.4c-0.4,0.5-0.9,1-1.4,1.4c-0.2,0.2-0.5,0.3-0.7,0.3c0.1-0.1,0.1-0.1,0.2-0.2c0.7-0.5,1.3-1.2,1.6-1.9
			l0,0l0,0l0,0c-0.1,0.1-0.2,0.2-0.3,0.3c-0.4,0.5-0.8,0.9-1.3,1.3c-0.2,0.1-0.5,0.3-0.8,0.3c0.3-0.2,0.6-0.5,0.9-0.8
			c0.3-0.3,0.5-0.6,0.7-1l0,0l0,0l0,0c-0.4,0.6-0.9,1.1-1.5,1.5c0.5-0.5,0.8-1.1,1-1.8l0,0l0,0l0,0c-0.4,0.5-0.9,0.8-1.4,1.1
			c-0.3,0.3-0.7,0.6-1.1,0.8c-0.1,0-0.1,0-0.2,0h-0.1c0.1,0,0.2,0,0.3,0c0.4-0.2,0.8-0.4,1.2-0.8c0.4-0.3,0.8-0.7,1-1.2
			c-0.2,0.7-0.5,1.3-1,1.8l0,0c0.6-0.4,1.1-0.9,1.6-1.5c-0.2,0.3-0.4,0.6-0.6,0.9c-0.3,0.3-0.6,0.6-0.9,0.8l0,0
			c0.3-0.1,0.6-0.2,0.8-0.3c0.5-0.4,0.9-0.8,1.3-1.3c0.1-0.1,0.1-0.2,0.2-0.3c-0.4,0.7-0.9,1.4-1.6,1.9c-0.1,0.1-0.2,0.2-0.2,0.2
			l0,0l0,0c0.3,0,0.6-0.2,0.8-0.3c0.5-0.4,1-0.9,1.4-1.4c0.1-0.1,0.2-0.3,0.3-0.4c-0.1,0.2-0.2,0.4-0.3,0.6c-0.4,0.5-0.9,1-1.4,1.4
			l0,0c-0.1,0.1-0.2,0.2-0.3,0.2l0,0l0,0c0.2,0,0.4,0.1,0.6,0.2l0,0c0,0,0.1,0,0.1,0c0.2,0,0.5,0,0.7-0.2h0.1
			c0.7-0.4,1.3-0.9,1.8-1.5c0.1-0.2,0.3-0.3,0.4-0.5c-0.2,0.5-0.6,1-1,1.4c-0.4,0.4-0.9,0.8-1.4,1.1l0,0l0,0l0.3,0.1l0,0
			c0.5-0.2,1.1-0.5,1.5-0.8c0.4-0.3,0.7-0.6,1-1c0.2-0.3,0.5-0.5,0.7-0.8c-0.2,0.5-0.5,1-0.9,1.4c-0.3,0.3-0.6,0.5-0.9,0.8
			c-0.3,0.2-0.6,0.4-1,0.6l0,0l0,0c0.1,0.1,0.3,0.1,0.4,0.1h0.1c1.3,0,2.6-0.5,3.5-1.5c-0.4,0.7-0.9,1.2-1.5,1.6l0,0
			c0.4-0.1,0.9-0.3,1.2-0.5c-0.7,0.5-1.4,0.8-2.2,1.1l0,0l0,0c0.3,0.1,0.6,0.1,1,0l0,0c0.1,0,0.1,0,0.2,0c0.8-0.2,1.5-0.5,2-1
			c-0.1,0.2-0.3,0.3-0.4,0.4l0,0c0.5-0.2,0.9-0.5,1.3-0.8c-0.1,0.2-0.3,0.4-0.4,0.6l-0.3,0.3l0,0c0.2-0.1,0.4-0.3,0.5-0.4
			c0,0,0.1-0.1,0.1-0.1c-0.2,0.4-0.5,0.7-0.9,1l0,0c-0.1,0.1-0.3,0.2-0.4,0.3c-0.3,0.2-0.6,0.4-1,0.6l0,0c0.7,0,1.3-0.1,2-0.3
			c0.8-0.2,1.5-0.6,2-1.2c-0.1,0.4-0.4,0.8-0.7,1.1c-0.7,0.5-1.4,0.9-2.3,1l0,0c0.6,0,1.1,0,1.6-0.3h0.1c0.3-0.1,0.7-0.3,1-0.5
			c-0.3,0.4-0.6,0.7-1,0.9c-0.1,0.1-0.3,0.2-0.4,0.2l-0.2,0.1l0,0c0.7-0.1,1.3-0.3,1.9-0.6c-0.5,0.4-1.2,0.7-1.9,0.9l0,0
			c0.3,0.1,0.7,0.1,1,0c0.5-0.1,0.9-0.3,1.3-0.5l0.5-0.2c-0.4,0.3-0.8,0.6-1.2,0.8l0,0h0.3c0.2,0,0.4,0,0.6,0c0.2,0,0.3-0.1,0.4-0.2
			c0.2-0.1,0.3-0.2,0.5-0.2c-0.1,0.1-0.2,0.2-0.3,0.3c0,0-0.1,0.1-0.1,0.1l0,0l0,0c1.3-0.1,2.4-0.6,3.4-1.5c-0.3,0.4-0.6,0.8-1,1.1
			c-1.1,0.8-2.4,1.3-3.8,1.4l0,0c0.4,0.1,0.7,0.2,1.1,0.3c0.2,0,0.5,0,0.7-0.1l0,0l0.5-0.2l0.9-0.4c-0.4,0.4-0.9,0.8-1.5,1l0,0l0,0
			c0.1,0.1,0.2,0.1,0.3,0.1h0.2l0.2,0.1c0.2,0.1,0.4,0.1,0.5,0c0.1-0.1,0.3-0.1,0.4-0.2c0.2-0.1,0.5-0.2,0.7-0.3l0,0
			c-0.3,0.2-0.5,0.4-0.8,0.6l0,0l0,0c0.2,0,0.5,0,0.7-0.1c0.1,0,0.1,0,0.2,0c0.6-0.2,1.2-0.4,1.8-0.7l-0.4,0.3l0,0
			c-0.1,0-0.1,0.1-0.2,0.1l-0.2,0.1l0,0c-0.2,0.1-0.5,0.2-0.7,0.3l0,0c1.4,0,2.8-0.3,4-1c-0.6,0.7-1.3,1.3-2.1,1.8
			c-0.5,0.3-1,0.5-1.6,0.7l0,0c0.5,0,0.9-0.1,1.3-0.3l0,0c0,0,0.1,0,0.1-0.1c-0.7,0.5-1.5,0.9-2.4,1l0,0h0.2h0.1
			c-1.2,0.2-2.3,0.5-3.4,1l-1.1,0.4l0,0c0.5-0.1,1-0.1,1.4,0c0.5,0.1,1,0.3,1.4,0.6c0.1,0.1,0.2,0.2,0.3,0.2
			c0.2,0.2,0.4,0.3,0.6,0.4c-0.1,0-0.1,0-0.2,0l0,0c-0.3-0.1-0.6-0.1-0.9-0.2c-0.9-0.1-1.8-0.1-2.6,0c-0.5,0-0.9,0.1-1.4,0.1l0,0
			c0.1,0,0.3,0.1,0.4,0.1c0.2,0,0.4,0.1,0.6,0.2c0.9,0.3,1.8,0.9,2.4,1.6c-0.9-0.5-1.9-0.9-2.9-1.1c-1-0.2-1.9-0.3-2.9-0.3l0,0l0,0
			l0.1,0.1c0.5,0.1,1,0.3,1.5,0.5c0.4,0.2,0.7,0.4,1,0.6c0.3,0.2,0.6,0.5,0.8,0.8l-0.2-0.1c-0.8-0.6-1.7-1-2.7-1.4
			c-1-0.3-2.1-0.5-3.2-0.3l0,0c0.1,0,0.3,0,0.4,0.1c0,0,0.1,0,0.1,0c0.5,0.1,1,0.2,1.5,0.5c0.8,0.4,1.6,1,2.1,1.8
			c-0.1-0.1-0.2-0.1-0.3-0.2l0,0c-0.2-0.2-0.5-0.3-0.7-0.4c-0.9-0.5-2-0.8-3.1-0.9c-0.4,0-0.8,0-1.2,0h-0.7l0,0l0.3,0.1
			c0.2,0.1,0.5,0.2,0.7,0.2c0.5,0.2,0.9,0.5,1.4,0.8c0.4,0.3,0.8,0.7,1.1,1.1c-0.2-0.1-0.3-0.2-0.5-0.3s-0.4-0.3-0.6-0.4
			c-0.6-0.3-1.1-0.6-1.8-0.7c-0.5-0.2-1.1-0.2-1.7-0.2c-0.3,0-0.5,0-0.8,0.1l0,0c0.6,0.1,1.2,0.3,1.8,0.6c0.6,0.3,1,0.8,1.4,1.3
			c-0.2-0.3-0.4-0.5-0.7-0.6c-1-0.4-2-0.6-3-0.7c-0.9-0.1-1.8-0.1-2.7-0.1c-0.5,0-0.9,0-1.4,0h-0.3c-0.5,0-1,0-1.5-0.2
			c-0.8-0.2-1.6-0.6-2.3-1l0,0l-0.2-0.1c-0.2-0.1-0.4-0.2-0.6-0.3c-0.4-0.1-0.8-0.2-1.2-0.2l0,0c-0.7-0.1-1.3-0.2-2-0.4
			s-1.7-0.3-2.6-0.4l-0.6-0.1c-0.6-0.1-1.3-0.1-1.9-0.1h-0.8l0,0c-0.7,0-1.3,0.1-2,0.2c0.1-0.1,0.2-0.2,0.2-0.2
			c0.1-0.1,0.2-0.1,0.2-0.2l0,0h0l-0.3,0.1l-0.2,0.1c0.3-0.5,0.7-0.9,1.1-1.2l0.3-0.3c0.1-0.1,0.2-0.2,0.4-0.4l0.8-0.9
			c0.2-0.2,0.4-0.5,0.6-0.7c0.5-0.5,1-1,1.6-1.5c0.9-0.7,1.8-1.4,2.7-1.9c0.9-0.5,1.9-1,2.8-1.5c0.9-0.4,1.9-0.8,3-1.1l0.6-0.2
			c0.3-0.1,0.7-0.2,1-0.4c0,0,0.1,0,0.1,0h-0.1c-0.3,0.1-0.7,0.3-1,0.3c-0.2,0-0.4,0.1-0.6,0.2c-1.1,0.4-2.1,0.7-3,1.1
			c-1,0.4-1.9,0.9-2.8,1.5c-1,0.6-1.9,1.2-2.7,1.9c-0.6,0.5-1.1,1-1.6,1.5c-0.2,0.2-0.4,0.4-0.6,0.7c-0.2,0.3-0.5,0.6-0.8,0.9
			c-0.1,0.1-0.3,0.2-0.4,0.4l-0.3,0.3c-0.5,0.4-0.8,0.8-1.2,1.3l0,0l0,0c0.1,0,0.2,0,0.2-0.1c0.1,0,0.1,0,0.2-0.1
			c-0.1,0.1-0.1,0.1-0.2,0.2c-0.1,0.1-0.2,0.2-0.3,0.3L257.6,105.2z"/>
		<path class="st12" d="M273.5,94.5l0.1-0.1h0C273.6,94.4,273.5,94.4,273.5,94.5L273.5,94.5c0-0.1-0.1-0.1-0.1-0.1
			c-0.1,0-0.1,0.1-0.2,0.1L273.5,94.5z"/>
		<path class="st13" d="M257.7,105.2c0.7-0.1,1.3-0.2,2-0.2c0.3,0,0.5,0,0.8,0c0.6,0,1.3,0,1.9,0.1l0.6,0.1c0.9,0.1,1.8,0.2,2.6,0.4
			c0.7,0.2,1.4,0.3,2,0.4c0.4,0.1,0.8,0.2,1.2,0.2c0.2,0.1,0.4,0.2,0.6,0.3l0.2,0.1l0,0c0.7,0.4,1.5,0.8,2.4,1
			c0.5,0.1,1,0.2,1.5,0.2h0.3c0.5,0,0.9,0,1.4,0c0.9,0,1.8,0,2.7,0.1c0.5,0,1,0.1,1.5,0.2c0.5,0.1,1,0.2,1.5,0.5
			c0.3,0.2,0.5,0.4,0.8,0.7c-0.3-0.6-0.8-1.1-1.4-1.4c-0.6-0.3-1.1-0.5-1.8-0.7l0,0c0.3-0.1,0.5-0.1,0.8-0.1c0.6,0,1.1,0.1,1.7,0.2
			c0.6,0.1,1.3,0.4,1.8,0.7c0.2,0.1,0.4,0.3,0.6,0.4c0.2,0.1,0.3,0.3,0.5,0.4c-0.6-0.9-1.5-1.6-2.5-2c-0.2-0.1-0.4-0.2-0.7-0.2
			c-0.1,0-0.2-0.1-0.3-0.1h0.7c0.4,0,0.8,0,1.2,0c0.5,0,1.1,0.1,1.6,0.3c0.5,0.1,1,0.3,1.5,0.6c0.3,0.1,0.5,0.3,0.7,0.4l0.3,0.2
			c-0.5-0.8-1.3-1.4-2.1-1.8c-0.5-0.2-1-0.4-1.5-0.5c0,0-0.1,0-0.1,0c-0.1,0-0.3,0-0.4-0.1l0,0c1.1-0.2,2.2-0.1,3.2,0.3
			c1,0.3,1.9,0.8,2.7,1.3c0.1,0,0.1,0.1,0.2,0.1c-0.5-0.6-1.1-1.1-1.8-1.4c-0.5-0.2-1-0.4-1.5-0.5c-0.1,0-0.1,0-0.2-0.1l0,0
			c1,0,2,0.1,2.9,0.3c0.5,0.1,1,0.3,1.5,0.4c0.5,0.2,1,0.4,1.4,0.7c-0.7-0.7-1.5-1.3-2.4-1.6l-0.6-0.2c-0.2,0-0.3-0.1-0.5-0.1l0,0
			c0.5,0,0.9-0.1,1.4-0.1c0.9-0.1,1.8-0.1,2.6,0c0.3,0,0.6,0.1,0.9,0.2l0.3,0.1c-0.2-0.1-0.5-0.3-0.7-0.4c-0.1-0.1-0.2-0.2-0.3-0.2
			c-0.8-0.6-1.9-0.8-2.9-0.6l0,0l1.1-0.4c1.1-0.5,2.2-0.8,3.4-1h-0.1c-0.1,0-0.2,0-0.2,0l0,0c0.9-0.1,1.8-0.5,2.5-1l-0.2,0.1
			c-0.4,0.2-0.9,0.3-1.4,0.3l0,0c0.6-0.1,1.1-0.3,1.7-0.7c0.8-0.5,1.5-1.1,2.1-1.8c-0.6,0.3-1.3,0.6-2,0.8c-0.7,0.2-1.4,0.3-2.1,0.3
			l0,0c0.2-0.1,0.5-0.2,0.7-0.3l0.2-0.1l0.2-0.1c0.2-0.1,0.3-0.2,0.5-0.3c-0.6,0.3-1.2,0.5-1.8,0.7c-0.1,0-0.1,0-0.2,0
			c-0.2,0.1-0.4,0.1-0.7,0.1l0,0c0.2-0.2,0.5-0.5,0.8-0.6c0,0,0,0,0.1,0c-0.3,0.1-0.5,0.2-0.8,0.3c-0.1,0.1-0.3,0.2-0.4,0.2
			c-0.2,0.1-0.4,0.1-0.5,0l-0.2-0.1c-0.1,0-0.1,0-0.2,0c-0.1,0-0.2-0.1-0.4-0.1l0,0c0.6-0.2,1.1-0.6,1.5-1c-0.3,0.1-0.6,0.3-1,0.5
			l-0.5,0.2l0,0c-0.2,0.1-0.5,0.2-0.7,0.1c-0.4-0.1-0.8-0.2-1.1-0.3l0,0c1.4-0.1,2.7-0.6,3.8-1.4c0.4-0.3,0.8-0.7,1-1.1
			c-0.5,0.4-1,0.7-1.6,1c-0.6,0.3-1.2,0.4-1.9,0.5l0,0c0,0,0.1-0.1,0.2-0.1c0.1-0.1,0.2-0.2,0.3-0.3c-0.2,0.1-0.4,0.1-0.5,0.2
			c-0.1,0.1-0.3,0.2-0.4,0.2c-0.2,0-0.4,0-0.6,0h-0.3l0,0c0.5-0.2,0.9-0.5,1.3-0.8l-0.5,0.2c-0.4,0.2-0.9,0.4-1.3,0.5
			c-0.3,0.1-0.7,0.1-1,0l0,0c0.7-0.1,1.4-0.4,2-0.9c-0.6,0.4-1.3,0.6-2,0.7l0,0c0.1,0,0.1,0,0.2-0.1c0.2,0,0.3-0.1,0.4-0.2
			c0.4-0.3,0.7-0.6,1-1c-0.3,0.2-0.6,0.4-1,0.5c0,0-0.1,0-0.1,0c-0.5,0.2-1.1,0.3-1.6,0.3l0,0c0.8-0.1,1.6-0.5,2.3-1
			c0.4-0.3,0.6-0.7,0.7-1.2c-0.3,0.3-0.6,0.6-0.9,0.8c-0.3,0.2-0.7,0.4-1.1,0.5c-0.7,0.2-1.3,0.3-2,0.3l0,0c0.3-0.2,0.7-0.4,1-0.6
			c0.1-0.1,0.3-0.2,0.4-0.3l0,0c0.4-0.2,0.7-0.5,1-0.9c-0.1,0-0.1,0.1-0.2,0.2c-0.2,0.2-0.3,0.3-0.5,0.4l0,0l0.3-0.3
			c0.2-0.2,0.3-0.4,0.5-0.6c-0.4,0.4-0.9,0.7-1.4,0.9l0,0c0.2-0.1,0.4-0.3,0.5-0.5c-0.6,0.5-1.3,0.8-2.1,1h-0.2
			c-0.3,0.1-0.6,0.1-1,0l0,0c0.8-0.2,1.6-0.6,2.4-1.2c-0.4,0.3-0.9,0.5-1.4,0.6l0,0c0.7-0.4,1.2-1,1.5-1.6c-0.2,0.3-0.5,0.5-0.8,0.7
			c-0.3,0.2-0.6,0.4-0.9,0.5c-0.6,0.3-1.3,0.4-1.9,0.4h-0.1c-0.1,0-0.3-0.1-0.4-0.1l0,0c0.7-0.3,1.4-0.8,1.9-1.3
			c0.4-0.4,0.7-0.9,0.9-1.5c-0.3,0.2-0.5,0.5-0.8,0.8c-0.3,0.4-0.6,0.7-1,1c-0.5,0.3-1,0.6-1.5,0.8l0,0c-0.1-0.1-0.2-0.1-0.3-0.1
			l0,0c1-0.6,1.9-1.5,2.4-2.6c-0.1,0.2-0.3,0.3-0.4,0.5c-0.5,0.6-1.1,1.2-1.7,1.7h-0.1c-0.2,0.2-0.4,0.2-0.7,0.2c0,0-0.1,0-0.1,0
			c-0.2-0.1-0.4-0.1-0.6-0.2l0,0c0.1-0.1,0.2-0.2,0.3-0.2c0.5-0.4,1-0.9,1.4-1.4c0.1-0.2,0.2-0.4,0.3-0.6l-0.4,0.4
			c-0.4,0.5-0.9,1-1.4,1.4c-0.2,0.2-0.5,0.3-0.8,0.3l0,0c0.1-0.1,0.2-0.2,0.3-0.2c0.7-0.5,1.2-1.2,1.6-1.9l-0.2,0.3
			c-0.4,0.5-0.8,0.9-1.3,1.3c-0.3,0.2-0.5,0.3-0.9,0.3l0,0c0.7-0.5,1.2-1.1,1.6-1.8c-0.5,0.6-1,1.1-1.7,1.6l0,0
			c0.5-0.5,0.9-1.2,1.1-1.9c-0.3,0.5-0.7,0.9-1.1,1.2c-0.3,0.3-0.7,0.6-1.2,0.8c-0.1,0-0.2,0-0.3,0c-0.1,0-0.1,0-0.2,0
			c-0.4,0-0.7,0-1.1-0.1c0,0,0,0-0.1,0l0,0h-0.3c-0.4,0-0.9,0-1.3,0c-0.4,0-0.8,0.1-1.2,0.2h-0.1c-0.1,0-0.2,0.1-0.2,0.1
			c0,0-0.1,0.1-0.1,0.1c-0.1,0.1-0.2,0.1-0.3,0.1c0,0,0,0,0,0c-0.3,0.2-0.7,0.3-1,0.4c-0.2,0-0.4,0.1-0.6,0.2c-2,0.6-4,1.5-5.8,2.6
			c-1,0.6-1.9,1.2-2.7,1.9c-0.6,0.4-1.1,0.9-1.6,1.5l-0.6,0.7c-0.2,0.3-0.5,0.6-0.8,0.9l-0.4,0.4l-0.3,0.3c-0.4,0.4-0.8,0.8-1.1,1.3
			c0.1,0.1,0.1,0.1,0.2,0.2c0.1,0,0.2-0.1,0.3-0.1l0,0c-0.1,0.1-0.2,0.2-0.2,0.2C257.9,105,257.8,105.1,257.7,105.2z"/>
		<path class="st14" d="M288.9,101.7c-0.3-0.1-0.5-0.3-0.8-0.5c-0.2-0.1-0.3-0.2-0.5-0.3c-0.1,0-0.1-0.1-0.2-0.1
			c-0.6-0.3-1.2-0.6-1.8-1l-1.1-0.7l0,0c-0.2-0.1-0.5-0.3-0.7-0.4c-0.2-0.2-0.5-0.3-0.7-0.4c-0.1,1.1-0.4,2.3-0.8,3.3
			c-0.3,0.9-0.8,1.8-1.3,2.6c-0.4,0.5-0.9,1-1.4,1.5c2-0.6,4.2-1.2,6.6-1.8c0.5-0.1,1-0.3,1.5-0.4c1.3-0.4,2.7-0.8,4.1-1
			C290.8,102.4,289.8,102.2,288.9,101.7z"/>
		<path class="st15" d="M272.8,106.7h-0.1c-0.2,0-0.5-0.1-0.6-0.3l-0.1-0.1c-0.1,0-0.2-0.1-0.3-0.2c-0.1-0.1-0.2-0.2-0.4-0.2
			c-0.4-0.1-0.7-0.3-1-0.5c-0.3-0.2-0.6-0.5-0.8-0.8c-0.4-0.6-0.7-1.3-0.8-2.1c-0.1-0.5-0.1-0.9-0.1-1.4c0-0.5,0-0.9,0-1.4
			c0.1-0.9,0.4-1.7,0.8-2.5l0,0c0.1-0.2,0.3-0.4,0.5-0.4c0.6-0.2,1.3-0.4,1.9-0.5c1-0.2,2.1-0.3,3.2-0.4h0.2c-0.4,0.1-0.7,0.3-1,0.5
			c-0.6,0.6-1,1.4-1.2,2.3c-0.2,0.8-0.2,1.7,0.2,2.6c0.3,0.6,0.8,1,1.4,1.1c0.7,0.2,1.4,0,2-0.4c0.8-0.5,1.5-1.3,1.8-2.2
			c0.3-0.8,0.4-1.7,0.1-2.5c-0.2-0.6-0.7-1.1-1.3-1.4l0,0c0.2,0,0.4,0,0.6,0h0.2c0.7,0.1,1.4,0.2,2.1,0.3c0.5,0.1,1,0.3,1.4,0.6
			c0.1,0.1,0.2,0.2,0.3,0.4c0.2,0.5,0.2,0.9,0.3,1.4c0,0.5,0,1-0.1,1.4c-0.1,0.4-0.2,0.8-0.3,1.1c0,0.2-0.1,0.3-0.1,0.5
			c-0.6,1.6-1.7,3-3.2,4c-0.3,0.2-0.6,0.3-0.9,0.4c-0.7,0.2-1.5,0.3-2.2,0.3c-0.3,0-0.6,0-1,0L272.8,106.7z"/>
		<path class="st15" d="M266.7,104.3c-0.6-0.3-1.1-0.7-1.7-1c-0.7-0.4-1.5-0.7-2.3-0.7c-1.1-0.1-2.3,0.1-3.3,0.6l0,0
			c0.9-0.6,1.8-1.3,2.6-2c0.5-0.4,1-0.8,1.5-1.1c0.8-0.6,1.6-1.1,2.4-1.5c0.8-0.5,1.7-0.8,2.6-1.2l0,0c-0.5,1.1-0.6,2.3-0.5,3.6
			c0,1.2,0.3,2.3,0.8,3.4c0.4,0.8,1,1.5,1.7,2l0,0C269.2,105.8,267.9,105.1,266.7,104.3z"/>
		<path class="st14" d="M263.6,100.1l-1.5,1.2c-0.8,0.6-1.7,1.3-2.6,1.9c0.5-0.3,1-0.4,1.5-0.5c0.6-0.1,1.1-0.1,1.7-0.1
			c0.8,0.1,1.6,0.3,2.3,0.7c0.6,0.3,1.1,0.7,1.7,1c1.2,0.8,2.5,1.5,3.8,2c-0.4-0.2-0.7-0.5-1-0.8c-0.3-0.3-0.5-0.7-0.7-1.1
			c-0.2-0.5-0.4-1.1-0.5-1.7c-0.1-0.6-0.2-1.2-0.2-1.8c-0.1-0.6-0.1-1.2,0-1.8c0.1-0.6,0.2-1.2,0.5-1.7
			C266.8,98,265.1,98.9,263.6,100.1z"/>
		<path class="st15" d="M279.7,105.7c0.5-0.4,1-0.9,1.4-1.5c0.5-0.8,1-1.7,1.3-2.6c0.4-1.1,0.7-2.2,0.8-3.3l0,0
			c0.3,0.1,0.5,0.3,0.7,0.4c0.2,0.2,0.5,0.3,0.7,0.4l0,0l1.1,0.7c0.6,0.3,1.2,0.7,1.8,1l0.2,0.1c0.2,0.1,0.4,0.2,0.5,0.3
			c0.2,0.2,0.5,0.4,0.8,0.5c0.9,0.4,1.9,0.7,3,0.7l0,0c-1.4,0.3-2.8,0.6-4.1,1l-1.5,0.4C283.9,104.5,281.7,105.1,279.7,105.7
			L279.7,105.7z"/>
		<path id="Iris-2" class="st16" d="M276.9,96.2c0.3,0.1,0.6,0.4,0.8,0.6c0.2,0.2,0.4,0.5,0.5,0.8c0.1,0.4,0.2,0.8,0.2,1.2
			c0,0.4-0.1,0.8-0.3,1.2c-0.4,0.9-1,1.6-1.8,2.1c-0.3,0.2-0.6,0.3-1,0.4c-0.3,0.1-0.7,0.1-1,0c-0.3-0.1-0.6-0.2-0.8-0.4
			c-0.2-0.2-0.4-0.4-0.6-0.7c-0.3-0.8-0.4-1.7-0.2-2.6c0.1-0.9,0.6-1.7,1.2-2.4c0.3-0.2,0.6-0.4,1-0.5c-1.1,0-2.2,0.1-3.3,0.4
			c-0.6,0.1-1.3,0.3-1.9,0.5c-0.2,0.1-0.3,0.3-0.4,0.4l0,0c-0.4,0.8-0.7,1.6-0.8,2.5c-0.1,0.9-0.1,1.9,0.1,2.8
			c0.1,0.7,0.4,1.4,0.8,2.1c0.4,0.6,1.1,1.1,1.8,1.3c0.1,0.1,0.3,0.1,0.4,0.2l0.3,0.2l0.1,0.1c0.2,0.1,0.4,0.2,0.6,0.3h0.1
			c0.7,0,1.4,0,2.1,0c0.7-0.1,1.5-0.2,2.2-0.3c0.3-0.1,0.7-0.2,0.9-0.4c1.5-1,2.6-2.4,3.2-4c0-0.2,0.1-0.3,0.1-0.5
			c0.1-0.4,0.2-0.7,0.3-1.1c0.2-0.9,0.1-1.9-0.1-2.8c0-0.2-0.1-0.3-0.3-0.4c-0.4-0.3-0.9-0.4-1.4-0.5c-0.7-0.1-1.4-0.2-2.1-0.3
			c-0.1,0-0.2,0-0.2,0c-0.1,0-0.3,0-0.5,0C277,96.2,277,96.2,276.9,96.2z"/>
	</g>
	<g id="Clothes">
		<path d="M190.4,104.5c-4.3-0.7-7.8-3.9-9.1-8.1c-0.3-0.9-1.5-1.2-1.1-2.6c1.2,0,1.8,0.7,2.4,1.8c3.1,5.8,6.8,6.7,12.5,3.4
			c3-1.7,5.9-3.5,9.4-4.4c5.8-1.5,10.7,0.2,15.3,3.5c0.8,0.7,1.7,1.2,2.6,1.5v2.5c-1.5-0.1-2.7-0.9-4-1.5c-4.4-2.1-8.8-3.3-13.6-1
			c-3.5,1.6-6.1,4.6-9.9,5.7C194.5,105.3,191.4,104.7,190.4,104.5z"/>
		<path d="M222.6,75.3c-2.2,3.6-6.1,2.7-9.1,2.8c-4.4,0.1-8.6,1.9-11.8,5c-0.2-1.3,0.4-2.7,1.5-3.4c2.8-2.2,6.2-3.1,9.6-3.7
			c2.5-0.3,4.9-1.5,6.6-3.4c0.7-1,2-1.3,3-0.6c0.1,0.1,0.2,0.1,0.2,0.2V75.3z"/>
		<path d="M293.7,103.6c4.3-0.7,7.8-3.9,9.1-8.1c0.3-0.9,1.5-1.2,1.1-2.6c-1.2,0-1.8,0.7-2.5,1.8c-3.1,5.8-6.8,6.7-12.5,3.4
			c-3-1.7-5.9-3.5-9.4-4.4c-5.8-1.5-10.7,0.2-15.3,3.5c-0.8,0.7-1.7,1.2-2.6,1.5v2.5c1.4-0.2,2.8-0.7,4-1.5c4.4-2.1,8.8-3.3,13.6-1
			c3.5,1.7,6.1,4.6,9.9,5.7C289.6,104.3,292.8,103.8,293.7,103.6z"/>
		<path d="M261.5,74.3c2.2,3.6,6.1,2.7,9.1,2.8c4.4,0.1,8.6,1.9,11.8,5c0.2-1.3-0.4-2.7-1.5-3.4c-2.8-2.2-6.2-3.1-9.6-3.7
			c-2.6-0.3-4.9-1.5-6.6-3.4c-0.7-1-2-1.3-3-0.6c-0.1,0-0.1,0.1-0.2,0.2V74.3z"/>
		<path class="st17" d="M226,266c0.8,2.9-2,3.8-3.3,5c-6.6,5.5-14.5,5.9-22.4,4.1c-5.1-1.1-11.5-10.4-11.5-15.7s-0.4-10.5,1.9-15.7
			c1.5-3.6,3.8-6.8,6.9-9.2h3.4c0.5,1.1,1.7,1.8,1.4,3.2s0.7,1.6,1.8,1.5c2.1-0.3,2.8,0.9,2.9,2.6c0,2.1,1.4,4,3.4,4.5
			c2.1,0.7,3.4,2.7,3.3,4.9c0.1,2.3,0.4,4,3.3,4.4c1.6,0.2,3.5,1.9,3.3,3.4c-0.5,4,4.4,4.5,4.6,7.8L226,266z M203.1,270.8
			c5.5,2,12.7,2,17,0.2c3-1.2,3.4-4.2,0.7-6.2c-1.3-0.8-2.1-2.1-2.2-3.6c0.2-1.9-1.2-3.5-3-3.8c-2-0.3-3.4-2.1-3.2-4.1
			c-0.1-2.7-1.1-5-4.1-5.9c-1.1-0.3-2.3-1.2-2.4-2.2c-0.2-2.8-0.7-4.8-4.1-4.7c-0.8,0-1.4-1.1-1.5-2.1c-0.1-3.4-1.6-2-3.1-1
			c-4.3,2.9-7.5,12.3-6.1,18.3c1.1-6.1,2-8.2,4.5-10.7c-2.5,5.6-3.7,11.6-3.4,17.8c2.5-2.7,3.8-6,7.1-7.4c-1,1.9-2.4,3.4-3.5,5.2
			c-0.8,1.4-3.3,2.9-1.7,4.5c1.4,1.4,3.1-0.9,4.6-1.6c1.9-0.9,3.6-2,5.4-3.1c-2.2,3-5.6,4.3-8.5,6.6c4.8,4.1,9.9,2,15.5,1
			C208.4,269.8,205.8,270,203.1,270.8L203.1,270.8z"/>
		<path class="st17" d="M230,261.7c-1.2,1-1.4,2.5-2.2,3.7c-0.4,0.6-0.8,1.5-1.6,0.4c1.9-1.4,1.6-4.3,3.8-5.4V261.7z"/>
		<path class="st18" d="M203.1,270.8c2.7-0.8,5.4-1,8-3.1c-5.6,1.1-10.7,3.1-15.5-1c3-2.3,6.3-3.6,8.5-6.6c-1.8,1-3.5,2.2-5.4,3.1
			c-1.5,0.7-3.2,3-4.6,1.6c-1.6-1.6,0.8-3.1,1.7-4.5c1.1-1.8,2.5-3.3,3.5-5.2c-3.3,1.4-4.6,4.7-7.1,7.4c-0.2-6.1,0.9-12.2,3.4-17.8
			c-2.5,2.4-3.4,4.5-4.5,10.7c-1.5-6,1.8-15.4,6.1-18.3c1.5-1,3-2.3,3.1,1c0,0.9,0.7,2.1,1.5,2.1c3.4-0.1,4,2,4.1,4.7
			c0.1,1,1.3,1.9,2.4,2.2c3,0.9,4,3.2,4.1,5.9c-0.2,2,1.2,3.8,3.2,4.1c1.8,0.3,3.2,1.9,3,3.8c0.1,1.5,0.9,2.8,2.2,3.6
			c2.6,2,2.2,5-0.7,6.2C215.7,272.8,208.5,272.8,203.1,270.8z"/>
		<path class="st19" d="M249.4,449.9c3.1,1.2,5.3,4.1,9.2,3.8c2.3-0.2,3.7,3.5,2.8,7.1c-1.6,6.1-3.8,12-8.4,16.6
			c-1.9,1.7-4.3,2.8-6.8,3c-4.3,0.6-8.8,0.2-12.9-1.2c-1-0.4-1.7-1.8-2.6-2.6c-4.2-4-6.1-9.1-6.6-14.8c-0.3-3.4,1.1-5.1,4.7-5.5
			c2.2-0.2,3.8-0.8,4.8-3c1-2.2,3.6-3.3,5.9-2.3c3.2,1.4,5.6,0.1,8.1-1.4L249.4,449.9z M248.1,463.5l0.7,0.3
			c-1,3.8-1.6,7.7-3.1,11.3c-0.7,1.8,0.6,2.2,0.9,3.2c0.4,1.3,1.5,0.2,2.3,0c2.1-0.7,4-2,5.2-3.9c2.9-4.1,4.6-8.8,6.1-13.5
			c0.3-1.5,0.2-3-0.4-4.4c-0.5-1.3-0.9-1.7-2.3-1.2c-2.1,0.6-4.3,0-5.8-1.6c-1.3-1.5-3.5-1.9-5.2-0.9c-2,1.4-4.6,1.6-6.8,0.5
			c-1.6-0.7-3.6-0.5-4.4,1.5c-1.1,2.8-3.1,3.7-5.9,3.8c-2.5,0.1-3.8,1.4-3.5,4.1c0.6,7.3,3.1,13.5,10.8,16.4
			c0.7,0.3,1.7,1.1,2.1,0.4c0.7-0.8,1-1.9,0.8-3c-0.2-0.6-0.6-1-0.7-1.6c-0.9-3.8-2.4-7.5-2-12.2c1.8,5.9,1.8,11.7,5.8,16.3
			C246,474.1,246.4,468.5,248.1,463.5z"/>
		<path class="st18" d="M248.1,463.5c-1.7,5.1-2.1,10.7-5.5,15.2c-4-4.5-4-10.4-5.8-16.3c-0.4,4.7,1.1,8.4,2,12.2
			c0.1,0.6,0.6,1.1,0.7,1.6c0.2,1.1-0.1,2.2-0.8,3c-0.5,0.8-1.4-0.1-2.1-0.4c-7.7-2.9-10.2-9.1-10.8-16.4c-0.2-2.7,1-4,3.5-4.1
			c2.8-0.1,4.8-1,5.9-3.8c0.8-1.9,2.7-2.2,4.4-1.5c2.2,1,4.8,0.8,6.8-0.5c1.7-1,3.9-0.7,5.2,0.9c1.4,1.6,3.7,2.3,5.8,1.6
			c1.5-0.5,1.9-0.1,2.3,1.2c0.6,1.4,0.7,2.9,0.4,4.4c-1.5,4.7-3.2,9.4-6.1,13.5c-1.2,1.9-3,3.2-5.2,3.9c-0.8,0.2-1.9,1.3-2.3,0
			c-0.3-1-1.6-1.5-0.9-3.2c1.5-3.6,2.1-7.5,3.1-11.3L248.1,463.5z M250.7,471.7c1.6-2.5,3.1-5.1,3.1-8.2c-1.2,2.6-2.3,5.2-3.5,7.8
			c-1.2,0.7-1.9,2-2,3.4C250.1,474.2,250.3,472.9,250.7,471.7L250.7,471.7z M229.2,461.2c-0.9,4.6,1.4,7.3,3,10.3
			C230.8,468.2,229.8,464.8,229.2,461.2z M236.4,475.9c-0.4-1.3-1.4-2.2-2.7-2.5C233.8,474.8,234.9,475.9,236.4,475.9z M237.6,477.7
			c0.6-0.1,1-0.2,0.8-0.7c-0.1-0.2-0.6-0.4-0.9-0.5c-0.6-0.1-0.7,0.4-0.5,0.7S237.5,477.6,237.6,477.7z M248.1,475.9
			c-0.2-0.3-0.1-0.8-0.6-0.5c-0.2,0.1-0.4,0.4-0.4,0.6c0,0.2,0.1,0.6,0.5,0.4C247.9,476.3,248,476,248.1,475.9z"/>
		<path class="st19" d="M229.2,461.2c0.6,3.5,1.6,7,3,10.3C230.6,468.6,228.3,465.8,229.2,461.2z"/>
		<path class="st19" d="M250.4,471.4l3.5-7.8c-0.1,3.1-1.6,5.7-3.1,8.2L250.4,471.4z"/>
		<path class="st19" d="M250.7,471.7c-0.4,1.2-0.6,2.5-2.3,3c0.1-1.4,0.8-2.7,2-3.4L250.7,471.7z"/>
		<path class="st19" d="M236.4,475.9c-1.4,0-2.6-1.1-2.7-2.5C235,473.6,236,474.6,236.4,475.9z"/>
		<path class="st19" d="M237.6,477.7c-0.1-0.1-0.6-0.2-0.7-0.5s0-0.8,0.5-0.7c0.3,0.1,0.8,0.2,0.9,0.5
			C238.7,477.5,238.3,477.6,237.6,477.7z"/>
		<path class="st19" d="M248.1,475.9c-0.1,0.2-0.3,0.4-0.5,0.5c-0.4,0.2-0.5-0.2-0.5-0.4c0-0.3,0.2-0.5,0.4-0.6
			C248,475.1,248,475.6,248.1,475.9z"/>
		<path class="st17" d="M261.5,266.4c0.2-3.3,5.1-3.8,4.6-7.8c-0.2-1.5,1.7-3.2,3.3-3.4c2.9-0.4,3.2-2.1,3.3-4.4
			c-0.1-2.2,1.3-4.1,3.3-4.8c2-0.6,3.5-2.4,3.4-4.5c0.1-1.8,0.8-2.9,2.9-2.6c1.1,0.2,2.1,0.1,1.8-1.5s0.9-2.2,1.4-3.2h3.4
			c3.1,2.4,5.4,5.6,6.9,9.2c2.3,5.1,1.9,10.4,1.9,15.7c0,5.3-6.4,14.5-11.5,15.7c-7.9,1.8-15.8,1.4-22.4-4.1c-1.3-1.1-4.1-2.1-3.3-5
			L261.5,266.4z M275.4,267.2c5.5,1.1,10.7,3.1,15.5-1c-3-2.3-6.3-3.6-8.5-6.6c1.8,1,3.5,2.2,5.4,3.1c1.5,0.7,3.2,3,4.6,1.6
			c1.6-1.6-0.8-3.1-1.7-4.5c-1.1-1.8-2.5-3.3-3.5-5.2c3.3,1.4,4.6,4.7,7.1,7.4c0.2-6.1-0.9-12.2-3.4-17.8c2.5,2.4,3.4,4.5,4.5,10.7
			c1.5-6-1.8-15.4-6.1-18.3c-1.5-1-3-2.3-3.1,1c0,0.9-0.7,2.1-1.5,2.1c-3.4-0.1-4,2-4.1,4.7c-0.1,1-1.3,1.9-2.4,2.2
			c-3,0.9-4,3.2-4,5.9c0.1,2-1.2,3.8-3.2,4.1c-1.8,0.3-3.2,1.9-3,3.8c-0.1,1.5-0.9,2.8-2.2,3.6c-2.6,2-2.2,5,0.7,6.2
			c4.3,1.8,11.5,1.8,17-0.2C280.6,269.5,278,269.3,275.4,267.2z"/>
		<path class="st17" d="M256.4,261.1c1.2,1,1.4,2.5,2.2,3.7c0.4,0.6,0.8,1.5,1.6,0.4c-1.9-1.4-1.6-4.3-3.8-5.4V261.1z"/>
		<path class="st18" d="M283.4,270.3c-2.7-0.8-5.4-1-8-3.1c5.5,1.1,10.7,3.1,15.5-1c-3-2.3-6.3-3.6-8.5-6.6c1.8,1,3.5,2.2,5.4,3.1
			c1.5,0.7,3.2,3,4.6,1.6c1.6-1.6-0.8-3.1-1.7-4.5c-1.1-1.8-2.5-3.3-3.5-5.2c3.3,1.4,4.6,4.7,7.1,7.4c0.2-6.1-0.9-12.2-3.4-17.8
			c2.5,2.4,3.4,4.5,4.5,10.7c1.5-6-1.8-15.4-6.1-18.3c-1.5-1-3-2.3-3.1,1c0,0.9-0.7,2.1-1.5,2.1c-3.4-0.1-4,2-4.1,4.7
			c-0.1,1-1.3,1.9-2.4,2.2c-3,0.9-4,3.2-4,5.9c0.1,2-1.2,3.8-3.2,4.1c-1.8,0.3-3.2,1.9-3,3.8c-0.1,1.5-0.9,2.8-2.2,3.6
			c-2.6,2-2.2,5,0.7,6.2C270.7,272.3,277.9,272.3,283.4,270.3z"/>
		<path class="st8" d="M243.7,174.1c-0.4,0-10.2-3.3-14.1-6.3c-1.9-1.5-1.1-3.2-0.2-4.6c1-1.6,2.3-1.3,3.9-0.3
			c2.6,1.7,5.2,3.2,8.5,0.9c1.5-0.8,3.2-0.8,4.7,0.1c2.4,1.9,3.9,0.4,5.9-0.4c1.5-0.6,3.6-2.8,4.8-0.4c0.9,1.8,1.3,4.5-1.8,5.8
			C251.4,170.6,243.8,174.3,243.7,174.1z"/>
		<path class="st20" d="M243.9,172.7c-2.9-0.1-3.9-2.1-4.1-4.5c-0.3-2.7,1.9-3.9,3.9-3.9c2.1,0.1,4.6,1.2,4.5,4
			C248.1,170.8,247,172.9,243.9,172.7z"/>
		<path class="st2" d="M236.9,169.2c-2.3,0-4-1.5-5.9-2.3c-0.9-0.3-1.3-1.2-1-2.1c0-0.1,0.1-0.2,0.1-0.2c0.6-1.4,1.6-0.6,2.3-0.2
			c1.6,1,3.3,1.6,5.1,1.9c1.8,0.2,0.8,1.1,0.9,1.9C238.5,169.5,237.9,169.7,236.9,169.2z"/>
		<path class="st2" d="M255.8,163.8c0.2,2.9-3,6-5.5,5.6c-0.8-0.1-0.6-0.6-0.6-0.9c-0.1-1.2-0.1-2.3,1.3-2.9
			S254.1,164.5,255.8,163.8z"/>
		<path class="st8" d="M207.4,326.1c0-4.1-0.1-3.8,4.5-2.9c8.4,1.8,17.1,2.5,25.7,2.2c1.2,0,1.8-0.8,2.6-1.2c2.1-1,4.5-1.8,6.4-0.2
			c4.1,3.4,9,2.4,13.5,1.9c4-0.5,8.1,0.2,12-1.2c0.5-0.2,1.1,0.1,1.5-0.2c1.7-1.2,3.6-2.5,5,0s-0.2,6.7-2.9,7.4
			c-3.9,1.2-7.9,2-12,2.5c-4.3,0.4-9.3-0.2-12.8,1.2c-5.8,2.2-10.1,0.3-15.4-0.7c-8.1-1.5-16.4-1.9-24.5-3.9
			C207.5,330.3,207.4,330.5,207.4,326.1z"/>
		<path class="st2" d="M236.5,333.4c-8.6-0.8-16.8-1.4-24.8-3.6c-2.1-0.6-2.3-1.8-1.9-3.2c0.4-1.8,1.9-0.9,3.1-0.7
			c5.5,0.8,11,1.8,16.6,1.8S235.5,327.8,236.5,333.4z"/>
		<path class="st2" d="M255.8,333.2c-0.9,0-1.8-0.1-2.7,0c-2,0.2-2.4-0.8-2.3-2.3s0.1-2.7,2.4-2.6c7,0.2,14-0.6,20.9-1.5
			c0.7-0.1,1.6-1.2,2.1,0.2c0.3,0.8,0.1,1.7-0.6,2.3c-0.8,0.7-1.7,1.1-2.7,1.3C267.4,332.1,261.6,333,255.8,333.2z"/>
		<path class="st20" d="M244.4,336.1c-4.4,0.4-6.1-2.5-6.7-5.9c-0.4-2.1,3.4-5.4,5.8-5.4c2.8,0,5.8,2.9,5.8,5.6
			C249.2,333.3,247,336,244.4,336.1z"/>
		<path class="st8" d="M253.1,538.6c7.3,1.8,16.2,1.7,25.1,1.7c2,0.2,4-0.4,5.6-1.7c3.7-3.1,7.8-3.3,12.6-0.9c2.2,1.1,4.6,1.4,7,0.8
			c6.1-1.5,12.2-2.8,17.8-5.4c1.9-0.9,4.9-2.1,6-0.2c1.3,2.2,0.6,5-1.6,6.3c0,0,0,0-0.1,0c-5.3,3.6-11.5,5.5-18,6.9
			c-4,0.8-7.6,1-10.5,4.3c-2.6,2.9-9.4,2.8-12.9,0.1c-1.9-1.4-4.2-2.1-6.6-1.9c-10,0.2-19.7-2.1-29.5-3.3c-2.2-0.3-2.4-1.6-2.2-3.1
			s0.4-3,2.4-3.4C249.9,538.5,251.5,538.4,253.1,538.6z"/>
		<path class="st20" d="M283.2,544.3c0-3.7,3.1-6.5,7.2-6.6s7.6,2.8,7.6,6.2c0,4.3-2.2,6.1-7.2,6.1
			C285.4,550.1,283.2,548.4,283.2,544.3z"/>
		<path class="st2" d="M280.3,546.8c-9.4,0-18.7-0.9-27.9-2.7c-1.9-0.3-4.4-0.8-3.5-3.4s2.9-0.7,4.3-0.5c7,1.2,14.1,1.8,21.3,1.7
			C280.1,541.7,280.1,541.8,280.3,546.8z"/>
		<path class="st2" d="M324.4,535.7c0.3,1.6-0.9,2.7-2.5,3.5c-5.7,2.6-11.7,4.6-17.9,5.8c-2.3,0.5-3-0.5-3.4-2.3
			c-0.3-1.6-0.8-2.2,1.7-2.6c6.7-1.2,13.2-3.1,19.5-5.7C324.1,533.4,324.3,533.7,324.4,535.7z"/>
		<path class="st21" d="M435.7,469.5c-2.5-2.8-3.6-6.5-3-10.2h6.8c3.1,2.8,6.9,5,9.1,8.8v0.7c-1.6,0.6-3.2,0-4.6-0.5
			c-2.8-1.1-5.3-0.9-7.5,1.3L435.7,469.5z"/>
		<path class="st21" d="M54.2,459.4c0.7,3.9-1.3,7-3,10.2h-0.8c-2-1.5-4.6-2.2-7.1-1.8c-1.2,0.1-2.5,0.6-3.6-0.4v-0.7
			c1.7-3,4.4-5,6.8-7.3H54.2z"/>
	</g>
	<g id="HairFront">
		<path class="st22" d="M305.9,202.6c-28.6-28,25.6-138.3-27.7-112.2c-11.4,2.8-13.1-11.2-12.8-19.3c-0.5-12.6-3.3-24.7-10.2-35.6
			c25,18.1,30.5,22.3,43.9,51.1c3.6,7,5.6,14.7,5.8,22.6c0.3-0.1,6.1-45.7-0.2-69.2C291.3-7.6,225.3-10.2,194,20.9
			c-24.6,26.5-24.7,67.7-18.7,101.1c0.5-13.5,3.8-26.5,7.1-39.7c-1.7,18.7-6.8,40.2-6.3,60.4c-0.5,13.9,3,28.2-3,41.8
			c-1.6,10.8-2.3,22.3-0.4,33.1c2.8,20.6,19.3,32.8,7.9,54.1c-0.7,2.8-2.4,5.8,0.8,8.4c5-2.6,4.4-8,4.9-12.8
			c6.3-23.5-14.3-42.6-13.3-65.8c1.6-18.2,8.5-35.7,8.9-54.1c-8-100.5,48.1-72.2,62-124.5c9.1,14.1,20.2,26.1,19.9,43.7
			c-1.7,18,4,33,23.8,22.2c5-2.3,9.6-1.2,11.3,3.2c8.9,35.2-17.4,73.4,3.3,106.9c3.7,6.1,5.4,13.2,5,20.3c-0.8,6.3,5.9,5.9,4.8-0.1
			C311.2,213.3,308.7,207.8,305.9,202.6z"/>
	</g>
	<g id="Skirt">
		<path class="st2" d="M144.5,469.1c2.5-5.6,4.4-11.9,4.4-17.6c0.1-11.5,5.3-20.8,10.3-30.3c0.7-1.7,2.3-2.7,4.1-2.7
			c2.7,0.2,3.8,1.7,3.5,4.2c-1.5,12.7,4.5,22.1,16.7,26.3c10.9,3.8,21.8,3.5,33.1,1.7c21.5-3.4,40.4-12.8,58.4-24.3
			c9.9-6.2,18.2-14.4,26.6-22.5c1.3,2.4-0.8,3.4-2,4.6c-8.1,8.8-17.7,15.9-27.5,22.6c-17.8,12.5-38.4,20.3-60,22.9
			c-8.1,1.1-16.3,0.7-24.2-1.1c-16.3-4.2-22.1-12-24.3-27.9c-0.1-1,0.3-2.2-0.8-3.2c-1.8,0.5-2.4,2.2-3.1,3.7
			c-2.6,6-4.7,12.2-6.5,18.5c-1.9,6.7,0.9,11.8,7.5,14.3c8.3,3.1,17.2,4.1,26,2.9c1.4-0.2,3.6-0.9,3.9,0.7c0.3,1.9-2,2-3.5,2.2
			c-11.5,1.5-22.6,0.1-33-5.4c-2.4-1.3-3.3-0.9-3.7,1.7c-0.5,3.6-1.7,7-2.1,10.6c-0.7,6.5,4.8,12,11,9.3c3.4-1.5,7.1-2.4,10.3-4.3
			c1.6-0.9,3.3-1.8,5-2.5c1.3-0.6,3.1-1.9,3.9-0.4s-1.2,2.3-2.4,3c-7.2,4.4-14.7,8.2-23.1,9.7c-2.4,0.4-2.1,2.1-2,3.7
			c0.1,6.7-0.1,13.4,0,20c0.2,10-0.1,20-0.7,30c-0.5,7.9,0.6,15.8,5.1,22.7c3.1,4.8,6.3,5.5,11.1,2.5c1.7-1.1,4.1-3.5,5.4-1.7
			s-1.5,3.9-3.1,5.4c-3.6,3.3-9.1,3.3-14.5,0.2c-0.4,3.4-0.4,6.7-0.5,9.9c-0.3,8.8-2.4,17.5-0.4,26.3c0.4,2,0.8,3.9,1.4,5.8
			c2.6,7.2,9.3,10.6,16.6,8.8c10.2-2.6,17.3-9.1,22.8-17.8c5.1-8.1,8.4-16.9,11.4-26c3.9-12,9.1-23.5,17.3-33.2
			c6.7-8.2,14.7-15.2,23.6-20.9c10.1-6.3,17.1-15.1,22.9-25.2c3.6-6.4,6.6-13.2,9-20.1c4.4-12.1,11.2-22.7,18.7-33
			c4.1-5.6,7.9-11.4,11.7-17.2c3.8-5.7,6-12.3,6.2-19.1c-1.1,4.7-5.2,9.7-8.6,15c-5,7.9-10.6,15.4-16.6,22.6
			c-1.1,1.3-2.8,3.8-4.4,2.3c-1.9-1.7,0.9-3.1,2-4.4c7-8.9,14.1-17.8,19.6-27.7c2.1-3.7,5.4-6.8,5.5-11c-1.8,3.7-4.9,6.9-8,10.2
			c-3.6,3.9-7.5,7.6-11,11.6c-0.4,0.5-0.9,1-1.5,1.4c-0.8,0.5-1.7,1.1-2.5,0.2c-0.6-0.7,0-1.5,0.5-2.2c2.6-3.9,6.2-7,9.4-10.4
			c4-4.3,8.4-8.3,10.9-13.7c0.5-1.2,1.3-2.3,1-4.2c-2.5,1-4,2.8-5.6,4.5c-1.2,1.3-2,3.3-4.4,2.8c2.4-4.2,5.3-8,8.8-11.3
			c2.8-1,4,1.2,5.7,2.6c0.6,0.5,1.1,1.3,2,1s0.8-1.3,0.9-2c1-6.3-0.8-8.1-7.1-7.4c-1.5,0.2-3.1,0.8-4.5-0.5c0.5-2,3-1.6,3.9-3.1h5.6
			c2.3,0.6,4.3,2.1,5.5,4.2c1.6,3.2,4.4,4.9,7.6,6.1c2.8,1,5.6,1.8,8.3,2.8c7.9,2.9,12.2,10.2,10.3,18.3c-1.2,4.8,1.3,8.5,2.1,12.6
			v4.8l-0.9,1.2c-2.1,2.7-5,4.9-8.1,3.3c-2.9-1.5-3.7-5.2-3.3-8.5c0.2-2,0.5-3.9,0.9-5.8c1.2-4.7-0.6-7.8-5-10
			c-3.6-1.8-7.3-3.3-9.9-6.8c-1.9-2.5-1-5.8-2.9-8.3c-2.7,4.9-1.4,11,3.1,14.3c4,2.9,9,4.5,11,9.8c1.5,3.9,0.5,7.2-1.6,10.4
			c-1.5,2.3-3.7,2.2-6,2.1c-1.1-0.1-1.4-0.6-1.2-1.5c0.1-0.1,0.2-0.2,0.3-0.3c7.9-3.5,8.6-9,1.7-14.6c-3-2.4-6.6-4-9.4-6.8
			c-2.9,0.9-2,4-2.5,5.7c-3.4,10.3-10.4,18.2-16,27c-3.9,6.2-8.6,11.9-12.2,18.4c-3.2,6.2-6,12.6-8.4,19.1
			c-4.3,11.1-9.4,21.7-17.2,30.9c-4.9,5.7-10.5,10.8-16.7,15.1c-2.4,1.8-4.7,3.8-7.1,5.7c-3.7,1.2-5.6,4.5-8.2,7
			c-12.2,11.3-18,26.3-23.1,41.6c-3.7,11.3-8.5,22.2-16.8,31c-5.9,6.3-12.9,11.2-22.1,11.9c-11.1,0.7-17.1-6.5-18.8-16.2
			c-2-11.2-0.5-22.4,0.7-33.6c0.6-6-0.4-11.9-2-17.6c-2.6-9.4-2.2-18.8-1.2-28.3c0.5-4.8,0.1-9.6,0.1-14.4c0-8.7,0-17.4,0-26
			c0-4.3-1.1-8.5-3.2-12.3L144.5,469.1z"/>
		<path class="st1" d="M319.3,410.6c5.5,2.6,10.8,5.5,14.1,10.7s-0.4,10.7-6.7,11c-1.5-6.7-4.2-13.1-6.9-19.4
			C319.5,412.2,319.4,411.4,319.3,410.6z"/>
		<path class="st1" d="M307.4,386.5c2.9,0.1,5.7-1.1,8.7-0.8c2.5,0.3,3.9,1.5,4,4c0.1,1.2,0,2.4,0,3.6c0,1.8,0.4,4.2-1.6,5
			s-2.6-1.7-3.8-2.8c-1.2-1.3-2.7-2.2-4.4-2.6C309.4,390.8,308.4,388.6,307.4,386.5z"/>
		<path class="st1" d="M301.6,404.2c3.5-1.9,4.8-6.1,8.3-7.9c0.8-0.4,1.2-2,2.6-1c1.2,0.9,0.7,1.9,0.4,2.9c-1.5,5.4-5,9.5-8.8,13.4
			c-4.8,5-9.9,9.6-14.5,14.7c4.4-3.9,8.9-7.8,13.2-11.8s7.8-8.9,11.3-13.7c-0.9,9.6-7,16.6-12.1,24.1s-10,15.1-16.2,21.8
			c3.5-2.7,6.5-6,8.9-9.7c2.5-3.8,5.4-7.5,8.2-11.2s4.6-7.7,7.3-11.3c2.8-3.8,4-8.2,6.1-12.2c0,9.6-2,18.5-7.5,26.4
			c-4.9,6.9-9.1,14.4-14.4,20.9c-9.9,12.2-14.1,26.9-20.4,40.8c-4.9,11.3-12.4,21.3-21.8,29.2c-3.8,3.1-8.3,5.2-12.2,8.2
			c-15.8,12.1-27.4,28.8-33.1,47.9c-2.9,9.4-6.5,18.6-11.8,27c-6.1,9.8-14.4,16.4-25.8,18.7c-5.5,1.1-13.1-3.4-15.1-9.4
			c-2.2-6.7-3-13.8-2.3-20.8c0.8-8,1.6-16.1,1.2-25.2c3.2,3.4,6.4,4.8,10.4,4.2s6.2-3.7,9.1-7.4c-2,1-3.8,2-5.6,3.3
			c-4.4,3.3-8.8,2.4-11.9-2.2c-5.3-7.8-6.4-16.6-5.7-25.6c0.6-8.3,0.8-16.6,0.6-24.9c-0.1-8.8,0-17.6,0-26.4c0-0.9-0.4-2.5,1.4-2.1
			c4.6,1,8.2-1.7,12.1-3c5.4-1.7,10-5.3,14.6-8.6c-4.6,2.2-9.1,4.5-13.6,6.5c-2.4,1.1-4.9,2-7.5,2.6c-5.2,1.2-10.6-4.6-9.8-10.6
			c0.7-5.3,2-10.6,3.1-16.1c12.5,8,25.8,9.9,39.8,6.7c-5.3,0.9-10.7,1-16,0.4c-6.9-0.9-13.9-1.6-19.5-6.8c-3.5-3.2-3.9-7.2-2.8-11
			c1.9-6.9,4.3-13.7,7.1-20.3c0.5-1.2,1.4-2.2,2.1-3.4c0.4-0.9,1.5-1.3,2.4-0.8c0.9,0.3,1.4,1.3,1.2,2.2c-0.5,6.8,1.4,13.6,5.5,19.1
			c4.4,6,11.2,9.1,18.6,10.6c20,4,38.7-0.7,57.1-7.9c6.7-2.6,13.5-5.5,19.4-9.5c12.6-8.5,25.2-17.2,35.5-28.7
			c0.6-0.6,0.9-1.4,0.9-2.2L301.6,404.2z"/>
		<path class="st1" d="M322.1,392.7c4.3,3.5,9.5,4.6,14.5,6.4c7.1,2.5,10,8.1,8.7,15.4c-0.7,3.5-0.8,7.2,1.7,10.7
			c3.2,4.4,1.6,8.6-2.9,9.6c-1.6,0.3-2,0-2.8-1.5c-2.3-4.1-0.3-8.1-0.1-12.1c0.2-5.5-0.8-8.2-5.7-10.5c-4.1-1.9-8.7-3.4-10.1-8
			C324.3,399.4,323.2,396.1,322.1,392.7z"/>
	</g>
</g>
</svg>
