<svg xmlns="http://www.w3.org/2000/svg" viewBox="0 0 486.45 1000.37">
    <g id="Ebene_2">
        <g id="HairBack">
            <path d="M175.9,171.67c0-13.8-.13-27.61-.09-41.41a25.78,25.78,0,0,0-1.52-8.36,40.5,40.5,0,0,1-1.79-17.26c.85-8-1.15-15.94-.74-23.94.79-15.4,3.22-30.48,10.51-44.27,6-11.36,14.59-20.5,26.16-26.3,5.65-2.83,11-6.55,17.49-7.52,5-.74,9.85-1.88,14.94-1.52,2.75.2,5.59-.64,8.24-.59,8.62.18,17.2,1.26,25.19,4.91,18.6,8.5,27.91,24,32.35,43.17,1.8,7.72,1.67,15.54,1.61,23.38-.07,9.78-.3,19.58.06,29.35.34,9.48-1.76,18.76-1.69,28.2a194.61,194.61,0,0,0,9.47,58C319.76,199,323,210.64,327.27,222c.58,1.53.12,3.44.23,5.18a28.38,28.38,0,0,0,6.55,16.72c3.7,4.44,4.95,10,5.41,15.62.4,5-.54,9.94-1.23,14.93s.54,10.44,2.19,15.43A44.58,44.58,0,0,1,342,312.4c-.88,4.74.43,9.42,1.68,14,.16.62.78,1.41.57,1.8-1.58,2.94-.15,6.27-.94,9-1.38,4.77-2.7,9.65-5.23,14.11-3.62,6.41-9.06,11.13-14,16.28a22,22,0,0,0-6.13,13.64c-.59,6.34-3,11.38-8.52,14.79-.33.21-.68.72-.94.67-5.86-1.09-12,3-17.69-1-2-1.39-4.2-1.4-6.47-1.33-6.88.23-13.61-1.06-20.27-2.53a13.39,13.39,0,0,1-6.2-3.15c-3.36-3.06-8-3.77-12.18-4.63a72.83,72.83,0,0,0-15.85-1c-5.53.09-10.49-.94-15-5.09-3.13-2.9-8.08-3.32-12.32-4.46a26.2,26.2,0,0,1-7.88-3.25c-.43-.29-.89-.8-1.31-.77-7.35.4-10.85-5.08-14-10.08-2.55-4.13-5.49-7.06-10-8-11.92-2.52-17.38-11.43-18.8-21.91-1.49-11-5.94-20.62-9.6-30.69-1.82-5-4.08-9.91-5.2-15.06-2.25-10.39-1-20.59,2.95-30.53A233.48,233.48,0,0,1,163,208.49c3-4.35,4.41-9.76,6.36-14.76,2.25-5.74,4.29-11.57,6.42-17.36C176.61,174.84,176.21,173.25,175.9,171.67Z"
                  style="fill:#bce2eb;stroke:#1d2644;stroke-miterlimit:10"/>
        </g>
        <g id="SkirtBack">
            <path d="M239.54,533.52a8.49,8.49,0,0,1,6.06-5.7c.22,8,.72,15.87,3.54,23.29a9.74,9.74,0,0,1-.9,5.69c-2.32,5.67-5.69,10.46-9.08,15.23-.7,1-1.61,1.91-2.91,1.6-.47-8.53,1.08-16.83,2.15-25.16C239,543.49,239.76,538.57,239.54,533.52Z"
                  style="fill:#a692c5"/>
            <path d="M235.86,573.18c5.92-5.39,10.81-11.46,13.11-19.25,1.22,1.13.85,2.59.46,3.78-2.41,7.36-7.51,13-12.58,18.64-.1.12-.42,0-.71.07C235.42,575.4,235.83,574.27,235.86,573.18Z"
                  style="fill:#67627b"/>
        </g>
        <g id="Skin">
            <path d="M190.67,240.09c-1.32.45-1.71,1.64-2.46,2.47-10.77,12-18.73,25.7-25.33,40.3-7.23,16-13.36,32.51-19.77,48.88-3.93,10-9.76,18.95-16.25,27.5-8.36,11-17.55,21.32-26.18,32.1a274.36,274.36,0,0,0-20.83,29C75.1,428.21,73,437,70.66,445.74c-1.47,5.59-1.79,11.35-2.94,17-1.62,7.95-6.25,14.4-10.56,21-.54.82-1.16,1.6-1.69,2.42-1.65,2.54-3.08,2.69-4.83.17A15.2,15.2,0,0,1,50.85,469a13.23,13.23,0,0,0,2.08-3.61c.6-1.93,1.13-4.14-.53-5.77-1.25-1.23-5.73-.2-7,1.41a47.71,47.71,0,0,1-9.09,8.65,55.47,55.47,0,0,0-11.7,12.85c-3.41,5-7.7,9.24-13.46,11.58a18.78,18.78,0,0,1-9,.95c-2.08-.2-2-1.7-1.21-3.12a36.09,36.09,0,0,1,5.08-7A91.33,91.33,0,0,0,16.31,472c2.26-3.68,3.49-8,5.71-11.7,4.21-7,7.55-14.62,13.31-20.65a81.4,81.4,0,0,1,10.22-8.89C52,426,56.6,419.58,60.78,412.88c7.56-12.1,13.42-25.05,18.58-38.32,4.53-11.63,8.48-23.51,13.39-35,3.71-8.64,7.43-17.43,13.35-24.92,2.69-3.4,6-6.31,8.8-9.61a105.55,105.55,0,0,0,16.15-25.79c5.83-13,10.91-26.43,17.09-39.3,5.09-10.59,9.29-21.58,14.89-31.92,3.53-6.54,7.41-12.76,12.59-18.17a20.93,20.93,0,0,1,15.89-6.61c9.19,0,18-1.56,26.18-5.74,5.46-2.78,9.85-6.49,11.44-12.79.73-2.92.4-4-2.42-5.23-7.17-3-13.67-7.21-20-11.58-8.72-6-14.11-14.53-17.71-24.3-2.83-7.68-3.79-15.71-4.42-23.83-1-13.19-1.69-26.4-1.83-39.62-.15-14.6,4.44-27.68,14.08-38.68,8.49-9.68,18.89-16.45,31.71-19.16,6.93-1.47,13.91-.5,20.87-.81A37.94,37.94,0,0,1,265,4.36c15,5.86,25.91,16.06,33.14,30.44,3,5.93,4.15,12.22,4.9,18.68,1.24,10.69.22,21.33-.6,32a45.09,45.09,0,0,0-.29,4.92,115.73,115.73,0,0,1-1.63,20.55c-1.76,11.54-6,22.15-14,31-5.29,5.84-12.22,9.39-18.76,13.47a56.28,56.28,0,0,1-8.38,4.15,3.34,3.34,0,0,0-2.25,3.66c.24,6.12,3.94,10.05,8.75,12.88a50.67,50.67,0,0,0,26.55,7.12,29.21,29.21,0,0,1,12.24,2.27,16,16,0,0,1,4.43,3.07c7.31,6.79,12.19,15.25,16.39,24.13,5.79,12.25,11.84,24.4,16.93,36.94s10.56,24.77,16.24,37a61.32,61.32,0,0,0,12.8,18.61c8.3,7.89,13.94,17.31,18.86,27.44,5.64,11.64,9.76,23.86,14.25,35.93,6.24,16.76,13.51,33,23.18,48.07A56.68,56.68,0,0,0,442.7,432.5c7.55,5.34,13,12.34,17.36,20.45,3.1,5.78,6.32,11.48,9,17.51,1.85,4.23,5.25,7.52,8.18,11.06,2.73,3.28,5.76,6.33,7.89,10.08.43.76,1.22,1.5.67,2.48s-1.76,1-2.84,1.07c-8.73.7-15.1-4-19.56-10.39a95.89,95.89,0,0,0-17.43-18.59,41.81,41.81,0,0,1-4.73-4.68,5.89,5.89,0,0,0-3.73-2.1c-3.78-.62-5,.55-4.44,4.44.34,2.37,1.81,4.19,3,6.17a14.81,14.81,0,0,1,.31,15.19,7.65,7.65,0,0,1-2.11,2.38,1.65,1.65,0,0,1-2.72-.39c-6-8.73-12.53-17.28-13.67-28.29A113.91,113.91,0,0,0,415,443.16c-2.58-10.44-6.37-20.31-12.54-29.28-11.25-16.36-24.25-31.31-36.74-46.67-8.74-10.75-17.06-21.76-22.28-34.74-4.68-11.66-9-23.47-13.81-35.09-5.54-13.45-11.39-26.73-19.48-39a174.71,174.71,0,0,0-13.35-17.34c-.3-.35-.48-.89-1-.9,0,2.61-.1,5.21,0,7.79.39,8.69-3.76,14.93-10.59,19.65a6.35,6.35,0,0,0-2.89,4.81c-.51,3.64-1.42,7.23-2,10.86a91.41,91.41,0,0,0-1.68,11.92c-.35,10.57-2.27,21.12-.3,31.72.45,2.41,0,4.91.48,7.37,1.65,8.53,6.23,15.74,10.81,22.79a357.83,357.83,0,0,1,26.36,47.33A263.92,263.92,0,0,1,328.59,438c5.34,17.93,6.83,36.27,5.94,54.82-.33,6.93-1.78,13.8-3,20.68-1.89,10.91-5.66,21.35-7.52,32.3-1.58,9.33-3.41,18.67-5.9,27.86-1.57,5.76-2.22,11.76-3.29,17.64-1.64,9-3.22,18.07-5,27.08-.75,3.86-1.76,7.67-2.8,11.47-1.51,5.46-2.24,11.08-3.58,16.57-.95,3.89-2,7.77-2.83,11.69-1.1,5-1.37,10.08-2,15.12A94.61,94.61,0,0,0,299,698c1.11,7.81,2.72,15.49,4.13,23.23,3.33,18.34,6.49,36.74,5.8,55.47-.41,11.07-1.25,22.14-2.69,33.14S303.51,832,302,843.06c-1.08,8-2.61,15.88-3.49,23.87-1.3,11.85-2,23.75-1,35.67a106.51,106.51,0,0,1,.56,14.28c-.37,8.1,1.5,16,1.71,24.08.08,3,1.3,6.07,2.62,8.92a76.45,76.45,0,0,1,6.29,20.64c1.8,11.93-3.23,19.17-14.42,23.79-1.6.66-3.15,1.39-4.74,2.05-6.87,2.9-13.95,4.58-21.25,1.87-6.86-2.55-12.36-10.46-12.67-18.52-.33-8.7,1.78-17,4.8-25,2.31-6.13,4.06-12.27,3.66-18.92-.23-3.93-.07-7.89-.12-11.84a46.22,46.22,0,0,1,1.76-11.39A107.19,107.19,0,0,0,268,899.51a208.77,208.77,0,0,0,1.49-29.25,291.39,291.39,0,0,0-2.67-30.64c-1.2-9.13-3.16-18.09-4.81-27.12s-3.42-17.86-5-26.82c-1.47-8.17-2.69-16.38-3.44-24.61-1.2-13.08-2-26.18-.59-39.37.72-7,1.17-14.09,2.06-21.06a137.75,137.75,0,0,0,1.17-22.84c-.57-14.7-1.42-29.37-1.66-44.09-.16-9.83-.95-19.68-1.5-29.52-.48-8.58-.57-17.23-2-25.77-.66-3.87-.17-7.86-.65-11.8-1-8-1.9-16-3.21-23.9-.78-4.76-1.24-9.62-1.59-14.42-.48-6.71-1.49-13.4-1.16-20.17a157,157,0,0,1,1.93-18.6,92.57,92.57,0,0,1,5.44-20.37c.6-1.45.22-2.07-1.39-1.6a25.67,25.67,0,0,1-14.56,0c-1.46-.41-1.73,0-1.19,1.47a117.25,117.25,0,0,1,7.21,46.39c-.34,8.53-1.44,17-2.53,25.48-1.43,11.06-3.15,22.07-3.83,33.23-.86,14.1-1.93,28.17-2.55,42.29-.69,16-1.89,32-2,48,0,5.06-.71,10.14-.92,15.23-.38,8.92.83,17.69,1.81,26.49C233,717.06,234.15,728,234,739a314.07,314.07,0,0,1-2.71,33.84c-1.08,9-3,17.79-4.34,26.7-.75,4.93-2.1,9.76-3,14.66-1.16,5.95-2,12-3.29,17.89-2.08,9.75-2.58,19.68-3.58,29.55a145.58,145.58,0,0,0,0,23.9c.24,3.69.94,7.35,1.08,11A91.12,91.12,0,0,0,221,914.78a54,54,0,0,1,1.26,13,42,42,0,0,1-.06,4.2c-.86,8.73,1.28,16.86,4.33,25s4.89,16.84,3.64,25.82c-1,7.41-7.45,14.22-14.72,16.11-6.65,1.73-12.68-.07-18.64-2.42-2.41-.95-4.85-2-7.21-3.11-10.05-4.88-14.13-13-11.73-24.54a111.62,111.62,0,0,1,6.69-20.8,28.32,28.32,0,0,0,2.06-8.6c.94-11,1.55-22,2-33,.21-5.5.58-11,.54-16.5a229.83,229.83,0,0,0-2.6-31.88q-2.41-16.69-4.51-33.43c-1-8.22-2.4-16.4-3.07-24.67-1-11.87-2.43-23.75-1.55-35.67.5-6.86,1-13.74,2-20.59,1.23-8.62,3-17.14,4.44-25.7,1.16-6.78,2.78-13.5,3.45-20.36.51-5.22,1.95-10.4,1.18-15.67-1.18-8.11-1.06-16.35-3.07-24.39-2.67-10.64-4.76-21.43-7.29-32.12-2.2-9.26-3.59-18.67-5.48-28-2-9.63-3.4-19.36-5.88-28.9-1.87-7.2-3-14.61-4.32-21.95-1.49-8.32-3.71-16.46-5.9-24.6-1.64-6.11-2.48-12.38-3.55-18.6-1.58-9.22-1.65-18.5-1.32-27.76a153.31,153.31,0,0,1,7.86-43.44,316.21,316.21,0,0,1,27.89-60.27c4.88-8.28,10.4-16.15,15.08-24.58,3.63-6.51,5.2-13.32,5.83-20.59a147.33,147.33,0,0,0-.17-25.12,179.1,179.1,0,0,0-3-22.66c-.62-2.87-1.08-5.79-1.71-8.67a3,3,0,0,0-1.38-2.19c-9.71-6-13.25-14.78-11.37-25.91.1-.56.15-1.14.21-1.71C190.87,240.43,190.8,240.36,190.67,240.09Z"
                  style="fill:none;stroke:#000;stroke-miterlimit:10"/>
        </g>
        <g id="Koi">
            <path d="M373.16,344.46c-1.82-6.17-4.26-12.19-5-18.76-.24-3.78,0-7.95,2.09-11.21a4.94,4.94,0,0,1,8.34,1c1.81,3.07,2,7.74,5.38,9.32a9.35,9.35,0,0,1,5.09,7.09c1.08,5.77-.94,10.47-.62,16.28-.2,3.11-.66,6.36-2.29,9a11.1,11.1,0,0,0-8.73,9.41c-.51,2.64,0,6.13-2.33,7.84-2.56,1.35-5-1.7-5-4.45a26.85,26.85,0,0,1,4.6-15.92c1.76-1.94,1.42-5,.18-7-.48-1-1.22-1.71-1.74-2.62Z"
                  style="fill:#e52521"/>
            <path d="M279.43,414.55c5.62-16.1,12.33-32.47,11.58-48.87-.53-2.44.39-9.17-4.35-8-.93,1.8-3.25,4.51-4.1,1.35-5-2.88-12.54-4-18.76-1.41-7.06,2.25-13.05-1.21-18.62-3.31-5.14-2.2-10.4.7-15.72,1.07-5.68.42-13,.23-16.63,4.32-4.88,5.6-10.66,10.8-15.14,16.56a25.9,25.9,0,0,1-12,7.68c-6.77,3.22-9,9.7-6.77,14.75a17.82,17.82,0,0,0,12.84,13.2c5.71,2.64,13.21,2.1,19.27-.61,6.53-2.69,12-7,14.1-12.25,1-5.38,8.56-7.94,14.6-5.37,6.93-.07,8.66,7.31,16,5.74,5.92-2.27,15.26-1.16,16,4.11-1.91,4.57,1.88,8.93,7.23,10.78l.49.24Z"
                  style="fill:#e52521"/>
            <path d="M232.43,196.49c6.19-1.37,12.93-3.72,19.08-.93,10.09.73,7.8,7.86,1.59,9.71-3.28,1.49-6.76,2.6-9.94,4.55-10.35,5.37-21.32,10.24-29.77,18.47-9.15,10.6-13.64,37.38-13.64,37.38a15.84,15.84,0,0,1,7.31-.91c5.79.45,10.05-3.93,14-7.2,5.47-1.8,13.14-1.23,16,4.53,3.78,5.74,11.72,8.86,18.19,6,1.92-3.56,5.27-13.53,10-7,2.52,4.36,5.17,10,10.88,10.5,7.17,1.29,9.28-7.06,7-12.35-1.58-4.87-.2-12.67-7.28-13.29-4.78-.1-10.53-4.33-5.53-8.79,4.49-4.94,11.51-9,12.14-16.33.33-4.65-5.58-7.14-8.22-10.41-3.59-5.46,6.74-8.86,7.93-13.59,2.18-6.27-3.05-12.23-7.89-15.55-7.94-6.11-19-3.31-26.84,1.5-4.64,3.62-10.32,5.86-14.46,10.08a3.17,3.17,0,0,0-.54,3.63Z"
                  style="fill:#e52521"/>
            <path d="M152,292.83c-2.24-1.19-3.7,2.18-2.76,4.28.49,1.91-1.14,5-2.84,2.83-2.16-3.08-1.55-7.14-.42-10.19,1-3.18,2.33-6.23,2.66-9.67-.08-2.17.37-4.8-1.15-6.63-1.85-1.89-4.35-1.67-6.52-2.41-4-1-7.65,2.3-8.47,6.51a10.61,10.61,0,0,0,.51,6.85c3.62,10,7,20.13,10.53,30.2a24.31,24.31,0,0,0,2.73,4.54,1,1,0,0,1,.27-.14,1,1,0,0,1,0-.24h0c1.62-1.08,3.08-3.92,1.19-5.89-1.3-2.14-.45-5.35,1.66-5.85,2.23-1.4,2.56-4.58,3.42-7.09C153.09,297.65,153.62,294.87,152,292.83Z"
                  style="fill:#e52521"/>
            <path d="M274.05,116.08c.86,3.28,5.26,2.22,6.4-.39,1.35-2,5.64-2.64,5.1.81-1,4.66-5.28,7.13-9.11,8.29-3.79,1.44-7.83,2.35-11.31,4.65-1.94,1.76-4.78,3.31-5.16,6.33-.15,3.39,2.24,5.86,3.44,8.71,2.62,5,8.82,6.29,13.46,3.92a11.44,11.44,0,0,0,5.91-5.82c5-9.38,10.2-18.64,15.35-27.93a9.33,9.33,0,0,1-1-2.67c-.09-.45-.16-.91-.25-1.36-.05-.23-.1-.47-.16-.71l-.08-.23a.31.31,0,0,1,0-.08c-.07-.18-.19-.55-.32-.63l.13.19-.14-.2c-.09-.12-.18-.23-.28-.34l-.24-.26,0,0s0,0-.08-.06l-.58-.53-.23-.24a4.23,4.23,0,0,1-5.35.38c-3.24-1.27-6.49.84-9.57,1.87C277.54,111.17,274.5,112.74,274.05,116.08Z"
                  style="fill:#e52521"/>
        </g>
        <g id="Clownfish">
            <path d="M323.54,215.9c-.91-10.14-8.43-25-14.66-26.76s-14.72,12.12-22.75,16.36a93.25,93.25,0,0,1-25.47,9.12c-7.52,1.36-15.72,1.94-22.77-.45-10.4-3.52-30.26-15.41-39.57-20.69-3.71-2.11-9.43-6.1-13-8.65l-.16.07a.7.7,0,0,1-.2.08,3.6,3.6,0,0,1-.57.2c-.17,0-.34.1-.52.13a1.18,1.18,0,0,1-.37.05l-.14,0a1.32,1.32,0,0,0-.33.08l.33-.14h0a5.51,5.51,0,0,1-.74.27l-.14.07a1,1,0,0,1-.26.11l-.71.44c-.28.17-.56.35-.85.5s-2.59,2.08-2.77,2.25a6.12,6.12,0,0,1-.64.5A1.48,1.48,0,0,1,176,190c-9.06,11.45-24.59,32.51-20.26,37.3,5,5.49,12.87,8.05,19.62,11.44a208.81,208.81,0,0,0,20.89,8.93c8.17,3,20.19,7.47,28.11,9.38,6.29,1.52,12.93,3.1,19.44,2.11,6.93-1.05,14.73-5.72,22.16-8.41s15.94-3.75,22.78-7.88C298.31,237,324.37,225.2,323.54,215.9Z"
                  style="fill:#e94e1b;fill-rule:evenodd"/>
            <path d="M304.19,382.66c-.05-.35-.12-.78-.2-1.24l-.16-.11a1.86,1.86,0,0,1-.3-.38,5.21,5.21,0,0,1-.48-.87l0-.1a4.79,4.79,0,0,1-.36-.88c-.05-.19-1.24-2.54-1.33-2.66a41.66,41.66,0,0,1-2.75-4.54l-.06-.06a1,1,0,0,1-.2-.32.54.54,0,0,1-.09-.12l-.14-.33c-.12-.17-.26-.35-.37-.53a2,2,0,0,1-.16-.4,2,2,0,0,1-.24-.26c-.09-.15-.17-.3-.25-.45l0,0a7.82,7.82,0,0,1-.86-1.21,1,1,0,0,1-.19-.27,8,8,0,0,0-.46-.93,3.07,3.07,0,0,1-.23-.39,5,5,0,0,1-.2-.49,5.33,5.33,0,0,0-.55-.95.7.7,0,0,1-.13-.24,1.44,1.44,0,0,1-.32-.58v-.07l0,0c0-.06-1.28-1.87-1.3-1.89s-1.16-1.59-1.36-1.93-.34-.57-.53-.84a10.11,10.11,0,0,1-.9-1.17,1.39,1.39,0,0,1-.12-.28,1.26,1.26,0,0,1-.41-.58c-4,1.68-10.1,1.85-15.12,2.82-6.16,1.19-15.22,3.09-21.61,4.21-8.33,1.47-19.37-.53-29-1.59-6.86-.75-19.41-2.78-27.54-4.15a1.79,1.79,0,0,1-.18.33c-1.54,2.2-2.54,4.75-4.34,6.72,0,.17-5.72,9.08-6.53,11-.16.38-2.69,4.16-3.42,6-.57,1.39-3.53,6.46-4.2,7.91-.15.34,8.15,0,11.32,1.46C195,394.94,205.52,402.29,213,408s15,16.33,20.86,18.62c4.52,1.77,9.84-2.42,14.15-4.9,5-2.85,10.45-8.06,15.56-12.22,5.35-4.35,11.6-9.7,16.51-13.89,4.36-3.73,8.66-8.91,13-11.29C302.45,379.18,304.69,386.32,304.19,382.66Z"
                  style="fill:#e94e1b;fill-rule:evenodd"/>
            <path d="M232.18,762.53a1.68,1.68,0,0,1,.06-.74,51,51,0,0,1-9.35,1.22c-6.4-.09-15.75-.22-22.93-2.9s-20.76-13.43-20.76-13.43-3.62,30.25-1.37,35.87c3.2,8,23,7.36,31.43,8.66,6.27,1,18,5.14,19.06-.84.12-.68.3-1.43.5-2.22.3-1.71.43-3.44.66-5.15.31-2.33,2-12.59,2.09-13.76.13-2,.54-4,.62-6A1.78,1.78,0,0,1,232.18,762.53Z"
                  style="fill:#e94e1b;fill-rule:evenodd"/>
        </g>
        <g id="Whales">
            <path d="M187.3,712.76c1.2.12,2.65,8.15,6.65,16.43,4,8.12,7.09,17.76,8.28,21.31a55.28,55.28,0,0,0,2.18,7.54c1.53.09,2.33-.57,3.71-1.11,1.41,1.35,3.91,11.3,8.48,22.26,2.07,9.25-5.74,28.1-9.19,41.85-1.9,4.31-4,7.89-6.61,8.47l-15.56.09c-.46-1-3.21-10.34-4-12.94a268,268,0,0,1-3.75-41.58c.15-8.42.34-17.6,1.72-25.71,2-11.74,3.24-21.09,5.59-31.6.88-2.24,1.53-2.62,2.45-5Z"
                  style="fill:#f6f6f6;stroke:#1d1d1b;stroke-miterlimit:10;fill-rule:evenodd"/>
            <path d="M179.24,222.05a4.25,4.25,0,0,0,3.73,1.09c1.06-.5,1.24,1.93,5.77,1,2.62-1.79,9.61-3.84,15.07-7.79a104.65,104.65,0,0,0,14.53-14.73c2.94-4.67,6.64-11.21,5.12-13.43-3.18-1.09-6.77-.91-11.34,1.51-6.59,3.67-12.23,8.55-18.14,12.57a40.36,40.36,0,0,0-10.6,8.57c-2.14,2.85-5.44,8.8-4.14,11.17Z"
                  style="fill:#f6f6f6;stroke:#1d1d1b;stroke-miterlimit:10;fill-rule:evenodd"/>
            <path d="M199.22,508.61c-3.17-6.33-12.17-14.85-13.3-17.79,1.55-8.16-7.84-19.94-9.34-28.89-.54-4.2-1.13-10.45-2.62-12.21-2.26-1-5.43-.21-7.78,1.11-3.35,3.22-5.21,8.27-7,11.26A59.67,59.67,0,0,0,152,481.46c-.06,8.21,0,18.19,2,25.56.91,3.38,3,9.06,5.38,11.4.95.81,4.53.61,14.42,3.13,5-1.44,9.86-3.69,15-4.33a18.24,18.24,0,0,1,7.64,2.6C197.86,521.09,200.62,511.18,199.22,508.61Z"
                  style="fill:#f6f6f6;stroke:#1d1d1b;stroke-miterlimit:10;fill-rule:evenodd"/>
            <path d="M258.32,318.18c.1-2.4,2.59-12.33,3.87-18.38,1.39-6.95,3.39-16.33,4.15-20.25,2.14-1.19,10.19,10.28,10.42,13.3.92,3.62.77,19.31-.92,20.83-3.54,2.51-16.13,6.44-17.52,4.5Z"
                  style="fill:#f6f6f6;stroke:#1d1d1b;stroke-miterlimit:10;fill-rule:evenodd"/>
            <path d="M288.06,519.71c1.18-1.48-.26-4.54-1-7.67a497.65,497.65,0,0,1-25.34-97.47c.81-4.69,2.58-7.57,4.65-7.21,4.88,2.39,9,8.9,11.22,13.2,10.92,28.16,15.31,58.42,25,86.8,3.95,7.86,6.49,14.89,8.87,17.37,1.51,2.83,6.12,5.69,9.8,5.22h0c7.67-7,9.85-17.18,12.21-26.93,1.36-17.43.56-44.92-2.44-56.13-5.18-19.18-13.05-39.28-28.36-54.34-26.6-30.4-35.36-29.56-39.31-38.56a59.18,59.18,0,0,1-9.08-10.54,2.85,2.85,0,0,1-1.1-.48c-3.78-2.66-7.93,28.41-4.87,46.78a438.84,438.84,0,0,0,18.11,74.95c5.08,18.41,11,35.85,16.26,53C284.31,518.4,286.92,520.36,288.06,519.71Z"
                  style="fill:#fff;stroke:#1d1d1b;stroke-miterlimit:10;fill-rule:evenodd"/>
            <path d="M347.69,273.81c2.17-2.69,0-9.84-1.7-13.31a36,36,0,0,0-9.94-10.66c-5.76-5.06-11-11.11-17.61-15.8-4.65-3.11-8.77-3.54-12.77-2.46-2.39,2.5.08,10.37,2.2,16,4.28,7.55,8.91,14.12,12.8,18.11,5.25,4.95,12.81,7.77,15.36,10,5,1.32,5.92-1.51,7-.86a5.65,5.65,0,0,0,4.65-1.05Z"
                  style="fill:#f6f6f6;stroke:#1d1d1b;stroke-miterlimit:10;fill-rule:evenodd"/>
        </g>
        <g id="Shoes">
            <path d="M250.76,576.57c3.26,1.31,7.15.81,10.11,3.21.94.77,2.55-.1,3.44-1.18,2.35-2.86,5.28-2.39,8.27-1.14,6.42,2.69,8.51,2,13-3.18,2.9-3.37,5.92-6.53,11.45-6.94a10.57,10.57,0,0,0,9.36-6.43c1.8-4.2,5.29-6.88,9.85-8.83,7.46-3.19,10.3-9.12,10.18-16.41,6.18-.75,8.81-5.37,12.1-9.37-2.85.3-4.75,2-6.79,3.62-1.59,1.26-2.57,3.47-5.3,3.13,0-1.85-1-4.89.44-5.34,5.08-1.53,8.12-7.07,14.34-6,2.5.42,3.73,1.42,2.62,4.17-6.84,16.93-13.08,34.07-20.33,50.85-7.67,17.76-9.83,36.68-15.16,54.92a162.61,162.61,0,0,0-6.52,37.45c-.49,9.46,1.14,18.53,2.67,27.74,1.94,11.7,4.46,23.31,6.69,35,3,15.63,3.09,31.34,2.28,47-.6,11.58-1.49,23.24-4.06,34.73-1.61,7.18-1.86,14.62-2.92,21.92-1.21,8.32-2.7,16.61-4,24.93-.57,3.71-1.06,7.44-1.35,11.18-.38,4.85-.49,9.74-.67,14.58a125.51,125.51,0,0,0,1.38,21.76c.62,4.58-.25,9.31.24,13.92.89,8.48,0,17.25,3.84,25.3a101.76,101.76,0,0,1,7.31,19.82c3,12.68-1,22.36-15.92,27.35-5.43,1.82-10.49,4.21-16.44,4.86-10.62,1.15-18.61-2.14-23.37-10.79-4.23-7.69-2.53-15.73-1-23.67,1.44-7.29,5.45-13.89,7.15-21.15a13.19,13.19,0,0,0,.52-3.54c-.57-13.65,1.44-27,4.12-40.42a140.89,140.89,0,0,0,2.05-41.36c-1.6-16-3.73-32-7.74-47.82-3.8-15-6.63-30.23-9-45.47-1.13-7.28-1.75-14.72-2.19-22.13-.38-6.23-.84-12.45-.69-18.67.3-11.84,2-23.56,3.47-35.31a163.3,163.3,0,0,0,.3-34.88,163.38,163.38,0,0,1-1.14-17c.17-13.34-2.66-26.36-5.59-39.33a152.82,152.82,0,0,0-6.63-22.15c-1.22-3.14.72-6.28,4-7.63,1.78-.74,3.49-1.69,5.42-2.41v3.78a16.57,16.57,0,0,1-2.32,1.13c-2,.94-4.14,2-3.08,4.54S248.44,577.23,250.76,576.57Z"
                  style="fill:#1d2644"/>
            <path d="M326.43,533.05c3.53-2.23,5.82-5.81,9.75-7.6,1.25-.58,3-1.69,4-.84,1.55,1.29-.48,2.39-1.23,3.38a38.91,38.91,0,0,1-9.08,8.23c-1.81,1.26-2.45.48-3.43-.55C326.42,534.8,326.42,533.93,326.43,533.05Z"
                  style="fill:#6c688f"/>
            <path d="M250.76,576.57c-1.24,3.16-3.36,1.79-5.09.64-2.3-1.53-3.21-3.73-1.14-5.87,1.49-1.53,3.44-2.93,6.1-2.2C250.67,571.62,250.72,574.09,250.76,576.57Z"
                  style="fill:#6c688f"/>
            <path d="M279.65,613.44c-.45-11.14-3.2-21.88-7.33-32.8,4.88,1.56,9.11,1.36,13.61-1.8-1.34,12-1.89,23.31.15,34.58.35.34.75.5,1-.06a1.24,1.24,0,0,0-.33-1.49c.11-8.68-2-17.35,0-26,.76-3.29,1.08-6.66,1.91-9.92.52-2,2.3-3.44,4.26-4.51,4-2.16,4.44-1.85,4.69,2.31a28.59,28.59,0,0,0,1.76,8.25,56.37,56.37,0,0,0,0-6.1c-.47-4.25,0-7.84,6.29-8.12-1,6.34-3,12.79-2.78,19.46-.31.83-1,1.82.92,1.6.46-7.95,2.32-15.72,4.06-23.48,1.52-6.73,7.1-10,14.15-12.45-2.1,5.23-4.21,10.1-4.27,15.54,2.91-7.26,6-14.46,8.64-21.82,1.85-5.23,4.71-9.43,10.72-11.8-.23,4-2.47,7.26-3.84,10.69-5.69,14.21-11.71,28.3-17.62,42.43-2.66,6.38-3.11,13.21-4.82,19.79-3.53,13.6-7.28,27.18-10,40.92A124.91,124.91,0,0,0,299,679.73c.94,17.86,5.57,35.18,8.55,52.73,3.66,21.55,3,43.07.14,64.56-2.68,19.79-6,39.49-9,59.25a210.65,210.65,0,0,0-1.42,48c1,12.29,2.37,24.57,3.91,36.82.88,7,5.23,13.14,7.28,19.9A54.78,54.78,0,0,1,311,972.54c.71,9.06-2.92,14.23-13.13,18.24-5,2-9.9,4.1-15.39,5.23-14.61,3-24.05-6.75-24.43-17.74-.34-9.76,3.15-18.87,6.59-27.92,2.21-5.8,3.61-11.56,2.83-17.85-1.13-9.16.81-18.14,3-27.09,2.09-8.34,2.59-16.92,3-25.43,1.16-22.74-2-45.16-6.89-67.42-4.69-21.15-9.47-42.28-11.44-63.86-1.11-12.23-2-24.43-.74-36.65,1-10.12,2.15-20.25,3.11-30.37,1.11-11.65.67-23.4,0-35.12-.63-10.28-1.28-20.53-3-30.74a271,271,0,0,0-8.68-35c2.45-.45,5,.28,7.48-.61,1.92-.68,2.5,1.1,2.82,2.33a149.6,149.6,0,0,1,4.5,29.62,24.24,24.24,0,0,0,1.82,9.15c.21-14-1.12-27-5.14-40.05,3.37,1.75,6.3,1.79,9-1.07,1.84-1.94,3.48-1.35,4.6,1.09,3.07,6.6,4.6,13.56,5.93,20.56.84,4.36,1.31,8.78,1.95,13.18C280.93,615.41,279.7,614.15,279.65,613.44Z"
                  style="fill:#c1b3d8"/>
            <path d="M303.71,588.8c-.12.82.37,2.59-.84,2.1-1.6-.64-1.1-2.41-.08-3.7C303,587.79,302.83,588.54,303.71,588.8Z"
                  style="fill:#6c688f"/>
            <path d="M279.65,613.44c1.25,1.11.8,2.39.5,3.68-1.42-.2-1.51-1.09-1.41-2.07C279.62,614.79,279.47,614,279.65,613.44Z"
                  style="fill:#6c688f"/>
            <path d="M286.72,611.87a4.41,4.41,0,0,1,.82,3.86c-1.32-.44-.89-1.63-1.46-2.31C286.3,612.9,286.51,612.39,286.72,611.87Z"
                  style="fill:#1c2f56"/>
            <path d="M217.6,854v-3.78c1.06,0,1.16,1.21,1.63,1.43,7.62,3.71,5.45,9.43,3.27,15.19-3.86,10.21-3.61,20.64-2.73,31.37.71,8.53,4.81,16.79,3.4,25.22-2.29,13.72,2.4,25.88,6.33,38.37,2.47,7.84,3.31,15.87,1.47,24-2.14,9.42-13,15.72-22.6,14.39a56.71,56.71,0,0,1-24.75-10c-7.55-5.19-8.4-13.27-7.13-20.4,1.68-9.51,5.11-18.53,8.78-27.41,1.71-4.16,1.19-8.48,1.59-12.62,1.65-17,2.74-34-4-50.34a190.53,190.53,0,0,1-10.46-32c-.58-2.67-.87-5.41-1.32-8.11a4.27,4.27,0,0,1,2.21-4.57,3.88,3.88,0,0,1,4.92.11c3.73,3.09,9,5.18,7.94,11.57-2.46-.14-3.14-2.52-4.71-3.77-1.79-1.43-3.09-3.49-6-4.66,1.72,5.93,3.28,11.1,9,13.53a3.1,3.1,0,0,1,1.67,1.79,28.94,28.94,0,0,1,14.4,10c3.16,4,8.45,1.81,12.84,1.07,1.4-.24,2.67-1.29,4-2C220.77,859,220.77,859,217.6,854Z"
                  style="fill:#1d2644"/>
            <path d="M186.14,853.26c-7.59-1.94-9.63-8.33-11.79-14.64-.27-.8-.26-1.16.53-1.6a2.35,2.35,0,0,1,3,.7c2.85,2.81,5.56,5.75,8.32,8.65C186.14,848.67,186.14,851,186.14,853.26Z"
                  style="fill:#6c688f"/>
            <path d="M217.6,854c.43.34.87.66,1.28,1,1.26,1.1,4,1.6,3.29,3.55-.65,1.79-2.17,3.85-4.79,3.85C217.45,859.59,217.53,856.79,217.6,854Z"
                  style="fill:#6c688f"/>
            <path d="M174.52,847.29c2.9,6.49,9.24,7.92,14.86,10,4.26,1.56,6.46,4.31,8,8.31,3,7.66,2.79,15.81,3.93,23.74.32,2.19,1.27,4.16,1.44,6.35a111.87,111.87,0,0,0-2.93-28.7c6.19,1.39,12,1.34,17.67-1.32.72-.34,1.51-1.09,2.22-.21.58.72,0,1.5-.22,2.31-1.3,4.09-2.54,8.19-3.67,12.33-1.46,5.36-.31,10.75.2,16.09a75.13,75.13,0,0,0,2.41,13.59,42.29,42.29,0,0,1,1.47,16.65c-1.38,12,2.55,22.73,6.19,33.71,2.37,7.15,3.67,14.55,2.38,22.2-1.76,10.5-11,16.77-21.48,14.68a55.78,55.78,0,0,1-21.56-9.25c-5.84-4.12-7.25-10-6-16.66.84-4.51,1.43-9.09,3.29-13.38,4.34-10,6.34-20.47,7.55-31.35,1.76-15.87,1.92-31.34-4-46.45-3.36-8.48-6.55-17-9.72-25.59C175.65,852.05,175.17,849.64,174.52,847.29Z"
                  style="fill:#c1b3d8"/>
        </g>
        <g id="Eyes">
            <path d="M227.39,107.18l-.26-.26a1.51,1.51,0,0,1-.2-.17l.22.08a1.09,1.09,0,0,0,.21.09l0,0,0,0a4.94,4.94,0,0,0-1.17-1.27l-.32-.32-.37-.37c-.26-.28-.54-.58-.77-.86s-.41-.48-.61-.69a11.8,11.8,0,0,0-1.61-1.49A22.44,22.44,0,0,0,219.8,100c-.88-.51-1.81-1-2.84-1.46s-1.9-.76-3-1.12c-.2-.07-.39-.11-.57-.17a7.71,7.71,0,0,1-1-.35l-.13,0s.07,0,.09,0a5.72,5.72,0,0,0,1,.37,4.74,4.74,0,0,1,.57.17c1.09.37,2.08.73,3,1.12A19.85,19.85,0,0,1,219.8,100a22.34,22.34,0,0,1,2.74,1.93,13.61,13.61,0,0,1,1.59,1.49c.22.22.41.45.61.69s.49.6.77.86c.11.13.24.24.37.37l.32.32a5.48,5.48,0,0,1,1.14,1.25l-.19-.06a2.67,2.67,0,0,0-.26-.09h0l0,0a1,1,0,0,0,.24.22,1.15,1.15,0,0,1,.23.21,14.29,14.29,0,0,0-2-.19h0c-.26,0-.51,0-.75,0a11.3,11.3,0,0,0-1.94.12l-.65.07a24.29,24.29,0,0,0-2.62.43l-2,.39h0c-.41.08-.84.15-1.25.24a1.84,1.84,0,0,0-.62.28.93.93,0,0,1-.2.1h0a9.78,9.78,0,0,1-2.33,1,7.34,7.34,0,0,1-1.55.15h-.28c-.47,0-1,0-1.42,0-.88,0-1.81,0-2.69.1a8.56,8.56,0,0,0-3,.67,2.82,2.82,0,0,0-.71.63,3.21,3.21,0,0,1,1.36-1.32,5.94,5.94,0,0,1,1.74-.64v0a4.91,4.91,0,0,0-.79-.08,6.52,6.52,0,0,0-1.66.24,7,7,0,0,0-1.77.73,6.34,6.34,0,0,0-.6.41l-.48.34a8,8,0,0,1,1.08-1.1,6.66,6.66,0,0,1,1.36-.84c.21-.08.43-.17.64-.23l.28-.09v0h-.73c-.39,0-.82,0-1.2,0a7.12,7.12,0,0,0-3.06.86,5.4,5.4,0,0,0-.71.45h0c-.08.07-.17.11-.25.18a4.94,4.94,0,0,1,2.09-1.75,5.46,5.46,0,0,1,1.48-.47.2.2,0,0,0,.11,0c.13,0,.26,0,.39-.09v0a7.2,7.2,0,0,0-3.19.3,10.3,10.3,0,0,0-2.69,1.36l-.18.08a3.86,3.86,0,0,1,.8-.82,7.7,7.7,0,0,1,1-.6,8,8,0,0,1,1.51-.52.24.24,0,0,0,.15-.06l0,0h0a13.5,13.5,0,0,0-2.91.34,10,10,0,0,0-2.9,1.1,5.92,5.92,0,0,1,2.41-1.61c.19-.07.41-.11.6-.16l.43-.08v0c-.47,0-.92-.07-1.4-.11a10.66,10.66,0,0,0-2.65,0,5.7,5.7,0,0,0-.9.17h0a1.46,1.46,0,0,0-.17,0,5.72,5.72,0,0,0,.64-.41l.33-.21a4.05,4.05,0,0,1,1.35-.61,3.73,3.73,0,0,1,1.45,0v0c-.37-.13-.72-.26-1.06-.41a13.14,13.14,0,0,0-3.38-1h.06l.24,0v0a5,5,0,0,1-2.41-1,.47.47,0,0,0,.1,0h0a4.78,4.78,0,0,0,1.33.32v0a6,6,0,0,1-1.61-.65,8.9,8.9,0,0,1-2.07-1.76,8.08,8.08,0,0,0,4,1v0l-.68-.35h0l-.22-.12a.68.68,0,0,0-.17-.09h0l-.41-.26a7.38,7.38,0,0,0,1.76.65l.2,0a1.54,1.54,0,0,0,.67.09h0l0,0a3.33,3.33,0,0,0-.78-.62l0,0a3,3,0,0,1,.73.32l.41.22a.64.64,0,0,0,.52-.05l.19-.06a.72.72,0,0,1,.19,0,1,1,0,0,0,.35-.13l0,0h0a4.6,4.6,0,0,1-1.47-.95c.33.13.63.3.93.45l.45.24h0a1,1,0,0,0,.72.13l1.12-.31v0a7.74,7.74,0,0,1-3.82-1.4,3.44,3.44,0,0,1-1-1.1,6.41,6.41,0,0,0,3.43,1.51h0l0,0a.76.76,0,0,0-.16-.11,3.73,3.73,0,0,1-.3-.26,1.54,1.54,0,0,1,.5.24,1.75,1.75,0,0,0,.43.22,1.88,1.88,0,0,0,.58,0,1.71,1.71,0,0,1,.32,0v0a3.71,3.71,0,0,1-1.25-.78l.44.22a4.52,4.52,0,0,0,1.31.51,2.64,2.64,0,0,0,1,0v-.06a4.18,4.18,0,0,1-1.9-.87,4.72,4.72,0,0,0,1.9.65v0l-.17-.07a2.14,2.14,0,0,1-.43-.21,4,4,0,0,1-1-.91,3,3,0,0,0,.95.48l.11,0a3.58,3.58,0,0,0,1.64.26v0a5.19,5.19,0,0,1-2.26-1,2.48,2.48,0,0,1-.72-1.14,4.08,4.08,0,0,0,2,1.22,8.67,8.67,0,0,0,2,.26v0a8.87,8.87,0,0,1-1-.62l-.43-.33,0,0a3.61,3.61,0,0,1-.93-.82.58.58,0,0,0,.13.11,4,4,0,0,0,.54.41l0,0-.26-.32a4.48,4.48,0,0,1-.43-.59,4.12,4.12,0,0,0,1.3.84v0a1.49,1.49,0,0,1-.43-.38,5.24,5.24,0,0,0,2,1,.71.71,0,0,1,.2,0h0a1.32,1.32,0,0,0,.94,0l0,0,0,0a7.18,7.18,0,0,1-2.22-1,3.77,3.77,0,0,0,1.25.49v0A4.14,4.14,0,0,1,198.73,96a4.69,4.69,0,0,0,3.54,1.53h.13a1,1,0,0,0,.38-.13h0l0,0a9.54,9.54,0,0,1-1-.56,6.5,6.5,0,0,1-.88-.76A3.69,3.69,0,0,1,200,94.6c.26.24.5.52.73.77a6.82,6.82,0,0,0,1,1,6.43,6.43,0,0,0,1.53.8h0a1.41,1.41,0,0,1,.32-.13h0l0,0A6.33,6.33,0,0,1,202.2,96a4.79,4.79,0,0,1-.94-1.4,5.56,5.56,0,0,0,.4.47,7.66,7.66,0,0,0,1.75,1.66s0,0,.06,0a.82.82,0,0,0,.69.17l.13,0h0a5.43,5.43,0,0,1,.61-.17h0l0,0c-.09-.09-.2-.15-.28-.24h0a6.17,6.17,0,0,1-1.4-1.44,3.28,3.28,0,0,1-.3-.59c.1.13.23.26.34.41a7.32,7.32,0,0,0,1.38,1.4,1.58,1.58,0,0,0,.77.35h0l0,0a1.2,1.2,0,0,1-.23-.22,5.12,5.12,0,0,1-1.6-1.87,1.55,1.55,0,0,1,.24.28A6.21,6.21,0,0,0,205.13,96a2.12,2.12,0,0,0,.84.32v0a5.69,5.69,0,0,1-.9-.77,3.53,3.53,0,0,1-.63-.89A6.35,6.35,0,0,0,206,96.11l0,0A4.09,4.09,0,0,1,205,94.3,5.32,5.32,0,0,0,206,95.48a4.16,4.16,0,0,0,1.16.76,1.35,1.35,0,0,0,.28,0l-.07,0a.77.77,0,0,1-.19,0,3.83,3.83,0,0,1-1.14-.75,5.55,5.55,0,0,1-1.1-1.25v0l0,0h0a4.1,4.1,0,0,0,1,1.77,6.59,6.59,0,0,1-1.51-1.47h0l0,0v0a4.36,4.36,0,0,0,.69,1,9.24,9.24,0,0,0,.86.75,2.07,2.07,0,0,1-.77-.32,6.57,6.57,0,0,1-1.3-1.28l-.28-.32v0l0,0h0a4.84,4.84,0,0,0,1.62,1.94,1,1,0,0,0,.21.17,1.69,1.69,0,0,1-.73-.32,7,7,0,0,1-1.38-1.4l-.39-.45h0l0,0v0a3.45,3.45,0,0,0,.35.65,5.81,5.81,0,0,0,1.4,1.44h0l.26.22a2,2,0,0,0-.56.17h0l-.13,0a.79.79,0,0,1-.68-.17l-.07,0A8.08,8.08,0,0,1,201.69,95l-.46-.52h0v0a5,5,0,0,0,1,1.47,6.2,6.2,0,0,0,1.36,1.09l-.28.11a6.65,6.65,0,0,1-1.51-.79,6.34,6.34,0,0,1-1-1,9.71,9.71,0,0,0-.76-.82l0,0,0,.06a3.91,3.91,0,0,0,.95,1.51,5.57,5.57,0,0,0,.88.78,10.26,10.26,0,0,0,1,.56,1.51,1.51,0,0,1-.34.13,4.67,4.67,0,0,1-3.71-1.6v0l0,0h0a4.11,4.11,0,0,0,1.51,1.64,3.74,3.74,0,0,1-1.31-.58h0l0,0h0a6.72,6.72,0,0,0,2.34,1.16,1.27,1.27,0,0,1-.9,0h0l-.2,0a4.9,4.9,0,0,1-2.11-1h0l0,0v0a1.44,1.44,0,0,0,.39.39,5.38,5.38,0,0,1-1.23-.84h0l0,0v0a6.62,6.62,0,0,0,.47.65c.07.08.16.17.22.25a3.25,3.25,0,0,1-.47-.36,1.51,1.51,0,0,1-.2-.17h0l0,0v0a3.52,3.52,0,0,0,1,.9l0,0a3.84,3.84,0,0,1,.44.32,7,7,0,0,0,.9.6,8.08,8.08,0,0,1-2-.26,4.12,4.12,0,0,1-2-1.25h0v0a2.54,2.54,0,0,0,.74,1.2,4.77,4.77,0,0,0,2.19,1,4.28,4.28,0,0,1-1.55-.26l-.13,0a3.32,3.32,0,0,1-1-.52h0l0,0h0a4.49,4.49,0,0,0,1,1,1,1,0,0,0,.46.22l.06,0a5,5,0,0,1-1.85-.69h0l0,0h0a3.93,3.93,0,0,0,1.91.93,2.71,2.71,0,0,1-.9,0,4.55,4.55,0,0,1-1.32-.49,3.69,3.69,0,0,0-.49-.24h0l0,0h0a3.26,3.26,0,0,0,1.25.78.86.86,0,0,0-.24,0,2.58,2.58,0,0,1-.56,0,2.19,2.19,0,0,1-.43-.22,1.15,1.15,0,0,0-.54-.24l0,0,0,0a3.76,3.76,0,0,0,.32.28.48.48,0,0,1,.11.09,6.5,6.5,0,0,1-3.4-1.53h0l0,0h0a3.37,3.37,0,0,0,1.05,1.17,7.78,7.78,0,0,0,3.77,1.4c-.32.08-.65.19-1,.28a1.17,1.17,0,0,1-.69-.13h0c-.15-.09-.3-.15-.45-.24-.32-.17-.64-.32-1-.47h0l0,0h0a4.52,4.52,0,0,0,1.49,1,.91.91,0,0,1-.33.1,1.05,1.05,0,0,1-.19,0l-.19.06a.6.6,0,0,1-.5,0l-.41-.22a3.43,3.43,0,0,0-.79-.34h0l0,0,.11.06a4.36,4.36,0,0,1,.76.6,1.6,1.6,0,0,1-.65-.08.72.72,0,0,0-.19,0,9.84,9.84,0,0,1-1.84-.69h0l0,0h0a2.65,2.65,0,0,0,.5.32h0a1.31,1.31,0,0,0,.17.09,1.16,1.16,0,0,1,.22.13h0c.19.1.4.23.62.32a7.82,7.82,0,0,1-4-1.06h0l0,0v0a8.92,8.92,0,0,0,2.14,1.81,5.46,5.46,0,0,0,1.46.6,5.24,5.24,0,0,1-1.18-.3h0l-.17-.07h0v0h0a5.35,5.35,0,0,0,2.41,1,.36.36,0,0,1-.15,0h0a.27.27,0,0,1-.13,0h0v0h0a13.53,13.53,0,0,1,3.45,1c.3.13.62.24.95.37a5,5,0,0,0-1.34.06,3.85,3.85,0,0,0-1.35.61l-.33.21a3.58,3.58,0,0,1-.73.45h0v0h0l.28-.07h0a6.51,6.51,0,0,1,.9-.17,11.18,11.18,0,0,1,2.65,0c.44,0,.87.09,1.3.11a1.5,1.5,0,0,0-.35.09,4.66,4.66,0,0,0-.62.15,5.61,5.61,0,0,0-2.46,1.68h0l0,0h0a10.16,10.16,0,0,1,3-1.12,13.66,13.66,0,0,1,2.84-.35.54.54,0,0,1-.11,0,7.19,7.19,0,0,0-1.53.51,6.52,6.52,0,0,0-1,.61,3.5,3.5,0,0,0-.82.86l0,0,0,0a.9.9,0,0,0,.22-.11,10.27,10.27,0,0,1,2.69-1.35,7.12,7.12,0,0,1,3.1-.33l-.32.07-.09,0a5.48,5.48,0,0,0-3.6,2.26h0l0,0h0a1.69,1.69,0,0,0,.31-.21h0a7.54,7.54,0,0,1,.73-.46,7.26,7.26,0,0,1,3.06-.86c.41,0,.82,0,1.2,0h.65l-.22.07a3.48,3.48,0,0,0-.64.23,5.88,5.88,0,0,0-1.36.84,7.56,7.56,0,0,0-1.12,1.14v0l0,0h0a4.27,4.27,0,0,0,.54-.37c.2-.13.39-.3.6-.41a7.25,7.25,0,0,1,1.77-.73,5.72,5.72,0,0,1,2.37-.19,5.7,5.7,0,0,0-1.7.64,3.29,3.29,0,0,0-1.4,1.4h0l0,0v0a2.36,2.36,0,0,1,.75-.69,8.21,8.21,0,0,1,3-.66c.9-.07,1.81-.09,2.69-.11l1.42,0h.28a6.74,6.74,0,0,0,1.55-.15,11.86,11.86,0,0,0,2.35-1h0l.22-.12a1.94,1.94,0,0,1,.62-.28c.43-.09.84-.18,1.25-.24h0c.67-.13,1.34-.24,2-.39a24.48,24.48,0,0,1,2.63-.43l.64-.07a11.56,11.56,0,0,1,1.94-.12l.78,0h0a12.17,12.17,0,0,1,2,.19h0Z"
                  style="fill:#010101"/>
            <path d="M211.92,96.6l-.17-.11-.11,0h0s-.05,0-.09,0h0l.15.06Z" style="fill:#010101"/>
            <path d="M227.11,106.94a1,1,0,0,1-.24-.21h0l.26.08a1,1,0,0,1,.21.09,5.17,5.17,0,0,0-1.14-1.27l-.32-.32a3.23,3.23,0,0,1-.37-.37c-.26-.28-.54-.58-.77-.88s-.41-.48-.61-.69a13.61,13.61,0,0,0-1.59-1.49,22.44,22.44,0,0,0-2.74-1.94A27.71,27.71,0,0,0,214,97.36c-.2-.07-.39-.11-.57-.18a6.33,6.33,0,0,1-1-.36.07.07,0,0,1,0,0,1.49,1.49,0,0,1-.28-.11c-.05,0-.11-.07-.15-.09l-.24-.11-.11,0c-.39-.06-.77-.13-1.18-.17a6.68,6.68,0,0,0-1.34,0l-.26,0h0a.07.07,0,0,1-.06,0c-.37,0-.73.06-1.12.06a.39.39,0,0,1-.17,0,.75.75,0,0,1-.26-.05,4.12,4.12,0,0,1-1.17-.75,5.1,5.1,0,0,1-1.09-1.25A4,4,0,0,0,206,96.09h0a6.68,6.68,0,0,1-1.66-1.56A4.62,4.62,0,0,0,206,96.3h0a2.57,2.57,0,0,1-.86-.32,6.75,6.75,0,0,1-1.29-1.27l-.26-.33a4.92,4.92,0,0,0,1.62,1.92,2.44,2.44,0,0,1,.23.22h0a1.64,1.64,0,0,1-.77-.35,7,7,0,0,1-1.38-1.4c-.13-.15-.24-.3-.39-.45a4.78,4.78,0,0,0,.32.64,6.43,6.43,0,0,0,1.4,1.45c.11.08.2.17.31.24h0a2.51,2.51,0,0,0-.61.17l-.13,0a.82.82,0,0,1-.69-.17l-.06,0A8.36,8.36,0,0,1,201.66,95a5.15,5.15,0,0,0-.43-.52A5.75,5.75,0,0,0,203.58,97h0a1.74,1.74,0,0,1-.32.11h0a6.43,6.43,0,0,1-1.53-.8,7.16,7.16,0,0,1-1-1,7.19,7.19,0,0,0-.76-.8,4.07,4.07,0,0,0,.95,1.51,5.78,5.78,0,0,0,1.89,1.34h0a.82.82,0,0,1-.38.13h-.13a4.88,4.88,0,0,1-1.92-.39,3.7,3.7,0,0,1-.9-.52,4.56,4.56,0,0,1-.76-.69,4.13,4.13,0,0,0,1.55,1.66h0a4.13,4.13,0,0,1-1.38-.58,7.87,7.87,0,0,0,2.35,1.16h0a1.2,1.2,0,0,1-1,0l-.21,0a4.9,4.9,0,0,1-2.11-1,1.73,1.73,0,0,0,.49.45h0a4.81,4.81,0,0,1-1.35-.88,7,7,0,0,0,.45.62l.26.32h0a1.88,1.88,0,0,1-.54-.41,1.22,1.22,0,0,1-.17-.15,3.59,3.59,0,0,0,1,.89l0,0c.15.11.3.21.43.32a4.75,4.75,0,0,0,1,.63h0a7.61,7.61,0,0,1-2.05-.26,4.56,4.56,0,0,1-1.12-.48,3.91,3.91,0,0,1-.9-.77,2.37,2.37,0,0,0,.73,1.18,4.89,4.89,0,0,0,2.28,1h0a3.36,3.36,0,0,1-1.63-.26.28.28,0,0,1-.13,0,3.45,3.45,0,0,1-1-.52,3.47,3.47,0,0,0,1,1,1.26,1.26,0,0,0,.43.22.64.64,0,0,1,.19.08h0a4.8,4.8,0,0,1-2-.69,4,4,0,0,0,2,.93h0a2.21,2.21,0,0,1-1,0,4,4,0,0,1-1.32-.49,5.21,5.21,0,0,0-.47-.24,3.54,3.54,0,0,0,1.31.82h0a1.72,1.72,0,0,0-.32,0,2.79,2.79,0,0,1-.58,0,1.35,1.35,0,0,1-.43-.22,1.84,1.84,0,0,0-.52-.23l.32.28a.65.65,0,0,0,.15.1h0a6.51,6.51,0,0,1-1.85-.51,6.31,6.31,0,0,1-1.62-1,3.6,3.6,0,0,0,1,1.15,7.74,7.74,0,0,0,3.83,1.4h0l-1.12.3a1.2,1.2,0,0,1-.69-.13h0c-.15-.09-.3-.15-.45-.24a10.51,10.51,0,0,0-1-.45,4.52,4.52,0,0,0,1.49,1h0a.75.75,0,0,1-.35.13l-.19,0-.2.06a.61.61,0,0,1-.51,0,2.67,2.67,0,0,1-.41-.22,3.29,3.29,0,0,0-.78-.32l.07,0a2.92,2.92,0,0,1,.77.63h0a1.4,1.4,0,0,1-.67-.09.65.65,0,0,0-.19,0,9.11,9.11,0,0,1-1.83-.69,3.08,3.08,0,0,0,.47.3.78.78,0,0,1,.18.11,1.07,1.07,0,0,1,.21.13l.69.34h0a6.56,6.56,0,0,1-2.11-.26,8.84,8.84,0,0,1-2-.79,9.62,9.62,0,0,0,2.11,1.81,5.37,5.37,0,0,0,1.66.64h0a4.4,4.4,0,0,1-1.38-.32.67.67,0,0,1-.17-.07,5.18,5.18,0,0,0,2.48,1h0l-.24,0-.13,0a13.55,13.55,0,0,1,3.42,1c.37.13.71.28,1.08.41h0a3.77,3.77,0,0,0-2.82.65c-.11.06-.22.15-.32.21a4,4,0,0,1-.71.43l.25-.06a5.42,5.42,0,0,1,.91-.17,10.67,10.67,0,0,1,2.65,0c.45,0,1,.09,1.4.11h0c-.15,0-.3.06-.45.11a4.8,4.8,0,0,0-.63.15,5.91,5.91,0,0,0-2.43,1.63,8.86,8.86,0,0,1,1.42-.66,12.51,12.51,0,0,1,1.53-.46,14.91,14.91,0,0,1,2.93-.34h0a.32.32,0,0,1-.17.06,7,7,0,0,0-1.51.52,4.1,4.1,0,0,0-1.83,1.44l.21-.1a10.45,10.45,0,0,1,2.69-1.36,6.53,6.53,0,0,1,3.19-.3h0a2.87,2.87,0,0,1-.38.08.2.2,0,0,0-.11,0,5.33,5.33,0,0,0-1.49.48,4.85,4.85,0,0,0-2.11,1.77l.3-.2c.24-.15.48-.32.73-.45a6.54,6.54,0,0,1,1.49-.6,7.36,7.36,0,0,1,1.57-.26c.41,0,.84,0,1.25,0h.73l-.3.08a4.38,4.38,0,0,0-.66.24,6.58,6.58,0,0,0-2.46,2c.17-.11.34-.24.52-.37a3.53,3.53,0,0,1,.6-.41,7.1,7.1,0,0,1,1.77-.73,6,6,0,0,1,1.66-.24,3.42,3.42,0,0,1,.79.09h0a5.49,5.49,0,0,0-1.76.67,3.26,3.26,0,0,0-1.4,1.38,2.49,2.49,0,0,1,.75-.69,5.82,5.82,0,0,1,1.46-.48,14.18,14.18,0,0,1,1.56-.19c.9-.06,1.8-.09,2.69-.11.47,0,.95,0,1.42,0h.28a7.21,7.21,0,0,0,1.55-.15,9.93,9.93,0,0,0,2.35-1h0a1.3,1.3,0,0,1,.19-.11,1.63,1.63,0,0,1,.63-.28l1.25-.24c.67-.13,1.36-.23,2-.38A20.63,20.63,0,0,1,222,107l.65-.07a11.43,11.43,0,0,1,1.94-.13l.77,0a13.15,13.15,0,0,1,2,.2C227.28,107.09,227.19,107,227.11,106.94Z"
                  style="fill:#010101;stroke:#010101;stroke-width:0.5px"/>
            <path d="M193.22,104.44c1.38.26,2.78.65,4.11,1,.48.13,1,.26,1.47.41,2.41.62,4.59,1.22,6.61,1.83a6.94,6.94,0,0,1-1.35-1.49,12.16,12.16,0,0,1-1.32-2.63,13.91,13.91,0,0,1-.8-3.34,7.21,7.21,0,0,0-.71.46,6,6,0,0,1-.71.45h0c-.39.21-.77.45-1.14.67-.58.34-1.16.69-1.77,1l-.17.08a1.41,1.41,0,0,0-.49.31,3.16,3.16,0,0,1-.76.51A7.91,7.91,0,0,1,193.22,104.44Z"
                  style="fill:#fff;stroke:#010101;stroke-width:0.5px"/>
            <path d="M211.12,108.77c-.32,0-.62,0-1,0a17,17,0,0,1-2.19-.34,2.63,2.63,0,0,1-.93-.39,8.45,8.45,0,0,1-3.19-4c0-.17-.11-.34-.15-.51a6.79,6.79,0,0,1-.28-1.12,8.42,8.42,0,0,1-.11-1.43,4.65,4.65,0,0,1,.26-1.4.61.61,0,0,1,.28-.38,5.27,5.27,0,0,1,1.38-.56,17,17,0,0,1,2.07-.31l.21,0a5.86,5.86,0,0,1,.61,0h0a2.58,2.58,0,0,0-1.27,1.42,3.66,3.66,0,0,0,.1,2.48,4.73,4.73,0,0,0,1.83,2.15,2.64,2.64,0,0,0,2,.37,2,2,0,0,0,1.42-1.12,4,4,0,0,0,.17-2.54,4.32,4.32,0,0,0-1.21-2.35,2.41,2.41,0,0,0-1-.54h.13a17.17,17.17,0,0,1,3.19.37,19.2,19.2,0,0,1,1.9.51,1,1,0,0,1,.45.46v0a6.9,6.9,0,0,1,.8,2.45,10.4,10.4,0,0,1,0,1.38,11.61,11.61,0,0,1-.15,1.38,5.15,5.15,0,0,1-.8,2.07,3.09,3.09,0,0,1-.8.77,2.85,2.85,0,0,1-1,.48,1.17,1.17,0,0,0-.36.21c-.09.07-.2.13-.31.2l-.13.06a2.1,2.1,0,0,1-.64.26h-.13C211.92,108.75,211.53,108.77,211.12,108.77Z"
                  style="fill:none;stroke:#010101;stroke-width:0.5px"/>
            <path d="M214.48,108.28h0a4.84,4.84,0,0,0,1.73-2,9.65,9.65,0,0,0,.77-3.38,7.33,7.33,0,0,0-.52-3.56h0a13.22,13.22,0,0,1,2.61,1.16,21.83,21.83,0,0,1,2.39,1.56l1.53,1.14c.86.64,1.75,1.33,2.65,2h0a5.62,5.62,0,0,0-3.27-.65,5.82,5.82,0,0,0-2.33.73c-.58.33-1.14.67-1.7,1A16.19,16.19,0,0,1,214.48,108.28Z"
                  style="fill:none;stroke:#010101;stroke-width:0.5px"/>
            <path d="M216.46,99.4a6,6,0,0,1,.48,1.73,10.53,10.53,0,0,1,0,1.81,13,13,0,0,1-.21,1.74,7.52,7.52,0,0,1-.54,1.66,4.34,4.34,0,0,1-.74,1.1,4.75,4.75,0,0,1-1,.84,17.31,17.31,0,0,0,3.83-2c.56-.35,1.12-.69,1.7-1a5.83,5.83,0,0,1,2.33-.74,5.59,5.59,0,0,1,1.68.09,6.63,6.63,0,0,1,1.55.54c-.88-.63-1.77-1.29-2.61-1.94-.49-.39-1-.78-1.53-1.14A17.57,17.57,0,0,0,216.46,99.4Z"
                  style="fill:#fff;stroke:#010101;stroke-width:0.5px"/>
            <path d="M205.41,107.7c-2-.61-4.2-1.21-6.63-1.83-.48-.13-1-.26-1.47-.41a42.26,42.26,0,0,0-4.13-1h0a7.2,7.2,0,0,0,2.95-.71,2.74,2.74,0,0,0,.75-.52,1.77,1.77,0,0,1,.5-.28,1.22,1.22,0,0,0,.17-.08c.6-.3,1.21-.65,1.77-1,.36-.24.75-.46,1.14-.67h0a6.15,6.15,0,0,0,.71-.45,5.69,5.69,0,0,1,.71-.46h0a13.91,13.91,0,0,0,.8,3.34,12.16,12.16,0,0,0,1.31,2.63,11.27,11.27,0,0,0,1.42,1.47Z"
                  style="fill:none;stroke:#010101;stroke-width:0.5px"/>
            <path id="Iris"
                  d="M208,98.24a3.42,3.42,0,0,0-.45,0,.86.86,0,0,1-.22,0c-.67.09-1.38.18-2.07.31a4.52,4.52,0,0,0-1.38.53.6.6,0,0,0-.28.37,5.51,5.51,0,0,0-.15,2.82,9.65,9.65,0,0,0,.28,1.12c.05.18.11.35.15.52a8.33,8.33,0,0,0,3.19,4,2.44,2.44,0,0,0,.93.38,17.22,17.22,0,0,0,2.2.35,19.28,19.28,0,0,0,2.15,0h.13a1.34,1.34,0,0,0,.64-.26l.13-.07a.92.92,0,0,0,.28-.19,2.35,2.35,0,0,1,.37-.24,3.25,3.25,0,0,0,1.81-1.27,4.58,4.58,0,0,0,.8-2.07,9.23,9.23,0,0,0,.1-2.75,6.73,6.73,0,0,0-.79-2.46l0,0c-.11-.17-.22-.39-.43-.45a17.33,17.33,0,0,0-1.9-.52A15.17,15.17,0,0,0,210.2,98a2.24,2.24,0,0,1,.94.54,4.42,4.42,0,0,1,1.21,2.37,4,4,0,0,1-.17,2.54,2.08,2.08,0,0,1-.58.74,2.17,2.17,0,0,1-1.86.41,3.08,3.08,0,0,1-1-.39A4.63,4.63,0,0,1,207,102.1a4.15,4.15,0,0,1-.25-1.25,3.16,3.16,0,0,1,.17-1.25,2.47,2.47,0,0,1,.49-.84,3.77,3.77,0,0,1,.76-.61C208.08,98.24,208,98.24,208,98.24Z"
                  style="fill:#e71d83;stroke:#010101;stroke-width:0.5px"/>
            <path d="M257.63,105.19h.05a16.39,16.39,0,0,1,2-.2h0l.77,0a11.3,11.3,0,0,1,1.94.13l.65.06a24.08,24.08,0,0,1,2.63.43c.67.16,1.36.26,2,.39h0c.41.09.84.15,1.25.24a2,2,0,0,1,.63.28l.21.13h0a9.76,9.76,0,0,0,2.35,1,7.34,7.34,0,0,0,1.55.15H274c.48,0,1,0,1.43,0,.88,0,1.78,0,2.69.11a7.88,7.88,0,0,1,3,.67,2.29,2.29,0,0,1,.76.69l0,0,0,0h0a3.14,3.14,0,0,0-1.4-1.4,5.34,5.34,0,0,0-1.68-.65,5.25,5.25,0,0,1,2.37.19,7.63,7.63,0,0,1,1.77.74,3.76,3.76,0,0,1,.6.41,4.22,4.22,0,0,0,.54.36h0l0,0v0a6.72,6.72,0,0,0-1.12-1.14,5.27,5.27,0,0,0-1.36-.84,3.33,3.33,0,0,0-.64-.24l-.22-.06h.65c.38,0,.82,0,1.23,0a7,7,0,0,1,3.05.86c.26.13.5.3.74.45h0l.3.22h0l0,0h0a4.76,4.76,0,0,0-2.11-1.79,6,6,0,0,0-1.49-.48l-.08,0a1.91,1.91,0,0,1-.33-.06,6.59,6.59,0,0,1,3.11.32,10.79,10.79,0,0,1,2.69,1.36,1,1,0,0,0,.21.1l.05,0-.05,0a3.45,3.45,0,0,0-.81-.86,5.83,5.83,0,0,0-1-.6,7,7,0,0,0-1.51-.52s-.06,0-.1,0a14.14,14.14,0,0,1,2.84.34,10.36,10.36,0,0,1,3,1.12h0l0,0h0a6.09,6.09,0,0,0-2.45-1.68,5.81,5.81,0,0,0-.63-.15,1.56,1.56,0,0,1-.34-.09c.43,0,.86-.06,1.29-.1a10.67,10.67,0,0,1,2.65,0,7.7,7.7,0,0,1,.91.18h0l.28.06h0l0,0h0a5.62,5.62,0,0,1-.74-.45,3,3,0,0,0-.32-.22,4.09,4.09,0,0,0-1.36-.6,4,4,0,0,0-1.33-.07l.95-.36a12.35,12.35,0,0,1,3.44-1h0v0h0l-.13,0h0l-.15,0a5,5,0,0,0,2.42-1h0l0,0h0l-.18.06h0a5.38,5.38,0,0,1-1.18.3,5.15,5.15,0,0,0,1.46-.6,8.65,8.65,0,0,0,2.11-1.81v0l0,0h0a7.76,7.76,0,0,1-4,1,4.54,4.54,0,0,0,.62-.32h0l.22-.13c.06,0,.1-.06.17-.08h0a2.63,2.63,0,0,0,.49-.33h0l0,0h0a9.11,9.11,0,0,1-1.83.69.72.72,0,0,1-.19,0,1.65,1.65,0,0,1-.65.09,3.6,3.6,0,0,1,.75-.6l.09-.07,0,0h0a2.79,2.79,0,0,0-.8.34,4,4,0,0,1-.41.22.56.56,0,0,1-.49,0l-.2-.07a.65.65,0,0,0-.19,0,.76.76,0,0,1-.32-.11,4.48,4.48,0,0,0,1.48-1h0l0,0h0a6.71,6.71,0,0,0-1,.47c-.15.09-.3.16-.45.24h0a1,1,0,0,1-.69.13l-1.06-.28a7.78,7.78,0,0,0,3.77-1.4,3.47,3.47,0,0,0,1.06-1.16h0l0,0h0a6.57,6.57,0,0,1-3.4,1.52.38.38,0,0,0,.11-.08,3,3,0,0,0,.34-.28l.05,0-.05,0a2.83,2.83,0,0,0-.54.23,1.46,1.46,0,0,1-.43.22,2.55,2.55,0,0,1-.56,0l-.26,0a3.39,3.39,0,0,0,1.25-.78h0l0,0h0c-.17.09-.32.17-.49.24a4,4,0,0,1-1.32.49,2.27,2.27,0,0,1-.9,0,4.07,4.07,0,0,0,1.92-.92h0l0,0h0a4.8,4.8,0,0,1-1.86.68.1.1,0,0,1,.07,0,1.72,1.72,0,0,0,.43-.21,4,4,0,0,0,1-1h0l0,0h0a2.61,2.61,0,0,1-1,.51l-.13.05a3.89,3.89,0,0,1-1.55.26,5.07,5.07,0,0,0,2.2-1,2.58,2.58,0,0,0,.73-1.21v0h0a4,4,0,0,1-2,1.25,9.2,9.2,0,0,1-2,.26,7.22,7.22,0,0,0,.91-.61L287,96l0,0a3.57,3.57,0,0,0,1-.91v0l0,0h0a1.51,1.51,0,0,0-.2.17,4.25,4.25,0,0,1-.47.37,1.88,1.88,0,0,1,.22-.26,4.3,4.3,0,0,0,.47-.65v0l0,0h0a5.18,5.18,0,0,1-1.23.84,1.47,1.47,0,0,0,.41-.39v0l0,0h0a4.91,4.91,0,0,1-2.11,1,1.74,1.74,0,0,1-.22.05h0a1.46,1.46,0,0,1-.9,0A6.76,6.76,0,0,0,286.26,95h0l0,0h0a4.21,4.21,0,0,1-1.33.58,4.25,4.25,0,0,0,1.5-1.63h0l0,0v0a4.72,4.72,0,0,1-3.7,1.59,1,1,0,0,1-.37-.13,5.54,5.54,0,0,0,1-.56,3.69,3.69,0,0,0,.88-.77,4,4,0,0,0,.95-1.51l0-.07,0,0a6,6,0,0,0-.77.82,7.24,7.24,0,0,1-1,1,6.82,6.82,0,0,1-1.53.8,1.49,1.49,0,0,0-.28-.11,6.75,6.75,0,0,0,1.36-1.1,5,5,0,0,0,1-1.46v0l0,0h0l-.46.52a7.75,7.75,0,0,1-1.72,1.66l-.06,0a.9.9,0,0,1-.67.17l-.13,0h0a4.91,4.91,0,0,0-.58-.17l.25-.22h0a6.42,6.42,0,0,0,1.41-1.44l.34-.65v0l0,0h0l-.39.45a7.62,7.62,0,0,1-1.38,1.4,1.84,1.84,0,0,1-.73.33c.06-.07.15-.11.21-.18a5.2,5.2,0,0,0,1.64-1.94h0l0,0v0a4.09,4.09,0,0,0-.28.33,7.63,7.63,0,0,1-1.27,1.27,2.62,2.62,0,0,1-.78.32,5,5,0,0,0,.87-.75,5,5,0,0,0,.68-1v0l0,0h0a6.17,6.17,0,0,1-1.5,1.47,4.24,4.24,0,0,0,1-1.77h0l0,0v0A5.5,5.5,0,0,1,279,93.38a5,5,0,0,1-1.15.76.58.58,0,0,1-.19,0l-.06,0a1.45,1.45,0,0,0,.28,0,4,4,0,0,0,1.16-.76,4.62,4.62,0,0,0,1.05-1.18A3.84,3.84,0,0,1,279.05,94l0,0a6.87,6.87,0,0,0,1.57-1.47,5.92,5.92,0,0,1-.62.89,4.93,4.93,0,0,1-.91.77v0a2.47,2.47,0,0,0,.84-.32,6.53,6.53,0,0,0,1.3-1.27,2.83,2.83,0,0,1,.23-.28,5,5,0,0,1-1.59,1.87c-.09.07-.17.16-.24.22l0,0h0a1.6,1.6,0,0,0,.78-.34,7.62,7.62,0,0,0,1.38-1.4,4.62,4.62,0,0,1,.34-.41,3.19,3.19,0,0,1-.3.58,6.6,6.6,0,0,1-1.4,1.44h0c-.09.09-.2.15-.28.24l0,0h0c.19,0,.41.11.6.17h0a.5.5,0,0,1,.13,0,.81.81,0,0,0,.69-.18l.07,0A7.83,7.83,0,0,0,283.42,93c.13-.15.26-.32.41-.47a5,5,0,0,1-.95,1.4,7.36,7.36,0,0,1-1.35,1.1l0,0h0l.3.13h0a7.28,7.28,0,0,0,1.53-.8,7.16,7.16,0,0,0,1-1c.24-.26.47-.54.73-.78A4,4,0,0,1,284.2,94a4.36,4.36,0,0,1-.89.75,5.73,5.73,0,0,1-1,.56l0,0h0a1,1,0,0,0,.39.13h.13a4.67,4.67,0,0,0,3.53-1.53,4.46,4.46,0,0,1-1.51,1.6v0a4,4,0,0,0,1.25-.5,7,7,0,0,1-2.22,1.06l0,0,0,0a1.2,1.2,0,0,0,.95,0h0a.65.65,0,0,0,.19,0,5,5,0,0,0,2.05-1,1.9,1.9,0,0,1-.43.39l0,0a4.15,4.15,0,0,0,1.29-.84,6.22,6.22,0,0,1-.43.58l-.26.32,0,0a2.52,2.52,0,0,0,.53-.41.91.91,0,0,1,.13-.1A3.79,3.79,0,0,1,287,96L287,96c-.15.1-.28.21-.43.32a5.55,5.55,0,0,1-1,.62v0a8.56,8.56,0,0,0,2-.26,4.28,4.28,0,0,0,2-1.23,2.54,2.54,0,0,1-.71,1.14,5,5,0,0,1-2.26,1v0a3.46,3.46,0,0,0,1.64-.26l.1,0a3.37,3.37,0,0,0,.95-.47,4.06,4.06,0,0,1-1,.9,1.26,1.26,0,0,1-.43.22l-.17.06v0a5.23,5.23,0,0,0,1.89-.64,4.14,4.14,0,0,1-1.89.86v0a2.85,2.85,0,0,0,1,0,4.64,4.64,0,0,0,1.31-.51l.45-.22a3.81,3.81,0,0,1-1.25.78v0h.33a1.88,1.88,0,0,0,.58,0,1.45,1.45,0,0,0,.43-.22,1.54,1.54,0,0,1,.5-.24,1.53,1.53,0,0,1-.31.26.83.83,0,0,1-.15.11l0,0h0A6.45,6.45,0,0,0,294,96.76a3.56,3.56,0,0,1-1,1.1,7.76,7.76,0,0,1-3.82,1.4v0c.35.11.69.2,1.12.31a1.21,1.21,0,0,0,.71-.13h0l.45-.24.92-.45a4.24,4.24,0,0,1-1.46,1h0l0,0a.73.73,0,0,0,.34.13l.2,0,.17.06a.63.63,0,0,0,.52,0,4.1,4.1,0,0,0,.41-.22,2.8,2.8,0,0,1,.73-.32l0,0a4.83,4.83,0,0,0-.78.62l0,0h0a1.52,1.52,0,0,0,.67-.09.65.65,0,0,1,.19,0,10.31,10.31,0,0,0,1.77-.65l-.41.26h0a.91.91,0,0,0-.17.09l-.22.12h0c-.21.11-.45.24-.69.35v0a8.17,8.17,0,0,0,4-1,8.9,8.9,0,0,1-2.07,1.76,6,6,0,0,1-1.61.65v0a4.62,4.62,0,0,0,1.33-.32h0a.37.37,0,0,0,.11-.05,5,5,0,0,1-2.41,1v0l.23,0h.07a12.92,12.92,0,0,0-3.38,1l-1.06.41v0a4.1,4.1,0,0,1,1.44,0,3.89,3.89,0,0,1,1.36.61c.11.06.22.15.32.21a4.43,4.43,0,0,0,.65.41c-.06,0-.13,0-.17,0h0a5.61,5.61,0,0,0-.91-.17,10.68,10.68,0,0,0-2.65,0c-.45,0-.92.09-1.4.11v0c.15,0,.31.06.43.08a5.43,5.43,0,0,1,.61.16,5.92,5.92,0,0,1,2.41,1.61,11,11,0,0,0-2.91-1.1,14.72,14.72,0,0,0-2.91-.34h0l0,0,.15.06a6.62,6.62,0,0,1,1.51.52,5.61,5.61,0,0,1,1,.6,3.22,3.22,0,0,1,.79.82l-.17-.08a10.15,10.15,0,0,0-2.69-1.36,6.9,6.9,0,0,0-3.19-.3v0a1.83,1.83,0,0,1,.39.09s.06,0,.08,0a5.07,5.07,0,0,1,1.49.47,4.93,4.93,0,0,1,2.09,1.75,2,2,0,0,1-.26-.18h0c-.24-.15-.47-.32-.73-.45a7.16,7.16,0,0,0-3.06-.86c-.41,0-.82,0-1.23,0h-.73v0l.28.09c.21.06.45.15.67.23a6,6,0,0,1,1.35.84,6.27,6.27,0,0,1,1.08,1.1c-.17-.11-.32-.24-.47-.34s-.39-.28-.61-.41a7.55,7.55,0,0,0-1.76-.74,6,6,0,0,0-1.66-.23,3.5,3.5,0,0,0-.8.08v0a5.63,5.63,0,0,1,1.75.64,3.18,3.18,0,0,1,1.35,1.32,2.66,2.66,0,0,0-.71-.63,8.42,8.42,0,0,0-3-.67c-.91-.06-1.81-.08-2.7-.1-.45,0-.94,0-1.42,0h-.28a7.47,7.47,0,0,1-1.55-.15,10,10,0,0,1-2.33-1h0l-.19-.11a1.9,1.9,0,0,0-.63-.28c-.43-.08-.84-.17-1.25-.23h0c-.66-.11-1.33-.24-2-.39s-1.72-.34-2.63-.43l-.64-.07a14.13,14.13,0,0,0-1.94-.12l-.78,0h0a14.45,14.45,0,0,0-2,.19,1.21,1.21,0,0,1,.24-.21,1.2,1.2,0,0,0,.23-.22l0,0h-.05l-.26.09-.19.06a4.91,4.91,0,0,1,1.14-1.25l.33-.32c.12-.13.25-.24.36-.37l.78-.86q.29-.36.6-.69a13.61,13.61,0,0,1,1.59-1.49,23.14,23.14,0,0,1,2.74-1.93,30.07,30.07,0,0,1,2.84-1.47c.91-.39,1.9-.75,3-1.12l.56-.17a6.33,6.33,0,0,0,1-.37s.07,0,.09,0l-.13,0a6.51,6.51,0,0,1-1,.35,3.06,3.06,0,0,0-.56.17c-1.1.36-2.09.73-3,1.12a21.56,21.56,0,0,0-2.84,1.46,25.84,25.84,0,0,0-2.74,1.94,13.61,13.61,0,0,0-1.59,1.49,8,8,0,0,0-.6.69,8,8,0,0,1-.78.86c-.13.13-.26.24-.36.36l-.33.33a5.07,5.07,0,0,0-1.16,1.27l0,0,0,0a.68.68,0,0,0,.22-.09.9.9,0,0,0,.21-.08,1.45,1.45,0,0,1-.19.17c-.09.09-.2.15-.26.26Z"
                  style="fill:#010101"/>
            <path d="M273.45,94.46l.15-.07h-.05s-.06,0-.08,0h0a.38.38,0,0,1-.13,0,1,1,0,0,0-.18.11Z"
                  style="fill:#010101"/>
            <path d="M257.74,105.17a14.6,14.6,0,0,1,2-.2c.26,0,.52,0,.78,0a11.36,11.36,0,0,1,1.94.13l.64.06a23.3,23.3,0,0,1,2.63.43c.67.15,1.36.26,2,.39.41.09.84.15,1.25.24a1.94,1.94,0,0,1,.62.28l.2.11h0a10.83,10.83,0,0,0,2.35,1,7.21,7.21,0,0,0,1.55.15H274c.47,0,.94,0,1.42,0,.88,0,1.79,0,2.69.11a9.51,9.51,0,0,1,1.55.19,5.9,5.9,0,0,1,1.47.47,2.75,2.75,0,0,1,.75.69,3.19,3.19,0,0,0-1.4-1.37,6.36,6.36,0,0,0-1.77-.67h0a4.17,4.17,0,0,1,.8-.09,7,7,0,0,1,1.66.24A7.59,7.59,0,0,1,283,108a4,4,0,0,1,.6.41,4,4,0,0,0,.52.37,6.39,6.39,0,0,0-2.46-2,3,3,0,0,0-.67-.24c-.1,0-.19-.07-.3-.09h.73c.41,0,.82,0,1.25,0a10,10,0,0,1,1.58.26,6.49,6.49,0,0,1,1.48.61,4.53,4.53,0,0,1,.71.45l.31.19a4.86,4.86,0,0,0-2.12-1.76,5.18,5.18,0,0,0-1.48-.48c-.05,0-.07,0-.09,0a1.83,1.83,0,0,1-.39-.09h0a6.65,6.65,0,0,1,3.19.31,10.59,10.59,0,0,1,2.69,1.35,1.44,1.44,0,0,0,.2.11,4.21,4.21,0,0,0-1.83-1.44,8.51,8.51,0,0,0-1.51-.52.35.35,0,0,1-.17-.06h0a13.2,13.2,0,0,1,2.93.34,11.39,11.39,0,0,1,1.53.45,9.31,9.31,0,0,1,1.42.67,5.74,5.74,0,0,0-2.44-1.64l-.62-.15a2.46,2.46,0,0,1-.45-.11h0c.47,0,.94-.06,1.4-.1a10.66,10.66,0,0,1,2.65,0,7.17,7.17,0,0,1,.9.18l.26.06a5.16,5.16,0,0,1-.71-.43c-.11-.09-.22-.15-.32-.22a3.84,3.84,0,0,0-2.85-.64h0l1.1-.41a13.62,13.62,0,0,1,3.43-1l-.13,0a.86.86,0,0,0-.24,0h0a5.38,5.38,0,0,0,2.48-1l-.17.07a5,5,0,0,1-1.38.32h0a5.58,5.58,0,0,0,1.66-.65,8.83,8.83,0,0,0,2.11-1.81,9.64,9.64,0,0,1-2,.8,7.55,7.55,0,0,1-2.12.26h0c.24-.11.48-.24.69-.35l.24-.13.17-.1a3.05,3.05,0,0,0,.48-.3,9.29,9.29,0,0,1-1.83.68.49.49,0,0,1-.2,0,1.4,1.4,0,0,1-.67.08h0a3.33,3.33,0,0,1,.78-.62s0,0,.06,0a3.78,3.78,0,0,0-.77.32c-.13.06-.26.15-.41.21a.6.6,0,0,1-.52,0l-.17-.06a.67.67,0,0,0-.19,0,.72.72,0,0,1-.35-.13h0a4.23,4.23,0,0,0,1.49-1c-.32.13-.65.31-1,.46l-.45.23h0a.86.86,0,0,1-.69.13c-.44-.1-.8-.21-1.12-.3h0a7.91,7.91,0,0,0,3.83-1.4,3,3,0,0,0,1-1.14,6.81,6.81,0,0,1-1.61,1,7.09,7.09,0,0,1-1.85.52h0a.76.76,0,0,1,.16-.11,2.07,2.07,0,0,0,.32-.28,1.92,1.92,0,0,0-.52.24,1.75,1.75,0,0,1-.43.22,1.88,1.88,0,0,1-.58,0l-.32,0h0a3.91,3.91,0,0,0,1.31-.82l-.47.23a4.05,4.05,0,0,1-1.32.5,2.62,2.62,0,0,1-1,0h0a4,4,0,0,0,2-.93,4.65,4.65,0,0,1-2,.69h0a.48.48,0,0,0,.19-.09,1.38,1.38,0,0,0,.44-.21,4.87,4.87,0,0,0,1-1,3.59,3.59,0,0,1-1,.52.33.33,0,0,0-.13,0,3.72,3.72,0,0,1-1.64.26h0a5.36,5.36,0,0,0,2.29-1,2.43,2.43,0,0,0,.73-1.19,3.8,3.8,0,0,1-.91.78,3.6,3.6,0,0,1-1.12.47,8.7,8.7,0,0,1-2,.26h0a8.87,8.87,0,0,0,1-.62c.13-.11.28-.22.43-.33l0,0a3.71,3.71,0,0,0,1-.88.86.86,0,0,0-.17.15,4,4,0,0,1-.54.41h0l.26-.32a7.17,7.17,0,0,0,.45-.63,4.37,4.37,0,0,1-1.36.89h0a2.33,2.33,0,0,0,.5-.46,5.31,5.31,0,0,1-2.11,1l-.22,0a1.35,1.35,0,0,1-.95,0h0a6.94,6.94,0,0,0,2.35-1.16,4,4,0,0,1-1.38.58h0A4.26,4.26,0,0,0,286.39,94a3.8,3.8,0,0,1-.75.69,6.12,6.12,0,0,1-.91.51,4.76,4.76,0,0,1-1.91.39h-.13a1.37,1.37,0,0,1-.39-.13h0a5.89,5.89,0,0,0,1.9-1.33,4,4,0,0,0,.94-1.51,7.1,7.1,0,0,0-.75.8,8.35,8.35,0,0,1-1,1,7.28,7.28,0,0,1-1.53.8h0a1,1,0,0,0-.33-.11h0a5.66,5.66,0,0,0,2.35-2.56c-.15.17-.3.34-.43.51a7,7,0,0,1-1.74,1.66l-.07,0a.92.92,0,0,1-.69.18.27.27,0,0,1-.13,0,5.25,5.25,0,0,0-.6-.17h0c.11-.08.19-.17.3-.24a6.84,6.84,0,0,0,1.4-1.44,3.82,3.82,0,0,0,.32-.64l-.38.45a7.94,7.94,0,0,1-1.38,1.4,1.67,1.67,0,0,1-.8.34h0c.09-.06.17-.15.26-.21a5,5,0,0,0,1.61-1.92l-.25.32a6.26,6.26,0,0,1-1.3,1.27,1.72,1.72,0,0,1-.86.33h0a5.09,5.09,0,0,0,1.62-1.77,6.64,6.64,0,0,1-1.66,1.55h0a3.83,3.83,0,0,0,1.12-1.87,5.55,5.55,0,0,1-1.1,1.25,3.93,3.93,0,0,1-1.16.75.59.59,0,0,1-.26,0,.31.31,0,0,1-.17,0c-.37,0-.74,0-1.12-.07a.08.08,0,0,0-.07,0h0l-.26,0a8.45,8.45,0,0,0-1.33,0c-.39,0-.8.1-1.19.17l-.1,0a.76.76,0,0,0-.24.11,1,1,0,0,1-.15.08,1,1,0,0,1-.28.11s0,0-.05,0a4.84,4.84,0,0,1-1,.37,4.58,4.58,0,0,0-.56.17,28.32,28.32,0,0,0-5.84,2.59,20,20,0,0,0-2.73,1.94,13,13,0,0,0-1.6,1.48l-.6.69a10.8,10.8,0,0,1-.78.89l-.36.36-.33.33a5,5,0,0,0-1.14,1.27A2,2,0,0,0,258,105a2,2,0,0,1,.26-.09h0a1.26,1.26,0,0,1-.24.22C257.87,105,257.79,105.08,257.74,105.17Z"
                  style="fill:#010101;stroke:#010101;stroke-width:0.5px"/>
            <path d="M288.91,101.72a2.82,2.82,0,0,1-.77-.52,2.29,2.29,0,0,0-.5-.3.56.56,0,0,1-.17-.09c-.6-.3-1.21-.64-1.77-1l-1.14-.67h0a5,5,0,0,1-.71-.45,7,7,0,0,0-.71-.45,13.12,13.12,0,0,1-.8,3.34,12.64,12.64,0,0,1-1.31,2.63,10.43,10.43,0,0,1-1.36,1.48c2-.6,4.2-1.2,6.62-1.83.47-.13,1-.26,1.46-.41,1.34-.38,2.71-.75,4.12-1A7.45,7.45,0,0,1,288.91,101.72Z"
                  style="fill:#fff;stroke:#010101;stroke-width:0.5px"/>
            <path d="M272.76,106.74h-.13a1.51,1.51,0,0,1-.65-.26l-.13-.07a1.07,1.07,0,0,1-.28-.19,1.35,1.35,0,0,0-.36-.21,3.66,3.66,0,0,1-1-.48,3.21,3.21,0,0,1-.79-.77,4.78,4.78,0,0,1-.8-2.07,10,10,0,0,1-.15-1.38,10.4,10.4,0,0,1,0-1.38,6.57,6.57,0,0,1,.8-2.46l0,0a1,1,0,0,1,.45-.45,19.12,19.12,0,0,1,1.9-.52,16.26,16.26,0,0,1,3.19-.36H275a2.29,2.29,0,0,0-1,.54A4.36,4.36,0,0,0,272.8,99a4,4,0,0,0,.17,2.55,2.1,2.1,0,0,0,1.42,1.12,2.62,2.62,0,0,0,2-.37,4.64,4.64,0,0,0,1.84-2.15,3.67,3.67,0,0,0,.1-2.48A2.5,2.5,0,0,0,277,96.25h0a3.23,3.23,0,0,1,.61,0l.21,0c.67.09,1.38.17,2.07.3a4.4,4.4,0,0,1,1.38.56.56.56,0,0,1,.28.39,4.59,4.59,0,0,1,.26,1.4,6.54,6.54,0,0,1-.11,1.42,6,6,0,0,1-.3,1.12c0,.18-.11.35-.15.52a8.33,8.33,0,0,1-3.19,4,2.44,2.44,0,0,1-.93.38,17.65,17.65,0,0,1-2.19.35c-.31,0-.63,0-1,0Z"
                  style="fill:none;stroke:#010101;stroke-width:0.5px"/>
            <path d="M266.73,104.3c-.56-.34-1.12-.69-1.71-1a5.58,5.58,0,0,0-2.32-.73,5.89,5.89,0,0,0-3.28.64h0c.91-.62,1.79-1.29,2.65-2,.5-.38,1-.77,1.53-1.14A23.2,23.2,0,0,1,266,98.55a16.64,16.64,0,0,1,2.61-1.16h0a7.36,7.36,0,0,0-.52,3.55,8.69,8.69,0,0,0,.78,3.39,4.88,4.88,0,0,0,1.72,2h0A18.48,18.48,0,0,1,266.73,104.3Z"
                  style="fill:none;stroke:#010101;stroke-width:0.5px"/>
            <path d="M263.62,100.12l-1.53,1.15c-.84.64-1.72,1.31-2.6,1.93a5.69,5.69,0,0,1,1.55-.53,5.59,5.59,0,0,1,1.68-.09,5.71,5.71,0,0,1,2.33.73c.58.33,1.14.67,1.7,1a19.2,19.2,0,0,0,3.83,2,5.65,5.65,0,0,1-1-.84,4.3,4.3,0,0,1-.73-1.1,6.88,6.88,0,0,1-.54-1.66,12.4,12.4,0,0,1-.22-1.75,9.56,9.56,0,0,1,0-1.81,5.57,5.57,0,0,1,.47-1.72A16.16,16.16,0,0,0,263.62,100.12Z"
                  style="fill:#fff;stroke:#010101;stroke-width:0.5px"/>
            <path d="M279.67,105.7a7.21,7.21,0,0,0,1.36-1.48,12.64,12.64,0,0,0,1.31-2.63,14,14,0,0,0,.8-3.34h0a7.49,7.49,0,0,1,.73.45c.24.15.48.33.71.45h0l1.15.67c.56.35,1.16.69,1.76,1l.17.09a1.3,1.3,0,0,1,.5.28,2.72,2.72,0,0,0,.78.52,7.36,7.36,0,0,0,2.95.71h0c-1.4.26-2.78.64-4.14,1l-1.46.41c-2.42.65-4.59,1.23-6.62,1.85Z"
                  style="fill:none;stroke:#010101;stroke-width:0.5px"/>
            <path id="Iris-2"
                  d="M276.94,96.23a2.54,2.54,0,0,1,.77.6,2.43,2.43,0,0,1,.5.84,4,4,0,0,1,.17,1.25,4.29,4.29,0,0,1-.26,1.25,4.52,4.52,0,0,1-1.83,2.13,2.89,2.89,0,0,1-1,.39,2.45,2.45,0,0,1-1,0,2.2,2.2,0,0,1-.84-.41,1.94,1.94,0,0,1-.58-.73,3.9,3.9,0,0,1-.17-2.55,4.42,4.42,0,0,1,1.2-2.37,2.38,2.38,0,0,1,.95-.53,16.23,16.23,0,0,0-3.27.36,19.12,19.12,0,0,0-1.9.52c-.22.06-.32.28-.43.45l0,0a7,7,0,0,0-.8,2.46,9.32,9.32,0,0,0,.11,2.76,5,5,0,0,0,.8,2.06,3.4,3.4,0,0,0,1.8,1.28,1.06,1.06,0,0,1,.37.23l.28.2.13.06a1.62,1.62,0,0,0,.65.26h.13a19.28,19.28,0,0,0,2.15,0,17.5,17.5,0,0,0,2.2-.35A2.34,2.34,0,0,0,278,106a8.39,8.39,0,0,0,3.19-4c0-.17.11-.34.15-.52a6.33,6.33,0,0,0,.28-1.12,5.6,5.6,0,0,0-.15-2.82.53.53,0,0,0-.28-.36,4.47,4.47,0,0,0-1.38-.54,17.06,17.06,0,0,0-2.06-.3c-.09,0-.16,0-.22,0a3.42,3.42,0,0,0-.45,0C277,96.23,277,96.25,276.94,96.23Z"
                  style="fill:#e71d83;stroke:#010101;stroke-width:0.5px"/>
        </g>
        <g id="Clothes">
            <path d="M190.43,104.54a11.45,11.45,0,0,1-9.07-8.06c-.3-.86-1.52-1.24-1.09-2.64,1.22,0,1.83.7,2.45,1.84,3.12,5.78,6.77,6.73,12.52,3.38,3-1.74,5.92-3.53,9.38-4.41,5.79-1.47,10.71.2,15.33,3.49a7.23,7.23,0,0,0,2.63,1.52v2.5c-1.5-.06-2.71-.89-4-1.5-4.38-2.07-8.8-3.33-13.57-1-3.46,1.64-6.15,4.6-9.92,5.68C194.46,105.29,191.35,104.72,190.43,104.54Z"/>
            <path d="M222.58,75.29c-2.18,3.61-6.13,2.67-9.14,2.85a17.88,17.88,0,0,0-11.81,5,3.47,3.47,0,0,1,1.5-3.4c2.81-2.25,6.18-3.07,9.57-3.68a11,11,0,0,0,6.65-3.43,2.17,2.17,0,0,1,3.23-.45Z"/>
            <path d="M293.68,103.6a11.45,11.45,0,0,0,9.07-8.06c.3-.86,1.52-1.25,1.09-2.64-1.22,0-1.83.69-2.45,1.84-3.12,5.78-6.77,6.73-12.52,3.38-3-1.74-5.92-3.53-9.38-4.41-5.79-1.47-10.71.2-15.33,3.48a7.11,7.11,0,0,1-2.63,1.53v2.5a10.57,10.57,0,0,0,4-1.51c4.38-2.06,8.8-3.32,13.57-1,3.46,1.65,6.15,4.6,9.92,5.68C289.65,104.34,292.76,103.78,293.68,103.6Z"/>
            <path d="M261.53,74.35c2.18,3.6,6.13,2.67,9.14,2.85a17.83,17.83,0,0,1,11.81,5,3.46,3.46,0,0,0-1.5-3.4c-2.81-2.25-6.18-3.07-9.57-3.69a10.86,10.86,0,0,1-6.65-3.43,2.18,2.18,0,0,0-3.23-.45Z"/>
            <path d="M252.15,141.22c1.44-.55,2.33-2.43,4.28-1.73-.07,2.86-2.27,2.87-4.27,3.15a2.89,2.89,0,0,1-2.5,1.27c-.8,0-1.59.05-2.39,0-3.08-1.51-5.92.51-8.89.62a3.5,3.5,0,0,1-2.76-.91l-5.6-1.71V140.7c1.63-1,2.95-.1,4.3.68,1,.2,2,.22,3,.35a12.21,12.21,0,0,0,5.36-.88c2.39-1,4.76.82,7.19.25A6.43,6.43,0,0,1,252.15,141.22Z"
                  style="fill:#212846"/>
            <path d="M242.94,150.07c-2.77-.51-4-3.07-6.1-4.5.93-1.38,1-1.38,3.13,0a8.3,8.3,0,0,0,2.65,1.43,4.1,4.1,0,0,0,4.89-1.5c.61-.78,1.58-1.93,2.49-1.12,1.18,1.07-.43,1.89-.95,2.74a5.07,5.07,0,0,1-1.86,1.56A5.24,5.24,0,0,1,242.94,150.07Z"
                  style="fill:#2a2c49"/>
            <path d="M247.19,148.64l3-4c-2.69,1-4.18,5.27-8.09,2.86,2.55-1.37,4.77-3.32,7.57-4.25l2.46-.62C251.51,145.47,250.15,147.7,247.19,148.64Z"
                  style="fill:#f1d6e9"/>
            <path d="M239.83,146.23c-1-.18-1.55-2.43-3-.66a3.22,3.22,0,0,1-1.22-1.93l3,.22c.86.45,1.83.78,2,1.92C240.54,146.22,240.38,146.58,239.83,146.23Z"
                  style="fill:#eecee4"/>
            <path d="M252.15,141.22c-.61.21-1.06.9-1.83.59a5.62,5.62,0,0,1-.56-.25c-4.51-2.52-8.87-2.69-13,.87a2.93,2.93,0,0,1-2.47-1.05c.87-.36,1.37-1.41,2.48-1.34,3.84-4.44,6.77-4.92,11.68-1.92a1.16,1.16,0,0,0,1.15.15C251,138.79,251.48,140.09,252.15,141.22Z"
                  style="fill:#efd1e6"/>
            <path d="M249.63,138.27c-.1.37.45,1.69-.62.81-4.46-3.68-8.36-2.1-12.21,1,1.07-2.5,2.34-4.78,5.52-5A9.47,9.47,0,0,1,249.63,138.27Z"
                  style="fill:#222947"/>
            <path d="M236.79,142.43a40,40,0,0,1,3.45-2.94c1.35-.92,2.88-1.61,4.56-.69,1.84,1,3.9,1.61,5.52,3-1.89.05-3.82.52-5.61-.55-.38-.22-.76-.63-1.31-.12C241.48,142.93,239.11,142.58,236.79,142.43Z"
                  style="fill:#eac0dc"/>
            <path d="M240.47,145.6a4.33,4.33,0,0,1-1.83-1.74,5,5,0,0,0,1.48-.22,7.92,7.92,0,0,1,7.11-.38C245.27,146.78,242.83,147.62,240.47,145.6Z"
                  style="fill:#e6b5d4"/>
            <path d="M240.47,145.6c3.29,2.19,4.6-1.3,6.76-2.34h2.47c-2.35,1.71-4.29,4.16-7.57,4.25a4,4,0,0,1-2.3-1.28Z"
                  style="fill:#eac1dc"/>
            <path d="M226,266c.78,2.86-2,3.84-3.31,5-6.58,5.52-14.46,5.85-22.41,4.1-5.07-1.12-11.53-10.36-11.5-15.66s-.37-10.52,1.9-15.66a22.25,22.25,0,0,1,6.89-9.19h3.39c.48,1.06,1.69,1.78,1.38,3.23s.74,1.65,1.82,1.49c2.09-.32,2.8.87,2.88,2.63a4.64,4.64,0,0,0,3.44,4.54,4.88,4.88,0,0,1,3.33,4.85c.08,2.27.44,4,3.32,4.4,1.57.22,3.48,1.89,3.29,3.38-.51,4,4.36,4.46,4.57,7.77Zm-22.88,4.79c5.46,2,12.66,2,17,.21,3-1.24,3.35-4.22.74-6.21a4.8,4.8,0,0,1-2.19-3.62,3.5,3.5,0,0,0-3-3.78,3.88,3.88,0,0,1-3.22-4.12c-.06-2.73-1.09-5-4.06-5.94-1.07-.34-2.29-1.22-2.37-2.24-.19-2.76-.71-4.8-4.14-4.73-.75,0-1.45-1.14-1.46-2.08-.07-3.38-1.64-2-3.11-1-4.26,2.89-7.54,12.3-6.06,18.27,1.13-6.15,2-8.23,4.49-10.68a39.46,39.46,0,0,0-3.45,17.75c2.53-2.69,3.82-6,7.09-7.4-1,1.89-2.44,3.43-3.5,5.2-.83,1.39-3.32,2.87-1.67,4.47,1.4,1.37,3.1-.86,4.61-1.58,1.87-.89,3.6-2,5.38-3.09-2.2,3-5.55,4.29-8.51,6.56,4.82,4.1,9.93,2,15.49,1C208.43,269.83,205.8,270,203.07,270.8Z"
                  style="fill:#1f2745"/>
            <path d="M230,261.66c-1.19.95-1.38,2.49-2.16,3.68-.39.59-.79,1.5-1.61.37,1.87-1.37,1.56-4.27,3.77-5.41Z"
                  style="fill:#1f2745"/>
            <path d="M203.07,270.8c2.73-.76,5.36-1,8-3.07-5.56,1.06-10.67,3.12-15.49-1,3-2.27,6.31-3.59,8.51-6.56-1.78,1-3.51,2.2-5.38,3.09-1.51.72-3.21,3-4.61,1.58-1.65-1.6.84-3.08,1.67-4.47,1.06-1.77,2.51-3.31,3.5-5.2-3.27,1.38-4.56,4.71-7.09,7.4a39.46,39.46,0,0,1,3.45-17.75c-2.53,2.45-3.36,4.53-4.49,10.68-1.48-6,1.8-15.38,6.06-18.27,1.47-1,3-2.34,3.11,1,0,.94.71,2.09,1.46,2.08,3.43-.07,4,2,4.14,4.73.08,1,1.3,1.9,2.37,2.24,3,.93,4,3.21,4.06,5.94a3.88,3.88,0,0,0,3.22,4.12,3.5,3.5,0,0,1,3,3.78,4.8,4.8,0,0,0,2.19,3.62c2.61,2,2.22,5-.74,6.21C215.73,272.8,208.53,272.78,203.07,270.8Z"
                  style="fill:#7d658e"/>
            <path d="M249.42,449.93c3.07,1.21,5.26,4.15,9.2,3.82,2.27-.18,3.74,3.52,2.81,7.15-1.58,6.13-3.75,12-8.42,16.65a11.53,11.53,0,0,1-6.81,3.05,27.4,27.4,0,0,1-12.91-1.17c-1-.36-1.7-1.76-2.59-2.61-4.21-4-6.12-9.09-6.62-14.75-.3-3.35,1.11-5.07,4.69-5.45,2.21-.23,3.77-.82,4.83-3a4.53,4.53,0,0,1,5.87-2.33c3.25,1.42,5.6.07,8.14-1.35Zm-1.28,13.53.68.29c-1,3.79-1.64,7.73-3.11,11.33-.72,1.78.61,2.24.91,3.25.38,1.28,1.52.18,2.27,0a9.56,9.56,0,0,0,5.17-3.89c2.9-4.11,4.57-8.81,6.09-13.54a7,7,0,0,0-.39-4.4c-.46-1.32-.87-1.7-2.34-1.25a5.54,5.54,0,0,1-5.79-1.63,4.05,4.05,0,0,0-5.21-.88,6.85,6.85,0,0,1-6.78.53c-1.62-.72-3.59-.48-4.36,1.45-1.11,2.76-3.1,3.68-5.87,3.76-2.54.07-3.77,1.39-3.54,4.08.63,7.27,3.13,13.5,10.81,16.36.71.27,1.67,1.14,2.14.37a3.85,3.85,0,0,0,.8-3c-.16-.56-.6-1.05-.74-1.62-.94-3.81-2.45-7.54-2-12.2,1.77,5.86,1.78,11.72,5.78,16.26C246,474.12,246.4,468.52,248.14,463.46Z"
                  style="fill:#212846"/>
            <path d="M248.14,463.46c-1.74,5.06-2.11,10.66-5.51,15.23-4-4.54-4-10.4-5.78-16.26-.42,4.66,1.09,8.39,2,12.2.14.57.58,1.06.74,1.62a3.85,3.85,0,0,1-.8,3c-.47.77-1.43-.1-2.14-.37-7.68-2.86-10.18-9.09-10.81-16.36-.23-2.69,1-4,3.54-4.08,2.77-.08,4.76-1,5.87-3.76.77-1.93,2.74-2.17,4.36-1.45a6.85,6.85,0,0,0,6.78-.53,4.05,4.05,0,0,1,5.21.88,5.54,5.54,0,0,0,5.79,1.63c1.47-.45,1.88-.07,2.34,1.25a7,7,0,0,1,.39,4.4c-1.52,4.73-3.19,9.43-6.09,13.54a9.56,9.56,0,0,1-5.17,3.89c-.75.22-1.89,1.32-2.27,0-.3-1-1.63-1.47-.91-3.25,1.47-3.6,2.12-7.54,3.11-11.33Zm2.55,8.27c1.58-2.51,3.07-5.06,3.15-8.18-1.16,2.6-2.32,5.21-3.47,7.81a4.33,4.33,0,0,0-2,3.41C250.08,474.25,250.31,472.93,250.69,471.73Zm-21.48-10.49c-.9,4.6,1.37,7.33,3,10.27A49.54,49.54,0,0,1,229.21,461.24Zm7.15,14.64a3.53,3.53,0,0,0-2.68-2.52A2.73,2.73,0,0,0,236.36,475.88Zm1.29,1.8c.62-.08,1-.22.78-.69-.14-.25-.6-.39-.94-.47-.57-.12-.68.39-.54.69S237.5,477.59,237.65,477.68Zm10.5-1.8c-.16-.32-.13-.76-.55-.52a.92.92,0,0,0-.43.62c0,.22.07.64.48.43C247.86,476.3,248,476,248.15,475.88Z"
                  style="fill:#7d658e"/>
            <path d="M229.21,461.24a49.54,49.54,0,0,0,3,10.27C230.58,468.57,228.31,465.84,229.21,461.24Z"
                  style="fill:#212846"/>
            <path d="M250.37,471.36l3.47-7.81c-.08,3.12-1.57,5.67-3.15,8.18Z" style="fill:#212846"/>
            <path d="M250.69,471.73c-.38,1.2-.61,2.52-2.28,3a4.33,4.33,0,0,1,2-3.41Z" style="fill:#212846"/>
            <path d="M236.36,475.88a2.73,2.73,0,0,1-2.68-2.52A3.53,3.53,0,0,1,236.36,475.88Z" style="fill:#212846"/>
            <path d="M237.65,477.68c-.15-.09-.59-.21-.7-.47s0-.81.54-.69c.34.08.8.22.94.47C238.7,477.46,238.27,477.6,237.65,477.68Z"
                  style="fill:#212846"/>
            <path d="M248.15,475.88c-.15.16-.29.42-.5.53-.41.21-.51-.21-.48-.43a.92.92,0,0,1,.43-.62C248,475.12,248,475.56,248.15,475.88Z"
                  style="fill:#212846"/>
            <path d="M261.52,266.35c.21-3.3,5.07-3.75,4.56-7.76-.19-1.49,1.72-3.17,3.29-3.39,2.89-.4,3.24-2.13,3.32-4.4A4.88,4.88,0,0,1,276,246a4.65,4.65,0,0,0,3.44-4.54c.08-1.75.78-2.95,2.88-2.63,1.07.16,2.15.05,1.82-1.49s.9-2.16,1.37-3.23h3.39a22.21,22.21,0,0,1,6.89,9.19c2.27,5.14,1.87,10.38,1.9,15.66s-6.43,14.55-11.5,15.66c-7.94,1.76-15.83,1.42-22.41-4.1-1.34-1.13-4.08-2.12-3.31-5Zm13.88.86c5.55,1.06,10.66,3.12,15.48-1-2.95-2.27-6.3-3.59-8.51-6.56,1.79,1,3.52,2.2,5.38,3.09,1.51.73,3.21,2.95,4.62,1.59,1.65-1.61-.84-3.09-1.68-4.48-1.06-1.77-2.51-3.31-3.5-5.2,3.27,1.39,4.57,4.71,7.09,7.41a39.52,39.52,0,0,0-3.44-17.76c2.52,2.45,3.35,4.53,4.48,10.68,1.48-6-1.8-15.37-6.06-18.27-1.47-1-3-2.34-3.1,1,0,.94-.72,2.1-1.47,2.08-3.42-.06-3.95,2-4.14,4.73-.07,1-1.29,1.91-2.37,2.24-3,.93-4,3.21-4.05,5.94a3.89,3.89,0,0,1-3.22,4.12,3.5,3.5,0,0,0-3,3.78,4.8,4.8,0,0,1-2.18,3.63c-2.61,2-2.23,5,.73,6.2,4.31,1.79,11.51,1.78,17-.21C280.65,269.52,278,269.31,275.4,267.21Z"
                  style="fill:#1f2745"/>
            <path d="M256.43,261.14c1.19.95,1.39,2.49,2.17,3.68.38.59.78,1.51,1.61.38-1.87-1.38-1.57-4.28-3.78-5.41Z"
                  style="fill:#1f2745"/>
            <path d="M283.39,270.28c-2.74-.76-5.36-1-8-3.07,5.55,1.06,10.66,3.12,15.48-1-2.95-2.27-6.3-3.59-8.51-6.56,1.79,1,3.52,2.2,5.38,3.09,1.51.73,3.21,2.95,4.62,1.59,1.65-1.61-.84-3.09-1.68-4.48-1.06-1.77-2.51-3.31-3.5-5.2,3.27,1.39,4.57,4.71,7.09,7.41a39.52,39.52,0,0,0-3.44-17.76c2.52,2.45,3.35,4.53,4.48,10.68,1.48-6-1.8-15.37-6.06-18.27-1.47-1-3-2.34-3.1,1,0,.94-.72,2.1-1.47,2.08-3.42-.06-3.95,2-4.14,4.73-.07,1-1.29,1.91-2.37,2.24-3,.93-4,3.21-4.05,5.94a3.89,3.89,0,0,1-3.22,4.12,3.5,3.5,0,0,0-3,3.78,4.8,4.8,0,0,1-2.18,3.63c-2.61,2-2.23,5,.73,6.2C270.73,272.28,277.93,272.27,283.39,270.28Z"
                  style="fill:#7d658e"/>
            <path d="M243.7,174.09c-.35,0-10.21-3.26-14.1-6.32-1.91-1.49-1.12-3.17-.22-4.63,1-1.63,2.34-1.3,3.87-.27,2.6,1.73,5.22,3.25,8.53.85a5,5,0,0,1,4.71.05c2.38,1.91,3.91.42,5.88-.37,1.5-.6,3.58-2.75,4.76-.35.89,1.82,1.34,4.47-1.78,5.82C251.45,170.57,243.78,174.26,243.7,174.09Z"
                  style="fill:#1d2644"/>
            <path d="M243.94,172.72c-2.89-.1-3.87-2.06-4.1-4.51-.26-2.72,1.93-3.92,3.87-3.85,2.11.08,4.65,1.18,4.5,4C248.09,170.79,247,172.85,243.94,172.72Z"
                  style="fill:#fff"/>
            <path d="M236.91,169.2c-2.32,0-4-1.53-5.86-2.32a1.64,1.64,0,0,1-.94-2.31c.59-1.38,1.61-.6,2.29-.22a13.4,13.4,0,0,0,5.15,1.89c1.75.18.83,1.12.88,1.86C238.52,169.49,237.89,169.66,236.91,169.2Z"
                  style="fill:#67627b"/>
            <path d="M255.84,163.81c.17,2.89-3,6-5.46,5.63-.76-.11-.61-.55-.64-.9-.09-1.19-.08-2.34,1.34-2.86S254.07,164.5,255.84,163.81Z"
                  style="fill:#67627b"/>
            <path d="M207.41,326.12c0-4.12-.07-3.82,4.48-2.88a110,110,0,0,0,25.69,2.25c1.22,0,1.77-.79,2.63-1.23,2.07-1.05,4.46-1.79,6.38-.21,4.09,3.37,9,2.41,13.46,1.9,4-.45,8.14.24,12-1.18.46-.17,1.15.07,1.5-.17,1.72-1.17,3.58-2.54,5,0s-.23,6.67-2.9,7.4a66.21,66.21,0,0,1-12,2.48c-4.3.35-9.26-.17-12.8,1.16-5.82,2.19-10.06.3-15.4-.66-8.06-1.45-16.4-1.88-24.46-3.87C207.46,330.3,207.4,330.5,207.41,326.12Z"
                  style="fill:#1d2644"/>
            <path d="M236.52,333.37c-8.63-.82-16.81-1.44-24.76-3.62-2.06-.56-2.29-1.79-1.93-3.21.45-1.77,1.86-.88,3.07-.71,5.52.76,11,1.76,16.64,1.76S235.54,327.82,236.52,333.37Z"
                  style="fill:#67627b"/>
            <path d="M255.78,333.23c-.9,0-1.81-.06-2.7,0-2,.17-2.35-.79-2.33-2.34s.08-2.72,2.39-2.65c7,.21,14-.65,20.94-1.47.74-.09,1.65-1.19,2.14.22a2.1,2.1,0,0,1-.59,2.28,5.58,5.58,0,0,1-2.66,1.26A78.44,78.44,0,0,1,255.78,333.23Z"
                  style="fill:#67627b"/>
            <path d="M244.35,336.06c-4.36.44-6.13-2.49-6.68-5.87-.35-2.15,3.37-5.44,5.78-5.44,2.78,0,5.76,2.9,5.78,5.62C249.25,333.34,247,336,244.35,336.06Z"
                  style="fill:#fff"/>
            <path d="M253.12,538.56c7.26,1.82,16.16,1.72,25.07,1.66a7.89,7.89,0,0,0,5.63-1.73c3.7-3.14,7.75-3.3,12.56-.94a10.08,10.08,0,0,0,7,.78c6.06-1.49,12.2-2.81,17.79-5.44,1.91-.89,4.86-2.13,5.95-.21a4.56,4.56,0,0,1-1.63,6.3c-5.33,3.61-11.52,5.55-18,6.89-4,.83-7.65,1-10.53,4.33-2.57,2.93-9.39,2.75-12.87.08a9.4,9.4,0,0,0-6.56-1.86c-10,.25-19.66-2.12-29.47-3.31-2.19-.26-2.35-1.62-2.23-3.08s.37-3,2.41-3.43A31.08,31.08,0,0,1,253.12,538.56Z"
                  style="fill:#1d2644"/>
            <path d="M283.16,544.28c0-3.65,3.09-6.47,7.18-6.57s7.58,2.76,7.57,6.24c0,4.28-2.17,6.1-7.24,6.14C285.42,550.13,283.16,548.38,283.16,544.28Z"
                  style="fill:#fff"/>
            <path d="M280.29,546.8a153.25,153.25,0,0,1-27.93-2.7c-1.91-.34-4.42-.82-3.54-3.39s2.89-.74,4.29-.52a114.51,114.51,0,0,0,21.28,1.68C280.1,541.72,280.1,541.84,280.29,546.8Z"
                  style="fill:#67627b"/>
            <path d="M324.44,535.71c.32,1.6-.91,2.72-2.51,3.48A81.79,81.79,0,0,1,304,545c-2.34.5-2.95-.46-3.35-2.32-.33-1.57-.8-2.17,1.7-2.63a91.81,91.81,0,0,0,19.51-5.71C324.09,533.41,324.34,533.66,324.44,535.71Z"
                  style="fill:#67627b"/>
            <path d="M435.7,469.52a12.47,12.47,0,0,1-3-10.22h6.84c3.14,2.82,6.93,5,9.13,8.76v.73c-1.63.58-3.17,0-4.62-.53-2.84-1.06-5.34-.85-7.55,1.26Z"
                  style="fill:#d7a9ce;stroke:#1d1d1b;stroke-miterlimit:10"/>
            <path d="M54.18,459.39c.73,3.88-1.3,7-3,10.22h-.76a9.59,9.59,0,0,0-7.06-1.81c-1.22.1-2.49.59-3.59-.38v-.73c1.68-3,4.43-5,6.85-7.3Z"
                  style="fill:#d7a9ce;stroke:#1d1d1b;stroke-miterlimit:10"/>
        </g>
        <g id="HairFront">
            <path d="M305.89,202.63c-28.63-28,25.59-138.3-27.66-112.21-11.42,2.82-13.1-11.15-12.79-19.33-.49-12.6-3.32-24.71-10.19-35.59,25,18.15,30.49,22.34,43.92,51.07A52.34,52.34,0,0,1,305,109.14c.32-.14,6.15-45.69-.16-69.17C291.31-7.59,225.3-10.19,194,20.87c-24.55,26.46-24.74,67.74-18.71,101.06.54-13.46,3.8-26.5,7.09-39.67-1.71,18.65-6.79,40.21-6.27,60.38-.46,13.94,3,28.21-3,41.82-1.61,10.83-2.3,22.31-.37,33.1,2.79,20.58,19.28,32.76,7.85,54.12-.7,2.77-2.39,5.83.77,8.36,5-2.6,4.44-8,4.92-12.8,6.34-23.48-14.28-42.63-13.26-65.84,1.55-18.24,8.46-35.73,8.87-54.15-8-100.51,48.1-72.16,62-124.5,9.1,14.06,20.24,26.12,19.89,43.69-1.71,18,4,33,23.83,22.23,5-2.34,9.6-1.16,11.3,3.16,8.85,35.15-17.42,73.44,3.29,106.86A35.35,35.35,0,0,1,307.19,219c-.76,6.27,5.9,5.95,4.81-.06C311.18,213.28,308.7,207.78,305.89,202.63Z"
                  style="fill:#bce2eb;stroke:#1d2644;stroke-miterlimit:10;stroke-width:0.75px"/>
        </g>
        <g id="Skirt">
            <path d="M144.51,469.14c2.5-5.62,4.37-11.85,4.44-17.59.12-11.53,5.34-20.75,10.33-30.28a4.26,4.26,0,0,1,4.11-2.68c2.72.19,3.83,1.66,3.53,4.2-1.51,12.69,4.52,22.12,16.68,26.34,10.89,3.78,21.84,3.5,33.08,1.72,21.49-3.39,40.38-12.83,58.43-24.26,9.85-6.24,18.23-14.37,26.56-22.49,1.28,2.35-.81,3.39-2,4.65-8.09,8.84-17.67,15.85-27.48,22.63a131.44,131.44,0,0,1-60,22.87A65.65,65.65,0,0,1,188,453.11c-16.29-4.19-22.15-12-24.29-27.88-.14-1,.27-2.16-.81-3.21-1.84.51-2.43,2.21-3.09,3.72a150.18,150.18,0,0,0-6.48,18.54c-1.9,6.68.9,11.83,7.49,14.33a53.46,53.46,0,0,0,26,2.85c1.39-.18,3.6-.94,3.88.67.33,1.91-2,2.05-3.52,2.24-11.54,1.55-22.64.08-33-5.42-2.44-1.3-3.27-.91-3.66,1.67-.54,3.57-1.67,7-2.07,10.62-.74,6.55,4.83,12,11,9.26,3.41-1.49,7.07-2.4,10.33-4.29a47.88,47.88,0,0,1,5-2.5c1.29-.56,3.1-1.92,3.94-.39s-1.24,2.31-2.44,3c-7.2,4.43-14.68,8.24-23.13,9.66-2.36.4-2.05,2.12-2,3.67.05,6.68-.09,13.36,0,20,.17,10-.1,20-.68,30-.46,7.9.63,15.77,5.08,22.72,3.05,4.77,6.32,5.45,11.13,2.46,1.72-1.06,4.11-3.55,5.44-1.7s-1.53,3.91-3.1,5.37c-3.56,3.28-9.07,3.33-14.54.22-.4,3.4-.4,6.7-.52,9.9-.32,8.77-2.38,17.53-.39,26.34a50.24,50.24,0,0,0,1.43,5.84c2.57,7.18,9.3,10.64,16.63,8.78,10.22-2.59,17.3-9.12,22.77-17.76,5.12-8.08,8.45-16.94,11.37-26,3.87-12,9.09-23.47,17.33-33.19a102.52,102.52,0,0,1,23.59-20.93c10.06-6.29,17.12-15.09,22.89-25.21a130.82,130.82,0,0,0,9-20.1c4.38-12.09,11.22-22.7,18.72-33,4.09-5.61,7.89-11.44,11.74-17.21a36.07,36.07,0,0,0,6.2-19.12c-1.15,4.69-5.19,9.72-8.61,15a212.56,212.56,0,0,1-16.57,22.59c-1.11,1.3-2.77,3.8-4.39,2.33-1.89-1.72.88-3.09,2-4.44,7-8.89,14.11-17.76,19.65-27.73,2.06-3.71,5.36-6.78,5.45-11-1.79,3.71-4.91,6.93-8,10.17-3.65,3.89-7.45,7.65-11,11.62a7,7,0,0,1-1.46,1.36c-.79.49-1.7,1.14-2.49.22-.62-.74.05-1.52.47-2.17,2.61-3.93,6.19-7,9.4-10.38,4-4.26,8.39-8.26,10.92-13.72.54-1.18,1.33-2.3,1-4.18-2.48,1-4,2.77-5.57,4.53-1.17,1.31-2.05,3.26-4.4,2.79a50.16,50.16,0,0,1,8.81-11.32c2.76-1,4,1.24,5.67,2.61.59.5,1.09,1.32,2,1s.81-1.27.93-2c.95-6.26-.8-8.1-7.06-7.44-1.55.17-3.15.8-4.54-.49.52-2,3-1.56,3.89-3.15h5.61a8.42,8.42,0,0,1,5.47,4.25c1.6,3.18,4.38,4.91,7.57,6.08,2.75,1,5.57,1.8,8.31,2.82,7.86,2.92,12.24,10.19,10.26,18.32-1.16,4.76,1.33,8.45,2.07,12.64v4.81l-.9,1.18c-2.07,2.73-5,4.94-8.11,3.29-2.9-1.52-3.71-5.21-3.27-8.54a51.9,51.9,0,0,1,.89-5.82c1.18-4.67-.61-7.78-5.05-10-3.62-1.8-7.3-3.34-9.91-6.76-1.92-2.5-1-5.82-2.85-8.32a11,11,0,0,0,3.13,14.31c4,2.85,9,4.55,11,9.75,1.5,3.88.51,7.17-1.63,10.4-1.49,2.26-3.69,2.25-6,2.11-1.06-.06-1.36-.59-1.21-1.54.09-.1.17-.24.28-.29,7.9-3.53,8.6-9,1.72-14.59-3-2.44-6.61-4-9.36-6.8-2.85.93-2,4-2.55,5.73-3.35,10.28-10.43,18.16-16,27-3.94,6.21-8.65,11.88-12.21,18.35a157.77,157.77,0,0,0-8.38,19.1c-4.33,11.13-9.38,21.68-17.21,30.92a94.47,94.47,0,0,1-16.68,15.12c-2.43,1.83-4.71,3.84-7.12,5.69-3.66,1.24-5.6,4.53-8.23,7-12.21,11.35-18,26.26-23.07,41.62-3.71,11.31-8.52,22.19-16.76,31-5.92,6.3-12.88,11.25-22.08,11.86-11.12.73-17.08-6.5-18.8-16.19-2-11.21-.52-22.4.68-33.58.64-6-.4-11.92-2-17.6-2.65-9.4-2.18-18.78-1.25-28.3.46-4.76.12-9.6.13-14.41,0-8.68,0-17.35,0-26a25.65,25.65,0,0,0-3.21-12.29Z"
                  style="fill:#67627b"/>
            <path d="M319.29,410.62c5.45,2.58,10.77,5.5,14.1,10.68s-.4,10.73-6.74,11c-1.54-6.74-4.22-13.07-6.91-19.39A10.8,10.8,0,0,1,319.29,410.62Z"
                  style="fill:#a692c5"/>
            <path d="M307.41,386.47c2.91.08,5.7-1.13,8.67-.77,2.49.3,3.87,1.48,4,4,.08,1.2,0,2.4,0,3.6,0,1.84.4,4.18-1.58,5s-2.56-1.69-3.75-2.8a8.31,8.31,0,0,0-4.37-2.58Q308.91,389.67,307.41,386.47Z"
                  style="fill:#a692c5"/>
            <path d="M301.61,404.18c3.45-1.91,4.76-6.06,8.31-7.87.83-.42,1.16-2,2.58-.95,1.18.87.68,1.92.41,2.89-1.52,5.39-5,9.52-8.77,13.44-4.75,5-9.87,9.65-14.51,14.73,4.41-3.92,8.85-7.82,13.21-11.79s7.79-8.93,11.33-13.74c-.9,9.6-7,16.65-12.09,24.11s-10,15.07-16.17,21.75a38.4,38.4,0,0,0,8.88-9.72c2.51-3.84,5.37-7.55,8.21-11.21s4.63-7.73,7.28-11.31c2.78-3.75,4-8.18,6.11-12.19.05,9.57-1.95,18.45-7.53,26.38-4.89,6.92-9.11,14.36-14.43,20.93-9.85,12.16-14.08,26.94-20.36,40.8a79.39,79.39,0,0,1-21.83,29.16c-3.75,3.07-8.27,5.18-12.17,8.21A94.22,94.22,0,0,0,207,575.69c-2.89,9.43-6.48,18.57-11.75,27-6.11,9.76-14.43,16.36-25.84,18.71-5.53,1.14-13.14-3.43-15.1-9.43a50.16,50.16,0,0,1-2.26-20.8c.8-8,1.61-16.12,1.24-25.19,3.19,3.42,6.4,4.81,10.38,4.16s6.22-3.68,9.13-7.44a49,49,0,0,0-5.65,3.26c-4.43,3.33-8.76,2.4-11.89-2.21-5.29-7.77-6.39-16.59-5.72-25.56.61-8.31.75-16.59.64-24.9-.11-8.79,0-17.58,0-26.37,0-.89-.45-2.52,1.37-2.13,4.56,1,8.2-1.73,12.15-3,5.44-1.7,10-5.32,14.64-8.59-4.55,2.19-9.05,4.47-13.65,6.53a39.16,39.16,0,0,1-7.48,2.58c-5.21,1.17-10.62-4.61-9.78-10.65.73-5.32,2-10.58,3.06-16.07,12.54,7.95,25.78,9.89,39.81,6.7a56.5,56.5,0,0,1-16,.38c-6.95-.9-13.91-1.57-19.5-6.79-3.49-3.25-3.85-7.17-2.78-11a142.41,142.41,0,0,1,7.14-20.29c.54-1.2,1.45-2.23,2.11-3.38a1.8,1.8,0,0,1,2.39-.84,1.94,1.94,0,0,1,1.21,2.24,28.35,28.35,0,0,0,5.48,19.12c4.36,6,11.18,9.06,18.55,10.56,20,4.05,38.66-.7,57.07-7.87,6.72-2.61,13.47-5.47,19.36-9.46,12.59-8.55,25.25-17.17,35.46-28.72a3.06,3.06,0,0,0,.87-2.16Z"
                  style="fill:#a692c5"/>
            <path d="M322.06,392.74c4.28,3.49,9.54,4.65,14.51,6.4,7.11,2.5,10,8.08,8.66,15.4-.67,3.54-.83,7.22,1.68,10.68,3.18,4.39,1.62,8.61-2.86,9.57-1.56.33-2,0-2.8-1.54-2.32-4.14-.29-8.11-.11-12.1.24-5.53-.77-8.17-5.74-10.5-4.07-1.89-8.72-3.42-10.13-8C324.26,399.38,323.25,396.13,322.06,392.74Z"
                  style="fill:#a692c5"/>
        </g>
    </g>
</svg>