<?xml version="1.0" encoding="UTF-8"?>
<svg viewBox="0 0 322.79373 318.60583" xmlns="http://www.w3.org/2000/svg">
 <g transform="translate(-199.88 -176.46)">
  <path d="m268.21 178.08c-7.0525 3.2044-11.445 10.573-16.071 16.786-6.6232 8.8942-11.836 18.835-16.429 28.929-2.978 6.5457-5.6053 13.332-7.1429 20.357-2.4542 11.213-3.3543 22.808-3.2143 34.286 0.11113 9.1102 0.94686 18.319 3.2143 27.143 2.3658 9.2068 6.2575 18.032 10.714 26.429 11.022 20.765 24.568 40.24 39.286 58.571 6.8002 8.47 14.107 16.677 22.5 23.571 9.5952 7.8821 20.35 14.392 31.429 20 11.736 5.9406 24.075 10.899 36.786 14.286 19.197 5.115 39.234 6.32 58.929 8.9286 16.747 2.2181 33.49 4.7641 50.357 5.7143 8.9891 0.50638 18.273 2.1622 27.01-0.012 4.6226-1.1504 9.5487-3.0568 12.627-6.6923 2.0642-2.4378 2.3623-5.9676 3.0304-9.0914 0.53083-2.4818 1.2487-5.0861 0.75762-7.5762-1.144-5.8006-5.0424-10.746-8.3338-15.657-3.894-5.8109-8.3207-11.337-13.385-16.162-7.9222-7.5496-16.846-14.124-26.264-19.698-13.52-8.0015-28.399-13.478-42.931-19.445-11.456-4.7045-23.16-8.7898-34.85-12.879-9.3723-3.2788-18.838-6.2844-28.284-9.3439-10.587-3.429-21.548-5.8197-31.82-10.102-7.3679-3.0714-14.576-6.6765-21.213-11.112-9.3915-6.2759-18.17-13.588-26.011-21.718-7.2476-7.5138-13.196-16.204-19.193-24.749-4.5212-6.442-9.644-12.668-12.627-19.951-3.1665-7.7312-4.3144-16.2-5.3033-24.496-0.82728-6.9398-1.8961-14.112-0.50507-20.961 1.5447-7.6057 5.3604-14.71 9.5964-21.213 3.5142-5.3948 15.641-8.5787 12.879-14.395-0.79257-1.669-3.8549-0.51047-5.537 0.25382z" fill="#fff" stroke="#000"/>
  <path d="m327.68 431.92s-8.6169 4.0332-11.696 5.4464c-3.6896 1.6932-7.1452 3.8862-10.893 5.4464-4.8135 2.004-9.6798 4.1341-14.821 5-3.522 0.59314-7.31 1.1696-10.714 0.0893-2.4799-0.78696-5.0482-2.2948-6.3393-4.5536-1.6313-2.854-1.6451-6.6213-0.89286-9.8214 0.58404-2.4845 2.5691-4.4166 4.0179-6.5179 1.1928-1.73 2.4615-3.4134 3.8393-5 1.3661-1.5732 2.8813-3.0117 4.375-4.4643 1.1927-1.1599 2.0828-2.8654 3.6607-3.3928 3.3198-1.1098 12.768 0.35713 12.768 0.35713" fill="#fff" stroke="#000"/>
  <path d="m394.34 453.72s-3.9487 1.8857-5.8084 3.0305c-1.7208 1.0593-4.002 1.7376-4.9245 3.5355-1.1336 2.2094-0.35844 4.9926 0 7.4499 0.65929 4.5198 2.1102 8.9357 3.9143 13.132 1.2661 2.9448 2.5102 6.0888 4.7982 8.3338 2.3666 2.322 5.4853 4.0386 8.7126 4.7982 2.9933 0.70455 6.4083 0.8719 9.2176-0.3788 2.42-1.0774 3.8537-3.6524 5.5558-5.6821 2.4617-2.9355 5.068-5.8742 6.6923-9.3439 1.4196-3.0326 1.8045-6.4528 2.5254-9.7227 0.60786-2.7572 1.6413-5.5131 1.5152-8.3338-0.0565-1.2649-1.0102-3.6618-1.0102-3.6618" fill="#fff" stroke="#000"/>
  <path d="m239.78 333.76s-5.9587-5.5049-9.7227-6.566c-1.8248-0.51442-3.801 0.48921-5.6821 0.25254-2.444-0.30749-4.813-1.1624-7.0711-2.1466-3.5273-1.5373-7.0111-3.3551-9.9753-5.8084-2.6202-2.1686-5.6957-4.4505-6.6923-7.7024-0.81987-2.6754 0.63604-5.5606 1.0102-8.3338 0.42098-3.1206 0.46399-6.334 1.389-9.3439 0.741-2.4113 1.6812-4.8698 3.283-6.8185 1.2027-1.4632 2.8055-2.6615 4.5457-3.4093 2.0789-0.89332 4.4306-1.0686 6.6923-1.1364 1.9467-0.0584 4.1322-0.36019 5.8084 0.63135 0.8844 0.52315 1.7678 2.5254 1.7678 2.5254" fill="#fff" stroke="#000"/>
  <path d="m434.29 369.51s-4.6213-9.0594-6.6072-12.679c-2.0316-3.7026-3.3152-7.9505-6.1607-11.071-3.2314-3.5442-7.4256-6.3344-11.875-8.125-2.1833-0.87862-4.6267-0.8879-6.9643-1.1607-5.3825-0.6282-11.102 1.9982-13.75 3.8393-1.5774 1.0967 0.54039 13.214 0.80357 13.214" fill="#fff" stroke="#000"/>
  <path d="m248.75 220.94c-0.15691 0.94688-0.32083 1.9233-0.75761 2.7779-0.3814 0.74629-1.1566 1.2329-1.5784 1.9572-0.43264 0.74297-0.17413 2.0225-0.94702 2.3991-1.0655 0.51916-2.2439-0.79397-3.4093-1.0102-0.78874-0.14631-1.6647-0.51209-2.3991-0.1894-1.1254 0.49449-1.6755 1.8298-2.2728 2.9042-0.44643 0.80302-0.60157 1.7372-0.94702 2.5885-0.40733 1.0039-0.99874 1.9345-1.3258 2.9673-0.29782 0.94038-0.0826 2.0456-0.56822 2.9042-0.43277 0.76521-1.2842 1.2022-1.9572 1.7678-0.65423 0.54982-1.8309 1.2627-2.0203 1.5784s-0.69448 2.4622-0.50508 2.7148 1.4424 1.5461 2.3991 1.5784c1.667 0.0563 2.9354-1.5887 4.3563-2.4622 0.64639-0.3974 1.1416-1.361 1.894-1.2627 0.4731 0.0618 0.77828 0.627 0.94702 1.0733 0.52101 1.3779 0.27479 2.9721 0 4.4194-0.4177 2.2-1.536 4.2116-2.4622 6.2503-0.83322 1.8338-1.6284 3.7124-2.7779 5.3664-1.0543 1.517-3.0407 2.3877-3.7249 4.1038-0.71723 1.7989-0.44339 3.8979-0.12627 5.8084 0.30091 1.8127 1.2076 3.4725 1.894 5.177 0.72154 1.7918 2.1663 3.3791 2.336 5.3033 0.22637 2.5677-1.349 4.9808-1.8309 7.513-0.46069 2.4209-1.2313 4.8692-1.0102 7.3236 0.12126 1.3455 0.67048 2.637 1.2627 3.8512 0.94412 1.9358 2.2266 3.7063 3.5987 5.3664 1.8107 2.1909 4.6104 3.5535 6.0609 5.9978 1.3189 2.2224 1.8942 4.8779 2.1466 7.4499 0.19389 1.9759 8e-3 4.0168-0.50508 5.9346-0.5771 2.1553-2.4989 3.8561-2.841 6.0609-0.39712 2.5588 0.18865 5.2467 1.0102 7.7024 1.9104 5.7109 5.431 10.799 8.902 15.72 1.6683 2.3652 3.3903 4.7982 5.6821 6.566 1.0582 0.81626 2.4295 1.1204 3.5987 1.7678 3.5304 1.9547 6.5907 4.7662 10.291 6.3766 1.7601 0.76603 3.6532 1.2604 5.5558 1.5152 2.5656 0.34358 5.1954 0.30778 7.7656 0 2.3009-0.27554 4.5383-0.9673 6.7554-1.6415 1.051-0.31962 2.1617-0.55466 3.0936-1.1364 0.59342-0.37046 0.86611-1.1913 1.5152-1.4521 0.87873-0.35308 2.0203-0.12627 2.841 0s2.3143 0.21177 3.3461 0.69448c0.70555 0.33008 1.5784 1.3258 1.8309 1.4521s2.2097 0.88388 2.5885 0.88388 3.3627 0.40701 5.0508 0.37881c0.97363-0.0163 2.6516-0.1894 2.9042-0.31567s1.7871-0.70627 2.7148-0.94702c0.95109-0.24682 2.2728-0.31568 2.9042-0.50508s2.7779-1.1364 3.5355-1.5152 2.7148-1.6415 2.841-1.894 1.4521-1.8309 1.6415-2.2097 0.8839-2.1466 0.94702-2.9042 0.33122-4.0506 0.12627-6.0609c-0.17294-1.6964-0.69167-3.3415-1.1364-4.9876-0.38541-1.4265-0.5457-2.9751-1.3258-4.23-1.6896-2.7179-4.6827-4.3654-6.9448-6.6291-1.3152-1.3162-2.4249-2.8458-3.8512-4.0406-1.6063-1.3456-3.5616-2.2181-5.2402-3.4724-1.2325-0.92096-2.5354-1.7982-3.5355-2.9673-1.0065-1.1766-1.4087-2.7873-2.3991-3.9775-0.95357-1.1459-2.2795-1.9258-3.3461-2.9673-0.88427-0.86347-1.859-1.6739-2.5254-2.7148-0.68696-1.073-0.74001-2.4791-1.4521-3.5355-3.011-4.4672-7.967-7.2814-11.554-11.301-2.7858-3.1222-5.1963-6.5613-7.7024-9.9121-10.989-11.631-11.951-16.046-17.125-24.517-1.7277-2.8302-3.6229-5.6252-4.7321-8.75-2.8469-8.0203-3.5008-16.668-4.7321-25.089-0.4979-3.405-0.30194-6.9138-1.0714-10.268-0.33262-1.4498-0.0454-4.4076-1.5179-4.1964-0.94783 0.13593-0.022 1.9224-0.17851 2.867z" fill="#f00"/>
  <path d="m333.98 411.8c5.0443-2.8859 9.8568-6.3518 15.416-8.1942 3.2212-0.90088 6.8607-1.3586 9.9914 0.0767 2.8212 1.7843 3.0849 6.2976 0.45916 8.3844-2.3717 2.3201-6.3716 3.3316-7.2046 6.938-0.71158 2.5834-2.4768 5.2816-5.3307 6.2713-4.8077 2.0745-9.1756 0.9262-14.138 2.2651-2.7091 0.35274-5.5915 0.47516-8.1445-0.66058-1.3768-3.9038-5.1221-7.3189-9.4718-6.9195-2.3577-0.0396-5.2746 1.1175-7.1171-0.91393-1.5617-2.2832 0.68906-5.2322 3.0565-5.7214 4.8221-1.0622 10.06-0.69642 14.444 1.7053 1.9442 1.3928 4.5118 0.52466 6.0534-1.0557 0.75337-0.64014 1.2815-1.5033 1.986-2.1757z" fill="#f00"/>
  <path d="m350.4 440.59c13.566 4.7893 27.247 10.284 41.765 11.084 2.2076-0.14336 8.028 0.95606 7.4937-2.1262-1.4804-0.71988-3.6199-2.394-0.73971-2.6823 3.0735-2.9217 4.9014-7.5935 3.2704-11.714-1.2188-4.6255 2.4707-8.1296 4.9277-11.481 2.4936-3.0647 0.50499-6.6031 0.75192-9.9877 0.25146-3.6111 1.203-8.1816-1.9998-10.812-4.4017-3.5115-8.3523-7.5533-12.94-10.823-2.6978-2.03-4.5737-4.9378-5.4557-8.1765-2.1035-4.5137-7.5719-6.4157-12.25-5.4073-5.0521 0.44466-10.336 2.4891-13.012 7.0655-2.9408 3.3962-3.2747 8.1649-1.5516 12.192 1.6635 4.3256 4.8964 8.091 9.2574 9.8357 4.629 1.0627 6.0693 6.007 3.1538 9.6173-0.69214 4.3722-7.3696 4.8868-6.7816 9.6301 1.3552 3.9027-0.63032 9.7057-5.3518 9.7741-3.821-1.5546-8.0704 0.49449-10.278 3.7256l-0.25807 0.28616z" fill="#f00"/>
  <path d="m498.01 407.88c1.0338 6.2504 3.0096 13.114-0.10749 19.101-1.28 10.037-8.2648 7.3614-9.7664 1.0576-1.313-3.3626-2.2221-6.8896-3.9961-10.176-4.7873-10.622-9.0483-21.841-16.796-30.73-10.065-9.715-36.511-15.658-36.511-15.658s1.1711 3.1309 0.51126 7.3436c-0.76889 5.7602 3.3626 10.257 6.4077 14.392 1.5032 5.5636 0.51724 13.196-5.3848 15.762-5.9277 3.4632-9.4687 11.216-7.0163 17.838 3.4493 2.1068 13.202 5.9947 6.4759 10.331-4.482 2.2837-10.247 4.6168-11.059 10.291-1.6722 7.09 6.5402 9.654 11.937 7.6353 4.9345-1.3078 12.635 0.49525 13.64-6.547 0.36501-4.7639 4.8937-10.277 9.0635-5.0406 4.6817 4.7544 8.358 11.984 15.623 13.012 4.6172 0.58647 7.4141-5.1833 10.82-7.6336 5.6372-3.2919 8.4648 7.2132 13.112 8.6604 6.1313 2.5144 12.36-2.3848 15.928-7.0304 6.5227-7.5952 4.3407-18.792-0.0325-26.884-3.3532-4.8303-5.2757-10.627-9.2631-14.992-0.83786-1.0098-2.4196-1.2526-3.5852-0.73088z" fill="#f00"/>
  <path d="m395.18 356.74c-0.18895 1.5051 0.58594 3.7245 2.4451 3.4461 1.677 0.16012 2.9191 2.1676 2.2101 3.7231-0.30725 2.0419 1.1545 3.7039 2.0368 5.3946 1.0184 1.2401 2.1807 2.8452 3.9824 2.7328 1.6266-0.86533 0.58022-3.3243-0.91275-3.7005-1.1929-0.56412-2.0123-3.003-0.14104-3.0753 2.5527 0.0508 4.3289 2.2955 5.362 4.4021 1.1755 2.0604 2.0984 4.321 3.6927 6.103 1.1374 0.93791 2.2671 2.4255 3.8911 2.3094 1.7971-0.29432 2.8313-1.9664 4.1947-2.987 2.3382-2.0966 2.324-5.863 0.56468-8.312-0.81949-1.3879-2.1698-2.3651-3.7099-2.8115-6.7376-2.3179-13.414-4.8159-20.123-7.2188-1.4913-0.53895-3.5187-0.0948-5.011-0.63111 0.32739 0.53573 1.1905 0.0893 1.5179 0.62505z" fill="#f00"/>
  <path d="m494.14736,459.93753c.31729.77962 1.01297,1.62416 1.93977,1.53905 .56579-.023.74003-.7465.48068-1.16922-.28332-.53825-.69024-1.0102-1.11654-1.43851-1.0398-.8712-1.76154-1.24938-3.02444-1.52177-1.61756-.27459-3.39847-.23923-4.82123.67533-.88814.52662-1.75772,1.09444-2.57921,1.71776-1.0053.9994-.93898,2.64326-.34366,3.83933 .31904.59778.85529,1.3118 1.61682,1.2338 .47853-.004 1.10888-.44334.82424-.97419-.38724-.53832-.99487-1.04796-.94903-1.77885 1.81492-3.28506 5.2732-3.7643 7.9726-2.12273z"/>
  <path d="m491.28125,459.625c-.29307.008-.57248.11437-.84375.125h-.125c-.16241.01-.38094.0335-.5625.0625l-.25.0313c-.0678.0102-.10764.0313-.125.0313-.07,0-.20671.0105-.34375.0313s-.25388.0508-.3125.0625c-.0509.0102-.10106.0256-.15625.0625s-.12011.10493-.1875.15625c-.13479.10265-.28477.20415-.40625.28125-.10908.0692-.26281.12574-.40625.1875s-.29049.14022-.375.28125c-.26133.43612-.16949,1.00503-.0313,1.46875 .16194.54322.56406.94751.9375,1.34375 .50525.5361 1.10902,1.0393 1.75,1.40625 .34534.1977.84483.39928 1.28125.5625 .21821.0816.39802.16942.5625.21875s.29664.0625.375.0625l.3125.0313c.14523.0141.31036.0262.5.0313 .37929.0102.80457-.008 1.09375-.1875 .4055-.25152.53556-.78063.6875-1.1875 .21349-.57165.50285-1.2509.34375-1.875-.12265-.48116-.58342-.72778-.875-1.0625-.2997-.34405-.61382-.72889-.96875-1.03125-.47391-.40371-.93119-.89692-1.5625-1.0625-.0995-.0261-.21481-.0338-.3125-.0313z"/>
  <path d="m280.36 448.17c-17.842-6.0702-6.1723-20.444 5.7663-32.653l13.162 2.6529-15.268 0.26786 15.089 2.2321-19.286 1.3393 26.696 1.25-28.036 2.1429 30.625 0.35714-33.393 5.0893 26.071-0.625-26.607 7.1429 28.304-2.2321-26.25 7.5893 31.25-5.5357-28.036 11.071"/>
  <path d="m414.29 488.97c-3.8251 6.6984-8.6834 6.3038-14.233 4.5153-12.942-4.1707-18.8-23.087-15.79-34.945l13.773-2.7846-14.286 12.5 16.25-9.1071-15 15.536 18.036-14.464-15.536 20 19.107-19.643-17.143 24.821 20.893-24.643-16.786 27.5 20.536-26.607-15.357 31.071 17.5-27.679-10.893 28.75 15.179-29.464-6.0714 24.643"/>
  <path d="m205.33 317.76c-4.5988-3.6887-5.812-5.5019-2.9886-18.466 0.91766-4.2134 0.97926-7.2783 2.226-9.5312 3.3919-6.1291 9.0894-6.2486 15.494-7.1349l4.5805 11.165-10.357-9.8214 9.2857 15.536-13.036-14.643 14.821 20-18.929-18.929 21.964 28.929-24.286-23.571 23.036 26.429-25-21.25 18.929 18.75-20.179-11.607 19.464 14.821-19.643-7.8571 26.25 12.857-21.607-5.8929"/>
  <path d="m388.52 340.3 14.787 16.272-8.7041-18.97 10.902 17.544-5.2996-18.579 9.0765 21.104-5.8245-21.806 11.003 23.429-6.3528-22.386 10.482 21.203-6.2664-18.967 12.013 20.518-7.1499-17.9c-10.298-9.1375-23.81-5.54-28.413-1.4184"/>
 </g>
 <g transform="translate(-199.88 -176.46)">
  <path d="m517.7 453.09c-10.284 15.915-31.736 13.481-47.842 10.62-51.674-8.0527-107.13-9.0714-152.73-37.836-36.189-26.202-62.676-63.743-82.594-103.25-15.656-36.381-11.315-79.454 8.5532-113.36 4.0679-7.596 13.923-22.176 17.16-23.62-7.2706 16.559-18.699 31.78-20.289 50.325-8.1786 28.019-14.516 61.301 3.5253 86.988 11.389 15.733 35.545 17.556 42.757 37.156 4.9958 13.846 18.703 31.642 34.359 19.954 9.9704-7.9209 29.959-13.649 32.262 4.3108-1.0792 14.084-32.804 21.402-12.889 36.424 14.512 12.626 35.384 9.0993 52.416 4.9297 14.422 2.7156 27.495 17.955 42.296 5.8741 16.397-1.8988 19.077 21.49 35.71 20.868 14.657 1.9841 29.764 2.5283 44.458 1.3138l2.8518-0.70039z" opacity=".1216"/>
  <path d="m507.1 417.48c-14.294-4.1238-19.571-24.393-36.891-21.735-19.33-2.8563-39.726-4.8468-56.122-16.572-11.571-8.0712-22.835-17.158-36.794-20.774-15.123-4.8359-31.443-5.6433-45.518-13.594-17.934-8.6335-34.526-20.673-45.851-37.279-12.696-17.619-28.523-32.97-39.374-51.897-0.89976-8.8621-2.6143-28.914 4.5476-30.756 5.9417 11.656-1.4488 26.524 8.5743 37.183 14.067 28.107 36.424 52.476 63.948 67.768 26.727 12.421 55.873 18.318 83.008 29.712 32.83 11.36 66.61 23.277 93.236 46.418 3.7832 2.424 10.043 6.0702 7.2369 11.528z" opacity=".1451"/>
 </g>
</svg>
