<svg xmlns="http://www.w3.org/2000/svg" viewBox="0 0 180.28 349.9">
    <g id="Whales">
        <path d="M104.16,183.83c1-.5,6.54,5.11,14.23,9.66a171.48,171.48,0,0,1,18.2,12.71,56.12,56.12,0,0,0,5.83,4.86c1.28-.68,1.55-1.59,2.36-2.7,1.86.37,9.26,7,18.86,13.37,6.69,6.25,10.75,25,15.49,37.49.83,4.33,1.1,8.19-.64,9.93l-12.33,7.74c-.88-.52-8.18-6.56-10.19-8.24a266.55,266.55,0,0,1-25.63-30.92c-4.47-6.71-9.32-14-12.64-21.1-4.83-10.21-8.9-18.21-12.76-27.65-.52-2.2-.21-2.82-.78-5.15Z"
              style="fill:#f6f6f6;stroke:#1d1d1b;stroke-miterlimit:10;fill-rule:evenodd"/>
        <path d="M48.43,35a4.25,4.25,0,0,0,3.73,1.09c1.06-.5,1.24,1.93,5.78,1,2.62-1.78,9.6-3.83,15.06-7.78A104.65,104.65,0,0,0,87.53,14.57c3-4.67,6.64-11.21,5.12-13.43C89.47.05,85.89.23,81.32,2.65c-6.6,3.67-12.24,8.55-18.15,12.57a40.31,40.31,0,0,0-10.59,8.56c-2.14,2.86-5.45,8.81-4.15,11.18Z"
              style="fill:#f6f6f6;stroke:#1d1d1b;stroke-miterlimit:10;fill-rule:evenodd"/>
        <path d="M46.35,346.48c1.8-4,4.39-9.55,4.43-10.76.38-2.44-1.61-9.44-3-12-3.17-6.33-12.16-14.85-13.3-17.79C36,297.76,26.64,286,25.14,277c-.54-4.2-1.13-10.45-2.63-12.21-2.25-1-5.43-.2-7.77,1.12-3.36,3.21-5.21,8.27-7,11.25A59.9,59.9,0,0,0,.51,296.56c-.06,8.21,0,18.19,2,25.56.91,3.38,3,9.06,5.38,11.4,1,.81,4.53.61,14.43,3.13,5-1.44,9.85-3.69,15-4.33a18.34,18.34,0,0,1,7.64,2.6,6,6,0,0,1,2.43,4.44c.09,2.26-.67,4.75-1,7.12Z"
              style="fill:#f6f6f6;stroke:#1d1d1b;stroke-miterlimit:10;fill-rule:evenodd"/>
        <path d="M78.56,135.5c-1.39,1.93-14-2-17.52-4.51-1.7-1.52-1.84-17.21-.92-20.83.23-3,8.28-14.49,10.41-13.3.76,3.92,2.77,13.3,4.16,20.25,1.27,6,3.77,16,3.87,18.39Z"
              style="fill:#f6f6f6;stroke:#1d1d1b;stroke-miterlimit:10;fill-rule:evenodd"/>
    </g>
</svg>