<svg xmlns="http://www.w3.org/2000/svg" viewBox="0 0 22.15 55.13">
    <g>
        <path d="M2.25,49.33c-.17-1.71-.15-3,.66-3.86,2.4-2.41,1.58-5.44,1.9-8.26a72.26,72.26,0,0,0,.52-11.43c-.11-2,2.3-3.28.84-5.33A60.22,60.22,0,0,1,3.2,15c-.94-1.64-2.05-3.18-2.92-4.85a2.51,2.51,0,0,1-.1-2.07C.65,7.3,1.37,8,2,8.22c1.43.44,7.75-2.77,8.26-4.13a1.29,1.29,0,0,0-.06-1C9.61,2,9.43.83,10.67.32a3,3,0,0,1,3.5.55A44,44,0,0,1,22,13.68c.62,1.48-.51,2.75-1.46,3.73a20.54,20.54,0,0,1-10.08,5.53c-.66.16-1.09.12-1.17,1C9,26.75,8.47,29.5,9,32.33c.26,1.5-.66,2.87-.51,4.52.29,3-1,6.12,1.36,9,1.31,1.58,1,3.82.46,5.72C9.8,53.26,9,54.93,6.74,55.12S3.46,53.85,2.61,52A8.31,8.31,0,0,1,2.25,49.33Z"
              style="fill:#011c44"/>
        <path d="M9.19,21.1c-.65.24-.82-.65-1.12-1.24A53.55,53.55,0,0,0,3.39,12c-.86-1.16-.27-1.51.66-2A26.57,26.57,0,0,0,12.7,3.68c.93-1.05,1.42-.71,2,.3q2.55,4.62,5.16,9.19a1.57,1.57,0,0,1-.18,2C17.1,18.47,13.52,20,9.19,21.1Z"
              style="fill:#737691"/>
        <path d="M8.81,49.14A6.78,6.78,0,0,1,8.69,51C8.31,52.08,8,53.28,6.52,53.4s-2-1-2.41-2.1a7.9,7.9,0,0,1,0-4.74c.31-1.07,1-2.33,2.32-2.16A2.81,2.81,0,0,1,8.72,47a13.89,13.89,0,0,1,0,2.14Z"
              style="fill:#fdfdfd"/>
        <path d="M8.08,27c-.3.31-.45.81-1,.79s-.5-.45-.51-.78-.06-.77.49-.77S7.81,26.68,8.08,27Z"
              style="fill:#eceff2"/>
        <path d="M7.26,23.17c.47.28,1,.36.91,1s-.47.46-.79.47c-.48,0-1-.1-.75-.73C6.72,23.59,7.06,23.39,7.26,23.17Z"
              style="fill:#eef0f2"/>
        <path d="M7,32.61c.28.16,1-.11.76.65-.14.52-.58.62-1,.57s-.67-.24-.67-.67C6.07,32.45,6.6,32.62,7,32.61Z"
              style="fill:#eaecef"/>
        <path d="M7.2,29.56a1.37,1.37,0,0,1,.3.74c0,.21-.49.64-.73.63s-.57-.42-.69-.72S6,29.5,7.2,29.56Z"
              style="fill:#f1f2f4"/>
        <path d="M7.45,36.09c0,.51-.43.48-.72.61s-.64.06-.7-.4,0-.93.64-.8C7,35.56,7.21,35.89,7.45,36.09Z"
              style="fill:#e2e6ea"/>
        <path d="M7.11,42c-.1.54-.45.69-.77.5a1,1,0,0,1-.46-.79.44.44,0,0,1,.7-.42C6.89,41.42,7.19,41.62,7.11,42Z"
              style="fill:#d6dbe1"/>
        <path d="M6.94,38.29c.12.12.52.37.53.63,0,.48-.48.35-.78.34s-.77,0-.7-.53S6.34,38.17,6.94,38.29Z"
              style="fill:#f8f9fa"/>
    </g>
</svg>