<svg xmlns="http://www.w3.org/2000/svg" viewBox="0 0 38.46 25.82">
    <g>
        <path d="M30.18,13.15c2.14.42,3.54-.62,4.82-2.21.72-.9,1.79-2.27,3-.93s-.07,2.33-1,3.18a6.15,6.15,0,0,1-3.63,1.54,4,4,0,0,0-3.75,2.86c-.87.48-1.39,2.71-2.8.56.25-2.78-2.29-2.64-3.68-3.84-3.49-3-6.26-1.28-9.36.3A2.74,2.74,0,0,0,12,17l-.34.62-.4.55c-.19.62-.76.55-1.22.66-1.36-2.44-3.6-3.63-6.18-4.34a6,6,0,0,1-2.53-2c-.88-.89-2.1-2-.62-3.11,1.18-.9,2.11.11,2.79,1.16a6.22,6.22,0,0,0,3.74,2.94c.7.59,1.48.26,2.23.23a10.77,10.77,0,0,0,5.91-1.37c2.52-1.31,4.65-1.81,7.18.06,1.5,1.11,3.56,1,5.46.78Zm-1.11,3.08c.21-.56,0-.85-.59-.81-.35,0-1-.26-.92.49a4.64,4.64,0,0,0,.68,1.3Zm-18.71-.81c-.45.1-1,.17-.72.82a3.71,3.71,0,0,0,.68.82A4.43,4.43,0,0,0,11,16C11.19,15.43,10.69,15.47,10.36,15.42Z"
              style="fill:#212a48"/>
        <path d="M9.45,13.69c-.75,0-1.53.36-2.23-.23.16-3.56,3.09-7.19,6.58-7.8,2.86-.5,5.69-1.44,8.7-.61,4.25,1.17,6.66,3.94,7.68,8.1H28a3,3,0,0,0-1.27-2.56C23,6.81,18.59,7.33,14.18,9,12,9.84,9.28,10.37,9.45,13.69Z"
              style="fill:#f8cfe3"/>
        <path d="M26.82,18.15c1.41,2.15,1.93-.08,2.8-.56,0,.61-.11,1.29.57,1.69l-1.62,1.58c-.59-.77-1.25-.49-1.91-.13-6,3.2-11.44,1.66-16.64-1.94.46-.11,1,0,1.22-.66l.4-.55L12,17c.49,1.51,1.9,1.79,3.12,2.24C19.16,20.68,23,19.32,26.82,18.15Z"
              style="fill:#f8cfe3"/>
        <path d="M28.57,20.86l1.62-1.58c1-.41.89-1.76,1.92-2.1,0,2.55-2.41,5.19-6.49,7.1-5.3,2.49-10.54,2-14.68-1.67C17.2,25.34,23.18,25.63,28.57,20.86Z"
              style="fill:#212a48"/>
        <path d="M10.48,2.8c5-4.67,17.17-3.46,20.3,3.3l-.38.48A15.32,15.32,0,0,0,10.86,3.32Z" style="fill:#1e2846"/>
        <path d="M11.11,22.73a5.72,5.72,0,0,1-4-3.28Z" style="fill:#212a48"/>
        <path d="M31.27,6.67a3.12,3.12,0,0,1,1.09,2.19L32,9.37l-.75-2Z" style="fill:#212a48"/>
        <path d="M5.7,16.58a1.77,1.77,0,0,1,1.11,2.06A2.41,2.41,0,0,1,5.7,16.58Z" style="fill:#212a48"/>
        <path d="M6.71,6.69c.25.82-.24,1.18-1,1.61-.11-1,.23-1.4,1-1.56Z" style="fill:#212a48"/>
        <path d="M32,9.37l.37-.51c.48.43,1,1,.28,1.47C32.28,10.57,32.27,9.68,32,9.37Z" style="fill:#3e4661"/>
        <path d="M6.76,6.74c-.22-.94.33-1.34,1.36-1.85a2.09,2.09,0,0,1-1.41,1.8Z" style="fill:#1e2846"/>
        <path d="M10.86,3.32c-.41.46-1,1.18-1.46.5s.43-.95,1.08-1Z" style="fill:#1e2846"/>
        <path d="M31.27,6.67l0,.65-.84-.74.38-.48Z" style="fill:#1e2846"/>
        <path d="M26.82,18.15C23,19.32,19.16,20.68,15.1,19.2c-1.22-.45-2.63-.73-3.12-2.24a2.74,2.74,0,0,1,1.8-2.35c3.1-1.58,5.87-3.33,9.36-.3C24.53,15.51,27.07,15.37,26.82,18.15Z"
              style="fill:#ebbcd8"/>
        <path d="M9.45,13.69C9.28,10.37,12,9.84,14.18,9,18.59,7.33,23,6.81,26.73,10.6A3,3,0,0,1,28,13.16c-1.9.27-4,.33-5.46-.78C20,10.51,17.88,11,15.36,12.32A10.77,10.77,0,0,1,9.45,13.69Z"
              style="fill:#edbeda"/>
        <path d="M29.07,16.23l-.83,1a4.64,4.64,0,0,1-.68-1.3c-.11-.75.57-.47.92-.49C29,15.38,29.28,15.67,29.07,16.23Z"
              style="fill:#e2e4ea"/>
        <path d="M10.36,15.42c.33.05.83,0,.68.54a4.43,4.43,0,0,1-.72,1.1,3.71,3.71,0,0,1-.68-.82C9.37,15.59,9.91,15.52,10.36,15.42Z"
              style="fill:#e2e4ea"/>
        <path d="M11.64,17.58l-.4.55Z" style="fill:#ebbcd8"/>
    </g>
</svg>