<svg xmlns="http://www.w3.org/2000/svg" viewBox="0 0 38.44 24.56">
    <g>
        <path d="M12.18,18.54l-2-3.11-.29.11c-1.28.53-.57,3.08-2.37,2.73-1.2-.23-1.48-1.93-2.11-3-.92-1.55-2.81-1.9-3.87-3.28-.78-1-2.46-2-1-3.31s2.25.32,3.1,1.37c1.23,1.5,2.46,3.13,4.81,2.6l3.68-.3a18,18,0,0,1,4.8-.47c4.05-.09,8.05,1,12.11.49,1.3.05,2.64.4,3.8-.54,1.5-.14,1.68-1.81,2.76-2.38.69-.36,1.42-1.38,2.34-.35a1.57,1.57,0,0,1-.2,2.41c-2.49,1.55-3.69,4-5.18,6.36-.84,1.31-1.45.2-2-.52a2.35,2.35,0,0,0-1.37-2c-1.11,2.38-1.11,2.38-2.31,3.11-.4-1.1-1.61-1.91-1.22-3.3,1,.08.88,1.18,1.46,1.55a1.94,1.94,0,0,0,1-1.94c-.81,0-1.76-.65-2.38.44-.35.56-.72,0-1.08,0-.55-1.55-1.83-1.52-3.43-1.61.81,1.3.8,2.8,2.37,3.22-2.33,2.42-1.6-1.56-3-1.35-.43.76-.5,2.18-1.45,2.27-1.37.13-.93-1.85-2-2.42l-1.59,2.62C14.42,17.64,15.31,16,14,16c-.29.6-.87,1.1-.83,1.88Zm6.72-2c.74-.89,1.57-1.72,1.11-2.89-.07-.19-.94-.32-1.23-.14C17.24,14.51,19.49,15.48,18.9,16.55Zm-5-2.23a1.8,1.8,0,0,0-2.45.48c-.29.54.16,1.55,1.09,1.86Zm3.39-.53c-1.05-.28-2-.6-2.39.08a1.63,1.63,0,0,0,.86,2.07Zm-9.89,3c.73-.28,1.25-.85,1-1.43-.36-.75-1.24-.75-2.15-.61Zm25.77-2.06c-.8.18-1.88-.26-1.93,1,0,.28.33.81.54.83C33,16.66,32.72,15.34,33.17,14.74Z"
              style="fill:#212a48"/>
        <path d="M32.87,11.83c-1.16.94-2.5.59-3.8.54-.74-3.06-6.22-6.75-9.6-6.46-3.2.29-7,3.67-7.31,6.44l-3.68.3c-.08-3.16,3.81-8.2,7.63-9.17,5-1.25,9.69-.59,13.87,2.77C31.85,7.75,32.35,9.75,32.87,11.83Z"
              style="fill:#f8cfe3"/>
        <path d="M26.94,18.42c1.2-.73,1.2-.73,2.31-3.11a2.35,2.35,0,0,1,1.37,2c-1.66,2.44-4.82,3.12-6.49,5.54-2.13.92-4.34.33-6.52.36,0-.53.08-1.34-.51-1.38-2.34-.15-3.33-2.16-4.92-3.33l1-.67C17.65,21.44,22.25,21,26.94,18.42Z"
              style="fill:#f8cfe3"/>
        <path d="M7.25,5.36c1-4.75,16.54-8.27,23.43-1.92C22.55-.35,14.73-.1,7.25,5.36Z" style="fill:#212a48"/>
        <path d="M17.61,23.25c2.18,0,4.39.56,6.52-.36,1.45.28,2.72-.94,4.23-.53C26.14,24.54,19.65,25.3,15,23.72c-1.29-.43-3.25-.6-3.24-3.11C13.46,22.42,15.53,22.85,17.61,23.25Z"
              style="fill:#212a48"/>
        <path d="M12.16,12.35c.27-2.77,4.11-6.15,7.31-6.44,3.38-.29,8.86,3.4,9.6,6.46C25,12.93,21,11.79,17,11.88A18,18,0,0,0,12.16,12.35Z"
              style="fill:#f1c3dd"/>
        <path d="M26.94,18.42c-4.69,2.56-9.29,3-13.74-.55,0-.78.54-1.28.83-1.88,1.28,0,.39,1.65,1.55,1.93l1.59-2.62c1.11.57.67,2.55,2,2.42.95-.09,1-1.51,1.45-2.27,1.37-.21.64,3.77,3,1.35l-.05,0c.83-.26,1-1,1.14-1.7l0,.06c.36,0,.73.54,1.08,0l-.05-.05C25.33,16.51,26.54,17.32,26.94,18.42Z"
              style="fill:#f3c7de"/>
        <path d="M23.63,16.8c-1.57-.42-1.56-1.92-2.37-3.22,1.6.09,2.88.06,3.43,1.61l0-.06c-1.22,0-1.56.6-1.14,1.7Z"
              style="fill:#f6f7f9"/>
        <path d="M18.9,16.55c.59-1.07-1.66-2-.12-3,.29-.18,1.16,0,1.23.14C20.47,14.83,19.64,15.66,18.9,16.55Z"
              style="fill:#f6f7f9"/>
        <path d="M13.9,14.32l-1.36,2.34c-.93-.31-1.38-1.32-1.09-1.86A1.8,1.8,0,0,1,13.9,14.32Z"
              style="fill:#f6f7f9"/>
        <path d="M17.29,13.79l-1.53,2.15a1.63,1.63,0,0,1-.86-2.07C15.24,13.19,16.24,13.51,17.29,13.79Z"
              style="fill:#f6f7f9"/>
        <path d="M7.4,16.8l-1.18-2c.91-.14,1.79-.14,2.15.61C8.65,16,8.13,16.52,7.4,16.8Z" style="fill:#e2e4ea"/>
        <path d="M25.77,15.17c.62-1.09,1.57-.41,2.38-.44a1.94,1.94,0,0,1-1,1.94c-.58-.37-.5-1.47-1.46-1.55Z"
              style="fill:#f6f7f9"/>
        <path d="M33.17,14.74c-.45.6-.14,1.92-1.39,1.81-.21,0-.55-.55-.54-.83C31.29,14.48,32.37,14.92,33.17,14.74Z"
              style="fill:#e2e4ea"/>
        <path d="M23.58,16.83c-.42-1.1-.08-1.69,1.14-1.7C24.55,15.84,24.41,16.57,23.58,16.83Z"
              style="fill:#212a48"/>
    </g>
</svg>