<svg xmlns="http://www.w3.org/2000/svg" viewBox="0 0 7.86 6.97">
    <g>
        <path d="M7.86,2.24c-1.09,0-1.47.26-1.17,1.56S6.28,6.43,4.75,5.9C3,5.28,1.76,8,0,6.49V2.24l1,.12c-.14,1.15-1,2.28.14,3.73.92-1.43,2.12-1,3.52-.86,2.45.14-.4-2.64,1.3-3.31.22-.09.72-.18.43-.66C5.2.6,3.75,1.7,2.65.61a5.73,5.73,0,0,1,5.21,0Z"
              style="fill:#242c4b"/>
        <path d="M1,2.36C1.4,1.64,1.58.69,2.65.61c1.1,1.09,2.55,0,3.74.65.29.48-.21.57-.43.66-1.7.67,1.15,3.45-1.3,3.31-1.4-.09-2.6-.57-3.52.86C0,4.64.86,3.51,1,2.36Z"
              style="fill:#e4b3d3"/>
    </g>
</svg>