<svg xmlns="http://www.w3.org/2000/svg" viewBox="0 0 22.58 26.11">
    <g>
        <path d="M22.58,11.25V10.14a1.23,1.23,0,0,1-.11-.34c-.56-.15-.55-.78-.82-1.16-2-2.78-2-2.85.87-5.27a1.8,1.8,0,0,1,.06-.32V2.51a1.62,1.62,0,0,1-.17-.41A7.54,7.54,0,0,0,18,0,26.3,26.3,0,0,0,3.9,3.24c-.95.52-2,.85-1.84,2.22a97.71,97.71,0,0,1,11.78-4c2.1-.51,3.88.25,5.8.42.46.05,2,.77.52,1.8-2.07,1.41-1.54,3.1-.39,4.62,1.59,2.09,1.33,3.49-1.08,4.55-1.78.79-2.9,1.93-2.05,4.13.51,1.33-.49,2.1-1.49,2.48a3.14,3.14,0,0,0-2.38,3.37c.07,1.89-.95,1.81-2.24,1.08a26.68,26.68,0,0,1-8.67-7.84c-.42-.6-.79-1.51-1.86-1.17A19.6,19.6,0,0,0,10.46,25.6c2.46,1.08,3.82.48,3.93-2.25a2.74,2.74,0,0,1,1.84-2.76C17.41,20,18.89,19,18.28,17.5c-1-2.38.44-3.13,2-3.89a7.56,7.56,0,0,0,2.23-2.09A2.56,2.56,0,0,1,22.58,11.25Z"
              style="fill:#202846"/>
        <path d="M2.06,5.46a97.71,97.71,0,0,1,11.78-4c2.1-.51,3.88.25,5.8.42.46.05,2,.77.52,1.8-2.07,1.41-1.54,3.1-.39,4.62,1.59,2.09,1.33,3.49-1.08,4.55-1.78.79-2.9,1.93-2.05,4.13.51,1.33-.49,2.1-1.49,2.48a3.14,3.14,0,0,0-2.38,3.37c.07,1.89-.95,1.81-2.24,1.08a26.68,26.68,0,0,1-8.67-7.84c-.42-.6-.79-1.51-1.86-1.17.92-2.39.9-5.06,2.2-7.33-.22.52-.35,1.34.42,1.07a33.11,33.11,0,0,1,10-1.7c-3.42-1.36-6.72-.67-10,.44A2.62,2.62,0,0,1,2.06,5.46Zm1.08,6c2.22.54,4.39,1.37,7.54.8C7.72,11.25,5.53,10.57,3.14,11.46ZM2.5,13.17c.3,2.6,1.78,3.52,4.2,4.48A16.93,16.93,0,0,0,2.5,13.17Z"
              style="fill:#eebfda"/>
        <path d="M2.59,7.39c3.28-1.11,6.58-1.8,10-.44a33.11,33.11,0,0,0-10,1.7C1.85,8.92,2,8.1,2.2,7.58A.89.89,0,0,0,2.59,7.39Z"
              style="fill:#202846"/>
        <path d="M3.14,11.46c2.39-.89,4.58-.21,7.54.8C7.53,12.83,5.36,12,3.14,11.46Z" style="fill:#202846"/>
        <path d="M2.5,13.17a16.93,16.93,0,0,1,4.2,4.48C4.28,16.69,2.8,15.77,2.5,13.17Z" style="fill:#202846"/>
    </g>
</svg>