<svg xmlns="http://www.w3.org/2000/svg" viewBox="0 0 10.93 11.61"><g id="Ebene_2" data-name="Ebene 2"><g id="Ebene_1-2" data-name="Ebene 1"><path d="M5.61,11.27a10,10,0,0,1,2.26.07,5.48,5.48,0,0,1,.64,0,3.79,3.79,0,0,1,1-.27,6.38,6.38,0,0,1,1-.1l-.57-.63C9.5,9.86,9.26,9.64,8.6,10a1.6,1.6,0,0,1-2.32-.88C7.2,8.58,9,9.87,9.11,8S7.38,7.35,6.53,6.55c2.32,0,2.93-1.24,2.29-3.29-.8.4-1.57.84-2.38,1.18C3.7,5.55,1.55,7,1.35,10.39a2.14,2.14,0,0,1-.26,1.19C2.6,11.49,4.1,11.3,5.61,11.27Z" style="fill:#f9dee6"/><path d="M10.89,2.32a.22.22,0,0,1,0-.08,1.85,1.85,0,0,0-.19.76,21.31,21.31,0,0,0,.07,4.59c.06-.91.12-1.81.17-2.72A8.05,8.05,0,0,1,10.89,2.32Z" style="fill:#fdfdfe"/><path d="M1.09,11.58a2.14,2.14,0,0,0,.26-1.19C1.55,7,3.7,5.55,6.44,4.44,7.25,4.1,8,3.66,8.82,3.26c.64,2.05,0,3.26-2.29,3.29.85.8,2.67-.39,2.58,1.44S7.2,8.58,6.28,9.08A1.6,1.6,0,0,0,8.6,10c.66-.32.9-.1,1.31.36l.57.63h.07l.21-3.36A21.31,21.31,0,0,1,10.69,3a1.85,1.85,0,0,1,.19-.76c0-.26-.05-.52-.07-.78A6.1,6.1,0,0,0,10.7,0c.25.78.15.41,0,0C8.09,1.66,5.33,3.15,2.64,4.74a7.79,7.79,0,0,1-2.26.9c0,.12,0,.23.06.35A13.54,13.54,0,0,1,.31,8.75h0C.21,9.63.08,10.5,0,11.35a5,5,0,0,0,.54.26Z" style="fill:#202844"/></g></g></svg>