<svg xmlns="http://www.w3.org/2000/svg" viewBox="0 0 16.83 19.29">
    <defs>
        <style>
            .ears0 {fill:#deb2d6}
        </style>
    </defs>
    <g>
        <path d="M0,9.33V8.24A7.12,7.12,0,0,0,2.31,5.8,13.54,13.54,0,0,1,8.5.51c2-.86,6-.6,6.05.53,0,1.87,1.5,2.65,2.28,3.94V7.7c-.36.49-1.08,1-1,1.46.4,3.28-.64,5.54-4,6.41-.19,0-.23.63-.36.95-1.21,3-3.86,3.68-6.29,1.45C3.31,16.29,1.7,14.39,0,12.59V11.51c3.05-.53,5.59.93,8.26,2-1.8.18-3.49-.84-5.33-.22l.28.72c.43,1.15,1.63,1.51,2.41,2.3,2.76,2.8,3.25,2.63,4.76-1.14a12,12,0,0,1,1.28-2,3.62,3.62,0,0,0,.72-3.29,4.92,4.92,0,0,1,0-3.6c.5-1.45-.18-2.36-1.94-2.33A11,11,0,0,0,4.51,6.12C3,7.13,1.94,8.89,0,9.33ZM13.82,3.14c-.15,1.61.35,3.29-.65,4.81-.37.57.25,1.11.64,1.33.78.43.65-.52,1-.83,2.22-2.25.23-3.69-1-5.29-.48-.66.35-2-1.36-2.07A6.53,6.53,0,0,0,7.07,2.9C9.37,2.33,11.6,3,13.82,3.14Z"
              style="fill:#232a49"/>
        <path d="M0,9.33c1.94-.44,3-2.2,4.51-3.21a11,11,0,0,1,5.91-2.23c1.76,0,2.44.88,1.94,2.33a4.92,4.92,0,0,0,0,3.6,3.62,3.62,0,0,1-.72,3.29,12,12,0,0,0-1.28,2c-1.51,3.77-2,3.94-4.76,1.14-.78-.79-2-1.15-2.41-2.3l-.28-.72c1.84-.62,3.53.4,5.33.22-2.67-1-5.21-2.49-8.26-2Zm2.38-.15c2-.84,4.09-.17,6.75-.67C6.27,7.13,4.32,8.06,2.38,9.18Z"
              class="ears0"/>
        <path d="M13.83,3.14C11.6,3,9.37,2.33,7.07,2.9a6.53,6.53,0,0,1,5.36-1.81c1.71.06.88,1.41,1.36,2.07Z"
             class="ears0"/>
        <path d="M13.79,3.16c1.21,1.6,3.2,3,1,5.29-.31.31-.18,1.26-1,.83-.39-.22-1-.76-.64-1.33,1-1.52.5-3.2.65-4.81Z"
              class="ears0"/>
        <path d="M2.38,9.18c1.94-1.12,3.89-2,6.75-.67C6.47,9,4.35,8.34,2.38,9.18Z" style="fill:#232a49"/>
    </g>
</svg>