<svg xmlns="http://www.w3.org/2000/svg" viewBox="0 0 66.24 90.26"><g id="Ebene_2" data-name="Ebene 2"><g id="Ebene_1-2" data-name="Ebene 1"><path d="M1.09,44.17l0-1.62c.83-.85.16-1-.53-1.11l0-2.16c.83-.84.17-1-.52-1.11v-7.6c.68-.13,1.35-.26.53-1.11A40.09,40.09,0,0,1,3.8,18.56L4.9,18a66.27,66.27,0,0,0-1.29,9.33C3.06,34.5,2.73,41.58,5,48.56,7.36,56.17,9.25,63.89,8.7,72L7,72c-1.09-.87.07-2.44-1-3.29,0-4.63-1.23-9.07-2.18-13.53-.55-2.56-1.3-5-1.14-7.7a1,1,0,0,0-1-1.13c0-.36,0-.72,0-1.08C2.44,44.42,1.77,44.29,1.09,44.17Z" style="fill:#dceff3"/><path d="M39.78.56c2-1.14,4-.22,6,0C57.9,1.64,65.47,14.71,66.13,23.62c.48,6.5-.76,12.69-1.26,19-.06.78-.12,1.46-1.09,1.56a25.17,25.17,0,0,1,.43-5.86c.22-.91.8-2.43-1-2.86a41.56,41.56,0,0,0-1-17.64A20.24,20.24,0,0,0,44.14,2.75c.08-1.12-.37-1.65-1.56-1.66C41.64,1.09,40.57,1.47,39.78.56Z" style="fill:#f2f9fb"/><path d="M48.85,86.63l-2,.27a3.27,3.27,0,0,0-2.43.27c-6.16-.08-12.33-.08-18.32-1.86L25,85.11h0A4.62,4.62,0,0,0,21.78,84h0c-.19-.58-.86-1.2.13-1.7,1.79.52,3.6,1,5.35,1.57a2.39,2.39,0,0,0,3.18-1l.78.69c-1.23.91-.59,1.31.45,1.5a16.48,16.48,0,0,0,3.2.4c3.62,0,7.29.9,10.84-.5a10.2,10.2,0,0,0-1.57-3.63c-.69-1.18-2.82-3.17,1-3,.21,0,.45-.51.68-.78l.67.43a4.81,4.81,0,0,1-.53,1.2c-1.65,2,.82,3.14,1.1,4.74.23,1.29,1.6.65,2.52.56s1.85-.13,2.13,1.08l-2.13.84Z" style="fill:#2e3754"/><path d="M59.94,63.81c-.17,1.09-.35,2.18-.52,3.27-.71.53-.71,1.08,0,1.63a20.34,20.34,0,0,1-.53,5.45,1.1,1.1,0,0,0-.53,1.13c0,.53,0,1.07,0,1.6l-1.62.54c.35-4.22.83-8.44,1-12.67A57.55,57.55,0,0,1,61.58,46.9h1.64c-.14,3.75-1.46,7.26-2.16,10.9a1,1,0,0,0-.52,1.12c0,1.26-.06,2.52-.08,3.77C59.78,62.83,59.13,63,59.94,63.81Z" style="fill:#dceff3"/><path d="M20.34,83.87c-2.75,2.29-6.56,2-9.46,3.91a1.68,1.68,0,0,0-1.63,1.1h0a1.12,1.12,0,0,0-1.09.55H5.43L3.8,88.33a1.11,1.11,0,0,0-.55-1.08V84.52c.81-.94.73-2.18,1.08-3.27,0-.36,0-.72,0-1.08,1.23-.92.94-2.47,1.49-3.67.38-.81-.28-2.12,1.2-2.38,0,3.55-1.33,6.82-2.18,10.19C4.44,86,4.45,87.64,6.26,88a2.75,2.75,0,0,0,3.52-2.42,19.89,19.89,0,0,0,7.84-3c.5-.36,1.38-.19,2.09-.26A1.8,1.8,0,0,1,20.34,83.87Z" style="fill:#dceff3"/><path d="M4.9,18l-1.1.55C5.34,12.33,9.51,8.19,14.75,5c1.65-1,3.28-2.25,5.39-2.2l1.65.55c-.39.21-.76.44-1.15.62C16.1,6,11.87,8.41,9.07,12.8,7.88,14.67,6.78,16.66,4.9,18Z" style="fill:#ebf6f8"/><path d="M20.34,83.87a1.8,1.8,0,0,0-.63-1.52,1.31,1.31,0,0,0,0-1.65c.12-.79.2-1.59.39-2.36.63-2.65.18-5.54,1.73-8l1,.5c-.12,2.1-.88,4.18-.31,6.36a7.76,7.76,0,0,0,3.9-3c.79,1.36,0,2.09-.69,2.73-1.09,1-2.29,1.79-3.39,2.73-.85.74-1.67,1.55-.37,2.62-1,.5-.32,1.12-.13,1.7Z" style="fill:#3b4965"/><path d="M21.79,3.3l-1.65-.55C21,1,22.84,1.23,24.29,1a26,26,0,0,1,11.13.12c0,.37,0,.74,0,1.11A49.75,49.75,0,0,0,21.79,3.3Z" style="fill:#f2f9fb"/><path d="M56.7,77.43l1.62-.54c.11,2.46.81,5,0,7.38-.94,2.62-3.81,3.18-6,1.32.07-.19.13-.37.19-.56,3.53-.24,4.15-.88,4.2-4.37C56.7,79.58,56.69,78.5,56.7,77.43Z" style="fill:#e5f3f7"/><path d="M63.22,46.91H61.58l1.65-11.43c1.78.43,1.2,2,1,2.86a25.17,25.17,0,0,0-.43,5.86c0,.36,0,.72,0,1.08a1.09,1.09,0,0,0-.53,1.1C63.24,46.55,63.23,46.73,63.22,46.91Z" style="fill:#e5f3f7"/><path d="M35.4,2.22l0-1.11c1.47,0,2.85-.8,4.36-.55.79.91,1.86.53,2.8.53,1.19,0,1.64.54,1.56,1.66a55.14,55.14,0,0,0-5.61.08C37.36,3,36.27,3.37,35.4,2.22Z" style="fill:#e5f3f7"/><path d="M7,74.12c-1.48.26-.82,1.57-1.2,2.38-.55,1.2-.26,2.75-1.49,3.67.16-3.88.31-7.75,1.64-11.46,1.11.85,0,2.42,1,3.29C7,72.7,7,73.41,7,74.12Z" style="fill:#fbfcfd"/><path d="M52.48,85c-.06.19-.12.37-.19.56l-.58,0c-.28-1.21-1.25-1-2.13-1.08,1.78-1,.94-2.8,1.23-4.25l1-.37.69.84.11,2.22A3,3,0,0,0,52.48,85Z" style="fill:#8e969e"/><path d="M4.33,81.25c-.35,1.09-.27,2.33-1.08,3.27C2.38,83,2.86,82,4.33,81.25Z" style="fill:#fbfcfd"/><path d="M21.78,84A4.62,4.62,0,0,1,25,85.12,6.11,6.11,0,0,1,21.78,84Z" style="fill:#3b4965"/><path d="M59.4,68.71c-.69-.55-.69-1.1,0-1.63C60.1,67.63,60.1,68.17,59.4,68.71Z" style="fill:#e5f3f7"/><path d="M9.25,88.88a1.68,1.68,0,0,1,1.63-1.1C10.84,88.9,10,88.89,9.25,88.88Z" style="fill:#fbfcfd"/><path d="M58.34,75.29a1.1,1.1,0,0,1,.53-1.13C59.7,75,59,75.14,58.34,75.29Z" style="fill:#e5f3f7"/><path d="M.53,29.46c.82.85.15,1-.53,1.11A1.08,1.08,0,0,1,.53,29.46Z" style="fill:#ebf6f8"/><path d="M8.16,89.43a1.12,1.12,0,0,1,1.09-.55C9.14,89.58,9,90.26,8.16,89.43Z" style="fill:#fbfcfd"/><path d="M44.42,87.17a3.27,3.27,0,0,1,2.43-.27C46.1,87.48,45.25,87.24,44.42,87.17Z" style="fill:#e5f3f7"/><path d="M3.25,87.25a1.11,1.11,0,0,1,.55,1.08C3.11,88.23,2.42,88.12,3.25,87.25Z" style="fill:#fbfcfd"/><path d="M5.43,89.43H6.52c-.14.28-.24.76-.43.8C5.5,90.37,5.51,89.83,5.43,89.43Z" style="fill:#fbfcfd"/><path d="M60.54,58.93a1,1,0,0,1,.52-1.12C61.88,58.64,61.2,58.78,60.54,58.93Z" style="fill:#ebf6f8"/><path d="M0,38.17c.69.13,1.35.27.52,1.11A1.09,1.09,0,0,1,0,38.17Z" style="fill:#ebf6f8"/><path d="M59.94,63.81c-.81-.83-.16-1,.52-1.11A1,1,0,0,1,59.94,63.81Z" style="fill:#e5f3f7"/><path d="M1.63,46.35a1,1,0,0,1,1,1.13A1,1,0,0,1,1.63,46.35Z" style="fill:#ebf6f8"/><path d="M63.24,46.37a1.09,1.09,0,0,1,.53-1.1C64.6,46.13,63.92,46.25,63.24,46.37Z" style="fill:#f2f9fb"/><path d="M1.09,44.17c.68.12,1.35.25.53,1.1A1.07,1.07,0,0,1,1.09,44.17Z" style="fill:#ebf6f8"/><path d="M.54,41.44c.69.13,1.36.26.53,1.11A1.08,1.08,0,0,1,.54,41.44Z" style="fill:#ebf6f8"/><path d="M25,85.11l1.09.2Z" style="fill:#3b4965"/><path d="M48.85,86.63l.73-.23Z" style="fill:#e5f3f7"/><path d="M52.5,80.7l-.69-.84c-.1-.34-.08-.8-.3-1a61.67,61.67,0,0,0-8.38-6.91C42.07,68,40.53,64.15,42,60a1.63,1.63,0,0,0,.91-2.27,3.67,3.67,0,0,1,.24-3.39c1.37-2.8,1-5.7,1-8.6l.15-.14c1.28,0,1.65-.68,1.29-1.74a5.12,5.12,0,0,1-.22-2.94c.86-3.51-.44-6.37-2.73-8.86-3.5-3.79-7.09-7.5-10.62-11.25-1-1.1-.91-3.47-2.55-3.55s-1.77,2.24-2.77,3.37c-2.44,2.72-4.94,5.43-6.53,8.79A5.25,5.25,0,0,0,17,31.6,21.72,21.72,0,0,0,14.54,34c-2.15,2-4.74,3.94-4.75,7.41-1-.11-1,.92-1.58,1.27-.06-.78-.12-1.58-.2-2.34-.35-3.57,2-6.44,2.33-9.79,1.93-3.8,5.15-6.49,8.06-9.45,1-1,2.72-1.3,2.89-3.05L22.88,18c.72.42.13,2.84,1.77,1.51a6.17,6.17,0,0,0,2.49-3.76c.2-1.51.92-2.78,2.29-3,1.87-.3.48,2,1.63,2.54,2.11,4.32,4.68,8.25,9.26,10.37L42,27.28c1.82,3.18,3.91,6.22,4.92,9.81a1.11,1.11,0,0,0,.53,1.1l0,3.25c.1,2.22-.94,4.34-.54,6.57l0,2.17c-.81.58-.49,1.43-.53,2.19l0,1.63a1.06,1.06,0,0,0-.51,1.1l0,1.62c-.66.4-.54,1-.53,1.65l0,1.08a15.85,15.85,0,0,0-1,7.9,6.23,6.23,0,0,0,1.69,3.93c2,1.92,4.07,3.86,6.24,5.63,1.5,1.22,2.76.57,2.87-1.31.2-3.33.22-6.69.6-10,.44-3.84.73-7.79,1.9-11.44,3.31-10.33,5.05-20.79,4-31.63C60.61,12.3,52.41,3,40.28,4.36c-1.59.18-3.4.73-4.75.19A12,12,0,0,0,28.86,4c-2.25.44-5.28-.5-6.54,2.59C15.47,8.62,10.5,12.72,8.18,19.67A11.58,11.58,0,0,0,7.56,24a1,1,0,0,0-1,1.15A11.14,11.14,0,0,1,6,28.91c0,2,0,4,0,6-1.06,3.47.11,6.76.87,10.07,0,.17.45.25.69.37.27,1.24-.35,2.61.58,3.74a2.57,2.57,0,0,1,.08.47c.24,2.19.17,4.48,2.11,6.07l.05,1.09,0,2.71c.33,4.19,1.6,8.3.61,12.61-.44,1.89,0,4-.56,5.91-.18.62-.35,1.5.43,2s1.23-.1,1.76-.38a8.16,8.16,0,0,0,4.1-4.5c.87-2.46,2.06-4.81,2.32-7.46a4.29,4.29,0,0,1,1.13-3.25l.56-.49c.55-.22.69.4,1.07.52a54.92,54.92,0,0,1-4.13,13.17c-1.18,2.66-1,2.92,2,3.15a1.31,1.31,0,0,1,0,1.65c-.71.07-1.59-.1-2.09.26a19.89,19.89,0,0,1-7.84,3C7,85,7.34,82.92,7.8,81.1A32.21,32.21,0,0,0,8.7,72C9.25,63.89,7.36,56.17,5,48.56c-2.22-7-1.89-14.06-1.34-21.22A66.27,66.27,0,0,1,4.9,18c1.88-1.35,3-3.34,4.17-5.21,2.8-4.39,7-6.81,11.57-8.88.39-.18.76-.41,1.15-.62A49.75,49.75,0,0,1,35.4,2.22c.87,1.15,2,.73,3.13.61a55.14,55.14,0,0,1,5.61-.08A20.24,20.24,0,0,1,62.21,17.83a41.56,41.56,0,0,1,1,17.64L61.58,46.9a57.55,57.55,0,0,0-3.85,17.86c-.2,4.23-.68,8.45-1,12.67,0,1.07,0,2.15,0,3.23,0,3.49-.67,4.13-4.2,4.37a3,3,0,0,1,.13-2.11c.48-.09,1.22,0,1.14-.73A1.48,1.48,0,0,0,52.5,80.7Z" style="fill:#fbfcfd"/><path d="M8.7,72a32.21,32.21,0,0,1-.9,9.12c-.46,1.82-.76,3.93,2,4.49A2.75,2.75,0,0,1,6.26,88c-1.81-.37-1.82-2-1.4-3.7C5.71,80.94,7,77.67,7,74.12,7,73.41,7,72.7,7,72Z" style="fill:#d8edf3"/><path d="M21.91,82.28c-1.3-1.07-.48-1.88.37-2.62,1.1-.94,2.3-1.77,3.39-2.73.72-.64,1.48-1.37.69-2.73a7.76,7.76,0,0,1-3.9,3c-.57-2.18.19-4.26.31-6.36.86-1,1.5-2.5,3.18-2s3.76.92,3.32,3.81c2.26-1.83,1.46-4.55,2.59-6.05s3.62-2.2,5.59-3.28c-.81,5.59.14,7.72,3.51,8.11l1,.75c-.2,1.27.83,1.84,1.45,2.68s2.23,1.24,2.39,2.69c-.23.27-.47.79-.68.78-3.82-.19-1.69,1.8-1,3a10.2,10.2,0,0,1,1.57,3.63A70.29,70.29,0,0,1,32,84.58c-.72-.07-.89-.42-.81-1,1.56-1.66,2.93-3.37,1.78-5.84a23.13,23.13,0,0,1-2.56,5.15,2.39,2.39,0,0,1-3.18,1C25.51,83.23,23.7,82.8,21.91,82.28Z" style="fill:#f7dde6"/><path d="M45.82,77.55c-.16-1.45-1.66-1.73-2.39-2.69S41.78,73.45,42,72.18l1.15-.24a61.67,61.67,0,0,1,8.38,6.91c.22.21.2.67.3,1l-1,.37c-1.83,0-2.33-2.55-4.32-2.25Z" style="fill:#f2ebf0"/><path d="M46.49,78c2-.3,2.49,2.26,4.32,2.25-.29,1.45.55,3.23-1.23,4.25-.92.09-2.29.73-2.52-.56-.28-1.6-2.75-2.72-1.1-4.74A4.81,4.81,0,0,0,46.49,78Z" style="fill:#f7dde6"/><path d="M30.44,82.85A23.13,23.13,0,0,0,33,77.7c1.15,2.47-.22,4.18-1.78,5.84Z" style="fill:#4d536f"/><path d="M31.21,83.54c-.07.62.1,1,.82,1a70.29,70.29,0,0,0,13.68.36c-3.55,1.4-7.22.45-10.84.5a16.48,16.48,0,0,1-3.2-.4C30.63,84.85,30,84.45,31.21,83.54Z" style="fill:#4d536f"/><path d="M41,71.43c-3.37-.39-4.32-2.52-3.51-8.11-2,1.08-4.41,1.7-5.59,3.28s-.33,4.22-2.59,6.05c.44-2.89-1.57-3.29-3.32-3.81s-2.32,1-3.18,2l-1-.5c.29-2.62,1.92-3.47,4.34-3.31l3.81,1.67c-.23-3.07-2.33-2-3.8-2.1A3.06,3.06,0,0,1,24,65.84l-.54-.39h0c0-.53,0-1.06,0-1.59C27,65.38,30.58,65.68,34,63.3c1.48-1,3.06-1.91,4.58-2.88a3.66,3.66,0,0,1,2.75-.89.72.72,0,0,0,.09.46c-.63,1.22-1.88,1.85-2.38,3.4C38,66.65,39.57,68.94,41,71.43Z" style="fill:#2e3754"/><path d="M24,65.84a3.06,3.06,0,0,0,2.18.77c0,.14,0,.29,0,.43-2.42-.16-4.05.69-4.34,3.31-1.55,2.45-1.1,5.34-1.73,8-.19.77-.27,1.57-.39,2.36-3-.23-3.2-.49-2-3.15a54.92,54.92,0,0,0,4.13-13.17l1.63,1.07h0C23.48,65.75,23.59,66,24,65.84Z" style="fill:#d8edf3"/><path d="M52.5,80.7a1.48,1.48,0,0,1,1.25,1.49c.08.77-.66.64-1.14.73C52.57,82.18,52.54,81.44,52.5,80.7Z" style="fill:#f2ebf0"/><path d="M22.32,6.56C23.58,3.47,26.61,4.41,28.86,4a12,12,0,0,1,6.67.58c1.35.54,3.16,0,4.75-.19C52.41,3,60.61,12.3,61.57,22.54c1,10.84-.72,21.3-4,31.63-1.17,3.65-1.46,7.6-1.9,11.44-.38,3.3-.4,6.66-.6,10-.11,1.88-1.37,2.53-2.87,1.31C50,75.14,48,73.2,45.93,71.28a6.23,6.23,0,0,1-1.69-3.93,15.85,15.85,0,0,1,1-7.9c.22,3.33,2.25,6.17,2.64,9.42a6.2,6.2,0,0,0,2,4.25c.78.67,1.33,2,2.67,1.37s1.23-1.77,1.41-3c.54-3.74.07-7.6,1.11-11.27,3.37-11.94,4.2-24.14,3.68-36.44a10.1,10.1,0,0,0-3.74-8c-.88-1.11-1.34-2.58-2.73-3.27-1.3-2.36-3.5-3.32-6-3.81h-.54A5.91,5.91,0,0,0,36.5,8.2H36a1.63,1.63,0,0,0-1.64,1.08,4.43,4.43,0,0,0-1,.83c-1.09,1.64-1.84,1.79-2.56-.3a4.53,4.53,0,0,0-3-2.85C25.89,6.35,24.1,6.71,22.32,6.56Z" style="fill:#e5f3f7"/><path d="M55.05,15.83a10.1,10.1,0,0,1,3.74,8c.52,12.3-.31,24.5-3.68,36.44-1,3.67-.57,7.53-1.11,11.27-.18,1.21-.13,2.43-1.41,3s-1.89-.7-2.67-1.37a6.2,6.2,0,0,1-2-4.25c-.39-3.25-2.42-6.09-2.64-9.42,0-.36,0-.72,0-1.08,1.13-.25,1.4-.77.53-1.65,0-.54,0-1.08,0-1.62.68-.13,1.34-.28.51-1.1l0-1.63c1.47-.42,1.28-1.24.53-2.19,0-.72,0-1.44,0-2.17,2.14-.22-.11-2.14,1.07-2.74,2.21,1.22,1.16,3.32.89,4.81A51,51,0,0,0,48,62.21a18.47,18.47,0,0,0,2.38,8.52,1.82,1.82,0,0,0,1.72,1.13c.71-.09.78-.7.75-1.25-.34-5.28,1-10.4,1.77-15.55.54-3.7.05-7.39.74-11.06C57.1,34.61,57.43,25.2,55.05,15.83Z" style="fill:#d8edf3"/><path d="M7.56,24a11.58,11.58,0,0,1,.62-4.29c1.46-.46,1.8-1.88,2.55-3A19.36,19.36,0,0,1,26,8.21c.82-.05,1.69-.06,2.13.83a1.71,1.71,0,0,1-.43,2.22c-2.25,1.8-3.55,4.25-4.8,6.74l-1.59.06a8.32,8.32,0,0,0-5.89,2.31c-2.35,2.37-5,4.47-6.9,7.27A2.53,2.53,0,0,1,6,28.91a11.14,11.14,0,0,0,.54-3.8A1,1,0,0,0,7.56,24Z" style="fill:#c6e6ef"/><path d="M22.88,18c1.25-2.49,2.55-4.94,4.8-6.74A1.71,1.71,0,0,0,28.11,9c-.44-.89-1.31-.88-2.13-.83a19.36,19.36,0,0,0-15.25,8.5c-.75,1.08-1.09,2.5-2.55,3,2.32-7,7.29-11.05,14.14-13.11,1.78.15,3.57-.21,5.36.41a4.53,4.53,0,0,1,3,2.85c.72,2.09,1.47,1.94,2.56.3a4.43,4.43,0,0,1,1-.83l.54.55v1.09c-.44.07-.91.13-1,.69-.08.72.43.87,1,1-.17,1.15.38,2.17.57,3.26a11.58,11.58,0,0,0-4.37-.54c-1.15-.5.24-2.84-1.63-2.54-1.37.22-2.09,1.49-2.29,3a6.17,6.17,0,0,1-2.49,3.76C23,20.84,23.6,18.42,22.88,18Z" style="fill:#dceff3"/><path d="M20.14,29.41c1.59-3.36,4.09-6.07,6.53-8.79,1-1.13,1.12-3.44,2.77-3.37S31,19.7,32,20.8c3.53,3.75,7.12,7.46,10.62,11.25,2.29,2.49,3.59,5.35,2.73,8.86a5.12,5.12,0,0,0,.22,2.94c.36,1.06,0,1.79-1.29,1.74a3.91,3.91,0,0,0-.7-3,14.27,14.27,0,0,0-4.32-11.26c-3.11-3.27-6.76-6-9.37-9.78-.47-.68-1.46-1.3-2-.24-1.57,3.13-4.59,5.13-6.15,8.23Z" style="fill:#f2ebf0"/><path d="M19,67.6c-.26,2.65-1.45,5-2.32,7.46a8.16,8.16,0,0,1-4.1,4.5c-.53.28-1.11.78-1.76.38s-.61-1.36-.43-2c.57-2,.12-4,.56-5.91,1-4.31-.28-8.42-.61-12.61l2.16.55c.38,3.73,1.78,7.4.59,11.24-.23.73-.2,1.79.77,2.09S15,72.53,15.39,72C16.65,70.59,16.57,68.07,19,67.6Z" style="fill:#dceff3"/><path d="M19,67.6c-2.45.47-2.37,3-3.63,4.43-.43.5-.6,1.57-1.51,1.29s-1-1.36-.77-2.09c1.19-3.84-.21-7.51-.59-11.24-.44-1.28-.49-2.82-2.19-3.26,0-.36,0-.72-.05-1.09.71-.38.57-1.07.62-1.7a52.84,52.84,0,0,0,9.27,9.8l0,.61A4.29,4.29,0,0,0,19,67.6Z" style="fill:#c6e6ef"/><path d="M9.79,41.42c0-3.47,2.6-5.37,4.75-7.41A21.72,21.72,0,0,1,17,31.6l1,.14C18,33.8,15,34,15.22,36.17c-.67.24-1.58.09-1.84,1,.79.59,1.88.09,2.45,1a6.44,6.44,0,0,1-1.24.47c-.86.14-1.63.33-1.45,1.45a2.13,2.13,0,0,0,1.72,1.82c1.16.27,1.63-.57,1.87-1.45a9.91,9.91,0,0,0,.14-2.12c.89-.36,1.89,1,2.72-.18,1.75,3.52.65,6-3.32,7.63a5.5,5.5,0,0,0-3.76-1.08l0,0C12.06,43.28,10.71,42.53,9.79,41.42Z" style="fill:#ecf1f3"/><path d="M46.88,37.09c-1-3.59-3.1-6.63-4.92-9.81,1.46-.18,1-1.32,1.09-2.18,1.51.68,2,2.29,3.06,3.4,3.7,3.9,5.3,8.47,4.07,13.9-.31,1.38-1,1.84-2.21,1.79.28-1,1.38-2.16-.53-2.75l0-3.25C48.25,37.34,47.57,37.21,46.88,37.09Z" style="fill:#d8edf3"/><path d="M6,28.91A2.53,2.53,0,0,0,8.5,27.64c1.9-2.8,4.55-4.9,6.9-7.27a8.32,8.32,0,0,1,5.89-2.31c-.17,1.75-1.91,2.05-2.89,3.05-2.91,3-6.13,5.65-8.06,9.45C8.86,30.52,8.7,32,8,32.73s-.63,2.1-2,2.19C6,32.92,6,30.91,6,28.91Z" style="fill:#d8edf3"/><path d="M20.17,63.74a52.84,52.84,0,0,1-9.27-9.8c-1.19-1.28-1.06-3.39-2.73-4.37a2.57,2.57,0,0,0-.08-.47c.06-1.43.13-2.86.2-4.29l.88,0c1.72,8.63,7.28,14.38,14.26,19.07,0,.53,0,1.06,0,1.59l-1.63-1.07c-.38-.12-.52-.74-1.07-.52Z" style="fill:#34415e"/><path d="M6,34.92c1.38-.09,1.32-1.48,2-2.19s.9-2.21,2.38-2.17C10,33.91,7.66,36.78,8,40.35c.08.76.14,1.56.2,2.34L8.09,44.2l-.58,1.17c-.24-.13-.65-.21-.69-.38C6.06,41.68,4.89,38.39,6,34.92Z" style="fill:#dceff3"/><path d="M31.06,15.29a11.58,11.58,0,0,1,4.37.54c.57.62,1.3,1.16,1.09,2.17a4.24,4.24,0,0,0,1.54,4.08,6.47,6.47,0,0,1,2.26,3.58C35.74,23.54,33.17,19.61,31.06,15.29Z" style="fill:#e5f3f7"/><path d="M41,71.43c-1.39-2.49-3-4.78-1.91-8,.5-1.55,1.75-2.18,2.38-3.4H42c-1.46,4.16.08,8,1.14,11.95L42,72.18Z" style="fill:#c6e6ef"/><path d="M40.32,25.66a6.47,6.47,0,0,0-2.26-3.58A4.24,4.24,0,0,1,36.52,18a2,2,0,0,1,2,1.1c1.46,2,3,4,4.55,6-.1.86.37,2-1.09,2.18Z" style="fill:#dceff3"/><path d="M43.57,42.57a3.91,3.91,0,0,1,.7,3l-.15.14L43,46.41c-1.67.45-2.86,2.27-4.88,1.68A5.65,5.65,0,0,0,40.85,42c.23-.53-.18-1.26.53-1.63Z" style="fill:#34415e"/><path d="M43,46.41l1.09-.68c0,2.9.39,5.8-1,8.6a3.67,3.67,0,0,0-.24,3.39A1.63,1.63,0,0,1,42,60h-.56a.71.71,0,0,1-.09-.45c-.57-1.9,0-3.66.51-5.47A23.41,23.41,0,0,0,43,46.41Z" style="fill:#f2ebf0"/><path d="M8.09,44.2l.12-1.51c.58-.35.62-1.38,1.58-1.27.92,1.11,2.27,1.86,2.75,3.33a2.67,2.67,0,0,1-2-.53c-.81-.76-1,0-1.34.57l-.88,0Z" style="fill:#8e969e"/><path d="M8.17,49.57c1.67,1,1.54,3.09,2.73,4.37-.05.63.09,1.32-.62,1.7C8.34,54.05,8.41,51.76,8.17,49.57Z" style="fill:#d8edf3"/><path d="M18,31.74l-1-.14a5.25,5.25,0,0,1,3.12-2.19l1.6.11C21.6,32.14,19.6,31.62,18,31.74Z" style="fill:#aaaab3"/><path d="M47.44,41.44c1.91.59.81,1.75.53,2.75v1.08c-1.18.6,1.07,2.52-1.07,2.74C46.5,45.78,47.54,43.66,47.44,41.44Z" style="fill:#e5f3f7"/><path d="M10.33,56.73c1.7.44,1.75,2,2.19,3.26l-2.16-.55Z" style="fill:#d8edf3"/><path d="M8.09,44.2l.2.61c-.07,1.43-.14,2.86-.2,4.29-.93-1.13-.31-2.5-.58-3.74C7.71,45,7.9,44.59,8.09,44.2Z" style="fill:#d8edf3"/><path d="M46.88,50.18c.75,1,.94,1.77-.53,2.19C46.39,51.61,46.07,50.76,46.88,50.18Z" style="fill:#e5f3f7"/><path d="M45.79,56.72c.87.88.6,1.4-.53,1.65C45.25,57.76,45.13,57.12,45.79,56.72Z" style="fill:#e5f3f7"/><path d="M7.56,24a1,1,0,0,1-1,1.15A1,1,0,0,1,7.56,24Z" style="fill:#dceff3"/><path d="M46.88,37.09c.69.12,1.37.25.53,1.1A1.11,1.11,0,0,1,46.88,37.09Z" style="fill:#e5f3f7"/><path d="M46.32,54c.83.82.17,1-.51,1.1A1.06,1.06,0,0,1,46.32,54Z" style="fill:#e5f3f7"/><path d="M20.17,63.74l.54.12-.56.49Z" style="fill:#dceff3"/><path d="M18,31.74c1.62-.12,3.62.4,3.76-2.22,1.56-3.1,4.58-5.1,6.15-8.23.53-1.06,1.52-.44,2,.24,2.61,3.75,6.26,6.51,9.37,9.78a14.27,14.27,0,0,1,4.32,11.26L41.38,40.4c-1.18-1.59-2.54-2.87-4.71-2.78a5.21,5.21,0,0,0-5.65,0l0,0a1.22,1.22,0,0,0-.5.11c-1,.3-1.52.81-.91,1.88-2.17,1.55-1.47,3.74-1,5.63a4.54,4.54,0,0,0,4.18,3.32,17.29,17.29,0,0,0,5.31-.44c2,.59,3.21-1.23,4.88-1.68a23.68,23.68,0,0,1-1.19,7.66c-.54,1.81-1.08,3.57-.51,5.47a3.61,3.61,0,0,0-2.75.88c-1.52,1-3.1,1.85-4.58,2.88-3.43,2.38-7,2.08-10.58.56-7-4.69-12.54-10.44-14.26-19.07.3-.54.53-1.33,1.34-.57a2.67,2.67,0,0,0,2,.53l0,0c1,1.32,2.42,1,3.76,1.08,4-1.58,5.07-4.11,3.32-7.63-1.08-1.48-2.81-1.55-4.37-2C15,34,18,33.8,18,31.74ZM22.33,57a5.33,5.33,0,0,1,2.72.38,6,6,0,0,0,3.47,0,1.32,1.32,0,0,0,.78-.94c0-.57-.62-.66-1-.5-2.6,1-5-1.19-7.55-.45-.81.24-1.92-1.4-2.23,0S20,56.59,20.83,57A4.26,4.26,0,0,0,22.33,57Zm16.9-23.56c-2.29-1.09-4.43-2.29-6.54-3.56-.52-.31-1.25-.61-1.63.17a1.22,1.22,0,0,0,.53,1.83C34,33,36.45,34,39.23,33.46Zm-4,1.77C33,34,31,34,29.33,36.18,31.21,35,33.3,35.62,35.27,35.23Zm-9,20c-1.73-2.73-3.52-3.12-5.48-1.28C22.76,53.62,24.35,54.33,26.24,55.26Zm-.47,3.83c-.79-.13-1.5-.21-2.18-.37a5.33,5.33,0,0,1-1-.47c-.67-.32-1.57-.69-1.15.61.28.9,1.37,1,2.25,1.17A1.82,1.82,0,0,0,25.77,59.09Z" style="fill:#f7dde6"/><path d="M26.13,67c0-.14,0-.29,0-.43,1.47.1,3.57-1,3.8,2.1Z" style="fill:#adddef"/><path d="M24,65.84c-.37.14-.48-.09-.54-.39Z" style="fill:#34415e"/><path d="M48,45.27V44.19c1.26.05,1.9-.41,2.21-1.79,1.23-5.43-.37-10-4.07-13.9-1.06-1.11-1.55-2.72-3.06-3.4-1.52-2-3.09-4-4.55-6a2,2,0,0,0-2-1.1c.21-1-.52-1.55-1.09-2.17-.19-1.09-.74-2.11-.57-3.26V10.93c0-.37,0-.73,0-1.09A1.66,1.66,0,0,0,36,8.21h.53a13.2,13.2,0,0,1,9.28.54h.54c1.62,1.87,3.84,2.8,6,3.81,1.39.69,1.85,2.16,2.73,3.27,2.38,9.37,2.05,18.78.31,28.17-.69,3.67-.2,7.36-.74,11.06-.77,5.15-2.11,10.27-1.77,15.55,0,.55,0,1.16-.75,1.25a1.82,1.82,0,0,1-1.72-1.13A18.47,18.47,0,0,1,48,62.21a51,51,0,0,1,.86-12.13C49.13,48.59,50.18,46.49,48,45.27Z" style="fill:#c6e6ef"/><path d="M45.78,8.74A13.2,13.2,0,0,0,36.5,8.2,5.91,5.91,0,0,1,45.78,8.74Z" style="fill:#d8edf3"/><path d="M52.32,12.56c-2.16-1-4.38-1.94-6-3.81C48.82,9.24,51,10.2,52.32,12.56Z" style="fill:#d8edf3"/><path d="M36,8.21a1.66,1.66,0,0,1-1.1,1.63l-.54-.55A1.63,1.63,0,0,1,36,8.21Z" style="fill:#d8edf3"/><path d="M34.86,10.93v1.64c-.55-.08-1.06-.23-1-1C34,11.06,34.42,11,34.86,10.93Z" style="fill:#d8edf3"/><path d="M16.87,38.35a9.91,9.91,0,0,1-.14,2.12c-.24.88-.71,1.72-1.87,1.45a2.13,2.13,0,0,1-1.72-1.82c-.18-1.12.59-1.31,1.45-1.45a6.44,6.44,0,0,0,1.24-.47Z" style="fill:#adddef"/><path d="M16.87,38.35l-1-.17c-.57-.87-1.66-.37-2.45-1,.26-1,1.17-.81,1.84-1,1.56.45,3.29.52,4.37,2C18.76,39.34,17.76,38,16.87,38.35Z" style="fill:#4d536f"/><path d="M16.27,45.8c-1.34-.06-2.78.24-3.76-1.08A5.5,5.5,0,0,1,16.27,45.8Z" style="fill:#aaaab3"/><path d="M38.16,48.09a17.29,17.29,0,0,1-5.31.44,4.54,4.54,0,0,1-4.18-3.32c-.51-1.89-1.21-4.08,1-5.63,2.29-.77,4.56-1.9,7-.42a9.42,9.42,0,0,0-2.14.19,3.15,3.15,0,0,0-2.25,3.32,2.06,2.06,0,0,0,2.36,2,2.93,2.93,0,0,0,3-2.59,13.92,13.92,0,0,0,.11-2.42A8.69,8.69,0,0,1,40.85,42,5.65,5.65,0,0,1,38.16,48.09Z" style="fill:#ecf1f3"/><path d="M36.62,39.16c-2.43-1.48-4.7-.35-7,.42-.61-1.07-.06-1.58.91-1.88.28.49.44.4.5-.11l0,0h5.65c2.17-.09,3.53,1.19,4.71,2.78-.71.37-.3,1.1-.53,1.63a8.69,8.69,0,0,0-3.18-2.32v.08a.91.91,0,0,0-1.13-.62Z" style="fill:#6d7483"/><path d="M22.33,57a4.26,4.26,0,0,1-1.5,0c-.87-.4-2.68,0-2.33-1.52s1.42.27,2.23,0c2.56-.74,4.95,1.47,7.55.45.4-.16,1-.07,1,.5a1.32,1.32,0,0,1-.78.94,6,6,0,0,1-3.47,0A5.33,5.33,0,0,0,22.33,57Z" style="fill:#34415e"/><path d="M39.23,33.46C36.45,34,34,33,31.59,31.9a1.22,1.22,0,0,1-.53-1.83c.38-.78,1.11-.48,1.63-.17C34.8,31.17,36.94,32.37,39.23,33.46Z" style="fill:#2b3450"/><path d="M35.27,35.23c-2,.39-4.06-.21-5.94,1C31,34,33,34,35.27,35.23Z" style="fill:#3b4965"/><path d="M26.24,55.26c-1.89-.93-3.48-1.64-5.48-1.28C22.72,52.14,24.51,52.53,26.24,55.26Z" style="fill:#4d536f"/><path d="M25.77,59.09a1.82,1.82,0,0,1-2,.94c-.88-.12-2-.27-2.25-1.17-.42-1.3.48-.93,1.15-.61a5.33,5.33,0,0,0,1,.47C24.27,58.88,25,59,25.77,59.09Z" style="fill:#34415e"/><path d="M36.67,37.62H31A5.21,5.21,0,0,1,36.67,37.62Z" style="fill:#2e3754"/><path d="M31,37.59c-.06.51-.22.6-.5.11A1.22,1.22,0,0,1,31,37.59Z" style="fill:#2e3754"/><path d="M37.67,39.71a13.92,13.92,0,0,1-.11,2.42,2.93,2.93,0,0,1-3,2.59,2.06,2.06,0,0,1-2.36-2,3.15,3.15,0,0,1,2.25-3.32,9.42,9.42,0,0,1,2.14-.19h-.09c.2.54.64.63,1.13.62Z" style="fill:#adddef"/><path d="M37.66,39.79c-.49,0-.93-.08-1.13-.62A.91.91,0,0,1,37.66,39.79Z" style="fill:#ecf1f3"/></g></g></svg>