<svg xmlns="http://www.w3.org/2000/svg" viewBox="0 0 72.96 76.7"><g id="Ebene_2" data-name="Ebene 2"><g id="Ebene_1-2" data-name="Ebene 1"><path d="M44,57.85c-7.89-3.34-12.72-9.62-16.15-17.12A7.31,7.31,0,0,1,28,34.9a13.65,13.65,0,0,0,.59-8.76,28.72,28.72,0,0,1-.28-11.08c.28-1.88-.51-2-1.58-2.18-3.29-.5-6.61-.82-9.92-1.27-5.15-.69-10.31-1.42-15.46-2.12C.75,9.41.21,9.37,0,8.54c.61-.95,1.69-.49,2.54-.48,9,0,18,.15,27,.24,1.09,0,2.13.11,2.95-.93,3.3-4.18,8.14-5.6,13-6.7a29.52,29.52,0,0,1,12.69,0c8.47,1.75,14.06,8.22,14.7,17.83a42.18,42.18,0,0,1-7,26.84c-1.86,2.79-4.51,4.66-7.3,6.4-2.09,1.29-2.38,7.93-.5,9.54a1.43,1.43,0,0,0,2,0,19.76,19.76,0,0,1,2.26-1.51c3.49-1.76,6.47-.18,6.84,3.7.27,2.89.28,5.8.51,8.69.15,1.74-.85,2.41-2.23,2.94-5.35,2-10.9,1.62-16.4,1.1a31,31,0,0,1-11-2.85c-1.19-.59-1.79-1.2-1.59-2.68.33-2.51.34-5.07.56-7.6.27-2.89,1.83-4.38,4.88-4.81.93.28,1.87.53,2.78.87.49.17,1,.65,1.09-.31.1-.67-.18-1-.86-1C45.93,57.92,45,57.88,44,57.85ZM34.22,8.31c3,0,5.91.07,8.87,0,2.26-.07,3.12,1,3,3.13s-.59,3.69-3.08,3.47a76.62,76.62,0,0,1-10.72-1.21c-2.57-.59-2.57.9-2.67,2.34a40.91,40.91,0,0,0,.47,10.31,16.12,16.12,0,0,1-.54,8.57A8.73,8.73,0,0,0,29.88,42c3,5.59,6.9,10.43,12.53,13.58a6.25,6.25,0,0,0,6.46,0c2.52-1.44,5.08-2.81,7.53-4.36,4-2.53,7.68-5.3,9.94-9.74a44.61,44.61,0,0,0,4.74-24.95A14.84,14.84,0,0,0,64.35,5C55.78-.67,43.36.91,35.21,6.57A1.75,1.75,0,0,0,34.22,8.31Zm16.4,59.17c.89,2.26,0,3.57-.89,4.82-1.08,1.46-1.3,2.37,1.05,2.39,2.62,0,5.24.31,7.87.33,4.1,0,4.08,0,2.18-3.57a7.86,7.86,0,0,1-.62-2c-.06-.31.23-1,.31-.85,1.7,2.25,1.79-1.22,2.94-.91A2.74,2.74,0,0,1,62.77,70c-1.1,1.79.71,2.61,1.26,3.77s1.71.22,2.6,0c1.58-.31,1.59-1.44,1.49-2.7-.14-1.81-.25-3.62-.29-5.43s0-3.87-1.84-4.77c-1.72-.84-3.27.3-4.71,1.32-2.56,1.79-4.37,1.14-5.4-1.77-.7-2-.41-4.06-.58-6.36A35.86,35.86,0,0,1,52,55.77c-1.94.73-3.19,1.72-3,4.12a3.05,3.05,0,0,1-1.75,3.17c.08-2.37-1.36-3.09-3.24-3.23-2.06-.16-3,1.23-3.24,3a45.14,45.14,0,0,0-.26,4.92c2-.39,2.67-2.36,4.41-3,.24,2-1.29,2.6-2.24,3.56s-2.81,1.47-2.49,2.92,2.28,1.46,3.57,2c.17.07.36.09.51.17,1.91,1,3.13.66,4.18-1.45C49.13,70.63,49.86,69.32,50.62,67.48ZM13.23,9.79c4,.45,8,.88,12,1.36,5.69.67,11.37,1.38,17.06,2,1.21.14,2.08-.14,2.21-1.66.15-1.77-1-1.56-2-1.56C36.29,10,30.13,10,24,9.8,20.4,9.67,16.83,9.3,13.23,9.79Z" style="fill:#2b3450"/><path d="M44,57.85c1,0,2,.07,2.94.07.68,0,1,.3.86,1-.14,1-.6.48-1.09.31-.91-.34-1.85-.59-2.78-.87A.72.72,0,0,1,44,57.85Z" style="fill:#dbdee4"/><path d="M34.22,8.31a1.75,1.75,0,0,1,1-1.74C43.36.91,55.78-.67,64.35,5a14.84,14.84,0,0,1,6.73,11.52,44.61,44.61,0,0,1-4.74,25c-2.26,4.44-6,7.21-9.94,9.74-2.45,1.55-5,2.92-7.53,4.36a6.25,6.25,0,0,1-6.46,0c-5.63-3.15-9.55-8-12.53-13.58a8.73,8.73,0,0,1-.28-7.15,16.12,16.12,0,0,0,.54-8.57A40.91,40.91,0,0,1,29.67,16c.1-1.44.1-2.93,2.67-2.34a76.62,76.62,0,0,0,10.72,1.21c2.49.22,3-1.46,3.08-3.47s-.79-3.2-3-3.13C40.13,8.38,37.18,8.31,34.22,8.31Z" style="fill:#fadfe7"/><path d="M50.62,67.48c-.76,1.84-1.49,3.15-2.13,4.45-1.05,2.11-2.27,2.42-4.18,1.45-.15-.08-.34-.1-.51-.17-1.29-.54-3.24-.53-3.57-2s1.57-2,2.49-2.92,2.48-1.6,2.24-3.56c-1.74.62-2.4,2.59-4.41,3a45.14,45.14,0,0,1,.26-4.92c.28-1.73,1.18-3.12,3.24-3,1.88.14,3.32.86,3.24,3.23A3.05,3.05,0,0,0,49,59.89c-.22-2.4,1-3.39,3-4.12a35.86,35.86,0,0,0,3.29-1.69c.17,2.3-.12,4.37.58,6.36,1,2.91,2.84,3.56,5.4,1.77,1.44-1,3-2.16,4.71-1.32,1.87.9,1.81,2.93,1.84,4.77s.15,3.62.29,5.43c.1,1.26.09,2.39-1.49,2.7-.89.18-2,1.23-2.6,0s-2.36-2-1.26-3.77a2.74,2.74,0,0,0,.69-2.34c-1.15-.31-1.24,3.16-2.94.91-.08-.11-.37.54-.31.85a7.86,7.86,0,0,0,.62,2c1.9,3.55,1.92,3.6-2.18,3.57-2.63,0-5.25-.31-7.87-.33-2.35,0-2.13-.93-1.05-2.39C50.66,71.05,51.51,69.74,50.62,67.48Z" style="fill:#f6dbe4"/><path d="M13.23,9.79c3.6-.49,7.17-.12,10.75,0,6.15.24,12.31.15,18.47.18,1.09,0,2.19-.21,2,1.56-.13,1.52-1,1.8-2.21,1.66-5.69-.67-11.37-1.38-17.06-2C21.23,10.67,17.23,10.24,13.23,9.79Z" style="fill:#d2a5cc"/></g></g></svg>