<svg xmlns="http://www.w3.org/2000/svg" viewBox="0 0 45.67 94.34"><g id="Ebene_2" data-name="Ebene 2"><g id="Ebene_1-2" data-name="Ebene 1"><path d="M16.7,75.18C8.82,71.83,4,65.57.56,58.07a7.16,7.16,0,0,1,.13-5.82c1.32-3.06,1-6.09.51-9.28C.53,38.25-.57,33.09,2.31,29,5,25.14,4,21.64,3.35,17.85,2.49,13,1.64,8.18.86,3.33.78,2.84.11,2,1.1,1.72s1.09.86,1.27,1.35C4.28,8.5,6.22,13.94,7.87,19.46c.55,1.8,1,2.28,2.61,1.19a15.32,15.32,0,0,1,5.81-2.09c1.74-.33,1.76-1.24,1.23-2.62C15.77,11.37,14,6.8,12.43,2.18c-.2-.59-1.32-1.59-.27-2.06s1.35.89,1.72,1.61c2.25,4.34,4.55,8.66,6.6,13.1a3.9,3.9,0,0,0,4.24,2.62c7.18-.14,13.29,2.26,17.73,8.22a17.08,17.08,0,0,1,3.1,9.4,43.65,43.65,0,0,1-6.79,27.4A21.54,21.54,0,0,1,31.55,69c-2.26,1.4-2.72,8-.74,9.69a1.44,1.44,0,0,0,2,0A22.19,22.19,0,0,1,35,77.17c3.48-1.77,6.48-.2,6.85,3.67.28,2.88.3,5.79.52,8.69a2.55,2.55,0,0,1-1.94,2.84,19.12,19.12,0,0,1-7.14,1.48c-.5,0-1.12-.22-1.38.49H27c-2.39-1-5-.68-7.47-1.44-.34-.11-.72-.11-1.07-.19-7.13-1.63-7.36-1.94-6.86-9.06.07-1,0-2,.12-3,.25-3.07,1.75-4.59,4.89-5,.93.29,1.87.54,2.78.87.48.18.95.65,1.09-.3.1-.68-.18-1-.86-1C18.66,75.24,17.68,75.2,16.7,75.18ZM5,27.45a8.17,8.17,0,0,0-.69.77c-3,4.88-2.08,10.16-1.4,15.36a17.78,17.78,0,0,1-.54,8.57,9,9,0,0,0,.45,7.66c3,5.24,6.71,9.91,12.06,13a6.51,6.51,0,0,0,7,0c2.42-1.42,4.93-2.7,7.28-4.24,3-2,6.24-3.8,8.25-7a40.56,40.56,0,0,0,5.94-30.36c-1.7-8.82-12-13.56-20.31-11.93,1.52,3,3,5.91,4.51,8.86a5.3,5.3,0,0,1,.25,4.68c-.47,1.12-1.15,2-2.27,2-1,0-1.38-1.06-1.7-1.9-1.05-2.74-2-5.51-3.07-8.25-2.29-6.08-2.29-6.07-8.36-3.27-3.45,1.61-3.45,1.61-2,5.2,1.15,2.87.68,5.44-1.29,6.94-1.21.92-2.3,1.2-2.78-.7C5.81,31.13,5.42,29.39,5,27.45Zm8.29,57.69c2.06-.66,2.72-2.45,4.41-3.07.31,1.53-.82,2.13-1.55,3-1.06,1.24-3.71,1.74-3.06,3.64.55,1.62,3,1.58,4.67,2.27.24.1.57,0,.8.12,1,.5,1.49.15,2-.87.91-1.67,2.17-3.13,2.79-5.35.95,2.38-.2,3.73-1.18,5.14-.84,1.21-.74,1.94,1,2,2.63.06,5.25.32,7.87.34,4.29,0,4.27,0,2.42-3.76a7.49,7.49,0,0,1-.52-2.07c0-.34.31-.93.53-.63,1.82,2.48,1.46-1.68,2.7-.84.37.9-.24,1.59-.65,2.22-1.16,1.79.67,2.61,1.21,3.77s1.69.29,2.58.11c1.57-.32,1.61-1.43,1.52-2.7-.14-1.81-.24-3.62-.27-5.43s0-3.87-1.82-4.79-3.28.27-4.72,1.29c-2.65,1.87-4.42,1.15-5.47-2-.64-1.92-.3-3.89-.56-6-.85.41-1.56.75-2.29,1.08-2.22,1-4.41,2-4,5.14A2.41,2.41,0,0,1,20,80.35c.28-2.44-1.32-3-3.16-3.2-2-.19-3,1.18-3.26,2.92A44,44,0,0,0,13.26,85.14Zm3.63-75a1.73,1.73,0,0,0,0,1.4c2.49,6.6,4.91,13.22,7.4,19.82.31.82.23,2.41,1.28,2.2S27.1,31.83,27,30.6a6.59,6.59,0,0,0-.61-2.32C23.25,22.24,20.08,16.22,16.89,10.11ZM7.37,33.43C9,32,10.58,30.87,9.9,29.14,7.35,22.75,5.69,16.06,3,9.69,4.44,17.47,5.87,25.24,7.37,33.43Z" style="fill:#2b3450"/><path d="M16.7,75.18c1,0,2,.06,2.94.06.68,0,1,.3.86,1-.14,1-.61.48-1.09.3-.91-.33-1.85-.58-2.78-.87A.7.7,0,0,1,16.7,75.18Z" style="fill:#dbdee4"/><path d="M5,27.45c.45,1.94.84,3.68,1.28,5.41.48,1.9,1.57,1.62,2.78.7,2-1.5,2.44-4.07,1.29-6.94-1.45-3.59-1.45-3.59,2-5.2,6.07-2.8,6.07-2.81,8.36,3.27,1,2.74,2,5.51,3.07,8.25.32.84.73,1.91,1.7,1.9,1.12,0,1.8-.88,2.27-2a5.3,5.3,0,0,0-.25-4.68c-1.47-2.95-3-5.88-4.51-8.86,8.33-1.63,18.61,3.11,20.31,11.93a40.56,40.56,0,0,1-5.94,30.36c-2,3.16-5.23,5-8.25,7-2.35,1.54-4.86,2.82-7.28,4.24a6.51,6.51,0,0,1-7,0c-5.35-3.08-9.06-7.75-12.06-13a9,9,0,0,1-.45-7.66,17.78,17.78,0,0,0,.54-8.57c-.68-5.2-1.63-10.48,1.4-15.36A8.17,8.17,0,0,1,5,27.45Z" style="fill:#fadfe7"/><path d="M13.26,85.14a44,44,0,0,1,.27-5.07c.28-1.74,1.21-3.11,3.26-2.92,1.84.18,3.44.76,3.16,3.2a2.41,2.41,0,0,0,1.71-2.63c-.37-3.19,1.82-4.12,4-5.14.73-.33,1.44-.67,2.29-1.08.26,2.12-.08,4.09.56,6,1.05,3.15,2.82,3.87,5.47,2,1.44-1,3-2.14,4.72-1.29s1.79,2.94,1.82,4.79.13,3.62.27,5.43c.09,1.27.05,2.38-1.52,2.7-.89.18-2,1.15-2.58-.11s-2.37-2-1.21-3.77c.41-.63,1-1.32.65-2.22-1.24-.84-.88,3.32-2.7.84-.22-.3-.58.29-.53.63a7.49,7.49,0,0,0,.52,2.07c1.85,3.76,1.87,3.8-2.42,3.76-2.62,0-5.24-.28-7.87-.34-1.73,0-1.83-.78-1-2,1-1.41,2.13-2.76,1.18-5.14-.62,2.22-1.88,3.68-2.79,5.35-.55,1-1,1.37-2,.87-.23-.11-.56,0-.8-.12-1.63-.69-4.12-.65-4.67-2.27-.65-1.9,2-2.4,3.06-3.64.73-.86,1.86-1.46,1.55-3C16,82.69,15.32,84.48,13.26,85.14Z" style="fill:#f6dbe4"/><path d="M16.89,10.11c3.19,6.11,6.36,12.13,9.47,18.17A6.59,6.59,0,0,1,27,30.6c.13,1.23-.21,2.71-1.36,2.93s-1-1.38-1.28-2.2c-2.49-6.6-4.91-13.22-7.4-19.82A1.73,1.73,0,0,1,16.89,10.11Z" style="fill:#d2a5cc"/><path d="M7.37,33.43C5.87,25.24,4.44,17.47,3,9.69,5.69,16.06,7.35,22.75,9.9,29.14,10.58,30.87,9,32,7.37,33.43Z" style="fill:#d2a5cc"/></g></g></svg>