<svg xmlns="http://www.w3.org/2000/svg" viewBox="0 0 46.12 85.58"><g id="Ebene_2" data-name="Ebene 2"><g id="Ebene_1-2" data-name="Ebene 1"><path d="M46.12,34.66c-1.38,1-.81,2.59-1.14,3.89-1.79,7.05-3.7,14-9.45,19.11a22.91,22.91,0,0,1-2.35,1.84c-3.63,2.42-4.56,5.13-3.12,9.3.58,1.68,1.47,2.53,3.18,1.11a9.43,9.43,0,0,1,1.81-1.19c3.51-1.75,6.48-.17,6.84,3.71.27,2.89.28,5.8.52,8.69.14,1.74-.85,2.41-2.23,2.94-5.36,2-10.91,1.61-16.41,1.1a30.88,30.88,0,0,1-11-2.86c-1.18-.59-1.78-1.19-1.59-2.67.34-2.52.34-5.07.57-7.6.26-2.89,1.83-4.39,4.88-4.81.93.28,1.87.53,2.78.86.48.18.95.66,1.09-.3.1-.68-.18-1-.86-1-1,0-2,0-2.94-.07C8.84,63.39,4,57.12.57,49.63a6.88,6.88,0,0,1,0-5.57c1.41-3.25,1-6.41.54-9.8C.54,29.39-.23,24.31,2.6,19.69c0-.07,0-.2.1-.25,4-3,2.61-7.18,2.46-11.11a30.64,30.64,0,0,1,.12-5.42C5.44,1.76,5.65,0,7.11,0c1.11,0,1.61,1.5,2,2.65A41.56,41.56,0,0,0,10.43,7c1.79,4.29,1.86,4.09,6.4,3,9.58-2.32,19.41-1,25.39,7a16,16,0,0,1,3.18,8c.09.75-.28,1.69.72,2.14ZM13.54,12.47a22.73,22.73,0,0,0,2.8,2.41C20.42,17.31,20.78,21,20,25.14c-.65,3.44-2.87,4.31-5.67,2.11A27.81,27.81,0,0,1,6.47,17.12c-2.29,2.46-3.89,5.06-4.11,8.25a38.47,38.47,0,0,0,.51,9.76,16,16,0,0,1-.51,8.56A8.87,8.87,0,0,0,2.7,51.1c3,5.46,6.83,10.26,12.38,13.37a6.35,6.35,0,0,0,6.47,0,117.93,117.93,0,0,0,11.12-6.79,19.79,19.79,0,0,0,6.25-7A44.12,44.12,0,0,0,43.85,25.5c-.38-4.26-2-8.16-5.59-10.75C30.72,9.26,22.55,9.32,13.54,12.47ZM20,72c.1-2.57-1.46-3.26-3.46-3.32s-2.85,1.46-3.08,3.15a33.54,33.54,0,0,0-.05,4.71c1.9-.43,2.54-2.39,4.27-2.91.19,1.71-1,2.26-1.76,3.11-1,1.15-3.43,1.68-2.92,3.47.44,1.51,2.69,1.5,4.17,2.09.33.13.71.13,1,.28,1.22.54,1.82.21,2.5-1a46.5,46.5,0,0,0,2.66-5.06c.94,2.28-.21,3.61-1.18,5-.78,1.14-.87,1.88.93,2a66.56,66.56,0,0,0,9.78.29c.75,0,1.79.27,2.16-.67.29-.74-.42-1.3-.86-1.88-.87-1.16-1.68-2.34-1.13-3.76.84-.59.67,1.53,1.71.38.42-.47.36-1.46,1.35-1.39.43.93-.2,1.62-.6,2.25-1.24,1.91.74,2.77,1.33,4,.47,1,1.57.11,2.4-.07C40.84,82.4,41,81.34,40.85,80q-.23-2.85-.27-5.7c0-1.77-.06-3.68-1.79-4.54s-3.28.23-4.72,1.25c-2.68,1.88-4.44,1.19-5.49-1.93-.65-1.93-.32-3.92-.54-5.88-4.86,1.77-5.11,2-6.44,6.52A3.32,3.32,0,0,1,20,72ZM7.24.88a6.49,6.49,0,0,0-.92,2.2c-.87,9.43,1.73,17.44,9.25,23.63,1.36,1.12,2,.39,2.58-.43,1.66-2.21.7-8-1.54-9.7a25.45,25.45,0,0,1-4.42-4.38C9.55,9,8.47,5.15,7.24.88Z" style="fill:#2b3450"/><path d="M16.72,66.74c1,0,2,.06,2.94.07.68,0,1,.29.86,1-.14,1-.61.48-1.09.3-.91-.33-1.85-.58-2.78-.86A.72.72,0,0,1,16.72,66.74Z" style="fill:#dbdee4"/><path d="M13.54,12.47c9-3.15,17.18-3.21,24.72,2.28,3.56,2.59,5.21,6.49,5.59,10.75a44.12,44.12,0,0,1-4.93,25.17,19.79,19.79,0,0,1-6.25,7,117.93,117.93,0,0,1-11.12,6.79,6.35,6.35,0,0,1-6.47,0C9.53,61.36,5.7,56.56,2.7,51.1a8.87,8.87,0,0,1-.34-7.41,16,16,0,0,0,.51-8.56,38.47,38.47,0,0,1-.51-9.76c.22-3.19,1.82-5.79,4.11-8.25a27.81,27.81,0,0,0,7.85,10.13c2.8,2.2,5,1.33,5.67-2.11.79-4.17.43-7.83-3.65-10.26A22.73,22.73,0,0,1,13.54,12.47Z" style="fill:#fadfe7"/><path d="M20,72a3.32,3.32,0,0,0,1.56-2.27c1.33-4.5,1.58-4.75,6.44-6.52.22,2-.11,3.95.54,5.88,1.05,3.12,2.81,3.81,5.49,1.93,1.44-1,3-2.11,4.72-1.25s1.76,2.77,1.79,4.54.12,3.8.27,5.7c.1,1.3,0,2.36-1.56,2.68-.83.18-1.93,1.06-2.4.07-.59-1.23-2.57-2.09-1.33-4,.4-.63,1-1.32.6-2.25-1-.07-.93.92-1.35,1.39-1,1.15-.87-1-1.71-.38-.55,1.42.26,2.6,1.13,3.76.44.58,1.15,1.14.86,1.88-.37.94-1.41.63-2.16.67a66.56,66.56,0,0,1-9.78-.29c-1.8-.15-1.71-.89-.93-2,1-1.4,2.12-2.73,1.18-5a46.5,46.5,0,0,1-2.66,5.06c-.68,1.23-1.28,1.56-2.5,1-.32-.15-.7-.15-1-.28-1.48-.59-3.73-.58-4.17-2.09-.51-1.79,1.88-2.32,2.92-3.47.76-.85,1.95-1.4,1.76-3.11-1.73.52-2.37,2.48-4.27,2.91a33.54,33.54,0,0,1,.05-4.71c.23-1.69,1-3.21,3.08-3.15S20.14,69.46,20,72Z" style="fill:#f6dbe4"/><path d="M7.24.88C8.47,5.15,9.55,9,12.19,12.2a25.45,25.45,0,0,0,4.42,4.38c2.24,1.66,3.2,7.49,1.54,9.7-.62.82-1.22,1.55-2.58.43C8.05,20.52,5.45,12.51,6.32,3.08A6.49,6.49,0,0,1,7.24.88Z" style="fill:#d2a5cc"/></g></g></svg>