<svg xmlns="http://www.w3.org/2000/svg" viewBox="0 0 69.5 202.22"><g id="Ebene_2" data-name="Ebene 2"><g id="Ebene_1-2" data-name="Ebene 1"><path d="M53.67,18.56a33,33,0,0,1,3.72,21.15c-2.08,14.77-7.33,28.72-10.61,43.18-1.41,6.22-2.74,12.32-2,18.77.83,7-.37,13.93-.94,20.87a22,22,0,0,0,1.41,9c3.11,9.26,8.15,17.55,12.95,26A153.8,153.8,0,0,1,67.4,176.9c3.22,8.06,2.14,16.2.74,24.37a1,1,0,0,1-1.23.94c-.6-9.14-6.36-14.45-13.86-18.55-4.13-2.26-8.27-4.52-11.74-7.81S35.82,168.5,35,163a35.44,35.44,0,0,1-8.74,13.73,148.44,148.44,0,0,1-12,10.25c-4.77,3.83-8.38,8.49-9.56,14.76-1.57-.29-1.77-1.56-2.2-2.56-3.85-9-2.7-17.83.17-27,3.49-11.13,10.07-20.35,16.43-29.82,3.37-5,6.48-10.26,8.1-16.21a8,8,0,0,0,0-4.79,46.71,46.71,0,0,1-1.78-21.74,40.48,40.48,0,0,0-2.51-21.34A113,113,0,0,1,16,51.79a12.38,12.38,0,0,0-1.74-5.39C9,38.78,10,31,13.54,23.15A50.48,50.48,0,0,1,25.25,7.08c.48.12,1.19.12.56.9-.43.53-1,1-1.06,1.73a75.82,75.82,0,0,0-8.4,11.93c-1.11,2-.7,2.93,1.42,3.45a22.44,22.44,0,0,1,7.47,3c.51.35.82.1,1.14-.26l1.2,0c2.47-.41,4.75-1.5,7.3-1.76C39.94,25.5,45.09,25.54,50,24c3.85-1.22,4.06-1.69,2.13-5.12-.44-.79-.84-1.59-1.26-2.38a1.46,1.46,0,0,1,.66-1.28h0a1.43,1.43,0,0,0,1.08,1.68l0,0,.42.63,0,.07A1,1,0,0,0,53.67,18.56ZM28.6,150.65c-.2,3.41,3.84,6.54,7.12,5.52s4.65-3.44,3.6-7.33a37.13,37.13,0,0,1,.43-21.45,60.62,60.62,0,0,0,2.91-23.57c-.58-7.1-.39-14.12,1.78-21,.9-2.84,1.71-5.72,2.38-8.62,2.69-11.81,7-23.21,8.69-35.27.68-4.77,1.17-9.45-.7-14.06-.32-.8-.15-2-1.65-1.05-3.5,2.13-7.47,2.46-11.44,2.83-4.13.39-8.44.14-12.23,2.1-2.36,1.22-4.24,2-6.38-.32-.71-.79-2.09-1-3.2-1.4-5.61-1.91-5.49-1.87-6.94,4-1.11,4.49-.87,8.74,2,12.37a15.64,15.64,0,0,1,3.44,8.13,112.33,112.33,0,0,0,6.9,26.73,41.5,41.5,0,0,1,2.49,19.24c-.53,5.67-1.54,11.39-.17,17.07.93,3.86,2.22,7.64,3.19,11.5,1.73,6.91,2.22,13.78-1.25,20.4A7.63,7.63,0,0,0,28.6,150.65ZM3.52,198.08c2.85-7.36,7.91-12.13,13.64-16.42A56,56,0,0,0,28.92,170a30.53,30.53,0,0,0,4.45-9.25c.3-1,.69-2.37-1.15-2.72-2-.4-1.32,1.31-1.54,2.1-.43,1.57-.17,3.33-1.44,4.77,0-4,2.14-8.51-2.81-11.23a120.12,120.12,0,0,0-8.81,19.87,1.5,1.5,0,0,1-.38-1.89,74.62,74.62,0,0,1,8.4-19.06,4,4,0,0,0,1-2.45c-.15-2,.58-3.71,1.21-5.52.48-1.4,1.53-2.68,1.18-4.89a103.48,103.48,0,0,1-6.17,10.65c-4.14,5.82-8.69,11.41-11,18.34-.8,2.44-1.63,4.87-2.49,7.41A1.7,1.7,0,0,1,9,174.22a46.1,46.1,0,0,1,7.61-17.53c4.32-5.81,8.73-11.55,11.51-18.34,1.94-4.74,2-5.24.53-10.88-2.74,8.09-7,15-11.77,21.59A89.12,89.12,0,0,0,3.26,175.77C1,183.11.41,190.23,3.52,198.08Zm36.9-61.26c-.46,4.49-.32,9,1.75,13a60.73,60.73,0,0,1,4.23,9.66,35.14,35.14,0,0,1,2,10.83c-2.22-5.9-3.6-12.06-6.29-17.62-2.57,2.5-2.21,5.64-1.3,9-1.21-.36-1.05-1-1.33-1.45-.63-.88.25-3.12-2.26-2.33-2.19.68-1.36,2.11-1.14,3.48,1.34,8.31,6,14,13.37,18,6.95,3.76,14.16,7.33,17.52,15.11,1.21-.51,1.17-1.38,1.22-2.2a30.89,30.89,0,0,0-.77-8.89c-1.81-8-5.68-15-9.51-22.12-4.18-7.72-9.16-15-12.51-23.18-1.18-2.89-2.17-5.85-3.33-9-1.38,1.64-1.1,3.29-.64,4.78A85.8,85.8,0,0,0,49.74,153c2.45,4,5.52,7.65,8,11.67a25.56,25.56,0,0,1,3.65,13.09c-1.13-.41-.89-1.05-1-1.53a28.83,28.83,0,0,0-6-13.47,76.73,76.73,0,0,1-7.94-12A85.6,85.6,0,0,1,40.42,136.82Z" style="fill:#252d4a"/><path d="M51.56,15.2a1.46,1.46,0,0,0-.66,1.28A66.64,66.64,0,0,0,35.61,1.79a1,1,0,0,1,1.06-.65A39.72,39.72,0,0,1,51.56,15.2Z" style="fill:#353f5e"/><path d="M24.75,9.71c0-.77.63-1.2,1.06-1.73.63-.78-.08-.78-.56-.9a32,32,0,0,1,6.08-4.87c.42,0,.86,0,1.07.53Z" style="fill:#353f5e"/><path d="M32.4,2.74c-.21-.48-.65-.48-1.07-.53,1.69-.8,2.94-3.83,5.34-1.07a1,1,0,0,0-1.06.65C34.23,1.07,33.48,2.45,32.4,2.74Z" style="fill:#515b77"/><path d="M52.64,16.89a1.43,1.43,0,0,1-1.08-1.68A2.19,2.19,0,0,1,52.64,16.89Z" style="fill:#353f5e"/><path d="M53.67,18.56a1,1,0,0,1-.59-1Z" style="fill:#353f5e"/><path d="M53,17.49l-.42-.63Z" style="fill:#353f5e"/><path d="M28.61,150.65a7.54,7.54,0,0,1,1-4.17c3.47-6.62,3-13.49,1.25-20.4-1-3.86-2.26-7.64-3.19-11.5-1.37-5.68-.36-11.4.17-17.07a41.5,41.5,0,0,0-2.49-19.24,112.33,112.33,0,0,1-6.9-26.73A15.64,15.64,0,0,0,15,43.41c-2.9-3.63-3.14-7.88-2-12.37,1.45-5.87,1.33-5.91,6.94-4,1.11.38,2.49.61,3.2,1.4,2.14,2.37,4,1.54,6.38.32,3.79-2,8.1-1.71,12.23-2.1,4-.37,7.94-.7,11.44-2.83,1.5-.91,1.33.25,1.65,1.05,1.87,4.61,1.38,9.29.7,14.06-1.7,12.06-6,23.46-8.69,35.27-.67,2.9-1.48,5.78-2.38,8.62-2.17,6.87-2.36,13.89-1.78,21a60.62,60.62,0,0,1-2.91,23.57,37.13,37.13,0,0,0-.43,21.45c1,3.89-.33,6.32-3.6,7.33S28.4,154.06,28.61,150.65ZM24.12,47.38l.05.47a3.47,3.47,0,0,0,1.33,0c2.36-1.1,4.41-.59,6.61.68,2,1.18,3.15.87,6.39-.63-10.06-.55-13.5-6.5-13.62-15.37a13,13,0,0,0,2.86,13Z" style="fill:#d4a7cd"/><path d="M3.52,198.08c-3.11-7.85-2.5-15-.26-22.31a89.12,89.12,0,0,1,13.57-26.71c4.79-6.58,9-13.5,11.77-21.59,1.5,5.64,1.41,6.14-.53,10.88-2.78,6.79-7.19,12.53-11.51,18.34A46.1,46.1,0,0,0,9,174.22a1.7,1.7,0,0,0,.42,1.92c.86-2.54,1.69-5,2.49-7.41,2.29-6.93,6.84-12.52,11-18.34A103.48,103.48,0,0,0,29,139.74c.35,2.21-.7,3.49-1.18,4.89-.63,1.81-1.36,3.56-1.21,5.52a4,4,0,0,1-1,2.45,74.62,74.62,0,0,0-8.4,19.06,1.5,1.5,0,0,0,.38,1.89,120.12,120.12,0,0,1,8.81-19.87c4.95,2.72,2.79,7.22,2.81,11.23,1.27-1.44,1-3.2,1.44-4.77.22-.79-.51-2.5,1.54-2.1,1.84.35,1.45,1.7,1.15,2.72A30.53,30.53,0,0,1,28.92,170a56,56,0,0,1-11.76,11.65C11.43,186,6.37,190.72,3.52,198.08Z" style="fill:#f6dbe4"/><path d="M40.42,136.82a85.6,85.6,0,0,0,6,13.92,76.73,76.73,0,0,0,7.94,12,28.83,28.83,0,0,1,6,13.47c.09.48-.15,1.12,1,1.53a25.56,25.56,0,0,0-3.65-13.09c-2.46-4-5.53-7.63-8-11.67a85.8,85.8,0,0,1-8.34-19.1c-.46-1.49-.74-3.14.64-4.78,1.16,3.14,2.15,6.1,3.33,9,3.35,8.17,8.33,15.46,12.51,23.18,3.83,7.07,7.7,14.16,9.51,22.12a30.89,30.89,0,0,1,.77,8.89c0,.82,0,1.69-1.22,2.2-3.36-7.78-10.57-11.35-17.52-15.11-7.33-4-12-9.69-13.37-18-.22-1.37-1-2.8,1.14-3.48,2.51-.79,1.63,1.45,2.26,2.33.28.4.12,1.09,1.33,1.45-.91-3.38-1.27-6.52,1.3-9,2.69,5.56,4.07,11.72,6.29,17.62a35.14,35.14,0,0,0-2-10.83,60.73,60.73,0,0,0-4.23-9.66C40.1,145.8,40,141.31,40.42,136.82Z" style="fill:#f6dbe4"/><path d="M32.4,2.74c1.08-.29,1.83-1.67,3.21-1A66.64,66.64,0,0,1,50.9,16.48c.42.79.82,1.59,1.26,2.38,1.93,3.43,1.72,3.9-2.13,5.12C45.09,25.54,39.94,25.5,34.88,26c-2.55.26-4.83,1.35-7.3,1.76.27-2.42,2-4.82.19-7.28a23.91,23.91,0,0,1-1.39,7.31c-.32.36-.63.61-1.14.26a22.44,22.44,0,0,0-7.47-3c-2.12-.52-2.53-1.44-1.42-3.45a75.82,75.82,0,0,1,8.4-11.93Z" style="fill:#f6dbe4"/><path d="M26.38,27.82a23.91,23.91,0,0,0,1.39-7.31c1.77,2.46.08,4.86-.19,7.28Z" style="fill:#353f5e"/><path d="M24.12,47.38l3.62-1.89a13,13,0,0,1-2.86-13C25,41.38,28.44,47.33,38.5,47.88c-3.24,1.5-4.35,1.81-6.39.63-2.2-1.27-4.25-1.78-6.61-.68a3.47,3.47,0,0,1-1.33,0Z" style="fill:#252d4a"/></g></g></svg>