<svg xmlns="http://www.w3.org/2000/svg" viewBox="0 0 65.84 188.97">
    <g>
        <path d="M9.15,189c-8.54-3.32-10.86-12.52-8-21.51,2-6.09,5.64-11.23,9.15-16.41,4.85-7.14,8.56-14.66,10.05-23.23a81.11,81.11,0,0,0,.76-13.47c-.27,0-.51-.14-.61-.07-2.16,1.65-4.38,2.51-6.88.64-2.1-1.57-2.65-4.06-2-7.29.72-3.47,3-5.94,5.17-8.4C21.55,94,21.32,88,20.13,81.52A40.33,40.33,0,0,1,16.3,84.1c-3.45,1.8-6.94-.38-7.19-4.29-.31-4.89,2.06-8.62,4.94-12.18.5-.61,1.19-1,.81-2.09-2.61-7.2-2.7-15.1-6-22.1-1.76-3.68-3.55-7.24-3-11.57.91-7.24,4.15-13.39,8.43-19.11a41.12,41.12,0,0,1,7.91-8.12c.43.08.91.08,1.14.56a38.13,38.13,0,0,0-6.46,6.86c-1,1.44-3.56,2.48-2.28,4.61,1,1.75,3.38,2.12,5.34,2.69.25.07.56-.05.81,0,2.59.78,3.87-.09,3.72-2.87a1.69,1.69,0,0,1,.38-.12c1.05,1-.26,2.7.78,3.34s2.59-.35,3.95-.39a22.76,22.76,0,0,0,13.58-4.86c.65-1.5,1.36-.22,2,0v0c.2,1-.82.73-1.15,1.16a25.59,25.59,0,0,1-8.4,4c-7.22,2-14.52,4.05-21.29-1.34-1.18-.94-1.48-.12-2,.71A38.72,38.72,0,0,0,8,29.83,14.48,14.48,0,0,0,9.47,41.55c2.28,3.69,3.31,7.67,4.13,11.85.72,3.74,1.11,7.62,2.88,11.35,3.81-4,7.67-7.66,7.71-13.59,1.61,2.24-.3,4.22-.34,6.31a58.75,58.75,0,0,1-7.63,9.66,22.11,22.11,0,0,0-5.8,10.13c-.47,2.12-.36,4.29,1.6,5.61s3.7.31,5.3-1c3.49-2.91,5.34-6.78,6.56-11,.75-2.63.34-5.48,1.56-8A23,23,0,0,1,21.82,78.7c-.38.57-.89,1.19-.57,2,1.57,3.75,1.16,7.68.85,12.06a13.65,13.65,0,0,0,4.62-11.35c.55.31.78.37.81.48a8.68,8.68,0,0,1,.16,1c.52,3.15-1.13,5.7-2.29,8.39-3.59,3.89-7,8-10.24,12.13a11.18,11.18,0,0,0-2.41,5.85c-.23,2.27.43,4.11,2.45,5.19,1.8,1,3.24,0,4.55-1.26,4.46-4.14,5.84-9.65,6.84-15.34,1.64.12,1.22,1.37,1,2.2a35.41,35.41,0,0,1-3.45,9.55,5.85,5.85,0,0,0-.38,5.32c1.72,5.41,2.34,11,2.88,16.65s-1,11.28-.13,17a53.35,53.35,0,0,0,2.74,10.76,31.24,31.24,0,0,0,0-3.14,63.85,63.85,0,0,1,2.47-28c2.84-8.86,5.15-17.77,4.68-27.19-.43-8.66.27-17.14,3.2-25.43,2.28-6.45,4-13.09,6-19.64.27-.21.61-.65.79-.59.63.21.15.65.07,1s-.18.83-.28,1.24c-.88,3.73-1.62,7.5-2.67,11.18C42,74.24,40,79.61,39,85.23a39.81,39.81,0,0,0-.79,11.06c.58,6.19-.25,12.3-.94,18.43-.59,5.28,1.44,10.06,3.33,14.79,3.71,9.32,10.46,16.56,16.86,24,4.79,5.58,8.7,11.59,8.4,19.3C65.42,183,59.46,186.44,50,185.94c-6.21-.32-9.77-4.48-13.05-9a51.75,51.75,0,0,1-4.87-9c-2,9.89-5.86,17.84-15.84,21.08ZM36,120.8c-2,3.65-.49,7.43-.51,11.09A27.6,27.6,0,0,0,38,142.8c1.41,3.29,2.85,6.57,4.28,9.86-3.14-3.62-4.94-7.88-6.45-12.27A42.28,42.28,0,0,1,34,126.61c-5.86,14.69,0,27.06,7.68,39.15a37.9,37.9,0,0,1-7.61-11.5,42.66,42.66,0,0,1-3.5-13.32c.23,7.53-.61,14.95,1.75,22.5a42.57,42.57,0,0,0,10.5,18.08c5,5,18.06,4,20.39-3.4a19.41,19.41,0,0,0-.33-12.94c-2.22-6-6.64-10.49-10.71-15.19C44.74,141.4,38.41,132.23,36,120.8Zm-11.27,13c-.82,2.33-1.57,4.68-2.5,7s-2.06,4.75-3.19,7.08-2.2,4.51-3.49,6.65-1.71,4.61-3.87,6c1.93-4.18,4.18-8.16,6.17-12.27A120.86,120.86,0,0,0,23,135.58a25.31,25.31,0,0,0,0-16.53c-.59,6.47-1.4,12.89-3.64,19-2.6,7.09-7.14,13.08-11.16,19.35-3,4.64-5.79,9.38-6.44,14.94-1,9,3.77,17.94,15.91,14.36,8-2.36,13.68-14.17,13.46-21.66a1.1,1.1,0,0,0-.38-.6c-2.32-2.3-3.18-5.33-4.14-8.31a4.09,4.09,0,0,0-1.54-2.43c-.41,8.22-4.29,18.85-8.36,22.67,1.74-3.79,3.46-7.27,5-10.85C25.93,155.3,23.53,144.38,24.68,133.79Z"
              style="fill:#252d4a"/>
        <path d="M46.22,57.57c.1-.41.2-.82.28-1.24s.56-.79-.07-1c-.18-.06-.52.38-.79.59.85-5.45,2.5-10.72,3.58-16.13A30,30,0,0,0,44,15.59c.33-.43,1.35-.2,1.15-1.16a30.4,30.4,0,0,1,6.09,21.41A106.09,106.09,0,0,1,47.86,54C47.52,55.24,47.33,56.62,46.22,57.57Z"
              style="fill:#353f5e"/>
        <path d="M45.18,14.45c-.69-.18-1.4-1.46-2,0-.16-1.06-1-1.69-1.63-2.43A72,72,0,0,0,31.43,2.62l.86-.84A39.8,39.8,0,0,1,45.18,14.45Z"
              style="fill:#353f5e"/>
        <path d="M32.29,1.78l-.86.84c-2.64-1.52-3.7-1.54-5.55-.11a.47.47,0,0,1-.4,0C29.08-.7,29.08-.7,32.29,1.78Z"
              style="fill:#515b77"/>
        <path d="M25.48,2.47a.47.47,0,0,0,.4,0c0,1.74-1.53,2-2.57,2.69-.23-.48-.71-.48-1.14-.56C23.17,3.76,24.06,2.71,25.48,2.47Z"
              style="fill:#353f5e"/>
        <path d="M44,15.59a30,30,0,0,1,5.2,24.2c-1.08,5.41-2.73,10.68-3.58,16.13-2,6.55-3.76,13.19-6,19.64C36.67,83.85,36,92.33,36.4,101c.47,9.42-1.84,18.33-4.68,27.19a63.85,63.85,0,0,0-2.47,28,31.24,31.24,0,0,1,0,3.14,53.35,53.35,0,0,1-2.74-10.76c-.88-5.7.67-11.31.13-17s-1.16-11.24-2.88-16.65a5.85,5.85,0,0,1,.38-5.32,35.41,35.41,0,0,0,3.45-9.55c.21-.83.63-2.08-1-2.2l0,.06c1-2.61-.68-5.47,1.33-8-1.53,0-1.07,1.26-1.81,1.48l-.73-.07c1.16-2.69,2.81-5.24,2.29-8.39a8.68,8.68,0,0,0-.16-1c0-.11-.26-.17-.81-.48A13.65,13.65,0,0,1,22.1,92.74c.31-4.38.72-8.31-.85-12.06-.32-.79.19-1.41.57-2a23,23,0,0,0,3.62-15.91c0-.85.3-1.75-.37-2.5.35-1.17.8-2.34.15-3.56l-.81,1.36-.56-.62c0-2.09,1.95-4.07.34-6.31,0,5.93-3.9,9.59-7.71,13.59C14.71,61,14.32,57.14,13.6,53.4c-.82-4.18-1.85-8.16-4.13-11.85A14.48,14.48,0,0,1,8,29.83,38.72,38.72,0,0,1,12.34,19c.51-.83.81-1.65,2-.71,6.77,5.39,14.07,3.37,21.29,1.34A25.59,25.59,0,0,0,44,15.59ZM31.48,46.14c-4.61-1.36-8.62-3.34-10.28-8.42-1.6-4.9.32-9.1,2.37-13.34-5.35,6.15-6,11.14-2.33,17.6.88,1.55.07,1.76-1,1.83-2.2.14-4.46.44-6.5-.91a5.28,5.28,0,0,0,5.68,2.62,14.56,14.56,0,0,1,9.37,1.12c2,.63,4,1.48,6.47.2Z"
              style="fill:#d4a7cd"/>
        <path d="M36,120.8c2.46,11.43,8.79,20.6,16.23,29.19,4.07,4.7,8.49,9.17,10.71,15.19a19.41,19.41,0,0,1,.33,12.94c-2.33,7.45-15.42,8.39-20.39,3.4a42.57,42.57,0,0,1-10.5-18.08c-2.36-7.55-1.52-15-1.75-22.5a42.66,42.66,0,0,0,3.5,13.32,37.9,37.9,0,0,0,7.61,11.5C34.05,153.67,28.15,141.3,34,126.61a42.28,42.28,0,0,0,1.85,13.78c1.51,4.39,3.31,8.65,6.45,12.27-1.43-3.29-2.87-6.57-4.28-9.86a27.6,27.6,0,0,1-2.59-10.91C35.46,128.23,34,124.45,36,120.8Zm7.63,46.84c-.28-1-.53-1.6-1.46-1.43A1.9,1.9,0,0,0,43.58,167.64Z"
              style="fill:#f6dbe4"/>
        <path d="M24.68,133.79c-1.15,10.59,1.25,21.51-3,31.75-1.5,3.58-3.22,7.06-5,10.85,4.07-3.82,8-14.45,8.36-22.67a4.09,4.09,0,0,1,1.54,2.43c1,3,1.82,6,4.14,8.31a1.1,1.1,0,0,1,.38.6c.22,7.49-5.49,19.3-13.46,21.66C5.52,190.3.7,181.36,1.75,172.36c.65-5.56,3.47-10.3,6.44-14.94,4-6.27,8.56-12.26,11.16-19.35,2.24-6.13,3-12.55,3.64-19a25.31,25.31,0,0,1,0,16.53,120.86,120.86,0,0,1-5.16,12.64c-2,4.11-4.24,8.09-6.17,12.27,2.16-1.4,2.65-4,3.87-6s2.39-4.39,3.49-6.65,2.22-4.68,3.19-7.08S23.86,136.12,24.68,133.79Z"
              style="fill:#f6dbe4"/>
        <path d="M23.31,5.2c1-.72,2.59-1,2.57-2.69,1.85-1.43,2.91-1.41,5.55.11A72,72,0,0,1,41.5,12.06c.62.74,1.47,1.37,1.63,2.43a22.76,22.76,0,0,1-13.58,4.86c-1.36,0-2.76,1.11-3.95.39s.27-2.37-.78-3.34a1.69,1.69,0,0,0-.38.12c.15,2.78-1.13,3.65-3.72,2.87-.25-.08-.56,0-.81,0-2-.57-4.3-.94-5.34-2.69-1.28-2.13,1.32-3.17,2.28-4.61A38.13,38.13,0,0,1,23.31,5.2Z"
              style="fill:#f6dbe4"/>
        <path d="M25.07,60.29c.67.75.34,1.65.37,2.5-1.22,2.53-.81,5.38-1.56,8-1.22,4.27-3.07,8.14-6.56,11-1.6,1.33-3.38,2.33-5.3,1s-2.07-3.49-1.6-5.61a22.11,22.11,0,0,1,5.8-10.13,58.75,58.75,0,0,0,7.63-9.66c.19.2.37.41.56.62-.63,3.17-3.1,5.34-4.42,8.14a2.11,2.11,0,0,0-1.17,2.33c1-.32,1.18-1.15,1.57-1.82.42-.2.54-.92,1.36-.69-1,2.34-2.47,4.46-2.55,7.06C21.17,68.83,24,64.94,25.07,60.29Zm-6.26,7.65a12.38,12.38,0,0,0-3.31,4.59C17.14,71.18,18.3,70.18,18.81,67.94Z"
              style="fill:#f6dbe4"/>
        <path d="M25.4,91.3l.73.07c-.66,2.58-2.31,4.71-3.72,7.55,2.19-.74,2.33-2.65,3.86-3.79-1.08,4.38-3.41,7.74-5.57,11.18l-.47.74a.61.61,0,0,0,1-.35c2.43-2.54,3.73-5.77,5.41-8.77l0-.06c-1,5.69-2.38,11.2-6.84,15.34-1.31,1.21-2.75,2.22-4.55,1.26-2-1.08-2.68-2.92-2.45-5.19a11.18,11.18,0,0,1,2.41-5.85C18.42,99.26,21.81,95.19,25.4,91.3Zm-2.29,7.17a7.79,7.79,0,0,0-3.31,3.11A4.25,4.25,0,0,0,23.11,98.47Z"
              style="fill:#f6dbe4"/>
        <path d="M28.78,46.64a14.56,14.56,0,0,0-9.37-1.12,5.28,5.28,0,0,1-5.68-2.62c2,1.35,4.3,1.05,6.5.91,1.08-.07,1.89-.28,1-1.83-3.68-6.46-3-11.45,2.33-17.6-2.05,4.24-4,8.44-2.37,13.34,1.66,5.08,5.67,7.06,10.28,8.42C30.71,47,29.67,46.42,28.78,46.64Z"
              style="fill:#252d4a"/>
        <path d="M20,66.23c1.32-2.8,3.79-5,4.42-8.14.25-.43.51-.86.81-1.36.65,1.22.2,2.39-.15,3.56-1.12,4.65-3.9,8.54-5.87,12.82.08-2.6,1.59-4.72,2.55-7.06-.82-.23-.94.49-1.36.69Z"
              style="fill:#252d4a"/>
        <path d="M20.7,106.31c2.16-3.44,4.49-6.8,5.57-11.18-1.53,1.14-1.67,3.05-3.86,3.79,1.41-2.84,3.06-5,3.72-7.55.74-.22.28-1.47,1.81-1.48-2,2.57-.36,5.43-1.33,8-1.68,3-3,6.23-5.41,8.77Z"
              style="fill:#252d4a"/>
        <path d="M28.78,46.64c.89-.22,1.93.39,2.7-.5l3.77.7C32.75,48.12,30.77,47.27,28.78,46.64Z"
              style="fill:#353f5e"/>
        <path d="M43.58,167.64a1.9,1.9,0,0,1-1.46-1.43C43.05,166,43.3,166.61,43.58,167.64Z" style="fill:#252d4a"/>
        <path d="M18.81,67.94c-.51,2.24-1.67,3.24-3.31,4.59A12.38,12.38,0,0,1,18.81,67.94Z" style="fill:#252d4a"/>
        <path d="M20.39,66.74c-.39.67-.58,1.5-1.57,1.82A2.11,2.11,0,0,1,20,66.23Z" style="fill:#252d4a"/>
        <path d="M23.11,98.47a4.25,4.25,0,0,1-3.31,3.11A7.79,7.79,0,0,1,23.11,98.47Z" style="fill:#252d4a"/>
        <path d="M21.2,106.7a.61.61,0,0,1-1,.35l.47-.74Z" style="fill:#252d4a"/>
    </g>
</svg>