<svg xmlns="http://www.w3.org/2000/svg" viewBox="0 0 72.54 196.37"><g id="Ebene_2" data-name="Ebene 2"><g id="Ebene_1-2" data-name="Ebene 1"><path d="M45.27,127.05c-1.2,4.65-2.6,9.25-3.54,14-1,4.89,2.54,8.05,5.21,11.35,4.32,5.34,10.21,8.89,15.54,13.07,8.63,6.76,12,17.89,9,27.36-1,3.26-1,3.25-3.92,1.75-1-.54-2.09-.17-3.16-.09-3.18.25-6.48,1.22-9.3-1.34a5.89,5.89,0,0,1-2.06-5.84c1.24-6-.7-8.39-7.24-8.39-3.87,0-7.35-.7-9.59-4.65-1.66,4.53-5.29,5.18-9.18,5.16a15.25,15.25,0,0,0-7.11,2.06c-1.82.93-1.52,2.55-1,4.24,1.41,4.76.12,8.24-3.74,9.34A15.37,15.37,0,0,1,7.92,195c-1.37-.28-2.66-.39-3.78.79s-1.84.57-2.48-.63a14.21,14.21,0,0,1-1.57-5.67C-.6,180,2.54,172.06,10,166c4.63-3.76,9.73-6.89,13.9-11.25a43.54,43.54,0,0,0,7.33-10.3c1.86-3.58.76-7.44.67-11.19-.05-1.89-1-3.65-.87-5.59.24-.73-.25-1.65.59-2.22,3.11,10,3.71,19.75-.44,29.78-2.52,6.08-1.46,10.81,3.1,15.17,1.71,1.64,3,1.46,4.55-.12,4.66-4.82,6.27-10.47,3.67-16.7A26.37,26.37,0,0,1,42.08,133c1.13-2.92,1.54-6.13,2.28-9.2,1.52-.35.45-2,1.48-3v2.54l-.08,1C44.93,125.11,45.25,126.1,45.27,127.05ZM50,169.1c4.79,5.16,7.82,10.74,4.7,18a3.88,3.88,0,0,0,.47,3.63c1.64,2.64,4.18,3.51,8.07,2.59,2.1-.49,4.19-.77,6.2.85.4-1.38.75-2.56,1.07-3.76a10.75,10.75,0,0,0,.26-1.59c1-9.79-2.71-17.36-10.58-23.13-5.18-3.8-10.57-7.38-14.55-12.57-.3-.4-.75-.48-1.71-.39,1.65,3.13,1.57,6.42,1.43,9.73,0,.62.6,1.27.93,1.9l-.51.37c-.45-.37-.85-1.44-1.33.06a13.16,13.16,0,0,1-5.19,7.4c-2,1.28-1.5,2.3-.13,3.44a5.34,5.34,0,0,0,3.63,1.57,22.27,22.27,0,0,1,11.76,3.08c.25-2.19-.75-3.81-1.63-5.47-1-1.82-2.62-3.17-3.32-5.15ZM30.91,148.15c-1.15,1.62-2.29,3.25-3.46,4.85-4,5.52-9.61,9.35-15.07,13.22C2,173.58-.51,185.42,3.3,194.64c2-1.67,4.1-1.15,6.3-.68,6.18,1.33,10-2.77,7.77-8.19s.61-12.5,5.95-16.24c-1.95,4.14-5.46,6.94-5.45,11.45a22.43,22.43,0,0,1,12-3.26,5.43,5.43,0,0,0,4.18-2.19c1.2-1.35,1.31-2.25-.37-3.61-4.23-3.42-6.15-7.84-5-13.46.68-3.4,2.37-6.47,2.85-9.89.12-.46.48-.94-.15-1.3Z" style="fill:#252d4a"/><path d="M34.93,2.1a2.6,2.6,0,0,1,0-.4c2.12-.48,3.74.65,5.4,1.67C41.93,4.75,42.64,6.73,45,7.81c2.93,1.31,5.13,4.35,7,7.27l-.33.33c-.31,1.41.37,2.82,1.52,2.66s1.41.61,1.71,1.28-.35.82-.88.89c-.77-.16-1.76-.13-1.61.8s.58,2.32,2.1,2.38c1.52.71,1,1.81.58,2.91-.19.48-.15,1.08-.95,1a2.68,2.68,0,0,1-2.32-2.21c-1.52-1.29-2.82-1.07-3.24.64-.27,1.1-.24,2.28-1.08,3.17,0-2-2.27-2-2.85-3.42-.1-1,.74-1.35,1.29-1.88,1.51-1.45,1.44-2.55-.63-3.29-.17-1.41.9-2.69.42-4.13-.18-1.26-.95-2.13-2.15-1.83-.92.23-1.21,1.46-.93,2.32.83,2.54-.55,2.94-2.57,3-.52,0-1.82-.3-.81,1,.46,2.28-1,3.13-2.79,3.77,0-.76.35-1.84-.64-2s-1,.94-1.1,1.69a5.31,5.31,0,0,0-.29,2.59c-.88.41.16,3-2,1.85S34.35,25.31,32,24c.49-.4.15-1.73,1.18-1.36s1.17-.14,1.51-.63a2.77,2.77,0,0,0,.22-1c-2.61.06-1-2.85-2.84-3.78-.42,1.93-.2,4.11-2.08,5.29-.54.56-.47,1.31-.66,2s-.74,1.62-1.62,1.48c-1.15-.18-.76-1.12-.57-1.9.05-.16-.24-.41-.38-.62-.8-2.67-1.71-3.31-4.14-3,.2,1,.93,1.88.4,3-1.77-.67-1.31-3-2.84-3.83a10.74,10.74,0,0,1,3.88-6,7.35,7.35,0,0,0,3.22-3.88,2.08,2.08,0,0,0,1.3-1.32l-.13-.11.11.13A31.33,31.33,0,0,0,34.93,2.1Zm.59,13c-.11-.71-.59-1-1.32-.85s-1.58.36-1.42,1.22c.1.57.38,1.56,1.3,1.44S35.38,16,35.52,15.07Zm11.23-.67c.29.6-.55,1.75.82,1.88.9.08,1.29-.5,1.3-1.36a1.81,1.81,0,0,0-1.47-2C46.44,12.8,46.88,13.81,46.75,14.4Zm-5.32-1c0-.77-.34-1.19-1.14-1-.5.12-1.34-.33-1.35.76a1.42,1.42,0,0,0,1.12,1.58C41,14.91,41.07,14,41.43,13.36Z" style="fill:#f6dbe4"/><path d="M53,81.29c-.13-1,.16-2.26-1.48-2.27.06-.86,1.68,0,1.37-1.17-.85-3-1.09-6.35-3.73-8.62C47.2,66.76,47.61,64.3,49,61.7c1.88-3.64,2.37-8.09,6.25-10.53,1.73,5.25,3.81,10.2,10.52,11.48-2.78,2-3.89,4.73-4.62,7.69L61,70.28l0,.08c1.22,2.79,4,4.62,4.86,7.63l0,1c-.5,2.11-1.94,3.59-3.32,5.12-2.34,1.38-3.93,3.52-5.85,5.93a34.68,34.68,0,0,0-.26-9.92,1,1,0,0,0-.84,1.55A16.71,16.71,0,0,1,56,90a6.89,6.89,0,0,0,2.46,6.57,2.57,2.57,0,0,1,.4,3.83l0-.06c-.09.16-.19.32-.29.48A13.55,13.55,0,0,0,56,102.52c-.73.61-2.18,2.22-2.93-.24.53-.15.91-.28.9-1-.06-6.13-.06-12.26-.07-18.39C53.93,82.1,54,81.36,53,81.29Zm3.76-16.73C57.94,66,58.4,68.08,60.24,69A6.6,6.6,0,0,0,56.72,64.56Z" style="fill:#f6dbe4"/><path d="M61.1,70.33c.73-3,1.84-5.69,4.62-7.68C59,61.37,56.93,56.42,55.2,51.17V47.35c1.76,1.08.34,2.95,1.82,3.87,1.65-3.08,1.4-6.52,2.07-9.71A29.67,29.67,0,0,0,56.9,23,2.5,2.5,0,0,0,54,21.22l0,0c0-.06.1-.13.09-.18a1.66,1.66,0,0,0-.13-.35c0-.16,0-.32,0-.48.53-.07,1.24-.08.88-.89s-.48-1.45-1.71-1.28-1.83-1.25-1.52-2.66c.11.29.32.39.57.21a2.68,2.68,0,0,0-.24-.54c-1.83-2.92-4-6-7-7.27-2.39-1.08-3.1-3.06-4.73-4.44.2-.62.74-.63,1.26-.7C51.73,9.81,59.17,18.88,61,31.55c1,7.36-.6,14.59-2.32,21.75-.82,3.39.53,5.81,3.83,7,.76.26,1.58.38,2.34.65,2.3.81,2.46,1.61.72,3.38-3.54,3.62-3.56,4.13-.8,8.23a33.23,33.23,0,0,1,1.75,3.35c-.14.72.33,1.59-.55,2.12-.88-3-3.64-4.84-4.86-7.63Z" style="fill:#353f5e"/><path d="M31.66,125.42c-.84.57-.35,1.49-.59,2.22C29,121,26.21,114.5,26.73,107.34c.24-3.33.9-6.63,1.38-9.94.44-3.12.69-6.21-1.05-9.77-.39,2.89-.88,5.16-3,6.57-1.27.85-2.27.79-2.25-1,0-2-.4-4-.5-5.93A8.81,8.81,0,0,0,18,80.4a4.92,4.92,0,0,1-2-3.59,87.77,87.77,0,0,1,0-12.35,9.87,9.87,0,0,0,.2,1.06c.64,2.28,2.65,4.08.91,7.08a5.53,5.53,0,0,0,1.13,6.56,15.8,15.8,0,0,1,3.87,5.23c.89-1.48-1.05-3.65,1.31-4.72-.07,4.66-1.72,9.25-.78,14.24a11.59,11.59,0,0,0,1.47-1.16c2.46-2.67,2.78-10.69.45-13.63-.74-.93-.69.57-1.19.62-.29-2.22.47-4.51-.5-6.67.7-.43.49-1,.34-1.65-.33-1.47-1-2.87-.8-4.44C24.26,72.66,26,78.39,28,84A33.48,33.48,0,0,1,29,102.73a29.72,29.72,0,0,0-.13,11.36C29.59,117.93,31.31,121.51,31.66,125.42Z" style="fill:#353f5e"/><path d="M22.42,67c-.22,1.57.47,3,.8,4.44.15.64.36,1.22-.34,1.65-.55-1.62-1-3.26-1.68-4.84-.24-.58.06-1.85-1.32-1.49l-.28-.26c1.37-2.53-.49-4.82-.53-7.23,0-1.86-1-1.51-2.1-.93-.12-.24-.4-.6-.34-.68,2.65-3.41,1.22-7-.57-9.72-6.35-9.86-3.92-19,1.37-28.17A48.21,48.21,0,0,1,27.15,7.58l.69-.52c0-.13.06-.18.18-.17.83.26.48.93.52,1.47l-.11-.13.13.11c-.89,0-1.18.57-1.3,1.32A7.35,7.35,0,0,1,24,13.54a10.74,10.74,0,0,0-3.88,6c-4.89,6.61-8.95,18.45-2.88,25.9A5.68,5.68,0,0,1,18,47.21C20.28,53.62,20.75,60.44,22.42,67Z" style="fill:#252d4a"/><path d="M49.12,69.23c2.64,2.27,2.88,5.59,3.73,8.62.31,1.13-1.31.31-1.37,1.17-2.13,7.19-5.22,14.23-4.56,21.92A83.23,83.23,0,0,1,46.83,118c-.21,1.77-.19,3.61-1,5.28v-2.54c-1,1.06,0,2.7-1.48,3a52.49,52.49,0,0,0,1.1-16.24,58.75,58.75,0,0,1,2.73-24.65c1.33-4.2,3.83-8.56.86-13.15C49,69.65,49.09,69.41,49.12,69.23Z" style="fill:#353f5e"/><path d="M17,58.32c1.09-.58,2.07-.93,2.1.93,0,2.41,1.9,4.7.53,7.23a4.39,4.39,0,0,0-.46.47c.38.48.54,0,.74-.21,1.38-.36,1.08.91,1.32,1.49.65,1.58,1.13,3.22,1.68,4.84,1,2.16.21,4.45.5,6.67l.05-.07c-2.36,1.07-.42,3.24-1.31,4.72a15.8,15.8,0,0,0-3.87-5.23,5.53,5.53,0,0,1-1.13-6.56c1.74-3-.27-4.8-.91-7.08a9.87,9.87,0,0,1-.2-1.06c-.45-.75-2-.9-1.26-2.28-.37-1.26,1.28-1.73,1.12-2.91.07-.21.15-.41.22-.62l.86-.32ZM19,67.81l-.19-.2a1.76,1.76,0,0,0-.17.37s.11.12.17.18Z" style="fill:#f6dbe4"/><path d="M58.88,100.35a2.57,2.57,0,0,0-.4-3.83A6.89,6.89,0,0,1,56,90a16.71,16.71,0,0,0-.38-8.29,1,1,0,0,1,.84-1.55A34.68,34.68,0,0,1,56.74,90c1.92-2.41,3.51-4.55,5.85-5.93l.13,1c-1.07,1.1-2.18,2.16-3.21,3.3-2.88,3.19-2.85,4.62.08,7.86C61.48,98.33,61.3,99.33,58.88,100.35Z" style="fill:#353f5e"/><path d="M53,81.29c1,.07,1,.81,1,1.55,0,6.13,0,12.26.07,18.39,0,.77-.37.9-.9,1-.72-2-.45-4.1-.42-6.16C52.73,91.18,52.86,86.23,53,81.29Z" style="fill:#515b77"/><path d="M28.54,8.36c0-.54.31-1.21-.52-1.47C30.13,5,31.75,2.42,34.93,2.1A31.33,31.33,0,0,1,28.54,8.36Z" style="fill:#353f5e"/><path d="M41.56,2.67c-.52.07-1.06.08-1.26.7-1.66-1-3.28-2.15-5.4-1.67.82-2,2.2-2.07,3.83-1C39.7,1.29,40.62,2,41.56,2.67Z" style="fill:#515b77"/><path d="M62.72,85.08l-.13-1c1.38-1.53,2.82-3,3.32-5.12l.17.22c0,.47-.3,1,.32,1.33l.13.17A8.64,8.64,0,0,1,62.72,85.08Z" style="fill:#515b77"/><path d="M15.87,59.27c.16,1.18-1.49,1.65-1.12,2.91a3.07,3.07,0,0,1-2.46-1.43Z" style="fill:#515b77"/><path d="M65.94,78c.88-.53.41-1.4.55-2.12a5,5,0,0,1,0,4.83l-.13-.17c0-.48.28-1-.32-1.33L65.91,79Z" style="fill:#515b77"/><path d="M45.27,127.05c0-1-.34-1.94.49-2.73C45.6,125.23,45.43,126.14,45.27,127.05Z" style="fill:#353f5e"/><path d="M17,58.33l-.86.32C16.44,58.71,16.82,58.84,17,58.33Z" style="fill:#515b77"/><path d="M58.62,100.77c.1-.16.2-.32.29-.48C58.82,100.45,58.72,100.61,58.62,100.77Z" style="fill:#353f5e"/><path d="M27.84,7.06l-.69.52Z" style="fill:#353f5e"/><path d="M49.12,69.23c0,.18-.14.42-.07.53,3,4.59.47,8.95-.86,13.15a58.75,58.75,0,0,0-2.73,24.65,52.49,52.49,0,0,1-1.1,16.24c-.74,3.07-1.15,6.28-2.28,9.2a26.37,26.37,0,0,0,.46,20.55c2.6,6.23,1,11.88-3.67,16.7-1.53,1.58-2.84,1.76-4.55.12-4.56-4.36-5.62-9.09-3.1-15.17,4.15-10,3.55-19.81.44-29.78-.35-3.91-2.07-7.49-2.75-11.33A29.72,29.72,0,0,1,29,102.73,33.48,33.48,0,0,0,28,84c-2-5.61-3.73-11.34-5.57-17C20.75,60.44,20.28,53.62,18,47.21a5.68,5.68,0,0,0-.71-1.73c-6.07-7.45-2-19.29,2.88-25.9,1.53.84,1.07,3.16,2.84,3.83,2.41-.95,2.49-.95,3.74,0,.14.21.43.46.38.62-.19.78-.58,1.72.57,1.9.88.14,1.4-.69,1.62-1.48s.12-1.42.66-2c1.22,1.51.75,3.25.72,4.95,0,1.85,1.52,2.22,2.76,2.32,1.66.13,1.95-1.07,1.49-2.48,1.18-.57-.29-2.59,1.53-2.81,1.77-.63,3.25-1.48,2.79-3.76a13.53,13.53,0,0,0,1.57-.26c1.71-.5,4.12-.06,2.91-3.49-.82-2.33,1.24-.6,2-.76.48,1.44-.59,2.72-.42,4.13.72,1.34.83,2.44-.82,3.3-1,.52-1.53,1.39.16,1.87.58,1.45,2.89,1.46,2.85,3.42,1.47.56,1.86-.56,1.87-1.5,0-1.79.9-2.32,2.45-2.31a2.68,2.68,0,0,0,2.32,2.21c.8.1.76-.5.95-1,.42-1.1.94-2.2-.58-2.91-.16-.73-.33-1.47-.5-2.2A2.5,2.5,0,0,1,56.9,23a29.67,29.67,0,0,1,2.19,18.52c-.67,3.19-.42,6.63-2.07,9.71-1.48-.92-.06-2.79-1.82-3.87v3.82C51.32,53.61,50.83,58.06,49,61.7,47.61,64.3,47.2,66.76,49.12,69.23ZM26.71,48.46l.08.69c4.06-1.73,7.41.6,11,1.52,1,.25,2.48,1.55,2.94,0,.37-1.24-1.55-1.18-2.47-1.42-5.39-1.45-8.57-4.87-9.32-10.37a47.46,47.46,0,0,1,0-6.2c-.71.24-1,.5-1.06.81-1.27,3.73-.5,7.31,1.06,10.73.84,1.85,1.15,3.18-1.37,3.65C27.24,48,27,48.27,26.71,48.46Z" style="fill:#d4a7cd"/><path d="M31.51,148.57c-.48,3.42-2.17,6.49-2.85,9.89-1.12,5.62.8,10,5,13.46,1.68,1.36,1.57,2.26.37,3.61a5.43,5.43,0,0,1-4.18,2.19,22.43,22.43,0,0,0-12,3.26c0-4.51,3.5-7.31,5.45-11.45-5.34,3.74-8.12,10.9-5.95,16.24S15.78,195.29,9.6,194c-2.2-.47-4.35-1-6.3.68-3.81-9.22-1.32-21.06,9.08-28.42,5.46-3.87,11-7.7,15.07-13.22,1.17-1.6,2.31-3.23,3.46-4.85Zm-8.63,21.28c1.32-.29,1.49-1.09,1.56-2.16A2.1,2.1,0,0,0,22.88,169.85Zm1.9-2.27a2.64,2.64,0,0,0,1.7-2.55A2.79,2.79,0,0,0,24.78,167.58Zm2.57-3-.38-.7a3.59,3.59,0,0,0-.46.8c0,.13.24.34.38.51Z" style="fill:#f6dbe4"/><path d="M49.55,169.66c.7,2,2.36,3.33,3.32,5.15.88,1.66,1.88,3.28,1.63,5.47a22.27,22.27,0,0,0-11.76-3.08,5.34,5.34,0,0,1-3.63-1.57c-1.37-1.14-1.86-2.16.13-3.44a13.16,13.16,0,0,0,5.19-7.4c.48-1.5.88-.43,1.33-.06.55.75.65,1.92,2,2.22a3.49,3.49,0,0,0-1.51-2.59c-.33-.63-1-1.28-.93-1.9.14-3.31.22-6.6-1.43-9.73,1-.09,1.41,0,1.71.39,4,5.19,9.37,8.77,14.55,12.57C68,171.46,71.78,179,70.75,188.82a10.75,10.75,0,0,1-.26,1.59c-.32,1.2-.67,2.38-1.07,3.76-2-1.62-4.1-1.34-6.2-.85-3.89.92-6.43.05-8.07-2.59a3.88,3.88,0,0,1-.47-3.63c3.12-7.26.09-12.84-4.7-18-.51-.71-.7-1.77-2-1.91A3.27,3.27,0,0,0,49.55,169.66Z" style="fill:#f6dbe4"/><path d="M30.91,148.15l.45-.88c.63.36.27.84.15,1.3Z" style="fill:#f6dbe4"/><path d="M34.94,27.27c.46,1.41.17,2.61-1.49,2.48-1.24-.1-2.8-.47-2.76-2.32,0-1.7.5-3.44-.72-4.95,1.88-1.18,1.66-3.36,2.08-5.29,1.84.93.23,3.84,2.84,3.78a2.77,2.77,0,0,1-.22,1c-.34.49-.61,1-1.51.63s-.69,1-1.18,1.36c2.37,1.33-1.79,3.38.46,4.61s1.12-1.44,2-1.85Z" style="fill:#353f5e"/><path d="M45.72,16.19c-.74.16-2.8-1.57-2,.76,1.21,3.43-1.2,3-2.91,3.49a13.53,13.53,0,0,1-1.57.26c-1-1.34.29-1,.81-1,2,0,3.4-.44,2.57-3-.28-.86,0-2.09.93-2.32C44.77,14.06,45.54,14.93,45.72,16.19Z" style="fill:#515b77"/><path d="M51.81,25.1c-1.55,0-2.45.52-2.45,2.31,0,.94-.4,2.06-1.87,1.5.84-.89.81-2.07,1.08-3.17C49,24,50.29,23.81,51.81,25.1Z" style="fill:#515b77"/><path d="M26.74,23.42c-1.25-1-1.33-1-3.74,0,.53-1.08-.2-2-.4-3C25,20.11,25.94,20.75,26.74,23.42Z" style="fill:#515b77"/><path d="M35.52,15.07c-.14.95-.57,1.69-1.44,1.81s-1.2-.87-1.3-1.44c-.16-.86.66-1.12,1.42-1.22S35.41,14.36,35.52,15.07Z" style="fill:#515b77"/><path d="M44.64,25.49c-1.69-.48-1.15-1.35-.16-1.87,1.65-.86,1.54-2,.82-3.3,2.07.74,2.14,1.84.63,3.29C45.38,24.14,44.54,24.5,44.64,25.49Z" style="fill:#515b77"/><path d="M46.75,14.4c.13-.59-.31-1.6.65-1.49a1.81,1.81,0,0,1,1.47,2c0,.86-.4,1.44-1.3,1.36C46.2,16.15,47,15,46.75,14.4Z" style="fill:#515b77"/><path d="M41.43,13.36c-.36.59-.41,1.55-1.37,1.35a1.42,1.42,0,0,1-1.12-1.58c0-1.09.85-.64,1.35-.76C41.09,12.17,41.43,12.59,41.43,13.36Z" style="fill:#515b77"/><path d="M34.94,27.27l-.5-.53a5.31,5.31,0,0,1,.29-2.59c.12-.75,0-1.88,1.1-1.69s.65,1.25.64,2C34.65,24.68,36.12,26.7,34.94,27.27Z" style="fill:#515b77"/><path d="M54,21.22c.17.73.34,1.47.5,2.2C53,23.36,52.57,22.09,52.4,21s.84-1,1.61-.8c0,.16,0,.32,0,.48s-.73.41,0,.53Z" style="fill:#515b77"/><path d="M27.26,9.66c.12-.75.41-1.32,1.3-1.32A2.08,2.08,0,0,1,27.26,9.66Z" style="fill:#353f5e"/><path d="M56.72,64.56A6.6,6.6,0,0,1,60.24,69C58.4,68.08,57.94,66,56.72,64.56Z" style="fill:#515b77"/><polygon points="61.08 70.36 61.04 70.28 61.1 70.34 61.08 70.36" style="fill:#515b77"/><path d="M54,21.25c-.77-.12-.2-.34,0-.53a1.66,1.66,0,0,1,.13.35C54.12,21.12,54.06,21.19,54,21.25Z" style="fill:#d4a7cd"/><path d="M52,15.08a2.68,2.68,0,0,1,.24.54c-.25.18-.46.08-.57-.21Z" style="fill:#f6dbe4"/><path d="M23.38,79.74c.5,0,.45-1.55,1.19-.62,2.33,2.94,2,11-.45,13.63a11.59,11.59,0,0,1-1.47,1.16c-.94-5,.71-9.58.78-14.24Z" style="fill:#f6dbe4"/><path d="M19.88,66.74c-.2.25-.36.69-.74.21a4.39,4.39,0,0,1,.46-.47Z" style="fill:#252d4a"/><path d="M19,67.81l-.19.35c-.06-.06-.18-.14-.17-.18a1.76,1.76,0,0,1,.17-.37Z" style="fill:#252d4a"/><path d="M66.08,79.2c.6.33.36.85.32,1.33C65.78,80.21,66.09,79.67,66.08,79.2Z" style="fill:#353f5e"/><path d="M26.71,48.46c.28-.19.53-.5.84-.56,2.52-.47,2.21-1.8,1.37-3.65-1.56-3.42-2.33-7-1.06-10.73.11-.31.35-.57,1.06-.81a47.46,47.46,0,0,0,0,6.2c.75,5.5,3.93,8.92,9.32,10.37.92.24,2.84.18,2.47,1.42-.46,1.52-2,.22-2.94,0-3.61-.92-7-3.25-11-1.52Z" style="fill:#252d4a"/><path d="M22.88,169.85a2.1,2.1,0,0,1,1.56-2.16C24.37,168.76,24.2,169.56,22.88,169.85Z" style="fill:#252d4a"/><path d="M24.78,167.58a2.79,2.79,0,0,1,1.7-2.55A2.64,2.64,0,0,1,24.78,167.58Z" style="fill:#252d4a"/><path d="M27.35,164.6l-.46.61c-.14-.17-.41-.38-.38-.51a3.59,3.59,0,0,1,.46-.8Z" style="fill:#252d4a"/><path d="M49.55,169.66A3.27,3.27,0,0,1,48,167.19c1.28.14,1.47,1.2,2,1.91Z" style="fill:#252d4a"/><path d="M46.27,164.36A3.49,3.49,0,0,1,47.78,167c-1.37-.3-1.47-1.47-2-2.22Z" style="fill:#252d4a"/></g></g></svg>