<svg xmlns="http://www.w3.org/2000/svg" viewBox="0 0 52.62 165.54"><g id="Ebene_2" data-name="Ebene 2"><g id="Ebene_1-2" data-name="Ebene 1"><path d="M18.75,143.07c-.46,3.48-1.14,6.89-3,9.93-.38.6-.78,1.36-1.67,1.06a1.93,1.93,0,0,1-1.24-1.66,8.83,8.83,0,0,1,.53-4.52c.37-.85.87-1.84.07-2.53-2.48-2.14-1.16-4.35-.32-6.58.47-1.26,1-2.49,1.47-3.75,1.75-4.73,3.26-9.34,1.53-14.61-1.86-5.63-1.1-11.48.23-17.2a21.29,21.29,0,0,0-1.47-14.63c-.88,1.73-1.4,3.43-2.75,4.56-.84.69-1.76,1.62-2.86.94S8.64,92.34,9,91.4L10,93c2.25-.42,2.77-2.23,3.28-4a12.74,12.74,0,0,0-.67-8.28c.15-1.2-1.4-1.82-1.07-3.09L9.93,73c-1,.22-.94,1.6-2.51,1.64,2.9-3.87.94-7.4,0-11.51-1.08,1.35-1.77,2.29-2.54,3.17S3.26,68,2.49,68.88,1,70.67,2.93,71.35s2.47,2.42,2.34,4.42A12.22,12.22,0,0,1,4,79.6c-.93,2.3-.59,4,1.65,5.25-.21.48-.65.48-1.08.51-2.37-1.13-2.52-3.12-1.95-5.3.29-1.12.95-2.14,1.23-3.26.49-2,.58-3.8-1.92-4.61-2.13-.7-1.95-1.83-.68-3.43,6.28-8,6.24-8,4.44-17.74a4.64,4.64,0,0,0-1.36-2.86C.45,44.68-.48,40.14.2,35.24,1.84,23.47,8.48,14.55,16.81,6.64c.77-.74,1.64-1.37,2.47-2l.54,1.6-.06,0a14.5,14.5,0,0,0-5.41,5.39l-.06.07a1.07,1.07,0,0,0-1,1.12c-.76,1-1.55,2-2.3,3C6.58,22,3,28.48,2.3,36.14c-.4,4.34.45,8.47,4.23,11.18,3.53,2.52,7.53,2.51,11.91,1.43-3.7-4.71-4.85-9.68-3.36-15.12,1.17-4.28,3.51-8.07,5.38-12.06,1-.69,0-2.16,1.1-2.82v0c0,1.13,0,2.27,0,3.41a56.53,56.53,0,0,1-3.18,8.22,16.91,16.91,0,0,0-1.77,8.13c0,7,5.78,11.73,11.49,13-.93,1.24-2.29.28-3.39.66-1-.72-1.94,2.59-2.51.43-.64-2.44-1.94-2.26-3.58-2a21.74,21.74,0,0,1-9.43,0c-1.27-.32-1.64,0-1.43,1.29.36,2.23.6,4.48.92,6.72,1.55,11,5.53,21.38,8.79,31.92a23.84,23.84,0,0,1,.89,11.23c-1,6-2,12-.66,18,.64,2.8,2.21,5.4,1.75,8.43a.56.56,0,0,0,.5.69,1,1,0,0,1,.47,1.1h-2a3.07,3.07,0,0,0-.5-2.71,53.49,53.49,0,0,1-4.41,13.14c-.47,1-1.08,2.08-.09,3,1.65,1.51,1.19,3.31.82,5a11.37,11.37,0,0,0-.1,4.67c1.62-1.29,1.87-2.86,2.46-4.32C17.33,146.93,16.69,144.48,18.75,143.07Z" style="fill:#353f5e"/><path d="M28.93,1.62a.19.19,0,0,1,.19.26.57.57,0,0,0,.6.57c6.67,3.41,11.35,8.92,15.35,15A35.21,35.21,0,0,1,50.6,44c-.71,3.92-1.15,7.9-2.37,11.71-.57,1.77-.21,2.75,1.62,3.53,3,1.29,3.44,2.33,1.93,5.24-1.59,3.07-2.17,5.81-.58,9.15,1,2.12.18,4.45-1.85,6s-2.54,3.38-1.83,6a9.3,9.3,0,0,1-4,9.89,2.79,2.79,0,0,1-3.27,0c-1.26-.73-.88-1.73-.67-2.84.31-1.63,1.22-3.27.1-5.36a26.33,26.33,0,0,0-2.53,7.17,34.11,34.11,0,0,0-.9,12.42c.82,5.7.2,11.42-.45,17.1a10.83,10.83,0,0,0,.63,5.57c1.34,3.22,2.37,6.57,4.28,9.54a4,4,0,0,1,.9,3.05c-.27,0-.73,0-.79-.07-2.48-5-5.26-9.88-6.67-15.3-.61-2.33-1.36-4.83-.2-7.33l.5,2.47v-3.22c.18-3.06.6-6.11.15-9.19A40.07,40.07,0,0,1,36.9,88.7a19.49,19.49,0,0,0,0-14.85c-.2-.52-1.14-1.66.36-2.09,1.18,4.12,3.11,8,3.38,12.4.09,1-.41,2,.54,2.79h0l0,4A5.67,5.67,0,0,0,41.08,92c0,.88-1.27,1.85.1,2.64s2.2-.37,3-1.18a8,8,0,0,0,2.12-8c-.67-2.39-.33-4.55,1.71-6.1,2.61-2,3-4.47,1.63-7.19-1.11-2.3-.61-4.32.43-6.4a16.41,16.41,0,0,0,1.23-3,1.75,1.75,0,0,0-1.13-2.38c-3.53-1.23-5.31-4.13-6.83-7.27.41-.61.68-.67,1.11.06s.72,1.83,1.85,2c1.52-3.74,1.66-7.66,2.51-11.43a28.68,28.68,0,0,0,.07-13.16C45.89,18.35,37.75,9.86,28,2.6Z" style="fill:#353f5e"/><path d="M20.79,138.55c-.05-.11-.11-.22-.15-.33s0-.12.05-.18l.9-.92c.64,1.08.07,2.56,1.29,3.64,2-2,1.33-4.37,1-6.59-1.13-8.26-2.18-16.54-.94-24.84,1.13-7.49,1.55-14.9,0-22.37a101.57,101.57,0,0,1-2.09-16.13c.08-1.72.54-3.48-.43-5.11l0-4.35c.9-1.42.45-3,.43-4.49a4.25,4.25,0,0,1,0-1.34c.26-.7.29-2,1.21-1.77s.24,1.22.15,1.95a55.72,55.72,0,0,0-.78,6.61c0,2.83,1,5.46,1.23,8.25a147.9,147.9,0,0,0,1.88,15.1c.85,4.9,2,9.78,1.29,14.85-.85,5.91-2.25,11.75-2.07,17.79a150.72,150.72,0,0,0,1.9,17.11c.41,2.86.09,5.42-2.46,7.28-1.88,1.37-1.63,3.24-.69,4.88,1.76,3.07,1.5,6,.11,9.08-1.63,3.67-.38,8.11,5.45,7.16.71-.12,1.44-.14,2.16-.2l.51-.18,1.06-.06c.06,1.71,1.23,1.05,2.12,1v1c-4.06-.26-8.38,1.2-12-1.63-.84-.64-2,0-2.62-1l0-1.21c.83.12,1.49-.05,1.38-1.08-.28-2.62.59-5,1.55-7.32.36-.88.79-2-.75-2.28a1.26,1.26,0,0,0-.54-1.16l.08-1.67c.51-.48.29-.81-.21-1.09-.62-2.53.57-5,.07-7.58Z" style="fill:#353f5e"/><path d="M34.49,118.67v3.22l-.5-2.47c-1.16,2.5-.41,5,.2,7.33,1.41,5.42,4.19,10.31,6.67,15.3.06.12.52,0,.79.07.21.45.41.9.62,1.34-.13.77.4,1.73-1.14,1.91-2.43.27-2.73,2-2.06,4a15.45,15.45,0,0,1,1,4.19c0,.92-.11,1.75-1.27,1.54-2.32-.42-2.54,1.19-2.78,3.65-.59-1.91-.93-3-1.28-4.11-.82-2.55-.56-5.34-1.66-7.83l-.69-10.18c.27-1.8-.69-3.73.56-5.44A18.89,18.89,0,0,0,35,138.55c-.66-3.1-.77-6.3-2-9.25-.27-2.25,1.14-4.75-1-6.72C31.8,118.45,32,118.22,34.49,118.67Zm1.14,21.14-.23-.41c-.07.13-.21.26-.21.4a1.31,1.31,0,0,0,.21.43C35.47,140.09,35.55,140,35.63,139.81Z" style="fill:#d4a7cd"/><path d="M18.75,143.07c-2.06,1.41-1.42,3.86-2.18,5.78-.59,1.46-.84,3-2.46,4.32a11.37,11.37,0,0,1,.1-4.67c.37-1.72.83-3.52-.82-5-1-.9-.38-2,.09-3a53.49,53.49,0,0,0,4.41-13.14,3.07,3.07,0,0,1,.5,2.71c-.63,2.89-1.72,5.71-1.32,8.8l2-7.29c1.16,3.31-1,6.5.19,9.63A3,3,0,0,0,18.75,143.07Z" style="fill:#d4a7cd"/><path d="M33,146.83c1.1,2.49.84,5.28,1.66,7.83.35,1.1.69,2.2,1.28,4.11.24-2.46.46-4.07,2.78-3.65,1.16.21,1.31-.62,1.27-1.54a15.45,15.45,0,0,0-1-4.19c-.67-2-.37-3.75,2.06-4,1.54-.18,1-1.14,1.14-1.91,1.62,1.75,1.56,2.52-.6,2.91-2,.35-1.84,1.31-1.44,2.69.32,1.12.65,2.24.89,3.37.46,2.22.37,4-2.7,3.92-2,0-.76,1.74-1.06,2.66-.16.52.76,1.29-.23,1.6-.78.25-1.35-.24-1.77-.91-1.62-2.59-2-5.54-2.57-8.45-.17-1.2-.35-2.39-.53-3.59Z" style="fill:#353f5e"/><path d="M33,146.83l-.77.83c-.23,2.28-1.18,4.47-.87,6.82l-.09,2.3c-.13.37-.21.73.18,1a.83.83,0,0,1,.44,1.08c-.17.39-.34.78-.52,1.17l-.66-1c.09-.8.25-1.63-.54-2.22h0a43.72,43.72,0,0,0,.61-8.39c0-.87.23-1.94-1.18-2l.15-1a.93.93,0,0,0,.39-1.16h0c.78-.53.68-1.32.64-2.1l.55-1.66c1.14-1.07-.1-2.74,1-3.82Z" style="fill:#252d4a"/><path d="M19.35,161.55l0,1.21a14.27,14.27,0,0,0-1.93-.84c-2.69-.73-3.13-1.75-1.1-3.58,2.62-2.37,3.1-5.78,4.7-8.63a1.26,1.26,0,0,1,.54,1.16,12.58,12.58,0,0,1-3,6.8C17,159.57,17.44,160.59,19.35,161.55Z" style="fill:#515b77"/><path d="M19.29,141.2c-1.14-3.13,1-6.32-.19-9.63l-2,7.29c-.4-3.09.69-5.91,1.32-8.8h2a18.89,18.89,0,0,1,1.22,7.06l-.9.92C18.86,138.49,20.45,140.46,19.29,141.2Z" style="fill:#515b77"/><path d="M28.93,1.62l-1,1c-1.4-1.25-2.66-1-4,.2s-2.76,2.27-4.15,3.39l-.54-1.6A37.79,37.79,0,0,1,25,.47C26.75-.76,27.77.72,28.93,1.62Z" style="fill:#515b77"/><path d="M4.59,85.36c.43,0,.87,0,1.08-.51,4.92,2.07,5.24,2.62,4.34,7.33A5.49,5.49,0,0,0,10,93L9,91.4C10.34,87.33,6.49,87.06,4.59,85.36Z" style="fill:#515b77"/><path d="M31.4,160c.18-.39.35-.78.52-1.17,1.24,1.24,1.39,3.14,2.89,4.32.86.68.36,1.8-.82,2.22,0-.34,0-.67,0-1-.27-1.22-1.72-1.48-2.09-2.62C31.73,161.18,31.56,160.6,31.4,160Z" style="fill:#515b77"/><path d="M31.39,154.48c-.31-2.35.64-4.54.87-6.82.18,1.2.36,2.39.53,3.59C31.76,152.08,33.13,154,31.39,154.48Z" style="fill:#d4a7cd"/><path d="M31.48,157.77c-.39-.26-.31-.62-.18-1C31.17,157.15,32.4,157.26,31.48,157.77Z" style="fill:#515b77"/><path d="M20.86,147c.5.28.72.61.21,1.09A.85.85,0,0,1,20.86,147Z" style="fill:#515b77"/><path d="M29.72,2.45a.57.57,0,0,1-.6-.57Z" style="fill:#515b77"/><path d="M20.79,138.55l.14.82A.52.52,0,0,1,20.79,138.55Z" style="fill:#515b77"/><path d="M31.4,160c.16.58.33,1.16.49,1.74l0,1.63-1.06.06-.51.18c-.72.06-1.45.08-2.16.2-5.83.95-7.08-3.49-5.45-7.16,1.39-3.12,1.65-6-.11-9.08-.94-1.64-1.19-3.51.69-4.88,2.55-1.86,2.87-4.42,2.46-7.28a150.72,150.72,0,0,1-1.9-17.11c-.18-6,1.22-11.88,2.07-17.79.72-5.07-.44-10-1.29-14.85a147.9,147.9,0,0,1-1.88-15.1c-.19-2.79-1.21-5.42-1.23-8.25a55.72,55.72,0,0,1,.78-6.61c.09-.73.91-1.69-.15-1.95s-.95,1.07-1.21,1.77a4.25,4.25,0,0,0,0,1.34,10.08,10.08,0,0,0-.43,4.49l0,4.35a18.29,18.29,0,0,0,.43,5.11A101.57,101.57,0,0,0,22.93,87c1.58,7.47,1.16,14.88,0,22.37-1.24,8.3-.19,16.58.94,24.84.31,2.22,1,4.6-1,6.59-1.22-1.08-.65-2.56-1.29-3.64a18.89,18.89,0,0,0-1.22-7.06,1,1,0,0,0-.47-1.1l-.5-.69c.46-3-1.11-5.63-1.75-8.43-1.37-6.08-.35-12.06.66-18a23.84,23.84,0,0,0-.89-11.23C14.16,80,10.18,69.67,8.63,58.65c-.32-2.24-.56-4.49-.92-6.72-.21-1.29.16-1.61,1.43-1.29a21.74,21.74,0,0,0,9.43,0c1.64-.3,2.94-.48,3.58,2,.57,2.16,1.47-1.15,2.51-.43,2.12.78,4.24,1.51,6.87,1-1.24-1-2.18-1.7-3.48-1.68-5.71-1.24-11.47-6-11.49-13a16.91,16.91,0,0,1,1.77-8.13,56.53,56.53,0,0,0,3.18-8.22,3.14,3.14,0,0,0,0-3.41v0c-.32-.94-.77-1-1,0a16.58,16.58,0,0,0-.13,2.83c-1.87,4-4.21,7.78-5.38,12.06-1.49,5.44-.34,10.41,3.36,15.12-4.38,1.08-8.38,1.09-11.91-1.43C2.75,44.61,1.9,40.48,2.3,36.14,3,28.48,6.58,22,11,15.86c.75-1,1.54-2,2.3-3l1-1.12.06-.07,5.41-5.39.06,0C21.21,5.07,22.66,4,24,2.8s2.59-1.45,4-.2c9.79,7.26,17.93,15.75,20.88,28.09a28.68,28.68,0,0,1-.07,13.16c-.85,3.77-1,7.69-2.51,11.43-1.13-.21-1.39-1.26-1.85-2s-.7-.67-1.11-.06a150.81,150.81,0,0,0-4.79,16.36c-.19.9-.22,1.82-1.25,2.22-1.5.43-.56,1.57-.36,2.09a19.49,19.49,0,0,1,0,14.85,40.07,40.07,0,0,0-2.26,20.78c.45,3.08,0,6.13-.15,9.19-2.54-.45-2.69-.22-2.54,3.91-.54,6-1.33,11.9-.59,17.89-.18.55-.37,1.1-.55,1.66a2.34,2.34,0,0,0-.64,2.1h0a1,1,0,0,0-.39,1.16l-.15,1a9.07,9.07,0,0,1,.66,3.82c.12,2.2-.91,4.37-.09,6.56h0a2.58,2.58,0,0,0,.54,2.22Z" style="fill:#f6dbe4"/><path d="M10,93a5.49,5.49,0,0,1,0-.81c.9-4.71.58-5.26-4.34-7.33C3.43,83.63,3.09,81.9,4,79.6a12.22,12.22,0,0,0,1.25-3.83c.13-2-.39-3.73-2.34-4.42s-1.27-1.52-.44-2.47,1.65-1.68,2.43-2.56,1.46-1.82,2.54-3.17c.9,4.11,2.86,7.64,0,11.51,1.57,0,1.5-1.42,2.51-1.64.54,1.5,1.09,3,1.63,4.55-.48,2.22-1.32,4.43-.72,7,1.4-1.19.33-3.07,1.79-3.89a12.74,12.74,0,0,1,.67,8.28C12.79,90.76,12.27,92.57,10,93Z" style="fill:#d4a7cd"/><path d="M12.63,80.66c-1.46.82-.39,2.7-1.79,3.89-.6-2.55.24-4.76.72-7C11.23,78.84,12.78,79.46,12.63,80.66Z" style="fill:#515b77"/><path d="M28.05,51.5c1.3,0,2.24.73,3.48,1.68-2.63.49-4.75-.24-6.87-1C25.76,51.78,27.12,52.74,28.05,51.5Z" style="fill:#515b77"/><path d="M19.76,6.24l-5.41,5.39A14.5,14.5,0,0,1,19.76,6.24Z" style="fill:#515b77"/><path d="M20.46,21.57a16.58,16.58,0,0,1,.13-2.83c.2-1,.65-.93,1,0C20.49,19.41,21.47,20.88,20.46,21.57Z" style="fill:#515b77"/><path d="M21.56,18.77a3.14,3.14,0,0,1,0,3.41C21.52,21,21.54,19.9,21.56,18.77Z" style="fill:#515b77"/><path d="M14.29,11.7l-1,1.12A1.07,1.07,0,0,1,14.29,11.7Z" style="fill:#515b77"/><path d="M19.4,128.27l.5.69A.56.56,0,0,1,19.4,128.27Z" style="fill:#515b77"/><path d="M37.26,71.76c1-.4,1.06-1.32,1.25-2.22A150.81,150.81,0,0,1,43.3,53.18c1.52,3.14,3.3,6,6.83,7.27a1.75,1.75,0,0,1,1.13,2.38,16.41,16.41,0,0,1-1.23,3c-1,2.08-1.54,4.1-.43,6.4,1.32,2.72,1,5.21-1.63,7.19-2,1.55-2.38,3.71-1.71,6.1a8,8,0,0,1-2.12,8c-.76.81-1.53,2-3,1.18s-.06-1.76-.1-2.64a5.67,5.67,0,0,1,.12-1.08,4.11,4.11,0,0,0,0-4h0c-.15-.93.23-2-.54-2.79C40.37,79.79,38.44,75.88,37.26,71.76Zm5.25,8.44.74-.11L42.11,69.83a.58.58,0,0,0-.71-.58.61.61,0,0,0-.57.76C41.79,73.34,40.5,77.06,42.51,80.2Zm2.6-12.45a8.59,8.59,0,0,0-3.27-6.49A14.86,14.86,0,0,0,45.11,67.75Z" style="fill:#d4a7cd"/><path d="M41.17,87a4.11,4.11,0,0,1,0,4Z" style="fill:#515b77"/><path d="M40.64,84.16c.77.82.39,1.86.54,2.79C40.23,86.17,40.73,85.11,40.64,84.16Z" style="fill:#515b77"/><path d="M19.35,161.55c-1.91-1-2.38-2-.78-3.88a12.58,12.58,0,0,0,3-6.8c1.54.33,1.11,1.4.75,2.28-1,2.35-1.83,4.7-1.55,7.32C20.84,161.5,20.18,161.67,19.35,161.55Z" style="fill:#d4a7cd"/><path d="M31.86,163.39l0-1.63c.37,1.14,1.82,1.4,2.09,2.62C33.09,164.44,31.92,165.1,31.86,163.39Z" style="fill:#d4a7cd"/><path d="M20.84,70.83a18.29,18.29,0,0,1-.43-5.11C21.38,67.35,20.92,69.11,20.84,70.83Z" style="fill:#515b77"/><path d="M20.44,61.37a10.08,10.08,0,0,1,.43-4.49C20.89,58.4,21.34,60,20.44,61.37Z" style="fill:#515b77"/><path d="M30.29,163.63l.51-.18Z" style="fill:#d4a7cd"/><path d="M31.36,140.47c-.74-6,.05-11.94.59-17.89,2.16,2,.75,4.47,1,6.72,0,.64,0,1.28-.07,1.91-1.25,1.71-.29,3.64-.56,5.44C31.26,137.73,32.5,139.4,31.36,140.47Z" style="fill:#515b77"/><path d="M32.9,131.21c0-.63.05-1.27.07-1.91,1.25,2.95,1.36,6.15,2,9.25A18.89,18.89,0,0,1,32.9,131.21Z" style="fill:#353f5e"/><path d="M35.63,139.81c-.08.14-.16.28-.23.42a1.31,1.31,0,0,1-.21-.43c0-.14.14-.27.21-.4C35.48,139.53,35.55,139.67,35.63,139.81Z" style="fill:#353f5e"/><path d="M30.2,156.8c-.82-2.19.21-4.36.09-6.56a9.07,9.07,0,0,0-.66-3.82c1.41.05,1.14,1.12,1.18,2A43.72,43.72,0,0,1,30.2,156.8Z" style="fill:#515b77"/><path d="M30.74,159a2.58,2.58,0,0,1-.54-2.22C31,157.38,30.83,158.21,30.74,159Z" style="fill:#515b77"/><path d="M30.17,144.23a2.34,2.34,0,0,1,.64-2.1C30.85,142.91,31,143.7,30.17,144.23Z" style="fill:#515b77"/><path d="M29.78,145.38a1,1,0,0,1,.39-1.16A.93.93,0,0,1,29.78,145.38Z" style="fill:#515b77"/><path d="M42.51,80.2c-2-3.14-.72-6.86-1.68-10.19a.61.61,0,0,1,.57-.76.58.58,0,0,1,.71.58l1.14,10.26Z" style="fill:#515b77"/><path d="M45.11,67.75a14.86,14.86,0,0,1-3.27-6.49A8.59,8.59,0,0,1,45.11,67.75Z" style="fill:#515b77"/></g></g></svg>