<svg xmlns="http://www.w3.org/2000/svg" viewBox="0 0 93.31 95.45">
    <g>
        <path d="M59.55,16.9c9,10.63,16.69,21.92,19,36.1.64,3.92,1.56,7.84,1.33,11.8s1.54,6.46,4.36,8.74a34.93,34.93,0,0,1,6.06,5.79,13.53,13.53,0,0,1,2.75,11.16c-.48,2.62-1.7,3.22-4.22,2.29a15.37,15.37,0,0,1-4-2.69c-1-.78-1.37-.63-2,.43-1.55,2.61-2.86,2.86-5.09.75-1.74-1.66-2.85-1.61-3.84.59-1.12,2.48-3,3.84-5.77,3.55-1.76-.19-3.75-3.37-4-5.9-.34-3.54.7-6.76,2.14-9.9.79-1.7,1.54-3.42,2.37-5.1,2-3.94.86-7.35-1.85-10.4a24.61,24.61,0,0,0-9.39-6.58A61.41,61.41,0,0,0,35,52.75c-8.29-.13-16.5-1.67-24.07-5.72C-3.58,39.29-2.3,22.92,7,14A34.75,34.75,0,0,1,17,7.62,3.22,3.22,0,0,0,19.05,5.2c1-4,4.59-5.67,9-5.08A51.13,51.13,0,0,1,57.08,14.44c-.73,1.07-1.68-.9-2-.06-1.06,2.86-1.41.13-1.61-.24C51.24,9.83,47.19,8,42.9,5.82c0,1.46,1,2.4.14,3.62-.88-1.73-1.19-3.83-2.69-4.84a9.21,9.21,0,0,0-5.49-1.77C35,4,36,5.16,34.35,5.93c-.51-4-1.2-4.55-5.41-4,1.58,2.24.85,4.39-.17,6.57a25.13,25.13,0,0,0-2.23,5.73c-.34,1.8.43,2.58,2.21,2.12s3.43-1,5.12-1.58c3.43-1.14,4.52-.8,6.39,2.31.93,1.53,2,2.45,4,2.13,1.23-.21,2.47-.15,3.73-.48,2-.53,3.92-.48,5.62,1.44C56.07,23,57.81,23,61.32,21.32,61,19.75,59.34,18.7,59.55,16.9ZM80.3,72.14,79.64,71a4,4,0,0,0-.5.6c-.39.73.13.91.67,1.07,2,2.94,4,5.85,4.21,9.58-1.59-2.3-3-4.72-4.39-7.09-.3-.5-.36-1.63-1.31-1.18a1.89,1.89,0,0,0-1.17,2.21c.32,2.17,1.17,4.27,1,7.18a16.67,16.67,0,0,1-2-6.3c-.17-.84.16-1.69-1.22-1.93s-1.2.94-1.58,1.53c-1.78,2.74-2.87,5.85-4.44,8.72a15.05,15.05,0,0,1,2.94-8.87c1.26-1.92,1.57-3.45-.6-5-.46,3-2,5.4-3.14,8-1.3,3-2.67,5.94-2.32,9.32.2,1.94.74,4,2.73,4.57,1.63.44,2.94-.92,3.74-2.47a4.48,4.48,0,0,1,.71-.81c2.13-2.4,2.74-2.48,5.36-.47,1.2.92,2.16,1.28,3-.38,1.07-2.09,2.61-1.89,4.26-.75.82.56,1.55,1.26,2.39,1.79,2.42,1.54,3.42,1,3.57-1.75A12.74,12.74,0,0,0,87,78.07C84.79,76.06,82.53,74.12,80.3,72.14ZM28.08,6.91a2.12,2.12,0,0,0-.53-.28,4,4,0,0,0-1.09,0c-9.79,1.72-18.11,5.61-22.91,15C-2.28,33.07,4,42,12.23,46.11c6.79,3.42,14.3,4.75,21.86,5.1a77.26,77.26,0,0,1,17.09,2.28c7.47,2.07,14,5.72,18.76,12a60,60,0,0,1,4.1,7c.44.75.91,1.33,1.91,1.18s1.06-.81,1.33-1.49a14.17,14.17,0,0,0,1.06-4.7c.33-6.85-1-13.45-2.83-20-2.47-8.74-5.87-17-12.67-23.42-.93-.87-1.7-1.36-3.07-.87a5.78,5.78,0,0,1-6.66-1.73c-1.59-1.86-3.19-2-5.47-1.4-5.41,1.44-5.66,1.26-9-3.57-1.18-1.7-2.54-1.32-4-.78-2,.72-4,1.68-6.13,1.78-3,.13-3.63-.71-3.11-3.66C25.81,11.33,27.34,9.27,28.08,6.91ZM20.13,5.83c3.31.86,4.67-2.35,7.23-3.33C23.69,1.13,21.43,2.21,20.13,5.83Z"
              style="fill:#222a47"/>
        <path d="M59.55,16.9c-.21,1.8,1.43,2.85,1.77,4.42C57.81,23,56.07,23,53.56,20.13c-1.7-1.92-3.61-2-5.62-1.44-1.26.33-2.5.27-3.73.48-1.92.32-3-.6-4-2.13-1.87-3.11-3-3.45-6.39-2.31-1.69.57-3.4,1.12-5.12,1.58S26.2,16,26.54,14.19a25.13,25.13,0,0,1,2.23-5.73c1-2.18,1.75-4.33.17-6.57,4.21-.51,4.9,0,5.41,4,1.6-.77.62-1.94.51-3.1A9.21,9.21,0,0,1,40.35,4.6c1.5,1,1.81,3.11,2.69,4.84.89-1.22-.13-2.16-.14-3.62,4.29,2.15,8.34,4,10.59,8.32.2.37.55,3.1,1.61.24.3-.84,1.25,1.13,2,.06Z"
              style="fill:#d4a6cd"/>
        <path d="M28.08,6.91c-.74,2.36-2.27,4.42-2.72,6.92-.52,3,.11,3.79,3.11,3.66,2.18-.1,4.12-1.06,6.13-1.78,1.5-.54,2.86-.92,4,.78,3.34,4.83,3.59,5,9,3.57,2.28-.61,3.88-.46,5.47,1.4a5.78,5.78,0,0,0,6.66,1.73c1.37-.49,2.14,0,3.07.87,6.8,6.42,10.2,14.68,12.67,23.42,1.84,6.51,3.16,13.11,2.83,20a14.17,14.17,0,0,1-1.06,4.7c-.27.68-.43,1.36-1.33,1.49S74.48,73.2,74,72.45a60,60,0,0,0-4.1-7c-4.8-6.29-11.29-9.94-18.76-12a77.26,77.26,0,0,0-17.09-2.28c-7.56-.35-15.07-1.68-21.86-5.1C4,42-2.28,33.07,3.55,21.63c4.8-9.42,13.12-13.31,22.91-15a4,4,0,0,1,1.09,0A2.12,2.12,0,0,1,28.08,6.91ZM19.66,36.45c2.68,1.87,4.34,1.81,6.08-.22-3.19.73-3.19.73-5.66-.3-.25-.66-.7-1.24-1.39-.86-1.49.83-2.77.36-4.2-.77.09,2,1.16,2.13,2.37,2.33C17.84,36.8,18.7,35.92,19.66,36.45Zm13.78-2a7.13,7.13,0,1,0,0-14.26c-3.53,0-6.77,3.66-6.7,7.52A6.67,6.67,0,0,0,33.44,34.47ZM5.79,24.24c-.07,3.6,2.33,6.33,5.56,6.31,3.51,0,6.86-3.7,7-7.68.12-3.41-2.33-6.31-5.33-6.32C9.28,16.53,5.88,20.15,5.79,24.24ZM53,36.49c1.06,4.16-.21,7.69-.68,11.3a6.14,6.14,0,0,0,3,6.2c1.17.74,2.5.95,3.42-.2,2-2.57,4.2-2.59,7-1.16,2,1,3.25-.07,3.32-2.34a7.75,7.75,0,0,0-.24-2.94c-.51-1.29-.2-1.87.91-2.61a3.27,3.27,0,0,0,1.26-4c-1.1-3.73-4.44-4.68-7.3-6.19-1-.55-2.44-1.57-3.39-.8-.7.57,0,2.08.39,3.14.64,1.9-.26,2.21-1.91,1.88C56.88,38.4,55.27,37.41,53,36.49Z"
              style="fill:#c3e4ed"/>
        <path d="M80.3,72.14c2.23,2,4.49,3.92,6.69,5.93a12.74,12.74,0,0,1,4.57,10.51c-.15,2.77-1.15,3.29-3.57,1.75-.84-.53-1.57-1.23-2.39-1.79-1.65-1.14-3.19-1.34-4.26.75-.85,1.66-1.81,1.3-3,.38-2.62-2-3.23-1.93-5.36.47a4.48,4.48,0,0,0-.71.81c-.8,1.55-2.11,2.91-3.74,2.47-2-.55-2.53-2.63-2.73-4.57-.35-3.38,1-6.37,2.32-9.32,1.16-2.61,2.68-5.06,3.14-8,2.17,1.58,1.86,3.11.6,5a15.05,15.05,0,0,0-2.94,8.87c1.57-2.87,2.66-6,4.44-8.72.38-.59.08-1.79,1.58-1.53s1,1.09,1.22,1.93a16.67,16.67,0,0,0,2,6.3c.18-2.91-.67-5-1-7.18A1.89,1.89,0,0,1,78.32,74c1-.45,1,.68,1.31,1.18,1.44,2.37,2.8,4.79,4.39,7.09-.17-3.73-2.22-6.64-4.21-9.58Z"
              style="fill:#d4a6cd"/>
        <path d="M20.13,5.83c1.3-3.62,3.56-4.7,7.23-3.33C24.8,3.48,23.44,6.69,20.13,5.83Z" style="fill:#d4a6cd"/>
        <path d="M79.81,72.7c-.54-.16-1.06-.34-.67-1.07a4,4,0,0,1,.5-.6l.66,1.11Z" style="fill:#d4a6cd"/>
        <path d="M33.44,34.47a6.67,6.67,0,0,1-6.69-6.74c-.07-3.86,3.17-7.5,6.7-7.52a7.13,7.13,0,1,1,0,14.26Zm2.41-6.64c.62-.66,2.11-.68,2-2A1.67,1.67,0,0,0,36,24,2,2,0,0,0,34.17,26C34,27.08,34.71,27.56,35.85,27.83Z"
              style="fill:#202845"/>
        <path d="M5.79,24.24c.09-4.09,3.49-7.71,7.23-7.69,3,0,5.45,2.91,5.33,6.32-.14,4-3.49,7.66-7,7.68C8.12,30.57,5.72,27.84,5.79,24.24Zm8.43-4.57c-.94.16-1.23.86-1.31,1.73-.1,1.06.65,1.19,1.39,1.19A1.32,1.32,0,0,0,15.71,21,1.4,1.4,0,0,0,14.22,19.67Z"
              style="fill:#202845"/>
        <path d="M53,36.49c2.26.92,3.87,1.91,5.74,2.28,1.65.33,2.55,0,1.91-1.88-.36-1.06-1.09-2.57-.39-3.14.95-.77,2.37.25,3.39.8,2.86,1.51,6.2,2.46,7.3,6.19a3.27,3.27,0,0,1-1.26,4c-1.11.74-1.42,1.32-.91,2.61A7.75,7.75,0,0,1,69,50.29c-.07,2.27-1.36,3.35-3.32,2.34-2.79-1.43-4.95-1.41-7,1.16-.92,1.15-2.25.94-3.42.2a6.14,6.14,0,0,1-3-6.2C52.8,44.18,54.07,40.65,53,36.49Zm4.53,10.57c0-2,0-3.52,0-5.06,0-2.32,0-2.32-2.52-2.82-.37,1.93-.79,3.86-1.1,5.8-.33,2.1-.79,4.22.38,6.26s2.83,2.53,4.31.93c2-2.11,4-2.5,6.49-1.17.65.34,1.56,1.13,2.4.2.7-.76.47-1.72.35-2.6a6.57,6.57,0,0,0-.57-2.06c-.62-1.15-.3-1.74.81-2.35,2.14-1.19,2.43-3,.8-4.77-2-2.2-4.68-3.1-7.35-4.07,1.08,1.56,3.12,2.17,3.84,4.23-1.57,0-2.15-1.32-3.33-1.73-.44,2.16,1.65,4,.73,6.42-.35-1-.4-2-.92-2.39s.32-2.13-1.65-1.68c-1.58.37-1.54,1.07-1.53,2.18C58.68,43.8,58.9,45.27,57.54,47.06Z"
              style="fill:#202845"/>
        <path d="M19.66,36.45c-1-.53-1.82.35-2.8.18-1.21-.2-2.28-.35-2.37-2.33,1.43,1.13,2.71,1.6,4.2.77.69-.38,1.14.2,1.39.86Z"
              style="fill:#202845"/>
        <path d="M20.08,35.93c2.47,1,2.47,1,5.66.3-1.74,2-3.4,2.09-6.08.22Z" style="fill:#202845"/>
        <path d="M35.85,27.83c-1.14-.27-1.81-.75-1.68-1.86A2,2,0,0,1,36,24a1.67,1.67,0,0,1,1.88,1.76C38,27.15,36.47,27.17,35.85,27.83Z"
              style="fill:#fff"/>
        <path d="M14.22,19.67A1.4,1.4,0,0,1,15.71,21a1.32,1.32,0,0,1-1.41,1.59c-.74,0-1.49-.13-1.39-1.19C13,20.53,13.28,19.83,14.22,19.67Z"
              style="fill:#fff"/>
        <path d="M57.54,47.06c1.36-1.79,1.14-3.26,1.14-4.68,0-1.11,0-1.81,1.53-2.18,2-.45,1.07,1.19,1.65,1.68s.57,1.41.92,2.39c.92-2.45-1.17-4.26-.73-6.42,1.18.41,1.76,1.71,3.33,1.73-.72-2.06-2.76-2.67-3.84-4.23,2.67,1,5.38,1.87,7.35,4.07,1.63,1.81,1.34,3.58-.8,4.77-1.11.61-1.43,1.2-.81,2.35a6.57,6.57,0,0,1,.57,2.06c.12.88.35,1.84-.35,2.6-.84.93-1.75.14-2.4-.2-2.53-1.33-4.54-.94-6.49,1.17-1.48,1.6-3.14,1.11-4.31-.93s-.71-4.16-.38-6.26c.31-1.94.73-3.87,1.1-5.8,2.47.5,2.49.5,2.52,2.82C57.56,43.54,57.54,45.08,57.54,47.06Zm8.15-7.34c-.21,1.06.46,1.21,1,1.85A1.63,1.63,0,0,0,65.69,39.72Z"
              style="fill:#d4a6cd"/>
        <path d="M65.69,39.72a1.63,1.63,0,0,1,1,1.85C66.15,40.93,65.48,40.78,65.69,39.72Z" style="fill:#202845"/>
    </g>
</svg>