<svg xmlns="http://www.w3.org/2000/svg" viewBox="0 0 88.66 83.39">
    <g>
        <path d="M65.52,71.17a37.72,37.72,0,0,1-20.85,11.5,37.62,37.62,0,0,1-32-8.3A33,33,0,0,1,.46,53.43c-1.9-12.75,2-23.63,11.82-32.22a37.8,37.8,0,0,1,21.63-9,3.47,3.47,0,0,0,2.82-2C41.08,3.47,46.93-.54,55.28.06c2.82.2,3.85,1.23,3.93,4.07.07,2.27-.06,4.53-.07,6.8,0,1.47.52,2.29,2.25,2.26,3.3,0,6.65,1.91,6,6.22a6.34,6.34,0,0,0,1.47,5.77A4.49,4.49,0,0,1,70,27.85c.28,5.92,4.4,10.79,4.49,16.78,0,1.34,1.2.53,1.9.42,2.74-.42,5.42-1.24,8.28-.37,1.73.53,3.34,1.2,3.85,2.93.57,2-.32,3.71-1.83,5.06a7,7,0,0,1-1.53,1.13C82.85,55,82,56.43,83.25,59c1,2.09.64,4.48.27,6.68a2.75,2.75,0,0,1-3,2.54c-1.56-.13-2.25.1-2.42,2.06-.24,2.73-1.53,5.41-4.56,6A5.81,5.81,0,0,1,66.82,73,15.45,15.45,0,0,0,65.52,71.17ZM7.6,28.61a2.76,2.76,0,0,0-.45.25,3.16,3.16,0,0,0-.54.62C.82,38.84-.34,48.7,3.41,59.11,8.88,74.29,26,84.18,43.46,81.41,60,78.78,75.21,63.64,72.79,44.09A33,33,0,0,0,61.65,22.87c-9.34-8.35-20.39-10.77-32.43-8.53a32.52,32.52,0,0,0-16.08,7.87c4.77.44,6.69,2,6.75,5.29s-2.55,6.54-5.6,6.93C10.43,34.93,8.77,33.49,7.6,28.61ZM69.22,66.7c-3,3.06-2.9,3-.85,6.19a4.49,4.49,0,0,0,4.4,2,3.63,3.63,0,0,0,3.33-2.79A22.27,22.27,0,0,0,77,68.45c.18-1.38,1-2,2.19-1.82,2.86.49,3.07-1.47,3.35-3.37a7.94,7.94,0,0,0-1-4.7c-1.18-2.34-.3-3.94,1.71-5.2.76-.48,1.54-1,2.25-1.51,1.19-.93,2.07-2.22,1.66-3.69a3.4,3.4,0,0,0-3.39-2.24,51.39,51.39,0,0,0-7,.36c-3,.33-2.45,2.12-2.36,3.84.15,2.52,1.68.4,2.53.6a14.59,14.59,0,0,0,3.19.05c-1.65,2.35-5.6-.4-6.47,3.84-.6,2.94.17,4.62,2.43,6.23a3,3,0,0,1-1.58-.41c-1.62-1.29-2.16-.44-2.91,1.08-1.19,2.42-2.17,4.65,0,7,.07.08-.11.39-.2.7A7.61,7.61,0,0,1,69.22,66.7ZM66.43,24.61c-.57-1.78-1-3.12-.62-4.61.84-3.46-.49-5.14-4-5.23-2.79-.07-4.14-1.33-4.23-4.09a23,23,0,0,1,.18-3.52c.61-5.1-.33-6.19-5.41-6a10.21,10.21,0,0,0-3.16.58c-5.1,2-9.43,4.89-12,10a75,75,0,0,1,7.47,1.29c1,.28,1.47-.91,2.4-.42,4.53,2.44,9,5.21,14.25,5.72-.3.49-1.38.18-1.54,1.22C62.2,20.69,63.44,23.44,66.43,24.61Z"
              style="fill:#202845"/>
        <path d="M7.6,28.61c1.17,4.88,2.83,6.32,6.69,5.82,3.05-.39,5.65-3.61,5.6-6.93s-2-4.85-6.75-5.29a32.52,32.52,0,0,1,16.08-7.87c12-2.24,23.09.18,32.43,8.53A33,33,0,0,1,72.79,44.09C75.21,63.64,60,78.78,43.46,81.41,26,84.18,8.88,74.29,3.41,59.11-.34,48.7.82,38.84,6.61,29.48a3.16,3.16,0,0,1,.54-.62A2.76,2.76,0,0,1,7.6,28.61Zm23.55,20c4.61,0,8.74-3.7,8.88-8,.12-3.69-3.11-6.73-7.17-6.76-4.61,0-8.62,3.76-8.63,8.14C24.23,45.83,27.13,48.6,31.15,48.62Zm16.27,1.72c3.49,4.91,3.52,5-1.51,7.48a1.59,1.59,0,0,0-.94,2,39.23,39.23,0,0,0,1.2,6c.45,1.43,1.34,2.81,3.11,3,2,.19,2.92-1.27,3.73-2.66.36-.62.3-1.24,1.34-1.23a2.22,2.22,0,0,0,2.19-2.79c-.3-2,.39-2.56,2.25-3.27,3.62-1.39,4-3.36,1.37-5.73C56.52,49.82,52.19,50.12,47.42,50.34ZM9.34,41.62c-.66,2.91.17,4.48,2.84,4.69,1.2.09,1.48.25,1.86,1.44.85,2.73,2.59,3.09,4.72,1-2.66.25-4-.63-3.86-3.41.06-1.19-1.07-.37-1.67-.29-1.75.25-3-.13-3.15-2.2C10.05,42.32,10.06,41.75,9.34,41.62Z"
              style="fill:#c3e4ed"/>
        <path d="M69.22,66.7a7.61,7.61,0,0,0,2.18,2.53c.09-.31.27-.62.2-.7-2.16-2.37-1.18-4.6,0-7,.75-1.52,1.29-2.37,2.91-1.08a3,3,0,0,0,1.58.41c-2.26-1.61-3-3.29-2.43-6.23.87-4.24,4.82-1.49,6.47-3.84A14.59,14.59,0,0,1,77,50.72c-.85-.2-2.38,1.92-2.53-.6-.09-1.72-.59-3.51,2.36-3.84a51.39,51.39,0,0,1,7-.36,3.4,3.4,0,0,1,3.39,2.24c.41,1.47-.47,2.76-1.66,3.69-.71.55-1.49,1-2.25,1.51-2,1.26-2.89,2.86-1.71,5.2a7.94,7.94,0,0,1,1,4.7c-.28,1.9-.49,3.86-3.35,3.37-1.16-.2-2,.44-2.19,1.82a22.27,22.27,0,0,1-.88,3.67,3.63,3.63,0,0,1-3.33,2.79,4.49,4.49,0,0,1-4.4-2C66.32,69.71,66.25,69.76,69.22,66.7Z"
              style="fill:#d4a6cd"/>
        <path d="M66.43,24.61c-3-1.17-4.23-3.92-6.65-5,.16-1,1.24-.73,1.54-1.22-5.3-.51-9.72-3.28-14.25-5.72-.93-.49-1.37.7-2.4.42a75,75,0,0,0-7.47-1.29c2.59-5.12,6.92-8,12-10a10.21,10.21,0,0,1,3.16-.58c5.08-.21,6,.88,5.41,6a23,23,0,0,0-.18,3.52c.09,2.76,1.44,4,4.23,4.09,3.48.09,4.81,1.77,4,5.23C65.44,21.49,65.86,22.83,66.43,24.61ZM49.24,10.14c-1.39.45-2,.93-2.16,2.23A3.21,3.21,0,0,0,49.24,10.14Zm1.06-.48c-.19-.13-.36-.31-.43-.28a2.61,2.61,0,0,0-.48.41c.11.09.26.26.33.24A3.49,3.49,0,0,0,50.3,9.66Z"
              style="fill:#d4a6cd"/>
        <path d="M31.15,48.62c-4,0-6.92-2.79-6.92-6.62,0-4.38,4-8.16,8.63-8.14,4.06,0,7.29,3.07,7.17,6.76C39.89,44.92,35.76,48.64,31.15,48.62Zm6.2-8.54c-.07-.66-.43-1.31-1.29-1.24a1.77,1.77,0,0,0-1.68,2,1.18,1.18,0,0,0,1.45,1.19C37,41.94,37.31,41.22,37.35,40.08Z"
              style="fill:#202845"/>
        <path d="M47.42,50.34c4.77-.22,9.1-.52,12.74,2.75,2.64,2.37,2.25,4.34-1.37,5.73-1.86.71-2.55,1.24-2.25,3.27a2.22,2.22,0,0,1-2.19,2.79c-1,0-1,.61-1.34,1.23-.81,1.39-1.77,2.85-3.73,2.66-1.77-.17-2.66-1.55-3.11-3a39.23,39.23,0,0,1-1.2-6,1.59,1.59,0,0,1,.94-2C50.94,55.31,50.91,55.25,47.42,50.34ZM51,53.49a3,3,0,0,1-.14,3.35c-2.62.39-1.33,2.3-1.53,3.57-.1.66-.08,1.34-.12,2.13a3.34,3.34,0,0,1-1-2.82c0-.51.25-1.53-.9-1-.49.21-1.51.25-1.17,1.14.82,2.11.6,4.49,1.72,6.5.9,1.61,2.07,1.67,3.2.35s1.24-3.92,4-3.57a2.74,2.74,0,0,0,.26-1.23c-.37-2.55.62-3.69,3.23-4.19,2.43-.48,2.64-2.1.69-3.79A10.9,10.9,0,0,0,50,51.48c.1,1.68,1.32,1.38,2.22,1.43a3.93,3.93,0,0,1,2.94.93C53.83,54.52,52.67,53.64,51,53.49Z"
              style="fill:#202845"/>
        <path d="M9.34,41.62c.72.13.71.7.74,1.25.11,2.07,1.4,2.45,3.15,2.2.6-.08,1.73-.9,1.67.29-.15,2.78,1.2,3.66,3.86,3.41-2.13,2.07-3.87,1.71-4.72-1-.38-1.19-.66-1.35-1.86-1.44C9.51,46.1,8.68,44.53,9.34,41.62Z"
              style="fill:#222a47"/>
        <path d="M49.24,10.14a3.21,3.21,0,0,1-2.16,2.23C47.25,11.07,47.85,10.59,49.24,10.14Z" style="fill:#202845"/>
        <path d="M50.3,9.66a3.49,3.49,0,0,1-.58.37c-.07,0-.22-.15-.33-.24a2.61,2.61,0,0,1,.48-.41C49.94,9.35,50.11,9.53,50.3,9.66Z"
              style="fill:#202845"/>
        <path d="M37.35,40.08c0,1.14-.37,1.86-1.52,2a1.18,1.18,0,0,1-1.45-1.19,1.77,1.77,0,0,1,1.68-2C36.92,38.77,37.28,39.42,37.35,40.08Z"
              style="fill:#fff"/>
        <path d="M51,53.49c1.67.15,2.83,1,4.11.35a3.93,3.93,0,0,0-2.94-.93c-.9,0-2.12.25-2.22-1.43a10.9,10.9,0,0,1,9.25,2.4c1.95,1.69,1.74,3.31-.69,3.79-2.61.5-3.6,1.64-3.23,4.19A2.74,2.74,0,0,1,55,63.09c-2.74-.35-2.81,2.2-4,3.57s-2.3,1.26-3.2-.35c-1.12-2-.9-4.39-1.72-6.5-.34-.89.68-.93,1.17-1.14,1.15-.48.89.54.9,1a3.34,3.34,0,0,0,1,2.82c0-.79,0-1.47.12-2.13.2-1.27-1.09-3.18,1.53-3.57A3,3,0,0,0,51,53.49Zm1.44,4.6c-.28.23-.49.4-.27.66a1.47,1.47,0,0,0,.58.51c.35.11.39-.26.3-.43A3.87,3.87,0,0,0,52.44,58.09Z"
              style="fill:#d4a6cd"/>
        <path d="M52.44,58.09a3.87,3.87,0,0,1,.61.74c.09.17.05.54-.3.43a1.47,1.47,0,0,1-.58-.51C52,58.49,52.16,58.32,52.44,58.09Z"
              style="fill:#202845"/>
    </g>
</svg>