<svg xmlns="http://www.w3.org/2000/svg" viewBox="0 0 53.25 55.87">
    <g>
        <path d="M14.46,11.59c-.6-.71.12-1.07.5-1.11A52.2,52.2,0,0,1,25,10c1.68.14,4.2.83,5.61-2.5C34.14-.85,44.91-2.53,50.39,4a13.7,13.7,0,0,1,.32,16.34c-3.37,4.71-9.14,6.69-14,4.8-3.21-1.25-5.84-3.48-6.49-6.78-.71-3.6-3.66-2.53-5.57-3.39s-4.24.4-6.54,0c-3.31-.57-7.84,4.9-7.88,8.6,0,2,1,3.49,1.81,5.35.51-.7,1-1.39,1.47-2,2.42-2.82,4.7-2.44,6,1a2.41,2.41,0,0,0,2.3,1.6c.62,0,1.68-.06,1.65.56-.15,2.52,2.33,3.86,2.55,6.13.28,2.79,2.61,3.41,4.55,4.36a6,6,0,0,0,5.69-.37c.79-.44.6-1.3.44-2.19-.45-2.36-1-4.76-.23-7.16.6-1.93,2.17-2.59,3.4-1.23s1.87.85,3,.35c2.35-1,3.18-.58,3.31,1.88.06,1,.31,1.51,1.2,1.79,2.43.78,1.69,2.38.87,3.82a12.59,12.59,0,0,1-2,2.2,42.1,42.1,0,0,0-6.44,8.73c-2.84,5.19-8.35,6.5-13.55,7.13-6.9.84-13.79.59-20.11-3.38C-1.51,47.32-2.11,38.63,4.91,33c1.12-.92,2-2.27,3.83-2.34,1.44-.06,2.18-1.13,1.78-2.68-.49-1.86-2-1.14-3.13-1.11-1.73.05-1.19,1.38-1,2.4.06.42.16.83.26,1.34-2.83-2.27,0-12.45,4.64-17.44.67.21.4.6.22,1-.51,1.18.68,1.45,1.15,2.11.26-.21.77-.48.73-.62a8.28,8.28,0,0,0-.82-2.28c-.22-.38-.95.56-1.33-.18a3.41,3.41,0,0,1,3.32-1.64A5.32,5.32,0,0,1,15.87,15C17.33,12.29,16.94,11.59,14.46,11.59Zm6.62,43c3.79.16,7.58-.88,11.33-2.16,5.12-1.74,9.71-8.5,9.38-13.82,0-.69.15-1.65-.74-1.82-.61-.11-1,.64-1.35,1.19-3,5-8.12,5.92-12.56,2.19C25.69,39,24.37,37.57,23,36.25c-5.92-5.7-10.48-6.95-17.19-2.41-.89.6-1.11,1-.62,2.1a3,3,0,0,1-2.47,4.38c-1.4.21-1.37.89-1.31,1.77a10.26,10.26,0,0,0,4.85,8.52A26.46,26.46,0,0,0,21.08,54.58ZM39.87,23c5.4.42,11.43-4.69,11.71-11.38C51.78,6.83,47,2.1,41.89,2.3A11.58,11.58,0,0,0,30.87,14C31.07,19.31,34.54,22.94,39.87,23Zm2.92,18c1.94-.74,2.55-2.39,3.78-3.43,1.52-1.3,1.78-2.45-.47-3.23-1.11-.38-1.09-1.3-1-2.22.11-1.42-.36-1.86-1.69-1.1-1.53.88-3,1.23-4.29-.5-.74-1-1.42-.1-1.51.55a15.44,15.44,0,0,0,.36,7.16c1.7-1.37.41-3.26,1.48-4.8l.4,2.21c1.86-.19,1.6-2.25,3.4-2.82C41.16,35.67,45.34,38.19,42.79,41ZM17.46,27.37c.47,1.31-1.9,2-.77,2.92a4.57,4.57,0,0,0,3.36,1.31c.5-.08,1.41-.4,1.21.27-.58,1.85,1.08,1.37,1.64,2.17-.16-1.86.22-3.81-2.59-3.69-.81,0-1.72-1-2-2.28C17.9,26,16.67,25.64,15,27a6,6,0,0,0-1.84,2.88C15.65,31,15.53,27.62,17.46,27.37ZM29.22,12.24a1.43,1.43,0,0,0-1.51-1.71c-1.89,0-1,1.87-1.46,2.85-.52,1.14,1.08,1.34,1.38,1.28A2.12,2.12,0,0,0,29.22,12.24Zm-10.53-1.1c1.56.16-1.28,3.17,1.42,3,1.78-.12.38-1.72.49-2.55C20.88,9.42,18.85,12,18.69,11.14Zm3.85-.69c.85,1.31-.61,3,1.13,3.67.66.28.51-.67.72-1.1C25.11,11.54,24.62,10.8,22.54,10.45Z"
              style="fill:#202845"/>
        <path d="M21.08,54.58a26.46,26.46,0,0,1-14.81-4,10.26,10.26,0,0,1-4.85-8.52c-.06-.88-.09-1.56,1.31-1.77A3,3,0,0,0,5.2,35.94c-.49-1.14-.27-1.5.62-2.1C12.53,29.3,17.09,30.55,23,36.25c1.36,1.32,2.68,2.7,4.13,3.91C31.58,43.89,36.68,43,39.7,38c.33-.55.74-1.3,1.35-1.19.89.17.7,1.13.74,1.82.33,5.32-4.26,12.08-9.38,13.82C28.66,53.7,24.87,54.74,21.08,54.58Zm-4.51-5.89c.68.67-.73,2.33,1.16,2.72,1.47.29,2.47-.2,2.82-1.68.16-.68.58-.45,1-.5,4.1-.42-.78-4.55,2.23-5.53.23-.07,0-1.06-.51-1.36A5.38,5.38,0,0,0,22,41.9c-2.33-.59-3.5.2-3.66,2.52a1.52,1.52,0,0,1-.71,1.37C16.45,46.38,16.59,47.46,16.57,48.69ZM10.44,36.51a3,3,0,0,0-2.9,3.07,2.69,2.69,0,0,0,3,3c2.07,0,3.4-1,3.47-3.23C14.08,37.42,13.1,36.54,10.44,36.51Zm-3.17,7.3c-1.66.56-2.82-3.26-4.94-.44C4.07,43.44,5.46,44.77,7.27,43.81Z"
              style="fill:#c3e4ed"/>
        <path d="M39.87,23c-5.33,0-8.8-3.64-9-8.93a11.58,11.58,0,0,1,11-11.72c5.06-.2,9.89,4.53,9.69,9.27C51.3,18.26,45.27,23.37,39.87,23Z"
              style="fill:#fff"/>
        <path d="M42.79,41c2.55-2.78-1.63-5.3.43-8.18-1.8.57-1.54,2.63-3.4,2.82l-.4-2.21c-1.07,1.54.22,3.43-1.48,4.8A15.44,15.44,0,0,1,37.58,31c.09-.65.77-1.51,1.51-.55,1.32,1.73,2.76,1.38,4.29.5,1.33-.76,1.8-.32,1.69,1.1-.06.92-.08,1.84,1,2.22,2.25.78,2,1.93.47,3.23C45.34,38.58,44.73,40.23,42.79,41Z"
              style="fill:#d4a6cd"/>
        <path d="M17.46,27.37c-1.93.25-1.81,3.59-4.34,2.49A6,6,0,0,1,15,27c1.71-1.34,2.94-1,3.37,1.09.26,1.24,1.17,2.32,2,2.28,2.81-.12,2.43,1.83,2.59,3.69-.56-.8-2.22-.32-1.64-2.17.2-.67-.71-.35-1.21-.27a4.57,4.57,0,0,1-3.36-1.31C15.56,29.4,17.93,28.68,17.46,27.37Z"
              style="fill:#d4a6cd"/>
        <path d="M29.22,12.24a2.12,2.12,0,0,1-1.59,2.42c-.3.06-1.9-.14-1.38-1.28.43-1-.43-2.82,1.46-2.85A1.43,1.43,0,0,1,29.22,12.24Z"
              style="fill:#fff"/>
        <path d="M18.69,11.14c.16.86,2.19-1.72,1.91.43-.11.83,1.29,2.43-.49,2.55C17.41,14.31,20.25,11.3,18.69,11.14Z"
              style="fill:#fff"/>
        <path d="M22.54,10.45c2.08.35,2.57,1.09,1.85,2.57-.21.43-.06,1.38-.72,1.1C21.93,13.4,23.39,11.76,22.54,10.45Z"
              style="fill:#fff"/>
        <path d="M11.2,13.17c.38.74,1.11-.2,1.33.18a8.28,8.28,0,0,1,.82,2.28c0,.14-.47.41-.73.62-.47-.66-1.66-.93-1.15-2.11.18-.41.45-.8-.22-1Z"
              style="fill:#fff"/>
        <path d="M14.46,11.59c2.48,0,2.87.7,1.41,3.38a5.32,5.32,0,0,0-1.35-3.44Z" style="fill:#fff"/>
        <path d="M16.57,48.69c0-1.23-.12-2.31,1.1-2.9a1.52,1.52,0,0,0,.71-1.37c.16-2.32,1.33-3.11,3.66-2.52a5.38,5.38,0,0,1,1.24.44c.54.3.74,1.29.51,1.36-3,1,1.87,5.11-2.23,5.53-.43.05-.85-.18-1,.5-.35,1.48-1.35,2-2.82,1.68C15.84,51,17.25,49.36,16.57,48.69Zm2.84-2.77c-1.57.35-.68,2-1.52,2.85-.41.39-.29,1.56.17,1.7,1.92.58,1.05-3.84,3.75-2.2.11-.31.39-.84.3-.91-2-1.6-.55-2.79.73-4-2.24-.55-3.68-.48-2.95,2.2Z"
              style="fill:#222a47"/>
        <path d="M10.44,36.51c2.66,0,3.64.91,3.58,2.84-.07,2.25-1.4,3.2-3.47,3.23a2.69,2.69,0,0,1-3-3A3,3,0,0,1,10.44,36.51Z"
              style="fill:#202845"/>
        <path d="M7.27,43.81c-1.81,1-3.2-.37-4.94-.44C4.45,40.55,5.61,44.37,7.27,43.81Z" style="fill:#2b3754"/>
        <path d="M19.89,45.53c-.73-2.68.71-2.75,2.95-2.2-1.28,1.24-2.71,2.43-.73,4,.09.07-.19.6-.3.91-2.7-1.64-1.83,2.78-3.75,2.2-.46-.14-.58-1.31-.17-1.7.84-.82-.05-2.5,1.52-2.85.27.35.49,1.08,1,.6C20.8,46.19,20.19,45.82,19.89,45.53Z"
              style="fill:#d4a6cd"/>
        <path d="M19.89,45.53c.3.29.91.66.54,1-.53.48-.75-.25-1-.6Z" style="fill:#222a47"/>
    </g>
</svg>