<svg xmlns="http://www.w3.org/2000/svg" viewBox="0 0 600 1200">
    <g id="Ears4" style="fill:none">
        <path d="M333.15,113.27c-.75-.15-1.61-.61-2.22-.39a7.25,7.25,0,0,1-9.9-7.58c1.13-9.24,4.14-17.68,12.48-23.15,1.66-1.09,3.11-2.62,4.9-3.39a38.18,38.18,0,0,1,7.92-2.35c2.65-.49,5.4-.4,8.09-.71A11.5,11.5,0,0,1,363,78.37c1.12.86,2.47,1.41,3.66,2.19,1.86,1.23,4.38,2.13,5.38,3.88,3.22,5.64,7.48,11,6.56,18.25-.33,2.58.09,5.25.08,7.88a5.37,5.37,0,0,1-.42,2.37c-4.29,8.19-8.27,16.44-18.33,19.59-4.06,1.27-7.56,2-11.49.42-3.44-1.42-4.21-2.7-3.74-6.51.05-.44,0-.9,0-1.35l2.7-3.81c0,1.8.59,2.33,2.52,1.85a21,21,0,0,0,10.88-5.92c2.67-2.81,3.59-5.85,4.1-9.37.66-4.62-1.93-8-4.43-11.29a14.29,14.29,0,0,0-4.5-4.06c-5.48-2.83-10.83-1.49-16,1.19-5.76,3-8.89,11.14-6.74,17.34Z"
              class="ears0"/>
        <path d="M252.94,123.69c.05,1.08,0,2.17.16,3.24.52,3.73-1.58,6.46-5.28,7.54-4.53,1.32-8.4-.1-12.11-2.34-2.94-1.77-5.74-3.8-8.6-5.7a15.32,15.32,0,0,1-6.71-9c-.86-3.22-2-6.48-2.15-9.77-.53-10.87,4.58-19.42,12.3-26.43,3.91-3.56,9.27-4.27,14.32-5.49,8.35-2,14.65,2.46,20.78,6.62,2.89,2,4.51,5.78,6.7,8.75a7.65,7.65,0,0,0,1.33,1.72c5.13,3.81,5.54,8.84,3.55,14.34-1.12,3.1-4.49,6.3-10.47,5a39.74,39.74,0,0,0-.64-5.9c-3.08-12-9.3-16.78-20.49-15.35a14.47,14.47,0,0,0-10.69,6.25c-4.45,7-3,17.65,3.3,23.16a4.57,4.57,0,0,0,2.07,1.24c3.35.53,6.74.9,10.11,1.32Z"
              class="ears0"/>
        <path d="M250.42,122.93c-3.37-.42-6.76-.79-10.11-1.32a4.57,4.57,0,0,1-2.07-1.24c-6.27-5.51-7.75-16.16-3.3-23.16A14.47,14.47,0,0,1,245.63,91c11.19-1.43,17.41,3.33,20.49,15.35a39.74,39.74,0,0,1,.64,5.9l-1.3,2c-1.36-3.11-2.66-6.24-4.12-9.3-.3-.62-1.23-.93-1.87-1.39-.34.65-.71,1.28-1,2s-.52,1.43-.78,2.13l-4.59-1.79,1.14,4.92-1.14.67-8.71-7.62-1,.69,3.46,6.86c-1.16.78-2.69,1.24-2.94,2.08-.67,2.27,1.39,5.5,3.87,6.33C249.49,120.27,250.48,121.11,250.42,122.93Z"
              class="skins0"/>
        <path d="M347.43,121.28l-2.7,3.81c-7.23.09-11.32-4.09-11.58-11.82,0-.75.09-1.5.13-2.25a54.36,54.36,0,0,1,3.55-5.34c.79-.94,2.14-1.42,3.23-2.11.11,1.13.2,2.26.32,3.39a3.79,3.79,0,0,0,.3.72c.52-.15,1.08-.28,1.62-.47.86-.29,1.7-.64,2.55-1-.15,1-.28,2-.47,2.92a9.5,9.5,0,0,1-.77,1.63c4.94-1.93,8.73-4.21,10.78-8.89l1.14,1-5,9.53c.19,0,.53.09.87.12l3.44.34c-.59,1.7.8,4-1.27,5.19S349.49,120.22,347.43,121.28Z"
              style="fill:#a57d66"/>
        <path d="M250.42,122.93c.06-1.82-.93-2.66-2.6-3.21-2.48-.83-4.54-4.06-3.87-6.33.25-.84,1.78-1.3,2.94-2.08l-3.46-6.86,1-.69,8.71,7.62,1.14-.67-1.14-4.92,4.59,1.79c.26-.7.47-1.44.78-2.13s.66-1.31,1-2c.64.46,1.57.77,1.87,1.39,1.46,3.06,2.76,6.19,4.12,9.3-1.82,2.84-3.2,6.17-5.62,8.34-1.47,1.32-4.55.84-6.9,1.17Z"
              style="fill:#a57d66"/>
        <path d="M347.43,121.28c2.06-1.06,4.17-2,6.15-3.21s.68-3.49,1.27-5.19l-3.44-.34c-.34,0-.68-.09-.87-.12l5-9.53-1.14-1c-2.05,4.68-5.84,7-10.78,8.89a9.5,9.5,0,0,0,.77-1.63c.19-1,.32-1.94.47-2.92-.85.32-1.69.67-2.55,1-.54.19-1.1.32-1.62.47a3.79,3.79,0,0,1-.3-.72c-.12-1.13-.21-2.26-.32-3.39-1.09.69-2.44,1.17-3.23,2.11a54.36,54.36,0,0,0-3.55,5.34c-2.15-6.2,1-14.34,6.74-17.34,5.15-2.68,10.5-4,16-1.19a14.29,14.29,0,0,1,4.5,4.06c2.5,3.31,5.09,6.67,4.43,11.29-.51,3.52-1.43,6.56-4.1,9.37A21,21,0,0,1,350,123.13C348,123.61,347.4,123.08,347.43,121.28Z"
              class="skins0"/>
        <path d="M254.85,126.25c.55,5.23-.55,7.78-5.4,9.28-2.17.66-4.82.28-7.15-.17-15.7-3-27-19.55-24.29-35.48,2.61-15.58,13.35-25.81,28.93-26.39s28.13,10.63,31.19,24.85a30.57,30.57,0,0,1,.62,6.75c-.11,7-5.28,10.61-11.81,8.78-1.39,2.63-2.29,5.63-4.22,7.64S257.85,124.52,254.85,126.25ZM248.7,76.49a73.19,73.19,0,0,0-8.76,1.67c-12.53,4-20.51,16.88-18.77,30s13.17,24.26,25.93,25.05a5.1,5.1,0,0,0,5.19-3.23c1.54-3.28.41-4.82-3.22-4.92a21.82,21.82,0,0,1-4.56-.58,18.25,18.25,0,0,1-13.33-15.8,17.42,17.42,0,0,1,10-17.47,18.28,18.28,0,0,1,20.17,3.08,16.57,16.57,0,0,1,5.4,14.44c-.23,2,.05,3.27,2.36,3.67,3.15.55,6.57-2,6.49-5.09,0-1.28-.08-2.55-.13-3.82A28.7,28.7,0,0,0,248.7,76.49Zm16.21,32.62c1.33-7.12-3.63-13.76-9.1-16.22-6.15-2.76-13.61-1.43-18,3.28a15.74,15.74,0,0,0-2.21,18.4c3,5.33,9.1,8.67,14.69,7.64-2.5-1.22-4.66-2.2-6.74-3.33-1.83-1-2-2.17-.31-3.17l-1.35-3.1,4.16-1.48c-4.24-7.76-4.61-9.21-2.52-11.22,2.5,4.19,4.81,8.6,10.07,10.41l-1.8-5.06.81-.74,5.42,2.78a7.89,7.89,0,0,1-.35-1.32c-.08-1-.08-2.1-.11-3.15,1.22.37,2.77.4,3.58,1.19A36.78,36.78,0,0,1,264.91,109.11Zm-15.54,3.49c-.09.31-.19.63-.28,1l-5.23-.26c1.07.95,2.12,1.53,2.55,2.41.25.53-.48,1.53-.64,2,2.17,1.52,4.37,3.27,6.79,4.63,1.1.62,3,1,3.94.53a17.4,17.4,0,0,0,6-4.58c3.13-4.29.77-12.17-3.85-13.91a10.46,10.46,0,0,1,.85,2.57,9,9,0,0,1-.54,2.42,10.82,10.82,0,0,1-2.39-.68,11.57,11.57,0,0,1-1.92-1.6,2,2,0,0,0,.09,1.48c.26,1,.47,1.94.7,2.91a11.89,11.89,0,0,1-3.54.2A7.52,7.52,0,0,1,249,109.8c-1.1-1-2-2.15-3-3.24l-.56.49Z" style="fill:#000"/>
        <path d="M343.55,125.38c-6.94-1.16-9.68-3.89-11.52-11.09-2.17-.16-4.29,0-6.16-.54-5-1.58-6.11-3.22-6.28-8.49-.51-15.22,11.66-29.61,26.53-31.43,12.3-1.52,22.24,2.61,29.18,12.85,7.3,10.78,7.09,22.19,1.15,33.49-5,9.47-13.28,14.37-23.69,15.78C346.34,136.82,343,132.9,343.55,125.38Zm-20.74-19.53c-.21,4.51,0,4.82,3.73,6.16s5.26.2,5-3.67a17.38,17.38,0,0,1,10.77-17.5,18.16,18.16,0,0,1,20.39,4.52,17.23,17.23,0,0,1,2.65,19.69c-3.45,6.56-9,10-16.49,10.12-1.07,0-2.77.55-3.07,1.29-1.24,3,1.72,6.89,5.05,6.75a23.65,23.65,0,0,0,5.08-.84,28.69,28.69,0,0,0,20.92-33c-2.82-15.75-18.6-25.9-33.6-21.62C331.16,81.19,323.46,91.78,322.81,105.85Zm25.1,16.48a15.29,15.29,0,0,0,16.81-15.1c.1-9.69-7.34-16.31-16.27-15.81-10.94.61-16.71,10.79-14.84,17.93a12.66,12.66,0,0,1,.71-1.24,44.8,44.8,0,0,1,3.79-4.83c.53-.53,1.81-.3,2.75-.42a19.9,19.9,0,0,1,0,2.44,20.89,20.89,0,0,1-.63,2.48c2.13-1.54,3.48-3.62,6.42-2.39l-2,5c5.4-1.82,7.62-6.35,10.44-10.81,1.93,2.53.51,4.5-.15,6.32a44.67,44.67,0,0,1-2.65,5.28l4.05,1.32-1.18,3.34c1.52.81,1.55,2-.23,3C352.82,120,350.59,121,347.91,122.33Zm-8.61-18-.52-.44c-1.13,1.86-2.18,3.77-3.4,5.57-3.24,4.76,1.18,13.06,7.05,13.6a4.67,4.67,0,0,0,2.46-.41c2.61-1.39,5.14-2.93,7.7-4.42a2.09,2.09,0,0,0,.4-.34c-3.17-2.51.94-3,1.21-4.71h-5.57L353,107l-.54-.44a16.21,16.21,0,0,1-1.91,2.2,20.35,20.35,0,0,1-4.4,3c-.86.38-2.16-.25-3.26-.42.22-.9.4-1.81.66-2.69a8.05,8.05,0,0,1,.55-1.24l-4.75,1.86Z" style="fill:#000"/>
    </g>
</svg>