<svg xmlns="http://www.w3.org/2000/svg" viewBox="0 0 600 1200">
    <g id="Ears0" style="fill:none">
        <path d="M232,108.75c-.43-7.2,4.23-11.81,9.57-16.06a25.38,25.38,0,0,1,16.79-5.32c2.45.06,4.92,1.84,7.28,3A30.14,30.14,0,0,1,269.08,93a10.83,10.83,0,0,1,4.82,8.37c1.15,12.52-5.41,20.64-15.34,26.59-6.14,3.67-14.32,2.14-19.28-3C235,120.56,231.64,115.69,232,108.75Z"
              class="ears0"/>
        <path d="M350.21,87.51l7.88,3c1,.37,2,.73,3.07,1,6.26,1.93,10.16,7.78,10.44,14.3.14,3.4.31,6.64-.63,10-3.28,11.49-15.47,14.39-23.54,12.07-9.91-2.86-16.25-9-17.79-19.39a14.49,14.49,0,0,1,.95-8.14c3.9-7.82,10.21-12.34,19.34-12Z"
              class="ears0"/>
        <path d="M352.42,129.66a25.7,25.7,0,0,1-25.32-23.79c-.57-8.71,4.56-16.94,14.92-19.39,13.83-3.26,30.15,5.7,31.86,22.08,1.08,10.35-6.2,19.63-18,20.9C355,129.56,354.1,129.57,352.42,129.66Zm-3.83-39.57c-11.13-.14-18.8,8-16.89,18,2.11,11,14.3,19,25.26,16.68,8.42-1.79,13.05-7.9,12.45-16.43C368.74,98.93,358.81,90.23,348.59,90.09Z"
              style="fill:#000"/>
        <path d="M250.53,130.2c-11.13-.08-19.14-6.84-20.58-17.67-.68-5.13,1-9.84,3.76-14.13,6-9.23,18-14,28.46-11.36,14.18,3.59,19.11,20,9.74,32.51A27.33,27.33,0,0,1,250.53,130.2Zm3.8-39.63c-7.72.52-14.36,4.69-18.29,12.62-4.86,9.82.15,20,10.83,22,9.1,1.72,16.43-1.77,21.83-9,3.86-5.18,5.11-11.07,2.05-17.11S262.14,90.66,254.33,90.57Z"
              style="fill:#000"/>
    </g>
</svg>