<svg xmlns="http://www.w3.org/2000/svg" viewBox="0 0 15.58 14.7">
    <style>
        g {fill: #876d65}
    </style>
    <g>
        <path d="M11.73,13.49a4.59,4.59,0,0,1,1.35-.89,5,5,0,0,1,.63-1.13A4.88,4.88,0,0,1,14.42,10C17,6.17,15,1.1,11,.22A8.13,8.13,0,0,0,2,4.07,4,4,0,0,1,1.1,5.13,3.81,3.81,0,0,1,.68,6.79a3.48,3.48,0,0,1-.24.52,2,2,0,0,1-.06.32c.24.36.24,1-.15,1.94A3.64,3.64,0,0,0,1.94,14c1.26.7,3.13,1.34,4.13-.81a.83.83,0,0,1,.55-.4,7.18,7.18,0,0,1,4.24,1.05A4.27,4.27,0,0,1,11.73,13.49Zm-4.8-2c-1.12-.95-.78-1.93-.21-3.13C7.41,7,9.19,6.6,10,4.8,6.34,5.58,4.86,7.34,4.45,11c-.07.66.19,1.64-.91,1.59a1.75,1.75,0,0,1-1.75-1.41c-.95-3.81,3.1-9.3,6.93-9.37,2.06,0,3.69.5,4.57,2.61s.18,4.05-1.22,5.72a8.76,8.76,0,0,1-1.89,1.52A2.49,2.49,0,0,1,6.93,11.54Z"
              style="fill:#4b3d3a"/>
        <path d="M10,4.8C6.34,5.58,4.86,7.34,4.45,11c-.07.66.19,1.64-.91,1.59a1.75,1.75,0,0,1-1.75-1.41c-.95-3.81,3.1-9.3,6.93-9.37,2.06,0,3.69.5,4.57,2.61s.18,4.05-1.22,5.72a8.76,8.76,0,0,1-1.89,1.52,2.49,2.49,0,0,1-3.25-.13c-1.12-.95-.78-1.93-.21-3.13C7.41,7,9.19,6.6,10,4.8Z"
              class="ears0"/>
    </g>
</svg>