<svg xmlns="http://www.w3.org/2000/svg" viewBox="0 0 17.34 15.63">
    <style>
        g {fill: #876d65}
    </style>
    <g>
        <path d="M16.13,12.31a3.28,3.28,0,0,1,.27-.38,4.22,4.22,0,0,1,.37-1.52A6.7,6.7,0,0,0,15.2,2.74,8.37,8.37,0,0,0,7.12.2C5.53.5,4.24,1.67,2.72,2a4.4,4.4,0,0,1-.59.63l0,0A5.22,5.22,0,0,1,1,4C.21,6-.38,7.81.3,9.8,2.08,15.1,8,17.23,13.42,14.33c.61-.33,1-.51,1.35-.43a3.83,3.83,0,0,1,1.05-1.11A3.56,3.56,0,0,1,16.13,12.31ZM8.59,13.47c-3.59-.08-6.45-2.78-6.37-6C2.3,4.39,5.3,1.92,8.78,2.05c3.65.14,6.54,2.67,6.45,5.65C15.13,10.91,12.1,13.54,8.59,13.47Z"
              style="fill:#4b3d3a"/>
        <path d="M15.23,7.7c-.1,3.21-3.13,5.84-6.64,5.77s-6.45-2.78-6.37-6C2.3,4.39,5.3,1.92,8.78,2.05,12.43,2.19,15.32,4.72,15.23,7.7Z"
              class="ears0"/>
    </g>
</svg>