<svg xmlns="http://www.w3.org/2000/svg" viewBox="0 0 600 1200">
    <g id="Ears5" style="fill:none">
        <path d="M263.26,114.83c1.74,4.32.71,6.33-3.76,7.5a6.49,6.49,0,0,0-1.7,1.1l-7-3.86c-.53-.8-1.07-1.59-1.59-2.4-2.21-3.41-5.47-6.19-6.13-10.57a3.17,3.17,0,0,0-2.29-2.06c-3-.06-7.31,3.7-7.93,6.78a30.44,30.44,0,0,0-.53,5.64c-.06,8.13,8.26,14.39,15.85,12l2.76.6c-.08,1.71-.06,3.43-.25,5.13-.47,4-3,5.06-6.9,4.63A24.87,24.87,0,0,1,231.08,134c-8.32-6.32-12.62-14.4-9.8-24.85,2.19-8.1,7.59-13.94,15.3-17.43,1.38-.62,3.13-1.29,4.46-1,3.2.79,4.15-1,5.76-3.22,8.88-12.22,21.45-14.24,34-5.51a22.62,22.62,0,0,1,8.48,11.35c1.85,5.14.93,10.1-1.16,14.81-1.71,3.85-7.71,4.94-12.15,2.63l.63-1.55c3.38-2.92,3.17-6.79,2.27-10.48-1.34-5.5-7-9.45-13-9.68-5.75-.22-10.52,3.43-12.94,8.93C249.8,105,256.13,114.45,263.26,114.83Z"
              class="ears0"/>
        <path d="M344.18,123.47c-6-1.31-6.81-2.23-7.45-8.66l.62-.07c1.56-.27,3.31-.17,4.62-.89a17.14,17.14,0,0,0,4.49-3.89,12.11,12.11,0,0,0,2-4c.46-1.34.49-2.84.84-4.24.92-3.62-.49-6.72-2.69-9.24C342.74,88,334.86,87.29,329,90.41c-4.68,2.51-7.45,9.22-6,14.88.18.74,1.05,1.31,1.6,2l-.15,2.16c-.9.27-1.83.48-2.7.83a5,5,0,0,1-7-3.51,30.71,30.71,0,0,1,.35-16.66c1.69-6,5.84-9.78,11.56-12.16a22.83,22.83,0,0,1,27.56,7.9c1.78,2.66,2.74,5.87,3.63,7.85,3.14.85,5.44,1.48,7.75,2.09a9.56,9.56,0,0,0,1.59.25c4.48.31,6.44,1.9,8,6.14a23.1,23.1,0,0,0,2.13,3.68c3.42,5.77,7.48,13.69,2.28,20.7-1.53,2.06-2.2,4.76-3.52,7a10.91,10.91,0,0,1-3.44,4,37.6,37.6,0,0,1-13.71,5c-5.26.7-10.32-3.3-9-8.26a4.36,4.36,0,0,0-.22-1.56l2.66-1.1c.24,1.89,1.59,2.45,3.14,2.17,4.53-.81,9.27-1.5,12.08-5.72,1.92-2.9,4-6,3.16-9.79s-3.28-7-6.22-9.58-5.54-2-7.6,1.31-3.7,6.61-7.32,8.43c-.51.26-.7,1.14-1,1.74C346.16,120.05,344.62,121,344.18,123.47Z"
              class="ears0"/>
        <path d="M263.26,114.83c-7.13-.38-13.46-9.79-10.38-16.79,2.42-5.5,7.19-9.15,12.94-8.93,6.06.23,11.7,4.18,13,9.68.9,3.69,1.11,7.56-2.27,10.48a16.94,16.94,0,0,0-.12-4.34c-.31-1.12-1.37-2-2.11-3l-1.54,2.95-3.13-1.77c-.19,1.6-.34,2.78-.48,4l-.95.36-4.94-7.84-.9.24q.39,2.73.77,5.43l-2.49-.18c.16,1,.62,1.92.33,2.31-1.73,2.28,0,3.14,1.5,4.2a13.77,13.77,0,0,1,1.74,1.68Z"
              class="skins0"/>
        <path d="M337.35,114.74l-.62.07c-7.07,3.91-9.24.58-12.27-5.4l.15-2.16c.53-1.53,1-3.09,1.64-4.57.19-.42.94-.6,1.43-.9a9,9,0,0,1,.55,1.61,3.86,3.86,0,0,1-.23,1.22l.54.55,4.17-2.87c-.35,1.87-.56,3-.79,4.19,2.67-.75,4.54-2.08,5.11-4.79a5.57,5.57,0,0,1,.5-1.81,7.89,7.89,0,0,1,1.41-1.35c.16.61.55,1.26.44,1.81-.35,1.66-.9,3.28-1.37,4.92l-.56.57.8-.27,3-.66c-.11,1.86.21,3.54-.38,4.81A31.07,31.07,0,0,1,337.35,114.74Z"
              style="fill:#a47c66"/>
        <path d="M264.27,113.25a13.77,13.77,0,0,0-1.74-1.68c-1.55-1.06-3.23-1.92-1.5-4.2.29-.39-.17-1.33-.33-2.31l2.49.18q-.37-2.7-.77-5.43l.9-.24,4.94,7.84.95-.36c.14-1.19.29-2.37.48-4l3.13,1.77,1.54-2.95c.74,1,1.8,1.91,2.11,3a16.94,16.94,0,0,1,.12,4.34l-.63,1.55c-1,1.33-2,2.72-3.16,4C269.44,118.52,265.9,117.86,264.27,113.25Z"
              style="fill:#a47c66"/>
        <path d="M344.18,123.47c.44-2.45,2-3.42,4.36-3.27l5.36-2c-.61,1.8-.92,2.74-1.33,3.94,3.86,2.14,5.54-3.29,9.73-2.56l-5.69,4,.9,1.25a9.2,9.2,0,0,1,2.25.36c.52.22.85.86,1.27,1.31a37.57,37.57,0,0,1-4.27,3.46,24.5,24.5,0,0,1-4.42,1.7l-2.66,1.1A5.94,5.94,0,0,1,344,127,29.7,29.7,0,0,1,344.18,123.47Z"
              style="fill:#a47c66"/>
        <path d="M251,129.53l-2.76-.6a12.77,12.77,0,0,0-2.77-1.57,4.51,4.51,0,0,1-2.71-6.39,3.58,3.58,0,0,0-.06-2.63c-.28-.75-1.08-1.31-1.64-2l.39-.6c.85.32,1.71.62,2.55,1,2.29.93,4.57,1.88,6.86,2.82l7,3.86A8.3,8.3,0,0,1,251,129.53Z"
              style="fill:#a47c66"/>
        <path d="M250.83,119.57c-2.29-.94-4.57-1.89-6.86-2.82-.84-.35-1.7-.65-2.55-1l-.39.6c.56.65,1.36,1.21,1.64,2a3.58,3.58,0,0,1,.06,2.63,4.51,4.51,0,0,0,2.71,6.39,12.77,12.77,0,0,1,2.77,1.57c-7.59,2.42-15.91-3.84-15.85-12a30.44,30.44,0,0,1,.53-5.64c.62-3.08,4.91-6.84,7.93-6.78a3.17,3.17,0,0,1,2.29,2.06c.66,4.38,3.92,7.16,6.13,10.57C249.76,118,250.3,118.77,250.83,119.57Z"
              class="skins0"/>
        <path d="M338,105.26c.47-1.64,1-3.26,1.37-4.92.11-.55-.28-1.2-.44-1.81a7.89,7.89,0,0,0-1.41,1.35,5.57,5.57,0,0,0-.5,1.81c-.57,2.71-2.44,4-5.11,4.79.23-1.22.44-2.32.79-4.19l-4.17,2.87-.54-.55a3.86,3.86,0,0,0,.23-1.22,9,9,0,0,0-.55-1.61c-.49.3-1.24.48-1.43.9-.65,1.48-1.11,3-1.64,4.57-.55-.65-1.42-1.22-1.6-2-1.43-5.66,1.34-12.37,6-14.88,5.83-3.12,13.71-2.37,17.62,2.11,2.2,2.52,3.61,5.62,2.69,9.24-.35,1.4-.38,2.9-.84,4.24a12.11,12.11,0,0,1-2,4,17.14,17.14,0,0,1-4.49,3.89c-1.31.72-3.06.62-4.62.89a31.07,31.07,0,0,0,3.56-5c.59-1.27.27-2.95.38-4.81l-3,.66Z"
              class="skins0"/>
        <path d="M352.34,131.64a24.5,24.5,0,0,0,4.42-1.7,37.57,37.57,0,0,0,4.27-3.46c-.42-.45-.75-1.09-1.27-1.31a9.2,9.2,0,0,0-2.25-.36l-.9-1.25,5.69-4c-4.19-.73-5.87,4.7-9.73,2.56.41-1.2.72-2.14,1.33-3.94l-5.36,2c.34-.6.53-1.48,1-1.74,3.62-1.82,5.34-5.25,7.32-8.43s4.62-3.91,7.6-1.31,5.35,5.64,6.22,9.58-1.24,6.89-3.16,9.79c-2.81,4.22-7.55,4.91-12.08,5.72C353.93,134.09,352.58,133.53,352.34,131.64Z"
              class="skins0"/>
        <path d="M338.25,105.56l-.8.27.56-.57Z" class="skins0"/>
        <path d="M335.36,117.12c-5.42.24-6.38-.29-11.49-6.06a19.75,19.75,0,0,1-3.62.9c-4.37.26-6.4-1.28-7.71-5.62-3.79-12.5,3.36-26.06,16.11-30.55,12-4.23,25.34,2.34,30.07,15,.81,2.19,1.8,3,4.15,3.25,13.62,1.42,23.2,16.66,19.22,30.3-3.64,12.47-14.15,20-26.45,18.89-5.85-.51-8-3.85-6-9.76a10.13,10.13,0,0,1-6.93-8.49,2.07,2.07,0,0,0-1.39-1.31C337.43,123.26,335.91,120.73,335.36,117.12Zm-20.92-16.53c.37,2,.78,4.7,1.4,7.34.41,1.8,2.94,2.71,5.17,2.1s1.92-2,1.36-3.77c-3-9.3,3.33-18.28,13.16-18.77A14.06,14.06,0,0,1,350,99a14.67,14.67,0,0,1-10.08,16.62c-.92.31-2.49,1.32-2.41,1.61.35,1.21,1,2.72,2,3.27a5.34,5.34,0,0,0,4,.28c6.59-2.57,10.78-7.46,12.88-14.17,2.85-9.1.52-17-6.25-23.33s-14.86-7.54-23.26-3.58S314.88,90.83,314.44,100.59Zm45.39,5.64c.6.21,1.18.43,1.78.63,8.89,2.9,12.66,12.16,8.28,20.35-2.94,5.5-9.35,8.3-16,7.07-.81-.14-2.28-.21-2.42.13a5.6,5.6,0,0,0-.41,3.34c.57,2.25,2.44,2.9,4.59,3.12,8.67.87,18.3-4.59,22.06-12.6,4.19-8.9,2.58-19.27-4.05-25.7-3.67-3.56-8-5.76-13.17-5.83C360.24,100,360.05,103,359.83,106.23Zm-20.42-2.79c1.25.45,2.66.52,3.14,1.22a4.67,4.67,0,0,1,.65,3.57c-.42,1.25-1.67,2.24-2.63,3.29a25.55,25.55,0,0,1-2.09,1.79,11.89,11.89,0,0,0,9.5-11.07,12.25,12.25,0,0,0-22.17-7.89c-2.7,3.75-3.32,8.22-1.4,10.67a7.7,7.7,0,0,1,.9-2.28,27,27,0,0,1,2.84-2.6l1.43,2.45,3.24-1.92c.32,1.11.63,2.22,1,3.48,3.19-2.06,3.4-6,5-9.74C341.25,97.85,339.63,100.77,339.41,103.44ZM354,131.83c7.43,1.65,14-2.49,15.32-9.19a12.08,12.08,0,0,0-9.86-14.58l-5.53,9.25,1.73,1.1-2,3.18c4.37-.38,6.51-3.73,9.9-6.46,0,4.29-2.59,6.28-4.18,8.42.91.94,2.27,1.71,2.33,2.58a4.91,4.91,0,0,1-1.34,3.63c-1,.86-2.65.94-4,1.36C355.77,131.32,355.13,131.5,354,131.83ZM340.1,106l-2.82.26V104l-5,2.59-1-2.21c-.84.32-2.18,1.24-2.59.93-.76-.58-1-1.88-1.53-3.17-1.39,3.22-2.33,6.21-.46,9.26,1.5,2.45,3.71,4.05,6.72,3.83a5.2,5.2,0,0,0,3-1.38,43.73,43.73,0,0,0,3.5-4.28C340,108.26,340,107.12,340.1,106Zm12.2,13.87a22.42,22.42,0,0,0-3,1c-1.53.74-3.6,1.32-4.3,2.59-1.22,2.19.24,4.4,1.76,6.09s3.19,2.71,5.51,1.69c1.68-.74,3.37-1.46,4.91-2.13l2-3.15-2.76-.86c.34-.87.68-1.73.89-2.28h-5.49C352,121.79,352.15,120.79,352.3,119.84Z"
              style="fill:#000"/>
        <path d="M277.42,112c-2.47,4-5.93,6.65-11.47,5.65-.44,3.85-2.44,6.19-6.37,6.62-.48,0-.9.82-1.33,1.27l-5.47,5.67-.74-.53c.1.78.22,1.56.3,2.35a6.21,6.21,0,0,1-5.88,7,24.76,24.76,0,0,1-25.54-17.61c-3.63-11.64.63-23.26,11-29.06a30.19,30.19,0,0,1,9-2.88c1.77-.34,2.83-.74,3.75-2.41,6-11,18.91-15.83,29.79-11.27,12,5,18.46,17.94,14.95,30.09-1.7,5.89-5.52,7.66-11.22,5.2A4.11,4.11,0,0,0,277.42,112Zm-33.51-11.4a70.62,70.62,0,0,0,2.29,8.6A20.84,20.84,0,0,0,258,121.26a4,4,0,0,0,5.63-2.64c.86-2.71-1.73-2.11-2.88-2.89a3.11,3.11,0,0,0-.5-.21,14.83,14.83,0,0,1-8.36-16.63,14.15,14.15,0,0,1,15-10.81c9.74.81,15.63,10,12.39,19.33-.89,2.57-.45,3.41,1.95,3.74,3.14.42,4.2-.3,5-3.45.34-1.41.68-2.83.92-4.26,1.57-9.2-3.66-19.4-11.82-23.14C260.58,73.55,244.56,84,243.91,100.55Zm-1.78-7.94c-3.18,1.12-6.1,1.7-8.54,3.11-8.44,4.87-12,12.61-10.89,22,1,8.92,6.3,15.22,14.72,18.3a27.05,27.05,0,0,0,10.09,1.11c2.28-.09,3-2.33,2.8-4.55-.15-1.94-1.49-1.66-2.8-1.53-8,.83-14.43-3.4-16.42-10.68a14.21,14.21,0,0,1,9-16.83c.58-.2,1.41-.78,1.45-1.25C241.83,99.39,241.93,96.42,242.13,92.61Zm35.37,14c2.73-6.24-.9-13.83-7.39-16.13a12.38,12.38,0,0,0-15.93,8.76c-1.51,6.35,2.39,13.28,7.88,14.13-1-1-2.1-2.1-3.05-3.28-1.82-2.28.23-6,3.26-5.87-.14-1.88-.41-3.75-.39-5.63a11.41,11.41,0,0,1,.86-2.9,13.12,13.12,0,0,1,1.49,2.46c.86,2.5,1.45,5.12,3.77,6.7.35-1.27.65-2.33.95-3.4l3.59,2,.37-2.49C276.5,101.17,276.51,104.1,277.5,106.56ZM247.55,119l.34-.6-6.6-13.07c-5.52.73-9.81,8-8.13,14.55,1.52,6,8,10.3,13.4,8.78,0-.08,0-.2-.07-.25a1.43,1.43,0,0,0-.43-.31c-2.2-.83-4.35-.52-5.43-4.19-1-3.49,1.27-2.61,2.34-3.51-1.8-2.54-4.17-4.72-3.78-8.46Zm23-14.41-1.08,2.66-4.7-2.37c.13,2.45,0,2.54-2.93,1.71-.08,1.19-.17,2.41-.24,3.27a39,39,0,0,0,3.35,4.32,5.72,5.72,0,0,0,3.17,1.67c3.11.31,5.4-1.4,7-3.89,1.84-2.91.69-5.81-.29-9.23C273.16,107.19,272.87,107.27,270.54,104.54ZM256.64,124c-3.26-4-8.37-3.34-12.52-5.19,2.39,3.13,2.37,3.2-1,3.72l1.37,3.51a16.56,16.56,0,0,1,3.66,1.14C252.26,129.5,255.25,128.39,256.64,124Z"
              style="fill:#000"/>
    </g>
</svg>