<svg xmlns="http://www.w3.org/2000/svg" viewBox="0 0 600 1200">
    <g id="Ears3" style="fill:none">
        <path d="M345.75,89.32c9.87-.07,15.14,8.33,12.59,15.57-1.73,4.93-4.85,8.26-10.15,9.68-3.75,1-7.25,2.47-10.78-.47-.38-.32-1.37,0-2.06.16a8.53,8.53,0,0,1-9.26-3.61c-1.87-2.93-1.57-6.5.87-9.63.78-1,1.66-1.92,2.45-2.92C334.31,91.89,340.63,88.79,345.75,89.32Z"
              class="ears0"/>
        <path d="M239.25,102.81c-.71-5.64,9.64-15.37,15.54-12.88,6.58,2.78,13.51,5,16.7,12.28a21.52,21.52,0,0,1,1.91,5.61c.44,3.56-3.07,7.21-6.47,6.27-3.58-1-6.55.16-9.72,1C249.31,117.28,239.26,110.4,239.25,102.81Z"
              class="ears0"/>
        <path d="M252.66,89.12c8.86,0,18,6.22,21.33,14.41a8.72,8.72,0,0,1-1.27,9.36c-2.52,3.27-6,3.61-9.57,2.79-1.48-.34-2.68-.9-3.77.63a1.71,1.71,0,0,1-1.18.57c-5.93.49-15.32-2.56-18.24-8.56A13.18,13.18,0,0,1,252.66,89.12Zm-7.92,13.95-.57-.91c1.11-.53,2.21-1.45,3.35-1.51,4-.24,7.13,1.65,9.48,4.81,1.25,1.67,2.17,3.63,3.63,5.06a10.31,10.31,0,0,0,4.68,2.74c2.77.62,4.85-1,6.26-3.34,1.21-2,1.41-4-.6-5.73a24.2,24.2,0,0,1-2-2.56c-4.84-5.68-10.49-9.69-18.44-9.3-4.36.22-6.78,3-8.2,6.48s-1.41,7.37,1.73,10.3a20.47,20.47,0,0,0,12.09,5.57c.93.1,1.95-.6,3.07-1-1.74-2.76-3.11-5.1-4.64-7.33A8.37,8.37,0,0,0,244.74,103.07Z"
              style="fill:#000"/>
        <path d="M347,88.57c6.69,0,12.27,3.82,13.42,9.65,1.33,6.7-.2,12-7.47,15.37a38.41,38.41,0,0,1-9.26,2.67c-1.37.24-2.94-.84-4.44-1.16a5.78,5.78,0,0,0-2.68,0c-5.7,1.56-10.57-1.09-11.73-6.85a10,10,0,0,1,.76-5.45C329,94.48,338.06,88.56,347,88.57Zm-6.76,24.71a11.54,11.54,0,0,0,3.37.82,13.3,13.3,0,0,0,4.71-1.1c7-3.38,10-5.86,9.53-11.91a10.25,10.25,0,0,0-9.52-9.31c-4-.11-8,.62-11,3.21-3.68,3.15-6.87,6.89-10.23,10.41a1.65,1.65,0,0,0-.24,1.22,7.52,7.52,0,0,0,4.91,5.95A6.21,6.21,0,0,0,338.9,110c1.23-1.68,2.33-3.46,3.57-5.13,2.44-3.24,5.65-5.06,9.78-4.81,1.37.08,2.8.51,2.6,2.56C350.62,100.7,346.35,101.94,340.27,113.28Z"
              style="fill:#000"/>
    </g>
</svg>