<svg xmlns="http://www.w3.org/2000/svg" viewBox="0 0 29.2 29.66">
    <style>
        g {fill: #876d65}
    </style>
    <g>
        <path d="M22,13.14c-.91-.1-.91-.51-1-1.21C20.3,4.32,18.71,2.44,11.3.25c-.05,0-.06-.16-.09-.25H8.49C4.79,1.61,1.5,3.63.43,7.89a1,1,0,0,1-.29.55C.09,8.85,0,9.27,0,9.69a4.1,4.1,0,0,1,.08,1,1.56,1.56,0,0,1,.24.73C.65,14.24,2.79,14.56,5,14.29c1.91-.22,4.12,1.12,4.28,1.88.68,3.24,5.46,3,5.36,6.83,0,.75,1.6,1.54,1.08,3.23a2.46,2.46,0,0,0,2,2.78,3.88,3.88,0,0,1,1.6.48,5.72,5.72,0,0,1,.59.17c.55-.07,1.1-.11,1.67-.14a4.31,4.31,0,0,1,1,.07,1.15,1.15,0,0,1,.47-.25c3.34-.93,4.75-3.69,6.08-6.5V19C27.72,15.94,25.65,13.53,22,13.14ZM17.07,19.3a3.1,3.1,0,0,1,4.23.35,1.79,1.79,0,0,1,.64,2.15,2.56,2.56,0,0,1-3.18,1.4C20.08,21.06,18.2,20.36,17.07,19.3Zm-9-5.17c-.61,0-1.14-.48-1-1,.22-1.17,1.43-.64,2.51-1.33C9.37,13.21,9.36,14.15,8.09,14.13Zm2.2-1.84c.11-.78.12-1.62-1.28-1.32-.51.11-1.22-.68-1.83-1.05A3.56,3.56,0,0,1,9.24,8.27a3.63,3.63,0,0,1,.66,0,3.2,3.2,0,0,1,3.16,4.31c-.39,1-1.07,1.94-2.08,1.82C10.33,14.27,10.18,13.17,10.29,12.29Zm1.44,5.06c-1.16-1.37.83-1.53,1.47-2.18,1.58-1.61,2.45-3.36,1.41-5.59s-2.8-3.4-5.22-3a4.53,4.53,0,0,0-4.16,4c-.16,1.2,0,2.53-1.78,2.38S2,11.45,2,10.29a8.68,8.68,0,0,1,7.84-8c3.46-.4,7.73,2.65,8.94,6.25,1,2.93.2,5.5-1.45,7.89A5.56,5.56,0,0,1,15.43,18,3,3,0,0,1,11.73,17.35Zm3.49,4.16c-.29-.75.35-.85.89-.88.84-.05,1.64,0,1.66,1.14,0,.56-.06,1.11-.8,1.11A1.86,1.86,0,0,1,15.22,21.51Zm10.69,3a6.45,6.45,0,0,1-7.54,2.67c-1.07-.35-1.18-.94-1.1-1.8a.83.83,0,0,1,1.13-.8c2.75.66,4.62-.55,5-3.11.41-2.75-1.71-3.86-4.13-4.32,1.24-2.33,3.79-2.66,5.82-.83A6.45,6.45,0,0,1,25.91,24.54Z"
              style="fill:#4b3d3a"/>
        <path d="M2,10.29a8.68,8.68,0,0,1,7.84-8c3.46-.4,7.73,2.65,8.94,6.25,1,2.93.2,5.5-1.45,7.89A5.46,5.46,0,0,1,15.43,18a3,3,0,0,1-3.7-.6c-1.16-1.37.83-1.53,1.47-2.17,1.58-1.62,2.45-3.37,1.41-5.6s-2.8-3.4-5.22-3a4.53,4.53,0,0,0-4.16,4c-.16,1.2,0,2.53-1.78,2.38S2,11.45,2,10.29Z"
              class="ears0"/>
        <path d="M19.28,17.18c1.24-2.33,3.79-2.66,5.82-.83a6.58,6.58,0,0,1-6.73,10.86c-1.07-.35-1.18-.94-1.1-1.8a.83.83,0,0,1,1.13-.8c2.75.66,4.62-.55,5-3.11C23.82,18.75,21.7,17.64,19.28,17.18Z"
              class="ears0"/>
        <path d="M9.9,8.22a3.2,3.2,0,0,1,3.16,4.31c-.39,1-1.07,1.94-2.08,1.82-.65-.08-.8-1.18-.69-2.06S10.41,10.67,9,11c-.51.11-1.22-.68-1.83-1.05A3.56,3.56,0,0,1,9.24,8.27,3.63,3.63,0,0,1,9.9,8.22Z"
              style="fill:#f5e5de"/>
        <path d="M18.76,23.2c1.32-2.14-.56-2.84-1.69-3.9a3.1,3.1,0,0,1,4.23.35,1.79,1.79,0,0,1,.64,2.15A2.56,2.56,0,0,1,18.76,23.2Z"
              style="fill:#f5e5de"/>
        <path d="M17.77,21.77c0,.56-.06,1.11-.8,1.11a1.86,1.86,0,0,1-1.75-1.37c-.29-.75.35-.85.89-.88C17,20.58,17.75,20.63,17.77,21.77Z"
              class="ears0"/>
        <path d="M9.56,11.81c-.19,1.4-.2,2.34-1.47,2.32-.61,0-1.14-.48-1-1C7.27,12,8.48,12.5,9.56,11.81Z"
              class="ears0"/>
    </g>
</svg>