<svg xmlns="http://www.w3.org/2000/svg" viewBox="0 0 21.5 22.94">
    <style>
        g {fill: #876d65}
    </style>
    <g>
        <path d="M9.75.06C6.43-.2,3.43.33,1.6,3.57a1.52,1.52,0,0,1-.68.65A5,5,0,0,1,.14,6.11c.31.33.37.93-.06,2-.34.86.45,1.61,1.08,2A27.22,27.22,0,0,1,6.09,15c.2.21.64.21,1,.3.9,1.33,0,2.76.25,4.09.48,2.49,4,4.23,7.32,3.29.91-.26,1.35-.19,1.6.1A5.52,5.52,0,0,1,19,21.9h.15a14.68,14.68,0,0,1,1.57-5.11C24,10.61,16.79.62,9.75.06ZM7.07,15.3c.09-1.74-2.21-2-2.34-3.9,1.61.52,3.57.15,4.17,2C9.25,14.54,8.53,15.51,7.07,15.3Zm.58-4.85c-.54,0-1.17-.77-2-.87,1.41-1.88,3.14-2,5.07-1.18A5.51,5.51,0,0,1,14,13a2.68,2.68,0,0,1-1.45,2.46,2,2,0,0,1-2.29.26c-.77-.55.14-1.09.21-1.64C10.74,11.91,10.31,10.47,7.65,10.45Zm2.58,10.31a1.93,1.93,0,0,1-1.44-2.25c.12-1.23,1.06-1.08,1.84-1,2.86.19,4.45-1.29,5-3.9.52-2.34-1.54-5.36-4.31-6.55A5.08,5.08,0,0,0,4.83,8.59c-.5.66-.42,2.29-2,1.5C1.61,9.46,1.51,8.24,1.76,7,2.7,2.41,6.65.28,11.26,1.87a12.9,12.9,0,0,1,8.38,11.87C19.63,19.28,15,22.69,10.23,20.76Z"
              style="fill:#4b3d3a"/>
        <path d="M19.64,13.74c0,5.54-4.64,9-9.41,7a1.93,1.93,0,0,1-1.44-2.25c.12-1.23,1.06-1.08,1.84-1,2.86.19,4.45-1.29,5-3.9.52-2.34-1.54-5.36-4.31-6.55A5.08,5.08,0,0,0,4.83,8.59c-.5.66-.42,2.29-2,1.5C1.61,9.46,1.51,8.24,1.76,7,2.7,2.41,6.65.28,11.26,1.87A12.9,12.9,0,0,1,19.64,13.74Z"
              class="ears0"/>
        <path d="M5.67,9.58c1.41-1.88,3.14-2,5.07-1.18A5.51,5.51,0,0,1,14,13a2.68,2.68,0,0,1-1.45,2.46,2,2,0,0,1-2.29.26c-.77-.55.14-1.09.21-1.64.27-2.2-.16-3.64-2.82-3.66C7.11,10.44,6.48,9.68,5.67,9.58Z"
              style="fill:#f5e5de"/>
        <path d="M7.07,15.31c.1-1.75-2.21-2-2.34-3.91,1.61.52,3.57.15,4.17,2,.35,1.09-.37,2.07-1.84,1.85Z"
              class="ears0"/>
    </g>
</svg>