<svg xmlns="http://www.w3.org/2000/svg" viewBox="0 0 600 1200">
    <g id="Ears2" style="fill:none">
        <path d="M333.58,100.43c.67-11.09,2.82-21.68,11.43-29.65a25.37,25.37,0,0,1,15.4-6.73,3.06,3.06,0,0,0,.81-.07c6.23-2.47,9.86,1.45,12.68,6,3.18,5.16,2.78,10-.63,14.71-3.86,5.36-8.28,10.2-13.9,13.66-2.46,1.51-5.5,2.09-8.3,3-1.8.61-3.63,1.14-5.47,1.62-1.61.43-3,.9-2.42,3.08a1.74,1.74,0,0,1-.94,1.44c-1.92.23-4.13.83-5.73.13-1.3-.56-2-2.71-2.73-4.28A8.64,8.64,0,0,1,333.58,100.43Z"
              class="ears0"/>
        <path d="M241.16,63.41c5.62,1.46,12,3.2,16.93,8.83,6.93,7.94,10.13,17.39,11.55,27.39.71,5,.28,7.91-5.82,9.17-2.83.59-4.54-.41-5.28-2.87-.79-2.65-2.7-3.45-5-3.91a17.46,17.46,0,0,0-2.16-.27,14.57,14.57,0,0,1-11-5.57c-3.07-3.87-6.79-7.22-9.92-11.05-5.38-6.59-4.34-12.53-.19-17.76C232.75,64.27,236.26,63.47,241.16,63.41Z"
              class="ears0"/>
        <path d="M332.64,100.3c1.12-9.14,3.2-19.64,10.57-28.19A30.4,30.4,0,0,1,360.43,62c6.16-1.28,11.1.94,14.76,5.88A13.48,13.48,0,0,1,376,83.67c-2.37,3.87-5.74,7.18-9,10.44a48.08,48.08,0,0,1-7.86,6.27,24.73,24.73,0,0,1-5.95,2.33c-2.05.67-4.19,1.06-6.23,1.77a3.18,3.18,0,0,0-2.44,2.8c-.16,1-2.06,2.21-3.34,2.46C335.62,110.84,332.51,107.9,332.64,100.3Zm12.15,1.87c.78-.24,1.11-.38,1.45-.44,7-1.28,13.42-3.56,18.35-9.28,3.25-3.77,7.08-7,9.22-11.66,3.7-8.13-4-17.73-11.5-16.23a33.69,33.69,0,0,0-6.05,1.4,29.23,29.23,0,0,0-15.2,13.38A54.45,54.45,0,0,0,334.52,104c0,1.1,1.75,2.78,3,3.25s3.29.06,4.93-.15c.24,0,.48-1,.5-1.59.08-2.61-.29-5.28.17-7.81a30.18,30.18,0,0,1,16.32-22.41c1.66-.87,3.77-.88,5.67-1.28C353.76,80.14,346.78,89,344.79,102.17Z" style="fill:#000"/>
        <path d="M270.09,100.58c.11,7.35-3.15,10.3-8.68,9.19-1.15-.23-3-1.13-3.08-1.81-.22-3.66-3.2-4.18-5.48-4.51-11.23-1.59-18.18-9.35-24.62-17.34-6.07-7.53-4.45-16,3.09-22,4.35-3.44,9.21-2.92,14-1.38a30.72,30.72,0,0,1,17.66,14A57.71,57.71,0,0,1,270.09,100.58ZM236.92,74.24a22.7,22.7,0,0,1,2.82,0c5.8.86,9.65,4.65,13.17,8.89a29.81,29.81,0,0,1,7.18,20.27c0,1.25-.09,3.5.27,3.58a10.7,10.7,0,0,0,5.18.11c3-.83,3.27-3.46,2.73-6a140.22,140.22,0,0,0-3.85-15.72c-3.21-9.5-9.41-16.47-19.08-19.81-4.27-1.48-8.67-2.22-12.59,1.17-5.68,4.9-6.7,11.41-1.73,17.6,4.18,5.2,9.33,9.62,14.09,14.35a3.6,3.6,0,0,0,1.73.73c3.58.8,7.17,1.56,11,2.39C256,89.06,249,80.3,236.92,74.24Z" style="fill:#000"/>
    </g>
</svg>