<svg xmlns="http://www.w3.org/2000/svg" viewBox="0 0 70.62 64.58">
    <g style="fill:#bc9982">
            <path d="M46.06,42.35c-.26,3.35-1.72,5.73-5.3,6.17a2.63,2.63,0,0,0-2.25,1.69,8.24,8.24,0,0,1-5.37,4.63c-.93.3-.94.64-.81,1.54.84,5.76-1.5,8.23-7.61,8.2-11.86-.07-21.58-8-24.2-20.66a23.83,23.83,0,0,1,12.05-26,20.59,20.59,0,0,1,9.32-2.72,3.13,3.13,0,0,0,3-2.06C31.27,1.27,44.64-3.21,56.52,2.41,68.12,7.9,73.71,22,68.89,33.63a5.77,5.77,0,0,1-.57.91C66.8,36.21,66.4,35,66,33.66a16.51,16.51,0,0,1,.59-4.84A21.08,21.08,0,0,0,54.55,5.31c-7.9-3.57-16.92-1.69-23.21,4.83C21.23,20.63,24.56,38.8,37.7,44.9c1.59.74,3.1,1.12,4.56-.18s1.4-2.61-.57-3.39a16.11,16.11,0,0,1-9.3-9c-3.67-8.58,2.07-18.84,11-19.57,2.42,1.15.87,1.83-.29,2.57-1.9,1.05-3.89,2-5.33,3.7-3.63,4.36-3.73,9-1.36,14a5.86,5.86,0,0,0,1.74,2.29A12,12,0,0,0,41,37.36c.6.32,1.17.7,1.79,1s1.61,0,2.36.32a2.63,2.63,0,0,1,1.75,1.93C47.08,41.41,46.35,41.77,46.06,42.35Z"
                  style="fill:#0a0807"/>
            <path d="M59,36.75A2.31,2.31,0,0,0,56.43,38,7.94,7.94,0,0,1,53,41.06c-.88.14-1.18-.33-1.18-1.12,1.64-1.72,3.62-3.19,4.14-5.72.71-1.28,1.23-2.95,3.26-1.7.34.83,0,1.79.45,2.61C59.74,35.79,60.56,36.78,59,36.75Z"
                  style="fill:#0a0807"/>
            <path d="M59,36.75c.93-.53.24-1.13.08-1.71a1.27,1.27,0,0,1,1.25-.26,5.75,5.75,0,0,0,6.29-1.5c.08,1.09.18,2.13,1.71,1.26C66.77,37.63,62.73,38.59,59,36.75Z"
                  style="fill:#201b18"/>
            <path d="M52,40l1,1c-2,2-4.6,1-6.95,1.29.16-.63.33-1.26.5-1.89A6.32,6.32,0,0,1,52,40Z"
                  style="fill:#201b18"/>
            <path d="M66.61,33.28c-1.36,2.94-3.35,3.41-7.54,1.76-.82-.7-.11-1.37,0-2s0-1.58.23-2.38c1.94-8.58-3-15.77-11.67-17-1.46-.2-3-.75-4.47-.34A12.87,12.87,0,0,0,32.43,23.38c-1.48,5.78.42,10.73,4.88,14.67a14.23,14.23,0,0,0,5.75,3c1.4.39,2,1,1.06,2.53-1.76,3-3.32,3.56-6.51,2.11-9.68-4.4-15.17-16.28-12.2-26.39C28.67,8.11,38.8,1.42,49.88,3.09,62,4.93,70,17.43,67.21,30.08,67,31.14,66.81,32.21,66.61,33.28Z"
                  class="ears0"/>
            <path d="M2.89,39.92C3.09,28.39,10.61,19.39,20.72,18c1.75-.24,2.17.24,1.84,1.8a3.31,3.31,0,0,0-.15.8c.16,4.48-1,7.57-5.59,10.07-5.55,3-7.15,10.41-5,15.8a15,15,0,0,0,15.09,9.41c1.49-.08,3.67-1.34,3.82,1.73a4.11,4.11,0,0,1-3.92,4.61C16.92,63.3,6.11,55.49,3.56,45.43A17.31,17.31,0,0,1,2.89,39.92Z"
                  class="ears0"/>
            <path d="M36.12,33.47c-4.23-7.51-1.71-14.61,6.6-18.59a10.44,10.44,0,0,1,9.86.49A14.86,14.86,0,0,1,59.27,24,9.86,9.86,0,0,1,59,30.67c-.23.61-.6,1.24-1.33,1.17s-.76-.71-.9-1.23a11.59,11.59,0,0,0-.59-1.81c-1-2.15-1.38-2.24-2.7-.36-.92,1.3-1.56.41-2.14-.2-1.08-1.14-1.68-1.15-2.16.5s-1.44,1.34-2.37.3c-1.79-2-2.5-4.55-3.49-7a8.28,8.28,0,0,0-.05,5.23c.37,1.42.66,2.6-1.6,2.77-1.84.14-2.75,3.49-1.54,5,.68.83,1.84,1.23,2.16,2.38-.24.73-.7.8-1.31.47-1.5-.13-2.36-1.16-3.18-2.26C37.27,34.87,36.73,34.15,36.12,33.47Z"
                  class="skins0"/>
            <path d="M29.24,43.32c-3.7-.77-5.84-2.84-7.78-5.26-.44-.54-.79-1.77-1.81-1-.75.58-.23,1.41.1,2.2a20.25,20.25,0,0,0,3.81,5.83c-1.33.85-3.58-.3-2.47,3.46s3.46,3.24,5.62,4.14a1,1,0,0,1,.71.7A12,12,0,0,1,13.62,45c-1.76-6.27,1.4-12.91,7.12-14.92.68-.23,1.58-1,1.85.48C23.46,35.31,26,39.23,29.24,43.32Z"
                  class="skins0"/>
            <path d="M42.1,37.4c-1-.8-2-1.55-2.87-2.42s-1.68-1.81-.07-2.81c.26-.15.57-.6.51-.82-1-3.73,1.5-2.21,3.38-2.05a19,19,0,0,1-.8-6.65c.07-.86-.24-2.09.91-2.27,1.34-.19,1.06,1.15,1.28,1.95.76,2.76,1.49,5.53,4,7.37.75-1.23-.73-3.05.94-3.51s2.19,1.53,3.23,2.46c1-.82-.43-2.73,1.3-2.87s2.45,1.31,3,2.71c.34.93.52,1.92.77,2.87C59.9,28.21,59.07,22.63,56,19c-3.59-4.16-8.1-5.14-13.27-4.16,1.6-1,1.6-1,.49-1.61,5.65-1.41,10.37.4,14,4.66C61,22.41,61.86,27.54,59.12,33c-1.95-1.31-1.91.82-2.67,1.56C55.07,33.09,56,31,54.93,29.48c-.6,1.23-1.12,3-3.13,1.48-.44-.33-.43-.34-.85.14-1.51,1.74-2.75,1.72-4.52.06-.55-.51-.79-1.1-.93.19,0,.41-.58.63-1,.8-2.2.85-2.35,1.51-.75,3.42.82,1,1.73,1.89,1.09,3.33-.7-.18-1.41,1-2.1,0A3.56,3.56,0,0,0,42.1,37.4Z"
                  style="fill:#201b18"/>
            <path d="M44.82,38.9c-.16-.51-.16-1.27-.5-1.5C42,35.86,41.88,33.54,42,31c.85-.32,1.48,1.14,2.54.59,1.37-.69.06-1.81.53-2.72,1.39,1.3,2.34,3.43,4.7,2.88,1.69-.39.21-1.91.81-2.82,1.11.42,1.2,2.46,2.74,2s.54-2.14,1.55-3.29c1.55,2.16,1.28,4.58,1.55,6.86A8.06,8.06,0,0,1,52,40a13.84,13.84,0,0,1-5.43.43Z"
                  style="fill:#9c7b67"/>
            <path d="M24.45,43.16a12.72,12.72,0,0,0,6.65,1.7c2,.09,3.85,2.09,5.73,3.3.2.13.24.65.2,1-.39,3-5.2,5.07-7.67,3.41-.07-.05-.12-.13-.2-.18-2.22-1.47-5.83-1.22-5.66-5.46.41-.22,2,.73,2.51-.58S24.63,44.64,24.45,43.16Z"
                  style="fill:#9c7b67"/>
        </g>
</svg>