<svg xmlns="http://www.w3.org/2000/svg" viewBox="0 0 22.41 20.46">
    <g>
        <path d="M14.67,20.3a5,5,0,0,1,.71-.32l.06,0,1.19-.5a4.69,4.69,0,0,1,1-.16A5.31,5.31,0,0,1,19,18.11a8.08,8.08,0,0,0,3.44-6.42C22.88,5,17,.66,11.2.35,8.45.2,5.71.32,3,0a5.32,5.32,0,0,1-.6,1.33c0,.15-.07.3-.12.44l.21.07C6,2.56,9.63,1,13.22,2a9.78,9.78,0,0,1,6.92,7.25c1.07,6.42-5.66,10.55-11.6,8.56-5.16-1.73-7.38-5.72-6.32-11,.15-.79.71-1.63-.7-1.76A7,7,0,0,0,.28,11.41c1.67,6,6.12,9.13,12.94,9.05C13.64,20.45,14.25,20.18,14.67,20.3Z"
              style="fill:#4b3d3a"/>
        <path d="M2.46,1.84C6,2.56,9.63,1,13.22,2a9.78,9.78,0,0,1,6.92,7.25c1.07,6.42-5.66,10.55-11.6,8.56-5.16-1.73-7.38-5.72-6.32-11,.15-.79.71-1.63-.7-1.76C2.51,4.24,1.85,2.86,2.46,1.84Z"
              style="fill:#876d65"/>
    </g>
</svg>