<svg xmlns="http://www.w3.org/2000/svg" viewBox="0 0 65.18 55.02">
    <g style="fill:#bc9982">
        <path d="M65.15,0c.26,1.72-1.29,1.7-2.21,2.13s-1.78.74-2.18,1.8C59.2,8,58,12,59,16.45c4.22,18.9-8.17,36-27.46,38-.38,0-7.31.54-10.58.54A24.46,24.46,0,0,1,4.87,46.66C1.79,43.19-.18,39.23,0,34.43V28.56c.16-8.11,4.45-14.09,10.33-19C19,2.38,29.08-.49,40.34,1.47a34.86,34.86,0,0,0,12.72-.05C56.34.79,59.68.61,63,0Z"
              style="fill:#020202"/>
        <path d="M59.14,3.45C57.05,8,56,12,56.42,16.18a13,13,0,0,0,.19,1.88c2.68,11.22-.76,20.57-10.3,27.33C37.08,51.93,27,54,16.31,49.74,2.94,44.39-.7,29.48,8.42,17.87,15.71,8.59,25.49,4.46,37.26,5.33,44.37,5.86,51.47,6.75,59.14,3.45Z"
              class="ears0"/>
    </g>
</svg>