<svg xmlns="http://www.w3.org/2000/svg" viewBox="0 0 600 1200">
    <g id="Ears1" style="fill:none">
        <path d="M265.18,87.37a27.83,27.83,0,0,0-2.9,21.38c1.92,7.48-1.56,13.44-6,18.61-6.36,7.46-14.93,10.94-24.75,11.41-4,.19-8.2,1.22-11.69-1.19-5.27-3.65-11.27-7.09-12.74-14-1.34-6.3-.38-12.94,3.29-18.07A35.49,35.49,0,0,1,236.1,90.33a31.8,31.8,0,0,1,4.83.33c2,.08,4,.14,6,.07a98,98,0,0,0,10.44-.61c1.93-.28,3.71-1.48,5.58-2.21A17.26,17.26,0,0,1,265.18,87.37Z"
              class="ears0"/>
        <path d="M338.61,87.38c1,.22,1.81.16,2.22.53,2.42,2.18,5.13,2.17,8.23,2,4.3-.21,8.69,1.06,12.93.63a28.92,28.92,0,0,1,12,1.1,36.85,36.85,0,0,1,17.56,11.77c5.28,6.36,5.95,13.47,4.9,21.09a6.85,6.85,0,0,1-1.91,3.78c-3.44,3.25-6.8,6.73-10.74,9.27-4.83,3.1-10.53,1.54-15.71.82A34,34,0,0,1,347.93,128c-4.25-4.44-6-10.06-7.33-15.8-.36-1.59,1-3.51,1.35-5.33A27.47,27.47,0,0,0,338.61,87.38Z"
              class="ears0"/>
        <path d="M269.51,86.49c-.16.2-.28.53-.49.6a6.81,6.81,0,0,0-5.12,6.2c-.27,2.84-.95,5.78-.52,8.53.92,5.85,2.09,11.64-.17,17.39-4.73,12-13.94,18.71-26.31,21.12-9.56,1.87-18.5.23-25.81-6.7-7.82-7.42-9.07-18.69-3.45-28.77C214.85,92,230.87,85,246,88.15c6.23,1.31,12.22-.31,18.26-1.42l5.13-.94Zm-7.26,3.45c-.71.2-1.83.49-2.94.83-6.17,1.9-12.38.56-18.59.35-12.12-.42-22.09,4-29,14.07-7.75,11.37-4,24.95,8.31,30.2,10.84,4.6,21.16,2.55,30.58-4.14s12.92-16,10.32-27.21a4.9,4.9,0,0,1-.19-1.61C261.22,98.29,261.74,94.14,262.25,89.94Z" style="fill:#000"/>
        <path d="M334.45,85.83c1.69.29,3.37.65,5.07.85,5.46.66,10.91,1.57,16.4,1.79,4,.16,8.1-1.07,12.13-.9,11.39.47,25.86,8,30.53,22.88,3.53,11.26-1.6,22.55-12.35,27.73-16.5,7.94-39.34-1.47-45.53-18.75a22.38,22.38,0,0,1-.34-14.89c1.4-4.28.72-8.54-.45-12.74-.52-1.86-1.42-3.45-3.62-3.9a7.4,7.4,0,0,1-2.11-1.3Zm6.77,4.7c2.56,5.86,2.74,8.8,1,15.79a19.85,19.85,0,0,0,.71,11.21c5.2,15.93,26.25,25,41.36,17.72,11.08-5.31,15-17.11,9.09-27.91-5.23-9.54-13.64-14.68-24.24-15.94-4.24-.51-8.64.46-13,.32C351.15,91.57,346.16,91,341.22,90.53Z" style="fill:#000"/>
    </g>
</svg>