<svg xmlns="http://www.w3.org/2000/svg" viewBox="0 0 61.1 62.69">
    <g class="ears0"
       style="fill:#bc9982">
            <path d="M32.83.44c13.22.8,25.65,12.14,27.8,25.3a33.07,33.07,0,0,1,.46,6.2,8.85,8.85,0,0,1-11,8.82c-.75-.16-1.26-.9-1.6.61-1.31,5.69-4.31,9.84-10.7,10.38-.83.07-.65.58-.67,1.13-.29,8.67-3.81,11.3-12.65,9C11.85,58.72,3.91,50.8,1,38c-.21-.88-1-8.79-1-11.88a28.48,28.48,0,0,1,7.07-16C11.88,4.54,17.72,1,25.17.29a1.48,1.48,0,0,0,1-.29H27.8C29.43.7,31.19-.06,32.83.44Z"
                  style="fill:#020202"/>
            <path d="M57.92,33c-.65,1.18,1.38,3.17-.65,4.16s-3.82,2.75-6.51,1.72c-1.41-.54-1.92-1.09-1.73-2.63a17.41,17.41,0,0,0-5.71-15.61c-6.45-6-17.87-5.9-24.36.45-6.9,6.75-7.32,17.58-1,24.41a18,18,0,0,0,13.61,6.25c3.85,0,4.92,1.94,2.87,5.38a5.21,5.21,0,0,1-5.2,2.77c-13.14-1.09-24.8-12.81-25.81-26-1.08-14.09,7.7-26.53,21-29.73C39.07.64,54,10.54,57.25,26A48,48,0,0,1,57.92,33Z"
                  class="ears0"/>
            <path d="M47.3,36.47c-1.33-2.38-2.11-4.49-3.91-6-1.07-.9-2.2-1.56-3.41-.92-1.65.88,0,2,.13,3.05a7.33,7.33,0,0,1,.14,1.6c-1-.73-2-1.38-2.89-2.1a2.22,2.22,0,0,0-2.74-.25c-.75.62-.2,1.64.23,2.45s.78,1.55,1.44,2.86a16,16,0,0,1-8.17-6.78,9.34,9.34,0,0,0-.53-.93c-.77-.89-.77-3.06-2.22-2.56-1.73.59-.57,2.32-.28,3.56a20.52,20.52,0,0,0,3.77,7.65c-.74.72-1.37-.08-2,0-.91.1-1.8,0-2.39.92s.26,1.61.68,2.35c.19.35,1.21.55.52,1.07-2.57,1.91-.35,2.45.84,3.41,1.78,1.45,4.49,1.23,6,3.35A15.61,15.61,0,1,1,31.84,18,16.15,16.15,0,0,1,47.3,36.47Z"
                  class="skins0"/>
            <path d="M27.35,44.44C29.5,43.2,29.5,43.2,26.5,40c1-.67,1.86.29,2.79.27.71,0,1.46.17,2-.52.69-.87-.18-1.34-.52-1.86a18.94,18.94,0,0,1-2.58-4.52c.94.93,1.91,1.83,2.82,2.79a8.39,8.39,0,0,0,2.85,2c1.3.56,2.74,1,3.79,0,1.23-1.21-.29-2.23-.74-3.31-.1-.23-.17-.48-.33-1,1.17,0,1.65.84,2.27,1.39s1.62,1.3,2.62.56.55-1.63.33-2.49-.53-1.51-.94-2.66c.73.34,1.39.43,1.68.81,2.43,3.1,4.65,6.4,3.59,10.57a10.08,10.08,0,0,1-7.82,7.73,3.38,3.38,0,0,1-3.38-.91C33.11,46.27,30.09,46,27.35,44.44Z"
                  style="fill:#9d7c67"/>
        </g>
</svg>