<svg xmlns="http://www.w3.org/2000/svg" viewBox="0 0 37.79 8.78">
    <g>
        <path d="M37.79,2.51a4.49,4.49,0,0,1-3.62,2.23,4.84,4.84,0,0,0-4.32,2.87c-.84,1.78-1.77,1.31-2.67,0A6.53,6.53,0,0,1,26.1,5.92C24.76,1.44,19.19.54,15.21,2.13c-1.94.77-2.63,2.92-3.56,4.6C10.5,8.8,9.37,8.79,8.2,7S5.29,5.1,3.61,4.78A5.07,5.07,0,0,1,0,2.51v-1C1.05-.28,2.4-.25,3.74,1c2,1.85,4.13,1.87,6.45.86a21,21,0,0,1,17.4,0c2.33,1,4.48,1,6.45-.86,1.35-1.27,2.7-1.3,3.75.44Z"
              style="fill:#050506"/>
        <path d="M27,4.38c.91.74,2.18.21,2.44,1.44.07.31-.58.77-.9,1.16C28,6.26,27,5.86,27,4.38Z"
              style="fill:#ededed"/>
        <path d="M8.25,5.53l2.92-1.3c.05,1.11-.85,1.65-1.3,2.4Z" style="fill:#f1f1f1"/>
    </g>
</svg>