<svg xmlns="http://www.w3.org/2000/svg" viewBox="0 0 39.25 11.41">
    <g>
        <polyline points="31.99 6.9 29.87 10.39 27.73 6.29" style="fill:#fff;stroke:#432918;stroke-miterlimit:10"/>
        <path d="M2.78.18c2,3.34,4.83,5.78,8.74,4.61a31.09,31.09,0,0,1,9.33-1.41,12,12,0,0,1,5.14,1,6.6,6.6,0,0,0,8.32-1.81C35,1.73,35.71,1,36.42.18q3.42-.7,2.71,2.67C36,7,31.55,8.36,26.64,6.27a17.07,17.07,0,0,0-13.36-.2C8.2,8,3.87,7.18.06,3.39,0,1.46-.42-.63,2.78.18Z"
              style="fill:#41302c"/>
        <path d="M17.43,10.87c-.07-1.72,1.29-1,2-1s2-.73,1.76,1Z" style="fill:#41302c"/>
    </g>

</svg>