<svg xmlns="http://www.w3.org/2000/svg" viewBox="0 0 600 1200">
    <g id="Fangs3">
        <path d="M282.81,256.28a5,5,0,0,0,4.11,2.4,3.92,3.92,0,0,1,3.53,2.53c.81,1.85,2,1.68,3.06,0,.37-.57.74-1.15,1.13-1.71,3.32-4.73,7.42-5.73,12.58-2.68,3.19,1.9,6.32,2.81,10,1.69a5.75,5.75,0,0,0,3.34-2.23v-1c-1-1.79-2.36-1.76-3.75-.51-2,1.85-4.12,1.87-6.45.86a21,21,0,0,0-17.4,0c-2.32,1-4.48,1-6.45-.86-1.3-1.25-2.65-1.28-3.7.46Z"
              style="fill:#050606"/>
        <path d="M293.81,258.48c-2.86.62-2.86.62-1.74,2.65Z" style="fill:#e8e6e7"/>
    </g>
</svg>