<svg xmlns="http://www.w3.org/2000/svg" viewBox="0 0 600 1200">
    <g id="Fangs1">
        <path d="M320.58,256.28a5,5,0,0,1-4.11,2.4,3.92,3.92,0,0,0-3.53,2.53c-.81,1.85-2,1.68-3.06,0-.37-.57-.74-1.15-1.13-1.71-3.32-4.73-7.42-5.73-12.58-2.68-3.19,1.95-6.32,2.81-10.05,1.69a5.76,5.76,0,0,1-3.33-2.23v-1c1-1.79,2.4-1.76,3.74-.51,2,1.85,4.13,1.87,6.45.86a21,21,0,0,1,17.4,0c2.33,1,4.48,1,6.45-.86,1.35-1.27,2.7-1.3,3.75.44Z"
              style="fill:#050606"/>
        <path d="M309.61,258.48c2.85.62,2.85.62,1.74,2.65Z" style="fill:#e8e6e7"/>
    </g>
</svg>