<svg xmlns="http://www.w3.org/2000/svg" viewBox="0 0 82.61 27.84">
    <g>
        <path d="M42.62,27.84c-9.31-.37-20.57-1.26-31.35-5.29A32.61,32.61,0,0,1,4,18.93c-5.56-3.86-5.31-8.83.56-12.38,4.4-2.66,9.31-3.9,14.27-4.8A99.41,99.41,0,0,1,42.32.14c10.06.56,20,1.74,29.59,5.29a26.49,26.49,0,0,1,8,4.49c3.72,3.17,3.5,7.33-.41,10.26-4.67,3.51-10.19,4.93-15.73,6A107.32,107.32,0,0,1,42.62,27.84Z"
              style="fill:#4a3a34"/>
        <path d="M67.5,5.52c4.85.37,8.8,2.79,12.24,5.9,2.55,2.3,2.25,5.28-.34,7.3a22.51,22.51,0,0,1-11,4.9c.37-1.18-1.07-.66-1.25-1.33.42-1.27,1.65-1.29,2.62-1.64a23.19,23.19,0,0,0,5-2.22c3.44-2.23,3.55-5.43.3-7.94a21.77,21.77,0,0,0-7.11-3.25c-.86-.27-2.5-.11-2-1.93A3.31,3.31,0,0,1,67.5,5.52Z"
              style="fill:#ac7739"/>
        <path d="M6.07,18.79a30.71,30.71,0,0,1-2.78-2.15C.36,13.83.41,10.78,3.77,8.46A19.1,19.1,0,0,1,11.62,5a.88.88,0,0,1,.7.83c-.35.91-1.28.87-2,1.2A13.62,13.62,0,0,0,6.17,9.49c-2.38,2.32-2.51,3.74-.44,6.3.44.55,1.14.92,1.2,1.74A1.54,1.54,0,0,1,6.07,18.79Z"
              style="fill:#ab7638"/>
        <path d="M34.52,26.18a98.84,98.84,0,0,1-18.46-3.3c-.62-1.17.31-1.32,1.05-1.59,3.79.19,7.41,1.44,11.18,1.89,2.1.25,4.4-.27,6.27,1.24A1.29,1.29,0,0,1,34.52,26.18Z"
              style="fill:#ddb07a"/>
        <path d="M67.17,22.38c.77.06,1.75-.08,1.2,1.24a55.72,55.72,0,0,1-15.32,2.55,1.73,1.73,0,0,1,.79-2C57.77,22.88,62,23,66,21.92A1.33,1.33,0,0,1,67.17,22.38Z"
              style="fill:#c69050"/>
        <path d="M53.59,24.71l-.54,1.46c-4.17,0-8.32,1.22-12.51.2,0-1.09.23-2.07,1.51-2.37,3-.26,6.07-.1,9.1-.11A2.7,2.7,0,0,1,53.59,24.71Z"
              style="fill:#d5ac79"/>
        <path d="M12.17,5.55c-.18-.19-.37-.38-.55-.58C15.08,3.15,19,3,22.67,2.22c1.21-.25,2.46-.3,3.69-.45,1.6.73,3.4-.27,5,.58-.2,1.07-1.09,1.16-1.88,1.17A63.83,63.83,0,0,0,14.74,5.79C13.86,6,13,6.27,12.17,5.55Z"
              style="fill:#b2834d"/>
        <path d="M17.1,21.89c-.59.07-1.07.27-1,1a39.73,39.73,0,0,1-10-4.09,1.63,1.63,0,0,1,.7-1.29c3.44.8,6.6,2.4,9.93,3.5A.73.73,0,0,1,17.1,21.89Z"
              style="fill:#be8a4e"/>
        <path d="M31.32,2.37c-1.63-.43-3.43.61-5-.6,5.63-.3,11.25-1,16.89-.48A.87.87,0,0,1,43,2.62C39.09,3.17,35.19,3.56,31.32,2.37Z"
              style="fill:#d3a672"/>
        <path d="M67.5,5.52l-2,.15a2.47,2.47,0,0,1-2.56.2c-2.56-.93-5.52-.45-7.84-2.22.68-1.17,2-.08,2.8-.78C61.17,3.59,64.55,3.8,67.5,5.52Z"
              style="fill:#bf9465"/>
        <path d="M43.21,2.24c0-.32,0-.64,0-1l10.87,1c.21.79-.22,1.2-.86,1.49C49.91,3.27,46.28,4.53,43.21,2.24Z"
              style="fill:#dbd1bf"/>
        <path d="M41.11,24.77c.48.77.1,1.24-.58,1.6l-6-.19c0-.49,0-1,0-1.49A6,6,0,0,1,41.11,24.77Z"
              style="fill:#f2e9d5"/>
        <path d="M53.58,3.22l.54-.9,3.82.55c-.77.89-1.82.33-2.72.52A1,1,0,0,1,53.58,3.22Z" style="fill:#d2af86"/>
        <path d="M53.58,3.22l1.64.17L65.54,5.67c2.73,1.15,5.69,1.68,8.27,3.2,2.26,1.31,4.38,2.86,4.31,5.72s-2.23,4.19-4.49,5.23c-2.1,1-4.3,1.71-6.46,2.56L53.59,24.71l-12.48.06-6.58-.08c-5.83-.84-11.68-1.51-17.43-2.8-3.44-1.47-7.19-2.21-10.33-4.39-4.46-3.52-4.22-7,.76-9.85a49.79,49.79,0,0,1,4.64-2.1c6.26-1.77,12.71-2.47,19.15-3.18l11.89-.13Z"
              style="fill:#4a3a34"/>
        <path d="M44.82,23.57c-11.49.07-21.49-1-31.19-4.21a21.49,21.49,0,0,1-6.32-3.1c-3.22-2.42-3.15-5.09.3-7.27a32,32,0,0,1,12-4.06A111.63,111.63,0,0,1,64.06,6.39c4.1,1,8.27,2.05,11.34,5.37,2.17,2.35,2.06,4.16-.6,6-3.59,2.42-7.72,3.42-11.89,4.22A81.63,81.63,0,0,1,44.82,23.57Z"
              style="fill:#fff"/>
    </g>
</svg>