<svg xmlns="http://www.w3.org/2000/svg" viewBox="0 0 114.44 32.59">
    <g>
            <path d="M0,8.61A5,5,0,0,1,2.86,7c0-.17.06-.38,0-.5C1.65,4.69.65,2.74,2.57.88s3.79-.51,5.53.3a14.48,14.48,0,0,1,7.49,8.54c1.64,4.46-1.58,9.32-6.37,10-2.51.34-4.83.43-7-1.26C1.2,17.57.58,16.3,1.13,15.34c1.18-2.07,0-3.24-1.13-4.55Z"
                  style="fill:#443633"/>
            <path d="M53.56,4.75c11.55.27,23,1.4,33.94,5.36a26,26,0,0,1,8,4.47c3.72,3.12,3.53,7.37-.36,10.28-4.75,3.56-10.35,5-16,6a96.11,96.11,0,0,1-22.14,1.62C46.44,32,35.91,30.83,25.91,26.87a29.83,29.83,0,0,1-6.48-3.39c-5.28-3.81-5-8.6.51-12.08,4.37-2.75,9.27-4.05,14.23-4.92A97.61,97.61,0,0,1,53.56,4.75Z"
                  style="fill:#493a34"/>
            <path d="M107.9,22.75c-5.18.07-9.13-2.51-9.38-6.62-.28-4.33,1.86-7.83,5.15-10.48a10.86,10.86,0,0,1,5-2.59c1.37-.23,2.69-.53,3.62.9A3.55,3.55,0,0,1,112.35,8c-.63,1-1.4,1.68.69,2.31,2.3.69,1.23,2.85.52,4.27-.55,1.08-.9,1.7-.28,3C114.37,20,111.39,22.7,107.9,22.75Z"
                  style="fill:#443734"/>
            <path d="M4.22,8.72c.78,0,1.72.86,2.17-.3s-.72-1.3-1.22-1.87-.88-.92-1.28-1.4a2.51,2.51,0,0,1-.38-3c.73-1.18,1.85-.33,2.7-.06a12.27,12.27,0,0,1,7.84,11.17,4.49,4.49,0,0,1-3,4.37c-2.5.72-5.4,1.63-7.77-.5-1.36-1.22-.67-2,.9-2.3.73-.15,1.87,0,1.84-1.11,0-.91-1.09-.76-1.69-1.1-.31-.18-.67-.28-1-.46a2.61,2.61,0,0,1-1.4-2.74C2.2,8.12,3.52,9.13,4.22,8.72Z"
                  style="fill:#fbf1ec"/>
            <path d="M91.71,13.41A30.15,30.15,0,0,1,95,15.7c2.85,2.57,2.64,5.7-.4,8a25.06,25.06,0,0,1-7.44,3.84C87.3,26.67,87,26.09,86,26c.09-1.19,1.19-1.2,1.92-1.61a18.91,18.91,0,0,0,3-1.74c2.39-2,2.65-3.73.91-6.31-.34-.51-.9-.89-1-1.57A1.53,1.53,0,0,0,91.71,13.41Z"
                  style="fill:#ac7738"/>
            <path d="M21.3,23.23C20.52,22.62,19.73,22,19,21.4c-3.79-3.1-2.15-6.89,1.22-8.81A33.28,33.28,0,0,1,27.84,9.2c.47.48,1.31-.11,1.71.57C29.24,11.14,28,11.08,27,11.38a12.67,12.67,0,0,0-5.18,2.78c-2.46,2.36-2.54,3.81-.31,6.47.34.41.81.72,1,1.27C22.48,22.69,21.82,22.89,21.3,23.23Z"
                  style="fill:#ab7638"/>
            <path d="M86.15,26c1.4-.21,1.37.55,1,1.51a73.42,73.42,0,0,1-17.43,3.29,3,3,0,0,1,1-2.43A83.46,83.46,0,0,0,84.4,25.67,1.7,1.7,0,0,1,86.15,26Z"
                  style="fill:#c69050"/>
            <path d="M91.71,13.41c.07.55.4,1.24-.64,1.19a1.53,1.53,0,0,1-1.55-.1C84.38,11.6,78.65,10.61,73,9.37c-.85-.19-1.88,0-2.23-1.16.77-.93,2,0,2.8-.64,5.92,1.17,11.85,2.35,17.25,5.23C91.13,13,91.41,13.21,91.71,13.41Z"
                  style="fill:#bf9362"/>
            <path d="M70.28,29.28c.76.82-.43,1-.51,1.56-4.53-.12-9,1.3-13.59.25,1.17-.38-.16-2.18,1.36-2.36,3.59-.36,7.18-.12,10.77-.15A2.49,2.49,0,0,1,70.28,29.28Z"
                  style="fill:#d4a978"/>
            <path d="M42,29.78A58.23,58.23,0,0,1,27.31,26c.17-1.39,1.3-1,2.14-1.19,4.68,1.31,9.56,1.84,14.18,3.43C43.85,29.56,42.41,29.13,42,29.78Z"
                  style="fill:#deb07b"/>
            <path d="M29.48,9.72c-.58-.07-1.24.11-1.64-.52A79.26,79.26,0,0,1,41.49,6.5c1.78.63,3.72-.28,5.49.54-.15.92-.89,1.13-1.6,1.13-4.8,0-9.44,1.1-14.13,1.93A1.93,1.93,0,0,1,29.48,9.72Z"
                  style="fill:#b78b5a"/>
            <path d="M56.76,29.45l2.09.74c-.69,1.26-1.87.53-2.67.9L49,30.82c-.89-.62-1.06-1.26-.07-1.94C51.57,28.61,54.25,27.82,56.76,29.45Z"
                  style="fill:#f3ead6"/>
            <path d="M47,7c-1.81-.35-3.73.52-5.46-.52,4.54,0,9-1.06,13.59-.58a.91.91,0,0,1-.2,1.35C52.21,7.83,49.55,8.27,47,7Z"
                  style="fill:#d4a875"/>
            <path d="M55.07,6.87c0-.32,0-.63,0-1,3.3-.39,6.53.58,9.81.53a.9.9,0,0,1-.16,1.33A16.07,16.07,0,0,1,55.07,6.87Z"
                  style="fill:#e1d6c5"/>
            <path d="M29.4,25.5c-.71.11-1.54-.27-2.09.5a21.18,21.18,0,0,1-6-2.77c0-.74.46-1,1.1-1C24.93,22.87,27.65,23.17,29.4,25.5Z"
                  style="fill:#c28e51"/>
            <path d="M48.55,29.29c.14.51.29,1,.44,1.53-2.28-.71-4.74-.13-7-1,.08-1.15,1-.94,1.71-1.05C45.44,28,47.15,27.23,48.55,29.29Z"
                  style="fill:#e0c78c"/>
            <path d="M64.86,7.39l0-.94,8.68,1.12c-.78.86-1.82.31-2.72.52C68.68,9.34,66.72,8.8,64.86,7.39Z"
                  style="fill:#d6af7c"/>
            <path d="M100.38,15c-.3-4,5.46-10.51,9.37-10.63,1.71-.06,1.62,1.14,1.44,2.25C111,8,109.78,8.84,108.77,9.74c-.46.41-1.09.8-.59,1.56.37.56.88.31,1.42.31,1,0,2.6-.89,2.93.69s-.83,2.45-2.25,3c-.69.27-1.87.19-1.8,1.27.07.88,1.09.77,1.77.94s1.61.1,1.65,1.08-.71,1.41-1.46,1.8A6.79,6.79,0,0,1,100.38,15Z"
                  style="fill:#fbf1ec"/>
            <path d="M64.86,7.39l6,.7C74.84,9.15,79,9.65,82.9,11a35.24,35.24,0,0,1,8.17,3.65c4,3.57,3.62,7-1.1,9.56-1.24.68-2.54,1.26-3.82,1.88a117.17,117.17,0,0,1-15.87,3.24l-13.52.17-8.22-.16c-1.52-.94-3.22-.31-4.83-.56C38.94,27.65,34.08,27,29.4,25.5c-2.3-1.18-4.89-1.73-7-3.31-4.43-3.48-4.17-6.84.66-9.86,2-1.26,4.4-1.44,6.42-2.61C35.22,8.25,41.12,7.86,47,7l8.12-.15C58.35,6.67,61.57,7.77,64.86,7.39Z"
                  style="fill:#4b3b36"/>
            <path d="M60.77,28.26c-11.62.06-21.63-1-31.35-4.16A21.89,21.89,0,0,1,23.08,21c-3.39-2.51-3.34-5.21.27-7.4a31.69,31.69,0,0,1,11.26-3.8C51.45,6.94,68.11,7.4,84.5,12.55a14.45,14.45,0,0,1,6.72,3.92c2,2.16,1.9,3.9-.41,5.68a20.35,20.35,0,0,1-7.37,3.34A81.43,81.43,0,0,1,60.77,28.26Z"
                  style="fill:#fff"/>
    </g>
</svg>