<svg xmlns="http://www.w3.org/2000/svg" viewBox="0 0 600 1200">
    <defs>
        <linearGradient id="goldTrans" x1="241.47" y1="1248.15" x2="361.47" y2="1248.15"
                        gradientTransform="matrix(1, 0, 0, -1, 0, 1298.42)" gradientUnits="userSpaceOnUse">
            <stop offset="0" stop-color="#ae7938"/>
            <stop offset="0.06" stop-color="#bb8443"/>
            <stop offset="0.15" stop-color="#c7904e"/>
            <stop offset="0.25" stop-color="#ca9351"/>
            <stop offset="0.5" stop-color="#f9f0dc"/>
            <stop offset="0.75" stop-color="#ca9351"/>
            <stop offset="1" stop-color="#ae7938"/>
        </linearGradient>
    </defs>
    <g id="Halo1">
        <path d="M361.47,50.27c0,10.36-26.86,18.75-60,18.75s-60-8.39-60-18.75,26.87-18.75,60-18.75S361.47,39.92,361.47,50.27Zm-60-15c-31.06,0-56.25,6.72-56.25,15s25.19,15,56.25,15,56.25-6.71,56.25-15S332.54,35.27,301.47,35.27Z"
              style="stroke:#1e1e1c;stroke-miterlimit:10;fill:url(#goldTrans)"/>
        <path d="M377.51,56.28c-2.48-1-5.67,0-8.3-2-4.95-3.79-6.21-8.88-3.76-14.68A20.54,20.54,0,0,1,380,26.78c1.89-.47,3.46-.47,4.75,1.14a5.22,5.22,0,0,1,.62,5.74c-.87,1.86-3,3.27,1.2,4.19,2.38.52,1.59,3.91.61,5.65a5.57,5.57,0,0,0-.69,5.66C387.86,52.73,382.94,56.51,377.51,56.28Z"
              style="fill:#433532"/>
        <path d="M367,44.39c-1.21-4.64,7.76-14.91,14-15.65,2.16-.24,2.49,1.13,2.36,2.85-.2,2.42-2,3.72-3.63,5.16-.68.6-1.7,1.16-1,2.33.48.84,1.21.64,2.1.6,1.5,0,4-1.4,4.5.87s-1.32,3.9-3.63,4.71c-.93.33-2.51.28-2.43,1.72s1.5,1.22,2.55,1.5,2.43,0,2.53,1.5-1.17,2.36-2.41,3A10.08,10.08,0,0,1,367,44.39Z"
              style="fill:#fbf1ec"/>
        <path d="M225.45,56.3c2.48-1,5.67.07,8.3-1.94,4.95-3.79,6.21-8.88,3.75-14.7A20.53,20.53,0,0,0,223,26.81c-1.88-.48-3.47-.48-4.76,1.2a5.22,5.22,0,0,0-.6,5.74c.87,1.88,3,3.29-1.2,4.2-2.38.45-1.57,3.83-.61,5.57a5.67,5.67,0,0,1,.69,5.67C215.1,52.74,220,56.51,225.45,56.3Z"
              style="fill:#433532"/>
        <path d="M236,44.42c1.23-4.65-7.75-14.91-14-15.65-2.14-.25-2.49,1.11-2.34,2.84.2,2.4,2,3.73,3.63,5.16.68.6,1.68,1.15,1,2.32-.48.84-1.22.65-2.09.6-1.5,0-4-1.39-4.5.89s1.34,3.9,3.65,4.71c.91.31,2.5.27,2.41,1.72s-1.5,1.2-2.53,1.5-2.43,0-2.55,1.5,1.18,2.34,2.41,3A10.08,10.08,0,0,0,236,44.42Z"
              style="fill:#fbf1ec"/>
    </g>
</svg>