<svg xmlns="http://www.w3.org/2000/svg" xmlns:xlink="http://www.w3.org/1999/xlink" viewBox="0 0 115.51 28.84">
    <defs>
        <linearGradient id="gold" x1="17.75" y1="15.84" x2="97.75" y2="15.84"
                        gradientUnits="userSpaceOnUse">
            <stop offset="0" stop-color="#ae7838"/>
            <stop offset="0.06" stop-color="#bb8443"/>
            <stop offset="0.15" stop-color="#c68f4d"/>
            <stop offset="0.25" stop-color="#ca9250"/>
            <stop offset="0.5" stop-color="#f9f0dc"/>
            <stop offset="0.75" stop-color="#ca9250"/>
            <stop offset="1" stop-color="#ae7838"/>
        </linearGradient>
    </defs>
    <g>
            <path d="M97.75,15.84c0,6.91-17.91,12.5-40,12.5s-40-5.59-40-12.5,17.91-12.5,40-12.5S97.75,8.94,97.75,15.84Zm-40-10c-20.71,0-37.5,4.48-37.5,10s16.79,10,37.5,10,37.5-4.47,37.5-10S78.46,5.84,57.75,5.84Z"
                  style="stroke:#1d1d1b;stroke-miterlimit:10;fill:url(#gold)"/>
            <path d="M108.44,19.85c-1.65-.68-3.78,0-5.53-1.3-3.3-2.53-4.14-5.92-2.51-9.79A13.69,13.69,0,0,1,110.08.18c1.26-.31,2.31-.31,3.17.76a3.48,3.48,0,0,1,.41,3.83c-.58,1.24-2,2.18.8,2.79,1.59.35,1.06,2.61.41,3.77a3.7,3.7,0,0,0-.46,3.77C115.34,17.48,112.06,20,108.44,19.85Z"
                  style="fill:#433532"/>
            <path d="M101.41,11.92c-.81-3.09,5.17-9.94,9.34-10.43,1.44-.16,1.66.75,1.57,1.9C112.19,5,111,5.87,109.9,6.83c-.45.4-1.13.77-.68,1.55.32.56.81.43,1.4.4,1,0,2.65-.93,3,.58s-.88,2.6-2.42,3.14c-.62.22-1.67.19-1.62,1.15s1,.81,1.7,1,1.62,0,1.69,1-.78,1.57-1.61,2A6.72,6.72,0,0,1,101.41,11.92Z"
                  style="fill:#fbf1ec"/>
            <path d="M7.07,19.86c1.65-.67,3.78.05,5.53-1.29,3.3-2.53,4.14-5.92,2.5-9.8A13.68,13.68,0,0,0,5.42.2C4.17-.12,3.11-.12,2.25,1a3.48,3.48,0,0,0-.4,3.83c.58,1.25,2,2.19-.8,2.8C-.54,7.93,0,10.18.64,11.34a3.77,3.77,0,0,1,.46,3.78C.17,17.49,3.45,20,7.07,19.86Z"
                  style="fill:#433532"/>
            <path d="M14.09,11.94C14.91,8.84,8.92,2,4.75,1.51c-1.43-.17-1.66.74-1.56,1.89C3.32,5,4.52,5.89,5.61,6.84c.45.4,1.12.77.67,1.55-.32.56-.81.43-1.39.4-1,0-2.65-.93-3,.59s.89,2.6,2.43,3.14c.61.21,1.67.18,1.61,1.15s-1,.8-1.69,1-1.62,0-1.7,1,.79,1.56,1.61,2A6.72,6.72,0,0,0,14.09,11.94Z"
                  style="fill:#fbf1ec"/>
        </g>
</svg>