<svg xmlns="http://www.w3.org/2000/svg" viewBox="0 0 82.26 29.69">
    <g>
        <path d="M6.41,25.45a10.71,10.71,0,0,1-4.34-2.66C-.12,20.78-.67,18.38.89,16a3.22,3.22,0,0,0,.16-3.65c-.29-.8-.56-1.6.2-2.31,2,1.19,2.37,3.7,4.3,5,1.08.71,2.49,1.21,2.86,2.71a1,1,0,0,1-.67.9c-.48.25-1.08-.2-1.7.39,3.41,4.25,8.57,4.1,13.14,5.35a9.43,9.43,0,0,0,1.47.41c-.27-.27-.66-.23-1-.35-.68-.34-1.7-.15-1.91-1.22a1.06,1.06,0,0,1,.77-.92c2.33,0,4.48,1,6.74,1.31,2.81,1,5.82,1.3,8.68,2.14a43,43,0,0,0,4.78.68c1.31.39,2.69.38,4,.71,2.95.57,6-.09,8.92.42,4.33,1.05,8.58-.24,12.87-.45a18.79,18.79,0,0,0,4-.55c3.38-.65,6.78-1.27,9.64-3.41,1.68-1.25,2.5-2.77,1.41-5.32C78,20,78,23.37,74.68,23.5a1,1,0,0,1-.8-.74c-.09-1.09,1-1.54,1.65-2.72a51.58,51.58,0,0,1-12.09,5,2.83,2.83,0,0,1-.5.13c-.88.18-2,.07-1.59,1.59-1.17.55-2.48.41-3.7.73-3.09-.16-6.19-.12-9.29-.3a26.84,26.84,0,0,1-9.22-1c-1.69-.23-3.5,0-4.88-1.36.12-1.38,1.26-1.13,2.11-1.34a73,73,0,0,0,36.12-8.37,4.92,4.92,0,0,0,1.94-1.9c.28-.93-1.48-1.2-.75-2.27a2,2,0,0,1,1-.34c1.19-.05,1.18-.6.52-1.32a10.31,10.31,0,0,0-4.06-2.54c-.88-.34-2-.43-2.21-1.67a1,1,0,0,1,.37-.71,2.58,2.58,0,0,1,2.07-.17,16.25,16.25,0,0,1,5.21,2.81c2.4,2.09,2.7,4.59.84,7.2a15.75,15.75,0,0,1-4.78,3.92c-4,2.34-8.45,3.7-12.85,5.13A34.94,34.94,0,0,1,49.6,25c2.45-.29,6,0,9.42-1.32,4.72-1.25,9.41-2.58,13.66-5.08,2.32-1.2,4.7-2.26,6.3-4.53,1.92-2.75,1.94-3.6-.26-6.16-.64-.75-1.62-1.18-2-2.16.13-.67.42-1,1.07-.5,4.31,1.86,5.55,4.93,3.54,9.09a2.54,2.54,0,0,0,0,2.49c1.68,3.59.84,6.17-2.5,8.28C73.56,28.42,67.58,29,61.63,29.46c-7.23.62-14.45-.2-21.67-.45-5.14-.18-10.29.5-15.43.09A56.71,56.71,0,0,1,13.6,27.61c0-1.21,1-1.1,1.69-1.3,3.75.09,7.43,1,11.19,1a27.4,27.4,0,0,1,5.32.39,30.94,30.94,0,0,0-7.17-.55c-4.29-.53-8.64-.69-12.85-1.79A14.68,14.68,0,0,1,9,24.4c-3-1.56-6.37-2.79-5.72-7.86-1.44,2.53-1.3,3.62.23,5,1.21,1.1,2.73,1.79,4,2.86a1.11,1.11,0,0,1,.3.71C7.43,25.76,6.94,25.68,6.41,25.45Z"
              style="fill:#55433a"/>
        <path d="M1.54,10.13c-.71.62-.31,1.48-.49,2.22-2.41-3.22.14-6.7,4.17-8.67C11,.83,17.39.26,23.73.14,28.56.05,33.45-.35,38.25.8a5.24,5.24,0,0,1-3.58,1.55,64.72,64.72,0,0,0-16.8.32,36.63,36.63,0,0,0-10.26,2C4.74,5.56,3.16,7.87,1.54,10.13Z"
              style="fill:#685549"/>
        <path d="M34.81,1.92C36,1.63,36.9.55,38.25.8c6.15.35,12.3-.68,18.46,0a.58.58,0,0,1,0,.79c-2.27,1.6-4.82.5-7.23.69a13.29,13.29,0,0,0-2.88.24C44.34,3,42,2.35,39.82,3a54.16,54.16,0,0,0-8.1,1.18c-2.55.12-4.93,1.64-7.6,1-2-1.49-.55-2.13.76-2.31A9.26,9.26,0,0,0,28.51,2C30.62,2.19,32.7,1.32,34.81,1.92Z"
              style="fill:#4e3f38"/>
        <path d="M56.69,1.47c0-.22,0-.45,0-.67a49.64,49.64,0,0,1,18.54,3,4.6,4.6,0,0,1,2.53,1.44l-.9.49c-2,.65-3.5-1.08-5.34-1.26A122.16,122.16,0,0,0,59,2.66C58.13,2.59,57,2.87,56.69,1.47Z"
              style="fill:#68574c"/>
        <path d="M15.32,27c-.61.11-1.34-.08-1.72.66a19.72,19.72,0,0,1-7.19-2.16l1.22-.62A10.47,10.47,0,0,1,15.32,27Z"
              style="fill:#6f5f56"/>
        <path d="M73.42,15.49a71.44,71.44,0,0,1-36.79,8.75A70.45,70.45,0,0,1,13.24,18,24.16,24.16,0,0,1,9.43,16c-1.49-1-1.9-2.13-.46-3.51C15,8.88,21.55,7,28.33,5.66A84.49,84.49,0,0,1,37.11,4c11.36-.29,22,2.79,32.33,7.13a11.75,11.75,0,0,1,3.22,2C73.36,13.69,74.24,14.36,73.42,15.49Z"
              style="fill:#fff"/>
        <path d="M73.42,15.49c.46-1.24-.59-1.53-1.31-2C66.71,10,60.62,8.28,54.48,6.8,48.78,5.44,43,4.1,37.07,4.64c.07-1.16,1-1.2,1.78-1.19a103.73,103.73,0,0,0,11.29-.59,2.91,2.91,0,0,1,2.75.78c-.4,1.55-1.44.52-2.33.72A61.7,61.7,0,0,1,66.43,8.47c3.07,1.45,6.29,2.62,8.81,5Z"
              style="fill:#736054"/>
        <path d="M71.89,4.16c1.85-.07,3.29,1.16,5,1.57a13.41,13.41,0,0,1,2.2,1.56c3,3.05,2.69,5.64-1.07,8.86a11.69,11.69,0,0,1-4.92,2.78,1.3,1.3,0,0,1-.67-1.25c1.15-.86,2.36-1.63,3.43-2.58,3.06-2.73,2.85-5.93-.56-8.2a43.71,43.71,0,0,0-4-2.12C71.34,4.43,71.71,4.38,71.89,4.16Z"
              style="fill:#ac783a"/>
        <path d="M1.54,10.13c.36-3.57,3-5.05,5.89-6.07a31.76,31.76,0,0,1,10-2.12,1,1,0,0,1,.21.74c-1.12,1.51-2.89,1.26-4.43,1.54A13.85,13.85,0,0,0,7,6.54c-2.85,2.14-3.1,4.07-.84,6.82a15.6,15.6,0,0,0,1.15,1.15c1,1.39,3.12,1.36,3.74,3.14a1.83,1.83,0,0,1-1.22,1,1.33,1.33,0,0,1-1.63-.82C5.59,15.55,2.19,14,1.54,10.13Z"
              style="fill:#a37239"/>
        <path d="M10.91,17.76c-1-1.28-3-1.17-3.82-2.75-.1-1.58.18-2.77,2.22-2.14-1.52,1.19-.64,1.87.51,2.55a60.53,60.53,0,0,0,16.31,6.32c3.49.88,7,1.67,10.5,2.5-.74.28-1.67-.25-2.29.55a1.76,1.76,0,0,1-1.6.58c-2.15-.84-4.53-.74-6.66-1.64A53,53,0,0,1,13,19.35C12.2,18.94,11.22,18.78,10.91,17.76Z"
              style="fill:#6a594e"/>
        <path d="M74.73,23.28C76.63,22.33,78,21,78,18.7a1.71,1.71,0,0,1,1.39-1.79c1-.1,1.18,1.05,1.37,1.74a4.32,4.32,0,0,1-2,4.91A20.29,20.29,0,0,1,69.23,27c-.37-.73-1.66-.4-1.73-1.49C69.76,24.29,72.29,24,74.73,23.28Z"
              style="fill:#aa7638"/>
        <path d="M69.21,5.27C71.73,6.4,74.55,7,76.27,9.5c.41.58.91,1.29.27,1.94s-1.11-.31-1.71-.31C70.51,9.54,66.42,7.4,62,6.12c-.74-.21-1.8-.51-1.6-1.52.26-1.3,1.42-.68,2.26-.71C64.89,4.06,67.27,3.6,69.21,5.27Z"
              style="fill:#f1eff0"/>
        <path d="M19.07,24.88C15.3,24,11.39,23.74,7.91,21.81,5.79,20.63,5.36,20,5.12,17.6c1-.48,1.49.83,2.36.78a55,55,0,0,1,10.43,4.94c.52.75,1.36.3,2,.52.39.11.58.39.4.73A.81.81,0,0,1,19.07,24.88Z"
              style="fill:#edecec"/>
        <path d="M62.15,4.61c-.52.1-1.11-.84-1.4-.26-.53,1.1.61.71,1.07.9,4.41,1.8,9.13,2.91,13,5.88l-1.26.1c-1.81.66-2.93-.91-4.39-1.37a14.41,14.41,0,0,1-2.72-1.15c-2.66-1.25-5.67-1.54-8.22-3.07.18-.86-.65-.58-1-.86-.95-.8-.69-1.39.37-1.69,1.3-.37,2.69-.13,4-.44.73.26,1.65-.21,2.24.58C63.82,4.33,62.59,4,62.15,4.61Z"
              style="fill:#716158"/>
        <path d="M72.42,17.68a1.38,1.38,0,0,1,.67,1.25c-2.76,2.36-6.27,3.06-9.55,4.16-1.32.44-2.58,1.43-4.13,1.11-.29-.66.11-1.07.52-1.48C64.1,21.06,68.44,19.8,72.42,17.68Z"
              style="fill:#c28d4f"/>
        <path d="M63.82,3.54c-.66-.64-1.5-.38-2.27-.43-4.28.66-8.54.1-12.81-.14a2.44,2.44,0,0,1-1.9-1.19c1.95-.88,4,0,6-.14a32.49,32.49,0,0,1,3.85-.17C60.11,2,63.53,2.5,67,2.91a26.59,26.59,0,0,1,4.93,1.25l-.61.62-2,0A21.93,21.93,0,0,1,63.82,3.54Z"
              style="fill:#bc966b"/>
        <path d="M15.32,27,7.63,24.83l0-.1c-.48-1.17.08-1.33,1.05-1.07,5.1,1.89,10.46,2.33,15.81,2.83.4.94,2.08.08,2.13,1.51Z"
              style="fill:#d4a572"/>
        <path d="M8.71,23.66c-.63.08-1.09.33-1.05,1.07a13.06,13.06,0,0,1-5.18-3.22,3.26,3.26,0,0,1-1.09-3.16c.23-1,0-2.59,1.43-2.52s.91,1.48.92,2.4C3.76,21.55,6.6,22.27,8.71,23.66Z"
              style="fill:#a87438"/>
        <path d="M10.91,17.76a77.78,77.78,0,0,0,15.31,5.39c-.22.55-1.44.11-1.16,1.16a30.86,30.86,0,0,1-6.4-1.78c-3.28-.72-6.63-1.28-8.89-4.16C10,17.85,10.45,17.81,10.91,17.76Z"
              style="fill:#cea171"/>
        <path d="M67.58,25.91c.53.4,2.24-.93,1.65,1.12-5.82,1.14-11.66,2-17.62,1.19,1.17-1,2.59-.89,4-.83.79,0,1.57.28,2.17-.46,1.2-.79,2.58-.11,3.83-.49A7.53,7.53,0,0,1,67.58,25.91Z"
              style="fill:#c18c4e"/>
        <path d="M63.33,24.33c4.75-.9,8.87-3.41,13.42-5.5-.13,2.08-1.68,2.69-2.68,3.72-2.71,2.51-6.25,2.34-9.56,2.86A.94.94,0,0,1,63.33,24.33Z"
              style="fill:#e2dfdf"/>
        <path d="M63.33,24.33c.72,1.24,1.77.49,2.65.38a39.13,39.13,0,0,0,8.09-2.16l.66.73c-2,1.88-4.8,1.68-7.15,2.63a22.82,22.82,0,0,1-6,.53c-.39-.7-1.32-.32-1.9-.89C60.73,24.43,62.26,25.05,63.33,24.33Z"
              style="fill:#685447"/>
        <path d="M59.93,22.72c-.17.49-.35,1-.52,1.48C55.77,25.86,52,25.35,48.12,25Z" style="fill:#d1a26c"/>
        <path d="M57.75,26.93c-.06,1.33-1,1.15-1.92,1.18l-4.22.11c-3.06-.32-6.18.39-9.2-.57,1.71-1.25,3.65-.48,5.49-.53.63,0,.66-.13.59-.61Z"
              style="fill:#c59967"/>
        <path d="M9.77,18.37c2.68,2,6.05,2.52,8.89,4.16l-.75.79A35.18,35.18,0,0,1,7.48,18.38l.69-.6Z"
              style="fill:#6b5a51"/>
        <path d="M48.49,26.51l1.67,1.14H42.41A7.73,7.73,0,0,1,38.7,27c-.41-.68.08-1.06.48-1.46A32.13,32.13,0,0,0,48.49,26.51Z"
              style="fill:#c6af84"/>
        <path d="M25.06,24.31c-.61-1.38.52-1,1.16-1.16,2.09.9,4.53.48,6.51,1.74.37.47,1.18.63,1,1.47Z"
              style="fill:#d2bb86"/>
        <path d="M26.65,28c-.22-1.2-2.61.67-2.13-1.51A14.2,14.2,0,0,1,32.72,28Z" style="fill:#d0b782"/>
        <path d="M66.5,8.48l7.07,2.75c.42.85,2.13.76,1.67,2.27L66.48,9.09a.38.38,0,0,1-.13-.41C66.4,8.54,66.45,8.48,66.5,8.48Z"
              style="fill:#a67947"/>
        <path d="M33.72,26.36c-.36-.47-1.19-.62-1-1.47l1.61-.1,4.84.77L38.7,27C37,27.29,35.36,26.71,33.72,26.36Z"
              style="fill:#ece2cf"/>
        <path d="M63.82,3.54a9.71,9.71,0,0,1,5.42,1.27,3.44,3.44,0,0,1,0,.46c-2.36-.17-4.66-1-7.06-.66C62.19,3.44,63.1,3.64,63.82,3.54Z"
              style="fill:#5d4b41"/>
        <path d="M19.07,24.88c.61-.08,1.28-.11.86-1,.89.32,1.93.19,2.9,1.06A3.42,3.42,0,0,1,19.07,24.88Z"
              style="fill:#6b5a51"/>
        <path d="M17.45,2.53c0-.2,0-.39,0-.59a75.26,75.26,0,0,1,15.37-.56c.7,0,1.49-.23,2,.54-2.17,0-4.27.83-6.46.52C24.72,2.92,21.09,4,17.45,2.53Z"
              style="fill:#b48d62"/>
        <path d="M17.45,2.53l10.9-.09c-.62,1.37-1.76,1.16-2.94,1.05s-1.31-.07-1.35,1.24c-1.36,2.4-4.17,1.46-6.1,2.6-.8.47-1.87.58-2.76,1-2.21,1-4.58,1.6-6.6,3,2.31-1.55,5.05-2.14,7.5-3.4A145.16,145.16,0,0,1,31.88,3.85c2.69-.49,5.42-.69,8.12-1.12a57.31,57.31,0,0,1,8.49-.23l13.06.61c-1.34,1.05-3,0-4.42.69,0,1.24,1.28.6,1.76,1.13,0,0,0,.18-.11.21a4,4,0,0,1-.52.15,5.24,5.24,0,0,1-5.38-1.18,8.08,8.08,0,0,0-6.43,0c-1.4.61-2.58-.22-3.89,0-1.82.27-3.74-.43-5.49.57-7.65,1.54-15.39,2.77-22.64,5.84-1.74.73-3.42,1.59-5.12,2.39C7.82,12.81,7.62,14.09,7.09,15c-3.92-2.59-4.85-6.9.57-9.83,2.62-1.42,5.52-1.5,8.31-2.11C16.5,3,17.05,3,17.45,2.53Z"
              style="fill:#5d4b41"/>
        <path d="M31.63,4.22,15.81,8.53c-.58.27-1.1.42-1-.54l9.28-3.26c2.61.16,5-1.14,7.56-1.16C31.91,3.78,31.92,4,31.63,4.22Z"
              style="fill:#bd9367"/>
        <path d="M48.49,2.5c-2.85,1-5.81.43-8.71.67a.64.64,0,0,1-.07-.83c2.33-.81,4.77-.08,7.13-.56C47.41,2,48.18,1.71,48.49,2.5Z"
              style="fill:#cec4b4"/>
        <path d="M39.71,2.34c0,.28,0,.55.07.83l-8.15,1c0-.22,0-.44,0-.65A30.78,30.78,0,0,1,39.71,2.34Z"
              style="fill:#cbb380"/>
        <path d="M52.88,4.11l5.38,1.18c2.65,1.32,5.7,1.6,8.24,3.19,0,.2,0,.41,0,.61a147.19,147.19,0,0,0-16.75-4.6C51,3.83,51.94,4.2,52.88,4.11Z"
              style="fill:#b68f66"/>
        <path d="M22.17,4.34C16.89,5.88,11.6,7.57,6.81,10.45c-.38.22-.82.61-1.21.29s-.33-1-.22-1.51C5.71,7.7,7,7,8.16,6.46c4.2-2.07,8.77-2.61,13.39-2.86C21.94,3.58,22.23,3.77,22.17,4.34Z"
              style="fill:#f4f3f3"/>
        <path d="M14.78,8c.2.45.63.46,1,.54C13,10.2,9.66,10.78,6.88,12.58,9,10.08,11.88,9.05,14.78,8Z"
              style="fill:#9f7241"/>
    </g>
</svg>