<svg xmlns="http://www.w3.org/2000/svg" xmlns:xlink="http://www.w3.org/1999/xlink" viewBox="0 0 600 1200">
    <defs>
        <linearGradient id="goldTrans" x1="157.25" y1="1185.52" x2="277.24" y2="1185.52"
                        gradientTransform="matrix(0.99, -0.14, -0.14, -0.99, 248.91, 1252.81)"
                        gradientUnits="userSpaceOnUse">
            <stop offset="0" stop-color="#ae7938"/>
            <stop offset="0.06" stop-color="#bb8443"/>
            <stop offset="0.15" stop-color="#c7904e"/>
            <stop offset="0.25" stop-color="#ca9351"/>
            <stop offset="0.5" stop-color="#f9f0dc"/>
            <stop offset="0.75" stop-color="#ca9351"/>
            <stop offset="1" stop-color="#ae7938"/>
        </linearGradient>
        <linearGradient id="goldTrans-2" x1="293.53" y1="1303.99" x2="413.53" y2="1303.99"
                        gradientTransform="matrix(1, 0.09, 0.09, -1, -172.84, 1314.57)"
                        xlink:href="#goldTrans"/>
    </defs>

    <g id="Halo2">
        <path d="M363.12,40.67c1.41,10.26-24,22.2-56.91,26.7s-60.57-.2-62-10.5S268.3,34.7,301.14,30.21,361.72,30.41,363.12,40.67Zm-61.5-6.75c-30.78,4.21-54.83,14.26-53.7,22.5s27,11.44,57.76,7.24,54.83-14.26,53.7-22.5-26.95-11.44-57.73-7.24Z"
              style="stroke:#1e1e1c;stroke-miterlimit:10;fill:url(#goldTrans)"/>
        <path d="M360.91,55c-1,10.3-28.5,16.15-61.5,13.05s-59-14-58-24.29,28.5-16.15,61.5-13.05S361.87,44.69,360.91,55ZM302.58,34.46c-30.93-2.91-56.64,1.41-57.42,9.66s23.67,17.29,54.6,20.2,56.62-1.42,57.4-9.67S333.51,37.37,302.58,34.46Z"
              style="stroke:#1e1e1c;stroke-miterlimit:10;fill:url(#goldTrans-2)"/>
    </g>
</svg>