<svg xmlns="http://www.w3.org/2000/svg" xmlns:xlink="http://www.w3.org/1999/xlink" viewBox="0 0 82.18 28.04">
    <defs>
        <linearGradient id="gold" x1="0.01" y1="7.62" x2="80.01" y2="7.62"
                        gradientTransform="translate(1.34 11.89) rotate(-7.78)" gradientUnits="userSpaceOnUse">
            <stop offset="0" stop-color="#ae7838"/>
            <stop offset="0.06" stop-color="#bb8443"/>
            <stop offset="0.15" stop-color="#c68f4d"/>
            <stop offset="0.25" stop-color="#ca9250"/>
            <stop offset="0.5" stop-color="#f9f0dc"/>
            <stop offset="0.75" stop-color="#ca9250"/>
            <stop offset="1" stop-color="#ae7838"/>
        </linearGradient>
        <linearGradient id="gold-2" x1="0.34" y1="14.42" x2="80.34" y2="14.42"
                        gradientTransform="translate(1.53 -3.71) rotate(5.37)" xlink:href="#gold"/>
    </defs>
    <g>
        <path d="M81.64,8.61c.94,6.84-16,14.8-37.94,17.8s-40.38-.13-41.32-7S18.43,4.63,40.32,1.64,80.71,1.77,81.64,8.61Zm-41-4.5c-20.52,2.81-36.55,9.51-35.8,15s18,7.63,38.51,4.83,36.55-9.51,35.8-15S61.18,1.31,40.66,4.11Z"
              style="stroke:#1d1d1b;stroke-miterlimit:10;fill:url(#gold)"/>
        <path d="M80.17,18.17c-.65,6.87-19,10.77-41,8.7S-.13,17.55.52,10.68s19-10.77,41-8.7S80.81,11.29,80.17,18.17ZM41.28,4.47C20.66,2.53,3.52,5.41,3,10.91s15.78,11.53,36.4,13.47,37.75-.95,38.27-6.45S61.9,6.41,41.28,4.47Z"
              style="stroke:#1d1d1b;stroke-miterlimit:10;fill:url(#gold-2)"/>
    </g>
</svg>