<svg xmlns="http://www.w3.org/2000/svg" viewBox="0 0 76.26 116.42">
    <g>
        <path d="M68.77,22.27c4.1,6.33,5.07,13.26,3.89,20.55S67.59,56,61.8,61.19c2.74,0,5.15-.07,7.56,0,4.52.16,7.2,3,6.87,7.21-.24,3.08-3,5.19-7.36,5.3-3.79.1-7.57.5-11.53-.07,1.55,8.23,3.18,16.17,5,24.09a46.24,46.24,0,0,1,.87,13,4.27,4.27,0,0,1-3.28,4.13c-2,.57-3.83.7-5.52-.95-3.48-3.4-4.23-7.86-4.8-12.31-.22-1.71-.52-2.49-2.36-2.19-1.5.25-3.81-.74-4.39.3a9,9,0,0,0-.67,5.76,13.78,13.78,0,0,1-.4,6.12,5.9,5.9,0,0,1-5.4,4.84c-3,0-5.89-1.89-6.29-5-.58-4.55-2.38-9.06-1.7-13.62.77-5.13-.3-10.12-.11-15.17A9.68,9.68,0,0,0,27.41,79a8.47,8.47,0,0,0-.38,6.6c1.37,4-1.21,6.67-2.7,9.74-.34.69-1.1.42-1.72.32-4.31-.68-5.31-3-2.84-6.53,1.23-1.77,2.3-3.72,4.54-4.41.93-.29.67-1,.65-1.53-.05-1.91-.32-3.84,1.77-5.38-4-.38-7.44.86-10.86-.14-1-.3-2.11-.36-3.14-.66-3.7-1.08-5.92-3.74-5.44-6.7.78-4.75,2.31-5.56,7.07-6.3a50.2,50.2,0,0,1,6.69,0C7.58,53.94,4.36,41.49,9.69,26.5a24.86,24.86,0,0,1-3.26-.35A8.44,8.44,0,0,1,.15,16.21,14,14,0,0,1,9.67,5c6.42-2.37,11.53.59,12.93,7.33,1.56-.26,2.8-1.25,4.2-1.84A35.73,35.73,0,0,1,50.23,8.87c1.09.28,2,.8,2.3-1C53.66,1.64,56.73-.54,63,.11,68.61.68,74.68,6,75.65,11.39,76.46,15.82,75.3,20.2,68.77,22.27ZM35.1,65.89a7.44,7.44,0,0,1-5.29.46,44.25,44.25,0,0,0-17-.28c-2.22.38-3.16,1.88-3.16,4.1s.66,4,3,4.86a14.4,14.4,0,0,0,5,.92c3.27,0,6.54,0,9.81,0,1,0,2-.13,2.1,1.41.39,7.49.9,15,.88,22.49a63.14,63.14,0,0,0,1.26,10.47c.34,2,1.37,3.93,3.66,4.24s3.13-1.75,4.09-3.37c1.21-2,.66-4.26.68-6.4.06-7.17,0-7.17,7.05-7.06a7.3,7.3,0,0,0,.81,0c2.17-.1,2.8,1,3.17,3.08.69,4,.94,8.37,4.28,11.44a3.38,3.38,0,0,0,5.82-1.76,11.08,11.08,0,0,0,.15-2.71c0-8-2.64-15.62-4-23.43-.57-3.28-1.11-6.57-1.7-9.85-.15-.79-1.79-1.13-.85-2.21.7-.82,1.82-.52,2.81-.59,3.82-.29,7.71.43,11.68-.82C67.6,69.57,66.68,68,67,65.9c.15-1,.47-2,1.77-2A2.13,2.13,0,0,1,71,65.47a5.82,5.82,0,0,1-.48,4.9c3.18-.35,3.77-1.12,3.13-3.77-.72-3-3.22-4.2-7.09-3.6a102.2,102.2,0,0,1-11,1.33c-1.72.07-3.5,1-5.62.15,5.62-2.65,10.82-4.93,15-9.49,9.3-10.25,8.14-26.07-.41-35.2-7.57-8.08-16.91-11.15-28-10C21.16,11.48,7.11,25.07,9.12,42.54c1.1,9.52,8.92,19.25,18.14,21.68C29.84,64.89,32.48,65.34,35.1,65.89ZM74,13.63C74,7.58,66.8,1.1,60.84,1.78c-3.9.44-6.78,3.67-6.42,7.08a2.36,2.36,0,0,0,2,2.25c1.23.23.63-1,.89-1.56a4.82,4.82,0,0,1,4.77-2.93c2.78,0,6.12,2.1,6.8,4.59.57,2.09.83,4.26-1.18,6-.48.42-2.12.49-1.18,1.87a2.46,2.46,0,0,0,3.08,1A6.39,6.39,0,0,0,74,13.63ZM18.73,15.08c2.09-1,2.23-2.64,1.69-4.45a6.34,6.34,0,0,0-5.85-4.5A12.66,12.66,0,0,0,2.38,14.4c-1.54,4.5.47,8.76,4.8,10,1.51.44,3.1.54,4.21-.94.36-.47,1-.92.77-1.62s-.94-.35-1.45-.44Q6.4,20.7,6,16.64a5.35,5.35,0,0,1,3.65-5.47C13.3,9.75,16.29,11,18.73,15.08ZM62.28,8.36c-1.89-.25-3.07.72-3.32,2.8-.17,1.52,3.58,4.92,5.43,4.91a2.82,2.82,0,0,0,3-2.82C67.64,11,65.08,8.49,62.28,8.36ZM12.2,19.7c2.33-.05,4.43-1.72,4.4-3.52a3.88,3.88,0,0,0-4-3.52C10.2,12.67,8,14.48,8,16.38S9.85,19.75,12.2,19.7ZM25.6,88.24c-.21-.62.3-1.55-.6-1.86a1.82,1.82,0,0,0-1.89.79c-1,1.24-1.81,2.64-2.79,3.91-.63.82-.66,1.44.31,1.89s1.75,1.65,2.55.54C24.3,92,25.73,90.43,25.6,88.24Z"
              style="fill:#453734"/>
        <path d="M35.1,65.89c-2.62-.55-5.26-1-7.84-1.67C18,61.79,10.22,52.06,9.12,42.54c-2-17.47,12-31.06,27.39-32.71,11.07-1.19,20.41,1.88,28,10,8.55,9.13,9.71,25,.41,35.2-4.14,4.56-9.34,6.84-15,9.49,2.12.88,3.9-.08,5.62-.15a102.2,102.2,0,0,0,11-1.33c3.87-.6,6.37.59,7.09,3.6.64,2.65,0,3.42-3.13,3.77a5.82,5.82,0,0,0,.48-4.9,2.13,2.13,0,0,0-2.23-1.61c-1.3.07-1.62,1-1.77,2-.32,2.09.6,3.67,2.45,4.95-4,1.25-7.86.53-11.68.82-1,.07-2.11-.23-2.81.59-.94,1.08.7,1.42.85,2.21.59,3.28,1.13,6.57,1.7,9.85,1.36,7.81,4,15.4,4,23.43a11.08,11.08,0,0,1-.15,2.71,3.38,3.38,0,0,1-5.82,1.76c-3.34-3.07-3.59-7.4-4.28-11.44-.37-2.12-1-3.18-3.17-3.08a7.3,7.3,0,0,1-.81,0c-7-.11-7-.11-7.05,7.06,0,2.14.53,4.37-.68,6.4-1,1.62-1.74,3.68-4.09,3.37s-3.32-2.19-3.66-4.24a63.14,63.14,0,0,1-1.26-10.47c0-7.52-.49-15-.88-22.49-.09-1.54-1.11-1.41-2.1-1.41-3.27,0-6.54,0-9.81,0a14.4,14.4,0,0,1-5-.92c-2.38-.82-3-2.58-3-4.86s.94-3.72,3.16-4.1a44.25,44.25,0,0,1,17,.28A7.44,7.44,0,0,0,35.1,65.89ZM33.71,32.65a12.74,12.74,0,0,0,0-2.39c-.55-2.75-1.94-5-4.76-5.73a5,5,0,0,0-5.12,1.68C21.29,29,21,34.54,23.1,37.69c2.5,3.73,6.34,4.1,9,.85A7.44,7.44,0,0,0,33.71,32.65Zm24.53-1.86a9.14,9.14,0,0,0,0-1.52c-.29-2.72-2.49-5.55-4.92-5.9a5.09,5.09,0,0,0-5.23,2.11A10,10,0,0,0,47.34,36c2.19,4.27,6.42,4.81,9.42,1.3C58.24,35.6,58.36,33.56,58.24,30.79Zm-18,27.13a17,17,0,0,0,9.59-2.13c5.74-3.22,6.55-9.22,1.84-13.37-5.44-4.79-17.41-4.6-22.74.35-4.1,3.81-3.8,9,.73,12.28A16.14,16.14,0,0,0,40.26,57.92ZM52.77,81.3c.53-3.6-.91-6.82-2.81-9.85-3.38-5.37-9.37-5.71-13.37-.87-4.77,5.79-3.08,17.52,3.12,21.73,3.82,2.58,8,1.87,10.7-1.88A13.29,13.29,0,0,0,52.77,81.3ZM17.66,70.62c-.48-1.13.33-3.33-2.15-3.39-2.22-.06-2.93,1.65-3,3.44s0,3.94,2.41,4.09C17.62,74.93,17.2,72.51,17.66,70.62Z"
              style="fill:#876d65"/>
        <path d="M74,13.63a6.39,6.39,0,0,1-4.44,6.44,2.46,2.46,0,0,1-3.08-1c-.94-1.38.7-1.45,1.18-1.87,2-1.74,1.75-3.91,1.18-6-.68-2.49-4-4.55-6.8-4.59a4.82,4.82,0,0,0-4.77,2.93c-.26.53.34,1.79-.89,1.56a2.36,2.36,0,0,1-2-2.25c-.36-3.41,2.52-6.64,6.42-7.08C66.8,1.1,74,7.58,74,13.63Z"
              style="fill:#876d65"/>
        <path d="M18.73,15.08C16.29,11,13.3,9.75,9.64,11.17A5.35,5.35,0,0,0,6,16.64q.42,4,4.72,4.76c.51.09,1.2-.18,1.45.44s-.41,1.15-.77,1.62c-1.11,1.48-2.7,1.38-4.21.94-4.33-1.24-6.34-5.5-4.8-10A12.66,12.66,0,0,1,14.57,6.13a6.34,6.34,0,0,1,5.85,4.5C21,12.44,20.82,14.06,18.73,15.08Z"
              style="fill:#876d65"/>
        <path d="M62.28,8.36c2.8.13,5.36,2.59,5.16,4.89a2.82,2.82,0,0,1-3,2.82c-1.85,0-5.6-3.39-5.43-4.91C59.21,9.08,60.39,8.11,62.28,8.36Z"
              style="fill:#c8b3a0"/>
        <path d="M12.2,19.7c-2.35.05-4.14-1.38-4.17-3.32s2.17-3.71,4.53-3.72a3.88,3.88,0,0,1,4,3.52C16.63,18,14.53,19.65,12.2,19.7Z"
              style="fill:#c8b3a0"/>
        <path d="M25.6,88.24c.13,2.19-1.3,3.72-2.42,5.27-.8,1.11-1.73-.16-2.55-.54s-.94-1.07-.31-1.89c1-1.27,1.78-2.67,2.79-3.91A1.82,1.82,0,0,1,25,86.38C25.9,86.69,25.39,87.62,25.6,88.24Z"
              style="fill:#c8b3a0"/>
        <path d="M33.71,32.65a7.44,7.44,0,0,1-1.62,5.89c-2.65,3.25-6.49,2.88-9-.85C21,34.54,21.29,29,23.81,26.21a5,5,0,0,1,5.12-1.68c2.82.76,4.21,3,4.76,5.73A12.74,12.74,0,0,1,33.71,32.65Zm-3.33-5a1.85,1.85,0,0,0-2,1.8A1.56,1.56,0,0,0,30,31.2a1.71,1.71,0,0,0,2-1.75C32.08,28.36,31.39,27.82,30.38,27.62ZM25,36.44c.07.7.6,1,1.29.88a1,1,0,0,0,.91-1.1c0-.73-.42-1.18-1.17-1.14S24.94,35.62,25,36.44Z"
              style="fill:#453734"/>
        <path d="M58.24,30.79c.12,2.77,0,4.81-1.48,6.54-3,3.51-7.23,3-9.42-1.3a10,10,0,0,1,.74-10.55,5.09,5.09,0,0,1,5.23-2.11c2.43.35,4.63,3.18,4.92,5.9A9.14,9.14,0,0,1,58.24,30.79Zm-6.06,3.87a1.62,1.62,0,0,0-1.66-1.75,1.51,1.51,0,0,0-1.68,1.68,1.46,1.46,0,0,0,1.49,1.59A1.59,1.59,0,0,0,52.18,34.66Zm2.69-4a1.6,1.6,0,0,0,1.63-1.52,1.43,1.43,0,0,0-1.43-1.65,1.51,1.51,0,0,0-1.76,1.61C53.31,30.05,54,30.48,54.87,30.63Z"
              style="fill:#453734"/>
        <path d="M40.26,57.92a16.14,16.14,0,0,1-10.58-2.87c-4.53-3.26-4.83-8.47-.73-12.28,5.33-5,17.3-5.14,22.74-.35,4.71,4.15,3.9,10.15-1.84,13.37A17,17,0,0,1,40.26,57.92Zm.42-1.75a15.63,15.63,0,0,0,9.22-2.81c3.81-2.75,3.88-6.84.23-9.74-5.15-4.09-14.89-3.88-19.73.43-3.24,2.89-3,7,.52,9.45C33.77,55.49,37,56.1,40.68,56.17Z"
              style="fill:#453734"/>
        <path d="M52.77,81.3a13.29,13.29,0,0,1-2.36,9.13c-2.66,3.75-6.88,4.46-10.7,1.88-6.2-4.21-7.89-15.94-3.12-21.73,4-4.84,10-4.5,13.37.87C51.86,74.48,53.3,77.7,52.77,81.3ZM35.85,79.42C36,83.4,37,87.12,40,90s6.77,2.39,9-1c3.49-5.18,2.45-14-2.16-18.26-3-2.79-6.7-2.31-8.94,1.19A13.21,13.21,0,0,0,35.85,79.42Z"
              style="fill:#453734"/>
        <path d="M17.66,70.62c-.46,1.89,0,4.31-2.7,4.14-2.41-.15-2.44-2.36-2.41-4.09s.74-3.5,3-3.44C18,67.29,17.18,69.49,17.66,70.62Zm-2.51-1.9c-1,2.41-1,2.41.2,4.34A5,5,0,0,0,15.15,68.72Z"
              style="fill:#453734"/>
        <path d="M30.38,27.62c1,.2,1.7.74,1.62,1.83a1.71,1.71,0,0,1-2,1.75,1.56,1.56,0,0,1-1.63-1.78A1.85,1.85,0,0,1,30.38,27.62Z"
              style="fill:#fefefe"/>
        <path d="M25,36.44c0-.82.27-1.32,1-1.36s1.13.41,1.17,1.14a1,1,0,0,1-.91,1.1C25.57,37.4,25,37.14,25,36.44Z"
              style="fill:#fefefe"/>
        <path d="M52.18,34.66a1.59,1.59,0,0,1-1.85,1.52,1.46,1.46,0,0,1-1.49-1.59,1.51,1.51,0,0,1,1.68-1.68A1.62,1.62,0,0,1,52.18,34.66Z"
              style="fill:#fefefe"/>
        <path d="M54.87,30.63c-.88-.15-1.56-.58-1.56-1.56a1.51,1.51,0,0,1,1.76-1.61,1.43,1.43,0,0,1,1.43,1.65A1.6,1.6,0,0,1,54.87,30.63Z"
              style="fill:#c8b3a0"/>
        <path d="M40.68,56.17c-3.65-.07-6.91-.68-9.76-2.67-3.55-2.48-3.76-6.56-.52-9.45,4.84-4.31,14.58-4.52,19.73-.43,3.65,2.9,3.58,7-.23,9.74A15.63,15.63,0,0,1,40.68,56.17Zm-3.09-5.36c-.8.38-1.22.88-.94,1.7a2,2,0,0,0,2.12,1.37,10.69,10.69,0,0,1,5.12-.4,1.52,1.52,0,0,0,1.59-2c-.38-1.21-1.06-.51-1.74.11s-1.11-.22-1.57-.62-.85-.93-1.35-.44C39.8,51.54,39,53.14,37.59,50.81Zm2.77-6.54c-1.29.34-3.18-.27-3.34,1.61-.14,1.65,2,1.22,2.8,2.24.87-1,3.12-.42,3.16-2.23C43,44.31,41.39,44.54,40.36,44.27Z"
              style="fill:#c8b3a0"/>
        <path d="M35.85,79.42a13.21,13.21,0,0,1,2-7.48c2.24-3.5,5.91-4,8.94-1.19C51.44,75,52.48,83.83,49,89c-2.27,3.37-6.09,3.83-9,1S36,83.4,35.85,79.42Z"
              style="fill:#c8b3a0"/>
        <path d="M15.15,68.72a5,5,0,0,1,.2,4.34C14.12,71.13,14.12,71.13,15.15,68.72Z" style="fill:#c8b3a0"/>
        <path d="M37.59,50.81c1.38,2.33,2.21.73,3.23-.26.5-.49,1,.1,1.35.44s1,1.15,1.57.62,1.36-1.32,1.74-.11a1.52,1.52,0,0,1-1.59,2,10.69,10.69,0,0,0-5.12.4,2,2,0,0,1-2.12-1.37C36.37,51.69,36.79,51.19,37.59,50.81Z"
              style="fill:#50423f"/>
        <path d="M40.36,44.27c1,.27,2.65,0,2.62,1.62,0,1.81-2.29,1.2-3.16,2.23-.75-1-2.94-.59-2.8-2.24C37.18,44,39.07,44.61,40.36,44.27Z"
              style="fill:#4a3b38"/>
    </g>
</svg>