<svg xmlns="http://www.w3.org/2000/svg" viewBox="0 0 65.22 117.41">
    <g>
        <path d="M54.87,74.87c.89,3.43,2.35,6.72,2.44,10.36a1.39,1.39,0,0,0,1.49,1.51,3.79,3.79,0,0,1,3.88,4.05c.07,2.41-.93,4.4-3.3,5-1.84.5-2.43,1.42-3.25,3.13a65,65,0,0,1-9.07,14c-3.19,3.75-6.79,5.34-11.73,4a8.12,8.12,0,0,1-6-8.92c.12-.75.7-1.69-.58-2s-1.15,1-1.23,1.61c-.6,5.08-3.3,8-8.46,8.61A9.2,9.2,0,0,1,8.84,109c-.63-2.94-1.39-5.63-4.23-7.42-2.17-1.36-2.5-4-2.57-6.31C1.68,81.91,3.37,68.89,9.51,56.77a3.58,3.58,0,0,1,.24-.48C11.3,54.07,11,52.5,9,50.39a25,25,0,0,1-3.6-30.11c.17-.31.31-.64.59-1.21C3.06,18.1.82,16.51.16,13.35c-.6-2.9.53-5.3,2.05-7.61l.51.55c-.34,1-.71,2.05-1,3.09a6.49,6.49,0,0,0,3,7.86,2.17,2.17,0,0,0,3.07-.62c1-1.22.21-1.63-.58-2.32-1.56-1.37-1.67-3.09-.92-4.94.92-2.29,2.92-3.2,5.05-3.62,1.88-.38,3.17.93,4.19,2.42.38.56.21,1.84,1.51,1.35,1.05-.38,1.88-.87,1.91-2.26a5.82,5.82,0,0,0-2.81-5.49l.77-.6c2.27,1,3.05,3,3.19,5.27.1,1.62.69,1.69,2,1.38C30,6,37.57,6.7,44.67,10.76c1.06.6,1.57.71,1.93-.87.9-3.89,3.6-5.71,7.58-5.53A12.1,12.1,0,0,1,65.22,16c0,4-2.23,6.65-6.27,7.08-1.78.19-2.17.55-1.56,2.42,3.66,11.24.44,21.66-8.79,28.7-1.47,1.12-1.52,2.09-.69,3.63a52.76,52.76,0,0,1,4.58,9.81l-1.85.11c-.91-3.58-3.22-6.46-4.82-9.7a1.57,1.57,0,0,0-2.48-.67,6.12,6.12,0,0,1-4.59.58,2.32,2.32,0,0,1,1.67-1.12c4.43-1,7.82-3.55,10.76-6.89,6.31-7.17,8.1-15.42,4.68-24.19C49.17,8.58,28.46,3,13.52,13.22,3.75,19.89.76,31.34,5.59,42.94c1.76,4.22,5.15,7.16,7.84,10.66h0c-1.47.26-1.69,1.59-2.06,2.63-1.1,3.16-2,6.38-3.05,9.55-3.2,9.63-4,19.6-4.19,29.65,0,2.62,2.81,6.07,5.25,6.94a1.56,1.56,0,0,0,1.9-.55,7.45,7.45,0,0,1,4.37-2.55,2.49,2.49,0,0,0,2-2,29.49,29.49,0,0,0,.41-5.92c-.34-5.68-1.2-11.4,1.43-16.78.9-1.83.92-4.15,2.65-5.66.68.7.4,1.18.24,1.7a54.61,54.61,0,0,0-2.6,14.62c-.08,4,.72,7.92.14,11.86-.25,1.72.27,2.23,1.87,2.36,1.87.15,2-.84,2-2.31.19-4,.13-8.13,1.83-12a22.81,22.81,0,0,0,1.21-4.64,40,40,0,0,0,.75-10.26c0-.7-.46-1.67.63-2.12,1.1.87.93,2.08,1,3.24.29,4.38-1,8.59-1.43,12.89C27.41,88.33,26,92.31,26,96.5c0,3.91,2,5.56,6.62,5.61,3.82,0,5.2-1.39,5.42-5.4.33-5.78.69-11.55,1.14-17.32a13.33,13.33,0,0,1,1.05-4.16c.72-1.7,1.15-5.11,3.81-1.23.16.23.65.26,1,.35a2.69,2.69,0,0,1,2.23,3.2,10,10,0,0,0,1.27,6.28c1.35,2.31.89,4.77.85,7.18,0,2.09-2,1.25-3.14,1.75-.75.35-1.55.09-1.74-1.07-.48-2.88-.81-5.72.68-8.43a10.1,10.1,0,0,0,.92-5.82C46,76,44.92,75.58,43.7,75.26c-.88-.23-1.2.17-1.32.88-.58,3.63-2.16,7.1-1.76,10.91.12,1.25-.21,2.54-.09,3.79.34,3.47-2.87,8.27,3.48,9.56.15,0,.28.22.41.35.4.41.74.91.41,1.45s-.89.32-1.42.09c-3-1.32-3-1.3-4.94,1.34,4.91,2,6.48,4.56,4.81,7.74-1,1.94-5.69,3.09-7.57,1.76a6.77,6.77,0,0,1-2.57-3.73c-.65-2.25,1.34-3.26,2.89-4.88-1.91-.16-3.43-.89-4.3.84-1,2-1.5,4.37.11,5.88,1.87,1.77,3.37,4.44,6.51,4.45a3.05,3.05,0,0,0,1.28-.41c3.07-1.52,6-3.1,7.89-6.26,1.35-2.24,2.19-4.82,3.91-6.79,3-3.43,3.8-7.57,4-11.83.29-7.24-1.8-14.1-3.84-21,1.46-1,1.26.58,1.57,1.13C53.91,71.92,53.5,73.75,54.87,74.87Zm8.77-59.12c.72-4.76-4.9-9.31-8.13-10-3.9-.83-7.7,1.69-7.82,5.09,0,1.22.26,2.29,1.4,2.69s1-1,1.53-1.5c1.72-1.73,3.64-2.53,6.13-1.68,2,.69,3.4,2,3.45,4.07,0,2.45-1.34,4-3.87,4.48-.64.11-1.57.3-1.36,1.34s1.1,1.41,2,1.65C60.5,22.8,63.63,19.91,63.64,15.75ZM16.82,113.91c5.11.36,7.93-1.71,8.63-5.86.65-3.86-2.89-6.37-7.69-7.42-1.94-.42-7.17,3.28-7.58,5.25-.52,2.49,2,6.74,4.43,7.46-2.27-3.67-2.44-6.14-.19-8.54,1.35-1.43,3.12-2.63,5.29-1.64a5,5,0,0,1,3,5.54C22.42,111.16,20.15,113.18,16.82,113.91ZM55,17.92c1.73-.25,3.51-.94,3.61-3.1s-1.37-3.22-3.44-3.36a3.55,3.55,0,0,0-4,3.16C51.08,16.21,52.92,17.88,55,17.92ZM7.24,11.09a2.44,2.44,0,0,0,2.39,2.75c1.24.13,4.76-2.48,4.85-3.65.12-1.63-.45-2.8-2.31-3A4.57,4.57,0,0,0,7.24,11.09Zm13.27,96.59c0-2.07-.39-2.67-1.78-2.73-1.9-.07-4,2.26-3.94,4.45.06,1.33.58,2.52,2.19,2.61C18.9,112.11,20.51,110.1,20.51,107.68Zm18,4.34c1.89-.15,3.16-1,3.23-2.94a2.69,2.69,0,0,0-3-3c-1.5.12-3.8.24-3.45,2.74C35.5,110.5,36.37,112,38.5,112Zm8.12-29c-1.35,2.44-2,4.65-1.09,7.17.27.73,0,1.68,1.28,1.58s1.47-.71,1.52-1.79A10.41,10.41,0,0,0,46.62,83Zm11,8.3h0a6.48,6.48,0,0,0,0,1.08c.13.68-.55,1.84.73,1.87a1.89,1.89,0,0,0,1.92-1.6c.11-.52.26-1,.37-1.57a2.24,2.24,0,0,0-2.07-2.88c-1.48-.12-.78,1.44-1,2.29A4.38,4.38,0,0,0,57.59,91.27Z"
              style="fill:#4a3b38"/>
        <path d="M16.93,1.16l-.77.6A10.75,10.75,0,0,0,4.61,4.82,15.93,15.93,0,0,1,2.72,6.29l-.51-.55C5.17,1.59,9.08-.47,14.27.09A4.5,4.5,0,0,1,16.93,1.16Z"
              style="fill:#50423f"/>
        <path d="M54.87,74.87c-1.37-1.12-1-3-1.73-4.29-.31-.55-.11-2.09-1.57-1.13a1.58,1.58,0,0,1-.93-1.69l1.85-.11C53.65,69.93,54.79,72.23,54.87,74.87Z"
              style="fill:#50423f"/>
        <path d="M50.64,67.76a1.58,1.58,0,0,0,.93,1.69c2,6.85,4.13,13.71,3.84,21-.18,4.26-1,8.4-4,11.83-1.72,2-2.56,4.55-3.91,6.79-1.91,3.16-4.82,4.74-7.89,6.26a3.05,3.05,0,0,1-1.28.41c-3.14,0-4.64-2.68-6.51-4.45-1.61-1.51-1.1-3.93-.11-5.88.87-1.73,2.39-1,4.3-.84-1.55,1.62-3.54,2.63-2.89,4.88a6.77,6.77,0,0,0,2.57,3.73c1.88,1.33,6.56.18,7.57-1.76,1.67-3.18.1-5.7-4.81-7.74,2-2.64,2-2.66,4.94-1.34.53.23,1.06.51,1.42-.09s0-1-.41-1.45c-.13-.13-.26-.32-.41-.35-6.35-1.29-3.14-6.09-3.48-9.56-.12-1.25.21-2.54.09-3.79-.4-3.81,1.18-7.28,1.76-10.91.12-.71.44-1.11,1.32-.88,1.22.32,2.29.71,2.39,2.18a10.1,10.1,0,0,1-.92,5.82C43.68,86,44,88.81,44.49,91.69c.19,1.16,1,1.42,1.74,1.07,1.09-.5,3.11.34,3.14-1.75,0-2.41.5-4.87-.85-7.18a10,10,0,0,1-1.27-6.28A2.69,2.69,0,0,0,45,74.35c-.35-.09-.84-.12-1-.35-2.66-3.88-3.09-.47-3.81,1.23a13.33,13.33,0,0,0-1.05,4.16c-.45,5.77-.81,11.54-1.14,17.32-.22,4-1.6,5.45-5.42,5.4-4.65,0-6.63-1.7-6.62-5.61,0-4.19,1.43-8.17,1.85-12.28.44-4.3,1.72-8.51,1.43-12.89-.08-1.16.09-2.37-1-3.24-1.09.45-.67,1.42-.63,2.12a40,40,0,0,1-.75,10.26,22.81,22.81,0,0,1-1.21,4.64C24,89,24,93.05,23.83,97.1c-.07,1.47-.16,2.46-2,2.31-1.6-.13-2.12-.64-1.87-2.36.58-3.94-.22-7.89-.14-11.86a54.61,54.61,0,0,1,2.6-14.62c.16-.52.44-1-.24-1.7-1.73,1.51-1.75,3.83-2.65,5.66-2.63,5.38-1.77,11.1-1.43,16.78a29.49,29.49,0,0,1-.41,5.92,2.49,2.49,0,0,1-2,2,7.45,7.45,0,0,0-4.37,2.55,1.56,1.56,0,0,1-1.9.55C7,101.49,4.09,98,4.14,95.42c.16-10,1-20,4.19-29.65,1.05-3.17,1.95-6.39,3.05-9.55.37-1,.59-2.37,2.06-2.63,0,.47.06.88.65.92a.29.29,0,0,0,.19-.17c0-.6-.42-.66-.85-.74-2.69-3.5-6.08-6.44-7.84-10.66-4.83-11.6-1.84-23,7.93-29.72C28.46,3,49.17,8.58,55.86,25.77c3.42,8.77,1.63,17-4.68,24.19-2.94,3.34-6.33,5.91-10.76,6.89A2.32,2.32,0,0,0,38.75,58a6.12,6.12,0,0,0,4.59-.58,1.57,1.57,0,0,1,2.48.67C47.42,61.3,49.73,64.18,50.64,67.76ZM29.16,34a11.84,11.84,0,0,0-7.66,2c-5,3.23-5,9.13.21,12.08a17.39,17.39,0,0,0,15.72,1c5.55-2.27,6.41-7.61,2.09-11.69C36.71,34.73,33.3,33.82,29.16,34ZM15.08,28.27a4,4,0,0,0,3.84,3.83c1.75-.06,3.72-2.22,3.74-4.08a4.11,4.11,0,0,0-3.92-3.79C17,24.22,15.1,26.28,15.08,28.27Zm30,1.34a4.07,4.07,0,0,0-3.58-3.79c-1.72,0-3.5,2-3.51,3.85a4,4,0,0,0,3.88,4.08C43.52,33.64,45.1,31.6,45.05,29.61ZM11.77,92.35c.72,0,1.45,0,2.17,0s1.41,0,1.56-.75-.7-.85-1.25-1.06A7.53,7.53,0,0,0,8,91.07c-.47.23-1,.69-.76,1.29s.87.45,1.35.22A6.21,6.21,0,0,1,11.77,92.35ZM28.36,92a15.32,15.32,0,0,0,7.12-.25C33.31,90.29,31.17,90.3,28.36,92Z"
              style="fill:#876d65"/>
        <path d="M2.72,6.29A15.93,15.93,0,0,0,4.61,4.82,10.75,10.75,0,0,1,16.16,1.76,5.82,5.82,0,0,1,19,7.25c0,1.39-.86,1.88-1.91,2.26-1.3.49-1.13-.79-1.51-1.35-1-1.49-2.31-2.8-4.19-2.42-2.13.42-4.13,1.33-5,3.62-.75,1.85-.64,3.57.92,4.94.79.69,1.55,1.1.58,2.32a2.17,2.17,0,0,1-3.07.62,6.49,6.49,0,0,1-3-7.86C2,8.34,2.38,7.32,2.72,6.29Z"
              style="fill:#876d65"/>
        <path d="M63.64,15.75c0,4.16-3.14,7.05-6.69,6.13-.88-.24-1.77-.62-2-1.65s.72-1.23,1.36-1.34c2.53-.46,3.92-2,3.87-4.48-.05-2.07-1.42-3.38-3.45-4.07-2.49-.85-4.41-.05-6.13,1.68-.52.52-.38,1.9-1.53,1.5s-1.45-1.47-1.4-2.69c.12-3.4,3.92-5.92,7.82-5.09C58.74,6.44,64.36,11,63.64,15.75Z"
              style="fill:#876d65"/>
        <path d="M16.82,113.91c3.33-.73,5.6-2.75,5.88-5.21a5,5,0,0,0-3-5.54c-2.17-1-3.94.21-5.29,1.64-2.25,2.4-2.08,4.87.19,8.54-2.43-.72-4.95-5-4.43-7.46.41-2,5.64-5.67,7.58-5.25,4.8,1.05,8.34,3.56,7.69,7.42C24.75,112.2,21.93,114.27,16.82,113.91Z"
              style="fill:#876d65"/>
        <path d="M55,17.92c-2.06,0-3.9-1.71-3.81-3.3a3.55,3.55,0,0,1,4-3.16c2.07.14,3.54,1.25,3.44,3.36S56.71,17.67,55,17.92Z"
              style="fill:#c8b3a0"/>
        <path d="M7.24,11.09a4.57,4.57,0,0,1,4.93-3.87c1.86.17,2.43,1.34,2.31,3-.09,1.17-3.61,3.78-4.85,3.65A2.44,2.44,0,0,1,7.24,11.09Z"
              style="fill:#c8b3a0"/>
        <path d="M20.51,107.68c0,2.42-1.61,4.43-3.53,4.33-1.61-.09-2.13-1.28-2.19-2.61-.1-2.19,2-4.52,3.94-4.45C20.12,105,20.52,105.61,20.51,107.68Z"
              style="fill:#c8b3a0"/>
        <path d="M38.5,112c-2.13,0-3-1.52-3.23-3.22-.35-2.5,1.95-2.62,3.45-2.74a2.69,2.69,0,0,1,3,3C41.66,111,40.39,111.87,38.5,112Z"
              style="fill:#c8b3a0"/>
        <path d="M46.62,83a10.41,10.41,0,0,1,1.71,7c0,1.08-.37,1.7-1.52,1.79s-1-.85-1.28-1.58C44.6,87.62,45.27,85.41,46.62,83Z"
              style="fill:#c8b3a0"/>
        <path d="M57.59,91.27a4.38,4.38,0,0,1,0-.81c.19-.85-.51-2.41,1-2.29a2.24,2.24,0,0,1,2.07,2.88c-.11.53-.26,1-.37,1.57a1.89,1.89,0,0,1-1.92,1.6c-1.28,0-.6-1.19-.73-1.87a6.48,6.48,0,0,1,0-1.08Z"
              style="fill:#876d65"/>
        <path d="M29.16,34c4.14-.18,7.55.73,10.36,3.39,4.32,4.08,3.46,9.42-2.09,11.69a17.39,17.39,0,0,1-15.72-1c-5.21-3-5.24-8.85-.21-12.08A11.84,11.84,0,0,1,29.16,34Zm1.36,14.75a11.85,11.85,0,0,0,7.82-2c3-2.12,3.22-5.6.54-8.1-4.06-3.8-12.45-4.3-17-1-3.31,2.39-3.43,6.11-.22,8.61A13,13,0,0,0,30.52,48.75Z"
              style="fill:#50423f"/>
        <path d="M15.08,28.27c0-2,1.89-4.05,3.66-4A4.11,4.11,0,0,1,22.66,28c0,1.86-2,4-3.74,4.08A4,4,0,0,1,15.08,28.27Z"
              style="fill:#453734"/>
        <path d="M45.05,29.61c.05,2-1.53,4-3.21,4.14A4,4,0,0,1,38,29.67c0-1.88,1.79-3.84,3.51-3.85A4.07,4.07,0,0,1,45.05,29.61Z"
              style="fill:#453734"/>
        <path d="M11.77,92.35a6.21,6.21,0,0,0-3.2.23c-.48.23-1.1.51-1.35-.22s.29-1.06.76-1.29a7.53,7.53,0,0,1,6.27-.54c.55.21,1.43.17,1.25,1.06s-.93.73-1.56.75S12.49,92.35,11.77,92.35Z"
              style="fill:#453734"/>
        <path d="M28.36,92c2.81-1.71,5-1.72,7.12-.25A15.32,15.32,0,0,1,28.36,92Z" style="fill:#4a3b38"/>
        <path d="M13.43,53.6c.43.08.88.14.85.74a.29.29,0,0,1-.19.17c-.59,0-.67-.45-.65-.92Z" style="fill:#4a3b38"/>
        <path d="M30.52,48.75a13,13,0,0,1-8.83-2.53c-3.21-2.5-3.09-6.22.22-8.61,4.52-3.27,12.91-2.77,17,1,2.68,2.5,2.48,6-.54,8.1A11.85,11.85,0,0,1,30.52,48.75Zm-4.6-3.67c1,1.24,6.26,1.94,7.07,1a.94.94,0,0,0,.17-1.23c-.38-.54-.76-.72-1.21,0-.62,1-1.18.34-1.67-.16s-.85-1.32-1.44-.51C28.05,45.3,26.92,44.8,25.92,45.08Zm4.45-6.19c-1.05,0-2.3-.22-2.39,1.13s1.43,1.28,2.17,1.45a2.08,2.08,0,0,0,2.39-1.62C32.62,38.36,31.08,39.21,30.37,38.89Z"
              style="fill:#c8b3a0"/>
        <path d="M25.92,45.08c1-.28,2.13.22,2.92-.86.59-.81,1,.08,1.44.51s1,1.17,1.67.16c.45-.72.83-.54,1.21,0A.94.94,0,0,1,33,46.12C32.18,47,26.88,46.32,25.92,45.08Z"
              style="fill:#50423f"/>
        <path d="M30.37,38.89c.71.32,2.25-.53,2.17,1a2.08,2.08,0,0,1-2.39,1.62c-.74-.17-2.26-.13-2.17-1.45S29.32,38.89,30.37,38.89Z"
              style="fill:#50423f"/>
    </g>
</svg>