<svg xmlns="http://www.w3.org/2000/svg" viewBox="0 0 95.62 130.08">
    <g>
        <path d="M29.31,52.72C23.23,46.93,19.77,40,20.2,31.44a21.84,21.84,0,0,1,3.07-10.59c.68-1.09.71-1.53-.6-2.16-4-1.93-5.3-5.39-3.92-9.76A13.33,13.33,0,0,1,31.42,0c4,.14,6.49,2.19,6.95,6.17.22,1.88.79,1.92,2.37,1.56a30.15,30.15,0,0,1,21.83,2.74c1.4.76,2,.84,2.42-1.11.75-3.47,4.12-5.39,8-5A12.17,12.17,0,0,1,83.51,17.08a6.47,6.47,0,0,1-6,6c-2,.19-2.48.53-1.77,2.71,3.91,12-.77,24-12.17,30.62,2.63-.15,4.64-.25,6.65-.39a73,73,0,0,1,18.67.82c5,1,6.39,2.76,6.69,7.72a9.35,9.35,0,0,1-5.75,9.27,23.68,23.68,0,0,1-12.57.84c-2.87-.52-5.71-.23-8.92-.3,2.07,2.7,3.08,5.3,2.31,8.51a3,3,0,0,0,2.13,3.4c4.92,1.63,5.78,6.67,8.58,10.09.7.86-.18,1.32-.76,1.66-1.57.9-3.22,1.64-4.76,2.59-1.08.67-1.46,0-1.89-.72-1.4-2.32-2.8-4.65-4.15-7a2.18,2.18,0,0,1-.35-1.53c1.18-3.79-.46-7.52-.14-11.29.15-1.68-.58-3.11-2-4.7-1,8.64-1.35,16.89-1.73,25.15-.34,7.34-.14,14.7-1.28,22a8.56,8.56,0,0,1-5.28,7,6,6,0,0,1-7-1.39,15.52,15.52,0,0,1-4-8.2,71.25,71.25,0,0,1-.72-11.67c.06-1.91-.73-2.43-2.39-2.16-2.32.38-4.62.86-7,.08-.86-.29-1.24.22-1.38,1.13-.78,5.28-2.54,10.31-4.11,15.39-.95,3.05-3.22,4.83-5.86,6-3.27,1.5-7.42-1.24-8.74-5.6-1.2-4-.83-8.06-.39-12.13,1.14-10.44,4.74-20.35,6.57-30.64a82.19,82.19,0,0,1,2-9.8c.47-1.53.16-2.43-1.93-2.37-6,.17-12,.24-17.75-1.55-2.66-.82-6-.86-6.41-4.75a8.9,8.9,0,0,1,5.44-9.43c4-1.59,8.28-1,12.38-.61,3.67.37,7.31,1.14,11,1.27a.74.74,0,0,0,1.08.24ZM7.21,64.49h.53c.37,1.77,2,1.29,3.06,1.55,4.73,1.12,9.57.45,14.37.65,1.57.07,3,.08,2.58,2.36-.77,4.27-1.65,8.51-2.37,12.78-1.87,11-6,21.61-6.54,32.91-.23,4.41-.17,8.69,3.59,11.92,1.08.93,2.19,1.47,3.43.71,2.29-1.42,4.46-2.81,5.39-5.76,1.53-4.84,2.74-9.76,4.22-14.61.34-1.12.57-2.3,2.22-2.22a40,40,0,0,0,8.67-.45c1.64-.28,2.2.41,2.48,2,.44,2.35.17,4.7.28,7.06.19,4.26.48,8.45,3,12.2,2.06,3.11,5.94,3.81,8.55,1.18a9.45,9.45,0,0,0,2.13-4.92c1.59-7.51,1.26-15.17,1.45-22.74.21-8.26,1.49-16.43,1.3-24.69,0-1.08.28-1.78,1.5-1.72,3.43.19,6.88-.34,10.31.38a20,20,0,0,0,12.46-1c3.18-1.42,4.52-4.56,4-9-.28-2.62-1.81-4.13-5.39-4.82-7.91-1.52-15.92-.61-23.88-.7-1.28,0-3.14,1.25-3.67-.2-.62-1.72,1.65-2.07,2.78-2.68A24,24,0,0,0,75.41,31.11C74,20.21,65.75,12.27,56.15,9.46a27.91,27.91,0,0,0-23,2.91A22,22,0,0,0,22.62,26.08c-2.56,10.81.3,20.08,9.62,26.85.51.37,1.33.7,1.08,1.74-2.25-.18-4.49-.08-6.76-.3C20.82,53.82,15.14,52.49,9.28,53a8.22,8.22,0,0,0-7,4.5c-1,1.79-1.71,4.09-.16,5.86A4.29,4.29,0,0,0,7.21,64.49ZM31,1.23c-4.91,0-10.11,4-11.18,8.72-.77,3.36,1.31,6.88,4.24,7.43,1.34.26,1.79-.64,2.38-1.38s-.2-1.1-.68-1.44a3.89,3.89,0,0,1-1.42-4.82c.83-2.51,3-3.61,5.38-4,1.88-.33,3.17,1,4.14,2.53.38.59.3,1.8,1.6,1.22.93-.42,1.68-.82,1.79-2.09C37.53,3.77,35,1.24,31,1.23ZM81.9,15.8c.12-4.52-4.24-9.59-8.73-10.14-3.78-.47-7.12,2-7.18,5.23a2.36,2.36,0,0,0,1.21,2.52c1.4.62,1.21-.92,1.71-1.49a5.36,5.36,0,0,1,5.86-1.68c2.14.58,3.61,1.92,3.73,4.12s-1.27,3.8-3.5,4.57c-.61.2-1.93-.06-1.62,1.27A2.19,2.19,0,0,0,75.72,22C79.53,22.08,81.8,19.87,81.9,15.8ZM71.68,87.25c-1.28,3.32.36,9.53,3.22,11.47,1.51,1,2.61-.61,3.86-1.13.62-.25,1.5-.71.85-1.61C77.32,92.76,76.26,88.39,71.68,87.25Zm1.79-69.46c1.69-.14,3.13-.94,3.3-3,.14-1.78-1.63-3.29-3.63-3.24s-3.49,1.05-3.69,3.2C69.3,16.35,71.25,17.84,73.47,17.79ZM30,7.21a4.27,4.27,0,0,0-4.42,4.12,2.37,2.37,0,0,0,2.58,2.5c1.51,0,4.65-2.85,4.64-4.17C32.77,7.8,31.7,7.14,30,7.21Z"
              style="fill:#50423f"/>
        <path d="M7.21,64.49a4.29,4.29,0,0,1-5-1.17c-1.55-1.77-.82-4.07.16-5.86a8.22,8.22,0,0,1,7-4.5c5.86-.47,11.54.86,17.28,1.41,2.27.22,4.51.12,6.76.3.25-1-.57-1.37-1.08-1.74-9.32-6.77-12.18-16-9.62-26.85A22,22,0,0,1,33.15,12.37a27.91,27.91,0,0,1,23-2.91C65.75,12.27,74,20.21,75.41,31.11A24,24,0,0,1,63.67,54.64c-1.13.61-3.4,1-2.78,2.68.53,1.45,2.39.19,3.67.2,8,.09,16-.82,23.88.7,3.58.69,5.11,2.2,5.39,4.82.47,4.42-.87,7.56-4,9a20,20,0,0,1-12.46,1c-3.43-.72-6.88-.19-10.31-.38-1.22-.06-1.53.64-1.5,1.72.19,8.26-1.09,16.43-1.3,24.69-.19,7.57.14,15.23-1.45,22.74a9.45,9.45,0,0,1-2.13,4.92c-2.61,2.63-6.49,1.93-8.55-1.18-2.48-3.75-2.77-7.94-3-12.2-.11-2.36.16-4.71-.28-7.06-.28-1.56-.84-2.25-2.48-2a40,40,0,0,1-8.67.45c-1.65-.08-1.88,1.1-2.22,2.22-1.48,4.85-2.69,9.77-4.22,14.61-.93,2.95-3.1,4.34-5.39,5.76-1.24.76-2.35.22-3.43-.71-3.76-3.23-3.82-7.51-3.59-11.92.57-11.3,4.67-21.88,6.54-32.91.72-4.27,1.6-8.51,2.37-12.78.41-2.28-1-2.29-2.58-2.36-4.8-.2-9.64.47-14.37-.65-1.06-.26-2.69.22-3.06-1.55a6,6,0,0,0,3.14-8.19,1.94,1.94,0,0,0-2.77-.83C5.27,56.76,4.74,62.38,7.21,64.49ZM57.91,77.3c.43-3.25-.71-6.79-2.33-10.17-3.24-6.75-10.88-8.07-16.25-2.89-6.79,6.54-8.76,18.66-4.43,27.22,3.87,7.64,12.68,8.51,18,1.86C56.49,88.77,58.05,83.63,57.91,77.3Zm-9-27a13.52,13.52,0,0,0,6.62-1.16C60,47.37,62,42.7,59.59,39.35A13,13,0,0,0,54.14,35c-3.92-1.77-7.89-.93-11.74-.19a8.08,8.08,0,0,0-6.34,7c-.15,2.83,2.18,5.89,5.7,7.22A15.09,15.09,0,0,0,48.91,50.31ZM33.37,28.21a4,4,0,0,0,3.74,3.89c1.6,0,3.72-2.31,3.79-4.07A4.06,4.06,0,0,0,37,24.23C35.29,24.2,33.41,26.23,33.37,28.21Zm30,1.59c0-2-1.91-4.06-3.69-4a4.1,4.1,0,0,0-3.4,3.94,4,4,0,0,0,3.69,4C61.61,33.76,63.35,31.75,63.33,29.8ZM89.9,65.28c0-1.93-1.55-4.51-2.83-4.52-2.39,0-2.75,2-3.26,3.67-.85,2.83.29,5.78,2.29,6.1s3.4-1.55,3.73-4.72C89.85,65.63,89.88,65.46,89.9,65.28Z"
              style="fill:#876d65"/>
        <path d="M31,1.23c4,0,6.54,2.54,6.25,6.14-.11,1.27-.86,1.67-1.79,2.09-1.3.58-1.22-.63-1.6-1.22-1-1.54-2.26-2.86-4.14-2.53-2.36.42-4.55,1.52-5.38,4a3.89,3.89,0,0,0,1.42,4.82c.48.34,1.3.65.68,1.44s-1,1.64-2.38,1.38c-2.93-.55-5-4.07-4.24-7.43C20.88,5.26,26.08,1.21,31,1.23Z"
              style="fill:#876d65"/>
        <path d="M81.9,15.8c-.1,4.07-2.37,6.28-6.18,6.21a2.19,2.19,0,0,1-2.34-1.81c-.31-1.33,1-1.07,1.62-1.27,2.23-.77,3.62-2.23,3.5-4.57s-1.59-3.54-3.73-4.12a5.36,5.36,0,0,0-5.86,1.68c-.5.57-.31,2.11-1.71,1.49A2.36,2.36,0,0,1,66,10.89c.06-3.24,3.4-5.7,7.18-5.23C77.66,6.21,82,11.28,81.9,15.8Z"
              style="fill:#876d65"/>
        <path d="M71.68,87.25c4.58,1.14,5.64,5.51,7.93,8.73.65.9-.23,1.36-.85,1.61-1.25.52-2.35,2.15-3.86,1.13C72,96.78,70.4,90.57,71.68,87.25Z"
              style="fill:#c8b3a0"/>
        <path d="M73.47,17.79c-2.22.05-4.17-1.44-4-3.06.2-2.15,1.6-3.14,3.69-3.2s3.77,1.46,3.63,3.24C76.6,16.85,75.16,17.65,73.47,17.79Z"
              style="fill:#c8b3a0"/>
        <path d="M30,7.21c1.71-.07,2.78.59,2.8,2.45,0,1.32-3.13,4.2-4.64,4.17a2.37,2.37,0,0,1-2.58-2.5A4.27,4.27,0,0,1,30,7.21Z"
              style="fill:#c8b3a0"/>
        <path d="M7.21,64.49c-2.47-2.11-1.94-7.73.9-9a1.94,1.94,0,0,1,2.77.83A6,6,0,0,1,7.74,64.5Zm-.08-3.6c.15.65-.34,1.63.54,1.89,1,.29,1.31-.76,1.59-1.46.45-1.14,1.16-2.32.26-3.54-.22-.3-.94-.65-1-.55A4.64,4.64,0,0,0,7.13,60.89Z"
              style="fill:#4a3b38"/>
        <path d="M29.31,52.72l.67.67a.74.74,0,0,1-1.08-.24Z" style="fill:#fefefe"/>
        <path d="M57.91,77.3c.14,6.33-1.42,11.47-5,16-5.29,6.65-14.1,5.78-18-1.86-4.33-8.56-2.36-20.68,4.43-27.22,5.37-5.18,13-3.86,16.25,2.89C57.2,70.51,58.34,74.05,57.91,77.3Zm-1.63.28a17.72,17.72,0,0,0-3.34-11.47C49.56,61.6,44.61,61.22,40.48,65c-6.37,5.88-8.18,18.55-3.71,26,3.89,6.48,10.49,6.91,15.07.88A22.29,22.29,0,0,0,56.28,77.58Z"
              style="fill:#4a3b38"/>
        <path d="M48.91,50.31A15.09,15.09,0,0,1,41.76,49c-3.52-1.33-5.85-4.39-5.7-7.22a8.08,8.08,0,0,1,6.34-7c3.85-.74,7.82-1.58,11.74.19a13,13,0,0,1,5.45,4.36c2.36,3.35.42,8-4.06,9.8A13.52,13.52,0,0,1,48.91,50.31Zm-.08-1.54A12.1,12.1,0,0,0,56.22,47c3.49-2.21,3.77-6,.66-8.61-4.27-3.65-11.87-4.09-16.54-1-3.42,2.29-3.73,5.61-.73,8.4C42.16,48.2,45.29,48.9,48.83,48.77Z"
              style="fill:#50423f"/>
        <path d="M33.37,28.21c0-2,1.92-4,3.67-4A4.06,4.06,0,0,1,40.9,28c-.07,1.76-2.19,4-3.79,4.07A4,4,0,0,1,33.37,28.21Z"
              style="fill:#453734"/>
        <path d="M63.33,29.8c0,1.95-1.72,4-3.4,3.95a4,4,0,0,1-3.69-4,4.1,4.1,0,0,1,3.4-3.94C61.42,25.74,63.3,27.77,63.33,29.8Z"
              style="fill:#453734"/>
        <path d="M89.9,65.28c0,.18-.05.35-.07.53-.33,3.17-1.8,5-3.73,4.72s-3.14-3.27-2.29-6.1c.51-1.7.87-3.7,3.26-3.67C88.35,60.77,89.86,63.35,89.9,65.28Zm-1.6.19c-.12-1.18.24-3.17-1.5-3.09s-1.7,2.11-1.71,3.53c0,1.2-.06,3,1.55,2.92S88.21,66.93,88.3,65.47Z"
              style="fill:#4a3b38"/>
        <path d="M7.13,60.89a4.64,4.64,0,0,1,1.34-3.66c.11-.1.83.25,1,.55.9,1.22.19,2.4-.26,3.54-.28.7-.55,1.75-1.59,1.46C6.79,62.52,7.28,61.54,7.13,60.89Z"
              style="fill:#c8b3a0"/>
        <path d="M56.28,77.58A22.29,22.29,0,0,1,51.84,91.9c-4.58,6-11.18,5.6-15.07-.88-4.47-7.44-2.66-20.11,3.71-26,4.13-3.81,9.08-3.43,12.46,1.08A17.72,17.72,0,0,1,56.28,77.58Z"
              style="fill:#c8b3a0"/>
        <path d="M48.83,48.77c-3.54.13-6.67-.57-9.22-2.94-3-2.79-2.69-6.11.73-8.4,4.67-3.13,12.27-2.69,16.54,1,3.11,2.66,2.83,6.4-.66,8.61A12.1,12.1,0,0,1,48.83,48.77Zm-4.74-3.65c.95,1,6,1.79,6.87,1.25.48-.32.84-.79.53-1.37s-.75-.85-1.33,0-1.27.13-1.67-.4c-.57-.74-1.1-1-1.69-.11S45.12,44.73,44.09,45.12Zm4.8-6.22c-1.08,0-2.48-.4-2.63,1.11-.12,1.31,1.43,1.28,2.18,1.45a2.11,2.11,0,0,0,2.39-1.63C51,38.43,49.56,39.15,48.89,38.9Z"
              style="fill:#c8b3a0"/>
        <path d="M88.3,65.47c-.09,1.46,0,3.27-1.66,3.36s-1.56-1.72-1.55-2.92c0-1.42.08-3.45,1.71-3.53S88.18,64.29,88.3,65.47Z"
              style="fill:#c8b3a0"/>
        <path d="M44.09,45.12c1-.39,2,.32,2.71-.63s1.12-.63,1.69.11c.4.53,1,1.37,1.67.4s1-.73,1.33,0-.05,1-.53,1.37C50.13,46.91,45,46.1,44.09,45.12Z"
              style="fill:#50423f"/>
        <path d="M48.89,38.9c.67.25,2.1-.47,1.94.93a2.11,2.11,0,0,1-2.39,1.63c-.75-.17-2.3-.14-2.18-1.45C46.41,38.5,47.81,38.94,48.89,38.9Z"
              style="fill:#50423f"/>
    </g>
</svg>