<svg xmlns="http://www.w3.org/2000/svg" viewBox="0 0 96.02 130.27">
    <g>
        <path d="M22.12,56.25a1.1,1.1,0,0,1,1.26,0c0,.87.33,1.41,1.28,1.38,1.91,0,3.82.11,5.72.06,1.52,0,3.8,1.67,4.35-.23.5-1.69-2.21-2.16-3.58-3-7.4-4.74-11.24-11.74-11.24-20.24,0-9.36,4.72-16.9,12.75-21.46,11.12-6.32,22.44-6,32.72,2.15C73.92,21.6,76,32.89,72,42.65a23.93,23.93,0,0,1-8.45,10.41c-.47.33-1.22.69-.92,1.46s.95.4,1.45.38c1.63,0,3.25-.13,4.87-.25,5.67-.45,11.23-1.9,17-1.46,5,.38,7.08,2.06,8.12,7.08.49,2.39-.23,3.86-2.63,4.47-5.09,1.3-10.17,2.55-15.51,2.17a62.25,62.25,0,0,0-6.26.07c-1.08,0-1.76.22-1.56,1.79a278,278,0,0,0,6.29,31.31c1.74,7,3.09,14.09,2.13,21.4-.35,2.6-3.5,6.43-5.46,6.45-1.8,0-6-3.35-6.54-5.22-1.31-4.79-2.73-9.56-3.93-14.37-.61-2.48-1.7-3.73-4.46-3.37a17,17,0,0,1-5.41-.27c-3.43-.64-4.15,0-4.14,3.62A72.2,72.2,0,0,1,45.89,120a15.52,15.52,0,0,1-4.23,8,3,3,0,0,1-3.26.83,8,8,0,0,1-5.63-6.58c-1.47-7.81-1.07-15.71-1.35-23.55-.28-8.06-1.52-16-1.3-24.13,0-1.1-.32-1.75-1.53-1.68-3.43.19-6.86-.34-10.3.36a19.81,19.81,0,0,1-12.7-1.17c-3.07-1.45-4.27-4.38-3.79-8.83.33-3,2.36-4.3,5.12-4.75,2.3-.38,4.6-.79,6.91-1.19a21,21,0,0,1,5.65.14C20.46,57.66,22,58.21,22.12,56.25ZM54,74.17c.88.41,1.35.66,1.84.85,3.46,1.37,4.84.34,4.84-3.46,0-2.43-1.7-3.87-2.94-5.62-1.49-2.12-4.29-3.55-4.58-6.19s-1.9-2.17-3.38-2.06-3.52,0-3.37,2.69c.29,5.5.66,11,1.07,16.49.54,7,.79,14,1.15,21.08,0,.83,0,1.78,1,2.06a7.55,7.55,0,0,0,5.54-.61c1.3-.69.53-2.45.44-3.75C55.08,88.63,54.57,81.62,54,74.17Zm-5.7-39.95c-4.57,0-7,.67-10,2.92-4.43,3.22-4.21,8.29.32,11.43s15.1,2.68,19.08-2.25c2.6-3.23,2.47-7-.86-9.4A12.18,12.18,0,0,0,48.32,34.22Zm13.94-5.49c-.14-2.47-2-4.4-4-4.26a4.16,4.16,0,0,0-3.57,3.85A3.76,3.76,0,0,0,58.84,32C60.91,31.8,62.12,30.66,62.26,28.73ZM39.39,30.06c0-1.85-1.75-3.88-3.4-4S32.32,28,32.3,30.05,34,34,35.67,34A4,4,0,0,0,39.39,30.06ZM12.15,66.56c-.06-3.05-2-5.79-3.66-5.56S5.66,64.18,6,66.9c.26,2.06.85,3.94,3.24,3.81C11.94,70.57,11.67,68.07,12.15,66.56Zm77.94-5a7.48,7.48,0,0,0-1.84-5.22c-1.26-1.49-2.94-1.13-3.42.75a8.83,8.83,0,0,0,0,4.81c.44,1.44,1.46,2.93,3.26,2.72S90,62.75,90.09,61.56Z"
              style="fill:#876d65"/>
        <path d="M13.83,57.35c-2.31.4-4.61.81-6.91,1.19C4.16,59,2.13,60.25,1.8,63.29c-.48,4.45.72,7.38,3.79,8.83a19.81,19.81,0,0,0,12.7,1.17c3.44-.7,6.87-.17,10.3-.36,1.21-.07,1.56.58,1.53,1.68-.22,8.08,1,16.07,1.3,24.13.28,7.84-.12,15.74,1.35,23.55a8,8,0,0,0,5.63,6.58,3,3,0,0,0,3.26-.83,15.52,15.52,0,0,0,4.23-8,72.2,72.2,0,0,0,.66-11.67c0-3.61.71-4.26,4.14-3.62a17,17,0,0,0,5.41.27c2.76-.36,3.85.89,4.46,3.37,1.2,4.81,2.62,9.58,3.93,14.37.52,1.87,4.74,5.25,6.54,5.22,2,0,5.11-3.85,5.46-6.45,1-7.31-.39-14.36-2.13-21.4a278,278,0,0,1-6.29-31.31c-.2-1.57.48-1.75,1.56-1.79a62.25,62.25,0,0,1,6.26-.07c5.34.38,10.42-.87,15.51-2.17,2.4-.61,3.12-2.08,2.63-4.47-1-5-3.11-6.7-8.12-7.08-5.77-.44-11.33,1-17,1.46-1.62.12-3.24.2-4.87.25-.5,0-1.2.25-1.45-.38s.45-1.13.92-1.46A23.93,23.93,0,0,0,72,42.65c4-9.76,2-21-6.58-27.81C55.1,6.71,43.78,6.37,32.66,12.69c-8,4.56-12.74,12.1-12.75,21.46,0,8.5,3.84,15.5,11.24,20.24,1.37.88,4.08,1.35,3.58,3-.55,1.9-2.83.18-4.35.23-1.9.05-3.81,0-5.72-.06,0-.41.05-.82.07-1.23h5.74c.28-1.08-.85-1.21-1.39-1.61C19.92,48,16.3,37.25,19.76,26.34c.68-2.16.66-2.89-1.86-3.08-4.12-.32-6.48-4.19-5.76-8.87.79-5.14,6.32-9.86,11.52-9.82,3.72,0,6.34,1.88,7.09,5.48.32,1.55.79,1.58,1.89.95C39.75,6.9,47.32,6.21,55.2,8c1.2.27,1.67.25,1.92-1.22C58.08,1.29,62-1.13,67.54.5c4.91,1.43,8.35,4.62,9.54,9.81a6.88,6.88,0,0,1-3.76,8.16c-1,.49-1.71.7-1,2.09,5.82,12.2,3.62,23-6.11,32.58,3.09.38,5.9-.24,8.68-.69A55.43,55.43,0,0,1,87,52a9.93,9.93,0,0,1,8.86,8c.54,2.78-.74,4.91-3.33,6.12-4.16,1.93-8.6,2.1-13,2.36a69.43,69.43,0,0,1-8.16.08c-1.81-.1-2.29.56-1.95,2.15,2.11,10,4.22,20.09,6.72,30.06,1.63,6.48,2.74,13.08,2.09,19.86a11.41,11.41,0,0,1-4.56,8,4.38,4.38,0,0,1-5.13.27c-2.64-1.46-4.83-3.38-5.74-6.54-1.39-4.86-3-9.63-3.87-14.63-.16-1-.65-1.59-1.63-1.26-2.18.73-4.29.36-6.44-.06-1.93-.37-2.78.24-2.67,2.4a71.58,71.58,0,0,1-.68,10.84,15.83,15.83,0,0,1-2.36,6.59c-1.53,2.61-3.6,4.47-6.81,4a7.71,7.71,0,0,1-6.62-5.68,37.94,37.94,0,0,1-1.26-9.66c-.34-7.43-.58-14.87-1-22.3-.27-5.51-.69-11-1.06-16.69a3.05,3.05,0,0,0-1.92,2.84c0,3.78-1.26,7.52-.58,11.28a5.65,5.65,0,0,1-.8,4.34c-1,1.61-1.95,3.27-2.93,4.9a2.56,2.56,0,0,1-.59.91c-3,2.18-4.34-1.53-6.64-2-1.64-.33-.75-1.61-.16-2.53,1-1.6,2.14-3.16,3-4.83a8.12,8.12,0,0,1,4.48-4.08,3.46,3.46,0,0,0,2.44-4.45c-.6-2.84.61-5.24,2.41-7.64a51.54,51.54,0,0,0-11.06.51,20.9,20.9,0,0,1-9.41-.7C-.14,72.49-1.13,64.83,1,60.49c1.48-3,4.78-3.57,7.86-3.92,1.62-.18,3.27-.09,4.9-.13ZM64.77,1.46c-3.78,0-6.17,2-6.35,5.2-.08,1.39.14,2.44,1.64,3,1.7.63,1.37-1,1.9-1.58C63.06,6.8,64.28,5.55,66.07,6c2.25.51,4.37,1.53,5.18,3.92.56,1.67.54,3.38-1.08,4.69-.51.42-1.76.67-.87,1.82.68.87,1.33,1.64,2.7,1.08,2.31-.94,3.75-2.47,3.91-5C76.26,6.87,70.77,1.47,64.77,1.46ZM22.69,19.66A17.88,17.88,0,0,1,19,18.26,3.79,3.79,0,0,1,17.17,14,4.92,4.92,0,0,1,21.4,10.3a5.22,5.22,0,0,1,5.34,1.89c.45.57.38,1.9,1.49,1.55s1.45-1.45,1.41-2.67c-.1-3.23-3.5-5.68-7.25-5.18-5.32.72-9.75,7-8.58,12.27.62,2.77,2.9,3.5,5.27,4C21.09,22.6,22.09,21.47,22.69,19.66Zm2.08,71.42c0-1.22.14-2.81-.78-3.34s-2.26.42-3,1.19c-2.14,2.11-3.46,4.85-5,7.41-.64,1.08.58,1.46,1.19,1.73,1.15.5,2.73,2.18,3.5,1.05C22.33,96.66,24.48,94.29,24.77,91.08ZM22.28,18c2.3,0,4.12-1.59,3.89-3.24-.3-2.14-1.74-3.08-3.81-3.09S18.53,13.26,18.74,15C19,17.12,20.54,17.92,22.28,18ZM65.75,7.44c-1.67-.08-2.83.45-2.9,2.35-.06,1.34,3,4.23,4.55,4.25a2.42,2.42,0,0,0,2.71-2.66C70.15,9.34,68,7.48,65.75,7.44Z"
              style="fill:#50423f"/>
        <path d="M13.83,57.35l-.07-.91c2.78-.68,5.57-.38,8.37-.18-.15,2-1.67,1.4-2.65,1.23A21,21,0,0,0,13.83,57.35Z"
              style="fill:#453734"/>
        <path d="M24.73,56.37c0,.41,0,.82-.07,1.23-.95,0-1.29-.51-1.28-1.38Z" style="fill:#453734"/>
        <path d="M54,74.17c.55,7.45,1.06,14.46,1.56,21.48.09,1.3.86,3.06-.44,3.75a7.55,7.55,0,0,1-5.54.61c-1-.28-.91-1.23-1-2.06-.36-7-.61-14.06-1.15-21.08-.41-5.49-.78-11-1.07-16.49-.15-2.72,1.75-2.56,3.37-2.69s3.09-.7,3.38,2.06,3.09,4.07,4.58,6.19c1.24,1.75,2.94,3.19,2.94,5.62,0,3.8-1.38,4.83-4.84,3.46C55.37,74.83,54.9,74.58,54,74.17Zm5.09-4.09-.48-.25,0,.6c-.09,2.85-.57,3.1-3.08,1.61-2.15-2.51-.22-3.49,1.9-4.43-1.06-1.21-2-2.31-3-3.35-.38-.4-1.36-1.1-1.36-.17,0,1.23-2.23,0-1.4,1.77a64.47,64.47,0,0,0,3.34,6.58,2.94,2.94,0,0,0,3.41,1.87c1.49-.5,1-2.27,1-3.58C59.5,70.51,59.25,70.3,59.11,70.08ZM51.4,88.15c0,.45,0,1.28.05,1.3,2.55.51,2.13,2.16,1.63,3.93-.14.47.25.83,1,.87q-.33-6.61-.67-13.19c-.45,1.08,0,2.48-1.23,3.16s-1,1.25,0,1.64.88,1.09.72,1.76c-.2.85-1,.61-1.58.57-.29-1.62-2.4-3.22-.17-4.84.52-.39.9-.72.64-1.23-.45-.86-1.47-.45-2.19-.62s-.43.77-.41,1.15c.15,3.79.37,7.58.58,11.37,0,.46-.28,1.16.68,1.08-.62-2.12,1.17-4.26-.13-6.39C50.19,88.44,50.66,87.66,51.4,88.15Zm.68,10.4c.79-.23,2.14.54,2.12-1.23,0-1.21-.63-1.76-1.68-1.41-.89.3-2.44-.14-2.53,1.32C49.9,98.5,50.9,98.83,52.08,98.55ZM51.9,59.64c-.18-1-.92-1-1.28-.75-1,.68-3.07-.61-3,1.72,0,.59.17,1.76.81,1.26C49.51,61,50.88,60.49,51.9,59.64Zm1,12.73c-.35,1.4-.37,3-2.51,2.76-.48,0-.54.36-.29.72s.24.93.63.65c.91-.66,1.43.4,2.17.39Zm-4.74-4.62c0,1.11-.23,2,.26,2.86.08-1.42,2.45-.67,2.29-2.43Zm4.12,10.07c-1.7.14-2.77-.17-3.67-1.71l.19,3.44C49.78,78.77,51,79.2,52.29,77.82Zm-1-4.89c-.24-.93-1.14-.36-1.73-.52s-1,.26-.88.89c.15,1.19,1.08.57,1.68.66S51.42,73.81,51.31,72.93Z"
              style="fill:#453734"/>
        <path d="M48.32,34.22a12.18,12.18,0,0,1,8.49,2.7c3.33,2.45,3.46,6.17.86,9.4-4,4.93-14.68,5.29-19.08,2.25s-4.75-8.21-.32-11.43C41.36,34.89,43.75,34.17,48.32,34.22ZM46.68,49c4.18,0,6.85-.79,9.1-2.65,3.14-2.59,3-6.32-.39-8.62-4.69-3.21-12.58-2.75-16.77,1-2.86,2.55-2.69,6.14.47,8.3A12.07,12.07,0,0,0,46.68,49Z"
              style="fill:#50423f"/>
        <path d="M62.26,28.73c-.14,1.93-1.35,3.07-3.42,3.3a3.76,3.76,0,0,1-4.15-3.71,4.16,4.16,0,0,1,3.57-3.85C60.22,24.33,62.12,26.26,62.26,28.73Z"
              style="fill:#453734"/>
        <path d="M39.39,30.06A4,4,0,0,1,35.67,34c-1.67,0-3.38-2-3.37-3.92S34.21,26,36,26.1,39.39,28.21,39.39,30.06Z"
              style="fill:#453734"/>
        <path d="M12.15,66.56c-.48,1.51-.21,4-2.9,4.15C6.86,70.84,6.27,69,6,66.9c-.35-2.72.81-5.68,2.48-5.9S12.09,63.51,12.15,66.56ZM7.33,65.49c.07,1.56,0,3.66,1.72,3.55,2-.11,1.46-2.3,1.45-3.78a4.22,4.22,0,0,0-.42-1.56c-.24-.58-.56-1.25-1.3-1.22S7.65,63.31,7.46,64A6.76,6.76,0,0,0,7.33,65.49Z"
              style="fill:#4a3b38"/>
        <path d="M90.09,61.56c-.11,1.19-.19,2.85-2,3.06s-2.82-1.28-3.26-2.72a8.83,8.83,0,0,1,0-4.81c.48-1.88,2.16-2.24,3.42-.75A7.48,7.48,0,0,1,90.09,61.56Zm-1.58-.33c0-1.46-.24-3-1.51-3.79-.3-.2-1.5.82-1.26,2,.3,1.39.39,3.13,1.89,3.58C88.8,63.33,88.31,61.91,88.51,61.23Z"
              style="fill:#4a3b38"/>
        <path d="M64.77,1.46c6,0,11.49,5.41,11.14,11-.16,2.54-1.6,4.07-3.91,5-1.37.56-2-.21-2.7-1.08-.89-1.15.36-1.4.87-1.82,1.62-1.31,1.64-3,1.08-4.69C70.44,7.48,68.32,6.46,66.07,6c-1.79-.4-3,.85-4.11,2.13-.53.61-.2,2.21-1.9,1.58-1.5-.56-1.72-1.61-1.64-3C58.6,3.43,61,1.45,64.77,1.46Z"
              style="fill:#876d65"/>
        <path d="M22.69,19.66c-.6,1.81-1.6,2.94-3.61,2.51-2.37-.51-4.65-1.24-5.27-4-1.17-5.25,3.26-11.55,8.58-12.27,3.75-.5,7.15,2,7.25,5.18,0,1.22-.26,2.3-1.41,2.67s-1-1-1.49-1.55A5.22,5.22,0,0,0,21.4,10.3,4.92,4.92,0,0,0,17.17,14,3.79,3.79,0,0,0,19,18.26,17.88,17.88,0,0,0,22.69,19.66Z"
              style="fill:#876d65"/>
        <path d="M24.77,91.08c-.29,3.21-2.44,5.58-4.12,8-.77,1.13-2.35-.55-3.5-1.05-.61-.27-1.83-.65-1.19-1.73,1.53-2.56,2.85-5.3,5-7.41.78-.77,2.17-1.69,3-1.19S24.75,89.86,24.77,91.08Z"
              style="fill:#c8b3a0"/>
        <path d="M22.28,18c-1.74-.11-3.28-.91-3.54-3.08-.21-1.69,1.61-3.26,3.62-3.25s3.51,1,3.81,3.09C26.4,16.44,24.58,18,22.28,18Z"
              style="fill:#c8b3a0"/>
        <path d="M65.75,7.44c2.29,0,4.4,1.9,4.36,3.94A2.42,2.42,0,0,1,67.4,14c-1.58,0-4.61-2.91-4.55-4.25C62.92,7.89,64.08,7.36,65.75,7.44Z"
              style="fill:#c8b3a0"/>
        <path d="M55.12,72.44a64.47,64.47,0,0,1-3.34-6.58c-.83-1.74,1.41-.54,1.4-1.77,0-.93,1-.23,1.36.17,1,1,1.89,2.14,3,3.35-2.12.94-4.05,1.92-1.9,4.43Z"
              style="fill:#c8b3a0"/>
        <path d="M51.4,88.15c-.74-.49-1.21.29-1,.56,1.3,2.13-.49,4.27.13,6.39-1,.08-.66-.62-.68-1.08-.21-3.79-.43-7.58-.58-11.37,0-.38-.38-1.33.41-1.15s1.74-.24,2.19.62c.26.51-.12.84-.64,1.23-2.23,1.62-.12,3.22.17,4.84Z"
              style="fill:#c8b3a0"/>
        <path d="M51.36,88.19c.62,0,1.38.28,1.58-.57.16-.67.27-1.38-.72-1.76s-1.25-1,0-1.64.78-2.08,1.23-3.16q.33,6.59.67,13.19c-.74,0-1.13-.4-1-.87.5-1.77.92-3.42-1.63-3.93-.1,0,0-.85-.05-1.3Z"
              style="fill:#c8b3a0"/>
        <path d="M52.08,98.55c-1.18.28-2.18,0-2.09-1.32.09-1.46,1.64-1,2.53-1.32,1-.35,1.66.2,1.68,1.41C54.22,99.09,52.87,98.32,52.08,98.55Z"
              style="fill:#c8b3a0"/>
        <path d="M51.9,59.64c-1,.85-2.39,1.35-3.5,2.23-.64.5-.8-.67-.81-1.26,0-2.33,2.06-1,3-1.72C51,58.63,51.72,58.65,51.9,59.64Z"
              style="fill:#c8b3a0"/>
        <path d="M55.59,72c2.51,1.49,3,1.24,3.08-1.61l.44-.35c.14.22.39.43.39.65,0,1.31.52,3.08-1,3.58a2.94,2.94,0,0,1-3.41-1.87Z"
              style="fill:#c8b3a0"/>
        <path d="M52.91,72.37v4.52c-.74,0-1.26-1-2.17-.39-.39.28-.46-.39-.63-.65s-.19-.77.29-.72C52.54,75.34,52.56,73.77,52.91,72.37Z"
              style="fill:#c8b3a0"/>
        <path d="M48.17,67.75l2.55.43c.16,1.76-2.21,1-2.29,2.43C47.94,69.76,48.19,68.86,48.17,67.75Z"
              style="fill:#c8b3a0"/>
        <path d="M52.29,77.82c-1.29,1.38-2.51,1-3.48,1.73l-.19-3.44C49.52,77.65,50.59,78,52.29,77.82Z"
              style="fill:#c8b3a0"/>
        <path d="M51.31,72.93c.11.88-.33,1.13-.93,1s-1.53.53-1.68-.66c-.08-.63.15-1.1.88-.89S51.07,72,51.31,72.93Z"
              style="fill:#c8b3a0"/>
        <path d="M58.67,70.43l0-.6.48.25Z" style="fill:#c8b3a0"/>
        <path d="M46.68,49a12.07,12.07,0,0,1-7.59-2c-3.16-2.16-3.33-5.75-.47-8.3,4.19-3.73,12.08-4.19,16.77-1,3.37,2.3,3.53,6,.39,8.62C53.53,48.22,50.86,49,46.68,49Zm4.71-4a2.67,2.67,0,0,1-2.75-.49c-1.37-1.31-1.46,1.19-2.52,1-.17,0-.39,0-.49-.14-.38-.38-.55-1.37-1.33-.48a1.17,1.17,0,0,0-.16,1,1.35,1.35,0,0,0,1.55.84c1.54-.17,3-.81,4.64-.2C50.72,46.75,51.32,46.23,51.39,45.05ZM47,39.13c-.68.31-2.2-.56-2.23.85,0,1,1.29,1.84,2.31,1.72.78-.1,2.26-.2,2.27-1.37S48.17,39.06,47,39.13Z"
              style="fill:#c8b3a0"/>
        <path d="M7.33,65.49A6.76,6.76,0,0,1,7.46,64c.19-.68.45-1.47,1.32-1.51s1.06.64,1.3,1.22a4.22,4.22,0,0,1,.42,1.56c0,1.48.51,3.67-1.45,3.78C7.35,69.15,7.4,67.05,7.33,65.49Z"
              style="fill:#c8b3a0"/>
        <path d="M88.51,61.23c-.2.68.29,2.1-.88,1.74-1.5-.45-1.59-2.19-1.89-3.58-.24-1.13,1-2.15,1.26-2C88.27,58.27,88.47,59.77,88.51,61.23Z"
              style="fill:#c8b3a0"/>
        <path d="M51.39,45.05c-.07,1.18-.67,1.7-1.06,1.56-1.61-.61-3.1,0-4.64.2A1.35,1.35,0,0,1,44.14,46a1.17,1.17,0,0,1,.16-1c.78-.89,1,.1,1.33.48.1.11.32.12.49.14,1.06.14,1.15-2.36,2.52-1A2.67,2.67,0,0,0,51.39,45.05Z"
              style="fill:#50423f"/>
        <path d="M47,39.13c1.14-.07,2.38-.11,2.35,1.2s-1.49,1.27-2.27,1.37c-1,.12-2.34-.7-2.31-1.72C44.83,38.57,46.35,39.44,47,39.13Z"
              style="fill:#50423f"/>
    </g>
</svg>