<svg xmlns="http://www.w3.org/2000/svg" viewBox="0 0 600 1200">
    <g id="Tag0">
        <path d="M253.71,394.16c-2,1.65-1.18,4.1-1.68,6.16-.57,2.4-2.4,3.4-4,4.8-.13.52.25.6.6.71a2.72,2.72,0,0,1,1,.15,3.17,3.17,0,0,1,.5,2c.64,4.75,2.12,9.32,3.1,14a43.8,43.8,0,0,0,1.72,7,3.72,3.72,0,0,1-.33,3.14c-5.74,11.08-11.47,22.17-17.07,33.34-.7,1.4-1.5,1.45-2.79.86-7.54-3.42-15.08-6.84-22.65-10.17-1.36-.6-.75-1.27-.4-2,2.4-5.46,5.15-10.75,7.68-16.13s5.24-11,7.78-16.56c.67-1.46,1.6-2.75,2.26-4.22-.16-.56-.49-.72-1-.37a3.36,3.36,0,0,0-2.3,2.13q-8.52,17.93-17.14,35.87c-.67,1.38-.42,2,1,2.65q13.08,5.83,26.18,11.78c1.26.58,1.82.18,2.4-.91q8.88-17.69,17.82-35.35a6.88,6.88,0,0,0,.44-5q-2.55-10.17-5.17-20.37c-.44-1.71-.89-3.2.85-4.69,1-.86,1.18-2.59,1.21-4a9.93,9.93,0,0,1,.92-4.74Z"
              style="fill:#40322f"/>
        <path d="M228.41,416.83a1,1,0,0,1,.88.42c1,.39,1.65-.26,2.4-.66,5.45-3,10.64-6.4,16-9.49.62-.35,1.33-.66,1.28-1.6l-1-.43C241.33,408.72,234.8,412.67,228.41,416.83Z"
              style="fill:#483836"/>
        <path d="M249,405.53c-5.25,3.2-10.47,6.4-15.75,9.54a15.8,15.8,0,0,1-4,2.18,6.1,6.1,0,0,0-1.95,2.51q-8.26,17.52-16.63,35c-.45.94-.46,1.22.56,1.67q12.14,5.35,24.21,10.87c1.25.57,1.64.32,2.22-.84q8.81-17.37,17.72-34.68a2.4,2.4,0,0,0,.34-1.84q-2.28-9-4.48-18.05c-.32-1.34-.45-2.71-.67-4.07a21.85,21.85,0,0,0-.94-2.72Z"
              style="fill:#cdb7a4"/>
    </g>
</svg>