<svg xmlns="http://www.w3.org/2000/svg" viewBox="0 0 600 1200">
    <g id="Tag2">
        <path d="M254,394.42c-2,1.66-1.18,4.1-1.68,6.16-.57,2.4-2.4,3.4-4,4.8-.13.52.25.61.6.71a2.77,2.77,0,0,1,1,.15,3.25,3.25,0,0,1,.49,2c.64,4.75,2.12,9.32,3.1,14a44,44,0,0,0,1.73,7,3.75,3.75,0,0,1-.34,3.15c-5.74,11.07-11.47,22.17-17.07,33.33-.7,1.4-1.5,1.45-2.79.87q-11.31-5.14-22.65-10.18c-1.36-.6-.75-1.26-.4-2,2.4-5.45,5.15-10.74,7.69-16.13s5.24-11,7.77-16.56c.67-1.45,1.6-2.75,2.27-4.21-.17-.56-.5-.73-1-.38a3.39,3.39,0,0,0-2.3,2.13q-8.52,17.94-17.14,35.87c-.67,1.39-.42,2,1,2.66q13.08,5.82,26.17,11.77c1.27.58,1.82.19,2.4-.91q8.88-17.69,17.83-35.34a6.94,6.94,0,0,0,.44-5q-2.56-10.19-5.18-20.38c-.44-1.7-.89-3.2.86-4.69,1-.86,1.17-2.59,1.2-4a9.93,9.93,0,0,1,.92-4.74Z"
              style="fill:#40322f"/>
        <path d="M228.69,417.09a1,1,0,0,1,.88.43c1,.38,1.65-.27,2.4-.67,5.45-3,10.65-6.4,16.05-9.49.61-.35,1.32-.65,1.27-1.6l-.95-.43C241.62,409,235.08,412.93,228.69,417.09Z"
              style="fill:#483836"/>
        <path d="M249.28,405.8c-5.25,3.2-10.47,6.4-15.75,9.53a16,16,0,0,1-4,2.19,6.07,6.07,0,0,0-1.95,2.5q-8.26,17.52-16.63,35c-.45.94-.45,1.23.56,1.68q12.13,5.34,24.21,10.86c1.25.58,1.64.32,2.22-.84q8.81-17.37,17.72-34.68a2.39,2.39,0,0,0,.34-1.84q-2.28-9-4.48-18.05c-.32-1.33-.45-2.71-.67-4.07a19.73,19.73,0,0,0-.94-2.71Z"
              style="fill:#d09896"/>
    </g>
</svg>