<svg xmlns="http://www.w3.org/2000/svg" viewBox="0 0 600 1200">
    <g id="Tag3">
        <path d="M255.68,393.16c-1.6,1.24-1.6,2.63-2,3.76-1.24,3.52-2.34,4.15-5.78,3-2.11-.68-3.82.23-5.32,1.48a1.24,1.24,0,0,1-1.75.16l0,0a22.8,22.8,0,1,0-16.44,42h.06c12.58,2.79,24.05-4.34,27.2-16.8,2.28-8.94-.67-16.45-7.2-22.71-1.44-1.38-1.35-1.7.52-2.5a4.39,4.39,0,0,1,2.56-.2c5.12.93,6.4.16,7.71-4.92A31.23,31.23,0,0,0,255.68,393.16Z"
              style="fill:#433432"/>
        <path d="M242.49,404.85c1.17,3.11.68,4.38-1.47,4.39a1.89,1.89,0,0,1-2.13-1.44,2.29,2.29,0,0,1,.87-2.7c2-1.33,2-1.36-.15-2.4a21.16,21.16,0,0,0-30.93,15.78c-1.93,13.08,8.92,23.93,20.57,24a21.63,21.63,0,0,0,21.17-16.8C252.07,418.05,248.68,408.44,242.49,404.85Z"
              style="fill:#e0eff5"/>
        <path d="M242.23,406.8c-1.39.8-1.39.8-1.87-.75-1,.22-.8.95-.53,1.49a1.36,1.36,0,0,0,1.42.8C242.1,408.19,242.5,407.7,242.23,406.8Z"
              style="fill:#f3f0f1"/>
    </g>
</svg>