<svg xmlns="http://www.w3.org/2000/svg" viewBox="0 0 600 1200">
    <g id="Tag6">
        <path d="M256.28,433.53a.55.55,0,0,1,.23.2L254.7,436l-.13-.09-.12-.1A2.12,2.12,0,0,1,256.28,433.53Z"
              style="fill:#e0dedd"/>
        <path d="M256.28,433.53l-1.86,2.32c-3,3.22-6.9,3.65-11.09,3.54-7.76-.21-15.52-.2-23.29-.17-.72,0-1.1,0-1.3-.76-2.18-8.63-4.52-17.25-6.59-25.92-1.24-5.17,1.14-9.15,5.06-12.34a16.49,16.49,0,0,1,18.69-1.65c3.49,2.07,5.23,5.36,5.28,9.7a6.47,6.47,0,0,1,4.24-1.9c3.56-.11,5.37-2.47,6.86-5.29a27,27,0,0,0,1.9-6.78c.64,0,.63.39.62.85-.09,4.26-1.35,8-4.71,10.84A8.65,8.65,0,0,1,245,407.7c-2,.18-2.83,1.56-3.62,3.57a11,11,0,0,1,7.54-1.23,11.65,11.65,0,0,1,8.33,7A17,17,0,0,1,256.28,433.53Z"
              style="fill:#433432"/>
        <path d="M253.05,413.25a14.56,14.56,0,0,1,4.56,12.12c-.46,4.88-2.23,9.17-6.93,11.6-2.59,1.32-5.49,1.27-8.28,1.18-7.09-.19-14.19-.17-21.28-.14-1,0-1.21-.25-1.43-1.14-1.91-7.59-3.95-15.15-5.86-22.74-2.14-8.24,2.48-13.46,9.61-15.8a13.71,13.71,0,0,1,13.22,2.19c2.94,2.26,4.28,7.45,2.92,10.9a3.71,3.71,0,0,1-2.39,2.35c-1.56.49-2.09,2-1.21,3a1.74,1.74,0,0,0,2,.72,2,2,0,0,0,1.46-1.91c-.1-1.94,1.05-2.91,2.56-3.57C245.72,410.4,249.36,410.42,253.05,413.25Z"
              style="fill:#8a504d"/>
        <path d="M237.45,414.82c-.79,1.37,2-.26,1,1.29-.38.56-.86.9-1.51.47a.87.87,0,0,1-.28-1.19,1.56,1.56,0,0,1,.16-.2C236.94,415,237.07,414.68,237.45,414.82Z"
              style="fill:#fefefe"/>
    </g>
</svg>