<svg xmlns="http://www.w3.org/2000/svg" viewBox="0 0 600 1200">
    <g id="Tag7">
        <path d="M207.45,448.59l14.49,16.26a.5.5,0,0,0,.38-.6.08.08,0,0,0,0,0,123.52,123.52,0,0,0-14.15-15.91.52.52,0,0,0-.69.24Z"
              style="fill:#cfcaca"/>
        <path d="M207.45,448.59l.27-.24a5.31,5.31,0,0,0-3.78-4.25.6.6,0,0,0-.26.24Z" style="fill:#d4d0d0"/>
        <path d="M222.21,464.61l-.27.24,3.48,3.91.16-.08.14-.12A4.59,4.59,0,0,0,222.21,464.61Z"
              style="fill:#d1cdcd"/>
        <path d="M248.11,403.61c-.6.63-1.31,1.16-2,1.73A2.14,2.14,0,0,1,245,406l0,0a1.88,1.88,0,0,1-.46.59,2.41,2.41,0,0,1-.5.33,1.83,1.83,0,0,1-.35.44l.15,0-1.85,1.65L205,442c-.59.53-1.92.83-1.09,2.15l21.76,24.43c.83.64,1.31,0,1.84-.5Q249.23,448.7,271,429.45c1.2-1.06,1-1.85.17-2.85l-20.33-23C249.94,402.59,249.05,402.59,248.11,403.61Z"
              style="fill:#453532"/>
        <path d="M211.51,438.07l-2.61,2.33c-.73.91-.45,1.59.48,2.11a9.43,9.43,0,0,0,2.24.83c7,1.75,13.92,3.6,20.91,5.17a14.2,14.2,0,0,1,4.28.79l1.09.38a15.89,15.89,0,0,1,3,1,4,4,0,0,0,.57.14,7.91,7.91,0,0,0,3.49-.12l1.3-1.16a2,2,0,0,0-2-1.09c-4.55-.5-8.8-2.22-13.2-3.34-5.23-1.32-10.39-2.88-15.49-4.63-1.11-.38-2.3-.17-3.42-.52-.47-.16-.77-.39-.51-.94a2.24,2.24,0,0,0,.19-.55.39.39,0,0,0-.14-.33C211.59,438.08,211.54,438.05,211.51,438.07Z"
              style="fill:#dcb17f"/>
        <path d="M261.52,435.92l7.17-6.38c-1.65-1.35-3.76-1.52-5.68-2.15-1.14-.39-2.38-.45-3.53-.83-8.79-2.06-17.7-3.52-26.6-4.95a5,5,0,0,0-2.78.14,5.81,5.81,0,0,0-1.17,1.1c.17,1.38,1.34,1.39,2.28,1.51,6.73.88,13.46,1.87,20.07,3.28,4.17.87,8.33,1.78,12.53,2.51.55.1,1.33.08,1.51.67.24.78-.7.95-1.09,1.44l-2,1.82C261.79,434.6,261,435,261.52,435.92Z"
              style="fill:#daaf7f"/>
        <path d="M261.52,435.92c0-.72.66-1,1.05-1.43-.64-1.57-2.28-1.18-3.5-1.68a5.91,5.91,0,0,0-2.53-.44c-3.46.26-6.75-.63-10-1.5a200,200,0,0,0-19.77-4.16,3.83,3.83,0,0,0-1.93-.1,1.62,1.62,0,0,0-.54.31,1.47,1.47,0,0,0-.56.74c2,1.41,4.44,1.62,6.74,2.06,6.82,1.31,13.51,3.15,20.33,4.45a52.75,52.75,0,0,1,8.85,2c-.17.56-.63.7-.92,1l-1.8,1.6-2.14,1.91c-.85.82-1.76,1.57-2.64,2.35-.64.79-1.66,1-2.43,1.62a.8.8,0,0,0,.2.9,1,1,0,0,0,.6.23Z"
              style="fill:#efc391"/>
        <path d="M211.44,438.62c-1,.73-1.32,1.41.23,1.76a51.27,51.27,0,0,1,6.26,1.47c1.73.61,3.64.79,5.23,1.95,1.07.78,2.49.28,3.77.69,4.91,1.58,9.89,3,14.87,4.26,1.42.39,3,.1,4.44.79l1.3-1.15c-7.41-1.69-14.19-5.29-21.66-6.78C221.06,440.65,216.19,439.88,211.44,438.62Z"
              style="fill:#dfb280"/>
        <path d="M211.44,438.62c.55,1.44,1.95,1,3,1.19,6.6,1.34,13.28,2.53,19.73,4.65,3.67,1.19,7.17,2.88,10.93,3.86a4.49,4.49,0,0,0,2.49.08l2.94-2.62-.25-.27a2,2,0,0,0-.92.17,6.84,6.84,0,0,1-4.43-.5,16.92,16.92,0,0,0-5.46-1.32,6,6,0,0,1-3-1.21c-2.74-.66-5.57-1-8.35-1.59a15.08,15.08,0,0,1-4.25-.86A3.2,3.2,0,0,0,223,440c-2.79-.18-5.38-1.48-8.17-1.59-1,0-1-1.35-2-1.3-.39.35-.92.58-1,1.18Z"
              style="fill:#e4b57e"/>
        <path d="M229,423l1.3-1.16c3.73-.37,7.28.8,10.9,1.28,4.78.63,9.49,1.63,14.23,2.52a20.12,20.12,0,0,1,5.08.82c1,.21,2,.65,2.88-.16-.26-1.49-1.75-1.09-2.58-1.69a3.83,3.83,0,0,0-.58-.16c-1.23-.18-2.5-.48-3.75-.71a2.86,2.86,0,0,0-.58-.06,3.7,3.7,0,0,1-2.42-.63c-1-.38-2.11-.47-3.16-.77-5.93-.87-11.83-2-17.9-2.37-.4.07-.68.44-1.07.51l-3.9,3.47.17.3.34,0A1.32,1.32,0,0,0,229,423Z"
              style="fill:#c99f6e"/>
        <path d="M216.91,456.51c2.83,3.18,5.66,6.36,8.44,9.62.8.91,1.41,1,2.26.13,1.4-1.34,2.91-2.59,4.33-3.92-1.41-.55-2.86-.07-4.29-.11-.75.37-1.29.07-2-.41-1.84-1.32-3-3.36-4.92-4.58C219.43,457.54,218.36,456,216.91,456.51Z"
              style="fill:#8e6d49"/>
        <path d="M240.46,412.28l-1.28,1.14a.51.51,0,0,0,.38.43,57.89,57.89,0,0,1,7.7,1.84,62.13,62.13,0,0,1,6,1.7,15,15,0,0,0,3.44.68c1-.14,1.94.34,2.93.39.41,0,.9.06,1.09-.43s-.22-.63-.44-.88l-1.56-1.74c-3.06-.59-6-1.58-9.12-2.14a4.83,4.83,0,0,1-2.09-.9c-1.08.69-2.22.35-3.36.17A9.42,9.42,0,0,0,240.46,412.28Z"
              style="fill:#a3825e"/>
        <path d="M218,432.27a17.76,17.76,0,0,0-4,4,.43.43,0,0,0-.43.38c1.42,1.17,3.22,1.3,4.85,1.83a138.07,138.07,0,0,0,14,3.46c.68.16,1.42.39,2-.39-.78-1.45-2.69-1.5-3.67-2.75a57.46,57.46,0,0,0-12.6-2.9c-1.38-.12-2.23-.59-.75-1.9a4.22,4.22,0,0,0,.77-1,1,1,0,0,0,.05-.6Z"
              style="fill:#efc391"/>
        <path d="M238,449.42a.89.89,0,0,0-.91-.36c-1.41-.3-2.83-.63-4.27-.87-7.09-1.8-14.21-3.56-21.28-5.46-1.11-.29-3-.14-2.6-2.33l-1,.86c-.49,1.51.61,1.89,1.62,2.29a60.9,60.9,0,0,0,6.91,1.91c5.76,1.06,11.31,2.94,17,4.39,3,.77,5.95,1.81,9,2.48a7.36,7.36,0,0,0,.94-.15l.32-.3c.26-.57.1-.93-.54-1a10.44,10.44,0,0,1-1.82-.35h0C240.1,450.36,239.11,449.66,238,449.42Z"
              style="fill:#d3a777"/>
        <path d="M268.57,426.23l-1.74-2a14.06,14.06,0,0,0-5.14-1.51,4.17,4.17,0,0,1-3.05-1.76,63.06,63.06,0,0,0-11.88-2c-.75,0-1.57-.05-1.93.86.21,1,1.11,1,1.85,1.18,5,1.3,10.23,1.85,15.09,3.81,1.69.7,3.54.93,5.26,1.57C267.56,426.61,268.12,426.81,268.57,426.23Z"
              style="fill:#bb956a"/>
        <path d="M216.91,456.51c1.23.17,2,1.93,3.55.9a2.48,2.48,0,0,0-.76-2.45,10.43,10.43,0,0,1-6.81-4.45l-1.64-1.85-1.67-1.87-1.19-1.34a22.3,22.3,0,0,0-1.72-1.8,1.79,1.79,0,0,0-1-.41c-.29.63.21.89.55,1.28C209.8,448.54,213.36,452.52,216.91,456.51Z"
              style="fill:#967652"/>
        <path d="M249.59,413.27c2.82,1.29,5.65,2.53,8.86,2.15-.34-1.06-1.29-1.64-1.92-2.47-2.2-.67-4.4-1.58-6.55.14Z"
              style="fill:#9f805c"/>
        <path d="M205.72,443.27l.53.59a5.77,5.77,0,0,0,3.66,1.24,33.86,33.86,0,0,1,5.48.9c.65.15,1.39.59,1.87-.3a.67.67,0,0,0-.67-.62c-2.28-.69-4.51-1.46-6.84-2a2.09,2.09,0,0,1-1.84-1.81Z"
              style="fill:#c99f6f"/>
        <path d="M247,406.46c-1,1.45-.55,2.25,1.49,2.33,1.61.07,2.82.45,3.13,2.23.94.09,2,.58,2.56-.73a17.42,17.42,0,0,0-1.34-1.51l-1.54-1.72A11.61,11.61,0,0,0,247,406.46Z"
              style="fill:#91724d"/>
        <path d="M243.35,452.18h-.61a2,2,0,0,0-1.29.42l-1.27,1.13-1.72,1.54c-1.15,1.74-3.12.78-4.61,1.41a7.5,7.5,0,0,0-2.06,2.62c.41,1.36,1.44,1.16,2.47,1Z"
              style="fill:#a1825d"/>
        <path d="M258.42,421.28a2.72,2.72,0,0,0,2.56,1.87c2,.28,3.88.76,5.85,1.13l-2.58-2.9c-1.34.12-2.63-.43-4-.45C259.67,421.07,258.93,420.55,258.42,421.28Z"
              style="fill:#b99469"/>
        <path d="M263.39,426.2c-2.14.39-4-.75-6.09-1a4.83,4.83,0,0,0-1.89-.09c.93,1.62,2.8.89,4.09,1.6,3.26.82,6.53,1.6,9.83,2.24l.65-.58A6.63,6.63,0,0,0,263.39,426.2Z"
              style="fill:#cda372"/>
        <path d="M256.13,412.82l4.51,5.05c-1.62.44-2.85-1.08-4.17-.1,1.56,1.94,3.48,3,6,2.34.15-.77-.8-1-.87-1.66l-7-7.83a.43.43,0,0,0-.37.47.19.19,0,0,0,0,.07A2.3,2.3,0,0,0,256.13,412.82Z"
              style="fill:#a88761"/>
        <path d="M234.23,460.3l-2.41-.73c-2.11-.15-3.06,1.26-3.84,2.9a5.74,5.74,0,0,0,4-.13Z"
              style="fill:#8f704c"/>
        <path d="M263.39,426.2c2.33.32,4.67.67,6.61,2.19.16-1.14-.91-1.47-1.43-2.16l-6.63-1.67c-.54,0-1.14-.5-1.56.23C261.18,425.72,262.54,425.39,263.39,426.2Z"
              style="fill:#c49b6e"/>
        <path d="M240.46,412.28a27.5,27.5,0,0,0,5.9,1.08c.78.07,1.26-.05,1.1-1-.28-.33-.52-.71-.79-1.06a12.21,12.21,0,0,0-5.57.36Z"
              style="fill:#9e7e5b"/>
        <path d="M256.13,412.82l-1.73-1.95c0-.16,0-.27-.11-.31s-.16-.05-.19,0c-.81.3-1.79-.22-2.52.48a4.16,4.16,0,0,1-1.6,2.07,4.89,4.89,0,0,1,3.86-.23A3.4,3.4,0,0,0,256.13,412.82Z"
              style="fill:#9c7b57"/>
        <path d="M269.34,429c-3-1.7-6.45-1.55-9.69-2.36a.27.27,0,0,0-.32.2.14.14,0,0,0,0,.09l9.36,2.65Z"
              style="fill:#d3ab7d"/>
        <path d="M241.13,411.68c1.87,0,3.75.32,5.57-.36.09-.56.35-1.18-.54-1.33a3.7,3.7,0,0,0-3.73.51Z"
              style="fill:#9c7c57"/>
        <path d="M247,406.46c1.27.55,2.53,1.14,3.95.5a1,1,0,0,0,0-.57C249.22,404.31,249.22,404.31,247,406.46Z"
              style="fill:#8f6f4b"/>
        <path d="M261.64,418.45c-.09.73.53,1,.87,1.52,0,1-.62.3-1,.32-.72,0-1.58-.84-2.15.32a1,1,0,0,0,.87.77c1.33-.23,2.65,1.28,4,0Z"
              style="fill:#ae8c64"/>
        <path d="M239.42,413.7l-.25-.28-7.83,7,.91-.32a3.56,3.56,0,0,0,2-1c.75-.67,1.53-1.3,2.25-2,.56-.5,1.15-1,1.69-1.5S239.4,414.57,239.42,413.7Z"
              style="fill:#9e7e5b"/>
        <path d="M242.43,410.5c1.19-.56,2.51-.14,3.73-.51C244.59,407.78,243.54,409.4,242.43,410.5Z"
              style="fill:#977754"/>
        <path d="M249.06,411.87a1.17,1.17,0,0,0,1.32-.39c.31-.46.36-1-.2-1.26-.26-.14-.94-.49-.91-.11C249.34,410.76,248.55,411.26,249.06,411.87Z"
              style="fill:#f1eff0"/>
        <path d="M241.31,450.52c.5,1,2.1,0,2.36,1.32l1.28-1.15A10.36,10.36,0,0,0,241.31,450.52Z"
              style="fill:#d8ad7c"/>
        <path d="M223.79,427.62l.67-.6c0-.15,0-.24-.08-.26s-.14,0-.18,0L220.61,430a.46.46,0,0,0,.57.32h0C222.43,429.73,223.51,429.06,223.79,427.62Z"
              style="fill:#efc390"/>
        <path d="M224.19,426.77l.24.27.31-.28a3.48,3.48,0,0,0,1.73-.74c.57-.56,1.23-1,1.2-1.88l-.23-.26Z"
              style="fill:#daaf7f"/>
        <path d="M220.86,430.22l-.23-.27L218,432.27l.24.27c1.18,0,1.81-.79,2.44-1.59A1.35,1.35,0,0,0,220.86,430.22Z"
              style="fill:#f5cb98"/>
        <path d="M213.71,436.6l.36-.32c-1.25,0-1.74,1.15-2.54,1.81l.24.27,1.3-1.16a.57.57,0,0,0,.63-.51A.28.28,0,0,0,213.71,436.6Z"
              style="fill:#dfb280"/>
        <path d="M250.94,406.39l0,.57,1.74,2c.22.07.31,0,.28-.25Z" style="fill:#9a7954"/>
        <path d="M253,408.66l-.28.25,1.44,1.62.3.34.28-.25C254.1,410,253.52,409.32,253,408.66Z"
              style="fill:#9f7e57"/>
        <path d="M232.8,448.18a7.71,7.71,0,0,0,4.27.86A6.21,6.21,0,0,0,232.8,448.18Z" style="fill:#d8ad7c"/>
        <path d="M238,449.42a4.7,4.7,0,0,0,3.33,1.11A4.74,4.74,0,0,0,238,449.42Z" style="fill:#d8ad7c"/>
        <path d="M227.7,424.12l-1.64,1.46c.8,1.11,2.09.9,3.16,1,8.5,1.13,16.67,3.72,24.95,5.77.78.18,1.58.24,2.33.49a17.11,17.11,0,0,1,6.08,1.59l2.27-2c0-.77-.64-.85-1.22-1.05a236.38,236.38,0,0,0-34-7.44,8.06,8.06,0,0,0-2,.21Z"
              style="fill:#ebc08e"/>
        <path d="M227.7,424.13A252.77,252.77,0,0,1,256.65,430c2.79.73,5.48,1.65,8.22,2.48l.64-.57c1.34-1,1.2-1.68-.43-2-2.18-.45-4.37-.9-6.54-1.33-5.8-1.07-11.52-2.51-17.35-3.22-3.14-.41-6.21-1-9.33-1.33a4.76,4.76,0,0,1-2.81-1Z"
              style="fill:#dfb382"/>
        <path d="M259.33,426.88l.32-.28c-1.24-1-3-.38-4.23-1.48-3.26-.59-6.49-1.26-9.76-1.78-4.35-.68-8.71-1.26-13.06-1.85a2.57,2.57,0,0,0-2.29.33C240.08,423.09,249.68,425.11,259.33,426.88Z"
              style="fill:#d4a977"/>
        <path d="M220.86,430.22l-.33.29c2,1.41,4.49,1.43,6.77,1.83a241.93,241.93,0,0,1,26.91,6.16,11.9,11.9,0,0,0,3.19.59l2-1.73c-1.18-2.37-3.74-2.1-5.75-2.85a25.54,25.54,0,0,0-2.7-.71L232,429.48l-8.2-1.86Z"
              style="fill:#f7d1a3"/>
        <path d="M257.38,439.12c-2.84-1.44-6-1.91-9-2.8-8.21-2.42-16.73-3.48-25.09-5.32-.91-.2-1.84-.31-2.76-.47l-2.26,2c.42.89,1.33.78,2.06.95,11,2.51,22,4.78,32.85,7.57a4.24,4.24,0,0,0,1.94.08Z"
              style="fill:#fad3a7"/>
        <path d="M255.11,441.14c-5.38-1.63-10.89-2.82-16.42-4-6.83-1.5-13.64-3-20.46-4.58l-.94.84c.57,1.19,1.78,1.13,2.78,1.36,2.88.65,5.74,1.4,8.54,2.28,7,2.22,14.23,3.93,21.26,6.24a7.19,7.19,0,0,0,2.34.44Z"
              style="fill:#facf9e"/>
        <path d="M252.18,443.75c-3.33-1.62-7-2.38-10.45-3.45-4.83-1.48-9.7-2.85-14.54-4.29-3.25-1-6.57-1.81-9.89-2.61-.5.65-1.78,1-1.51,1.92s1.48,1,2.41,1.07c4.23.27,8.26,1.62,12.32,2.71,3.7,1.56,7.79,1.95,11.43,3.75a7.17,7.17,0,0,1,1.27.77c2.06.82,4.1,1.71,6.43,1.2A3.2,3.2,0,0,0,252.18,443.75Z"
              style="fill:#f5cb98"/>
        <path d="M256.51,432.9a14.28,14.28,0,0,0-4-1.56c-8.77-2.14-17.44-4.66-26.45-5.75l-1.3,1.16c4.33.81,8.66,1.54,12.93,2.49s8.29,1.94,12.38,3.07A22.46,22.46,0,0,0,256.51,432.9Z"
              style="fill:#efc390"/>
        <path d="M250.9,433.8c1.88,1.05,4,1.43,6,2.18a20,20,0,0,1,2.43,1.37l1.55-1.37A43,43,0,0,0,250.9,433.8Z"
              style="fill:#f2cb9d"/>
        <path d="M249.65,444.85c-2-.54-4.16-.67-6.08-1.59l-3.09-.92c-.74-.2-1.53-.51-2.19.28a1,1,0,0,0,.22.58,61.16,61.16,0,0,0,11.06,2.87l.65-.57Z"
              style="fill:#efbf8a"/>
        <path d="M238.64,443l-.28-.32c-1-1.62-2.53-1.15-4-1.15-2.17.14-4.21-.69-6.31-1.08-3.21-.61-6.37-1.52-9.55-2.3-.06,1.13.83,1.41,1.65,1.59s1.89.56,2.86.81l.62,0a28.08,28.08,0,0,1,4.25.86,37.88,37.88,0,0,0,8.27,1.42C237,442.9,237.77,443.85,238.64,443Z"
              style="fill:#edbd88"/>
        <path d="M223,440.53c-1.26-1.25-3.44-.78-4.49-2.42l-4.84-1.51-.66.58c0,1.14.32,1.86,1.75,1.83C217.63,439,220.2,440.55,223,440.53Z"
              style="fill:#e9ba86"/>
        <path d="M238.64,443c-.82,0-1.61-.49-2.45-.13.28.32.55.8.91.89,3.93,1,7.85,1.91,11.77,2.82.19,0,.47-.31.67-.45C246.05,444.55,242.24,444.19,238.64,443Z"
              style="fill:#edbe86"/>
        <path d="M227.92,441.42a5.32,5.32,0,0,0-4.28-.87A7.86,7.86,0,0,0,227.92,441.42Z"
              style="fill:#e9ba86"/>
        <path d="M260.38,424.79l1.56-.23c-3.62-2.07-7.8-2.21-11.68-3.28-1.77-.49-3.68-.52-5.34-1.4-.08-.35-.35-.4-.64-.43a4.3,4.3,0,0,1-2.17-.52c-1.13-.24-2.32-.07-3.47-.28-.71-.14-1.47-.13-1.81.75.24,1.06,1.13.9,1.89,1,3.85.73,7.81,1.07,11.61,2.22l3,.78a16,16,0,0,0,2.75.48h0c1.44.2,2.86.51,4.27.85Z"
              style="fill:#bf986c"/>
        <path d="M250.32,422.67c-1.67-1.58-3.94-1.06-5.88-1.71-2.43-.81-5.11-.5-7.52-1.54-.78-1.14-2-.64-3-.79l-1.63,1.45Q241.29,421.36,250.32,422.67Z"
              style="fill:#c1996b"/>
        <path d="M260.38,424.79a6.11,6.11,0,0,0-4.27-.86A7.89,7.89,0,0,0,260.38,424.79Z"
              style="fill:#c49b6e"/>
        <path d="M256.11,423.93c-.82-.76-1.76-.58-2.76-.47C254.18,424.07,255,424.7,256.11,423.93Z"
              style="fill:#c49b6e"/>
        <path d="M228,462.46c1.29-1,2.21-2.4,3.85-2.9A12.49,12.49,0,0,0,234,457c1.3-2.16-.31-3.32-1.56-4.6a4.37,4.37,0,0,0-2.66-.67,3,3,0,0,0-1.27.32,2.75,2.75,0,0,1-3.68.47,3.48,3.48,0,0,0-2.31-.32,3.55,3.55,0,0,0-1.83.84,2.34,2.34,0,0,0-1,2.18,3.34,3.34,0,0,0,.69,2.26c1.8,1.82,3.64,3.62,5.41,5.49C226.89,464,227.31,462.72,228,462.46Z"
              style="fill:#463633"/>
        <path d="M239.42,413.7l-1.63,1.45c.05.82.72.81,1.26.85,2.93.22,5.78,1.11,8.74,1a21.42,21.42,0,0,1,3.48.38c.74.15,1.59.45,2.17-.42-2.9-.84-5.84-1.74-8.77-2.44a16,16,0,0,1-3-1A2,2,0,0,0,239.42,413.7Z"
              style="fill:#a6855f"/>
        <path d="M253.42,417c-1.87.44-3.65-.85-5.53-.32.75,1.47,2.19,1.78,3.55,2.11,2.54.62,5.1,1.11,7.65,1.67l.31,0c1-.23,1.89.34,2.84.5.29,0,.75.32.75-.27,0-.22-.31-.44-.47-.65-2.32.1-4.12-1.21-6-2.21Z"
              style="fill:#aa8862"/>
        <path d="M234.4,441.5c1.18.88,2.82.17,4,1.15,1.81-.47,3.39,1.08,5.21.61-2.25-1.74-5-2.33-7.64-3-1.77-.45-3.49-1.26-5.39-1.14A17.69,17.69,0,0,0,234.4,441.5Z"
              style="fill:#f3c693"/>
        <path d="M241.72,453l1-.8a90.76,90.76,0,0,0-11.11-3.36c-4.27-1.25-8.6-2.33-12.89-3.51a3.69,3.69,0,0,0-2.15-.23l.58.65c2.22,1.68,5,1.93,7.52,2.6,4.28,1.13,8.27,3.06,12.58,4C238.74,452.72,240.14,453.53,241.72,453Z"
              style="fill:#cca06e"/>
        <path d="M260.27,421.38l-.87-1h0c-6.2-1.3-12.32-3-18.63-3.76-.69-.08-1.43-.4-1.93.46,1.47,2,3.81,1.61,5.84,2.06a19.85,19.85,0,0,1,2.12.19l11.62,1.91Z"
              style="fill:#b49168"/>
        <path d="M246.79,419.38c-1.72-1-3.75-.68-5.55-1.32a6.05,6.05,0,0,1-2.34-1c-.78-1-1.81-.47-2.75-.47l-2.26,2c.82.92,2.07.29,3,.79,1.75-.81,3.49.3,5.25,0a14.23,14.23,0,0,1,2.14.43l.61,0C245.47,419.36,246.19,419.6,246.79,419.38Z"
              style="fill:#b99469"/>
        <path d="M229.81,452l2.2.37c.37.13.62.52,1,.62,2.14.72,4.14,1.91,6.48,2l1-.86c-1.13-2-3.36-1.86-5.08-2.4-3.58-1.1-7.14-2.37-10.74-3.41-4.91-1.4-9.84-2.54-14.81-3.63l-3.59-.83L208,445.8a71.87,71.87,0,0,0,10,2.91C221.92,449.73,225.79,451.13,229.81,452Z"
              style="fill:#bb956a"/>
        <path d="M222.65,452.54c.77,0,1.65-.09,2.23.47,1.72,1.67,2.8.44,4-.74a6,6,0,0,0-3.05-1.41c-4.87-1.48-9.85-2.57-14.7-4.09-.67-.21-1.42-.4-2,.34l1.73,1.95C214.73,450.39,218.82,451,222.65,452.54Z"
              style="fill:#ae8c64"/>
        <path d="M209.11,447.11c1.79-.4,3.36.61,5,1,4.94,1.28,9.82,2.75,14.73,4.13l1-.22c-2.31-1.76-5.23-1.94-7.86-2.81-4.19-1.46-8.57-2.36-12.88-3.47a3.76,3.76,0,0,0-1.06,0C208.35,446.23,208.76,446.7,209.11,447.11Z"
              style="fill:#b49167"/>
        <path d="M219.75,455.17l1.25-1.82a.93.93,0,0,0-.45-.93c-2.54-1.15-5.14-2.16-8-1.37C214.38,453.47,216.45,455.39,219.75,455.17Z"
              style="fill:#a1825d"/>
        <path d="M212.56,451c2.94.37,6,.36,8.46,2.3l1.63-.79c-1.31-1.47-3.15-1.55-4.87-2-2.29-.63-4.53-1.48-6.95-1.44C211.39,449.7,212,450.37,212.56,451Z"
              style="fill:#a6855f"/>
        <path d="M209.82,444.68c2.7,1.22,5.62,1.68,8.44,2.43,5,1.33,10,2.83,14.88,4.43,2.44.8,4.87,1.62,7.26,2.56l1.29-1.15a115.47,115.47,0,0,1-13-4,66.81,66.81,0,0,0-8.09-2.23c-1.19-.26-2.08-1.44-3.45-1C214.73,445.66,212.38,444.36,209.82,444.68Z"
              style="fill:#c29a6c"/>
        <path d="M232.83,452.81l-.84-.39c1.16,1.3,2.52,2.51,2,4.53,1.66-.18,3.63.72,4.77-1.34a1.48,1.48,0,0,0-1.29-.94A14.08,14.08,0,0,1,232.83,452.81Z"
              style="fill:#ad8c64"/>
        <path d="M232.83,452.81c1.31,2.39,4,1.8,6,2.8l.66-.6A24.27,24.27,0,0,0,232.83,452.81Z"
              style="fill:#b49068"/>
        <path d="M236.16,416.6c.85.6,1.86.19,2.75.47a103.32,103.32,0,0,1,13.33,2.13c2.37.48,4.66,1.47,7.16,1.21-1.6-1.44-3.73-1.18-5.61-1.63a21.68,21.68,0,0,1-5.9-2.12l-10.1-1.51Z"
              style="fill:#ae8c64"/>
        <path d="M244.31,419.84c-.65-.49-1.27-1-2.14-.43A2,2,0,0,0,244.31,419.84Z" style="fill:#bb956a"/>
        <path d="M230,459.48c.7-.63,1.45-1.21,2.11-1.88,1-1.06,1.26-2.19.19-3.39a2.48,2.48,0,0,0-3.43-.75,1.77,1.77,0,0,0-.24.17,7.5,7.5,0,0,0-1.3,1.16c-.53.54-1,.71-1.56,0a3.77,3.77,0,0,0-1.62-1,2.62,2.62,0,0,0-2.94.8,2.09,2.09,0,0,0,.44,2.76c1.43,1.42,2.9,2.78,4.34,4.22.63.63,1.15.4,1.69-.08l2.28-2Z"
              style="fill:#e20e18"/>
        <path d="M242.84,402.33c1,1.13,2.1,2.19,1.1,4.85l-.07-.07,0,.14a5,5,0,0,1,.58.55l.71.79.34.38.31-.1a2,2,0,0,1,0-1.86,5.6,5.6,0,0,0-.8-5.87c-3.58-4.33-3.43-6.74,1-13.28a6.14,6.14,0,0,0-4.61,4.45C240,396.55,240.6,399.89,242.84,402.33Z"
              style="fill:#453532"/>
    </g>
</svg>