<svg xmlns="http://www.w3.org/2000/svg" viewBox="0 0 86.43 60.65"><g id="Ebene_2" data-name="Ebene 2"><g id="Ebene_1-2" data-name="Ebene 1"><path d="M0,25.68V52.91a.63.63,0,0,0,.88-.29A153,153,0,0,0,.89,26,.64.64,0,0,0,0,25.68Z" style="fill:#cec9c9"/><path d="M0,25.68H.45a6.63,6.63,0,0,0,0-7.1.7.7,0,0,0-.45,0Z" style="fill:#d4d0d0"/><path d="M.45,52.91c-.15,0-.3,0-.45,0v6.54l.22.06.23,0A5.73,5.73,0,0,0,.45,52.91Z" style="fill:#d1cdcd"/><path d="M75.34,17.49c-1.08.1-2.18,0-3.26,0a2.66,2.66,0,0,1-1.67-.36h-.06a2.66,2.66,0,0,1-.93.17,2.73,2.73,0,0,1-.73-.11,2.23,2.23,0,0,1-.7.12,1.53,1.53,0,0,1,.11.16H65q-30.89,0-61.77,0c-1,0-2.49-.83-2.81,1.09v40.9c.25,1.29,1.26,1.06,2.14,1.06q36.33,0,72.66.12c2,0,2.51-.87,2.52-2.52q.08-19.17.13-38.35C77.9,18.07,77.07,17.33,75.34,17.49Z" style="fill:#443532"/><path d="M12.53,19.24H8.15c-1.43.24-1.73,1.11-1.3,2.37a11.93,11.93,0,0,0,1.4,2.64c5.05,7.42,10,14.93,15.22,22.21a17.82,17.82,0,0,1,3.34,4.29c.23.43.46.85.7,1.26a20.7,20.7,0,0,1,1.94,3.43,4.33,4.33,0,0,0,.41.61,9.83,9.83,0,0,0,3.36,2.78H35.4c.4-1.14-.3-2-.94-2.66-3.84-4.25-6.37-9.39-9.55-14.09-3.78-5.58-7.3-11.33-10.61-17.2-.72-1.27-2-2.07-2.76-3.33-.31-.54-.4-1,.31-1.3a3,3,0,0,0,.63-.35.53.53,0,0,0,.15-.43C12.6,19.31,12.57,19.24,12.53,19.24Z" style="fill:#dcb07f"/><path d="M61,58.81H73c-.42-2.63-2.25-4.54-3.51-6.73-.75-1.31-1.85-2.4-2.61-3.71-6.5-9.23-13.6-18-20.72-26.73a6.12,6.12,0,0,0-2.71-2.18,7.15,7.15,0,0,0-2,.05c-1,1.43.09,2.41.87,3.31,5.55,6.41,11,12.93,16,19.74,3.18,4.28,6.3,8.59,9.61,12.76.43.55,1.18,1.18.86,1.88-.42.93-1.45.31-2.21.44-1.14,0-2.28,0-3.43,0C62.35,57.8,61.26,57.53,61,58.81Z" style="fill:#daaf7f"/><path d="M61,58.81c.61-.67,1.43-.38,2.17-.46.71-2-1.15-3-1.87-4.48a7.19,7.19,0,0,0-2-2.52c-3.44-2.63-5.78-6.2-8.12-9.75-4.64-7-9.66-13.78-15-20.32a4.8,4.8,0,0,0-1.72-1.69,1.82,1.82,0,0,0-.76-.16,1.76,1.76,0,0,0-1.14.22c.72,3,2.8,5.21,4.58,7.53,5.28,6.89,10,14.17,15.28,21.06A65.6,65.6,0,0,1,59,57.47c-.62.39-1.17.13-1.7.18-1,0-2,0-3,0-1.2,0-2.4,0-3.59,0-1.48.06-2.95,0-4.42,0-1.26.21-2.4-.43-3.62-.5a1,1,0,0,0-.56,1,1.25,1.25,0,0,0,.37.72Z" style="fill:#efc391"/><path d="M12,19.69c-1.55-.16-2.4.22-1.24,1.83a65.29,65.29,0,0,1,4.62,6.59c1.1,2,2.74,3.75,3.26,6.16.35,1.62,2.09,2.33,2.94,3.78,3.28,5.55,6.76,11,10.35,16.34,1,1.54,2.75,2.61,3.48,4.43h2.17C32.07,51.09,28.73,42.09,23,34.49,19.3,29.58,15.39,24.82,12,19.69Z" style="fill:#dfb27f"/><path d="M12,19.69c-.68,1.8,1,2.56,1.78,3.58C18.83,30,24.07,36.66,28.33,44c2.44,4.17,4.3,8.66,7,12.7a5.7,5.7,0,0,0,2.25,2.14H42.5c0-.15,0-.31,0-.46a2.5,2.5,0,0,0-1-.61,8.52,8.52,0,0,1-3.72-4.15,21.34,21.34,0,0,0-4-5.77A7.48,7.48,0,0,1,32,44.25c-2-2.9-4.32-5.62-6.47-8.43a18.82,18.82,0,0,1-3.25-4.33,3.89,3.89,0,0,0-.68-.89c-2.45-2.49-3.78-5.85-6.3-8.27-.91-.88.15-2.13-.8-2.89-.65,0-1.34-.22-1.93.25Z" style="fill:#e5b57e"/><path d="M41.4,19.69h2.18c3.79,2.75,6.13,6.8,9.11,10.26,3.94,4.56,7.5,9.41,11.19,14.17,1.74,1.37,2.76,3.31,4.06,5,.74,1,1.29,2.23,2.82,2.24,1-1.61-.73-2.47-1-3.72a5.23,5.23,0,0,0-.41-.63c-1-1.2-1.94-2.53-2.91-3.79a3.6,3.6,0,0,0-.5-.53,4.69,4.69,0,0,1-1.73-2.6c-.64-1.21-1.58-2.2-2.31-3.35C57.09,31,52.55,25,47.16,19.65c-.43-.27-1-.16-1.42-.42H39.22l-.1.42.3.3A1.65,1.65,0,0,0,41.4,19.69Z" style="fill:#c99f6e"/><path d="M2.24,40.94c0,5.32,0,10.64-.12,16,0,1.51.47,2.12,2,2,2.43-.09,4.87,0,7.3-.06-.86-1.69-2.61-2.45-3.91-3.68-1-.27-1.26-1-1.48-2-.62-2.76,0-5.62-.79-8.36C3.74,44,4,41.68,2.24,40.94Z" style="fill:#8c6c48"/><path d="M61,19.23H58.85a.63.63,0,0,0,0,.71,73.34,73.34,0,0,1,5.66,8.13,77.67,77.67,0,0,1,4.19,6.57,18.73,18.73,0,0,0,2.64,3.49c1.06.71,1.53,1.93,2.41,2.8.37.36.79.81,1.37.51s.32-.77.32-1.19c0-1,0-2,0-2.92-2.37-3.1-4.33-6.49-6.73-9.58a6,6,0,0,1-1.21-2.58c-1.59-.25-2.36-1.52-3.28-2.63S62.45,20,61,19.23Z" style="fill:#a3825e"/><path d="M23.43,19.23a22.37,22.37,0,0,0-7,.43.55.55,0,0,0-.71,0c.35,2.27,1.92,3.89,3,5.74,3,5.26,6.7,10,10.22,14.9.51.71,1,1.54,2.15,1.26.48-2-1.26-3.64-1.13-5.62a72.07,72.07,0,0,0-9.36-13.18c-1.18-1.26-1.59-2.4.88-2.4A4.85,4.85,0,0,0,23,20.1a1.18,1.18,0,0,0,.55-.51Z" style="fill:#efc391"/><path d="M27.79,51.82a1.12,1.12,0,0,0-.55-1.09c-1.07-1.46-2.12-2.94-3.27-4.36-5.12-7.58-10.3-15.14-15.33-22.79-.79-1.2-2.7-2.65-.49-4.34H6.53c-1.71,1-1,2.27-.38,3.48A77.38,77.38,0,0,0,11,30.25c4.5,5.78,8.12,12.15,12.2,18.21,2.17,3.22,4.05,6.63,6.32,9.78a7.77,7.77,0,0,0,1,.63l.55,0c.71-.32.86-.79.34-1.4A12.4,12.4,0,0,1,30,55.63h0C29,54.48,28.66,53,27.79,51.82Z" style="fill:#d3a776"/><path d="M75.64,55.62V52.35a17.56,17.56,0,0,0-3.55-5.68,5.25,5.25,0,0,1-1.39-4.18,77.77,77.77,0,0,0-9.41-11.76c-.73-.59-1.42-1.35-2.51-.8-.66,1.14.22,1.84.75,2.64,3.6,5.39,8,10.23,10.91,16.1,1,2.06,2.54,3.81,3.61,5.84C74.38,55.13,74.73,55.79,75.64,55.62Z" style="fill:#bb956a"/><path d="M2.24,40.94c1,1.18.3,3.49,2.57,3.79a3.13,3.13,0,0,0,1.33-2.92C4.07,38.87,2.89,35.69,3.48,32c0-1,0-2.06,0-3.09s0-2.1,0-3.14c0-.75,0-1.49,0-2.24,0-1,0-2.07-.11-3.11a2.14,2.14,0,0,0-.57-1.19c-.79.34-.55,1-.55,1.64C2.23,27.59,2.24,34.26,2.24,40.94Z" style="fill:#957551"/><path d="M68.69,27.74c1.56,3.55,3.17,7.06,6.49,9.38.56-1.28.15-2.61.26-3.91-1.5-2.45-2.8-5.13-6.23-5.31Z" style="fill:#9f7f5b"/><path d="M2.8,19.27v1a7.33,7.33,0,0,0,2.39,4.2,41.85,41.85,0,0,1,4.37,5.39c.48.68.8,1.71,2,1.28A.85.85,0,0,0,11.44,30c-1.55-2.53-3-5.11-4.7-7.57a2.6,2.6,0,0,1-.21-3.22Z" style="fill:#c99f6f"/><path d="M71.91,19.21c-2.12.53-2.38,1.64-.55,3.41,1.45,1.4,2.26,2.76,1.07,4.68.8.87,1.38,2.2,3,1.45.09-.84,0-1.68,0-2.52s0-1.93,0-2.89A14.57,14.57,0,0,0,71.91,19.21Z" style="fill:#90714c"/><path d="M30.52,58.87l-.56-.5a2.42,2.42,0,0,0-1.56-.68c-.71,0-1.42,0-2.13,0H23.39c-2.52.68-3.57-1.86-5.48-2.51a9.31,9.31,0,0,0-4.1.74c-.75,1.6.38,2.28,1.45,3Z" style="fill:#a1815d"/><path d="M70.28,42.56c-.65,1.49-.2,2.67.83,3.88,1.61,1.89,3,3.93,4.53,5.91V47.5c-1.35-1-2.1-2.59-3.33-3.71C71.62,43.41,71.36,42.31,70.28,42.56Z" style="fill:#b89369"/><path d="M70.83,51.28c-2.33-1.41-3.14-4.05-4.85-6-.54-.59-.93-1.3-1.69-1.66-.47,2.29,1.87,3.16,2.49,4.9,2.36,3.47,4.77,6.92,7.31,10.26h1.09A8.3,8.3,0,0,0,70.83,51.28Z" style="fill:#cda373"/><path d="M75.18,32.76v8.46c-1.87-.93-1.76-3.38-3.81-3.56-.15,3.11.8,5.65,3.69,7.21.79-.6.08-1.59.58-2.27V29.5a.52.52,0,0,0-.77.21A2.88,2.88,0,0,0,75.18,32.76Z" style="fill:#a88761"/><path d="M15.26,58.87l-1.64-2.68c-1.85-1.89-3.91-1.36-6-.49a7.17,7.17,0,0,0,3.8,3.18Z" style="fill:#8e6f4b"/><path d="M70.83,51.28c1.91,2.24,3.8,4.51,4.35,7.54,1.09-.93.37-2.12.46-3.2l-4.81-7.07c-.49-.45-.64-1.41-1.64-1.09C69.16,49,70.71,49.82,70.83,51.28Z" style="fill:#c49b6e"/><path d="M61,19.23a34.1,34.1,0,0,0,4.6,5.91c.67.72,1.22,1,1.85,0,0-.54.1-1.09.14-1.64a15.21,15.21,0,0,0-5.5-4.3Z" style="fill:#9e7e5a"/><path d="M75.18,32.76V29.5c.16-.13.22-.25.16-.38s-.11-.18-.17-.18c-1-.39-1.48-1.69-2.75-1.64a5.31,5.31,0,0,1-3.22.6,6.1,6.1,0,0,1,3.8,3A4.27,4.27,0,0,0,75.18,32.76Z" style="fill:#9c7b57"/><path d="M74.09,58.81C72.7,54.72,69.36,52,67,48.55a.33.33,0,0,0-.54,0L73,58.81Z" style="fill:#d2aa7c"/><path d="M62.12,19.22c1.76,1.54,3.23,3.42,5.5,4.3.54-.45,1.3-.81.6-1.69a4.61,4.61,0,0,0-3.91-2.62Z" style="fill:#9b7b57"/><path d="M71.91,19.21c.73,1.57,1.41,3.17,3.27,3.74a1.15,1.15,0,0,0,.49-.51C75.79,19.07,75.79,19.07,71.91,19.21Z" style="fill:#8e6e4a"/><path d="M75.64,42.6c-.69.6-.38,1.41-.46,2.14-.85.92-.82-.24-1.16-.5-.71-.56-.78-2.1-2.27-1.49a1.22,1.22,0,0,0,.17,1.44c1.43.89,1.41,3.4,3.72,3.31Z" style="fill:#ae8b64"/><path d="M58.84,19.69c0-.16,0-.31,0-.47H45.74l1.11.45a4.44,4.44,0,0,0,2.71.75c1.25,0,2.51.06,3.76,0,.94,0,1.88.06,2.83,0S58.1,20.49,58.84,19.69Z" style="fill:#9e7e5a"/><path d="M64.31,19.21c1.58.46,2.47,1.95,3.91,2.62C68.59,18.46,66.27,19.1,64.31,19.21Z" style="fill:#967653"/><path d="M69.36,26a1.49,1.49,0,0,0,1.56.73c.67-.17,1.15-.62.86-1.34-.13-.35-.47-1.25-.76-.87C70.54,25.19,69.39,25,69.36,26Z" style="fill:#f1eff0"/><path d="M30,55.63c-.33,1.31,2,1.7,1.1,3.19h2.15A13,13,0,0,0,30,55.63Z" style="fill:#d7ac7b"/><path d="M32.68,19.69H33.8c.17-.11.22-.22.15-.31s-.12-.14-.19-.14h-6a.58.58,0,0,0,.3.79C29.66,20.53,31.22,20.8,32.68,19.69Z" style="fill:#efc390"/><path d="M33.76,19.23c0,.15,0,.3,0,.45h.52a4.36,4.36,0,0,0,2.23.74c1-.05,2,.07,2.69-.75,0-.14,0-.29,0-.44Z" style="fill:#daaf7f"/><path d="M27.79,19.68c0-.15,0-.3,0-.44H23.43c0,.15,0,.3,0,.45,1.08,1,2.34.76,3.6.54A1.69,1.69,0,0,0,27.79,19.68Z" style="fill:#f5ca98"/><path d="M15.8,19.69l.61,0c-1.2-1-2.58-.37-3.88-.42v.45h2.18A.72.72,0,0,0,15.8,19.69Z" style="fill:#dfb27f"/><path d="M75.67,22.44l-.49.51c0,1.09,0,2.18,0,3.28.15.24.31.23.47,0Z" style="fill:#997853"/><path d="M75.66,26.23h-.47c0,.91,0,1.82,0,2.72,0,.19,0,.37,0,.56h.46C75.65,28.41,75.65,27.32,75.66,26.23Z" style="fill:#9e7d57"/><path d="M24,46.37a9.7,9.7,0,0,0,3.27,4.36A7.77,7.77,0,0,0,24,46.37Z" style="fill:#d7ac7b"/><path d="M27.79,51.82c.39,1.46.8,2.91,2.18,3.81C29.57,54.17,29.16,52.72,27.79,51.82Z" style="fill:#d7ac7b"/><path d="M39.24,19.67l-2.74,0c-.18,1.7,1.2,2.58,2.08,3.6,7,8.12,12.47,17.33,18.5,26.13.57.82,1.27,1.53,1.76,2.4a21.47,21.47,0,0,1,4.36,6.53H67c.63-.74.11-1.34-.26-2A295,295,0,0,0,41.18,21.12a10.33,10.33,0,0,0-2-1.44Z" style="fill:#eac08e"/><path d="M39.23,19.68A314.89,314.89,0,0,1,61.4,49.2c2,3,3.74,6.1,5.61,9.15.36,0,.72,0,1.08,0,2.07.18,2.51-.57,1.27-2.24-1.66-2.23-3.33-4.47-5-6.68C59.84,43.61,55.69,37.51,50.84,32c-2.59-3-5-6.06-7.6-9a6,6,0,0,1-1.84-3.22Z" style="fill:#dfb382"/><path d="M66.47,48.55H67c-.33-1.95-2.51-2.88-2.72-4.9-2.54-3.26-5-6.57-7.63-9.77C53.16,29.63,49.57,25.46,46,21.3c-.63-.73-1.24-1.62-2.41-1.6C51.65,29,58.93,38.87,66.47,48.55Z" style="fill:#d3a877"/><path d="M27.79,19.68h-.55c.71,3,3,5.06,4.79,7.34,7.06,9.09,14,18.23,20,28.11a14.62,14.62,0,0,0,2.49,3.21h3.26c.86-3.19-1.75-5.07-3-7.44A31.85,31.85,0,0,0,52.85,48L38.79,28.24l-6.11-8.55Z" style="fill:#f6d0a3"/><path d="M54.48,58.35c-1.46-3.71-4-6.76-6.09-10.1-5.65-9.09-12.72-17.16-19-25.83-.68-.94-1.45-1.82-2.18-2.73H23.43c-.35,1.18.59,1.83,1.13,2.6C32.7,33.74,41.08,45,48.93,56.66a5.4,5.4,0,0,0,1.74,1.69Z" style="fill:#f9d3a7"/><path d="M50.67,58.35c-3.66-6-7.82-11.69-12-17.38-5.13-7.07-10.2-14.19-15.29-21.28H21.8c-.46,1.58.72,2.53,1.47,3.58,2.14,3,4.19,6.08,6.07,9.23C34.07,40.42,39.35,48,44,56a8.83,8.83,0,0,0,1.82,2.35Z" style="fill:#f9ce9d"/><path d="M45.77,58.35c-1.76-4.28-4.51-8-6.89-11.91-3.27-5.4-6.68-10.72-10-16.09-2.23-3.6-4.63-7.16-7.07-10.66-1,.19-2.46-.58-3,.54s.55,2.16,1.36,3C23.89,27,26.54,31.61,29.42,36c2.16,4.53,5.65,8.29,7.55,13a9.39,9.39,0,0,1,.55,1.78c1.24,2.48,2.4,5,5,6.47A4.05,4.05,0,0,0,45.77,58.35Z" style="fill:#f5ca98"/><path d="M58.84,51.82a17.9,17.9,0,0,0-2.43-4.77C50,37.76,44,28.19,36.5,19.69H34.32c3.36,4.36,6.8,8.64,10,13.08s6.12,8.7,9,13.16A28.32,28.32,0,0,0,58.84,51.82Z" style="fill:#efc390"/><path d="M52.85,48c.88,2.54,2.56,4.67,3.76,7a24.67,24.67,0,0,1,1.13,3.3h2.58C58,54.51,55.84,51,52.85,48Z" style="fill:#f2ca9d"/><path d="M42.5,57.27c-1.45-2.19-3.33-4.08-4.36-6.54-.71-1.14-1.4-2.29-2.12-3.42-.52-.81-1-1.75-2.27-1.56a1.26,1.26,0,0,0-.28.72,76.14,76.14,0,0,0,7.94,11.88h1.08C42.49,58,42.49,57.63,42.5,57.27Z" style="fill:#efbf89"/><path d="M33.78,46.37v-.54c.46-2.31-1.4-3.17-2.73-4.36-2.15-1.68-3.36-4.15-5-6.26-2.49-3.24-4.68-6.71-7-10.08-1,1-.4,2,.22,2.86s1.3,2.09,2,3.13l.54.55A34.92,34.92,0,0,1,25.06,36,47.18,47.18,0,0,0,31.6,44.2C32.31,44.94,32.24,46.46,33.78,46.37Z" style="fill:#edbd87"/><path d="M21.25,31.12c-.14-2.21-2.56-3.59-2.18-6L15.8,19.69H14.71c-.92,1.08-1.25,2,.11,3.16C17.51,25.15,18.58,28.77,21.25,31.12Z" style="fill:#e9ba85"/><path d="M33.78,46.37c-.8-.65-1.1-1.8-2.18-2.17,0,.54-.15,1.21.11,1.6Q36,52.06,40.36,58.21c.14.2.69.1,1,.14C39.38,54,36.13,50.49,33.78,46.37Z" style="fill:#edbd85"/><path d="M25.06,36c-.3-2-1.7-3.27-3.27-4.36A9.82,9.82,0,0,0,25.06,36Z" style="fill:#e9ba85"/><path d="M69.19,47.46l1.64,1.09C69.18,43.61,65.4,40,62.66,35.78c-1.24-1.93-3-3.55-3.82-5.75.22-.39,0-.66-.24-.94A5.35,5.35,0,0,1,57,26.81c-.85-1.17-2.1-2-3-3.14-.54-.73-1.26-1.35-2.31-.81-.66,1.18.3,1.78.89,2.54,3,3.88,6.41,7.49,9,11.72l2.18,3.26a19.77,19.77,0,0,0,2.18,2.73h0c1.17,1.39,2.24,2.86,3.27,4.35Z" style="fill:#bf976b"/><path d="M61.56,37.12c-.24-2.86-2.8-4.26-4.07-6.48-1.59-2.78-4.35-4.72-5.73-7.69.21-1.71-1.34-2.25-2.18-3.26H46.85Q54.22,28.39,61.56,37.12Z" style="fill:#c1996b"/><path d="M69.19,47.46a7.67,7.67,0,0,0-3.27-4.35A9.74,9.74,0,0,0,69.19,47.46Z" style="fill:#c49b6e"/><path d="M65.92,43.11c-.13-1.39-1.16-2-2.18-2.73C64,41.64,64.27,42.94,65.92,43.11Z" style="fill:#c49b6e"/><path d="M7.63,55.7c2,.17,4.06-.41,6,.49,1.47.2,2.82-.42,4.23-.61,3-.93,2.47-3.35,2.36-5.59a5.4,5.4,0,0,0-1.92-2.83,3.72,3.72,0,0,0-1.46-.76c-1.89,0-3.25-.62-3.82-2.62a4.3,4.3,0,0,0-1.89-2.22,4.41,4.41,0,0,0-2.41-.74A2.92,2.92,0,0,0,6,42.05a4.18,4.18,0,0,0-1.23,2.68c.17,3.2.39,6.41.49,9.62C5.35,56.21,6.78,55.38,7.63,55.7Z" style="fill:#453633"/><path d="M58.84,19.69H56.11c-.63.81,0,1.35.48,1.84,2.55,2.64,4.47,5.84,7.3,8.23A27,27,0,0,1,66.82,33c.57.76,1.11,1.74,2.37,1.42-2-3.2-4-6.49-6.15-9.57a19.88,19.88,0,0,1-2-3.41A2.5,2.5,0,0,0,58.84,19.69Z" style="fill:#a6855f"/><path d="M69.19,34.39c-2.12-1.14-2.7-3.83-4.9-4.9-.52,2,.56,3.48,1.56,4.93,1.85,2.68,3.83,5.27,5.75,7.91l.32.23c1.14.63,1.48,1.89,2.23,2.83.23.29.43.92.92.37.18-.21.08-.67.11-1-2.26-1.83-2.85-4.55-3.81-7.08Z" style="fill:#aa8862"/><path d="M31.05,41.47c.36,1.8,2.48,2.5,2.73,4.36,2.08,1.07,2.27,3.83,4.36,4.9-.65-3.49-2.72-6.32-4.63-9.15-1.28-1.89-2.22-4.08-4.09-5.55C29.55,38,30.46,39.67,31.05,41.47Z" style="fill:#f3c693"/><path d="M28.33,58.27l1.63.1C27.89,54,25,50.09,22.38,46c-2.95-4.72-6.1-9.33-9.12-14A4.73,4.73,0,0,0,11.44,30v1.09c.68,3.41,3.06,5.95,4.87,8.68,3.05,4.61,5.17,9.74,8.37,14.23C25.77,55.55,26.4,57.47,28.33,58.27Z" style="fill:#cca06e"/><path d="M71.92,44.19V42.56h0c-4.71-6.36-9-13.06-14.27-19-.58-.64-1-1.55-2.19-1.17-.31,3.11,2.23,4.67,3.74,6.78.5.69,1.37,1.14,1.82,1.94l9.26,11.44Z" style="fill:#b49068"/><path d="M61,31.12c-.8-2.34-2.93-3.75-4.08-5.85-.51-.93-1.28-1.73-1.37-2.86.07-1.54-1.3-1.94-2.18-2.72H49.58c0,1.55,1.69,2,2.18,3.26,2.3.7,3,3.18,4.9,4.36a16.57,16.57,0,0,1,1.64,2.18l.54.54C59.79,30,60.26,30.82,61,31.12Z" style="fill:#b89369"/><path d="M18,47.48l1.75,2.18c.24.43.15,1,.4,1.39,1.4,2.45,2.28,5.22,4.42,7.22l1.63,0c.57-2.76-1.59-4.52-2.75-6.46-2.42-4-4.69-8.14-7.19-12.11C12.84,34.31,9.19,29.15,5.45,24L2.8,20.24c0,1.09,0,2.18,0,3.27,1.87,3.93,4.48,7.4,6.88,11C12.55,38.77,15,43.3,18,47.48Z" style="fill:#bb956a"/><path d="M10.9,42c.69.67,1.62,1.29,1.69,2.29.22,3,2.25,2.75,4.3,2.6,0-1.53-.94-2.67-1.67-3.85C11.9,37.61,8.16,32.45,4.9,27c-.45-.75-1-1.56-2.12-1.31l0,3.26C5.29,33.41,8.59,37.4,10.9,42Z" style="fill:#ae8b64"/><path d="M2.78,25.68c2,1.12,2.62,3.36,3.79,5.11,3.55,5.3,6.89,10.73,10.32,16.1l1.08.59c-.69-3.56-3.27-6.15-5-9.16C10.27,33.48,6.93,29,3.83,24.38a4.61,4.61,0,0,0-1-.87C2.8,24.23,2.79,25,2.78,25.68Z" style="fill:#b49067"/><path d="M6,42.05l2.68-.66a1.15,1.15,0,0,0,.36-1.24c-1.42-3.19-3-6.29-6.34-7.94C2.41,36,2.74,39.51,6,42.05Z" style="fill:#a1815c"/><path d="M2.74,32.21C5.17,35,8,37.49,8.72,41.39L10.9,42c0-2.46-1.66-4.06-2.86-5.94-1.61-2.49-3-5.15-5.29-7.12C2.75,30,2.75,31.12,2.74,32.21Z" style="fill:#a6855f"/><path d="M5.45,24c1.51,3.38,3.86,6.24,5.87,9.29,3.57,5.4,6.93,10.91,10.2,16.5,1.62,2.78,3.2,5.56,4.65,8.42l2.16,0a144.16,144.16,0,0,1-8.81-14.54,82.62,82.62,0,0,0-5.7-8.8c-.89-1.23-.74-3.08-2.38-3.81C9.22,29,8.12,25.83,5.45,24Z" style="fill:#c29a6c"/><path d="M20.18,50.72c-.15-.35-.3-.71-.46-1.06,0,2.17.26,4.43-1.87,5.92,1.71,1.21,2.8,3.69,5.57,2.71A1.85,1.85,0,0,0,23,56.34,17.48,17.48,0,0,1,20.18,50.72Z" style="fill:#ae8c64"/><path d="M20.18,50.72c-.77,3.32,2.23,5,3.24,7.57l1.12,0C23.27,55.65,22.17,52.93,20.18,50.72Z" style="fill:#b38f67"/><path d="M53.39,19.69c.29,1.26,1.57,1.72,2.18,2.72A129.94,129.94,0,0,1,66.24,35.48c1.81,2.42,3.13,5.25,5.68,7.08-.3-2.67-2.51-4.2-3.89-6.18a27.1,27.1,0,0,1-3.74-6.89l-8.18-9.8Z" style="fill:#ae8b64"/><path d="M58.3,29.49c-.19-1-.35-2-1.64-2.18A2.56,2.56,0,0,0,58.3,29.49Z" style="fill:#bb956a"/><path d="M12,54.6c1.18,0,2.36.08,3.53,0,1.81-.16,3-1,3-3A3.11,3.11,0,0,0,15.59,48a9.93,9.93,0,0,0-2.18,0c-.95.07-1.49-.13-1.47-1.29a4.63,4.63,0,0,0-.65-2.31,3.26,3.26,0,0,0-3.4-1.7A2.61,2.61,0,0,0,6,45.65c.15,2.51.39,5,.54,7.54.07,1.11.74,1.33,1.65,1.33H12Z" style="fill:#e30613"/><path d="M71.48,11.92c0,1.89.14,3.79-3,5.44v-.12l-.15.1a6.62,6.62,0,0,1,.09,1c0,.44,0,.88,0,1.33,0,.21,0,.43,0,.64l.38.16c.09-.62.5-1.15,1.57-1.71a7,7,0,0,0,4.13-6.15C74.76,5.6,76.9,3.47,86.43,1a7.68,7.68,0,0,0-8,.33C73.63,4.16,71.43,7.78,71.48,11.92Z" style="fill:#443532"/></g></g></svg>