<svg xmlns="http://www.w3.org/2000/svg" viewBox="0 0 72.79 88.06">
    <g>
        <path d="M0,46.22c.25-.24.67-.44.72-.71C2.94,34.23,9.58,25.39,16.63,16.83A81.72,81.72,0,0,1,34.58.68,2.72,2.72,0,0,1,37.78.4C55.34,10.05,69,22.87,72.42,43.77A24.68,24.68,0,0,1,68,62.87C61.57,71.66,54.26,79.46,44.9,85.3c-6,3.73-11.26,3.73-17-.32C22.33,81.09,17,77.1,13.29,71.32a2.74,2.74,0,0,0-1.43-1.14C5.48,67.7,1.81,63,.53,56.32c-.07-.36-.12-.7-.53-.83ZM29.69,71.43a36.28,36.28,0,0,0,4.68,11.89c1.76,3.1,2.72,3.43,5.92,1.89,10.3-4.95,18.35-12.41,24.95-21.7,4.35-6.15,5.75-12.69,4-19.84-4.51-18.19-14.43-32.44-31-41.75a2.9,2.9,0,0,0-3.87.34A118.22,118.22,0,0,0,7.64,34.89C4.06,41.38,2,48.12,3.06,55.73,4.39,65,13.79,71.81,24.15,69.2c1.14-.29,2.23-.63,1-2.31-5.27-7.08-5.86-14.89-2.9-23a3.28,3.28,0,0,0-2.16-4.59c-2.92-.8-3-2.56-2.64-4.73a4.58,4.58,0,0,1,4.22-4.21A31.28,31.28,0,0,1,26,30.08a2.57,2.57,0,0,0,2.77-2.39,22.75,22.75,0,0,0,.25-2.5c1.33,3.32,3.25,5.64,7,6.39,2,.4,2.53,2.58,2.62,4.35.08,1.57-.88,3.33-2.54,3.37-3.29.08-5.64,1.83-8.41,3.1s-3.23,2.67-3.73,4.92a25.61,25.61,0,0,0-.44,7c.36,6.53,5.61,17,13.63,18.15a4.4,4.4,0,0,1,3.5,2A27.49,27.49,0,0,1,29.69,71.43Zm-14.75-.22A57.08,57.08,0,0,0,34,86.25,43,43,0,0,1,28.09,72c-.17-.81-.26-1.27-1.36-1A28,28,0,0,1,14.94,71.21Z"
              style="fill:#4d403c"/>
        <path d="M29.69,71.43a27.49,27.49,0,0,0,10.9,3.07,4.4,4.4,0,0,0-3.5-2c-8-1.19-13.27-11.62-13.63-18.15a25.61,25.61,0,0,1,.44-7c.5-2.25,1-3.67,3.73-4.92s5.12-3,8.41-3.1c1.66,0,2.62-1.8,2.54-3.37-.09-1.77-.65-3.95-2.62-4.35-3.72-.75-5.64-3.07-7-6.39a22.75,22.75,0,0,1-.25,2.5A2.57,2.57,0,0,1,26,30.08a31.28,31.28,0,0,0-4.32.32,4.58,4.58,0,0,0-4.22,4.21c-.32,2.17-.28,3.93,2.64,4.73a3.28,3.28,0,0,1,2.16,4.59c-3,8.07-2.37,15.88,2.9,23,1.25,1.68.16,2-1,2.31C13.79,71.81,4.39,65,3.06,55.73c-1.1-7.61,1-14.35,4.58-20.84A118.22,118.22,0,0,1,34.39,2.26a2.9,2.9,0,0,1,3.87-.34c16.53,9.31,26.45,23.56,31,41.75,1.77,7.15.37,13.69-4,19.84-6.6,9.29-14.65,16.75-24.95,21.7-3.2,1.54-4.16,1.21-5.92-1.89A36.28,36.28,0,0,1,29.69,71.43Z"
              style="fill:#f5e5de"/>
        <path d="M14.94,71.21A28,28,0,0,0,26.73,71c1.1-.26,1.19.2,1.36,1A43,43,0,0,0,34,86.25,57.08,57.08,0,0,1,14.94,71.21Z"
              style="fill:#f5e5de"/>
    </g>
</svg>