<svg xmlns="http://www.w3.org/2000/svg" viewBox="0 0 72.8 88.33">
    <g>
            <path d="M72.8,48.71c-.09,7.82-4.22,13.7-8.91,19.39C57.35,76,50.12,83,40.59,87.32a8.91,8.91,0,0,1-8.28,0c-7.59-3.81-14.16-8.78-19-15.89A3.75,3.75,0,0,0,11.46,70C2.05,66.21-.85,57.09.2,48.33,1.72,35.68,9,25.92,16.83,16.53A83.83,83.83,0,0,1,34.38.73,3.14,3.14,0,0,1,38.08.5c17.17,9.65,30.71,22.23,34.24,42.79C72.62,45.07,72.65,46.9,72.8,48.71ZM29.71,71.5c.72,4.56,2.63,8.22,4.65,11.83,1.73,3.07,2.7,3.37,5.94,1.82,10.3-5,18.34-12.42,24.93-21.72,4.23-6,5.72-12.36,4-19.31C64.87,25.69,54.91,11.25,38.17,1.84a3,3,0,0,0-3.86.42A116.8,116.8,0,0,0,9.83,30.89c-4.51,7.35-8.09,15-6.89,24.33a17,17,0,0,0,21,14c1.5-.35,2.36-.91,1-2.68-4.07-5.26-5.05-11.37-4.09-17.79.22-1.51.33-2.17-1.37-2.74a6,6,0,0,1-4.2-5.48c-.16-2.49,1.35-4.1,3.61-5a5.86,5.86,0,0,1,.31-8.2,6.52,6.52,0,0,1,4.9-1.9c1.91,0,3.18,1.33,4.63,2.43L29,24.76c.28.58.48.82.48,1,0,2.56,1.41,2.65,3.47,2.38,2.66-.35,4.28,1.39,5.07,3.64,1.23,3.53-.51,8.28-4.07,9.28a17.72,17.72,0,0,0-8.09,4.62c-1.44,1.39-2.33,2.45-2.42,4.29a21.09,21.09,0,0,0,0,4.35c1.37,8.4,4.51,15.5,13.65,18.11,1.07.3,2.5.33,3.35,2A28.53,28.53,0,0,1,29.71,71.5Zm-14.2.07A50.89,50.89,0,0,0,33.68,86,45.32,45.32,0,0,1,28.07,72c-.22-1.12-.58-1.17-1.62-.94A34.1,34.1,0,0,1,15.51,71.57Z"
                  style="fill:#4d403c"/>
            <path d="M29.71,71.5a28.53,28.53,0,0,0,10.74,2.94c-.85-1.63-2.28-1.66-3.35-2C28,69.87,24.82,62.77,23.45,54.37a21.09,21.09,0,0,1,0-4.35c.09-1.84,1-2.9,2.42-4.29A17.72,17.72,0,0,1,34,41.11c3.56-1,5.3-5.75,4.07-9.28-.79-2.25-2.41-4-5.07-3.64-2.06.27-3.49.18-3.47-2.38,0-.23-.2-.47-.48-1l-.32,3.11c-1.45-1.1-2.72-2.39-4.63-2.43a6.52,6.52,0,0,0-4.9,1.9,5.86,5.86,0,0,0-.31,8.2c-2.26.92-3.77,2.53-3.61,5A6,6,0,0,0,19.45,46c1.7.57,1.59,1.23,1.37,2.74-1,6.42,0,12.53,4.09,17.79,1.37,1.77.51,2.33-1,2.68a17,17,0,0,1-21-14c-1.2-9.29,2.38-17,6.89-24.33A116.8,116.8,0,0,1,34.31,2.26a3,3,0,0,1,3.86-.42c16.74,9.41,26.7,23.85,31.11,42.28,1.67,7,.18,13.33-4,19.31C58.64,72.73,50.6,80.2,40.3,85.15c-3.24,1.55-4.21,1.25-5.94-1.82C32.34,79.72,30.43,76.06,29.71,71.5Z"
                  style="fill:#f5e5de"/>
            <path d="M15.51,71.57a34.1,34.1,0,0,0,10.94-.49c1-.23,1.4-.18,1.62.94A45.32,45.32,0,0,0,33.68,86,50.89,50.89,0,0,1,15.51,71.57Z"
                  style="fill:#f5e5de"/>
        </g>
</svg>