<svg xmlns="http://www.w3.org/2000/svg" viewBox="0 0 72.98 88.36">
    <g>
        <path d="M73,50.55a58.63,58.63,0,0,1-2.25,7.1C67.4,65,62,70.72,56.37,76.28a53.27,53.27,0,0,1-16,11.14,8.75,8.75,0,0,1-8-.08c-7.6-3.8-14.17-8.76-19-15.86A3.71,3.71,0,0,0,11.5,70C2.26,66.41-.91,57.2.22,48.15,1.81,35.48,9.15,25.79,16.93,16.4A82.14,82.14,0,0,1,34.28.79,3.11,3.11,0,0,1,38,.46c17.71,10,31.54,22.93,34.49,44.36.06.37.1.7.52.82ZM29.69,71.49c.69,4.56,2.61,8.22,4.64,11.82,1.73,3.1,2.7,3.41,5.92,1.86,10.3-5,18.35-12.41,24.93-21.71,4.36-6.14,5.75-12.69,4-19.83-4.52-18.19-14.44-32.43-31-41.75a2.92,2.92,0,0,0-3.87.35C23.6,11.6,14.33,22.14,7.61,34.78,4.23,41.13,2.13,47.6,2.92,55.07,3.86,64,12.69,71.69,23.75,69.31c1.6-.34,2.53-.89,1.08-2.83-4.41-5.9-5.22-12.57-3.62-19.65C22,43.42,23.68,40.36,25.1,37c-4.73,1.06-8.33-.13-10.25-3.4-1.6-2.69-2.54-6.19,1.06-10.13,1-1.09,1.92-2.43,3.59-1.72,1.5.64,1.74,2.12,1.77,3.64.05,2.78,1.58,4.68,3.88,6,1.47.87,2.43.79,2.93-1.16a50.15,50.15,0,0,0,1-5.71c1.39,3.73.64,6.59-.61,9.45-2.73,6.25-5.24,12.52-5.11,19.55.12,6.63,5.55,17.82,13.73,19a3.89,3.89,0,0,1,3.38,2A28.77,28.77,0,0,1,29.69,71.49ZM34,86.25a42.26,42.26,0,0,1-6-14.48c-.16-.82-.46-1-1.29-.76A30.55,30.55,0,0,1,15,71.28,57,57,0,0,0,34,86.25Z"
              style="fill:#4d403c"/>
        <path d="M29.69,71.49a28.77,28.77,0,0,0,10.76,3,3.89,3.89,0,0,0-3.38-2c-8.18-1.13-13.61-12.32-13.73-19-.13-7,2.38-13.3,5.11-19.55,1.25-2.86,2-5.72.61-9.45a50.15,50.15,0,0,1-1,5.71c-.5,1.95-1.46,2-2.93,1.16-2.3-1.36-3.83-3.26-3.88-6,0-1.52-.27-3-1.77-3.64-1.67-.71-2.6.63-3.59,1.72-3.6,3.94-2.66,7.44-1.06,10.13,1.92,3.27,5.52,4.46,10.25,3.4-1.42,3.37-3.12,6.43-3.89,9.84-1.6,7.08-.79,13.75,3.62,19.65,1.45,1.94.52,2.49-1.08,2.83C12.69,71.69,3.86,64,2.92,55.07,2.13,47.6,4.23,41.13,7.61,34.78c6.72-12.64,16-23.18,26.71-32.55a2.92,2.92,0,0,1,3.87-.35c16.53,9.32,26.45,23.56,31,41.75,1.77,7.14.38,13.69-4,19.83-6.58,9.3-14.63,16.76-24.93,21.71-3.22,1.55-4.19,1.24-5.92-1.86C32.3,79.71,30.38,76.05,29.69,71.49Z"
              style="fill:#f5e5de"/>
        <path d="M34,86.25a57,57,0,0,1-19-15A30.55,30.55,0,0,0,26.7,71c.83-.21,1.13-.06,1.29.76A42.26,42.26,0,0,0,34,86.25Z"
              style="fill:#f5e5de"/>
    </g>
</svg>