<svg xmlns="http://www.w3.org/2000/svg" viewBox="0 0 58.79 54.53">
    <g>
        <path d="M25.12,54.53c-1.27-1.47-3.3-1.1-4.67-1.09-3.07,0-3.83-2.37-3.92-4C16.37,46.8,15,44.54,14.76,42c-.23-1.53-.47-3.06-.7-4.58l-.28,0-.26,5c-.82,2.47-.32,5-.45,7.54-.07,1.41-.51,1.78-1.8,1.24A54.24,54.24,0,0,1,2.53,47a2.17,2.17,0,0,1-1-2.25,63.67,63.67,0,0,1,1.14-14,2.51,2.51,0,0,0-.54-2.24,4.74,4.74,0,0,1-.06-6c.92-1.37,1.54-2.92,0-4.36S-.68,15.24.43,13c1.2-2.46,3.39-3.4,5.89-3.67,4.81-.5,9.57-1.54,14.47-1.1a2.64,2.64,0,0,0,2.83-2.72c0-1.42.81-2.49.88-3.77.06-1,.5-1.18,1.36-1.21C29.3.39,32.74.32,36.17,0c1.9-.16,2.16.71,1.91,2.19-.15.89-.39,1.76-.53,2.65-.4,2.33,1,3.66,3.31,3.2,4.91-1,9.58-.71,14.15,1.73,4.26,2.27,5,4.62,1.87,8.36-1.36,1.63-.49,3.17.19,4.52a8,8,0,0,1,.48,4.93,61.2,61.2,0,0,0-.29,9.48c.08,2.6-.84,5.19,0,7.81.29.89-.6,1.49-1.25,1.93C54,48.2,52.18,49.93,49.93,51c-2.5,1.21-2.7,1-3-1.85a75.27,75.27,0,0,1-.59-10.5c0-.63.05-1.31-1-1.58-.72,3.5-1.56,7-2.09,10.5-.26,1.73-1.36,3.11-1.5,4.86-.06.75-1,.56-1.57.81-1.17.53-2.69,0-3.62,1.26H33.84a5.93,5.93,0,0,0-5.45,0ZM55.36,31.12c-.25-1-.86-.78-1.65-.62-1.2.23-.79,1.06-.74,1.66.19,2.23-.12,4.62-2.34,5.25-2.74.79-2.46,2.57-2.15,4.35a43.81,43.81,0,0,1,.65,5.36c0,.68-.13,1.74,1.29,1.47a6.22,6.22,0,0,0,4.91-5.84c0-2.44.06-4.89.09-7.34A6.77,6.77,0,0,0,55.36,31.12ZM22,29.2c-2.19,1.5-3.16,4.12-5.24,5.74-.58.44-.36,1.15-.27,1.78.62,4.35,1.95,8.61,1.75,13.07,0,.86.29,1.16,1.11,1.5,1.76.73,3.59.41,5.36.71a47,47,0,0,0,14.6-.17c.69-.1.67-.37.76-1,.42-3.11,1-6.21,1.55-9.3.6-3.27,2.11-6.68-1.72-9.15A2.67,2.67,0,0,1,39.07,31a3.14,3.14,0,0,0-2.37-2c-3-.93-4-4.8-2-7.82.81,1.46.64,3,.81,4.48.06.6-.14,1.33.64,1.63a.81.81,0,0,0,.72-.06c.55-.57.21-1.12-.09-1.7-1.19-2.25-.28-4.06,1.14-5.85A35.45,35.45,0,0,1,48,10.45a11.22,11.22,0,0,0-5.36-.29c-3.16.68-6.76-1.25-7.09-3.6-.23-1.66.61-3.77-.61-4.91-1.44-1.34-3.42.57-5.21.19C27.15,1.28,26.86,3,26.61,5c-.57,4.35-1.67,5.16-5.93,5.32-2.85.11-5.77-.38-8.94.66A37.35,37.35,0,0,1,21,19.58c1.62,2,2.18,3.92,1,6.34-.29.59-1.34,1.47-.18,2.32Zm25.87-7.67c-.3-.75.36-.73.64-1,1.31-1.25,3.08-.7,4.59-1.18a6.75,6.75,0,0,0,4.15-4.29c.5-1.22-.3-2.25-1.31-3a5.88,5.88,0,0,0-6.13-.6c-5.14,2.1-8.47,6.26-11.81,10.41a2,2,0,0,0-.25,1.81c1.32,5.48,4,9.91,9.35,12.41,1.74.81,3.25.73,4.09-1.12s1.23-3.58-1.16-4.67c-1.34-.62-2.16-1.89-3.2-2.89-.28-.27-.44-.56-.07-.89s.63-.12.91.15l1,.93c1.74,1.64,4.67,1.95,6.29.59a3.53,3.53,0,0,0,.85-5c-1.22-2.09-3.16-2.8-5.76-2.08C49.28,21.28,48.6,21.91,47.82,21.53Zm-36.27,0c-1.36.13-2.15-.48-3-.68a4.5,4.5,0,0,0-4.87,1.61c-.81,1.09-1.67,2.41-.88,4,.91,1.8,2.29,2.38,4.35,2.56s2.81-1.23,4-2.19c.31-.25.59-.8,1.11-.33s0,.82-.24,1.09a12.49,12.49,0,0,1-2.81,2.51C6.78,31.29,6.89,33,7.81,35c1.06,2.2,2.85,1.85,4.59.91a17.16,17.16,0,0,0,8.15-9.62c1-2.6.75-4.64-1.16-6.56a76.7,76.7,0,0,0-5.6-5.52c-2.3-1.86-4.81-3.54-8-3.23-2.71.25-5,2.8-3.89,4.63,1.22,2.08,2.72,4.11,5.62,4A4.85,4.85,0,0,1,11.55,21.55ZM5.32,30.6c-.89.25-1,1.1-1,1.74-.35,4-.59,8.1-.89,12.15a1.52,1.52,0,0,0,1,1.71c1.64.74,3.21,1.62,4.85,2.35,1,.44,1.81.6,1.86-1.08.07-2.24.49-4.48.74-6.72C12,39.3,13.69,36.89,9.9,38c-.9.27-2.11-.64-2.93-1.62C5.83,35,6,33.55,6,32,6,31.51,6.45,30.66,5.32,30.6Z"
              style="fill:#514441"/>
        <path d="M13.52,42.45l.26-5,.28,0c.23,1.52.47,3.05.7,4.58Z" style="fill:#f3e3dc"/>
        <path d="M21.81,28.24c-1.16-.85-.11-1.73.18-2.32,1.21-2.42.65-4.35-1-6.34a37.35,37.35,0,0,0-9.28-8.65c3.17-1,6.09-.55,8.94-.66,4.26-.16,5.36-1,5.93-5.32.25-1.93.54-3.67,3.16-3.11,1.79.38,3.77-1.53,5.21-.19,1.22,1.14.38,3.25.61,4.91.33,2.35,3.93,4.28,7.09,3.6a11.22,11.22,0,0,1,5.36.29,35.45,35.45,0,0,0-10.16,9.21c-1.42,1.79-2.33,3.6-1.14,5.85.3.58.64,1.13.09,1.7a.81.81,0,0,1-.72.06c-.78-.3-.58-1-.64-1.63-.17-1.48,0-3-.81-4.48-2,3-.91,6.89,2,7.82a3.14,3.14,0,0,1,2.37,2,2.67,2.67,0,0,0,.78,1.41c3.83,2.47,2.32,5.88,1.72,9.15-.56,3.09-1.13,6.19-1.55,9.3-.09.64-.07.91-.76,1a47,47,0,0,1-14.6.17c-1.77-.3-3.6,0-5.36-.71-.82-.34-1.15-.64-1.11-1.5.2-4.46-1.13-8.72-1.75-13.07-.09-.63-.31-1.34.27-1.78,2.08-1.62,3.05-4.24,5.24-5.74,2.95-1.54,4.21-6.31,2.24-8.64C23.55,23.19,24.24,26.21,21.81,28.24Zm8.47,16.07c.18-4,.75-8-.79-11.89C30,36.36,28.79,40.43,30.28,44.31Z"
              style="fill:#f3e3dc"/>
        <path d="M47.82,21.53c.78.38,1.46-.25,2.15-.44,2.6-.72,4.54,0,5.76,2.08a3.53,3.53,0,0,1-.85,5c-1.62,1.36-4.55,1.05-6.29-.59l-1-.93c-.28-.27-.55-.48-.91-.15s-.21.62.07.89c1,1,1.86,2.27,3.2,2.89,2.39,1.09,2,2.93,1.16,4.67s-2.35,1.93-4.09,1.12c-5.32-2.5-8-6.93-9.35-12.41A2,2,0,0,1,38,21.86c3.34-4.15,6.67-8.31,11.81-10.41a5.88,5.88,0,0,1,6.13.6c1,.76,1.81,1.79,1.31,3a6.75,6.75,0,0,1-4.15,4.29c-1.51.48-3.28-.07-4.59,1.18C48.18,20.8,47.52,20.78,47.82,21.53Z"
              style="fill:#f9f4e9"/>
        <path d="M11.55,21.55a4.85,4.85,0,0,0-4.06-1.94c-2.9.07-4.4-2-5.62-4C.8,13.74,3.05,11.19,5.76,10.94c3.22-.31,5.73,1.37,8,3.23a76.7,76.7,0,0,1,5.6,5.52c1.91,1.92,2.12,4,1.16,6.56a17.16,17.16,0,0,1-8.15,9.62c-1.74.94-3.53,1.29-4.59-.91-.92-1.92-1-3.67,1.38-4.85A12.49,12.49,0,0,0,12,27.6c.27-.27.78-.61.24-1.09s-.8.08-1.11.33c-1.2,1-1.93,2.36-4,2.19s-3.44-.76-4.35-2.56c-.79-1.58.07-2.9.88-4a4.5,4.5,0,0,1,4.87-1.61C9.4,21.07,10.19,21.68,11.55,21.55Z"
              style="fill:#f9f4e9"/>
        <path d="M5.32,30.6c1.13.06.67.91.67,1.42,0,1.53-.16,3,1,4.37.82,1,2,1.89,2.93,1.62,3.79-1.12,2.11,1.29,1.95,2.74-.25,2.24-.67,4.48-.74,6.72,0,1.68-.87,1.52-1.86,1.08C7.61,47.82,6,46.94,4.4,46.2a1.52,1.52,0,0,1-1-1.71c.3-4.05.54-8.11.89-12.15C4.37,31.7,4.43,30.85,5.32,30.6Z"
              style="fill:#f3e3dc"/>
        <path d="M55.42,35.41c0,2.45-.08,4.9-.09,7.34a6.22,6.22,0,0,1-4.91,5.84c-1.42.27-1.26-.79-1.29-1.47a43.81,43.81,0,0,0-.65-5.36c-.31-1.78-.59-3.56,2.15-4.35,2.22-.63,2.53-3,2.34-5.25,0-.6-.46-1.43.74-1.66.79-.16,1.4-.4,1.65.62A10.87,10.87,0,0,0,55.42,35.41Z"
              style="fill:#f3e3dc"/>
        <path d="M21.81,28.24c2.43-2,1.74-5,2.38-7.68,2,2.33.71,7.1-2.24,8.64C21.9,28.88,21.85,28.56,21.81,28.24Z"
              style="fill:#594e4b"/>
        <path d="M55.42,35.41a10.87,10.87,0,0,1-.06-4.29A6.77,6.77,0,0,1,55.42,35.41Z" style="fill:#6f625f"/>
        <path d="M30.28,44.31c-1.49-3.88-.32-8-.79-11.89C31,36.29,30.46,40.31,30.28,44.31Z" style="fill:#514441"/>
    </g>
</svg>