<svg xmlns="http://www.w3.org/2000/svg" viewBox="0 0 69.13 84.65"><g id="Ebene_2" data-name="Ebene 2"><g id="Ebene_1-2" data-name="Ebene 1"><path d="M32.28,84.65c-2.69-1-5.68-1.14-8.21-2.7-1.42-.88-2.76-1.53-1.73-3.7.47-1,.11-2.32.12-3.5,0-4,2.07-5.63,5.9-4.67.59.15,1.31,1.1,1.67-.11.3-1-.72-.87-1.34-1.18a42.12,42.12,0,0,1-13.13-9.73C12.83,56,12.92,52.14,14,48.37c.64-2.2,1.28-4.3-.09-6.47a2.33,2.33,0,0,1-.17-1.59c.91-3.9-1.17-5.89-4.43-7.25A7.21,7.21,0,0,1,5.6,29.29C4.37,26.58,3.81,23.53.89,21.82c-.79-.46-1-1.69-.86-2.74.11-.87-.25-2,.8-2.42,1.26-.48,1.23,1,1.81,1.54A10,10,0,0,0,3.7,19a6.19,6.19,0,0,1,2.75-4.5A5.22,5.22,0,0,0,8.7,7.92a6.91,6.91,0,0,0-.62-1.48,1.8,1.8,0,0,1,.68-2.78c1.2-.52,1.75.61,2.33,1.6.93,1.59.92,3.46,1.77,5.08A3,3,0,0,0,13,6.2c-.79-1.08-1.3-2.42.17-3.21s2.42.42,3,1.56A7.91,7.91,0,0,1,17,9.14c1.66-.45,2-1.54,1.48-2.79-.42-1-.44-1.89.54-2.29s1.84.43,2.39,1.3c1.43,2.24.27,6.05-2.56,7.69a40.09,40.09,0,0,1-5.4,2.36,9.81,9.81,0,0,0-4.26,2.66,5.85,5.85,0,0,0-.18,7c1.29,1.69,3,1.72,4.16-.09,1-1.62,1.81-3.47.69-5.29-.78-1.26-1-2.29.44-2.9s2.26.29,2.72,1.46a7.18,7.18,0,0,1,.77,4.37,10.77,10.77,0,0,1-2,5c1,.46,1.7.73,2.48-.11C22.51,22.91,28,21.71,34,22c2.12.09,3.58-.12,4-2.65a2.35,2.35,0,0,1,3-2c1.85.48,1.15,1.81.7,3a3.07,3.07,0,0,0,0,1.62c.61,3.13,6.58,7.2,9.63,6.47,2.31-.56,3.11-2.54,3.62-4.58.61-2.42-.63-4.26-2.34-5.63a16.24,16.24,0,0,0-10-3.33,45.91,45.91,0,0,1-10.73-1.2,5.92,5.92,0,0,1-4.66-4.37,4.57,4.57,0,0,1,2.45-5.13,1.2,1.2,0,0,1,1.22.28,1.3,1.3,0,0,1,.29,1.92c-.84,1.28-.24,2,.78,2.67a2.59,2.59,0,0,0,2.36.23c.89-.35.22-1.24.18-1.83-.15-2.24,0-4.33,1.59-6.09,1.14-1.29,2.64-2,4-.77s.24,2.31-.74,3.19C38,4.89,38.13,6,38.67,7.45c.66,1.75,2.15,2,3.59,2.45.68.19.69-.22.65-.94a9.2,9.2,0,0,1,1.83-6.51c.94-1.19,2-1.71,3.21-1.07s.66,1.8.21,2.84a14.41,14.41,0,0,0-1.08,3.31c-.4,2.37.79,4,3.36,4.57,3.83.9,7.53,2.15,9.83,5.56,1,1.55,1.67,3.18,4,2.68a3.92,3.92,0,0,0,1.7-.7c1-.73,2.09-.87,2.82.19a2.15,2.15,0,0,1-.64,2.89,7,7,0,0,1-4.61,2c-.7,0-1.63-.18-1.82,1.08-.89,5.91-5.28,9.61-9.58,12.63-3.19,2.25-2.31,5-2.83,7.48-1.6,7.57-3.75,14.64-10.86,19-1.43.88-1.82,5.13-.75,6.32s2.38.46,3.49.1c4.54-1.44,5.78-.57,5.83,4.26,0,.72,0,1.45,0,2.18,0,1.51,1.38,3.58.23,4.37a10.7,10.7,0,0,1-5.73,2c-.43,0-.92-.06-1.09.53ZM15.4,25.24c1.64-2.62,1.54-5.24-.56-6.92,1.11,2.43.39,4.67.52,6.89-.42.06-.86.1-.82.7,0,.06.11.17.17.17C15.32,26.12,15.31,25.64,15.4,25.24ZM19.69,9.37a5.33,5.33,0,0,0-1.21.55c-.7.56-1.29,1.32-2.35,1.06-1.53-.37.22-1.82-.89-2.48-.4.82-.72,1.64-1.17,2.37s-1.18,1.48-2.23,1.2-.79-1.28-.79-2.05a8,8,0,0,0-1.38-4.6C9,6.5,9.73,7.29,10,8.11c1.07,3.62.75,4.68-2.15,7-1,.82-2.57,1.39-2.64,2.91-.12,2.47-1.68,2.41-3.41,2.29l-.25-1.18c-.07.05-.18.08-.2.14a.86.86,0,0,0,.41,1.07c0,1.12.84,1.52,1.68,1.91S4.9,23,5,23.93c.44,4.24,3.76,6.46,6.51,9,1.19,1.09,2.87,2,3.65-.67.18-.62.59-1.15,1.4-1-1,3.15-2.66,6.4-1.48,9.67,1.06,2.95.69,5.54,0,8.4-.92,4-.31,7.63,3,10.59a85.06,85.06,0,0,0,9.54,7,3.83,3.83,0,0,0,4.12.43C36,65,40.59,62.84,43.26,58.64a32.52,32.52,0,0,0,5.11-17.48c-4.21,1.1-7.33-.15-8.86-3.47a3.64,3.64,0,0,1,2.61-5.43,24.47,24.47,0,0,0,2.61-1,9.85,9.85,0,0,1-6.43-5.66c-.83-2.07-2.21-2.49-4.06-2.53C27,23,20.79,25,16.53,31.32c-.05-.54-.05-1.53-.18-1.54-1.76-.25-1.93-4.28-4.76-2-.59.48-1.4-.19-2-.58a6.4,6.4,0,0,1-2.94-6.28c.21-2.48,1.21-4.51,3.65-5.56,2.06-.88,4.12-1.77,6.2-2.62a5,5,0,0,0,3.26-3.31c.62-1.08,1.47-2.15.11-3.94C19.8,7.15,19.75,8.26,19.69,9.37ZM29.78,5.24c-2.63,3.27-1.47,6.42,2.27,7.37a45.7,45.7,0,0,0,10.19,1.18,17.86,17.86,0,0,1,10.67,3.42c5,3.78,3.62,8.4.06,12a2.5,2.5,0,0,1-2.24.8c-5.92-1.15-11.25-3.62-10.08-11.6-1.14,0-1.48.79-1.83,1.65-1.28,3.2.87,7.44,4.8,9.49.92.48,2.31.63,2.2,2.06s-1.63,1.13-2.56,1.47c-1.17.42-2.53.44-2.77,2.12a3.83,3.83,0,0,0,1.29,3.64c2.17,2,4.28,2.16,6.94.76,3.9-2.07,6.22-5.73,9.27-8.66a7.71,7.71,0,0,0,2.54-5c.15-2,1-2.37,2.76-2.42a5,5,0,0,0,5-3.58,17.16,17.16,0,0,1-2.89,1.21c-1.75.28-4,1-4.94-.95-2.21-4.54-6.32-5.94-10.62-7.23-3.42-1-4.29-2.87-3.61-6.53.27-1.46,1.36-2.71,1.15-4.36A6.4,6.4,0,0,0,44,8.89c.18,1,.56,2.25-1,2.1-2.06-.2-4.23-.56-5.27-2.75-.87-1.83-1.07-3.64.63-5.22.4-.38,1.27-.86.57-1.51s-1.37-.27-1.94.3c-1.67,1.67-1.6,3.77-1.42,5.86.25,2.74-.58,3.49-3.3,2.74C29.94,9.76,29.29,8.05,29.78,5.24Zm-6.21,71.9c1.51-.15,2.16-1.29,3.42-1.78-.24,1.75-1.48,2.16-2.49,2.84-.62.41-1.82,1-1.2,1.76,1.15,1.41,3,1.92,4.74,2.41,1.25.35,1.19-1.07,1.7-1.71.81-1,1.56-2.09,2.56-3.45.66,2.65-2.27,3.59-2,5.64,1.65.24,3.16.58,4.68.65a14.44,14.44,0,0,0,4.85-.27c2-.59,2.44-1.63,1-3.17-.68-.71-1.69-1.13-1.2-2.38.9-.06.89,1.15,1.75,1.18.59-.41-.2-1.74,1.16-1.72.42.9-.22,1.73-.19,2.55s.06,2.11.95,2.61,1.66-.4,2.46-.76c1.12-.49.56-1.28.38-2.06a11.11,11.11,0,0,1-.15-2.16c-.06-6-.06-6-5.68-4.56-2.47.64-4-.45-4.15-3,0-1,0-2,0-3.32-2.51,1.72-5.33,2.31-5.54,5.65-.07,1.11-1,1.28-1.26.51-.65-2.15-2.38-1.69-3.77-1.51S23.67,72.69,23.58,74C23.51,75,23.57,76,23.57,77.14Zm-8.16-70c-.08-1.43-.05-2.46-1.63-2.71C13.81,5.54,14.5,6.15,15.41,7.1Z" style="fill:#5b4759"/><path d="M16.54,31.32C20.79,25,27,23,34.24,23.11c1.85,0,3.23.46,4.06,2.53a9.85,9.85,0,0,0,6.43,5.66,24.47,24.47,0,0,1-2.61,1,3.64,3.64,0,0,0-2.61,5.43C41,41,44.16,42.26,48.37,41.16a32.52,32.52,0,0,1-5.11,17.48C40.59,62.84,36,65,31.79,67.43A3.83,3.83,0,0,1,27.67,67a85.06,85.06,0,0,1-9.54-7c-3.33-3-3.94-6.6-3-10.59.66-2.86,1-5.45,0-8.4-1.18-3.27.43-6.52,1.48-9.67Z" style="fill:#f8e8e9"/><path d="M29.78,5.24c-.49,2.81.16,4.52,2.5,5.17,2.72.75,3.55,0,3.3-2.74C35.4,5.58,35.33,3.48,37,1.81c.57-.57,1.35-.84,1.94-.3S38.77,2.64,38.37,3c-1.7,1.58-1.5,3.39-.63,5.22C38.78,10.43,41,10.79,43,11c1.58.15,1.2-1.05,1-2.1a6.4,6.4,0,0,1,3.34-6.78c.21,1.65-.88,2.9-1.15,4.36-.68,3.66.19,5.5,3.61,6.53,4.3,1.29,8.41,2.69,10.62,7.23,1,2,3.19,1.23,4.94.95A17.16,17.16,0,0,0,68.28,20a5,5,0,0,1-5,3.58c-1.73.05-2.61.46-2.76,2.42a7.71,7.71,0,0,1-2.54,5c-3.05,2.93-5.37,6.59-9.27,8.66-2.66,1.4-4.77,1.25-6.94-.76a3.83,3.83,0,0,1-1.29-3.64c.24-1.68,1.6-1.7,2.77-2.12.93-.34,2.44.08,2.56-1.47s-1.28-1.58-2.2-2.06c-3.93-2.05-6.08-6.29-4.8-9.49.35-.86.69-1.67,1.83-1.65-1.17,8,4.16,10.45,10.08,11.6a2.5,2.5,0,0,0,2.24-.8c3.56-3.6,4.92-8.22-.06-12a17.86,17.86,0,0,0-10.67-3.42,45.7,45.7,0,0,1-10.19-1.18C28.31,11.66,27.15,8.51,29.78,5.24Z" style="fill:#785a77"/><path d="M23.57,77.14c0-1.15-.06-2.15,0-3.14.09-1.31.46-2.69,1.92-2.88s3.12-.64,3.77,1.51c.24.77,1.19.6,1.26-.51.21-3.34,3-3.93,5.54-5.65,0,1.3,0,2.31,0,3.32.13,2.52,1.68,3.61,4.15,3,5.62-1.45,5.62-1.45,5.68,4.56a11.11,11.11,0,0,0,.15,2.16c.18.78.74,1.57-.38,2.06-.8.36-1.58,1.25-2.46.76s-.91-1.73-.95-2.61.61-1.65.19-2.55c-1.36,0-.57,1.31-1.16,1.72-.86,0-.85-1.24-1.75-1.18-.49,1.25.52,1.67,1.2,2.38,1.47,1.54,1,2.58-1,3.17a14.44,14.44,0,0,1-4.85.27c-1.52-.07-3-.41-4.68-.65-.22-2,2.71-3,2-5.64-1,1.36-1.75,2.43-2.56,3.45-.51.64-.45,2.06-1.7,1.71-1.72-.49-3.59-1-4.74-2.41-.62-.76.58-1.35,1.2-1.76,1-.68,2.25-1.09,2.49-2.84C25.73,75.85,25.08,77,23.57,77.14Z" style="fill:#f8e8e9"/><path d="M1.77,20.3c1.73.12,3.29.18,3.41-2.29.07-1.52,1.61-2.09,2.64-2.91,2.9-2.31,3.22-3.37,2.15-7C9.73,7.29,9,6.5,9.67,5.42A8,8,0,0,1,11.05,10c0,.77-.31,1.76.79,2.05s1.73-.41,2.23-1.2.77-1.55,1.17-2.37c1.11.66-.64,2.11.89,2.48,1.06.26,1.65-.5,2.35-1.06a5.33,5.33,0,0,1,1.21-.55l.09.08a5,5,0,0,1-3.26,3.31c-2.08.85-4.14,1.74-6.2,2.62-2.44,1-3.44,3.08-3.65,5.56a6.4,6.4,0,0,0,2.94,6.28c.58.39,1.39,1.06,2,.58,2.83-2.3,3,1.73,4.76,2,.13,0,.13,1,.18,1.54l0,0c-.81-.17-1.22.36-1.4,1-.78,2.7-2.46,1.76-3.65.67-2.75-2.55-6.07-4.77-6.51-9-.1-1-.83-1.34-1.59-1.69s-1.66-.79-1.68-1.91Z" style="fill:#785a77"/><path d="M15.36,25.21c-.13-2.22.59-4.46-.52-6.89,2.1,1.68,2.2,4.3.56,6.92Z" style="fill:#785a77"/><path d="M15.41,7.1c-.91-.95-1.6-1.56-1.63-2.71C15.36,4.64,15.33,5.67,15.41,7.1Z" style="fill:#785a77"/><path d="M19.69,9.37c.06-1.11.11-2.22.2-3.86,1.36,1.79.51,2.86-.11,3.94Z" style="fill:#785a77"/><path d="M15.4,25.24c-.09.4-.08.88-.69.84-.06,0-.16-.11-.17-.17,0-.6.4-.64.82-.7Z" style="fill:#785a77"/><path d="M1.73,20.33a.86.86,0,0,1-.41-1.07c0-.06.13-.09.2-.14.09.39.17.78.25,1.18Z" style="fill:#785a77"/></g></g></svg>