<svg xmlns="http://www.w3.org/2000/svg" viewBox="0 0 68.39 79.66"><g id="Ebene_2" data-name="Ebene 2"><g id="Ebene_1-2" data-name="Ebene 1"><path d="M57,0c1.74,2.42,1,5.2,1.1,7.85,0,.9-.19,2,.81,2.41s1.61-.48,2.27-1.08a22.61,22.61,0,0,0,4.2-5.24c.52-.85,1.24-1.73,2.41-1,1,.61.61,1.43.29,2.37A30,30,0,0,1,63.76,13a4.46,4.46,0,0,1-4.31,1.7,3,3,0,0,0-3,1.19A62,62,0,0,1,49.67,24c-.2.2-.16.64-.23,1l-.11.12c-1.78-.4-1.08-1.28-.35-2.06A45.06,45.06,0,0,0,53.48,18c1.77-2.58,3.5-5.28,7.4-4.5a2.45,2.45,0,0,0,1.83-1c1.67-2.32,3.72-4.46,4.11-7.5l.37-.62L67,4.16l-.25.7c-2.22,1.34-3,4-5.06,5.5-1,.78-2,1.41-3.18,1S56.92,9.71,57,8.42c0-1.9,0-3.81,0-5.71,0-.56-.16-1.26-.77-1.23-.83.05-.89.81-.7,1.46,1.26,4.33-.67,8-2.51,11.6C50.8,18.81,50.34,19,45.5,18.22c-.08,0-.2.24-.31.38a1,1,0,0,0,.84.92c.66.2,1.7-.06,1.84.81s-.82,1.32-1.45,1.8c-2.09,1.61-4.24,3.2-7,3.44a1.82,1.82,0,0,0-1.85,2.36,2.27,2.27,0,0,0,3.17,1.63,29.74,29.74,0,0,0,4.34-2.25c.84-.52,1.89-1,2.52-.48,2.17,1.87,4.36.93,6.58.42l.08.07c-1.69,2-3.62,2.39-5.93,1.06-.72-.41-1.46-.93-2.46-.2s-.53,1.53-.45,2.39a42.32,42.32,0,0,1-4.33,22.49c-1.45,3-4.33,4.81-6.91,6.79-1.34,1-1.84,5.14-.75,6.32,1.23,1.34,2.53.43,3.73,0,4.13-1.39,5.55-.39,5.59,4a30,30,0,0,0,.06,3c.47,4,.53,4.16-3.43,5.28a26.08,26.08,0,0,1-20.32-2.14C18,75.77,17.44,75.14,18,73.64a12.47,12.47,0,0,0,.25-4c0-4,2.1-5.55,6-4.56.57.15,1.3,1.15,1.61-.2.19-.86-.56-.83-1.16-1.09a40.37,40.37,0,0,1-13-9.38c-3-3.14-3-7.14-1.83-11.13a10.88,10.88,0,0,0,0-6.49c-1.05-3.58-.3-7.32,1.63-11-2.15.47-4.1.82-5.26-1.36-.59-1.11-.89-2.28,0-3.23s1.76.17,2.5.66a1.76,1.76,0,0,0,1.81.38c-1.14-2.68-2.23-5.31-3.37-7.92A2.2,2.2,0,0,0,5.61,13C2,11.75-.88,5.68.25,2A1.18,1.18,0,0,1,1.66,1.1c.86,0,1.19.55,1.36,1.38a14.8,14.8,0,0,0,2,5.24c.33.5.74,1.17,1.5.9.53-.19.63-.79.79-1.33.46-1.63,1-3.22,1.53-4.83.27-.83.73-1.56,1.73-1.31s1.16,1.11,1.16,1.93a4.62,4.62,0,0,1-.43,2.09c-1.41,3-.53,6,.27,8.93s2.48,3.09,4.63,1.25a9.64,9.64,0,0,0,3-4.11c.35-1,.72-1.68,1.86-1.41s1.12,1.36,1,2.21a11.09,11.09,0,0,1-4.24,7,31.44,31.44,0,0,1,13.49-2.13,12.8,12.8,0,0,1,9.18,3.92c2.46,2.62,2.5,2.59,5.53.15a11.52,11.52,0,0,1-6.7-10,7.79,7.79,0,0,1,.15-2.11c.21-1.18.3-2.45,2-2.31S42.79,8,42.74,9a11,11,0,0,0,1.93,6.58c1.69,2.62,4.59,2.63,6.25,0,2.49-3.87,4.88-7.79,3.34-12.73-.38-1.2.57-2,1.07-2.93ZM7.36,22.88l-.25-.22.22.25.55.54c.66,1.37,1.86,1.24,3,.91A7.89,7.89,0,0,1,14,24c-2.43,3.61-4.33,7.58-3.07,11.89a15.83,15.83,0,0,1,0,8.42c-.87,3.87-.35,7.47,2.88,10.39a91,91,0,0,0,9.52,7.12c1.13.77,2.66,1.37,3.87.68,4.92-2.8,10.35-5.23,13-10.62,3.39-7,5.17-14.36,3.52-22.33L42.48,30c-2.88,1.19-5,.72-5.71-1.42-.91-2.82.37-4,3.19-4.19,1.35-.09,1.15-1,.45-1.91a10.16,10.16,0,0,0-6-3.88c-7.6-1.33-14.75-.57-20.45,5.44,0-.52.31-1.2.08-1.54-1.78-2.67-.55-3.9,2-4.55a1.13,1.13,0,0,0,1.1-.54l.55-.53c1.08-.06,1.15-.81,1.11-1.63.73,0,1-.41,1.07-1.11.79-.57.47-1.42.54-2.18l.42-.58-.21-.15-.2.74c-.8.57-.52,1.41-.56,2.17-.74,0-1.06.39-1.1,1.08a1.65,1.65,0,0,0-1.08,1.64l-.54.56a1,1,0,0,0-1.08.55c-4.51,0-4.89-.45-6.11-4.71-.74-2.58-.09-5.22-.68-8.1A19,19,0,0,0,8.57,7c-.33,1.16-.12,2.7-1.9,2.84S4.09,8.7,3.43,7.38,2.24,4.6,1.58,3c-.32,4.68,1,6.74,5.24,8.53a1.92,1.92,0,0,1,1,1.16c1.16,2.84,2.36,5.66,3.55,8.49.58,1.37.05,2.09-1.35,2.23-.71.07-1.44,0-2.17,0ZM38.19,72c.8,1.31-.71,2.58.14,4,.41.67.34,1.79,1.46,1.29.89-.39,2.62-.46,2.28-1.83-.56-2.26-.11-4.52-.44-6.74-.21-1.35-1-2.36-2.59-2-1.93.49-3.73,2.07-5.85.73s-.92-3.81-1.57-6c-2,1.68-5.09,2-5.2,5.36A1.17,1.17,0,0,1,25.49,68c-.27.06-.41-.13-.49-.46-.48-2-2.14-1.64-3.5-1.54-1.55.11-2,1.43-2.12,2.71a34.4,34.4,0,0,0,0,3.7l3.47-2.18c-.35,1.81-1.55,2.25-2.58,2.92-.6.4-1.83,1-1.14,1.77,1.18,1.39,3,1.93,4.76,2.38,1.23.33,1.17-1.11,1.68-1.75.81-1,1.55-2.07,2.52-3.38.64,2.64-2.12,3.51-2.08,5.56a27.93,27.93,0,0,0,8,.71c1.2-.14,3.18-.24,3.38-.85.4-1.17-.46-2.5-1.71-3.33a1.11,1.11,0,0,1-.22-1.74L37,73.91C37.6,73.35,37,72.31,38.19,72Zm6.05-54.35a20.14,20.14,0,0,1-2.7-10.29A7.59,7.59,0,0,0,44.24,17.67ZM10.57,3.61c-.08-.31-.09-.66-.46-.45a.9.9,0,0,0-.38.58c0,.28.16.53.46.39S10.47,3.76,10.57,3.61Z" style="fill:#5b4759"/><path d="M49.44,25a2.74,2.74,0,0,0,3.42.06c.86-.69,1.65-.75,2.26.17s0,1.63-.81,2.13l-.08-.07c.13-1.47-.51-1.33-1.59-.9-1.39.54-2.91,1-3.31-1.27Z" style="fill:#5b4759"/><path d="M13.94,24.07c5.7-6,12.85-6.77,20.45-5.44a10.16,10.16,0,0,1,6,3.88c.7.88.9,1.82-.45,1.91-2.82.18-4.1,1.37-3.19,4.19.7,2.14,2.83,2.61,5.71,1.42l1.17-.44c1.65,8-.13,15.36-3.52,22.33-2.63,5.39-8.06,7.82-13,10.62-1.21.69-2.74.09-3.87-.68a91,91,0,0,1-9.52-7.12c-3.23-2.92-3.75-6.52-2.88-10.39a15.83,15.83,0,0,0,0-8.42C9.64,31.62,11.54,27.65,14,24Z" style="fill:#f8e8e9"/><path d="M38.19,72c-1.22.29-.59,1.33-1.18,1.89l-1.54-1.38a1.11,1.11,0,0,0,.22,1.74c1.25.83,2.11,2.16,1.71,3.33-.2.61-2.18.71-3.38.85a27.93,27.93,0,0,1-8-.71c0-2,2.72-2.92,2.08-5.56-1,1.31-1.71,2.38-2.52,3.38-.51.64-.45,2.08-1.68,1.75-1.73-.45-3.58-1-4.76-2.38-.69-.8.54-1.37,1.14-1.77,1-.67,2.23-1.11,2.58-2.92l-3.47,2.18a34.4,34.4,0,0,1,0-3.7c.15-1.28.57-2.6,2.12-2.71,1.36-.1,3-.48,3.5,1.54.08.33.22.52.49.46a1.17,1.17,0,0,0,.93-1.16c.11-3.4,3.19-3.68,5.2-5.36.65,2.17-.65,4.58,1.57,6s3.92-.24,5.85-.73c1.63-.41,2.38.6,2.59,2,.33,2.22-.12,4.48.44,6.74.34,1.37-1.39,1.44-2.28,1.83-1.12.5-1-.62-1.46-1.29C37.48,74.6,39,73.33,38.19,72Z" style="fill:#f8e8e9"/><path d="M49.33,25.08c.4,2.24,1.92,1.81,3.31,1.27,1.08-.43,1.72-.57,1.59.9-2.22.51-4.41,1.45-6.58-.42-.63-.53-1.68,0-2.52.48a29.74,29.74,0,0,1-4.34,2.25,2.27,2.27,0,0,1-3.17-1.63,1.82,1.82,0,0,1,1.85-2.36c2.71-.24,4.86-1.83,7-3.44.63-.48,1.58-.93,1.45-1.8s-1.18-.61-1.84-.81a1,1,0,0,1-.84-.92c.11-.14.23-.39.31-.38,4.84.75,5.3.59,7.46-3.68,1.84-3.63,3.77-7.27,2.51-11.6-.19-.65-.13-1.41.7-1.46.61,0,.77.67.77,1.23,0,1.9.05,3.81,0,5.71,0,1.29.27,2.42,1.55,2.89s2.16-.17,3.18-1c2-1.55,2.84-4.16,5.06-5.5l.08.07c-.39,3-2.44,5.18-4.11,7.5a2.45,2.45,0,0,1-1.83,1c-3.9-.78-5.63,1.92-7.4,4.5A45.06,45.06,0,0,1,49,23C48.25,23.8,47.55,24.68,49.33,25.08Z" style="fill:#785a77"/><path d="M16.06,18c-2.59.65-3.82,1.88-2,4.55.23.34,0,1-.08,1.54l0,0a7.89,7.89,0,0,0-3.12.32c-1.11.33-2.31.46-3-.91l0,0c.73,0,1.46.07,2.17,0,1.4-.14,1.93-.86,1.35-2.23C10.23,18.37,9,15.55,7.87,12.71a1.92,1.92,0,0,0-1-1.16C2.56,9.76,1.26,7.7,1.58,3,2.24,4.6,2.77,6,3.43,7.38S4.93,10,6.67,9.81,8.24,8.13,8.57,7a19,19,0,0,1,.72-1.78c.59,2.88-.06,5.52.68,8.1,1.22,4.26,1.6,4.7,6.11,4.71Z" style="fill:#785a77"/><path d="M44.24,17.67a7.59,7.59,0,0,1-2.7-10.29A20.14,20.14,0,0,0,44.24,17.67Z" style="fill:#785a77"/><path d="M17.7,16.89a1.65,1.65,0,0,1,1.08-1.64l0,0c0,.82,0,1.57-1.11,1.63Z" style="fill:#785a77"/><path d="M10.57,3.61c-.1.15-.19.43-.38.52s-.5-.11-.46-.39a.9.9,0,0,1,.38-.58C10.48,3,10.49,3.3,10.57,3.61Z" style="fill:#785a77"/><path d="M19.89,14.17c0,.7-.34,1.11-1.07,1.11l0,0c0-.69.36-1.1,1.1-1.08Z" style="fill:#785a77"/><path d="M19.88,14.17c0-.76-.24-1.6.56-2.17h0c-.07.76.25,1.61-.54,2.18Z" style="fill:#785a77"/><path d="M16.08,18a1,1,0,0,1,1.08-.55h0a1.13,1.13,0,0,1-1.1.54Z" style="fill:#785a77"/><path d="M20.44,12l.2-.74.21.15-.42.58Z" style="fill:#785a77"/><path d="M66.74,4.86l.25-.7.2.15-.37.62Z" style="fill:#785a77"/><path d="M7.36,22.88l.54.55,0,0-.55-.54Z" style="fill:#785a77"/><path d="M7.33,22.91l-.22-.25.25.22Z" style="fill:#785a77"/><path d="M17.16,17.45l.54-.56v0l-.55.53Z" style="fill:#785a77"/></g></g></svg>