<svg xmlns="http://www.w3.org/2000/svg" viewBox="0 0 49.64 69.64"><g id="Ebene_2" data-name="Ebene 2"><g id="Ebene_1-2" data-name="Ebene 1"><path d="M16.82,53.67C11.47,50.93,6.5,47.79,3.29,42.41a10.13,10.13,0,0,1-1-9A12.56,12.56,0,0,0,3,26.05a11.83,11.83,0,0,1,.22-6.45,2.52,2.52,0,0,0-.59-2.69C-1.34,12.11-.71,5.47,4,2A9.74,9.74,0,0,1,18.58,5.21c.55,1,1.28.85,2,.82a24.38,24.38,0,0,1,8,.91c1.16.36,1.61-.12,2.2-.93,2.9-3.93,6.89-5.49,11.38-4.23,4.25,1.2,6.64,4.27,7.33,8.54.59,3.65-1.68,9.78-7.48,11.08-2,.44-2.66,1.37-2.63,3.38.07,5-1.69,9.68-3.2,14.38a17.66,17.66,0,0,1-7.76,10.07,4.2,4.2,0,0,0-2.21,4.47c.15,1.79.48,2.79,2.76,2,5.28-1.83,7.59-.22,8.14,5.32.06.63,0,1.27,0,1.91,0,4.91,0,5.13-4.81,6.09a30.56,30.56,0,0,1-18.8-2.09C10.78,65.66,10,62.78,11,58c.56-2.87,2.07-3.92,5.23-3.64l2.54.61C18.26,53.75,17.34,54.08,16.82,53.67ZM37.71,25.31c-.44-1.11,1-2.85-1.11-3.83-3.57-1.64-7-7-7-11.12,0-1.06-.27-1.89-1.33-2-4-.27-8-1.22-12.1,0-8.33,2.52-13,10.15-11.28,18.66a8.67,8.67,0,0,1-.53,5.56,9.16,9.16,0,0,0,.8,9.46c2.85,4.46,7.1,7.09,11.54,9.6a4,4,0,0,0,3.81.11C31.49,47.31,37.53,38.13,37.71,25.31Zm-9.2,37.81c.67-1.07,1.53.49,2-.39.83-1.66,1.34-.47,1.09.22-.61,1.63.2,3,.37,4.47,1.35-.61,3.44-.27,3.53-2.34.13-2.84.56-5.84-1.57-8.23a2.45,2.45,0,0,0-2.52-.42c-5.91,1.45-5.92,1.41-6.34-4.8-2.45,1.18-5.66,1.33-5.83,5.1a1.14,1.14,0,0,1-1,1.09c-.17,0-.54-.27-.53-.4.13-2.06-1.38-1.74-2.57-1.72-1.49,0-2.08,1-2.52,2.35a6.2,6.2,0,0,0,.24,4,4.85,4.85,0,0,1,1-.34c1.06-.12,1.44-2.49,2.3-1.4s-1,2-1.94,2.73c-.36.28-.77.47-1.13.73s-.54.67-.21.9a12.68,12.68,0,0,0,4.36,2c1.55.35,1.37-1.1,2-1.7s.86-2,1.94-2.58a3.78,3.78,0,0,1,.19.8,2.87,2.87,0,0,1-.14,1.06c-1.32,3.27-1.32,3.27,2.31,3.5.64,0,1.26.15,1.9.18,1.71.09,4,.52,4.9-.58C31.38,65.9,29,64.64,28.51,63.12ZM41.34,10.69c3.4,2.12,3.67,3.93.91,5.8-1.18.79-2.41.45-3.65.29-1.92-.26-3.64-1.45-5.8-1.36.6,1.67,1,3.79,2.5,4,3.05.5,6.3,1.06,9.09-1.25A8.39,8.39,0,0,0,47,8.24a8.5,8.5,0,0,0-9.59-4.88c-3.08.52-6.58,4.33-6.85,7.57a4.72,4.72,0,0,0,.34,2.1A1.89,1.89,0,0,0,32,14.1c.67.11.64-.66.86-1.14a13.86,13.86,0,0,1,4.68-5.84c1.34-.93,2.83-1.82,4.4-.37S42,9.46,41.34,10.69ZM6.76,12.4c-1.24-.69-3.33.14-3.37-2s1-3.21,3.1-3.23c.65,0,.58-.48.71-.91.53-1.64,1.46-3.16,3.37-2.82,2.13.38,3.08,2,2.44,4.27a20,20,0,0,1,2.59-.52c2-.09,1.89-1,1-2.32a5.26,5.26,0,0,0-1.22-1.39A8.8,8.8,0,0,0,4,4.08C1,7,.69,13.2,4.15,16Zm32.92.08a.61.61,0,0,1-.9-.34c-.22-.49.11-.85.42-1.18.56-.59,1.12-1.18,1.66-1.79.29-.32.74-.73.43-1.15a1.67,1.67,0,0,0-1.17-.41c-1.85,0-5.62,3.61-6,5.71-.15.88.91,1.37,4.37,2a5.07,5.07,0,0,1,1,.29,2.26,2.26,0,0,0,2.84-.92c.4-.5.68-1.19.16-1.73A2.1,2.1,0,0,0,39.68,12.48ZM6.64,11a5.32,5.32,0,0,0,5-3.73c.32-1.08.51-1.92-.78-2.35s-1.94.55-2.45,1.5a2.35,2.35,0,0,0-.1,1.07c0,1-.19,1.65-1.39,1.08A1.45,1.45,0,0,0,4.67,9.71C4.49,11.22,5.92,10.81,6.64,11Z" style="fill:#5b475a"/><path d="M37.71,25.31c-.18,12.82-6.22,22-17.25,26.5a4,4,0,0,1-3.81-.11C12.21,49.19,8,46.56,5.11,42.1a9.16,9.16,0,0,1-.8-9.46,8.67,8.67,0,0,0,.53-5.56c-1.73-8.51,3-16.14,11.28-18.66,4.08-1.24,8.07-.29,12.1,0,1.06.07,1.3.9,1.33,2,.1,4.1,3.48,9.48,7.05,11.12C38.71,22.46,37.27,24.2,37.71,25.31Z" style="fill:#f9e9ea"/><path d="M28.51,63.12c.48,1.52,2.87,2.78,1.81,4.15-.86,1.1-3.19.67-4.9.58-.64,0-1.26-.14-1.9-.18-3.63-.23-3.63-.23-2.31-3.5a2.87,2.87,0,0,0,.14-1.06,3.78,3.78,0,0,0-.19-.8c-1.08.61-1.18,1.85-1.94,2.58s-.44,2-2,1.7a12.68,12.68,0,0,1-4.36-2c-.33-.23-.11-.67.21-.9s.77-.45,1.13-.73c1-.74,2.69-1.79,1.94-2.73s-1.24,1.28-2.3,1.4a4.85,4.85,0,0,0-1,.34,6.2,6.2,0,0,1-.24-4c.44-1.35,1-2.33,2.52-2.35,1.19,0,2.7-.34,2.57,1.72,0,.13.36.41.53.4a1.14,1.14,0,0,0,1-1.09c.17-3.77,3.38-3.92,5.83-5.1.42,6.21.43,6.25,6.34,4.8a2.45,2.45,0,0,1,2.52.42c2.13,2.39,1.7,5.39,1.57,8.23-.09,2.07-2.18,1.73-3.53,2.34-.17-1.5-1-2.84-.37-4.47.25-.69-.26-1.88-1.09-.22C30,63.61,29.18,62.05,28.51,63.12Z" style="fill:#f9e9ea"/><path d="M41.34,10.69c.69-1.23,2.3-2.37.61-3.94s-3.06-.56-4.4.37A13.86,13.86,0,0,0,32.87,13c-.22.48-.19,1.25-.86,1.14A1.89,1.89,0,0,1,30.86,13a4.72,4.72,0,0,1-.34-2.1c.27-3.24,3.77-7,6.85-7.57A8.5,8.5,0,0,1,47,8.24a8.39,8.39,0,0,1-2.57,10c-2.79,2.31-6,1.75-9.09,1.25-1.55-.25-1.9-2.37-2.5-4,2.16-.09,3.88,1.1,5.8,1.36,1.24.16,2.47.5,3.65-.29C45,14.62,44.74,12.81,41.34,10.69Z" style="fill:#f0e4f0"/><path d="M6.76,12.4,4.15,16C.69,13.2,1,7,4,4.08a8.8,8.8,0,0,1,11.35-.62A5.26,5.26,0,0,1,16.6,4.85c.89,1.36,1,2.23-1,2.32A20,20,0,0,0,13,7.69c.64-2.32-.31-3.89-2.44-4.27C8.66,3.08,7.73,4.6,7.2,6.24c-.13.43-.06.91-.71.91-2.12,0-3.13,1.22-3.1,3.23S5.52,11.71,6.76,12.4Z" style="fill:#f0e4f0"/><path d="M39.68,12.48a2.1,2.1,0,0,1,2.85.5c.52.54.24,1.23-.16,1.73a2.26,2.26,0,0,1-2.84.92,5.07,5.07,0,0,0-1-.29c-3.46-.65-4.52-1.14-4.37-2,.37-2.1,4.14-5.73,6-5.71A1.67,1.67,0,0,1,41.29,8c.31.42-.14.83-.43,1.15-.54.61-1.1,1.2-1.66,1.79-.31.33-.64.69-.42,1.18A.61.61,0,0,0,39.68,12.48Z" style="fill:#c09dbe"/><path d="M6.64,11c-.72-.15-2.15.26-2-1.25A1.45,1.45,0,0,1,6.9,8.53c1.2.57,1.4-.1,1.39-1.08a2.35,2.35,0,0,1,.1-1.07c.51-1,1-2,2.45-1.5s1.1,1.27.78,2.35A5.32,5.32,0,0,1,6.64,11Z" style="fill:#c09dbe"/><path d="M16.82,53.67c.52.41,1.44.08,1.92,1.27l-2.54-.61Z" style="fill:#fffeff"/></g></g></svg>