<svg xmlns="http://www.w3.org/2000/svg" viewBox="0 0 39.2 66.98"><g id="Ebene_2" data-name="Ebene 2"><g id="Ebene_1-2" data-name="Ebene 1"><path d="M15.15,51C9.81,48.29,4.85,45.14,1.63,39.78a10.19,10.19,0,0,1-1-9,14,14,0,0,0,.67-7.32A15.56,15.56,0,0,1,4.35,10.68,5.6,5.6,0,0,0,5.48,6.75C5.39,3.16,6.37,1.43,9.39.26c.85-.33,1.33-.16,1.72,1,.82,2.29,2.25,3.08,5,2.46a18.94,18.94,0,0,1,11.2.81c2.27.92,3.76.43,5.1-1.4a15.43,15.43,0,0,0,1.42-1.64c1.38-2.63,1.47-1.12,2.88.28C39,3.91,38,6.55,39,8.78c.76,1.6-.86,2.61-1.41,3.74a4,4,0,0,0-.35,2.72c1.75,9.88-.73,18.86-5.87,27.22-1.26,2-3.31,3.32-5.27,4.64-1.54,1-2,4.23-1,5.84.51.86,1,.47,1.54.28,6.43-2.12,8.68-.89,8.88,7.1.11,4.74.07,5-4.58,5.94a28.75,28.75,0,0,1-20-2.57c-1.65-.88-2.54-6.42-1.5-9.17.86-2.3,2.49-3.47,5.07-2.84l2.54.61C16.6,51.1,15.67,51.43,15.15,51Zm21.1-29.2c-.4-2.18,0-3.88-.55-5.61-.4-1.39-.79-1.58-1.94-.85-.75.48-1.28,1.4-2.56.63-2.81-1.69-4.49-5.22-3.38-8.25.49-1.35,0-1.83-1.08-1.93-4-.37-8-1.25-12.08-.12A15.8,15.8,0,0,0,3.18,24.44,8.64,8.64,0,0,1,2.64,30a9.17,9.17,0,0,0,.8,9.45C6.49,44.21,11.09,47,15.92,49.49a2.07,2.07,0,0,0,1.83.06c4.38-1.77,8.63-3.87,11.69-7.56C34.39,36,35.26,28.67,36.25,21.82ZM26.87,60.35c2.17-.18,2.27,0,2.91,2.2.2.69-.13,1.71.7,2.1s3.33-1.24,3.36-2.37a18.69,18.69,0,0,0-.49-6.18c-.67-2.12-1.77-2.85-4-2.15-6.13,1.91-6,.24-5.84-4.47,0-.13-.16-.26-.27-.44-2.34,1.12-5.44,1.32-5.63,4.93a1.67,1.67,0,0,1-.51.92c-.46.44-1.2.52-1.05-.26.38-1.93-1.14-1.4-1.93-1.56a2.39,2.39,0,0,0-2.89,1.45,5.27,5.27,0,0,0,0,4.74,3.34,3.34,0,0,0,2.3-1.44c.27-.34.51-.85,1-.37s.12.76-.13,1.15a6.37,6.37,0,0,1-2.45,2.07c-1.14.62-1.09,1.15,0,1.86,3.26,2.06,4.22,1.88,6.31-1.28.34-.52.24-1.5,1.34-1.43,0,.35.05.71.07,1.07.07,1.38-2.39,2.27-1.08,3.67,1,1,2.79.24,4.2.54a5.55,5.55,0,0,0,1.62.13c1.49-.1,3.54.46,4.28-.72S27.64,62.09,27,60.86A2.11,2.11,0,0,1,26.87,60.35ZM35.34,2C33.44,3.17,32.76,5,31.19,6c-3.47,2.17-3.57,5-.6,7.87,1.07,1,1.76,1.07,2.68-.27C35.6,10.12,35.77,6.36,35.34,2ZM12,4.77A9.41,9.41,0,0,0,9.59,1.66c-.8,1.66-1.79,3.14-1,5.13Z" style="fill:#5b475a"/><path d="M36.25,21.82C35.26,28.67,34.39,36,29.44,42c-3.06,3.69-7.31,5.79-11.69,7.56a2.07,2.07,0,0,1-1.83-.06C11.09,47,6.49,44.21,3.44,39.44A9.17,9.17,0,0,1,2.64,30a8.64,8.64,0,0,0,.54-5.55A15.8,15.8,0,0,1,14.66,5.69c4.08-1.13,8.06-.25,12.08.12,1.09.1,1.57.58,1.08,1.93-1.11,3,.57,6.56,3.38,8.25,1.28.77,1.81-.15,2.56-.63,1.15-.73,1.54-.54,1.94.85C36.2,17.94,35.85,19.64,36.25,21.82Z" style="fill:#f9e9ea"/><path d="M26.87,60.35a2.11,2.11,0,0,0,.12.51c.65,1.23,2.52,2.4,1.73,3.65s-2.79.62-4.28.72a5.55,5.55,0,0,1-1.62-.13c-1.41-.3-3.2.51-4.2-.54-1.31-1.4,1.15-2.29,1.08-3.67,0-.36-.05-.72-.07-1.07-1.1-.07-1,.91-1.34,1.43-2.09,3.16-3,3.34-6.31,1.28-1.13-.71-1.18-1.24,0-1.86a6.37,6.37,0,0,0,2.45-2.07c.25-.39.58-.75.13-1.15s-.76,0-1,.37a3.34,3.34,0,0,1-2.3,1.44,5.27,5.27,0,0,1,0-4.74,2.39,2.39,0,0,1,2.89-1.45c.79.16,2.31-.37,1.93,1.56-.15.78.59.7,1.05.26a1.67,1.67,0,0,0,.51-.92c.19-3.61,3.29-3.81,5.63-4.93.11.18.27.31.27.44-.17,4.71-.29,6.38,5.84,4.47,2.26-.7,3.36,0,4,2.15a18.69,18.69,0,0,1,.49,6.18c0,1.13-2.44,2.82-3.36,2.37s-.5-1.41-.7-2.1C29.14,60.39,29,60.17,26.87,60.35Z" style="fill:#f9e9ea"/><path d="M35.34,2c.43,4.32.26,8.08-2.07,11.51-.92,1.34-1.61,1.3-2.68.27-3-2.85-2.87-5.7.6-7.87C32.76,5,33.44,3.17,35.34,2Z" style="fill:#f0e4f0"/><path d="M12,4.77l-3.41,2c-.75-2,.24-3.47,1-5.13A9.41,9.41,0,0,1,12,4.77Z" style="fill:#f0e4f0"/><path d="M15.15,51c.52.41,1.45.08,1.93,1.27l-2.54-.61Z" style="fill:#fffeff"/></g></g></svg>