<svg xmlns="http://www.w3.org/2000/svg" viewBox="0 0 53.12 69.76"><g id="Ebene_2" data-name="Ebene 2"><g id="Ebene_1-2" data-name="Ebene 1"><path d="M20.91,54.79c-6.69-3-12.34-6.36-15.91-12.4a9.94,9.94,0,0,1-.94-8.77A12.26,12.26,0,0,0,4.69,26a11.3,11.3,0,0,1,0-5.39,2.62,2.62,0,0,0-1.13-3.29C-.1,14.47-1.18,6.4,1.45,2.8A5.55,5.55,0,0,1,7.83.44c3.41.87,6.5,2.19,8.39,5.34a1.84,1.84,0,0,0,2.3.86,20.18,20.18,0,0,1,9.4,0A2.57,2.57,0,0,0,30.7,5.45C35.45-.1,41.86-.48,48.34.32c2.72.33,4,3,4.52,5.77,1,6-.91,13.33-7.19,15.49-.34.12-.69.43-1,.38-3.8-.58-3.24,2.17-3.54,4.43C40.25,33,38.87,39.45,35,45.07a14.94,14.94,0,0,1-5,4.51c-2.57,1.45-2,3.54-1.58,5.66.2,1,.72,1.08,1.76.74,6.4-2.1,8.57-.86,8.81,6.89.15,5,.08,5.22-4.63,6.18-6.79,1.38-13.5.84-19.72-2.49-3.48-1.86-1.61-5.28-1.8-8-.15-2,1-3.47,3.15-4.16C17.55,53.88,18.8,55.19,20.91,54.79Zm-14.19-41c-.36,0-.78.12-1.06,0-.5-.27,0-.57.14-.81.82-1.13,2.17-.52,3.31-1-.85-1.87-2.76-2.8-3.94-4.64,2.46-.09,3,2.34,4.82,3,.1-2.56-1.39-4.27-2.85-6-.78-.93-1.82-1.91-3-1.58s-2,1.64-2.35,3.06c-.79,3,.6,5.66,1.35,8.4a2.67,2.67,0,0,0,2.41,2.25c1.15,0,1.11-1.46,1.53-2.31.17-.22.76-.32.41-.7S6.9,13.37,6.72,13.74Zm28.05-3.59c2.94-2.93,6.38-4.38,10.57-3.41,1.29.3,2.8.56,2.79,2.59-4.23-2.64-9-1.93-11.55,1.59,4.61-.59,7.82,2.15,6.84,5.83-3-4.92-3-4.93-7.1-4.19A9.21,9.21,0,0,1,40,18.69c.35,2.14,2.18,2.5,4,2,6-1.59,9.82-11.14,6.7-16.57a3.88,3.88,0,0,0-3.14-2.31C42.94,1.59,36.13,4,34.3,9.76c0,.31-.17.83-.07.88C34.66,10.86,34.62,10.37,34.77,10.15ZM39.62,25c.43-3.14-1-5.9-1.93-8.65-.52-1.59-1.86-3.46-4.48-2.58a2.61,2.61,0,0,1-3.44-2.22c-.55-3.45-3.08-3.44-5.54-3.73a17.35,17.35,0,0,0-5.65.57c-8.09,1.73-13.74,9.91-12.2,17.87a11.45,11.45,0,0,1-.56,7.1,8.58,8.58,0,0,0,.57,8c3,5.2,7.77,8.18,12.88,10.8a2.07,2.07,0,0,0,1.82.16c4.48-1.8,8.79-4,11.92-7.74C37.69,38.94,38.5,31.9,39.62,25ZM30.28,63.16c.63-.61,1-.18,1.41-.11a3.17,3.17,0,0,1,1.38,1.42c.21,1,.51,2,.77,3a9.31,9.31,0,0,0,2.28-.79c2.33-1.54,1.08-4,1-5.91,0-1.63-.27-3.72-2.49-4.32a3.21,3.21,0,0,0-1.34.05c-5.93,1.2-5.93,1.2-6.6-4.75-.92.41-1.82.8-2.71,1.21s-1.85.56-2.32,1.18,0,1.94-.7,2.81c-.32.41-.44,1-1.11,1-.25,0-.56-.11-.48-.49.43-2-1.12-1.51-2.07-1.64a2.41,2.41,0,0,0-2.78,1.66,5.28,5.28,0,0,0,.1,4.62,2.73,2.73,0,0,1,.78-.28c1.18,0,1.58-2.63,2.51-1.36.72,1-1.19,2.07-2.25,2.86-.14.1-.35.12-.49.22-1,.66-.8,1.09.16,1.71,3.22,2.11,4.24,1.94,6.32-1.18.36-.54.3-1.5,1.38-1.54a4.21,4.21,0,0,1,0,1.32c-1.06,3.67-1.07,3.67,2.81,4,.37,0,.72.1,1.09.11,1.78,0,4.15.62,5.11-.64S30.71,64.71,30.28,63.16ZM7,2c2.12,2.31,4.39,4.42,4.21,7.93a26.25,26.25,0,0,1,2.86-1.58c1.68-.68,1.6-1.58.55-2.75A10.72,10.72,0,0,0,7,2ZM39.26,2c-3.68.87-6.35,3.24-8.69,5.93-1.1,1.26,0,2.77.8,3.9.58.84,1,.2,1.14-.56C33.2,7,35.73,4.14,39.26,2Z" style="fill:#5b475a"/><path d="M39.62,25C38.5,31.9,37.69,38.94,33,44.61c-3.13,3.78-7.44,5.94-11.92,7.74a2.07,2.07,0,0,1-1.82-.16c-5.11-2.62-9.89-5.6-12.88-10.8a8.58,8.58,0,0,1-.57-8,11.45,11.45,0,0,0,.56-7.1c-1.54-8,4.11-16.14,12.2-17.87a17.35,17.35,0,0,1,5.65-.57c2.46.29,5,.28,5.54,3.73a2.61,2.61,0,0,0,3.44,2.22c2.62-.88,4,1,4.48,2.58C38.6,19.11,40.05,21.87,39.62,25Z" style="fill:#f9e9ea"/><path d="M30.28,63.16c.43,1.55,2.86,2.83,1.84,4.15S28.79,68,27,68c-.37,0-.72-.08-1.09-.11-3.88-.33-3.87-.33-2.81-4a4.21,4.21,0,0,0,0-1.32c-1.08,0-1,1-1.38,1.54-2.08,3.12-3.1,3.29-6.32,1.18-1-.62-1.15-1-.16-1.71.14-.1.35-.12.49-.22,1.06-.79,3-1.9,2.25-2.86-.93-1.27-1.33,1.36-2.51,1.36a2.73,2.73,0,0,0-.78.28,5.28,5.28,0,0,1-.1-4.62,2.41,2.41,0,0,1,2.78-1.66c.95.13,2.5-.31,2.07,1.64-.08.38.23.48.48.49.67,0,.79-.59,1.11-1,.67-.87.17-2.08.7-2.81S23.22,53.32,24,53s1.79-.8,2.71-1.21c.67,5.95.67,5.95,6.6,4.75a3.21,3.21,0,0,1,1.34-.05c2.22.6,2.47,2.69,2.49,4.32,0,2,1.29,4.37-1,5.91a9.31,9.31,0,0,1-2.28.79c-.26-1-.56-2-.77-3a3.17,3.17,0,0,0-1.38-1.42C31.28,63,30.91,62.55,30.28,63.16Z" style="fill:#f9e9ea"/><path d="M34.3,9.76C36.13,4,42.94,1.59,47.54,1.82a3.88,3.88,0,0,1,3.14,2.31c3.12,5.43-.74,15-6.7,16.57-1.82.49-3.65.13-4-2a9.21,9.21,0,0,0-3.66-6.13c4.06-.74,4.08-.73,7.1,4.19,1-3.68-2.23-6.42-6.84-5.83C39.14,7.4,43.9,6.69,48.13,9.33c0-2-1.5-2.29-2.79-2.59-4.19-1-7.63.48-10.57,3.41Z" style="fill:#c09dbe"/><path d="M7.13,14.12c-.43.85-.39,2.27-1.54,2.31a2.67,2.67,0,0,1-2.41-2.25C2.43,11.44,1,8.8,1.83,5.78,2.2,4.36,2.9,3.1,4.18,2.72s2.18.65,3,1.58c1.46,1.71,3,3.42,2.85,6-1.79-.64-2.36-3.07-4.82-3,1.18,1.84,3.09,2.77,3.94,4.64-1.14.43-2.49-.18-3.31,1-.18.24-.64.54-.14.81.28.16.7,0,1.06,0Z" style="fill:#c09dbe"/><path d="M7,2a10.72,10.72,0,0,1,7.62,3.6c1,1.17,1.13,2.07-.55,2.75a26.25,26.25,0,0,0-2.86,1.58C11.4,6.42,9.13,4.31,7,2Z" style="fill:#f0e4f0"/><path d="M39.26,2C35.73,4.14,33.2,7,32.51,11.22c-.12.76-.56,1.4-1.14.56-.77-1.13-1.9-2.64-.8-3.9C32.91,5.19,35.58,2.82,39.26,2Z" style="fill:#f0e4f0"/><path d="M34.77,10.15c-.15.22-.11.71-.54.49-.1-.05,0-.57.07-.88Z" style="fill:#c09dbe"/><path d="M6.72,13.74c.18-.37.57-.59.81-.32s-.24.48-.41.7Z" style="fill:#c09dbe"/></g></g></svg>