<svg xmlns="http://www.w3.org/2000/svg" viewBox="0 0 49.22 63.74"><g id="Ebene_2" data-name="Ebene 2"><g id="Ebene_1-2" data-name="Ebene 1"><path d="M20.64,48.72A51,51,0,0,1,6,38.1c-2.26-2.29-5-3.85-5.8-7.25s.49-7.5,3.55-9.16c1.91-1,1.12-2.53,1.07-3.76A16.66,16.66,0,0,1,17.11,1.12c7.17-1.9,14.19-1.83,20,3.71C40.79,8.36,41.8,13,41.65,18c0,1.19,0,1.92,1.42,2.37a8.51,8.51,0,0,1,5.87,10.41c-1.26,5-5.52,8-10.31,6.91-1.53-.34-2.33-.12-3.09,1a14.61,14.61,0,0,1-5.15,4.77c-1.72,1-2.06,2.26-2,4,.06,2.14.55,3.11,3,2.26,5-1.72,6.55-.77,7.66,4.27a13.3,13.3,0,0,1,.24,3c0,4.82-.43,5.51-5.27,6.3a34.07,34.07,0,0,1-15.79-1.19c-4.83-1.53-5.67-3-5.37-8.63C13.1,49,15.1,47.8,20.64,48.72ZM39.93,17.44c-.19-6-1.91-10.59-6.4-13.34S23.91,1.35,18.86,2.41A15.66,15.66,0,0,0,6.7,20a13.07,13.07,0,0,1-.62,7.63c-1.17,2.84-.66,5.51,1,8.2,3,5,7.68,7.76,12.59,10.34a2.35,2.35,0,0,0,2.07,0,32.68,32.68,0,0,0,11-6.79c1.35-1.29,3-2.66,1.06-4.79-.59-.64-.43-1.53-.48-2.34-.21-2.78,1.12-5.24,1.53-7.87.28-1.79,1-3.11,2.5-3.43C40,20.42,40.13,18.7,39.93,17.44ZM27.14,45.8c-3.72,1.49-3.72,1.49-5.83,5.16-.27.46-.46,1-1.13,1a.74.74,0,0,1-.43-.52c-.3-2.13-1.92-1.74-3.2-1.49-1.76.34-1.87,2.07-2.12,3.43-.16.82,0,2.35.48,2.52,1.09.44,1.84-.67,2.49-1.49.28-.35.53-.47.88-.19s.29.6.07.94a7.35,7.35,0,0,1-2.6,2.32c-.53.29-1.47.59-.48,1.55,2.24,2.15,4.75,1.92,6.47-.52.46-.66.45-1.79,1.65-1.95,0,.39.06.74.08,1.1.09,1.4-2.4,2.3-1.09,3.67,1.07,1.12,3,.24,4.46.61a3.64,3.64,0,0,0,.81.07c1.68,0,3.93.56,4.83-.7s-1.26-2.5-1.8-3.89a1.11,1.11,0,0,1-.05-.25c.35-.43.72-.38,1.2-.18a5.56,5.56,0,0,1,1.54,1.84c.23.89.56,1.77.85,2.65.85-.28,1.72-.51,2.54-.86a1.49,1.49,0,0,0,.89-1.52c-.07-2.07.13-4.14-.52-6.18s-1.74-2.89-4-2.18c-6.23,1.95-6,.16-5.86-4.44A2.49,2.49,0,0,0,27.14,45.8ZM47,28.07a5.93,5.93,0,0,0-5.19-6.16c-3.89-.41-5.25.69-6.3,5.08A8.06,8.06,0,0,0,35,29.06c.11,1.69-.83,3.51,1,5,2.13,1.73,4.31,2.64,6.92,1.36C45.67,34.06,47,31.77,47,28.07ZM4.92,35.28c-2.11-3.82-.84-7.34.54-10.88.18-.47.81-1.11,0-1.65s-1.13.16-1.58.55C.46,26.24.84,31.89,4.92,35.28Z" style="fill:#5b475a"/><path d="M39.93,17.44c.2,1.26.09,3-2.63,3.56-1.54.32-2.22,1.64-2.5,3.43-.41,2.63-1.74,5.09-1.53,7.87,0,.81-.11,1.7.48,2.34,2,2.13.29,3.5-1.06,4.79a32.68,32.68,0,0,1-11,6.79,2.35,2.35,0,0,1-2.07,0c-4.91-2.58-9.58-5.37-12.59-10.34-1.63-2.69-2.14-5.36-1-8.2A13.07,13.07,0,0,0,6.7,20,15.66,15.66,0,0,1,18.86,2.41C23.91,1.35,29,1.35,33.53,4.1S39.74,11.4,39.93,17.44Z" style="fill:#f9e9ea"/><path d="M27.14,45.8a2.49,2.49,0,0,1,.12.46c-.17,4.6-.37,6.39,5.86,4.44,2.27-.71,3.34.07,4,2.18s.45,4.11.52,6.18a1.49,1.49,0,0,1-.89,1.52c-.82.35-1.69.58-2.54.86-.29-.88-.62-1.76-.85-2.65A5.56,5.56,0,0,0,31.83,57c-.48-.2-.85-.25-1.2.18a1.11,1.11,0,0,0,.05.25c.54,1.39,2.7,2.63,1.8,3.89s-3.15.66-4.83.7a3.64,3.64,0,0,1-.81-.07c-1.49-.37-3.39.51-4.46-.61-1.31-1.37,1.18-2.27,1.09-3.67,0-.36,0-.71-.08-1.1-1.2.16-1.19,1.29-1.65,1.95-1.72,2.44-4.23,2.67-6.47.52-1-1,0-1.26.48-1.55a7.35,7.35,0,0,0,2.6-2.32c.22-.34.27-.66-.07-.94s-.6-.16-.88.19c-.65.82-1.4,1.93-2.49,1.49-.45-.17-.64-1.7-.48-2.52.25-1.36.36-3.09,2.12-3.43,1.28-.25,2.9-.64,3.2,1.49a.74.74,0,0,0,.43.52c.67.07.86-.5,1.13-1C23.42,47.29,23.42,47.29,27.14,45.8Z" style="fill:#f9e9ea"/><path d="M47,28.07c0,3.7-1.31,6-4.07,7.35-2.61,1.28-4.79.37-6.92-1.36-1.82-1.49-.88-3.31-1-5A8.06,8.06,0,0,1,35.49,27c1-4.39,2.41-5.49,6.3-5.08A5.93,5.93,0,0,1,47,28.07Z" style="fill:#f0e4f0"/><path d="M4.92,35.28c-4.08-3.39-4.46-9-1-12,.45-.39.81-1.07,1.58-.55s.18,1.18,0,1.65C4.08,27.94,2.81,31.46,4.92,35.28Z" style="fill:#f0e4f0"/></g></g></svg>