<svg xmlns="http://www.w3.org/2000/svg" viewBox="0 0 45.67 107.34"><g id="Ebene_2" data-name="Ebene 2"><g id="Ebene_1-2" data-name="Ebene 1"><path d="M21.12,92.4A43.35,43.35,0,0,1,9,84.17c-4.22-4.27-6.12-9.08-3.5-14.91A6.6,6.6,0,0,0,5.81,65,16.67,16.67,0,0,1,7.48,52.77a2.93,2.93,0,0,0,0-3.46c-1.38-2.11-1.54-4.69-2.32-7-1,0-.91.9-1.41,1.24-.93.62-1.47,2.34-2.76,1.74-1-.46-1-2-1-3.14A70.46,70.46,0,0,1,1.58,25.51c1.13-4.61,4.48-7,8.81-8.55,1.34-.48,1.48.08,2,.77,3,4.22,3.74,9.26,5,14.08a52.73,52.73,0,0,1,1.81,12.28,23.11,23.11,0,0,1,7.67-.23c2.11.27,2.14-.75,2.27-2.18.35-4.06.19-8.13.67-12.2a52.08,52.08,0,0,1,3.34-12.41,69.39,69.39,0,0,1,7.7-15.35c.54-.77,1.1-2,2.21-1.66s.45,1.59.53,2.43c.75,8.36,1.86,16.72,2.08,25.1A42.79,42.79,0,0,1,40.35,49.4c-.41.75-.81,1.4-.37,2.26,3.66,7.08,2.1,14.19.17,21.32-1.64,6.1-4.35,11.42-10.1,14.73-1.34.77-1.57,4.43-.67,5.71.59.83,1.05.26,1.62.09,6.41-1.94,8.36-.75,8.77,6.78a2.43,2.43,0,0,1,0,.27c0,5.12,0,5.35-5,6.24a31.17,31.17,0,0,1-18.56-2.13c-3.31-1.49-4-9.78-1.07-12C17.05,91.27,19,92.08,21.12,92.4ZM40.3,61.83c0-1,0-2,0-3-.14-3.74-.54-4.1-3.64-4.93a11.48,11.48,0,0,1-7.4-5.85c-1-2.19-2.21-2.36-3.85-2.6a16.93,16.93,0,0,0-5.92.52c-8.1,1.7-13.78,9.77-12.29,17.8a12.34,12.34,0,0,1-.6,7.36,8.71,8.71,0,0,0,.86,8.23c3,5.08,7.8,7.89,12.79,10.51a2.1,2.1,0,0,0,1.83,0c4.47-1.83,8.81-4,11.86-7.81C38.6,76.18,39.55,69,40.3,61.83ZM27.61,89.35c-2.52,1.15-5.59,1.4-5.78,5a1.6,1.6,0,0,1-.52.92c-.47.44-1.17.51-1-.29.28-1.82-1.12-1.4-1.94-1.55a2.41,2.41,0,0,0-2.88,1.48,5.24,5.24,0,0,0,0,4.71,3.23,3.23,0,0,0,2.31-1.45c.29-.35.53-.83,1-.35s.1.77-.16,1.16A6.55,6.55,0,0,1,16.18,101c-1.15.62-1,1.16.07,1.86,3.27,2,4.21,1.88,6.31-1.31.33-.51.23-1.49,1.33-1.41,0,.37.05.72.06,1.08.06,1.38-2.38,2.28-1.06,3.66,1,1,2.79.25,4.2.55a5.58,5.58,0,0,0,1.63.12c1.48-.11,3.53.46,4.26-.73s-1.1-2.42-1.75-3.66a1.93,1.93,0,0,1-.09-.5c.37-.43.73-.24,1.2-.14a2.54,2.54,0,0,1,1.53,1.6c.15,1,.43,1.89.66,2.84a8.3,8.3,0,0,0,2.47-.77c2.22-1.59,1-4,1-6-.06-1.62-.29-3.75-2.58-4.24a3.6,3.6,0,0,0-1.56.23c-5.89,1.47-5.92,1.45-6.1-4.44A3,3,0,0,0,27.61,89.35ZM40,12.52c-7.3,9.93-6.87,21.45-7.25,33.27.93-1.37-.22-3.38,1.57-3.41.54,0,3.73.18,2.28,2.89-.17.33-.26,1,0,1.18C42.7,35.73,41.31,24.15,40,12.52ZM15.75,45.44c1.66-.31,2.35-.84,2.16-2.25a103.5,103.5,0,0,0-4.14-18.9c-.6-1.78-.94-3.68-2.19-5.18-.49-.6-1-1.46-2-.84C6.41,20.39,3,22.7,2.4,26.66a62,62,0,0,0-.68,16.62,5.83,5.83,0,0,0,2.13-2.61,81.24,81.24,0,0,0,6-16.12c.29-1.21.27-2.77,1.54-3.27C12.36,29.5,16.06,37,15.75,45.44ZM42.51,2.77l-.72-.53a5.29,5.29,0,0,1-.39,1C32.46,16.56,30,31.52,30.05,47.17c0,.7.23,1.42.95,1.36.93-.08.5-1,.53-1.54.28-5.87-.26-11.75.56-17.63,1-7.55,4.47-14,8.72-20.81C42.73,23.33,44,37.44,36.33,50.86a1.74,1.74,0,0,0,1.78-1.08c4.36-7.23,6-15.21,6-23.51C44.07,18.42,42.16,10.67,42.51,2.77ZM14.17,42.93c-.06-5.65-1.63-10.76-3.34-16.24-1,2.86-1.7,5.27-2.66,7.58-1.21,2.9-.19,5.44.89,8,.26.63.51,1,.86.06C11.23,43.12,12.81,41.14,14.17,42.93ZM6.55,39A20,20,0,0,0,8.92,49c.2.38.46.91,1,.6s.31-.7.13-1.17C8.86,45.27,7.71,42.13,6.55,39Zm27,12.2.5.14a31.66,31.66,0,0,0,1.25-3.58c.13-.54.54-1.57-.55-1.7-.78-.08-.92.7-1,1.34C33.71,48.66,33.64,49.92,33.57,51.19Z" style="fill:#5b475a"/><path d="M40.3,61.83c-.75,7.18-1.7,14.35-6.37,20.24-3.05,3.84-7.39,6-11.86,7.81a2.1,2.1,0,0,1-1.83,0c-5-2.62-9.76-5.43-12.79-10.51a8.71,8.71,0,0,1-.86-8.23,12.34,12.34,0,0,0,.6-7.36c-1.49-8,4.19-16.1,12.29-17.8a16.93,16.93,0,0,1,5.92-.52c1.64.24,2.84.41,3.85,2.6a11.48,11.48,0,0,0,7.4,5.85c3.1.83,3.5,1.19,3.64,4.93C40.33,59.83,40.3,60.83,40.3,61.83Z" style="fill:#f9e9ea"/><path d="M27.61,89.35a3,3,0,0,1,.12.47c.18,5.89.21,5.91,6.1,4.44A3.6,3.6,0,0,1,35.39,94c2.29.49,2.52,2.62,2.58,4.24.07,2,1.25,4.37-1,6a8.3,8.3,0,0,1-2.47.77c-.23-1-.51-1.88-.66-2.84a2.54,2.54,0,0,0-1.53-1.6c-.47-.1-.83-.29-1.2.14a1.93,1.93,0,0,0,.09.5c.65,1.24,2.52,2.4,1.75,3.66s-2.78.62-4.26.73a5.58,5.58,0,0,1-1.63-.12c-1.41-.3-3.2.5-4.2-.55-1.32-1.38,1.12-2.28,1.06-3.66,0-.36,0-.71-.06-1.08-1.1-.08-1,.9-1.33,1.41-2.1,3.19-3,3.36-6.31,1.31-1.12-.7-1.22-1.24-.07-1.86A6.55,6.55,0,0,0,18.63,99c.26-.39.6-.75.16-1.16s-.75,0-1,.35a3.23,3.23,0,0,1-2.31,1.45,5.24,5.24,0,0,1,0-4.71,2.41,2.41,0,0,1,2.88-1.48c.82.15,2.22-.27,1.94,1.55-.13.8.57.73,1,.29a1.6,1.6,0,0,0,.52-.92C22,90.75,25.09,90.5,27.61,89.35Z" style="fill:#f9e9ea"/><path d="M40,12.52c1.35,11.63,2.74,23.21-3.4,33.93-.26-.22-.17-.85,0-1.18,1.45-2.71-1.74-2.9-2.28-2.89-1.79,0-.64,2-1.57,3.41C33.09,34,32.66,22.45,40,12.52Z" style="fill:#c09dbe"/><path d="M15.75,45.44c.31-8.4-3.39-15.94-4.41-24.16-1.27.5-1.25,2.06-1.54,3.27a81.24,81.24,0,0,1-6,16.12,5.83,5.83,0,0,1-2.13,2.61A62,62,0,0,1,2.4,26.66c.59-4,4-6.27,7.2-8.39.94-.62,1.49.24,2,.84,1.25,1.5,1.59,3.4,2.19,5.18a103.5,103.5,0,0,1,4.14,18.9C18.1,44.6,17.41,45.13,15.75,45.44Z" style="fill:#f0e4f0"/><path d="M42.51,2.77c-.35,7.9,1.56,15.65,1.56,23.5,0,8.3-1.6,16.28-6,23.51a1.74,1.74,0,0,1-1.78,1.08c7.7-13.42,6.4-27.53,4.48-42.31-4.25,6.8-7.68,13.26-8.72,20.81-.82,5.88-.28,11.76-.56,17.63,0,.54.4,1.46-.53,1.54-.72.06-.95-.66-.95-1.36C30,31.52,32.46,16.56,41.4,3.25a5.29,5.29,0,0,0,.39-1Z" style="fill:#f0e4f0"/><path d="M14.17,42.93c-1.36-1.79-2.94.19-4.25-.58-.35.93-.6.57-.86-.06-1.08-2.58-2.1-5.12-.89-8,1-2.31,1.67-4.72,2.66-7.58C12.54,32.17,14.11,37.28,14.17,42.93Z" style="fill:#c09dbe"/><path d="M6.55,39c1.16,3.14,2.31,6.28,3.51,9.41.18.47.32.91-.13,1.17s-.81-.22-1-.6A20,20,0,0,1,6.55,39Z" style="fill:#f0e4f0"/><path d="M33.57,51.19c.07-1.27.14-2.53.23-3.8.05-.64.19-1.42,1-1.34,1.09.13.68,1.16.55,1.7a31.66,31.66,0,0,1-1.25,3.58Z" style="fill:#f0e4f0"/></g></g></svg>