<svg xmlns="http://www.w3.org/2000/svg" viewBox="0 0 73.31 78.13"><g id="Ebene_2" data-name="Ebene 2"><g id="Ebene_1-2" data-name="Ebene 1"><path d="M12.66,21c.42-.15.85-.28,1.27-.46,2.08-.89,2.35-1.93.35-2.78-3.42-1.47-3.72-4.15-3.75-7.17l1-.52c-.11,4.12,2.69,6.15,5.73,8.05.79-.78.13-1.76.45-2.58l.91-.57c0,1.76.6,2.45,2.34,1.34.78-.5,1.93-.33,2.54-1.24l1.11-1,2.81.17.49-.08c5.67-.46,10.81-2,14.58-6.67.57-.7,1.12-1.7,2.27-1.79l.67.7c-2.88,2.63-4.84,6.39-9.17,7.2a29.13,29.13,0,0,0-3.47,1.11c1.71,1.37,3.16,2.7,4.78,3.79,2.84,1.92,2.85,1.85,3.79-1.48.24-.86,0-1.85.73-2.57h1.16c-.43,2.06-2.14,4.35,1,5.75l.91.27c2.31,2.71,5.5,3.09,8.76,3.29,1.33.08,2.7-.17,3.95.52v1L54,24.9a1.44,1.44,0,0,0-1.46-.06l-1.28,0-1.52-.17L43,21.44c1,2.55.24,4.78.91,6.82.3.91.1,2.93,2.23,1.94l.62.74c-.46,1.77.54,2.08,2,2C47,35.26,47.33,38.2,46.5,40.8c-1.36,4.25-2.22,8.67-5,12.35a15.36,15.36,0,0,1-5,4.51C34,59,34.34,61,34.63,63c.13.94.44,1.66,2,1.15,6.35-2.08,8.43-.81,8.72,6.69.2,5.08-1.06,6.28-6.23,6.76-.65.06-1.47-.34-1.93.52H31.73c-2.28-.54-4.59-1-6.85-1.65-5.46-1.55-7.59-6-5.43-11.29.91-2.25,2.6-3,4.94-2.56l2.55.62c-.49-1.2-1.41-.86-1.93-1.28-5.18-2.62-10-5.69-13.24-10.72C9.69,48.06,9,44.6,10.65,41.31c1.79-3.64.07-7.08.23-10.59.06-1.47-1.61-1-2.6-.87C5.44,30.13,1.49,28,.34,25.4c-.44-1-.59-2.09.42-2.6,2.51-1.27,4.93-3.22,8.07-1.87,0,.33,0,.67,0,1-1.14.1-2.37-.73-3.74.35,2.56.37,4.5,1.22,5.45,3.51-1.14.17-1.83-.71-2.64-1.22a7.65,7.65,0,0,0-5-.91c-.58,0-1.34.22-1.5.93s.48.91.84,1.3a7.76,7.76,0,0,0,7.22,2.57c1.84-.23,2.08-.73,1.95-2.16A4.89,4.89,0,0,0,13.2,22ZM11.59,45a6.72,6.72,0,0,0,.91,3.89c2.83,5.69,7.92,8.72,13.25,11.5a2.08,2.08,0,0,0,1.82.09A31.06,31.06,0,0,0,39,53.4c4.56-4.72,5.21-11.11,6.77-17.06a5.34,5.34,0,0,0-1.08-4.06,12,12,0,0,1-2.46-8.09c0-1.91-.64-3.25-2.83-3.62A6.05,6.05,0,0,1,36.22,19c-3-3.12-6.52-3.23-10.5-2.55C17.42,17.91,11.3,26,12.79,34.29a12.54,12.54,0,0,1-.65,7.62A5.06,5.06,0,0,0,11.59,45ZM21,70.23a3.43,3.43,0,0,0,2.2-1.29c.29-.34.56-1.16,1.21-.51s-.08,1-.36,1.38a6.5,6.5,0,0,1-2.3,1.85c-.46.26-1.25.56-.56,1.42a4.15,4.15,0,0,0,6.52-.25c.5-.7.53-1.88,1.74-2.13.05.38.06.65.11.92.26,1.5-2.54,2.48-1,3.9,1.15,1.09,3.15.23,4.74.61a2.75,2.75,0,0,0,.81.06c1.57-.11,3.69.51,4.51-.78s-1.12-2.4-1.77-3.65a1.5,1.5,0,0,1-.06-.49c2.24-.11,2.18.1,2.84,2,.21.61-.7,2.55,1.28,2.16,1.38-.27,2.92-.49,2.85-2.53s.1-4-.54-5.91-1.61-2.76-3.8-2.17c-5.8,1.58-5.86,1.48-6.07-4.44,0-.12-.18-.24-.27-.35-3.91,1.63-3.91,1.63-5.61,4.93a3.24,3.24,0,0,1-.55.9c-.5.46-1.13.45-1-.34.22-1.74-1.11-1.39-2-1.53A2.46,2.46,0,0,0,21,65.52,5.69,5.69,0,0,0,21,70.23Z" style="fill:#5b475a"/><path d="M48.7,32.92c-1.42.1-2.42-.21-2-2a17.57,17.57,0,0,1,7.89-2.6c2.12-.26,4.2.5,6.19.15,4.35-.78,7,2.38,10.35,4a1.54,1.54,0,0,1,.5,2.52c-3.64,4-11.12,4.34-15.11.69-2-1.81-4.06-3.38-7-2.77Z" style="fill:#c09dbe"/><path d="M45.19,20.39l-.91-.27c.5-3.28,3.1-5.42,7.34-5.8S59,12,60.4,7.85c.72-2.08,2.49-4.83.76-6.25s-4.57.28-6.77,1.32C49.24,5.36,46.2,9.83,43.24,14.37H42.08c1.41-4.3,4.86-7.06,8.1-10.37C48,4.08,47,5.88,45.42,6.31l-.67-.7A22.66,22.66,0,0,1,60.36,0c2.18.07,3,1.05,2.66,3.05C61.85,11,59.7,15.14,50.91,16,48.12,16.2,45.88,17.35,45.19,20.39Z" style="fill:#6f5c6e"/><path d="M49.57,32.91c2.93-.61,5,1,7,2.77C60.55,39.33,68,39,71.67,35a1.54,1.54,0,0,0-.5-2.52c-3.32-1.6-6-4.76-10.35-4-2,.35-4.07-.41-6.19-.15a17.57,17.57,0,0,0-7.89,2.6c-.21-.25-.42-.49-.62-.74,4.37-4.51,10.13-3,15.78-3.15-1.3-1.52-2.95-.93-4-1.81v-1c5.69,1,10.59,3.38,14.34,7.94,1.53,1.85,1.49,3.23-.63,4.5-6.74,4-11,5.19-17.24-.94C53,34.3,50.87,34.33,49.57,32.91Z" style="fill:#6f5c6e"/><path d="M24.6,14l-1.11,1c-2.17-.82-3.4-3-5.76-4.18.34,1.6.61,2.84.88,4.08l-.91.57c-1-2.19-1.51-4.66-3.69-6.05-.84-.54-2.25-2-2.49.58l-1,.52c-.32-3.31.36-3.84,3.36-3.33a9.63,9.63,0,0,1,6.55,3.86C21.5,12.5,23.17,13.07,24.6,14Z" style="fill:#6f5c6e"/><path d="M12.66,21l.54,1a8.34,8.34,0,0,1-4.38,0c0-.34,0-.68,0-1Z" style="fill:#6f5c6e"/><path d="M27.9,14.07l-.49.08Z" style="fill:#6f5c6e"/><path d="M11.59,45a5.06,5.06,0,0,1,.55-3.12,12.54,12.54,0,0,0,.65-7.62C11.3,26,17.42,17.91,25.72,16.48c4-.68,7.49-.57,10.5,2.55a6.05,6.05,0,0,0,3.14,1.54c2.19.37,2.83,1.71,2.83,3.62a12,12,0,0,0,2.46,8.09,5.34,5.34,0,0,1,1.08,4.06C44.17,42.29,43.52,48.68,39,53.4a31.06,31.06,0,0,1-11.39,7.11,2.08,2.08,0,0,1-1.82-.09c-5.33-2.78-10.42-5.81-13.25-11.5A6.72,6.72,0,0,1,11.59,45Z" style="fill:#f9e9ea"/><path d="M21,70.23a5.69,5.69,0,0,1,0-4.71A2.46,2.46,0,0,1,23.9,64c.84.14,2.17-.21,2,1.53-.09.79.54.8,1,.34a3.24,3.24,0,0,0,.55-.9c1.7-3.3,1.7-3.3,5.61-4.93.09.11.26.23.27.35.21,5.92.27,6,6.07,4.44,2.19-.59,3.17.25,3.8,2.17s.47,3.93.54,5.91-1.47,2.26-2.85,2.53c-2,.39-1.07-1.55-1.28-2.16-.66-1.91-.6-2.12-2.84-2a1.5,1.5,0,0,0,.06.49c.65,1.25,2.54,2.45,1.77,3.65s-2.94.67-4.51.78a2.75,2.75,0,0,1-.81-.06c-1.59-.38-3.59.48-4.74-.61-1.51-1.42,1.29-2.4,1-3.9,0-.27-.06-.54-.11-.92-1.21.25-1.24,1.43-1.74,2.13a4.15,4.15,0,0,1-6.52.25c-.69-.86.1-1.16.56-1.42a6.5,6.5,0,0,0,2.3-1.85c.28-.41.9-.83.36-1.38s-.92.17-1.21.51A3.43,3.43,0,0,1,21,70.23Z" style="fill:#f9e9ea"/><path d="M43.24,14.37c3-4.54,6-9,11.15-11.45,2.2-1,4.91-2.85,6.77-1.32s0,4.17-.76,6.25C59,12,55.9,13.93,51.62,14.32s-6.84,2.52-7.34,5.8C41.1,18.72,42.81,16.43,43.24,14.37Z" style="fill:#c09dbe"/><path d="M45.42,6.31C47,5.88,48,4.08,50.18,4c-3.24,3.31-6.69,6.07-8.1,10.37-.72.72-.49,1.71-.73,2.57-.94,3.33-1,3.4-3.79,1.48-1.62-1.09-3.07-2.42-4.78-3.79a29.13,29.13,0,0,1,3.47-1.11C40.58,12.7,42.54,8.94,45.42,6.31Z" style="fill:#f0e4f0"/><path d="M57.9,25.24c1.05.88,2.7.29,4,1.81-5.65.17-11.41-1.36-15.78,3.15-2.13,1-1.93-1-2.23-1.94-.67-2,.09-4.27-.91-6.82l6.78,3.27a1.07,1.07,0,0,0,1.52.17l1.28,0A1.28,1.28,0,0,0,54,24.9Z" style="fill:#f0e4f0"/><path d="M11.42,26.31c.13,1.43-.11,1.93-1.95,2.16A7.76,7.76,0,0,1,2.25,25.9c-.36-.39-1-.7-.84-1.3s.92-.88,1.5-.93a7.65,7.65,0,0,1,5,.91c.81.51,1.5,1.39,2.64,1.22l-.06,0c0,.55.36.69.85.59Z" style="fill:#c09dbe"/><path d="M11.52,10c.24-2.63,1.65-1.12,2.49-.58,2.18,1.39,2.73,3.86,3.69,6.05-.32.82.34,1.8-.45,2.58C14.21,16.17,11.41,14.14,11.52,10Z" style="fill:#c09dbe"/><path d="M11.42,26.31l-.1.05c-.29-.19-.33-.73-.85-.59l.06,0c-.95-2.29-2.89-3.14-5.45-3.51,1.37-1.08,2.6-.25,3.74-.35a8.34,8.34,0,0,0,4.38,0A4.89,4.89,0,0,1,11.42,26.31Z" style="fill:#f0e4f0"/><path d="M18.61,14.92c-.27-1.24-.54-2.48-.88-4.08,2.36,1.22,3.59,3.36,5.76,4.18-.61.91-1.76.74-2.54,1.24C19.21,17.37,18.64,16.68,18.61,14.92Z" style="fill:#f0e4f0"/><path d="M25,62c.52.42,1.44.08,1.93,1.28l-2.55-.62Z" style="fill:#fffeff"/><path d="M54,24.9a1.28,1.28,0,0,1-1.46-.06A1.44,1.44,0,0,1,54,24.9Z" style="fill:#6f5c6e"/><path d="M51.28,24.88a1.07,1.07,0,0,1-1.52-.17Z" style="fill:#6f5c6e"/><path d="M10.47,25.77c.52-.14.56.4.85.59C10.83,26.46,10.51,26.32,10.47,25.77Z" style="fill:#5b475a"/></g></g></svg>