<svg xmlns="http://www.w3.org/2000/svg" viewBox="0 0 55.14 108.76"><g id="Ebene_2" data-name="Ebene 2"><g id="Ebene_1-2" data-name="Ebene 1"><path d="M20.17,36.21a20.49,20.49,0,0,1,8.58.45c1.43.47,1.81.09,2.11-1.16A124.48,124.48,0,0,1,36.5,18.19,65.62,65.62,0,0,1,44.34,3.5a12.84,12.84,0,0,1,1.71-1.75C47.77.21,49.7-.53,52,.43s2.94,2.94,3.1,5.24c.34,4.82-1.31,9.18-3,13.56C49.19,27,45.34,34.3,41.73,41.73a4.32,4.32,0,0,0,.18,4.7,19.64,19.64,0,0,1-5.4,26c-.63.47-1.24,1-2.33,1.79,1.71,0,2.93.06,4.14,0,2.3-.15,3.34,1.19,3.64,3.17a3.77,3.77,0,0,1-2.77,4.41,14.16,14.16,0,0,1-5.83,1c-2.69-.36-2.57.94-2.33,2.71.77,5.72.77,11.52,2.08,17.17a6.07,6.07,0,0,1-.6,4.45,3.23,3.23,0,0,1-3.18,1.65,2.92,2.92,0,0,1-3-1.8,44.61,44.61,0,0,1-2.47-6.86c-.83,1.87-1.59,3.77-2.49,5.61-1.1,2.25-2.94,3.68-5.45,2.84-2.15-.71-3-2.57-2.85-5a50.16,50.16,0,0,1,2.09-10c.87-3.13.47-6.3,1-9.43.29-1.87-1.44-1.93-2.66-1.6A19.22,19.22,0,0,1,7,82.89c-3.11-.2-4.49-2-4.29-5.07a3,3,0,0,1,2.85-3c2.06-.28,4.13-.43,6.51-.67-1.43-1.27-2.78-2.37-4-3.59a19.36,19.36,0,0,1-.09-27.86c2.08-2.05,2.43-4,1.16-6.46C7.71,37.41,6.41,38.66,5,39.76a3.09,3.09,0,0,1-3.78.4C0,39.32-.13,37.91.09,36.47A124.08,124.08,0,0,1,3.21,20.41c1.25-4.35,7.38-8.12,11.73-6.72,1,.34,1.21,1.18,1.49,2a37.13,37.13,0,0,1,1.5,10.13c.12,3.27.42,6.51.61,9.77,0,.72.33,1,1,.94Zm9.44,45.14a.83.83,0,0,0,.34-.3,3.29,3.29,0,0,1,2.9.1,1.13,1.13,0,0,0,1.48-.22,15,15,0,0,1,3.13-.64c1.8,0,2.89-.94,2.79-2.53-.11-1.86-1.78-1.88-3.28-1.9a64.61,64.61,0,0,0-10.68.59l-.61.26c-3.16.83-6.21-.48-9.33-.46l-.5,0c-2.11.7-4.15-.47-6.25-.28l-1.33.21c-1.87.26-4,.24-3.67,3.08,0,.06-.09.13-.07.17a2.43,2.43,0,0,0,.2.28A2.6,2.6,0,0,0,7.52,81.3c1.63,0,3.25,0,4.88,0l.68-.33a4.59,4.59,0,0,1,2.79.1l.59.25c.46,0,1,0,1,.62-.14,3.07.28,6.15-.28,9.21-.78,4.32-2.24,8.5-2.47,12.94a2.44,2.44,0,0,0,1.76,2.66,2.32,2.32,0,0,0,3-1,18.48,18.48,0,0,0,2.71-6.38c.45-1.56-2.12-.86-2.08-2.32a1.38,1.38,0,0,1,0-.26c1.08-.53,1.83.5,2.78.6l1.08.3h1l1.1-.32c.71,0,1.5-1.27,2.08-.18s-.83,1.37-1.35,1.46c-1.37.26-1.23.82-.92,1.87a33.3,33.3,0,0,0,1.24,4.1c.61,1.36,1.07,3,3,2.26,1.64-.62,1.58-2.18,1.32-3.72-.48-2.9-.86-5.83-1.29-8.75.05,0,.15-.09.15-.13a2,2,0,0,0-.09-.35V92.73c0-.06.13-.12.11-.16a1.41,1.41,0,0,0-.17-.32l-.31-3.38A15,15,0,0,1,27.51,94a4.11,4.11,0,0,1-7.13.24c-2.08-3-1.63-9.57.83-12.2,2.32-2.47,4.21-2.36,6.16.38.67.94,1.23,2,2.06,3.31V83l.07-1.54Zm24-74.23a1,1,0,0,0,0-1.57c0-2-.8-3.53-2.91-4.07a1,1,0,0,0-1.56.1c-3.58,1.54-5.22,4.85-6.92,8a115.88,115.88,0,0,0-10,26.22c-.57,2.22-1.26,3.44-3.91,2.33-1.61-.67-3.52-.64-5.29-.92-.59,0-1.2-.15-1.68.35-4.1.45-4.16.45-4.38-3.21-.25-4.14-.38-8.29-.57-12.43,0-.57.12-1.17-.39-1.62-.23-1.32-.5-2.63-.68-4A1.55,1.55,0,0,0,14,14.8c-2.61-.64-8.07,1.9-8.91,4.47A66.6,66.6,0,0,0,1.67,36.62c0,.86-.38,2,.64,2.45s1.78-.44,2.55-1c4.57-3.57,6.35-8.78,8.21-13.94.31-.85.26-1.89,1.74-2.43v4c-3.26,3.13-3.71,6.57-1.14,9.41-.37-2.64.73-5.06.52-7.59,0-.69.18-1.33,1.12-.79-.21,2.06.36,4.19-.43,6.21l-.1.56c0,1.27,0,2.54-.06,3.8,0,.38.23,1-.46,1a1,1,0,0,1-1.12-.55c-.59-1.2-1.16-2.42-1.83-3.58-.79-1.38-.92.06-1.31.35a.25.25,0,0,0,.08.39c.36,1.28,1.17,2.47.7,3.9-.52.47-.4,1.08-.38,1.67.5,1.38-.66,1.93-1.36,2.69-4.65,5-6.45,10.91-4.78,17.49,2.69,10.61,13,16.5,23.91,14.07a18.72,18.72,0,0,0,12.15-28A4.4,4.4,0,0,1,40,42c2.46-5.09,5-10.15,7.2-15.35C49.89,20.35,53.43,14.28,53.62,7.12ZM20.7,88.75a7.34,7.34,0,0,0,.71,3.59,2.9,2.9,0,0,0,2.33,2c1.29.15,2-.68,2.61-1.61a7.43,7.43,0,0,0,1.44-5.37c-.36-2.29-1-4.55-3.36-5.45-1.43-.53-3.21,2.1-3.62,5.05C20.75,87.46,20.75,87.91,20.7,88.75Z" style="fill:#5a4658"/><path d="M20.17,36.21l-.66.35Z" style="fill:#5c485a"/><path d="M10.78,38.81c.47-1.43-.34-2.62-.7-3.9a1.36,1.36,0,0,0-.08-.39c.39-.29.52-1.73,1.31-.35.67,1.16,1.24,2.38,1.83,3.58a1,1,0,0,0,1.12.55c.69,0,.44-.66.46-1,0-1.26,0-2.53.06-3.8,0-.18.07-.37.1-.56.79-2,.22-4.15.43-6.21a.33.33,0,0,0,0-.39l-.52-.64h.05v-4c-1.48.54-1.43,1.58-1.74,2.43C11.21,29.24,9.43,34.45,4.86,38c-.77.61-1.56,1.45-2.55,1s-.68-1.59-.64-2.45A66.6,66.6,0,0,1,5.11,19.27C6,16.7,11.41,14.16,14,14.8a1.55,1.55,0,0,1,1.27,1.51c.18,1.33.45,2.64.68,4a2.13,2.13,0,0,0,.39,1.62c.19,4.14.32,8.29.57,12.43.22,3.66.28,3.66,4.38,3.21L23,37.18c1.77.28,3.68.25,5.29.92,2.65,1.11,3.34-.11,3.91-2.33a115.88,115.88,0,0,1,10-26.22c1.7-3.12,3.34-6.43,6.92-8l1.56-.1c2.11.54,2.87,2.05,2.91,4.07l0,1.57c-.19,7.16-3.73,13.23-6.4,19.57C45,31.89,42.48,37,40,42a4.4,4.4,0,0,0,.3,4.73,18.72,18.72,0,0,1-12.15,28C17.21,77.16,7,71.27,4.26,60.66,2.59,54.08,4.39,48.17,9,43.17c.7-.76,1.86-1.31,1.36-2.69C10.52,39.92,10.65,39.37,10.78,38.81ZM8.19,53.49c-.06,4.4,2.59,8,5.91,8.2,2.86.2,5.36-2.42,5.94-6.22a6.48,6.48,0,0,0-8.13-7.41c-.5.11-.94.48-1.44-.06-1.46-1.61-2.28-1.44-2.28.86,0,1.25-1.92-.28-1.84,1.32.08,1.41,1.76,1.18,2,2.26A2.53,2.53,0,0,1,8.19,53.49Zm29.15-4.06c.29-.71,1.42-1.44.66-2.22s-1.41,0-2.07.55-1.56.23-2.35.24a4.57,4.57,0,0,0-3.25,1c-3.41,2.94-3.56,9.05-.26,12.08a4.37,4.37,0,0,0,3.17,1.23c3.57,0,6.47-4.06,5.75-8.19-.24-1.39-.62-2.64,1.11-3.33a.79.79,0,0,0,.49-1.09c-.28-.61-.82-.63-1.38-.54S38.14,49.93,37.34,49.43ZM36,39.75c1.09-2,2.15-4.07,3.27-6.08,3.95-7.12,8.58-13.91,11-21.79.58-1.87,2.23-4.31-.05-5.61S46.09,7.15,45,9C39.08,18.29,35.29,28.32,36,39.75ZM27.18,60.59a2.85,2.85,0,0,0-3-1.59c-1.37.1-2.87.28-3.49,1.86a.75.75,0,0,0,.26.7,7.76,7.76,0,0,1,2.7,1.61C24.21,63.61,27.23,61.41,27.18,60.59ZM21.43,70.3c1.65-1,3.28-.48,4.94.09a1.6,1.6,0,0,0,1.88-.72c.32-.49.29-1.37-.38-1-2.1,1-4.16-1.55-6.23.09a1.35,1.35,0,0,1-1.7-.44c-.3-.4-.7-.57-1.07-.08-.52.68.14,1,.55,1.2A19.1,19.1,0,0,0,21.43,70.3Z" style="fill:#f4e7f3"/><path d="M23,97.36c-.95-.1-1.7-1.13-2.78-.6a1.38,1.38,0,0,0,0,.26c0,1.46,2.53.76,2.08,2.32a18.48,18.48,0,0,1-2.71,6.38,2.32,2.32,0,0,1-3,1,2.44,2.44,0,0,1-1.76-2.66c.23-4.44,1.69-8.62,2.47-12.94.56-3.06.14-6.14.28-9.21,0-.58-.54-.61-1-.62L15.87,81a4.59,4.59,0,0,0-2.79-.1l-.68.33c-1.63,0-3.25,0-4.88,0a2.6,2.6,0,0,1-2.79-1.64.44.44,0,0,0-.13-.45c-.3-2.84,1.8-2.82,3.67-3.08.46,0,.94.17,1.33-.21,2.1-.19,4.14,1,6.25.28l.25.08.25,0c3.12,0,6.17,1.29,9.33.46l.61-.26A64.61,64.61,0,0,1,37,75.86c1.5,0,3.17,0,3.28,1.9.1,1.59-1,2.52-2.79,2.53a15,15,0,0,0-3.13.64l-1.48.22a3.29,3.29,0,0,0-2.9-.1.31.31,0,0,0-.34.3l-.11.11c-.56.49-.41,1-.07,1.54v2.68c-.83-1.35-1.39-2.37-2.06-3.31-1.95-2.74-3.84-2.85-6.16-.38-2.46,2.63-2.91,9.19-.83,12.2A4.11,4.11,0,0,0,27.51,94a15,15,0,0,0,2.36-5.08l.31,3.38a.43.43,0,0,0,.06.48V93.9a.39.39,0,0,0-.06.48c.43,2.92.81,5.85,1.29,8.75.26,1.54.32,3.1-1.32,3.72-1.89.71-2.35-.9-3-2.26a33.3,33.3,0,0,1-1.24-4.1c-.31-1-.45-1.61.92-1.87.52-.09,2-.27,1.35-1.46s-1.37.16-2.08.18l-1.1.32H24A1,1,0,0,0,23,97.36Z" style="fill:#f4e7f3"/><path d="M20.7,88.75c.05-.84.05-1.29.11-1.74.41-3,2.19-5.58,3.62-5.05,2.36.9,3,3.16,3.36,5.45a7.43,7.43,0,0,1-1.44,5.37c-.62.93-1.32,1.76-2.61,1.61a2.9,2.9,0,0,1-2.33-2A7.34,7.34,0,0,1,20.7,88.75Z" style="fill:#c09dbe"/><path d="M15.28,26.3a.33.33,0,0,1,0,.39c-.94-.54-1.17.1-1.12.79.21,2.53-.89,4.95-.52,7.59-2.57-2.84-2.12-6.28,1.14-9.41h-.05C14.44,26.28,14.73,26.39,15.28,26.3Z" style="fill:#c09dbe"/><path d="M53.62,7.12l0-1.57A1,1,0,0,1,53.62,7.12Z" style="fill:#5c485a"/><path d="M23,37.18l-1.68.35C21.79,37,22.4,37.16,23,37.18Z" style="fill:#5c485a"/><path d="M10.78,38.81c-.13.56-.26,1.11-.38,1.67C10.38,39.89,10.26,39.28,10.78,38.81Z" style="fill:#5c485a"/><path d="M16.36,21.89A2.13,2.13,0,0,1,16,20.27C16.48,20.72,16.36,21.32,16.36,21.89Z" style="fill:#5c485a"/><path d="M50.66,1.48l-1.56.1A1,1,0,0,1,50.66,1.48Z" style="fill:#5c485a"/><path d="M32.85,81.15l1.48-.22A1.13,1.13,0,0,1,32.85,81.15Z" style="fill:#5c485a"/><path d="M29.43,83c-.34-.53-.49-1,.07-1.54Z" style="fill:#5c485a"/><path d="M23,97.36a1,1,0,0,1,1.08.3Z" style="fill:#5c485a"/><path d="M25,97.66l1.1-.32Z" style="fill:#5c485a"/><path d="M9.6,75.92c-.39.38-.87.24-1.33.21Z" style="fill:#5c485a"/><path d="M10,34.52a1.36,1.36,0,0,1,.08.39A.25.25,0,0,1,10,34.52Z" style="fill:#5c485a"/><path d="M30.24,92.73a.43.43,0,0,1-.06-.48,1.41,1.41,0,0,1,.17.32S30.28,92.67,30.24,92.73Z" style="fill:#5c485a"/><path d="M30.18,94.38a.39.39,0,0,1,.06-.48,2,2,0,0,1,.09.35S30.23,94.34,30.18,94.38Z" style="fill:#5c485a"/><path d="M14.88,32.9c0,.19-.07.38-.1.56C14.81,33.28,14.85,33.09,14.88,32.9Z" style="fill:#5c485a"/><path d="M4.6,79.21a.44.44,0,0,1,.13.45,2.43,2.43,0,0,1-.2-.28S4.57,79.27,4.6,79.21Z" style="fill:#5c485a"/><path d="M12.4,81.26l.68-.33Z" style="fill:#5c485a"/><path d="M15.87,81l.59.25Z" style="fill:#5c485a"/><path d="M29.61,81.35a.31.31,0,0,1,.34-.3A.83.83,0,0,1,29.61,81.35Z" style="fill:#5c485a"/><path d="M26.29,76.45l-.61.26Z" style="fill:#5c485a"/><path d="M16.35,76.25l-.25,0-.25-.08Z" style="fill:#5c485a"/><path d="M8.19,53.49a2.53,2.53,0,0,0,.15-1.05c-.23-1.08-1.91-.85-2-2.26-.08-1.6,1.84-.07,1.84-1.32,0-2.3.82-2.47,2.28-.86.5.54.94.17,1.44.06A6.48,6.48,0,0,1,20,55.47c-.58,3.8-3.08,6.42-5.94,6.22C10.78,61.45,8.13,57.89,8.19,53.49Zm8.29-.39c-.11-1.87-.67-2.39-1.76-2.4a1.38,1.38,0,0,0-1.51,1.51c0,1.09.86,1.58,1.79,1.63S16.5,53.34,16.48,53.1Z" style="fill:#5a4658"/><path d="M37.34,49.43c.8.5,1.28-.16,1.87-.26s1.1-.07,1.38.54a.79.79,0,0,1-.49,1.09c-1.73.69-1.35,1.94-1.11,3.33.72,4.13-2.18,8.14-5.75,8.19a4.37,4.37,0,0,1-3.17-1.23c-3.3-3-3.15-9.14.26-12.08a4.57,4.57,0,0,1,3.25-1c.79,0,1.66.31,2.35-.24s1.36-1.3,2.07-.55S37.63,48.72,37.34,49.43Zm-3.4,1.1c-1.15.16-1.41.95-1.35,1.94A1.27,1.27,0,0,0,34,53.76c1.08,0,1.51-.74,1.49-1.81S34.79,50.63,33.94,50.53Z" style="fill:#5a4658"/><path d="M36,39.75C35.29,28.32,39.08,18.29,45,9c1.13-1.8,3-4,5.3-2.68s.63,3.74.05,5.61c-2.45,7.88-7.08,14.67-11,21.79C38.16,35.68,37.1,37.72,36,39.75Zm1.26-5.7a140.07,140.07,0,0,0,9.54-17c1.13-2.5,2.49-5,2.78-7.81.07-.64.46-1.59-.4-1.91-.68-.26-1.35.35-1.86.83A12.33,12.33,0,0,0,46,9.86a40.5,40.5,0,0,0-4.51,8.24C39.23,23.18,37.4,28.41,37.27,34.05Z" style="fill:#5a4658"/><path d="M27.18,60.59c.05.82-3,3-3.51,2.58A7.76,7.76,0,0,0,21,61.56a.75.75,0,0,1-.26-.7c.62-1.58,2.12-1.76,3.49-1.86A2.85,2.85,0,0,1,27.18,60.59Z" style="fill:#5c485a"/><path d="M21.43,70.3a19.1,19.1,0,0,1-2-.9c-.41-.24-1.07-.52-.55-1.2.37-.49.77-.32,1.07.08a1.35,1.35,0,0,0,1.7.44c2.07-1.64,4.13,1,6.23-.09.67-.33.7.55.38,1a1.6,1.6,0,0,1-1.88.72C24.71,69.82,23.08,69.26,21.43,70.3Z" style="fill:#5c485a"/><path d="M15.28,26.3c-.55.09-.84,0-.52-.64C14.93,25.88,15.11,26.09,15.28,26.3Z" style="fill:#5c485a"/><path d="M16.48,53.1c0,.24-.58.79-1.48.74s-1.8-.54-1.79-1.63a1.38,1.38,0,0,1,1.51-1.51C15.81,50.71,16.37,51.23,16.48,53.1Z" style="fill:#f5e8f3"/><path d="M33.94,50.52c.85.11,1.54.35,1.55,1.43s-.41,1.77-1.49,1.81a1.27,1.27,0,0,1-1.41-1.29C32.53,51.48,32.79,50.69,33.94,50.52Z" style="fill:#f4e7f3"/><path d="M37.27,34.05c.13-5.64,2-10.87,4.19-15.95A40.5,40.5,0,0,1,46,9.86a12.33,12.33,0,0,1,1.36-1.68c.51-.48,1.18-1.09,1.86-.83.86.32.47,1.27.4,1.91-.29,2.82-1.65,5.31-2.78,7.81A140.07,140.07,0,0,1,37.27,34.05Z" style="fill:#c09dbe"/></g></g></svg>