<svg xmlns="http://www.w3.org/2000/svg" viewBox="0 0 63.9 124.46"><g id="Ebene_2" data-name="Ebene 2"><g id="Ebene_1-2" data-name="Ebene 1"><path d="M27.47,36.45a22.74,22.74,0,0,1,9.89.23c1.36.39,2,.15,2.31-1.23a119.13,119.13,0,0,1,7.22-21A52.65,52.65,0,0,1,53.35,3.26,9,9,0,0,1,56.93.4c3.42-1.41,6.64,1,6.92,5.15.34,4.82-1.23,9.2-2.89,13.59-2.94,7.74-6.81,15-10.37,22.5a2.52,2.52,0,0,0,.3,3.22c4.88,6.15,7.13,13.45,8.57,21A90.28,90.28,0,0,1,60.52,94a77.19,77.19,0,0,1-4.12,18.34c-.56,1.46-1,2.87-2.56,3.57a1.71,1.71,0,0,0-.89,1.25,9.62,9.62,0,0,1-16.18,4.42A4.68,4.68,0,0,0,33,120.05a48.73,48.73,0,0,1-9.7-.91,5.36,5.36,0,0,0-4.53,1c-5.57,4.2-13.64.66-14.61-6.25-.06-.43.1-1.08-.13-1.27-4.6-3.7-3.45-9.18-3.77-13.86-1-14.28.91-28.25,6.91-41.42C9.56,52,12.46,47,16.8,43.05c2.31-2.1,2.13-4.25,1.1-6.76-1.52,1.26-2.94,2.49-4.42,3.65A2.84,2.84,0,0,1,10,40.2a3.29,3.29,0,0,1-1.15-3.41A123.84,123.84,0,0,1,12,20.18c1.18-4.17,7.49-7.82,11.69-6.45,1,.34,1.21,1.18,1.5,2a35.28,35.28,0,0,1,1.49,9.86C26.86,29.24,27.06,32.84,27.47,36.45Zm-8.11-3.29a6.44,6.44,0,0,0,.15,3.78c.46,2.07,1,4.19-.94,6.05A47.41,47.41,0,0,0,8.27,58.73,85.27,85.27,0,0,0,2.12,84c-.8,7.94-.16,15.74.74,23.57.13,1.07.07,2.71,1.28,3.06,1,.28,1.27-1.25,1.88-2a9.59,9.59,0,0,1,11.12-2.17,7.8,7.8,0,0,1,4.67,9.28c-.34,1.51.17,2,1.34,2,2.72.08,5.36.72,8.1.71,2.2,0,3.62-.14,3.21-2.92a5.13,5.13,0,0,1,.94-2.73c3.44-6.22,12.72-6.37,16.77-.3.38.56.42,1.6,1.24,1.55s1.07-1.09,1.34-1.85c.11-.34.25-.68.36-1a82.71,82.71,0,0,0,4-20c1.12-13.42-.11-26.46-5.36-39-1.08-2.58-2.24-5.34-4.54-6.95-1.5-1.05-1.27-1.67-.67-2.86,4.14-8.27,8-16.64,11.54-25.19A25.35,25.35,0,0,0,62.19,4.88a3.44,3.44,0,0,0-5.5-2.69A10.37,10.37,0,0,0,54,4.81a71.44,71.44,0,0,0-7.14,13.54c-2.62,6-4.32,12.3-6.33,18.51-.29.91,0,2.33-1.95,1.65a20.33,20.33,0,0,0-10.41-.69c-1.4.24-1.8.11-2-1.4-.62-4-.63-8.07-1-12.11a60.37,60.37,0,0,0-1.09-8,1.56,1.56,0,0,0-1.33-1.44c-2.6-.55-7.87,1.83-8.73,4.33a62.69,62.69,0,0,0-3.56,17.88c0,.82-.16,1.83.74,2.14s1.52-.37,2.15-.87A20.5,20.5,0,0,0,19.11,31c1.43-3,2.39-6.18,3.76-9.71,2,5.82.82,11.11.62,16.38,0,.33,0,.78-.51.74a1.16,1.16,0,0,1-1.11-.6C21.16,36.36,20.37,35,19.36,33.16ZM43.48,122.8c4.42,0,8.7-3.25,8.61-6.56-.09-3.49-3.77-6.49-8-6.51-4.78,0-8.18,2.71-8.23,6.62S38.89,122.79,43.48,122.8Zm-30.26-2.72a6.66,6.66,0,0,0,7.44-6.16c.16-3.47-3.71-6.86-7.62-6.92-4.13-.06-7.54,2.92-7.47,6.54C5.63,116.94,9.27,120.05,13.22,120.08Zm9.56-93.2c-3,4.38-3,5-.33,8.35C22,32.31,23.41,29.67,22.78,26.88Z" style="fill:#5c485a"/><path d="M19.36,33.16c1,1.83,1.8,3.2,2.51,4.61a1.16,1.16,0,0,0,1.11.6c.52,0,.49-.41.51-.74.2-5.27,1.37-10.56-.62-16.38C21.5,24.78,20.54,28,19.11,31a20.5,20.5,0,0,1-5.8,7.37c-.63.5-1.39,1.13-2.15.87s-.77-1.32-.74-2.14A62.69,62.69,0,0,1,14,19.18c.86-2.5,6.13-4.88,8.73-4.33A1.56,1.56,0,0,1,24,16.29a60.37,60.37,0,0,1,1.09,8c.36,4,.37,8.09,1,12.11.23,1.51.63,1.64,2,1.4a20.33,20.33,0,0,1,10.41.69c1.9.68,1.66-.74,1.95-1.65,2-6.21,3.71-12.5,6.33-18.51A71.44,71.44,0,0,1,54,4.81a10.37,10.37,0,0,1,2.71-2.62,3.44,3.44,0,0,1,5.5,2.69A25.35,25.35,0,0,1,60,17.26c-3.5,8.55-7.4,16.92-11.54,25.19-.6,1.19-.83,1.81.67,2.86,2.3,1.61,3.46,4.37,4.54,6.95,5.25,12.5,6.48,25.54,5.36,39a82.71,82.71,0,0,1-4,20c-.11.33-.25.67-.36,1-.27.76-.39,1.79-1.34,1.85s-.86-1-1.24-1.55c-4.05-6.07-13.33-5.92-16.77.3a5.13,5.13,0,0,0-.94,2.73c.41,2.78-1,2.91-3.21,2.92-2.74,0-5.38-.63-8.1-.71-1.17,0-1.68-.53-1.34-2a7.8,7.8,0,0,0-4.67-9.28A9.59,9.59,0,0,0,6,108.65c-.61.71-.92,2.24-1.88,2-1.21-.35-1.15-2-1.28-3.06C2,99.72,1.32,91.92,2.12,84A85.27,85.27,0,0,1,8.27,58.73,47.41,47.41,0,0,1,18.57,43c1.92-1.86,1.4-4,.94-6.05A6.44,6.44,0,0,1,19.36,33.16Zm25.36,6.6q2.89-5.13,5.77-10.26c3.51-6.24,7.28-12.36,9.15-19.39.37-1.38.89-2.92-.39-3.73s-2.9-.16-4.12,1c-2.73,2.65-4.15,6.1-5.69,9.43C46.09,24.05,43.9,31.56,44.72,39.76Zm3.53,44.91C52.82,84.8,54.82,82,55,78c.19-4.2-2.87-7.53-6.52-7.51S42,73.86,42,78.56C42,82.56,44.19,84.66,48.25,84.67ZM9.32,76.33c0,4,2.13,6.08,6.18,6.17,4.51.09,6.81-2.62,6.75-6.68-.08-5-3.21-7.71-6.42-7.59C12.05,68.36,9.31,71.64,9.32,76.33ZM25.74,54.64c0-3.24-1.7-5.46-4.29-5.49-2.41,0-4,1.87-4,4.75s2,5.57,4.36,5.62S25.72,57.47,25.74,54.64Zm22.88.5c0-2.94-1.49-4.87-3.82-4.94-2.56-.07-4.38,2-4.41,5.09,0,2.68,1.92,5.24,4,5.29S48.61,58,48.62,55.14ZM37.75,59.51a3,3,0,0,0-.55-.81c-.4-.3-.69.1-.87.37-.67,1-1.38,1.4-2.35.35-.47-.51-.92-.39-1.4,0-.8.71-1.55.81-2.24-.2-.26-.38-.73-.62-1.15-.18a1,1,0,0,0,.06,1.45c.66.77,1.57,1.56,2.52,1.1a3.74,3.74,0,0,1,3-.1C36.16,61.89,37.33,61.22,37.75,59.51Zm-4.42-6c-1.25,0-2.57.09-2.54,1.19s1.63,1.86,2.51,1.91,2.56-.82,2.53-1.79C35.8,53.55,34.15,53.78,33.33,53.55Z" style="fill:#f5e8f3"/><path d="M43.48,122.8c-4.59,0-7.66-2.61-7.62-6.45s3.45-6.65,8.23-6.62c4.23,0,7.91,3,8,6.51C52.18,119.55,47.9,122.81,43.48,122.8Z" style="fill:#f5e8f3"/><path d="M13.22,120.08c-4,0-7.59-3.14-7.65-6.54-.07-3.62,3.34-6.6,7.47-6.54,3.91.06,7.78,3.45,7.62,6.92A6.66,6.66,0,0,1,13.22,120.08Z" style="fill:#f4e7f3"/><path d="M22.78,26.88c.63,2.79-.83,5.43-.33,8.35C19.74,31.89,19.77,31.26,22.78,26.88Z" style="fill:#c09dbe"/><path d="M44.72,39.76c-.82-8.2,1.37-15.71,4.72-22.92,1.54-3.33,3-6.78,5.69-9.43,1.22-1.19,2.71-1.92,4.12-1s.76,2.35.39,3.73c-1.87,7-5.64,13.15-9.15,19.39Q47.61,34.63,44.72,39.76Zm1.35-5.2c3.61-6.51,7.52-12.42,10.12-19,1-2.59,2.82-5.06,2-8.16C53.39,8.84,45.38,26.49,46.07,34.56Z" style="fill:#5a4658"/><path d="M48.25,84.67c-4.06,0-6.21-2.11-6.23-6.11,0-4.7,2.69-8.1,6.47-8.12S55.2,73.75,55,78C54.82,82,52.82,84.8,48.25,84.67Zm3-3.28c.87.47,1.28-.34,1.37-.8.52-2.5.71-5-1.21-7.12a3.69,3.69,0,0,0-4.38-1.16c-2.44,1-3.17,3.25-3.38,5.69a8.53,8.53,0,0,0,0,1.89c.23,1.92,1.63,2.74,3.29,3.07,2.35.47,3.45,0,4.33-1.61Z" style="fill:#5a4658"/><path d="M9.32,76.33c0-4.69,2.73-8,6.51-8.1,3.21-.12,6.34,2.56,6.42,7.59.06,4.06-2.24,6.77-6.75,6.68C11.45,82.41,9.32,80.35,9.32,76.33Zm10.94-.59c0-3.51-1.93-5.9-4.64-5.82S11,72.65,11,76.46c0,3.08,1.31,4.35,4.52,4.36S20.28,79.25,20.26,75.74Z" style="fill:#5a4658"/><path d="M25.74,54.64c0,2.83-1.72,4.93-3.95,4.88s-4.37-2.67-4.36-5.62,1.61-4.77,4-4.75C24,49.18,25.77,51.4,25.74,54.64Zm-2.21-2a1.05,1.05,0,0,0-1.08-1.23,1.28,1.28,0,1,0-.3,2.52A1.21,1.21,0,0,0,23.53,52.6Z" style="fill:#5a4658"/><path d="M48.62,55.14c0,2.86-2,5.49-4.18,5.44s-4.09-2.61-4-5.29c0-3.07,1.85-5.16,4.41-5.09C47.13,50.27,48.62,52.2,48.62,55.14Zm-3.18-2.7c-.63.06-1.19.37-1.08,1.11a1.14,1.14,0,0,0,2.28,0C46.72,52.73,46.22,52.44,45.44,52.44Z" style="fill:#5a4658"/><path d="M37.75,59.51c-.42,1.71-1.59,2.38-3,2a3.74,3.74,0,0,0-3,.1c-.95.46-1.86-.33-2.52-1.1a1,1,0,0,1-.06-1.45c.42-.44.89-.2,1.15.18.69,1,1.44.91,2.24.2.48-.42.93-.54,1.4,0,1,1,1.68.64,2.35-.35.18-.27.47-.67.87-.37A3,3,0,0,1,37.75,59.51Z" style="fill:#5c485a"/><path d="M33.33,53.55c.82.23,2.47,0,2.5,1.31,0,1-1.67,1.84-2.53,1.79s-2.49-.7-2.51-1.91S32.08,53.53,33.33,53.55Z" style="fill:#5a4658"/><path d="M46.07,34.56c-.69-8.07,7.32-25.72,12.15-27.19.79,3.1-1,5.57-2,8.16C53.59,22.14,49.68,28.05,46.07,34.56Z" style="fill:#c09dbe"/><path d="M51.31,81.35C50.43,83,49.33,83.43,47,83c-1.66-.33-3.06-1.15-3.29-3.07a8.53,8.53,0,0,1,0-1.89c.21-2.44.94-4.68,3.38-5.69a3.69,3.69,0,0,1,4.38,1.16c1.92,2.14,1.73,4.62,1.21,7.12-.09.46-.5,1.27-1.37.8,0-2.36-1.65-3.8-3.61-3.24a1.71,1.71,0,0,0-1.47,1.7,1.5,1.5,0,0,0,1.59,1.5C49,81.38,50.14,81.35,51.31,81.35Z" style="fill:#c09dbe"/><path d="M20.26,75.74c0,3.51-1.46,5.08-4.78,5.08S11,79.54,11,76.46c0-3.81,1.89-6.46,4.66-6.54S20.24,72.23,20.26,75.74Zm-4.54,3.47c1.24-.13,3,.4,2.8-1.58-.17-1.74-2-1.54-3.21-1.65s-2.61.38-2.59,1.74C12.75,79.79,14.61,79,15.72,79.21Z" style="fill:#c09dbe"/><path d="M23.53,52.6a1.21,1.21,0,0,1-1.38,1.29,1.28,1.28,0,1,1,.3-2.52A1.05,1.05,0,0,1,23.53,52.6Z" style="fill:#f4e7f3"/><path d="M45.44,52.44c.78,0,1.28.29,1.2,1.07a1.14,1.14,0,0,1-2.28,0C44.25,52.81,44.81,52.5,45.44,52.44Z" style="fill:#f4e7f3"/><path d="M51.31,81.35c-1.17,0-2.35,0-3.52,0a1.5,1.5,0,0,1-1.59-1.5,1.71,1.71,0,0,1,1.47-1.7c2-.56,3.57.88,3.61,3.24Z" style="fill:#5a4658"/><path d="M15.72,79.21c-1.11-.2-3,.58-3-1.49,0-1.36,1.46-1.84,2.59-1.74s3-.09,3.21,1.65C18.72,79.61,17,79.08,15.72,79.21Z" style="fill:#5a4658"/></g></g></svg>