<svg xmlns="http://www.w3.org/2000/svg" viewBox="0 0 78.14 91.91">
    <g>
            <path d="M25.23,91.91c-3.08-2.21-3.92-5.38-3.87-9,0-.67.2-1.7-.74-1.82s-.78,1-1,1.61c-.64,1.58-1.1,3.24-1.75,4.82a4.26,4.26,0,0,1-5.32,2.62c-2.12-.5-3.18-2.08-3.17-4.45a21.85,21.85,0,0,1,1.17-7.16c1.4-4.06,1.18-8.36,2.05-12.5.27-1.28-.9-.83-1.49-.84-2.17-.06-4.35.1-6.52,0C1.64,65,.29,63.59,0,60.86c-.27-3,.83-4.33,3.93-4.39,2.8-.06,5.59,0,9.06,0C4.18,50,6.21,42.86,11.66,35.53l-.81-.09A14.47,14.47,0,0,1,9,36.62c-1.83.76-3.29.14-3.25-1.83.06-3.41.25-6.88,2.06-9.95A6.6,6.6,0,0,1,11,22c3.57-1.52,5.18-.55,6.17,3.15.77,2.93.09,5.91.73,9.1a3.12,3.12,0,0,0,1.29-2.86c-.38-3.09.72-5.82,1.54-8.67a10.31,10.31,0,0,0-.09-4.86c-.75-3.12,1.32-5.08,2.1-7.45C24,6.41,27.36,3.81,31.07,2A20.19,20.19,0,0,1,36.92.35c6.33-1,12.63,0,17.42,4.08,3.65,3.14,8.31,5.15,11,9.38.81,1.24,2.17.6,3.28.64,6.49.25,11.16,6.73,8.9,12.42C76.11,30.54,70.7,33.59,66.73,33c-4.9-.73-9-4.51-9.2-8.89a7.73,7.73,0,0,1,3-6.64c1.45-1.14,1.54-1.75-.33-2.78a46.9,46.9,0,0,1-9.68-7.53C48.41,5.09,45.45,5,42.83,4.55a30.44,30.44,0,0,0-6,0c-5.49.29-8.52,3.57-11.1,7.79-1.82,3-1.69,6.24-1.67,9.55a14.68,14.68,0,0,1-1.33,5.94c-.88,2-1.46,4.08-.34,6.59a18.51,18.51,0,0,0,2.22-5.64A48.65,48.65,0,0,1,31.4,15.08c1.1-1.59,2.42-2.8,4.51-2a4.64,4.64,0,0,1,2.67,5.58,143.11,143.11,0,0,1-8,18.83A2.49,2.49,0,0,0,30.32,40c3.82,7.63,3.53,9.72-2.35,15.91,2.44,0,4.65,0,6.86,0s3.91.93,4,3.44-.69,4.12-3.33,4.81-5.05.3-7.83.56A159.14,159.14,0,0,1,29.77,85c.15,2.66.14,5.19-2.36,6.9ZM33.9,18.79A23,23,0,0,0,28,31.88a33.54,33.54,0,0,0,6.2-12.79c.21-.21.33-.43,0-.65C34.21,18.43,34,18.67,33.9,18.79Zm-6.22,6.76a3.69,3.69,0,0,0-.39.66q-.95,2.66-1.85,5.34c-1.39,4.1-1.39,4.1-5.78,4.2a3.85,3.85,0,0,0-1.61.12c-1.79.89-2-.17-2.09-1.54-.19-3-.45-5.93-.57-8.91-.07-2-1.1-2.58-2.81-2.15a5.06,5.06,0,0,0-3.83,3.08,24,24,0,0,0-1.11,4.46c-.27,1.45-1.13,3.67.14,4.13,1.66.59,2.88-1.43,3.74-2.9.71-1.22,1.11-2.62,1.74-3.9.34-.7.31-1.66,1.62-2.56,0,3.21,0,5.88,0,8.55,0,1.68.13,3.39-2.1,1.16-.57,1.1.2,2.17-.76,3.18-6.08,6.35-3.67,16.21,6.59,17.76,4.09.62,8-.59,10.44-4.3,2.33-3.51,2.83-7.22.14-10.84A3.52,3.52,0,0,1,29,36.8c1.9-3.61,3.9-7.19,4.84-11.23-1.29,1.85-2.32,3.83-3.52,5.71s-1.53,4.32-4,5.42C26.05,32.77,27.34,29.29,27.68,25.55Zm-2.35,52.9C22.18,81,22.69,84,23.68,87c.44,1.35,1.29,2.71,2.78,2.49,1.7-.25,1.52-1.92,1.49-3.3C27.84,79.43,27,72.69,26.2,66c-.29-2.55.36-3.18,2.77-3,2.23.16,4.54.37,6.7-.58a2.6,2.6,0,0,0,1.61-2.84c-.06-.87-.19-1.75-1.17-1.89a23,23,0,0,0-6.73-.52,94.11,94.11,0,0,1-10.19.94c-4.91.15-9.83,0-14.75,0-1.62,0-3,.21-2.95,2.18s.91,3.34,3.1,3.3c2.36,0,4.72,0,7.06-.29,1.55-.17,2.16.19,2.17,1.8a64.86,64.86,0,0,1-.93,10.51c-.54,3.45-2,6.73-1.84,10.31.08,1.68.72,3.15,2.53,2.65,3.23-.89,3.14-4.29,4.4-6.66.8-1.52-.92-1.39-1.37-2.09-.17-.27-.71-.39-.43-.86s.64-.43,1.13-.18C19.9,80,22.45,79.72,25.33,78.45Zm50-54a8.13,8.13,0,0,0-7.81-7.78c-4.62-.13-7.45,2.2-7.44,6.13,0,4.37,4,8,8.78,8C72.85,30.83,75.36,28.35,75.37,24.45ZM30.1,19.91c1.43-.06,1.76-1,2.22-1.68a2.18,2.18,0,0,1,2.83-.94c1.14.47.55,1.59.38,2.4-.27,1.28-.71,2.51-1.08,3.77a10.15,10.15,0,0,0,2.35-6.41,2.61,2.61,0,0,0-1.48-2.4c-1-.51-1.74.3-2.27,1C32.05,16.94,31.17,18.33,30.1,19.91ZM29.74,5.68c0-.56-.2-1.06-.69-1a2.11,2.11,0,0,0-1.93,1.52.84.84,0,0,0,.77.93C28.91,7.21,29.29,6.34,29.74,5.68ZM30,21.55l.44-.46c-.18-.06-.4-.21-.55-.16s-.28.3-.42.45Z"
                  style="fill:#5a4658"/>
            <path d="M27.68,25.55c-.34,3.74-1.63,7.22-1.42,11.15,2.51-1.1,2.86-3.58,4-5.42s2.23-3.86,3.52-5.71c-.94,4-2.94,7.62-4.84,11.23a3.52,3.52,0,0,0,.21,4.29c2.69,3.62,2.19,7.33-.14,10.84-2.47,3.71-6.35,4.92-10.44,4.3C8.35,54.68,5.94,44.82,12,38.47c1-1,.19-2.08.76-3.18,2.23,2.23,2.12.52,2.1-1.16,0-2.67,0-5.34,0-8.55-1.31.9-1.28,1.86-1.62,2.56-.63,1.28-1,2.68-1.74,3.9-.86,1.47-2.08,3.49-3.74,2.9-1.27-.46-.41-2.68-.14-4.13a24,24,0,0,1,1.11-4.46,5.06,5.06,0,0,1,3.83-3.08c1.71-.43,2.74.19,2.81,2.15.12,3,.38,5.94.57,8.91.08,1.37.3,2.43,2.09,1.54a3.85,3.85,0,0,1,1.61-.12c4.39-.1,4.39-.1,5.78-4.2q.9-2.68,1.85-5.34A3.69,3.69,0,0,1,27.68,25.55ZM12,44.33c0,1.78.31,3.58,2.38,3.63,1.8,0,2.57-1.62,2.59-3.23s-.6-3-2.66-3C12.53,41.68,12.06,42.84,12,44.33ZM27.29,45c-.2-1.66-.95-3.23-2.52-3.11s-2.46,1.62-2.33,3.42c.12,1.54.38,3.06,2.35,2.93S27,46.51,27.29,45Zm-3.83,7.85c-2-.74-3.92-.25-5.79-.46-.57-.07-.92,0-1,.46,0,.24.28.62.53.83C18.34,54.73,22,54.3,23.46,52.89ZM20.12,50c.73-.29,1.64-.7,1.71-1.46.11-1.07-1.1-1-1.78-1.13a1.48,1.48,0,0,0-1.8,1.2C18.25,49.41,19.35,49.6,20.12,50Z"
                  style="fill:#f4e7f3"/>
            <path d="M25.33,78.45c-2.88,1.27-5.43,1.59-8,.28-.49-.25-.84-.29-1.13.18s.26.59.43.86c.45.7,2.17.57,1.37,2.09-1.26,2.37-1.17,5.77-4.4,6.66-1.81.5-2.45-1-2.53-2.65-.17-3.58,1.3-6.86,1.84-10.31a64.86,64.86,0,0,0,.93-10.51c0-1.61-.62-2-2.17-1.8-2.34.26-4.7.25-7.06.29-2.19,0-3-1.43-3.1-3.3s1.33-2.2,3-2.18c4.92.06,9.84.16,14.75,0a94.11,94.11,0,0,0,10.19-.94,23,23,0,0,1,6.73.52c1,.14,1.11,1,1.17,1.89a2.6,2.6,0,0,1-1.61,2.84c-2.16.95-4.47.74-6.7.58-2.41-.18-3.06.45-2.77,3C27,72.69,27.84,79.43,28,86.22c0,1.38.21,3-1.49,3.3-1.49.22-2.34-1.14-2.78-2.49C22.69,84,22.18,81,25.33,78.45Zm-9.48-7.62A8.91,8.91,0,0,0,16.74,75c.91,1.52,2,2.71,4,2.74s3-1.17,3.86-2.55c1.85-3,1.51-7.92-.6-10.72C22.22,62.14,20,62,17.86,64.09,16.22,65.75,15.84,67.83,15.85,70.83Z"
                  style="fill:#f4e7f3"/>
            <path d="M34.2,19.09A33.72,33.72,0,0,1,28,31.88,23,23,0,0,1,33.9,18.79Z" style="fill:#c09dbe"/>
            <path d="M30.1,19.91c1.07-1.58,1.95-3,2.95-4.26.53-.7,1.24-1.51,2.27-1a2.61,2.61,0,0,1,1.48,2.4,10.15,10.15,0,0,1-2.35,6.41c.37-1.26.81-2.49,1.08-3.77.17-.81.76-1.93-.38-2.4a2.18,2.18,0,0,0-2.83.94C31.86,18.94,31.53,19.85,30.1,19.91Z"
                  style="fill:#f4e7f3"/>
            <path d="M29.74,5.68c-.45.66-.83,1.53-1.85,1.48a.84.84,0,0,1-.77-.93,2.11,2.11,0,0,1,1.93-1.52C29.54,4.62,29.74,5.12,29.74,5.68Z"
                  style="fill:#f4e7f3"/>
            <path d="M30,21.55l-.53-.17c.14-.15.25-.39.42-.45s.37.1.55.16Z" style="fill:#5c485a"/>
            <path d="M33.9,18.79c.11-.12.31-.36.32-.35.3.22.18.44,0,.65Z" style="fill:#c09dbe"/>
            <path d="M12,44.33c0-1.49.5-2.65,2.31-2.65,2.06,0,2.68,1.42,2.66,3S16.21,48,14.41,48C12.34,47.91,12,46.11,12,44.33Z"
                  style="fill:#5c485a"/>
            <path d="M27.29,45c-.26,1.47-.55,3.11-2.5,3.24s-2.23-1.39-2.35-2.93c-.13-1.8.73-3.29,2.33-3.42S27.09,43.38,27.29,45Z"
                  style="fill:#5c485a"/>
            <path d="M23.46,52.89c-1.42,1.41-5.12,1.84-6.27.83-.25-.21-.57-.59-.53-.83.09-.46.44-.53,1-.46C19.54,52.64,21.46,52.15,23.46,52.89Z"
                  style="fill:#5a4658"/>
            <path d="M20.12,50c-.77-.4-1.87-.59-1.87-1.39a1.48,1.48,0,0,1,1.8-1.2c.68.13,1.89.06,1.78,1.13C21.76,49.3,20.85,49.71,20.12,50Z"
                  style="fill:#5c485a"/>
            <path d="M15.85,70.83c0-3,.37-5.08,2-6.74,2.09-2.1,4.36-2,6.15.42,2.11,2.8,2.45,7.74.6,10.72-.86,1.38-1.93,2.57-3.86,2.55s-3.1-1.22-4-2.74A8.91,8.91,0,0,1,15.85,70.83Zm8.27-.56a6.68,6.68,0,0,0-.66-3c-.44-1.4-1.26-2.92-2.82-3s-2.13,1.62-2.67,3a7.64,7.64,0,0,0-.35,3.2c.11,2.83,1.93,5.61,3.52,5.49S24.11,73.07,24.12,70.27Z"
                  style="fill:#5a4658"/>
            <path d="M24.12,70.27c0,2.8-1.49,5.57-3,5.69s-3.41-2.66-3.52-5.49a7.64,7.64,0,0,1,.35-3.2c.54-1.38,1-3,2.67-3s2.38,1.55,2.82,3A6.68,6.68,0,0,1,24.12,70.27Z"
                  style="fill:#c09dbe"/>
        </g>
</svg>