<svg xmlns="http://www.w3.org/2000/svg" viewBox="0 0 68.58 134.24"><g id="Ebene_2" data-name="Ebene 2"><g id="Ebene_1-2" data-name="Ebene 1"><path d="M0,79.38a7.52,7.52,0,0,0,.57-.82c2.32-4.49,4.49-5.45,9.45-4.49a53.63,53.63,0,0,0,16.32.79c-5.72-3-9.35-7.27-11.12-13.07-2.35-7.68-.58-14.37,4.67-20.27,1.7-1.91,1.73-1.89,1-4.69-1.65.93-2.95,2.36-4.75,3-2.68.9-4.11.06-4.17-2.72A43.27,43.27,0,0,1,15.9,18.22c1.73-3.85,5.8-5,9.62-5.74,1.54-.28,2.92,1.31,3.34,3A26.43,26.43,0,0,1,30,23.25c-.21,3.75.71,7.42.56,11.14,0,1.08.38,1.42,1.43,1.38a23.39,23.39,0,0,1,9.27,1.41c1.46.55,1.54-.58,1.77-1.33q2.49-7.79,4.84-15.61a57.17,57.17,0,0,1,9-17.61c1.46-2,3.48-3.29,6-2.29,2.19.86,4.05,2.54,3.72,5.84C66,12.35,63.54,17.94,61.5,23.66,59.23,30,55.46,35.68,53,42c-.36.91-.76,1.69-.08,2.69,6.81,10,3.34,23.38-7.27,29.88,3.17-.32,5.67-.53,8.16-.84a31.24,31.24,0,0,1,9.21,0c3.3.57,5.27,2.36,5.57,5.24.27,2.49-2.19,6.19-4.72,7A29.32,29.32,0,0,1,55,87.06c-6,0-6.46.74-5.86,6.51.63,6.1.62,12.25,1.54,18.33.58,3.81,1.18,7.63,1.86,11.42a14.88,14.88,0,0,1-.11,6.67A5.29,5.29,0,0,1,48,134.2a6,6,0,0,1-5.79-2.79c-1.79-2.78-2.21-6-3-9.15-.36-1.48-.4-3-.63-4.55-.14-.9-.29-1.77-1.57-1.8s-1.49.54-1.72,1.59a81.17,81.17,0,0,1-2.14,8.32c-.93,2.84-2.14,5.52-5.43,6.6-5.16,1.71-9.39-1.28-9.19-6.72.19-5,1.7-9.73,2.86-14.52,1.64-6.77,1.35-13.64,1.59-20.49.06-1.64-.62-2.09-2.25-2.1-4.23,0-8.47-.46-12.7-.36-3.95.1-6.39-1.74-8.09-5ZM22.73,33.79c-.52.92-1,1.35-.58,2.26,1.32,2.66,1.57,5.17-1.66,6.77a1.42,1.42,0,0,0-.37.4,19.61,19.61,0,0,0-1.18,22.94,19.86,19.86,0,0,0,21.61,8.63c13-3.55,18.48-18,11-29.55a3,3,0,0,1-.3-3.15C53.64,35.5,57.64,29.66,60,23c1.91-5.4,4-10.73,4.88-16.44.37-2.43-.57-4.25-2.74-5C60.2,1,58.79,2.45,57.71,4a60.93,60.93,0,0,0-8.63,17.25Q46.61,29,44.16,36.82c-.58,1.87-1.42,2.79-3.51,1.69-3.11-1.64-6.54-1.45-9.82-.93-1.67.26-1.9-.22-1.95-1.53-.17-4.34-.4-8.68-.53-13a29.83,29.83,0,0,0-1.22-7.14,2.24,2.24,0,0,0-2-1.87c-2.18-.13-7.46,3.23-8.11,5.31-1.58,4.95-3.42,9.85-3.42,15.19,0,1.34-.62,3.09.54,3.73,1.42.78,2.86-.59,4.11-1.42a5.48,5.48,0,0,0,1.49-1.88,44.74,44.74,0,0,0,4.83-11.4c.21-.8.25-2,1.42-1.95,1.35.11.86,1.49.89,2.21.08,2.71-.08,5.43-.13,8.15,0,1.63,0,3.27,0,4.9,0,.82.1,1.81-.87,2s-1-.83-1.31-1.41C24,36.37,23.44,35.24,22.73,33.79ZM44,113.19a4.5,4.5,0,0,1-3,2.15c-.68.21-1.22.31-1,1.2.85,4,1.22,8.14,2.66,12,.94,2.54,3.15,4.06,5.06,3.68,2.26-.45,3.78-2.43,3.56-5.32-.48-6.09-1.62-12.11-2.46-18.16-1-7.1-.43-14.22-1.28-21.29-.15-1.17.72-1.5,1.75-1.55,3-.16,6-.27,8.95-.58a19,19,0,0,0,5.49-1.14c2.31-1,3.17-3.06,2.87-5.58-.27-2.29-1.9-2.7-3.79-3.12a15.22,15.22,0,0,0-5.1-.44c-6.11.7-12.27.39-18.37,1.5-5,.91-10-.43-15.11,0-5.52.53-11-.6-16.51-1-3.5-.25-5.36,1.82-5.44,5.5s1.57,5.26,5.27,5.35c4.71.1,9.42.14,14.13.39,2.15.12,2.92,1,2.92,2.83,0,6.24.32,12.49-.76,18.71-1,5.67-3.09,11.09-3.37,16.92-.12,2.57.61,4.73,2.82,5.61s4.49,0,6.24-2c2.93-3.41,2.93-7.83,4.38-11.74.45-1.21.35-1.68-1.1-1.84-2.39-.26-2.37-.37-3.23-2.28A19.64,19.64,0,0,0,44,113.19ZM25.54,28.11c-2.14,3.21-2.08,4.83,0,7Z" style="fill:#5c485a"/><path d="M22.73,33.79c.71,1.45,1.22,2.58,1.81,3.68.31.58.39,1.63,1.31,1.41s.88-1.21.87-2c0-1.63,0-3.27,0-4.9.05-2.72.21-5.44.13-8.15,0-.72.46-2.1-.89-2.21-1.17-.09-1.21,1.15-1.42,1.95a44.74,44.74,0,0,1-4.83,11.4,5.48,5.48,0,0,1-1.49,1.88c-1.25.83-2.69,2.2-4.11,1.42-1.16-.64-.55-2.39-.54-3.73,0-5.34,1.84-10.24,3.42-15.19.65-2.08,5.93-5.44,8.11-5.31a2.24,2.24,0,0,1,2,1.87A29.83,29.83,0,0,1,28.35,23c.13,4.35.36,8.69.53,13,.05,1.31.28,1.79,1.95,1.53,3.28-.52,6.71-.71,9.82.93,2.09,1.1,2.93.18,3.51-1.69Q46.59,29,49.08,21.21A60.93,60.93,0,0,1,57.71,4c1.08-1.51,2.49-3,4.43-2.33,2.17.72,3.11,2.54,2.74,5-.88,5.71-3,11-4.88,16.44-2.36,6.62-6.36,12.46-8.77,19.05a3,3,0,0,0,.3,3.15c7.5,11.52,2.06,26-11,29.55a19.86,19.86,0,0,1-21.61-8.63,19.61,19.61,0,0,1,1.18-22.94,1.42,1.42,0,0,1,.37-.4c3.23-1.6,3-4.11,1.66-6.77C21.71,35.14,22.21,34.71,22.73,33.79Zm41-25.3c0-2.5-2-3.78-4-2.85a7.67,7.67,0,0,0-3.34,3.42,81.4,81.4,0,0,0-4.64,10C49,25.55,48,32.45,47,39.36c-.06.45-.18,1,.4,1.1s.79-.57,1.08-1c5.43-7.65,9.15-16.22,13.22-24.61C62.72,12.74,63.06,10.44,63.77,8.49ZM22.2,53.22c0,2.85,1.93,5.34,4.22,5.44,2.13.08,4-2.18,4.11-4.86.06-2.94-2-5.55-4.4-5.51C23.91,48.33,22.21,50.47,22.2,53.22Zm18.14,1.7c0,2.67,1.65,4.64,3.91,4.64,2.51,0,4.46-2.43,4.43-5.51,0-2.77-1.62-4.7-3.84-4.66S40.35,52.07,40.34,54.92Zm-4.28,3.89c-1.3.25-3.23.07-3.32,1.61S35.1,61.8,36,63c.79-1.25,3.27-.89,3.15-2.7C39,58.69,37.19,59.14,36.06,58.81Zm-5.32,9.25a.93.93,0,0,0,.46,1.12c2.48.43,5,.81,7.46,1.08.42,0,.94-.45,1.35-.78a.83.83,0,0,0,.21-.7c-.08-.42-.47-.49-.83-.44C36.49,68.78,33.63,67.93,30.74,68.06Z" style="fill:#f4e7f3"/><path d="M44,113.19a19.64,19.64,0,0,1-14.5-.13c.86,1.91.84,2,3.23,2.28,1.45.16,1.55.63,1.1,1.84-1.45,3.91-1.45,8.33-4.38,11.74-1.75,2-4,2.9-6.24,2s-2.94-3-2.82-5.61c.28-5.83,2.4-11.25,3.37-16.92,1.08-6.22.75-12.47.76-18.71,0-1.81-.77-2.71-2.92-2.83-4.71-.25-9.42-.29-14.13-.39-3.7-.09-5.34-1.74-5.27-5.35s1.94-5.75,5.44-5.5c5.5.38,11,1.51,16.51,1,5.06-.47,10.15.87,15.11,0,6.1-1.11,12.26-.8,18.37-1.5a15.22,15.22,0,0,1,5.1.44c1.89.42,3.52.83,3.79,3.12.3,2.52-.56,4.6-2.87,5.58a19,19,0,0,1-5.49,1.14c-3,.31-6,.42-8.95.58-1,0-1.9.38-1.75,1.55.85,7.07.29,14.19,1.28,21.29.84,6,2,12.07,2.46,18.16.22,2.89-1.3,4.87-3.56,5.32-1.91.38-4.12-1.14-5.06-3.68-1.44-3.88-1.81-8-2.66-12-.18-.89.36-1,1-1.2A4.5,4.5,0,0,0,44,113.19ZM28.28,98.35c.38,3.94,1.13,8,4.25,11.11a6.43,6.43,0,0,0,9.76-.18c4.74-5.3,4.43-16.69-.58-21.7-3.26-3.26-7.79-2.88-10.45.87C29.21,91.34,28.47,94.64,28.28,98.35Z" style="fill:#f4e7f3"/><path d="M25.54,28.11v7C23.46,32.94,23.4,31.32,25.54,28.11Z" style="fill:#c09dbe"/><path d="M63.77,8.49c-.71,1.95-1.05,4.25-2.08,6.37-4.07,8.39-7.79,17-13.22,24.61-.29.42-.4,1.11-1.08,1s-.46-.65-.4-1.1c1-6.91,2-13.81,4.76-20.32a81.4,81.4,0,0,1,4.64-10,7.67,7.67,0,0,1,3.34-3.42C61.77,4.71,63.8,6,63.77,8.49ZM49.26,35.14A126.61,126.61,0,0,0,61.6,10.48c.42-1.13,1.31-2.65-.06-3.43C60,6.17,59.23,8,58.3,8.85a9.72,9.72,0,0,0-1,1.57,38.6,38.6,0,0,0-3.43,7.34A61.21,61.21,0,0,0,49.26,35.14Z" style="fill:#5a4658"/><path d="M22.2,53.22c0-2.75,1.71-4.89,3.93-4.93,2.38,0,4.46,2.57,4.4,5.51-.06,2.68-2,4.94-4.11,4.86C24.13,58.56,22.2,56.07,22.2,53.22Z" style="fill:#5a4658"/><path d="M40.34,54.92c0-2.85,2.15-5.48,4.5-5.53s3.81,1.89,3.84,4.66c0,3.08-1.92,5.51-4.43,5.51C42,59.56,40.33,57.59,40.34,54.92Z" style="fill:#5a4658"/><path d="M36.06,58.81c1.13.33,2.95-.12,3.06,1.47.12,1.81-2.36,1.45-3.15,2.7-.87-1.18-3.32-.9-3.23-2.56S34.76,59.06,36.06,58.81Z" style="fill:#5c485a"/><path d="M30.74,68.06c2.89-.13,5.75.72,8.65.28.36,0,.75,0,.83.44a.83.83,0,0,1-.21.7c-.41.33-.93.82-1.35.78-2.5-.27-5-.65-7.46-1.08A.93.93,0,0,1,30.74,68.06Z" style="fill:#5c485a"/><path d="M28.28,98.35c.19-3.71.93-7,3-9.9,2.66-3.75,7.19-4.13,10.45-.87,5,5,5.32,16.4.58,21.7a6.43,6.43,0,0,1-9.76.18C29.41,106.34,28.66,102.29,28.28,98.35Zm15.91.88a17.07,17.07,0,0,0-2.87-9.73c-2.47-3.52-6.6-3.39-9,.17-3.26,4.89-3,12.65.53,17.68,2.38,3.37,6,3.48,8.58.22A14.23,14.23,0,0,0,44.19,99.23Z" style="fill:#5a4658"/><path d="M49.26,35.14a61.21,61.21,0,0,1,4.57-17.38,38.6,38.6,0,0,1,3.43-7.34,9.72,9.72,0,0,1,1-1.57C59.23,8,60,6.17,61.54,7.05c1.37.78.48,2.3.06,3.43A126.61,126.61,0,0,1,49.26,35.14Z" style="fill:#c09dbe"/><path d="M44.19,99.23a14.23,14.23,0,0,1-2.73,8.34c-2.59,3.26-6.2,3.15-8.58-.22-3.56-5-3.79-12.79-.53-17.68,2.37-3.56,6.5-3.69,9-.17A17.07,17.07,0,0,1,44.19,99.23Z" style="fill:#c09dbe"/></g></g></svg>