<svg xmlns="http://www.w3.org/2000/svg" viewBox="0 0 61.8 126.69"><g id="Ebene_2" data-name="Ebene 2"><g id="Ebene_1-2" data-name="Ebene 1"><path d="M9.11,36.22c-1.48,1.27-2.79,2.51-4.22,3.59a3,3,0,0,1-3.74.3A3.39,3.39,0,0,1,.07,36.66a122.15,122.15,0,0,1,3.19-16.6C4.43,15.92,11,12.25,15,13.71c.9.32,1.12,1,1.37,1.82a37.89,37.89,0,0,1,1.55,10.39c.11,3.54.41,7,.76,10.56a20.72,20.72,0,0,1,10.24.22c1.47.43,1.61-.11,1.87-1.12a129.15,129.15,0,0,1,7.34-21.27A52.63,52.63,0,0,1,44.64,3.16a12.37,12.37,0,0,1,1.54-1.53A5.3,5.3,0,0,1,51.92.39c2.33.92,3,2.89,3.17,5.18.38,4.83-1.26,9.2-2.92,13.59-2.9,7.66-6.69,14.9-10.27,22.25-.9,1.85-1.1,3.26.06,5.2A19.35,19.35,0,0,1,39,70.24c-1.62,1.65-1.16,2.29.13,3.68,5.68,6.13,10.93,12.6,12.88,21A64.72,64.72,0,0,1,53.4,104c.17,2,.46,3.11,2.94,3,3.64-.17,5.42,3.1,5.46,6.75,0,3.22-1.76,5.06-3.16,7.33a2,2,0,0,1-3,.7c-1.89-1.05-3.47-1-5.5.44-4.52,3.27-10,4-15.44,4.31a43.88,43.88,0,0,1-7.34,0c-2.21-.23-4.57-.65-5.07-3.52a1.35,1.35,0,0,0-1.74-1.23,11.66,11.66,0,0,1-6.24-1.31,7,7,0,0,1-8.61,3.25,3.87,3.87,0,0,1-2.61-3.52c-.11-2,0-4.13,2-5.26,1.76-1,2.13-2.35,2.13-4.24,0-5.88-.33-11.74-.21-17.63A25.55,25.55,0,0,1,12.87,77c1.1-1.36,1.47-2-.42-3.06-12-7-13.93-22-4.1-31.72C10.37,40.22,10,38.41,9.11,36.22Zm20.06,61c.63.67-.21,1-.25,1.46-.07.86-1.72,1.43-.17,2.65s2,0,2.87-.65c1.83-1.34,3.67-2.63,6.11-2.51.61,0,1.09.13,1.06.87,0,1-.68.34-1.09.43A11.13,11.13,0,0,0,34,101c-4,2.61-5,6.35-4.21,10.83s-.1,6.57-3.48,7.47c-1.58.42-2.36,1.1-2.29,2.76.07,1.88,1.5,2.17,2.82,2.23,3,.13,6,.16,9,0a28,28,0,0,0,13.12-3.72,3.37,3.37,0,0,0,1.85-2.41c1.63-7.3,1-14.54-.45-21.75-1.78-9-7.37-15.72-13.41-22.15-.89-1-1.66-.85-2.85-.25-4.68,2.35-9.66,4-14.83,2.23-2.83-1-4.08-.19-5.55,2-3.53,5.34-5.7,11-5,17.48.59,5.31-.1,10.63.06,15.94a4.16,4.16,0,0,1-1.73,3.78c-1.73,1.21-2.65,2.82-2,4.9.71,2.31,2.82.86,4.23,1.33a3.12,3.12,0,0,0,.81,0c1.77,0,3.07-1.21,2.86-2.61-.4-2.61,2.65-6-1.61-7.85-.28-.12-.4-.79-.47-1.22-.43-2.52-.65-5.35,1.07-7.18s1.11-3.29.45-5a9.7,9.7,0,0,1-.76-2.28c-.21-1.85-.44-3.74.38-5.51a20.29,20.29,0,0,1,1.11,4.17c.55,3.13,3,2.1,4.93,2.33,2.35.28,1.34-1.51,1.62-2.53s.55-2,.82-2.92a13.56,13.56,0,0,1,.08,6.45c-.71,2.4-.88,4.21,1.73,5.36.05,0,0,.32,0,.64l-3.85-1c-4.42-1.12-6.63.71-6.45,5.34.1,2.52,2.25,3.91,4.46,2.85,1.24-.6,1.15-2,1.55-3,.18-.48,0-1.17.72-1.28s.7.57,1,1a4,4,0,0,0,4,1.58c1.51-.23,1.79-1.44,2-2.82a38.46,38.46,0,0,0,.52-4.28C26.29,99.88,26.74,97.91,29.17,97.26Zm-15-76.07c2,5.82.79,11.1.6,16.36,0,.32,0,.79-.48.77A1.23,1.23,0,0,1,13,37.49c-.65-1.37-1.51-2.64-2.39-4.12a3.29,3.29,0,0,0-.18,2.76,7.12,7.12,0,0,1-1.85,7.59,17.55,17.55,0,0,0-4.4,16.83C6.83,71.17,17,77.05,28.05,74.75c12.44-2.58,19-16.87,12.46-27.63a5.27,5.27,0,0,1-.21-5.69c3.66-7.7,7.38-15.37,10.61-23.26,1.77-4.3,3-8.66,2.53-13.38a3.44,3.44,0,0,0-5.53-2.62,11.75,11.75,0,0,0-2.5,2.43c-3.18,4.07-5.22,8.77-7.26,13.47-2.64,6.09-4.41,12.46-6.4,18.76-.3.94-.07,2.32-2,1.63a19.92,19.92,0,0,0-10.41-.68c-1.43.26-1.74,0-2-1.4-.7-3.75-.56-7.54-.92-11.3-.29-3-.59-5.91-1.15-8.83A1.57,1.57,0,0,0,14,14.8c-2.59-.55-7.86,1.83-8.73,4.32A62.35,62.35,0,0,0,1.67,37c0,.81-.18,1.82.72,2.15s1.52-.36,2.15-.85a20.28,20.28,0,0,0,5.8-7.36C11.78,27.94,12.75,24.75,14.13,21.19Zm38.77,94a17.2,17.2,0,0,0,0,3.21c.4,1.84,2.29,1.19,3.44,1.8s.64-.69,1-1.07c1.27-1.52,3.09-2.8,2-5.23,0,0,.09-.14.12-.23.87-2.09-1.6-5.33-3.84-5.17a1.41,1.41,0,0,0-1.48,1.24C54,111.81,52.37,113.55,52.9,115.23Zm-27.2,1.83a22.71,22.71,0,0,1-5.29-4.1c-.62,1.32-1.36,2.68-2.61,3.05-1.53.46-2.29,1.21-1.92,2.63s1.8,1.11,2.86,1.41C21.75,120.89,23.39,118.57,25.7,117.06Zm2.11-1c.1-4.72-.44-9,.62-13.24-1.4,3.64-.48,8.81-7.23,8C22.88,113.52,25.16,114.68,27.81,116.06ZM14,26.71c-2.91,4.62-2.95,5.52-.34,8.35C13.24,32.25,14.58,29.66,14,26.71Zm.49,71.07c.36,2.29,2,2.74,3.68,3.1C19.14,97.62,19.14,97.62,14.52,97.78Zm4.7,12.78c-1.25,1-1.83,2-3.21,2s-.77,1.3-.64,1.92c.22,1.1,1.08.17,1.41.06C18.32,114,19.19,112.87,19.22,110.56Z" style="fill:#5c485a"/><path d="M29.17,97.26c-2.43.65-2.88,2.62-3,4.71a38.46,38.46,0,0,1-.52,4.28c-.2,1.38-.48,2.59-2,2.82a4,4,0,0,1-4-1.58c-.3-.41-.3-1.1-1-1s-.54.8-.72,1.28c-.4,1.06-.31,2.41-1.55,3-2.21,1.06-4.36-.33-4.46-2.85-.18-4.63,2-6.46,6.45-5.34l3.85,1c0-.32.09-.62,0-.64-2.61-1.15-2.44-3-1.73-5.36a13.56,13.56,0,0,0-.08-6.45c-.27,1-.56,2-.82,2.92s.73,2.81-1.62,2.53c-1.91-.23-4.38.8-4.93-2.33A20.29,20.29,0,0,0,12,90.09c-.82,1.77-.59,3.66-.38,5.51a9.7,9.7,0,0,0,.76,2.28c.66,1.75,1.31,3.16-.45,5s-1.5,4.66-1.07,7.18c.07.43.19,1.1.47,1.22,4.26,1.82,1.21,5.24,1.61,7.85.21,1.4-1.09,2.62-2.86,2.61a3.12,3.12,0,0,1-.81,0c-1.41-.47-3.52,1-4.23-1.33-.64-2.08.28-3.69,2-4.9a4.16,4.16,0,0,0,1.73-3.78c-.16-5.31.53-10.63-.06-15.94-.73-6.5,1.44-12.14,5-17.48,1.47-2.22,2.72-3,5.55-2,5.17,1.78,10.15.12,14.83-2.23,1.19-.6,2-.7,2.85.25,6,6.43,11.63,13.16,13.41,22.15,1.43,7.21,2.08,14.45.45,21.75a3.37,3.37,0,0,1-1.85,2.41,28,28,0,0,1-13.12,3.72c-3,.13-6,.1-9,0-1.32-.06-2.75-.35-2.82-2.23-.07-1.66.71-2.34,2.29-2.76,3.38-.9,4.29-3,3.48-7.47S30,103.65,34,101a11.13,11.13,0,0,1,3.71-1.53c.41-.09,1.06.61,1.09-.43,0-.74-.45-.84-1.06-.87-2.44-.12-4.28,1.17-6.11,2.51-.87.64-1.37,1.83-2.87.65s.1-1.79.17-2.65C29,98.24,29.8,97.93,29.17,97.26Z" style="fill:#f5e8f3"/><path d="M14.13,21.19c-1.38,3.56-2.35,6.75-3.79,9.75a20.28,20.28,0,0,1-5.8,7.36c-.63.49-1.38,1.13-2.15.85S1.63,37.81,1.67,37A62.35,62.35,0,0,1,5.23,19.12c.87-2.49,6.14-4.87,8.73-4.32a1.57,1.57,0,0,1,1.33,1.45c.56,2.92.86,5.87,1.15,8.83.36,3.76.22,7.55.92,11.3.28,1.45.59,1.66,2,1.4a19.92,19.92,0,0,1,10.41.68c1.89.69,1.66-.69,2-1.63,2-6.3,3.76-12.67,6.4-18.76,2-4.7,4.08-9.4,7.26-13.47a11.75,11.75,0,0,1,2.5-2.43,3.44,3.44,0,0,1,5.53,2.62c.51,4.72-.76,9.08-2.53,13.38C47.68,26.06,44,33.73,40.3,41.43a5.27,5.27,0,0,0,.21,5.69c6.51,10.76,0,25.05-12.46,27.63C17,77.05,6.83,71.17,4.22,60.55a17.55,17.55,0,0,1,4.4-16.83,7.12,7.12,0,0,0,1.85-7.59,3.29,3.29,0,0,1,.18-2.76c.88,1.48,1.74,2.75,2.39,4.12a1.23,1.23,0,0,0,1.21.83c.53,0,.47-.45.48-.77C14.92,32.29,16.11,27,14.13,21.19ZM35.56,39.64c.69,0,.78-.46,1-.86q4.78-8.6,9.6-17.18A60.49,60.49,0,0,0,51.1,9.45c.35-1.13.52-2.55-.68-3.19a3,3,0,0,0-3.52.64A15,15,0,0,0,44.25,10a63.33,63.33,0,0,0-7,15.94C36,30.36,35,34.91,35.56,39.64ZM18.62,53.88c0-3.22-1.83-5.38-4.46-5.31-2.37.07-3.89,2-3.85,4.91s2.23,5.54,4.53,5.45S18.64,56.75,18.62,53.88Zm18,.57c0-2.94-1.55-4.83-3.92-4.85-2.52,0-4.31,2.14-4.31,5.2,0,2.68,2,5.22,4.15,5.19S36.61,57.32,36.59,54.45Zm-9.41,6.14a2.85,2.85,0,0,0-3-1.58c-1.36.1-2.86.27-3.48,1.86a.77.77,0,0,0,.27.7,7.44,7.44,0,0,1,2.7,1.61C24.23,63.62,27.24,61.41,27.18,60.59Zm1.3,8.66c0-.41-.26-.87-.58-.67-2,1.27-4.15-1.55-6.22.14a1.37,1.37,0,0,1-1.7-.41c-.28-.34-.65-.66-1.08-.14-.55.68.16.87.47,1.23a2.16,2.16,0,0,0,1.95.71,8.1,8.1,0,0,1,5,.27A1.65,1.65,0,0,0,28.48,69.25Z" style="fill:#f4e7f3"/><path d="M52.9,115.23c-.53-1.68,1.05-3.42,1.28-5.45a1.41,1.41,0,0,1,1.48-1.24c2.24-.16,4.71,3.08,3.84,5.17,0,.09-.14.19-.12.23,1,2.43-.77,3.71-2,5.23-.32.38.1,1.62-1,1.07s-3,0-3.44-1.8A17.2,17.2,0,0,1,52.9,115.23Z" style="fill:#f4e7f3"/><path d="M25.7,117.06c-2.31,1.51-3.95,3.83-7,3-1.06-.3-2.51-.08-2.86-1.41s.39-2.17,1.92-2.63c1.25-.37,2-1.73,2.61-3.05A22.71,22.71,0,0,0,25.7,117.06Z" style="fill:#f4e7f3"/><path d="M27.81,116.06c-2.65-1.38-4.93-2.54-6.61-5.27,6.75.84,5.83-4.33,7.23-8C27.37,107.08,27.91,111.34,27.81,116.06Z" style="fill:#c09dbe"/><path d="M14,26.71c.55,2.95-.79,5.54-.34,8.35C11.08,32.23,11.12,31.33,14,26.71Z" style="fill:#c09dbe"/><path d="M14.52,97.78c4.62-.16,4.62-.16,3.68,3.1C16.49,100.52,14.88,100.07,14.52,97.78Z" style="fill:#c09dbe"/><path d="M19.22,110.56c0,2.31-.9,3.44-2.44,4-.33.11-1.19,1-1.41-.06-.13-.62-.6-1.91.64-1.92S18,111.52,19.22,110.56Z" style="fill:#fff"/><path d="M35.56,39.64c-.53-4.73.45-9.28,1.67-13.73a63.33,63.33,0,0,1,7-15.94A15,15,0,0,1,46.9,6.9a3,3,0,0,1,3.52-.64c1.2.64,1,2.06.68,3.19A60.49,60.49,0,0,1,46.16,21.6q-4.8,8.59-9.6,17.18C36.34,39.18,36.25,39.61,35.56,39.64Zm1.72-5.58a144.42,144.42,0,0,0,9.54-17c1.12-2.5,2.49-5,2.78-7.8.06-.65.45-1.6-.4-1.93-.67-.26-1.35.35-1.86.83A12.33,12.33,0,0,0,46,9.86a38.24,38.24,0,0,0-4.41,8C39.29,23,37.41,28.32,37.28,34.06Z" style="fill:#5a4658"/><path d="M18.62,53.88c0,2.87-1.55,5-3.78,5s-4.49-2.55-4.53-5.45,1.48-4.84,3.85-4.91C16.79,48.5,18.61,50.66,18.62,53.88Zm-2.22-2c0-.8-.49-1.07-1.23-1.09A1.24,1.24,0,0,0,13.74,52a1.32,1.32,0,0,0,1.43,1.3A1.23,1.23,0,0,0,16.4,51.86Z" style="fill:#5a4658"/><path d="M36.59,54.45c0,2.87-1.92,5.5-4.08,5.54s-4.14-2.51-4.15-5.19c0-3.06,1.79-5.21,4.31-5.2C35,49.62,36.57,51.51,36.59,54.45Zm-3-2.6c-.71-.05-1.26.29-1.29,1a1.16,1.16,0,1,0,2.31,0A.91.91,0,0,0,33.61,51.85Z" style="fill:#5a4658"/><path d="M27.18,60.59c.06.82-2.95,3-3.5,2.59A7.44,7.44,0,0,0,21,61.57a.77.77,0,0,1-.27-.7c.62-1.59,2.12-1.76,3.48-1.86A2.85,2.85,0,0,1,27.18,60.59Z" style="fill:#5c485a"/><path d="M28.48,69.25a1.65,1.65,0,0,1-2.13,1.13,8.1,8.1,0,0,0-5-.27,2.16,2.16,0,0,1-1.95-.71c-.31-.36-1-.55-.47-1.23.43-.52.8-.2,1.08.14a1.37,1.37,0,0,0,1.7.41c2.07-1.69,4.17,1.13,6.22-.14C28.22,68.38,28.47,68.84,28.48,69.25Z" style="fill:#5c485a"/><path d="M37.28,34.06c.13-5.74,2-11,4.29-16.21a38.24,38.24,0,0,1,4.41-8,12.33,12.33,0,0,1,1.36-1.68c.51-.48,1.19-1.09,1.86-.83.85.33.46,1.28.4,1.93-.29,2.81-1.66,5.3-2.78,7.8A144.42,144.42,0,0,1,37.28,34.06Z" style="fill:#c09dbe"/><path d="M16.4,51.86a1.23,1.23,0,0,1-1.23,1.45A1.32,1.32,0,0,1,13.74,52a1.24,1.24,0,0,1,1.43-1.24C15.91,50.79,16.37,51.06,16.4,51.86Z" style="fill:#f4e7f3"/><path d="M33.61,51.85a.91.91,0,0,1,1,.95,1.16,1.16,0,1,1-2.31,0C32.35,52.14,32.9,51.8,33.61,51.85Z" style="fill:#f4e7f3"/></g></g></svg>