<svg xmlns="http://www.w3.org/2000/svg" viewBox="0 0 65.98 68.15"><g id="Ebene_2" data-name="Ebene 2"><g id="Ebene_1-2" data-name="Ebene 1"><path d="M8.25,41.86c-2.75,2.92-5,6-4.91,10.36.14,5.88,5.79,9.15,11,6.25.46-.26.85-1.22,1.44-.24.12.19-.19.64-.3,1v.66l.54-.24c1.58-2.19,3.19-4.24,3.07-7.31-.1-2.57.25-2.58,3.19-1.4,2.51,1,4.76,2.09,3.67,5.57-.27.85,1,1.8,1.37,2.33,1,1.25.34,1.68-.31,2.29a12.87,12.87,0,0,1-2.94,2.36c-2.64,1.25-4.76,3.6-7.41,4.41-2.83.87-6-.39-8.08-2.52C6.86,63.54,5.06,61.78,3.31,60-2,54.44-.37,44.64,4.59,39.38a26.13,26.13,0,0,1,10.83-7.31,2.91,2.91,0,0,0,2.1-2.14c3.2-10.72,9.79-19.09,18.39-26,6.44-5.16,4.81-5.24,12.36-.48,8.19,5.17,14.44,12.14,16.81,21.85C67.89,36.82,64,46.17,55.35,53.76a40.9,40.9,0,0,1-12.7,7.17,3.65,3.65,0,0,1-3.11-.28C34.13,58,29.31,54.52,25.82,49.51a3.73,3.73,0,0,0-2-1.24c-4.17-1.71-6.58-4.75-6.92-9.24-.16-2.23-1-2.38-2.72-1.42a18.92,18.92,0,0,0-4.56,2.86c-.29-2.07,1.42-2.6,2.7-3.27,4.84-2.54,10.22-3.62,15.28-5.57,3.2-1.24,5.82-3.16,6.79-7.27A18.28,18.28,0,0,1,27,29c-3.42,1.27-6.87,2.47-10.28,3.79C9.27,35.66,3.23,40,1.48,48.4.79,51.76.89,55.08,3.18,58a23.67,23.67,0,0,1-1-7.85C2.5,46.53,5.41,42.43,8.25,41.86ZM38.4,58.74c.25.14.35.73.74.36.11-.11-.13-.6-.2-.91-1.17-2.73-2.52-5.4-2.91-8.38-.14-1.09-.61-1.45-1.58-1.23a47.3,47.3,0,0,1-7.54.59C29.18,52.55,33.9,56.43,38.4,58.74Zm-28,6.63a5,5,0,0,0,5.32.75c2.47-1.11,4.93-2.27,7.38-3.44a2.8,2.8,0,0,0,1.58-2.1c.07-1.91.09-3.81.25-5.72.06-.64-.9-2.77-2.89-1a15.64,15.64,0,0,0-3.17,4.09,19.89,19.89,0,0,1-2.4,2.9c-1.17,1.35-2.46-.4-2.85-.18-1.45.81-2.84.24-4.22.41-1.85-.89-4-1.06-5.18-2.89Zm35.09-14C42.69,51.89,40,51,37.08,50a26.35,26.35,0,0,0,3.71,8.92c.62,1,1.25,1,2.24.48A48.93,48.93,0,0,0,53.48,52.6C63.81,43.47,66.61,31.42,61,19.75,57,11.5,50.24,6,42.47,1.56c-1-.58-1.62-.09-2.4.5a65.61,65.61,0,0,0-13.5,14.09,43.34,43.34,0,0,0-7,14.08C31.05,26.71,33.48,26.08,36.64,17c1.09,2.87,0,5.21-.8,7.48-1.05,3-2.44,5.81-2.91,9-1.25,8.59,2.71,14.84,11,17.12C44.5,50.76,45.11,50.8,45.49,51.36ZM34.41,47.28C30.9,42.18,30.26,36.88,31.8,31c-1.67.76-3,1.44-4.4,2s-2.86,1-4.31,1.39c-5,1.48-5.67,3.07-3.3,7.83a9.23,9.23,0,0,0,4.89,4.49C27.71,48,30.83,47.88,34.41,47.28Z" style="fill:#5f4c5e"/><path d="M8.25,41.86c-2.84.57-5.75,4.67-6,8.28a23.67,23.67,0,0,0,1,7.85C.89,55.08.79,51.76,1.48,48.4,3.23,40,9.27,35.66,16.71,32.78,20.12,31.46,23.57,30.26,27,29a18.28,18.28,0,0,0,7.4-4.63c-1,4.11-3.59,6-6.79,7.27-5.06,1.95-10.44,3-15.28,5.57-1.28.67-3,1.2-2.7,3.27C9.17,40.94,8.71,41.4,8.25,41.86Z" style="fill:#f5e8f3"/><path d="M45.49,51.36c-.38-.56-1-.6-1.57-.76-8.28-2.28-12.24-8.53-11-17.12.47-3.17,1.86-6,2.91-9,.81-2.27,1.89-4.61.8-7.48-3.16,9.06-5.59,9.69-17.08,13.21a43.34,43.34,0,0,1,7-14.08A65.61,65.61,0,0,1,40.07,2.06c.78-.59,1.38-1.08,2.4-.5C50.24,6,57,11.5,61,19.75c5.63,11.67,2.83,23.72-7.5,32.85A48.93,48.93,0,0,1,43,59.39c-1,.5-1.62.54-2.24-.48A26.35,26.35,0,0,1,37.08,50C40,51,42.69,51.89,45.49,51.36Z" style="fill:#f8e8e9"/><path d="M34.41,47.28c-3.58.6-6.7.7-9.73-.56a9.23,9.23,0,0,1-4.89-4.49c-2.37-4.76-1.68-6.35,3.3-7.83C24.54,34,26,33.55,27.4,33s2.73-1.21,4.4-2C30.26,36.88,30.9,42.18,34.41,47.28Z" style="fill:#f5e4e6"/><path d="M9.4,61c1.38-.17,2.77.4,4.22-.41.39-.22,1.68,1.53,2.85.18a19.89,19.89,0,0,0,2.4-2.9A15.64,15.64,0,0,1,22,53.82c2-1.73,2.95.4,2.89,1-.16,1.91-.18,3.81-.25,5.72a2.8,2.8,0,0,1-1.58,2.1c-2.45,1.17-4.91,2.33-7.38,3.44a5,5,0,0,1-5.32-.75C10.71,63.77,9.11,62.62,9.4,61Z" style="fill:#c29fc0"/><path d="M38.4,58.74c-4.5-2.31-9.22-6.19-11.49-9.57a47.3,47.3,0,0,0,7.54-.59c1-.22,1.44.14,1.58,1.23.39,3,1.74,5.65,2.91,8.38Z" style="fill:#f5e4e6"/><path d="M9.4,61c-.29,1.58,1.31,2.73,1,4.33L4.22,58.15C5.4,60,7.55,60.15,9.4,61Z" style="fill:#f5e8f3"/><path d="M38.94,58.19c.07.31.31.8.2.91-.39.37-.49-.22-.74-.36Z" style="fill:#f5e4e6"/><path d="M16,59.62l-.54.24V59.2Z" style="fill:#fffeff"/></g></g></svg>