<svg xmlns="http://www.w3.org/2000/svg" viewBox="0 0 157.95 72"><g id="Ebene_2" data-name="Ebene 2"><g id="Ebene_1-2" data-name="Ebene 1"><path d="M1.67,72c-.47-.78-1.95-.81-1.62-2.15s1.54-1.77,2.6-2.1Q17.71,63,32.8,58.4c20.68-6.31,41.14-13.19,60.86-22.13,4.72-2.13,9.48-4.17,14.23-6.24a3.33,3.33,0,0,0,2.24-2.09c3.36-9.72,9.55-17.42,17.48-23.76,6.7-5.37,4.92-5.57,12.78-.57,8.53,5.41,14.92,12.77,17,23,2.21,11.09-1.8,20.11-10.22,27.32a41.67,41.67,0,0,1-12.49,7,3.64,3.64,0,0,1-3.11-.25,36.08,36.08,0,0,1-13.78-11.1c-1-1.35-2-1.41-3.45-.72-8.39,4.14-17.45,5.63-26.6,7Q75,57.67,62.32,60.19C49,62.88,36,67,22.57,69.16,17.35,70,12.2,71.34,6.88,71.5A.83.83,0,0,0,6,72ZM130.35,58.75c.25.13.35.72.74.35.11-.11-.13-.59-.2-.91-1.15-2.73-2.52-5.39-2.91-8.37-.14-1.09-.6-1.45-1.58-1.24a49.5,49.5,0,0,1-7.86.61A40.59,40.59,0,0,0,130.35,58.75ZM129,49.94a29,29,0,0,0,3.6,8.68c.58,1,1.09,1.47,2.36.83A43.76,43.76,0,0,0,148.8,49.19c6.45-7.49,8.73-16,5.67-25.54-3.3-10.29-10.93-16.8-19.92-22-1.12-.65-1.78-.16-2.62.52A63,63,0,0,0,114.42,23c-.77,1.51-1.82,3-1.88,5.13,5.39-2.92,10.61-5.56,14.62-10,.4-.44.77-.79,1.37-.59s.57.88.51,1.37a16.76,16.76,0,0,1-1.12,5,38.51,38.51,0,0,0-3.07,9.8c-1.2,8.42,2.85,14.68,11,16.88.64.17,1.33.21,1.65.78C134.66,51.86,132,51.07,129,49.94ZM1.53,70.39c1.06,0,2.13,0,3.2,0,7.65-.31,15.06-2.21,22.55-3.56,9-1.6,17.74-4.17,26.61-6.26,14.24-3.36,28.81-4.93,43.16-7.65,8.73-1.66,17-4.4,24.27-9.75,1.53-1.13,2.34-2.11,1.94-4.22a16.59,16.59,0,0,1,.43-7.22c1.12-4.44,4.15-8.15,4.79-13.14a53.07,53.07,0,0,1-14.3,9.87c-11.88,5.62-24,10.8-36.14,15.74C57.16,52.67,35.48,58.77,14,65.51,9.8,66.83,5.49,67.89,1.53,70.39ZM123.89,42.86l-6.11,4.2a15.26,15.26,0,0,0,8.43.2C125.4,45.74,124.66,44.32,123.89,42.86Z" style="fill:#5f4c5e"/><path d="M129,49.94c3,1.13,5.71,1.92,8.5,1.43-.32-.57-1-.61-1.65-.78-8.1-2.2-12.15-8.46-11-16.88a38.51,38.51,0,0,1,3.07-9.8,16.76,16.76,0,0,0,1.12-5c.06-.49.19-1.14-.51-1.37s-1,.15-1.37.59c-4,4.41-9.23,7.05-14.62,10,.06-2.14,1.11-3.62,1.88-5.13A63,63,0,0,1,131.93,2.15c.84-.68,1.5-1.17,2.62-.52,9,5.22,16.62,11.73,19.92,22,3.06,9.53.78,18.05-5.67,25.54a43.76,43.76,0,0,1-13.89,10.26c-1.27.64-1.78.12-2.36-.83A29,29,0,0,1,129,49.94Z" style="fill:#f8e8e9"/><path d="M1.53,70.39c4-2.5,8.27-3.56,12.48-4.88,21.47-6.74,43.15-12.84,64-21.32,12.17-4.94,24.26-10.12,36.14-15.74a53.07,53.07,0,0,0,14.3-9.87c-.64,5-3.67,8.7-4.79,13.14a16.59,16.59,0,0,0-.43,7.22c.4,2.11-.41,3.09-1.94,4.22-7.26,5.35-15.54,8.09-24.27,9.75C82.7,55.63,68.13,57.2,53.89,60.56,45,62.65,36.26,65.22,27.28,66.82c-7.49,1.35-14.9,3.25-22.55,3.56C3.66,70.43,2.59,70.39,1.53,70.39Z" style="fill:#f5e8f3"/><path d="M130.35,58.75a40.59,40.59,0,0,1-11.81-9.56,49.5,49.5,0,0,0,7.86-.61c1-.21,1.44.15,1.58,1.24.39,3,1.76,5.64,2.91,8.37Z" style="fill:#f5e4e6"/><path d="M123.89,42.86c.77,1.46,1.51,2.88,2.32,4.4a15.26,15.26,0,0,1-8.43-.2Z" style="fill:#f5e4e6"/><path d="M130.89,58.19c.07.32.31.8.2.91-.39.37-.49-.22-.74-.35Z" style="fill:#f5e4e6"/></g></g></svg>