<svg xmlns="http://www.w3.org/2000/svg" viewBox="0 0 49.27 60.39"><g id="Ebene_2" data-name="Ebene 2"><g id="Ebene_1-2" data-name="Ebene 1"><path d="M49.26,31.85C48.88,44.4,42,52.5,31.47,58.37c-4.91,2.74-9.12,2.91-13.57-.81-3.11-2.61-6.53-4.85-8.73-8.37A2.86,2.86,0,0,0,7.39,48.1C1.66,45.9-.52,41,.1,34.67,1.27,23,7.93,14.26,16.05,6.45a65.85,65.85,0,0,1,6.16-5.27A4.39,4.39,0,0,1,27.57.7c10.69,6,18.9,14,21.43,26.55a9.8,9.8,0,0,1,.25,1.61C49.29,29.85,49.26,30.85,49.26,31.85ZM12.44,18.31c-.31,1.2-2.28,2.15-.52,3.67,1.51,1.3,4.1,1.76,5.39.92,2.12-.45,3.23-2.12,2-3.18-2.86-2.49-2.36-5.43-1.55-8.51,1.17-.12,1.11.3.78,1.27a4.67,4.67,0,0,0,1,4.8c1.85,2,2.15,4,.67,6a20.59,20.59,0,0,0-3.76,15.65c.91,6.42,4.09,9.69,10.38,11.26.75.18,1.7.13,2.08.91-2.81.55-5.48-.38-8.52-1.39a30.42,30.42,0,0,0,3.83,9c.61,1,1.15,1,2.18.5A44.75,44.75,0,0,0,39.55,49.7c6.87-7.53,9.51-16.2,6.42-26.11-3.25-10.44-11-17-20-22.26-1-.57-1.6-.15-2.41.42A55.2,55.2,0,0,0,3.79,27.33,21.31,21.31,0,0,0,2.11,38.77c1.15,6.77,7.48,10.06,15.58,8-5-7.14-3.72-14.37-.11-21.77-1.22.16-1.94-.61-3-.41-2.17.41-5-2.28-4.33-4.3.87-2.52.65-5.59,3.15-7.43C13.85,14.83,11.56,16.29,12.44,18.31ZM21.8,58.48c.25.14.35.72.73.36.12-.11-.12-.6-.2-.92-1.15-2.73-2.49-5.4-2.9-8.37-.15-1.09-.61-1.45-1.59-1.24a50.51,50.51,0,0,1-7.85.62A40.58,40.58,0,0,0,21.8,58.48Z" style="fill:#5f4c5e"/><path d="M13.38,12.89c-2.5,1.84-2.28,4.91-3.15,7.43-.69,2,2.16,4.71,4.33,4.3,1.08-.2,1.8.57,3,.41-3.61,7.4-4.93,14.63.11,21.77-8.1,2-14.43-1.26-15.58-8A21.31,21.31,0,0,1,3.79,27.33,55.2,55.2,0,0,1,23.51,1.75c.81-.57,1.42-1,2.41-.42C35,6.58,42.72,13.15,46,23.59c3.09,9.91.45,18.58-6.42,26.11a44.75,44.75,0,0,1-13.17,9.47c-1,.52-1.57.48-2.18-.5a30.42,30.42,0,0,1-3.83-9c3,1,5.71,1.94,8.52,1.39-.38-.78-1.33-.73-2.08-.91-6.29-1.57-9.47-4.84-10.38-11.26a20.59,20.59,0,0,1,3.76-15.65c1.48-2,1.18-4-.67-6a4.67,4.67,0,0,1-1-4.8c.33-1,.39-1.39-.78-1.27l0,.06c.53-.84-.08-1-.68-1.12A1.64,1.64,0,0,0,15,11.26l0,0A1.38,1.38,0,0,0,14,12.33Z" style="fill:#f8e8e9"/><path d="M21.8,58.48A40.58,40.58,0,0,1,10,48.93a50.51,50.51,0,0,0,7.85-.62c1-.21,1.44.15,1.59,1.24.41,3,1.75,5.64,2.9,8.37Z" style="fill:#f5e4e6"/><path d="M13.38,12.89l.59-.56c.74,0,1.57.08,1.1-1.12l0,0h2.76l0-.06c-.81,3.08-1.31,6,1.55,8.51,1.22,1.06.11,2.73-2,3.18-1.82-5.11-1.82-5.11-4.87-4.59C11.56,16.29,13.85,14.83,13.38,12.89Z" style="fill:#f5e8f3"/><path d="M12.44,18.31c3.05-.52,3.05-.52,4.87,4.59-1.29.84-3.88.38-5.39-.92C10.16,20.46,12.13,19.51,12.44,18.31Z" style="fill:#c29fc0"/><path d="M22.33,57.92c.08.32.32.81.2.92-.38.36-.48-.22-.73-.36C22,58.3,22.15,58.11,22.33,57.92Z" style="fill:#f5e4e6"/><path d="M17.79,11.27H15a1.64,1.64,0,0,1,2.08-1.11C17.71,10.25,18.32,10.43,17.79,11.27Z" style="fill:#5f4c5e"/><path d="M15.07,11.21c.47,1.2-.36,1.11-1.1,1.12A1.38,1.38,0,0,1,15.07,11.21Z" style="fill:#5f4c5e"/></g></g></svg>