<svg xmlns="http://www.w3.org/2000/svg" viewBox="0 0 68.7 79.04">
    <g>
            <path d="M68.68,50.51c-.53,12.61-7.47,20.77-18.11,26.61-4.84,2.66-9,2.73-13.33-.88-3.08-2.54-6.38-4.8-8.61-8.16a4.49,4.49,0,0,0-2.4-1.56,10.05,10.05,0,0,1-6.6-8.87c-.18-2.07-1-3-3-3.81C8.89,50.73,3.83,45.05,1.36,37-3.31,21.73,4.45,5.87,18.58,1.31c10.64-3.45,22.27,0,27.7,9.18a12.48,12.48,0,0,1,2.16,6.82c-.09,2.25.84,3.42,2.58,4.56,7,4.62,12.67,10.51,15.76,18.51A25.25,25.25,0,0,1,68.68,50.51ZM39.77,68.37a26.37,26.37,0,0,0,3.7,8.91c.61,1,1.22,1,2.22.51a60.07,60.07,0,0,0,7.69-4.56C64.9,64.77,69.15,53.06,64.86,41c-2.93-8.25-8.83-14-16.11-18.82-.92,4.27-2.28,8-5.55,10.57C41,34.46,39,36,39.67,39.34c.18.89-.68,2-1.08,3-1.94,4.89-3.86,9.78-2.91,15.24,1.1,6.39,4.15,9.69,10.41,11.24.76.19,1.73.12,2.09.92C45.39,70.27,42.71,69.43,39.77,68.37ZM7.71,24.53C8.09,33,10.89,40,18.5,44.55c1.95,1.16,2.8,1.05,3.52-1.2a25,25,0,0,1,2.44-4.84c.63-1.11.91-1.76-.73-2.31a6.28,6.28,0,0,1-4.15-3.6C19,31,18.44,29.36,20,28.16s3.17-.64,4.47.38c.92.73,1.89,1.35,2.85,2,1.23.84,2.19.84,3.21-.44a50.86,50.86,0,0,1,10.61-9.68c1.07-.76,1.71-1.67,1.32-2.94-.8-2.62-1.5-5.38-3.6-7.32-4.37-4-9.48-5.67-15.37-4.22C12.86,8.57,8.75,14.24,7.71,24.53ZM37.32,43.24a26.12,26.12,0,0,1-2.47,2.22,11.64,11.64,0,0,1-2.64,1.32c-7.79,2.69-15.62.17-20.62-6.47-2.68-3.54-3.9-7.56-4.74-11.85-1.5-7.71,2.56-19.19,11.61-22a44.62,44.62,0,0,1,7.27-1.79c7.91-1.09,15.72,3.67,17.78,11.17C45.25,22.17,43,28.68,38,31.37s-9.9,1.62-14.3-1.72c-1.09-.83-2.14-1.32-3.08-.37s-.57,2.19.24,3.21A7,7,0,0,0,24,35a20.33,20.33,0,0,0,9.45,1c13-1.67,16.61-15.89,11.79-24.75C40.56,2.56,28.91-1,18.88,2.48,8.61,6,2.81,13.69,1.33,24.11S3.22,43.66,12,50c6.17,4.46,13,5.83,20.35,2.78.74-.31,1.75-.41,1.9-1.26C34.72,48.81,36.05,46.39,37.32,43.24Zm-.18,22.43A17.38,17.38,0,0,1,33.7,55c0-1.26-.63-1.34-1.53-1A20.09,20.09,0,0,1,23,55.49c-1.52-.11-2,.49-1.64,1.85C22.2,61,24,63.81,27.64,65.21,30.62,66.35,33.62,66.23,37.14,65.67ZM22.83,46.57c9.79.7,16.9-4.3,15.46-10.56-2.2.71-4.5,1.81-6.73,1.42-3.9-.66-5.47,1.44-6.69,4.46C24.27,43.38,23.58,44.84,22.83,46.57Zm6.47,21c3.74,4.48,8,7.41,12.91,10.35-1.45-3.66-3.19-6.65-3.54-10.11-.11-1-1-1-1.66-.84A49.69,49.69,0,0,1,29.3,67.57Zm2.83-36.23c6,.4,10.9-4.58,10.13-10C39.39,22.76,34.54,27.52,32.13,31.34Z"
                  style="fill:#5f4c5e"/>
            <path d="M39.77,68.37c2.94,1.06,5.62,1.9,8.41,1.38-.36-.8-1.33-.73-2.09-.92C39.83,67.28,36.78,64,35.68,57.59c-1-5.46,1-10.35,2.91-15.24.4-1,1.26-2.12,1.08-3C39,36,41,34.46,43.2,32.73c3.27-2.59,4.63-6.3,5.55-10.57C56,26.93,61.93,32.73,64.86,41c4.29,12.08,0,23.79-11.48,32.25a60.07,60.07,0,0,1-7.69,4.56c-1,.53-1.61.48-2.22-.51A26.37,26.37,0,0,1,39.77,68.37Z"
                  style="fill:#f8e8e9"/>
            <path d="M37.32,43.24c-1.27,3.15-2.6,5.57-3.07,8.31-.15.85-1.16,1-1.9,1.26C25,55.86,18.17,54.49,12,50,3.22,43.66-.15,34.55,1.33,24.11S8.61,6,18.88,2.48c10-3.44,21.68.08,26.39,8.73C50.09,20.07,46.52,34.29,33.48,36A20.33,20.33,0,0,1,24,35a7,7,0,0,1-3.16-2.47c-.81-1-1.14-2.28-.24-3.21s2-.46,3.08.37c4.4,3.34,9.2,4.47,14.3,1.72s7.24-9.2,5.5-15.56C41.45,8.31,33.64,3.55,25.73,4.64a44.62,44.62,0,0,0-7.27,1.79c-9,2.84-13.11,14.32-11.61,22,.84,4.29,2.06,8.31,4.74,11.85,5,6.64,12.83,9.16,20.62,6.47a11.64,11.64,0,0,0,2.64-1.32A26.12,26.12,0,0,0,37.32,43.24Z"
                  style="fill:#f5e8f3"/>
            <path d="M37.14,65.67c-3.52.56-6.52.68-9.5-.46C24,63.81,22.2,61,21.37,57.34c-.31-1.36.12-2,1.64-1.85a20.09,20.09,0,0,0,9.16-1.43c.9-.38,1.57-.3,1.53,1A17.38,17.38,0,0,0,37.14,65.67Z"
                  style="fill:#f5e4e6"/>
            <path d="M22.83,46.57c.75-1.73,1.44-3.19,2-4.68,1.22-3,2.79-5.12,6.69-4.46,2.23.39,4.53-.71,6.73-1.41C39.73,42.27,32.62,47.27,22.83,46.57Z"
                  style="fill:#f8e8e9"/>
            <path d="M29.3,67.57A49.69,49.69,0,0,0,37,67c.71-.15,1.55-.2,1.66.84.35,3.46,2.09,6.45,3.54,10.11C37.27,75,33,72.05,29.3,67.57Z"
                  style="fill:#f5e4e6"/>
            <path d="M32.13,31.34c2.41-3.82,7.26-8.58,10.13-10C43,26.76,38.13,31.74,32.13,31.34Z" style="fill:#f5e4e6"/>
        </g>
</svg>