<svg xmlns="http://www.w3.org/2000/svg" viewBox="0 0 65.45 61.15"><g id="Ebene_2" data-name="Ebene 2"><g id="Ebene_1-2" data-name="Ebene 1"><path d="M15.4,48.53c2.9.36,2.53,2.14,1.94,3.72C16,56,11.15,57.84,7.13,56.38c-6-2.19-8.72-9.15-6.17-15.61,2.43-6.14,7.3-9.4,13.26-11.3a6.29,6.29,0,0,0,4.39-4.07C22.14,16.74,28,9.77,35.28,4c6.55-5.2,4.86-5.27,12.36-.57,8.55,5.37,15,12.69,17.14,22.84,2.35,11.16-1.61,20.3-10.12,27.59a41.89,41.89,0,0,1-12.46,7,4.08,4.08,0,0,1-3.61-.41c-5.24-2.76-10-6.08-13.42-11.09a2.69,2.69,0,0,0-1.55-1c-5.93-2.3-7.82-6.87-7.52-13.3.08-1.57.31-2.14-1.68-1.4C9,35.8,4.64,38.81,3.06,44.77c-.89,3.36,1,7,4.79,9,2.67,1.45,4.89.78,7.46-1.61C16.69,50.9,15.85,49.89,15.4,48.53ZM37.91,58.76l.64,0-.18-.62a35.87,35.87,0,0,1-2.9-8.38c-.17-1.1-.64-1.44-1.6-1.22-2.43.56-4.93.4-7.86.66A41.36,41.36,0,0,0,37.91,58.76Zm-1.37-8.68a28.39,28.39,0,0,0,3.8,9.09c.57,1,1,.88,1.93.4a58.41,58.41,0,0,0,10.45-6.81c10.53-9.17,13.37-21.51,7.59-33.28C56.31,11.33,49.41,6.1,42,1.41a1.65,1.65,0,0,0-2,.22A62.22,62.22,0,0,0,20.57,25.7c-.67,1.49-.07,1.71,1.24,1.6a23,23,0,0,0,10.19-3,6.58,6.58,0,0,0,3.45-5.51c0-.47-.21-1.15.84-1.23,1,3.89-.26,7.39-2.06,10.65-2.82,5.12-2.64,10.21-.39,15.37,1.61,3.71,4.24,6.23,8.47,6.79.94.12,2,.16,2.74,1.21a40.87,40.87,0,0,1-4.22-.3C39.46,51,38.13,50.52,36.54,50.08Zm-2.82-2.84C30.3,41.16,30,39.52,31,32.47c.08-.6.56-1.54-.83-1.36-3.47.45-6.94.81-10.4,1.31a1.79,1.79,0,0,0-1.72,1.43,11.24,11.24,0,0,0,7.7,13.44A16.18,16.18,0,0,0,33.72,47.24Zm1.35-24a18.55,18.55,0,0,1-9.21,4.57c-1.26.26-1.31.72-1.3,1.72,0,1.35.93,1,1.68,1.06C30.72,30.75,32.61,29.27,35.07,23.21Zm-18.3,8.46c1.77-.2,3.54-.37,5.3-.62a1.48,1.48,0,0,0,1.37-1.91c-.18-1.15-1.13-.79-1.69-.67-1.81.4-3.57,1-5.38,1.45-.91.21-1.16.66-1,1.5C15.63,32.7,16.35,31.33,16.77,31.67Zm-2.68-1a26.55,26.55,0,0,0-3.86,1.72c-.79.51-2.61.73-2.05,1.92.74,1.55,1.73-.21,2.61-.45s1.62-.68,2.46-1C14.4,32.54,14.45,31.79,14.09,30.67ZM3.3,39.38,4,40c1.06-1.28,2.09-2.6,3.21-3.83.47-.51.07-.74-.09-1.11-.23-.52-.52-.38-.8-.11C5,36.26,3.71,37.53,3.3,39.38ZM1.43,46.55c0-2.14,1.49-3.95,1.66-6.79A7.75,7.75,0,0,0,1.43,46.55Z" style="fill:#5f4c5e"/><path d="M36.54,50.08c1.59.44,2.92.94,4.29,1.17a40.87,40.87,0,0,0,4.22.3c-.69-1-1.8-1.09-2.74-1.21-4.23-.56-6.86-3.08-8.47-6.79-2.25-5.16-2.43-10.25.39-15.37,1.8-3.26,3.05-6.76,2.06-10.65-1,.08-.83.76-.84,1.23A6.58,6.58,0,0,1,32,24.27a23,23,0,0,1-10.19,3c-1.31.11-1.91-.11-1.24-1.6A62.22,62.22,0,0,1,40,1.63a1.65,1.65,0,0,1,2-.22c7.42,4.69,14.32,9.92,18.32,18.07,5.78,11.77,2.94,24.11-7.59,33.28a58.41,58.41,0,0,1-10.45,6.81c-.88.48-1.36.61-1.93-.4A28.39,28.39,0,0,1,36.54,50.08Z" style="fill:#f8e8e9"/><path d="M33.72,47.24a16.18,16.18,0,0,1-8,0,11.24,11.24,0,0,1-7.7-13.44,1.79,1.79,0,0,1,1.72-1.43c3.46-.5,6.93-.86,10.4-1.31,1.39-.18.91.76.83,1.36C30,39.52,30.3,41.16,33.72,47.24Z" style="fill:#f5e4e6"/><path d="M37.91,58.76A41.36,41.36,0,0,1,26,49.24c2.93-.26,5.43-.1,7.86-.66,1-.22,1.43.12,1.6,1.22a35.87,35.87,0,0,0,2.9,8.38Z" style="fill:#f5e4e6"/><path d="M35.07,23.21c-2.46,6.06-4.35,7.54-8.83,7.35-.75,0-1.66.29-1.68-1.06,0-1,0-1.46,1.3-1.72A18.55,18.55,0,0,0,35.07,23.21Z" style="fill:#f5e8f3"/><path d="M16.77,31.67c-.42-.34-1.14,1-1.4-.25-.16-.84.09-1.29,1-1.5,1.81-.42,3.57-1.05,5.38-1.45.56-.12,1.51-.48,1.69.67a1.48,1.48,0,0,1-1.37,1.91C20.31,31.3,18.54,31.47,16.77,31.67Z" style="fill:#f5e8f3"/><path d="M14.09,30.67c.36,1.12.31,1.87-.84,2.24-.84.27-1.62.73-2.46,1s-1.87,2-2.61.45c-.56-1.19,1.26-1.41,2.05-1.92A26.55,26.55,0,0,1,14.09,30.67Z" style="fill:#f5e8f3"/><path d="M3.3,39.38c.41-1.85,1.73-3.12,3-4.39.28-.27.57-.41.8.11.16.37.56.6.09,1.11C6.11,37.44,5.08,38.76,4,40Z" style="fill:#f5e8f3"/><path d="M1.43,46.55a7.75,7.75,0,0,1,1.66-6.79C2.92,42.6,1.44,44.41,1.43,46.55Z" style="fill:#f5e4e6"/><path d="M38.37,58.18l.18.62-.64,0C38.06,58.57,38.21,58.37,38.37,58.18Z" style="fill:#f5e4e6"/></g></g></svg>