<svg xmlns="http://www.w3.org/2000/svg" viewBox="0 0 67.55 71.12"><g id="Ebene_2" data-name="Ebene 2"><g id="Ebene_1-2" data-name="Ebene 1"><path d="M0,4A13.38,13.38,0,0,0,3.84,1.65,3.32,3.32,0,0,1,5.74.79C8.51.67,11.2-.31,14,.1a2,2,0,0,1,1.44,1.13c1.79,3.23,4,6.33,3.58,10.39,4.39-1.73,2.9,2.46,4.18,3.88,1,.06.79-1.94,1.88-1.4s0,1.58,0,2.39c-.17,2.75,1,5.14,1.65,8.31a74.92,74.92,0,0,1,13.2-12.9c2.08-1.62,3.67-2.2,6.14-.79C56.37,17,64.53,24.67,67,36.78c2.21,11-1.89,19.91-10.2,27.05a41.26,41.26,0,0,1-12.47,7,3.42,3.42,0,0,1-2.87-.08c-5.51-2.69-10.42-6.16-14-11.21a3.71,3.71,0,0,0-1.95-1.29c-6.19-2.47-7.34-7.35-7.31-12.67a13.87,13.87,0,0,1,1.07-6.11c1.51-2.88-.16-4.14-2-5.3a43.91,43.91,0,0,0-6-3c-1.9-.82-1.78-.7-1.27-2.89.18-.75-.56-1.77-1-2.59s-.81,0-1.24.14c-2.23.67-3.52-1-4-2.49C2.91,21.2,1.31,19.85,0,18.19V16c.85-.42,1.5-1.23,2.63-1.26C1.72,13.55.14,12.5,1.12,11,2.38,9.09-.76,7.46,1.07,5.7L0,5.66ZM40,68.7c.25.14.35.72.73.36.12-.11-.12-.6-.2-.92-1.14-2.73-2.49-5.4-2.9-8.38-.15-1.08-.62-1.44-1.59-1.23a47.16,47.16,0,0,1-7.53.6C30.73,62.51,35.44,66.38,40,68.7Zm-1.47-8.93a31.85,31.85,0,0,0,3.64,8.78c.67,1.14,1.3,1.4,2.6.74A44.43,44.43,0,0,0,57.64,60c7.18-7.86,9.72-16.85,6.17-27.1-3.47-10-11-16.33-19.87-21.39-.89-.51-1.46-.13-2.18.4a65.53,65.53,0,0,0-12.71,13c-.42.55-1,1-.62,1.93,1.09,2.79,6.88,4,8.87,1.77.33-.37.17-1.54,1.18-.91.58.36.49,1,.42,1.66a19.07,19.07,0,0,1-2.09,6.6c-2.1,4.39-3.33,9.08-2.11,14,1.35,5.37,3.88,9.78,10.15,10.53.78.1,1.74.15,2.22,1A15.93,15.93,0,0,1,38.48,59.77ZM18.81,15.58c-.14-.56-.25-.88-.31-1.2-1.48-8.4.16-7.63-5.76-12-.36-.27-.69-.74-1.07-.79C9.48,1.3,4.23,2.93,2.12,4.44,4.59,5.52,4.78,6,3.87,6.24c-3.55,1-1.55,2.33-.5,3.82.91,1.28.84,2.26-1.48,1.9.66.77,1.1,1.31,1.58,1.82s1.42,1.18,1.12,2-1.28.26-2,.3c-1.38.08-1.68.65-1,1.94a5.34,5.34,0,0,0,1.78,2c.79.58,1.86.78,1.21,2.46-.32.81,1.19,2.83,2.61,2.18C9,23.79,9.54,24.48,10,25.78s2,2,1.82,3.47c0,.45-1.26.79,0,1.24,4.76,1.66,8.76,5,13.94,5.85A13.94,13.94,0,0,0,34.6,34.9a5.64,5.64,0,0,0,2.86-3.13c.22-.62.52-1.42-1.08-1.19-5.87.85-10.27-2-11.2-7.86-.63-3.94-3.74-6.51-4.09-10.5C19.75,13.18,20.35,14.79,18.81,15.58ZM35.43,35.93c-4.15,2-7.91,2.36-11.71,1.11-1-.34-1.54-.25-1.88.72-1.32,3.8-2.39,7.7-1.46,11.72,1.51,6.59,7.39,9.45,15.46,7.57C31.15,50.32,31.9,43.41,35.43,35.93Z" style="fill:#5f4c5e"/><path d="M0,5.66l1.07,0C-.76,7.46,2.38,9.09,1.12,11c-1,1.5.6,2.55,1.51,3.75C1.5,14.78.85,15.59,0,16Z" style="fill:#fffeff"/><path d="M38.48,59.77a15.93,15.93,0,0,0,8.59,1.6c-.48-.84-1.44-.89-2.22-1-6.27-.75-8.8-5.16-10.15-10.53-1.22-4.88,0-9.57,2.11-14a19.07,19.07,0,0,0,2.09-6.6c.07-.7.16-1.3-.42-1.66-1-.63-.85.54-1.18.91-2,2.19-7.78,1-8.87-1.77-.34-.89.2-1.38.62-1.93A65.53,65.53,0,0,1,41.76,11.89c.72-.53,1.29-.91,2.18-.4,8.84,5.06,16.4,11.39,19.87,21.39,3.55,10.25,1,19.24-6.17,27.1a44.43,44.43,0,0,1-12.92,9.31c-1.3.66-1.93.4-2.6-.74A31.85,31.85,0,0,1,38.48,59.77Z" style="fill:#f8e8e9"/><path d="M18.81,15.58c1.54-.79.94-2.4,2.28-3.36.35,4,3.46,6.56,4.09,10.5.93,5.87,5.33,8.71,11.2,7.86,1.6-.23,1.3.57,1.08,1.19A5.64,5.64,0,0,1,34.6,34.9a13.94,13.94,0,0,1-8.77,1.44c-5.18-.88-9.18-4.19-13.94-5.85-1.29-.45-.08-.79,0-1.24C12,27.77,10.51,27,10,25.78S9,23.79,7.2,24.6c-1.42.65-2.93-1.37-2.61-2.18.65-1.68-.42-1.88-1.21-2.46A5.34,5.34,0,0,1,1.6,18c-.65-1.29-.35-1.86,1-1.94.68,0,1.65.53,2-.3s-.58-1.39-1.12-2-.92-1-1.58-1.82c2.32.36,2.39-.62,1.48-1.9C2.32,8.57.32,7.2,3.87,6.24c.91-.24.72-.72-1.75-1.8C4.23,2.93,9.48,1.3,11.67,1.56c.38.05.71.52,1.07.79C18.66,6.75,17,6,18.5,14.38,18.56,14.7,18.67,15,18.81,15.58ZM11.86,9c.18.77.43,1.49,1.55,1.47a2.37,2.37,0,0,0-1-1.9c-1.94-2.16-2.05,1.6-3.49,1.08-.3,1.4-.53,2.82.4,4.06.18.24,1.16.05.88-.44C9,11.12,11.55,10.54,11.86,9Zm3.82,16c-1.12.61-1.71-1.76-2.56-.31-.56,1,.42,1.75,1.27,2.38a30.85,30.85,0,0,1,2.42,2.16.55.55,0,0,0,.9-.07c.1-.14,0-.46-.08-.66a3.38,3.38,0,0,1,.51-3.83c.37-.51.3-.86-.27-1-.9-.16-1.56-1.15-2.5-.94C14.84,23.69,15.75,24.2,15.68,25Zm7.46,2.24c.65,1.61.62,2.73,1.59,3.39-.17-1.46,2.26-.63,1.91-2.05C26.19,26.77,24.63,27.92,23.14,27.23Z" style="fill:#f5e8f3"/><path d="M35.43,35.93c-3.53,7.48-4.28,14.39.41,21.12-8.07,1.88-14-1-15.46-7.57-.93-4,.14-7.92,1.46-11.72.34-1,.87-1.06,1.88-.72C27.52,38.29,31.28,37.92,35.43,35.93Z" style="fill:#f8e8e9"/><path d="M40,68.7c-4.51-2.32-9.22-6.19-11.49-9.57a47.16,47.16,0,0,0,7.53-.6c1-.21,1.44.15,1.59,1.23.41,3,1.76,5.65,2.9,8.38Z" style="fill:#f5e4e6"/><path d="M40.48,68.14c.08.32.32.81.2.92-.38.36-.48-.22-.73-.36C40.13,68.52,40.3,68.33,40.48,68.14Z" style="fill:#f5e4e6"/><path d="M15.68,25c.07-.79-.84-1.3-.31-2.24.94-.21,1.6.78,2.5.94.57.11.64.46.27,1a3.38,3.38,0,0,0-.51,3.83c.09.2.18.52.08.66a.55.55,0,0,1-.9.07,30.85,30.85,0,0,0-2.42-2.16c-.85-.63-1.83-1.41-1.27-2.38C14,23.23,14.56,25.6,15.68,25Z" style="fill:#5f4c5e"/><path d="M11.86,9c-.31,1.5-2.89,2.08-1.65,4.27.28.49-.7.68-.88.44-.93-1.24-.7-2.66-.4-4.06,1.44.52,1.55-3.24,3.49-1.08Z" style="fill:#5f4c5e"/><path d="M23.14,27.23c1.49.69,3.05-.46,3.5,1.34.35,1.42-2.08.59-1.91,2.05C23.76,30,23.79,28.84,23.14,27.23Z" style="fill:#5f4c5e"/><path d="M12.42,8.61a2.37,2.37,0,0,1,1,1.9c-1.12,0-1.37-.7-1.55-1.47Z" style="fill:#5f4c5e"/></g></g></svg>