<svg xmlns="http://www.w3.org/2000/svg" viewBox="0 0 49.27 60.59"><g id="Ebene_2" data-name="Ebene 2"><g id="Ebene_1-2" data-name="Ebene 1"><path d="M49.26,32.1c-.4,12.56-7.32,20.62-17.82,26.5-5,2.78-9.15,2.8-13.57-.88-3.12-2.59-6.54-4.84-8.72-8.38-.45-.74-1.16-.82-1.8-1.07C1.49,46-.46,41,.09,35.08,1.16,23.48,7.69,14.77,15.7,7a57.43,57.43,0,0,1,6.58-5.6c1.09-.77,2.34-2,4.13-1,11.3,5.92,20,14,22.62,27.15a7.64,7.64,0,0,1,.22,1.34C49.28,29.93,49.26,31,49.26,32.1ZM21.88,58.7l.64,0-.18-.63c-1.14-2.73-2.51-5.4-2.91-8.39-.12-.87-.37-1.34-1.33-1.24-2.55.28-5.1.51-8,.8A40.81,40.81,0,0,0,21.88,58.7Zm-4.4-11.49c-3.48-8-3.48-8-2.14-16.46.08-.49.53-1.17-.33-1.26-2.37-.26-2.41-2-3-3.82a6.45,6.45,0,0,1,3.46-8.21c2.88-1.35,7.57.73,9.18,3.48,1.79,3-.56,8.63-3.71,9-4.38.57-4.68.85-4.78,5.19a16.77,16.77,0,0,0,.37,4.59c1.39,5.36,3.81,9.81,10.09,10.59.69.09,1.69,0,2.13.92,0,0,.14,0,.21,0l-.07,0c-2.85.46-5.54-.39-8.37-1.33.54,3.69,2.46,6.46,3.8,9.47.43,1,.93.77,1.64.34,4.73-2.84,9.51-5.57,13.36-9.66,8.77-9.31,10.32-21.1,4.08-32.26a40.47,40.47,0,0,0-13.73-14C25,.78,24.89.69,20.64,4.25c-9,7.58-15.56,16.82-18.32,28.46-1.66,7,1.25,12.8,7.42,14.52A15.72,15.72,0,0,0,17.48,47.21Zm2.69-18.8c.95.07,4.12-2.74,4.12-3.66,0-2.52-3.48-6.46-6.29-6.45-.49,0-2.7-.28-3.18,1.61-.35,1.36-2.27,1.65-2.49,3.47-.19,1.62,2.84,1.29,1.55,3.38C13.33,27.67,13.94,28,20.17,28.41Z" style="fill:#5f4c5e"/><path d="M17.48,47.21a15.72,15.72,0,0,1-7.74,0C3.57,45.51.66,39.74,2.32,32.71c2.76-11.64,9.3-20.88,18.32-28.46C24.89.69,25,.78,29.7,3.85a40.47,40.47,0,0,1,13.73,14c6.24,11.16,4.69,23-4.08,32.26C35.5,54.24,30.72,57,26,59.81c-.71.43-1.21.62-1.64-.34-1.34-3-3.26-5.78-3.8-9.47,2.83.94,5.52,1.79,8.37,1.33l.07,0c-.07,0-.2,0-.21,0-.44-.93-1.44-.83-2.13-.92-6.28-.78-8.7-5.23-10.09-10.59a16.77,16.77,0,0,1-.37-4.59c.1-4.34.4-4.62,4.78-5.19,3.15-.41,5.5-6,3.71-9-1.61-2.75-6.3-4.83-9.18-3.48A6.45,6.45,0,0,0,12,25.67c.56,1.77.6,3.56,3,3.82.86.09.41.77.33,1.26C14,39.24,14,39.24,17.48,47.21Z" style="fill:#f8e8e9"/><path d="M20.17,28.41c-6.23-.44-6.84-.74-6.29-1.65,1.29-2.09-1.74-1.76-1.55-3.38.22-1.82,2.14-2.11,2.49-3.47C15.3,18,17.51,18.3,18,18.3c2.81,0,6.3,3.93,6.29,6.45C24.29,25.67,21.12,28.48,20.17,28.41Z" style="fill:#f5e8f3"/><path d="M21.88,58.7a40.81,40.81,0,0,1-11.79-9.42c2.91-.29,5.46-.52,8-.8,1-.1,1.21.37,1.33,1.24.4,3,1.77,5.66,2.91,8.39Z" style="fill:#f5e4e6"/><path d="M22.34,58.11l.18.63-.64,0Z" style="fill:#f5e4e6"/></g></g></svg>