<svg xmlns="http://www.w3.org/2000/svg" viewBox="0 0 14.67 18.03">
    <g>
        <path d="M13,.81a5.32,5.32,0,0,1,.58,3.81,1.54,1.54,0,0,1-.26.77c-1,1.22-.5,2.71-.79,4.06a1.1,1.1,0,0,0,.59,1.23c1.4.89,1.58,3.7.46,4.91a3.12,3.12,0,0,1-2.91,1.32c-1.17-.23-2,.68-3.12.73a2.12,2.12,0,0,1-.71,0,11.88,11.88,0,0,0-3-.4A3.81,3.81,0,0,1,.69,14.57c-.5-1.36.11-2.34.77-3.35a1.05,1.05,0,0,0,.25-.75A14.13,14.13,0,0,0,.62,5.61C0,4.43.67,3.34,1,2.25c.08-.25.39-.32.54,0a3.47,3.47,0,0,0,1,1.09,1.6,1.6,0,0,0,2.13.32C6,2.9,7.48,3.22,8.94,3.23a.68.68,0,0,1,.22.09c1.16.55,1.62.49,2.45-.49A6.81,6.81,0,0,0,13,.81Z"
              style="fill:#7e5979;stroke:#544053;stroke-miterlimit:10;stroke-width:0.75px"/>
    </g>
</svg>