<svg xmlns="http://www.w3.org/2000/svg" viewBox="0 0 42.6 76.08"><g id="Ebene_2" data-name="Ebene 2"><g id="Ebene_1-2" data-name="Ebene 1"><path d="M41.9,25.46c.12,3.82.32,8.34-.65,12.66C39.84,44.41,35.64,49,30.59,52.73c-.65.49-1.41.83-2.09,1.27-1.16.76-.79,2-.69,3,.11,1.23,1.15,1.17,2.08,1.16,1.36,0,2.73,0,4.09,0,7.45.21,7.45,2.4,8.47,8a7.48,7.48,0,0,1,0,.82c.34,5,.35,5.11-4.65,6.5-11.82,3.29-23.75,3.3-35.74,1-1.49-.29-2.28-1-2-2.56a5,5,0,0,0,0-.55c-.3-9.7,1.63-10.86,10.66-11.45a15.17,15.17,0,0,0,3.44-.75c1.71-.53,2.32-1.85,2.56-3.48s-.55-2.65-2-3.39A22.77,22.77,0,0,1,1.78,35.17a51.81,51.81,0,0,1,.52-21C4,6.67,9.63,2.33,17.1.59a20.53,20.53,0,0,1,22.41,9A14.73,14.73,0,0,1,41.92,18C41.84,20.3,41.9,22.57,41.9,25.46Zm-1.41.8h.06c0-2.09,0-4.17,0-6.26.19-8.61-3.63-14.34-11.72-17.51C18.46-1.58,5.36,4.72,3.25,15,2,21.16,2.35,27.46,2.81,33.69a20.19,20.19,0,0,0,2.7,8.16c3.52,6.39,9.4,9.51,15.81,12.07a5.7,5.7,0,0,0,5.41-.36c8.62-5.11,14.64-11.79,13.78-22.67C40.39,29.35,40.49,27.8,40.49,26.26ZM26.35,55.11c-2.16,1.46-4.07.79-5.86-.13s-2.94-1.46-2.88,1.42a3.83,3.83,0,0,1-2.72,3.71,18,18,0,0,1-6,1.34c-5.92.06-7.52,1.74-7.4,7.71,0,.81.06,1.63.08,2.45s-.12,1.69,1.09,1.78c1,.07,2.14,1,2.66-.73.41-1.36,1.5-.13,1.48-.07-.35,1.88,1.06,1.36,2,1.57,3.41.76,6.87.34,10.3.33.72,0,3,1.35,2.31-1.43,0,0,1.32-.66,1.42.34.17,1.71,1.38,1.15,2.22,1.1,1.89-.14,3.76-.54,5.64-.69,2.9-.22,5.53-.67,5.27-4.54,1.44.8.63,2.22,1.54,3.15,1.33-1.06,4-.32,3.87-3-.43-8.83-.65-10.36-9.49-10.19H31C27.21,59.42,27,59.23,26.35,55.11Z" style="fill:#6b5868"/><path d="M40.49,26.26c0,1.54-.1,3.09,0,4.63.86,10.88-5.16,17.56-13.78,22.67a5.7,5.7,0,0,1-5.41.36C14.91,51.36,9,48.24,5.51,41.85a20.19,20.19,0,0,1-2.7-8.16C2.35,27.46,2,21.16,3.25,15,5.36,4.72,18.46-1.58,28.83,2.49,36.92,5.66,40.74,11.39,40.55,20c0,2.09,0,4.17,0,6.26ZM17.82,14c-1.38,1-1.82,1.91,0,2.9,3.65,3,8.3,2.72,10.85-.81.51-.7,1.13-1.39.14-2.33C26,11.08,20.54,11.16,17.82,14Zm5,11.6c1.62-.58,4-.52,4.13-2.45s-2.21-2.37-3.81-2.48-3.88.32-4.06,2.25C18.89,25.17,21.48,24.73,22.84,25.55Zm.6,4.9c1.06.08,2.37-.43,2.49-1.62S24.73,27,23.47,27s-2.62.31-2.73,1.59S21.92,30.45,23.44,30.45Z" style="fill:#f8e8e9"/><path d="M26.35,55.11c.62,4.12.86,4.31,4.68,4.11h.82c8.84-.17,9.06,1.36,9.49,10.19.13,2.7-2.54,2-3.87,3-.91-.93-.1-2.35-1.54-3.15.26,3.87-2.37,4.32-5.27,4.54-1.88.15-3.75.55-5.64.69-.84,0-2.05.61-2.22-1.1-.1-1-1.43-.37-1.42-.34.69,2.78-1.59,1.43-2.31,1.43-3.43,0-6.89.43-10.3-.33-.93-.21-2.34.31-2-1.57,0-.06-1.07-1.29-1.48.07-.52,1.72-1.68.8-2.66.73-1.21-.09-1.06-1-1.09-1.78S1.48,70,1.47,69.16c-.12-6,1.48-7.65,7.4-7.71a18,18,0,0,0,6-1.34,3.83,3.83,0,0,0,2.72-3.71c-.06-2.88,1.14-2.32,2.88-1.42S24.19,56.57,26.35,55.11Z" style="fill:#f8e8e9"/><path d="M17.82,14c2.72-2.79,8.21-2.87,11-.24,1,.94.37,1.63-.14,2.33-2.55,3.53-7.2,3.86-10.85.81l.1-.11c2,.13,3.82,1.58,6,1.12,1.81-.38,3.8-1.43,3.83-2.9s-2.24-1.78-3.82-2.08c-2.19-.42-4,.95-6,1.14Z" style="fill:#5b4759"/><path d="M22.84,25.55c-1.36-.82-3.95-.38-3.74-2.68.18-1.93,2.38-2.36,4.06-2.25s3.93.46,3.81,2.48S24.46,25,22.84,25.55Zm.68-3.88c-1.7-.11-3,.15-3,1.2-.05,1.27,1.39,1.42,2.44,1.49s2.69-.23,2.7-1.25C25.65,21.78,24.05,21.73,23.52,21.67Z" style="fill:#5b4759"/><path d="M23.44,30.45c-1.52,0-2.82-.46-2.7-1.82S22.23,27,23.47,27s2.59.45,2.46,1.79S24.5,30.53,23.44,30.45Z" style="fill:#5b4759"/><path d="M17.79,16.85c-1.79-1-1.35-2,0-2.9l.07.07v2.72Z" style="fill:#5b4759"/><path d="M17.89,16.74V14c2-.19,3.83-1.56,6-1.14,1.58.3,3.86.5,3.82,2.08s-2,2.52-3.83,2.9C21.71,18.32,19.93,16.87,17.89,16.74Zm7-1.41c0-1.36-1-1.7-2-1.8a1.47,1.47,0,0,0-1.76,1.58c-.06,1.09.16,2.05,1.5,2.11S24.6,16.43,24.93,15.33Z" style="fill:#785a77"/><path d="M23.52,21.67c.53.06,2.13.11,2.1,1.44,0,1-1.58,1.32-2.7,1.25s-2.49-.22-2.44-1.49C20.52,21.82,21.82,21.56,23.52,21.67Z" style="fill:#785a77"/><path d="M24.93,15.33c-.33,1.1-.93,2-2.25,1.89s-1.56-1-1.5-2.11a1.47,1.47,0,0,1,1.76-1.58C24,13.63,24.92,14,24.93,15.33Z" style="fill:#5b4759"/></g></g></svg>