<svg xmlns="http://www.w3.org/2000/svg" viewBox="0 0 59.37 49.07"><g id="Ebene_2" data-name="Ebene 2"><g id="Ebene_1-2" data-name="Ebene 1"><path d="M40.34,32.57c-.57,5-1.57,9.56-.9,14.27.22,1.53-.07,2.28-1.93,2.22-4.9-.13-9.81-.08-14.72,0-1.31,0-1.81-.24-1.9-1.75A59.94,59.94,0,0,0,18.6,33c-2.79.6-3.11,2.78-3.08,5.1,0,2.81-.77,5.59-.1,8.41.36,1.53-.53,1.77-1.7,1.36a4.09,4.09,0,0,1-2.07-1.17c-1.64-2.59-4.22-.22-6.14-1.24-.09,0-.61.76-1,1.15-.73.85-1.59,1.7-2.78,1.27S.34,46.39.2,45.23c-1-8.53,1.67-15.93,7-22.47a3.48,3.48,0,0,0,.94-3.35A16.92,16.92,0,0,1,7.93,14a6.68,6.68,0,0,1,7-5.84c4.82.11,8.27-1.46,9.58-6.42A2.05,2.05,0,0,1,24.86,1C25.22.53,34-.34,34.31.14a7.43,7.43,0,0,1,.43,1.76c1.11,4.24,2.21,5,6.56,4.84,6.22-.28,8.6,1.92,8.54,8.07,0,3.16.26,5.78,2.67,8.55a27.19,27.19,0,0,1,6.67,21.47c-.15,1.31-.27,2.64-1.73,3a2.42,2.42,0,0,1-2.82-1.65c-.61-1.37-1.57-.12-2.21-.49-3.14-1.78-5.2.58-7.48,1.94-1.69,1-2.17.54-2.19-1.28,0-3.79.3-7.6-.48-11.39A3.18,3.18,0,0,0,40.34,32.57ZM44.4,46.28c1.45,0,2.41-1.12,3.55-1.77s.58-4.14-.4-4.09c-2,.1-2.59-1.38-3.75-3,.21,3.34.05,6.14.63,8.88l-.33.09s.12.07.14,0A1.46,1.46,0,0,0,44.4,46.28Zm4.3-27.37c0-2,0-3.38,0-4.73-.05-4.64-2.33-6.41-7-6.16-2.6.15-6.41.43-7-2.64C33.82,1,31.48,1,28.25,1.58a9.85,9.85,0,0,1-1.63,0,1.11,1.11,0,0,0-1.23.84C24.07,7.79,20.33,9.3,15.25,9.3,11,9.3,8.52,12.45,9,16.68c.13,1.08.46,2.14.72,3.32a30,30,0,0,1,12.55-7.16c.8-.22,1.66-.7,2.24-.08s.29,1.53,0,2.32A34.11,34.11,0,0,0,23,23.38c1.16-.4.53-1.3.77-1.89s.46-1.25.68-1.88a8.42,8.42,0,0,1,.27,3.69,3.29,3.29,0,0,1-2,2.73c-1,.32-2.76-.65-2.77,1.27,0,1.37-.94,2.55-.5,4A59.39,59.39,0,0,1,22,46.62c.07,1.41.9,1.29,1.82,1.29,4,0,8-.09,12,0,1.69,0,2.18-.43,2.07-2.12-.3-4.81.58-9.52,1.51-14.21.73-3.66.15-4.9-3.3-6.8A4.56,4.56,0,0,1,34.08,19c1.23,1.11.43,3.24,2.12,4.41.18-3.19-.76-5.83-1.48-8.51-.61-2.29-.08-2.69,2.25-2.11C41.14,13.84,44.69,16.1,48.7,18.91ZM16.5,33.1C19.58,29.19,18.27,25,19.14,21c1.44,1.45.39,2.92,1.48,4.31,2-3.79,1.45-7.92,3.15-11.61C12.36,15.93,0,28.92,1.33,43.46c.11,1.16-.64,3,1,3.18,1.44.18,1.7-1.66,2.08-2.79a53.89,53.89,0,0,0,1.21-5.34A4.88,4.88,0,0,1,6,42.73c-.24.84-.35,1.39.45,1.78a1.41,1.41,0,0,0,1.86-.66A9.43,9.43,0,0,0,10,39.93c.32-1.87.57-3.75,1-6.36,1,1.76.56,2.94.71,4,.08.55-.38,1.38.58,1.54.79.13,1.11-.6,1.35-1.13A12.94,12.94,0,0,0,15,33.7c.16-2,.55-3.92.84-5.88l.68,0Zm31.55,1a1.52,1.52,0,0,1,.73,1.68,15,15,0,0,0,2,7.72c.44.73,1.05,1.38,2,1s.64-1.1.48-2c-.19-1-.85-2.39.85-4a15.18,15.18,0,0,0,1.3,6.65c.29.72.78,1.63,1.74,1.42.79-.17.83-1,.89-1.77a27.79,27.79,0,0,0-4.59-18.5A30,30,0,0,0,35.62,13.58a61.62,61.62,0,0,1,2,8.64c.12.85-.16,2.71,1.27,2.56,1.16-.11.08-1.72.53-2.59.15-.3.09-.71.8-.79,1.1,3.56-.64,7.87,2.47,11.19.1-1.73.18-3.23.28-5,1.25,1,.83,1.84.93,2.6.35,2.74.57,5.52,2,8,.29.53.62,1.21,1.43.93s.35-.92.41-1.41C47.79,36.57,47.39,35.39,48.05,34.15ZM13.87,46.35c0-1.59.07-2.94,0-4.27-.05-.63.65-1.68-.78-1.81-1.21-.1-2.06.26-2.36,1.5C10.11,44.22,11.17,45.64,13.87,46.35Z" style="fill:#5b4759"/><path d="M48.7,18.91c-4-2.81-7.56-5.07-11.73-6.1-2.33-.58-2.86-.18-2.25,2.11.72,2.68,1.66,5.32,1.48,8.51-1.69-1.17-.89-3.3-2.12-4.41a4.56,4.56,0,0,0,2.05,5.8c3.45,1.9,4,3.14,3.3,6.8-.93,4.69-1.81,9.4-1.51,14.21C38,47.52,37.54,48,35.85,48c-4-.13-8,0-12,0-.92,0-1.75.12-1.82-1.29a59.39,59.39,0,0,0-2.59-15.36c-.44-1.41.49-2.59.5-4,0-1.92,1.76-.95,2.77-1.27a3.29,3.29,0,0,0,2-2.73,8.42,8.42,0,0,0-.27-3.69c-.22.63-.42,1.27-.68,1.88S24.11,23,23,23.38a34.11,34.11,0,0,1,1.63-8.3c.24-.79.51-1.73,0-2.32s-1.44-.14-2.24.08A30,30,0,0,0,9.74,20c-.26-1.18-.59-2.24-.72-3.32-.5-4.23,2-7.38,6.23-7.38,5.08,0,8.82-1.51,10.14-6.86a1.11,1.11,0,0,1,1.23-.84,9.85,9.85,0,0,0,1.63,0C31.48,1,33.82,1,34.68,5.38c.6,3.07,4.41,2.79,7,2.64,4.68-.25,7,1.52,7,6.16C48.71,15.53,48.7,16.87,48.7,18.91Z" style="fill:#f8e8e9"/><path d="M16.5,33.1V27.85l-.68,0c-.29,2-.68,3.91-.84,5.88A12.94,12.94,0,0,1,13.63,38c-.24.53-.56,1.26-1.35,1.13-1-.16-.5-1-.58-1.54-.15-1.08.27-2.26-.71-4-.4,2.61-.65,4.49-1,6.36a9.43,9.43,0,0,1-1.67,3.92,1.41,1.41,0,0,1-1.86.66c-.8-.39-.69-.94-.45-1.78a4.88,4.88,0,0,0-.37-4.22,53.89,53.89,0,0,1-1.21,5.34c-.38,1.13-.64,3-2.08,2.79-1.69-.2-.94-2-1-3.18C0,28.92,12.36,15.93,23.77,13.69c-1.7,3.69-1.19,7.82-3.15,11.61-1.09-1.39,0-2.86-1.48-4.31C18.27,25,19.58,29.19,16.5,33.1Z" style="fill:#fcf0f7"/><path d="M48.05,34.15c-.66,1.24-.26,2.42-.4,3.53-.06.49.3,1.16-.41,1.41s-1.14-.4-1.43-.93c-1.38-2.49-1.6-5.27-2-8-.1-.76.32-1.63-.93-2.6-.1,1.81-.18,3.31-.28,5C39.54,29.27,41.28,25,40.18,21.4c-.71.08-.65.49-.8.79-.45.87.63,2.48-.53,2.59-1.43.15-1.15-1.71-1.27-2.56a61.62,61.62,0,0,0-2-8.64A30,30,0,0,1,53.45,26.42,27.79,27.79,0,0,1,58,44.92c-.06.76-.1,1.6-.89,1.77-1,.21-1.45-.7-1.74-1.42a15.18,15.18,0,0,1-1.3-6.65c-1.7,1.56-1,2.9-.85,4,.16.88.52,1.58-.48,2s-1.54-.27-2-1a15,15,0,0,1-2-7.72A1.52,1.52,0,0,0,48.05,34.15Z" style="fill:#fcf0f7"/><path d="M44.43,46.33c-.58-2.74-.42-5.54-.63-8.88,1.16,1.59,1.79,3.07,3.75,3,1-.05,1.4,3.52.4,4.09s-2.1,1.73-3.55,1.77Z" style="fill:#f8e8e9"/><path d="M13.87,46.35c-2.7-.71-3.76-2.13-3.17-4.58.3-1.24,1.15-1.6,2.36-1.5,1.43.13.73,1.18.78,1.81C13.94,43.41,13.87,44.76,13.87,46.35Z" style="fill:#f8e8e9"/><path d="M44.4,46.28a1.46,1.46,0,0,1-.16.19s-.09,0-.14,0l.33-.09Z" style="fill:#f8e8e9"/></g></g></svg>