<svg xmlns="http://www.w3.org/2000/svg" viewBox="0 0 97.87 74.18"><g id="Ebene_2" data-name="Ebene 2"><g id="Ebene_1-2" data-name="Ebene 1"><path d="M79,62.32c-.49,2.92-.79,5.67-1.43,8.34-.46,1.86-1.45,3.37-3.83,3.5A4.32,4.32,0,0,1,69,71.07C68.23,69,67.69,66.82,67,64.64c-.32.74-.61,1.52-1,2.27-1.84,3.69-5.33,4-8,.84s-3-7.4-3.9-11.29a17.08,17.08,0,0,1-.41-2.11c-.21-1.76.08-4.36-1.15-5-1.66-.86-4.06-.24-6.13-.34-1.11-.06-1.42.27-1.65,1.45-.84,4.29-1.34,8.66-2.57,12.88a14.43,14.43,0,0,1-2.8,4.88c-1.63,2.08-5.86,2.64-7.28-1-.35-.9-.81-1.76-1.2-2.56-.62,2-1.2,4.14-1.9,6.21a4.37,4.37,0,0,1-5,3.24c-2.39-.17-3.2-1.77-3.75-3.61a36.73,36.73,0,0,1-1.19-8.38c-1,1.22-1.75,2.22-2.53,3.23a8.24,8.24,0,0,1-8.12,3.25c-2.71-.36-5-4.6-4.37-8.06a29.47,29.47,0,0,1,2.32-8.51C.83,51-1,47.56.55,41.63,2.64,33.9,8,28.86,14.34,24.59a52.53,52.53,0,0,1,11.24-5.81,2.43,2.43,0,0,0,1.94-2.69c0-5.5,2.63-7.92,8.23-7.95,4.29,0,6.71-1.68,8.09-5.72C44.32,1,45,.24,46.56.49a4.86,4.86,0,0,0,1.9,0c3.7-1,6.14-.79,6.76,4.11.35,2.76,3.87,2.13,6.06,2,5.19-.26,8.36,2.34,8.14,7.52-.11,2.58.54,3.78,3.14,4.77,8.27,3.17,15.81,7.64,21.18,14.92C96.14,37.06,98,40.66,97.86,45c-.1,4.77-1.48,6.41-6.27,7,1.18,3.62,2.72,7.15,2,11.14-.43,2.44-1.13,4.82-3.71,5.46a7.83,7.83,0,0,1-8.09-2.61C80.86,64.85,80.05,63.65,79,62.32ZM19.32,34.88c-.85-.74.07-1.14.4-1.46,2.23-2.12,4.48-4.22,6.8-6.24,4.58-4,9.6-7.45,14.67-11.26-2.48-.44-4.39.47-6.35,1C24.29,19.71,14.57,24.12,7,32.26c-3.65,3.91-6,8.48-5.68,14.1a4.3,4.3,0,0,0,3.41,4.25c2.13.6,3-.74,3.77-2.44a47.46,47.46,0,0,1,7.77-11c.81-.91,1.27-2.62,3.09-2.33-.45,1.33-1.55,2.18-2.41,3.2C11.36,44.61,6.74,51.64,5.32,60.4c-.77,4.79,2.73,8.6,6.89,6.95,3.59-1.43,5.85-4.51,7-8.07,1-2.94,1-6.15,2-9.15,3.41-10.32,9.76-18.9,16-27.55.91-1.27,2.3-2.29,2.78-4.35-.68.4-1,.56-1.28.76C31.88,23.79,25.66,29.42,19.32,34.88Zm59.43,0c-6.68-5.65-13-11.73-20.62-16.24C60.32,22,62.66,25.28,65,28.5c5.83,7.92,11,16.29,12.85,26C78.74,59,80,62.75,83.3,65.84a6.57,6.57,0,0,0,6.79,1.48c1.66-.51,3-4.43,2.71-6.65-.66-5.07-2.81-9.55-5.25-14S81.42,39,78.71,34.86c1.1-.67,1.36.49,1.79.94a49.67,49.67,0,0,1,9.42,13.1c1,2.12,2.37,2.07,4.16,1.41s2.52-2.13,2.65-4c.4-5.61-2-10.19-5.66-14.1-7.58-8.13-17.31-12.52-27.86-15.37a26.52,26.52,0,0,1-3.1-.78,6.64,6.64,0,0,0-3.35-.18c7.45,5.35,14.47,10.41,20.58,16.58C78,33.15,79.35,33.47,78.75,34.89ZM52.61,47.83c.21-4.71-.5-9.28-.22-13.89.35-5.61.17-11.24.67-16.85.29-3.21.4-3.46,3.67-2.78a86.67,86.67,0,0,1,9.9,2.44c.48.17,1.32.68,1.69-.52,1.48-4.83-1.84-8.77-6.9-8.11-4.4.57-6.68-1-7.93-5.17-.22-.72-.11-2.33-1.74-1.71s-3.24.28-4.86.37c-.8,0-1.62-.12-1.91,1-1.32,5-4.83,6.73-9.74,6.67-3.9,0-6,1.83-6.58,5.4-.41,2.47.05,2.93,2.41,2.14a69.28,69.28,0,0,1,10.69-2.56c1-.15,3.08-1.42,3.2,1.34.46,10.72,1.18,21.44.32,32.21Zm5-27.43a7,7,0,0,0,.11,1.17A214.29,214.29,0,0,1,66.2,55,89.83,89.83,0,0,0,70,70.61,3.3,3.3,0,0,0,73.65,73c1.83-.09,2.49-1.24,2.9-2.69a29.61,29.61,0,0,0,.91-12.61c-1.37-8.82-5.11-16.74-10.15-24A140.21,140.21,0,0,0,57.57,20.4Zm-17.48.21c-.2.3-.39.61-.61.91-.6.79-1.23,1.56-1.81,2.36-6,8.28-12,16.56-15.33,26.44a36.19,36.19,0,0,0-1.27,18.62c.35,1.8.66,4,3.47,4.11s3.44-1.77,4-3.82A126,126,0,0,0,31.5,56.44,327.6,327.6,0,0,1,40.09,20.61Zm3.65-3.53A26.65,26.65,0,0,0,40.62,24C37.88,32.32,36,40.85,34,49.37a77.92,77.92,0,0,0-2,11.93c-.26,3.65,1.34,7,3.28,7.37,2.45.45,4.51-1.52,5.81-5.67a74.5,74.5,0,0,0,3.13-17.4A166.8,166.8,0,0,0,43.74,17.08Zm10.64.06a50.15,50.15,0,0,0-.65,5.2c-.17,11.37-.9,22.79,1.61,34,.77,3.45.95,7.09,3.23,10.12,1.14,1.51,2.34,2.61,4.28,2.14s2.29-2.19,2.76-3.71a16.59,16.59,0,0,0-.09-8.34c-1.81-8.64-3.77-17.25-6-25.8C58.36,26.26,57.09,21.7,54.38,17.14Z" style="fill:#5b4759"/><path d="M52.61,47.83H45.28c.86-10.77.14-21.49-.32-32.21-.12-2.76-2.21-1.49-3.2-1.34a69.28,69.28,0,0,0-10.69,2.56c-2.36.79-2.82.33-2.41-2.14.61-3.57,2.68-5.44,6.58-5.4,4.91.06,8.42-1.66,9.74-6.67.29-1.14,1.11-1,1.91-1,1.62-.09,3.26.24,4.86-.37s1.52,1,1.74,1.71C54.74,7.14,57,8.69,61.42,8.12c5.06-.66,8.38,3.28,6.9,8.11-.37,1.2-1.21.69-1.69.52a86.67,86.67,0,0,0-9.9-2.44c-3.27-.68-3.38-.43-3.67,2.78-.5,5.61-.32,11.24-.67,16.85C52.11,38.55,52.82,43.12,52.61,47.83Z" style="fill:#f8e8e9"/><path d="M78.71,34.86c2.71,4.13,6.43,7.49,8.84,11.86s4.59,8.88,5.25,14c.29,2.22-1,6.14-2.71,6.65a6.57,6.57,0,0,1-6.79-1.48C80,62.75,78.74,59,77.88,54.52c-1.87-9.73-7-18.1-12.85-26-2.37-3.22-4.71-6.46-6.9-9.85,7.6,4.51,13.94,10.59,20.62,16.24Z" style="fill:#fcf0f7"/><path d="M19.32,34.88C25.66,29.42,31.88,23.79,38.77,19c.29-.2.6-.36,1.28-.76-.48,2.06-1.87,3.08-2.78,4.35-6.26,8.65-12.61,17.23-16,27.55-1,3-1,6.21-2,9.15-1.18,3.56-3.44,6.64-7,8.07C8.05,69,4.55,65.19,5.32,60.4c1.42-8.76,6-15.79,11.62-22.35.86-1,2-1.87,2.41-3.2Z" style="fill:#fcf0f7"/><path d="M57.57,20.4a140.21,140.21,0,0,1,9.74,13.3c5,7.3,8.78,15.22,10.15,24a29.61,29.61,0,0,1-.91,12.61c-.41,1.45-1.07,2.6-2.9,2.69A3.3,3.3,0,0,1,70,70.61,89.83,89.83,0,0,1,66.2,55a214.29,214.29,0,0,0-8.52-33.44A7,7,0,0,1,57.57,20.4Z" style="fill:#fcf0f7"/><path d="M40.09,20.61A327.6,327.6,0,0,0,31.5,56.44a126,126,0,0,1-2.93,12.79c-.59,2-1.23,3.93-4,3.82s-3.12-2.31-3.47-4.11a36.19,36.19,0,0,1,1.27-18.62c3.3-9.88,9.31-18.16,15.33-26.44.58-.8,1.21-1.57,1.81-2.36C39.7,21.22,39.89,20.91,40.09,20.61Z" style="fill:#fcf0f7"/><path d="M19.35,34.85c-1.82-.29-2.28,1.42-3.09,2.33a47.46,47.46,0,0,0-7.77,11c-.8,1.7-1.64,3-3.77,2.44a4.3,4.3,0,0,1-3.41-4.25C1,40.74,3.34,36.17,7,32.26c7.58-8.14,17.3-12.55,27.85-15.36,2-.51,3.87-1.42,6.35-1-5.07,3.81-10.09,7.25-14.67,11.26-2.32,2-4.57,4.12-6.8,6.24-.33.32-1.25.72-.4,1.46Z" style="fill:#fcf0f7"/><path d="M78.75,34.89c.6-1.42-.77-1.74-1.41-2.39-6.11-6.17-13.13-11.23-20.58-16.58a6.64,6.64,0,0,1,3.35.18,26.52,26.52,0,0,0,3.1.78c10.55,2.85,20.28,7.24,27.86,15.37,3.64,3.91,6.06,8.49,5.66,14.1-.13,1.83-.79,3.27-2.65,4s-3.16.71-4.16-1.41A49.67,49.67,0,0,0,80.5,35.8c-.43-.45-.69-1.61-1.79-.94Z" style="fill:#fcf0f7"/><path d="M43.74,17.08a166.8,166.8,0,0,1,.53,28.52A74.5,74.5,0,0,1,41.14,63c-1.3,4.15-3.36,6.12-5.81,5.67-1.94-.36-3.54-3.72-3.28-7.37a77.92,77.92,0,0,1,2-11.93c2-8.52,3.86-17,6.6-25.36A26.65,26.65,0,0,1,43.74,17.08Z" style="fill:#fcf0f7"/><path d="M54.38,17.14c2.71,4.56,4,9.12,5.15,13.64,2.22,8.55,4.18,17.16,6,25.8a16.59,16.59,0,0,1,.09,8.34c-.47,1.52-.9,3.26-2.76,3.71s-3.14-.63-4.28-2.14c-2.28-3-2.46-6.67-3.23-10.12-2.51-11.24-1.78-22.66-1.61-34A50.15,50.15,0,0,1,54.38,17.14Z" style="fill:#fcf0f7"/></g></g></svg>