<svg xmlns="http://www.w3.org/2000/svg" viewBox="0 0 144.19 48.19">
    <g>
        <path d="M94.58,21.71c.84-9.83,10-22.46,23.54-21.68,15.55.91,26,12.63,26.07,25.55.06,11.87-10.63,22.92-23.79,22.6C106.33,47.85,96.33,36.3,94.58,21.71Z"
              style="fill:#57423f"/>
        <path d="M21.47,47.54a21.71,21.71,0,0,1-21-17.1c-2.83-13.55,7.09-25.52,17.27-29,9.53-3.24,22.1-1.15,28,9.8,4.37,8.17,4.11,15.88,0,23.11A25,25,0,0,1,31.16,45.83C27.75,46.85,24.34,48.51,21.47,47.54Z"
              style="fill:#57423f"/>
        <path d="M138.7,27.32c0,8.21-5.44,16-13.23,17.25-6.37,1-12.63-1.13-17.81-5-6.87-5.11-10.35-11.83-8.26-20.78,1.22-5.2,7.33-11.59,12.73-12.93C126.86,2.22,138.87,14.65,138.7,27.32Z"
              style="fill:#8b6b63"/>
        <path d="M22.48,45.09c-9.48,0-16.94-8-17-18A21.77,21.77,0,0,1,26.62,5.15,18.23,18.23,0,0,1,45.08,23.68C44.81,34.53,33.63,45.13,22.48,45.09Z"
              style="fill:#8b6b63"/>
    </g>
</svg>