<svg xmlns="http://www.w3.org/2000/svg" viewBox="0 0 118.8 50.56">
    <g id="Ebene_2" data-name="Ebene 2">
        <g id="Ebene_3" data-name="Ebene 3">
            <g id="Eyes">
                <path d="M61.34,50.56c-.39-1.11-1.54-2-1.2-3.48,1.76.63,2.54,1.68,2.07,3.48Z" style="fill:#181919"/>
                <path d="M118.8,24.26l0,2.2c-.73,3-3.13,3.61-5.72,3.84C110,30.58,107,29.77,104,29c-1.55-.16-3.13.35-4.66-.23-.94-1-.82-2.84-2.67-3.14.33,1.21.82,2.41.36,3.68a3.06,3.06,0,0,0-.54,3.46c-1.35,4.15-3.81,6.11-7.27,5.79a4.21,4.21,0,0,1-3-1.34A6.55,6.55,0,0,0,84,35.59c-3.12-4.15-1.35-8,1-12a3.61,3.61,0,0,0-3.21,1.85c-1.55,2.56-2.25,5.26-1.2,8.21a2.77,2.77,0,0,1,.31,1.87c-2.85,1.7-3.74,1.36-4.3-1.84A11.7,11.7,0,0,1,78,25c-1.56.25-2.61,1.47-4.1,1.47-.85.5-1.69,1-2.55,1.49-.6.34-1.29.51-1.68-.2s.25-1,.67-1.41A28.67,28.67,0,0,1,83.11,19.9c6.69-1.57,12.66.22,18.6,2.84a19.44,19.44,0,0,0,3.82,1.33,5.6,5.6,0,0,0,6.58-3.48c.13-.31.27-.61.4-.92a4,4,0,0,1,1,.74,3,3,0,0,1,.17,3,7.14,7.14,0,0,1-2.9,3.06c3,1.15,5,.37,6.76-2.56.17-.27.1-1,.72-.77C118.71,23.32,118.74,23.83,118.8,24.26Z"
                      style="fill:#010101"/>
                <path d="M0,26.46l0-2.2c.06-.43.09-.94.55-1.08.62-.19.55.5.72.78C3,26.82,4.38,27.41,8.13,26.67,6.52,25.41,4.87,24.24,4.82,22a2.19,2.19,0,0,1,1.5-2.32C8,23.84,10.71,25.15,15,23.61c3.87-1.41,7.54-3.51,11.67-4a26,26,0,0,1,20.06,5.34c.62.49,1.26.95,1.85,1.46.43.37,1,.82.59,1.44s-1,.46-1.55.2-1.12-.62-1.67-.93c-2-.3-3.45-1.77-5.31-2.35,0,1.77-.15,1.88-2.52,1.52-1.33-1.08-2.13-3-4.43-2.7.73,1.09,1.85,1.91,2.1,3.26a7.69,7.69,0,0,0,.65,3A7.25,7.25,0,0,1,33.52,37a6.37,6.37,0,0,1-6.82.61c-.53-1.64-1.91-2.06-3.4-2.3-2.12-1.37-2.19-3.52-2.22-5.71,0-1.08.29-2.12.31-3.23-1.54,1.17-2.11,3.45-1.55,5.91a9.62,9.62,0,0,1,.7,3.12c-1.86,2.11-2.74,2-3.64-.56a9.93,9.93,0,0,1-.53-3.78,2.48,2.48,0,0,0-1-2.45A20.37,20.37,0,0,1,4.09,30,4.59,4.59,0,0,1,0,26.46Z"
                      style="fill:#010101"/>
                <path d="M38.05,25.94h2.36c.13-.76-1-1-.62-2,2.31.43,4.2,1.78,6.11,3.11.76,5.45,1,10.85-2.78,15.45a4.3,4.3,0,0,1-3.79,1.92c-.26.24-.52.1-.79,0a2.54,2.54,0,0,0-2.23.18,23.24,23.24,0,0,1-6.89.93c-1.05,0-2.11,0-3.17,0a7.9,7.9,0,0,1-5.89-3.65C16,41,15.69,37.45,15.24,34.13a14.28,14.28,0,0,1,.17-5.52c1.16-.74,1.6-.47,1.51.93a11.92,11.92,0,0,0,1.33,7.11l2.1-1.24c.79-1.18,1.83-.91,2.9-.49,1.49.29,3.78-.61,3.48,2.34-.34,1.34-1.52,1.62-2.58,2.05a5.66,5.66,0,0,0-1.9.84,6,6,0,0,0,2.88,2,11.92,11.92,0,0,0,16.24-10c.24-2-.92-1.84-2.21-1.7A4.89,4.89,0,0,1,36,29.48c-.93-.73-1.39-1.54-.48-2.6A2.08,2.08,0,0,1,38.05,25.94Z"
                      style="fill:#fdfdfd"/>
                <path d="M73.89,26.46c1.45-1.3,3.24-1.93,5.58-2.72-1.91,2.65-2.88,5.2-2.6,8.09a4.56,4.56,0,0,0,0,.64,10.64,10.64,0,0,0,.88,3.21c.93,1.46,1.83-.71,2.86-.29,1.2-.86,2.39-.53,3.58,0a2.35,2.35,0,0,1,2.32,1.42c.4,1.82-.86,2.36-2.2,2.84-.71.28-1.54.19-2.2.68,6,4.08,13.81,2.68,17.52-3.12a9.2,9.2,0,0,0,.93-1.92c.63-1.86.59-1.91-1.53-1.86a3.55,3.55,0,0,1-2.87-.92c-1.77-1.42-.57-2.31.57-3.2a2.3,2.3,0,0,1,2.57-.82c1.52.53,3.27-1.06,4.68.51.92,1.81,0,3.57-.45,5.17-.9,2.88-2.07,5.75-4.66,7.67-1.75,1.83-3.68,3.35-6.32,3.66-1.07,0-2.14,0-3.22,0-3.35.12-6.58-.81-9.88-1.11-5.66-1.74-7-7.11-6.38-12.19C73.32,30.34,73.62,28.4,73.89,26.46Z"
                      style="fill:#fdfdfd"/>
                <path d="M37.69,4.93c2.34.24,4.52-.5,6.72-1.12a6.23,6.23,0,0,0,3.37-2.5C48.67.11,50-.55,51.27.59S52,3.05,51.1,4.22C49.38,6.43,46.83,7,44.31,7.45c-3.63.69-7.27.19-10.9,0A2.07,2.07,0,0,1,32.23,7c-.34-.31-1.16-.16-1-.85.1-.52.71-.71,1.18-.74C34.15,5.25,35.88,4.56,37.69,4.93Z"
                      style="fill:#030303"/>
                <path d="M88,6.11c-2.7,2.09-5.59,1.41-8.19,1.69a20.87,20.87,0,0,1-8.45-1.14,7.13,7.13,0,0,1-4-3c-.65-1.06-.82-2.25.27-3.1A2,2,0,0,1,70.62.9c2.77,3.62,6.72,4,10.78,4A13.58,13.58,0,0,1,88,6.11Z"
                      style="fill:#030303"/>
                <path d="M29.58,45c2.45.13,4.77-.71,7.16-1a2.69,2.69,0,0,1,2.25.13l.34.3c-1.29,2.08-3.7,2-5.6,2.46-3.45.78-7,1.87-10.66.29-1.67-.73-2.86.91-4.29,1.52-.41-1.18.33-1.88,1-2.59.49-.5,1.46-.73.36-1.72s-1.47-.22-2,.46c-.25.32-.45.68-.71,1.08-1.24-2.62-.27-3.91,2.92-4.09C22.17,43.05,23.67,44.77,26,45A8.86,8.86,0,0,0,29.58,45Z"
                      style="fill:#030404"/>
                <path d="M79.47,44.47a5.07,5.07,0,0,1,3.72-.25,25.22,25.22,0,0,0,6,.81,8.86,8.86,0,0,0,3.59,0c2.49-.17,3.9-2.4,6.08-3.16,2.73.36,3.33,1.21,2.73,4-.91-.08-.81-1.07-1.35-1.48s-1-.58-1.62.09-.8.86,0,1.44a3,3,0,0,1,1.42,3c-2.22-2.08-4.49-1.48-7-1-3.35.58-6.78-.38-10-1.58C81.81,45.81,80.08,46.2,79.47,44.47Z"
                      style="fill:#030404"/>
                <path d="M25.88,14.85c3.47-2.45,10.93-2.85,13.8-1.17-.46.6-1.22,0-1.79.49,2,1.28,4.17,2.4,5.69,4.49C38.07,15.52,32.73,11.76,25.88,14.85Z"
                      style="fill:#090a0a"/>
                <path d="M79.2,13.3c4.61-.54,9.24-1.54,13.9,1.13-1.86,1-3.19-.6-4.71-.5s-3.25-.37-4.81.47c-1.36.74-2.78,1.37-4.17,2s-2.54,1.92-4.49,2.27c1.73-2.19,3.94-3.2,6.14-4.68l-1.94-.17Z"
                      style="fill:#090a0a"/>
                <path d="M84.21,35.42l-3.58,0a10.23,10.23,0,0,1,.11-9.46c1.12-2.23,2.78-3.37,5.4-2.81C83.33,26.89,81.29,30.78,84.21,35.42Z"
                      style="fill:#4a6eb3"/>
                <path d="M96.18,32.54l3.13.43c.53.7.17,1.37-.11,2-2.17,5-9,7.57-14,5.2a1.86,1.86,0,0,1-.94-.83c1-.62,2.32-.94,2.23-2.51a5,5,0,0,0,6.75.11A10.79,10.79,0,0,0,96.18,32.54Z"
                      style="fill:#4b6eb4"/>
                <path d="M99.32,28.52c-.73.67-1.78.34-2.57.82a9.31,9.31,0,0,0-1.07-4.56C97.86,25.28,99.42,26.12,99.32,28.52Z"
                      style="fill:#4b6db2"/>
                <path d="M36,29.48l3.32.47a2.65,2.65,0,0,1,.48,2.42c-.88,6-7.87,10.28-13.64,8.24-.85-.3-1.84-.51-2-1.65l2.59-1.7c4.75,1.66,8.85-1,9.16-5.87C35.93,30.75,36,30.11,36,29.48Z"
                      style="fill:#4a6eb3"/>
                <path d="M23.25,34.92c-1,.21-2-.05-2.9.49a10.36,10.36,0,0,1-.91-7.4c.44-1.64,1.13-2.69,3.1-2.9C21.5,28.51,20.58,31.89,23.25,34.92Z"
                      style="fill:#496cb1"/>
                <path d="M38.05,25.94l-2.53.94-2.83-3.74C35.38,22.56,37,23.73,38.05,25.94Z" style="fill:#496cb0"/>
                <path d="M24.14,39c6,4.31,15.61-.5,15.18-9a4.59,4.59,0,0,0,2.24-.49c1.18,3.73-.78,9.68-6.62,12.79A12.52,12.52,0,0,1,20.87,40,6.34,6.34,0,0,1,24.14,39Z"
                      style="fill:#020203"/>
                <path d="M84.3,39.35c2.51.73,5,1.76,7.67.88,3.69-1.18,6.33-3.39,7.34-7.26a5,5,0,0,0,2.56-.59C101,37.85,98,41.23,93.16,42.7A12.79,12.79,0,0,1,80.66,40,12.26,12.26,0,0,1,84.3,39.35Z"
                      style="fill:#030304"/>
            </g>
        </g>
    </g>
</svg>