<svg xmlns="http://www.w3.org/2000/svg" viewBox="0 0 62.19 85.76"><g id="Ebene_2" data-name="Ebene 2"><g id="Ebene_1-2" data-name="Ebene 1"><path d="M62.19,14.28c-2,.3-2.73,1.85-3.4,3.38a40.65,40.65,0,0,1-9.93,14A2.45,2.45,0,0,0,48,34.41C49.79,43,47.85,51,44.38,58.78,43,62,40,63.8,37.4,65.87c-1.36,1.07-2,5-1,6.3s2.5.59,3.7.19c4.36-1.42,5.68-.51,5.72,4.13,0,.91,0,1.82,0,2.72.44,4.3.49,4.45-3.79,5.57a26.66,26.66,0,0,1-19.62-2.06c-1.14-.59-2.35-1.23-1.38-3.12.52-1,.17-2.49.18-3.76,0-4.17,2-5.65,6.11-4.59.53.13,1.18.82,1.47-.19.23-.77-.35-.92-1-1.19a38.35,38.35,0,0,1-13.08-9.31c-3.08-3.17-3.11-7.26-1.84-11.36a10,10,0,0,0,0-6.24,14,14,0,0,1,1.31-10.48c.33-.63,1.12-1.33-.06-2-5.2-3.14-8.18-8.31-11.68-13C2,16.81,1.74,16.05.8,15.8a1,1,0,0,1-.62-1.54,1.64,1.64,0,0,1,2-.84c2.19.7,3.65,2.6,6,3.43,0-2-.09-4,0-5.92.35-6.62,7-11.48,12.38-9.08A4,4,0,0,1,22.8,7c-.28.63-.66,1.34-1.59,1.24a1,1,0,0,1-1-1.06c0-1.28-.37-2.67-1.73-2.6a4,4,0,0,0-3.17,2.67,12.82,12.82,0,0,0,1.84,14c.34.42.74.8,1.09,1.22,1.59,1.89,3.05,2.8,5.92,1.78,5.53-2,11.31-2.24,16.8.57.64.33.91.22,1.31-.31,3.88-5.13,5.48-12.51,2-18.12A6.17,6.17,0,0,0,42,4.12c-2.57-1.49-4.15-.66-4.39,2.26,0,.69.5,1.83-.83,1.87-1.16,0-1.72-.77-1.9-1.89C34.38,3,36.59.43,40,.07c9-.95,13.82,7.71,12.11,15.84-.09.43-.18.86-.32,1.59a10.86,10.86,0,0,0,4.66-3.22,5.13,5.13,0,0,1,5.78-1.63ZM60,13.73c-1.13-.16-1.83.52-2.59,1.21a38.21,38.21,0,0,1-3.34,2.76c-.79.58-1.75,1.34-2.72.76-1.14-.68-.51-1.95-.52-3,0-.26.21-.51.23-.77.46-5.52-.92-10.07-5.87-12.63a7.53,7.53,0,0,0-7.45,0c5.77.49,8.08,2.37,9.2,7.6,1.63,7.57-1.06,13.73-6.82,18.54-1.87,1.56-1.62,2.92-.57,4.4,1.45,2.05,3.51,1.66,5.34.62,2.79-1.59,4.87-4,7-6.41,3.42-3.94,5-9,8.18-13.09l.71-.21-.14-.19C60.39,13.46,60.2,13.6,60,13.73ZM32.38,24.15a27,27,0,0,0-11.57,2.71c-4.48,2.31-8.45,10.29-6.93,15a15.2,15.2,0,0,1,0,8.66c-.9,3.86-.26,7.46,3,10.36A87.3,87.3,0,0,0,26.41,68a4.47,4.47,0,0,0,5.34-.07c2.43-1.7,5-3.2,7.33-5.07a14,14,0,0,0,4.45-5.34c2.87-6.8,4.54-13.79,3.46-21.28-.28-1.94-.33-2.6-2.41-1.46A4.44,4.44,0,0,1,38.3,33c-1.15-2.15-1.29-4.28,1.28-5.77,1.11-.64,1-1.3-.22-1.83A21.69,21.69,0,0,0,32.38,24.15ZM29,83.82c1.35.25,2.65.58,4,.71a21.39,21.39,0,0,0,4.08,0c1.19-.12,3.16-.24,3.36-.85.4-1.18-.48-2.5-1.72-3.33a1.09,1.09,0,0,1-.2-1.72L40.06,80c.61-.56-.13-1.87,1.22-1.82.46.93-.28,1.8-.18,2.6s0,2.09,1,2.59c.81.42,1.5-.39,2.24-.68,1.21-.47.81-1.33.54-2.24a8.54,8.54,0,0,1-.14-2.16c-.05-5.91-.05-5.91-5.74-4.47-2.44.62-4-.52-4.1-3.06,0-1,0-1.92,0-3C31,69.72,31,69.71,29.49,73c-.23.5-.36,1-1,1.14-.27,0-.4-.14-.48-.48-.48-2-2.16-1.61-3.51-1.51-1.55.11-2,1.44-2.11,2.72a31,31,0,0,0,0,3.34c1.53-.17,2.17-1.33,3.39-1.73-.24,1.74-1.47,2.16-2.51,2.83-.6.39-1.83,1-1.12,1.77,1.19,1.38,3,1.92,4.77,2.37,1.21.31,1.15-1.13,1.67-1.77.81-1,1.55-2.07,2.52-3.38C31.76,80.93,29,81.8,29,83.82ZM3.2,15.54C6,19.45,8.12,23.76,11.81,26.9s3.51,3.16,7.07-.06c.32-.29.65-.56,1-.88a19.41,19.41,0,0,1-6-7.38,13.92,13.92,0,0,1-1-9.48c.77-3.77,3-5.7,6.78-6-4.86-.57-8.1,1-9.38,5-.73,2.29-1.61,4.81-.26,7.32a2.48,2.48,0,0,1,0,2.83c-.85,1-1.86.11-2.7-.32C5.94,17.19,4.58,16.34,3.2,15.54ZM36.44,6.61C36,5.4,37.26,4.47,37,3.13A2.81,2.81,0,0,0,36.44,6.61Z" style="fill:#5b4759"/><path d="M32.38,24.15a21.69,21.69,0,0,1,7,1.29c1.23.53,1.33,1.19.22,1.83C37,28.76,37.15,30.89,38.3,33a4.44,4.44,0,0,0,6.28,1.75c2.08-1.14,2.13-.48,2.41,1.46,1.08,7.49-.59,14.48-3.46,21.28a14,14,0,0,1-4.45,5.34c-2.34,1.87-4.9,3.37-7.33,5.07a4.47,4.47,0,0,1-5.34.07,87.3,87.3,0,0,1-9.52-7.08c-3.25-2.9-3.89-6.5-3-10.36a15.2,15.2,0,0,0,0-8.66c-1.52-4.76,2.45-12.74,6.93-15A27,27,0,0,1,32.38,24.15Z" style="fill:#f8e8e9"/><path d="M29,83.82c-.05-2,2.73-2.89,2.09-5.55-1,1.31-1.71,2.38-2.52,3.38-.52.64-.46,2.08-1.67,1.77-1.73-.45-3.58-1-4.77-2.37-.71-.82.52-1.38,1.12-1.77,1-.67,2.27-1.09,2.51-2.83-1.22.4-1.86,1.56-3.39,1.73a31,31,0,0,1,0-3.34c.15-1.28.56-2.61,2.11-2.72,1.35-.1,3-.52,3.51,1.51.08.34.21.53.48.48.61-.1.74-.64,1-1.14,1.46-3.26,1.47-3.25,5.4-5.18,0,1.06,0,2,0,3,.12,2.54,1.66,3.68,4.1,3.06,5.69-1.44,5.69-1.44,5.74,4.47a8.54,8.54,0,0,0,.14,2.16c.27.91.67,1.77-.54,2.24-.74.29-1.43,1.1-2.24.68-1-.5-.9-1.72-1-2.59s.64-1.67.18-2.6c-1.35,0-.61,1.26-1.22,1.82l-1.54-1.37a1.09,1.09,0,0,0,.2,1.72c1.24.83,2.12,2.15,1.72,3.33-.2.61-2.17.73-3.36.85a21.39,21.39,0,0,1-4.08,0C31.68,84.4,30.38,84.07,29,83.82Z" style="fill:#f8e8e9"/><path d="M60,13.74c-3.17,4.08-4.76,9.15-8.18,13.09-2.08,2.4-4.16,4.82-7,6.41-1.83,1-3.89,1.43-5.34-.62-1-1.48-1.3-2.84.57-4.4,5.76-4.81,8.45-11,6.82-18.54-1.12-5.23-3.43-7.11-9.2-7.6a7.53,7.53,0,0,1,7.45,0c5,2.56,6.33,7.11,5.87,12.63,0,.26-.23.51-.23.77,0,1-.62,2.3.52,3,1,.58,1.93-.18,2.72-.76a38.21,38.21,0,0,0,3.34-2.76c.76-.69,1.46-1.37,2.59-1.21Z" style="fill:#785a77"/><path d="M3.2,15.54c1.38.8,2.74,1.65,4.16,2.38.84.43,1.85,1.28,2.7.32a2.48,2.48,0,0,0,0-2.83c-1.35-2.51-.47-5,.26-7.32,1.28-4,4.52-5.57,9.38-5-3.8.31-6,2.24-6.78,6a13.92,13.92,0,0,0,1,9.48,19.41,19.41,0,0,0,6,7.38c-.37.32-.7.59-1,.88-3.56,3.22-3.48,3.13-7.07.06S6,19.45,3.2,15.54Z" style="fill:#785a77"/><path d="M36.44,6.61A2.81,2.81,0,0,1,37,3.13C37.26,4.47,36,5.4,36.44,6.61Z" style="fill:#785a77"/><path d="M60,13.73c.2-.13.39-.27.59-.39l.14.19-.71.21Z" style="fill:#785a77"/></g></g></svg>