<svg xmlns="http://www.w3.org/2000/svg" viewBox="0 0 37.88 74.85"><g id="Ebene_2" data-name="Ebene 2"><g id="Ebene_1-2" data-name="Ebene 1"><path d="M17.6,59.91A35.5,35.5,0,0,1,7.49,54.25C3.59,51-.83,47.42.14,41.83c.92-5.35.75-10.62,1-15.93A13.7,13.7,0,0,1,6.76,15.76c1.76-1.33,1-1.91-.08-2.91a23.35,23.35,0,0,1-3-3.15c-1.65-2.15-1.41-5.63.37-7.18s4.57-1.35,6.77.84a15.06,15.06,0,0,1,3.58,6.26c.43,1.35.89,1.8,2.42,1.72a23.55,23.55,0,0,1,7.3.23c1.87.49,1.2-1.06,1.39-1.86,1-4,2.38-7.81,6.72-9.37,2.76-1,4.82.26,5.33,3.11a11.14,11.14,0,0,1-2.44,9.11C33.63,14.51,33.27,16,35,18.31c3.07,4,3.24,9,2.54,13.76-.93,6.39-2.3,12.7-6.16,18.14a13.76,13.76,0,0,1-4.82,4.33c-2.49,1.28-2.19,3.3-1.91,5.34.13.91.41,1.71,2,1.19,6.44-2.15,8.35-.7,8.77,6.68,0,.18,0,.36,0,.54,0,4.58,0,4.78-4.47,5.77a28.31,28.31,0,0,1-20-2.45c-3.46-1.86-1.54-5.31-1.75-8-.15-2,1-3.47,3.21-4.11C14,59,15.28,60.27,17.6,59.91ZM36,31c.07-6.12-.68-9.39-2.35-11.86-.53-.78-.86-1.37-2.27-.92-2.74.87-5-.75-5.78-3.62-.24-.93-.79-1-1.53-1.19a20.53,20.53,0,0,0-8.86,0C6.85,15.22,1.13,23.62,2.9,31.71A9.92,9.92,0,0,1,2.45,38a9.09,9.09,0,0,0,.72,9c3,4.95,7.68,7.74,12.58,10.31a2,2,0,0,0,1.82.12c4.39-1.75,8.65-3.85,11.72-7.52C34.26,44,35.14,36.59,36,31Zm-9.2,37.19c.35-.42.71-.38,1.19-.18a5.44,5.44,0,0,1,1.54,1.84c.23.9.56,1.77.85,2.65.85-.28,1.73-.5,2.55-.86a1.48,1.48,0,0,0,.88-1.53c-.07-2.06.13-4.13-.52-6.17s-1.74-2.88-4-2.17c-6.22,1.94-6,.16-5.86-4.45,0-.13-.14-.27-.22-.41-2.58,1-5.55,1.46-5.76,5.12a1,1,0,0,1-1.1.95c-.16,0-.39-.32-.42-.52-.31-2.14-1.94-1.73-3.21-1.48-1.76.34-1.87,2.07-2.12,3.43-.16.82,0,2.35.48,2.52,1.09.42,1.85-.67,2.5-1.5.28-.36.53-.47.88-.18s.28.6.06.94a7.32,7.32,0,0,1-2.6,2.31c-.53.3-1.47.6-.47,1.56,2.25,2.14,4.74,1.92,6.47-.53.46-.65.44-1.79,1.65-1.94,0,.38.06.74.08,1.09.08,1.4-2.4,2.31-1.09,3.68,1.06,1.11,3,.23,4.46.6a3.13,3.13,0,0,0,.81.07c1.68,0,3.92.57,4.82-.7s-1.25-2.5-1.8-3.88A1.17,1.17,0,0,1,26.75,68.22Zm3.79-50.64c1.83-3.84,4.93-6.73,5.81-10.86.4-1.88.51-4.16-1.49-5.07s-3.83.21-5.12,2a15,15,0,0,0-3.07,10.67c.1,1-.2,2.29,1.2,2.31,1.72,0,.86-1.43.87-2.22.06-3.08.21-6.13,2-8.8.85-1.26,2.13-1.91,3.49-1.23s1.28,1.86.79,3.28c-1,2.79-2.85,5-4.33,7.44C30.3,15.79,29.57,16.29,30.54,17.58Zm-20.24-4,.49-.45c-1.35-1.33-2.72-2.64-4-4C5.7,8,5.35,6.33,6.36,5.51s2.56,0,3.37,1.3a16.7,16.7,0,0,1,2.39,4.75.9.9,0,0,0,1,.71c.45-.09.42-.51.43-.86,0-2-3.5-7.24-5.39-8-2.37-.95-4,.06-3.83,2.64C4.54,10,7.84,11.48,10.3,13.58ZM30.17,13c1.29-1.9,3.08-3.44,3.71-5.77.16-.6.59-1.15-.11-1.65-.89-.62-1.37.17-1.75.68A11.15,11.15,0,0,0,30.17,13Z" style="fill:#5b475a"/><path d="M36,31C35.14,36.59,34.26,44,29.29,49.9c-3.07,3.67-7.33,5.77-11.72,7.52a2,2,0,0,1-1.82-.12C10.85,54.73,6.2,51.94,3.17,47a9.09,9.09,0,0,1-.72-9,9.92,9.92,0,0,0,.45-6.32c-1.77-8.09,4-16.49,12.26-18.27a20.53,20.53,0,0,1,8.86,0c.74.17,1.29.26,1.53,1.19.73,2.87,3,4.49,5.78,3.62,1.41-.45,1.74.14,2.27.92C35.27,21.64,36,24.91,36,31Z" style="fill:#f9e9ea"/><path d="M26.75,68.22a1.17,1.17,0,0,0,0,.26c.55,1.38,2.7,2.62,1.8,3.88s-3.14.66-4.82.7A3.13,3.13,0,0,1,23,73c-1.49-.37-3.4.51-4.46-.6-1.31-1.37,1.17-2.28,1.09-3.68,0-.35-.05-.71-.08-1.09-1.21.15-1.19,1.29-1.65,1.94-1.73,2.45-4.22,2.67-6.47.53-1-1-.06-1.26.47-1.56a7.32,7.32,0,0,0,2.6-2.31c.22-.34.27-.67-.06-.94s-.6-.18-.88.18c-.65.83-1.41,1.92-2.5,1.5-.44-.17-.64-1.7-.48-2.52.25-1.36.36-3.09,2.12-3.43,1.27-.25,2.9-.66,3.21,1.48,0,.2.26.5.42.52a1,1,0,0,0,1.1-.95c.21-3.66,3.18-4.15,5.76-5.12.08.14.22.28.22.41C23.2,62,23,63.74,29.23,61.8c2.27-.71,3.34.06,4,2.17s.45,4.11.52,6.17a1.48,1.48,0,0,1-.88,1.53c-.82.36-1.7.58-2.55.86-.29-.88-.62-1.75-.85-2.65A5.44,5.44,0,0,0,27.94,68C27.46,67.84,27.1,67.8,26.75,68.22Z" style="fill:#f9e9ea"/><path d="M30.54,17.58c-1-1.29-.24-1.79.18-2.48,1.48-2.45,3.37-4.65,4.33-7.44.49-1.42.5-2.63-.79-3.28s-2.64,0-3.49,1.23c-1.82,2.67-2,5.72-2,8.8,0,.79.85,2.25-.87,2.22-1.4,0-1.1-1.35-1.2-2.31A15,15,0,0,1,29.74,3.65c1.29-1.79,3.12-2.92,5.12-2s1.89,3.19,1.49,5.07C35.47,10.85,32.37,13.74,30.54,17.58Z" style="fill:#f0e4f0"/><path d="M10.3,13.58c-2.46-2.1-5.76-3.54-6-7.52C4.22,3.48,5.81,2.47,8.18,3.42c1.89.75,5.42,6,5.39,8,0,.35,0,.77-.43.86a.9.9,0,0,1-1-.71A16.7,16.7,0,0,0,9.73,6.81c-.81-1.28-2.25-2.2-3.37-1.3S5.7,8,6.76,9.13c1.31,1.36,2.68,2.67,4,4Z" style="fill:#f0e4f0"/><path d="M30.17,13A11.15,11.15,0,0,1,32,6.26c.38-.51.86-1.3,1.75-.68.7.5.27,1,.11,1.65C33.25,9.56,31.46,11.1,30.17,13Z" style="fill:#c09dbe"/></g></g></svg>