<svg xmlns="http://www.w3.org/2000/svg" viewBox="0 0 63.88 69.02"><g id="Ebene_2" data-name="Ebene 2"><g id="Ebene_1-2" data-name="Ebene 1"><path d="M57.36,0c1.35,1.17,3.17,1,4.71,1.69S64.35,3.12,63.6,4.8C60.12,12.64,56.5,15.67,48.44,14a8.34,8.34,0,0,0-3.75-.08c-2.88.7-3,1.36-2.73,4.38A39.74,39.74,0,0,1,35.8,44.48a12.36,12.36,0,0,1-4.61,4.16c-2,1-2.31,2.55-2.18,4.49s.59,2.71,2.79,1.95C37,53.29,39,54.57,39.85,59.9a15.24,15.24,0,0,1,.07,2.44c0,4.89,0,5.11-4.83,6.07a30.61,30.61,0,0,1-18.79-2.1c-2.79-1.27-3.53-4.14-2.59-9,.56-2.87,2.08-3.92,5.23-3.64l2.54.62c-.48-1.2-1.4-.86-1.92-1.28-5.12-2.58-9.84-5.61-13.12-10.53A10.75,10.75,0,0,1,5.25,32a11.21,11.21,0,0,0,.47-6.27A15.33,15.33,0,0,1,7.11,15.5c1-1.72.51-2.77-1.4-3C1.39,12,1.11,8.35.15,5.36c-.5-1.55.27-2.57,2.2-2.69,3-.18,5.66.2,8.13,2.12a7.32,7.32,0,0,0,5.89,1.29,61.65,61.65,0,0,1,17-.1,11.22,11.22,0,0,0,7-1.56A33.58,33.58,0,0,1,50.42.74c.46-.09.91-.14.94-.74ZM7.86,4.78C7.27,4.22,6.68,3.66,5.72,4c.24.84,1.09.86,1.6,1.3.34.52.72,1,1,1.55,2.06,3.67,2.05,3.68,6.13,1C11.92,7.18,10,5.83,7.86,4.78ZM50.25,3.23,51,2.38a2.71,2.71,0,0,0-1-.24,15.65,15.65,0,0,0-7.52,2.8c-3.06,2.3-6.44,2.39-10,2.26-.64,0-1.35-.31-1.69,0A19.62,19.62,0,0,1,33.12,9.9a10.33,10.33,0,0,0,3.13,3.95c1,.66,1.48.74,2-.7C40.37,7.61,45,5,50.28,3.2,49.69,4.83,48,5,46.79,5.8c-2.64,1.79-5.18,3.6-6.87,6.41a2.47,2.47,0,0,0,.51,3.46c2-3.36,5.3-3.71,8.36-3,6.13,1.41,9.9-1.24,12.68-6.21.55-1,1.72-2,1.06-3.15s-2.14-1-3.42-1.14C56.06,1.88,53.17,2.66,50.25,3.23ZM40.48,23.49c0-.54,0-1.09,0-1.63.22-3.22-.74-5.57-4.16-6.64a6.66,6.66,0,0,1-3.78-3.68,7.83,7.83,0,0,0-4.17-3.69c-2.87-1.28-5.85-.82-8.8-.19-8.19,1.74-13.9,10.1-12.2,18.1a10.45,10.45,0,0,1-.47,6.58,9.06,9.06,0,0,0,.84,9c3.07,4.92,7.76,7.69,12.66,10.26a2.07,2.07,0,0,0,1.83,0c4.48-1.82,8.8-4,11.85-7.81C38.76,37.84,39.72,30.67,40.48,23.49ZM15.57,61.37A4,4,0,0,0,17.75,60c.28-.34.56-1.16,1.21-.51s-.08,1-.36,1.38a6.5,6.5,0,0,1-2.3,1.85c-.46.26-1.24.56-.56,1.42a4.15,4.15,0,0,0,6.52-.25c.5-.7.53-1.88,1.74-2.13.05.38.06.65.11.92.26,1.5-2.54,2.48-1,3.9,1.16,1.09,3.16.23,4.74.61a2.84,2.84,0,0,0,.82.06c1.56-.11,3.68.51,4.51-.78s-1.12-2.4-1.77-3.64a1.35,1.35,0,0,1-.06-.5c2.24-.11,2.18.1,2.84,2,.21.61-.7,2.55,1.28,2.16,1.38-.27,2.92-.49,2.85-2.53s.1-4-.54-5.91-1.62-2.77-3.8-2.17c-5.81,1.58-5.86,1.48-6.07-4.44,0-.12-.18-.24-.27-.36-2.41,1-5.45,1.35-5.63,4.94a1.57,1.57,0,0,1-.53.9c-.5.46-1.14.45-1-.34.22-1.74-1.11-1.39-1.95-1.53a2.46,2.46,0,0,0-2.87,1.52A5.75,5.75,0,0,0,15.57,61.37ZM9.3,11.4c-.12-2.58-4.17-6.84-6.55-7-1-.07-1.65,0-1.37,1.46.76,4,4.07,5,7.07,6.39C9.1,12.53,9.28,11.82,9.3,11.4Z" style="fill:#5b475a"/><path d="M40.48,23.49c-.76,7.18-1.72,14.35-6.39,20.24-3.05,3.84-7.37,6-11.85,7.81a2.07,2.07,0,0,1-1.83,0C15.51,49,10.82,46.22,7.75,41.3a9.06,9.06,0,0,1-.84-9,10.45,10.45,0,0,0,.47-6.58c-1.7-8,4-16.36,12.2-18.1,3-.63,5.93-1.09,8.8.19a7.83,7.83,0,0,1,4.17,3.69,6.66,6.66,0,0,0,3.78,3.68c3.42,1.07,4.38,3.42,4.16,6.64C40.45,22.4,40.48,23,40.48,23.49Z" style="fill:#f9e9ea"/><path d="M15.57,61.37a5.75,5.75,0,0,1,0-4.77,2.46,2.46,0,0,1,2.87-1.52c.84.14,2.17-.21,1.95,1.53-.1.79.54.8,1,.34a1.57,1.57,0,0,0,.53-.9c.18-3.59,3.22-3.89,5.63-4.94.09.12.26.24.27.36.21,5.92.26,6,6.07,4.44,2.18-.6,3.17.25,3.8,2.17s.47,3.93.54,5.91-1.47,2.26-2.85,2.53c-2,.39-1.07-1.55-1.28-2.16-.66-1.91-.6-2.12-2.84-2a1.35,1.35,0,0,0,.06.5c.65,1.24,2.54,2.44,1.77,3.64s-2.95.67-4.51.78a2.84,2.84,0,0,1-.82-.06c-1.58-.38-3.58.48-4.74-.61-1.5-1.42,1.3-2.4,1-3.9-.05-.27-.06-.54-.11-.92-1.21.25-1.24,1.43-1.74,2.13a4.15,4.15,0,0,1-6.52.25c-.68-.86.1-1.16.56-1.42a6.5,6.5,0,0,0,2.3-1.85c.28-.41.9-.83.36-1.38s-.93.17-1.21.51A4,4,0,0,1,15.57,61.37Z" style="fill:#f9e9ea"/><path d="M50.25,3.23c2.92-.57,5.81-1.35,8.86-1.07,1.28.12,2.75,0,3.42,1.14S62,5.48,61.47,6.45c-2.78,5-6.55,7.62-12.68,6.21-3.06-.7-6.4-.35-8.36,3a2.47,2.47,0,0,1-.51-3.46c1.69-2.81,4.23-4.62,6.87-6.41,1.19-.8,2.9-1,3.49-2.6Z" style="fill:#c09dbe"/><path d="M50.28,3.2c-5.28,1.78-9.91,4.41-12,10-.55,1.44-1,1.36-2,.7A10.33,10.33,0,0,1,33.12,9.9a19.62,19.62,0,0,0-2.29-2.73c.34-.28,1.05,0,1.69,0,3.53.13,6.91,0,10-2.26A15.65,15.65,0,0,1,50,2.14a2.71,2.71,0,0,1,1,.24c-.25.28-.49.57-.73.85Z" style="fill:#f0e4f0"/><path d="M9.3,11.4c0,.42-.2,1.13-.85.83-3-1.38-6.31-2.4-7.07-6.39-.28-1.48.34-1.53,1.37-1.46C5.13,4.56,9.18,8.82,9.3,11.4Z" style="fill:#c09dbe"/><path d="M7.86,4.78c2.11,1,4.06,2.4,6.62,3-4.08,2.67-4.07,2.66-6.13-1-.31-.54-.69-1-1-1.55Z" style="fill:#f0e4f0"/><path d="M7.32,5.25C6.81,4.81,6,4.79,5.72,4c1-.29,1.55.27,2.14.83Z" style="fill:#f0e4f0"/><path d="M19.56,53.05c.52.42,1.44.08,1.92,1.28l-2.54-.62Z" style="fill:#fffeff"/></g></g></svg>