<svg xmlns="http://www.w3.org/2000/svg" viewBox="0 0 64.29 104.72"><g id="Ebene_2" data-name="Ebene 2"><g id="Ebene_1-2" data-name="Ebene 1"><path d="M44.36,46a47.49,47.49,0,0,1,12,9.94c13,15.38,9.67,35.18-7.73,45.38a7.85,7.85,0,0,0-1,.51c-5.86,4.47-11.23,3.44-16.48-1.21-2.51-2.22-5.21-4.22-7.06-7.07a2.67,2.67,0,0,0-1.46-1.06c-6.61-2.59-7.8-7.19-7.71-12.92a2.34,2.34,0,0,0-1.75-2.69c-6.15-2.64-9.48-9.8-8.57-16.47S8.86,48.64,13.36,44c4.26-4.37,7.19-9.45,7.77-15.59A9.28,9.28,0,0,0,17.65,20c-1.48-1.21-2.78-.29-3.76.75-1.28,1.35-1.73,3.32-2.63,4.79-1.37,2.24-1.42,4.84-2.94,7-.85-.65-1.7-1.4-2.65-2-3.49-2.21-2.58-2.67-4.9-7.1-1.48-2.83.81-5-.68-7.24-.37-.55.51-1.09.69-1.66.43-1.32,2.42-2,1.52-3.91-.25-.53.75-.88,1.23-1.27,1.26-1,3.22-1,3.44-3.59.08-1,2.79-2.87,5.19-2.68,1.05.08,2.47.7,2.67-1.53.09-1.13,1.5-.66,2.36-.08s1.47,1.62,2-.49c.3-1.27,1.89-.62,3-.13.54.25,1.49,1.48,1.77-.42.12-.86.93-.18,1.31,0,.83.36,1.6,1,2.31-.17C27.63.17,27.83.1,28,0c1.77,2.56,5.2.16,7.11,2.39.65.75,1.21,2,2.56.84a.77.77,0,0,1,.74,0,33.48,33.48,0,0,0,5.24,5.27c1.1,1,.6,3.32,3.39,3.18,1-.05.89,2.63,1,4.16,0,.88-1,2.4,1.51,2.18,1.24-.11.64,2,.53,3-.14,1.33-1.14,2.71,1,3.36.14,0,.28.56.19.74-1.34,2.65-.69,5.58-1,8.34-.34,3.06-2.84,5.25-3.06,7.68S45.09,44.29,44.36,46ZM7.16,29.51c2.07-1,.88-3.58,2.27-4.58,1.65-1.18,1.63-3.32,3.26-4.4.55-.36,1-1,1.63-1.34,3.33-1.71,5.94-.54,7.53,3.56C24.78,30.26,21.34,36.38,17,42S7.44,52.63,6.15,60.23c-1.11,6.5,3,14.19,9.26,15.87C19.9,77.32,24.16,76,28.12,74c5-2.51,6-6.85,2.61-11.29-1.37-1.79-.14-3.23.13-4.78.05-.29,1.3-.5,1.62-1.37,1.36-3.68,4-6.2,7.18-8.4,2-1.38,4.82-3,5.16-4.88.45-2.47,2.74-3.92,2.48-6.83-.17-2,1.72-3.93,1.54-6.71-.13-2,.5-4.42-.21-6.56C48.25,22,50,19.78,47.14,19.6c-.13,0-.23-1-.29-1.51-.14-1.26-.21-2.53-.38-3.79,0-.37,0-1.24-.52-1-2.75,1.44-2.2-1.31-2.61-2.23-1.11-2.47-3.82-3.41-5-5.7-2.94.93-4.06-4.52-7.44-2.14-.09.07-.46-.22-.68-.38-.77-.58-1.89-.37-2.48-.65-1.92-.89-3.56,2-5.45.07-.77-.78-2.07-1.09-2.47.73a.93.93,0,0,1-1.49.62C17,2.77,16.36,3,14.84,3.92c-2.12,1.33-4.63,1.5-6.75,3.77-2.8,3-5.66,5.53-6.39,9.88-.47,2.77.58,5.16,1,7.69S5.88,28,7.16,29.51ZM35.32,93.86a28.78,28.78,0,0,0,3.55,8.7c.64,1.09,1.24,1.52,2.58.8a52.08,52.08,0,0,0,10-6.47c6.24-5.48,10.56-12,10.61-20.59.09-13.49-7.87-22-18.26-28.93a1.14,1.14,0,0,0-1.63.06c-4,3.37-8,6.62-9.54,12-.39,1.34-.68,2.2.41,3.3,1.83,1.86,2.15,3.82.91,6.44-2.13,4.51-3.78,9.3-2.53,14.43,1.33,5.48,3.76,10,10.17,10.84.69.09,1.7,0,2.12.93,0,0,.13,0,.2,0l-.23,0C41,95.79,38.35,95.16,35.32,93.86ZM30.16,74.78c-4,2-7.68,3.19-11.6,3.13-1.34,0-1.61.58-1.7,1.78-.63,8.7,6.63,14,15.7,11.33C29.21,86.2,28.61,80.9,30.16,74.78Zm7.62,28.57c-.78-1.81-1.47-3.34-2.11-4.9a20.77,20.77,0,0,1-1.42-5.2c-.09-.68-.67-.75-1.26-.69l-7.73.77C27.85,96.89,32.42,100.56,37.78,103.35Z" style="fill:#5f4c5e"/><path d="M7.16,29.51c-1.28-1.5-4-1.8-4.44-4.25s-1.49-4.92-1-7.69c.73-4.35,3.59-6.87,6.39-9.88,2.12-2.27,4.63-2.44,6.75-3.77C16.36,3,17,2.77,18.3,3.63A.93.93,0,0,0,19.79,3c.4-1.82,1.7-1.51,2.47-.73,1.89,1.92,3.53-1,5.45-.07.59.28,1.71.07,2.48.65.22.16.59.45.68.38,3.38-2.38,4.5,3.07,7.44,2.14,1.21,2.29,3.92,3.23,5,5.7.41.92-.14,3.67,2.61,2.23.48-.25.48.62.52,1,.17,1.26.24,2.53.38,3.79.06.53.16,1.5.29,1.51,2.86.18,1.11,2.38,1.49,3.55.71,2.14.08,4.53.21,6.56.18,2.78-1.71,4.76-1.54,6.71.26,2.91-2,4.36-2.48,6.83-.34,1.89-3.18,3.5-5.16,4.88-3.15,2.2-5.82,4.72-7.18,8.4-.32.87-1.57,1.08-1.62,1.37-.27,1.55-1.5,3-.13,4.78,3.37,4.44,2.41,8.78-2.61,11.29-4,2-8.22,3.35-12.71,2.13C9.17,74.42,5,66.73,6.15,60.23,7.44,52.63,12.62,47.62,17,42s7.76-11.69,4.83-19.2c-1.59-4.1-4.2-5.27-7.53-3.56-.64.32-1.08,1-1.63,1.34-1.63,1.08-1.61,3.22-3.26,4.4C8,25.93,9.23,28.51,7.16,29.51Zm32.24.71c2.5-2.31,2.55-4,.55-4.43-2.18-.5-1.94-1.75-1.59-3.13A11.49,11.49,0,0,0,38.71,20c0-1.46-.48-2.3-1.81-1.05-1.1,1-1.43.42-1.93-.47A5.35,5.35,0,0,0,33.85,17c-.49-.41-.93-1.33-1.71-.91-1.25.68,0,1.58,0,2.37.06.64.09,1.89,1.33,1,.86-.61.8.17,1,.52.83,1.34,1.77,1.78,2.89.19a6.1,6.1,0,0,1-.29,3.11c-.23,1.25-.07,3.11,1.06,3.2C40.69,26.68,40.35,27.89,39.4,30.22ZM16.19,11.81c-1.15-.91-2.45-2.93-3.58-1.38s-2.17,1.44-3.51,1.46c-.71,0-1.59.32-1.46.88C8.1,14.69,6.36,15.85,6,18c2.18-1.34,3.47-2.56,2.15-5.37C11.41,14.45,13.19,9.8,16.19,11.81ZM35.57,33.49c1.45-1,3.12-1.66,4.14-3.93A6.92,6.92,0,0,0,35.57,33.49Z" style="fill:#f5e8f3"/><path d="M35.32,93.86c3,1.3,5.69,1.93,8.35,1.56l.23,0c-.07,0-.19,0-.2,0-.42-.94-1.43-.84-2.12-.93-6.41-.82-8.84-5.36-10.17-10.84-1.25-5.13.4-9.92,2.53-14.43,1.24-2.62.92-4.58-.91-6.44-1.09-1.1-.8-2-.41-3.3,1.53-5.37,5.56-8.62,9.54-12a1.14,1.14,0,0,1,1.63-.06C54.18,54.29,62.14,62.81,62.05,76.3c0,8.58-4.37,15.11-10.61,20.59a52.08,52.08,0,0,1-10,6.47c-1.34.72-1.94.29-2.58-.8A28.78,28.78,0,0,1,35.32,93.86Z" style="fill:#f8e8e9"/><path d="M30.16,74.78C28.61,80.9,29.21,86.2,32.56,91c-9.07,2.7-16.33-2.63-15.7-11.33.09-1.2.36-1.8,1.7-1.78C22.48,78,26.13,76.82,30.16,74.78Z" style="fill:#f5e4e6"/><path d="M37.78,103.35c-5.36-2.79-9.93-6.46-12.52-10L33,92.56c.59-.06,1.17,0,1.26.69a20.77,20.77,0,0,0,1.42,5.2C36.31,100,37,101.54,37.78,103.35Z" style="fill:#f5e4e6"/><path d="M39.4,30.22c1-2.33,1.29-3.54-1.2-3.75-1.13-.09-1.29-1.95-1.06-3.2a6.1,6.1,0,0,0,.29-3.11c-1.12,1.59-2.06,1.15-2.89-.19-.23-.35-.17-1.13-1-.52-1.24.88-1.27-.37-1.33-1-.07-.79-1.29-1.69,0-2.37.78-.42,1.22.5,1.71.91A5.35,5.35,0,0,1,35,18.48c.5.89.83,1.49,1.93.47,1.33-1.25,1.83-.41,1.81,1.05a11.49,11.49,0,0,1-.35,2.66C38,24,37.77,25.29,40,25.79,42,26.26,41.9,27.91,39.4,30.22Z" style="fill:#5f4c5e"/><path d="M16.19,11.81c-3-2-4.78,2.64-8,.8,1.32,2.81,0,4-2.15,5.37.37-2.13,2.11-3.29,1.65-5.21-.13-.56.75-.87,1.46-.88,1.34,0,2.4.07,3.51-1.46S15,10.9,16.19,11.81Z" style="fill:#5f4c5e"/><path d="M35.57,33.49a6.92,6.92,0,0,1,4.14-3.93C38.69,31.83,37,32.54,35.57,33.49Z" style="fill:#5f4c5e"/></g></g></svg>