<svg xmlns="http://www.w3.org/2000/svg" viewBox="0 0 42.71 76.1"><g id="Ebene_2" data-name="Ebene 2"><g id="Ebene_1-2" data-name="Ebene 1"><path d="M0,65.26c2.07-4.85,6.39-5.16,10.78-5.39,4-.21,5.92-1.67,6-4.43a2.63,2.63,0,0,0-1.54-2.86C6,48.13,1.79,40.27,1.24,30.41A64.69,64.69,0,0,1,2,15.83C3.47,7.43,9,2.59,17.14.63a20.43,20.43,0,0,1,22.73,9.3A13.84,13.84,0,0,1,42,17.67c-.25,5.88.14,11.77-.32,17.66-.62,7.93-5.38,13-11.14,17.48a9.32,9.32,0,0,1-1.63,1c-1.53.77-1.17,2.15-1,3.34s1.32,1,2.22,1h4.08c5.75,0,7.81,1.91,8.32,7.62,0,.45,0,.91,0,1.36.36,4.61.24,5-4.28,6.25a69.31,69.31,0,0,1-25.24,2.42c-4.21-.44-8.45-.52-12.48-2-.38-2.66.63-5.41-.59-8ZM40.6,26.34h.1c0-2.54-.15-5.09,0-7.62A13.7,13.7,0,0,0,38.39,10,18.78,18.78,0,0,0,24.54,1.42C14.89.07,4.68,6.77,3.21,15.46c-1,5.75-.69,11.57-.43,17.36a20.67,20.67,0,0,0,2.79,9c3.71,6.8,10,9.89,16.81,12.48a4.87,4.87,0,0,0,4.38-.68C35.38,48.51,41.46,41.86,40.62,31,40.5,29.43,40.6,27.88,40.6,26.34ZM26.54,55.23c-2.21,1.21-4.22.72-6.09-.31-1.71-1-2.78-1.28-2.72,1.37A3.8,3.8,0,0,1,15.35,60a15.92,15.92,0,0,1-6,1.49c-6.57.2-8,1.66-7.77,8.15,0,.72.09,1.45.06,2.17,0,.92.14,1.6,1.25,1.67.91.06,1.89.8,2.5-.64S7,72.22,7,73c-.06,1.24.59,1,1.27,1.11,3.77.73,7.59.4,11.38.4.67,0,2.55,1,1.93-1.35-.08-.31,1.25-.64,1.33.12.2,1.87,1.5,1.27,2.42,1.2,2-.15,3.94-.67,5.91-.71,3-.07,4.9-1.26,4.92-4.57,1.27.83.63,2.18,1.28,3,4.46-1.28,4.66-1.59,4-6-.1-.63-.3-1.24-.36-1.86-.27-2.86-1.44-4.66-4.62-5A37.67,37.67,0,0,0,31,59.26C27.39,59.37,27,59.12,26.54,55.23Z" style="fill:#6b5868"/><path d="M0,65.8c1.22,2.6.21,5.35.59,8L0,74Z" style="fill:#785a77"/><path d="M40.6,26.34c0,1.54-.1,3.09,0,4.62.84,10.9-5.24,17.55-13.86,22.63a4.87,4.87,0,0,1-4.38.68c-6.77-2.59-13.1-5.68-16.81-12.48a20.67,20.67,0,0,1-2.79-9c-.26-5.79-.55-11.61.43-17.36C4.68,6.77,14.89.07,24.54,1.42A18.78,18.78,0,0,1,38.39,10a13.7,13.7,0,0,1,2.35,8.73c-.19,2.53,0,5.08,0,7.62ZM20,19c-.34-.44-.77-.93-1.25-.35-.17.21.37.73.84.87.25,2.45-1.88-.53-2.1,1.22,2.37.91,3.6,4.57,7.07,3.24,2.65-1,5.29-2.36,4.67-6.16-1.09.09-1.45,1.4-2.53,1.05-1.36-.44.82-1.66-.56-2.13-2,2.68-2-.15-2.88-2-.16,2.48-.61,3.76-2.31,2C20.45,17.63,22.47,19.25,20,19Z" style="fill:#f8e8e9"/><path d="M26.54,55.23c.44,3.89.85,4.14,4.44,4a37.67,37.67,0,0,1,5.41.13c3.18.35,4.35,2.15,4.62,5,.06.62.26,1.23.36,1.86.68,4.4.48,4.71-4,6-.65-.86,0-2.21-1.28-3,0,3.31-1.88,4.5-4.92,4.57-2,0-3.93.56-5.91.71-.92.07-2.22.67-2.42-1.2-.08-.76-1.41-.43-1.33-.12.62,2.34-1.26,1.35-1.93,1.35-3.79,0-7.61.33-11.38-.4C7.54,74,6.89,74.25,7,73c0-.79-.89-1.78-1.55-.22s-1.59.7-2.5.64c-1.11-.07-1.28-.75-1.25-1.67,0-.72,0-1.45-.06-2.17-.2-6.49,1.2-8,7.77-8.15a15.92,15.92,0,0,0,6-1.49,3.8,3.8,0,0,0,2.38-3.66c-.06-2.65,1-2.32,2.72-1.37C22.32,56,24.33,56.44,26.54,55.23Z" style="fill:#f8e8e9"/><path d="M20,19c2.49.24.47-1.38.95-2.23,1.7,1.75,2.15.47,2.31-2,.89,1.83.88,4.66,2.88,2,1.38.47-.8,1.69.56,2.13,1.08.35,1.44-1,2.53-1.05.62,3.8-2,5.15-4.67,6.16-3.47,1.33-4.7-2.33-7.07-3.24.22-1.75,2.35,1.23,2.1-1.22Z" style="fill:#5b4759"/><path d="M19.57,19.53c-.47-.14-1-.66-.84-.87.48-.58.91-.09,1.25.35Z" style="fill:#5b4759"/></g></g></svg>