<svg xmlns="http://www.w3.org/2000/svg" viewBox="0 0 42.63 75.98"><g id="Ebene_2" data-name="Ebene 2"><g id="Ebene_1-2" data-name="Ebene 1"><path d="M41.92,25.39a49.78,49.78,0,0,1-.64,12.53c-1.41,6.39-5.63,11-10.83,14.78-.66.48-1.42.82-2.06,1.32-1.07.81-.68,2-.53,3s1.12,1,2,1c1.46,0,2.91,0,4.36,0,5.73,0,7.8,1.93,8.29,7.66,0,.45,0,.91,0,1.36.37,4.56.24,5-4.31,6.22A70.93,70.93,0,0,1,12.94,75.7c-3.51-.35-7-.81-10.49-1.27C.82,74.21-.27,73.51.06,71.6a5.67,5.67,0,0,0,0-1.09c-.26-9.11,2-10.07,10.3-10.74,2.15-.18,4.41-.19,5.75-2.36,1.25-2,.89-4-1.15-5C5.74,47.79,1.51,39.91,1.19,30.06A62,62,0,0,1,2,14.93C3.72,7.06,10.83,1,18.9.17c8.67-.91,15.68,1.76,20.57,9.19a14.19,14.19,0,0,1,2.47,8.47C41.86,20.09,41.92,22.36,41.92,25.39ZM40.51,26h.1c0-2.45-.16-4.91,0-7.34a13.85,13.85,0,0,0-2.44-9A18.78,18.78,0,0,0,24.55,1.31C15-.07,4.94,6.31,3.23,15c-1.18,6-.82,12.1-.47,18.15a20.38,20.38,0,0,0,2.82,8.68c3.75,6.78,10.11,9.82,16.89,12.37a4.63,4.63,0,0,0,4.12-.67c8.75-5.11,14.84-11.85,13.94-22.85C40.41,29.13,40.51,27.58,40.51,26ZM35.94,69.13c1.55.69.34,2.58,1.7,3s3.78-1.65,3.72-3.25a34.42,34.42,0,0,0-.44-4.3c-.68-4.27-1.2-4.82-5.42-5.4a24,24,0,0,0-4.07,0c-4.2.12-4.2.13-5.12-3.81-2.89.79-3.32.85-5.95-.51-1.78-.93-2.77-1.2-2.71,1.4a3.81,3.81,0,0,1-2.4,3.65,16.1,16.1,0,0,1-6,1.48C2.72,61.51,1.31,63,1.5,69.49c0,.72.1,1.45.07,2.17,0,.94.17,1.57,1.26,1.66.85.07,2,.77,2.35-.43.74-2.3,1.73-.26,1.69,0-.22,1.29.62,1,1.28,1.1,3.77.74,7.59.4,11.38.4.7,0,2.54.94,1.91-1.37-.08-.26,1.27-.62,1.35.16.19,1.88,1.51,1.25,2.42,1.18,2.16-.16,4.3-.65,6.46-.76C34.51,73.46,36,72.13,35.94,69.13Z" style="fill:#6b5868"/><path d="M40.51,26c0,1.54-.1,3.09,0,4.63.9,11-5.19,17.74-13.94,22.85a4.63,4.63,0,0,1-4.12.67C15.69,51.64,9.33,48.6,5.58,41.82a20.38,20.38,0,0,1-2.82-8.68C2.41,27.09,2.05,21,3.23,15,4.94,6.31,15-.07,24.55,1.31A18.78,18.78,0,0,1,38.21,9.73a13.85,13.85,0,0,1,2.44,9c-.2,2.43,0,4.89,0,7.34ZM26.65,13.34l0,0c-.2-1.74-1.55-2-2.9-2.2-2-.21-3.61.51-4.29,2.51-.83,2.44-1.24,4.88,1.16,6.81l0,0c1.79,2,3.77,1.47,5.48.11C28.17,18.91,28.28,15.7,26.65,13.34Zm-9.4,5.5c-.23-1.49-1.11-2.52-2.44-2.51-1.48,0-2.35,1-2.37,2.67a2.21,2.21,0,0,0,2.28,2.43C16.25,21.46,16.9,20.12,17.25,18.84Zm16.91-.08c-.38-1.05-.64-2.22-2.21-2.22s-2.51.81-2.51,2.22A2.14,2.14,0,0,0,31.62,21C33.33,21.14,33.77,20.08,34.16,18.76Z" style="fill:#f8e8e9"/><path d="M35.94,69.13c0,3-1.43,4.33-4.27,4.48-2.16.11-4.3.6-6.46.76-.91.07-2.23.7-2.42-1.18-.08-.78-1.43-.42-1.35-.16.63,2.31-1.21,1.37-1.91,1.37-3.79,0-7.61.34-11.38-.4-.66-.13-1.5.19-1.28-1.1,0-.27-1-2.31-1.69,0-.38,1.2-1.5.5-2.35.43-1.09-.09-1.3-.72-1.26-1.66,0-.72-.05-1.45-.07-2.17-.19-6.5,1.22-8,7.76-8.17a16.1,16.1,0,0,0,6-1.48,3.81,3.81,0,0,0,2.4-3.65c-.06-2.6.93-2.33,2.71-1.4,2.63,1.36,3.06,1.3,5.95.51.92,3.94.92,3.93,5.12,3.81a24,24,0,0,1,4.07,0c4.22.58,4.74,1.13,5.42,5.4a34.42,34.42,0,0,1,.44,4.3c.06,1.6-2.24,3.66-3.72,3.25S37.49,69.82,35.94,69.13Z" style="fill:#f8e8e9"/><path d="M20.65,20.49c-2.4-1.93-2-4.37-1.16-6.81.68-2,2.3-2.72,4.29-2.51,1.35.15,2.7.46,2.9,2.2-.31.42-.57.16-.85,0-2.79-2.08-3.68-1.89-5.61,1.33,1.71-.47,3.28-1.31,5-.3,1,.59.85-.82,1.45-1,1.63,2.36,1.52,5.57-.56,7.22-1.71,1.36-3.69,1.91-5.48-.11C22.5,20.18,25,21.76,26,18.72c-1.21-.18-2.31.62-3.48.2C21,18.39,20.74,19.31,20.65,20.49Z" style="fill:#5b4759"/><path d="M17.25,18.84c-.35,1.28-1,2.62-2.53,2.59A2.21,2.21,0,0,1,12.44,19c0-1.63.89-2.66,2.37-2.67S17,17.35,17.25,18.84Zm-1.17-.05c-.3-.68-.64-1.4-1.46-1.3s-.95.68-.91,1.39.28,1.3,1,1.31S15.79,19.43,16.08,18.79Z" style="fill:#5b4759"/><path d="M34.16,18.76c-.39,1.32-.83,2.38-2.54,2.26a2.14,2.14,0,0,1-2.18-2.26c0-1.41,1-2.23,2.51-2.22S33.78,17.71,34.16,18.76Zm-2.22,1c.54-.15,1.12-.45.95-1.05a1.13,1.13,0,0,0-1.38-.94c-.43.12-.89.36-.85.9A1.12,1.12,0,0,0,31.94,19.73Z" style="fill:#5b4759"/><path d="M26.65,13.34c-.6.19-.46,1.6-1.45,1-1.7-1-3.27-.17-5,.3,1.93-3.22,2.82-3.41,5.61-1.33.28.21.54.47.85,0Z" style="fill:#f8e8e9"/><path d="M20.65,20.49c.09-1.18.39-2.1,1.89-1.57,1.17.42,2.27-.38,3.48-.2-1,3-3.52,1.46-5.41,1.73Z" style="fill:#f8e8e9"/><path d="M16.08,18.79c-.29.64-.53,1.41-1.37,1.4s-1-.61-1-1.31.23-1.31.91-1.39S15.78,18.11,16.08,18.79Z" style="fill:#f8e8e9"/><path d="M31.94,19.73a1.12,1.12,0,0,1-1.28-1.09c0-.54.42-.78.85-.9a1.13,1.13,0,0,1,1.38.94C33.06,19.28,32.48,19.58,31.94,19.73Z" style="fill:#f8e8e9"/></g></g></svg>