<svg xmlns="http://www.w3.org/2000/svg" viewBox="0 0 62.22 49.28"><g id="Ebene_2" data-name="Ebene 2"><g id="Ebene_1-2" data-name="Ebene 1"><path d="M32.25,49.24c-2.54,0-5.09-.07-7.63,0-1.33.06-1.59-.42-1.68-1.69a53.4,53.4,0,0,0-1.56-11.18c-.47-1.64-.46-1.83-1-1.59-1,.48-2.87,0-2.8,1.93.13,3.17-.82,6.32-.19,9.5.42,2.15-.4,2.42-2.17,1.57-2.28-1.09-4.37-2.23-3.81-5.36a22.25,22.25,0,0,0,0-2.71c.17-3.13.56-6.07-3.48-7.6a6.53,6.53,0,0,1-4.07-6,1.41,1.41,0,0,0-.63-1.07C.2,22.38-.79,19,.65,15.15c1.78-4.77,5.26-7.26,9.65-7.38,2.72-.07,5.34.76,8.08.61,4-.21,6.59-1.82,7.87-5.71.51-1.56,1.33-2.21,2.94-2,.62.09,1.27,0,1.91,0,1.72.1,3.62-1.31,5-.36,1.2.82.7,3,1.35,4.4,1.27,2.73,4,1.85,6.19,2.15,4,.52,8.1.5,11.88,1.64,7,2.13,9,11.55,3.73,16.51-.25.23-.72.44-.74.69C58.2,29.9,55.43,32,52,33.51c-.89.4-.6,1.27-.58,1.92a61.73,61.73,0,0,0,.47,6.23c.33,2.22-.23,3.71-2.36,4.81-4.69,2.45-4.64,2.54-4.69-2.92,0-2.09,0-4.18-.13-6.26-.08-.92-.26-2.1-1.61-2.18-1.64-.1-.88,1.28-1.09,2-1,3.34-.72,6.78-.46,10.19.11,1.54-.31,2.08-1.91,2C37.17,49.14,34.71,49.24,32.25,49.24ZM46.44,46.5c1.68-.77,4.27-.87,4.07-3.38a66,66,0,0,1-.21-7.3c0-1.62-.56-1.88-2-1.9s-2.69.58-2.56,1.89c.36,3.58,0,7.21.75,10.74l-.34.09s.12.07.14,0A1.46,1.46,0,0,0,46.44,46.5Zm-28.92-37c1.08.92,1.86,1.5,2.55,2.18,2.17,2.16,3.64,4.84,5.39,7.27,1.62,2.25,1.78,3.95.71,5.71-1.7,2.78-1.37,6.39-3.85,8.79-.19.18,0,.83.13,1.25A74.48,74.48,0,0,1,24.09,47c.05,1.27.85,1.16,1.67,1.16,4.18,0,8.36,0,12.54,0,1.3,0,1.72-.36,1.66-1.69a47.9,47.9,0,0,1,.37-8.11c.19-1.43,1.51-3.17.25-4.4-3.83-3.71-2.88-9.1-5-13.39-.17-.36-.31-1.14.53-1.25s.2,1.08.67,1.09c1.25-5.79,5.35-9,9.93-11.81C45.45,8,45.45,8,44.38,8.18c-4.79.79-7-.62-8.55-5.27-.23-.7-.19-2.07-1.64-1.48s-3.24.28-4.85.38c-.8,0-1.65-.15-1.94,1C26.17,7.69,22.73,9.54,17.52,9.51Zm35.9,9.7c-1.47-.16-2.85-.14-3.57,1.32-.48,1,.24,1.85.79,2.45,2.07,2.25,7.37,3.39,9.4-.65a8.56,8.56,0,0,0-1-9.79c-2.43-3.08-6.65-4.77-10.11-3.4-10.41,4.1-13.36,11.45-9,21.85,1.25,3,3.47,3.65,5.84,2.34a19.16,19.16,0,0,1-2.14-2,4.72,4.72,0,0,1-1-5c.92-2.18,2.78-2.74,4.86-2.32s2.25,2.26,2.24,4c0,1.3-1,1.66-1.92,2s-1.7-.1-1.9-1.29c.86-.42,2.06,1,2.56-.47a2.66,2.66,0,0,0-.32-2.59c-.77-1-1.8-.69-2.74-.44-1.94.51-2.61,2.88-1.41,4.85a6.94,6.94,0,0,0,6.67,2.7c2.68-.58,6.43-3.88,6.64-5.84.09-.83-.18-.81-1-.84-2.91-.1-5.68-.66-7.19-3.74a2.42,2.42,0,0,1,.54-3.34C50.84,18,52.07,17.65,53.42,19.21Zm-37.2,14.4a4.41,4.41,0,0,0,5-.88,8.46,8.46,0,0,0,2.53-5.5c.39-3.89,1.49-8-1.36-11.45a28.57,28.57,0,0,0-4-4.06C12.58,7,4.47,7.74,1.59,15.86c-.85,2.38,0,6.55,1.83,8,2.16,1.7,4.48,1.36,6.82.26,1.45-.69,2.51-1.85,2.28-3.33-.26-1.7-1.89-1.61-3.29-1.48-.07,0-.15-.25-.29-.48,1.34-1.19,2.55-.81,3.79.21s1.18,2.29.44,3.6c-1.56,2.79-4.24,3.58-7.09,3.48-1.34-.05-1.15.42-1,1.11,1,4.18,7.59,6.92,11.27,4.74,2.08-1.23,3.1-3.75,2.2-5.47-.76-1.46-2.16-1.59-3.5-1.34s-1.42,1.49-1.33,2.61c.17,2,1.73.7,2.77,1-.32,1.18-1,1.69-2,1.32s-1.91-.69-1.92-2c0-1.79.07-3.61,2.24-4s4,.14,4.86,2.32C20.7,28.73,19.68,31,16.22,33.61Zm-.23,13c-.46-3.56.41-6.83.46-10.16,0-1.55-.46-2.43-2.26-2.5-2-.08-1.52,1.25-1.54,2.31,0,2,.15,4-.05,5.94C12.37,44.54,13.29,45.89,16,46.58Z" style="fill:#5b4759"/><path d="M17.52,9.51c5.21,0,8.65-1.82,9.88-6.71.29-1.14,1.14-.95,1.94-1,1.61-.1,3.26.26,4.85-.38s1.41.78,1.64,1.48C37.36,7.56,39.59,9,44.38,8.18c1.07-.18,1.07-.18,2.34.41-4.58,2.8-8.68,6-9.93,11.81-.47,0,.15-1.2-.67-1.09s-.7.89-.53,1.25c2.11,4.29,1.16,9.68,5,13.39,1.26,1.23-.06,3-.25,4.4A47.9,47.9,0,0,0,40,46.46c.06,1.33-.36,1.72-1.66,1.69-4.18-.06-8.36,0-12.54,0-.82,0-1.62.11-1.67-1.16a74.48,74.48,0,0,0-1.64-12.26c-.09-.42-.32-1.07-.13-1.25,2.48-2.4,2.15-6,3.85-8.79,1.07-1.76.91-3.46-.71-5.71-1.75-2.43-3.22-5.11-5.39-7.27C19.38,11,18.6,10.43,17.52,9.51Z" style="fill:#f8e8e9"/><path d="M53.42,19.21c-1.35-1.56-2.58-1.22-3.79-.16a2.42,2.42,0,0,0-.54,3.34c1.51,3.08,4.28,3.64,7.19,3.74.86,0,1.13,0,1,.84-.21,2-4,5.26-6.64,5.84A6.94,6.94,0,0,1,44,30.11c-1.2-2-.53-4.34,1.41-4.85.94-.25,2-.57,2.74.44a2.66,2.66,0,0,1,.32,2.59c-.5,1.43-1.7.05-2.56.47.2,1.19.9,1.65,1.9,1.29s1.91-.68,1.92-2c0-1.78-.07-3.61-2.24-4s-3.94.14-4.86,2.32a4.72,4.72,0,0,0,1,5,19.16,19.16,0,0,0,2.14,2C43.37,34.64,41.15,34,39.9,31c-4.32-10.4-1.37-17.75,9-21.85,3.46-1.37,7.68.32,10.11,3.4a8.56,8.56,0,0,1,1,9.79c-2,4-7.33,2.9-9.4.65-.55-.6-1.27-1.48-.79-2.45C50.57,19.07,52,19.05,53.42,19.21Z" style="fill:#fcf0f7"/><path d="M16.22,33.61c3.46-2.66,4.48-4.88,3.49-7.26-.91-2.18-2.77-2.74-4.86-2.32s-2.25,2.25-2.24,4c0,1.29,1,1.66,1.92,2s1.66-.14,2-1.32c-1-.26-2.6,1-2.77-1-.09-1.12,0-2.35,1.33-2.61s2.74-.12,3.5,1.34c.9,1.72-.12,4.24-2.2,5.47-3.68,2.18-10.24-.56-11.27-4.74-.17-.69-.36-1.16,1-1.11,2.85.1,5.53-.69,7.09-3.48.74-1.31.87-2.52-.44-3.6s-2.45-1.4-3.79-.21c.14.23.22.49.29.48,1.4-.13,3-.22,3.29,1.48.23,1.48-.83,2.64-2.28,3.33-2.34,1.1-4.66,1.44-6.82-.26-1.86-1.45-2.68-5.62-1.83-8C4.47,7.74,12.58,7,18.4,11.72a28.57,28.57,0,0,1,4,4.06c2.85,3.49,1.75,7.56,1.36,11.45a8.46,8.46,0,0,1-2.53,5.5A4.41,4.41,0,0,1,16.22,33.61Z" style="fill:#fcf0f7"/><path d="M46.48,46.55c-.77-3.53-.39-7.16-.75-10.74-.13-1.31,1.06-1.92,2.56-1.89s2.05.28,2,1.9a66,66,0,0,0,.21,7.3c.2,2.51-2.39,2.61-4.07,3.38Z" style="fill:#f8e8e9"/><path d="M16,46.58c-2.7-.69-3.62-2-3.39-4.41.2-2,0-4,.05-5.94,0-1.06-.5-2.39,1.54-2.31,1.8.07,2.28.95,2.26,2.5C16.4,39.75,15.53,43,16,46.58Z" style="fill:#f8e8e9"/><path d="M46.44,46.5a1.46,1.46,0,0,1-.16.19s-.09,0-.14,0l.34-.09Z" style="fill:#f8e8e9"/></g></g></svg>