<svg xmlns="http://www.w3.org/2000/svg" viewBox="0 0 30.18 48">
    <g>
        <path d="M30.16,10.75C24.39,8,18.31,7.57,12.14,7.63a12.13,12.13,0,0,0-1.35,0c-3.77.52-4.08.81-4,4.65.06,2.91-.6,5.92,1,8.67.09.14.15.41.07.51-1.9,2.5-.54,5.38-.63,8-.1,2.8-.46,5.72.11,8.56.15.72.79.92,1.3,1.25a6.87,6.87,0,0,1,2.48,3.11c1.39,3.06.36,4.59-3,5.19a18.74,18.74,0,0,1-5.24.35c-2.5-.25-3-1.67-2.87-3.62a4.41,4.41,0,0,1,1.24-3.17c2.5-2.22,1.28-5.24,2-7.76.74-2.7-2.34-5.55.68-7.82a4.23,4.23,0,0,1-.19-5.09c-2.5-1.9,1.38-4.37-.63-6.55-.72-.78.79-2,1.77-3-1.91.27-2-.78-1.88-2.06C3.18,6.92,4.1,5.32,6,5a39.4,39.4,0,0,1,20.65,1.6,22.48,22.48,0,0,0-.78-3.21,2.89,2.89,0,0,1,1-3.23C28-.51,30.09,1.38,30.14,3,30.22,5.52,30.16,8.05,30.16,10.75Z"
              style="fill:#011c44"/>
        <path d="M7.42,40.59c2.38.2,2.91,2.17,3.07,3.88s-2,1.32-2.64,1.94C6,48,4.31,46.54,2.6,47c-1.4.36-1.35-1.29-1.21-2.26.07-.42-1-2.46,1.07-1.23.16.08.17.31.33.06A3.8,3.8,0,0,0,3,43.09l1.35-2.77c.4,1.29.73,2.34,1.06,3.39l.31,0a8.74,8.74,0,0,1,0-2.56c.54-1.62.75.12,1.15.19C7.91,41.71,7.41,41,7.42,40.59Z"
              style="fill:#fcfcfd"/>
        <path d="M23.63,7.13c-3.33,0-6.6-.72-10-.64s-6.84.2-9.39,3.28C3.68,7.46,4.61,6.4,6.5,6A35.58,35.58,0,0,1,21,6.22c.88.19,1.77.27,2.66.4.16.11.22.22.17.33S23.69,7.13,23.63,7.13Z"
              style="fill:#717490"/>
        <path d="M26.36,7.57c3-.18,1.31-2.25,1.37-3.54,0-.88-1-1.7-.35-2.67.09-.13.68-.06.95.08,1.12.61.65,1.73.74,2.65.05.62-.09,1.27,0,1.87.44,2.48-.67,2.87-2.72,2.12-.13-.11-.17-.22-.13-.33S26.32,7.57,26.36,7.57Z"
              style="fill:#70738f"/>
        <path d="M5.52,30.92c.75.16,1,.57.82,1.32s-.52,1.53-1.5,1.45a.8.8,0,0,1-.71-1.15C4.43,31.92,4.41,30.89,5.52,30.92Z"
              style="fill:#f1f3f5"/>
        <path d="M6.25,22.68c0,.68-.09,1.31-1,1.26a1.18,1.18,0,0,1-1.2-1.19,1.2,1.2,0,0,1,1.26-1.4A1,1,0,0,1,6.25,22.68Z"
              style="fill:#f2f4f5"/>
        <path d="M5.42,26.68c.91-.07.84.51.85,1.05,0,.78-.25,1.45-1.07,1.59a1,1,0,0,1-1.09-.94A1.7,1.7,0,0,1,5.42,26.68Z"
              style="fill:#f7f8f9"/>
        <path d="M3.89,18.09c.2-.61.09-1.33.9-1.19a1.49,1.49,0,0,1,1.42,1.35c.09,1-.69.8-1.28.81C4.18,19.08,3.79,18.75,3.89,18.09Z"
              style="fill:#ebeef1"/>
        <path d="M4.3,36.56c.25-.44.11-1.2.85-1.17s1,.63,1.07,1.28-.33.89-1,.85A.9.9,0,0,1,4.3,36.56Z"
              style="fill:#f4f6f7"/>
        <path d="M5.34,11.77c.53,1.24.58,2.12-.38,2.76-.09.07-.64-.28-.74-.54C3.76,12.86,4.81,12.6,5.34,11.77Z"
              style="fill:#f4f5f7"/>
        <path d="M26.36,7.57c0,.17,0,.34,0,.51a4.78,4.78,0,0,1-2.74-1c0-.17,0-.34,0-.51C24.45,7.17,25.63,6.72,26.36,7.57Z"
              style="fill:#5d6784"/>
        <path d="M7.42,40.59l1.1,2c-1.14.07-1.38-.63-1.64-1.3Z" style="fill:#173559"/>
    </g>
</svg>