<svg xmlns="http://www.w3.org/2000/svg" viewBox="0 0 22.88 47.67">
    <g>
        <path d="M0,14a4.19,4.19,0,0,0,1-3.1A4.41,4.41,0,0,1,4,7.06c1.39-.63,2,.45,2.49,1.38s.87.44,1.43.17c3.06-1.47,5.6-3.23,5.78-7.16.1-2.26,2.69-1.28,3.1-1,1.26.94,2.48.51,3.72.63,1.59.15,2.81,1.12,2.27,2.62-.72,2-.42,4-.62,6-.24,2.33-2.44,2.9-3.87,4.07-2.84,2.32-5.58,4.81-9.4,5.62-1.41.3-1.62,1.9-1.48,3.17.13,1.11.35,5.76-.24,6.53-.77,1-.3,1.51.26,2.29,2.25,3.15,4.08,6.49,4,10.54,0,2.84-1.86,5.46-3.91,5.66A6.23,6.23,0,0,1,1,43.19C-.22,39,1.38,35.44,3.17,31.92a3.56,3.56,0,0,0,.41-2.78,9.63,9.63,0,0,1,.23-4.58c.78-2.08-.92-3.74.11-5.95C4.82,16.68,1.27,16.4,0,15Z"
              style="fill:#011c44"/>
        <path d="M5.14,30.78c2.25,2.8,4.32,5.51,5,9a6.12,6.12,0,0,1-1.42,5.69c-1.16,1.24-2.61.63-4,.08-2.2-.88-2.54-2.6-2.64-4.74C1.94,37.12,3.22,34,5.14,30.78Z"
              style="fill:#fefefe"/>
        <path d="M9.78,9.62,14.7,5.79c.74.74,0,1.74.46,2.55s.76,1.5,1.71,1.46S18,9,18.16,8.32A1.42,1.42,0,0,0,16.9,6.59c-.77-.18-1.61-.14-2.23-.77.29-.44.56-.9.87-1.33C16.5,3.16,17,2,14.41,2a1.55,1.55,0,0,1,1.92-.48c2.06.75,2.07,3.2,3.59,4.5,1.87,1.6,1.31,3.19-.38,4.68-3.15,2.78-6.13,5.79-10.41,6.85a5.36,5.36,0,0,1-2.67.07c1.91-3.6,1.2-4.55-3-4.71-1.61-.07-1.2-1.69-1.25-3.14,1.45,1.79,3,1.72,4.65,1,1-.42,2-.77,3-1.16.38.73-.1,1.37-.18,2.05a1.86,1.86,0,0,0,1.28,2.09c.91.32,1.55-.31,1.8-1.14a1.6,1.6,0,0,0-1-2.15C11.05,10.19,10.29,10.21,9.78,9.62Z"
              style="fill:#737590"/>
        <path d="M4.93,16.67c-.8-.41-1.58-.86-1.65-1.86,0-.83.45-1.44,1.26-1.35A2,2,0,0,1,6.47,15C6.6,16,5.58,16.18,4.93,16.67Z"
              style="fill:#fafbfb"/>
        <path d="M5.82,19.35c.48.12,1.33-.11,1.12.69s-.31,1.72-1.31,1.7c-.43,0-1.32,0-1.28-.95S5,19.42,5.82,19.35Z"
              style="fill:#f4f5f7"/>
        <path d="M19,2.69c1.34-.23,2.44-.41,2.73,1.09.09.49.16,1.41-.36,1.37C20.11,5.07,19.63,3.93,19,2.69Z"
              style="fill:#fbfbfc"/>
        <path d="M6.67,24.3c-.08.71-.35,1.44-1,1.48-.34,0-1.38-.2-1.19-1.1a1.18,1.18,0,0,1,1.38-1C6.31,23.74,6.78,23.67,6.67,24.3Z"
              style="fill:#eff1f4"/>
        <path d="M5.65,27.59c.62-.16.91.08.88.64a1.36,1.36,0,0,1-1.19,1.26c-.49.1-.81-.42-.87-.81C4.36,27.82,5.28,27.94,5.65,27.59Z"
              style="fill:#e5e8ec"/>
        <path d="M9.78,9.62c2-.08,4-.07,3.78,2.78a2.23,2.23,0,0,1-2.48,2.28,2.58,2.58,0,0,1-2.15-3.15,7.69,7.69,0,0,1,.89-1.94Z"
              style="fill:#031f46"/>
        <path d="M14.67,5.82c.63,0,1.26,0,1.89,0,1.62,0,2.62.84,2.41,2.48-.13,1.1-.45,2.46-2,2.38s-2.5-1.32-2.73-2.82a5.86,5.86,0,0,1,.48-2Z"
              style="fill:#042047"/>
        <path d="M12.55,12.84c0,.28-.67.86-1.28.85a1.57,1.57,0,0,1-1.42-1.6,1.24,1.24,0,0,1,1.27-1.38C12.07,10.72,12.53,11.28,12.55,12.84Z"
              style="fill:#f1f3f5"/>
        <path d="M17.9,8.87c0,.18-.18,1-.95.76s-1.67-.57-1.74-1.71.62-1,1.37-1C17.6,6.9,18,7.42,17.9,8.87Z"
              style="fill:#f7f8f9"/>
    </g>
</svg>