<svg xmlns="http://www.w3.org/2000/svg" viewBox="0 0 38.38 25.82">
    <g>
        <path d="M32.35,12.78c1.69.05,2-1.66,3.09-2.38C36.19,9.89,37,8.84,38,9.94s.23,1.87-.4,2.67c-1.2,1.5-3,1.77-4.71,2.36l-2.73.55-4.23-.18c-2.29-.66-4.62-1.25-6.34-3.1-.24-.27-.46-.74-1-.22-2.58,2.4-6,2.9-9.18,3.83l-2,0C4.87,15.08,2.48,14.21.82,12c-.64-.82-1.27-1.7-.38-2.57,1.07-1,2.07-.16,2.67.65C4.2,11.59,5.27,13,7.16,13.44c.5.56,1.11.3,1.7.25a10.69,10.69,0,0,0,6.45-1.38c2.54-1.29,4.62-1.74,7.18.06,1.86,1.3,4.3,1,6.55.79C30.16,13.15,31.33,13.62,32.35,12.78Z"
              style="fill:#212a48"/>
        <path d="M30.12,15.52,32.85,15A3.32,3.32,0,0,1,32.28,17c-.9.36-1.24,1.22-1.77,1.93-2.6,3.52-9.81,6.83-13.46,5.11-.07-.55-.23-1-.93-1s-.64.48-.73.91c-1.77-.07-3-1.89-4.93-1.51l0,0A6.35,6.35,0,0,0,6.64,18.7l0,0c1-.56-.15-1.08,0-1.63.54-.27.58-.81.71-1.3l2,0,.11.2A4.14,4.14,0,0,0,12,19.59c2.86,1.07,6,2,8.93,1.15C24.32,19.75,28.33,19.45,30.12,15.52Z"
              style="fill:#f8cfe3"/>
        <path d="M32.35,12.78c-1,.84-2.19.37-3.31.38-.08-1-.81-1.54-1.57-2.07A19.65,19.65,0,0,0,16,7.8c-3.6,0-6.81,2.66-7.12,5.89-.59.05-1.2.31-1.7-.25.72-4.31,5.1-8.07,9.25-9,5.75-1.3,9.27,2.07,13,5.26A41.14,41.14,0,0,1,32.35,12.78Z"
              style="fill:#f8cfe3"/>
        <path d="M10.46,22.52c1.91-.38,3.16,1.44,4.93,1.51l1.66,0C20.7,25.8,27.91,22.49,30.51,19c.53-.71.87-1.57,1.77-1.93.13,2-1.27,3.22-2.51,4.44C24.33,26.84,15.45,27.3,10.46,22.52Z"
              style="fill:#1e2846"/>
        <path d="M30.35,6.58A15.32,15.32,0,0,0,10.81,3.32l-.39-.52c5-4.67,17.19-3.46,20.31,3.3Z"
              style="fill:#1e2846"/>
        <path d="M6.64,18.7a6.35,6.35,0,0,1,3.84,3.84C8.44,22,7.52,20.39,6.64,18.7Z" style="fill:#1e2846"/>
        <path d="M31.93,9.37l-.75-2.06,0-.64a3.16,3.16,0,0,1,1.09,2.19Z" style="fill:#212a48"/>
        <path d="M6.64,17.1c-.12.55,1,1.07,0,1.63-.74-.14-.43-1.07-1-1.37-.07,0,0-.44.08-.67Z"
              style="fill:#1e2846"/>
        <path d="M10.81,3.32c-.41.46-1,1.18-1.46.5s.43-.95,1.07-1Z" style="fill:#1e2846"/>
        <path d="M6.69,6.72c-.18-.93.35-1.33,1.4-1.83A2.07,2.07,0,0,1,6.64,6.67Z" style="fill:#1e2846"/>
        <path d="M6.64,6.67c.29.83-.22,1.19-.92,1.63-.13-1,.23-1.39,1-1.58Z" style="fill:#212a48"/>
        <path d="M31.93,9.37l.38-.51c.47.43,1,1,.28,1.47C32.22,10.57,32.22,9.68,31.93,9.37Z" style="fill:#3e4661"/>
        <path d="M31.22,6.67l0,.64-.83-.73.38-.48Z" style="fill:#1e2846"/>
        <path d="M8.86,13.69C9.17,10.46,12.38,7.76,16,7.8a19.65,19.65,0,0,1,11.49,3.29c.76.53,1.49,1,1.57,2.07-2.25.21-4.69.51-6.55-.79-2.56-1.8-4.64-1.35-7.18-.06A10.69,10.69,0,0,1,8.86,13.69Z"
              style="fill:#edbeda"/>
        <path d="M9.34,15.85c3.21-.93,6.6-1.43,9.18-3.83.57-.52.79,0,1,.22,1.72,1.85,4.05,2.44,6.34,3.1a12.36,12.36,0,0,1-10.36,3.07c-2.35-.33-4-1.66-6.08-2.36Z"
              style="fill:#ebbcd8"/>
        <path d="M9.45,16.05c2.05.7,3.73,2,6.08,2.36a12.36,12.36,0,0,0,10.36-3.07l4.23.18c-1.79,3.93-5.8,4.23-9.18,5.22-3,.86-6.07-.08-8.93-1.15A4.14,4.14,0,0,1,9.45,16.05Z"
              style="fill:#f1c3dd"/>
        <path d="M17.05,24.08l-1.66,0c.09-.43.17-.86.73-.91S17,23.53,17.05,24.08Z" style="fill:#fff"/>
    </g>
</svg>