<svg xmlns="http://www.w3.org/2000/svg" viewBox="0 0 75.94 84.99"><g id="Ebene_2" data-name="Ebene 2"><g id="Ebene_1-2" data-name="Ebene 1"><path d="M9.36,7.26C13.7-.06,20.68-2.18,27.68,2.44c4.8,3.17,8.57,4.34,14.49,1.63A25,25,0,0,1,72.11,12c4.24,5.93,4.31,12.75,3.27,19.53-1,6.38-3.65,12.28-6.6,18-2,3.83-5.38,6.62-9,8.91C57.14,60.07,57,62.45,57.25,65c.33,2.69,2.38,3.77,5,2.93.85-.27,1.66-.69,2.49-1,3.17-1.38,5.49-.41,6.11,2.92.76,4.1.27,8.27.11,12.41-.05,1.24-1,1.34-1.79,1.67A23.52,23.52,0,0,1,60.84,85c-6.52,0-13-.45-19.27-2.53-3.55-1.17-3.79-1.77-3.15-5.36A42.41,42.41,0,0,0,39,71.7c.27-5.56,2.75-7.37,8-5.74.52.16,1,.55,1.3-.26s-.19-1.12-.94-1.22c-10.44-1.36-15.72-8.77-20.09-17.2a9.06,9.06,0,0,1-.31-7.68c1.85-4.06,1.05-7.92.51-11.92C26.52,21,27.6,14.89,32.65,10c.58-.38,1.17-.75,1.76-1.12l.89.1,3.43,2.64-.67.71a.9.9,0,0,0-1-.67c-2-1.74-3.56-1.74-5,.87a38.34,38.34,0,0,0-2.63,5c-1.71,4.56-.62,9.12.12,13.63a12.73,12.73,0,0,1-.63,7.43,9.35,9.35,0,0,0-.54,7.14,28.35,28.35,0,0,0,15.26,16.5,8.35,8.35,0,0,0,7.83-.6,72.38,72.38,0,0,0,8.91-5.75c2.72-2.13,5.46-4.36,7-7.47,2.66-5.23,5.29-10.6,6.23-16.38,1-6,1.13-12.18-2-17.74-5-8.75-15-11.52-24.84-10.1a19.4,19.4,0,0,0-9.42,3.73c2.86,1.42,5.5,2.45,8.47,1.95,2.76-.47,4,.44,4.33,3.38l-1.07-1.09c-.69-.5-1.12-1.61-2.15-1.34-3.82,1-7.12-.62-10.5-1.9-3.64-2.14-7.21-4.43-11-6.37C22.15.83,18.65.48,15.33,2.82,12.61,3.2,11.59,5.7,9.8,7.25Zm39.06,74h0l1.25,1.18a120.71,120.71,0,0,0,12.76.6c1.82,0,2-.64,1.25-2.06-.69-1.25-1.44-2.49-2-3.79-.14-.3.17-1.5.43-1.11,1.45,2.16,1.69-1.19,2.89-.32-1.52,1.84-.61,3.56.24,5.46a1.75,1.75,0,0,0,2.3,1.19c1-.2,1.86-.45,1.81-1.87-.1-3.08.09-6.17,0-9.25s-1.44-3.88-4.43-2.57a20.64,20.64,0,0,1-2,.82c-4.3,1.41-7.64-1.28-7.35-5.83.05-.79.74-1.48.24-2.46-2.65,1.66-6.55,2-6.22,6.54A2.08,2.08,0,0,1,49,69c-.56.71-.95.67-1.4-.27a3.8,3.8,0,0,0-4-2c-1.68.1-2.25,1.61-2.54,3.1a12.72,12.72,0,0,0-.29,4.84c-.07.13-.23.31-.19.37.15.28.37.18.56,0,1.62-.47,2.57-1.9,3.9-3,.54,1.31-.16,1.93-.84,2.52-1.08.94-2.21,1.83-3.32,2.74-1.38,1.12-1.67,2.17.29,2.92a18.75,18.75,0,0,0,6.75,1.61Z" style="fill:#2e3754"/><path d="M9.27,34c-.95,2.43-3,2.43-5,2A6.15,6.15,0,0,1,0,30.63C0,26.34,2.71,24,6,22l.58.11c-.11.91.87,1.2,1.11,1.92a.69.69,0,0,0,.66.63l.91-.06a3.79,3.79,0,0,1-.52,2.28c-.44,0-1.09.11-1.29-.12-2-2.4-2.76-.92-3.44,1-.11.3-.49.51-.74.76-1.48.36-1.7,1.35-1.4,2.68.79,3.45,2.54,4.08,6.29,2.22A1.19,1.19,0,0,0,9.27,34Z" style="fill:#ebf6f8"/><path d="M6.59,22.07,6,22a8,8,0,0,0,1-4.82c-.23-3.51.22-6.91,2.35-9.88H9.8C9.62,8,9.43,8.7,9.25,9.43c-.18.2-.68.31-.19.7l.21-.69c.44,0,1.43-1.12,1.06.42a8.7,8.7,0,0,0-.54,2.81l-.06,8.16c-1.33-.22-1-1.27-1-2.11,0-1.84,0-3.67,0-5.5a7.33,7.33,0,0,0-.53,3.48C8.23,18.67,8.26,20.61,6.59,22.07Z" style="fill:#2b3450"/><path d="M9.27,34a1.19,1.19,0,0,1-1.11-.57c2.21-2.68,1.62-5.85,1.57-8.93l.77-1c.15.39.29.78.43,1.16.12,1,.31,2,1.58,2.22C12.3,29.65,11.64,32.2,9.27,34Z" style="fill:#dceff3"/><path d="M9.79,12.67a8.7,8.7,0,0,1,.54-2.81c.37-1.54-.62-.46-1.06-.42h0c.18-.73.37-1.45.55-2.18,1.79-1.55,2.81-4,5.53-4.43h0l.5.61,0,0,.4.4.14.15A16.13,16.13,0,0,0,9.79,12.67Z" style="fill:#34415e"/><path d="M28.37,6.7c-1.31-.62-2.66-1.14-3.89-1.88-2.6-1.56-5.32-1.51-8.12-.82l-.14-.15-.4-.4,0,0c0-.15,0-.3,0-.44C21,1.22,25.26,3.53,29.43,6.2A1.13,1.13,0,0,1,28.37,6.7Z" style="fill:#34415e"/><path d="M10.5,23.51c-.25.33-.51.65-.77,1a3.54,3.54,0,0,0-.47.07l-.91.06L7.69,24c-.24-.72-1.22-1-1.11-1.92,1.68-1.46,1.65-3.4,1.58-5.37a7.33,7.33,0,0,1,.53-3.48c0,1.83,0,3.66,0,5.5,0,.84-.3,1.89,1,2.11C10,21.72,10.25,22.62,10.5,23.51Z" style="fill:#be97bf"/><path d="M28.37,6.7a1.13,1.13,0,0,0,1.06-.5,18.18,18.18,0,0,1,5,2.64L32.65,10c.34-1.48-1-1.37-1.75-1.85S29.21,7.16,28.37,6.7Z" style="fill:#3b4965"/><path d="M12.51,26.89c-1.27-.21-1.46-1.19-1.58-2.22C12.17,24.9,12.37,25.88,12.51,26.89Z" style="fill:#ebf6f8"/><path d="M50.16,13.25c-.33-2.94-1.57-3.85-4.33-3.38-3,.5-5.61-.53-8.47-1.95a19.4,19.4,0,0,1,9.42-3.73c9.88-1.42,19.89,1.35,24.84,10.1,3.15,5.56,3,11.77,2,17.74-.94,5.78-3.57,11.15-6.23,16.38-1.58,3.11-4.32,5.34-7,7.47a72.38,72.38,0,0,1-8.91,5.75,8.35,8.35,0,0,1-7.83.6,28.35,28.35,0,0,1-15.26-16.5,9.35,9.35,0,0,1,.54-7.14,12.73,12.73,0,0,0,.63-7.43c-.74-4.51-1.83-9.07-.12-13.63a38.34,38.34,0,0,1,2.63-5c1.44-2.61,3-2.61,5-.87.34.22.68.44,1,.67l5,3.63C46.53,18.51,48.92,17.62,50.16,13.25Z" style="fill:#fadfe7"/><path d="M40.73,74.7A12.72,12.72,0,0,1,41,69.86c.29-1.49.86-3,2.54-3.1a3.8,3.8,0,0,1,4,2c.45.94.84,1,1.4.27a2.08,2.08,0,0,0,.53-1.23c-.33-4.54,3.57-4.88,6.22-6.54.5,1-.19,1.67-.24,2.46-.29,4.55,3.05,7.24,7.35,5.83a20.64,20.64,0,0,0,2-.82c3-1.31,4.3-.62,4.43,2.57s-.06,6.17,0,9.25c0,1.42-.84,1.67-1.81,1.87a1.75,1.75,0,0,1-2.3-1.19c-.85-1.9-1.76-3.62-.24-5.46-1.2-.87-1.44,2.48-2.89.32-.26-.39-.57.81-.43,1.11.6,1.3,1.35,2.54,2,3.79.78,1.42.57,2-1.25,2.06a120.71,120.71,0,0,1-12.76-.6c-.22-1.28.88-1.89,1.38-2.81a3.31,3.31,0,0,0-.12-4.19c.06,2.79-1.82,4-2.51,5.82h0l-.54.62a18.75,18.75,0,0,1-6.75-1.61c-2-.75-1.67-1.8-.29-2.92,1.11-.91,2.24-1.8,3.32-2.74.68-.59,1.38-1.21.84-2.52-1.33,1.07-2.28,2.5-3.9,3C41,75,40.86,74.82,40.73,74.7Z" style="fill:#f6dbe4"/><path d="M36.44,8.92c3.38,1.28,6.68,2.92,10.5,1.9,1-.27,1.46.84,2.15,1.33,0,1.82-.48,3.43-2.32,4.17s-2.36-1.19-3.49-1.9l-4.55-2.84L35.3,8.94Z" style="fill:#d2a5cc"/><path d="M36.44,8.92l-1.14,0-.89-.1a18.18,18.18,0,0,0-5-2.64C25.26,3.53,21,1.22,15.8,3a2.18,2.18,0,0,0-.51-.17h0c3.32-2.34,6.82-2,10.15-.27C29.23,4.49,32.8,6.78,36.44,8.92Z" style="fill:#be97bf"/><path d="M38.73,11.58l4.55,2.84c1.13.71,1.64,2.65,3.49,1.9s2.3-2.35,2.32-4.17l1.07,1.1c-1.24,4.37-3.63,5.26-7.14,2.67l-5-3.63Z" style="fill:#4d536f"/><path d="M48.42,81.28c.69-1.83,2.57-3,2.51-5.82a3.31,3.31,0,0,1,.12,4.19c-.5.92-1.6,1.53-1.38,2.81Z" style="fill:#4d536f"/><path d="M38.06,12.28l-1-.66A.91.91,0,0,1,38.06,12.28Z" style="fill:#4d536f"/><path d="M41.1,75.08c-.19.17-.41.27-.56,0,0-.06.12-.24.19-.37C40.86,74.82,41,75,41.1,75.08Z" style="fill:#f6dbe4"/><path d="M47.88,81.9l.54-.62Z" style="fill:#4d536f"/><path d="M3.27,28.51c.25-.25.63-.46.74-.76.68-1.95,1.42-3.43,3.44-1,.2.23.85.09,1.29.12A7.3,7.3,0,0,1,8.58,29C8,30.61,7.25,32.5,5.11,32.2S3.25,30.07,3.27,28.51Z" style="fill:#adddef"/><path d="M3.27,28.51c0,1.56-.19,3.41,1.84,3.69S8,30.61,8.58,29a7.3,7.3,0,0,0,.16-2.16,3.79,3.79,0,0,0,.52-2.28,3.54,3.54,0,0,1,.47-.07c0,3.07.64,6.24-1.57,8.92-3.75,1.86-5.5,1.23-6.29-2.22C1.57,29.86,1.79,28.87,3.27,28.51Z" style="fill:#fbfcfd"/><path d="M7.69,24l.66.63A.69.69,0,0,1,7.69,24Z" style="fill:#dceff3"/><path d="M9.27,9.44l-.21.69c-.49-.39,0-.5.19-.7Z" style="fill:#34415e"/><path d="M15.29,2.81A2.18,2.18,0,0,1,15.8,3c0,.14,0,.29,0,.44Z" style="fill:#2e3754"/><path d="M15.82,3.45l.4.4Z" style="fill:#2e3754"/></g></g></svg>