<svg xmlns="http://www.w3.org/2000/svg" viewBox="0 0 62.05 92.32"><g id="Ebene_2" data-name="Ebene 2"><g id="Ebene_1-2" data-name="Ebene 1"><path d="M35.2,92.32l-.55-1.09a26.82,26.82,0,0,1,7.09-.55v1.64Z" style="fill:#fbfcfd"/><path d="M16.66,73.24c-.35-5.54-5.59-6.75-8.74-9.79A24.55,24.55,0,0,1,.24,49.21c-.67-4.32.19-8.39,1.06-12.52.6-2.9-.44-5.74-.5-8.64C.63,20.53,3.86,14.38,8.37,8.8c8.26-10.22,20.11-9.94,31-7.09.66.17,1.21.41,1.24,1.2a59.4,59.4,0,0,0-7.2-1c-2.5-.06-5.08-.61-7.52.48H24.85A17.08,17.08,0,0,0,10.54,8.77C4.77,15.46,1.13,22.81,2.91,32a15.86,15.86,0,0,1-.19,6.46C.28,49.42,2.78,59.09,13.07,64.72,17.57,67.18,18.13,69.19,16.66,73.24Z" style="fill:#fbfcfd"/><path d="M16.66,73.24c1.47-4,.91-6.06-3.59-8.52C2.78,59.09.28,49.42,2.72,38.5A15.86,15.86,0,0,0,2.91,32C1.13,22.81,4.77,15.46,10.54,8.77A17.08,17.08,0,0,1,24.85,2.38c-.1,1-.78,1.1-1.57,1.08a9.44,9.44,0,0,0-3.64,1C9,8.61,2.43,21.15,4.53,32.51a20.54,20.54,0,0,1-.15,7.57c-1,5.42-1.25,10.78,1.69,15.77,2.14,3.64,5.72,5.71,9,8.13,2.32,1.72,4.41,3.52,3.82,6.87-.14.8-.11,1.7,1.06,1.84l-.54,2.73c-1.2-.36-1.68,1-2.71,1.1Z" style="fill:#f2f9fb"/><path d="M49.37,58.52a3.4,3.4,0,0,0-1.63,1.63c-1,0-1.54.81-2.21,1.38C44.2,62.69,43,64,41.2,64.52l-.55-1.65c0-1,.88-1,1.48-1.3,3-1.75,5.76-3.88,7.06-7.2,2-5,5-9.5,6-14.88.39-2,1.06-4,1.28-6,2.51-1,2-3,1.63-4.91l.54-2.73h1.1C61.28,34.6,58.11,42.39,54.4,50,53,53,51.06,55.68,49.37,58.52Z" style="fill:#ebf6f8"/><path d="M59.74,25.81h-1.1c-1.36-1.8-1.88-4-2.7-6-1.69-4.18-3.23-8.39-7.32-11a21.66,21.66,0,0,0-13-4c-3.81.11-7.61-.66-11.31.86.1-1.32,2.17-1.64,1.64-3.27,2.44-1.09,5-.54,7.52-.48a59.4,59.4,0,0,1,7.2,1C49,4.38,54.05,9.83,57.55,17.09a1.12,1.12,0,0,0,.55,1.09c0,1.83,2,3,1.64,4.91a1.11,1.11,0,0,0,.54,1.09v1.09Z" style="fill:#f2f9fb"/><path d="M41.74,90.68a26.82,26.82,0,0,0-7.09.55l-6-1.09c-.58-.8-1.43-.47-2.19-.54-4.56-.09-8.2-1.77-10.35-6H18.3a31.88,31.88,0,0,0,10.6,4.14c3.4.81,6.68,1.94,10.33.9a40.91,40.91,0,0,1,8.28-1.17A6,6,0,0,0,51,86.32h2.18c-.59,2.66-2.09,4.18-5,3.8C46,89.84,43.92,90.81,41.74,90.68Z" style="fill:#f2f9fb"/><path d="M59.74,25.81l.54-.54c1.94,2.29,2,5.11,1.54,7.73-1.43,8.34-3.93,16.33-9.35,23.08-.83,1-1.56,2.28-3.1,2.44C51.06,55.68,53,53,54.4,50,58.11,42.39,61.28,34.6,59.74,25.81Z" style="fill:#fbfcfd"/><path d="M53.19,86.33H51c1.13-5.09,2-10.17,0-15.26.39-.64,1-.53,1.63-.54.45,2,1.86,3.78,1.65,6,0,1.69,0,3.38,0,5.07A6.88,6.88,0,0,1,53.19,86.33Z" style="fill:#e5f3f7"/><path d="M52.64,70.52c-.6,0-1.24-.1-1.63.54-1.06-1.68-2.36-2.57-4.46-1.68a7.63,7.63,0,0,1-2.89.51c-1.83,0-3.91.36-4.64-2.11.61,0,1.25.09,1.65-.55H45a25.08,25.08,0,0,0,3.47,0c2-.29,3.15.77,4.16,2.21Z" style="fill:#ebf6f8"/><path d="M18.3,83.6H16.12c0-.18,0-.36,0-.54V80.32a10.44,10.44,0,0,0,.56-3.8c1,0,1.51-1.46,2.71-1.1Z" style="fill:#e5f3f7"/><path d="M45,67.24H40.67c.17-.9.35-1.81.53-2.71,1.77-.53,3-1.83,4.33-3,.67-.57,1.18-1.39,2.21-1.38-.07,1.44-1.24,2.17-2.16,2.91C44,64.36,43.65,65.63,45,67.24Z" style="fill:#fbfcfd"/><path d="M52.64,70.52v-1.1c2.47,1.72,3.35,5.52,1.65,7.09C54.5,74.3,53.09,72.54,52.64,70.52Z" style="fill:#fbfcfd"/><path d="M16.11,80.32v2.73C14.37,82.15,14.38,81.24,16.11,80.32Z" style="fill:#fbfcfd"/><path d="M26.47,89.6c.76.07,1.61-.26,2.19.54C27.7,90.89,26.86,91.13,26.47,89.6Z" style="fill:#fbfcfd"/><path d="M60.28,24.18a1.11,1.11,0,0,1-.54-1.09C60.43,23.2,61.11,23.31,60.28,24.18Z" style="fill:#fbfcfd"/><path d="M58.1,18.18a1.12,1.12,0,0,1-.55-1.09C58.24,17.2,58.93,17.31,58.1,18.18Z" style="fill:#fbfcfd"/><path d="M25.93,2.37c.53,1.63-1.54,2-1.64,3.27a31.25,31.25,0,0,0-7.47,3.73c-6.71,4-10.83,13.31-9.28,21a20,20,0,0,1-.13,9.38C5.88,45.36,7.35,50.44,10,55.34,12.5,60,16.66,63.1,20.89,66.05c1.45,1,2.29,1.8.55,3.25-1,.86-1.21,2.17-1.52,3.39-1.17-.14-1.2-1-1.06-1.84C19.45,67.5,17.36,65.7,15,64c-3.25-2.42-6.83-4.49-9-8.13-2.94-5-2.73-10.35-1.69-15.77a20.54,20.54,0,0,0,.15-7.57C2.43,21.15,9,8.61,19.64,4.44a9.44,9.44,0,0,1,3.64-1c.79,0,1.47-.1,1.57-1.08Z" style="fill:#e5f3f7"/><path d="M19.92,72.69c.31-1.22.48-2.53,1.52-3.39,1.74-1.45.9-2.24-.55-3.25C16.66,63.1,12.5,60,10,55.34c-2.63-4.9-4.1-10-2.57-15.59a20,20,0,0,0,.13-9.38c-1.55-7.69,2.57-17,9.28-21a31.25,31.25,0,0,1,7.47-3.73c3.7-1.52,7.5-.75,11.31-.86a21.66,21.66,0,0,1,13,4c4.09,2.64,5.63,6.85,7.32,11,.82,2,1.34,4.21,2.7,6l-.54,2.73c-.54,1.63-1.09,3.27-1.63,4.91-.22,2.06-.89,4-1.28,6-1,5.38-4,9.91-6,14.88-1.3,3.32-4,5.45-7.06,7.2-.6.34-1.48.3-1.48,1.3-2.47,1-1.38,3.18-1.63,4.91.73,2.47,2.81,2.11,4.64,2.11a7.63,7.63,0,0,0,2.89-.51c2.1-.89,3.4,0,4.46,1.68,2,5.09,1.13,10.17,0,15.26a6,6,0,0,1-3.5,1.15,40.91,40.91,0,0,0-8.28,1.17c-3.65,1-6.93-.09-10.33-.9A31.88,31.88,0,0,1,18.3,83.6l1.08-8.18Zm25.64,5.44a17,17,0,0,1-.2,3c-.26,1.06-.57,2.09.82,2.37s1.72-.95,1.91-1.87c.28-1.4.14-2.89.41-4.3.73-3.8.07-4.54-3.59-3.74-5.37,1.16-7.45.15-9.66-4.81-.31-.7-.53-1.4-1.4-1.42s-1.29.59-1.7,1.19a9.47,9.47,0,0,0-.89,2.54c-1,3-2.35,3.43-4.68,1.58a1.75,1.75,0,0,0-2-.26,2.11,2.11,0,0,0-1.31,1.91c0,1,.7,1.11,1.47,1.15,1.46.08,1.06.94.62,1.67a18.63,18.63,0,0,1-1.75,2.4c-1.23,1.41-.8,2.38.65,3.25,2.57,1.55,4.86.7,6.53-2.53.29-.54.37-1.49,1.13-1.23,1,.35.29,1.18.11,1.8-.33,1.12-1,2.43.57,3,2.87,1.13,5.88,1.9,9,1.15,1.28-.3,2.27-1,1.32-2.76C41.19,79,41.3,79,44.48,77.61A1.1,1.1,0,0,1,45.56,78.13Zm7.55-46.2c.57-3.36-.48-6.64-.56-10a8.11,8.11,0,0,0-3.37-6.3C43.31,11.48,37.42,7.4,29.51,8.3,23.76,9,18.44,10.17,14.7,15c-3.19,4.12-5,8.63-4.18,14.05.73,4.71,1.33,9.42-.56,14.15-1.26,3.17.26,6.27,1.83,9A67.2,67.2,0,0,0,17,59.07c3.7,4.8,9,6.86,14.64,4.74,3.92-1.46,7.34-4.22,10.45-7.08s6.72-5.36,6.59-10.34a5.86,5.86,0,0,1,1.14-2.71C52,40.06,53.8,36.35,53.11,31.93Z" style="fill:#fefefe"/><path d="M39,67.78c.25-1.73-.84-3.91,1.63-4.91l.55,1.65c-.18.9-.36,1.81-.53,2.71C40.27,67.87,39.63,67.77,39,67.78Z" style="fill:#dceff3"/><path d="M56.47,33.45c.54-1.64,1.09-3.28,1.63-4.91C58.46,30.47,59,32.46,56.47,33.45Z" style="fill:#f2f9fb"/><path d="M53.11,31.93c.69,4.42-1.1,8.13-3.29,11.75a5.86,5.86,0,0,0-1.14,2.71c.13,5-3.54,7.52-6.59,10.34s-6.53,5.62-10.45,7.08C26,65.93,20.7,63.87,17,59.07a67.2,67.2,0,0,1-5.21-6.91c-1.57-2.71-3.09-5.81-1.83-9,1.89-4.73,1.29-9.44.56-14.15-.84-5.42,1-9.93,4.18-14,3.74-4.81,9.06-6,14.81-6.68,7.91-.9,13.8,3.18,19.67,7.34a8.11,8.11,0,0,1,3.37,6.3C52.63,25.29,53.68,28.57,53.11,31.93Zm-7,16.78a20.61,20.61,0,0,1,1.39-3.79,25,25,0,0,0,3.44-16.41c-.49-4.16-1-8.72-4.36-11.64C41.49,12.53,35.71,9.46,28.66,10a14.59,14.59,0,0,0-5.27,1.12A17.09,17.09,0,0,0,12.3,31.24a17.09,17.09,0,0,1-.45,10.39c-.74,1.93-1.24,4-.09,6,.26,2.44,1,4.64,3.26,6a13.7,13.7,0,0,0,6.55,7.09c1.06.61,1.94,1.57,3.27,1.63,3.84,1.49,7.36.66,9.27-2.17.75-.32,1.23-1.17,2.17-1.1,1.42,0,2.29-1.16,3.11-2C42,54.64,45.2,52.56,46.1,48.71Z" style="fill:#fbfcfd"/><path d="M44.48,77.61C41.3,79,41.19,79,42.87,82.21c1,1.79,0,2.46-1.32,2.76-3.09.75-6.1,0-9-1.15-1.53-.6-.9-1.91-.57-3,.18-.62.93-1.45-.11-1.8-.76-.26-.84.69-1.13,1.23-1.67,3.23-4,4.08-6.53,2.53-1.45-.87-1.88-1.84-.65-3.25a18.63,18.63,0,0,0,1.75-2.4c.44-.73.84-1.59-.62-1.67-.77,0-1.48-.13-1.47-1.15a2.11,2.11,0,0,1,1.31-1.91,1.75,1.75,0,0,1,2,.26c2.33,1.85,3.66,1.44,4.68-1.58a9.47,9.47,0,0,1,.89-2.54c.41-.6.89-1.21,1.7-1.19s1.09.72,1.4,1.42c2.21,5,4.29,6,9.66,4.81,3.66-.8,4.32-.06,3.59,3.74-.27,1.41-.13,2.9-.41,4.3-.19.92-.6,2.13-1.91,1.87s-1.08-1.31-.82-2.37a17,17,0,0,0,.2-3c.62,0,1.35.1,1.54-.74a2.39,2.39,0,0,0-.19-2.09c-.63-.71-1.48-.39-2.28-.22-6.37,1.35-6.84,1.19-10-3.76-.89-1.4-1.38-.6-1.87.26-.66,1.17-1,3-2.37,3.14-3.08.38-3.38,3-4.57,4.91-.29.48-.6,1-.13,1.46a1.39,1.39,0,0,0,1.76,0,3.61,3.61,0,0,0,1.47-1.9c.7-1.71,2.09-2.77,3.77-2.41,1.48.31,2,1.8,2,3.46-.1,2.36,1.88,2,3.28,2.21,1.68.29,2.12-.54,2.19-2.15C40.27,77.56,41.85,76.67,44.48,77.61Z" style="fill:#f6f7fa"/><path d="M44.48,77.61c-2.63-.94-4.21,0-4.32,2.73-.07,1.61-.51,2.44-2.19,2.15-1.4-.24-3.38.15-3.28-2.21.06-1.66-.51-3.15-2-3.46-1.68-.36-3.07.7-3.77,2.41a3.61,3.61,0,0,1-1.47,1.9,1.39,1.39,0,0,1-1.76,0c-.47-.48-.16-1,.13-1.46C27,77.7,27.32,75.1,30.4,74.72c1.37-.17,1.71-2,2.37-3.14.49-.86,1-1.66,1.87-.26,3.15,5,3.62,5.11,10,3.76.8-.17,1.65-.49,2.28.22a2.39,2.39,0,0,1,.19,2.09c-.19.84-.92.7-1.54.74A1.1,1.1,0,0,0,44.48,77.61Z" style="fill:#fce8ee"/><path d="M28.66,10c7.05-.55,12.83,2.52,17.91,6.86,3.41,2.92,3.87,7.48,4.36,11.64a25,25,0,0,1-3.44,16.41,20.61,20.61,0,0,0-1.39,3.79,89.57,89.57,0,0,1-9.34,9.14c-.29.24-.32.8-.48,1.21-.94-.07-1.42.78-2.17,1.1-3.14.53-6.07,1.92-9.27,2.17-1.33-.06-2.21-1-3.27-1.63C19.76,58,18,55.21,15,53.61c-2.27-1.35-3-3.55-3.26-6,1-.82.59-2,.87-3,1.18-4.31,2.88-8.56.82-13.17-1.41-3.17-.22-6.4.62-9.53a4.78,4.78,0,0,1,2.15-2.68c4.14-2.84,7.42-6.89,12.3-8.67C28.62,10.48,28.62,10.18,28.66,10ZM43.3,31.13a7.21,7.21,0,0,0-2.23-6.95,20.33,20.33,0,0,0-8.53-5.05,6.64,6.64,0,0,0-5.7.84A15.12,15.12,0,0,0,20.37,28C17.78,35.39,17,42.7,19.76,50.24c1.31,3.65,3.26,5.72,7,5.47a23.36,23.36,0,0,0,6.84-1.53,5.88,5.88,0,0,0,3.65-3.81A111.13,111.13,0,0,1,42.44,37,10.8,10.8,0,0,0,43.3,31.13Z" style="fill:#fdf0f4"/><path d="M28.66,10c0,.17,0,.47-.14.51-4.88,1.78-8.16,5.83-12.3,8.67a4.78,4.78,0,0,0-2.15,2.68c-.84,3.13-2,6.36-.62,9.53,2.06,4.61.36,8.86-.82,13.17-.28,1,.08,2.23-.87,3-1.15-2-.65-4.06.09-6a17.09,17.09,0,0,0,.45-10.39A17.09,17.09,0,0,1,23.39,11.13,14.59,14.59,0,0,1,28.66,10Z" style="fill:#fdf8fb"/><path d="M36.28,59.06c.16-.41.19-1,.48-1.21a89.57,89.57,0,0,0,9.34-9.14c-.9,3.85-4.1,5.93-6.71,8.4C38.57,57.9,37.7,59,36.28,59.06Z" style="fill:#fdf8fb"/><path d="M24.84,62.33c3.2-.25,6.13-1.64,9.27-2.17C32.2,63,28.68,63.82,24.84,62.33Z" style="fill:#fdf8fb"/><path d="M15,53.61c3,1.6,4.74,4.39,6.55,7.09A13.7,13.7,0,0,1,15,53.61Z" style="fill:#fdf8fb"/><path d="M43.3,31.13A10.8,10.8,0,0,1,42.44,37a111.13,111.13,0,0,0-5.21,13.37,5.88,5.88,0,0,1-3.65,3.81,23.36,23.36,0,0,1-6.84,1.53c-3.72.25-5.67-1.82-7-5.47-2.72-7.54-2-14.85.61-22.21A15.12,15.12,0,0,1,26.84,20a6.64,6.64,0,0,1,5.7-.84,20.33,20.33,0,0,1,8.53,5.05A7.21,7.21,0,0,1,43.3,31.13Zm-3.74.25c0-4.11-3.71-8.18-8.86-8.77-3.16-.37-6.4,2.53-7.31,6.81-.58,2.72-.89,5.51-1.26,8.28-.42,3.13-.7,6.22.41,9.33,1.57,4.41,5.15,5.35,8.63,2.19,2.91-2.64,4.17-6.31,6.18-9.51A14.09,14.09,0,0,0,39.56,31.38Z" style="fill:#fce8ee"/><path d="M39.56,31.38a14.09,14.09,0,0,1-2.21,8.33c-2,3.2-3.27,6.87-6.18,9.51-3.48,3.16-7.06,2.22-8.63-2.19-1.11-3.11-.83-6.2-.41-9.33.37-2.77.68-5.56,1.26-8.28.91-4.28,4.15-7.18,7.31-6.81C35.85,23.2,39.57,27.27,39.56,31.38Z" style="fill:#fadfe7"/></g></g></svg>