<svg xmlns="http://www.w3.org/2000/svg" viewBox="0 0 50.38 163.16"><g id="Ebene_2" data-name="Ebene 2"><g id="Ebene_1-2" data-name="Ebene 1"><path d="M20.58,141.57l.27-1.88c.63-.36.22-1.38,1-1.62,1.44,0,1.71-.08,1.78-1.26a23.4,23.4,0,0,0-.13-4.88c-1.59-10.47-1.94-20.93,0-31.4a26.28,26.28,0,0,0,0-7.87c-.9-7.47-2.51-14.84-3.06-22.36-.41-5.69-1.14-11.41.82-17,1.05-3,.17-4-3-3.44a21,21,0,0,1-9.17,0c-1.51-.4-1.7.16-1.49,1.46.55,3.4.92,6.83,1.56,10.21,1.71,9,4.74,17.69,7.64,26.37a28,28,0,0,1,.79,15.24c-1.67,7.54-.61,14.84,1.72,22.06-.27.7.12,1.79-1.14,1.9-.8-2.78-1.65-5.54-2.39-8.34-1.52-5.75-1.07-11.49.33-17.19,1.12-4.56.48-8.88-.9-13.33-3.05-9.86-7-19.48-8.43-29.79-.24-1.71-.53-3.4-.71-5.11a11.59,11.59,0,0,0-3-7.3C.16,42.94-.39,38.8.23,34.59,1.93,23,8.36,14.22,16.61,6.49a15.7,15.7,0,0,1,4-3.16c.52,0,1.05.08,1.25.7L20.13,5.54c-.47,0-.81.23-.86.74l-.15-.14.15.14a.51.51,0,0,0-.55.53l-.14-.14.14.14a.53.53,0,0,0-.55.55L18,7.22l.15.13a.52.52,0,0,0-.55.55l-.58.52h0L16.5,9h0L16,9.51v0l-.54.58-.11-.13.12.12a.55.55,0,0,0-.55.56l-.11-.13.12.12a.53.53,0,0,0-.54.56L14.22,11l.15.14a.49.49,0,0,0-.51.57c-.56,0-.72.42-.75.9l-2.28,3C6.45,21.59,3.2,28,2.3,35.42,1.15,44.85,8.9,51.11,18,47.86a16.26,16.26,0,0,1-3.21-14.81c.83-3.18,2.61-5.94,3.9-8.91,1-.21,1-1,.91-1.73a.56.56,0,0,1,.19-.47l.33-.63h0c.81.38.51,1.16.65,1.78a.51.51,0,0,1-.12.47,1,1,0,0,0-.42,1.14v0a1.09,1.09,0,0,0-.6,1.07h0a.57.57,0,0,0-.45.74c-.71,1.92-1.51,3.8-2.1,5.76-2.48,8.23,1.45,16.22,9,18.44.62.18,2-.69,1.68.84-.21,1-1.57.65-2.11.38-2.29-1.14-2.71.51-3.11,2a25.75,25.75,0,0,0-.83,9.44c.88,8.2,1.44,16.44,3.11,24.54a36.21,36.21,0,0,1,0,15.37,50.68,50.68,0,0,0-1.27,15.13c.41,5,1.14,10.07,1.72,15.11.18,1.53.75,3.47-.28,4.5-3,3-4.22,6.08-1.92,10,.19.32-.24,1-.38,1.49l-1.25-.92C20.4,146.34,21.08,143.88,20.58,141.57Z" style="fill:#353f5e"/><path d="M29.29,2A50.13,50.13,0,0,1,41.46,13c7,8.79,10.2,18.57,8.45,29.92C48,55.46,44.42,67.53,40.67,79.57c-1.56,5-3,10.08-4.29,15.17a29.22,29.22,0,0,0-.56,10.8c.8,6.7.12,13.4-1,20-.78,4.73-2.11,9.43-2.74,14.1-.8,6-1.9,12.21.2,18.27a5.54,5.54,0,0,0,1.5,2.53l-.64.57c-.52.13-1-.88-1.54-.07l0,0c.76-.43.25-1,0-1.35-2.38-3.38-2.37-7.12-1.82-11,.12-.89.37-2,0-2.68-1.22-2-.31-3.75.24-5.59A93.81,93.81,0,0,0,33.94,105,36.21,36.21,0,0,1,35,92c4.37-16,10.1-31.58,13-48,1.29-7.34.87-14.2-2.24-21C41.84,14.69,35.42,8.55,28.28,3Z" style="fill:#353f5e"/><path d="M20.58,141.57c.5,2.31-.18,4.77.9,7A20.1,20.1,0,0,1,18.71,155c-1.94,3-1.9,3.17,1.49,4.26v1.14c-1.58.27-2.85-.79-4.28-1.16-1.66-.42-1.35-1.92-.2-2.93,2.58-2.24,3.48-5.38,4.62-8.41C21.14,145.82,19.56,143.65,20.58,141.57Z" style="fill:#515b77"/><path d="M21.88,138.07c-.81.24-.4,1.26-1,1.62-1-4.17-1.05-8.52-2.67-12.55,1.26-.11.87-1.2,1.14-1.9C20.84,129.38,21.34,133.73,21.88,138.07Z" style="fill:#515b77"/><path d="M33.78,162.84c-4.24-.14-8.75,1.61-12.5-1.82l.77-.68c3.1,1.7,6.36,1.28,9.62.66l0,0c-.31,1.66.92,1,1.65,1.1Z" style="fill:#353f5e"/><path d="M29.29,2l-1,1c-1.85-1.66-3.6-1.66-5.3.25A5.42,5.42,0,0,1,21.89,4c-.2-.62-.73-.66-1.25-.7A12.34,12.34,0,0,1,25,.28C26.75-.68,28,1.09,29.29,2Z" style="fill:#515b77"/><path d="M22.05,160.34l-.77.68-1.07-.6c0-.38,0-.76,0-1.14a4.25,4.25,0,0,1,.27-.46,7.76,7.76,0,0,0,.18-4c-.12-1.15.56-2,1-3,.21-.49.05-1.55,1-1.18.63.25.41,1.08.15,1.67C21.63,154.9,21,157.55,22.05,160.34Z" style="fill:#252d4a"/><path d="M33.78,162.84l-.49-.77c0-.34-.07-.69-.11-1l.64-.57C35.18,161.28,34.91,162.07,33.78,162.84Z" style="fill:#515b77"/><path d="M20.47,158.82a4.25,4.25,0,0,0-.27.46c-3.39-1.09-3.43-1.29-1.49-4.26a20.1,20.1,0,0,0,2.77-6.45l1.25.92c.14-.5.57-1.17.38-1.49-2.3-3.94-1.1-7,1.92-10,1-1,.46-3,.28-4.5-.58-5-1.31-10.06-1.72-15.11a50.68,50.68,0,0,1,1.27-15.13,36.21,36.21,0,0,0,0-15.37c-1.67-8.1-2.23-16.34-3.11-24.54a25.75,25.75,0,0,1,.83-9.44c.4-1.47.82-3.12,3.11-2,.54.27,1.9.61,2.11-.38.33-1.53-1.06-.66-1.68-.84-7.53-2.22-11.46-10.21-9-18.44.59-2,1.39-3.84,2.1-5.76l.45-.74h0c.57-.15.6-.6.6-1.07v0a1.17,1.17,0,0,0,.42-1.14.51.51,0,0,0,.12-.47c1.36-2.92,1.31-3.92-.25-5.19-.05.07-.13.15-.13.23-.1,1.06-.18,2.12-.27,3.18h0l-.33.63a.56.56,0,0,0-.19.47l-.91,1.73c-1.29,3-3.07,5.73-3.9,8.91A16.26,16.26,0,0,0,18,47.86C8.9,51.11,1.15,44.85,2.3,35.42,3.2,28,6.45,21.59,10.83,15.69l2.28-3a1.14,1.14,0,0,0,.75-.9l.51-.57L14.22,11l.14.14.54-.56-.12-.12.11.13.55-.56-.12-.12.11.13L16,9.49v0L16.52,9h0l.56-.55h0l.58-.52c.18-.18.36-.37.55-.55L18,7.22l.14.14.55-.55-.14-.14.14.14.55-.53-.15-.14.15.14.86-.74L21.89,4A5.42,5.42,0,0,0,23,3.27c1.7-1.91,3.45-1.91,5.3-.25C35.42,8.55,41.84,14.69,45.7,23.08c3.11,6.75,3.53,13.61,2.24,21-2.87,16.41-8.6,32-13,48a36.21,36.21,0,0,0-1,12.94,93.81,93.81,0,0,1-3.86,35.44c-.55,1.84-1.46,3.59-.24,5.59.4.66.15,1.79,0,2.68-.55,3.86-.56,7.6,1.82,11,.23.33.74.92,0,1.35-3.26.62-6.52,1-9.62-.66-1-2.79-.42-5.44.74-8,.26-.59.48-1.42-.15-1.67-.94-.37-.78.69-1,1.18-.44,1-1.12,1.86-1,3A5.63,5.63,0,0,0,20.47,158.82Z" style="fill:#f6dbe4"/><path d="M21.88,138.07c-.54-4.34-1-8.69-2.56-12.83C17,118,15.93,110.72,17.6,103.18a28,28,0,0,0-.79-15.24c-2.9-8.68-5.93-17.34-7.64-26.37-.64-3.38-1-6.81-1.56-10.21-.21-1.3,0-1.86,1.49-1.46a21,21,0,0,0,9.17,0c3.21-.59,4.09.48,3,3.44-2,5.57-1.23,11.29-.82,17,.55,7.52,2.16,14.89,3.06,22.36a26.28,26.28,0,0,1,0,7.87c-1.94,10.47-1.59,20.93,0,31.4a23.4,23.4,0,0,1,.13,4.88C23.59,138,23.32,138.07,21.88,138.07Z" style="fill:#f6dbe4"/><path d="M20.14,21.31c.09-1.06.17-2.12.27-3.18,0-.08.08-.16.13-.23,1.56,1.27,1.61,2.27.25,5.19C20.65,22.47,21,21.69,20.14,21.31Z" style="fill:#515b77"/><path d="M18.72,24.14l.91-1.73C19.68,23.17,19.72,23.93,18.72,24.14Z" style="fill:#515b77"/><path d="M20.26,24.68c0,.47,0,.92-.6,1.07A1.09,1.09,0,0,1,20.26,24.68Z" style="fill:#515b77"/><path d="M20.13,5.54l-.86.74C19.32,5.77,19.66,5.59,20.13,5.54Z" style="fill:#515b77"/><path d="M20.67,23.56a1.17,1.17,0,0,1-.42,1.14A1,1,0,0,1,20.67,23.56Z" style="fill:#515b77"/><path d="M13.86,11.74a1.14,1.14,0,0,1-.75.9C13.14,12.16,13.3,11.79,13.86,11.74Z" style="fill:#515b77"/><path d="M16,9.49l-.54.58Z" style="fill:#515b77"/><path d="M14.37,11.17l-.52.57A.5.5,0,0,1,14.37,11.17Z" style="fill:#515b77"/><path d="M17.06,8.41,16.5,9Z" style="fill:#515b77"/><path d="M17.63,7.89l-.58.53Z" style="fill:#515b77"/><path d="M19.82,21.94l.33-.63Z" style="fill:#515b77"/><path d="M18.18,7.35c-.19.18-.37.37-.55.55A.52.52,0,0,1,18.18,7.35Z" style="fill:#515b77"/><path d="M16.52,9,16,9.51Z" style="fill:#515b77"/><path d="M19.27,6.28l-.55.53A.51.51,0,0,1,19.27,6.28Z" style="fill:#515b77"/><path d="M19.67,25.75l-.45.74A.57.57,0,0,1,19.67,25.75Z" style="fill:#515b77"/><path d="M14.9,10.61l-.54.56A.53.53,0,0,1,14.9,10.61Z" style="fill:#515b77"/><path d="M15.44,10.06l-.55.56A.55.55,0,0,1,15.44,10.06Z" style="fill:#515b77"/><path d="M18.72,6.81l-.55.55A.53.53,0,0,1,18.72,6.81Z" style="fill:#515b77"/><path d="M33.18,161c0,.34.08.69.11,1-.73-.09-2,.56-1.65-1.1C32.19,160.16,32.66,161.17,33.18,161Z" style="fill:#f6dbe4"/><path d="M20.47,158.82a5.63,5.63,0,0,1,.18-4A7.76,7.76,0,0,1,20.47,158.82Z" style="fill:#515b77"/></g></g></svg>