<svg xmlns="http://www.w3.org/2000/svg" viewBox="0 0 84.34 56.12">
    <g>
        <path d="M0,38c.14-8.83,3.68-16,11.49-20.19,5.35-2.85,9.76-6.14,12.94-11.43A13.21,13.21,0,0,1,35.28,0c2.12-.15,3,.6,2,2.65-.58,1.16-.82,2.25,0,3.29s1.91.43,3,.2c4-.83,5.41.22,5.42,4.19,0,2.51,1.3,3.46,3.56,3.89,4,.76,4.75,1.67,5.12,5.4a5.39,5.39,0,0,0,8,3.89c2.84-1.68,3.22-3.38,1.53-6.25A12.26,12.26,0,0,1,62,9.75c.27-2.74,1.85-4.36,4.51-5.1,2.3-.63,3.8.15,4.9,2.17C72,7.91,73,8.05,74.21,7.89c1.87-.23,3.78-.38,5.53.74,2.15,1.37,3,3.79,1.48,5.72-1.12,1.46-.66,2.12.53,3,1.77,1.36,3.39,2.9,2.16,5.44-.94,2-4.22,3.32-6.57,2.7a13.3,13.3,0,0,1-4.79-2.45c-1.25-1-1.78-.78-2,.89a39.35,39.35,0,0,1-7.31,19A29.5,29.5,0,0,1,40.71,55.76a83.74,83.74,0,0,1-23.77-1.13c-6.28-1.28-11.81-4-15.13-10A12.93,12.93,0,0,1,0,38Zm2.23-6.13C-1.18,43.58,6.28,50.47,14.05,52.38a82.54,82.54,0,0,0,26.14,1.93,28.65,28.65,0,0,0,16.34-6.48c8.84-7.24,12.25-17.14,13.06-28.16,0-.7.53-1.87-.52-2.08a2,2,0,0,0-2.22,1.59,9.56,9.56,0,0,1-.39,1c-2.18,5-5.39,6.27-10.41,4.31a34.87,34.87,0,0,1-7-3.62,42.27,42.27,0,0,0-18-7.22c-7.59-1-14.2,1.86-20.32,6.07-1.32.91-3.45,1.71-.84,3.64.33.24.33,1,.38,1.53C10.77,29.85,6.94,33.11,2.23,31.83Zm71-13.09c-1.56.63-3.58,1.37-2,2.23,1.84,1,3.48,2.63,5.69,3s4.49.54,5.66-1.49-.78-3.4-2.3-4.54-1.91-2.23-.6-3.86c1.62-2,.7-4.25-1.92-4.67a17.79,17.79,0,0,0-4.06,0,2.9,2.9,0,0,1-3.17-1.58C69.73,5.9,68.37,5.54,66.6,6a4.17,4.17,0,0,0-3.36,3.79A11.18,11.18,0,0,0,65,17c.27.47.62,1.11,1.16.94s.8-.84.68-1.58c-.27-1.71-.72-3.45.22-5.12.24.32.15.72.32.93,1,1.21-1.88,5,2.57,3.85a1.82,1.82,0,0,1,.21.72C70,18.65,71.49,18.5,73.23,18.74ZM42,12.15c-1.24.79-2.7.89-3.55,2.36,4.21.34,7.2,4.12,11.67,3.35l-2.33.63,4.73,3.06c.72-4.7.37-5.23-3.86-6.14-3.32-.72-4.39-1.81-4.23-5.18.12-2.64-1-3.17-3.24-2.71-.7.15-1.43.19-2.15.3-1.69.23-2.55-.52-3.33-2.06-.87-1.73.65-2.89.53-4.36-5.71-.58-11.32,4-14.85,11.79,2.8-1.57,6.36,0,8.35-2.9,1.11.45-.26,1.62.41,1.58,2.94-.19,5.6,3.08,8.72.63A2.48,2.48,0,0,1,42,12.15ZM9.51,24.74a1,1,0,0,0-1-1.08A1.39,1.39,0,0,0,7,24.94c-.12.64.45,1,1,1.07C9,26.2,9.15,25.34,9.51,24.74Z"
              style="fill:#2b3754"/>
        <path d="M2.23,31.83c4.71,1.28,8.54-2,8.13-6.93,0-.53,0-1.29-.38-1.53-2.61-1.93-.48-2.73.84-3.64,6.12-4.21,12.73-7.1,20.32-6.07a42.27,42.27,0,0,1,18,7.22,34.87,34.87,0,0,0,7,3.62c5,2,8.23.65,10.41-4.31a9.56,9.56,0,0,0,.39-1,2,2,0,0,1,2.22-1.59c1.05.21.57,1.38.52,2.08-.81,11-4.22,20.92-13.06,28.16a28.65,28.65,0,0,1-16.34,6.48,82.54,82.54,0,0,1-26.14-1.93C6.28,50.47-1.18,43.58,2.23,31.83Zm30.41-3.6a5.88,5.88,0,0,0-6.11-5.85c-3.68.05-7.13,3.72-7,7.5a6.15,6.15,0,0,0,6.1,6C29.28,35.75,32.72,32,32.64,28.23Zm17.26-.79a17.07,17.07,0,0,0-5.82,1.41c-1.32.59-1.82.93-.45,2.33,3,3,2.77,3.39-1.22,5.42-.71.36-2,.47-1.59,1.74,1,3,2,6.06,4.76,7.94a3.2,3.2,0,0,0,3.58.36c1.15-.69,1.18-1.88,1-3.12-.11-.8-.53-1.62.9-2.08,3.35-1,3.67-2.1,1.4-4.66-1.59-1.79-1.81-3,.59-4,.93-.42,2.19-.77,2-2.23a3,3,0,0,0-2.32-2.38C51.68,27.8,50.62,27.61,49.9,27.44ZM19.44,38.59c-2.72,1.08-4.18,0-5.56-1.29-.51-.48-1.12-1.36-1.75-.67-1.29,1.4-3,1.23-4.67,1.3.43,1.38,1.4,1.7,2.17,1.25,2.1-1.23,3.72-.45,5.52.71C16.44,40.71,18,41,19.44,38.59Z"
              style="fill:#c3e4ed"/>
        <path d="M73.23,18.74c-1.74-.24-3.24-.09-3-2A1.82,1.82,0,0,0,70,16c-4.45,1.14-1.62-2.64-2.57-3.85-.17-.21-.08-.61-.32-.93-.94,1.67-.49,3.41-.22,5.12.12.74,0,1.38-.68,1.58S65.31,17.42,65,17a11.18,11.18,0,0,1-1.8-7.21A4.17,4.17,0,0,1,66.6,6c1.77-.41,3.13,0,3.93,1.87A2.9,2.9,0,0,0,73.7,9.4a17.79,17.79,0,0,1,4.06,0c2.62.42,3.54,2.64,1.92,4.67-1.31,1.63-.88,2.76.6,3.86s3.54,2.38,2.3,4.54S79,24.26,76.92,23.94s-3.85-2-5.69-3C69.65,20.11,71.67,19.37,73.23,18.74Z"
              style="fill:#d4a6cd"/>
        <path d="M42,12.15a2.48,2.48,0,0,0-3.13.35c-3.12,2.45-5.78-.82-8.72-.63-.67,0,.7-1.13-.41-1.58-2,2.9-5.55,1.33-8.35,2.9C24.92,5.44,30.53.82,36.24,1.4c.12,1.47-1.4,2.63-.53,4.36C36.49,7.3,37.35,8.05,39,7.82c.72-.11,1.45-.15,2.15-.3,2.24-.46,3.36.07,3.24,2.71-.16,3.37.91,4.46,4.23,5.18,4.23.91,4.58,1.44,3.86,6.14l-4.73-3.06,2.33-.63c-4.47.77-7.46-3-11.67-3.35C39.3,13,40.76,12.94,42,12.15ZM32.56,8.07c-1.23.36-1.75.82-1.86,1.88A2,2,0,0,0,32.56,8.07Z"
              style="fill:#d4a6cd"/>
        <path d="M9.51,24.74C9.15,25.34,9,26.2,8,26c-.54-.11-1.11-.43-1-1.07a1.39,1.39,0,0,1,1.49-1.28A1,1,0,0,1,9.51,24.74Z"
              style="fill:#c3e4ed"/>
        <path d="M32.64,28.23c.08,3.79-3.36,7.52-7,7.64a6.15,6.15,0,0,1-6.1-6c-.09-3.78,3.36-7.45,7-7.5A5.88,5.88,0,0,1,32.64,28.23Zm-4.06-3.11A1.8,1.8,0,0,0,26.84,27a1.58,1.58,0,0,0,1.72,1.42,1.47,1.47,0,0,0,1.61-1.74A1.61,1.61,0,0,0,28.58,25.12Z"
              style="fill:#202845"/>
        <path d="M49.9,27.44c.72.17,1.78.36,2.8.7A3,3,0,0,1,55,30.52c.22,1.46-1,1.81-2,2.23-2.4,1.08-2.18,2.24-.59,4,2.27,2.56,1.95,3.61-1.4,4.66-1.43.46-1,1.28-.9,2.08.18,1.24.15,2.43-1,3.12a3.2,3.2,0,0,1-3.58-.36c-2.81-1.88-3.74-5-4.76-7.94-.44-1.27.88-1.38,1.59-1.74,4-2,4.19-2.38,1.22-5.42-1.37-1.4-.87-1.74.45-2.33A17.07,17.07,0,0,1,49.9,27.44Zm-.72,3.41c-.2,1.68-2.8.42-2.58,2.47.16,1.46,1.76,1.86,2.32,3.17-3.42-1.05-4.08-.68-4,2.1-.92.31-.84-1.82-2.1-.84-.47.38-.8.61-.56,1.29.8,2.22,1.68,4.41,3.52,6a2.28,2.28,0,0,0,2.49.64c.95-.45.73-1.44.59-2.18-.38-2,.22-3.06,2.37-3.33,1.63-.2,1.47-1.15.67-2.31-2.78-4-2.75-4,1.48-6.58.27-.16.73-.23.55-.92a5.54,5.54,0,0,0-5.75-1.76c-1.31.31-3.83.49-3.48,1.88.53,2.13,2.47.49,3.83.22C48.72,30.66,48.9,30.78,49.18,30.85Z"
              style="fill:#2b3754"/>
        <path d="M19.44,38.59c-1.46,2.45-3,2.12-4.29,1.3-1.8-1.16-3.42-1.94-5.52-.71-.77.45-1.74.13-2.17-1.25,1.71-.07,3.38.1,4.67-1.3.63-.69,1.24.19,1.75.67C15.26,38.59,16.72,39.67,19.44,38.59Z"
              style="fill:#2b3754"/>
        <path d="M32.56,8.07A2,2,0,0,1,30.7,10C30.81,8.89,31.33,8.43,32.56,8.07Z" style="fill:#2b3754"/>
        <path d="M28.58,25.12a1.61,1.61,0,0,1,1.59,1.51,1.47,1.47,0,0,1-1.61,1.74A1.58,1.58,0,0,1,26.84,27,1.8,1.8,0,0,1,28.58,25.12Z"
              style="fill:#fff"/>
        <path d="M49.18,30.85c-.28-.07-.46-.19-.61-.16-1.36.27-3.3,1.91-3.83-.22-.35-1.39,2.17-1.57,3.48-1.88A5.54,5.54,0,0,1,54,30.35c.18.69-.28.76-.55.92-4.23,2.54-4.26,2.56-1.48,6.58.8,1.16,1,2.11-.67,2.31-2.15.27-2.75,1.32-2.37,3.33.14.74.36,1.73-.59,2.18A2.28,2.28,0,0,1,45.82,45C44,43.45,43.1,41.26,42.3,39c-.24-.68.09-.91.56-1.29,1.26-1,1.18,1.15,2.1.84-.12-2.78.54-3.15,4-2.1-.56-1.31-2.16-1.71-2.32-3.17C46.38,31.27,49,32.53,49.18,30.85Z"
              style="fill:#d4a6cd"/>
    </g>
</svg>