<svg xmlns="http://www.w3.org/2000/svg" viewBox="0 0 66.11 104.27">
    <g>
        <path d="M49.05,100.29c-.14-.11-.36-.21-.4-.35-1.06-3.77-3.7-3.8-7.13-3.89-14-.34-23.14-10.27-23.31-24.31-.07-5.78,1.38-11.18,3-16.6.1-.35.26-.67.34-1,.46-2,1.6-4.16,1.2-6-.63-2.83-3.42-.84-5.2-1.21-8.66-1.8-14.68-6.42-17-15.18-1.91-7.34,1-16.55,7.66-21.1A33.72,33.72,0,0,1,27.57,4.45a6.09,6.09,0,0,0,2.77-.86c6-2.92,12.25-4.57,19-3a12.91,12.91,0,0,1,3.22,1.26c2.76,1.54,3,2.74,1.11,5.34s-1.64,3.5.93,5.49a38.32,38.32,0,0,1,4.32,3.72c1.88,2,2.64,4.48,1.12,6.87-1.31,2.05-.93,3.61.18,5.44s2,3.74.43,5.51c-3.58,4.07-4.19,9.12-5.29,14.08a35.11,35.11,0,0,1-10,17.54,27.83,27.83,0,0,0-7.86,15c-.81,4.37.83,8.47,5.32,10,2,.67,3,.13,3.28-2A72.69,72.69,0,0,1,47.73,81c.35-1.33.75-2.77,2.11-3.57l.44.43c-2.73,4-2.65,8.62-3.65,13,3.48-.15,3-4.14,6-5.48l-1.85,3.08c2.21,1.92,4.89-.63,7.24,1.45-3.78-1.27-4.72,2.2-6.79,3.74,1.22.39,2.66.34,3.72,1.92-1.58-.42-2.85-.76-4.12-1.08a3.11,3.11,0,0,0-2.69.92c-1,.75.14,1.47.26,2.18a7.1,7.1,0,0,0,1.12,2.09ZM40.1,55.69c1.08-1.9,2.33-2.86,4.43-1.14,1.26,1,2.37.64,2.82-1a4,4,0,0,1,2.83-2.84c2.81-1,3.3-3.24,1.23-5.39a13.84,13.84,0,0,0-4.86-3.28c-.43-.17-.86-.76-1.32,0-.57,1,.29,1,.78,1.27a4.22,4.22,0,0,1,2.49,2.57,11.84,11.84,0,0,0-4.64-2.24l.89-4c1.88,1.15,3.58,2.28,5.36,3.27,2,1.1,3,2.91,3.87,5.11a36.71,36.71,0,0,0,.25-18.92C49.3,8.6,27.52-.32,10.14,10.87A18.68,18.68,0,0,0,2,32.61c2.72,9.2,12.59,14.7,21.25,12.82,4.37-1,7.77-3.28,11.26-5.75a12,12,0,0,1-7.29,5.65c-2.41.78-4.11,1.64-3.57,4.7.2,1.13-.48,2.42-.81,3.62-1.62,5.87-3.56,11.64-3.51,17.87.12,13.63,9.11,23.25,22.59,23.76,4.31.16,7.84-1.68,10.81-4.94-1.62-.72-2.63.12-3.68.77-5.56,3.47-12.74-1-12.85-7.53s2.66-11.93,6.67-16.77,8.08-9.25,10-15.28A.93.93,0,0,0,53,50.42l-.73.48c-1.86.88-3.88,1.42-4.54,3.88-.42,1.54-2.13,1.42-3.14.83C43,54.65,41.6,55.08,40.1,55.69ZM56,19.17c-2,.11-3.17-1.25-5-1a34.64,34.64,0,0,1,5.74,19.05c3.42-3.17,3.81-5.05,1.95-8.45-1.06-1.93-1.41-3.68-.07-5.74a4.58,4.58,0,0,0-.73-5.93A30.4,30.4,0,0,0,54.18,14C50.19,11,50,9.94,53,6c.77-1,.64-1.49-.19-2.21A8.67,8.67,0,0,0,50,2.22c-6.79-2.41-13-.32-19.25,2.43,2.05.62,3.9,1,5.63,1.74a3.58,3.58,0,0,0,3.66-.32C41.9,5,43.81,3.7,46.6,4,44.14,5.45,41.67,6,39.66,7.58c1.53,1.06,3,2,4.46,3.11,3.56,2.66,5.85,7.07,10.82,7.81C55.33,18.55,55.68,18.94,56,19.17Z"
              style="fill:#222a47"/>
        <path d="M49.84,77.43a6.29,6.29,0,0,1,7.5-1.1c1.81.89,2,2.4,1.77,4a12,12,0,0,1-.92,2.5c-.51,1.33-.7,2.34,1.37,2.28a7.44,7.44,0,0,1,4.72,1.59c2.62,2,2.41,4.41-.5,6.08a7.57,7.57,0,0,1-1.15.63c-2.19.81-2.3,2.24-1.11,4s1.68,3.36.11,5.09l-.38-.56A3.78,3.78,0,0,0,61,98.42c-2.08-4-2.06-4.11,1.7-6.14C63.79,91.69,65,91,65,89.86c0-1.43-1.28-2.31-2.51-3a7.11,7.11,0,0,0-2-.66c-4.17-.72-4.26-.8-2.83-4.62.53-1.42,1-2.79-.22-4a4.23,4.23,0,0,0-4.71-1,25.31,25.31,0,0,0-2.39,1.19Z"
              style="fill:#222a47"/>
        <path d="M61.63,102.49c-2.82,2.79-8.39,2.48-12.58-2.2l.43-.58c3.58,2.55,7.2,4.9,11.77,2.22Z"
              style="fill:#222a47"/>
        <path d="M52.86,51.53c-1.9,6-6.07,10.56-10,15.28S36.11,77,36.21,83.58s7.29,11,12.85,7.53c1-.65,2.06-1.49,3.68-.77-3,3.26-6.5,5.1-10.81,4.94-13.48-.51-22.47-10.13-22.59-23.76-.05-6.23,1.89-12,3.51-17.87.33-1.2,1-2.49.81-3.62-.54-3.06,1.16-3.92,3.57-4.7a12,12,0,0,0,7.29-5.65c-3.49,2.47-6.89,4.8-11.26,5.75C14.6,47.31,4.73,41.81,2,32.61a18.68,18.68,0,0,1,8.13-21.74C27.52-.32,49.3,8.6,54.23,29.13A36.71,36.71,0,0,1,54,48.05c-.82-2.2-1.87-4-3.87-5.11-1.78-1-3.48-2.12-5.36-3.27-.33,1.47-.61,2.74-.89,4l0,0c-2.38,1.62-4.27.11-6.47-1.36.23,3.78-1.54,6.65-2.53,9.74a5,5,0,0,0,.51,4.61,2.5,2.5,0,0,0,2.81,1.12c.67-.24,2.16-.33,1.35-1.84l.54-.23c1.5-.61,2.89-1,4.53-.08,1,.59,2.72.71,3.14-.83.66-2.46,2.68-3,4.54-3.88ZM19.75,24.39a5.44,5.44,0,0,0,5.3,5.67,5.4,5.4,0,0,0,5.23-5.67c-.06-3-2.87-5.9-5.66-5.79S19.73,21.3,19.75,24.39Zm-7.48-.94c0-2.51-2.5-5.2-4.89-5.26s-4.84,2.56-4.91,5.18,2.46,5.44,5,5.38C9.84,28.7,12.26,26,12.27,23.45Zm-1.46,9.87c.68,1.44,1.68,2,2.54,1.56a5.76,5.76,0,0,1,4.17-.53c1.62.31,2.64-.58,2.53-3.11-1.31,2.15-2.42,2.83-3.9,1.28-.39-.4-.86-1-1.27-.28C14,33.76,12.6,33.79,10.81,33.32Z"
              style="fill:#c3e4ed"/>
        <path d="M61.25,101.93c-4.57,2.68-8.19.33-11.77-2.22a7.1,7.1,0,0,1-1.12-2.09c-.12-.71-1.22-1.43-.26-2.18a3.11,3.11,0,0,1,2.69-.92c1.27.32,2.54.66,4.12,1.08-1.06-1.58-2.5-1.53-3.72-1.92,2.07-1.54,3-5,6.79-3.74-2.35-2.08-5,.47-7.24-1.45l1.85-3.08c-2.91,1.34-2.48,5.33-6,5.48,1-4.41.92-9.08,3.65-13a25.31,25.31,0,0,1,2.39-1.19,4.23,4.23,0,0,1,4.71,1c1.2,1.19.75,2.56.22,4-1.43,3.82-1.34,3.9,2.83,4.62a7.11,7.11,0,0,1,2,.66c1.23.64,2.5,1.52,2.51,3,0,1.18-1.18,1.83-2.27,2.42-3.76,2-3.78,2.16-1.7,6.14A3.78,3.78,0,0,1,61.25,101.93Z"
              style="fill:#d4a6cd"/>
        <path d="M56,19.17c-.36-.23-.71-.62-1.1-.67-5-.74-7.26-5.15-10.82-7.81-1.43-1.07-2.93-2-4.46-3.11C41.67,6,44.14,5.45,46.6,4c-2.79-.34-4.7.92-6.52,2a3.58,3.58,0,0,1-3.66.32c-1.73-.71-3.58-1.12-5.63-1.74C37.08,1.9,43.25-.19,50,2.22a8.67,8.67,0,0,1,2.81,1.54c.83.72,1,1.21.19,2.21-3.07,4-2.85,5,1.14,8.05a30.4,30.4,0,0,1,3.74,3.13,4.58,4.58,0,0,1,.73,5.93c-1.34,2.06-1,3.81.07,5.74,1.86,3.4,1.47,5.28-1.95,8.45A34.64,34.64,0,0,0,51,18.22C52.87,17.92,54.06,19.28,56,19.17ZM57.9,30.71l-.67-.31c0,.14-.18.38-.15.41a3.34,3.34,0,0,0,.62.33Z"
              style="fill:#d4a6cd"/>
        <path d="M40.1,55.69l-.54.23c-.89.65-1.79,1.32-2.9.44-1.48-1.18-1.09-2.83-.76-4.25.53-2.3,2.13-4.3,2.08-6.83,0-.48.29-1.1,1-.73.46.23.74.39.6,1.16a49.83,49.83,0,0,0-.45,5.62c1.44-1.41.6-3.19,1.37-4.53.31-.52-.2-1.44,1-1.46s1.56.8,1.7,1.64c.18,1.14,0,2.35,1.13,3.28.22-2.3-1-4.39-.52-6.61l0,0a11.84,11.84,0,0,1,4.64,2.24A4.22,4.22,0,0,0,46,43.34c-.49-.27-1.35-.32-.78-1.27.46-.78.89-.19,1.32,0a13.84,13.84,0,0,1,4.86,3.28c2.07,2.15,1.58,4.42-1.23,5.39a4,4,0,0,0-2.83,2.84c-.45,1.63-1.56,2-2.82,1C42.43,52.83,41.18,53.79,40.1,55.69Z"
              style="fill:#d4a6cd"/>
        <path d="M52.31,50.9l.73-.48a.93.93,0,0,1-.18,1.11Z" style="fill:#c3e4ed"/>
        <path d="M19.75,24.39c0-3.09,2.16-5.69,4.87-5.79s5.6,2.77,5.66,5.79a5.4,5.4,0,0,1-5.23,5.67A5.44,5.44,0,0,1,19.75,24.39Zm7,.2c.93,0,1.64-.36,1.81-1.28s-.49-1.44-1.39-1.56A1.41,1.41,0,0,0,25.47,23,1.33,1.33,0,0,0,26.79,24.59Z"
              style="fill:#202845"/>
        <path d="M12.27,23.45c0,2.58-2.43,5.25-4.81,5.3-2.53.06-5.06-2.67-5-5.38S5,18.12,7.38,18.19,12.28,20.94,12.27,23.45ZM9.62,21c-.67.15-1.19.41-1.16,1.23,0,.57.08,1.19.78,1.2a1.32,1.32,0,0,0,1.37-1.37C10.67,21.39,10.16,21.18,9.62,21Z"
              style="fill:#202845"/>
        <path d="M43.89,43.65c-.53,2.22.74,4.31.52,6.61-1.14-.93-.95-2.14-1.13-3.28-.14-.84-.45-1.66-1.7-1.64s-.73.94-1,1.46c-.77,1.34.07,3.12-1.37,4.53a49.83,49.83,0,0,1,.45-5.62c.14-.77-.14-.93-.6-1.16-.75-.37-1.05.25-1,.73.05,2.53-1.55,4.53-2.08,6.83-.33,1.42-.72,3.07.76,4.25,1.11.88,2,.21,2.9-.44.81,1.51-.68,1.6-1.35,1.84a2.5,2.5,0,0,1-2.81-1.12A5,5,0,0,1,34.89,52c1-3.09,2.76-6,2.53-9.74C39.62,43.76,41.51,45.27,43.89,43.65Z"
              style="fill:#222a47"/>
        <path d="M10.81,33.32c1.79.47,3.16.44,4.07-1.08.41-.68.88-.12,1.27.28,1.48,1.55,2.59.87,3.9-1.28.11,2.53-.91,3.42-2.53,3.11a5.76,5.76,0,0,0-4.17.53C12.49,35.35,11.49,34.76,10.81,33.32Z"
              style="fill:#222a47"/>
        <path d="M57.9,30.71l-.2.43a3.34,3.34,0,0,1-.62-.33s.1-.27.15-.41Z" style="fill:#222a47"/>
        <path d="M26.79,24.59A1.33,1.33,0,0,1,25.47,23a1.41,1.41,0,0,1,1.74-1.24c.9.12,1.58.54,1.39,1.56S27.72,24.58,26.79,24.59Z"
              style="fill:#fff"/>
        <path d="M9.62,21c.54.16,1.05.37,1,1.06a1.32,1.32,0,0,1-1.37,1.37c-.7,0-.76-.63-.78-1.2C8.43,21.43,9,21.17,9.62,21Z"
              style="fill:#fff"/>
    </g>
</svg>