<svg xmlns="http://www.w3.org/2000/svg" viewBox="0 0 51.2 51.19"><defs><style>.cls-1{fill:#462826;}.cls-2{fill:#f6b9b5;}.cls-3{fill:#f4b7b3;}.cls-4{fill:#c93d6f;}</style></defs><g id="Ebene_2" data-name="Ebene 2"><g id="bell3"><path class="cls-1" d="M8.17,0c-.1,10.8,4.21,20.11,10.09,28.77,1.59,2.34,4,4.09,6.08,6.14,1.08,1.08,1.92.54,2.26-.54,1.33-4.28,4.16-7.31,7.46-10.22,2-1.79,2.66-4.8,3.61-7.41C39.63,11.33,42.12,6,41.39,0h.55c.9.69,1.81,1.37,2.69,2.08C47.71,4.54,48,5.75,47,9.56a77.41,77.41,0,0,1-4.54,11.86c.15.14.21.24.28.25,4.48.45,8,2,8.49,7.19v7.08c-1.08,2.08-1.35,4.46-2.68,6.47-2.31,3.49-4,4.49-7.33,3.77-2.8-.6-5.69-.83-8.45-2.26-.14,3.92-2.45,5.89-5.51,7.27H24.51c-3.11-1.29-5.57-3.11-5.6-7.1a21.47,21.47,0,0,1-6.77,3c-5.93,1.39-9-.19-11-5.91C-.13,37.84.06,34.34,0,30.81c0-2.3.9-3,2.83-3.72S6.89,27,9,26.43A63.54,63.54,0,0,1,3.23,14C.56,5.33.55,5.28,7.62,0ZM27.7,35.26c3.44-2.08,6.05-4.61,9.87-4.25-3.13,1.5-6.57,2.51-8.45,5.82,2.24.67,4.61-.63,6.91,1.4H29.86c2,4,5.33,5.52,9.4,6.27,4.45.83,7.15-.37,9-4.58,1.69-3.94,1.32-8,1.15-12.18-.14-3.51-2.42-3.94-4.79-4.24a16.09,16.09,0,0,0-8.47,1.21C31.78,26.59,29.59,30.38,27.7,35.26ZM21.89,37.7A19.52,19.52,0,0,0,8,35.2c2.62-2.18,4.4-2.08,14.3.39a42.72,42.72,0,0,0-3.18-3.13c-4.52-4.45-10-5.26-15.9-4.07-.68.13-1.49.35-1.6,1.49-.44,4.62-.15,9,2,13.36,1.31,2.68,3.31,2.95,5.68,2.94a8.69,8.69,0,0,0,3.18-.49c2.64-1.11,5.63-1.75,7.45-4.67-2.38-.64-4.33,1.75-6.89.2C16.31,40.32,19.18,39.52,21.89,37.7Zm-6.5-9.91C10.73,19.67,7.2,11.57,7,2.08,5.83,3.16,4.92,4.13,3.89,4.94A2.63,2.63,0,0,0,2.89,8,68.75,68.75,0,0,0,9.61,24.52C10.86,26.74,12.58,27.62,15.39,27.79ZM25.48,40.71c-1.16-.14-.82-2.3-2.32-1.34-1.88,1.18-3.12,2.94-2.82,5.17a4.83,4.83,0,0,0,3.94,4.55,2.59,2.59,0,0,0-1.11-2.18c-.5-.43-1-.82-.69-1.57a1.13,1.13,0,0,1,1.1-.65c1.17,0,.88.89,1,1.55a3,3,0,0,0,2.06,2.61c.74.21,1.54-.58,2.18-1.28.94-1-.84-3.8,2.2-3.43,0-.27.13-.6,0-.8C30.3,42,30,40.48,28.51,39.66c-.39-.23-.85-.64-1.15-.14-1.34,2.32-.92-1-1.65-.49ZM37,22.62c2.56.28,3.83-1,4.64-3.1,1.25-3.25,2.65-6.43,3.84-9.69C47,5.91,46.56,5.06,42.65,2.67,42.44,9.8,39.75,16.19,37,22.62Z"/><path class="cls-2" d="M27.7,35.26c1.89-4.88,4.08-8.67,8.42-10.55a16.09,16.09,0,0,1,8.47-1.21c2.37.3,4.65.73,4.79,4.24.17,4.16.54,8.24-1.15,12.18-1.82,4.21-4.52,5.41-9,4.58-4.07-.75-7.43-2.31-9.4-6.27H36c-2.3-2-4.67-.73-6.91-1.4C31,33.52,34.44,32.51,37.57,31,33.75,30.65,31.14,33.18,27.7,35.26Z"/><path class="cls-3" d="M21.89,37.7c-2.71,1.82-5.58,2.62-8.91,3.52,2.56,1.55,4.51-.84,6.89-.2-1.82,2.92-4.81,3.56-7.45,4.67a8.69,8.69,0,0,1-3.18.49c-2.37,0-4.37-.26-5.68-2.94-2.1-4.33-2.39-8.74-1.95-13.36.11-1.14.92-1.36,1.6-1.49,5.93-1.19,11.38-.38,15.9,4.07a42.72,42.72,0,0,1,3.18,3.13C12.39,33.12,10.61,33,8,35.2A19.52,19.52,0,0,1,21.89,37.7Z"/><path class="cls-3" d="M15.39,27.79c-2.81-.17-4.53-1.05-5.78-3.27A68.75,68.75,0,0,1,2.89,8a2.63,2.63,0,0,1,1-3.06c1-.81,1.94-1.78,3.1-2.86C7.2,11.57,10.73,19.67,15.39,27.79Z"/><path class="cls-4" d="M25.48,40.71,25.71,39c.73-.46.31,2.81,1.65.49.3-.5.76-.09,1.15.14C30,40.48,30.3,42,31,43.34c.1.2,0,.53,0,.8-3-.37-1.26,2.39-2.2,3.43-.64.7-1.44,1.49-2.18,1.28a3,3,0,0,1-2.06-2.61c-.08-.66.21-1.55-1-1.55a1.13,1.13,0,0,0-1.1.65c-.34.75.19,1.14.69,1.57a2.59,2.59,0,0,1,1.11,2.18,4.83,4.83,0,0,1-3.94-4.55c-.3-2.23.94-4,2.82-5.17C24.66,38.41,24.32,40.57,25.48,40.71Z"/><path class="cls-3" d="M37,22.62c2.72-6.43,5.41-12.82,5.62-20,3.91,2.39,4.3,3.24,2.86,7.16-1.19,3.26-2.59,6.44-3.84,9.69C40.86,21.6,39.59,22.9,37,22.62Z"/></g></g></svg>