<svg xmlns="http://www.w3.org/2000/svg" viewBox="0 0 48.44 45.71"><defs><style>.cls-1{fill:#3e201e;}.cls-2{fill:#f7b9b6;}.cls-3{fill:#412422;}.cls-4{fill:#4b2d2b;}.cls-5{fill:#f6b9b5;}.cls-6{fill:#cc3d70;}.cls-7{fill:#f6b6b2;}.cls-8{fill:#f0b4b0;}.cls-9{fill:#f2b4b0;}.cls-10{fill:#422523;}.cls-11{fill:#462826;}.cls-12{fill:#422422;}.cls-13{fill:#452624;}.cls-14{fill:#ecaeab;}.cls-15{fill:#432422;}.cls-16{fill:#583634;}.cls-17{fill:#f1b2ae;}.cls-18{fill:#e7aaa6;}.cls-19{fill:#f2b6b2;}.cls-20{fill:#f1b1ad;}.cls-21{fill:#a23d5c;}.cls-22{fill:#412321;}.cls-23{fill:#442624;}.cls-24{fill:#452726;}.cls-25{fill:#432624;}.cls-26{fill:#432523;}.cls-27{fill:#442725;}.cls-28{fill:#472725;}.cls-29{fill:#4a2a28;}.cls-30{fill:#4c2c2a;}.cls-31{fill:#472825;}.cls-32{fill:#4e2e2c;}.cls-33{fill:#f7bab6;}.cls-34{fill:#4d2c2a;}.cls-35{fill:#402120;}.cls-36{fill:#482c2a;}.cls-37{fill:#422624;}.cls-38{fill:#ebada9;}.cls-39{fill:#4a2b29;}.cls-40{fill:#f0b2af;}</style></defs><g id="Ebene_2" data-name="Ebene 2"><g id="bell5"><path class="cls-1" d="M9.25,0a.93.93,0,0,0,.09.52C9.54,1.64,8.57,2,8,2.55A3.19,3.19,0,0,0,6.62,5.62a4.67,4.67,0,0,1-.28,1.47A10.21,10.21,0,0,0,4.94,11,3.48,3.48,0,0,1,4.3,12.4C3,13.87,3.58,15.92,2.69,17.5a6,6,0,0,0-.35,2.65,27.93,27.93,0,0,0,.39,3.15,6.43,6.43,0,0,1-.57,2.32c-.73,3.09.78,5.6,2.78,7.42s4.83,1.23,7.31.14A44.58,44.58,0,0,0,15.67,28c.3-.57.66-1.16,1.44-.93.61.18.74.77.71,1.32-.05,1.15-.51,2.82.85,3.05a4.67,4.67,0,0,0,4.78-1.92c1-1.49,2-2.26,3.81-1.51,1.68,1.11.75,3.36,2,4.64.9,1.14,1,2.59,1.61,3.86a6.32,6.32,0,0,0,1.23,1.35c1,2.25,3.11,3.39,5.13,4.5,2.33,1.27,3.89.59,5.47-2.17a9.81,9.81,0,0,1,1.18-.95,5,5,0,0,0-.24-6.43,2.69,2.69,0,0,1,1.15-4.53c1.34-.52.23-1.35.5-2a6.73,6.73,0,0,1,.35-1.84,4.36,4.36,0,0,0,0-2.48c.12-1.45.06-1.5-1.33-1.4a1.32,1.32,0,0,1-1-.41,2.55,2.55,0,0,1,.18-2.56c1.91-4,2.13-7.93-.72-11.62a3.16,3.16,0,0,1-.48-3.29c.23-.47.75-.78,1-.32A26,26,0,0,1,47,16.07c-.07,2.43-.42,5.52,1.45,7.87v2.18A30.68,30.68,0,0,0,47.69,36a6.53,6.53,0,0,1-.79,3.88c-2.65,4.53-5.59,6.29-9.56,5.2a12.83,12.83,0,0,1-6.54-4.59c-1.9-2.35-2.78-5.24-4.33-7.77-.29-.48,0-1.38-.95-1.38-.25,0-.47.25-.63.48-.68,1,.34,1.22.76,1.68a7.32,7.32,0,0,1,1.66,7.79,6.23,6.23,0,0,1-5.54,4.43H19.05c-6.56-1.58-8-6.67-4-12.24-1.58,3.3-5.06,3.4-8.52,2.87-3.29-.51-4.94-3-6-6C.3,29.66.49,28.89,0,28.29V25c1.07-3.21-.15-6.58.79-9.86C2,11,3.56,7,4.75,2.79,5.21,1.17,6.65.48,8.16,0Z"/><path class="cls-2" d="M27.22,28.29c-1.38,0-2.5-.16-3.25,1.72-.9,2.25-3.59,2.14-5.61,2.22-.75,0-1.94-1.59-1.39-3,.25-.66.77-1.22-.08-2.1a25.3,25.3,0,0,1-4.39,6.64c-.07-.09-.14-.19-.22-.28a4.56,4.56,0,0,0-1.09-2.51,1.36,1.36,0,0,1,.92-1.73,5.1,5.1,0,0,0,1.68-.36c1.18-.78.72-1.57,0-2.35a13.39,13.39,0,0,0-3.29-4.87,4.65,4.65,0,0,1-1.8-3.8c.24-2.18-.55-4-1.32-5.9-.37.62-.13,1.53-.67,2.18a.79.79,0,0,1-.69.18c-1.12-.86-.19-2.72-1.67-3.42.41-1.29-.08-3,1.6-3.72.73.22,1.42.31,1.51-.73s.34-2,.46-3.07a3.81,3.81,0,0,0-.39-1.18C8,1.42,9.17,1.54,9.34.52l1.6.63c.51.61,1,.57,1.52,0a2.77,2.77,0,0,1,2.72,1.6c-.91,1.32-.51,2.83-.45,4.22a51.78,51.78,0,0,0,2.2,11.56c.42,1.52,4.5,3.68,6,3.21a29.58,29.58,0,0,1,5-.9c1.27.68,1.37,1.38,0,2a11.59,11.59,0,0,1-2.35.61c-.53.11-1.42-.21-1.46.76a2.3,2.3,0,0,0,1,2.09c.73.47,1.33,0,1.9-.53,1.5-1.34,1.65-3.61,3.36-4.8A32.28,32.28,0,0,1,37,16.44c1.74-.82,3-4.11,2.52-6a12,12,0,0,1-.33-2.37c1.3-1.65,1.47-4,3.2-5.37C41.68,5.18,44.42,6,44.92,8c.83,3.44,1.52,6.65-.77,9.79A2.57,2.57,0,0,0,43.58,20a.49.49,0,0,1,.15.44c0,.16-.07.24-.11.24-.78.3-1.88-.19-2.33,1C39.92,25.2,36.67,26,33.56,27a7.91,7.91,0,0,0-2,.78,3,3,0,0,1-.65.31c-.79.17-1.6-.21-2.38.13C28.1,28.34,27.68,28.58,27.22,28.29Z"/><path class="cls-3" d="M28.19,21.26a16.15,16.15,0,0,0-4,.63c-2.06.88-3.47.42-5.31-.82A6.81,6.81,0,0,1,16,16.81a42.44,42.44,0,0,1-1.8-12.38c0-.7-.41-1.79,1-1.67A60.46,60.46,0,0,0,16.8,16.2c.65,2.72,2.46,4,4.5,5,1.47.76,3-1,4.61-.61,4.82,1,7.44-3.09,11-4.9a4.23,4.23,0,0,0,1.88-5.47,1.56,1.56,0,0,1,.38-2.16c1.86,4.42.89,7.58-3.27,9.51-2,.93-3.23,2.79-5.17,3.71A2.67,2.67,0,0,1,28.19,21.26Z"/><path class="cls-4" d="M12.46,1.16c.16.84-.26,1.49-1,1.45-.92,0-.41-.93-.49-1.46Z"/><path class="cls-5" d="M43.46,20.82l.12-.78c1.2.3,2.21.21,2.59-1.24v3.51a5,5,0,0,1-.49.54c-1.35,1.14-1.13,2.29,0,3.45,1,1,.5,2.18.58,3.28-1.08.47-1.22-1.86-2.33-.79-.78.75-.32,1.88-.32,2.84,0,1.28.83,1.19,1.64.72.45-.25.52.23.49.27-1.08,1.89.6,3.79,0,5.64-.23.69-.4,1.67-1.57,1.41-1-1.13.36-2.61-.61-3.86-.83,1.34.17,3.42-1.82,4.12-1.65-.45-2.2.33-2.11,1.89,1.51.35,1.54-1.18,2.3-1.73a.89.89,0,0,1,1.07.2c-.92,3.65-3.63,4.5-6.78,2.24-1.76-1.27-3.89-2.09-4.53-4.47-.66-1.54.47-2.75.75-4.12a1.17,1.17,0,0,1,1-.45A18.65,18.65,0,0,1,37.21,36c2.23,1.66,3.33,1.4,3.92-1.22a39.28,39.28,0,0,0,1.16-7.45c.05-1.61.52-3.19.21-4.83A1.42,1.42,0,0,1,43.46,20.82Z"/><path class="cls-6" d="M19.69,44.07c-3-.83-4.53-2.57-4.84-5.06-.26-2.13.94-3.8,2.66-5,.38-.26,1.24-1.28,1.54.18.44,2.16,1.84,0,2.62.6.75-2.16,1.67-.39,2.2.06,1.1,1,1.9,3.57,1.65,3.57-2.87,0-1.4,2.51-2.19,3.61-.57.78-1.4,1.51-2.15,1.34a3,3,0,0,1-2.1-2.55c-.11-.64.28-1.56-.89-1.62a1.14,1.14,0,0,0-1.13.59c-.47.91.34,1.23.8,1.76S18.92,43,19.69,44.07Z"/><path class="cls-7" d="M12.5,33.72c-2.07,1.47-6.2,1.47-8.17,0C2.64,32.47,1,27.44,1.61,25.64c1,1.07,2.17-.12,3.21.31.18.84.94,1.54.63,2.5-1.89,1.86-1.87,2,.72,3.83,1.15,1.75,2.35.61,3.55.06a1.91,1.91,0,0,1,.71.1,9,9,0,0,1,2.11,1.32Z"/><path class="cls-8" d="M33.2,33.73l-.57.62c-1.5.26-1.26,1.92-2.15,2.66-1.24-1-.32-2.92-1.63-3.9A1.13,1.13,0,0,1,28.67,32c1.41-1.07,1.48-2.89,2.38-4.26l-.06.05c1.09-.27,1.56.5,1.62,1.28C32.72,30.63,33.53,32.11,33.2,33.73Z"/><path class="cls-9" d="M5.82,14.1a4.38,4.38,0,0,1,.52,0c-.09,2.27.18,4.59-1.12,6.65a.76.76,0,0,1-.64-.36c-.53-.95-.31-2.59-2.16-2.32a.6.6,0,0,1-.33-.89C3.25,15.66,2,13.32,3.81,12,4.46,12.7,4.63,13.88,5.82,14.1Z"/><path class="cls-10" d="M41.41,39.56c1.82-.87.71-2.53,1-3.81.14-.58-.09-1.37.83-1.43s1.24.62,1.34,1.38a8.53,8.53,0,0,1-.49,4,1.22,1.22,0,0,1-1.17.62H42C41.35,40.38,41.18,40.12,41.41,39.56Z"/><path class="cls-11" d="M4.9,26.1c-.78-.34-1.05.39-1.53.71-1.48,1-1.82.2-1.76-1.17l.56-2.2c.34-.53.69-1.06,1.46-.7a3.4,3.4,0,0,0,1.13.05A2.22,2.22,0,0,1,4.9,26.1Z"/><path class="cls-12" d="M8.73,2.61c0,1.5-.9,2.87-.58,4.42.12.62,0,1.43-.69,1.53A1.25,1.25,0,0,1,6,7.14L6,5.41C6.75,4.32,6.54,2.3,8.73,2.61Z"/><path class="cls-13" d="M5.82,14.1C2.44,16,4.32,12.83,3.81,12a1.18,1.18,0,0,0,.55-1.11c.7-.23,1.7-1.22,1.63.6C6,12.34,5.88,13.22,5.82,14.1Z"/><path class="cls-14" d="M4.48,22.88l-.11,1.85c-.61-1.22-1-2.47-2.2-1.29A6.46,6.46,0,0,1,1.8,20.1a1.15,1.15,0,0,1,.34-.63c.9.21,1.72.82,2.72.58l.06.68C5.54,21.6,5.09,22.25,4.48,22.88Z"/><path class="cls-15" d="M45.64,26.3c-.62.25-1.51.85-1.51-.42s-.86-3.19,1.53-3.55c.78.56.25,1.48.6,2.15Z"/><path class="cls-16" d="M30.48,37a9.06,9.06,0,0,0,.34-1.83c0-1.75.71-1.63,1.81-.83.2,1.38-1.11,2.36-1,3.71A1.66,1.66,0,0,1,30.48,37Z"/><path class="cls-17" d="M28.87,32l0,1.08c-2-1.12-.41-3.44-1.63-4.82l1-.54C29.37,29,29.14,30.53,28.87,32Z"/><path class="cls-18" d="M8.73,2.61C7,2.73,7.19,4.75,6,5.41A2.74,2.74,0,0,1,7.54,2.16C8,2.18,8.45,2.15,8.73,2.61Z"/><path class="cls-19" d="M46.26,24.48c-1-.48-.29-1.46-.6-2.15l.51,0A1.67,1.67,0,0,1,46.26,24.48Z"/><path class="cls-20" d="M2.24,19.46l-.44.64c-.15-1-.53-2,.29-2.88l.53.73C3.11,18.61,2.72,19,2.24,19.46Z"/><path class="cls-21" d="M25.54,41.18c-.12.15-.25.4-.45.5s-.53-.1-.49-.39a.89.89,0,0,1,.43-.56C25.38,40.52,25.46,40.83,25.54,41.18Z"/><path class="cls-22" d="M39.65,21.29c-.09,1-3.88,4-5,3.71-1.62-.42-.68-2.5-1.93-3.33-.28-.19,3.72-3.92,4.09-3.57A37.76,37.76,0,0,1,39.65,21.29Z"/><path class="cls-12" d="M28.19,21.26l2.53,0c-1.61,1.33-1.7,3.59-3.26,5.05-1,.92-1.78,1.43-2.85.66-1.23-.9-1.37-2.44-1.6-3.81-.08-.44.72-.29,1.13-.35,1.33-.18,2.66-.33,4-.56S28.34,21.62,28.19,21.26Z"/><path class="cls-22" d="M18.13,26.08a1.29,1.29,0,0,1-1.23-.66c-.51-.73-.43-1.86-2.07-1.72-.94.08-.71-1.39,0-2.13,1.32-1.43,2.41-.94,3.6.33s1.9,2.21.45,3.61C18.6,25.75,18.3,25.94,18.13,26.08Z"/><path class="cls-23" d="M9.25,11.28c-.7-3.42,2.32-2,3.41-2.28,1.71-.39,1.44,2.06,1.33,2.66-.36,1.95-2.56.75-3.87,1.55C9.22,13.76,9.44,12,9.25,11.28Z"/><path class="cls-23" d="M12,20.63a5.42,5.42,0,0,1-1.64-4.13c0-2.24,1.92-1.61,3-1.75s1.3,1.18,1.39,2.16c.06.61-.12,1.12-.85,1C11.67,17.69,11.72,19,12,20.63Z"/><path class="cls-24" d="M21.26,27.74c.86.3,2.58-.11,2.24,1.31-.4,1.65-2.33,2.09-3.82,2.31-.94.14-1.78-.82-1.72-2,.07-1.35.72-2,2.12-1.61A.88.88,0,0,1,21.26,27.74Z"/><path class="cls-25" d="M28.87,32c-1-1.31-.35-2.87-.63-4.28.92-1.29,1.87.24,2.81,0C31,29.5,31.49,31.55,28.87,32Z"/><path class="cls-26" d="M41.2,18.31c-2.42-1.58-1-3.33-.18-5.06C43.73,15.38,43.74,15.83,41.2,18.31Z"/><path class="cls-27" d="M40.22,7.23C41.88,7,43.51,6.89,44,8.94c.16.62.55,1.65-.68,2S41.32,10.53,40.22,7.23Z"/><path class="cls-28" d="M11.09,31l.46-.05c2.64.11.66,1.87,1,2.8-.79-.29-2.17.6-2.28-1.11C9.86,31.76,10.16,31.23,11.09,31Z"/><path class="cls-13" d="M13.07,4.46c0,.72-.23,1.45-1,1.18-.61-.22-1.79.25-1.76-1.11,0-.74.28-1.19,1-1.26C12.28,3.2,12.93,3.5,13.07,4.46Z"/><path class="cls-29" d="M31.25,22.85c.88-.14,1.16.54,1.25,1.1.13.74-.48,1.08-1.16,1.09S30,25.26,30,24.29,30.6,23.11,31.25,22.85Z"/><path class="cls-30" d="M11.39,8.67A1.39,1.39,0,0,1,10.34,7c0-.4-.05-1.1.61-.84s1.77.34,1.6,1.49A1.32,1.32,0,0,1,11.39,8.67Z"/><path class="cls-31" d="M13.58,27.82a1.3,1.3,0,0,1,.69-1.23c1.35-.92.92.31,1,.83.08,1.1.11,2.24-1.58,1.87A1,1,0,0,1,13.58,27.82Z"/><path class="cls-32" d="M39.07,19.59c-.6-.1-1-.41-1-1.07s.58-.58,1-.69c.94-.26.65.58.75,1C40,19.32,39.61,19.59,39.07,19.59Z"/><path class="cls-33" d="M13.58,27.82l.07,1.47c-.37.61-.75.66-1.16,0A1.33,1.33,0,0,1,13.58,27.82Z"/><path class="cls-34" d="M21.26,27.74H20.08c.72-.43-1.1-1.4.29-1.59S20.3,27.56,21.26,27.74Z"/><path class="cls-29" d="M22.42,24.68c-.34.14-.57.32-.76.29-.45-.06-.47-.45-.43-.8s0-.79.54-.42A4.23,4.23,0,0,1,22.42,24.68Z"/><path class="cls-35" d="M42.84,13.13c-.27-.31-.68-.56-.69-.83,0-.46.48-.29.78-.3.47,0,.63.32.54.69C43.43,12.86,43.1,13,42.84,13.13Z"/><path class="cls-36" d="M35.91,41.46c-1-.9-2.28-1.42-2-2.81.16-.89.57-2.25,1.71-2S37.83,38,37.79,39C37.77,39.85,36.6,40.63,35.91,41.46Z"/><path class="cls-12" d="M41.41,39.56l.56.73c-.14.59.15,1.31-.47,1.73-.78.52-1.81,1.48-2.55.78-1.07-1,0-2.41.4-3.44S40.78,38.68,41.41,39.56Z"/><path class="cls-37" d="M5.38,28.27l.6.4c.32,1.11.9,2.18.47,3.39a1.42,1.42,0,0,1-.47.61c-.59-.81-2-.17-2.39-1.66C3.09,29.14,3.33,28.24,5.38,28.27Z"/><path class="cls-13" d="M6,32.67l0-.61A1.86,1.86,0,0,1,7.58,31c1.4-.38,2.46-.3,2.13,1.61C7.93,34.73,7.19,34.74,6,32.67Z"/><path class="cls-38" d="M9.71,32.61c-.29-1.12-.75-1.94-2.1-1.17a.54.54,0,0,1,0-.88c1.17,0,2.43-.56,3.47.45a2.68,2.68,0,0,0-.83,1.64Z"/><path class="cls-39" d="M2.24,19.46,2.62,18c.33-.49.81-1.35,1.3-.95a3.44,3.44,0,0,1,.94,3.05C3.42,22.37,2.9,20.58,2.24,19.46Z"/><path class="cls-40" d="M7.62,30.56v.88L6,32.06l0-3.39C7,28.91,6.85,30.12,7.62,30.56Z"/></g></g></svg>