<svg xmlns="http://www.w3.org/2000/svg" viewBox="0 0 46.2 50.95"><defs><style>.cls-1{fill:#462827;}.cls-2{fill:#f4b6b2;}.cls-3{fill:#f3b6b2;}.cls-4{fill:#c93d6f;}</style></defs><g id="Ebene_2" data-name="Ebene 2"><g id="bell1"><path class="cls-1" d="M46.2,7.38c-1.57,2.74-2,5.91-3.24,8.77-2.91,6.61-6.25,12.91-11.61,17.94a40.37,40.37,0,0,1-4.53,3.34c4.31,3.14,5.25,6.78,2.9,10.49-1,1.62-2.79,2-4.21,3H22.24C20.3,49.64,18,48.55,17.47,46c-.67-3.1,0-5.89,2.77-7.83C10,33.27,5.35,24,1.56,14a30.89,30.89,0,0,1-1-3.3C-.94,5.09.62,2.28,6.1.17,7.49,13,11.9,24.54,21.21,33.94c1.6,1.61,2.82,1.61,4.31.12a30.89,30.89,0,0,0,4.83-6.16c3.79-6.52,6.9-13.27,8.42-20.79A69.06,69.06,0,0,0,39.71,0c3,.66,4.27,3.56,6.49,5.2ZM5.1,2A26.72,26.72,0,0,1,2.73,4.19C1.13,5.35.93,6.57,1.44,8.56A57.22,57.22,0,0,0,9.77,27c3,4.29,6.47,8.08,12.19,9.89C11.6,27.29,6.44,15.73,5.1,2Zm36.05.45c-1.9,13-6.44,24.59-15.76,34,2.51-1.72,5.06-3.2,7-5.49C37.65,24.77,41,17.59,43.62,10,44.86,6.31,45.73,5.84,41.15,2.45ZM22.93,48.94a19,19,0,0,0-1.28-2.08c-.43-.53-1.28-.83-.9-1.75a1.1,1.1,0,0,1,1.08-.67c1.36,0,.77,1.14,1,1.79.45,1.16,1,2.64,2.46,2.29s2.55-1.37,2-3.12c-.26-.85.2-1.43.75-1.4,2.77.14,1-1.49.74-2.12-.53-1.39-2.14-3.42-3-2.48-1.88,2-1.07-1.07-1.69-.67s.18,1.3-.54,1.67c-1.14.17-.28-2.3-1.9-1.4a5.29,5.29,0,0,0-3.07,5C18.75,46.33,19.9,48.21,22.93,48.94Z"/><path class="cls-2" d="M5.1,2C6.44,15.73,11.6,27.29,22,36.92c-5.72-1.81-9.2-5.6-12.19-9.89A57.22,57.22,0,0,1,1.44,8.56c-.51-2-.31-3.21,1.29-4.37A26.72,26.72,0,0,0,5.1,2Z"/><path class="cls-3" d="M41.15,2.45c4.58,3.39,3.71,3.86,2.47,7.5-2.61,7.64-6,14.82-11.23,21-1.94,2.29-4.49,3.77-7,5.49C34.71,27,39.25,15.45,41.15,2.45Z"/><path class="cls-4" d="M22.93,48.94c-3-.73-4.18-2.61-4.33-4.92a5.29,5.29,0,0,1,3.07-5c1.62-.9.76,1.57,1.9,1.4.72-.37,0-1.17.54-1.67s-.19,2.67,1.69.67c.88-.94,2.49,1.09,3,2.48.24.63,2,2.26-.74,2.12-.55,0-1,.55-.75,1.4.53,1.75-.66,2.8-2,3.12s-2-1.13-2.46-2.29c-.25-.65.34-1.77-1-1.79a1.1,1.1,0,0,0-1.08.67c-.38.92.47,1.22.9,1.75A19,19,0,0,1,22.93,48.94Z"/></g></g></svg>