<svg xmlns="http://www.w3.org/2000/svg" viewBox="0 0 61.1 63.17">
    <g>
            <path d="M33.66,2.35C35.51.24,37.23.6,39.46,2.09c6.93,4.65,13.14,10,17.34,17.32,7.38,12.85,5.18,25.71-6,35.39a51,51,0,0,1-13,7.87,5.28,5.28,0,0,1-4.94-.25c-4.9-2.67-9.33-5.91-12.5-10.62-.3-.44-.4-1-1-1.19-7.84-2.65-9.14-8.83-8.29-15.94.28-2.38.22-3.46-2.47-4.61C.59,26.61-1.25,17,.74,10.45c.42-1.37,1.05-2.67,1.59-4h.93C2.72,8,2.12,9.48,1.68,11A15.27,15.27,0,0,0,6.09,27.27c4.27,4.07,9.61,3.46,14.82,2.82,3.9-.48,7.78-1.18,9.27-5.67h.91c-.22,1.49-1.3,2.55-1.93,3.84C24.58,37.69,25.67,49.6,39.49,53c.42.1,1.17,0,1.17.82-3.17.46-5.94-.95-9.19-2.25a42.17,42.17,0,0,0,4,9.56c.51.87,1,.62,1.75.3a48.08,48.08,0,0,0,11.93-7C59.67,45.8,62.31,34,56.39,21.71,52.57,13.79,46.17,8.21,39.12,3.24c-1.72-1.22-3.19-1.91-5-.39ZM33.28,61l.32.26,0-.55c-1.11-3-2.24-6.06-3.34-9.1C30,51,29.89,50.45,29,50.57c-2.34.32-4.69.57-7.34.88C25.05,55.62,28.67,58.91,33.28,61ZM26.87,29.7C24,31,21.43,30.91,18.92,31.2c-6.47.72-6.38.75-6.41,7.36,0,8.41,6.88,13,14.9,11,1.28-.31,1.18-.94.67-1.72C24.35,42.21,24.45,36.3,26.87,29.7Z"
                  style="fill:#4f3836"/>
            <path d="M31.09,24.42h-.91c-.18-.38-.48-.53-.84-.3-5,3.29-10.45,3.77-16.16,2.4l.51-1.06c.9-2.18,2.72-4.07,1.18-6.86a2.93,2.93,0,0,1,1.52-3.9c1.07-.53,1.07-.92.29-1.71a2.1,2.1,0,0,1-.22-2.08c.7-2.3-.35-4-1.71-5.59,1.19-.84,1.36.54,2,.88,1.31.69,2.6.85,3.44-.77l.46-.6c1.11,2.41,2,4.82.47,7.58,4.25-3.29,7.62-7.67,12.53-10.06l.47.5C30.5,6.09,26.68,9.14,23.55,12.91c-1.06,1.29-2.33,2.43-1.21,4.49.58,1.07-.32,2.22-1.12,3.13-.13-3.86-3.95-1-5.17-2.8,1.13,2.05,3,2.7,5.22,2.75-.58.56-1.14,1.33-2,1.2-2.61-.39-2.64,1.91-3.55,3.29-.38.57-.19.84.51,1.1,4.5,1.71,12.46-1.82,14.15-6.28.17-.46.05-1.43,1.31-1.09C31.7,20.6,32,22.55,31.09,24.42ZM17.59,11.08c-.05.46-.26,1.25.85,1.32,2.21.14,1.74-1.88,2.27-3a1.15,1.15,0,0,0-1.05-1.72C17.7,7.79,18,9.59,17.59,11.08Zm3.05,5.5a2.7,2.7,0,0,0-2.39-1.34c-.55,0-1.26.45-1.09.93.41,1.2,1.65,1.13,2.68,1.24C20.27,17.46,20.73,17.28,20.64,16.58Z"
                  style="fill:#4b3230"/>
            <path d="M3.26,6.44H2.33C5,.6,13.22-2.48,19.2,2.48l-.72.28C11.05-.07,8.07.65,3.26,6.44Z"
                  style="fill:#644c4a"/>
            <path d="M20.66,4.83l-.46.6A4.08,4.08,0,0,1,19,3.29l.28-.71A3.23,3.23,0,0,1,20.66,4.83Z"
                  style="fill:#644c4a"/>
            <path d="M19.2,2.48l.09.1c-.09.24-.18.48-.28.71l-.53-.53Z" style="fill:#644c4a"/>
            <path d="M31.09,24.42c.92-1.87.61-3.82.58-5.72-1.26-.34-1.14.63-1.31,1.09-1.69,4.46-9.65,8-14.15,6.28-.7-.26-.89-.53-.51-1.1.91-1.38.94-3.68,3.55-3.29.88.13,1.44-.64,2-1.2l-.05.05c.8-.91,1.7-2.06,1.12-3.13-1.12-2.06.15-3.2,1.21-4.49,3.13-3.77,7-6.82,10.58-10.06,1.8-1.52,3.27-.83,5,.39,7.05,5,13.45,10.55,17.27,18.47,5.92,12.26,3.28,24.09-7.2,32.7a48.08,48.08,0,0,1-11.93,7c-.75.32-1.24.57-1.75-.3a42.17,42.17,0,0,1-4-9.56c3.25,1.3,6,2.71,9.19,2.25,0-.86-.75-.72-1.17-.82C25.67,49.6,24.58,37.69,29.16,28.26,29.79,27,30.87,25.91,31.09,24.42Z"
                  style="fill:#bfab9e"/>
            <path d="M26.87,29.7c-2.42,6.6-2.52,12.51,1.21,18.12.51.78.61,1.41-.67,1.72-8,2-14.93-2.57-14.9-11,0-6.61-.06-6.64,6.41-7.36C21.43,30.91,24,31,26.87,29.7Z"
                  style="fill:#bfab9e"/>
            <path d="M18.48,2.76l.53.53A4.08,4.08,0,0,0,20.2,5.43c-.84,1.62-2.13,1.46-3.44.77-.65-.34-.82-1.72-2-.88l0,.06c-2-2.49-6-2.13-8.15,1.12A12.78,12.78,0,0,0,5.45,19.55a9.56,9.56,0,0,0,7.73,7c5.71,1.37,11.14.89,16.16-2.4.36-.23.66-.08.84.3-1.49,4.49-5.37,5.19-9.27,5.67-5.21.64-10.55,1.25-14.82-2.82A15.27,15.27,0,0,1,1.68,11c.44-1.55,1-3.06,1.58-4.59C8.07.65,11.05-.07,18.48,2.76Z"
                  style="fill:#ece0e0"/>
            <path d="M33.28,61c-4.61-2.11-8.23-5.4-11.63-9.57,2.65-.31,5-.56,7.34-.88.9-.12,1,.45,1.23,1.06,1.1,3,2.23,6.07,3.34,9.1A3.83,3.83,0,0,0,33.28,61Z"
                  style="fill:#bda99c"/>
            <path d="M33.56,60.73l0,.55L33.28,61A3.83,3.83,0,0,1,33.56,60.73Z" style="fill:#bda99c"/>

            <path d="M17.59,11.08c.44-1.49.11-3.29,2.07-3.4A1.15,1.15,0,0,1,20.71,9.4c-.53,1.12-.06,3.14-2.27,3C17.33,12.33,17.54,11.54,17.59,11.08Z"
                  style="fill:#f3bab4"/>
            <path d="M6.19,19.47c1.77,2.91,3.63,5.71,7.5,6l-.51,1.06a9.56,9.56,0,0,1-7.73-7Z" style="fill:#5b413f"/>
            <path d="M21.22,20.53l.05-.05c-2.2-.05-4.09-.7-5.22-2.75C17.27,19.57,21.09,16.67,21.22,20.53Z"
                  style="fill:#ba476f"/>
            <path d="M20.64,16.58c.09.7-.37.88-.8.83-1-.11-2.27,0-2.68-1.24-.17-.48.54-.9,1.09-.93A2.7,2.7,0,0,1,20.64,16.58Z"
                  style="fill:#ba476f"/>
            <path d="M6.19,19.47l-.74.08a12.78,12.78,0,0,1,1.19-13c2.16-3.25,6.19-3.61,8.15-1.12C12.35,5.05,9.87,4.06,7.84,6.6c-2.68,3.35-2.58,7.14-2.12,11A13.29,13.29,0,0,0,6.19,19.47Z"
                  style="fill:#4b3230"/>
    </g>
</svg>