<svg xmlns="http://www.w3.org/2000/svg" viewBox="0 0 74.15 63.17">
    <g>
            <path d="M0,35.32c1.83-1.88,1.68-4,1.12-6.4-1.24-5.34.79-9.57,5.57-12.31C8.5,15.57,9.6,14.24,8.2,12c-1.1-1.77-.93-3.47,1.06-4.56,2.47-1.35,3.46.67,4.86,2,.76-.66.4-2.09,1.23-3h.9C15.85,7.63,15.44,8.82,15,10c-.2.21-.32.43,0,.63,0,0,.21-.21.32-.33A2.79,2.79,0,0,0,18.79,8c.15-.59.25-1.71,1.45-1.5,0,1.7-1.69,3.11-.85,5,0,0-.56.29-.86.45.11-.85-.32-1.27-1.09-1a9.33,9.33,0,0,0-4,1.64l4,2.15c-.36.62-.79.13-1.11,0-1.91-.71-2.68-.87-2.33,1.9a19.18,19.18,0,0,0,5.18,11.12c-.46.05-1-.07-1.25.49.57,5-2.13,8.37-5.55,11.4-.43.38-.79,1-1.57.38a1.28,1.28,0,0,1-.4-1.68c1-1.91.4-3.71-.34-5.45-.33-.79-.68-1.21-2-.58C5.6,33.44,2.73,34,1.3,36.86c-.1.2-.85.07-1.3.1Zm10.37-18c1.07,1,1.89.09,2.5-.53.26-.27-.63-.64-1.07-.88-.65-.66-1.31-1.94-2.28-.94A1.38,1.38,0,0,0,10.37,17.32Zm2.81,1.28a10.49,10.49,0,0,0-4.35,3.28c-1.61,1.9-2,5.31-.53,6.67A10.4,10.4,0,0,1,12,38c4.56-3.71,5.95-7.41,4.11-11.63A58.07,58.07,0,0,1,13.18,18.6ZM8.41,30.68c-3.22-4-3.11-6.71.28-10.41.41-.45,1.79-.77.85-1.77-.74-.78-1.47-1.57-2.93-.64A9.61,9.61,0,0,0,2.17,28.15,13.85,13.85,0,0,1,2.74,33a29.42,29.42,0,0,1,2.9-.88A6.22,6.22,0,0,0,8.41,30.68Zm1.24-19a6.91,6.91,0,0,0,1.56-3c.16-.53-.55-.59-.72-.47a3.94,3.94,0,0,0-1.68,2.59C8.75,11.16,9.11,11.54,9.65,11.66Zm1.06.66c2.81-.84,2.81-.84,1.51-3Z"
                  style="fill:#432b29"/>
            <path d="M34.32,11.9c1.2.74,1.44-.48,2-1A50.67,50.67,0,0,1,48,1.32c.87-.49,1.56-1,2.65-.31C59,6.11,66.28,12.33,70.8,21.14,77,33.3,74.47,45.45,64,54.68a50.23,50.23,0,0,1-13.16,8,5.31,5.31,0,0,1-4.94-.33C41,59.7,36.53,56.46,33.39,51.73a3,3,0,0,0-1-1.16c-7.48-4.13-9.22-7.52-8.28-16a1.9,1.9,0,0,1,.06-.54c1-2.37-.09-3.43-2.34-3.77.14-1,.8-.69,1.4-.52,5.14,1.48,10.2.63,15.22-.59a5.16,5.16,0,0,0,4.32-5c-6.89,3.61-13.85,4.73-20.93.33l.59-.61a7,7,0,0,1,1.46.7c2,1.59,3.09.81,4-1.31.74-1.73,1.89-3.29,2.75-5,1-1.86,2.83-3.12,3.26-5.29h0c.84-.07,1.32-.3.54-1.14ZM46.29,61l.32.26,0-.55c-1.11-3-2.24-6.06-3.34-9.1C43,51,42.9,50.45,42,50.57c-2.34.32-4.69.57-7.35.88C38.06,55.62,41.68,58.91,46.29,61Zm-1.92-9.61a48.06,48.06,0,0,0,4.06,9.52c.55,1,1,.83,1.92.44A49.82,49.82,0,0,0,62,54.53c10.34-8.33,13.23-20.36,7.71-32.12C65.59,13.54,58.45,7.48,50.51,2.18c-1.15-.77-1.82-.17-2.62.4A60.29,60.29,0,0,0,36.67,12.82a47,47,0,0,0-8.35,13.32c6.84.12,13.3.4,15.67-7.65.83.25.69.77.75,1.18.39,3.16-1,5.75-2.4,8.45-4.85,9.22-3.75,21.35,9.93,24.81.44.11,1.31-.08,1.35.87C50.45,54.19,47.73,52.9,44.37,51.41ZM39.9,29.71c-3.14,1.41-6.06,1.18-8.9,1.6-5.46.8-5.46.8-5.45,6.55,0,8.82,5.87,13.52,14.44,11.74,1.75-.37,1.66-.92.9-2.11C37.37,42,37.48,36.23,39.9,29.71Z"
                  style="fill:#4f3836"/>
            <path d="M21.79,24.47c7.08,4.4,14,3.28,20.93-.33a5.16,5.16,0,0,1-4.32,5c-5,1.22-10.08,2.07-15.22.59-.6-.17-1.26-.52-1.4.52v-.09c.31-2-1.77-1.64-2.57-2.53A19.18,19.18,0,0,1,14,16.53c-.35-2.77.42-2.61,2.33-1.9.32.12.75.61,1.11,0l-.07,0c-.61.84.2,1.67,0,2.5V17a5.56,5.56,0,0,0,1,2.5A8.48,8.48,0,0,0,21.79,24.47Z"
                  style="fill:#ece0e0"/>
            <path d="M32.3,2.58a9.34,9.34,0,0,1,2,9.32l.06,0c-.52.21-1.08.41-.54,1.14h0c-3.79.75-4.05.49-4-3.44a5.27,5.27,0,0,0-1.56-3.61l.61-.54a4.75,4.75,0,0,1,1.91,5.19c-.15.67-.33,1.2.45,1.56s1.42-.09,1.82-.69a4.31,4.31,0,0,0,.64-2.83A16.34,16.34,0,0,0,32,3.3Z"
                  style="fill:#644c4a"/>
            <path d="M16.25,6.45h-.9c2.59-5.8,10.86-9,16.86-4l-.72.28C24.06-.07,21.12.64,16.25,6.45Z"
                  style="fill:#644c4a"/>
            <path d="M19.22,27.65c.8.89,2.88.5,2.57,2.53l-3.82-2C18.23,27.58,18.76,27.7,19.22,27.65Z"
                  style="fill:#5b413f"/>
            <path d="M32.21,2.48l.09.1c-.09.24-.18.48-.28.72l-.53-.54Z" style="fill:#644c4a"/>
            <path d="M13.18,18.6a58.07,58.07,0,0,0,2.93,7.75C18,30.57,16.56,34.27,12,38a10.4,10.4,0,0,0-3.7-9.43c-1.49-1.36-1.08-4.77.53-6.67A10.49,10.49,0,0,1,13.18,18.6Z"
                  style="fill:#f6bcb7"/>
            <path d="M31.49,2.76,32,3.3A16.34,16.34,0,0,1,33.7,8.63a4.31,4.31,0,0,1-.64,2.83c-.4.6-1,1.09-1.82.69s-.6-.89-.45-1.56A4.75,4.75,0,0,0,28.88,5.4c-.36-.23-.71-.8-1.1,0l0,0C26.68,3.32,24.75,3.9,23,4c-.5,0-1.86,0-1.2,1.34h0c-1.22-.63-1.55.07-1.66,1.11l.06,0c-1.2-.21-1.3.91-1.45,1.5a2.79,2.79,0,0,1-3.46,2.36L15,10l1.22-3.56C21.12.64,24.06-.07,31.49,2.76Z"
                  style="fill:#ece0e0"/>
            <path d="M8.41,30.68a6.22,6.22,0,0,1-2.77,1.39,29.42,29.42,0,0,0-2.9.88,13.85,13.85,0,0,0-.57-4.8A9.61,9.61,0,0,1,6.61,17.86c1.46-.93,2.19-.14,2.93.64.94,1-.44,1.32-.85,1.77C5.3,24,5.19,26.66,8.41,30.68Z"
                  style="fill:#f6bcb7"/>
            <path d="M18.53,11.87c-.58.93.4,1.13.74,1.66.71,1.11.31,1.66-1,1.64l-.89-.58.07,0-4-2.15a9.33,9.33,0,0,1,4-1.64C18.21,10.6,18.64,11,18.53,11.87Z"
                  style="fill:#f3bab4"/>
            <path d="M9.65,11.66c-.54-.12-.9-.5-.84-.92a3.94,3.94,0,0,1,1.68-2.59c.17-.12.88-.06.72.47A6.91,6.91,0,0,1,9.65,11.66Z"
                  style="fill:#ba476f"/>
            <path d="M10.71,12.32l1.51-3C13.52,11.48,13.52,11.48,10.71,12.32Z" style="fill:#ba476f"/>
            <path d="M10.37,17.32A1.38,1.38,0,0,1,9.52,15c1-1,1.63.28,2.28.94l-.43.4c-.67,0-1.52-.13-1,1Z"
                  style="fill:#ba476f"/>
            <path d="M11.8,15.91c.44.24,1.33.61,1.07.88-.61.62-1.43,1.54-2.5.53l0,0c.58-.11.82-.56,1-1Z"
                  style="fill:#ba476f"/>
            <path d="M15.33,10.31c-.11.12-.3.35-.32.33-.3-.2-.18-.42,0-.63Z" style="fill:#ece0e0"/>
            <path d="M44.37,51.41c3.36,1.49,6.08,2.78,9.25,2.39,0-.95-.91-.76-1.35-.87-13.68-3.46-14.78-15.59-9.93-24.81,1.42-2.7,2.79-5.29,2.4-8.45-.06-.41.08-.93-.75-1.18-2.37,8.05-8.83,7.77-15.67,7.65a47,47,0,0,1,8.35-13.32A60.29,60.29,0,0,1,47.89,2.58c.8-.57,1.47-1.17,2.62-.4,7.94,5.3,15.08,11.36,19.24,20.23C75.27,34.17,72.38,46.2,62,54.53a49.82,49.82,0,0,1-11.69,6.84c-.91.39-1.37.51-1.92-.44A48.06,48.06,0,0,1,44.37,51.41Z"
                  style="fill:#bfab9e"/>
            <path d="M39.9,29.71c-2.42,6.52-2.53,12.29,1,17.78.76,1.19.85,1.74-.9,2.11-8.57,1.78-14.43-2.92-14.44-11.74,0-5.75,0-5.75,5.45-6.55C33.84,30.89,36.76,31.12,39.9,29.71Z"
                  style="fill:#bfab9e"/>
            <path d="M46.29,61c-4.61-2.11-8.23-5.4-11.63-9.57,2.66-.31,5-.56,7.35-.88.89-.12,1,.45,1.22,1.06,1.1,3,2.23,6.07,3.34,9.1A3.83,3.83,0,0,0,46.29,61Z"
                  style="fill:#bda99c"/>
            <path d="M19.2,19.48l3.18,4.38-.59.61a8.48,8.48,0,0,1-3.32-4.93Z" style="fill:#5b413f"/>
            <path d="M33.84,13c-.54-.73,0-.93.54-1.14C35.16,12.7,34.68,12.93,33.84,13Z" style="fill:#fefefe"/>
            <path d="M46.57,60.73l0,.55L46.29,61A3.83,3.83,0,0,1,46.57,60.73Z" style="fill:#bda99c"/>
            <path d="M19.2,19.48l-.73.06a5.56,5.56,0,0,1-1-2.5C19.6,16.7,18.61,18.66,19.2,19.48Z" style="fill:#432b29"/>
            <path d="M17.41,14.59l.89.58c.09.81.92,2-.87,1.92C17.61,16.26,16.8,15.43,17.41,14.59Z"
                  style="fill:#432b29"/>
            <path d="M27.78,5.37c.39-.77.74-.2,1.1,0l-.61.54C28,5.87,27.72,5.75,27.78,5.37Z" style="fill:#432b29"/>
            <path d="M21.83,5.38C21.17,4,22.53,4.08,23,4c1.72-.14,3.65-.72,4.77,1.35C25.81,5.25,23.82,4.27,21.83,5.38Z"
                  style="fill:#432b29"/>
            <path d="M20.18,6.48c.11-1,.44-1.74,1.66-1.11C21.46,6,21.28,6.93,20.18,6.48Z" style="fill:#432b29"/>
            <path d="M11.37,16.31c-.2.48-.44.93-1,1C9.85,16.18,10.7,16.34,11.37,16.31Z" style="fill:#432b29"/>
        </g>
</svg>