<svg xmlns="http://www.w3.org/2000/svg" viewBox="0 0 66.14 97.6"><g id="Ebene_2" data-name="Ebene 2"><g id="Ebene_1-2" data-name="Ebene 1"><path d="M53,0a4,4,0,0,1,1.13,2.88c-.17,2.45,1.65,4.47,1.64,6.92a.61.61,0,0,0,.27.44c2.25,1.13,2.44,2.19,1.15,5.1-.28.64-1.37,1.11-.63,2.09s1.63.25,2.41,0c1.53-.49,3-1.09,4.55-1.55s2.85-.47,2.61,1.85a12.87,12.87,0,0,1-.56,3.42A4.79,4.79,0,0,0,65,23.76c.38,2.17,1.44,4.6-2.12,5.23-.46.09-.68.88-.57,1.43.66,3.17-1.77,4.56-3.75,6.45l2.2.33a4,4,0,0,1-3.46,1.49c-1.33-.06-2,.22-2.2,1.86C54,47.84,52.2,54.92,47.54,60.93a34,34,0,0,1-7,7.14C38.59,69.47,37,75.78,38,78c.59,1.31,1.49,1.31,2.65.77a29.89,29.89,0,0,1,5.72-2.23,4.34,4.34,0,0,1,5.57,3.88c.48,4.14.28,8.29.44,12.44a2.06,2.06,0,0,1-1.17,2.09,16.74,16.74,0,0,1-8.43,2.53A52.42,52.42,0,0,1,23,95.24c-6.65-2.1-8.16-4.78-6.84-12a11.61,11.61,0,0,1,1.27-4.07c2-3.31,4-4,7.54-2.42.42.18,1,1,1.6.15a1.64,1.64,0,0,0,.23-1c-.17-1.21-.91-.27-1.4-.36a7.38,7.38,0,0,1-2.54-.72C16.18,70.69,9.88,66.24,6,59.17c-2.38-4.32-2.81-8.71-.55-13.1,1.89-3.67,0-7.16,0-10.72,0-2.71-1.85-4.54-2.81-6.75-.84-1.92-.86-4.15-2.29-5.85-1-1.25,1.25-1.19,1-2.25a18.22,18.22,0,0,1-.61-3.41C.51,14.28,1,14,3.49,15.1a12.57,12.57,0,0,0,1.42.42c.08-1.79.87-3.5,0-5.31S6.17,9,6.66,8.2c.69-1.09.84-3.09,2.14-3.08s1.49,2.06,2.45,3c2.73,2.58,5.37,4.52,9.72,3,5.41-1.91,11.17-1.73,16.86-.8A6.53,6.53,0,0,0,43.54,8.7,71,71,0,0,0,52.43,0ZM55.2,22.86a1.2,1.2,0,0,1,1,1.59c-.48,1.37-1.73.23-2.57.61-.12.84,1.41,1.32.75,2-.81.88-1.31-.4-2-.68s-2-.88-1.9.51A26.82,26.82,0,0,0,52,34.8c.38,1,.84,1.72,2.19.81,6.13-4.14,8.62-10.54,10.75-17.15.35-1.1,0-2-1.57-1.32-1.89.77-4.08,1-5.74,2.07-1.09.7-3.91,1-2.43,3.64-1.47-.24-3-1.14-1.79-2.48,1.7-1.87,1.8-4,2.43-6.14.45-1.51.63-2.43-1.1-3-.33,5.13-3.31,9.23-5.49,13.68A9.09,9.09,0,0,0,55.2,22.86ZM29.65,11.39a24.08,24.08,0,0,0-8.53,1.22c-9.71,2.94-15.49,11.31-14,22.57.48,3.76,1.59,7.52-.24,11.37-2,4.29-1.39,8.52,1.06,12.61,3.4,5.72,8.69,9.37,13.89,13.17,2.2,1.6,4.33,1.89,6.74.32a34.32,34.32,0,0,1,4.83-2.37c11.5-5.09,17.5-14.3,19.47-26.35.28-1.73,1.68-3.83.16-5.45-2.55-2.7-3.12-5.91-3.4-9.38-.08-1.07.14-2.41-1.51-3.08C43,23.94,39.8,19.87,37.51,15c-.54-1.15-.61-3-1.43-3.42-1.37-.63-3.18-.33-4.8-.39A13.44,13.44,0,0,0,29.65,11.39Zm7.24,59c-3.69,2.42-9.83,2-9.53,8.77,0,.82-.45,2.09-1.41,2-1.61-.13.17-1.27-.31-1.85a9.25,9.25,0,0,0-.72-.81c-1.94-1.82-4.12-1.44-5.69.89-1.79,2.65-.77,5.76-1.71,8.68a11.64,11.64,0,0,0,5.84-4.19c.73,2.2-.9,2.9-2,3.9s-3.52,1.11-3.23,2.72,2.56,2,4.14,2.67c.75.3,1.53.53,2.29.8,1.14.39,1.79.48,2.35-1.1.67-1.86,2.14-3.42,3.45-5.41.62,2.07-.46,3.11-1.23,4.28-1.71,2.58-1.45,3.16,1.66,3.51,2.33.26,4.68.51,7,.55,6,.12,6,.06,3.59-5.33A4.48,4.48,0,0,1,41,89.22c0-.31.16-1,.36-.83,1.64,1.66,1.67-1,2.65-1,.57.87-.17,1.54-.21,2.27-.09,2,.1,4.14,1.55,5.43,1.06,1,4.93-1.81,5-3.42,0-3.63.11-7.26-.14-10.87C50,79,49,77.65,46.67,78.22a32,32,0,0,0-5.5,2.18c-2.68,1.19-4.81-.09-5.11-3A21.47,21.47,0,0,1,36.89,70.38ZM52.76,1.53C48.69,5.82,44.93,10,39.68,12.29c-1.6.7-1.46,1.27-.93,2.56,1.57,3.83,4.69,6.34,7.48,9.15.58.59,1.24.88,1.79,0,2-3.25,4.11-6.5,5-10.35S53.4,5.83,52.76,1.53ZM8.6,6.43c-.62,4.28-.48,7.65,1.62,11,1.59-2.11,3.75-3.22,5.89-4.76A14.15,14.15,0,0,1,8.6,6.43ZM5.83,25q3.95-6.73-3.62-9A25.22,25.22,0,0,0,5.83,25Zm-1,5.5c1-2.21,0-6.59-1.7-7.49a.88.88,0,0,0-.74.06c-.19.13-.43.54-.36.65C3.29,25.78,3.16,28.47,4.78,30.49ZM54.2,37.28c3,.44,6.21-2.74,6.77-6.58A28.2,28.2,0,0,1,54.2,37.28ZM7.25,14.38a4.21,4.21,0,0,0,.31,4.37c.27.37.53,1.12,1.18.55a1,1,0,0,0,.15-1.58C8,16.79,7.83,15.5,7.25,14.38Z" style="fill:#422b29"/><path d="M29.65,11.39a13.44,13.44,0,0,1,1.63-.17c1.62.06,3.43-.24,4.8.39.82.38.89,2.27,1.43,3.42C39.8,19.87,43,23.94,48.08,26c1.65.67,1.43,2,1.51,3.08.28,3.47.85,6.68,3.4,9.38,1.52,1.62.12,3.72-.16,5.45-2,12-8,21.26-19.47,26.35a34.32,34.32,0,0,0-4.83,2.37c-2.41,1.57-4.54,1.28-6.74-.32-5.2-3.8-10.49-7.45-13.89-13.17-2.45-4.09-3.09-8.32-1.06-12.61,1.83-3.85.72-7.61.24-11.37-1.45-11.26,4.33-19.63,14-22.57A24.08,24.08,0,0,1,29.65,11.39Z" style="fill:#c0ab9e"/><path d="M36.89,70.38a21.47,21.47,0,0,0-.83,7c.3,3,2.43,4.23,5.11,3a32,32,0,0,1,5.5-2.18C49,77.65,50,79,50.17,80.8c.25,3.61.17,7.24.14,10.87,0,1.61-3.89,4.37-5,3.42-1.45-1.29-1.64-3.46-1.55-5.43,0-.73.78-1.4.21-2.27-1,0-1,2.66-2.65,1-.2-.19-.4.52-.36.83a4.48,4.48,0,0,0,.43,1.26c2.45,5.39,2.44,5.45-3.59,5.33-2.34,0-4.69-.29-7-.55-3.11-.35-3.37-.93-1.66-3.51.77-1.17,1.85-2.21,1.23-4.28-1.31,2-2.78,3.55-3.45,5.41-.56,1.58-1.21,1.49-2.35,1.1-.76-.27-1.54-.5-2.29-.8-1.58-.64-3.83-1-4.14-2.67s2.17-1.72,3.23-2.72,2.69-1.7,2-3.9a11.64,11.64,0,0,1-5.84,4.19c.94-2.92-.08-6,1.71-8.68,1.57-2.33,3.75-2.71,5.69-.89a9.25,9.25,0,0,1,.72.81c.48.58-1.3,1.72.31,1.85,1,.07,1.44-1.2,1.41-2C27.06,72.37,33.2,72.8,36.89,70.38Z" style="fill:#bfaa9d"/><path d="M52.76,1.53c.64,4.3,1.13,8.19.24,12.14S50.07,20.77,48,24c-.55.86-1.21.57-1.79,0-2.79-2.81-5.91-5.32-7.48-9.15-.53-1.29-.67-1.86.93-2.56C44.93,10,48.69,5.82,52.76,1.53Z" style="fill:#f1e5e6"/><path d="M55.19,22.85c-1.48-2.67,1.34-2.94,2.43-3.64,1.66-1.07,3.85-1.3,5.74-2.07,1.59-.64,1.92.22,1.57,1.32-2.13,6.61-4.62,13-10.75,17.15-1.35.91-1.81.19-2.19-.81a26.82,26.82,0,0,1-1.45-7.87c-.09-1.39,1.23-.8,1.9-.51s1.16,1.56,2,.68c.66-.72-.87-1.2-.75-2,.84-.38,2.09.76,2.57-.61a1.2,1.2,0,0,0-1-1.59Z" style="fill:#f1e5e6"/><path d="M8.6,6.43a14.15,14.15,0,0,0,7.51,6.27c-2.14,1.54-4.3,2.65-5.89,4.76C8.12,14.08,8,10.71,8.6,6.43Z" style="fill:#f1e5e6"/><path d="M55.2,22.86a9.09,9.09,0,0,1-6,2c2.18-4.45,5.16-8.55,5.49-13.68,1.73.61,1.55,1.53,1.1,3-.63,2.14-.73,4.27-2.43,6.14-1.22,1.34.32,2.24,1.79,2.48Z" style="fill:#f1b8b2"/><path d="M5.83,25a25.22,25.22,0,0,1-3.62-9Q9.77,18.24,5.83,25Z" style="fill:#f1e5e6"/><path d="M4.78,30.49c-1.62-2-1.49-4.71-2.8-6.78-.07-.11.17-.52.36-.65A.88.88,0,0,1,3.08,23C4.76,23.9,5.79,28.28,4.78,30.49Z" style="fill:#f1b8b2"/><path d="M54.2,37.28A28.2,28.2,0,0,0,61,30.7C60.41,34.54,57.2,37.72,54.2,37.28Z" style="fill:#f1b8b2"/><path d="M7.25,14.38c.58,1.12.77,2.41,1.64,3.34a1,1,0,0,1-.15,1.58c-.65.57-.91-.18-1.18-.55A4.21,4.21,0,0,1,7.25,14.38Z" style="fill:#f1b8b2"/></g></g></svg>