<svg xmlns="http://www.w3.org/2000/svg" viewBox="0 0 55.61 94.41"><g id="Ebene_2" data-name="Ebene 2"><g id="Ebene_1-2" data-name="Ebene 1"><path d="M35.23,94.4a49.71,49.71,0,0,1-15.44-2.14c-7.3-2.21-8.83-4.56-7.58-12a10.2,10.2,0,0,1,2.15-5.41c2.27-2.52,3.42-2.76,6.58-1.33.49.22,1,1,1.64.37a1.56,1.56,0,0,0,.31-1.25c-.23-1.12-1-.06-1.46-.31-.81-.46-1.75-.12-2.59-.66C12.11,67.38,5.63,62.83,1.78,55.51c-2.09-4-2.49-8.21-.4-12.15,2-3.7.78-7.22.12-10.69-.82-4.28,0-8.22,1.25-12.17A11.31,11.31,0,0,0,3.4,16c-.27-3.61-.13-7.25-.07-10.88C3.37,3.07,3.92,1,6,.25S9.73.83,11,2.5c.05.08.13.13.17.21C13.6,7.28,16.8,8.33,22.11,7a27.33,27.33,0,0,1,15.24.82,3.78,3.78,0,0,0,3.91-.64A22.7,22.7,0,0,1,49.83,3c4-.87,5.91.61,5.77,4.73-.17,5.14-.82,10.17-3.63,14.65A5.55,5.55,0,0,0,51.38,26c1.12,11.73-1.18,22.66-8.06,32.37a23,23,0,0,1-5.86,6c-3.62,2.41-3.48,6.2-3.5,9.83,0,1.47,1.09,2.21,2.68,1.49a31.05,31.05,0,0,1,5.72-2.25c3-.69,5.34.9,5.7,3.95.49,4.14.24,8.29.46,12.43.06,1.1-.42,1.5-1.31,2C43.82,93.78,41.18,94.4,35.23,94.4ZM50.14,28.74l-.74-.14a29,29,0,0,0-1.28,4.83,2,2,0,0,1-2.16,2c-1.17,0-.57-1.27-.63-2a31.78,31.78,0,0,0-.08-3.53c-.36-1.71.26-4.08-1.19-5-3.87-2.52-5.56-6.58-7.82-10.18-.85-1.36-2.45-3.59.47-5.38a36.12,36.12,0,0,0-20.24.5C7.28,12.66,1.66,21.54,3.27,32.11c.66,4.35,1.19,8.58-.82,12.92C.92,48.34,1.8,51.89,3.54,55.17c3,5.55,7.88,9.1,12.65,12.87,3.18,2.51,6.2,3.53,9.77.83a19.08,19.08,0,0,1,3.64-1.74c10-4.59,16.29-12.24,18.66-23C49.37,39.05,50.39,34,50.14,28.74ZM40.3,84.37c.29.8-.26,1.44-.32,2.12-.17,2,.12,4.11,1.47,5.49.95,1,5-1.81,5-3.38,0-3.63,0-7.26-.11-10.88-.09-2.1-1.57-2.89-3.73-2.54a21.33,21.33,0,0,0-5,1.94c-3.16,1.39-5.14.12-5.44-3.38-.19-2.23.7-4.28,1-6.59-2.36,1.07-4.4,2.39-6.62,2.9-3.71.84-1.73,4.08-2.9,5.94-.47.73-.55,2.09-1.46,2.06-1.66-.08.08-1.24-.33-1.81a6.88,6.88,0,0,0-.7-.82c-1.91-1.85-4.12-1.49-5.7.81C13.57,78.89,14.66,82,13.6,85a11.26,11.26,0,0,0,5.83-4.16c.67,1.25.12,2-.61,2.74a12.06,12.06,0,0,1-3.33,2.29c-1.88.94-1.59,1.93,0,2.82a25.86,25.86,0,0,0,5,2.06c1.4.44,2.1.7,2.7-1.2s2.11-3.25,3.42-5.14c.72,2.59-1.34,3.69-1.88,5.36-.19.59-1.54,1.61.39,1.93,4.2.7,8.4,1.34,12.67.85,1.43-.17,1.91-.86,1.24-2.21s-1.23-2.41-1.73-3.66c-.19-.5-.07-1.8.42-1.37C39.44,86.8,39.14,84.1,40.3,84.37ZM46.8,31.7c1.45-3.51,2.41-6.56,3.91-9.33A27.3,27.3,0,0,0,54.09,7.63C53.91,4.11,53,3.4,49.37,4.26c-4.58,1.08-7.83,4.57-12,6.36-.86.36-.91,1.22-.56,2.11,1.43,3.63,3.8,6.67,6.1,9.76.31.42.7.84,1.33.32s.14-.9,0-1.37c-.41-1.45-.8-2.91-1.19-4.37a7.58,7.58,0,0,1,5.61-9.68c.93-.23,1.93-.4,2.54.73-3.59.84-3.62.83-3.8,6.62,0,1.66,1.86-.2,2.15,1C44.91,20.93,45,19.87,46.8,31.7ZM7.22,13.12A50.47,50.47,0,0,1,13.4,9.28c.47-.22,1.22-.52.51-1.37A71.78,71.78,0,0,0,9.34,2.26C7.32.28,5.8.88,4.83,3.62c-.77,2.16-.23,4.3-.41,6.57C6.79,8,4.58,5.09,6.08,2.62A26.92,26.92,0,0,1,7.22,13.12ZM45,19.17c1.43-1.46,1.28-5.63-.08-7.69C42.92,14,43.8,16.51,45,19.17Z" style="fill:#422b29"/><path d="M50.14,28.74c.25,5.22-.77,10.31-1.88,15.38-2.37,10.77-8.63,18.42-18.66,23A19.08,19.08,0,0,0,26,68.87c-3.57,2.7-6.59,1.68-9.77-.83-4.77-3.77-9.68-7.32-12.65-12.87C1.8,51.89.92,48.34,2.45,45c2-4.34,1.48-8.57.82-12.92-1.61-10.57,4-19.45,13.2-22.31a36.12,36.12,0,0,1,20.24-.5c-2.92,1.79-1.32,4-.47,5.38,2.26,3.6,3.95,7.66,7.82,10.18,1.45.94.83,3.31,1.19,5a31.78,31.78,0,0,1,.08,3.53c.06.7-.54,2,.63,2a2,2,0,0,0,2.16-2A29,29,0,0,1,49.4,28.6Z" style="fill:#c0ab9e"/><path d="M40.3,84.37c-1.16-.27-.86,2.43-2.62.93-.49-.43-.61.87-.42,1.37.5,1.25,1.13,2.45,1.73,3.66s.19,2-1.24,2.21c-4.27.49-8.47-.15-12.67-.85-1.93-.32-.58-1.34-.39-1.93.54-1.67,2.6-2.77,1.88-5.36-1.31,1.89-2.85,3.36-3.42,5.14s-1.3,1.64-2.7,1.2a25.86,25.86,0,0,1-5-2.06c-1.57-.89-1.86-1.88,0-2.82a12.06,12.06,0,0,0,3.33-2.29c.73-.75,1.28-1.49.61-2.74A11.26,11.26,0,0,1,13.6,85c1.06-2.95,0-6.1,1.81-8.76,1.58-2.3,3.79-2.66,5.7-.81a6.88,6.88,0,0,1,.7.82c.41.57-1.33,1.73.33,1.81.91,0,1-1.33,1.46-2.06,1.17-1.86-.81-5.1,2.9-5.94,2.22-.51,4.26-1.83,6.62-2.9-.26,2.31-1.15,4.36-1,6.59.3,3.5,2.28,4.77,5.44,3.38a21.33,21.33,0,0,1,5-1.94c2.16-.35,3.64.44,3.73,2.54.15,3.62.14,7.25.11,10.88,0,1.57-4.06,4.34-5,3.38-1.35-1.38-1.64-3.5-1.47-5.49C40,85.81,40.59,85.17,40.3,84.37Z" style="fill:#bfaa9d"/><path d="M46.8,31.7C45,19.87,44.91,20.93,49.54,15.78c-.29-1.24-2.2.62-2.15-1C47.57,9,47.6,9,51.19,8.12c-.61-1.13-1.61-1-2.54-.73A7.58,7.58,0,0,0,43,17.07c.39,1.46.78,2.92,1.19,4.37.14.47.62.87,0,1.37s-1,.1-1.33-.32c-2.3-3.09-4.67-6.13-6.1-9.76-.35-.89-.3-1.75.56-2.11,4.18-1.79,7.43-5.28,12-6.36,3.59-.86,4.54-.15,4.72,3.37a27.3,27.3,0,0,1-3.38,14.74C49.21,25.14,48.25,28.19,46.8,31.7Z" style="fill:#f1e5e6"/><path d="M7.22,13.12A26.92,26.92,0,0,0,6.08,2.62C4.58,5.09,6.79,8,4.42,10.19c.18-2.27-.36-4.41.41-6.57C5.8.88,7.32.28,9.34,2.26a71.78,71.78,0,0,1,4.57,5.65c.71.85,0,1.15-.51,1.37A50.47,50.47,0,0,0,7.22,13.12Z" style="fill:#f1e5e6"/><path d="M45,19.17c-1.2-2.66-2.08-5.17-.08-7.69C46.28,13.54,46.43,17.71,45,19.17Z" style="fill:#f1b8b2"/></g></g></svg>