<svg xmlns="http://www.w3.org/2000/svg" viewBox="0 0 62.65 87.8"><g id="Ebene_2" data-name="Ebene 2"><g id="Ebene_1-2" data-name="Ebene 1"><path d="M28.86,87.8c-2.83-1-5.86-1.12-8.76-2-9.64-2.88-9.3-5.74-7.08-15.07,1.08-4.53,3.93-5.39,8.19-3.66.4.16.9.9,1.35.12a1.73,1.73,0,0,0,.21-1.28c-.29-.82-.9,0-1.31-.15a10.84,10.84,0,0,1-4-1.41C11.58,60.18,5.61,56.12,2,49.49c-2.34-4.34-2.83-8.72-.56-13.1,1.81-3.49.5-6.86,0-10.19a26.38,26.38,0,0,1,.5-9.86c.78-3.66,2.88-6.77,3.38-10.63s4.25-6,8.73-5.52c5.1.6,10.09-.4,15.13-.15a29.34,29.34,0,0,1,10,1.8c.34.13.68.39,1,.36,8-.56,12.42,4.46,16.2,10.45,2.1,3.32,4.18,6.66,6.25,10-4,2.34-7.14-1.06-10.8-1.08a60.62,60.62,0,0,1-3.78,21.54A33.67,33.67,0,0,1,36.56,58.36c-1.91,1.42-3.51,7.79-2.51,9.92.62,1.33,1.52,1.24,2.66.71a30.24,30.24,0,0,1,5.73-2.23A4.35,4.35,0,0,1,48,70.71c.5,4.14.28,8.29.45,12.43,0,1-.37,1.47-1.22,2.08-2.1,1.51-4.63,1.63-6.89,2.58Zm24.87-70-.67-.69c-.32.46-.21.79.31,1,0,.36.4.72,0,1.1-1,.28-1.16-1-2.11-1-.34,2.36,1.86,2.18,3,3s.88-.56,1.28-.91c1.38.72,2.18,2.87,5.12,1.56-2.57-.27-3.26-2.27-5-2.72ZM1.57,42.31a19.82,19.82,0,0,0,1.87,6.23c2.62,4.83,6.82,8.06,10.87,11.58,4.3,3.72,8,4.3,13.3,1.58,8-4.15,14.86-9.21,18.52-17.67,2.64-6.09,3.38-12.65,4-19.2.63-6.88-3.44-11.23-9-13.46-2.93-1.18-4-3.09-3-6.07.56-1.62.15-2.1-1.33-2.51a35.44,35.44,0,0,0-20.5.43C7.17,6.08,1.57,15,3.18,25.52c.66,4.33,1.45,8.67-.86,12.88C1.7,39.52,1.79,41,1.57,42.31ZM19.32,74.24c.71,1.23.14,2-.56,2.71A13.3,13.3,0,0,1,15.2,79.4c-1.56.83-1.41,1.65-.07,2.52a23.34,23.34,0,0,0,6.23,2.54c.73.21,1.28.05,1.54-1,.54-2.17,2.34-3.53,3.63-5.91.55,2.93-1.48,4.06-2,5.8-.2.61-1.18,1.45.47,1.72,4.2.69,8.39,1.33,12.67.85,1.39-.16,2-.79,1.28-2.18-.59-1.21-1.22-2.41-1.73-3.66-.2-.51,0-1.78.38-1.42,1.75,1.72,1.53-1.49,2.62-.93.34.78-.21,1.41-.28,2.1a7.16,7.16,0,0,0,1.43,5.53c.87,1,5-1.8,5-3.35,0-3.63,0-7.26-.11-10.88-.08-2.12-1.55-2.94-3.69-2.58a22.39,22.39,0,0,0-5.26,2.06c-2.82,1.24-4.88-.06-5.22-3.18-.26-2.34.59-4.51,1-7-1.59.78-2.84,1.5-4.16,2-2.86,1.13-5.94,2-5.15,6.15a2.46,2.46,0,0,1-.55,1.5c-.36.55-.45,1.61-1.42,1.36-1.14-.31-.06-1-.08-1.52s-.49-.94-.9-1.28c-2.07-1.74-4-1.27-5.63,1.17-1.71,2.62-.61,5.67-1.71,8.51A10.63,10.63,0,0,0,19.32,74.24ZM58.1,17.85c-3-4.22-4.89-9.1-9.46-12-2.12-1.33-4.27-2.37-6.81-1.94-1.35.22-2.6.72-2.62,2.5,0,1.38-.09,2.93,1.51,3.39a53.86,53.86,0,0,1,15,7.26C56.29,17.5,56.81,18.36,58.1,17.85ZM6,8c2.79-3.15,6.1-4.75,9.44-6.7C9.4,1.16,6.66,3,6,8Z" style="fill:#422b29"/><path d="M1.57,42.31c.22-1.27.13-2.79.75-3.91,2.31-4.21,1.52-8.55.86-12.88C1.57,15,7.17,6.08,16.35,3.22a35.44,35.44,0,0,1,20.5-.43c1.48.41,1.89.89,1.33,2.51-1,3,0,4.89,3,6.07,5.52,2.23,9.59,6.58,9,13.46-.59,6.55-1.33,13.11-4,19.2C42.47,52.49,35.66,57.55,27.61,61.7c-5.28,2.72-9,2.14-13.3-1.58C10.26,56.6,6.06,53.37,3.44,48.54A19.82,19.82,0,0,1,1.57,42.31Z" style="fill:#c0ab9e"/><path d="M19.32,74.24a10.63,10.63,0,0,1-5.82,4.11c1.1-2.84,0-5.89,1.71-8.51,1.6-2.44,3.56-2.91,5.63-1.17.41.34.86.64.9,1.28s-1.06,1.21.08,1.52c1,.25,1.06-.81,1.42-1.36a2.46,2.46,0,0,0,.55-1.5c-.79-4.19,2.29-5,5.15-6.15,1.32-.52,2.57-1.24,4.16-2-.42,2.51-1.27,4.68-1,7,.34,3.12,2.4,4.42,5.22,3.18a22.39,22.39,0,0,1,5.26-2.06c2.14-.36,3.61.46,3.69,2.58.14,3.62.15,7.25.11,10.88,0,1.55-4.17,4.32-5,3.35a7.16,7.16,0,0,1-1.43-5.53c.07-.69.62-1.32.28-2.1-1.09-.56-.87,2.65-2.62.93-.37-.36-.58.91-.38,1.42.51,1.25,1.14,2.45,1.73,3.66.69,1.39.11,2-1.28,2.18-4.28.48-8.47-.16-12.67-.85-1.65-.27-.67-1.11-.47-1.72.56-1.74,2.59-2.87,2-5.8-1.29,2.38-3.09,3.74-3.63,5.91-.26,1-.81,1.18-1.54,1a23.34,23.34,0,0,1-6.23-2.54c-1.34-.87-1.49-1.69.07-2.52A13.3,13.3,0,0,0,18.76,77C19.46,76.2,20,75.47,19.32,74.24Z" style="fill:#bfaa9d"/><path d="M58.1,17.85c-1.29.51-1.81-.35-2.42-.76a53.86,53.86,0,0,0-15-7.26c-1.6-.46-1.52-2-1.51-3.39,0-1.78,1.27-2.28,2.62-2.5,2.54-.43,4.69.61,6.81,1.94C53.21,8.75,55.15,13.63,58.1,17.85Z" style="fill:#f1e5e6"/><path d="M6,8C6.66,3,9.4,1.16,15.43,1.27,12.09,3.22,8.78,4.82,6,8Z" style="fill:#f1e5e6"/><path d="M55.65,19.08c1.76.45,2.45,2.45,5,2.72-2.94,1.31-3.74-.84-5.12-1.56l0,.05-.38-.74Z" style="fill:#f1b8b2"/><path d="M55.55,20.24c-.4.35-.27,1.61-1.28.91s-3.33-.6-3-3c.95,0,1.14,1.29,2.11,1l0,0c.5.85,1.12,1.48,2.23,1.13Z" style="fill:#f1e5e6"/><path d="M53.39,19.2c.38-.38,0-.74,0-1.1l.37-.3,1.91,1.28-.44.47c-.58-.32-1.14-.73-1.85-.39Z" style="fill:#f1b8b2"/><path d="M53.37,18.1c-.52-.2-.63-.53-.31-1l.67.69Z" style="fill:#f1b8b2"/><path d="M53.36,19.16c.71-.34,1.27.07,1.85.39l.38.74C54.48,20.64,53.86,20,53.36,19.16Z" style="fill:#422b29"/></g></g></svg>