<svg xmlns="http://www.w3.org/2000/svg" viewBox="0 0 51.58 95.17"><g id="Ebene_2" data-name="Ebene 2"><g id="Ebene_1-2" data-name="Ebene 1"><path d="M37,6.91a10,10,0,0,1,4-6.41C42.4-.49,43.6.92,44.4,2a30.46,30.46,0,0,1,5.71,14,95.15,95.15,0,0,1,1.46,12.32c.22,14.54-2.76,27.9-15.15,37.4-1.87,1.43-3.35,8-2.31,10,.64,1.22,1.49,1.08,2.49.64a33.22,33.22,0,0,1,5.73-2.24c2.89-.66,5.28.91,5.62,3.79.51,4.23.28,8.48.47,12.71,0,.94-.37,1.32-1.14,1.86A16.39,16.39,0,0,1,38.85,95a52.5,52.5,0,0,1-19.8-2.18c-6.67-2.11-8.19-4.78-6.89-12a11.88,11.88,0,0,1,1.37-4.31c2-3.12,4-3.71,7.42-2.23.43.18,1.05,1,1.61.18a1.69,1.69,0,0,0,.2-1.27c-.3-.81-.91,0-1.32-.14a10.8,10.8,0,0,1-4-1.42C11.56,67.46,5.58,63.4,2,56.76c-2.33-4.35-2.81-8.71-.55-13.11,1.83-3.57.49-7-.09-10.46A22.46,22.46,0,0,1,4.53,17.45a8.26,8.26,0,0,0,1.41-4.67C5.83,8.35,7.72,4.62,10.05,1.06c.76-1.15,1.7-1.6,2.9-.13A15,15,0,0,1,16.28,7c.3,1.3.73,1.55,2,1.25a35.53,35.53,0,0,1,15.56-.31c1.53.32,1.83-1.69,3.19-1.11.06.34.11.68.17,1C38.52,7,39,10.27,40.42,8.5c.14.2.44.43.4.58-.48,1.82,1.38,3.06,1.16,4.81-2.95.22-3.21-2.63-4.91-4-.22,1.07-2.44,1.22-1.92,2.61a6.81,6.81,0,0,0,6.55,4.57c.72-1-.31-2.15.27-3.17.41-.08,1,.06,1-.58.11-3.86.37-7.76-1.88-11.51-.72,1.07-1.37,1.91-1.9,2.83A6,6,0,0,1,37,6.91ZM9.82,11.79c1.12-.42,2.32-.78,2.59-2.43a6.58,6.58,0,0,0-3,2c-.88.29-2,.37-1.67,1.83A3.11,3.11,0,0,0,9.82,11.79ZM26,9a26.44,26.44,0,0,0-10.14,1.69C6.66,13.76,1.73,22.86,3.11,32.52c.62,4.34,1.38,8.59-.66,12.93-1.6,3.42-.83,7,1,10.39,2.62,4.82,6.83,8,10.87,11.58,4.32,3.76,8,4.28,13.31,1.55,7.69-4,14.5-8.65,18-16.73a47.26,47.26,0,0,0,4-24.76c-.3-2.5.45-5.73-3.77-5.63-.14,0-.32-.19-.42-.33C43.68,19,41,18.28,38.2,17.43S33.27,12.87,33.44,10c.05-1-.72-.84-1.29-.93A16.84,16.84,0,0,0,26,9ZM24,92.23a52.25,52.25,0,0,0,13,1.11c1.85-.12,2.74-.8,1.7-2.74a31.45,31.45,0,0,1-1.54-3.14c-.21-.53,0-1.78.31-1.48,1.73,1.59,1.62-1.3,2.7-1,.26.75-.19,1.39-.29,2.08a7.34,7.34,0,0,0,1.36,5.59c.76,1,5.07-1.78,5.08-3.3,0-3.63,0-7.26-.09-10.88-.08-2.15-1.53-3-3.65-2.65a22.18,22.18,0,0,0-5.27,2c-2.85,1.26-4.91,0-5.26-3.11-.25-2.36.55-4.55,1-7C30.41,69,28,70.15,25.49,71.19A2.19,2.19,0,0,0,24,73.69a7.72,7.72,0,0,1-1.25,4.62,1.35,1.35,0,0,1-.88.46c-.13,0-.51-.35-.48-.45.93-2.79-1.33-3-2.93-3.29-2.05-.31-3,1.46-3.7,3-1.1,2.38-.34,5-1.21,7.57a12.24,12.24,0,0,0,5.9-4,2.35,2.35,0,0,1-.84,2.82,13.43,13.43,0,0,1-3.35,2.26c-1.44.79-1.59,1.59-.16,2.52a23.42,23.42,0,0,0,6.21,2.57c.93.28,1.23-.22,1.66-1.16a51.17,51.17,0,0,1,3.67-5.81C27,88.19,24.29,89.54,24,92.23ZM43.72,3.74a47.12,47.12,0,0,1,0,13.26c-.26,2.06,1.7,3.32,3.43,3.92,2.17.75,2.76,0,2.27-2.27-.14-.7-.22-1.41-.35-2.11C48.18,11.91,46.88,7.47,43.72,3.74ZM11.07,2C8,5.57,7.2,8.6,9,10.29a4.81,4.81,0,0,1,2.75-4c1.64-.5.68,2.45,2.23,3.09.3-1.26-.91-2.28-.51-3.66,1.16.8.71,2.61,2.26,3.27a14.66,14.66,0,0,0-3.08-6.81c-.44.59.23,1.33-.42,1.82Z" style="fill:#422b29"/><path d="M26,9a16.84,16.84,0,0,1,6.14.07c.57.09,1.34-.07,1.29.93-.17,2.89,2,6.6,4.76,7.45s5.48,1.59,7.27,4.09c.1.14.28.33.42.33,4.22-.1,3.47,3.13,3.77,5.63a47.26,47.26,0,0,1-4,24.76C42.12,60.32,35.31,65,27.62,69c-5.26,2.73-9,2.21-13.31-1.55-4-3.53-8.25-6.76-10.87-11.58-1.82-3.35-2.59-7-1-10.39,2-4.34,1.28-8.59.66-12.93C1.73,22.86,6.66,13.76,15.87,10.67A26.44,26.44,0,0,1,26,9Z" style="fill:#c0ab9e"/><path d="M24,92.23c.25-2.69,3-4,2.58-7.45A51.17,51.17,0,0,0,23,90.59c-.43.94-.73,1.44-1.66,1.16a23.42,23.42,0,0,1-6.21-2.57c-1.43-.93-1.28-1.73.16-2.52a13.43,13.43,0,0,0,3.35-2.26,2.35,2.35,0,0,0,.84-2.82,12.24,12.24,0,0,1-5.9,4c.87-2.57.11-5.19,1.21-7.57.74-1.57,1.65-3.34,3.7-3,1.6.24,3.86.5,2.93,3.29,0,.1.35.48.48.45a1.35,1.35,0,0,0,.88-.46A7.72,7.72,0,0,0,24,73.69a2.19,2.19,0,0,1,1.51-2.5c2.48-1,4.92-2.16,7.62-3.35-.48,2.41-1.28,4.6-1,7,.35,3.12,2.41,4.37,5.26,3.11a22.18,22.18,0,0,1,5.27-2c2.12-.36,3.57.5,3.65,2.65.13,3.62.14,7.25.09,10.88,0,1.52-4.32,4.28-5.08,3.3a7.34,7.34,0,0,1-1.36-5.59c.1-.69.55-1.33.29-2.08-1.08-.34-1,2.55-2.7,1-.32-.3-.52,1-.31,1.48a31.45,31.45,0,0,0,1.54,3.14c1,1.94.15,2.62-1.7,2.74A52.25,52.25,0,0,1,24,92.23Z" style="fill:#bfaa9d"/><path d="M43.72,3.74c3.16,3.73,4.46,8.17,5.3,12.8.13.7.21,1.41.35,2.11.49,2.28-.1,3-2.27,2.27-1.73-.6-3.69-1.86-3.43-3.92A47.12,47.12,0,0,0,43.72,3.74Z" style="fill:#f1e5e6"/><path d="M42,13.89c.22-1.75-1.64-3-1.16-4.81,0-.15-.26-.38-.4-.58C39,10.27,38.52,7,37.24,7.85c-.06-.34-.11-.68-.17-1L37,6.91A6,6,0,0,0,39.2,4.62c.53-.92,1.18-1.76,1.9-2.83,2.25,3.75,2,7.65,1.88,11.51,0,.64-.6.5-1,.58Z" style="fill:#f1e5e6"/><path d="M11.07,2l1.2,2c.65-.49,0-1.23.42-1.82A14.66,14.66,0,0,1,15.77,9c-1.55-.66-1.1-2.47-2.26-3.27-.4,1.38.81,2.4.51,3.66-1.55-.64-.59-3.59-2.23-3.09a4.81,4.81,0,0,0-2.75,4C7.2,8.6,8,5.57,11.07,2Z" style="fill:#f1e5e6"/><path d="M42,13.88c-.58,1,.45,2.17-.27,3.17a6.81,6.81,0,0,1-6.55-4.57c-.52-1.39,1.7-1.54,1.92-2.61,1.7,1.39,2,4.24,4.91,4Z" style="fill:#f1b8b2"/><path d="M9.41,11.37a6.58,6.58,0,0,1,3-2c-.27,1.65-1.47,2-2.59,2.43Z" style="fill:#f1b8b2"/><path d="M9.82,11.79A3.11,3.11,0,0,1,7.74,13.2c-.32-1.46.79-1.54,1.67-1.83Z" style="fill:#f1b8b2"/></g></g></svg>