<svg xmlns="http://www.w3.org/2000/svg" viewBox="0 0 51.85 91.67"><g id="Ebene_2" data-name="Ebene 2"><g id="Ebene_1-2" data-name="Ebene 1"><path d="M0,43.65c2.63-4.35,2.72-9,1.56-13.77-1.27-5.18,0-10,2.23-14.61a6.45,6.45,0,0,0,.73-3.68c-.3-3.19-.76-6.45.26-9.68C5.26.39,6-.2,7.47.06c2.31.39,4.72.86,6.3,2.68s3.29,2.36,5.84,1.77a40.11,40.11,0,0,1,16.15,0,4.61,4.61,0,0,0,3.42-.75A22.2,22.2,0,0,1,49,.44c2-.12,2.82.39,2.86,2.46a36.41,36.41,0,0,1-1.55,12.23,3.62,3.62,0,0,0-.14,2.35c3,8.78,1.47,17.4-.92,26a34,34,0,0,1-12.8,18.75C34.68,63.52,33.15,70,34,72c.58,1.31,1.47,1.36,2.64.83a30,30,0,0,1,5.73-2.25A4.34,4.34,0,0,1,48,74.43c.51,4.23.26,8.48.47,12.71,0,1-.43,1.31-1.18,1.83a16.28,16.28,0,0,1-8.43,2.54,52.67,52.67,0,0,1-19.8-2.19c-6.65-2.11-8.15-4.79-6.86-12a10,10,0,0,1,2.22-5.38c1.85-2,3.82-2.94,6.41-1.27.47.31,1.1,1.13,1.8.3a1.5,1.5,0,0,0,.23-1c-.17-1.39-1.13,0-1.67-.44s-1.54-.1-2.31-.58C11.9,64.47,5.17,59.8,1.45,52,.9,50.9.48,49.71,0,48.55ZM35.32,6.23a34.64,34.64,0,0,0-18.72.7c-9.17,2.8-15,11.45-13.38,22.44.63,4.24,1.26,8.4-.75,12.65-1.62,3.41-.77,7,1,10.38,2.63,4.83,6.81,8.07,10.9,11.55s7.76,4.46,13.07,1.63c7.72-4.11,14.43-8.82,18.29-16.87,2.21-4.6,3.1-9.57,3.76-14.55.92-6.86.52-11.54-.85-14.71-1.94,2.84-3.54,2.63-5.18-.67a18,18,0,0,1-.91-2.23c-1-3-2.62-4-5.77-3.47a4.18,4.18,0,0,1-4.09-1.51c-1.11-1.37.41-2.26.94-3.28A14.39,14.39,0,0,1,35.32,6.23ZM33.49,64.14c-2.86,1.31-5.1,2.46-7.44,3.35-1.48.56-2.23,1.33-2.05,3a7.16,7.16,0,0,1-1.22,4.35,1.21,1.21,0,0,1-.87.48.46.46,0,0,1-.47-.71c1-2.2-1.07-2.44-2.16-3-1.54-.7-2.76.29-3.71,1.52-2.07,2.69-1.07,5.93-1.91,9a12.27,12.27,0,0,0,5.81-4.05,2.33,2.33,0,0,1-.83,2.82,13.56,13.56,0,0,1-3.35,2.27c-1.41.77-1.63,1.56-.18,2.51a23.49,23.49,0,0,0,6.22,2.57c.91.28,1.23-.19,1.66-1.14a48.12,48.12,0,0,1,3.62-5.73c.55,3.4-2.53,4.75-2.46,7.36A53.12,53.12,0,0,0,34.89,89.9c5,0,5.21-.4,3-4.72a8.55,8.55,0,0,1-.73-1.74c-.1-.39.2-1.25.45-1,1.67,1.67,1.6-1.25,2.93-.85A7.83,7.83,0,0,0,40.71,88c.19.43,0,1.1.77,1.23,1.77.29,4.91-1.93,4.93-3.65,0-3.53,0-7.07-.11-10.6-.08-2.15-1.53-3-3.64-2.66a24.23,24.23,0,0,0-5.5,2.17c-2.53,1.11-4.7-.16-5-3A14.18,14.18,0,0,1,33.49,64.14ZM46.67,20.07a32,32,0,0,0,4-16.41c0-1.22-.12-2.22-1.73-1.95-5.82,1-10.92,3.2-14.69,8-1,1.33-.18,1.68.77,2.11,2.13,1,3.06-1,4.38-1.9,1.83-1.19,4.23-3.11,5.73-1.85,1.7,1.41.8,4.29-.25,6.47C43.54,17.31,43.92,18.44,46.67,20.07ZM6.3,11.26c1.1-.53.69-1.54.79-2.39.16-1.46-.78-3.45.79-4.25,1.35-.69,2.26,1.06,3.24,1.93,1.19,1,1.78-.6,2.76-.6a.62.62,0,0,0,.49-1C13.86,3.83,8,.58,6.89,1.25c-1.66,1-1.43,3-1.43,4.78S5.3,9.64,6.3,11.26Zm37.24,3.43a7.73,7.73,0,0,0,1-5.82,9.61,9.61,0,0,0-5.09,2.42C40.51,12.71,42.52,13,43.54,14.69ZM8.38,5.89V9.42C10.91,8.19,10.71,7.16,8.38,5.89Z" style="fill:#422b29"/><path d="M35.32,6.23a14.39,14.39,0,0,0-1.64,2.06c-.53,1-2.05,1.91-.94,3.28a4.18,4.18,0,0,0,4.09,1.51c3.15-.54,4.8.45,5.77,3.47a18,18,0,0,0,.91,2.23c1.64,3.3,3.24,3.51,5.18.67,1.37,3.17,1.77,7.85.85,14.71-.66,5-1.55,10-3.76,14.55-3.86,8-10.57,12.76-18.29,16.87-5.31,2.83-8.87,1.94-13.07-1.63S6.15,57.23,3.52,52.4c-1.82-3.35-2.67-7-1-10.38,2-4.25,1.38-8.41.75-12.65C1.59,18.38,7.43,9.73,16.6,6.93A34.64,34.64,0,0,1,35.32,6.23Z" style="fill:#c0ab9e"/><path d="M33.49,64.14a14.18,14.18,0,0,0-1.33,7.44c.3,2.79,2.47,4.06,5,3a24.23,24.23,0,0,1,5.5-2.17c2.11-.38,3.56.51,3.64,2.66.13,3.53.14,7.07.11,10.6,0,1.72-3.16,3.94-4.93,3.65-.8-.13-.58-.8-.77-1.23a7.83,7.83,0,0,1-.22-6.44c-1.33-.4-1.26,2.52-2.93.85-.25-.26-.55.6-.45,1a8.55,8.55,0,0,0,.73,1.74c2.26,4.32,2,4.72-3,4.72a53.12,53.12,0,0,1-10.74-1.17c-.07-2.61,3-4,2.46-7.36A48.12,48.12,0,0,0,23,87.1c-.43,1-.75,1.42-1.66,1.14a23.49,23.49,0,0,1-6.22-2.57c-1.45-1-1.23-1.74.18-2.51a13.56,13.56,0,0,0,3.35-2.27,2.33,2.33,0,0,0,.83-2.82,12.27,12.27,0,0,1-5.81,4.05c.84-3.06-.16-6.3,1.91-9,.95-1.23,2.17-2.22,3.71-1.52,1.09.51,3.13.75,2.16,3a.46.46,0,0,0,.47.71,1.21,1.21,0,0,0,.87-.48A7.16,7.16,0,0,0,24,70.44c-.18-1.62.57-2.39,2.05-3C28.39,66.6,30.63,65.45,33.49,64.14Z" style="fill:#bfaa9d"/><path d="M46.67,20.07c-2.75-1.63-3.13-2.76-1.78-5.55,1-2.18,2-5.06.25-6.47-1.5-1.26-3.9.66-5.73,1.85-1.32.87-2.25,2.86-4.38,1.9-1-.43-1.82-.78-.77-2.11,3.77-4.78,8.87-7,14.69-8,1.61-.27,1.74.73,1.73,2A32,32,0,0,1,46.67,20.07Z" style="fill:#f1e5e6"/><path d="M6.3,11.26C5.3,9.64,5.46,7.82,5.46,6S5.23,2.3,6.89,1.25C8,.58,13.86,3.83,14.37,5a.62.62,0,0,1-.49,1c-1,0-1.57,1.65-2.76.6-1-.87-1.89-2.62-3.24-1.93-1.57.8-.63,2.79-.79,4.25C7,9.72,7.4,10.73,6.3,11.26Z" style="fill:#f1e5e6"/><path d="M43.54,14.69c-1-1.73-3-2-4.1-3.4a9.61,9.61,0,0,1,5.09-2.42A7.73,7.73,0,0,1,43.54,14.69Z" style="fill:#f1b8b2"/><path d="M8.38,5.89c2.33,1.27,2.53,2.3,0,3.53Z" style="fill:#f1b8b2"/></g></g></svg>