<svg xmlns="http://www.w3.org/2000/svg" viewBox="0 0 92.59 45.85"><g id="Ebene_2" data-name="Ebene 2"><g id="Ebene_1-2" data-name="Ebene 1"><path d="M13.3,44.48c-.77-.46-1.39.08-2.13.41a7.29,7.29,0,0,1-7-.24c-1.5-.89-2.36-2.11-1.12-3.78.66-.9.25-1.47-.26-2.14A14.29,14.29,0,0,1,1.5,37c-.82-1.48-2.26-3.19-1-4.71s2.73.45,4.08.82c1.1.3,2.2.7,3.32,1,1.62.41,3,.78,3.8-1.52a3.66,3.66,0,0,1,4.82-2c2.19.73,3,2.66,2.49,4.79a5.16,5.16,0,0,0,0,2.56C20.06,42,17.62,44.87,13.3,44.48ZM2.17,33.63l-.54-.26V34C2.23,37,4.22,38.64,7,39.46c-.48,1.1-1.39.83-2,1.25-.79.57-1.71,1.06-1,2.07,1.28,1.91,3.35,1.41,5.21,1.35.76,0,1.44-.28,1.37-1.25a1.07,1.07,0,0,0-.2-.51C9,40.26,9.54,38.16,10.58,36A45.11,45.11,0,0,1,2.17,33.63ZM17.09,42.2c-.32-.83-1-.71-1.41-.93-.83-.39-2.42-.39-1.84-1.72.66-1.52,1.69-.71,2.45.25a.91.91,0,0,0,1.22.17c.45-.24.41-.75.34-1.21A3,3,0,0,0,15,36c-1.62-.15-3.11.23-3.83,1.88s-.6,3.46,1,4.62S15.51,43.3,17.09,42.2Zm-.46-10.07c-.18-.12-.38-.37-.62-.39-1.62-.2-3.24.37-3.33,2s1.65.84,2.59.88c.79,0,1.46,1,2,.55C19,33.41,13,34.47,16.63,32.13Z" style="fill:#5b413f"/><path d="M75.31,16.67c-1.06-1.52-2-3.05-.82-4.94a4,4,0,0,1,4.86-1.92c1.25.36,1.47-.13,1.9-1.07a25.71,25.71,0,0,0,2-7.17c.29-2.2,1.52-1.7,2.56-.82A8.22,8.22,0,0,1,87.6,3.42c.82,1.7.73,4.12,3.72,3.86.53,0,1.21,1,1.26,1.89a6.44,6.44,0,0,1-1,4.09c-1.66,2.49-4.17,4.16-6.08,6.44-1.5,1.78-4.07,1.57-5.74-.18a11.78,11.78,0,0,0-4.59-2.9Zm.37-3.59c.77-.14,1.77-.67,1.24,1-.24.75-.5,1.67.72,2.32.16-1.52.32-2.85,1.35-3.87a1.44,1.44,0,0,0,.32-1.21c-.22-.61-.89-.47-1.41-.42a2.26,2.26,0,0,0-2.38,2.08.58.58,0,0,0-.19.83Zm6.07-2.45c2.93.52,2.93.51,5.56,3.51.3.34.56.75,1.09.56,1.73-.61,2.19-2.25,2.87-3.67A2,2,0,0,0,91,8.52c-1.24-1-2.09.19-3,.71-.36.2-.66.69-1.12.18-.3-.35,0-.62.07-1a5.55,5.55,0,0,0-2.36-6.69A32.53,32.53,0,0,1,81.75,10.63Zm1.13,9a4.15,4.15,0,0,0,3.24-2.29c.93-1.75.23-3.21-1.08-4.33a3.3,3.3,0,0,0-4.46-.26c-1.4,1.09-2.12,2.51-1.44,4.28.32.84,1,1.87,1.81,1.8,1-.07,1.16-1,.81-2.07a1,1,0,0,1,1.15-1.39c.91.11,1,.9.8,1.68S83.23,18.52,82.88,19.6Z" style="fill:#432b29"/><path d="M43.44,14.2c.58-.17,1.3.07,1.71-.59.48.47.83,1.15,1.72.91,2-.51,3.92-1,5.88-1.46l3.81-.13c2.26.27,4.63-.25,7.09,1.12-4.62.28-9-.56-13.13,1.14-.05.54-.08,1-.89,1A9,9,0,0,0,44.1,17.9c-.14-.22-.34-.64-.42-.62-3.14.84-6.12,2-8.35,4.53h0c-1-.37-1.53.09-1.65,1.1h0c-1.29-.21-1.89.72-2.56,1.53a5.22,5.22,0,0,0-2.91,3.36c.24,1.72-1.6,2.08-2.16,3.28a3.59,3.59,0,0,1,.37-3.16c1.43-2.67,3.73-4.53,5.85-6.56A54.46,54.46,0,0,1,42.22,16C43.15,15.6,43.54,15.14,43.44,14.2Z" style="fill:#eab2ac"/><path d="M50.52,15.19c4.13-1.7,8.51-.86,13.13-1.14-2.46-1.37-4.83-.85-7.09-1.12C56.21,11.64,55,11.46,54,11c4.18-.59,8.26.19,12.32,1l-.52.89-.31.36a5.21,5.21,0,0,0,.83.52c3.15,1.31,5.29,3.5,5.14,7-.17,3.79-1.6,7.07-5.08,9.11l0-.62c.58-.68,1.17-1.34,1.74-2,4.25-5.14,2.73-10-3.69-11.76-.6-.17-1.22-.25-1.83-.4C58.58,14.24,54.55,15.66,50.52,15.19Z" style="fill:#4f3836"/><path d="M62,39.13C51.28,45,40.11,48,28,44.09c-3.59-1.17-6.19-3.6-6.79-7.62.87-.72,0-2,.88-2.71-.41,4.35,1.66,7.21,5.46,9a24,24,0,0,0,9.72,2c8.65.29,16.45-2.58,24.09-6.14Z" style="fill:#5b413f"/><path d="M22.1,33.76c-.88.71,0,2-.88,2.71,0-5.27,1.34-9.77,6.33-12.58,1.39-.78,1.34-3,3-3.78A6.5,6.5,0,0,1,32,19.4c-.07.68-.87,1.49.33,2-2.12,2-4.42,3.89-5.85,6.56a3.59,3.59,0,0,0-.37,3.16c.17,2.52-.21,5.22,2.22,7-1.35.61-1.81-.56-2.42-1.28-2.22-2.6-1.59-5.54-.91-8.48.4-.24.63-.52.26-1l-.66.65A13.08,13.08,0,0,0,22.1,33.76Z" style="fill:#4f3836"/><path d="M32.3,21.35c-1.2-.46-.4-1.27-.33-2,2.85-2.73,6.35-4.25,10-5.5.67-.23,1,.12,1.45.3.1.94-.29,1.4-1.22,1.75A54.46,54.46,0,0,0,32.3,21.35Z" style="fill:#5b413f"/><path d="M75.31,16.67l-.16-.05c3.17,8.59-1.61,14-7.65,18.79l-.58-.57a28.68,28.68,0,0,0,6.74-7.61c2.57-4.5,2-8.53-1.81-12.06l.55-.49C73.57,15.05,74,16.52,75.31,16.67Z" style="fill:#5b413f"/><path d="M52.75,13.06c-2,.48-3.92.95-5.88,1.46-.89.24-1.24-.44-1.72-.91,2-2.45,5-2,7.62-2.48C52.76,11.77,52.76,12.42,52.75,13.06Z" style="fill:#4f3836"/><path d="M66.92,34.84l.58.57A18.55,18.55,0,0,1,62,39.13l-.63-.51Z" style="fill:#644c4a"/><path d="M72.4,14.68l-.55.49a16.25,16.25,0,0,0-6-2.2l.52-.89A12.44,12.44,0,0,1,72.4,14.68Z" style="fill:#644c4a"/><path d="M52.75,13.06c0-.64,0-1.29,0-1.93L54,11.07c0,.15.09.3.13.45l-.1-.45v0c1,.42,2.18.6,2.53,1.89Z" style="fill:#4b3230"/><path d="M54,11.07l.1.45c0-.15-.08-.3-.13-.45Z" style="fill:#4f3836"/><path d="M2.17,33.63A45.11,45.11,0,0,0,10.58,36c-1,2.16-1.57,4.26-.21,6.37a1.07,1.07,0,0,1,.2.51c.07,1-.61,1.23-1.37,1.25-1.86.06-3.93.56-5.21-1.35-.68-1,.24-1.5,1-2.07.58-.42,1.49-.15,2-1.25C4.22,38.64,2.23,37,1.62,34Z" style="fill:#ece0e0"/><path d="M17.09,42.2c-1.58,1.1-3.25,1.44-4.88.26s-1.75-2.89-1-4.62,2.21-2,3.83-1.88a3,3,0,0,1,2.82,2.8c.07.46.11,1-.34,1.21a.91.91,0,0,1-1.22-.17c-.76-1-1.79-1.77-2.45-.25-.58,1.33,1,1.33,1.84,1.72C16.13,41.49,16.77,41.37,17.09,42.2Z" style="fill:#ba476f"/><path d="M16.63,32.13c-3.6,2.34,2.38,1.28.6,3-.5.41-1.17-.5-2-.55-.94,0-2.68.67-2.59-.88s1.71-2.17,3.33-2C16.25,31.76,16.45,32,16.63,32.13Z" style="fill:#ba476f"/><path d="M1.62,34v-.65l.54.26Z" style="fill:#ece0e0"/><path d="M81.75,10.63a32.53,32.53,0,0,0,2.76-8.87,5.55,5.55,0,0,1,2.36,6.69c-.09.34-.37.61-.07,1,.46.51.76,0,1.12-.18,1-.52,1.8-1.73,3-.71A2,2,0,0,1,91.27,11c-.68,1.42-1.14,3.06-2.87,3.67-.53.19-.79-.22-1.09-.56C84.68,11.14,84.68,11.15,81.75,10.63Z" style="fill:#ece0e0"/><path d="M82.88,19.6c.35-1.08.61-1.82.83-2.58s.11-1.57-.8-1.68a1,1,0,0,0-1.15,1.39c.35,1,.23,2-.81,2.07-.84.07-1.49-1-1.81-1.8-.68-1.77,0-3.19,1.44-4.28A3.3,3.3,0,0,1,85,13c1.31,1.12,2,2.58,1.08,4.33A4.15,4.15,0,0,1,82.88,19.6Z" style="fill:#ba476f"/><path d="M75.52,12.93c.16-1.42,1.11-1.95,2.38-2.07.52,0,1.19-.19,1.41.42A1.44,1.44,0,0,1,79,12.49c-1,1-1.19,2.35-1.35,3.87-1.22-.65-1-1.57-.72-2.32.53-1.63-.47-1.1-1.24-1Z" style="fill:#ba476f"/><path d="M75.68,13.08l-.35.69a.58.58,0,0,1,.19-.83Z" style="fill:#ba476f"/><path d="M44.1,17.9l-8.77,3.91c2.23-2.53,5.21-3.69,8.35-4.53C43.76,17.26,44,17.68,44.1,17.9Z" style="fill:#5b413f"/><path d="M32,24.5c-1.17,1.21-2.19,2.6-3.81,3.29a5.26,5.26,0,0,1,2.92-3.36Z" style="fill:#644c4a"/><path d="M32,24.5l-.89-.07c.67-.81,1.27-1.74,2.56-1.53C33.61,23.91,32.69,24.06,32,24.5Z" style="fill:#5b413f"/><path d="M35.34,21.81a1.31,1.31,0,0,1-1.65,1.1C33.81,21.9,34.3,21.44,35.34,21.81Z" style="fill:#5b413f"/><path d="M65.83,13a16.25,16.25,0,0,1,6,2.2c3.79,3.53,4.38,7.56,1.81,12.06a28.68,28.68,0,0,1-6.74,7.61l-5.55,3.78c-7.64,3.56-15.44,6.43-24.09,6.14a24,24,0,0,1-9.72-2c-3.8-1.81-5.87-4.67-5.46-9A13.08,13.08,0,0,1,24.57,28a3,3,0,0,0,.4.32c-.68,2.94-1.31,5.88.91,8.48.61.72,1.07,1.89,2.42,1.28h-.05c-.06.06-.17.13-.17.18a1.87,1.87,0,0,0,.13.4,7,7,0,0,0,3.32,1.67c6.66,1.84,13.14.82,19.56-1.23a14,14,0,0,0,5-2c1.73-.74,3.74-1,4.83-2.82l0,0c1.28,0,1.5-.21,1.12-1.09h0c1,.38,1.73.23,1.63-1.1h0A2.58,2.58,0,0,0,66.41,30c3.48-2,4.91-5.32,5.08-9.11.15-3.55-2-5.74-5.14-7a5.21,5.21,0,0,1-.83-.52Z" style="fill:#f3bab4"/><path d="M66.41,30a2.58,2.58,0,0,1-2.78,2.08c.48-1.34,1.91-1.72,2.75-2.7Z" style="fill:#5b413f"/><path d="M24.57,28l.66-.65c.37.45.14.73-.26,1A3,3,0,0,1,24.57,28Z" style="fill:#f3bab4"/><path d="M51.09,39.11c-6.42,2-12.9,3.07-19.56,1.23a7,7,0,0,1-3.32-1.67l.54-.45c6.52,3,13.17,2.41,19.86.69a16.19,16.19,0,0,1,1.85-.29Z" style="fill:#5b413f"/><path d="M51.09,39.11l-.63-.49c1.49-1.14,3.36-1.36,5-2l.59.49A14,14,0,0,1,51.09,39.11Z" style="fill:#644c4a"/><path d="M56.08,37.07l-.59-.49c1.86-.66,3.23-2.46,5.42-2.33C59.82,36.08,57.81,36.33,56.08,37.07Z" style="fill:#5b413f"/><path d="M63.62,32.09c.1,1.33-.59,1.48-1.63,1.1C62.32,32.5,62.77,32,63.62,32.09Z" style="fill:#5b413f"/><path d="M62,33.19c.38.88.16,1.09-1.12,1.09C60.57,33.23,61.3,33.23,62,33.19Z" style="fill:#5b413f"/><path d="M28.75,38.22l-.54.45a1.87,1.87,0,0,1-.13-.4c0-.05.11-.12.17-.18Z" style="fill:#4f3836"/></g></g></svg>