<svg xmlns="http://www.w3.org/2000/svg" viewBox="0 0 89.62 49.84"><g id="Ebene_2" data-name="Ebene 2"><g id="Ebene_1-2" data-name="Ebene 1"><path d="M39,0C56.16.23,69.82,4.34,81.53,14c3.84,3.15,7.29,6.67,8,12.08C90.24,32,87.7,36.35,83.43,40c-5.87,5-13,7.3-20.33,8.62a78.15,78.15,0,0,1-39.7-3.18C16.55,43.08,10.23,39.8,5.11,34.48c-7.14-7.41-6.7-16.07.72-23.19,6.35-6.1,14.28-8.19,22.39-10A42.78,42.78,0,0,1,39,0ZM78.24,17.46l.52.49.69.6c.3-.49,0-.75-.38-.95L78.59,17l-.53-.56c-.18-.43-.61-1-.93-.67-.64.61.29.78.55,1.15Zm-3.8-6c.43.09.94.8,1.25.14.22-.45-.48-.53-.86-.64-.91-.8-1.79-1.68-3.38-1.4ZM9.64,15.73A24.31,24.31,0,0,1,18,9.93c9.05-3.7,18.44-4.52,28.1-3.81,10.53.78,20.55,3,29.41,9.12a.79.79,0,0,0,1-.05,4.82,4.82,0,0,0-2.17-2.29c-7.89-5.42-16.78-7.82-26.18-9A60.15,60.15,0,0,0,22,6.22c-5.18,1.67-10,4-12.78,9.2-.45.22-.66.51-.31,1ZM13,8.22a17.18,17.18,0,0,0-5.68,3.55C0,17.8-.53,25.92,5.78,33c4.32,4.85,9.8,7.9,15.74,10.18A77.78,77.78,0,0,0,58.7,47.64C66.13,46.81,73.17,45,79.57,41c9.21-5.64,11.33-14.32,5.32-22a19.51,19.51,0,0,0-7-5.64,22.84,22.84,0,0,0,2.71,3.73A11.44,11.44,0,0,1,80.8,32c-3.2,4.06-7.53,6.37-12.28,8-10.89,3.63-22,3.6-33.14,1.5C27.23,39.9,19.51,37,12.89,31.71,7.59,27.46,5.22,21.09,7.28,16a17.29,17.29,0,0,1,6.22-7.3L18,6.16A7.41,7.41,0,0,0,13,8.22Zm27.7-1A56.45,56.45,0,0,0,25.4,8.91C20,10.21,14.88,12,11,16.21c-2.52,2.72-3.76,6.57-.83,10.42,3.69,4.85,8.61,7.82,14.06,10A67.1,67.1,0,0,0,57.54,41c6.88-.8,13.49-2.64,19.26-6.83,4.91-3.56,5.71-8.73,2.21-13.68a18.78,18.78,0,0,0-5.63-5C63.37,9.18,52.2,7.48,40.67,7.22Zm-8.18-5c11-.36,21.74.22,32.17,3.81A60.44,60.44,0,0,0,32.49,2.23Zm45.17,11.2c-.29-1.24-.83-1.66-2-1.38A2.44,2.44,0,0,0,77.66,13.43Z" style="fill:#432b29"/><path d="M13.5,8.71A17.29,17.29,0,0,0,7.28,16c-2.06,5.08.31,11.45,5.61,15.7C19.51,37,27.23,39.9,35.38,41.44c11.11,2.1,22.25,2.13,33.14-1.5,4.75-1.59,9.08-3.9,12.28-8a11.44,11.44,0,0,0-.25-14.87,22.84,22.84,0,0,1-2.71-3.73,19.51,19.51,0,0,1,7,5.64c6,7.69,3.89,16.37-5.32,22C73.17,45,66.13,46.81,58.7,47.64A77.78,77.78,0,0,1,21.52,43.2C15.58,40.92,10.1,37.87,5.78,33-.53,25.92,0,17.8,7.29,11.77A17.18,17.18,0,0,1,13,8.22Z" style="fill:#f6bcb7"/><path d="M9.26,15.42C12,10.24,16.86,7.89,22,6.22A60.15,60.15,0,0,1,48.21,3.93c9.4,1.15,18.29,3.55,26.18,9a4.82,4.82,0,0,1,2.17,2.29.79.79,0,0,1-1,.05C66.67,9.15,56.65,6.9,46.12,6.12c-9.66-.71-19,.11-28.1,3.81a24.31,24.31,0,0,0-8.38,5.8A2.72,2.72,0,0,0,9.26,15.42Z" style="fill:#f3bab4"/><path d="M32.49,2.23A60.44,60.44,0,0,1,64.66,6C54.23,2.45,43.45,1.87,32.49,2.23Z" style="fill:#eab2ac"/><path d="M13,8.22a7.41,7.41,0,0,1,5-2.06L13.5,8.71Z" style="fill:#f6bcb7"/><path d="M74.44,11.43l-3-1.91c1.59-.28,2.47.6,3.38,1.4Z" style="fill:#f6bcb7"/><path d="M77.66,13.43a2.44,2.44,0,0,1-2-1.38C76.83,11.77,77.37,12.19,77.66,13.43Z" style="fill:#f6bcb7"/><path d="M74.83,10.92c.38.11,1.08.19.86.64-.31.66-.82-.05-1.25-.13Z" style="fill:#f6bcb7"/><path d="M9.64,15.73,9,16.4c-.35-.47-.14-.76.31-1A2.72,2.72,0,0,1,9.64,15.73Z" style="fill:#f3bab4"/><path d="M77.68,16.91c-.26-.37-1.19-.54-.55-1.15.32-.3.75.24.93.67Z" style="fill:#f3bab4"/><path d="M79.07,17.6c.41.2.68.46.38.95l-.69-.6A1.73,1.73,0,0,0,79.07,17.6Z" style="fill:#f3bab4"/><path d="M78.24,17.46l-.56-.55.38-.48.53.56Z" style="fill:#f3bab4"/><path d="M78.59,17l.48.61a1.73,1.73,0,0,1-.31.35l-.52-.49Z" style="fill:#f3bab4"/></g></g></svg>