<svg xmlns="http://www.w3.org/2000/svg" viewBox="0 0 90.23 75.03">
    <g>
            <path d="M63.4,2.43C68,1.76,71.91,3.91,75.83,5.74c4.1,1.9,8.09,4.06,11,7.66,3.72,4.55,4.3,9.58,2,15-.59,1.38-1.49,2.72-.32,4.22a.57.57,0,0,1,.08.26c.19,1.2-3,6.69-4.13,7.21-2.76,1.22-3.07,2-2.13,5.24.12.42.25,1.11,0,1.31C80.83,48.06,82,49,83,50c1.44,1.51-.26,1.87-1,2.57-.64-.45,0-1-.07-1.45a1.91,1.91,0,0,0-1.07-1.72c-.49-.18-.74.36-1.08.63-.79.65-.14,1.23,0,1.89.33,1.79,1.65-.05,2.21.68.16,1-.9,1.31-1.1,2.08a.64.64,0,0,1-.78.53c-.36-.05-2.35-4.69-2.08-4.9,2.93-2.28.35-4.84.47-7.31-2.35,7-7,12.11-13.13,15.83-2.41,1.46-.41,3.42-1,5.12a4.59,4.59,0,0,0,1.34,4.69c.68.59.85,1.1.17,2A44.53,44.53,0,0,0,63.16,75a14.72,14.72,0,0,0-1.71-2.24c-1.33-1.19-1.22-2.32-.26-3.65.45-.64,1.16-1.84.94-2.1-1.55-1.8-.42-4.24-1.59-6-.22-.33-1.18-.24-1.8-.23a13.83,13.83,0,0,1-12.16-6.25,3,3,0,0,0-4.21-.27c-1.87,1.8-3.94,3.16-6.72,2.27-1.24-.4-2.35.36-3.78,0-3.12-.73-4.17-3.43-6.31-5.23a15.9,15.9,0,0,1-8,7.4,1.78,1.78,0,0,0-1.24,1.58c-.19,2.51-2.6,5-.09,7.55.68.7-.19,1.1-.52,1.56-.79,1.07-1.62,2.12-2.47,3.22-2-3.47-1.87-3.4-.44-7,.53-1.38.2-3.13.1-4.7s-.46-3.2-2.43-3.92a4,4,0,0,1-2.18-2.27c1.33-.64,1.8.65,2.54,1.2,1.92,1.45,4.08,2.43,6.38,1.74,3.21-1,5.34-3.51,7.11-6.25a2.39,2.39,0,0,0-1-3.29c-1.4-.61-3-1.51-4.7-1,0-.13.05-.26.07-.4l-.35.07.35.29a4.47,4.47,0,0,1-1.82,3.62c-1.08.62-1.38-1.3-2.19-1.93a1.56,1.56,0,0,1-.25-2c.71-1.23.26-1.62-.87-2.15a27.36,27.36,0,0,1-9.53-7c-.26-.31-.42-1.07-1.19-.6a1.15,1.15,0,0,0-.67,1.44A36.64,36.64,0,0,0,7.44,52.59c.39.63,1.59,1,.89,2.17-3.69-2.64-4.35-7-6-10.74-1.13-2.51-.51-5.49-2.15-7.86a1.23,1.23,0,0,1,0-1.06c1.66-3.35-.22-7,.92-10.43a28.31,28.31,0,0,1,5.49-9c3.69-4.48,8.83-7,13.94-9.42A66.86,66.86,0,0,1,53,.11c1.69.09,3.86-.32,5,1.71-.5.08-1.28-.13-1.38.47-.13.79.67.6,1.15.64a1.67,1.67,0,0,0,1.75-1h1.15c0,1.1.79,1,1.54,1,.74.45,1.22,1.67,2.56.73Zm10.35,4.3c-.28-1.24-1.23-1.17-2.18-1.08h0c-1.8-1.37-2-1.41-2.76-.44V6.27A66.18,66.18,0,0,0,47,3.38c-.7,0-1.69.53-2-.72,2.7-.75,5.47-.44,8.39-.37a3.11,3.11,0,0,0-2.5-1,85.64,85.64,0,0,0-13.2.93c-1.5.17-3.09.12-4.31,1.26-.62,0-1.44-.16-1.67.53-.3.88,1.05.41,1.16,1.1l-9.27,3c-.08-.43.64-1-.14-1.29-.12,0-.41,0-.45.09-.34.65.41.79.59,1.21a5.37,5.37,0,0,1-3.06,1.49c-.45-1.4-1.27-1.57-2.4-.71-2.44,1.55-5.47,2.27-7.11,5-2.13.79-3.3,2.72-4.69,4.26C-.09,25.26.79,33.33,7.8,39.26c6.4,5.41,14.23,7.39,22.29,8.41A77.73,77.73,0,0,0,67.7,43.21c7.16-2.69,13.78-6.43,18.35-12.89C89.83,25,89.6,19.22,85.6,14.1c-2.55-3.25-6.12-5-9.7-6.74-.65-.44-1.18-1.24-2.14-.62ZM59,59.68a7.88,7.88,0,0,0,4.28-1C70,55.09,74.87,50,77.27,42.65c.21-.65.43-1.17-.12-1.71-.72-.71-1.1.07-1.61.33a75.36,75.36,0,0,1-26.27,8c-1.61.2-3,2.78-2.1,4.13C49.78,57.49,53.47,59.66,59,59.68ZM30.7,49.33c-.58-.1-1.3-.58-1.64.21s.23,1.23.65,1.69a7.89,7.89,0,0,0,9.65,1A1.27,1.27,0,0,1,40.6,52c1.27.52,1.32-.29,1.44-1.21.18-1.32-.71-.9-1.37-.93ZM63.54,67.76a5.22,5.22,0,0,0-1.74,2.86c-.33.83.59,1.88,1.15,1.77,1.15-.21,1.63-1.52,2-2.51S64.21,68.41,63.54,67.76Zm-50,2.76c.6-1.23,2-2,.78-3.43-.38-.45-.74-.45-1.11-.06C12.12,68.21,12.73,69.24,13.58,70.52ZM16.27,46a1.06,1.06,0,0,0-.83,1.2c.05.82.33,1.58,1.23,1.73a1.71,1.71,0,0,0,.6-1.25C17.07,47.12,17.22,46.19,16.27,46ZM66.35,4.27c-.08-.14-.14-.33-.26-.4s-.26.07-.39.11c.07.14.11.35.22.4S66.2,4.31,66.35,4.27Zm-38.55,1A.78.78,0,0,0,27.73,5s-.13,0-.2,0a.78.78,0,0,0,.07.23S27.73,5.24,27.8,5.22Z"
                  style="fill:#4b3230"/>
            <path d="M59.53,2a1.67,1.67,0,0,1-1.75,1c-.48,0-1.28.15-1.15-.64.1-.6.88-.39,1.38-.47s.9.17,1.14-.31c.08-.16,0-.42-.08-.64,0,.08,0,.17,0,.25s0,.2,0,.26S59.37,1.77,59.53,2Z"
                  style="fill:#4f3836"/>
            <path d="M62.22,2.93c-.75,0-1.52.12-1.54-1,.66-.39,1.37-1,1.65.37Z" style="fill:#4f3836"/>
            <path d="M62.22,2.93l.11-.61,1.07.11,1.38,1.23C63.44,4.6,63,3.38,62.22,2.93Z" style="fill:#5b413f"/>
            <path d="M75.9,7.36c3.58,1.74,7.15,3.49,9.7,6.74,4,5.12,4.23,10.87.45,16.22-4.57,6.46-11.19,10.2-18.35,12.89a77.73,77.73,0,0,1-37.61,4.46c-8.06-1-15.89-3-22.29-8.41-7-5.93-7.89-14-1.48-21.09C7.71,16.63,8.88,14.7,11,13.91c.35,1.91-1.47,2.57-2.25,3.8-4.41,6.89-2,14.65,5.86,19.17C21,40.55,28,42.06,35.28,42.61A70.2,70.2,0,0,0,62.79,39.2C69.42,37,75.64,33.93,80.17,28.29c5-6.29,4.19-13.86-2-17.92-.52-1.14-1.67-1.54-2.55-2.26Z"
                  style="fill:#f3bab4"/>
            <path d="M78.17,10.37c6.19,4.06,7,11.63,2,17.92C75.64,33.93,69.42,37,62.79,39.2a70.2,70.2,0,0,1-27.51,3.41C28,42.06,21,40.55,14.62,36.88,6.71,32.36,4.35,24.6,8.76,17.71c.78-1.23,2.6-1.89,2.25-3.8,1.64-2.71,4.67-3.43,7.11-5l0,0c.43.85-1,1.4-.38,2.28-1.8,1.47-3.71,2.84-5.39,4.45A15.38,15.38,0,0,0,8.68,21.5C16.2,12.17,26.82,9.18,37.75,6.8v1l-1,.49,0,1L33.4,10c-.07-.35-.11-.78-.56-.77s-.48.45-.54.8l-1,.1a2.47,2.47,0,0,0-3.09.74c-.56.63-.18,1.15.48,1.49l-1.18.91c-1.78-2.42-2.8.14-3.62.86-1.28,1.13-.2,1.52,1,1.42a.52.52,0,0,0,.3.83.34.34,0,0,1-.25.25c-1.53-1.19-1.4,1.17-2.4,1.12l-.63,0c.12-1.25-.43-1.16-1.21-.59l-1.05,0c.17-1.49,2.42-1.85,2.11-3.88A31.18,31.18,0,0,0,12,20.07C9.11,23.24,9,30.24,11.78,32.88a23.68,23.68,0,0,0,6,4c1.66.78,2.57.18,3.32-1.13a4.84,4.84,0,0,0,.76-3.34l.54-.6,1.09.64-.45,1.08a8.2,8.2,0,0,1-2.49,4.6l2.25.72c9.84,3.14,19.91,3,29.92,1.41a51.13,51.13,0,0,0,18.3-6.39c.7-.42,2-.67,1.16-1.92s.26-3.64-2.27-3.88c1.06-1.67,2.11-3.35,3.18-5,.27-.41.63-.61,1-.09-2.25,3-2.32,6-.37,9.23A29.76,29.76,0,0,0,76.63,30c2.62-2.59,5.23-5.15,4.78-9.39-.4-3.69-2.9-5.82-5.37-8C77.21,12.27,78.31,11.92,78.17,10.37Z"
                  style="fill:#4f3836"/>
            <path d="M37.75,6.8C26.82,9.18,16.2,12.17,8.68,21.5a15.38,15.38,0,0,1,3.69-5.82c1.68-1.61,3.59-3,5.39-4.45a2.57,2.57,0,0,0,1.57-.82,1.3,1.3,0,0,0,1.19-.77,5.37,5.37,0,0,0,3.06-1.49h0l9.27-3L33.94,5l2.47-.41a1.45,1.45,0,0,0,1.37-.28l1.35-.26a1.37,1.37,0,0,0,1.37-.27c1.07,0,2.15,0,3.21-.11.73-.06,1.54-.22.89-1.29a.43.43,0,0,0,.38.27c.28,1.25,1.27.73,2,.72A66.18,66.18,0,0,1,68.83,6.27c1.91,1.41,4.79,1.29,6,3.78C69.19,8,63.48,6.09,57.37,5.88L56.3,5.81,52,5.76a33.14,33.14,0,0,0-7.11,0,6.59,6.59,0,0,0-4.13,1h.06A4.73,4.73,0,0,0,37.75,6.8Z"
                  style="fill:#eab2ac"/>
            <path d="M45,2.66a.43.43,0,0,1-.38-.27c-3.3,0-3.3,0-4.1,1.4a1.37,1.37,0,0,1-1.37.27c-.18-1.45-1.19-.76-1.69-.47s-.08.61.34.73a1.45,1.45,0,0,1-1.37.28c-.44-2-1.68-.23-2.47-.53l-.58-.58c1.22-1.14,2.81-1.09,4.31-1.26a85.64,85.64,0,0,1,13.2-.93,3.11,3.11,0,0,1,2.5,1C50.45,2.22,47.68,1.91,45,2.66Z"
                  style="fill:#bda99c"/>
            <path d="M74.85,10.05c-1.23-2.49-4.11-2.37-6-3.78V5.21c1-.15,1.73,1,2.76.44h0c.34,1.13,1.26,1.11,2.18,1.08h0c.2,1,1.12,1.07,1.86,1.37.88.72,2,1.12,2.55,2.26.14,1.55-1,1.9-2.13,2.2l0,0c.43-.5.07-.95-.08-1.42-.11-.63.19-1.69-1.12-1.08Z"
                  style="fill:#5b413f"/>
            <path d="M63.54,67.76c.67.65,1.74,1.18,1.4,2.12s-.84,2.3-2,2.51c-.56.11-1.48-.94-1.15-1.77A5.22,5.22,0,0,1,63.54,67.76Z"
                  style="fill:#ba476f"/>
            <path d="M82,52.63c-.56-.73-1.88,1.11-2.21-.68-.12-.66-.77-1.24,0-1.89.34-.27.59-.81,1.08-.63a1.91,1.91,0,0,1,1.07,1.72c.07.48-.57,1,.07,1.45Z"
                  style="fill:#ba476f"/>
            <path d="M13.58,70.52c-.85-1.28-1.46-2.31-.33-3.49.37-.39.73-.39,1.11.06C15.57,68.54,14.18,69.29,13.58,70.52Z"
                  style="fill:#ba476f"/>
            <path d="M16.27,46c.95.16.8,1.09,1,1.68a1.71,1.71,0,0,1-.6,1.25c-.9-.15-1.18-.91-1.23-1.73A1.06,1.06,0,0,1,16.27,46Z"
                  style="fill:#ba476f"/>
            <path d="M33.36,3.49l.58.58V5l-1.09.11c-.11-.69-1.46-.22-1.16-1.1C31.92,3.33,32.74,3.52,33.36,3.49Z"
                  style="fill:#4f3836"/>
            <path d="M20.52,9.64a1.3,1.3,0,0,1-1.19.77C19.25,9.66,19.06,9,18.14,9l0,0C19.25,8.07,20.07,8.24,20.52,9.64Z"
                  style="fill:#4f3836"/>
            <path d="M71.58,5.65c-1,.54-1.79-.59-2.76-.44C69.53,4.24,69.78,4.28,71.58,5.65Z" style="fill:#bfab9e"/>
            <path d="M75.62,8.11c-.74-.3-1.66-.35-1.86-1.37,1-.62,1.49.18,2.14.62C75.8,7.61,75.71,7.86,75.62,8.11Z"
                  style="fill:#bfab9e"/>
            <path d="M73.75,6.73c-.92,0-1.84,0-2.18-1.08C72.52,5.56,73.47,5.49,73.75,6.73Z" style="fill:#bfab9e"/>
            <path d="M23.58,8.15c-.18-.42-.93-.56-.59-1.21,0-.09.33-.14.45-.09.78.33.06.86.14,1.29Z"
                  style="fill:#4f3836"/>
            <path d="M66.35,4.27c-.15,0-.33.16-.43.11s-.15-.26-.22-.4c.13,0,.31-.16.39-.11S66.27,4.13,66.35,4.27Z"
                  style="fill:#5b413f"/>
            <path d="M27.8,5.22c-.07,0-.18.07-.2,0A.78.78,0,0,1,27.53,5c.07,0,.18-.07.2,0A.78.78,0,0,1,27.8,5.22Z"
                  style="fill:#4f3836"/>
            <path d="M18.68,47.1l-.35-.29.35-.07c0,.14-.05.27-.07.4Z" style="fill:#fcfcfc"/>
            <path d="M23.53,32.5l-1.09-.64c-5.67-5.12-6.05-8.46-1.71-14.79.78-.57,1.33-.66,1.21.59l-.1.1.07.13c-1.78,3.05-1.59,5.66.62,8.48,3.26,4.14,7.78,5.61,12.8,6l.83,0c4.12,1.39,8.3,1,12.47.36,2.55-.49,5.18-.61,7.63-1.58,5.1-2,10.32-3.86,13-9.23,2.17-3.9.42-6.94-2.12-9.82l1.11,0c1.27,0,1.36,1.79,2.66,1.76,1.22,2.58,4.27,4.4,3.32,7.9l0-.06c-.26.2-.7.37-.74.61-.06.39.31.57.72.5V23l-.13,0c-.39-.52-.75-.32-1,.09-1.07,1.66-2.12,3.34-3.18,5L70,28c-.57-.18-.82.26-1.12.59a39,39,0,0,1-15.49,6.79C43.12,37.55,33.09,37.45,23.53,32.5Z"
                  style="fill:#f3bab4"/>
            <path d="M48.63,32.8c-4.17.62-8.35,1-12.47-.36a9.85,9.85,0,0,0,1.34-.22c1.42-.43,3.56,1.06,4.16-.62a5.75,5.75,0,0,0-.58-4.38,1.24,1.24,0,0,1,.11-1c.59-.89-.09-1.2-.66-1.31-4.23-.84-6.12-4-7-7.66-.5-2-1.62-.56-1.7-.45-2.12,2.9-5,1.69-7.7,1.52-.5-1,.7-1.07.87-1.7a.34.34,0,0,0,.25-.25c.55-.31,1.15-.58,1.11-1.37v0c2-.15,3.36-1.58,5.11-2.19.85-.3,1.73-1.19,2.65-.1a10.84,10.84,0,0,0,1.71,7.42,7.35,7.35,0,0,0,10.62,2.73,17.23,17.23,0,0,0,8.24-12.27l1.06,0,.09.07c-.92,4.83-3,9.18-7.07,11.92-2.83,1.93-5,2.91-4.25,7.35.43,2.6.71,2.46,2.54,2.1a9.59,9.59,0,0,1,1.61,0Z"
                  style="fill:#432b29"/>
            <path d="M34.09,12.7c-.92-1.09-1.8-.2-2.65.1-1.75.61-3.16,2-5.11,2.19-.67-1.32,1-1,1.2-1.77l1.18-.91c1.23-.33,2.41-.7,2.61-2.23l1-.1,1.1,0,3.4-.66,9.66-1.51,1.12,0,1.63-.06,5.15.43v0l2.44.39A1.15,1.15,0,0,0,58,8.83a.81.81,0,0,0,.53.09l2.78,1c.62.78.69,1.47-.55,1a24.17,24.17,0,0,0-4.94-1.18,47.24,47.24,0,0,0-11.46-.08c-2.62.37-5.43,0-7.61,2C35.54,11.29,35.16,12.83,34.09,12.7Z"
                  style="fill:#eab2ac"/>
            <path d="M69.47,29.16c-5.6,4.83-12.34,7-19.47,8.06-9.27,1.34-18.35.55-26.92-3.64l.45-1.08c9.56,5,19.59,5,29.84,2.92a39,39,0,0,0,15.49-6.79Z"
                  style="fill:#644c4a"/>
            <path d="M21.9,32.46c-6-4.26-6.76-9.49-2.22-15.36l1.05,0c-4.34,6.33-4,9.67,1.71,14.79Z"
                  style="fill:#644c4a"/>
            <path d="M46.46,7.78,36.8,9.29c0-.34,0-.68,0-1a19.89,19.89,0,0,0,6.55-1.2l-2.6-.34a6.59,6.59,0,0,1,4.13-1C44.53,7.13,45.82,7.19,46.46,7.78Z"
                  style="fill:#5b413f"/>
            <path d="M27.53,13.22c-.18.74-1.87.45-1.2,1.77v0c-.77-.62-1,.27-1.41.54-1.21.1-2.29-.29-1-1.42C24.73,13.36,25.75,10.8,27.53,13.22Z"
                  style="fill:#644c4a"/>
            <path d="M31.32,10.08c-.2,1.53-1.38,1.9-2.61,2.23-.66-.34-1-.86-.48-1.49A2.47,2.47,0,0,1,31.32,10.08Z"
                  style="fill:#644c4a"/>
            <path d="M40.71,6.72l2.6.34a19.89,19.89,0,0,1-6.55,1.2c.33-.16.66-.32,1-.49,1-.39,2.23-.09,3-1Z"
                  style="fill:#bda99c"/>
            <path d="M21.91,17.89l-.07-.13.1-.1.63,0c.1.64.6.43,1,.46l.05.7c0,.41.05.84-.47,1l-1.13.6-.16-.17Z"
                  style="fill:#644c4a"/>
            <path d="M18.14,9c.92.06,1.11.71,1.19,1.46a2.57,2.57,0,0,1-1.57.82C17.17,10.35,18.57,9.8,18.14,9Z"
                  style="fill:#4b3230"/>
            <path d="M23.56,18.16c-.39,0-.89.18-1-.46,1,.05.87-2.31,2.4-1.12-.17.63-1.37.73-.87,1.7l.06-.05A.35.35,0,0,0,23.56,18.16Z"
                  style="fill:#eab2ac"/>
            <path d="M40.77,6.73c-.8.95-2,.65-3,1,0-.32,0-.65,0-1A4.73,4.73,0,0,1,40.77,6.73Z" style="fill:#5b413f"/>
            <path d="M24.92,15.5c.44-.27.64-1.16,1.41-.54,0,.79-.56,1.06-1.11,1.37A.52.52,0,0,1,24.92,15.5Z"
                  style="fill:#eab2ac"/>
            <path d="M33.4,10l-1.1,0c.06-.35.08-.79.54-.8S33.33,9.6,33.4,10Z" style="fill:#5b413f"/>
            <path d="M56.81,8.52l-2.44-.39c.45-.2,1.14-.15,1-.91,0-.14-.42-.35-.59-.31-.75.17-.62.73-.45,1.26l-5.15-.43c0-.12,0-.25,0-.37C50.37,7.21,52,7.93,52,5.76l4.35,0c.33.5.68.5,1.07.07,6.11.21,11.82,2.1,17.48,4.17l0,0a1.79,1.79,0,0,0,1.12,1.08c.15.47.51.92.08,1.42l-4.69-2.24a3,3,0,0,0,.22,3.08l-.58.52c-1.3,0-1.39-1.76-2.66-1.76-.32-.36-.47-1.17-1.2-.45l-.85,0,.47-1.44c.79.35,1.08-.16,1.24-.77s-.54-.52-.82-.59c-.92-.25-1.86-.8-3-.19l2.58,1.55c-1.63.51-2.7-.53-3.85-1.37,0-.14,0-.29,0-.44-.68-1.25-1.61-1.36-2.73-.59H58.47C57.43,6.88,57,7.42,56.81,8.52Z"
                  style="fill:#4f3836"/>
            <path d="M52,5.76c.07,2.17-1.58,1.45-2.71,1.61-.71-.46-1.31-.48-1.66.43l-1.12,0c-.64-.59-1.93-.65-1.62-2A33.14,33.14,0,0,1,52,5.76Z"
                  style="fill:#644c4a"/>
            <path d="M40.5,3.79c.8-1.35.8-1.35,4.1-1.4.65,1.07-.16,1.23-.89,1.29C42.65,3.78,41.57,3.76,40.5,3.79Z"
                  style="fill:#4b3230"/>
            <path d="M33.94,5V4.07c.79.3,2-1.43,2.47.53Z" style="fill:#4b3230"/>
            <path d="M37.78,4.32c-.42-.12-1-.37-.34-.73s1.51-1,1.69.47Z" style="fill:#4b3230"/>
            <path d="M57.37,5.88c-.39.43-.74.43-1.07-.07Z" style="fill:#644c4a"/>
            <path d="M75.92,11.11A1.79,1.79,0,0,1,74.8,10C76.11,9.42,75.81,10.48,75.92,11.11Z" style="fill:#eab2ac"/>
            <path d="M66.24,11.66l.85,0,.09.49c2.54,2.88,4.29,5.92,2.12,9.82l-.48-1.06c.22-2.14,0-4.15-1.78-5.67-.36-.33-.84-1.15-1.24-.65-1.41,1.79-2.08.38-2.89-.51-.24-.26-.27-.6-.64-.06-.8,1.16-2,1.58-2.74.2s-2.37-.46-3.22-1.61c-.53-.71,1.23-1.79-.5-2l-.09-.07.05-.87a24.17,24.17,0,0,1,4.94,1.18c1.24.5,1.17-.19.55-1l.54-1.49h1c0,.15,0,.3,0,.44-1.7,1.84.88,2.22,1.29,3.31S65.55,12.09,66.24,11.66Z"
                  style="fill:#4b3230"/>
            <path d="M68.82,20.93,69.3,22c-2.72,5.37-7.94,7.22-13,9.23-2.45,1-5.08,1.09-7.63,1.58,0-.27,0-.54,0-.82,2.28-.55,4.6-1,6.84-1.67C60.92,28.63,66,26.31,68.82,20.93Z"
                  style="fill:#644c4a"/>
            <path d="M23.14,19.87c1.06,2.1.06,4.27.24,6.4l-.85.1c-2.21-2.82-2.4-5.43-.62-8.48l-.06,2.41c-.07.13-.13.25-.19.38l.35-.21Z"
                  style="fill:#4b3230"/>
            <path d="M22.53,26.37l.85-.1a19.49,19.49,0,0,0,9.76,4.89c1,.17,1.43.88,2.19,1.24C30.31,32,25.79,30.51,22.53,26.37Z"
                  style="fill:#644c4a"/>
            <path d="M71,13.89l.58-.52a8.13,8.13,0,0,1,2.74,8.42C75.22,18.29,72.17,16.47,71,13.89Z"
                  style="fill:#644c4a"/>
            <path d="M69.47,29.16l-.61-.53c.3-.33.55-.77,1.12-.59C70.5,28.73,69.86,28.88,69.47,29.16Z"
                  style="fill:#4f3836"/>
            <path d="M67.18,12.17l-.09-.49c.73-.72.88.09,1.2.45Z" style="fill:#644c4a"/>
            <path d="M74.31,21.73c0,.37,0,.74,0,1.11-.41.07-.78-.11-.72-.5C73.61,22.1,74.05,21.93,74.31,21.73Z"
                  style="fill:#4f3836"/>
            <path d="M54.66,10.58c-3.44-.73-6.9-.28-10.35-.2V9.61a47.24,47.24,0,0,1,11.46.08c0,.29,0,.58-.05.87Z"
                  style="fill:#5b413f"/>
            <path d="M44.31,9.61v.77L36.7,11.61C38.88,9.58,41.69,10,44.31,9.61Z" style="fill:#644c4a"/>
            <path d="M61.8,8.41,61.26,9.9l-2.78-1V8.37c0-.18,0-.36,0-.54h1.64C60.51,8.49,61.19,8.34,61.8,8.41Z"
                  style="fill:#644c4a"/>
            <path d="M58.47,7.83c0,.18,0,.36,0,.54L58,8.83a1.15,1.15,0,0,1-1.14-.31C57,7.42,57.43,6.88,58.47,7.83Z"
                  style="fill:#5b413f"/>
            <path d="M54.36,8.17c-.17-.53-.3-1.09.45-1.26.17,0,.57.17.59.31.11.76-.58.71-1,.91Z" style="fill:#644c4a"/>
            <path d="M47.58,7.8c.35-.91,1-.89,1.66-.43,0,.12,0,.25,0,.37Z" style="fill:#5b413f"/>
            <path d="M58,8.83l.54-.46c0,.19,0,.37,0,.55A.81.81,0,0,1,58,8.83Z" style="fill:#4f3836"/>
            <path d="M24.16,18.23l-.55.63-.05-.7A.35.35,0,0,1,24.16,18.23Z" style="fill:#432b29"/>
            <path d="M66.24,11.66c-.69.43-1.7,1.63-2.12.5s-3-1.47-1.29-3.31c1.15.84,2.22,1.88,3.85,1.38h0Z"
                  style="fill:#644c4a"/>
            <path d="M66.71,10.22h0c-.81-.5-1.63-1-2.58-1.56,1.17-.61,2.11-.06,3,.19.28.07,1-.17.82.59S67.5,10.57,66.71,10.22Z"
                  style="fill:#e3d6d6"/>
            <path d="M61.8,8.41c-.61-.07-1.29.08-1.69-.59,1.12-.77,2-.66,2.73.59Z" style="fill:#5b413f"/>
            <path d="M22,20.47l-.35.21c.06-.13.12-.25.19-.38Z" style="fill:#644c4a"/>
        </g>
</svg>