<svg xmlns="http://www.w3.org/2000/svg" viewBox="0 0 57.86 79.73"><g id="Ebene_2" data-name="Ebene 2"><g id="Ebene_1-2" data-name="Ebene 1"><path d="M37,4.38c2.61-1.33,5.09-.55,7.71.15,7.81,2.1,12.3,7.19,13,14.77.82,8.54-3.44,14.86-10.53,18a5.93,5.93,0,0,1-3.43.48c-2-.41-2.48.63-2.91,2.16A28.26,28.26,0,0,1,30.46,55.11c-1.58,1.19-2.85,6.67-2,8.31.57,1.06,1.33,1,2.28.5a16.84,16.84,0,0,1,4.76-1.86c2.44-.39,4.1.74,4.46,3.16.53,3.52.26,7.07.36,10.6.05,2-1.69,2.2-2.92,2.68-3.54,1.38-7.3,1.34-11,1.11a35.07,35.07,0,0,1-12.92-2.78c-2.59-1.21-4.2-3-3.62-6.16.41-2.29.06-4.74,1.6-6.76,1-1.26,2-2.36,3.72-2.47.83.32,1.67.6,2.48,1,.65.29,1.2.51,1.35-.48.12-.81-.39-.82-1-.79a5.62,5.62,0,0,1-2.82-.55C10.62,57.34,5.94,54.21,2.7,49.46,0,45.46-.95,41.2,1.16,36.67a9.58,9.58,0,0,0,.34-6.33c-1.1-5.21-.87-10.28,1.92-15,1-1.62.09-3.18.12-4.76s0-2.88.07-4.33c.15-2.12.82-3.55,3.34-3,1,.24,1.66-.55,2.4-1a15.58,15.58,0,0,1,20.11,3.4c.54.67.95,1.62,2.1,1.42V8.18L29.4,9.86l-.59-.61c.62-.88,0-.94-.67-1.11A25.81,25.81,0,0,0,16,8.33C6.3,10.65,1.3,18,2.69,27.8c.52,3.61.8,7-.67,10.6-1.25,3.05-.5,6.16,1.25,9.08C6.31,52.57,11,55.85,15.7,59a3.77,3.77,0,0,0,4.11.14c2.48-1.31,5.11-2.35,7.54-3.74A26,26,0,0,0,39.61,39.8c.43-1.4.37-2.34-1.15-3.32-4.29-2.76-5.37-7-3.23-11.32a13.21,13.21,0,0,1,3.27-3.72c-.89-1-2.11-1.51-2.31-2.82l.87-.06c1.19,1.32,2.1,2,2.7-.52.69-2.83,1.87-5.52,2.21-8.46.59-5.17.67-5.16-4.29-4.57Zm10.38,24a1.74,1.74,0,0,0-1.08,1.1c-.13.09-.65,0-.2.39l.16-.43c.78.07,1.31-.13,1.11-1.07.37.2.58,0,.79-.29,2.09-1.16,2.2-3.16,1.93-5.13-.29-2.16-2.34-3-3.83-4.2-.62-.48-1.45,0-1.66.93-.7,0-1.7-.38-2,.29s.29,1.49,1,2A5.21,5.21,0,0,1,45,23.64c.74,1.4,1,2.82-.5,4-1-.82.29-2.29-1.28-2.92v4.82a5.34,5.34,0,0,0,4.13-4.29c.48-2.49-.7-4.26-2.75-5.54.66-.57,1.19-.05,1.66.28,2.38,1.63,2.76,3.59,1.56,7.78ZM33.74,71.31c-.18.89-.65,1.76-.44,2.41.43,1.36-.26,3.72,2.09,3.66,2,0,3.54-1.15,3.35-3.68-.17-2.34,0-4.71-.11-7.07-.07-2.69-1.26-3.58-3.77-2.78-1.2.38-2.36.91-3.53,1.4-2.79,1.15-4.45,0-4.69-3-.15-1.8.68-3.41.92-5.37a42.41,42.41,0,0,1-4.64,2.26C21,59.76,19.76,60.5,20,62.88a3.68,3.68,0,0,1-1.9,3.35c-.11-2-.88-3.39-2.78-3.37s-2.77,1.68-3.17,3.25a36.65,36.65,0,0,0-.6,5.34c2.08-.27,3.2-1.84,4.71-3.1.29,2.14-1.2,2.72-2.28,3.61-.72.6-2.21.66-2,1.88.15,1,1.37,1.33,2.3,1.71.67.27,1.35.51,2,.79,1.44.6,2.53.91,3.24-1.19a6.94,6.94,0,0,1,2.75-3.65c.29,1.79-.87,2.74-1.51,3.87-.74,1.31-.76,2.06,1,2.28a71.88,71.88,0,0,0,8.67.49c2.1,0,2.71-.83,1.62-2.58C30.82,73.5,30.31,71.84,33.74,71.31ZM40.17,23.7c-1.4-.43-2,.29-2.68,1.11a6.68,6.68,0,0,0-.84,7.35,8.39,8.39,0,0,0,9.21,4.18c5.84-1.23,9.76-6.3,10.67-13.81C57.4,15.32,52.78,8.22,46,6.43c-1.19-.31-2.33-.88-2.54,1.35a37.38,37.38,0,0,1-1.76,7.86c-.6,1.9-.35,2.22,1.66,2a7.33,7.33,0,0,1,8,4.61c.8,2.32-.92,6.6-3.34,8.31-2.86,2-6,2.22-8,.49C38.33,29.49,38.33,27.36,40.17,23.7ZM27.61,6C23.9,1.15,15.56.31,10.8,2.84c-.53.28-1.43.77-.77,1.37C11.43,5.49,12.64,7.59,14.9,7,19,6,23.13,6,27.61,6ZM5.26,12.78c1.06-1.58.53-3.06.65-4.42.15-1.52.91-1.63,2-1A6.85,6.85,0,0,1,9.1,8.47c1,.94,1.87.08,2.36-.4.65-.63-.29-1-.74-1.51A9.14,9.14,0,0,0,6.78,4.41c-1-.34-1.67-.36-2,1A11.42,11.42,0,0,0,5.26,12.78ZM41.67,29.12a8.16,8.16,0,0,0-.14-4.1C40.27,27.25,40.27,27.25,41.67,29.12Z" style="fill:#4b3230"/><path d="M37,4.38l.67.63L31.56,8.18V7.1A13.1,13.1,0,0,1,37,4.38Z" style="fill:#5b413f"/><path d="M15.21,60.58a5.62,5.62,0,0,0,2.82.55c.59,0,1.1,0,1,.79-.15,1-.7.77-1.35.48-.81-.36-1.65-.64-2.48-1Z" style="fill:#e3d6d6"/><path d="M36.19,18.62c.2,1.31,1.42,1.81,2.31,2.82a13.21,13.21,0,0,0-3.27,3.72c-2.14,4.31-1.06,8.56,3.23,11.32,1.52,1,1.58,1.92,1.15,3.32A26,26,0,0,1,27.35,55.43c-2.43,1.39-5.06,2.43-7.54,3.74A3.77,3.77,0,0,1,15.7,59C11,55.85,6.31,52.57,3.27,47.48,1.52,44.56.77,41.45,2,38.4c1.47-3.56,1.19-7,.67-10.6C1.3,18,6.3,10.65,16,8.33a25.81,25.81,0,0,1,12.11-.19c.71.17,1.29.23.67,1.11-.87,1.05-2.55,2-1.55,3.54a3,3,0,0,0,4,1.12c.79-.38,1.33.16,2,.41C35.33,15.08,35.3,17.14,36.19,18.62Z" style="fill:#bfab9e"/><path d="M33.74,71.31c-3.43.53-2.92,2.19-1.66,4.25,1.09,1.75.48,2.58-1.62,2.58a71.88,71.88,0,0,1-8.67-.49c-1.8-.22-1.78-1-1-2.28.64-1.13,1.8-2.08,1.51-3.87a6.94,6.94,0,0,0-2.75,3.65c-.71,2.1-1.8,1.79-3.24,1.19-.67-.28-1.35-.52-2-.79-.93-.38-2.15-.69-2.3-1.71-.18-1.22,1.31-1.28,2-1.88,1.08-.89,2.57-1.47,2.28-3.61-1.51,1.26-2.63,2.83-4.71,3.1a36.65,36.65,0,0,1,.6-5.34c.4-1.57,1.19-3.24,3.17-3.25s2.67,1.4,2.78,3.37A3.68,3.68,0,0,0,20,62.88c-.24-2.38,1-3.12,2.92-3.76a42.41,42.41,0,0,0,4.64-2.26c-.24,2-1.07,3.57-.92,5.37.24,3,1.9,4.17,4.69,3,1.17-.49,2.33-1,3.53-1.4,2.51-.8,3.7.09,3.77,2.78.07,2.36-.06,4.73.11,7.07.19,2.53-1.32,3.63-3.35,3.68-2.35.06-1.66-2.3-2.09-3.66C33.09,73.07,33.56,72.2,33.74,71.31Z" style="fill:#bda99c"/><path d="M40.17,23.7c-1.84,3.66-1.84,5.79-.08,7.32,2,1.73,5.15,1.54,8-.49,2.42-1.71,4.14-6,3.34-8.31a7.33,7.33,0,0,0-8-4.61c-2,.25-2.26-.07-1.66-2a37.38,37.38,0,0,0,1.76-7.86C43.7,5.55,44.84,6.12,46,6.43c6.75,1.79,11.37,8.89,10.5,16.1C55.62,30,51.7,35.11,45.86,36.34a8.39,8.39,0,0,1-9.21-4.18,6.68,6.68,0,0,1,.84-7.35C38.14,24,38.77,23.27,40.17,23.7Z" style="fill:#ba476f"/><path d="M31.56,8.18,37.68,5c5-.59,4.88-.6,4.29,4.57-.34,2.94-1.52,5.63-2.21,8.46-.6,2.47-1.51,1.84-2.7.52a3.63,3.63,0,0,1,.29-3.09,7.35,7.35,0,0,0,.83-4.17c0-1.47-.47-1.93-2-1.59A10.48,10.48,0,0,0,32,12.07c-1.05.84-2.17,1.66-3.34.55s.75-1.75.71-2.76Z" style="fill:#ece0e0"/><path d="M27.61,6C23.13,6,19,6,14.9,7c-2.26.56-3.47-1.54-4.87-2.82-.66-.6.24-1.09.77-1.37C15.56.31,23.9,1.15,27.61,6Z" style="fill:#ba476f"/><path d="M29.4,9.86c0,1-1.9,1.64-.71,2.76s2.29.29,3.34-.55a10.48,10.48,0,0,1,4.19-2.36c1.49-.34,2,.12,2,1.59a7.35,7.35,0,0,1-.83,4.17,3.63,3.63,0,0,0-.29,3.09l-.87.06c-.89-1.48-.86-3.54-2.9-4.3-.66-.25-1.2-.79-2-.41a3,3,0,0,1-4-1.12c-1-1.55.68-2.49,1.55-3.54ZM37,10.6c-1.48.39-3.39.62-3.55,2-.14,1.24,2,1.45,2.8,2.53C37.25,13.78,37.26,12.38,37,10.6Z" style="fill:#5b413f"/><path d="M44.62,19.7c2.05,1.28,3.23,3.05,2.75,5.54a5.34,5.34,0,0,1-4.13,4.29V24.71c1.57.63.28,2.1,1.28,2.92,1.48-1.17,1.24-2.59.5-4A5.21,5.21,0,0,0,43.61,22c-.71-.55-1.33-1.29-1-2s1.3-.24,2-.29Z" style="fill:#ece0e0"/><path d="M5.26,12.78a11.42,11.42,0,0,1-.45-7.41c.3-1.32,1-1.3,2-1a9.14,9.14,0,0,1,3.94,2.15c.45.48,1.39.88.74,1.51-.49.48-1.4,1.34-2.36.4A6.85,6.85,0,0,0,7.92,7.36c-1.1-.63-1.86-.52-2,1C5.79,9.72,6.32,11.2,5.26,12.78Z" style="fill:#e3d6d6"/><path d="M47.84,27.76c1.2-4.19.82-6.15-1.56-7.78-.47-.33-1-.85-1.66-.28h0c.21-.94,1-1.41,1.66-.93,1.49,1.18,3.54,2,3.83,4.2.27,2,.16,4-1.93,5.13Q48,27.91,47.84,27.76Z" style="fill:#ba476f"/><path d="M41.67,29.12c-1.4-1.87-1.4-1.87-.14-4.1A8.16,8.16,0,0,1,41.67,29.12Z" style="fill:#bda99c"/><path d="M47.38,28.38c.2.94-.33,1.14-1.11,1.07l0,0a1.74,1.74,0,0,1,1.08-1.1Z" style="fill:#ba476f"/><path d="M48.17,28.09c-.21.25-.42.49-.79.29h0l.45-.63Q48,27.91,48.17,28.09Z" style="fill:#ba476f"/><path d="M46.27,29.45l-.16.43c-.45-.4.07-.3.2-.39Z" style="fill:#ba476f"/><path d="M37,10.6c.25,1.78.24,3.18-.75,4.57-.82-1.08-2.94-1.29-2.8-2.53C33.62,11.22,35.53,11,37,10.6Z" style="fill:#eab2ac"/></g></g></svg>