<svg xmlns="http://www.w3.org/2000/svg" viewBox="0 0 43.6 76.37"><g id="Ebene_2" data-name="Ebene 2"><g id="Ebene_1-2" data-name="Ebene 1"><path d="M43.6,26.68c-.88.15-.76.87-.84,1.47-1.14,9.58-4.46,18-12.62,23.86-1.29.93-2.33,6.54-1.67,8,.5,1.06,1.22,1.13,2.22.65a17.93,17.93,0,0,1,4.75-1.89C38,58.3,39.65,59.42,40,62c.51,3.51.24,7.06.34,10.58.05,1.86-1.62,2.06-2.76,2.51-3.44,1.36-7.09,1.36-10.71,1.19a36.29,36.29,0,0,1-12.45-2.41C10.2,72.11,9.67,71.1,10,66.49c.15-2.08.17-4.16,1.5-5.94.95-1.27,2-2.36,3.71-2.46.83.32,1.67.6,2.48,1,.64.28,1.19.51,1.34-.48.13-.81-.4-.8-1-.78a5.6,5.6,0,0,1-2.81-.55C10.5,53.92,5.66,50.69,2.44,45.7,0,41.94-.89,37.9,1.06,33.65a10.35,10.35,0,0,0,.43-6.83C.41,21.72.71,16.75,3.35,12.12c1.1-1.92,0-3.87.17-5.8C3.64,4.21,3.08,2,4.77.18l.17,1c-.48,2.64-1,5.28.29,8.21,1-1.2.6-2.21.71-3.15s-.39-1.95.61-2.44,1.6.45,2.28,1c1.49,1.21,2.48.64,3.12-1l.6-.61c.89.88,1.9.64,3,.45a40.18,40.18,0,0,1,15.53.2l.52,1L29.44,6.52l-.6-.62c.64-.92,0-1-.69-1.09C21.3,3.5,14.69,4.11,8.93,8.24,3.62,12,1.83,17.58,2.64,24c.46,3.65,1.2,7.17-.48,10.87-1.41,3.09-.64,6.33,1.17,9.32S7.86,49.54,10.44,52c4.4,4.16,8.29,4.36,14.21,1.77C39,47.46,43.67,28.38,40.88,16.3a1,1,0,0,0-1.08-1.07A31.42,31.42,0,0,0,42.3,1.9L42.66.6l.94,1v6C41,12,41.89,16.32,43.6,20.68Zm-16,27.15c-2.05.32-3.32,1.68-5,2.09-1.84.46-2.74,1.34-2.61,3.4a3.78,3.78,0,0,1-2,3.59c0-2.06-.9-3.38-2.76-3.38s-2.67,1.53-3,3a50,50,0,0,0-.72,5.57c2.13-.42,3.3-1.82,4.6-3.14.66,1.63-.51,2.24-1.3,3.06s-3.11,1-2.77,2.5,2.45,1.62,3.82,2.28c.4.2.87.25,1.28.42,1,.4,1.5.38,2-.87a28.63,28.63,0,0,1,3-4.61c.54,2.08-.64,3-1.29,4.11C20,73.31,20,74.12,22,74.33a81.13,81.13,0,0,0,8.68.45c2,0,2.27-.8,1.54-2.5C31,69.41,31,69.39,33.57,68c.5.76-.4,1.4-.24,2.05.36,1.5-.31,3.75,2,4,2.06.26,3.4-1.5,3.37-3.91s0-4.9-.08-7.35c-.11-2.14-1.37-3-3.45-2.34-1.37.43-2.7,1-4,1.56-2.48,1-4.19-.12-4.46-2.82A13.15,13.15,0,0,1,27.63,53.83Z" style="fill:#4f3836"/><path d="M31.6,4.85l-.52-1c3-1.94,6.19-3.56,9.9-3.76.64,0,1.25-.15,1.68.49L42.3,1.9c-.85-1-1.88-.65-2.94-.44C36.52,2,34.12,3.58,31.6,4.85Z" style="fill:#644c4a"/><path d="M12.55,3.22l-.6.61C9.83,2.38,7.88.48,4.94,1.16l-.17-1A7.43,7.43,0,0,1,12.55,3.22Z" style="fill:#644c4a"/><path d="M15.24,57.24a5.6,5.6,0,0,0,2.81.55c.58,0,1.11,0,1,.78-.15,1-.7.76-1.34.48-.81-.36-1.65-.64-2.48-1Z" style="fill:#e3d6d6"/><path d="M40.88,16.3C43.67,28.38,39,47.46,24.65,53.75c-5.92,2.59-9.81,2.39-14.21-1.77-2.58-2.44-5.24-4.71-7.11-7.81S.75,37.94,2.16,34.85c1.68-3.7.94-7.22.48-10.87-.81-6.4,1-11.94,6.29-15.74C14.69,4.11,21.3,3.5,28.15,4.81c.68.13,1.33.17.69,1.09-.86,1-2.55,2-1.55,3.54a3,3,0,0,0,4.05,1.13c.79-.39,1.33.14,2,.41,2,.82,2.09,2.76,2.8,4.37C37.36,18.16,38.91,18.45,40.88,16.3ZM12,10.82c-.09,2.31,0,3.86.95,5.33a3.32,3.32,0,0,0,3.86,1.78c1.72-.43,1.91-2.08,2-3.47.14-1.7-1-3-1.89-4.29S15.18,6.7,13.24,7.24,12.08,10,12,10.82Z" style="fill:#bfab9e"/><path d="M27.63,53.83a13.15,13.15,0,0,0-.94,5.37c.27,2.7,2,3.81,4.46,2.82,1.34-.54,2.67-1.13,4-1.56,2.08-.63,3.34.2,3.45,2.34.12,2.45.06,4.9.08,7.35s-1.31,4.17-3.37,3.91c-2.33-.3-1.66-2.55-2-4-.16-.65.74-1.29.24-2.05C31,69.39,31,69.41,32.19,72.28c.73,1.7.5,2.48-1.54,2.5A81.13,81.13,0,0,1,22,74.33c-1.95-.21-1.94-1-1.11-2.44.65-1.09,1.83-2,1.29-4.11a28.63,28.63,0,0,0-3,4.61c-.49,1.25-1,1.27-2,.87-.41-.17-.88-.22-1.28-.42-1.37-.66-3.47-.73-3.82-2.28S14,69,14.86,68.06s2-1.43,1.3-3.06c-1.3,1.32-2.47,2.72-4.6,3.14a50,50,0,0,1,.72-5.57c.37-1.51,1.21-3,3-3s2.75,1.32,2.76,3.38a3.78,3.78,0,0,0,2-3.59c-.13-2.06.77-2.94,2.61-3.4C24.31,55.51,25.58,54.15,27.63,53.83Z" style="fill:#bda99c"/><path d="M31.6,4.85C34.12,3.58,36.52,2,39.36,1.46c1.06-.21,2.09-.57,2.94.44a31.42,31.42,0,0,1-2.5,13.33c-.79,1.57-1.63,1.35-2.5.07s-.2-2.56.36-3.81c.72-1.61,1.26-3.83.09-4.85-1.34-1.17-3.17.23-4.58,1.23-.37.27-.74.53-1.08.83-1,.86-2.15,1.71-3.36.59s.75-1.76.71-2.77Z" style="fill:#ece0e0"/><path d="M29.44,6.52c0,1-1.93,1.64-.71,2.77s2.35.27,3.36-.59c.34-.3.71-.56,1.08-.83,1.41-1,3.24-2.4,4.58-1.23,1.17,1,.63,3.24-.09,4.85-.56,1.25-1.29,2.44-.36,3.81s1.71,1.5,2.5-.07a1,1,0,0,1,1.08,1.07c-2,2.15-3.52,1.86-4.75-1-.71-1.61-.81-3.55-2.8-4.37-.66-.27-1.2-.8-2-.41a3,3,0,0,1-4.05-1.13C26.29,7.9,28,7,28.84,5.9ZM37,7.34c-1.46.21-3.34.58-3.48,1.91s1.88,1.59,2.89,2.5A5.66,5.66,0,0,0,37,7.34Z" style="fill:#5b413f"/><path d="M4.94,1.16C7.88.48,9.83,2.38,12,3.83c-.64,1.6-1.63,2.17-3.12,1-.68-.56-1.29-1.48-2.28-1S6,5.38,5.94,6.22s.29,2-.71,3.15C4,6.44,4.46,3.8,4.94,1.16Z" style="fill:#e3d6d6"/><path d="M12,10.82c.11-.86-.66-3.05,1.27-3.58S16,8.75,16.92,10.17s2,2.59,1.89,4.29c-.12,1.39-.31,3-2,3.47a3.32,3.32,0,0,1-3.86-1.78C12,14.68,11.88,13.13,12,10.82Zm1.09.71a8.73,8.73,0,0,0,1.15,3.87c.33.68.64,1.67,1.7,1.36A2.3,2.3,0,0,0,17.37,15c.43-1.8-.68-3.06-1.56-4.4-.47-.7-.62-2-1.75-1.72S13.13,10.37,13.06,11.53Z" style="fill:#432b29"/><path d="M37,7.34a5.66,5.66,0,0,1-.59,4.41c-1-.91-3-1.24-2.89-2.5S35.53,7.55,37,7.34Z" style="fill:#eab2ac"/><path d="M13.06,11.53c.07-1.16-.26-2.41,1-2.69s1.28,1,1.75,1.72c.88,1.34,2,2.6,1.56,4.4a2.3,2.3,0,0,1-1.46,1.8c-1.06.31-1.37-.68-1.7-1.36A8.73,8.73,0,0,1,13.06,11.53Z" style="fill:#ba476f"/></g></g></svg>