<svg xmlns="http://www.w3.org/2000/svg" viewBox="0 0 85.56 72.47"><g id="Ebene_2" data-name="Ebene 2"><g id="Ebene_1-2" data-name="Ebene 1"><path d="M68.6,72.47c-2.23-1.67-4.07-3.42-3.37-6.69a5.4,5.4,0,0,1,1.48-3.31c.54-.47,1.52-.77,1.09-2a8.77,8.77,0,0,1-7.86.8c-.8-.27-2.82.33-2,2.22s-.11,2.5-1.47,2.7c-1.69.25-2.14,1.23-2.68,2.65-.92,2.44-6.7,3.94-9.68,2.81-2.27-.86-4.83-.55-7-1.74-.16-.09-.54.06-.71.21-2.11,2-4,1.62-5.79-.45-.44-.5-.82-.32-1.39-.09s-1.81.38-2.05,0c-2.15-2.94-4.1-.49-6.05.15-3.81,1.26-6.4.46-8.63-2.86-.15-.22-.48-.44-.46-.64a8.2,8.2,0,0,0-2.58-7c-.91-.91-1.4-1.54-2.62-1.52-2.25,0-2.91-1.25-2.43-3.18C4.79,53,5,51.69,3,51.16a1,1,0,0,1-.44-.87c.49-3-1-5.62-1.24-8.31-.16-1.88-1.2-3.74-.76-6,.3-1.58-1.27-3.8.52-5.68-2.5-1.85.18-2.12.77-3.27.86-1.69.89-3.84,1.1-5.8.11-1-.16-1.78,1.4-1.43.9.21.51-.9.45-1.31a53.26,53.26,0,0,1-.55-8.37C4.25,8,5.06,7,7.3,7a27,27,0,0,1,5.32.82c1.46.29,2.86.42,3.56-1.36.41-1,1.16-.78,1.72-.24,1.7,1.6,2.1.69,2.16-1a3,3,0,0,1,4.75-2.4c.31.19.54.52.94.35C28.4,2,28.4,2,30.76,3.7c.06,0,.17,0,.48,0,.05-1-1-2.54,0-3,1.24-.62,1.57,1.49,2.83,1.73.39-.78-.13-2.2,1.07-2.39S36.58,1.19,37,2c.46,1,1.06,2.23,2.1,2.09a4.5,4.5,0,0,0,3-2.4c.25-.46,0-1.18.87-1.25s1,.61,1.35,1.14c.5.85.9,1.76,1.45,2.56.42.61.81,1,1.61.1a2.25,2.25,0,0,1,3.8,1.08c.31,1,3.14,1.44,4.61.64.23-.12.4-.37.63-.49a1.26,1.26,0,0,1,.52,0,1.39,1.39,0,0,1-.15,1.73,14.37,14.37,0,0,0-.88,1.89C58.5,9.33,60.67,8,63.08,8s3.27,1,3.43,3.36c.21,3-1,6,.35,9,.45,1,.74,1.27,1.72,1.45,1.83.34,2.92,1.16,1.82,3.36-.59,1.18-.8,2.68,1.49,2.62a.89.89,0,0,1,.76,1.51c-1.22,1.62-2.07,3.12-1.56,5.39.53,2.43-1.61,4-2.87,5.81a8.92,8.92,0,0,0-.59,1.24c2.11.26,3.07,1.24,1.23,2.82-1.45,1.25,0,2.19-.45,3.61,2-1.58,3.71-2.7,5.83-3,.09,0,.24,0,.26,0,1.25-2.53,3.39-2.69,6-3,2.18-.31,3.67.51,3.73,1.77a10.67,10.67,0,0,0,1.24,3.77c.13.31.2.95.06,1-2.59,1.55-2.21,5.69-5.78,6.62,1.66,2.11.83,3.92-1.19,5.23a1.33,1.33,0,0,0-.57,2c1.18,2.51.12,4.51-1.31,6.47-.84,1.17-2,1.75-3.28,1.14s-1.13-1.86-.46-3c.12-.2,0-.53,0-.81-.31-.3-.34,0-.49.18a17.24,17.24,0,0,1-3,3.07c-2.16,1.34,1.65,1.8.29,2.88Zm.54-21.82-.38-.29.24.49c.43,1.93,2.61,1.34,3.58,2.49.18.29.47.73.74.48s.19-.8-.31-1c-.15-1-.28-2.11-.46-3.16-.1-.61.34-1.67-.79-1.58a1.21,1.21,0,0,0-.9,1.65c.16.56.88,1.18.18,1.62S69.82,50.79,69.14,50.65ZM63.77,35.91c-1.26-3,1-4.84,1.33-6.9-1.14-.51-1.85.41-2.76.42s-1.82,0-1.34-1c.88-1.81-2.09-2.87-.69-4.68.17-.22-.51-.37-.84-.35-1.06.07-1.12-.58-1.49-1.4-1-2.24-2.8-4.05-3.6-6.41-.24-.69-.68-.42-1.06-.4-3.63.17-4.24-.39-4.46-4.14-1.07-.09-1.85,1.52-3.27.46a18.18,18.18,0,0,0,2.3-1.9c.67-.77,1-1.84,1.72-2.58a1,1,0,0,0,.28-1.37.82.82,0,0,0-1.21-.17c-2.31,2-3.53.48-4.62-1.41-.7-1.2-1.35-.87-2.06,0-1.47,1.68-3.59,2-4.82.46a2.62,2.62,0,0,0-3.94-.31C31.45,5.9,30.31,5.61,28.89,4c-.31-.35-.79-1.05-1.57-.69-.61,3.13-.64,3.15-3.37,1.25-.1,2.56,1.09,4.84,1.58,7.41-1.44-.83-1.8-1-2.88.12-1.76,1.87-5.27,2.35-5,6a1.07,1.07,0,0,1-.58.85c-2,.53-2.6,2.81-4.43,3.46a2.9,2.9,0,0,0-1.55,2.37c.74,2.63-1.55,3.23-2.85,3.58C5.74,28.94,5.84,30,7,31.72c0,0-.2.24-.38.44l-2-1.69c-.48-.39-1-1-1.44,0S.69,33.13,1.22,33.31c2.88,1-.81,5.23,2.89,5.46C4,39.18,4,39.7,3.69,40c-.76.78-.52,1.67-.47,2.56a20,20,0,0,0,1.21,5.2c.63,1.91,2.57,3.69,1.86,5.67-1,2.84.31,2.81,2.31,2.71,1,0,2.28-.4,2.23,1.44-.07,2.56,1,3.38,3.45,2.64,1.41-.42,2.7-1,2.67,1.37,0,.7.57,1,1.27,1.15a2.71,2.71,0,0,1,1.85,1.46c1,1.95,2.07,3.69,4.76,2.33a1.54,1.54,0,0,1,2.23.87c.35.77.75,1.62,1.77.85,1.33-1,2.24-.63,3.15.61s2.18,1.48,3.19.23,1.75-1.08,3-.48a26.44,26.44,0,0,0,4.29,1.28C41.78,67.26,43,66.73,45,67a26,26,0,0,0,3.52.21c1,0,2.3.17,2.52-1,.41-2.16,1.46-2.06,3.13-1.49.66.23,2.43.81,2.15-.77-.63-3.66,2.73-4.44,4.28-6.48.74-1,3.38-.73,1.61-3.11-.2-.27.25-1.21.61-1.69C64,51.07,64.34,49,66.15,47.86c.24-.15.92-.49.31-1-1.34-1-.31-1.61.33-2.32.24-.27,1-.53.5-1-2.86-2.29.07-3.66.86-5.28a3.2,3.2,0,0,0,.65-2.43c-.57-3.47-.31-3.51,1.59-5.89a2.46,2.46,0,0,0,.27-.63c-1.61.33-2.17-.63-2.24-2.35A22.25,22.25,0,0,0,63.77,35.91Zm-54.09-10c0-1.31,0-2.62,0-3.93,0-.45-.65-1.26.21-1.25,2.65.05,1.19-1.38,1-2.39a26,26,0,0,1-.57-2.62c-.28-2.41.4-2.81,2.67-2.17,1.13.32,2.79,2.7,3.68-.4a10.56,10.56,0,0,1,1.22.22c.37.07.63,1.07,1.15.09.3-.58.29-1-.29-1.3A25.66,25.66,0,0,0,7,8.66c-1.08,0-1.12.62-1.13,1.39C5.79,15.58,6.55,20.94,9.68,25.86Zm64.38,21c0,1.75-.07,3.1,0,4.43a2.83,2.83,0,0,0,2.86,2.91c1.58.11,4-1,3.87-1.57-.51-2.71,5-4,1.55-7.36-.64-.62.25-2.66-1.7-.91-.62.56-1.18.15-1.72-.16-1.4-.81-2.07-.41-2.27,1.19S75.66,47.83,74.06,46.87ZM55.41,15.31c1.47-.53,2.43-.94,3.44-1.23,2.93-.83,2.95-.81,2.68,2.3-.12,1.51-.79,4.15-.39,4.32,2.43,1,1.16,2.17.5,3.42a.63.63,0,0,0,.25.92c.78.47.61-.26.75-.58,1.85-4.3,2.18-8.85,2.19-13.46,0-1.19-.64-1.21-1.55-1.26C61.07,9.63,59,10.41,57,11c-1.07.3-3.23.47-2.93,1.64.44,1.71,1.72-1.21,2.91,0C56.52,13.38,56.06,14.19,55.41,15.31ZM73.52,56.74c-1.53-2.84-4.8-3-6.34-5.35-.38-.59-2-.31-2.27.65s-2,1.57-.62,2.73c1.78,1.48.17,2-.69,2.78s-3.31.91-2.93,2c.45,1.28,2.57,0,3.92.5.73.28,1.08-.43,1.41-1a1.42,1.42,0,0,1,1.58-.79C69.83,58.81,71.47,57.35,73.52,56.74Zm-7.09,10c.22.89-.54,2.19.59,2.69s1.24-1.07,2.06-1.39a3,3,0,0,0,.89-.61,4.82,4.82,0,0,0,.82-6.3c-.36-.6-1.17-.8-1.21-.59C69.12,62.91,65.53,63.68,66.43,66.73Zm-45.31.79c-1.9-1.76-3.66-3.37-5.37-5-.3-.29.31-1.18-.49-1.15-.56,0-.95.46-1.32,1.08-1.17,2-.43,3.33,1,4.75C16.87,69.18,18.84,68.89,21.12,67.52ZM73,62c1.57,2.28,1.59,2.28.87,5.84-.08.43-.43.85.05,1.18a1,1,0,0,0,1.24-.14c1.53-1,2.3-4.09,1.59-6.07C75.85,60.38,74.3,62.69,73,62ZM16.66,9c1.75,1.19,2.76,2.07,4.25,1.91.68-.08,1.35-.12,1.32-1a13.3,13.3,0,0,1,.53-4c.1-.41.09-.93-.54-1-.36,0-.9,0-.86.36C21.71,8.29,19.54,8.65,16.66,9ZM50.1,12.43A15.1,15.1,0,0,1,52.78,11a2.14,2.14,0,0,0,1.75-2.49c-.14-.51-1.74-.72-2.8-.78-1.49-.08-1.47,1-1.6,1.89A20.35,20.35,0,0,0,50.1,12.43ZM4.45,21.87C4.39,23.05,3.3,24,3.75,25s-.32,2.79,1.58,2.65c.68-.05,2.46,0,1.94-1.3C6.7,24.85,6.74,22.78,4.45,21.87ZM69.6,23.38c-1.46,0-2.52.05-3.58,0C64.1,23.26,64.6,25,64,25.93c-.25.35-.5.88,0,1.15a2.53,2.53,0,0,0,2.51-.49A9.19,9.19,0,0,0,69.6,23.38ZM43.37,68.3c2.17,2.6,4.94,2.62,7.87.4C48.75,68.53,46.24,68.89,43.37,68.3ZM59,20.38c1.4-1.59.41-3.45,1.18-5.08a5.46,5.46,0,0,0-3,.79c-.39.15-.73,1-.45,1C59.16,17,58.12,19.22,59,20.38ZM13.32,19.8c.28-4.51.28-4.51-1.84-5C12.11,16.48,12,18.33,13.32,19.8Z" style="fill:#422b29"/><path d="M63.77,35.91a22.25,22.25,0,0,1,4.65-8.86c.07,1.72.63,2.68,2.24,2.35a2.46,2.46,0,0,1-.27.63c-1.9,2.38-2.16,2.42-1.59,5.89a3.2,3.2,0,0,1-.65,2.43c-.79,1.62-3.72,3-.86,5.28.54.43-.26.69-.5,1-.64.71-1.67,1.3-.33,2.32.61.46-.07.8-.31,1C64.34,49,64,51.07,62.8,52.64c-.36.48-.81,1.42-.61,1.69,1.77,2.38-.87,2.13-1.61,3.11-1.55,2-4.91,2.82-4.28,6.48.28,1.58-1.49,1-2.15.77-1.67-.57-2.72-.67-3.13,1.49-.22,1.19-1.56,1-2.52,1A26,26,0,0,1,45,67c-2-.26-3.2.27-2.54,2.88a26.44,26.44,0,0,1-4.29-1.28c-1.23-.6-2-.72-3,.48s-2.27,1-3.19-.23-1.82-1.62-3.15-.61c-1,.77-1.42-.08-1.77-.85a1.54,1.54,0,0,0-2.23-.87c-2.69,1.36-3.77-.38-4.76-2.33a2.71,2.71,0,0,0-1.85-1.46c-.7-.17-1.29-.45-1.27-1.15,0-2.39-1.26-1.79-2.67-1.37-2.44.74-3.52-.08-3.45-2.64.05-1.84-1.22-1.49-2.23-1.44-2,.1-3.33.13-2.31-2.71.71-2-1.23-3.76-1.86-5.67a20,20,0,0,1-1.21-5.2c-.05-.89-.29-1.78.47-2.56.27-.28.29-.8.42-1.21-3.7-.23,0-4.45-2.89-5.46-.53-.18,1.49-1.65,1.93-2.82s1-.41,1.44,0l2,1.69c.18-.2.4-.4.38-.44C5.84,30,5.74,28.94,8.26,28.27c1.3-.35,3.59-.95,2.85-3.58a2.9,2.9,0,0,1,1.55-2.37c1.83-.65,2.44-2.93,4.43-3.46a1.07,1.07,0,0,0,.58-.85c-.29-3.6,3.22-4.08,5-6,1.08-1.17,1.44-1,2.88-.12C25,9.37,23.85,7.09,24,4.53c2.73,1.9,2.76,1.88,3.37-1.25.78-.36,1.26.34,1.57.69,1.42,1.64,2.56,1.93,4.35.26a2.62,2.62,0,0,1,3.94.31c1.23,1.52,3.35,1.22,4.82-.46.71-.83,1.36-1.16,2.06,0C45.15,6,46.37,7.53,48.68,5.53a.82.82,0,0,1,1.21.17,1,1,0,0,1-.28,1.37c-.7.74-1,1.81-1.72,2.58a18.18,18.18,0,0,1-2.3,1.9c1.42,1.06,2.2-.55,3.27-.46.22,3.75.83,4.31,4.46,4.14.38,0,.82-.29,1.06.4C55.18,18,57,19.8,58,22c.37.82.43,1.47,1.49,1.4.33,0,1,.13.84.35-1.4,1.81,1.57,2.87.69,4.68-.48,1,.56,1,1.34,1S64,28.5,65.1,29C64.73,31.07,62.51,32.87,63.77,35.91Zm-20-.44a3,3,0,0,0-1.31,2.78c.05,1.26-.29,1.91-1.68,1.5a2.75,2.75,0,0,0-3.07,1.12c-.51.61-1.47,1-1.67,0-.7-3.29-2.77-1.52-4.16-1.08-1.77.56-3.27-.09-3.5-2-.06-.51.09-1.11-1.52-1.39,1.65,1.53-2,3.46,1.67,4.84,1,.37,2.08,2.8,3.61,3.87.61.43.52.83.07,1.32-1.43,1.57-1.13,3.2.18,4.56a3.43,3.43,0,0,0,4.27.53A3.76,3.76,0,0,0,38.17,47c-.14-.52-.86-1.23,0-1.59,2.24-.92,2.86-3.45,4.79-4.64l-.21,4.34c1.43-.08,1-1.35,1.68-2l1.88,2.05c1.77,1.91,5.94,2.42,8.27,1,2.69-1.63,3.23-3.52,2-7a3.53,3.53,0,0,1-.33-1c0-.61,1.85-1.11.33-1.71s-3.13-2.3-4.42-.84c-2,2.33-5.38,3.39-6.27,7.11-.89-1.35-1.76-2-3-2,.93-1.48.62-3.27,1.21-4.83a.62.62,0,0,0,.37-1ZM19.59,45.86c1.09-.14,2,0,2.81-.59.49-.4.88-.53,1.07.34.09.45.28,1.19,1,.93s.52-.88.51-1.41a11.35,11.35,0,0,0-3.8-8.2c-.6-.6-2.18-.83-1.76-2.47.27-1-.81-.7-1.33-.69-.76,0-1.76-.43-2.24.4s.1,1.16.89,1.24c.13,0,.24.14.36.22a7.12,7.12,0,0,0-.84.6c-1.82,1.74-2.83,3.89-1.91,6.31S17.41,45.67,19.59,45.86ZM55.83,24.51c-1.86,1.7-3.66.36-5.43.17-2.77-.29-5.59-.77-8,1.23-.42.35-.81.74-.57,1.37.15.4.52.59.84.32,3.17-2.66,6.49-.92,9.79-.42C54.29,27.46,55.8,27,55.83,24.51ZM19.27,22.4c-.88.25-1,.78-.62,1.44a3.67,3.67,0,0,0,3.63,1.81c2.49-.11,5-.46,7.42.69.48.23.78,1.23,1.47.36s-.1-1.41-.63-1.76a26.2,26.2,0,0,0-2.42-1C25.3,22.47,21.73,25.61,19.27,22.4Zm15,12.84c0,.5.38.79.7.65a4.61,4.61,0,0,1,3.29,0c.42.11.81-.34.87-.85a1.08,1.08,0,0,0-.93-1.16c-.88-.16-1.63-1.17-2.74-.27A3.66,3.66,0,0,0,34.28,35.24Zm2.34-6.41c-.73,0-1.76,0-1.81,1.38,0,1,.77,1.29,1.6,1.42a1.7,1.7,0,0,0,2.13-1.5C38.68,29.15,37.81,28.84,36.62,28.83Z" style="fill:#f1e5e6"/><path d="M9.68,25.86C6.55,20.94,5.79,15.58,5.86,10.05c0-.77,0-1.41,1.13-1.39a25.66,25.66,0,0,1,11.72,3.45c.58.31.59.72.29,1.3-.52,1-.78,0-1.15-.09a10.56,10.56,0,0,0-1.22-.22c-.89,3.1-2.55.72-3.68.4-2.27-.64-2.95-.24-2.67,2.17a26,26,0,0,0,.57,2.62c.22,1,1.68,2.44-1,2.39-.86,0-.22.8-.21,1.25C9.69,23.24,9.68,24.55,9.68,25.86Z" style="fill:#f1e5e6"/><path d="M74.06,46.87c1.6,1,2.4.12,2.6-1.47s.87-2,2.27-1.19c.54.31,1.1.72,1.72.16,1.95-1.75,1.06.29,1.7.91,3.43,3.39-2.06,4.65-1.55,7.36.12.62-2.29,1.68-3.87,1.57a2.83,2.83,0,0,1-2.86-2.91C74,50,74.06,48.62,74.06,46.87Z" style="fill:#f1e5e6"/><path d="M55.41,15.31c.65-1.12,1.11-1.93,1.55-2.68-1.19-1.19-2.47,1.73-2.91,0-.3-1.17,1.86-1.34,2.93-1.64,2-.6,4.09-1.38,6.3-1.27.91,0,1.55.07,1.55,1.26,0,4.61-.34,9.16-2.19,13.46-.14.32,0,1.05-.75.58a.63.63,0,0,1-.25-.92c.66-1.25,1.93-2.4-.5-3.42-.4-.17.27-2.81.39-4.32.27-3.11.25-3.13-2.68-2.3C57.84,14.37,56.88,14.78,55.41,15.31Z" style="fill:#f1e5e6"/><path d="M73.52,56.74c-2,.61-3.69,2.07-5.94,1.54a1.42,1.42,0,0,0-1.58.79c-.33.56-.68,1.27-1.41,1-1.35-.52-3.47.78-3.92-.5-.38-1.1,2-1.16,2.93-2s2.47-1.3.69-2.78c-1.39-1.16.34-1.87.62-2.73s1.89-1.24,2.27-.65C68.72,53.79,72,53.9,73.52,56.74Z" style="fill:#f1e5e6"/><path d="M66.43,66.73c-.9-3.05,2.69-3.82,3.15-6.2,0-.21.85,0,1.21.59a4.82,4.82,0,0,1-.82,6.3,3,3,0,0,1-.89.61c-.82.32-1,1.83-2.06,1.39S66.65,67.62,66.43,66.73Z" style="fill:#f1b8b2"/><path d="M21.12,67.52c-2.28,1.37-4.25,1.66-6.21-.33-1.4-1.42-2.14-2.76-1-4.75.37-.62.76-1.07,1.32-1.08.8,0,.19.86.49,1.15C17.46,64.15,19.22,65.76,21.12,67.52Z" style="fill:#f1e5e6"/><path d="M73,62c1.32.7,2.87-1.61,3.75.81.71,2-.06,5.06-1.59,6.07A1,1,0,0,1,73.9,69c-.48-.33-.13-.75-.05-1.18C74.57,64.27,74.55,64.27,73,62Z" style="fill:#f1b8b2"/><path d="M16.66,9c2.88-.3,5.05-.66,4.7-3.7,0-.37.5-.41.86-.36.63.1.64.62.54,1a13.3,13.3,0,0,0-.53,4c0,.85-.64.89-1.32,1C19.42,11,18.41,10.14,16.66,9Z" style="fill:#f1e5e6"/><path d="M50.1,12.43a20.35,20.35,0,0,1,0-2.85c.13-.89.11-2,1.6-1.89,1.06.06,2.66.27,2.8.78A2.14,2.14,0,0,1,52.78,11,15.1,15.1,0,0,0,50.1,12.43Z" style="fill:#f1e5e6"/><path d="M4.45,21.87c2.29.91,2.25,3,2.82,4.5.52,1.34-1.26,1.25-1.94,1.3C3.43,27.81,4.15,26,3.75,25S4.39,23.05,4.45,21.87Z" style="fill:#f1e5e6"/><path d="M69.6,23.38a9.19,9.19,0,0,1-3.09,3.21,2.53,2.53,0,0,1-2.51.49c-.54-.27-.29-.8,0-1.15.64-.89.14-2.67,2.06-2.56C67.08,23.43,68.14,23.38,69.6,23.38Z" style="fill:#f1e5e6"/><path d="M43.37,68.3c2.87.59,5.38.23,7.87.4C48.31,70.92,45.54,70.9,43.37,68.3Z" style="fill:#f1e5e6"/><path d="M59,20.38c-.92-1.16.12-3.38-2.29-3.31-.28,0,.06-.83.45-1a5.46,5.46,0,0,1,3-.79C59.45,16.93,60.44,18.79,59,20.38Z" style="fill:#f1b8b2"/><path d="M69.14,50.65c.68.14,1.22,1.11,1.9.67s0-1.06-.18-1.62a1.21,1.21,0,0,1,.9-1.65c1.13-.09.69,1,.79,1.58.18,1,.31,2.11.46,3.16l-.43.55c-1-1.15-3.15-.56-3.58-2.49Z" style="fill:#f1b8b2"/><path d="M13.32,19.8c-1.32-1.47-1.21-3.32-1.84-5C13.6,15.29,13.6,15.29,13.32,19.8Z" style="fill:#f1b8b2"/><path d="M73,52.79c.5.23.67.7.31,1s-.56-.19-.74-.48C72.72,53.16,72.86,53,73,52.79Z" style="fill:#f1b8b2"/><path d="M69,50.85l-.24-.49.38.29Z" style="fill:#f1b8b2"/><path d="M44.14,36c-.59,1.56-.28,3.35-1.21,4.83l0,0c-1.93,1.2-2.55,3.73-4.79,4.65-.88.36-.16,1.07,0,1.59a3.76,3.76,0,0,1-1.53,4.46A3.43,3.43,0,0,1,32.37,51c-1.31-1.36-1.61-3-.18-4.56.45-.49.54-.89-.07-1.32-1.53-1.07-2.64-3.5-3.61-3.87-3.65-1.38,0-3.31-1.67-4.84,1.61.28,1.46.88,1.52,1.39.23,2,1.73,2.6,3.5,2,1.39-.44,3.46-2.21,4.16,1.08.2,1,1.16.61,1.67,0a2.75,2.75,0,0,1,3.07-1.12c1.39.41,1.73-.24,1.68-1.5a3,3,0,0,1,1.31-2.78ZM34.06,45.17c-1.2-4.25-1.2-4.25-3.65-3.35Zm3.11-.66c1.84-.9,2.83-1.68,3.17-3,.1-.41-.38-.61-.73-.56C37.74,41.2,38.2,42.92,37.17,44.51Z" style="fill:#422b29"/><path d="M42.93,40.83c1.2,0,2.07.64,3,2,.89-3.72,4.23-4.78,6.27-7.11,1.29-1.46,3,.29,4.42.84s-.37,1.1-.33,1.71a3.53,3.53,0,0,0,.33,1c1.25,3.44.71,5.33-2,7-2.33,1.41-6.5.9-8.27-1l-1.88-2.05c-.64.66-.25,1.93-1.68,2,.07-1.46.14-2.9.21-4.34Zm8.33,4.32c1.58.42,2.81-.44,3.77-1.71s.48-2.73-.29-4a2.19,2.19,0,0,0-1.66-1.24c.34,2.31-4.33.26-3,3.55.26.68-.58.51-1.11.32s-1.29-.44-1.53.47a1.65,1.65,0,0,0,.66,1.91A4.26,4.26,0,0,0,51.26,45.15Z" style="fill:#422b29"/><path d="M19.59,45.86c-2.18-.19-4.35-1-5.23-3.32s.09-4.57,1.91-6.31a7.12,7.12,0,0,1,.84-.6c-.12-.08-.23-.21-.36-.22-.79-.08-1.31-.54-.89-1.24s1.48-.37,2.24-.4c.52,0,1.6-.34,1.33.69-.42,1.64,1.16,1.87,1.76,2.47a11.35,11.35,0,0,1,3.8,8.2c0,.53.11,1.2-.51,1.41s-.92-.48-1-.93c-.19-.87-.58-.74-1.07-.34C21.62,45.91,20.68,45.72,19.59,45.86Zm1.1-5.69c1-1.38.26-1.66-.73-1.48-1.43.26-.7-1.66-1.65-1.6-2,.12-2.2,1.93-2.51,3.34-.41,1.81,1.42,3.65,3.7,3.64C23.81,44.05,21.59,41.73,20.69,40.17Z" style="fill:#422b29"/><path d="M55.83,24.51c0,2.46-1.54,2.95-3.38,2.67-3.3-.5-6.62-2.24-9.79.42-.32.27-.69.08-.84-.32-.24-.63.15-1,.57-1.37,2.42-2,5.24-1.52,8-1.23C52.17,24.87,54,26.21,55.83,24.51Z" style="fill:#422b29"/><path d="M19.27,22.4c2.46,3.21,6,.07,8.85,1.52a26.2,26.2,0,0,1,2.42,1c.53.35,1.27.93.63,1.76s-1-.13-1.47-.36c-2.38-1.15-4.93-.8-7.42-.69a3.67,3.67,0,0,1-3.63-1.81C18.23,23.18,18.39,22.65,19.27,22.4Z" style="fill:#422b29"/><path d="M34.28,35.24a3.66,3.66,0,0,1,1.19-1.63c1.11-.9,1.86.11,2.74.27A1.08,1.08,0,0,1,39.14,35c-.06.51-.45,1-.87.85a4.61,4.61,0,0,0-3.29,0C34.66,36,34.3,35.74,34.28,35.24Z" style="fill:#422b29"/><path d="M36.62,28.83c1.19,0,2.06.32,1.92,1.3a1.7,1.7,0,0,1-2.13,1.5c-.83-.13-1.64-.38-1.6-1.42C34.86,28.81,35.89,28.8,36.62,28.83Z" style="fill:#422b29"/><path d="M43.75,35.47l.76-.45a.62.62,0,0,1-.37,1Z" style="fill:#422b29"/><path d="M34.06,45.17l-3.65-3.35C32.86,40.92,32.86,40.92,34.06,45.17Z" style="fill:#f1b8b2"/><path d="M37.17,44.51c1-1.59.57-3.31,2.44-3.61.35,0,.83.15.73.56C40,42.83,39,43.61,37.17,44.51Z" style="fill:#f1b8b2"/><path d="M51.26,45.15a4.26,4.26,0,0,1-3.21-.69,1.65,1.65,0,0,1-.66-1.91c.24-.91,1-.66,1.53-.47s1.37.36,1.11-.32c-1.28-3.29,3.39-1.24,3-3.55a2.19,2.19,0,0,1,1.66,1.24c.77,1.26,1.32,2.62.29,4S52.84,45.57,51.26,45.15Z" style="fill:#f1e5e6"/><path d="M20.69,40.17c.9,1.56,3.12,3.88-1.19,3.9-2.28,0-4.11-1.83-3.7-3.64.31-1.41.47-3.22,2.51-3.34,1-.06.22,1.86,1.65,1.6C21,38.51,21.65,38.79,20.69,40.17Z" style="fill:#f1e5e6"/></g></g></svg>