<svg xmlns="http://www.w3.org/2000/svg" viewBox="0 0 67.11 127.64">
    <g>
        <path d="M49,89.87c-1.33.62-1.19,1.56-1.14,2.47.09,1.57.75,3.41-2.13,3.06-1-.11-.56.95-.3,1.43,1.73,3.27,3.35,6.62,5.34,9.73A20.3,20.3,0,0,1,53.68,114c.64,3.5-.58,5.61-4.06,6.94-3.65,1.4-5.84.62-7.86-2.5-2.65-4.09-4.32-8.65-6.48-13-.33-.66-.46-2-1.82-1.29-.88.46-2.14.46-1.95,2.09.4,3.59.7,7.19,1,10.79.35,4.87.67,7.34-2.87,9.36-4.67,2.66-8.9.82-10.16-4.4-1.41-5.83-1.56-11.79-2.08-17.71-.43-5-.49-10-2-14.92-.48-1.49-1-2.25-2.61-2.48C7.62,86.19,4,83.31,1.24,79.05A7.54,7.54,0,0,1,0,74.41a3.48,3.48,0,0,1,2-3.25,2.83,2.83,0,0,1,3.6,1c1.87,2.08,3.64,4.26,6.37,5.3.59.22,1.15.51,1.73.75a1.11,1.11,0,0,0,1.61-.51c.26-.64-.07-1.14-.82-1.42-4.74-1.77-6.76-5.75-8-10.22A10.81,10.81,0,0,0,4.06,62.2,12.88,12.88,0,0,1,1,52.69a2,2,0,0,1,1.78-2.2c3.57-1,6.87-.14,10.69,1.44-2.18-3.18-1.13-6.19-1.41-9.08a30.45,30.45,0,0,1,.65-7.16,24.4,24.4,0,0,1,4.56-11.46,30.64,30.64,0,0,1,9.59-8.37c2-1.17,4.47-1.14,6.77-1.25,1.81-.09,2.94-.58,3.43-2.54C39.38,2.7,46.26-.21,52.8,0c8,.27,13.94,7.16,14.3,15.6a15,15,0,0,1-11,15.24,15.09,15.09,0,0,1-17-7.52c-2.41-4.45-3.08-4.26-7.86-2.42A17.91,17.91,0,0,0,20.11,32.76c-1.48,4.85-3.45,10.05-1.65,15.46.26.78.65.63,1.16.69,1.71.22,2.94-.68,4.1-1.74a24,24,0,0,1,6.15-4.39c1.43-.64,2.28-.78,2.87,1.31,1,3.61,1.89,7.2,1.48,10.93-.32,2.89,1.43,5.34,1.26,8.23a17.45,17.45,0,0,1-2.22,7.14c-.26.52-.95,1-.3,1.66a1.59,1.59,0,0,0,1.78.31c2.09-.79,3.82-2,4.46-4.33a51.1,51.1,0,0,1,1.73-5.89c1.14-2.8,3.76-3.11,5.74-.81.12.13.17.32.3.45,1.9,1.94.31,5.2,2.15,6.79a13.26,13.26,0,0,1,4.3,6c.47,1.45.93,3-.06,4.13-1.85,2.19-.25,4.65-.87,6.9-.16.59.51.89.85,1.29s1.1,1,1.09,1.47A15.21,15.21,0,0,0,56,96.4c.76,1.4-1.11,1.28-1.93,1C50.67,96.09,48.33,94,49,89.87ZM25.61,103.54A16.15,16.15,0,0,0,36.85,100c.49-.4,1-1.39,1.76-.54s0,1.43-.64,2-2,.9-1.36,2.24c2.44,4.78,4,10,7.38,14.31,1.1,1.37,2.46,2,4,1.24s3.62-1.28,3.68-3.78a13.05,13.05,0,0,0-2.89-8c-4.67-6.54-7.1-14-9.61-21.56-1.24-3.69-1-6.78,2.45-9.14a7.71,7.71,0,0,0,1.51-1.56,14.07,14.07,0,0,0,3-10.37,3,3,0,0,0-2.43-2.94c-1.06-.08-1.22,1.6-1.66,2.55a7.35,7.35,0,0,0-.23,1.6c-1.09,5.42-3,7.28-8.26,8.35-.32.06-.77.24-.88.49-.8,1.77-2.67,2.42-4,3.94.28.21.58.42.85.65,1.35,1.15,1.8,2.61.71,4a3.53,3.53,0,0,1-4.2.89c-1.43-.5-2.5-1.48-1.81-3.29.16-.43.27-1.07-.37-1-2.82.32-5.61-1-8.3-.42A6.42,6.42,0,0,1,11.07,79a23.39,23.39,0,0,1-6.14-4.4c-.59-.58-1-1.83-2-1.23-.74.43-.81,1.52-.81,2.48A3.82,3.82,0,0,0,3.21,78.5a17.53,17.53,0,0,0,9.7,6c1.29.26,2.78.48,3.28,2A54.12,54.12,0,0,1,19,97.69c.7,6.82.56,13.71,1.57,20.52a14.69,14.69,0,0,0,1.59,5.63c1.46,2.42,3.66,1.91,5.72,1.36a3.52,3.52,0,0,0,2.85-3.8c-.29-4.5-.57-9-1-13.51-.14-1.45-.18-3.38-2.72-2.82C26.33,105.22,25.57,104.77,25.61,103.54Zm7-45.12c-1.13,3.11-4.73,2.43-6.44,4.55a.65.65,0,0,1-1-.14.81.81,0,0,1,0-1,4.18,4.18,0,0,1,2.92-2.14c4.13-1,4.51-1.57,4.48-5.83A25.63,25.63,0,0,0,32.14,49c-1.06-5.38-.93-5.3-5.46-2.12-1.46,1-2.39,2.91-4.27,3.12A16,16,0,0,0,14,53.24c-.63.49-1.33,1-2.18.25-2.23-1.93-5-1.76-7.65-1.8-1.19,0-1.52.47-1.54,1.61a13,13,0,0,0,2.88,8C6.68,63,8,64.45,8.61,66.56c1.31,4.84,4.39,7.7,9.49,8.78s9.2-.15,12.45-3.94S34.77,63.41,32.62,58.42ZM52.33,3.62C46.7,3.45,43,6.49,40.4,11.07c-.69,1.2-1.22,2.57.29,3.88a2.17,2.17,0,0,1,.29,3c-1.84,2.14-.49,3.71.77,5.28a12.44,12.44,0,0,0,8.83,4.62A13,13,0,0,0,64.74,16.06C65.23,9.39,59.52,3.66,52.33,3.62ZM41.68,84.46c.36-1.73,2.11-2,2.3-3.57.23-1.89,1.75-2.7,3.29-3,1.37-.22,1.55-1,1.66-2,.14-1.16.23-2.39-.83-3.25-.47-.39-1-.46-1.25.29-.89,2.81-3.1,4.72-5.11,6.55S40.27,82.46,41.68,84.46Zm7-2.9c4.1-2.69,4.58-5.21,1.67-8.73C51.44,76.15,49.83,78.6,48.65,81.56Zm3.51,12.9c-.95-2.15,2.47-4.28-.13-6.55C51.77,90.23,49.15,92.32,52.16,94.46Zm-36-57.85a1.63,1.63,0,0,0,2.06-1.4c.1-1.86-1.77-.81-2.65-1.35s-1.33.69-1.47,1.39C13.79,37.08,15.44,36.11,16.2,36.61Zm2.85-5.88a13,13,0,0,1-2-1c-.6-.42-1-.72-1.45.13-.31.59-.61,1.19.22,1.54C17,31.89,18.28,32.68,19.05,30.73ZM15.94,46.92c-.29,1.15-2.51-.58-2.39,1.5,0,.79.5,1.29,1.2,1,.94-.37,2.12-.67,2.28-1.93C17.07,47.12,16.65,46.68,15.94,46.92Zm5.2-20.08c-.8-.5-1.07-1.78-2.31-1.44-.46.13-1.13.87-.84,1.16C18.82,27.39,20,27.15,21.14,26.84Zm3.77-7.95a6.7,6.7,0,0,0-.89.82A9.63,9.63,0,0,0,25.82,22c.23.2.84-.57.78-1.08A2.44,2.44,0,0,0,24.91,18.89Zm5.45-.09c-.87-.38.16-2.11-1.42-2.05-.36,0-1.18.14-.73.6.65.67.22,2.11,1.6,2.16C30.22,19.53,30.44,19.31,30.36,18.8Z"
              style="fill:#422b29"/>
        <path d="M25.61,103.54c0,1.23.72,1.68,1.38,1.53,2.54-.56,2.58,1.37,2.72,2.82.44,4.49.72,9,1,13.51a3.52,3.52,0,0,1-2.85,3.8c-2.06.55-4.26,1.06-5.72-1.36a14.69,14.69,0,0,1-1.59-5.63c-1-6.81-.87-13.7-1.57-20.52a54.12,54.12,0,0,0-2.8-11.21c-.5-1.54-2-1.76-3.28-2a17.53,17.53,0,0,1-9.7-6,3.82,3.82,0,0,1-1.14-2.65c0-1,.07-2,.81-2.48,1-.6,1.46.65,2.05,1.23A23.39,23.39,0,0,0,11.07,79a6.42,6.42,0,0,0,4.57.69c2.69-.55,5.48.74,8.3.42.64-.07.53.57.37,1-.69,1.81.38,2.79,1.81,3.29a3.53,3.53,0,0,0,4.2-.89c1.09-1.43.64-2.89-.71-4-.27-.23-.57-.44-.85-.65,1.29-1.52,3.16-2.17,4-3.94.11-.25.56-.43.88-.49,5.31-1.07,7.17-2.93,8.26-8.35a7.35,7.35,0,0,1,.23-1.6c.44-.95.6-2.63,1.66-2.55a3,3,0,0,1,2.43,2.94,14.07,14.07,0,0,1-3,10.37,7.71,7.71,0,0,1-1.51,1.56c-3.44,2.36-3.69,5.45-2.45,9.14,2.51,7.51,4.94,15,9.61,21.56a13.05,13.05,0,0,1,2.89,8c-.06,2.5-2.06,3-3.68,3.78s-2.91.13-4-1.24c-3.41-4.28-4.94-9.53-7.38-14.31-.68-1.34.69-1.63,1.36-2.24s1.39-1.14.64-2-1.27.14-1.76.54A16.15,16.15,0,0,1,25.61,103.54Z"
              style="fill:#f1e5e6"/>
        <path d="M32.62,58.42c2.15,5,1.1,9.3-2.07,13s-7.39,5-12.45,3.94S9.92,71.4,8.61,66.56C8,64.45,6.68,63,5.49,61.32a13,13,0,0,1-2.88-8c0-1.14.35-1.63,1.54-1.61,2.69,0,5.42-.13,7.65,1.8.85.73,1.55.24,2.18-.25A16,16,0,0,1,22.41,50c1.88-.21,2.81-2.1,4.27-3.12,4.53-3.18,4.4-3.26,5.46,2.12a25.63,25.63,0,0,1,.47,4.85c0,4.26-.35,4.86-4.48,5.83a4.18,4.18,0,0,0-2.92,2.14.81.81,0,0,0,0,1,.65.65,0,0,0,1,.14C27.89,60.85,31.49,61.53,32.62,58.42ZM5.36,54.73c0,1.72,2.27,5.89,2.85,5.42,1.53-1.23,1.94-3.34,2.42-5s-1.77-1.67-3.1-1.78C6.53,53.27,5.17,53,5.36,54.73ZM31,51.54c.32-1.16-.54-2.39-.63-3.74-.06-.86-.69-1.19-1.58-.79a6.87,6.87,0,0,0-3.51,3.25c-.46,1.12,1.59,1.28,2.33,2.1a3.28,3.28,0,0,0,.88.63c.66.36.74,1.74,1.8,1.25S30.92,52.66,31,51.54ZM28,68c-1.09,2.47-3.88,1.1-5.31,2.76a1.77,1.77,0,0,1-2.36.67c-.42-.21-1.18-.32-1.32.43s.49,1.06,1.17,1.14c2.93.37,5.05-1.77,7.61-2.55C28.59,70.17,28.34,69.05,28,68ZM9.43,64.78c1.62,1.57,3,1.22,4.45.7.82-.3,1.71-.44,2.56-.69.64-.2,1.7,1.29,1.87-.22.12-1.14-1.13-1.6-2.15-1.41C14,63.57,11.9,64.17,9.43,64.78Zm15.83.94c-.1-1-.74-1.07-1.36-1-1.35,0-2.85.15-3.2,1.75-.18.8.93.91,1.59,1C23.81,67.75,24.39,66.47,25.26,65.72Z"
              style="fill:#f1e5e6"/>
        <path d="M52.33,3.62c7.19,0,12.9,5.77,12.41,12.44A13,13,0,0,1,50.58,27.84a12.44,12.44,0,0,1-8.83-4.62c-1.26-1.57-2.61-3.14-.77-5.28a2.17,2.17,0,0,0-.29-3c-1.51-1.31-1-2.68-.29-3.88C43,6.49,46.7,3.45,52.33,3.62Z"
              style="fill:#fefefe"/>
        <path d="M41.68,84.46c-1.41-2-1.84-3.19.06-4.92S46,75.8,46.85,73c.23-.75.78-.68,1.25-.29,1.06.86,1,2.09.83,3.25-.11.94-.29,1.76-1.66,2-1.54.26-3.06,1.07-3.29,3C43.79,82.42,42,82.73,41.68,84.46Z"
              style="fill:#fefefe"/>
        <path d="M48.65,81.56c1.18-3,2.79-5.41,1.67-8.73C53.23,76.35,52.75,78.87,48.65,81.56Z"
              style="fill:#f1e5e6"/>
        <path d="M52.16,94.46c-3-2.14-.39-4.23-.13-6.55C54.63,90.18,51.21,92.31,52.16,94.46Z" style="fill:#f1b8b2"/>
        <path d="M16.2,36.61c-.76-.5-2.41.47-2.06-1.36.14-.7.53-2,1.47-1.39s2.75-.51,2.65,1.35A1.63,1.63,0,0,1,16.2,36.61Z"
              style="fill:#fefefe"/>
        <path d="M19.05,30.73c-.77,1.95-2.06,1.16-3.24.66-.83-.35-.53-.95-.22-1.54.44-.85.85-.55,1.45-.13A13,13,0,0,0,19.05,30.73Z"
              style="fill:#f1e5e6"/>
        <path d="M21.14,26.84c-1.18.31-2.32.55-3.15-.28-.29-.29.38-1,.84-1.16C20.07,25.06,20.34,26.34,21.14,26.84Z"
              style="fill:#f1e5e6"/>
        <path d="M24.91,18.89a2.44,2.44,0,0,1,1.69,2c.06.51-.55,1.28-.78,1.08A9.63,9.63,0,0,1,24,19.71,6.7,6.7,0,0,1,24.91,18.89Z"
              style="fill:#f1e5e6"/>
        <path d="M30.36,18.8c.08.51-.14.73-.55.71-1.38-.05-.95-1.49-1.6-2.16-.45-.46.37-.58.73-.6C30.52,16.69,29.49,18.42,30.36,18.8Z"
              style="fill:#f1e5e6"/>
        <path d="M5.36,54.73C5.17,53,6.53,53.27,7.53,53.35c1.33.11,3.56.16,3.1,1.78s-.89,3.79-2.42,5C7.63,60.62,5.33,56.45,5.36,54.73Z"
              style="fill:#422b29"/>
        <path d="M31,51.54c-.1,1.12.3,2.23-.71,2.7s-1.14-.89-1.8-1.25a3.28,3.28,0,0,1-.88-.63c-.74-.82-2.79-1-2.33-2.1A6.87,6.87,0,0,1,28.81,47c.89-.4,1.52-.07,1.58.79C30.48,49.15,31.34,50.38,31,51.54Z"
              style="fill:#422b29"/>
        <path d="M28,68c.39,1.07.64,2.19-.21,2.45-2.56.78-4.68,2.92-7.61,2.55-.68-.08-1.33-.3-1.17-1.14s.9-.64,1.32-.43a1.77,1.77,0,0,0,2.36-.67C24.07,69.08,26.86,70.45,28,68Z"
              style="fill:#422b29"/>
        <path d="M9.43,64.78c2.47-.61,4.58-1.21,6.73-1.62,1-.19,2.27.27,2.15,1.41-.17,1.51-1.23,0-1.87.22-.85.25-1.74.39-2.56.69C12.43,66,11.05,66.35,9.43,64.78Z"
              style="fill:#422b29"/>
        <path d="M25.26,65.72c-.87.75-1.45,2-3,1.74-.66-.13-1.77-.24-1.59-1,.35-1.6,1.85-1.7,3.2-1.75C24.52,64.65,25.16,64.74,25.26,65.72Z"
              style="fill:#422b29"/>
    </g>
</svg>