<svg xmlns="http://www.w3.org/2000/svg" viewBox="0 0 77.94 106.61"><g id="Ebene_2" data-name="Ebene 2"><g id="Ebene_1-2" data-name="Ebene 1"><path d="M5.38,67c-1.24.65-2.48,1.72-3.6.28C.51,65.62-.59,63.93.36,61.64c1.34-3.23,3.82-5.38,7.13-5.08A9.47,9.47,0,0,1,15.6,62c.72,1.56.61,3.56,2.58,4.44a1.52,1.52,0,0,1,.41,1.45c-1.15,1.83-.2,4-1.54,6.06-2.19,3.47.25,12.68,5.22,13.85a34.58,34.58,0,0,1,7.89-24.74A32.91,32.91,0,0,1,15.23,50.42c-4.89-7.85-6.78-16.31-4.54-25.52.66-2.68-.83-5.27-1.22-7.92A66.45,66.45,0,0,1,9.21,2.13C9.31.81,10.2.71,11.38,1A20.79,20.79,0,0,1,22.82,8.12c1,1.2,1.81,1.44,3.34.62A33.69,33.69,0,0,1,51.42,5.65,24.23,24.23,0,0,1,56.21,8c1.28.66,2.14.73,3.22-.44C63.63,3,69,.87,75.06.05a1.88,1.88,0,0,1,2.46,1.57c1,3.21,0,6.31-.4,9.39-.48,3.88-.84,7.83-2.25,11.56-.41,1.08.22,2.1.43,3.08,3.14,14.78-5,31-18.69,36.83-2.11.9-3.06,1.91-2.76,4.29a15.84,15.84,0,0,1-1.29,8.45,8.3,8.3,0,0,0-.33,3.21c0,5.43.68,10.82,1.12,16.22.1,1.19.37,1.95,1.85,2.15,2.08.27,2.9,1.87,3.07,3.86s-1.48,2.13-2.76,2.67c-2,.85-4.32.35-6.3,2a4.51,4.51,0,0,1-5.57-.25c-.29-.23-.72-.74-1.38-.24-4.18,3.21-8.51,1.21-12.77.19a7.76,7.76,0,0,1-3.64-1.57,5.74,5.74,0,0,1-2.14-3.4c-.87-4.14-3.55-7.12-7.09-9.45-1.22-.81-1.41-.08-2,.5-1.32,1.28-1.24,3.46-2.79,4.79a2.58,2.58,0,0,1-.14-2.74,3.2,3.2,0,0,0-.19-2.89c-1.22-1.81-1.81-3.68-.21-6.09-2.55,1-2.14,2.67-2,4.07.13,2-1,2.94-2.52,3.73-.33.17-.63.27-1,0s-.47-.66-.16-.91c1.94-1.54.46-3.19,0-4.63-.9-2.93-1.37-5.62,1.34-7.87.52-.43.57-.68-.16-1.09a2.68,2.68,0,0,1-1.37-3C6.11,72,5,69.56,5.38,67Zm8,2.41c-.51.24-1.37-.2-1.51.73,0,.26-.22.77.39.72,1.24-.11,2.14.65,3.13,1.2.5.28,1.11.35,1.27-.36s-.52-.74-.95-1-1.84.93-1.78-.76c.71-.32,1.45-.59,2.14-1s1.82-.75,1.28-1.66c-.68-1.14-1.34.1-1.91.46A20.32,20.32,0,0,0,13.42,69.37ZM76.7.88c-10.5,2-11.94,3.24-16.31,7.54-1.87,1.84-3.07,1.83-5.07.65-10-5.85-19.86-3.83-29.34,1.2-1.92,1-2.21.8-3.33-.53a22,22,0,0,0-9.77-7c-.87-.29-2.55-1.27-2.54.81,0,4.24-.26,8.47.32,12.74.45,3.29,2.08,6.44,1.26,9.92a29.44,29.44,0,0,0,.35,13.65A32,32,0,0,0,48.56,63.61C64.55,60.89,77,43.94,74.2,27.9c-.37-2.13-1.09-4.27-.34-6.65C75.92,14.7,76.44,7.89,76.7.88ZM52.24,64.27c-2.9,2.19-2.9,2.19-2.71,4.91.14,2-1.61,4.18-3.28,4.15-2.19,0-3.47-1.52-3.14-4a1.44,1.44,0,0,0-.53-1.51c-2.91-2.74-6.78-3-10.33-4.05-.89-.26-1.41.51-1.72,1-1.72,3-3.92,5.64-5,9a44.19,44.19,0,0,0-.21,25.52c.22.82-.07,1.72.74,2.5,2.11,2,11.23,4.14,13.87,2.93.6-.29,2.08-.2,1.59-1.86-.41-1.4-1-2.3-2.52-2.25a8.71,8.71,0,0,0-1.52.44c-.53.11-1.19.22-1.4-.42s.51-1,1-1c2.61-.36,2.33-2,1.71-3.75a32,32,0,0,0-1.1-3c-1.61-3.51-4.4-4.08-7.47-1.54-.39.33-.73.9-1.33.29,1-2.37,1.65-2.9,3.82-3,2.63-.13,5.38-.47,6.31,3.18.09-5.23-1.49-10.08-2-15.23,1.43.36,1.45,1.27,1.61,2.15.46,2.47,1,4.92,1.44,7.38,1,4.92,2,9.82,2.77,14.77.38,2.51,2.36,4.2,4.87,3.47.82-.25,1.78-.5,1.83-1.7s-.07-2.67-1-2.86c-2.57-.53-2.1-2.39-2.31-4-.5-3.84-1.1-7.66-1.5-11.5-.13-1.19-.66-2.54.13-3.7.7.15.76.51.81.87.62,4.44,1.53,8.85,1.77,13.36.05,1.12,0,2.49,1.27,3.26a5.55,5.55,0,0,1,2.44,3.42c.44,1.58,1.33,1.87,2.56.82a1.65,1.65,0,0,1,1.16-.53c1.05,0,2.15.12,1.79-1.49-.31-1.36-1.19-2.61-2.55-2-1.63.68-1.71-.14-1.85-1.19a156,156,0,0,1-1.64-21,2.36,2.36,0,0,1,.07-1.07C52.39,71.61,52.25,68.12,52.24,64.27ZM13.11,67.73c2.32-1.25,2.14-1.21,1.65-3.46-.79-3.58-3.39-5.19-6.46-6a4.81,4.81,0,0,0-5,1.47C1.67,61.44.9,63.24,2.08,65.54c.31.6.61,1.23,1.31,1s.39-.89.34-1.38A2.76,2.76,0,0,1,6,61.84C10.23,60.63,12.75,62.59,13.11,67.73ZM22,93.36c.82-2.39-.44-3.59-2-4.64-3.21-2.19-4.53-5.37-4.9-9.1A23.38,23.38,0,0,1,15.19,74c.19-1.29-.82-1.21-1.51-1.38-1.09-.28-.61.72-.72,1.12a15.49,15.49,0,0,0,2.23,13.07C17,89.46,20.09,90.66,22,93.36ZM8,89.49c.3-2.22-1-4.38.72-5.38,3-1.76,2.26-4.17,2-6.73C5.23,80.46,5.37,82.07,8,89.49Zm3.2-22.33C11.13,64.33,10,62.84,8,63s-3.31.87-2.37,3.31C7.61,65.05,9.45,65.49,11.16,67.16ZM12.26,85c-1.75,2.38.14,3.86,1.16,5.85C15.09,88.27,13.11,86.81,12.26,85ZM8.65,68.51c-.07-.55.14-1.68-1-1.62C6,67,7,67.73,7.44,68.31c.06.07,0,.4-.14.45-.74.39-1.19.88-.51,1.64a1.21,1.21,0,0,0,1,.11C8.68,70.25,8.65,69.47,8.65,68.51Z" style="fill:#422b29"/><path d="M76.7.88c-.26,7-.78,13.82-2.84,20.37-.75,2.38,0,4.52.34,6.65,2.82,16-9.65,33-25.64,35.71A32,32,0,0,1,12.27,39.85a29.44,29.44,0,0,1-.35-13.65c.82-3.48-.81-6.63-1.26-9.92-.58-4.27-.31-8.5-.32-12.74,0-2.08,1.67-1.1,2.54-.81a22,22,0,0,1,9.77,7c1.12,1.33,1.41,1.55,3.33.53,9.48-5,19.34-7,29.34-1.2,2,1.18,3.2,1.19,5.07-.65C64.76,4.12,66.2,2.89,76.7.88Zm-25,33.61a12.39,12.39,0,0,0,2.87,8.84c2.49,2.85,6,3,8.48.21a15.42,15.42,0,0,0,.68-19.34,5.09,5.09,0,0,0-7.61-.9C52.6,26,51.62,29.85,51.66,34.49Zm-16.83-.61a13.63,13.63,0,0,0-1.67-8c-2.73-4.92-7.61-5.1-10.71-.44-3.21,4.83-3.15,12.74.14,17.65,2.61,3.9,7.19,4,9.8.05A14,14,0,0,0,34.83,33.88Zm36-24.06c-.14-.86.38-2-.54-2.3-1.86-.64-3,.79-4,2s-3,2.2-2.13,3.84,2.49,2.77,3.9,4c.85.74,1.57.74,1.74-.76C70,14.28,70.45,12,70.81,9.82Zm-54.27,9c1.4-1,1.66-2.68,3.2-3.14s1-1.54.26-2.21c-1.32-1.25-2.43-3-4.64-2.66-.13,0-.19.83-.2,1.27A17.63,17.63,0,0,0,16.54,18.81Zm23.72,34c2.31.63,4.6-.43,6.89.28.67.21,1.34-1.2,1.22-1.2-1.72,0-3.3-2.08-4.58-1.13S41.33,51.77,40.26,52.8ZM44,46.06c-.94-.07-1.91,0-2,1.16-.12,1.34,1.22,1.35,1.87,1.27s1.93-.08,1.89-1.41S44.69,46.13,44,46.06Z" style="fill:#f1e5e6"/><path d="M52.24,64.27c0,3.85.15,7.34-1.55,10.58a2.36,2.36,0,0,0-.07,1.07,156,156,0,0,0,1.64,21c.14,1,.22,1.87,1.85,1.19,1.36-.58,2.24.67,2.55,2,.36,1.61-.74,1.52-1.79,1.49a1.65,1.65,0,0,0-1.16.53c-1.23,1.05-2.12.76-2.56-.82A5.55,5.55,0,0,0,48.71,98c-1.28-.77-1.22-2.14-1.27-3.26-.24-4.51-1.15-8.92-1.77-13.36-.05-.36-.11-.72-.81-.87-.79,1.16-.26,2.51-.13,3.7.4,3.84,1,7.66,1.5,11.5.21,1.66-.26,3.52,2.31,4,.94.19,1.06,1.73,1,2.86s-1,1.45-1.83,1.7c-2.51.73-4.49-1-4.87-3.47C42.1,95.87,41,91,40.08,86.05c-.47-2.46-1-4.91-1.44-7.38-.16-.88-.18-1.79-1.61-2.15.49,5.15,2.07,10,2,15.23-.93-3.65-3.68-3.31-6.31-3.18-2.17.11-2.82.64-3.82,3,.6.61.94,0,1.33-.29,3.07-2.54,5.86-2,7.47,1.54a32,32,0,0,1,1.1,3c.62,1.78.9,3.39-1.71,3.75-.45.06-1.18.34-1,1s.87.53,1.4.42a8.71,8.71,0,0,1,1.52-.44c1.51-.05,2.11.85,2.52,2.25.49,1.66-1,1.57-1.59,1.86-2.64,1.21-11.76-.93-13.87-2.93-.81-.78-.52-1.68-.74-2.5a44.19,44.19,0,0,1,.21-25.52c1.05-3.31,3.25-6,5-9,.31-.53.83-1.3,1.72-1,3.55,1.07,7.42,1.31,10.33,4.05a1.44,1.44,0,0,1,.53,1.51c-.33,2.46,1,3.93,3.14,4,1.67,0,3.42-2.17,3.28-4.15C49.34,66.46,49.34,66.46,52.24,64.27Z" style="fill:#f1e5e6"/><path d="M13.11,67.73c-.36-5.14-2.88-7.1-7.1-5.89a2.76,2.76,0,0,0-2.28,3.37c0,.49.33,1.21-.34,1.38s-1-.45-1.31-1c-1.18-2.3-.41-4.1,1.19-5.85a4.81,4.81,0,0,1,5-1.47c3.07.86,5.67,2.47,6.46,6C15.25,66.52,15.43,66.48,13.11,67.73Z" style="fill:#f1e5e6"/><path d="M22,93.36c-1.92-2.7-5-3.9-6.82-6.6A15.49,15.49,0,0,1,13,73.69c.11-.4-.37-1.4.72-1.12.69.17,1.7.09,1.51,1.38a23.38,23.38,0,0,0-.06,5.67c.37,3.73,1.69,6.91,4.9,9.1C21.57,89.77,22.83,91,22,93.36Z" style="fill:#f1e5e6"/><path d="M8,89.49c-2.59-7.42-2.73-9,2.7-12.11.28,2.56,1,5-2,6.73C7,85.11,8.26,87.27,8,89.49Z" style="fill:#f1b8b2"/><path d="M11.16,67.16c-1.71-1.67-3.55-2.11-5.56-.83C4.66,63.89,6.05,63.19,8,63S11.13,64.33,11.16,67.16Z" style="fill:#f1e5e6"/><path d="M12.26,85c.85,1.82,2.83,3.28,1.16,5.85C12.4,88.85,10.51,87.37,12.26,85Z" style="fill:#f1b8b2"/><path d="M8.65,68.51c0,1,0,1.74-.86,2a1.21,1.21,0,0,1-1-.11c-.68-.76-.23-1.25.51-1.64.1-.05.2-.38.14-.45C7,67.73,6,67,7.64,66.89,8.79,66.83,8.58,68,8.65,68.51Z" style="fill:#b2456a"/><path d="M14,69.86c-.06,1.69,1.22.37,1.78.76s1.11.35.95,1-.77.64-1.27.36c-1-.55-1.89-1.31-3.13-1.2-.61.05-.43-.46-.39-.72.14-.93,1-.49,1.51-.73Z" style="fill:#f1b8b2"/><path d="M13.42,69.37a20.32,20.32,0,0,1,2.06-1.67c.57-.36,1.23-1.6,1.91-.46.54.91-.6,1.31-1.28,1.66s-1.43.64-2.14,1Z" style="fill:#f1b8b2"/><path d="M51.66,34.49c0-4.64.94-8.47,4.42-11.19a5.09,5.09,0,0,1,7.61.9A15.42,15.42,0,0,1,63,43.54c-2.52,2.77-6,2.64-8.48-.21A12.39,12.39,0,0,1,51.66,34.49ZM63.74,29.1c-.42-.78-.66-2.13-2.18-2A1.57,1.57,0,0,0,60.08,29a2.23,2.23,0,0,0,2.08,2.16C63.22,31.17,63.81,30.5,63.74,29.1Zm-6.91,7.24a1.66,1.66,0,0,0,.34,3.3c1.13,0,1.15-.9,1.13-1.75A1.47,1.47,0,0,0,56.83,36.34Z" style="fill:#422b29"/><path d="M34.83,33.88a14,14,0,0,1-2.44,9.25c-2.61,3.9-7.19,3.85-9.8-.05-3.29-4.91-3.35-12.82-.14-17.65,3.1-4.66,8-4.48,10.71.44A13.63,13.63,0,0,1,34.83,33.88Zm-10.26,2.9c-.79.39-1.79.69-1.79,1.95s.44,2.39,1.88,2.55c1.23.14,1.86-.7,1.89-1.82A2.38,2.38,0,0,0,24.57,36.78Zm4.17-8.18c0,1.35.31,2.35,1.62,2.28s1.68-1.17,1.76-2.31-.54-2-1.69-2A1.69,1.69,0,0,0,28.74,28.6Z" style="fill:#422b29"/><path d="M70.81,9.82c-.36,2.19-.81,4.46-1.07,6.75-.17,1.5-.89,1.5-1.74.76-1.41-1.24-3.1-2.42-3.9-4s1.12-2.72,2.13-3.84,2.18-2.6,4-2C71.19,7.84,70.67,9,70.81,9.82ZM69.13,9c-4.36,2-4.52,3.42-.62,7,1.15-2.24.46-4.61.76-6.85a2.69,2.69,0,0,0,.26-.33s-.09-.12-.13-.18Z" style="fill:#422b29"/><path d="M16.54,18.81a17.63,17.63,0,0,1-1.38-6.74c0-.44.07-1.25.2-1.27,2.21-.33,3.32,1.41,4.64,2.66.7.67,1.41,1.71-.26,2.21S17.94,17.81,16.54,18.81Zm.47-2.5c2.46-2.39,2.39-2.76-.61-3.82C16,13.81,16.57,15,17,16.31Z" style="fill:#422b29"/><path d="M40.26,52.8c1.07-1,2.4-1.22,3.53-2s2.86,1.17,4.58,1.13c.12,0-.55,1.41-1.22,1.2C44.86,52.37,42.57,53.43,40.26,52.8Z" style="fill:#422b29"/><path d="M44,46.06c.74.07,1.72-.27,1.75,1s-1.22,1.34-1.89,1.41-2,.07-1.87-1.27C42,46.06,43,46,44,46.06Z" style="fill:#422b29"/><path d="M63.74,29.1c.07,1.4-.52,2.07-1.58,2A2.23,2.23,0,0,1,60.08,29a1.57,1.57,0,0,1,1.48-1.91C63.08,27,63.32,28.32,63.74,29.1Z" style="fill:#f1e5e6"/><path d="M56.83,36.34a1.47,1.47,0,0,1,1.47,1.55c0,.85,0,1.7-1.13,1.75a1.66,1.66,0,0,1-.34-3.3Z" style="fill:#fefefe"/><path d="M24.57,36.78a2.38,2.38,0,0,1,2,2.68c0,1.12-.66,2-1.89,1.82-1.44-.16-1.88-1.26-1.88-2.55S23.78,37.17,24.57,36.78Z" style="fill:#fefefe"/><path d="M28.74,28.6a1.69,1.69,0,0,1,1.69-2c1.15,0,1.77.81,1.69,2s-.42,2.24-1.76,2.31S28.77,30,28.74,28.6Z" style="fill:#fefefe"/><path d="M69.28,9.12c-.31,2.24.38,4.61-.77,6.85-3.9-3.59-3.74-5,.62-7Z" style="fill:#f1b8b2"/><path d="M69.13,9l.27-.35c0,.06.14.16.13.18a2.69,2.69,0,0,1-.26.33Z" style="fill:#f1b8b2"/><path d="M17,16.31c-.44-1.34-1.06-2.5-.61-3.82C19.4,13.55,19.47,13.92,17,16.31Z" style="fill:#f1b8b2"/></g></g></svg>