<svg xmlns="http://www.w3.org/2000/svg" viewBox="0 0 75.49 117.81">
    <g>
        <path d="M46.57,2.68l.06-.22.23,0c-.19.71,0,1,.79.77A30.81,30.81,0,0,1,51.23,2c5.45-1.15,4.49-2.28,5.21,3.9.63,5.5-1.94,10.45-2.5,15.73-.22,2.07,0,4.2-.35,6.23C51.46,39.14,39.33,46.54,28.35,43.31,20.47,41,14.65,34.52,14.27,26.57a61.29,61.29,0,0,0-2.35-13A24.39,24.39,0,0,1,12,1.43a29,29,0,0,1,13.44,5.1,1.37,1.37,0,0,0,1.52.24c3.91-2,8.13-1.38,12.27-1.45C41.67,6.24,45.57,5.08,47,3A3.1,3.1,0,0,0,46.57,2.68ZM17.9,23.17a3.57,3.57,0,0,0,3.67,1.62c2.51-.17,5-.63,7.24,1.14a.79.79,0,0,0,1.2-.07c.31-.42,0-.83-.29-1.18a6.24,6.24,0,0,0-5.33-2.05C22.26,22.85,20.16,23.49,17.9,23.17Zm32.44-8c2.61-2.32,2.79-5,2.53-7.78-.12-1.3-.78-2.05-2.19-1.56a20.88,20.88,0,0,0-3.5,1.38c-1.1.62-1.8,1.46-.47,2.74A12.91,12.91,0,0,1,50.34,15.18ZM28.78,35.79c0,2.37,1.95,4,3.84,2.84a10.39,10.39,0,0,1,7-1.15c1.66.2,2.88-.72,2.21-3.56-1.25,2.66-3,2.39-4.78,1.81a2.76,2.76,0,0,0-2.8.53C32.34,38,30.52,37.71,28.78,35.79ZM17.57,15.26c1.52-2,2.33-4.19,4.08-5.63.75-.62.14-1.12-.26-1.58a7.34,7.34,0,0,0-3.13-2c-1.55-.57-2.53-.38-2.89,1.53C14.84,10.44,16,12.69,17.57,15.26Zm22,14.21c0-.18,0-.39-.08-.52-1-1.45-2.49-1.28-3.92-1.22-1.17.05-2.74.19-3,1.37-.31,1.48,1.45,1.47,2.41,2,.16.09.28.26.44.33C36.34,31.78,39.51,30.29,39.59,29.47Zm13-8C41.69,23.58,41.69,23.58,41.2,26,44.38,22.65,49.73,26.14,52.58,21.48Z"
              style="fill:#f1e5e6"/>
        <path d="M39.2,5.32c-4.14.07-8.36-.52-12.27,1.45a1.37,1.37,0,0,1-1.52-.24A29,29,0,0,0,12,1.43a24.39,24.39,0,0,0-.05,12.18,61.29,61.29,0,0,1,2.35,13c.38,8,6.2,14.43,14.08,16.74,11,3.23,23.11-4.17,25.24-15.49.38-2,.13-4.16.35-6.23.56-5.28,3.13-10.23,2.5-15.73C55.72-.32,56.68.81,51.23,2a30.81,30.81,0,0,0-3.58,1.22c-.78.27-1-.06-.79-.77A27,27,0,0,1,55.16,0c1.68-.13,2.06.35,2.32,2,1.08,6.84-.78,13.27-2.39,19.75a6.32,6.32,0,0,0-.26,2.14c.77,6.38-2.3,11.13-6.42,15.48-.53.56-1.67.85-1.22,2.12s1.49,1.28,2.57,1.3c5.05.12,8.14-2.76,10.44-6.82,1-1.72,1.87-3.49,2.72-5.27.93-2,2.58-2.38,4.49-2.22s3,1.47,3.73,3.14a10.47,10.47,0,0,1-.26,8.61,2.58,2.58,0,0,0,.68,3.43c4.92,4.88,4.89,11.1,1.73,16.38a4.14,4.14,0,0,1-1.63,1.75c-1.53.65-2,1.24-.75,2.69a1.57,1.57,0,0,1-.78,2.3c-1.78.68-.74,1.73-.61,2.68h0c-.68.28-1.49.13-1.75,1.3A4,4,0,0,1,65.25,74l-.49-.45c1-1,2-2,2.12-3.61.05-.6.45-1.34-.4-1.56s-1.12.29-1.07,1.1S65,70.78,64.07,70.6c0-.8,1.7-2-.58-2.23,0-.42,0-.83-.43-1.07-1.26-.17-.42-2.54-2.14-2.14a5.09,5.09,0,0,0-4,3.75c-1.64,5.82-.82,11.56.65,17.3a160.38,160.38,0,0,1,3.94,22.28c.46,4.25-.68,6.43-5.54,8-5.64,1.81-11.08.41-12.51-5.43-.48-2-.85-4-1.21-6.06q-1.54-8.51-2.73-17c-.18-1.35-.59-1.54-1.8-1.57-5.45-.1-5.19-.11-5.94,5.43-.92,6.75-2.07,13.5-3.58,20.14-1.29,5.73-6.94,6.85-12.19,5.15-6.56-2.13-6.33-5.5-5.26-12,1.47-8.93,3.58-17.77,5.1-26.7a53.88,53.88,0,0,0,.76-11.37,26.36,26.36,0,0,1,.37-6.5c.48-2.27,0-4.09-2.66-5.08C6.68,52.57,2.48,46.57.35,38.88a10.45,10.45,0,0,1,.43-6.6,4.39,4.39,0,0,1,3.66-3.21c2-.22,3.7.31,4.66,2.35.8,1.71,1.77,3.34,2.6,5,1.53,3.14,4.13,5.16,7,6.95,1.07.67,2.53,1,3.18.06s-.46-1.89-1.34-2.53A17.89,17.89,0,0,1,13,26.25c-.09-4.93-1.8-9.38-2.63-14.07-.65-3.67-.1-7.18.2-10.76C10.73,0,11.8.31,12.67.38A23.4,23.4,0,0,1,22.88,3.79a7.69,7.69,0,0,0,7,1A17.05,17.05,0,0,1,40,4.73ZM37.9,53.13c-.58,1.24-2.73-.09-2.92,1.78-2.68-1.45-.55-3.26-.17-5.12-6-.08-10.42-4.68-16.27-4.75a.57.57,0,0,1-.26,0c-3.15-1.69-5.94-3.76-7.69-7-1.06-2-2.05-4-3.29-5.86S4.66,30.24,3.14,32a5,5,0,0,0-1.28,3.46A20.23,20.23,0,0,0,6.44,47.6c2.35,3,5.84,4.42,9.15,6.06,1.54.77,3.25,1.53,3.19,3.61-.17,6-.27,11.95-.76,17.9a45.94,45.94,0,0,1-.64,5.64c-1.8,8.61-3.41,17.27-5,25.92-.94,5,.23,7.24,4.53,8.78,4.79,1.72,9-.38,9.92-5.11,1.41-7.5,2.65-15,3.94-22.57.19-1.06.21-2-1.34-2a13,13,0,0,1-2.05-.5c-.64-.11-1.4-.29-1.22-1s.87-.45,1.55-.29c5.58,1.33,11.06,1.2,16.29-1.52.44-.23.86-.77,1.54-.12-.37,1.47-1.72,1.9-2.89,2.4a2.08,2.08,0,0,0-1.4,2.68c1.32,7.33,2.55,14.69,3.86,22,.44,2.46,1.23,4.73,4.09,5.45a10.31,10.31,0,0,0,7.34-.61,5,5,0,0,0,3.2-5.1A81.94,81.94,0,0,0,57.12,93c-2.66-11-3.44-22-4-33.21-.21-3.85,1-6,4.66-7.39,6.73-2.54,10.77-7.55,12.18-14.6a8.06,8.06,0,0,0-.5-5.57c-1.44-2.64-3.57-2.75-5.16-.19-1.13,1.82-2,3.84-3,5.69C58.91,41.6,55.58,44.44,51,44.3a11.46,11.46,0,0,0-8.29,2.87,12.26,12.26,0,0,1-2.56,1.54c-1.1.54-1.78.79-.54,2.16a3,3,0,0,1-.44,4.56c-1.15,1-2.4,1.74-3.64.07,1-.08,1.52-1.3,2.57-1,.75.21,1.16-.24,1.17-.72,0-1.07-1-.22-1.44-.64.28-.83,1.4-1.71-.1-2.43-1-.49-1.74.11-2.32.84a1.19,1.19,0,0,0-.23,1C35.86,53.7,37,52.75,37.9,53.13Zm1.67-5.37a13.83,13.83,0,0,0,6.89-5.92c-3.55,1.23-5.3,3.54-7.33,5.48-.18.26-.55.71-.53.73C39.05,48.46,39.33,48.14,39.57,47.76Zm25,9.72c.87.83-.27,1.54,0,2.3-1,.19-.94-1.41-2.09-.92.64,1.64,2,2.5,3.26,3.75-.13-4.26-.13-4.26-1.13-5.14.86-1.57,2,.44,3.1-.31,2.7-1.81,3.59-7.12,1.5-9.72-.71-.89-1.22-.9-1.81,0-2.16,3.39-5.44,5.39-8.92,7.14-4.1,2.07-4.51,3.15-2.9,7.26C58.76,60.88,61.17,58.24,64.55,57.48Zm9.35-4.69c.13-3.22-1.28-5.77-3.32-8.06-.3-.33-.59-1-1.23-.3-.49.56-.29.87.2,1.31a6.85,6.85,0,0,1,2.24,4.5c.46,3.73-1.13,6.52-4,8.59-1,.72-1.36,1.47-.9,2.48.6,1.32,1.48.41,2.25.1C73.06,59.84,73.59,56.37,73.9,52.79ZM55.42,68.07c1.85-3.7,5-4.78,8.42-5.31-.68-1.7-1.58-2.32-3.37-1.68C56.63,62.44,55.28,64,55.42,68.07ZM33.9,48.52C31,45.44,27,44.46,23.13,43.3,25.7,47.17,30.08,47.26,33.9,48.52Zm4.87-2.86H32.58C36.71,48.82,36.71,48.82,38.77,45.66Z"
              style="fill:#422b29"/>
        <path d="M70.07,70c2,2,2.33,3.91.27,6.33-2.79,3.28-2.55,3.84,1.12,8.14-2.63-1-5.45-1.64-6.8-4.61l.52-.61c.87.62,1.31,1.8,2.7,2.28-1-2.38.05-4.08,1.32-5.36a3.9,3.9,0,0,0,.72-5.25Z"
              style="fill:#553f3d"/>
        <path d="M63.06,67.3c.45.24.46.65.43,1.07-.43.88-1.4.66-2.1,1a4.28,4.28,0,0,0-1.92,6.18c.53-.48-.31-2.1,1.41-1.65-.16.79-.3,1.58-.47,2.36s.38,1.66-.64,1.77c-.83.09-1-.87-1.34-1.5-2-3.86-.71-7,3.43-8.29C62.35,68.08,62.91,67.93,63.06,67.3Z"
              style="fill:#553f3d"/>
        <path d="M60.88,73.89c-1.72-.45-.88,1.17-1.41,1.65a4.28,4.28,0,0,1,1.92-6.18c.7-.33,1.67-.11,2.1-1,2.28.2.61,1.43.58,2.23l-1.15,1.65c-2,.09-2.23.28-2.1,1.64Z"
              style="fill:#f1b8b2"/>
        <path d="M39.2,5.32,40,4.73c1.54.75,2.68-.2,3.91-.87.85-.46,1.75-.79,2.63-1.18A3.1,3.1,0,0,1,47,3C45.57,5.08,41.67,6.24,39.2,5.32Z"
              style="fill:#553f3d"/>
        <path d="M65.18,79.23l-.52.61c-1.93-3-1.91-4.27.1-6.31l.49.45C63.19,75.7,64.65,77.47,65.18,79.23Z"
              style="fill:#422b29"/>
        <path d="M60.82,73.89c-.13-1.36.11-1.55,2.1-1.64C62.67,73.38,61.6,73.45,60.82,73.89Z" style="fill:#553f3d"/>
        <path d="M70.07,70l-.15.92c-.21-.45-1.13-.71-.4-1.42h0Z" style="fill:#422b29"/>
        <path d="M17.9,23.17c2.26.32,4.36-.32,6.49-.54a6.24,6.24,0,0,1,5.33,2.05c.34.35.6.76.29,1.18a.79.79,0,0,1-1.2.07c-2.2-1.77-4.73-1.31-7.24-1.14A3.57,3.57,0,0,1,17.9,23.17Z"
              style="fill:#553f3d"/>
        <path d="M50.34,15.18A12.91,12.91,0,0,0,46.71,10c-1.33-1.28-.63-2.12.47-2.74a20.88,20.88,0,0,1,3.5-1.38c1.41-.49,2.07.26,2.19,1.56C53.13,10.18,53,12.86,50.34,15.18ZM51.85,6.9a20.36,20.36,0,0,0-2.17.28c-2.71.63-2.91,1.31-1.07,3.47l2.13,2.45C52.26,11.21,52.2,9.13,51.85,6.9Z"
              style="fill:#553f3d"/>
        <path d="M28.78,35.79c1.74,1.92,3.56,2.16,5.48.47a2.76,2.76,0,0,1,2.8-.53c1.81.58,3.53.85,4.78-1.81.67,2.84-.55,3.76-2.21,3.56a10.39,10.39,0,0,0-7,1.15C30.73,39.74,28.81,38.16,28.78,35.79Z"
              style="fill:#553f3d"/>
        <path d="M17.57,15.26c-1.53-2.57-2.73-4.82-2.2-7.7.36-1.91,1.34-2.1,2.89-1.53a7.34,7.34,0,0,1,3.13,2c.4.46,1,1,.26,1.58C19.9,11.07,19.09,13.23,17.57,15.26Zm.09-2c.86-1.3,1.38-2.13,1.94-2.93.43-.6,1.47-1,.54-2s-2-1.72-3.33-1.34c-1,.29-.6,1.36-.64,2.11C16.1,10.54,16.94,11.61,17.66,13.26Z"
              style="fill:#553f3d"/>
        <path d="M39.59,29.47c-.08.82-3.25,2.31-4.13,1.94-.16-.07-.28-.24-.44-.33-1-.51-2.72-.5-2.41-2,.24-1.18,1.81-1.32,3-1.37,1.43-.06,2.95-.23,3.92,1.22C39.6,29.08,39.57,29.29,39.59,29.47Z"
              style="fill:#553f3d"/>
        <path d="M52.58,21.48c-2.85,4.66-8.2,1.17-11.38,4.55C41.69,23.58,41.69,23.58,52.58,21.48Z"
              style="fill:#422b29"/>
        <path d="M35.57,55.5c1.24,1.67,2.49.9,3.64-.07a3,3,0,0,0,.44-4.56c-1.24-1.37-.56-1.62.54-2.16a12.26,12.26,0,0,0,2.56-1.54A11.46,11.46,0,0,1,51,44.3c4.54.14,7.87-2.7,10.16-6.55,1.1-1.85,1.92-3.87,3-5.69,1.59-2.56,3.72-2.45,5.16.19a8.06,8.06,0,0,1,.5,5.57c-1.41,7-5.45,12.06-12.18,14.6-3.62,1.37-4.87,3.54-4.66,7.39.61,11.17,1.39,22.26,4,33.21a81.94,81.94,0,0,1,2.58,16.24,5,5,0,0,1-3.2,5.1,10.31,10.31,0,0,1-7.34.61c-2.86-.72-3.65-3-4.09-5.45-1.31-7.34-2.54-14.7-3.86-22a2.08,2.08,0,0,1,1.4-2.68c1.17-.5,2.52-.93,2.89-2.4-.68-.65-1.1-.11-1.54.12-5.23,2.72-10.71,2.85-16.29,1.52-.68-.16-1.35-.5-1.55.29s.58.9,1.22,1a13,13,0,0,0,2.05.5c1.55,0,1.53.92,1.34,2-1.29,7.53-2.53,15.07-3.94,22.57-.88,4.73-5.13,6.83-9.92,5.11-4.3-1.54-5.47-3.74-4.53-8.78,1.63-8.65,3.24-17.31,5-25.92A45.94,45.94,0,0,0,18,75.17c.49-6,.59-11.93.76-17.9.06-2.08-1.65-2.84-3.19-3.61-3.31-1.64-6.8-3-9.15-6.06A20.23,20.23,0,0,1,1.86,35.44,5,5,0,0,1,3.14,32c1.52-1.74,2.86-1.77,4.16.16S9.53,36,10.59,38c1.75,3.24,4.54,5.31,7.69,7a.57.57,0,0,0,.26,0c5.85.07,10.29,4.67,16.27,4.75-.38,1.86-2.51,3.67.17,5.12l.09-.07q-.3.87.57.57Z"
              style="fill:#f1e5e6"/>
        <path d="M73.9,52.79c-.31,3.58-.84,7.05-4.8,8.62-.77.31-1.65,1.22-2.25-.1-.46-1-.11-1.76.9-2.48,2.91-2.07,4.5-4.86,4-8.59a6.85,6.85,0,0,0-2.24-4.5c-.49-.44-.69-.75-.2-1.31.64-.71.93,0,1.23.3C72.62,47,74,49.57,73.9,52.79Z"
              style="fill:#f1e5e6"/>
        <path d="M69.52,69.48c-.73.71.19,1,.4,1.42a3.9,3.9,0,0,1-.72,5.25c-1.27,1.28-2.35,3-1.32,5.36-1.39-.48-1.83-1.66-2.7-2.28-.53-1.76-2-3.53.07-5.25a4,4,0,0,0,2.52-3.2C68,69.61,68.84,69.76,69.52,69.48Z"
              style="fill:#f1b8b2"/>
        <path d="M55.42,68.07c-.14-4,1.21-5.63,5-7,1.79-.64,2.69,0,3.37,1.68C60.39,63.29,57.27,64.37,55.42,68.07Z"
              style="fill:#f1e5e6"/>
        <path d="M33.9,48.52c-3.82-1.26-8.2-1.35-10.77-5.22C27,44.46,31,45.44,33.9,48.52Z" style="fill:#f1b8b2"/>
        <path d="M39.13,47.32c2-1.94,3.78-4.25,7.33-5.48a13.83,13.83,0,0,1-6.89,5.92Z" style="fill:#f1b8b2"/>
        <path d="M38.77,45.66c-2.06,3.16-2.06,3.16-6.19,0Z" style="fill:#f1e5e6"/>
        <path d="M64.56,57.47c1,.88,1,.88,1.13,5.14-1.28-1.25-2.62-2.11-3.26-3.75,1.15-.49,1.13,1.11,2.09.92-.24-.76.9-1.47,0-2.3Z"
              style="fill:#f1b8b2"/>
        <path d="M37.9,53.13c-.86-.38-2,.57-2.68-.59a1.19,1.19,0,0,1,.23-1c.58-.73,1.3-1.33,2.32-.84,1.5.72.38,1.6.1,2.43Z"
              style="fill:#b2456a"/>
        <path d="M35,54.91c.19-1.87,2.34-.54,2.92-1.78l0,0c.41.42,1.46-.43,1.44.64,0,.48-.42.93-1.17.72-1-.31-1.61.91-2.57,1l.07-.09c.09-.47-.12-.64-.57-.57Z"
              style="fill:#b2456a"/>
        <path d="M39.57,47.76c-.24.38-.52.7-1,.29,0,0,.35-.47.53-.73Z" style="fill:#f1b8b2"/>
        <path d="M51.85,6.9c.35,2.23.41,4.31-1.11,6.2l-2.13-2.45C46.77,8.49,47,7.81,49.68,7.18A20.36,20.36,0,0,1,51.85,6.9Z"
              style="fill:#f1b8b2"/>
        <path d="M17.66,13.26c-.72-1.65-1.56-2.72-1.49-4.12,0-.75-.41-1.82.64-2.11,1.35-.38,2.41.38,3.33,1.34s-.11,1.36-.54,2C19,11.13,18.52,12,17.66,13.26Z"
              style="fill:#f1b8b2"/>
        <path d="M35.07,54.84c.45-.07.66.1.57.57Q34.77,55.71,35.07,54.84Z" style="fill:#422b29"/>
    </g>
</svg>