<svg xmlns="http://www.w3.org/2000/svg" viewBox="0 0 70.85 88.12"><g id="Ebene_2" data-name="Ebene 2"><g id="Ebene_1-2" data-name="Ebene 1"><path d="M0,52.36C.51,41.52,4.62,32.21,10.46,23.59A72.89,72.89,0,0,1,34.93.56c.86-.5,1.45-.83,2.39-.26C51,8.68,62.84,18.86,68.43,34.44c5.08,14.16,2.06,27-8.17,38-6.5,7-14.44,11.83-23.3,15.3a4.61,4.61,0,0,1-3.81,0,44.43,44.43,0,0,1-19.84-16.2c-.36-.53-.59-1.12-1.24-1.31C3,67.55.4,60.6,0,52.36ZM29.7,71.6l-.54-.2,0,.63a50.2,50.2,0,0,0,5.44,12.9c.37.63.48,1.86,1.92,1.16,5-2.43,10-4.74,14.46-8C69.46,65,73.78,45.16,62.29,26.06,56.12,15.79,47.15,8.38,37.25,2c-1.32-.87-2.15-.1-3.12.59a85.82,85.82,0,0,0-24,25.64C5.41,36.11,1.89,44.51,2.31,54c.35,7.86,4.95,14,12.44,15.26a30,30,0,0,0,9.41-.3c1.41-.21,1.68-.79.69-2.11-4.17-5.6-5.36-11.88-4.16-18.74.67-3.83,2.28-7.27,4-11.09-3,1.29-5.64,2.1-8.4.88-1.69-.74-3.35-1.73-3.08-3.95a4,4,0,0,1,3.74-3.7c1.61-.22,3.24-.34,4.86-.46,2.67-.21,4.94-1.05,6.09-3.73.22-.5.37-1.14,1.06-.93s.57.83.6,1.39a15.08,15.08,0,0,1-1.35,7.63c-1.83,3.71-3.89,7.32-4.9,11.38-2.94,11.83,1,22.61,13.2,27,2.7,1,5.55,1.26,8.4,2.3C39.24,75.48,35.92,74.76,29.7,71.6ZM15,71.29a49.41,49.41,0,0,0,18.22,14.8c-2.92-5.5-5.24-10.63-6.09-16.15a51.89,51.89,0,0,0-5.66.89C19.54,71.35,17.58,71.11,15,71.29ZM27.8,28.77c-3.05,2.49-6.48,2.58-9.9,2.66-1.45,0-2.65.5-3.07,2s.68,2.62,1.9,3.19C21.52,38.88,27.92,34.43,27.8,28.77Z" style="fill:#422b29"/><path d="M29.7,71.6c6.22,3.16,9.54,3.88,15.2,3.24-2.85-1-5.7-1.33-8.4-2.3-12.16-4.4-16.14-15.18-13.2-27,1-4.06,3.07-7.67,4.9-11.38a15.08,15.08,0,0,0,1.35-7.63c0-.56,0-1.2-.6-1.39s-.84.43-1.06.93c-1.15,2.68-3.42,3.52-6.09,3.73-1.62.12-3.25.24-4.86.46A4,4,0,0,0,13.2,34c-.27,2.22,1.39,3.21,3.08,3.95,2.76,1.22,5.43.41,8.4-.88-1.71,3.82-3.32,7.26-4,11.09-1.2,6.86,0,13.14,4.16,18.74,1,1.32.72,1.9-.69,2.11a30,30,0,0,1-9.41.3C7.26,68,2.66,61.86,2.31,54c-.42-9.49,3.1-17.89,7.83-25.82a85.82,85.82,0,0,1,24-25.64c1-.69,1.8-1.46,3.12-.59,9.9,6.43,18.87,13.84,25,24.11C73.78,45.16,69.46,65,51,78.13c-4.51,3.22-9.51,5.53-14.46,8-1.44.7-1.55-.53-1.92-1.16A50.2,50.2,0,0,1,29.19,72Z" style="fill:#c0ab9e"/><path d="M15,71.29c2.54-.18,4.5.06,6.47-.46a51.89,51.89,0,0,1,5.66-.89c.85,5.52,3.17,10.65,6.09,16.15A49.41,49.41,0,0,1,15,71.29Z" style="fill:#beaa9d"/><path d="M27.8,28.77c.12,5.66-6.28,10.11-11.07,7.87-1.22-.57-2.37-1.52-1.9-3.19s1.62-2,3.07-2C21.32,31.35,24.75,31.26,27.8,28.77Z" style="fill:#f1e5e6"/><path d="M29.19,72l0-.63.54.2Z" style="fill:#c0ab9e"/></g></g></svg>