<svg xmlns="http://www.w3.org/2000/svg" viewBox="0 0 86 88.95"><g id="Ebene_2" data-name="Ebene 2"><g id="Ebene_1-2" data-name="Ebene 1"><path d="M20.17,0C21.59.55,23,1.07,24.44,1.67c4.57,2,7.55,9.46,5.54,14a9.3,9.3,0,0,1-1.15,1.8c-1.06,1.39-2.49,1.28-3.93.84s-1.55-1.78-1.47-3.11c.34-5.75-.59-7-6.08-8.4-2.81-.7-6,1-7.66,4.25a18.7,18.7,0,0,0,2.53,21.31,8.12,8.12,0,0,0,1.43,1.25c4.32,3,5.19,2.8,7.54-1.72a74.46,74.46,0,0,1,29-30.69C51,.76,51.51.47,52.38,1,66.54,9.66,78.74,20.18,84.05,36.6c4.43,13.71,1.19,25.93-8.52,36.46-6.61,7.16-14.8,12-23.74,15.58a4.08,4.08,0,0,1-3.37-.11A44.87,44.87,0,0,1,28.54,72.36a3,3,0,0,0-1.7-1.5c-8-2.52-11-8.82-11.56-16.23a26.08,26.08,0,0,1,1-9.13c.39-1.37-.18-2-1.39-2.3C2.31,40.11-2.26,24.18,1,14.68,3,9,5.45,3.89,11.36,1.31,12.47.83,13.79.93,14.72,0ZM44.88,72.34l-.55-.19,0,.62a50.42,50.42,0,0,0,5.44,12.91c.37.63.48,1.85,1.92,1.15,5-2.47,10.12-4.81,14.69-8.12,19.19-14,22.78-34.83,9.39-54.44C69.88,15.57,62,9,53.29,3.26c-1.54-1-2.54-1.08-4,0A90.79,90.79,0,0,0,28.72,23.75a60.68,60.68,0,0,0-7.17,12.5,16.42,16.42,0,0,0,9.6.24C36.48,35.07,42.07,33.89,43,27c.07-.56.15-1.24.83-1.17s.81.8.85,1.46a15.89,15.89,0,0,1-2,9.37A36.59,36.59,0,0,0,38.58,46c-3.15,11.93.8,22.93,13.35,27.33,2.59.91,5.3,1.47,8.36,2.29A24.59,24.59,0,0,1,44.88,72.34Zm-7-30.81c-5,2.27-9.76,2.07-14.37,2.57-5.08.55-5.29.37-5.89,5.36-.69,5.58-.17,11,3.6,15.66,4.64,5.67,12.19,5.92,18.43,4.5,1.64-.38.94-1.21.29-2.07a23.13,23.13,0,0,1-4.56-13.9C35.31,49.71,36.47,46,37.9,41.53Zm5.31-9.61c-1.42,1.26-2.28,2.38-3.6,3.06a28.84,28.84,0,0,1-17.24,3.1c-3.91-.49-7.92-1.34-10.78-4.4-6.77-7.24-7.43-16.06-2.66-24,2.54-4.25,5.47-5.43,11.25-3.47,3.89,1.32,5.27,4.42,4.42,9.33-.15.83.09,1.18.94,1.56,1.89.84,2.57-.56,3.16-1.65,1.5-2.74-.29-9.91-2.93-11.6C19.5-.16,10.48.6,6.05,7.2,1.82,13.51-.06,20.46,2.29,28.1S9.36,41.3,17.65,42.45c5.77.8,11.57,0,17.3-1.23C39.92,40.12,41.68,36.53,43.21,31.92Zm-.87,38.65A48.24,48.24,0,0,1,30.21,72a49.46,49.46,0,0,0,18,14.73c-1.28-2.88-2.43-5.41-3.54-7.95A32.88,32.88,0,0,1,42.34,70.57Z" style="fill:#422b29"/><path d="M44.88,72.34a24.59,24.59,0,0,0,15.41,3.29c-3.06-.82-5.77-1.38-8.36-2.29C39.38,68.94,35.43,57.94,38.58,46a36.59,36.59,0,0,1,4.15-9.37,15.89,15.89,0,0,0,2-9.37c0-.66-.09-1.39-.85-1.46s-.76.61-.83,1.17c-1,6.91-6.56,8.09-11.89,9.51a16.42,16.42,0,0,1-9.6-.24,60.68,60.68,0,0,1,7.17-12.5A90.79,90.79,0,0,1,49.24,3.28c1.51-1.1,2.51-1,4,0C62,9,69.88,15.57,75.81,24.27c13.39,19.61,9.8,40.48-9.39,54.44-4.57,3.31-9.66,5.65-14.69,8.12-1.44.7-1.55-.52-1.92-1.15a50.42,50.42,0,0,1-5.44-12.91Z" style="fill:#c0ab9e"/><path d="M37.9,41.53c-1.43,4.5-2.59,8.18-2.5,12.12A23.13,23.13,0,0,0,40,67.55c.65.86,1.35,1.69-.29,2.07-6.24,1.42-13.79,1.17-18.43-4.5C17.47,60.51,17,55,17.64,49.46c.6-5,.81-4.81,5.89-5.36C28.14,43.6,32.88,43.8,37.9,41.53Z" style="fill:#c0ab9e"/><path d="M43.21,31.92c-1.53,4.61-3.29,8.2-8.26,9.3-5.73,1.27-11.53,2-17.3,1.23-8.29-1.15-13-6.6-15.36-14.35S1.82,13.51,6.05,7.2C10.48.6,19.5-.16,25.77,3.83c2.64,1.69,4.43,8.86,2.93,11.6-.59,1.09-1.27,2.49-3.16,1.65-.85-.38-1.09-.73-.94-1.56.85-4.91-.53-8-4.42-9.33-5.78-2-8.71-.78-11.25,3.47-4.77,8-4.11,16.78,2.66,24,2.86,3.06,6.87,3.91,10.78,4.4A28.84,28.84,0,0,0,39.61,35C40.93,34.3,41.79,33.18,43.21,31.92Z" style="fill:#f1e5e6"/><path d="M42.34,70.57a32.88,32.88,0,0,0,2.32,8.22c1.11,2.54,2.26,5.07,3.54,7.95A49.46,49.46,0,0,1,30.21,72,48.24,48.24,0,0,0,42.34,70.57Z" style="fill:#beaa9d"/><path d="M44.37,72.77l0-.62.55.19Z" style="fill:#c0ab9e"/></g></g></svg>