<svg xmlns="http://www.w3.org/2000/svg" viewBox="0 0 85.54 106.82"><g id="Ebene_2" data-name="Ebene 2"><g id="Ebene_1-2" data-name="Ebene 1"><path d="M11.51,94.7c2.49-4.44-.95-6.11-4.73-8.37C-.58,81.93-2.13,71.12,3,63.14a27,27,0,0,1,10-8.93c.82-.45,1.76-.72,1.79-2.07.27-10.65,4.53-19.92,10.35-28.54A72.45,72.45,0,0,1,49.63.56C50.49.06,51.08-.27,52,.3,65.7,8.68,77.54,18.86,83.13,34.45c5.08,14.16,2.05,26.95-8.18,38-6.56,7.07-14.64,11.86-23.53,15.42a4.57,4.57,0,0,1-3.85-.2A44.57,44.57,0,0,1,28,71.49a3.08,3.08,0,0,0-1.79-1.38A15.14,15.14,0,0,1,15.88,59.56c-.36-1.22-.67-1.9-2.13-1-6.6,4-10.49,9.65-10.4,17.62,0,4.4,3.59,8.94,7.78,10.34A2.73,2.73,0,0,0,14,85.77c1.8-1.36,3.06-3.35,5.14-4.4,6.09-3.08,13.77-1.12,14.65,7.25.58,5.58,2.53,7,8.68,7.71.79.09,2.12-.64,2.28.62.18,1.45-1.24,1.62-2.31,1.6-6.49-.15-11.71,2.72-16.65,6.59-2.63,2.06-5.78,2.16-8.89.68-3.7-1.76-5-5-5.35-8.75C11.46,96.53,11.51,96,11.51,94.7ZM44.4,71.6l-.54-.2,0,.63a50.42,50.42,0,0,0,5.44,12.91c.37.63.48,1.85,1.93,1.14,4.94-2.43,10-4.73,14.46-8,16.76-12,22.07-29.76,13.83-47.34C73.6,18.1,63.4,9.35,51.89,1.91c-1.08-.7-1.88-.27-2.7.33-13,9.5-23.43,21.06-29.39,36.22A36.31,36.31,0,0,0,17,52.06a119.18,119.18,0,0,0,12.75-6.34C37,41.56,40.87,35.18,42.16,27.11c.17-1.05,1-1.32,1.55-2.47a12.23,12.23,0,0,1-.61,9C41.39,37.4,39.44,41,38.22,45c-2.93,9.56-.49,21.32,10.24,26.32a61.44,61.44,0,0,0,10.95,3.49A23.55,23.55,0,0,1,44.4,71.6ZM35.05,48.79a36.45,36.45,0,0,1-7.92,4c-2.74.86-5.34,2.16-8.06,3.08-1.69.58-1.67,1.48-1.24,2.92,2.47,8.4,10.18,12,18.89,10.43,3.67-.67,3.65-.78,1.69-3.92C35.31,60.36,34.6,54.89,35.05,48.79ZM29.67,71.24A50.42,50.42,0,0,0,48,86.11c-2.87-5.5-5.23-10.6-6.08-16.17a54.8,54.8,0,0,0-5.59.87C34.31,71.33,32.34,71.17,29.67,71.24ZM13.21,90.59c.09,2.87-.52,5-.15,7.3,1.08,6.93,7.13,9.7,12.82,5.57a41,41,0,0,1,8.87-5.28c-2.47-1.76-4.45.12-6.47.63C20.27,100.83,15,99.29,13.21,90.59ZM37.74,41c-4.37,4.66-9.48,7.26-14.66,9.79C18.26,53.13,13.16,55,9,58.52,4.05,62.66.92,67.74,1.2,74.83A6.12,6.12,0,0,0,1.94,74a4.19,4.19,0,0,0,.27-1,20.14,20.14,0,0,1,8.47-13.84c5.3-3.9,11.54-5.57,17.46-8C32.58,49.22,36.88,47.19,37.74,41ZM14.54,89.37c.3,9.85,8.25,10.72,15.85,7.33C25.71,93.06,21.53,88.13,14.54,89.37Zm0-1.65a69.12,69.12,0,0,1,6.63-2.62c5.15-1.47,9.72,1.76,9.93,6.87.09,2.46,1.78,3.08,4,3.89a13,13,0,0,1-2.9-7.9,7.2,7.2,0,0,0-6.73-6.41C20.43,81.09,17.3,83.9,14.58,87.72Zm2.65.4c5.47.34,9,3.45,12.76,6.81C30,86.54,25.13,83.89,17.23,88.12Z" style="fill:#422b29"/><path d="M44.4,71.6a23.55,23.55,0,0,0,15,3.22,61.44,61.44,0,0,1-10.95-3.49C37.73,66.33,35.29,54.57,38.22,45c1.22-4,3.17-7.61,4.88-11.36a12.23,12.23,0,0,0,.61-9c-.57,1.15-1.38,1.42-1.55,2.47C40.87,35.18,37,41.56,29.75,45.72A119.18,119.18,0,0,1,17,52.06a36.31,36.31,0,0,1,2.8-13.6c6-15.16,16.42-26.72,29.39-36.22.82-.6,1.62-1,2.7-.33C63.4,9.35,73.6,18.1,79.55,30.78c8.24,17.58,2.93,35.36-13.83,47.34-4.51,3.23-9.52,5.53-14.46,8-1.45.71-1.56-.51-1.93-1.14A50.42,50.42,0,0,1,43.89,72Z" style="fill:#c0ab9e"/><path d="M35.05,48.79c-.45,6.1.26,11.57,3.36,16.52,2,3.14,2,3.25-1.69,3.92C28,70.82,20.3,67.2,17.83,58.8c-.43-1.44-.45-2.34,1.24-2.92,2.72-.92,5.32-2.22,8.06-3.08A36.45,36.45,0,0,0,35.05,48.79Z" style="fill:#c0ab9e"/><path d="M29.67,71.24c2.67-.07,4.64.09,6.61-.43a54.8,54.8,0,0,1,5.59-.87c.85,5.57,3.21,10.67,6.08,16.17A50.42,50.42,0,0,1,29.67,71.24Z" style="fill:#beaa9d"/><path d="M13.21,90.59c1.83,8.7,7.06,10.24,15.07,8.22,2-.51,4-2.39,6.47-.63a41,41,0,0,0-8.87,5.28c-5.69,4.13-11.74,1.36-12.82-5.57C12.69,95.57,13.3,93.46,13.21,90.59Z" style="fill:#f5bcb6"/><path d="M37.74,41c-.86,6.2-5.16,8.23-9.6,10.07-5.92,2.46-12.16,4.13-17.46,8A20.14,20.14,0,0,0,2.21,72.93a4.19,4.19,0,0,1-.27,1,6.12,6.12,0,0,1-.74.86C.92,67.74,4.05,62.66,9,58.52c4.17-3.5,9.27-5.39,14.09-7.74C28.26,48.25,33.37,45.65,37.74,41Z" style="fill:#f1e5e6"/><path d="M14.54,89.37c7-1.24,11.17,3.69,15.85,7.33C22.79,100.09,14.84,99.22,14.54,89.37Z" style="fill:#f5bcb6"/><path d="M14.58,87.72c2.72-3.82,5.85-6.63,10.92-6.17A7.2,7.2,0,0,1,32.23,88a13,13,0,0,0,2.9,7.9c-2.21-.81-3.9-1.43-4-3.89-.21-5.11-4.78-8.34-9.93-6.87A69.12,69.12,0,0,0,14.58,87.72Z" style="fill:#f5bcb6"/><path d="M17.23,88.12C25.13,83.89,30,86.54,30,94.93,26.25,91.57,22.7,88.46,17.23,88.12Z" style="fill:#f5bcb6"/><path d="M43.89,72l0-.63.54.2Z" style="fill:#c0ab9e"/></g></g></svg>