<svg xmlns="http://www.w3.org/2000/svg" viewBox="0 0 93.98 88.5"><g id="Ebene_2" data-name="Ebene 2"><g id="Ebene_1-2" data-name="Ebene 1"><path d="M29.48,83.2c-7.2,4.35-9.15,4.45-11.31.61a3.59,3.59,0,0,0-.7.84c-.73,1.67-2.3,4.29-3.22,3.79-1.89-1-4.42-1.19-5.72-3.4a30.07,30.07,0,0,1-3.68-11.4c-.12-.87-.14-1.27-1.22-1.54-1.77-.43-1.91-2.25-2-3.74a24.44,24.44,0,0,1,.15-4.6c.05-.42.47-.93-.14-1-2.59-.46-1.35-2.2-1-3.3a17.58,17.58,0,0,1,3-5.38c1.32-1.62,3.09-3,3-5.52a3.68,3.68,0,0,1,1.29-2.29C13.23,41.15,18,35.28,26,34.14c.26,0,.52-.11.78-.17-1.65-3.45,2.27-2.53,3.14-4C31,28.09,32,26.19,33.22,24.39A74.38,74.38,0,0,1,58.33.46c.8-.45,1.33-.68,2.17-.17C73.59,8.19,84.8,18,90.94,32.37c6.78,15.91,2,33.36-11.88,44.39A75.2,75.2,0,0,1,60.51,87.65a5.11,5.11,0,0,1-4.34,0c-8-3.58-14.77-8.74-19.54-16.17-1-1.48-2-1.31-3.14-1.23-1.4.1-.62,1.41-.87,2.17-1,3.25-.06,6.47.17,9.69.1,1.39,1.19,3.11-.64,3.72S30.38,84.26,29.48,83.2ZM53,71.62l-.55-.2,0,.63a49.76,49.76,0,0,0,5.43,12.89c.37.64.48,1.87,1.92,1.16,5-2.42,10-4.73,14.46-7.95C92.71,65,97,45.18,85.56,26.08,79.39,15.81,70.42,8.4,60.53,2c-1.18-.77-2-.25-2.92.4A90.58,90.58,0,0,0,38.47,20.78a46.09,46.09,0,0,0-6.1,9.56c4.08,0,7.8.25,11.46-.08,2.77-.26,5.44-1.29,7-4,.26-.46.21-1.47,1.15-1.21s.8,1.06.84,1.8a14.75,14.75,0,0,1-1.48,7.59c-1.82,3.6-3.79,7.16-4.77,11.13-2.93,11.83,1,22.6,13.21,27,2.69,1,5.53,1.32,8.72,2.38A25.05,25.05,0,0,1,53,71.62ZM27.73,32.22c.84,1.85.78,2.79-1.75,3.17-3.33.49-6.82,1.68-9.12,4.16-2,2.11-4.24,3.72-6.31,5.63-.85.79-2.06,1.73-2.17,2.71C7.9,52,4.55,54.41,2.74,57.71a16.12,16.12,0,0,0-1,2.19,2.89,2.89,0,0,0-.07,1.27c3.1.59.89,2.52,1.11,3.88.34,2.08-1.59,5.32,2.59,5.77.8.09.48,1,.58,1.62A39.11,39.11,0,0,0,9.26,84c1.09,2.25,3.46,1.79,5.1,2.84.63.4,1.55-1.88,2.2-3,.22-.39.36-.82.54-1.22.66-1.49,1.24-1.22,2,0,2.09,3.48,2.13,3.47,5.79,1.73a10,10,0,0,0,3.07-1.68c1.82-1.93,2.65-1,3.42,1.07a8.66,8.66,0,0,0,.11-3c-1.1-4.18-.29-8.22.61-12.28.18-.82.65-2.06,1.37-1.18,1.2,1.46,1.07.18,1.35-.37,1.62-3.13.47-7.5,4.31-9.66.13-.07.09-.53,0-.79-.67-4,.65-7.48,2.84-10.64,1.82-2.65,2.81-5.79,5-8.21,2.48-2.75,3.81-6.05,4.88-10.21a14.34,14.34,0,0,1-12.71,4.54A40.18,40.18,0,0,0,27.73,32.22ZM38,59.84c-.77,2.73-1.47,5.13-2.11,7.53-.16.59-.35,1.37.52,1.58a20.36,20.36,0,0,0,12.67-.7C43.27,61,42.39,53.16,44.73,44.42c-2.66,2.67-4.5,6.7-4.45,9.56,0,1.81.22,3.62.26,5.43,0,.69.05,1.63-.7,1.89S38.8,60.52,38,59.84Zm12.38,10c-4,.84-7.73,1.63-11.71,1.36,2.41,4.86,11.77,12.55,17.63,14.55C53.64,80.65,51.3,75.55,50.42,69.85Z" style="fill:#422b29"/><path d="M53,71.62a25.05,25.05,0,0,0,15.52,3.31c-3.19-1.06-6-1.4-8.72-2.38-12.17-4.4-16.14-15.17-13.21-27,1-4,2.95-7.53,4.77-11.13a14.75,14.75,0,0,0,1.48-7.59c0-.74,0-1.56-.84-1.8s-.89.75-1.15,1.21c-1.55,2.73-4.22,3.76-7,4-3.66.33-7.38.08-11.46.08a46.09,46.09,0,0,1,6.1-9.56A90.58,90.58,0,0,1,57.61,2.37c.91-.65,1.74-1.17,2.92-.4,9.89,6.43,18.86,13.84,25,24.11C97,45.18,92.71,65,74.27,78.15c-4.51,3.22-9.51,5.53-14.46,7.95-1.44.71-1.55-.52-1.92-1.16a49.76,49.76,0,0,1-5.43-12.89Z" style="fill:#c0ab9e"/><path d="M27.73,32.22a40.18,40.18,0,0,1,11.42-.37,14.34,14.34,0,0,0,12.71-4.54c-1.07,4.16-2.4,7.46-4.88,10.21-2.18,2.42-3.17,5.56-5,8.21-2.19,3.16-3.51,6.66-2.84,10.64,0,.26.08.72,0,.79-3.84,2.16-2.69,6.53-4.31,9.66-.28.55-.15,1.83-1.35.37-.72-.88-1.19.36-1.37,1.18-.9,4.06-1.71,8.1-.61,12.28a8.66,8.66,0,0,1-.11,3c-.77-2-1.6-3-3.42-1.07a10,10,0,0,1-3.07,1.68c-3.66,1.74-3.7,1.75-5.79-1.73-.73-1.22-1.31-1.49-2,0-.18.4-.32.83-.54,1.22-.65,1.15-1.57,3.43-2.2,3-1.64-1-4-.59-5.1-2.84A39.11,39.11,0,0,1,5.93,72.44c-.1-.59.22-1.53-.58-1.62-4.18-.45-2.25-3.69-2.59-5.77-.22-1.36,2-3.29-1.11-3.88a2.89,2.89,0,0,1,.07-1.27,16.12,16.12,0,0,1,1-2.19C4.55,54.41,7.9,52,8.38,47.89c.11-1,1.32-1.92,2.17-2.71,2.07-1.91,4.35-3.52,6.31-5.63,2.3-2.48,5.79-3.67,9.12-4.16C28.51,35,28.57,34.07,27.73,32.22ZM17.86,53.71c.58-1.93,1.64-3.34,1.72-5.09,0-.36.15-.74-.34-.81s-.75,0-.76.52a9.46,9.46,0,0,1-1,3c-.37,1-1.29,2.24-.44,3.29s1.89-.27,2.86-.24a4.17,4.17,0,0,1-.22,2.77,1.87,1.87,0,0,0,.52,2.44c.89.58,1.5-.16,2.19-.51,1-.48,1.55-1.53,2.72-1.68.54-.07.82,1.28,1.44.31a1.54,1.54,0,0,0-.25-1.24c-.58-.93-1.31-.27-1.87,0-1.22.66-2.37,1.45-3.67,2.25C21.63,52.1,21.71,52.14,17.86,53.71ZM15.27,71.6c-.27,1.72-.32,3.8,1.38,3.8,2,0,4.39.64,6.32-1,1.53-1.3,1.82-2.27.84-4.2-1,3-1.35,3.78-2.9,3.79-1.31,0-2.66-1.24-3.8.4a5.57,5.57,0,0,1-.8-1C16.07,72.91,16.63,72.12,15.27,71.6ZM37,38.32c-2.31,1.54-2.21,2.13.55,4.27.47.36,1,.52,1.43.07s-.36-.75-.39-1C38.49,40.35,36.06,40.21,37,38.32Zm1.69-.65c-.23-.33-.33-.63-.51-.69a.64.64,0,0,0-.79.44c-.15.38,0,.69.38.67A3.13,3.13,0,0,0,38.71,37.67Z" style="fill:#f1e5e6"/><path d="M38,59.84c.76.68.93,1.76,1.8,1.46s.72-1.2.7-1.89c0-1.81-.23-3.62-.26-5.43-.05-2.86,1.79-6.89,4.45-9.56C42.39,53.16,43.27,61,49.12,68.25a20.36,20.36,0,0,1-12.67.7c-.87-.21-.68-1-.52-1.58C36.57,65,37.27,62.57,38,59.84Z" style="fill:#beaa9d"/><path d="M50.42,69.85c.88,5.7,3.22,10.8,5.92,15.91-5.86-2-15.22-9.69-17.63-14.55C42.69,71.48,46.43,70.69,50.42,69.85Z" style="fill:#beaa9d"/><path d="M52.46,72.05l0-.63.55.2Z" style="fill:#c0ab9e"/><path d="M17.86,53.71c3.85-1.57,3.77-1.61,2.91,5.07,1.3-.8,2.45-1.59,3.67-2.25.56-.3,1.29-1,1.87,0a1.54,1.54,0,0,1,.25,1.24c-.62,1-.9-.38-1.44-.31-1.17.15-1.77,1.2-2.72,1.68-.69.35-1.3,1.09-2.19.51a1.87,1.87,0,0,1-.52-2.44,4.17,4.17,0,0,0,.22-2.77c-1,0-2.08,1.19-2.86.24s.07-2.24.44-3.29a9.46,9.46,0,0,0,1-3c0-.5.41-.57.76-.52s.36.45.34.81C19.5,50.37,18.44,51.78,17.86,53.71Z" style="fill:#422b29"/><path d="M15.27,71.6c1.36.52.8,1.31,1,1.82a5.57,5.57,0,0,0,.8,1c1.14-1.64,2.49-.39,3.8-.4,1.55,0,1.94-.81,2.9-3.79,1,1.93.69,2.9-.84,4.2-1.93,1.64-4.29,1-6.32,1C15,75.4,15,73.32,15.27,71.6Z" style="fill:#422b29"/><path d="M37,38.32c-1,1.89,1.47,2,1.59,3.33,0,.26.79.56.39,1s-1,.29-1.43-.07C34.81,40.45,34.71,39.86,37,38.32Z" style="fill:#422b29"/><path d="M38.71,37.67a3.13,3.13,0,0,1-.92.42c-.42,0-.53-.29-.38-.67A.64.64,0,0,1,38.2,37C38.38,37,38.48,37.34,38.71,37.67Z" style="fill:#422b29"/></g></g></svg>