<svg xmlns="http://www.w3.org/2000/svg" viewBox="0 0 87.76 97.27"><g id="Ebene_2" data-name="Ebene 2"><g id="Ebene_1-2" data-name="Ebene 1"><path d="M87.76,51.1c-1.28,3.11-1.54,6.51-2.89,9.62-4.64,10.64-13,17.61-22.77,23.12-2.11,1.18-4.4,2-6.49,3.23-2.81,1.61-5.4,1.24-8.09-.28C40.59,82.89,34.3,78.25,30,71.37a2.62,2.62,0,0,0-1.62-1.21c-5.59-1.8-9.1-5.61-10.76-11.57-5.33,4.29-9.51,9.12-11.09,15.84-.87,3.74-1,7.42.76,11,3.41,6.8,10.49,8.35,17.27,4a4.38,4.38,0,0,0,2.13-3.85c0-1.45,0-2.91,0-4.36,0-3,1.36-3.8,4.11-2.42a5.39,5.39,0,0,1,2.86,5.86C31.38,94.3,22.29,99.57,13,96.31,3.14,92.81-.81,86.7.14,77.3A29,29,0,0,1,12.79,55.65a9.6,9.6,0,0,0,4.59-8.28,2.87,2.87,0,0,1,.08-1.07c2.38-4.59-.24-6.8-3.7-9.39-8.08-6-10.91-14-7.81-24.07,1.64-5.33,5.84-7.77,10.8-8.52,4.79-.73,8.88,1.46,11.46,5.61,1.56,2.5,1.63,5.48,1.06,8.38-.2,1-.62,2-1.15,3.68,2.5-2.93,4.52-5.38,6.63-7.74A70.67,70.67,0,0,1,52,.39,1.59,1.59,0,0,1,53.94.28C68.25,8.94,80.27,19.65,85.82,36.09c.86,2.57,1.31,5.28,1.94,7.92ZM46.51,71.64,46,71.45l0,.62A50.42,50.42,0,0,0,51.44,85c.37.63.48,1.85,1.92,1.14,5-2.43,10-4.73,14.47-8,18-12.88,22.6-32.34,12-50.93C73.61,16.48,64.44,8.77,54.25,2.09c-1.26-.82-2.12-.38-3.16.35A90.63,90.63,0,0,0,35.38,16.65,71.85,71.85,0,0,0,24.2,33.28c-.25.53-1.58,1.4.11,2.09,4.54,1.86,13,1.05,16.76-2.14a13.31,13.31,0,0,0,4.78-8.3c.59,2.95.91,5.83-.57,8.41-1.73,3-1.72,6.06-1.15,9.39,1.46,8.52,11.73,15.82,20.26,14.16C71.07,55.58,75.17,51.59,77,45a5,5,0,0,0-1.42-5.39c-.72-.72-1.46-1.52-2.58-.82s-1.77,1.29-1.26,2.83a3.07,3.07,0,0,1-1.26,3.78A3.69,3.69,0,0,1,66,44.5,6.58,6.58,0,0,1,65,37.22c2.06-3.8,6-5.58,10.5-4.63,2.35.49,7,4.35,7.41,7.94.74,6.95-.86,12.83-6.29,17.82C68.75,65.54,55,65.29,48,59.71A33,33,0,0,1,39.33,48.6c-.54,15.91,3.43,20.55,22.17,26.3C56.09,75.53,52.72,74.8,46.51,71.64Zm-3.63-38c-3.62,2.88-7.16,3.54-10.88,4C21.46,39,12,29.32,10,22.61a9.39,9.39,0,0,1,7.65-12.26,6,6,0,0,1,5.9,1.92c1.56,1.87,1.12,4,.44,6.14-.3.95-1.29,1.21-1.84,1.92-.76,1-1.52,2.07-.39,3.08a2.29,2.29,0,0,0,3.16-.21c3.5-2.91,4.71-8.7,2.05-12.73-5.09-7.71-15.49-5.57-19,1A16.59,16.59,0,0,0,8,27.84c4.25,7.61,10.62,12.61,19.44,13.94C34.76,42.9,39.78,40.39,42.88,33.66Zm-.48,5.88c-.77.7-1.68,1.07-1.78,2.19-.36,4,.24,7.79,2.76,11.09,3.77,4.92,8.15,8.46,14.71,9.49,8.72,1.37,19.22-3.16,22.32-11.42,2.26-6,3-11.9-3.57-16-4-2.53-10.35-.29-11.17,4.39A4.65,4.65,0,0,0,67.44,44a2.17,2.17,0,0,0,2.3.35c.88-.46.7-1.41.53-2.18a2.91,2.91,0,0,1-.17-1.75c.67-2.26,2-3.31,4.37-3,1.92.22,3.89,2.52,4,4.75.43,6.45-4.31,13.42-11.23,15.42C57.31,60.49,42.81,54.32,42.4,39.54Zm-4.86,7.85c-2.1,1.29-4,2.58-6,3.68C28,53,24.49,54.78,21,56.56c-1.21.61-1.33,1.23-.92,2.56,3.29,10.51,13.68,11.73,21.45,9.7.87-.22,1.17-.64.49-1.5C37.35,61.47,36.29,54.79,37.54,47.39Zm1.57-6c-3.18,1.95-5.93,4.41-9.29,6A124.47,124.47,0,0,0,17.7,53.85c-9.79,6-16.06,14.28-16.1,26.36,0,7.94,5.18,12.7,12.73,15,6.5,2,12.88-.58,16.46-6.63,2.08-3.53,2.2-6.89-.62-8.68a1.86,1.86,0,0,0-1.77-.33c-.9.38-.29,1-.21,1.62.44,3,.52,6.39-1.81,8.42-6.9,6-15.95,4.08-19.64-2.21C3.3,81.53,4.1,75.7,6.63,69.88,10,62,16.32,57.05,23.77,53.39c4.26-2.09,8.62-4,12.48-6.8C37.93,45.37,39.67,44.05,39.11,41.38Zm-12-18c-1.08.71-1.59,1-2.05,1.36-1.61,1.29-3.08.66-4.38-.43s-1-2.58-.2-3.87a17.66,17.66,0,0,1,1.68-2.11c1.93-2.34,1-6.11-1.75-6.43-7.08-.83-9.75,2.73-9.16,9.14.51,5.59,4.7,9.11,9,12.2.63.45,1.08.73,1.62-.34C23.44,29.89,25.15,27,27.14,23.38ZM31.75,71.2a50,50,0,0,0,18.32,15c-2.75-5.24-5.06-10-5.88-15.32-.2-1.26-.75-.8-1.41-.68A40.71,40.71,0,0,1,31.75,71.2Zm-12.62-20c5.16-2.67,10.2-4.74,14.56-8.12A25.65,25.65,0,0,1,22.39,42c-1.15-.35-1.78,0-2,1.06A35.8,35.8,0,0,0,19.13,51.25Z" style="fill:#422b29"/><path d="M46.51,71.64c6.21,3.16,9.58,3.89,15,3.26C42.76,69.15,38.79,64.51,39.33,48.6A33,33,0,0,0,48,59.71c7,5.58,20.74,5.83,28.58-1.36,5.43-5,7-10.87,6.29-17.82-.38-3.59-5.06-7.45-7.41-7.94-4.54-1-8.44.83-10.5,4.63A6.58,6.58,0,0,0,66,44.5a3.69,3.69,0,0,0,4.46.93,3.07,3.07,0,0,0,1.26-3.78c-.51-1.54.24-2.19,1.26-2.83s1.86.1,2.58.82A5,5,0,0,1,77,45c-1.84,6.56-5.94,10.55-12.62,11.86-8.53,1.66-18.8-5.64-20.26-14.16-.57-3.33-.58-6.36,1.15-9.39,1.48-2.58,1.16-5.46.57-8.41a13.31,13.31,0,0,1-4.78,8.3c-3.81,3.19-12.22,4-16.76,2.14-1.69-.69-.36-1.56-.11-2.09A71.85,71.85,0,0,1,35.38,16.65,90.63,90.63,0,0,1,51.09,2.44c1-.73,1.9-1.17,3.16-.35C64.44,8.77,73.61,16.48,79.78,27.23c10.65,18.59,6.07,38.05-12,50.93-4.51,3.23-9.52,5.53-14.47,8-1.44.71-1.55-.51-1.92-1.14A50.42,50.42,0,0,1,46,72.07Z" style="fill:#c0ab9e"/><path d="M42.88,33.66c-3.1,6.73-8.12,9.24-15.49,8.12C18.57,40.45,12.2,35.45,8,27.84A16.59,16.59,0,0,1,8,11.51c3.49-6.61,13.89-8.75,19-1,2.66,4,1.45,9.82-2.05,12.73a2.29,2.29,0,0,1-3.16.21c-1.13-1-.37-2.1.39-3.08.55-.71,1.54-1,1.84-1.92.68-2.12,1.12-4.27-.44-6.14a6,6,0,0,0-5.9-1.92A9.39,9.39,0,0,0,10,22.61C12,29.32,21.46,39,32,37.68,35.72,37.2,39.26,36.54,42.88,33.66Z" style="fill:#f1e5e6"/><path d="M42.4,39.54c.41,14.78,14.91,21,24.88,18.06,6.92-2,11.66-9,11.23-15.42-.15-2.23-2.12-4.53-4-4.75-2.37-.28-3.7.77-4.37,3a2.91,2.91,0,0,0,.17,1.75c.17.77.35,1.72-.53,2.18a2.17,2.17,0,0,1-2.3-.35,4.65,4.65,0,0,1-1.77-4.81c.82-4.68,7.19-6.92,11.17-4.39,6.52,4.15,5.83,10,3.57,16-3.1,8.26-13.6,12.79-22.32,11.42-6.56-1-10.94-4.57-14.71-9.49-2.52-3.3-3.12-7.08-2.76-11.09C40.72,40.61,41.63,40.24,42.4,39.54Z" style="fill:#f1e5e6"/><path d="M37.54,47.39c-1.25,7.4-.19,14.08,4.43,19.93.68.86.38,1.28-.49,1.5-7.77,2-18.16.81-21.45-9.7-.41-1.33-.29-1.95.92-2.56C24.49,54.78,28,53,31.5,51.07,33.52,50,35.44,48.68,37.54,47.39Z" style="fill:#c0ab9e"/><path d="M39.11,41.38c.56,2.67-1.18,4-2.86,5.21-3.86,2.79-8.22,4.71-12.48,6.8C16.32,57.05,10,62,6.63,69.88,4.1,75.7,3.3,81.53,6.74,87.39c3.69,6.29,12.74,8.22,19.64,2.21,2.33-2,2.25-5.38,1.81-8.42-.08-.57-.69-1.24.21-1.62a1.86,1.86,0,0,1,1.77.33c2.82,1.79,2.7,5.15.62,8.68-3.58,6.05-10,8.61-16.46,6.63-7.55-2.29-12.75-7-12.73-15,0-12.08,6.31-20.33,16.1-26.36a124.47,124.47,0,0,1,12.12-6.47C33.18,45.79,35.93,43.33,39.11,41.38Z" style="fill:#f1e5e6"/><path d="M27.14,23.38c-2,3.6-3.7,6.51-5.2,9.52-.54,1.07-1,.79-1.62.34-4.34-3.09-8.53-6.61-9-12.2-.59-6.41,2.08-10,9.16-9.14,2.73.32,3.68,4.09,1.75,6.43a17.66,17.66,0,0,0-1.68,2.11c-.78,1.29-1.18,2.73.2,3.87s2.77,1.72,4.38.43C25.55,24.37,26.06,24.09,27.14,23.38Z" style="fill:#fff"/><path d="M31.75,71.2a40.71,40.71,0,0,0,11-1c.66-.12,1.21-.58,1.41.68.82,5.31,3.13,10.08,5.88,15.32A50,50,0,0,1,31.75,71.2Z" style="fill:#beaa9d"/><path d="M19.13,51.25a35.8,35.8,0,0,1,1.26-8.17c.22-1,.85-1.41,2-1.06a25.65,25.65,0,0,0,11.3,1.11C29.33,46.51,24.29,48.58,19.13,51.25Z" style="fill:#beaa9d"/><path d="M46,72.07l0-.62.54.19Z" style="fill:#c0ab9e"/></g></g></svg>