<svg xmlns="http://www.w3.org/2000/svg" viewBox="0 0 58.22 58.43">
    <g>
        <path d="M28.94,10.31C32.25,4.22,36.87.56,43.2.08,48.52-.31,53,2,56.06,6.59c3.31,4.89,2.79,11.84-1.36,17.28-3.29,4.32-7.69,7.45-12,10.65-3.85,2.88-7.61,5.89-11.3,9-1.33,1.12-2.58,1.52-4.11.29C20.76,38.5,14.12,33.31,7.57,28,3.78,24.93,1.77,20.84.36,16.15c-2.31-7.68,7-18,16-15.87C22.08,1.61,26.3,4.55,28.94,10.31Zm27.13,2.91C56.38,6.5,47.33,0,41.28,1.75a16.5,16.5,0,0,0-11,10c-.29.71-.41,1.77-1.44,1.75s-1-1.12-1.28-1.84A16,16,0,0,0,22.18,4.6C15.29-1.12,4,2.93,2.59,11.67c-.91,5.58,1.56,10.15,5.33,13.86,6.07,6,13.49,10.36,19.75,16.15a1.84,1.84,0,0,0,2.85.1c5.68-5.2,12.15-9.43,18.06-14.36C53,23.73,55.9,19.18,56.07,13.22Z"
              style="fill:#563b3a"/>
        <path d="M23.86,52.52A5.61,5.61,0,0,1,29.54,47c3.12,0,6,2.93,5.82,5.9a6,6,0,0,1-6.17,5.57A5.47,5.47,0,0,1,23.86,52.52Zm5.63,4.25a4.09,4.09,0,1,0-.17-8.17,4.1,4.1,0,0,0-4.24,4A4.15,4.15,0,0,0,29.49,56.77Z"
              style="fill:#563b3a"/>
        <path d="M56.07,13.22c-.17,6-3.06,10.51-7.49,14.2-5.91,4.93-12.38,9.16-18.06,14.36a1.84,1.84,0,0,1-2.85-.1C21.41,35.89,14,31.51,7.92,25.53c-3.77-3.71-6.24-8.28-5.33-13.86C4,2.93,15.29-1.12,22.18,4.6a16,16,0,0,1,5.34,7.08c.25.72.19,1.82,1.28,1.84s1.15-1,1.44-1.75a16.5,16.5,0,0,1,11-10C47.33,0,56.38,6.5,56.07,13.22Z"
              style="fill:#a06d51"/>
        <path d="M29.49,56.77a4.15,4.15,0,0,1-4.41-4.18,4.1,4.1,0,0,1,4.24-4,4.09,4.09,0,1,1,.17,8.17Z"
              style="fill:#a06d51"/>
    </g>
</svg>