<svg xmlns="http://www.w3.org/2000/svg" viewBox="0 0 58.27 45.21">
    <g>
        <path d="M27.91,44.61c-6.15-5.85-13-10.24-19.26-15.43A25.06,25.06,0,0,1,.37,16.42c-2.31-8,6.71-17.55,15-16.19,5,.83,9.34,2.87,12.09,7.46A4.57,4.57,0,0,1,28,11.8c-1.18,3.36-2.25,6.77-3.59,10.07a2.53,2.53,0,0,0,.38,2.86A46.54,46.54,0,0,0,29.06,30c2,1.83,2.09,3.7,1.3,6.05C29.46,38.72,28.79,41.49,27.91,44.61ZM2.08,13.27c.48,3.44,1.23,6.84,3.32,9.46,5.82,7.31,14.11,11.8,21,17.87.45.39,1,.58,1.22-.25.66-2.34,1.63-4.66,1.83-7,.11-1.42-1.56-2.53-2.57-3.69s-2-2.81-3.19-4A3.2,3.2,0,0,1,23,21.52c1.22-2.81,2.07-5.78,3.22-8.63a4.37,4.37,0,0,0-.88-5,25.89,25.89,0,0,0-3.29-3.25,11.68,11.68,0,0,0-13-1.33A12.31,12.31,0,0,0,2.08,13.27Z"
              style="fill:#563b3a"/>
        <path d="M29,45.21c1.06-3.8,2-7.63,3.26-11.38.37-1.12.41-1.82-.43-2.61a10.35,10.35,0,0,1-1-1.27c-1.81-2.33-4.82-4.4-5-7.15s1.67-5.53,2.79-8.25c1.46-3.5,1.94-7.44,5-10.24,6-5.46,14.34-5.8,20-.62s6.32,13.82,1.31,20.16c-3.36,4.24-7.68,7.45-12,10.64C38.27,38,33.72,41.49,29,45.21Zm3.29-5.1c3.9-3,7.62-5.63,11.16-8.51,4-3.24,8.28-6.14,10.83-10.88,3.59-6.67,1.41-14.54-5.1-17.67a12.55,12.55,0,0,0-17.36,6.5c-1.51,4-2.76,8-4.23,12A2.33,2.33,0,0,0,28,24.24c1.66,1.9,3.07,4.05,4.86,5.81,1.43,1.4,1.46,2.66.84,4.37S32.2,37.82,32.25,40.11Z"
              style="fill:#563b3a"/>
        <path d="M2.08,13.27a12.31,12.31,0,0,1,7-10,11.68,11.68,0,0,1,13,1.33,25.89,25.89,0,0,1,3.29,3.25,4.37,4.37,0,0,1,.88,5c-1.15,2.85-2,5.82-3.22,8.63a3.2,3.2,0,0,0,.72,4.07c1.19,1.22,2.07,2.74,3.19,4s2.68,2.27,2.57,3.69c-.2,2.38-1.17,4.7-1.83,7-.24.83-.77.64-1.22.25C19.51,34.53,11.22,30,5.4,22.73,3.31,20.11,2.56,16.71,2.08,13.27Z"
              style="fill:#a06d51"/>
        <path d="M32.25,40.11c0-2.29.86-4,1.49-5.69s.59-3-.84-4.37c-1.79-1.76-3.2-3.91-4.86-5.81a2.33,2.33,0,0,1-.49-2.69c1.47-4,2.72-8,4.23-12a12.55,12.55,0,0,1,17.36-6.5c6.51,3.13,8.69,11,5.1,17.67-2.55,4.74-6.85,7.64-10.83,10.88C39.87,34.48,36.15,37.15,32.25,40.11Z"
              style="fill:#a06d51"/>
    </g>
</svg>