<svg xmlns="http://www.w3.org/2000/svg" viewBox="0 0 70.55 54.1">
    <g id="Ebene_1-2">
        <path d="M29,10c2.25-3.35,4.69-6.44,8.38-8.29C43-1.1,48.83-.42,53.33,3.62c4.87,4.36,6.05,9.25,3.85,15.5a19.16,19.16,0,0,1-5.4,8.05c-1,.88-1.61,1.63-.41,2.88,1.49,1.55,1.61-.47,2.06-.86,2.91-2.5,5.92-4.51,10-3.63,5.54,1.2,8.32,6,6.61,11.44a12.49,12.49,0,0,1-3.77,5.87c-4.05,3.49-8.18,6.89-12.22,10.39a2.44,2.44,0,0,1-3.56.14,124.82,124.82,0,0,1-15-12c-.73-.73-.86-.4-1.36,0-5.42,3.85-5.36,3.77-10.44-.38-5.26-4.3-10.7-8.39-16-12.68-3.85-3.12-6-7.25-7.4-12-2.27-7.66,7-18,16.07-15.83C22.28,1.79,24.32,3.2,29,10ZM56.07,13.2c.25-6-7.48-12.55-13.84-11.54-5.38.85-8.59,4.3-11.33,8.51-.74,1.15-.47,3.4-2.2,3.32-1.44-.06-1.29-2.17-1.88-3.33C24,4.71,17.88,1,13,2.09,2.61,4.29-1.26,13.69,5.68,22.9c6,8,15.24,12.71,22.75,19.22a1.22,1.22,0,0,0,1.69.07c3.15-1.9,3.75-3.21,3.21-7.08A5.71,5.71,0,0,1,33.45,33c1.62-6.86,8.35-9.4,13.15-6.86,1,.54,2.15,1.26,3.46,0A18.2,18.2,0,0,0,56.07,13.2ZM35.39,36.33a8.64,8.64,0,0,0,3.2,5.45c3.91,3.22,8,6.22,11.95,9.39a2.06,2.06,0,0,0,2.92.13c4.54-3.87,9.47-7.38,13.22-12.07,1.95-2.44,2.88-5.43,1.18-8.61-1.79-3.35-4.83-3.67-8-3.11s-5.2,2.8-7,5.28c-.39.55-.32,1.58-1.23,1.54s-.89-.95-1.12-1.63c-1.15-3.48-5.4-6.21-8.64-5.59C37.76,27.9,35.35,30.85,35.39,36.33Z"
              style="fill:#563b3a"/>
        <path d="M56.07,13.2a18.2,18.2,0,0,1-6,12.94c-1.31,1.23-2.44.51-3.46,0-4.8-2.54-11.53,0-13.15,6.86a5.71,5.71,0,0,0-.12,2.14c.54,3.87-.06,5.18-3.21,7.08a1.22,1.22,0,0,1-1.69-.07C20.92,35.61,11.71,30.92,5.68,22.9-1.26,13.69,2.61,4.29,13,2.09,17.88,1,24,4.71,26.82,10.16c.59,1.16.44,3.27,1.88,3.33,1.73.08,1.46-2.17,2.2-3.32,2.74-4.21,6-7.66,11.33-8.51C48.59.65,56.32,7.21,56.07,13.2Z"
              style="fill:#a06d51"/>
        <path d="M35.39,36.33c0-5.48,2.37-8.43,6.54-9.22,3.24-.62,7.49,2.11,8.64,5.59.23.68.23,1.59,1.12,1.63s.84-1,1.23-1.54c1.76-2.48,3.87-4.72,7-5.28s6.19-.24,8,3.11c1.7,3.18.77,6.17-1.18,8.61C62.93,43.92,58,47.43,53.46,51.3a2.06,2.06,0,0,1-2.92-.13C46.59,48,42.5,45,38.59,41.78A8.64,8.64,0,0,1,35.39,36.33Z"
              style="fill:#a06d51"/>
    </g>
</svg>