<svg xmlns="http://www.w3.org/2000/svg" viewBox="0 0 69.83 61.94">
    <g>
        <path d="M69.26,38.18c-.77-2.2-2.08-3.46-4.56-3.42-3.06.06-5,2-6.89,4.06,1.44-4.82.07-9-2.64-12.82A2.19,2.19,0,0,1,55,24c1.63-8.19-3.55-13.36-10.12-14.56-3-.53-3.11-1.65-2.61-3.76.62-2.58-.58-3.79-2.87-4.48l-.07,0a3.77,3.77,0,0,1-1.14,1.22c.17.07.34.14.51.23A12.88,12.88,0,0,1,33.28,4.3l-4.92.55c-4.18-.22-8.41.57-12.56-.54-2.44.16-4.75-.57-7.09-1.1L4.34,1.85a5.3,5.3,0,0,1,.87-.47A4.82,4.82,0,0,1,3.51,0C2.1.35,1.63,1.15,1.58,2.78c-.25,8.05-.67,16.1-1,24.15,0,.5.17,1.12-.54,1.37v7.63a11.14,11.14,0,0,0,5.2,3.53,52.23,52.23,0,0,0,29,2c3.78-.79,8-1.39,7.55-7.15a18.07,18.07,0,0,0,5.69,6.43c-3.43.2-5.8,1.49-7.16,4.44-1.14,2.46-1.51,4.85.31,7.11A16.64,16.64,0,0,0,49,57.79c3.94,1.2,8.05,2,11.77,3.77,1.55.77,2.26.37,2.82-1.08,1.63-4.17,3.46-8.27,4.9-12.51C69.6,44.83,70.43,41.56,69.26,38.18ZM40.37,5.7c-.26,5.05.14,10.1-.36,15.17a103.2,103.2,0,0,0-.18,13.28c.1,2.75-1,4.26-3.53,4.92-1.91.49-3.75,1.34-5.79,1.17-1.26.23-2.49.78-3.82.49H24.5l-3.22,0a5.52,5.52,0,0,1-2.82-.24c-1.42-.46-3,.18-4.36-.6a12.76,12.76,0,0,1-4.89-1.17c-2.46-.09-4.39-1.51-6.5-2.51-1-.49-1.08-1.32-1-2.26.63-8,.9-16,1-24,0-1.27,0-2.54,0-3.8.1-1.91.35-3.42,3-2.08a26.46,26.46,0,0,0,5.17,1.43l4.36.59c1.57.76,3.28.17,4.9.54h8.14l3.27-.23c2.51-.64,5.15-.72,7.57-1.76C40.25,4.13,40.41,4.89,40.37,5.7ZM52.62,38.64c.23-1.1-2-2.14-.48-3s1.61,1.46,2.65,2c.24.12.29.61.43.93a3.4,3.4,0,0,1,.84,2.27,2,2,0,0,1,.56,1.63c.37,1.65,1.73,4.1-.47,4.6s-2.39-2.23-2.7-4A2,2,0,0,1,53,41.35C52.87,40.45,52.74,39.54,52.62,38.64Zm-3.85-4.91c-.16.23-.43.65-.79.22-.22-.26-.56-.73-.47-.9a6.33,6.33,0,0,1,3.32-2.48c1.34-.57.79,1.22,1.85,1.91C51,32.72,49.63,32.55,48.77,33.73Zm7.53-.53c.73.9.34,1.87.2,3a5.48,5.48,0,0,1-2.39-2.57A16.67,16.67,0,0,0,53,30.39c-.81-1.41-.39-2.26.83-3.15A10,10,0,0,1,56.3,33.2ZM42.15,11.31c.71-1.09,2.09-.53,3.16,0A4.23,4.23,0,0,1,48,12.47a2.25,2.25,0,0,1,1.67,1.06c1.12.93,2.38,1.73,2.7,3.31.52.19.47.66.52,1.07.88,1,.48,2.16.47,3.28.28,3.69-1.51,6.32-4.3,8.45-.75.57-1.73,1.76-2.44,1s-.37-2.19.66-3.06a8.69,8.69,0,0,0,2.92-6.43l-.13-1c-.54-.45-.45-1.08-.48-1.67l-2.15-2.82-2-1.5c-.66-.1-1.41.09-1.93-.52A1.46,1.46,0,0,1,42.15,11.31ZM42,16.56c0-1.29.41-1.59,1.6-1.1a6.46,6.46,0,0,1,3.26,2.24c.84,1.3,2.56,2.89-.92,3.14C44.52,21,43.33,22,42,23.58,42,20.85,42,18.7,42,16.56Zm4.92,21.15c-2-1.31-3.44-3-3.31-5.59-1.54-.71-.93-2.09-1-3.25-.18-3.38,1.24-5.91,3.66-6.44.58-.13,1.33-.36,1.62.45a1.07,1.07,0,0,1-.79,1.48c-2.52.62-2.28,2.66-2.42,4.51,0,1.12.39,2.3-.54,3.26l3.39,3.76a8.77,8.77,0,0,0,2.27,1.32A1.66,1.66,0,0,1,51,39.28c-.51,1-1.53.28-2.31,0A3.62,3.62,0,0,1,46.89,37.71Zm20.77,5.6c-.42,4.82-3.19,10.22-5.45,15.78-.19.45-.32.89-.93.63-5.44-2.33-11.6-2.71-16.68-6-4-2.59-4.44-7.15-1.08-10a5.86,5.86,0,0,1,9,2,14.14,14.14,0,0,0,.74,1.45,3.07,3.07,0,0,0,3.63,1.69c1.57-.39,2-1.64,2-3.11,0-2.37-.65-4.82,1.24-6.92a6.92,6.92,0,0,1,4.12-2.37C66.7,36.13,67.74,37.87,67.66,43.31Z"
              style="fill:#3a3b53"/>
        <path d="M67.66,43.31c-.42,4.82-3.19,10.22-5.45,15.78-.19.45-.32.89-.93.63-5.44-2.33-11.6-2.71-16.68-6-4-2.59-4.44-7.15-1.08-10a5.86,5.86,0,0,1,9,2,14.14,14.14,0,0,0,.74,1.45,3.07,3.07,0,0,0,3.63,1.69c1.57-.39,2-1.64,2-3.11,0-2.37-.65-4.82,1.24-6.92a6.92,6.92,0,0,1,4.12-2.37C66.7,36.13,67.74,37.87,67.66,43.31Z"
              style="fill:#78c1e4"/>
        <path d="M31.6,6.35c2.51-.64,5.15-.72,7.57-1.76,1.08-.46,1.24.3,1.2,1.11-.26,5.05.14,10.1-.36,15.17a103.2,103.2,0,0,0-.18,13.28c.1,2.75-1,4.26-3.53,4.92-1.91.49-3.75,1.34-5.79,1.17-.06-2,.52-4,.49-5.92C30.82,25,32,15.68,31.6,6.35Z"
              style="fill:#787d89"/>
        <path d="M9.21,38.73c-2.46-.09-4.39-1.51-6.5-2.51-1-.49-1.08-1.32-1-2.26.63-8,.9-16,1-24,0-1.27,0-2.54,0-3.8.1-1.91.35-3.42,3-2.08a26.46,26.46,0,0,0,5.17,1.43,27.68,27.68,0,0,0-.53,4c.15,8.51-1,17-.59,25.51A11.43,11.43,0,0,1,9.21,38.73Z"
              style="fill:#787d89"/>
        <path d="M9.21,38.73A11.43,11.43,0,0,0,9.81,35c-.41-8.51.74-17,.59-25.51a27.68,27.68,0,0,1,.53-4l4.36.59c.83,4.92.41,9.81.07,14.76-.43,6.35-.54,12.73-1.26,19.08A12.76,12.76,0,0,1,9.21,38.73Z"
              style="fill:#9599a4"/>
        <path d="M14.1,39.9c.72-6.35.83-12.73,1.26-19.08.34-5,.76-9.84-.07-14.76,1.57.76,3.28.17,4.9.54-.05,2.87-.46,5.77-.44,8.59.06,8.48-1.69,16.84-1.29,25.31C17,40,15.47,40.68,14.1,39.9Z"
              style="fill:#a5aab5"/>
        <path d="M31.6,6.35c.41,9.33-.78,18.63-.6,28,0,1.94-.55,3.92-.49,5.92-1.26.23-2.49.78-3.82.49a63.76,63.76,0,0,1,.09-6.49c1-9.19-.11-18.5,1.55-27.66Z"
              style="fill:#9599a4"/>
        <path d="M24.5,40.72l-3.22,0V6.59h3.78C24.78,18,24.36,29.33,24.5,40.72Z" style="fill:#c7cbd4"/>
        <path d="M24.5,40.72c-.14-11.39.28-22.76.56-34.14h3.27c-1.66,9.16-.53,18.47-1.55,27.66a63.76,63.76,0,0,0-.09,6.49Z"
              style="fill:#a6abb6"/>
        <path d="M21.28,6.59V40.74a5.52,5.52,0,0,1-2.82-.24c-.4-8.47,1.35-16.83,1.29-25.31,0-2.82.39-5.72.44-8.59Z"
              style="fill:#b3b7c2"/>
        <path d="M53.38,21.19c.28,3.69-1.51,6.32-4.3,8.45-.75.57-1.73,1.76-2.44,1s-.37-2.19.66-3.06a8.64,8.64,0,0,0,2.91-6.43Z"
              style="fill:#787d89"/>
        <path d="M42,23.58c0-2.73,0-4.88,0-7,0-1.29.41-1.59,1.6-1.1a6.46,6.46,0,0,1,3.26,2.24c.84,1.3,2.56,2.89-.92,3.14C44.52,21,43.33,22,42,23.58Z"
              style="fill:#fbfbfc"/>
        <path d="M42.57,28.87c-.18-3.38,1.24-5.91,3.66-6.44.58-.13,1.33-.36,1.62.45a1.07,1.07,0,0,1-.79,1.48c-2.52.62-2.28,2.66-2.42,4.51Z"
              style="fill:#787d89"/>
        <path d="M54.11,33.68A16.67,16.67,0,0,0,53,30.39c-.81-1.41-.39-2.26.83-3.15a10,10,0,0,1,2.43,6A3.74,3.74,0,0,1,54.11,33.68Z"
              style="fill:#b3b7c2"/>
        <path d="M49.61,18.5l-2.15-2.82a2.38,2.38,0,0,1,2.23-2.15c1.12.93,2.38,1.73,2.7,3.31A8.64,8.64,0,0,0,49.61,18.5Z"
              style="fill:#c7cbd4"/>
        <path d="M56.62,42.44c.37,1.65,1.73,4.1-.47,4.6s-2.39-2.23-2.7-4A6.53,6.53,0,0,0,56.62,42.44Z"
              style="fill:#868b96"/>
        <path d="M46.89,37.71c-2-1.31-3.44-3-3.31-5.59h.52l3.39,3.76Z" style="fill:#b3b7c2"/>
        <path d="M46.89,37.71l.6-1.82a8.77,8.77,0,0,0,2.27,1.32A1.66,1.66,0,0,1,51,39.28c-.51,1-1.53.28-2.31,0A3.62,3.62,0,0,1,46.89,37.71Z"
              style="fill:#787d89"/>
        <path d="M52.68,32.48c-1.72.24-3,.07-3.91,1.25-.16.23-.43.65-.79.22-.22-.26-.56-.73-.47-.9a6.33,6.33,0,0,1,3.32-2.48C52.17,30,51.62,31.79,52.68,32.48Z"
              style="fill:#f5f4f6"/>
        <path d="M45.49,14.18c-.66-.1-1.41.09-1.93-.52a2.87,2.87,0,0,1,1.75-2.33A4.23,4.23,0,0,1,48,12.47Z"
              style="fill:#9599a4"/>
        <path d="M53,41.35c-.12-.9-.25-1.81-.37-2.71l2.6-.1a3.4,3.4,0,0,1,.84,2.27Z" style="fill:#c7cbd4"/>
        <path d="M55.22,38.54l-2.6.1c.23-1.1-2-2.14-.48-3s1.61,1.46,2.65,2C55,37.73,55.08,38.22,55.22,38.54Z"
              style="fill:#9da1ad"/>
        <path d="M49.61,18.5a8.64,8.64,0,0,1,2.78-1.66c.52.19.47.66.52,1.07-.56,1.23-1.72,1.71-2.82,2.26C49.55,19.72,49.64,19.09,49.61,18.5Z"
              style="fill:#a5aab5"/>
        <path d="M50.09,20.17c1.1-.55,2.26-1,2.82-2.26.88,1,.48,2.16.47,3.28H50.21Z" style="fill:#9599a4"/>
        <path d="M44.1,32.13h-.52c-1.54-.71-.93-2.09-1-3.25h2.07C44.65,30,45,31.17,44.1,32.13Z"
              style="fill:#9599a4"/>
        <path d="M45.31,11.33a2.87,2.87,0,0,0-1.75,2.33,1.46,1.46,0,0,1-1.41-2.35C42.86,10.22,44.24,10.78,45.31,11.33Z"
              style="fill:#787d89"/>
        <path d="M53,41.35l3.07-.54a2,2,0,0,1,.56,1.63,6.53,6.53,0,0,1-3.17.57A2,2,0,0,1,53,41.35Z"
              style="fill:#a5aab5"/>
        <path d="M45.49,14.18,48,12.47a2.28,2.28,0,0,1,1.67,1.06,2.38,2.38,0,0,0-2.23,2.15Z" style="fill:#a5aab5"/>
        <path d="M54.11,33.68a3.74,3.74,0,0,0,2.19-.48c.73.9.34,1.87.2,3A5.48,5.48,0,0,1,54.11,33.68Z"
              style="fill:#868b96"/>
    </g>

</svg>