<svg xmlns="http://www.w3.org/2000/svg" viewBox="0 0 70.18 67.06">
    <g>
        <path d="M16.74,0a46.09,46.09,0,0,0,9.73,1.12A49.34,49.34,0,0,1,39.49,3c2.21.72,3.07,1.83,2.64,4.11-.4,2.09-.62,3.47,2.6,4,6.53,1.13,11.79,6.34,10.06,14.57a2.81,2.81,0,0,0,.59,2.38c2.13,3.56,3.64,7.24,2.29,11.53-.47,1.48-.08,2.52,1.8,2.85,6.39,1.1,10.49,5.41,10.7,11.06.24,6.11-3.79,11.3-10.07,13-5.79,1.55-11.39-.45-14.44-5.15A12.21,12.21,0,0,1,48.8,45.26c.72-.51,1.48-1,2.55-1.65C46.67,42.76,43.76,40,41.51,36c.64,5.52-3.38,6.27-7,7A51.32,51.32,0,0,1,5,41.08C-.06,39.19-.27,38.27.14,33c.47-6.14.68-12.31.73-18.47,0-3.64.65-7.23.58-10.86,0-1.51,1-1.77,2.06-2C6.1,1.07,8.69.54,11.29,0ZM49.93,21.85l.12,1a8.64,8.64,0,0,1-2.91,6.43c-1,.88-1.49,2.23-.66,3.06s1.69-.47,2.44-1c2.78-2.13,4.58-4.76,4.29-8.45,0-1.12.41-2.29-.47-3.28-.05-.41,0-.88-.51-1.07-.32-1.58-1.59-2.38-2.71-3.31a2.24,2.24,0,0,0-1.67-1.06A4.2,4.2,0,0,0,45.14,13c-1.07-.55-2.45-1.11-3.16,0a1.46,1.46,0,0,0,1.41,2.35c.53.61,1.27.42,1.94.52l2,1.5,2.15,2.82C49.48,20.77,49.38,21.4,49.93,21.85ZM52.82,43a2.09,2.09,0,0,0,.47,1.66c.31,1.8.55,4.52,2.7,4s.84-2.95.46-4.6a2,2,0,0,0-.56-1.63,3.44,3.44,0,0,0-.83-2.27c-.14-.32-.2-.81-.44-.93-1-.53-1.19-2.8-2.64-2s.71,1.92.48,3Zm-5.5-5.46q-1.7-1.87-3.38-3.76c.93-1,.55-2.14.53-3.26.15-1.85-.1-3.89,2.43-4.51a1.07,1.07,0,0,0,.78-1.48c-.29-.81-1-.58-1.61-.45-2.42.53-3.84,3.06-3.66,6.44.08,1.16-.53,2.54,1,3.25-.13,2.59,1.26,4.28,3.3,5.59a3.64,3.64,0,0,0,1.79,1.54c.78.31,1.8,1.08,2.31,0a1.66,1.66,0,0,0-1.23-2.07A9.12,9.12,0,0,1,47.32,37.57Zm8.81-2.69A9.81,9.81,0,0,0,53.76,29c-1.4.8-1.64,1.7-.88,3.09a17.57,17.57,0,0,1,1.06,3.29c.4,1.18,1.34,1.81,2.56,2.7C56.35,36.76,56.92,35.77,56.13,34.88Zm-23-31.6c-1.64-.16-3.23-.81-4.91-.54-4.2.07-8.34-.93-12.55-.57-2.37-1.52-4.73.35-7.1,0-1.27.55-2.82.25-4.37,1.33L8.55,4.89c2.34.53,4.64,1.26,7.09,1.1,4.14,1.11,8.37.32,12.56.54L33.11,6a13,13,0,0,0,5.55-1.72A12.57,12.57,0,0,0,33.11,3.28ZM24.34,42.4h2.19c1.33.29,2.55-.26,3.81-.49,2.05.17,3.88-.68,5.79-1.17,2.55-.66,3.64-2.17,3.54-4.92a101.42,101.42,0,0,1,.18-13.28c.49-5.07.1-10.12.36-15.17,0-.81-.12-1.57-1.21-1.11C36.58,7.32,34,7.39,31.44,8l-3.27.24H20c-1.61-.37-3.33.22-4.9-.54l-4.35-.59A25.78,25.78,0,0,1,5.6,5.72C3,4.38,2.72,5.89,2.62,7.8c-.07,1.26,0,2.53-.05,3.8-.13,8-.39,16-1,24-.08,1,0,1.77,1,2.26,2.1,1,4,2.42,6.5,2.51a12.54,12.54,0,0,0,4.89,1.17c1.37.78,2.94.14,4.36.6a5.48,5.48,0,0,0,2.81.24Zm32.37,23a6.93,6.93,0,0,0,3.79-.68C65,63.06,68,59.84,68.38,55c.36-4.1-1.62-7.3-5.18-9.42-1.23-.73-2.71-1.77-4-1.23s-.28,2.25-.46,3.43c-.22,1.34-.63,2.48-2.06,2.84a3,3,0,0,1-3.35-1.26,8.34,8.34,0,0,1-1.17-2.42c-.47-1.56-1.11-1.68-2.36-.68-3.64,2.91-5.3,7.74-4,11.86S51.74,65.41,56.71,65.4ZM41.82,25.27c1.33-1.57,2.49-2.65,3.88-2.73,3.37-.2,1.95-1.76,1-3.12a6.62,6.62,0,0,0-3-2.13c-1.49-.65-1.93-.43-1.88,1.17C41.87,20.52,41.82,22.59,41.82,25.27Zm10.6,9c-.87-.78-.44-2.45-1.68-2a7.18,7.18,0,0,0-3.41,2.43c-.1.13.24.62.43.91.3.46.58.19.79-.1C49.4,34.32,50.68,34.32,52.42,34.25Z"
              style="fill:#3a3b53"/>
        <path d="M56.71,65.4c-5,0-9.48-3.07-10.86-7.29s.32-9,4-11.86c1.25-1,1.89-.88,2.36.68a8.34,8.34,0,0,0,1.17,2.42,3,3,0,0,0,3.35,1.26c1.43-.36,1.84-1.5,2.06-2.84.18-1.18-.81-2.89.46-3.43s2.76.5,4,1.23c3.56,2.12,5.54,5.32,5.18,9.42C68,59.84,65,63.06,60.5,64.72A6.93,6.93,0,0,1,56.71,65.4Z"
              style="fill:#78c1e4"/>
        <path d="M31.44,8C34,7.39,36.58,7.32,39,6.27c1.09-.46,1.25.3,1.21,1.11-.26,5.05.13,10.1-.36,15.17a101.42,101.42,0,0,0-.18,13.28c.1,2.75-1,4.26-3.54,4.92-1.91.49-3.74,1.34-5.79,1.17-.05-2,.53-4,.49-5.92C30.66,26.66,31.84,17.36,31.44,8Z"
              style="fill:#787d89"/>
        <path d="M9.05,40.41c-2.46-.09-4.4-1.51-6.5-2.51-1-.49-1.08-1.31-1-2.26.63-8,.89-16,1-24,0-1.27,0-2.54.05-3.8.1-1.91.35-3.42,3-2.08a25.78,25.78,0,0,0,5.17,1.43,25.17,25.17,0,0,0-.53,4c.14,8.51-1,17-.6,25.51A11.42,11.42,0,0,1,9.05,40.41Z"
              style="fill:#787d89"/>
        <path d="M9.05,40.41a11.42,11.42,0,0,0,.59-3.73c-.4-8.51.74-17,.6-25.51a25.17,25.17,0,0,1,.53-4l4.35.59c.84,4.92.41,9.81.08,14.76-.43,6.36-.54,12.74-1.26,19.08A12.54,12.54,0,0,1,9.05,40.41Z"
              style="fill:#9599a4"/>
        <path d="M13.94,41.58c.72-6.34.83-12.72,1.26-19.08.33-4.95.76-9.84-.08-14.76,1.57.76,3.29.17,4.9.54-.05,2.87-.45,5.77-.43,8.59.06,8.48-1.69,16.84-1.3,25.31C16.88,41.72,15.31,42.36,13.94,41.58Z"
              style="fill:#a5aab5"/>
        <path d="M31.44,8c.4,9.33-.78,18.63-.61,28,0,2-.54,3.92-.49,5.92-1.26.23-2.48.78-3.81.49,0-2.16-.15-4.35.08-6.49,1-9.19-.11-18.5,1.56-27.65Z"
              style="fill:#9599a4"/>
        <path d="M21.12,8.27h3.77c-.27,11.38-.7,22.75-.55,34.14l-3.23,0Q21.13,25.35,21.12,8.27Z"
              style="fill:#c7cbd4"/>
        <path d="M24.34,42.4c-.15-11.39.28-22.76.55-34.14h3.28c-1.67,9.15-.54,18.46-1.56,27.65-.23,2.14-.06,4.33-.08,6.49Z"
              style="fill:#a6abb6"/>
        <path d="M21.12,8.27q0,17.09,0,34.15a5.52,5.52,0,0,1-2.82-.24c-.39-8.47,1.36-16.83,1.3-25.31,0-2.82.38-5.72.43-8.59Z"
              style="fill:#b3b7c2"/>
        <path d="M15.65,2.17c4.21-.36,8.35.64,12.55.56-.16,1.27,1,2.54,0,3.8C24,6.31,19.78,7.1,15.64,6,15.64,4.72,15.65,3.44,15.65,2.17Z"
              style="fill:#3c3f45"/>
        <path d="M53.21,22.87c.29,3.69-1.51,6.32-4.29,8.45-.75.57-1.73,1.76-2.44,1s-.38-2.18.66-3.06a8.64,8.64,0,0,0,2.91-6.43Z"
              style="fill:#787d89"/>
        <path d="M41.82,25.27c0-2.68,0-4.75,0-6.81,0-1.6.39-1.82,1.88-1.17a6.62,6.62,0,0,1,3,2.13c.95,1.36,2.37,2.92-1,3.12C44.31,22.62,43.15,23.7,41.82,25.27Z"
              style="fill:#fbfbfc"/>
        <path d="M15.65,2.17c0,1.27,0,2.55,0,3.82-2.45.16-4.75-.57-7.09-1.1V2.2C10.92,2.52,13.28.65,15.65,2.17Z"
              style="fill:#484c53"/>
        <path d="M42.41,30.55c-.18-3.38,1.24-5.91,3.66-6.44.58-.13,1.32-.36,1.61.45A1.07,1.07,0,0,1,46.9,26c-2.53.62-2.28,2.66-2.43,4.51Z"
              style="fill:#787d89"/>
        <path d="M28.2,6.53c1-1.26-.16-2.53,0-3.8,1.68-.26,3.27.39,4.91.55a2.28,2.28,0,0,1,0,2.7Z"
              style="fill:#484c53"/>
        <path d="M53.94,35.36a17.57,17.57,0,0,0-1.06-3.29c-.76-1.39-.52-2.29.88-3.09a9.81,9.81,0,0,1,2.37,5.9A3.72,3.72,0,0,1,53.94,35.36Z"
              style="fill:#b3b7c2"/>
        <path d="M49.45,20.18,47.3,17.36a2.38,2.38,0,0,1,2.22-2.15c1.12.93,2.39,1.73,2.71,3.31A8.64,8.64,0,0,0,49.45,20.18Z"
              style="fill:#c7cbd4"/>
        <path d="M56.45,44.12c.38,1.65,1.74,4.1-.46,4.6s-2.39-2.23-2.7-4A6.47,6.47,0,0,0,56.45,44.12Z"
              style="fill:#868b96"/>
        <path d="M46.72,39.39c-2-1.31-3.43-3-3.3-5.59h.52q1.68,1.89,3.38,3.76Z" style="fill:#b3b7c2"/>
        <path d="M33.11,6a2.28,2.28,0,0,0,0-2.7,12.57,12.57,0,0,1,5.55,1A13,13,0,0,1,33.11,6Z"
              style="fill:#555962"/>
        <path d="M46.72,39.39l.6-1.82a9.12,9.12,0,0,0,2.27,1.32A1.66,1.66,0,0,1,50.82,41c-.51,1-1.53.28-2.31,0A3.64,3.64,0,0,1,46.72,39.39Z"
              style="fill:#787d89"/>
        <path d="M52.42,34.25c-1.74.07-3,.07-3.87,1.22-.21.29-.49.56-.79.1-.19-.29-.53-.78-.43-.91a7.18,7.18,0,0,1,3.41-2.43C52,31.8,51.55,33.47,52.42,34.25Z"
              style="fill:#f5f4f6"/>
        <path d="M45.33,15.86c-.67-.1-1.41.09-1.94-.52A2.91,2.91,0,0,1,45.14,13a4.2,4.2,0,0,1,2.71,1.14Z"
              style="fill:#9599a4"/>
        <path d="M55.06,40.22a3.44,3.44,0,0,1,.83,2.27L52.82,43l-.36-2.71Z" style="fill:#c7cbd4"/>
        <path d="M55.06,40.22l-2.6.1c.23-1.1-2-2.14-.48-3s1.61,1.46,2.64,2C54.86,39.41,54.92,39.9,55.06,40.22Z"
              style="fill:#9da1ad"/>
        <path d="M8.55,2.2V4.89L4.18,3.53C5.73,2.45,7.28,2.75,8.55,2.2Z" style="fill:#555962"/>
        <path d="M49.45,20.18a8.64,8.64,0,0,1,2.78-1.66c.52.19.46.66.51,1.07-.55,1.23-1.71,1.71-2.81,2.26C49.38,21.4,49.48,20.77,49.45,20.18Z"
              style="fill:#a5aab5"/>
        <path d="M49.93,21.85c1.1-.55,2.26-1,2.81-2.26.88,1,.48,2.16.47,3.28H50.05Z" style="fill:#9599a4"/>
        <path d="M45.14,13a2.91,2.91,0,0,0-1.75,2.33A1.46,1.46,0,0,1,42,13C42.69,11.9,44.07,12.46,45.14,13Z"
              style="fill:#787d89"/>
        <path d="M43.94,33.81h-.52c-1.54-.71-.93-2.09-1-3.25h2.06C44.49,31.67,44.87,32.85,43.94,33.81Z"
              style="fill:#9599a4"/>
        <path d="M52.82,43l3.07-.54a2,2,0,0,1,.56,1.63,6.47,6.47,0,0,1-3.16.57A2.09,2.09,0,0,1,52.82,43Z"
              style="fill:#a5aab5"/>
        <path d="M45.33,15.86l2.52-1.71a2.24,2.24,0,0,1,1.67,1.06,2.38,2.38,0,0,0-2.22,2.15Z" style="fill:#a5aab5"/>
        <path d="M53.94,35.36a3.72,3.72,0,0,0,2.19-.48c.79.89.22,1.88.37,3.18C55.28,37.17,54.34,36.54,53.94,35.36Z"
              style="fill:#868b96"/>
    </g>
</svg>