<svg xmlns="http://www.w3.org/2000/svg" viewBox="0 0 71.61 75.48">
    <g>
        <path d="M49.86,43C46,42,43.64,39.27,41.37,35.09c.71,6.4-3.51,7-7.29,7.81A50.94,50.94,0,0,1,4.57,40.65C0,38.84-.25,37.85.12,33.06.61,26.92.85,20.75.9,14.59c0-3.73.64-7.42.58-11.14,0-1.5,1-1.74,2-2.05C9.16-.28,15-.22,20.7.4,25.9,1,31.17.72,36.3,1.94c1,.23,1.91.45,2.86.69,2.46.63,3.6,2,3,4.69-.47,2-.35,3,2.52,3.57,6.68,1.21,11.86,6.37,10.2,14.49A3.16,3.16,0,0,0,55.49,28C57.56,31.5,59,35.1,57.74,39.3c-.17.54-.78,1.66.66,1.89,5.19.85,7.4,4.93,8.35,9.18,1.32,6,3.18,11.75,4.71,17.64.33,1.29.11,1.83-.75,2.43a28.57,28.57,0,0,1-15.71,5c-2,0-3.42-1-4-3.24-1.5-6.45-3.3-12.84-4.27-19.41C46.3,49.54,47.25,46.59,49.86,43ZM62.2,46.48a19.15,19.15,0,0,1,2.51,5.4,6.63,6.63,0,0,0-2.08-5.83c-.88-1.77-2.31-2.8-4.76-3.57C58.92,44.86,61.13,45.08,62.2,46.48ZM52.78,19.36c-.05-.41,0-.88-.52-1.07C52,16.71,50.68,15.9,49.56,15a2.23,2.23,0,0,0-1.67-1.06,4.2,4.2,0,0,0-2.71-1.14c-1.07-.55-2.45-1.11-3.16,0a1.46,1.46,0,0,0,1.41,2.35c.53.61,1.27.42,1.94.52l2,1.5L49.49,20c0,.59-.07,1.22.48,1.66l.12,1a8.64,8.64,0,0,1-2.91,6.43c-1,.87-1.49,2.23-.66,3.06s1.69-.47,2.43-1c2.79-2.13,4.59-4.76,4.3-8.46C53.26,21.52,53.66,20.35,52.78,19.36Zm.08,23.44a2,2,0,0,0,.46,1.66,5.25,5.25,0,0,0,2,4.16,1,1,0,0,0,1.4-.36,4.82,4.82,0,0,0-.22-4.37,2,2,0,0,0-.57-1.63A3.46,3.46,0,0,0,55.1,40c-.14-.31-.2-.8-.44-.92-1-.53-1.19-2.8-2.64-2s.7,1.91.47,3Zm-6.1-3.64a3.64,3.64,0,0,0,1.79,1.54c.78.31,1.8,1.08,2.31,0a1.66,1.66,0,0,0-1.23-2.07,9.12,9.12,0,0,1-2.27-1.32L44,33.58c.94-1,.56-2.14.54-3.26.15-1.85-.1-3.89,2.42-4.51a1.07,1.07,0,0,0,.79-1.48c-.29-.82-1-.58-1.61-.45-2.42.53-3.84,3.06-3.66,6.44.07,1.16-.53,2.54,1,3.25C43.33,36.16,44.72,37.85,46.76,39.16Zm7.22-4a5.53,5.53,0,0,0,2.39,2.57c.14-1.18.53-2.15-.2-3.05a9.83,9.83,0,0,0-2.43-6c-1.21.89-1.63,1.74-.83,3.15A16,16,0,0,1,54,35.13ZM33.15,5.75a13,13,0,0,0,5.42-1.64,10,10,0,0,0-5.42-1.06c-1.64-.16-3.23-.81-4.91-.55-4.2.08-8.34-.92-12.55-.56C13.32.42,11,2.29,8.59,2c-1.28.56-2.82.26-4.37,1.34L8.59,4.66c2.34.53,4.64,1.26,7.09,1.1,4.14,1.11,8.37.32,12.56.54ZM21.16,8h-1.1c-1.61-.36-3.33.23-4.9-.53l-4.35-.59A26.27,26.27,0,0,1,5.64,5.49c-2.63-1.34-2.88.17-3,2.08-.07,1.26,0,2.53-.05,3.8-.13,8-.39,16-1,24-.07.94,0,1.77,1,2.26,2.1,1,4,2.42,6.5,2.51A12.71,12.71,0,0,0,14,41.35c1.37.78,2.94.14,4.35.6a5.63,5.63,0,0,0,2.82.24l3.23,0h2.19c1.33.29,2.55-.26,3.81-.49,2.05.17,3.88-.68,5.79-1.17,2.55-.66,3.64-2.17,3.54-4.92a99.71,99.71,0,0,1,.18-13.28c.49-5.07.1-10.12.36-15.17,0-.81-.12-1.57-1.21-1.11-2.42,1-5,1.12-7.56,1.76L28.21,8h-7ZM65.63,53.17a31.37,31.37,0,0,1-14.79,4.91c-1.57.15-1.38.92-1.08,2,1,3.81,2.16,7.6,2.85,11.48.35,2,1.34,2.38,2.91,2.25A31.49,31.49,0,0,0,68.31,70c.86-.48,1.57-1.08,1.2-2.39C68.17,62.85,66.94,58.09,65.63,53.17ZM41.86,25c1.35-1.51,2.53-2.64,4-2.73,3.26-.19,1.72-1.74.93-3A5.5,5.5,0,0,0,45,17.68c-.82-.49-1.8-1.28-2.69-.88-1.07.49-.39,1.76-.45,2.66C41.78,21.13,41.86,22.8,41.86,25ZM52.6,47.91c-1,.78-.83,1.86-1.11,2.8-.62,2,.21,2.34,2,1.81,2-.58,4-1,6-1.49.85-.19,2,.29,2.44-.72s-.59-1.63-1.1-2.32-.87-1.43-2-1.23c0,1.58-.29,3.14-2.09,3.61C54.7,50.89,53.54,49.59,52.6,47.91Zm-1.11,8.4c2.5,0,8.41-1.47,10.25-2.63.42-.26,1.12-.42.87-1.13s-.94-.52-1.41-.42c-2.44.51-4.87,1.08-7.3,1.64A2.67,2.67,0,0,0,51.49,56.31Zm.27-11.58C48.1,47.1,47.18,53.05,50,55.46,50,51.67,49.56,48,51.76,44.73ZM52.38,34c-.72-.81-.54-2.29-1.41-2a13.33,13.33,0,0,0-3.52,2.32c-.1.07.09.63.23.92.29.58.67.42,1,0C49.49,34,50.82,34.16,52.38,34Z"
              style="fill:#3a3b53"/>
        <path d="M31.48,7.8C34,7.16,36.62,7.08,39,6c1.09-.46,1.25.3,1.21,1.11-.26,5,.13,10.1-.36,15.17a99.71,99.71,0,0,0-.18,13.28c.1,2.75-1,4.26-3.54,4.92-1.91.49-3.74,1.34-5.79,1.17-.06-2,.53-4,.49-5.92C30.7,26.43,31.88,17.13,31.48,7.8Z"
              style="fill:#787d89"/>
        <path d="M9.09,40.18c-2.46-.09-4.4-1.51-6.5-2.51-1-.49-1.08-1.32-1-2.26.64-8,.9-16,1-24,0-1.27,0-2.54.05-3.8.1-1.91.35-3.42,3-2.08a26.27,26.27,0,0,0,5.17,1.43,26.39,26.39,0,0,0-.54,4c.15,8.51-1,17-.59,25.51A11.74,11.74,0,0,1,9.09,40.18Z"
              style="fill:#787d89"/>
        <path d="M65.63,53.17c1.31,4.92,2.54,9.68,3.88,14.4.37,1.31-.34,1.91-1.2,2.39a31.49,31.49,0,0,1-12.79,3.89C54,74,53,73.59,52.61,71.6c-.69-3.88-1.83-7.67-2.85-11.48-.3-1.12-.49-1.89,1.08-2A31.37,31.37,0,0,0,65.63,53.17Zm-9.16,7.94c.05,1.48,0,2.77,1,2.86,2,.18,1.67,1.86,2.22,3,.41.84-.09,2.48,1.8,1.83,1.44-.5,2.69-.88,1.77-3A4.37,4.37,0,0,1,63,62.11c.69-1.61-.91-3.35-2.76-3.48C58.11,58.49,56.5,59.8,56.47,61.11Z"
              style="fill:#78c1e4"/>
        <path d="M9.09,40.18a11.74,11.74,0,0,0,.59-3.73c-.4-8.51.74-17,.59-25.51a26.39,26.39,0,0,1,.54-4l4.35.59c.84,4.92.41,9.81.08,14.76C14.81,28.62,14.7,35,14,41.35A12.71,12.71,0,0,1,9.09,40.18Z"
              style="fill:#9599a4"/>
        <path d="M14,41.35c.72-6.35.83-12.73,1.26-19.08.33-4.95.76-9.84-.08-14.76,1.57.76,3.29.17,4.9.53,0,2.88-.45,5.77-.43,8.6.05,8.48-1.69,16.84-1.3,25.31C16.92,41.49,15.35,42.13,14,41.35Z"
              style="fill:#a5aab5"/>
        <path d="M31.48,7.8c.4,9.33-.78,18.63-.61,28,0,1.94-.55,3.92-.49,5.92-1.26.23-2.48.78-3.81.49,0-2.17-.15-4.35.08-6.49,1-9.19-.11-18.5,1.56-27.66Z"
              style="fill:#9599a4"/>
        <path d="M24.38,42.17l-3.23,0V8h3.77C24.66,19.41,24.23,30.78,24.38,42.17Z" style="fill:#c7cbd4"/>
        <path d="M24.38,42.17c-.15-11.39.28-22.76.55-34.14h3.28c-1.67,9.16-.54,18.47-1.56,27.66-.23,2.14-.06,4.32-.08,6.49Z"
              style="fill:#a6abb6"/>
        <path d="M21.16,8V42.19A5.63,5.63,0,0,1,18.33,42c-.39-8.47,1.35-16.83,1.3-25.31,0-2.83.38-5.72.43-8.6Z"
              style="fill:#b3b7c2"/>
        <path d="M15.69,1.94c4.21-.36,8.35.64,12.55.56-.16,1.27,1,2.54,0,3.8-4.19-.22-8.42.57-12.56-.54C15.68,4.48,15.69,3.21,15.69,1.94Z"
              style="fill:#3c3f45"/>
        <path d="M53.25,22.63c.29,3.7-1.51,6.33-4.3,8.46-.74.57-1.72,1.76-2.43,1s-.38-2.19.66-3.06a8.64,8.64,0,0,0,2.91-6.43Z"
              style="fill:#787d89"/>
        <path d="M41.86,25c0-2.19-.08-3.86,0-5.53.06-.9-.62-2.17.45-2.66.89-.4,1.87.39,2.69.88a5.5,5.5,0,0,1,1.78,1.61c.79,1.23,2.33,2.78-.93,3C44.39,22.35,43.21,23.48,41.86,25Z"
              style="fill:#fbfbfc"/>
        <path d="M52.6,47.91c.94,1.68,2.1,3,4.12,2.46,1.8-.47,2.07-2,2.09-3.61,1.11-.2,1.54.64,2,1.23s1.46,1.4,1.1,2.32-1.59.53-2.44.72c-2,.45-4,.91-6,1.49-1.8.53-2.63.24-2-1.81C51.77,49.77,51.58,48.69,52.6,47.91Z"
              style="fill:#f5f4f6"/>
        <path d="M15.69,1.94c0,1.27,0,2.54,0,3.82-2.45.16-4.75-.57-7.09-1.1V2C11,2.29,13.32.42,15.69,1.94Z"
              style="fill:#484c53"/>
        <path d="M51.49,56.31a2.67,2.67,0,0,1,2.41-2.54c2.43-.56,4.86-1.13,7.3-1.64.47-.1,1.17-.25,1.41.42s-.45.87-.87,1.13C59.9,54.84,54,56.35,51.49,56.31Z"
              style="fill:#78c1e4"/>
        <path d="M51.76,44.73C49.56,48,50,51.67,50,55.46,47.18,53.05,48.1,47.1,51.76,44.73Z" style="fill:#78c1e4"/>
        <path d="M42.45,30.32c-.18-3.38,1.24-5.91,3.66-6.44.58-.13,1.32-.37,1.61.45a1.07,1.07,0,0,1-.79,1.48c-2.52.62-2.27,2.66-2.42,4.51Z"
              style="fill:#787d89"/>
        <path d="M28.24,6.3c1-1.26-.16-2.53,0-3.8,1.68-.26,3.27.39,4.91.55a2.28,2.28,0,0,1,0,2.7Z"
              style="fill:#484c53"/>
        <path d="M54,35.13a16,16,0,0,0-1.07-3.29c-.8-1.41-.38-2.26.83-3.15a9.83,9.83,0,0,1,2.43,6A3.72,3.72,0,0,1,54,35.13Z"
              style="fill:#b3b7c2"/>
        <path d="M49.56,15c1.12.92,2.39,1.73,2.7,3.31A8.7,8.7,0,0,0,49.49,20l-2.15-2.82A2.37,2.37,0,0,1,49.56,15Z"
              style="fill:#c7cbd4"/>
        <path d="M56.5,43.89a4.82,4.82,0,0,1,.22,4.37,1,1,0,0,1-1.4.36,5.25,5.25,0,0,1-2-4.16A6.55,6.55,0,0,0,56.5,43.89Z"
              style="fill:#868b96"/>
        <path d="M44,33.58l3.39,3.76-.6,1.82c-2-1.31-3.43-3-3.3-5.59Z" style="fill:#b3b7c2"/>
        <path d="M33.15,5.75a2.28,2.28,0,0,0,0-2.7,10,10,0,0,1,5.42,1.06A13,13,0,0,1,33.15,5.75Z"
              style="fill:#555962"/>
        <path d="M46.76,39.16l.6-1.82a9.12,9.12,0,0,0,2.27,1.32,1.66,1.66,0,0,1,1.23,2.07c-.51,1.05-1.53.28-2.31,0A3.64,3.64,0,0,1,46.76,39.16Z"
              style="fill:#787d89"/>
        <path d="M52.38,34c-1.56.2-2.89,0-3.73,1.23-.3.42-.68.58-1,0-.14-.29-.33-.85-.23-.92A13.33,13.33,0,0,1,51,32C51.84,31.67,51.66,33.15,52.38,34Z"
              style="fill:#f5f4f6"/>
        <path d="M45.37,15.63c-.67-.1-1.41.09-1.94-.52a2.91,2.91,0,0,1,1.75-2.33,4.2,4.2,0,0,1,2.71,1.14Z"
              style="fill:#9599a4"/>
        <path d="M55.1,40a3.46,3.46,0,0,1,.83,2.28l-3.07.54-.36-2.71Z" style="fill:#c7cbd4"/>
        <path d="M55.1,40l-2.6.11c.22-1.11-2-2.14-.48-3s1.61,1.46,2.64,2C54.9,39.18,55,39.67,55.1,40Z"
              style="fill:#9da1ad"/>
        <path d="M8.59,2v2.7L4.22,3.3C5.77,2.22,7.31,2.52,8.59,2Z" style="fill:#555962"/>
        <path d="M49.49,20a8.7,8.7,0,0,1,2.77-1.66c.53.19.47.66.52,1.07-.55,1.23-1.71,1.71-2.81,2.25C49.42,21.17,49.52,20.54,49.49,20Z"
              style="fill:#a5aab5"/>
        <path d="M50,21.61c1.1-.54,2.26-1,2.81-2.25.88,1,.48,2.16.47,3.27H50.09Z" style="fill:#9599a4"/>
        <path d="M62.2,46.49c-1.07-1.41-3.28-1.63-4.33-4,2.45.77,3.88,1.8,4.76,3.57Z" style="fill:#78c1e4"/>
        <path d="M44,33.58h-.51c-1.54-.71-.94-2.09-1-3.25h2.06C44.53,31.44,44.91,32.62,44,33.58Z"
              style="fill:#9599a4"/>
        <path d="M45.18,12.78a2.91,2.91,0,0,0-1.75,2.33A1.46,1.46,0,0,1,42,12.76C42.73,11.67,44.11,12.23,45.18,12.78Z"
              style="fill:#787d89"/>
        <path d="M52.86,42.8l3.07-.54a2,2,0,0,1,.57,1.63,6.55,6.55,0,0,1-3.18.57A2,2,0,0,1,52.86,42.8Z"
              style="fill:#a5aab5"/>
        <path d="M45.37,15.63l2.52-1.71A2.23,2.23,0,0,1,49.56,15a2.37,2.37,0,0,0-2.22,2.15Z" style="fill:#a5aab5"/>
        <path d="M54,35.13a3.72,3.72,0,0,0,2.19-.48c.73.9.34,1.87.2,3.05A5.53,5.53,0,0,1,54,35.13Z"
              style="fill:#868b96"/>
        <path d="M62.63,46.05a6.63,6.63,0,0,1,2.08,5.83,19,19,0,0,0-2.51-5.39Z" style="fill:#78c1e4"/>
        <path d="M56.47,61.11c0-1.31,1.64-2.62,3.72-2.48,1.85.13,3.45,1.87,2.76,3.48a4.37,4.37,0,0,0,.32,3.63c.92,2.13-.33,2.51-1.77,3-1.89.65-1.39-1-1.8-1.83-.55-1.09-.19-2.77-2.22-3C56.47,63.88,56.52,62.59,56.47,61.11Z"
              style="fill:#3a3b53"/>
    </g>
</svg>