<svg xmlns="http://www.w3.org/2000/svg" viewBox="0 0 69.86 63.67">
    <g>
        <path d="M16.94,0a44,44,0,0,0,9.72,1.11A51.11,51.11,0,0,1,39.43,3c2.3.7,3.5,1.9,2.88,4.48-.5,2.11-.34,3.23,2.6,3.77C51.49,12.39,56.66,17.56,55,25.75a2.13,2.13,0,0,0,.17,2c2.71,3.84,4.07,8,2.64,12.83,1.93-2.09,3.83-4,6.88-4.06,2.49-.05,3.8,1.21,4.56,3.41,1.18,3.38.34,6.65-.72,9.79C67.13,53.93,65.3,58,63.67,62.2c-.57,1.45-1.27,1.85-2.83,1.09-3.72-1.82-7.82-2.58-11.76-3.77A16.7,16.7,0,0,1,40.62,54c-1.82-2.26-1.44-4.65-.31-7.11,1.37-3,3.73-4.24,7.16-4.43A18.26,18.26,0,0,1,41.78,36c.47,5.75-3.76,6.35-7.54,7.14a52.22,52.22,0,0,1-29-2A11,11,0,0,1,0,37.65V30c.7-.25.51-.86.53-1.37.37-8,.79-16.1,1.05-24.15,0-1.79.61-2.59,2.37-2.87,2.51-.42,5-1,7.5-1.59ZM50.13,21.89l.12,1a8.62,8.62,0,0,1-2.91,6.43c-1,.88-1.49,2.23-.66,3.06s1.69-.47,2.44-1c2.78-2.12,4.58-4.76,4.29-8.45,0-1.12.41-2.29-.47-3.27,0-.42,0-.89-.51-1.08-.32-1.58-1.59-2.38-2.71-3.3a2.23,2.23,0,0,0-1.67-1.07,4.14,4.14,0,0,0-2.7-1.13c-1.08-.55-2.46-1.12-3.17,0a1.46,1.46,0,0,0,1.41,2.35c.53.61,1.27.42,1.94.52l2,1.5,2.15,2.82C49.68,20.81,49.58,21.44,50.13,21.89Zm5.13,18.37c-.14-.32-.19-.81-.44-.93-1-.53-1.19-2.79-2.64-2s.71,1.91.48,3L53,43.07a2.09,2.09,0,0,0,.47,1.66c.31,1.8.55,4.52,2.7,4s.83-2.95.46-4.6a1.9,1.9,0,0,0-.56-1.63A3.44,3.44,0,0,0,55.26,40.26ZM44.14,33.85c.93-1,.55-2.14.53-3.25.15-1.86-.1-3.9,2.43-4.52a1.07,1.07,0,0,0,.78-1.48c-.29-.81-1-.58-1.61-.45-2.42.53-3.84,3.06-3.66,6.44.08,1.16-.53,2.54,1,3.25-.13,2.59,1.26,4.29,3.31,5.59A3.57,3.57,0,0,0,48.71,41c.78.31,1.8,1.08,2.31,0a1.66,1.66,0,0,0-1.23-2.07,9.12,9.12,0,0,1-2.27-1.32Zm12.19,1.07a9.83,9.83,0,0,0-2.43-6c-1.21.89-1.63,1.74-.83,3.15a16,16,0,0,1,1.07,3.29A5.53,5.53,0,0,0,56.53,38C56.68,36.79,57.06,35.82,56.33,34.92Zm-23-31.59c-1.64-.17-3.23-.82-4.91-.55-4.2.07-8.34-.93-12.55-.57-2.37-1.52-4.73.35-7.1,0-1.27.55-2.82.25-4.37,1.33L8.75,4.93c2.34.53,4.64,1.26,7.09,1.1,4.14,1.11,8.37.32,12.56.54L33.31,6a12.83,12.83,0,0,0,5.42-1.64A10.06,10.06,0,0,0,33.31,3.33Zm-12,39.14,3.22,0h2.19c1.33.3,2.55-.26,3.81-.49,2.05.17,3.88-.68,5.79-1.17,2.55-.66,3.64-2.17,3.54-4.92a101.42,101.42,0,0,1,.18-13.28c.49-5.07.1-10.12.36-15.17,0-.81-.12-1.57-1.2-1.1-2.43,1-5.06,1.11-7.57,1.75l-3.27.24H25.09l-3.77,0h-1.1c-1.61-.37-3.33.22-4.9-.54L11,7.19A25.78,25.78,0,0,1,5.8,5.76c-2.63-1.34-2.88.17-3,2.08-.07,1.26,0,2.53,0,3.8-.13,8-.39,16-1,24-.08,1,0,1.77,1,2.26,2.1,1,4,2.43,6.5,2.51a12.54,12.54,0,0,0,4.89,1.17c1.37.78,2.94.14,4.36.6A5.52,5.52,0,0,0,21.32,42.47ZM67.7,45c.08-5.44-1-7.18-3.41-6.79a6.94,6.94,0,0,0-4.13,2.37c-1.88,2.1-1.21,4.55-1.24,6.93,0,1.46-.47,2.71-2,3.11A3.11,3.11,0,0,1,53.25,49c-.27-.47-.51-1-.73-1.45a5.86,5.86,0,0,0-9-2c-3.36,2.81-3,7.37,1.08,10,5.08,3.25,11.24,3.64,16.68,6,.61.26.74-.18.92-.62C64.5,55.25,67.28,49.85,67.7,45ZM42,25.31c1.35-1.62,2.54-2.64,3.93-2.74,3.48-.26,1.76-1.85.92-3.15a6.51,6.51,0,0,0-3.27-2.24C42.42,16.7,42,17,42,18.29,42.06,20.43,42,22.57,42,25.31ZM52.71,34.2c-1.05-.68-.5-2.48-1.84-1.91a6.26,6.26,0,0,0-3.32,2.49c-.1.17.24.63.46.9.37.42.63,0,.8-.23C49.66,34.27,51,34.44,52.71,34.2Z"
              style="fill:#3a3b53"/>
        <path d="M11.49,0C9,.58,6.5,1.21,4,1.63,2.23,1.91,1.67,2.71,1.62,4.5,1.36,12.55.94,20.6.57,28.65c0,.51.17,1.12-.53,1.37,0-9.45,0-18.9,0-28.34C0,.31.3,0,1.67,0,4.94.12,8.21,0,11.49,0Z"
              style="fill:#fbfbfc"/>
        <path d="M67.7,45c-.42,4.82-3.2,10.22-5.46,15.79-.18.44-.31.88-.92.62-5.44-2.32-11.6-2.71-16.68-6-4-2.59-4.44-7.15-1.08-10a5.86,5.86,0,0,1,9,2c.22.49.46,1,.73,1.45a3.11,3.11,0,0,0,3.64,1.7c1.56-.4,2-1.65,2-3.11,0-2.38-.64-4.83,1.24-6.93a6.94,6.94,0,0,1,4.13-2.37C66.73,37.85,67.78,39.59,67.7,45Z"
              style="fill:#78c1e4"/>
        <path d="M31.64,8.07c2.51-.64,5.14-.71,7.57-1.75,1.08-.47,1.24.29,1.2,1.1-.26,5.05.13,10.1-.36,15.17a101.42,101.42,0,0,0-.18,13.28c.1,2.75-1,4.26-3.54,4.92-1.91.49-3.74,1.34-5.79,1.17-.05-2,.53-4,.49-5.92C30.86,26.7,32,17.4,31.64,8.07Z"
              style="fill:#787d89"/>
        <path d="M9.25,40.45c-2.46-.08-4.4-1.51-6.5-2.51-1-.49-1.08-1.31-1-2.26.63-8,.89-16,1-24,0-1.27,0-2.54,0-3.8.1-1.91.35-3.42,3-2.08A25.78,25.78,0,0,0,11,7.19a25.17,25.17,0,0,0-.53,4c.14,8.51-1,17-.6,25.52A11.36,11.36,0,0,1,9.25,40.45Z"
              style="fill:#787d89"/>
        <path d="M9.25,40.45a11.36,11.36,0,0,0,.59-3.72c-.4-8.52.74-17,.6-25.52a25.17,25.17,0,0,1,.53-4l4.35.59c.84,4.92.41,9.81.08,14.76-.43,6.36-.54,12.74-1.26,19.08A12.54,12.54,0,0,1,9.25,40.45Z"
              style="fill:#9599a4"/>
        <path d="M14.14,41.62c.72-6.34.83-12.72,1.26-19.08.33-4.95.76-9.84-.08-14.76,1.57.76,3.29.17,4.9.54,0,2.87-.45,5.77-.43,8.59.06,8.48-1.69,16.84-1.29,25.32C17.08,41.76,15.51,42.4,14.14,41.62Z"
              style="fill:#a5aab5"/>
        <path d="M31.64,8.07C32,17.4,30.86,26.7,31,36c0,2-.54,3.92-.49,5.92-1.26.23-2.48.79-3.81.49,0-2.16-.15-4.35.08-6.49,1-9.19-.11-18.5,1.56-27.65Z"
              style="fill:#9599a4"/>
        <path d="M24.54,42.44l-3.22,0V8.32l3.77,0C24.82,19.68,24.39,31.05,24.54,42.44Z" style="fill:#c7cbd4"/>
        <path d="M24.54,42.44c-.15-11.39.28-22.76.55-34.14h3.28C26.7,17.46,27.83,26.77,26.81,36c-.23,2.14-.06,4.33-.08,6.49Z"
              style="fill:#a6abb6"/>
        <path d="M21.32,8.32V42.47a5.62,5.62,0,0,1-2.82-.24c-.4-8.48,1.35-16.84,1.29-25.32,0-2.82.38-5.72.43-8.59Z"
              style="fill:#b3b7c2"/>
        <path d="M15.85,2.21c4.21-.36,8.35.64,12.55.57-.15,1.26,1,2.53,0,3.79C24.21,6.35,20,7.14,15.84,6,15.84,4.76,15.85,3.49,15.85,2.21Z"
              style="fill:#3c3f45"/>
        <path d="M53.41,22.91c.29,3.69-1.51,6.33-4.29,8.45-.75.57-1.73,1.76-2.44,1s-.38-2.18.66-3.06a8.62,8.62,0,0,0,2.91-6.43Z"
              style="fill:#787d89"/>
        <path d="M42,25.31c0-2.74,0-4.88,0-7,0-1.3.42-1.59,1.6-1.11a6.51,6.51,0,0,1,3.27,2.24c.84,1.3,2.56,2.89-.92,3.15C44.56,22.67,43.37,23.69,42,25.31Z"
              style="fill:#fbfbfc"/>
        <path d="M15.85,2.21c0,1.28,0,2.55,0,3.82-2.45.16-4.75-.57-7.09-1.1V2.24C11.12,2.56,13.48.69,15.85,2.21Z"
              style="fill:#484c53"/>
        <path d="M42.61,30.59c-.18-3.38,1.24-5.91,3.66-6.44.58-.13,1.32-.36,1.61.45a1.07,1.07,0,0,1-.78,1.48c-2.53.62-2.28,2.66-2.43,4.52Z"
              style="fill:#787d89"/>
        <path d="M28.4,6.57c1-1.26-.15-2.53,0-3.79,1.68-.27,3.27.38,4.91.55a2.27,2.27,0,0,1,0,2.69Z"
              style="fill:#484c53"/>
        <path d="M54.14,35.4a16,16,0,0,0-1.07-3.29c-.8-1.41-.38-2.26.83-3.15a9.83,9.83,0,0,1,2.43,6A3.65,3.65,0,0,1,54.14,35.4Z"
              style="fill:#b3b7c2"/>
        <path d="M49.65,20.22,47.5,17.4a2.36,2.36,0,0,1,2.22-2.14c1.12.92,2.39,1.72,2.71,3.3A8.82,8.82,0,0,0,49.65,20.22Z"
              style="fill:#c7cbd4"/>
        <path d="M56.65,44.16c.37,1.65,1.74,4.1-.46,4.6s-2.39-2.23-2.7-4A6.47,6.47,0,0,0,56.65,44.16Z"
              style="fill:#868b96"/>
        <path d="M46.93,39.43c-2-1.3-3.44-3-3.31-5.59h.52q1.68,1.89,3.38,3.76C47.32,38.22,47.12,38.83,46.93,39.43Z"
              style="fill:#b3b7c2"/>
        <path d="M33.31,6a2.27,2.27,0,0,0,0-2.69,10.06,10.06,0,0,1,5.42,1A12.83,12.83,0,0,1,33.31,6Z"
              style="fill:#555962"/>
        <path d="M46.93,39.43c.19-.6.39-1.21.59-1.82a9.12,9.12,0,0,0,2.27,1.32A1.66,1.66,0,0,1,51,41c-.51,1-1.53.28-2.31,0A3.57,3.57,0,0,1,46.93,39.43Z"
              style="fill:#787d89"/>
        <path d="M52.71,34.2c-1.71.24-3.05.07-3.9,1.25-.17.23-.43.65-.8.23-.22-.27-.56-.73-.46-.9a6.26,6.26,0,0,1,3.32-2.49C52.21,31.72,51.66,33.52,52.71,34.2Z"
              style="fill:#f5f4f6"/>
        <path d="M45.53,15.9c-.67-.1-1.41.09-1.94-.52a2.87,2.87,0,0,1,1.76-2.32,4.14,4.14,0,0,1,2.7,1.13Z"
              style="fill:#9599a4"/>
        <path d="M53,43.07l-.36-2.71,2.6-.1a3.44,3.44,0,0,1,.83,2.27Z" style="fill:#c7cbd4"/>
        <path d="M55.26,40.26l-2.6.1c.23-1.1-2-2.14-.48-3s1.61,1.45,2.64,2C55.07,39.45,55.12,39.94,55.26,40.26Z"
              style="fill:#9da1ad"/>
        <path d="M8.75,2.24V4.93L4.38,3.57C5.93,2.49,7.48,2.79,8.75,2.24Z" style="fill:#555962"/>
        <path d="M49.65,20.22a8.82,8.82,0,0,1,2.78-1.66c.52.19.46.66.51,1.08-.55,1.22-1.71,1.7-2.81,2.25C49.58,21.44,49.68,20.81,49.65,20.22Z"
              style="fill:#a5aab5"/>
        <path d="M50.13,21.89c1.1-.55,2.26-1,2.81-2.25.88,1,.48,2.15.47,3.27H50.25Z" style="fill:#9599a4"/>
        <path d="M44.14,33.85h-.52c-1.54-.71-.93-2.09-1-3.25h2.06C44.69,31.71,45.07,32.89,44.14,33.85Z"
              style="fill:#9599a4"/>
        <path d="M45.35,13.06a2.87,2.87,0,0,0-1.76,2.32A1.46,1.46,0,0,1,42.18,13C42.89,11.94,44.27,12.51,45.35,13.06Z"
              style="fill:#787d89"/>
        <path d="M53,43.07l3.07-.54a1.9,1.9,0,0,1,.56,1.63,6.47,6.47,0,0,1-3.16.57A2.09,2.09,0,0,1,53,43.07Z"
              style="fill:#a5aab5"/>
        <path d="M45.53,15.9l2.52-1.71a2.23,2.23,0,0,1,1.67,1.07A2.36,2.36,0,0,0,47.5,17.4Z" style="fill:#a5aab5"/>
        <path d="M54.14,35.4a3.65,3.65,0,0,0,2.19-.48c.73.9.35,1.87.2,3A5.53,5.53,0,0,1,54.14,35.4Z"
              style="fill:#868b96"/>
    </g>
</svg>