<svg xmlns="http://www.w3.org/2000/svg" viewBox="0 0 71.61 74.12">
    <g>
        <path d="M71.46,66.64C69.93,60.76,68.07,55,66.75,49c-1-4.25-3.16-8.33-8.35-9.18-1.44-.23-.83-1.35-.66-1.89,1.3-4.2-.18-7.8-2.25-11.29A3.13,3.13,0,0,1,54.85,24c1.66-8.12-3.52-13.28-10.2-14.49C41.78,9,41.66,8,42.13,6c.63-2.65-.51-4.06-3-4.68l-.09,0a4.26,4.26,0,0,1-1,1.26l.51.23a13,13,0,0,1-5.42,1.65l-4.91.55c-4.19-.22-8.42.56-12.56-.55-2.45.17-4.75-.57-7.09-1.09L7.21,2.87a4.59,4.59,0,0,1-1-.3l-2-.63a4,4,0,0,1,.63-.35A4.53,4.53,0,0,1,4,.38,3.09,3.09,0,0,1,3.66,0L3.51,0c-1,.31-2,.55-2,2.05C1.54,5.81.94,9.49.9,13.23.85,19.39.61,25.56.12,31.7c-.37,4.79-.14,5.78,4.45,7.59a51,51,0,0,0,29.51,2.25c3.78-.78,8-1.41,7.29-7.81,2.27,4.18,4.65,6.89,8.49,7.94-2.61,3.56-3.56,6.51-3.08,9.79,1,6.58,2.77,13,4.27,19.42.53,2.28,1.93,3.29,4,3.23a28.48,28.48,0,0,0,15.71-5C71.57,68.48,71.79,67.94,71.46,66.64ZM40.25,5.79c-.26,5.05.13,10.1-.36,15.16a99.86,99.86,0,0,0-.18,13.29c.1,2.75-1,4.26-3.54,4.91-1.91.5-3.74,1.35-5.79,1.18-1.26.23-2.48.78-3.81.49H24.38l-3.23,0a5.63,5.63,0,0,1-2.82-.24c-1.41-.46-3,.18-4.35-.61a12.52,12.52,0,0,1-4.89-1.16c-2.46-.09-4.4-1.51-6.5-2.52-1-.49-1.08-1.31-1-2.26.64-8,.9-16,1-24,0-1.26,0-2.53.05-3.79.1-1.91.35-3.42,3-2.08a26.27,26.27,0,0,0,5.17,1.43l4.35.59c1.57.76,3.29.17,4.9.53h8.15l3.27-.23C34,5.8,36.62,5.72,39,4.68,40.13,4.22,40.29,5,40.25,5.79Zm22.38,38.9a6.62,6.62,0,0,1,2.08,5.82,19.21,19.21,0,0,0-2.51-5.39c-1.07-1.41-3.28-1.62-4.33-4C60.32,41.88,61.75,42.92,62.63,44.69Zm-.89,7.62C59.9,53.48,54,55,51.49,55a2.67,2.67,0,0,1,2.41-2.54c2.43-.56,4.86-1.13,7.3-1.64.47-.1,1.17-.25,1.41.42S62.16,52.05,61.74,52.31ZM58.81,45.4c1.11-.2,1.54.64,2,1.23S62.25,48,61.89,49s-1.59.52-2.44.72c-2,.45-4,.91-6,1.49-1.8.53-2.63.24-2-1.81.28-.94.09-2,1.11-2.8.94,1.68,2.1,3,4.12,2.45C58.52,48.54,58.79,47,58.81,45.4Zm-2.09,1.49a1,1,0,0,1-1.4.37,5.25,5.25,0,0,1-2-4.16,2,2,0,0,1-.46-1.66c-.12-.91-.24-1.81-.37-2.71.23-1.11-2-2.14-.47-3s1.61,1.45,2.64,2c.24.12.3.6.44.92a3.44,3.44,0,0,1,.83,2.28,2,2,0,0,1,.57,1.63A4.8,4.8,0,0,1,56.72,46.89ZM48.65,33.83c-.3.42-.68.57-1,0-.14-.29-.33-.85-.23-.92A13.33,13.33,0,0,1,51,30.59c.87-.29.69,1.2,1.41,2C50.82,32.8,49.49,32.64,48.65,33.83Zm7.52-.54c.73.89.34,1.86.2,3.05A5.55,5.55,0,0,1,54,33.76a16.15,16.15,0,0,0-1.07-3.28c-.8-1.41-.38-2.26.83-3.16A9.88,9.88,0,0,1,56.17,33.29ZM42,11.39c.71-1.08,2.09-.52,3.16,0a4.25,4.25,0,0,1,2.71,1.13,2.27,2.27,0,0,1,1.67,1.07c1.12.92,2.39,1.73,2.7,3.31.53.19.47.65.52,1.07.88,1,.48,2.16.47,3.27.29,3.69-1.51,6.33-4.3,8.46-.74.57-1.72,1.76-2.43,1s-.38-2.19.66-3.06a8.66,8.66,0,0,0,2.91-6.44l-.12-1c-.55-.44-.45-1.07-.48-1.67-.72-.93-1.43-1.87-2.15-2.81l-2-1.5c-.67-.1-1.41.09-1.94-.52A1.46,1.46,0,0,1,42,11.39Zm-.13,6.71c.06-.91-.62-2.17.45-2.66.89-.4,1.87.39,2.69.88a5.59,5.59,0,0,1,1.78,1.6c.79,1.24,2.33,2.79-.93,3-1.49.09-2.67,1.22-4,2.73C41.86,21.44,41.78,19.76,41.89,18.1Zm6.66,21.23a3.57,3.57,0,0,1-1.79-1.53c-2-1.31-3.43-3-3.3-5.6-1.54-.7-.94-2.08-1-3.25-.18-3.37,1.24-5.9,3.66-6.43.58-.13,1.32-.37,1.61.45a1.07,1.07,0,0,1-.79,1.48c-2.52.62-2.27,2.66-2.42,4.51,0,1.12.4,2.3-.54,3.26L47.36,36a9.44,9.44,0,0,0,2.27,1.32,1.66,1.66,0,0,1,1.23,2.07C50.35,40.42,49.33,39.64,48.55,39.33Zm3.21,4C49.56,46.62,50,50.31,50,54.1,47.18,51.69,48.1,45.73,51.76,43.37ZM68.31,68.6a31.49,31.49,0,0,1-12.79,3.89c-1.57.13-2.56-.26-2.91-2.25-.69-3.88-1.83-7.67-2.85-11.48-.3-1.12-.49-1.89,1.08-2a31.37,31.37,0,0,0,14.79-4.91c1.31,4.92,2.54,9.68,3.88,14.4C69.88,67.52,69.17,68.12,68.31,68.6Z"
              style="fill:#3a3b53"/>
        <path d="M31.48,6.44C34,5.8,36.62,5.72,39,4.68c1.09-.46,1.25.3,1.21,1.11-.26,5.05.13,10.1-.36,15.16a99.86,99.86,0,0,0-.18,13.29c.1,2.75-1,4.26-3.54,4.91-1.91.5-3.74,1.35-5.79,1.18-.06-2,.53-4,.49-5.93C30.7,25.07,31.88,15.77,31.48,6.44Z"
              style="fill:#787d89"/>
        <path d="M9.09,38.82c-2.46-.09-4.4-1.51-6.5-2.52-1-.49-1.08-1.31-1-2.26.64-8,.9-16,1-24,0-1.26,0-2.53.05-3.79.1-1.91.35-3.42,3-2.08a26.27,26.27,0,0,0,5.17,1.43,26.43,26.43,0,0,0-.54,4c.15,8.52-1,17-.59,25.52A11.74,11.74,0,0,1,9.09,38.82Z"
              style="fill:#787d89"/>
        <path d="M65.63,51.81c1.31,4.92,2.54,9.68,3.88,14.4.37,1.31-.34,1.91-1.2,2.39a31.49,31.49,0,0,1-12.79,3.89c-1.57.13-2.56-.26-2.91-2.25-.69-3.88-1.83-7.67-2.85-11.48-.3-1.12-.49-1.89,1.08-2A31.37,31.37,0,0,0,65.63,51.81Zm-9.16,7.94c.05,1.48,0,2.77,1,2.86,2,.18,1.67,1.86,2.22,3,.41.83-.09,2.48,1.8,1.82,1.44-.49,2.69-.87,1.77-3A4.34,4.34,0,0,1,63,60.75c.69-1.61-.91-3.35-2.76-3.48C58.11,57.13,56.5,58.44,56.47,59.75Z"
              style="fill:#78c1e4"/>
        <path d="M9.09,38.82a11.74,11.74,0,0,0,.59-3.73c-.4-8.52.74-17,.59-25.52a26.43,26.43,0,0,1,.54-4l4.35.59c.84,4.92.41,9.81.08,14.76C14.81,27.26,14.7,33.64,14,40A12.52,12.52,0,0,1,9.09,38.82Z"
              style="fill:#9599a4"/>
        <path d="M14,40c.72-6.34.83-12.72,1.26-19.07.33-4.95.76-9.84-.08-14.76,1.57.76,3.29.17,4.9.53,0,2.88-.45,5.77-.43,8.6.05,8.47-1.69,16.84-1.3,25.31C16.92,40.13,15.35,40.77,14,40Z"
              style="fill:#a5aab5"/>
        <path d="M31.48,6.44c.4,9.33-.78,18.63-.61,28,0,2-.55,3.93-.49,5.93-1.26.23-2.48.78-3.81.49,0-2.17-.15-4.35.08-6.49,1-9.19-.11-18.51,1.56-27.66Z"
              style="fill:#9599a4"/>
        <path d="M24.38,40.81l-3.23,0V6.68h3.77C24.66,18,24.23,29.42,24.38,40.81Z" style="fill:#c7cbd4"/>
        <path d="M24.38,40.81c-.15-11.39.28-22.77.55-34.14h3.28c-1.67,9.15-.54,18.47-1.56,27.66-.23,2.14-.06,4.32-.08,6.49Z"
              style="fill:#a6abb6"/>
        <path d="M21.16,6.68V40.83a5.63,5.63,0,0,1-2.82-.24c-.39-8.47,1.35-16.84,1.3-25.31,0-2.83.38-5.72.43-8.6Z"
              style="fill:#b3b7c2"/>
        <path d="M53.25,21.27c.29,3.69-1.51,6.33-4.3,8.46-.74.57-1.72,1.76-2.43,1s-.38-2.19.66-3.06a8.66,8.66,0,0,0,2.91-6.44Z"
              style="fill:#787d89"/>
        <path d="M41.86,23.63c0-2.19-.08-3.87,0-5.53.06-.91-.62-2.17.45-2.66.89-.4,1.87.39,2.69.88a5.59,5.59,0,0,1,1.78,1.6c.79,1.24,2.33,2.79-.93,3C44.39,21,43.21,22.12,41.86,23.63Z"
              style="fill:#fbfbfc"/>
        <path d="M52.6,46.55c.94,1.68,2.1,3,4.12,2.45,1.8-.46,2.07-2,2.09-3.6,1.11-.2,1.54.64,2,1.23S62.25,48,61.89,49s-1.59.52-2.44.72c-2,.45-4,.91-6,1.49-1.8.53-2.63.24-2-1.81C51.77,48.41,51.58,47.33,52.6,46.55Z"
              style="fill:#f5f4f6"/>
        <path d="M51.49,55a2.67,2.67,0,0,1,2.41-2.54c2.43-.56,4.86-1.13,7.3-1.64.47-.1,1.17-.25,1.41.42s-.45.86-.87,1.12C59.9,53.48,54,55,51.49,55Z"
              style="fill:#78c1e4"/>
        <path d="M51.76,43.37C49.56,46.62,50,50.31,50,54.1,47.18,51.69,48.1,45.73,51.76,43.37Z"
              style="fill:#78c1e4"/>
        <path d="M42.45,29c-.18-3.37,1.24-5.9,3.66-6.43.58-.13,1.32-.37,1.61.45a1.07,1.07,0,0,1-.79,1.48c-2.52.62-2.27,2.66-2.42,4.51Z"
              style="fill:#787d89"/>
        <path d="M54,33.76a16.15,16.15,0,0,0-1.07-3.28c-.8-1.41-.38-2.26.83-3.16a9.88,9.88,0,0,1,2.43,6A3.71,3.71,0,0,1,54,33.76Z"
              style="fill:#b3b7c2"/>
        <path d="M49.56,13.62c1.12.92,2.39,1.73,2.7,3.31a8.86,8.86,0,0,0-2.77,1.65c-.72-.93-1.43-1.87-2.15-2.81A2.37,2.37,0,0,1,49.56,13.62Z"
              style="fill:#c7cbd4"/>
        <path d="M56.5,42.53a4.8,4.8,0,0,1,.22,4.36,1,1,0,0,1-1.4.37,5.25,5.25,0,0,1-2-4.16A6.67,6.67,0,0,0,56.5,42.53Z"
              style="fill:#868b96"/>
        <path d="M44,32.22,47.36,36l-.6,1.82c-2-1.31-3.43-3-3.3-5.6Z" style="fill:#b3b7c2"/>
        <path d="M46.76,37.8l.6-1.82a9.44,9.44,0,0,0,2.27,1.32,1.66,1.66,0,0,1,1.23,2.07c-.51,1.05-1.53.27-2.31,0A3.57,3.57,0,0,1,46.76,37.8Z"
              style="fill:#787d89"/>
        <path d="M52.38,32.6c-1.56.2-2.89,0-3.73,1.23-.3.42-.68.57-1,0-.14-.29-.33-.85-.23-.92A13.33,13.33,0,0,1,51,30.59C51.84,30.3,51.66,31.79,52.38,32.6Z"
              style="fill:#f5f4f6"/>
        <path d="M45.37,14.27c-.67-.1-1.41.09-1.94-.52a2.91,2.91,0,0,1,1.75-2.33,4.25,4.25,0,0,1,2.71,1.13Z"
              style="fill:#9599a4"/>
        <path d="M55.1,38.62a3.44,3.44,0,0,1,.83,2.28l-3.07.54-.36-2.71Z" style="fill:#c7cbd4"/>
        <path d="M55.1,38.62l-2.6.11c.22-1.11-2-2.14-.48-3s1.61,1.45,2.64,2C54.9,37.82,55,38.3,55.1,38.62Z"
              style="fill:#9da1ad"/>
        <path d="M49.49,18.58a8.86,8.86,0,0,1,2.77-1.65c.53.19.47.65.52,1.07-.55,1.23-1.71,1.71-2.81,2.25C49.42,19.81,49.52,19.18,49.49,18.58Z"
              style="fill:#a5aab5"/>
        <path d="M50,20.25c1.1-.54,2.26-1,2.81-2.25.88,1,.48,2.16.47,3.27H50.09Z" style="fill:#9599a4"/>
        <path d="M62.2,45.12c-1.07-1.41-3.28-1.62-4.33-4,2.45.76,3.88,1.8,4.76,3.57Z" style="fill:#78c1e4"/>
        <path d="M44,32.22l-.51,0c-1.54-.7-.94-2.08-1-3.25h2.06C44.53,30.08,44.91,31.26,44,32.22Z"
              style="fill:#9599a4"/>
        <path d="M45.18,11.42a2.91,2.91,0,0,0-1.75,2.33A1.46,1.46,0,0,1,42,11.39C42.73,10.31,44.11,10.87,45.18,11.42Z"
              style="fill:#787d89"/>
        <path d="M52.86,41.44l3.07-.54a2,2,0,0,1,.57,1.63,6.67,6.67,0,0,1-3.18.57A2,2,0,0,1,52.86,41.44Z"
              style="fill:#a5aab5"/>
        <path d="M45.37,14.27l2.52-1.72a2.27,2.27,0,0,1,1.67,1.07,2.37,2.37,0,0,0-2.22,2.15Z" style="fill:#a5aab5"/>
        <path d="M54,33.76a3.71,3.71,0,0,0,2.19-.47c.73.89.34,1.86.2,3.05A5.55,5.55,0,0,1,54,33.76Z"
              style="fill:#868b96"/>
        <path d="M62.63,44.69a6.62,6.62,0,0,1,2.08,5.82,19.21,19.21,0,0,0-2.51-5.39Z" style="fill:#78c1e4"/>
        <path d="M56.47,59.75c0-1.31,1.64-2.62,3.72-2.48,1.85.13,3.45,1.87,2.76,3.48a4.34,4.34,0,0,0,.32,3.62c.92,2.14-.33,2.52-1.77,3-1.89.66-1.39-1-1.8-1.82-.55-1.09-.19-2.77-2.22-3C56.47,62.52,56.52,61.23,56.47,59.75Z"
              style="fill:#3a3b53"/>
    </g>
</svg>