<svg xmlns="http://www.w3.org/2000/svg" viewBox="0 0 74.02 82.82">
    <g>
        <path d="M58.81,41.52A3.36,3.36,0,0,1,57.7,37.9c1.34-4.3-.17-8-2.31-11.52A2.81,2.81,0,0,1,54.83,24c1.71-8.19-3.52-13.36-10.08-14.56-2.93-.53-3.12-1.64-2.61-3.76.61-2.55-.55-3.75-2.78-4.45A5.09,5.09,0,0,1,38,2.38c.18.07.35.15.53.24a12.79,12.79,0,0,1-5.42,1.64l-4.91.56c-4.19-.22-8.41.56-12.56-.55-2.45.16-4.75-.57-7.09-1.1L4.21,1.82a3.74,3.74,0,0,1,.53-.32A3.66,3.66,0,0,1,3.22,0C2.28.23,1.45.58,1.48,1.92,1.55,5.55.93,9.14.9,12.78.84,19,.61,25.28.13,31.51c-.38,4.87-.19,5.84,4.36,7.63a51.51,51.51,0,0,0,31.07,2c3.25-.74,6.8-1.88,5.87-6.87,2.34,3.68,4.87,6.59,9.12,7.43,1.35.27.68,1.14.34,1.86-2.61,5.6-5.15,11.25-7.87,16.8a3.8,3.8,0,0,0,.83,5q6.84,6.84,13.44,13.89c5.31,5.66,4.38,3.9,6.88-.87,3.4-6.48,6.09-13.32,9.85-19.62V57.7C68.59,52.64,64.13,46.68,58.81,41.52ZM40.24,5.66c-.26,5.05.14,10.1-.36,15.17a101.42,101.42,0,0,0-.18,13.28c.1,2.76-1,4.26-3.54,4.92-1.9.49-3.74,1.35-5.78,1.17-1.27.24-2.49.79-3.82.49H24.37l-3.22,0a5.62,5.62,0,0,1-2.82-.24c-1.42-.47-3,.17-4.36-.61A12.7,12.7,0,0,1,9.08,38.7c-2.46-.09-4.4-1.52-6.5-2.52-1-.49-1.08-1.31-1-2.26.63-8,.9-16,1-24,0-1.26,0-2.53,0-3.79.1-1.92.35-3.42,3-2.09A25.8,25.8,0,0,0,10.8,5.44L15.15,6c1.57.77,3.29.18,4.9.54h1.1l3.77,0H28.2l3.27-.24C34,5.68,36.61,5.6,39,4.56,40.12,4.09,40.28,4.85,40.24,5.66Zm12.25,33c.23-1.11-2-2.15-.48-3s1.61,1.45,2.65,2c.24.13.29.61.43.93a3.5,3.5,0,0,1,.84,2.27,1.94,1.94,0,0,1,.55,1.63c.38,1.65,1.74,4.11-.46,4.6s-2.39-2.22-2.7-4a2,2,0,0,1-.46-1.66C52.73,40.41,52.61,39.51,52.49,38.61Zm3.67-5.45c.79.9.22,1.88.38,3.18-1.22-.89-2.17-1.51-2.57-2.7a17.81,17.81,0,0,0-1.06-3.29c-.76-1.39-.52-2.29.88-3.08A9.79,9.79,0,0,1,56.16,33.16ZM42,11.27c.72-1.09,2.09-.52,3.17,0a4.19,4.19,0,0,1,2.7,1.13,2.25,2.25,0,0,1,1.67,1.07c1.12.92,2.39,1.73,2.71,3.31.52.18.46.65.51,1.07.89,1,.48,2.16.48,3.27.28,3.69-1.51,6.33-4.3,8.45-.75.57-1.73,1.76-2.44,1s-.37-2.19.66-3.06a8.66,8.66,0,0,0,2.91-6.44l-.12-1c-.55-.45-.45-1.08-.48-1.67-.72-.94-1.43-1.88-2.15-2.81l-2-1.51c-.67-.09-1.41.1-1.93-.52A1.46,1.46,0,0,1,42,11.27Zm-.19,5.94c-.14-2,.41-2.4,2.23-1.54A6.63,6.63,0,0,1,47,18c.85,1.28,1.91,2.66-1,2.82-1.44.07-2.77,1.06-4.06,2.95C41.85,21,42,19.09,41.82,17.21Zm9,22c-.51,1-1.53.27-2.31,0a3.51,3.51,0,0,1-1.78-1.53c-2-1.31-3.44-3-3.31-5.6-1.54-.71-.93-2.08-1-3.25-.18-3.38,1.24-5.9,3.66-6.44.58-.13,1.32-.36,1.61.45a1.08,1.08,0,0,1-.78,1.49c-2.52.61-2.28,2.65-2.43,4.51,0,1.12.4,2.29-.53,3.26l3.38,3.76a9.09,9.09,0,0,0,2.27,1.31C50.54,37.43,51.22,38.49,50.85,39.25ZM48.47,33.8c-.71.76-1.17-.41-1.06-.7.52-1.46,2-2,3.22-2.53,1.44-.62.93,1.22,1.76,1.93C50.79,32.63,49.51,32.69,48.47,33.8ZM69.53,64c-2.69,5.48-5.37,11-8.17,16.68-1.88-1.84-3.65-3.55-5.4-5.29-3.66-3.65-7.25-7.36-11-11a2.33,2.33,0,0,1-.6-3.2c2.56-5.35,5-10.78,7.52-16.39,1.07,2.16,1.7,4.6,4.58,4.11,2.56-.44,2.23-2.66,2.32-5.17,2.95,3.25,5.58,6.14,8.19,9,.43.47.81,1,1.22,1.46C72.1,58.72,72.1,58.72,69.53,64Z"
              style="fill:#3a3b53"/>
        <path d="M51.91,44.8c1.07,2.16,1.7,4.6,4.58,4.11,2.56-.44,2.23-2.66,2.32-5.17,2.95,3.25,5.58,6.14,8.19,9,.43.47.81,1,1.22,1.46,3.88,4.49,3.88,4.49,1.31,9.72-2.69,5.48-5.37,11-8.17,16.68-1.88-1.84-3.65-3.55-5.4-5.29-3.66-3.65-7.25-7.36-11-11a2.33,2.33,0,0,1-.6-3.2C47,55.84,49.35,50.41,51.91,44.8Z"
              style="fill:#78c1e4"/>
        <path d="M31.47,6.31C34,5.68,36.61,5.6,39,4.56c1.08-.47,1.24.29,1.2,1.1-.26,5.05.14,10.1-.36,15.17a101.42,101.42,0,0,0-.18,13.28c.1,2.76-1,4.26-3.54,4.92-1.91.49-3.74,1.35-5.78,1.17-.06-2,.52-4,.48-5.92C30.69,25,31.87,15.65,31.47,6.31Z"
              style="fill:#787d89"/>
        <path d="M9.08,38.7c-2.46-.09-4.4-1.52-6.5-2.52-1-.49-1.08-1.31-1-2.26.63-8,.9-16,1-24,0-1.26,0-2.53,0-3.79.1-1.92.35-3.42,3-2.09A25.8,25.8,0,0,0,10.8,5.44a25,25,0,0,0-.53,4c.14,8.52-1,17-.6,25.52A11.2,11.2,0,0,1,9.08,38.7Z"
              style="fill:#787d89"/>
        <path d="M9.08,38.7A11.2,11.2,0,0,0,9.67,35c-.4-8.52.74-17,.6-25.52a25,25,0,0,1,.53-4L15.15,6c.84,4.92.41,9.82.08,14.76-.43,6.36-.54,12.74-1.26,19.08A12.7,12.7,0,0,1,9.08,38.7Z"
              style="fill:#9599a4"/>
        <path d="M14,39.86c.72-6.34.83-12.72,1.26-19.08.33-4.94.76-9.84-.08-14.76,1.57.77,3.29.18,4.9.54,0,2.87-.45,5.77-.43,8.6.06,8.47-1.69,16.83-1.29,25.31C16.91,40,15.34,40.64,14,39.86Z"
              style="fill:#a5aab5"/>
        <path d="M31.47,6.31c.4,9.34-.78,18.64-.61,28,0,1.95-.54,3.93-.48,5.92-1.27.24-2.49.79-3.82.49,0-2.16-.15-4.34.08-6.48,1-9.2-.11-18.51,1.56-27.66Z"
              style="fill:#9599a4"/>
        <path d="M24.37,40.68l-3.22,0V6.56l3.77,0C24.65,17.92,24.22,29.3,24.37,40.68Z" style="fill:#c7cbd4"/>
        <path d="M24.37,40.68c-.15-11.38.28-22.76.55-34.14H28.2C26.53,15.7,27.66,25,26.64,34.21c-.23,2.14-.06,4.32-.08,6.48Z"
              style="fill:#a6abb6"/>
        <path d="M21.15,6.56V40.71a5.62,5.62,0,0,1-2.82-.24c-.4-8.48,1.35-16.84,1.29-25.31,0-2.83.39-5.73.43-8.6Z"
              style="fill:#b3b7c2"/>
        <path d="M53.24,21.15c.29,3.69-1.5,6.33-4.29,8.45-.75.57-1.73,1.76-2.44,1s-.37-2.19.66-3.06a8.66,8.66,0,0,0,2.91-6.44Z"
              style="fill:#787d89"/>
        <path d="M41.85,23.74c0-2.75.11-4.65,0-6.53s.41-2.4,2.23-1.54A6.63,6.63,0,0,1,47,18c.85,1.28,1.91,2.66-1,2.82C44.47,20.86,43.14,21.85,41.85,23.74Z"
              style="fill:#fbfbfc"/>
        <path d="M42.44,28.83c-.18-3.38,1.24-5.9,3.66-6.44.58-.13,1.32-.36,1.61.45a1.08,1.08,0,0,1-.78,1.49c-2.52.61-2.28,2.65-2.43,4.51Z"
              style="fill:#787d89"/>
        <path d="M54,33.64a17.81,17.81,0,0,0-1.06-3.29c-.76-1.39-.52-2.29.88-3.08a9.79,9.79,0,0,1,2.37,5.89A3.63,3.63,0,0,1,54,33.64Z"
              style="fill:#b3b7c2"/>
        <path d="M49.48,18.46c-.72-.94-1.43-1.88-2.15-2.81a2.36,2.36,0,0,1,2.22-2.15c1.12.92,2.39,1.73,2.71,3.31A8.61,8.61,0,0,0,49.48,18.46Z"
              style="fill:#c7cbd4"/>
        <path d="M56.48,42.4c.38,1.65,1.74,4.11-.46,4.6s-2.39-2.22-2.7-4A6.36,6.36,0,0,0,56.48,42.4Z"
              style="fill:#868b96"/>
        <path d="M44,32.1l3.38,3.76c-.2.6-.39,1.21-.59,1.82-2-1.31-3.44-3-3.31-5.6Z" style="fill:#b3b7c2"/>
        <path d="M46.76,37.68c.2-.61.39-1.22.59-1.82a9.09,9.09,0,0,0,2.27,1.31c.92.26,1.6,1.32,1.23,2.08-.51,1-1.53.27-2.31,0A3.51,3.51,0,0,1,46.76,37.68Z"
              style="fill:#787d89"/>
        <path d="M52.39,32.5c-1.6.13-2.88.19-3.92,1.3-.71.76-1.17-.41-1.06-.7.52-1.46,2-2,3.22-2.53C52.07,30,51.56,31.79,52.39,32.5Z"
              style="fill:#f5f4f6"/>
        <path d="M45.18,11.3a4.19,4.19,0,0,1,2.7,1.13l-2.52,1.71c-.67-.09-1.41.1-1.93-.52A2.86,2.86,0,0,1,45.18,11.3Z"
              style="fill:#9599a4"/>
        <path d="M52.86,41.31c-.13-.9-.25-1.8-.37-2.7l2.6-.11a3.5,3.5,0,0,1,.84,2.27Z" style="fill:#c7cbd4"/>
        <path d="M55.09,38.5l-2.6.11c.23-1.11-2-2.15-.48-3s1.61,1.45,2.65,2C54.9,37.7,55,38.18,55.09,38.5Z"
              style="fill:#9da1ad"/>
        <path d="M49.48,18.46a8.61,8.61,0,0,1,2.78-1.65c.52.18.46.65.51,1.07-.55,1.23-1.71,1.7-2.81,2.25C49.41,19.68,49.51,19.05,49.48,18.46Z"
              style="fill:#a5aab5"/>
        <path d="M50,20.13c1.1-.55,2.26-1,2.81-2.25.89,1,.48,2.16.47,3.27H50.08Z" style="fill:#9599a4"/>
        <path d="M44,32.1l-.52,0c-1.54-.71-.93-2.08-1-3.25H44.5C44.52,30,44.9,31.13,44,32.1Z" style="fill:#9599a4"/>
        <path d="M45.18,11.3a2.86,2.86,0,0,0-1.75,2.32A1.46,1.46,0,0,1,42,11.27C42.73,10.18,44.1,10.75,45.18,11.3Z"
              style="fill:#787d89"/>
        <path d="M52.86,41.31l3.07-.54a1.94,1.94,0,0,1,.55,1.63,6.36,6.36,0,0,1-3.16.57A2,2,0,0,1,52.86,41.31Z"
              style="fill:#a5aab5"/>
        <path d="M45.36,14.14l2.52-1.71a2.25,2.25,0,0,1,1.67,1.07,2.36,2.36,0,0,0-2.22,2.15Z" style="fill:#a5aab5"/>
        <path d="M54,33.64a3.63,3.63,0,0,0,2.19-.48c.79.9.22,1.88.38,3.18C55.32,35.45,54.37,34.83,54,33.64Z"
              style="fill:#868b96"/>

    </g>
</svg>