<svg xmlns="http://www.w3.org/2000/svg" viewBox="0 0 103.96 77.72">
    <g>
        <path d="M71.25,77.72c-.81-1.07-2.13-.71-3.17-1a18.89,18.89,0,0,1-12.37-9.3c-.35-.62-.48-1.15-1.46-1.21-4.49-.29-7.72-2.65-9.08-6.85a12.65,12.65,0,0,1,4.46-13.54c.69-.51,1.95-.75,1.81-1.76-.16-1.21-1.51-1-2.41-1.3C45.6,41.6,43.45,39,41.25,35c.82,6.58-3.5,7.09-7.27,7.88A51.1,51.1,0,0,1,5,40.85C-.07,39-.27,38,.14,32.74.61,26.5.66,20.23.92,14c.15-3.53.42-7.06.52-10.6,0-1.5,1.06-1.67,2.1-2C9.1-.27,14.81-.22,20.46.39,25.75,1,31.11.76,36.34,2c.78.17,1.55.37,2.34.55,2.79.64,4.17,2.13,3.37,5.17-.51,1.95-.07,2.73,2.37,3.17,6.65,1.19,12,6.4,10.41,14.37a3.53,3.53,0,0,0,.64,2.9c2.14,3.47,3.4,7.07,2.22,11.29-.69,2.46,0,2.9,2.52,2.49,3.12-.5,6.13.24,9.05,1.15,3.84,1.2,7.55,2.79,11.39,4,4.83,1.47,9.43,1.45,13-3A6.45,6.45,0,0,1,99,41.29c4,.14,6,3.48,4.49,7.24a13.61,13.61,0,0,1-6.36,7.13c-1.11.59-2,.83-1.42,2.69.91,3.06-1.11,5.67-5.1,7.15-1.8.66-2.92,1.14-3.23,3.57-.54,4.26-5.68,7.76-10.62,8.13-.73.06-1.66-.45-2.19.52ZM49.92,21.62l.13,1a8.7,8.7,0,0,1-2.91,6.44c-1,.87-1.49,2.22-.67,3.06s1.69-.48,2.44-1.05c2.79-2.12,4.59-4.76,4.3-8.45,0-1.12.41-2.29-.47-3.27-.05-.42,0-.89-.52-1.08-.32-1.58-1.58-2.38-2.7-3.3a2.29,2.29,0,0,0-1.67-1.07,4.21,4.21,0,0,0-2.71-1.13c-1.07-.55-2.45-1.12-3.16,0a1.46,1.46,0,0,0,1.41,2.35c.53.62,1.27.43,1.93.52l2,1.51L49.44,20C49.48,20.54,49.38,21.17,49.92,21.62Zm2.9,21.18a2,2,0,0,0,.47,1.66c.3,1.8.54,4.52,2.69,4s.84-3,.47-4.6a1.93,1.93,0,0,0-.56-1.63A3.43,3.43,0,0,0,55.05,40c-.14-.32-.19-.81-.44-.93-1-.53-1.2-2.82-2.65-2s.69,1.93.5,3Zm-9.4-9.23c-.14,2.59,1.25,4.29,3.3,5.59A3.57,3.57,0,0,0,48.5,40.7c.79.31,1.81,1.08,2.32,0,.37-.76-.32-1.82-1.23-2.07a8.75,8.75,0,0,1-2.27-1.31l-3.39-3.76c.93-1,.55-2.14.54-3.26.14-1.86-.1-3.9,2.42-4.51a1.08,1.08,0,0,0,.79-1.49c-.29-.81-1-.58-1.62-.45-2.42.53-3.84,3.06-3.65,6.44C42.48,31.48,41.87,32.86,43.42,33.57Zm10.52,1.56a5.43,5.43,0,0,0,2.39,2.57c.14-1.18.53-2.15-.2-3.05a9.86,9.86,0,0,0-2.38-5.89c-1.39.79-1.64,1.69-.88,3.08A17.11,17.11,0,0,1,53.94,35.13ZM33.11,5.75a12.88,12.88,0,0,0,5.42-1.64A10.08,10.08,0,0,0,33.1,3.06c-1.64-.17-3.22-.82-4.91-.55C24,2.58,19.85,1.58,15.65,2,13.27.42,10.91,2.3,8.54,2c-1.27.56-2.81.25-4.37,1.34L8.54,4.66c2.34.53,4.65,1.26,7.09,1.1,4.15,1.11,8.38.32,12.56.55ZM24.33,42.17h2.2c1.33.3,2.55-.26,3.81-.49,2,.18,3.88-.68,5.79-1.17,2.54-.66,3.63-2.16,3.54-4.92a99.71,99.71,0,0,1,.18-13.28c.49-5.07.09-10.12.35-15.17,0-.81-.12-1.57-1.2-1.1-2.42,1-5.06,1.12-7.57,1.75L28.16,8H24.89l-3.78,0H20c-1.61-.36-3.33.23-4.9-.54l-4.35-.58A25.89,25.89,0,0,1,5.59,5.49c-2.63-1.33-2.88.17-3,2.08-.06,1.27,0,2.53,0,3.8-.13,8-.39,16-1,24-.07,1,0,1.77,1,2.26,2.11,1,4,2.43,6.5,2.52a12.75,12.75,0,0,0,4.9,1.16c1.37.78,2.94.14,4.35.61a5.63,5.63,0,0,0,2.82.24Zm27.6,4.25a8.54,8.54,0,0,0-3.87,3.66c-1.93,3.24-2.74,6.86-.69,10.25,1.69,2.79,4.32,4.69,7.9,4.28a5.92,5.92,0,0,0,5.39-4.26,4.16,4.16,0,0,0-1.58-4.8c-.51-.4-2-.15-1.11-1.44.58-.81,1.43-.31,2.15.21,3.36,2.48,3.09,7.76-.84,10.35-2,1.35-2,2.46-.7,4.08a16.57,16.57,0,0,0,2.12,2.44c5.1,4.19,11.06,5.3,17.35,4.09,3.17-.61,6.14-2.12,7.46-5.59.94-2.49.78-2.82-1.78-2.87A23.3,23.3,0,0,1,73.1,64.11a4.4,4.4,0,0,1-2.25-2c1-.55,1.56.06,2.15.38a21.45,21.45,0,0,0,12.24,2.69c3.22-.25,6.2-1.16,8.45-3.68A2.89,2.89,0,0,0,94.05,58c-.65-1.29-1.62-.7-2.57-.49-1.76.38-3.42-.3-5.07-.67-.7-.15-2.19-.29-1.79-1.46s1.47-.07,2.11.1a12.72,12.72,0,0,0,15.14-7.35c.69-1.61,1-3.2-.59-4.41a3.79,3.79,0,0,0-5,.07,27.93,27.93,0,0,0-2.35,2.27,10.75,10.75,0,0,1-8.27,3.34c-5.41-.23-10.26-2.47-15.26-4.17a35,35,0,0,0-8.13-1.86c-2.58-.24-4.23.16-3.59,3.39.31,1.58-.17,3.17-2,3.63s-3.1-.56-3.89-2.2ZM41.81,25c1.34-1.57,2.5-2.65,3.89-2.73,3.4-.19,1.92-1.78,1-3.12a6.66,6.66,0,0,0-3-2.13c-1.5-.66-1.93-.41-1.88,1.18C41.86,20.3,41.81,22.37,41.81,25Zm10.75,8.83c-1.17-.5-.52-2.22-1.7-1.89s-2.36,1.49-3.48,2.34c-.09.07.14.63.29.92.36.66.73.24,1-.09C49.5,34,50.86,34.22,52.56,33.87Z"
              style="fill:#3a3b53"/>
        <path d="M51.93,46.42l.84,1.76c.79,1.64,2,2.66,3.89,2.2s2.33-2.05,2-3.63c-.64-3.23,1-3.63,3.59-3.39a35,35,0,0,1,8.13,1.86c5,1.7,9.85,3.94,15.26,4.17a10.75,10.75,0,0,0,8.27-3.34,27.93,27.93,0,0,1,2.35-2.27,3.79,3.79,0,0,1,5-.07c1.55,1.21,1.28,2.8.59,4.41a12.72,12.72,0,0,1-15.14,7.35c-.64-.17-1.75-1.13-2.11-.1s1.09,1.31,1.79,1.46c1.65.37,3.31,1.05,5.07.67,1-.21,1.92-.8,2.57.49a2.89,2.89,0,0,1-.36,3.49c-2.25,2.52-5.23,3.43-8.45,3.68A21.45,21.45,0,0,1,73,62.47c-.59-.32-1.19-.93-2.15-.38a4.4,4.4,0,0,0,2.25,2,23.3,23.3,0,0,0,10.63,2.71c2.56.05,2.72.38,1.78,2.87-1.32,3.47-4.29,5-7.46,5.59-6.29,1.21-12.25.1-17.35-4.09a16.57,16.57,0,0,1-2.12-2.44c-1.32-1.62-1.34-2.73.7-4.08,3.93-2.59,4.2-7.87.84-10.35-.72-.52-1.57-1-2.15-.21-.94,1.29.6,1,1.11,1.44a4.16,4.16,0,0,1,1.58,4.8,5.92,5.92,0,0,1-5.39,4.26c-3.58.41-6.21-1.49-7.9-4.28-2-3.39-1.24-7,.69-10.25A8.54,8.54,0,0,1,51.93,46.42Z"
              style="fill:#78c1e4"/>
        <path d="M31.43,7.8c2.51-.63,5.15-.71,7.57-1.75,1.08-.47,1.25.29,1.2,1.1-.26,5,.14,10.1-.35,15.17a99.71,99.71,0,0,0-.18,13.28c.09,2.76-1,4.26-3.54,4.92-1.91.49-3.75,1.35-5.79,1.17-.06-2,.52-4,.49-5.92C30.66,26.44,31.84,17.14,31.43,7.8Z"
              style="fill:#787d89"/>
        <path d="M9,40.19c-2.46-.09-4.39-1.52-6.5-2.52-1-.49-1.07-1.31-1-2.26.64-8,.9-16,1-24,0-1.27,0-2.53,0-3.8.1-1.91.35-3.41,3-2.08a25.89,25.89,0,0,0,5.18,1.44,26.26,26.26,0,0,0-.54,4c.15,8.52-1,17-.59,25.52A11.47,11.47,0,0,1,9,40.19Z"
              style="fill:#787d89"/>
        <path d="M9,40.19a11.47,11.47,0,0,0,.6-3.73c-.4-8.52.74-17,.59-25.52a26.26,26.26,0,0,1,.54-4l4.35.58c.83,4.92.41,9.82.07,14.76-.43,6.36-.53,12.74-1.25,19.08A12.75,12.75,0,0,1,9,40.19Z"
              style="fill:#9599a4"/>
        <path d="M13.94,41.35c.72-6.34.82-12.72,1.25-19.08.34-4.94.76-9.84-.07-14.76,1.57.77,3.29.18,4.9.54-.05,2.87-.46,5.77-.44,8.59.06,8.48-1.69,16.84-1.29,25.32C16.88,41.49,15.31,42.13,13.94,41.35Z"
              style="fill:#a5aab5"/>
        <path d="M31.43,7.8c.41,9.34-.77,18.64-.6,28,0,1.95-.55,3.93-.49,5.92-1.26.23-2.48.79-3.81.49a61,61,0,0,1,.08-6.49c1-9.19-.11-18.5,1.55-27.65Z"
              style="fill:#9599a4"/>
        <path d="M21.11,8.05l3.78,0c-.28,11.38-.7,22.76-.56,34.14l-3.22,0Z" style="fill:#c7cbd4"/>
        <path d="M24.33,42.17c-.14-11.38.28-22.76.56-34.14h3.27c-1.66,9.15-.53,18.46-1.55,27.65a61,61,0,0,0-.08,6.49Z"
              style="fill:#a6abb6"/>
        <path d="M21.11,8.05V42.2A5.63,5.63,0,0,1,18.29,42c-.4-8.48,1.35-16.84,1.29-25.32,0-2.82.39-5.72.44-8.59Z"
              style="fill:#b3b7c2"/>
        <path d="M15.65,2c4.2-.37,8.35.63,12.54.56-.15,1.26,1,2.53,0,3.8-4.18-.23-8.41.56-12.56-.55C15.64,4.49,15.64,3.22,15.65,2Z"
              style="fill:#3c3f45"/>
        <path d="M53.21,22.64c.29,3.69-1.51,6.33-4.3,8.45-.75.57-1.73,1.76-2.44,1.05s-.37-2.19.67-3.06a8.7,8.7,0,0,0,2.91-6.44Z"
              style="fill:#787d89"/>
        <path d="M41.81,25c0-2.67,0-4.74,0-6.8,0-1.59.38-1.84,1.88-1.18a6.66,6.66,0,0,1,3,2.13c.93,1.34,2.41,2.93-1,3.12C44.31,22.39,43.15,23.47,41.81,25Z"
              style="fill:#fbfbfc"/>
        <path d="M15.65,2c0,1.27,0,2.54,0,3.81-2.44.16-4.75-.57-7.09-1.1V2C10.91,2.3,13.27.42,15.65,2Z"
              style="fill:#484c53"/>
        <path d="M42.41,30.32c-.19-3.38,1.23-5.91,3.65-6.44.59-.13,1.33-.36,1.62.45a1.08,1.08,0,0,1-.79,1.49c-2.52.61-2.28,2.65-2.42,4.51Z"
              style="fill:#787d89"/>
        <path d="M28.19,6.31c1-1.27-.15-2.54,0-3.8,1.69-.27,3.27.38,4.91.55a2.28,2.28,0,0,1,0,2.69Z"
              style="fill:#484c53"/>
        <path d="M53.94,35.13a17.11,17.11,0,0,0-1.07-3.29c-.76-1.39-.51-2.29.88-3.08a9.86,9.86,0,0,1,2.38,5.89A3.65,3.65,0,0,1,53.94,35.13Z"
              style="fill:#b3b7c2"/>
        <path d="M49.52,15c1.12.92,2.38,1.72,2.7,3.3A8.82,8.82,0,0,0,49.44,20L47.3,17.14A2.35,2.35,0,0,1,49.52,15Z"
              style="fill:#c7cbd4"/>
        <path d="M56.45,43.89c.37,1.65,1.73,4.11-.47,4.6s-2.39-2.23-2.69-4A6.49,6.49,0,0,0,56.45,43.89Z"
              style="fill:#868b96"/>
        <path d="M33.11,5.75a2.28,2.28,0,0,0,0-2.69,10.08,10.08,0,0,1,5.43,1.05A12.88,12.88,0,0,1,33.11,5.75Z"
              style="fill:#555962"/>
        <path d="M43.93,33.59l3.39,3.76-.6,1.81c-2-1.3-3.44-3-3.3-5.59Z" style="fill:#b3b7c2"/>
        <path d="M46.72,39.16l.6-1.81a8.75,8.75,0,0,0,2.27,1.31c.91.25,1.6,1.31,1.23,2.07-.51,1.05-1.53.28-2.32,0A3.57,3.57,0,0,1,46.72,39.16Z"
              style="fill:#787d89"/>
        <path d="M52.56,33.87c-1.7.35-3.06.09-3.92,1.28-.24.33-.61.75-1,.09-.15-.29-.38-.85-.29-.92,1.12-.85,2.2-2,3.48-2.34S51.39,33.37,52.56,33.87Z"
              style="fill:#f5f4f6"/>
        <path d="M45.14,12.79a4.21,4.21,0,0,1,2.71,1.13l-2.53,1.71c-.66-.09-1.4.1-1.93-.52A2.86,2.86,0,0,1,45.14,12.79Z"
              style="fill:#9599a4"/>
        <path d="M52.46,40.14c.19-1.12-2-2.19-.5-3s1.62,1.44,2.65,2c.25.12.3.61.44.93Z" style="fill:#9da1ad"/>
        <path d="M52.46,40.14,55.05,40a3.43,3.43,0,0,1,.84,2.27l-3.07.54Z" style="fill:#c7cbd4"/>
        <path d="M8.54,2V4.66L4.17,3.31C5.73,2.22,7.27,2.53,8.54,2Z" style="fill:#555962"/>
        <path d="M49.44,20a8.82,8.82,0,0,1,2.78-1.66c.52.19.47.66.52,1.08-.56,1.23-1.71,1.7-2.82,2.25C49.38,21.17,49.48,20.54,49.44,20Z"
              style="fill:#a5aab5"/>
        <path d="M49.92,21.62c1.11-.55,2.26-1,2.82-2.25.88,1,.48,2.15.47,3.27H50.05C50,22.3,50,22,49.92,21.62Z"
              style="fill:#9599a4"/>
        <path d="M43.93,33.59l-.51,0c-1.55-.71-.94-2.09-1-3.25h2.06C44.48,31.45,44.86,32.62,43.93,33.59Z"
              style="fill:#9599a4"/>
        <path d="M45.14,12.79a2.86,2.86,0,0,0-1.75,2.32A1.46,1.46,0,0,1,42,12.76C42.69,11.67,44.07,12.24,45.14,12.79Z"
              style="fill:#787d89"/>
        <path d="M52.82,42.8l3.07-.54a1.93,1.93,0,0,1,.56,1.63,6.49,6.49,0,0,1-3.16.57A2,2,0,0,1,52.82,42.8Z"
              style="fill:#a5aab5"/>
        <path d="M45.32,15.63l2.53-1.71A2.29,2.29,0,0,1,49.52,15a2.35,2.35,0,0,0-2.22,2.15Z" style="fill:#a5aab5"/>
        <path d="M53.94,35.13a3.65,3.65,0,0,0,2.19-.48c.73.9.34,1.87.2,3.05A5.43,5.43,0,0,1,53.94,35.13Z"
              style="fill:#868b96"/>
    </g>
</svg>