<svg xmlns="http://www.w3.org/2000/svg" viewBox="0 0 103.96 76.34">
    <g>
        <path d="M99,39.92a6.4,6.4,0,0,0-5.34,2.69c-3.54,4.47-8.14,4.49-13,3-3.84-1.18-7.55-2.77-11.39-4-2.92-.91-5.93-1.65-9.05-1.15-2.54.42-3.21,0-2.52-2.49,1.18-4.21-.08-7.82-2.22-11.29a3.52,3.52,0,0,1-.64-2.9c1.63-8-3.76-13.18-10.41-14.37C42,9,41.54,8.24,42.05,6.3c.69-2.61-.24-4.07-2.28-4.84A4.39,4.39,0,0,1,38,2.5l.51.24a13,13,0,0,1-5.42,1.64l-4.92.55c-4.18-.22-8.41.57-12.56-.54-2.44.16-4.75-.57-7.09-1.1L4.17,1.93A5,5,0,0,1,5,1.5,4.45,4.45,0,0,1,4.39.91,4.43,4.43,0,0,1,3.63,0L3.54,0C2.5.33,1.48.5,1.44,2,1.34,5.54,1.07,9.07.92,12.6.66,18.86.61,25.12.14,31.36c-.41,5.3-.21,6.22,4.83,8.11a51.1,51.1,0,0,0,29,2.07c3.77-.79,8.09-1.31,7.27-7.88,2.2,4,4.35,6.56,7.78,7.76.9.31,2.25.08,2.41,1.29.14,1-1.12,1.26-1.81,1.77A12.63,12.63,0,0,0,45.17,58c1.36,4.21,4.59,6.57,9.08,6.86,1,.06,1.11.59,1.46,1.21a18.91,18.91,0,0,0,12.37,9.29c1,.26,2.36-.09,3.17,1h3.28c.53-1,1.46-.46,2.19-.51C81.66,75.45,86.8,72,87.34,67.7c.31-2.43,1.43-2.91,3.23-3.58,4-1.47,6-4.08,5.1-7.15-.55-1.85.31-2.1,1.42-2.69a13.63,13.63,0,0,0,6.36-7.12C105,43.4,103,40.06,99,39.92ZM40.2,5.78c-.26,5.05.14,10.1-.35,15.17a99.71,99.71,0,0,0-.18,13.28c.09,2.75-1,4.26-3.54,4.92-1.91.49-3.75,1.34-5.79,1.17-1.26.23-2.48.78-3.81.49h-2.2l-3.22,0a5.63,5.63,0,0,1-2.82-.24c-1.41-.46-3,.18-4.35-.6A12.76,12.76,0,0,1,9,38.81c-2.46-.09-4.39-1.51-6.5-2.51-1-.49-1.07-1.32-1-2.26.64-8,.9-16,1-24,0-1.26,0-2.53,0-3.79.1-1.91.35-3.42,3-2.08a26.56,26.56,0,0,0,5.18,1.43l4.35.59c1.57.76,3.29.17,4.9.53h8.14l3.27-.23c2.51-.64,5.15-.72,7.57-1.76C40.08,4.21,40.25,5,40.2,5.78Zm15.93,27.5c.73.9.34,1.87.2,3a5.45,5.45,0,0,1-2.39-2.58,17.34,17.34,0,0,0-1.07-3.29c-.76-1.38-.51-2.29.88-3.08A9.89,9.89,0,0,1,56.13,33.28ZM42,11.39c.71-1.09,2.09-.53,3.16,0a4.23,4.23,0,0,1,2.71,1.14,2.25,2.25,0,0,1,1.67,1.06c1.12.92,2.38,1.73,2.7,3.31.52.19.47.66.52,1.07.88,1,.48,2.16.47,3.27.29,3.7-1.51,6.33-4.3,8.46-.75.57-1.73,1.76-2.44,1s-.37-2.19.67-3.06a8.68,8.68,0,0,0,2.91-6.43l-.13-1c-.54-.44-.44-1.07-.48-1.66L47.3,15.76l-2-1.5c-.66-.1-1.4.09-1.93-.52A1.46,1.46,0,0,1,42,11.39Zm-.18,5.47c0-1.58.38-1.83,1.88-1.17a6.52,6.52,0,0,1,3,2.13c.93,1.34,2.41,2.92-1,3.12-1.39.08-2.55,1.15-3.89,2.73C41.81,21,41.86,18.93,41.8,16.86Zm9,22.5c-.51,1-1.53.28-2.32,0a3.62,3.62,0,0,1-1.78-1.54c-2-1.31-3.44-3-3.3-5.59-1.55-.71-.94-2.09-1-3.25-.19-3.38,1.23-5.91,3.65-6.44.59-.13,1.33-.37,1.62.45a1.07,1.07,0,0,1-.79,1.48c-2.52.62-2.28,2.66-2.42,4.51,0,1.12.39,2.3-.54,3.26L47.32,36a8.77,8.77,0,0,0,2.27,1.32C50.5,37.54,51.19,38.6,50.82,39.36Zm-2.18-5.58c-.24.33-.61.75-1,.09-.15-.29-.38-.85-.29-.92,1.12-.86,2.2-2,3.48-2.35s.53,1.4,1.7,1.89C50.86,32.84,49.5,32.58,48.64,33.78ZM52,35.71c1.45-.84,1.62,1.44,2.65,2,.25.12.3.61.44.93a3.47,3.47,0,0,1,.84,2.28,1.93,1.93,0,0,1,.56,1.63c.37,1.65,1.73,4.1-.47,4.6s-2.39-2.23-2.69-4a2,2,0,0,1-.47-1.65l-.36-2.67C52.65,37.65,50.47,36.58,52,35.71Zm49.91,11a12.71,12.71,0,0,1-15.14,7.35C86.09,53.93,85,53,84.62,54s1.09,1.31,1.79,1.46c1.65.36,3.31,1,5.07.66,1-.21,1.92-.79,2.57.5a2.89,2.89,0,0,1-.36,3.49c-2.25,2.51-5.23,3.43-8.45,3.68A21.61,21.61,0,0,1,73,61.1c-.59-.33-1.19-.93-2.15-.39a4.4,4.4,0,0,0,2.25,2,23.31,23.31,0,0,0,10.63,2.72c2.56,0,2.72.38,1.78,2.87-1.32,3.47-4.29,5-7.46,5.58C71.76,75.11,65.8,74,60.7,69.82a16.66,16.66,0,0,1-2.12-2.45c-1.32-1.62-1.34-2.73.7-4.07,3.93-2.59,4.2-7.88.84-10.35-.72-.53-1.57-1-2.15-.22-.94,1.3.6,1,1.11,1.45A4.16,4.16,0,0,1,60.66,59a5.91,5.91,0,0,1-5.39,4.25c-3.58.41-6.21-1.48-7.9-4.27-2-3.39-1.24-7,.69-10.25A8.56,8.56,0,0,1,51.93,45c.3.62.57,1.2.84,1.77.79,1.64,2,2.66,3.89,2.19s2.33-2,2-3.62c-.64-3.23,1-3.63,3.59-3.39a35.5,35.5,0,0,1,8.13,1.85c5,1.71,9.85,3.94,15.26,4.17a10.74,10.74,0,0,0,8.27-3.33,27.93,27.93,0,0,1,2.35-2.27,3.8,3.8,0,0,1,5-.08C102.83,43.55,102.56,45.14,101.87,46.74Z"
              style="fill:#3a3b53"/>
        <path d="M51.93,45c.3.62.57,1.2.84,1.77.79,1.64,2,2.66,3.89,2.19s2.33-2,2-3.62c-.64-3.23,1-3.63,3.59-3.39a35.5,35.5,0,0,1,8.13,1.85c5,1.71,9.85,3.94,15.26,4.17a10.74,10.74,0,0,0,8.27-3.33,27.93,27.93,0,0,1,2.35-2.27,3.8,3.8,0,0,1,5-.08c1.55,1.22,1.28,2.81.59,4.41a12.71,12.71,0,0,1-15.14,7.35C86.09,53.93,85,53,84.62,54s1.09,1.31,1.79,1.46c1.65.36,3.31,1,5.07.66,1-.21,1.92-.79,2.57.5a2.89,2.89,0,0,1-.36,3.49c-2.25,2.51-5.23,3.43-8.45,3.68A21.61,21.61,0,0,1,73,61.1c-.59-.33-1.19-.93-2.15-.39a4.4,4.4,0,0,0,2.25,2,23.31,23.31,0,0,0,10.63,2.72c2.56,0,2.72.38,1.78,2.87-1.32,3.47-4.29,5-7.46,5.58C71.76,75.11,65.8,74,60.7,69.82a16.66,16.66,0,0,1-2.12-2.45c-1.32-1.62-1.34-2.73.7-4.07,3.93-2.59,4.2-7.88.84-10.35-.72-.53-1.57-1-2.15-.22-.94,1.3.6,1,1.11,1.45A4.16,4.16,0,0,1,60.66,59a5.91,5.91,0,0,1-5.39,4.25c-3.58.41-6.21-1.48-7.9-4.27-2-3.39-1.24-7,.69-10.25A8.56,8.56,0,0,1,51.93,45Z"
              style="fill:#78c1e4"/>
        <path d="M31.43,6.43c2.51-.64,5.15-.72,7.57-1.76,1.08-.46,1.25.3,1.2,1.11-.26,5.05.14,10.1-.35,15.17a99.71,99.71,0,0,0-.18,13.28c.09,2.75-1,4.26-3.54,4.92-1.91.49-3.75,1.34-5.79,1.17-.06-2,.52-4,.49-5.92C30.66,25.06,31.84,15.76,31.43,6.43Z"
              style="fill:#787d89"/>
        <path d="M9,38.81c-2.46-.09-4.39-1.51-6.5-2.51-1-.49-1.07-1.32-1-2.26.64-8,.9-16,1-24,0-1.27,0-2.54,0-3.8.1-1.91.35-3.42,3-2.08a26.56,26.56,0,0,0,5.18,1.43,26.39,26.39,0,0,0-.54,4c.15,8.51-1,17-.59,25.51A11.47,11.47,0,0,1,9,38.81Z"
              style="fill:#787d89"/>
        <path d="M9,38.81a11.47,11.47,0,0,0,.6-3.73c-.4-8.51.74-17,.59-25.51a26.39,26.39,0,0,1,.54-4l4.35.59c.83,4.92.41,9.81.07,14.76-.43,6.35-.53,12.73-1.25,19.08A12.76,12.76,0,0,1,9,38.81Z"
              style="fill:#9599a4"/>
        <path d="M13.94,40c.72-6.35.82-12.73,1.25-19.08.34-4.95.76-9.84-.07-14.76,1.57.76,3.29.17,4.9.53-.05,2.88-.46,5.77-.44,8.6.06,8.48-1.69,16.84-1.29,25.31C16.88,40.12,15.31,40.76,13.94,40Z"
              style="fill:#a5aab5"/>
        <path d="M31.43,6.43c.41,9.33-.77,18.63-.6,28,0,1.94-.55,3.92-.49,5.92-1.26.23-2.48.78-3.81.49a61,61,0,0,1,.08-6.49c1-9.19-.11-18.5,1.55-27.66Z"
              style="fill:#9599a4"/>
        <path d="M21.11,6.67h3.78c-.28,11.38-.7,22.75-.56,34.14l-3.22,0Z" style="fill:#c7cbd4"/>
        <path d="M24.33,40.8c-.14-11.39.28-22.76.56-34.14h3.27c-1.66,9.16-.53,18.47-1.55,27.66a61,61,0,0,0-.08,6.49Z"
              style="fill:#a6abb6"/>
        <path d="M21.11,6.67V40.82a5.63,5.63,0,0,1-2.82-.24c-.4-8.47,1.35-16.83,1.29-25.31,0-2.83.39-5.72.44-8.6Z"
              style="fill:#b3b7c2"/>
        <path d="M53.21,21.26c.29,3.7-1.51,6.33-4.3,8.46-.75.57-1.73,1.76-2.44,1s-.37-2.19.67-3.06a8.68,8.68,0,0,0,2.91-6.43Z"
              style="fill:#787d89"/>
        <path d="M41.81,23.67c0-2.68,0-4.74,0-6.81,0-1.58.38-1.83,1.88-1.17a6.52,6.52,0,0,1,3,2.13c.93,1.34,2.41,2.92-1,3.12C44.31,21,43.15,22.09,41.81,23.67Z"
              style="fill:#fbfbfc"/>
        <path d="M42.41,29c-.19-3.38,1.23-5.91,3.65-6.44.59-.13,1.33-.37,1.62.45a1.07,1.07,0,0,1-.79,1.48c-2.52.62-2.28,2.66-2.42,4.51Z"
              style="fill:#787d89"/>
        <path d="M53.94,33.75a17.34,17.34,0,0,0-1.07-3.29c-.76-1.38-.51-2.29.88-3.08a9.89,9.89,0,0,1,2.38,5.9A3.64,3.64,0,0,1,53.94,33.75Z"
              style="fill:#b3b7c2"/>
        <path d="M49.52,13.61c1.12.92,2.38,1.73,2.7,3.31a8.64,8.64,0,0,0-2.78,1.66L47.3,15.76A2.35,2.35,0,0,1,49.52,13.61Z"
              style="fill:#c7cbd4"/>
        <path d="M56.45,42.52c.37,1.65,1.73,4.1-.47,4.6s-2.39-2.23-2.69-4A6.37,6.37,0,0,0,56.45,42.52Z"
              style="fill:#868b96"/>
        <path d="M43.93,32.21,47.32,36l-.6,1.82c-2-1.31-3.44-3-3.3-5.59Z" style="fill:#b3b7c2"/>
        <path d="M46.72,37.79l.6-1.82a8.77,8.77,0,0,0,2.27,1.32c.91.25,1.6,1.31,1.23,2.07-.51,1-1.53.28-2.32,0A3.62,3.62,0,0,1,46.72,37.79Z"
              style="fill:#787d89"/>
        <path d="M52.56,32.5c-1.7.34-3.06.08-3.92,1.28-.24.33-.61.75-1,.09-.15-.29-.38-.85-.29-.92,1.12-.86,2.2-2,3.48-2.35S51.39,32,52.56,32.5Z"
              style="fill:#f5f4f6"/>
        <path d="M45.14,11.41a4.23,4.23,0,0,1,2.71,1.14l-2.53,1.71c-.66-.1-1.4.09-1.93-.52A2.89,2.89,0,0,1,45.14,11.41Z"
              style="fill:#9599a4"/>
        <path d="M52.46,38.76c.19-1.11-2-2.18-.5-3s1.62,1.44,2.65,2c.25.12.3.61.44.93Z" style="fill:#9da1ad"/>
        <path d="M52.46,38.76l2.59-.15a3.47,3.47,0,0,1,.84,2.28l-3.07.54Z" style="fill:#c7cbd4"/>
        <path d="M49.44,18.58a8.64,8.64,0,0,1,2.78-1.66c.52.19.47.66.52,1.07-.56,1.23-1.71,1.71-2.82,2.25C49.38,19.8,49.48,19.17,49.44,18.58Z"
              style="fill:#a5aab5"/>
        <path d="M49.92,20.24c1.11-.54,2.26-1,2.82-2.25.88,1,.48,2.16.47,3.27H50.05C50,20.93,50,20.59,49.92,20.24Z"
              style="fill:#9599a4"/>
        <path d="M43.93,32.21h-.51c-1.55-.71-.94-2.09-1-3.25h2.06C44.48,30.07,44.86,31.25,43.93,32.21Z"
              style="fill:#9599a4"/>
        <path d="M45.14,11.41a2.89,2.89,0,0,0-1.75,2.33A1.46,1.46,0,0,1,42,11.39C42.69,10.3,44.07,10.86,45.14,11.41Z"
              style="fill:#787d89"/>
        <path d="M52.82,41.43l3.07-.54a1.93,1.93,0,0,1,.56,1.63,6.37,6.37,0,0,1-3.16.56A2,2,0,0,1,52.82,41.43Z"
              style="fill:#a5aab5"/>
        <path d="M45.32,14.26l2.53-1.71a2.25,2.25,0,0,1,1.67,1.06,2.35,2.35,0,0,0-2.22,2.15Z" style="fill:#a5aab5"/>
        <path d="M53.94,33.75a3.64,3.64,0,0,0,2.19-.47c.73.9.34,1.87.2,3A5.45,5.45,0,0,1,53.94,33.75Z"
              style="fill:#868b96"/>

    </g>
</svg>