<svg xmlns="http://www.w3.org/2000/svg" viewBox="0 0 74.06 84.58">
    <g>
        <path d="M16.77.05a44.11,44.11,0,0,0,9.72,1.11A50.8,50.8,0,0,1,39.27,3c2.29.69,3.49,1.9,2.87,4.48-.51,2.12-.32,3.23,2.61,3.76,6.56,1.2,11.79,6.37,10.08,14.56a2.84,2.84,0,0,0,.56,2.39C57.53,31.7,59,35.37,57.7,39.66a3.36,3.36,0,0,0,1.11,3.62C64.13,48.44,68.59,54.4,74,59.46v1.09c-3.76,6.3-6.45,13.14-9.85,19.62-2.5,4.77-1.57,6.54-6.88.87q-6.6-7-13.44-13.88a3.82,3.82,0,0,1-.83-5c2.72-5.55,5.25-11.2,7.87-16.8.34-.72,1-1.59-.34-1.86-4.25-.83-6.78-3.75-9.12-7.43.93,5-2.62,6.13-5.87,6.87a51.59,51.59,0,0,1-31.07-2C-.06,39.11-.25,38.14.13,33.27.61,27,.84,20.79.9,14.54c0-3.64.65-7.23.58-10.85,0-1.51,1-1.77,2.07-2C6.13,1.11,8.73.59,11.32.05Zm36,19.59c-.05-.42,0-.88-.51-1.07-.32-1.58-1.59-2.39-2.71-3.31a2.25,2.25,0,0,0-1.67-1.07,4.19,4.19,0,0,0-2.7-1.13c-1.08-.55-2.45-1.12-3.17,0a1.46,1.46,0,0,0,1.42,2.35c.52.62,1.26.43,1.93.53l2,1.5,2.15,2.81c0,.6-.07,1.23.48,1.67l.12,1a8.66,8.66,0,0,1-2.91,6.44c-1,.87-1.49,2.22-.66,3.06s1.69-.47,2.44-1c2.79-2.13,4.58-4.77,4.3-8.46C53.25,21.8,53.66,20.63,52.77,19.64Zm2.32,20.62c-.14-.32-.19-.8-.43-.93-1-.53-1.2-2.79-2.65-2s.71,1.91.48,3l.37,2.71a2,2,0,0,0,.46,1.65c.31,1.81.55,4.52,2.7,4s.84-3,.46-4.61a1.92,1.92,0,0,0-.55-1.62A3.51,3.51,0,0,0,55.09,40.26ZM43.45,33.84c-.13,2.6,1.26,4.29,3.31,5.6A3.51,3.51,0,0,0,48.54,41c.78.31,1.8,1.09,2.31,0a1.66,1.66,0,0,0-1.23-2.07,9.44,9.44,0,0,1-2.27-1.32L44,33.86c.93-1,.55-2.14.53-3.26.15-1.86-.09-3.9,2.43-4.51a1.08,1.08,0,0,0,.78-1.49c-.29-.81-1-.57-1.61-.45-2.42.54-3.84,3.07-3.66,6.44C42.52,31.76,41.91,33.13,43.45,33.84Zm12.71,1.09A9.79,9.79,0,0,0,53.79,29c-1.4.79-1.64,1.7-.88,3.08A18.06,18.06,0,0,1,54,35.4c.4,1.19,1.35,1.81,2.57,2.7C56.38,36.8,57,35.82,56.16,34.93Zm-23-31.6c-1.64-.16-3.22-.82-4.91-.55-4.2.07-8.34-.93-12.55-.56-2.37-1.52-4.73.35-7.1,0-1.27.56-2.82.25-4.37,1.34L8.58,4.94c2.34.52,4.64,1.26,7.09,1.09,4.15,1.11,8.37.33,12.56.55L33.14,6a13,13,0,0,0,5.42-1.65A10,10,0,0,0,33.14,3.33Zm-12,39.14,3.22,0,2.19,0c1.33.29,2.55-.26,3.82-.49,2,.17,3.87-.68,5.78-1.18,2.55-.65,3.64-2.16,3.54-4.91a101.57,101.57,0,0,1,.18-13.29c.5-5.06.1-10.11.36-15.16,0-.81-.12-1.57-1.2-1.11-2.43,1-5.06,1.12-7.57,1.76l-3.27.23H20.05c-1.61-.36-3.33.23-4.9-.53L10.8,7.2A25.8,25.8,0,0,1,5.63,5.76c-2.63-1.33-2.88.18-3,2.09-.07,1.26,0,2.53,0,3.79-.12,8-.39,16-1,24-.08,1,0,1.77,1,2.26,2.1,1,4,2.43,6.5,2.52A12.52,12.52,0,0,0,14,41.62c1.37.79,2.94.14,4.36.61A5.62,5.62,0,0,0,21.15,42.47Zm30.76,4.09c-2.56,5.61-5,11-7.52,16.4a2.32,2.32,0,0,0,.6,3.19c3.72,3.59,7.31,7.3,11,10.95,1.75,1.75,3.52,3.46,5.4,5.3,2.8-5.73,5.48-11.21,8.17-16.69,2.57-5.23,2.57-5.22-1.31-9.72-.41-.48-.79-1-1.22-1.46-2.61-2.89-5.24-5.77-8.19-9-.09,2.5.24,4.72-2.32,5.16C53.61,51.17,53,48.72,51.91,46.56ZM41.85,25.5c1.29-1.89,2.62-2.88,4.06-2.95,3-.15,1.89-1.53,1-2.81a6.72,6.72,0,0,0-2.9-2.31c-1.82-.86-2.37-.42-2.23,1.54S41.85,22.75,41.85,25.5Zm10.54,8.77c-.83-.72-.32-2.55-1.76-1.93-1.19.51-2.7,1.06-3.22,2.52-.11.3.35,1.46,1.06.7C49.51,34.45,50.79,34.39,52.39,34.27Z"
              style="fill:#3a3b53"/>
        <path d="M51.91,46.56c1.07,2.16,1.7,4.61,4.58,4.11,2.56-.44,2.23-2.66,2.32-5.16,2.95,3.25,5.58,6.13,8.19,9,.43.47.81,1,1.22,1.46,3.88,4.5,3.88,4.49,1.31,9.72-2.69,5.48-5.37,11-8.17,16.69-1.88-1.84-3.65-3.55-5.4-5.3-3.66-3.65-7.25-7.36-11-10.95a2.32,2.32,0,0,1-.6-3.19C47,57.6,49.35,52.17,51.91,46.56Z"
              style="fill:#78c1e4"/>
        <path d="M31.47,8.08C34,7.44,36.61,7.36,39,6.32c1.08-.46,1.24.3,1.2,1.11-.26,5.05.14,10.1-.36,15.16a101.57,101.57,0,0,0-.18,13.29c.1,2.75-1,4.26-3.54,4.91-1.91.5-3.74,1.35-5.78,1.18-.06-2,.52-4,.48-5.93C30.69,26.71,31.87,17.41,31.47,8.08Z"
              style="fill:#787d89"/>
        <path d="M9.08,40.46c-2.46-.09-4.4-1.51-6.5-2.52-1-.49-1.08-1.31-1-2.26.63-8,.9-16,1-24,0-1.26,0-2.53,0-3.79.1-1.91.35-3.42,3-2.09A25.8,25.8,0,0,0,10.8,7.2a25.2,25.2,0,0,0-.53,4c.14,8.52-1,17-.6,25.52A11.2,11.2,0,0,1,9.08,40.46Z"
              style="fill:#787d89"/>
        <path d="M9.08,40.46a11.2,11.2,0,0,0,.59-3.73c-.4-8.52.74-17,.6-25.52a25.2,25.2,0,0,1,.53-4l4.35.59c.84,4.91.41,9.81.08,14.76C14.8,28.9,14.69,35.28,14,41.62A12.52,12.52,0,0,1,9.08,40.46Z"
              style="fill:#9599a4"/>
        <path d="M14,41.62c.72-6.34.83-12.72,1.26-19.07.33-4.95.76-9.85-.08-14.76,1.57.76,3.29.17,4.9.53,0,2.88-.45,5.77-.43,8.6.06,8.47-1.69,16.84-1.29,25.31C16.91,41.76,15.34,42.41,14,41.62Z"
              style="fill:#a5aab5"/>
        <path d="M31.47,8.08c.4,9.33-.78,18.63-.61,28,0,2-.54,3.93-.48,5.93-1.27.23-2.49.78-3.82.49,0-2.17-.15-4.35.08-6.49,1-9.2-.11-18.51,1.56-27.66Z"
              style="fill:#9599a4"/>
        <path d="M24.37,42.44l-3.22,0V8.32h3.77C24.65,19.68,24.22,31.06,24.37,42.44Z" style="fill:#c7cbd4"/>
        <path d="M24.37,42.44c-.15-11.38.28-22.76.55-34.13H28.2c-1.67,9.15-.54,18.46-1.56,27.66-.23,2.14-.06,4.32-.08,6.49Z"
              style="fill:#a6abb6"/>
        <path d="M21.15,8.32V42.47a5.62,5.62,0,0,1-2.82-.24c-.4-8.47,1.35-16.84,1.29-25.31,0-2.83.39-5.72.43-8.6Z"
              style="fill:#b3b7c2"/>
        <path d="M28.23,6.58C24,6.36,19.82,7.14,15.67,6c0-1.27,0-2.54,0-3.81,4.21-.37,8.35.63,12.55.56C28.08,4.05,29.27,5.31,28.23,6.58Z"
              style="fill:#3c3f45"/>
        <path d="M53.24,22.91c.29,3.69-1.5,6.33-4.29,8.46-.75.57-1.73,1.76-2.44,1s-.37-2.19.66-3.06a8.66,8.66,0,0,0,2.91-6.44Z"
              style="fill:#787d89"/>
        <path d="M41.85,25.5c0-2.75.11-4.65,0-6.53s.41-2.4,2.23-1.54A6.72,6.72,0,0,1,47,19.74c.85,1.28,1.91,2.66-1,2.81C44.47,22.62,43.14,23.61,41.85,25.5Z"
              style="fill:#fbfbfc"/>
        <path d="M15.68,2.22c0,1.27,0,2.54,0,3.81-2.45.17-4.75-.57-7.09-1.09V2.24C11,2.57,13.31.7,15.68,2.22Z"
              style="fill:#484c53"/>
        <path d="M42.44,30.59c-.18-3.37,1.24-5.9,3.66-6.44.58-.12,1.32-.36,1.61.45a1.08,1.08,0,0,1-.78,1.49c-2.52.61-2.28,2.65-2.43,4.51Z"
              style="fill:#787d89"/>
        <path d="M28.23,6.58c1-1.27-.15-2.53,0-3.8,1.69-.27,3.27.39,4.91.55a2.28,2.28,0,0,1,0,2.7Z"
              style="fill:#484c53"/>
        <path d="M54,35.4a18.06,18.06,0,0,0-1.06-3.29c-.76-1.38-.52-2.29.88-3.08a9.79,9.79,0,0,1,2.37,5.9A3.7,3.7,0,0,1,54,35.4Z"
              style="fill:#b3b7c2"/>
        <path d="M49.48,20.22l-2.15-2.81a2.37,2.37,0,0,1,2.22-2.15c1.12.92,2.39,1.73,2.71,3.31A8.61,8.61,0,0,0,49.48,20.22Z"
              style="fill:#c7cbd4"/>
        <path d="M56.48,44.16c.38,1.65,1.74,4.11-.46,4.61s-2.39-2.23-2.7-4A6.25,6.25,0,0,0,56.48,44.16Z"
              style="fill:#868b96"/>
        <path d="M44,33.86l3.38,3.76-.59,1.82c-2-1.31-3.44-3-3.31-5.6Z" style="fill:#b3b7c2"/>
        <path d="M33.14,6a2.28,2.28,0,0,0,0-2.7,10,10,0,0,1,5.42,1A13,13,0,0,1,33.14,6Z" style="fill:#555962"/>
        <path d="M46.76,39.44l.59-1.82a9.44,9.44,0,0,0,2.27,1.32A1.66,1.66,0,0,1,50.85,41c-.51,1.05-1.53.27-2.31,0A3.51,3.51,0,0,1,46.76,39.44Z"
              style="fill:#787d89"/>
        <path d="M52.39,34.27c-1.6.12-2.88.18-3.92,1.29-.71.76-1.17-.4-1.06-.7.52-1.46,2-2,3.22-2.52C52.07,31.72,51.56,33.55,52.39,34.27Z"
              style="fill:#f5f4f6"/>
        <path d="M45.18,13.06a4.19,4.19,0,0,1,2.7,1.13l-2.52,1.72c-.67-.1-1.41.09-1.93-.53A2.86,2.86,0,0,1,45.18,13.06Z"
              style="fill:#9599a4"/>
        <path d="M52.86,43.08c-.13-.91-.25-1.81-.37-2.71l2.6-.11a3.51,3.51,0,0,1,.84,2.28Z" style="fill:#c7cbd4"/>
        <path d="M55.09,40.26l-2.6.11c.23-1.11-2-2.15-.48-3s1.61,1.45,2.65,2C54.9,39.46,55,39.94,55.09,40.26Z"
              style="fill:#9da1ad"/>
        <path d="M8.58,2.24v2.7L4.21,3.58C5.76,2.49,7.31,2.8,8.58,2.24Z" style="fill:#555962"/>
        <path d="M49.48,20.22a8.61,8.61,0,0,1,2.78-1.65c.52.19.46.65.51,1.07-.55,1.23-1.71,1.71-2.81,2.25C49.41,21.45,49.51,20.82,49.48,20.22Z"
              style="fill:#a5aab5"/>
        <path d="M50,21.89c1.1-.54,2.26-1,2.81-2.25.89,1,.48,2.16.47,3.27H50.08Z" style="fill:#9599a4"/>
        <path d="M44,33.86l-.52,0c-1.54-.71-.93-2.08-1-3.25H44.5C44.52,31.72,44.9,32.9,44,33.86Z"
              style="fill:#9599a4"/>
        <path d="M45.18,13.06a2.86,2.86,0,0,0-1.75,2.32A1.46,1.46,0,0,1,42,13C42.73,11.94,44.1,12.51,45.18,13.06Z"
              style="fill:#787d89"/>
        <path d="M52.86,43.08l3.07-.54a1.92,1.92,0,0,1,.55,1.62,6.25,6.25,0,0,1-3.16.57A2,2,0,0,1,52.86,43.08Z"
              style="fill:#a5aab5"/>
        <path d="M45.36,15.91l2.52-1.72a2.25,2.25,0,0,1,1.67,1.07,2.37,2.37,0,0,0-2.22,2.15Z" style="fill:#a5aab5"/>
        <path d="M54,35.4a3.7,3.7,0,0,0,2.19-.47c.79.89.22,1.87.38,3.17C55.32,37.21,54.37,36.59,54,35.4Z"
              style="fill:#868b96"/>
    </g>
</svg>