<svg xmlns="http://www.w3.org/2000/svg" viewBox="0 0 70.76 91.35"><g id="Ebene_2" data-name="Ebene 2"><g id="Ebene_1-2" data-name="Ebene 1"><path d="M32.49,75.16a35.6,35.6,0,0,1-11.83-10,11.1,11.1,0,0,1-2-10.31,17.16,17.16,0,0,0,.2-9.47c-1.36-5.84.86-10.46,5-14.31,1.13-1.07,1.23-1.62.32-2.84A46.38,46.38,0,0,0,12.14,17.49c-2-1.29-3.85-.86-5.79-.31a6,6,0,0,1-3.44-.06C1.28,16.66,0,15.94,0,14.1a3.79,3.79,0,0,1,2.44-3.82A2.79,2.79,0,0,0,4.55,8.07C5,6,6.54,4.23,9,4.44,11.56,4.67,12.37,6.82,12,9c-.52,3.21.9,4.79,3.52,6.28A35.13,35.13,0,0,1,27.21,26.46C28,27.6,28.53,28,30,27.35a20.41,20.41,0,0,1,12.43-1.41c1.16.23,1.34-.33,1.77-1.07A44.36,44.36,0,0,1,56.17,11c.79-.6,1.3-1.17.82-2.26-.64-1.47-.36-3.06-.27-4.58A4.14,4.14,0,0,1,60.05.1c2.1-.48,3.59.86,4.27,2.59A2.32,2.32,0,0,0,67.1,4.38a3.17,3.17,0,0,1,3.4,2.09c.69,1.56-.11,2.7-.88,3.69a5.66,5.66,0,0,1-5.2,2.36c-4.19-.61-7.09,1.54-9.79,4.14a33.76,33.76,0,0,0-6.7,9.1c-.46.91-.84,1.49.38,2.14,7,3.77,8.24,10.5,8.13,17.39a36.1,36.1,0,0,1-6.62,21.06,6.16,6.16,0,0,1-2.46,2.45c-2.84,1.08-2.92,3.51-3.2,5.89-.25,2.11.72,2.67,2.57,1.87a11.3,11.3,0,0,1,5.15-1.37,2.53,2.53,0,0,1,2.64,2.19c.82,3.21.45,6.49.52,9.74A2.55,2.55,0,0,1,53,89.64c-8,2.44-15.82,2.47-23.47-1.22a2.92,2.92,0,0,1-1.83-3.26c.22-2,0-4,.36-6C28.38,77.05,29.34,75.17,32.49,75.16Zm14-46.07A14.23,14.23,0,0,0,45.27,34a1.75,1.75,0,0,1-1.83,1.89,2.11,2.11,0,0,1-2.13-2.07,8.11,8.11,0,0,1,.22-2.14c1-4.15.46-4.76-3.85-4.34a19.17,19.17,0,0,0-3.21.51c-1.65.43-3.64.43-4.74,1.72-.9,1.07.46,2.45.75,3.71A2.09,2.09,0,0,1,29,35.87c-1.33.47-2-.6-2.31-1.66-.22-.82-.13-1.71-.91-2.41-4.37,3.68-6.89,8.19-5,13.83a14.49,14.49,0,0,1-.18,10,8.59,8.59,0,0,0,1.23,8A27.64,27.64,0,0,0,32.49,73c.7.35,1.48.88,2.32.5C40.9,70.8,47.29,68.46,50.5,61.86a38.21,38.21,0,0,0,3.9-19.94C54,36.44,52.29,31.45,46.52,29.09Zm-4,42.77c-2.75,1.57-6,2-5.85,5.84,0,.76-.83,1.55-1.32,2.3-.24.38-.58.78-1.09.61s-.33-.7-.34-1.13c0-1.58-1.32-2-2.46-2.16s-1.25,1.12-1.43,1.9a37.54,37.54,0,0,0-.52,4c1.54,0,2-2,3.61-1.94.25,1.51-.74,2.1-1.49,2.84a6.27,6.27,0,0,0-2,2.42c4.59,2.54,4.7,2.5,7.1-1.85.24-.44,0-1.43,1.2-1.23,1,2.06-1.23,3.32-1.42,5.11,2.79,1.23,5.71.75,8.56.82.7,0,1.75.11,2-.27.55-.78-.4-1.43-.79-2.09-1.08-1.85-1.07-1.89.76-2.38.21,0,.28-.51.46-.76.37-.51.1-1.57,1.29-1.46A3.74,3.74,0,0,1,48.41,86c-.75,1,.28,1.63.61,2.36.42.93,1.18.45,1.86.25A3,3,0,0,0,53.32,85c-.21-1.61-.33-3.24-.38-4.86-.11-3.36-.85-3.88-3.9-2.61-.5.2-1,.46-1.48.66-3.79,1.53-5.72,0-5.17-4.13C42.47,73.43,42.46,72.81,42.52,71.86Zm15.82-66c0,1.8-.32,4.16,1.53,4.81a8.6,8.6,0,0,0,7.28-.43c1.19-.69,2.51-1.69,1.92-3.21S66.74,5.41,65.4,6c-1.94.83-2.6.64-2.22-1.63.28-1.62-.69-2.61-2.32-2.68S58.58,2.6,58.36,4A12,12,0,0,0,58.34,5.9ZM4.63,15.82c5.91-.2,6.08-1.19,6.21-6.81,0-1.42-.29-3.13-2.27-2.95A2.74,2.74,0,0,0,5.91,9.17c.19,1.53-.33,1.73-1.65,1.94-1.56.25-2.95,1.1-2.63,3.08S3.45,15.76,4.63,15.82Zm44.59,4.55c-3.24,3.7-6.3,7.53-6.65,12.75,0,.45,0,.93.54,1.09a.68.68,0,0,0,1-.62C44.51,28.7,47,24.63,49.22,20.37ZM11.63,15.21A109.44,109.44,0,0,1,24.15,25.45,27.18,27.18,0,0,0,11.63,15.21ZM25,26.62c1,2.46,1.91,4.92,2.89,7.37.13.33.39.66.82.49.59-.23.33-.68.25-1.12A11.08,11.08,0,0,0,25,26.62ZM58.26,12.24l-.41-.61c-1.26.66-2.68,1.11-2.91,3.07Zm-7.17,5.35c-.8.6-1.53,1-1.14,2C50.92,19.32,51.34,18.81,51.09,17.59Z" style="fill:#3c3d55"/><path d="M46.52,29.09c5.77,2.36,7.45,7.35,7.88,12.83a38.21,38.21,0,0,1-3.9,19.94c-3.21,6.6-9.6,8.94-15.69,11.67-.84.38-1.62-.15-2.32-.5a27.64,27.64,0,0,1-10.61-9.46,8.59,8.59,0,0,1-1.23-8,14.49,14.49,0,0,0,.18-10c-1.93-5.64.59-10.15,5-13.83.78.7.69,1.59.91,2.41.28,1.06,1,2.13,2.31,1.66a2.09,2.09,0,0,0,1.47-2.58c-.29-1.26-1.65-2.64-.75-3.71,1.1-1.29,3.09-1.29,4.74-1.72a19.17,19.17,0,0,1,3.21-.51c4.31-.42,4.82.19,3.85,4.34a8.11,8.11,0,0,0-.22,2.14,2.11,2.11,0,0,0,2.13,2.07A1.75,1.75,0,0,0,45.27,34,14.23,14.23,0,0,1,46.52,29.09Z" style="fill:#f2e7e2"/><path d="M42.52,71.86c-.06,1-.05,1.57-.13,2.19-.55,4.11,1.38,5.66,5.17,4.13.5-.2,1-.46,1.48-.66,3.05-1.27,3.79-.75,3.9,2.61.05,1.62.17,3.25.38,4.86a3,3,0,0,1-2.44,3.6c-.68.2-1.44.68-1.86-.25-.33-.73-1.36-1.35-.61-2.36a3.74,3.74,0,0,0,.43-3.54c-1.19-.11-.92,1-1.29,1.46-.18.25-.25.71-.46.76-1.83.49-1.84.53-.76,2.38.39.66,1.34,1.31.79,2.09-.27.38-1.32.28-2,.27-2.85-.07-5.77.41-8.56-.82.19-1.79,2.42-3,1.42-5.11-1.16-.2-1,.79-1.2,1.23-2.4,4.35-2.51,4.39-7.1,1.85a6.27,6.27,0,0,1,2-2.42c.75-.74,1.74-1.33,1.49-2.84-1.57,0-2.07,2-3.61,1.94a37.54,37.54,0,0,1,.52-4c.18-.78.28-2,1.43-1.9s2.43.58,2.46,2.16c0,.43-.24.94.34,1.13s.85-.23,1.09-.61c.49-.75,1.34-1.54,1.32-2.3C36.57,73.85,39.77,73.43,42.52,71.86Z" style="fill:#f1e6e1"/><path d="M58.34,5.9a12,12,0,0,1,0-1.9c.22-1.4,1-2.4,2.5-2.33s2.6,1.06,2.32,2.68C62.8,6.62,63.46,6.81,65.4,6c1.34-.57,3.06-.49,3.67,1.09s-.73,2.52-1.92,3.21a8.6,8.6,0,0,1-7.28.43C58,10.06,58.31,7.7,58.34,5.9Z" style="fill:#dbedf5"/><path d="M4.63,15.82c-1.18-.06-2.71.22-3-1.63s1.07-2.83,2.63-3.08c1.32-.21,1.84-.41,1.65-1.94A2.74,2.74,0,0,1,8.57,6.06c2-.18,2.3,1.53,2.27,3C10.71,14.63,10.54,15.62,4.63,15.82Z" style="fill:#dbedf5"/><path d="M49.22,20.37C47,24.63,44.51,28.7,44.07,33.59a.68.68,0,0,1-1,.62c-.55-.16-.57-.64-.54-1.09C42.92,27.9,46,24.07,49.22,20.37Z" style="fill:#114582"/><path d="M11.63,15.21A27.18,27.18,0,0,1,24.15,25.45,109.44,109.44,0,0,0,11.63,15.21Z" style="fill:#114582"/><path d="M25,26.62a11.08,11.08,0,0,1,4,6.74c.08.44.34.89-.25,1.12-.43.17-.69-.16-.82-.49C26.93,31.54,26,29.08,25,26.62Z" style="fill:#114582"/><path d="M58.26,12.24,54.94,14.7c.23-2,1.65-2.41,2.91-3.07Z" style="fill:#114582"/><path d="M51.09,17.59c.25,1.22-.17,1.73-1.14,2C49.56,18.56,50.29,18.19,51.09,17.59Z" style="fill:#114582"/></g></g></svg>