<svg xmlns="http://www.w3.org/2000/svg" viewBox="0 0 45.37 19.34">
    <g id="Ebene_2" data-name="Ebene 2">
        <g id="Ebene_1-2" data-name="Ebene 1">
            <path d="M31.81,19.34c-7.09-2-15.19.05-23.28-.09-2.7-.05-5.47-.25-7.4-2.67C0,15.18-.46,13.76.58,12.13a2.89,2.89,0,0,0,.3-3C-.75,5.46.18,3.24,4.07,1.72A22.2,22.2,0,0,1,15.84.86c5.32.87,10.4-.26,15.59-.64,4-.3,8-.69,11.49,1.78,2.46,1.72,3,3.47,1.67,6a2.82,2.82,0,0,0,0,3.16c1.63,2.94.69,5.42-2.43,6.8S36,19.15,31.81,19.34ZM2.88,7.45C2.57,6.87,2.68,6,1.81,5.74a1.42,1.42,0,0,0,.57,2.17,2.93,2.93,0,0,0,2.46,2.48c3.67,2.42,7.42,4.56,12.68,3A61.66,61.66,0,0,1,5.41,9.26ZM4.29,3.8c3.91-.19,7.91.55,11.68-1C12,2.4,8,1.68,4.32,3.83a.72.72,0,0,0-.2.09s0,.09,0,.14ZM41.35,16.3c1.47-.2,2.7-.65,2.64-2.75l-3.15,1.87C36.66,16.82,32.07,15,28,17A24.6,24.6,0,0,0,41.35,16.3Zm-37.63.14a7.77,7.77,0,0,0,3.58,1,39.51,39.51,0,0,0,10.25-.23,52.88,52.88,0,0,0,19.8-6c1.09-.64,3.49-.7,2.93-2s-2.14.37-3.29.7C31,12.82,24.47,14,18,15.21a37.88,37.88,0,0,1-14.24.21c-.46-.19-.94-.19-1,.39S3.32,16.35,3.72,16.44ZM32.44,9.58C27.92,6,18.94,6,11.83,9.64,18.7,13.39,25.56,13.14,32.44,9.58ZM11,7.31c4.53-1.43,9.32-1.86,13.93-3s9.48-.82,14.17-1.56C29.19.74,20,3.2,11,7.31ZM27,5.84c2.28.73,4.59,1.07,6.65,2.14a.94.94,0,0,0,1.4-.29c.43-.82-.35-1.06-.85-1.28C32,5.43,29.68,4.22,27,5.84Zm9.22-.91C36.89,6.09,37.8,6,38.51,6.31s1.61.26,1.76-.55c.23-1.2-1-.65-1.48-.78A11,11,0,0,0,36.25,4.93Zm7.54-.37c-1,.43-.94,1.15-.59,2C44.28,6.12,44.27,5.44,43.79,4.56Z"
                  style="fill:#46475e"/>
            <path d="M3.74,15.42A37.88,37.88,0,0,0,18,15.21c6.49-1.2,13-2.39,19-5.27l.36,1.34a52.88,52.88,0,0,1-19.8,6,39.51,39.51,0,0,1-10.25.23,7.77,7.77,0,0,1-3.58-1C3.73,16.1,3.74,15.76,3.74,15.42Z"
                  style="fill:#d7dbe2"/>
            <path d="M11,7.31C20,3.2,29.19.74,39.1,2.74c-4.69.74-9.49.39-14.17,1.56S15.53,5.88,11,7.31Z"
                  style="fill:#c4c8d2"/>
            <path d="M5.41,9.26a61.66,61.66,0,0,0,12.11,4.12c-5.26,1.57-9-.57-12.68-3A1.27,1.27,0,0,1,5.41,9.26Z"
                  style="fill:#b6bac6"/>
            <path d="M41.35,16.3A24.6,24.6,0,0,1,28,17c4.11-2.07,8.7-.2,12.88-1.6Z" style="fill:#a4abb8"/>
            <path d="M4.32,3.83C8,1.68,12,2.4,16,2.76c-3.77,1.59-7.77.85-11.68,1Z" style="fill:#9196a6"/>
            <path d="M27,5.84c2.65-1.62,4.92-.41,7.2.57.5.22,1.28.46.85,1.28a.94.94,0,0,1-1.4.29C31.62,6.91,29.31,6.57,27,5.84Z"
                  style="fill:#b6bac6"/>
            <path d="M36.25,4.93A11,11,0,0,1,38.79,5c.52.13,1.71-.42,1.48.78-.15.81-1,.88-1.76.55S36.89,6.09,36.25,4.93Z"
                  style="fill:#c4c8d2"/>
            <path d="M41.35,16.3l-.51-.88L44,13.55C44.05,15.65,42.82,16.1,41.35,16.3Z" style="fill:#9196a6"/>
            <path d="M37.35,11.28,37,9.94c1.15-.33,2.7-2.13,3.29-.7S38.44,10.64,37.35,11.28Z" style="fill:#b6bac6"/>
            <path d="M5.41,9.26a1.27,1.27,0,0,0-.57,1.13A2.93,2.93,0,0,1,2.38,7.91l.51-.46Z" style="fill:#9196a6"/>
            <path d="M43.79,4.56c.48.88.49,1.56-.59,2C42.85,5.71,42.76,5,43.79,4.56Z" style="fill:#9196a6"/>
            <path d="M2.38,7.91a1.42,1.42,0,0,1-.57-2.17c.87.28.76,1.13,1.07,1.71Z" style="fill:#9196a6"/>
            <path d="M3.74,15.42c0,.34,0,.68,0,1-.4-.09-1,0-1-.63S3.28,15.23,3.74,15.42Z" style="fill:#b6bac6"/>
            <path d="M4.29,3.8l-.2.26s0-.12,0-.14a.72.72,0,0,1,.2-.09Z" style="fill:#9196a6"/>
        </g>
    </g>
</svg>