<svg xmlns="http://www.w3.org/2000/svg" viewBox="0 0 69.37 23.45">
    <g id="Ebene_2" data-name="Ebene 2">
        <g id="Ebene_1-2" data-name="Ebene 1">
            <path d="M35.61,7.08a61.77,61.77,0,0,1,16.14,1.7,9.88,9.88,0,0,1,4.9,2.69c2.53,2.68,2.28,5.55-.77,7.71-2.66,1.88-5.79,2.54-8.85,3.07a66.68,66.68,0,0,1-27.42-.46c-2.67-.64-5.47-1.44-6.79-4.34-1.1-2.4.07-5,3.17-6.75a28.78,28.78,0,0,1,10.8-3C30,7.37,33.23,6.61,35.61,7.08ZM16.52,17.32c-1.15-.38-1.63-1.59-2.67-2.43a3.76,3.76,0,0,0,2.08,3.71c.93.87,2.22.95,3.31,1.47,7.37,1.66,14.79,2.47,22.32,1.12,1.7.46,3.25-.43,4.89-.56,4.24-.9,8.73-1.39,10.78-6.08-2.74,3-6.66,3.16-10.23,4.11-1.73.77-3.74,0-5.43,1C34.3,19.61,27,20,19.81,18.54Zm8.17-6.45a125.61,125.61,0,0,1,23.43,0,7.25,7.25,0,0,0,4.82.69,6.2,6.2,0,0,0-4.3-1.64C42.92,8.32,37.06,8.51,31.26,9c-2,.16-4.18-.23-6,.95a12.65,12.65,0,0,0-7,1.95A13.14,13.14,0,0,0,24.69,10.87Zm29,3.69C41.41,11,29.22,11,17.12,15.25A55.43,55.43,0,0,0,53.7,14.56Z"
                  style="fill:#3c3d55"/>
            <path d="M62,12.1c-3.57.26-5.62-2.18-5.84-6C56,2,62.81-.86,65.48.24c.53.22,1.36,1,1.27,1.26-.9,2.69,3.06,2.94,2.58,5.16-.3,1.4-.44,2.78-.64,4.16-.26,1.89-2.34,1.9-4,1.7C63.75,12.41,62.88,11.7,62,12.1Zm.88-7C63.67,4.53,64,4.25,64.36,4c.71-.44,1.54-.94,1.16-1.88s-1.32-.83-2.3-.66a9.37,9.37,0,0,0-4,1.55,3.74,3.74,0,0,0-1.79,3.7c.33,1.77,1.06,3.46,3.05,4.09a2.07,2.07,0,0,0,2.71-1.16c.53-1.18.14-2-1.33-2.21a.6.6,0,0,1-.42-.87c2.15-.42,3.19.35,3.09,2.67,0,.7-.91,1.75.25,2.12a2.27,2.27,0,0,0,2.94-1c-.57-1-2.1.11-2.27-1.15s1.25-.72,1.75-1.27,1.26-.88,1-1.77-1-.62-1.62-.68C65.54,5.35,64.46,5.78,62.92,5.08Z"
                  style="fill:#3c3d55"/>
            <path d="M7.63,12.73a4.93,4.93,0,0,0-2.37.21c-2.89.8-4.12-.29-4.13-3.37,0-1-1.68-1.85-.94-2.62C1.84,5.23,1.9,2.47,3.72,1.15,6-.5,8.36,1,10.47,2.16c2.47,1.33,3.23,3.56,2.69,6.21a5.26,5.26,0,0,1-4.23,4.35A6.26,6.26,0,0,1,7.63,12.73ZM1.78,11a2.36,2.36,0,0,0,3,.92c1-.4.16-1.44.18-2.18.06-2.55.68-3,3.17-2.21-.31,1-2.3.23-2,2a2.26,2.26,0,0,0,1.38,1.85c1.28.56,2.35-.29,3.19-1a4.45,4.45,0,0,0-.47-6.83A11.84,11.84,0,0,0,5.72,1.86a1.42,1.42,0,0,0-1.65.64c-.46.81.12,1.32.68,1.84S6.43,4.78,6,5.76c-.37.74-1.32.15-2,.26-.92.15-2.31-.52-2.59.74s.77,1.85,2,2.06A.78.78,0,0,1,4,9.8c-.12.55-.59.58-1.06.6S2,10.27,1.78,11Z"
                  style="fill:#3c3d55"/>
            <path d="M19.81,18.54C27,20,34.3,19.61,41.57,19.68v1.51c-7.53,1.35-15,.54-22.32-1.12C19.23,19.48,19.17,18.88,19.81,18.54Z"
                  style="fill:#d7dbe2"/>
            <path d="M48.12,10.89a125.61,125.61,0,0,0-23.43,0l.53-.95c1.86-1.18,4.07-.79,6-.95,5.8-.46,11.66-.65,17.38,1Z"
                  style="fill:#d7dbe2"/>
            <path d="M47,18.66c3.57-.95,7.49-1.07,10.23-4.11-2,4.69-6.54,5.18-10.78,6.08C46.63,20,46.81,19.32,47,18.66Z"
                  style="fill:#a0a6b4"/>
            <path d="M47,18.66c-.19.66-.37,1.31-.55,2-1.64.13-3.19,1-4.89.56V19.68C43.26,18.69,45.27,19.43,47,18.66Z"
                  style="fill:#c4c8d2"/>
            <path d="M25.22,9.92l-.53.95a13.14,13.14,0,0,1-6.44,1A12.65,12.65,0,0,1,25.22,9.92Z" style="fill:#c4c8d2"/>
            <path d="M48.12,10.89l.52-1a6.2,6.2,0,0,1,4.3,1.64A7.25,7.25,0,0,1,48.12,10.89Z" style="fill:#c4c8d2"/>
            <path d="M19.81,18.54c-.64.34-.58.94-.57,1.53-1.09-.52-2.38-.6-3.31-1.47l.59-1.28Z" style="fill:#c4c8d2"/>
            <path d="M16.52,17.32l-.59,1.28a3.76,3.76,0,0,1-2.08-3.71C14.89,15.73,15.37,16.94,16.52,17.32Z"
                  style="fill:#a0a6b4"/>
            <path d="M62.92,5.08c1.54.7,2.62.27,3.65.38.61.06,1.34-.1,1.62.68s-.49,1.25-1,1.77-1.9.07-1.75,1.27,1.7.19,2.27,1.15a2.27,2.27,0,0,1-2.94,1c-1.16-.37-.28-1.42-.25-2.12.1-2.32-.94-3.09-3.09-2.67a.6.6,0,0,0,.42.87c1.47.16,1.86,1,1.33,2.21a2.07,2.07,0,0,1-2.71,1.16c-2-.63-2.72-2.32-3.05-4.09A3.74,3.74,0,0,1,59.26,3a9.37,9.37,0,0,1,4-1.55c1-.17,1.88-.37,2.3.66S65.07,3.58,64.36,4C64,4.25,63.67,4.53,62.92,5.08Z"
                  style="fill:#dbedf5"/>
            <path d="M1.78,11c.25-.71.76-.56,1.18-.58S3.9,10.35,4,9.8a.78.78,0,0,0-.69-1c-1.19-.21-2.23-.89-2-2.06S3,6.17,4,6c.68-.11,1.63.48,2-.26.47-1-.75-1-1.21-1.42s-1.14-1-.68-1.84a1.42,1.42,0,0,1,1.65-.64A11.84,11.84,0,0,1,10.2,3.51a4.45,4.45,0,0,1,.47,6.83c-.84.72-1.91,1.57-3.19,1A2.26,2.26,0,0,1,6.1,9.5c-.28-1.76,1.71-1,2-2C5.63,6.7,5,7.17,5,9.72c0,.74.86,1.78-.18,2.18A2.36,2.36,0,0,1,1.78,11Z"
                  style="fill:#dbedf5"/>
        </g>
    </g>
</svg>