<svg xmlns="http://www.w3.org/2000/svg" viewBox="0 0 46 16.57">
    <g>
        <path d="M22.19,16.57C16,16,10.08,16.05,4.52,13.85a7.89,7.89,0,0,1-3.16-2C-.92,9.31-.32,6.23,3.05,4.06c3.56-2.29,7.7-2.8,11.76-3.4A68.53,68.53,0,0,1,34,.69c3.69.49,7.52.9,10.34,3.89,2.52,2.69,2.17,5.57-1,7.66a22.8,22.8,0,0,1-8.87,3C30.29,16,26,16.18,22.19,16.57ZM8.4,13.26a15.62,15.62,0,0,0,6.6,1,28,28,0,0,0,12,.08,17.42,17.42,0,0,0,6.5-.7c6.3-.4,11.31-3.24,11-6.54a7.85,7.85,0,0,1-5.1,3.39l-5.89,1.6L27,12.73H15l-6-1C6.31,11,3.36,10.64,1.58,7.84,1.69,11,3.86,12.66,8.4,13.26ZM15.55,2.37c-4.37.47-8.71,1-12.25,4A50.73,50.73,0,0,1,15,3.71c2.33-.62,4.74-.13,7.09-.47,3.61.34,7.25-.2,10.85.41,1.83.36,3.67.68,5.48,1.1.61.15,1.31.56,1.51-.27s-.52-1-1.21-1.11C36.82,3,35,2.31,33,2.36c-3.59-1-7.25-.6-10.88-.52C19.86,1.38,17.74,2.3,15.55,2.37ZM4.05,7.92c7.44,4.48,31.83,3.78,37.59-.69A66.39,66.39,0,0,0,4.05,7.92Z"
              style="fill:#3c3d55"/>

        <path d="M15,12.74H27V14.3a28,28,0,0,1-12-.08Z" style="fill:#d7dbe2"/>
        <path d="M33.52,12.05l5.89-1.6a7.85,7.85,0,0,0,5.1-3.39c.29,3.3-4.72,6.14-11,6.54Z" style="fill:#a0a6b4"/>
        <path d="M22.1,1.84c3.63-.08,7.29-.48,10.88.52l0,1.29c-3.6-.61-7.24-.07-10.85-.41Z" style="fill:#d7dbe2"/>
        <path d="M15,3.71A50.73,50.73,0,0,0,3.3,6.38c3.54-3,7.88-3.54,12.25-4Z" style="fill:#a0a6b4"/>
        <path d="M8.4,13.26C3.86,12.66,1.69,11,1.58,7.84,3.36,10.64,6.31,11,9,11.71Z" style="fill:#a0a6b4"/>
        <path d="M8.4,13.26,9,11.71l6,1v1.48A15.62,15.62,0,0,1,8.4,13.26Z" style="fill:#c4c8d2"/>
        <path d="M33.52,12.05l0,1.55a17.42,17.42,0,0,1-6.5.7V12.73Z" style="fill:#c4c8d2"/>
        <path d="M33,3.65l0-1.29c2,0,3.84.63,5.75,1,.69.13,1.38.41,1.21,1.11s-.9.42-1.51.27C36.62,4.33,34.78,4,33,3.65Z"
              style="fill:#c4c8d2"/>
        <path d="M15,3.71l.54-1.34c2.19-.07,4.31-1,6.55-.53v1.4C19.75,3.58,17.34,3.09,15,3.71Z"
              style="fill:#c4c8d2"/>
    </g>
</svg>