<svg xmlns="http://www.w3.org/2000/svg" viewBox="0 0 61.08 43.85"><g id="Ebene_2" data-name="Ebene 2"><g id="Ebene_1-2" data-name="Ebene 1"><path d="M16.17,29.4c-2-4.5-4.65-8-8.74-10.33-1.07-.61-1.93-1-3,.16S1.9,20.06.79,19A2.53,2.53,0,0,1,.42,15.8,2.39,2.39,0,0,1,3.94,15c1.53.92,2.94-.53,4.33-.3,3.44.55,4.46-1.45,5.13-4.19.18-.71.53-1.16-.05-1.9C12.07,7,13.19,5.94,14.44,5.09c1.41-1,3.5-.64,3.81.58.74,3,3.79,2.91,5.33,5.1a34.85,34.85,0,0,1,2.65-2.91c1.16-1,1.92-1.71.56-3.34-1.1-1.31-.16-2.86,1.13-3.7A4.58,4.58,0,0,1,33.26.9c1.25.88,2.16,2.43,1,3.72-1.45,1.56-.44,2.21.53,3.11s2,1.85,2.93,2.78a11.75,11.75,0,0,1,4-2.59c.45-.2.43-.49.49-.84.38-2.45,2.15-2.89,4-2.18,1.66.65,3,2,1.34,4-.73.86.05,1.4.3,1.91a6.31,6.31,0,0,1,.94,4,10.93,10.93,0,0,1,4.63,0c1.28.31,2.65,1.22,4.09.15,1.18-.89,2.33-.21,3,.69a2.44,2.44,0,0,1-.13,3.22c-.89,1-2.28,1.71-3.33.61-1.69-1.76-3-.73-4.41.16a21.09,21.09,0,0,0-6.54,7.13c-.82,1.35-.63,2.1,1,2.39a9.23,9.23,0,0,1,5,2.45c3.07,3,2.66,6.16-1.08,8.36a24,24,0,0,1-8.16,2.68,68.69,68.69,0,0,1-27.47-.41A14.71,14.71,0,0,1,11.88,41c-4-2.13-5.56-5.83-.79-9.41A17.8,17.8,0,0,1,16.17,29.4ZM28.61,4.66c.75,1,1.8.5,2.73.55a1.63,1.63,0,0,0,1.77-1.35c.24-1,0-1.76-1.1-2a2.65,2.65,0,0,0-3.57.34A1.52,1.52,0,0,0,28.61,4.66ZM12.85,38a8.36,8.36,0,0,1-3.17-2.89c.25,2.62.28,2.67,2.41,3.92A8.67,8.67,0,0,0,16.8,40.8c6.44,1.36,12.9,2.18,19.46.84,2.23.42,4.34-.36,6.51-.61,7.91-1.94,9.82-3.11,10.12-6.22-3.08,2.59-4.76,3.3-10.11,4.28l-6.53,1.1c-6.16-.25-12.36.25-18.49-.8ZM46.63,15c.83.08,1.23-.33,1-1.11A9.07,9.07,0,0,0,46,10.32c-1.75-2.09-6.08-1.56-7.32.92-.44.9.27,1.25.8,1.69l1.89,4.76C43,16.28,45,16,46.63,15ZM14.46,15c1.6.77,3.28,2.27,4.78,2.11,1.81-.19,1.39-3,2.63-4.29a5.66,5.66,0,0,0,.68-1.12A5.8,5.8,0,0,0,17,8.7c-1.77.22-2.87,2.47-3.37,4.46a4.49,4.49,0,0,0-.22,1.3C13.47,15.1,14,15,14.46,15Zm36.63,3.83,1-.63L55,16.64c-5.06-1.26-10-.31-13.11,2.56-1.15,1.07-1.55,1.08-1.81-.46-.74-4.31-3.32-7.51-6.4-10.36-2.25-2.1-3.93-2.15-6.13-.14-3.1,2.83-5.72,6-6.52,10.3-.29,1.57-.42,1.94-1.89.63-3.6-3.21-8-3.51-12.67-2.27l3,1.42c.45.42.87.88,1.35,1.27A20.52,20.52,0,0,1,18.43,33c-.19,1,.17,1.39,1.22,1.63a48.8,48.8,0,0,0,21.71,0c.82-.19,1.34-.4,1.38-1.31.21-5.2,3-9.14,6.26-12.87l.4-.34ZM12.77,35.57c5.91,4.37,32.26,3.58,36.78-.82-1.41-.41-2.76-.88-4.15-1.17-.43-.08-1.31-.72-1.49.41-.23,1.38-1.41,1.43-2.39,1.81a29.5,29.5,0,0,1-7.42,1.36c-5.35.6-10.81.33-15.64-1.95C16,34.06,14.67,34.57,12.77,35.57Zm36.45-3.2c-.86-1.67-2.55-1.39-3.76-2a.64.64,0,0,0-1,.51c-.06.48.06,1,.61,1C46.43,31.84,47.61,32.84,49.22,32.37Zm10.48-15c0-.71-.12-1.28-1-1.29s-1.66,0-1.74,1.19a1.18,1.18,0,0,0,1.29,1.39C58.9,18.61,59.74,18.36,59.7,17.36ZM11.14,34.2c1.25-.48,2.12-.85,3-1.16s1.83-.6,3.17-1C14.79,31.3,13.2,31.9,11.14,34.2ZM4,16.73c-.12-.44-.79-.67-1.67-.63s-1,.57-1,1.26c0,.95.81,1.2,1.43,1.2S4.23,18.23,4,16.73Zm10.8-8.44c.68-.67,1.91-.77,2.14-1.87.08-.43-.53-.66-1-.65a2,2,0,0,0-1.91,1.59C13.94,7.79,14.35,8.14,14.84,8.29Z" style="fill:#3c3d55"/><path d="M18.43,33a20.52,20.52,0,0,0-7.59-13.45c-.48-.39-.9-.85-1.35-1.27,4.24-.41,8,.4,10.42,4.33A10.5,10.5,0,0,0,20,25a1.87,1.87,0,0,0,2.25,1.43,2.06,2.06,0,0,0,1.93-1.91c.13-1.81-1.08-2.47-2.7-2.59.48-1.45,1.57-2.6,1.91-4.14.74-3.37,2.75-6,5-8.5,1.23-1.35,1.84-1.44,3.11,0,2,2.18,3.09,4.85,4.67,7.26,1.12,1.71,2.69,3.2,2.78,5.44a2.3,2.3,0,0,0-2.15,2.57,2.06,2.06,0,0,0,1.92,1.9A1.86,1.86,0,0,0,41,25.29,2.27,2.27,0,0,0,40,22.12a3,3,0,0,0,2.39-1c2-1.91,4.51-2.83,7-3.69.94-.32,2.15-.83,2.63.77l-1,.63c-1-.06-1.78,0-1.69,1.31l-.4.34a2.83,2.83,0,0,0-2.46.84,15.85,15.85,0,0,0-5.89,10.08c-.11.82-.1,2-1.06,1.95-3.42,0-6.61,1.67-10.17,1S22.1,33.45,18.43,33Zm13.18-4.93c.68.09.82-.51,1.06-1,.74-1.44,1.46-2.88,2.19-4.32a2.43,2.43,0,0,0-.26-2.74c-3.68-5.42-3.65-5.44-7,.1-.14.23-.26.47-.39.71C26.24,22.63,29.55,28.11,31.61,28.11Z" style="fill:#a4abb8"/><path d="M39,22c-.09-2.24-1.66-3.73-2.78-5.44-1.58-2.41-2.69-5.08-4.67-7.26-1.27-1.4-1.88-1.31-3.11,0-2.28,2.52-4.29,5.13-5,8.5C23.09,19.37,22,20.52,21.52,22l-1.61.68c-2.44-3.93-6.18-4.74-10.42-4.33l-3-1.42c4.7-1.24,9.07-.94,12.67,2.27,1.47,1.31,1.6.94,1.89-.63.8-4.28,3.42-7.47,6.52-10.3,2.2-2,3.88-2,6.13.14,3.08,2.85,5.66,6,6.4,10.36.26,1.54.66,1.53,1.81.46,3.13-2.87,8-3.82,13.11-2.56l-2.9,1.58c-.48-1.6-1.69-1.09-2.63-.77-2.53.86-5.07,1.78-7,3.69a3,3,0,0,1-2.39,1Z" style="fill:#c4c8d2"/><path d="M18.43,33c3.67.41,7.38.58,11,1.29s6.75-1,10.17-1c1,0,.95-1.13,1.06-1.95a15.85,15.85,0,0,1,5.89-10.08A2.83,2.83,0,0,1,49,20.5c-3.24,3.73-6,7.67-6.26,12.87,0,.91-.56,1.12-1.38,1.31a48.8,48.8,0,0,1-21.71,0C18.6,34.43,18.24,34,18.43,33Z" style="fill:#c4c8d2"/><path d="M12.77,35.57c1.9-1,3.26-1.51,5.69-.36,4.83,2.28,10.29,2.55,15.64,1.95a29.5,29.5,0,0,0,7.42-1.36c1-.38,2.16-.43,2.39-1.81.18-1.13,1.06-.49,1.49-.41,1.39.29,2.74.76,4.15,1.17C45,39.15,18.68,39.94,12.77,35.57Z" style="fill:#f3f3f5"/><path d="M36.26,41.64c-6.56,1.34-13,.52-19.46-.84a1.43,1.43,0,0,0,1-1.41c6.13,1,12.33.55,18.49.8Z" style="fill:#d7dbe2"/><path d="M22.55,11.72a5.66,5.66,0,0,1-.68,1.12c-1.24,1.29-.82,4.1-2.63,4.29-1.5.16-3.18-1.34-4.78-2.11A15.06,15.06,0,0,1,15,13.5c1.57-3.4,1.56-3.36,5.18-2A9.41,9.41,0,0,0,22.55,11.72Z" style="fill:#a4abb8"/><path d="M46.63,15C45,16,43,16.28,41.4,17.69l-1.89-4.76c3.41-3.69,4.3-3.6,6.42.65C46.17,14.06,46.4,14.55,46.63,15Z" style="fill:#a4abb8"/><path d="M46.63,15c-.23-.48-.46-1-.7-1.45-2.12-4.25-3-4.34-6.42-.65-.53-.44-1.24-.79-.8-1.69,1.24-2.48,5.57-3,7.32-.92a9.07,9.07,0,0,1,1.61,3.6C47.86,14.7,47.46,15.11,46.63,15Z" style="fill:#c4c8d2"/><path d="M42.78,39.09c5.35-1,7-1.69,10.11-4.28-.3,3.11-2.21,4.28-10.12,6.22Z" style="fill:#a0a6b4"/><path d="M22.55,11.72a9.41,9.41,0,0,1-2.4-.23c-3.62-1.35-3.61-1.39-5.18,2A15.06,15.06,0,0,0,14.46,15c-.43,0-1,.08-1-.56a4.49,4.49,0,0,1,.22-1.3c.5-2,1.6-4.24,3.37-4.46A5.8,5.8,0,0,1,22.55,11.72Z" style="fill:#c4c8d2"/><path d="M42.78,39.09V41c-2.17.25-4.28,1-6.51.61,0-.48,0-1,0-1.45Z" style="fill:#c4c8d2"/><path d="M17.76,39.39a1.43,1.43,0,0,1-1,1.41,8.67,8.67,0,0,1-4.71-1.74,1,1,0,0,0,.76-1Z" style="fill:#c4c8d2"/><path d="M32,1.84c1.13.26,1.34,1.06,1.1,2a1.63,1.63,0,0,1-1.77,1.35c-.93,0-2,.43-2.73-.55C30.17,4.23,31,3,32,1.84Z" style="fill:#c4c8d2"/><path d="M32,1.84C31,3,30.17,4.23,28.61,4.66a1.52,1.52,0,0,1-.17-2.48A2.65,2.65,0,0,1,32,1.84Z" style="fill:#a4abb8"/><path d="M49.22,32.37c-1.61.47-2.79-.53-4.14-.52-.55,0-.67-.51-.61-1a.64.64,0,0,1,1-.51C46.67,31,48.36,30.7,49.22,32.37Z" style="fill:#c4c8d2"/><path d="M59.7,17.36c0,1-.8,1.25-1.44,1.29A1.18,1.18,0,0,1,57,17.26c.08-1.15.89-1.2,1.74-1.19S59.74,16.65,59.7,17.36Z" style="fill:#a4abb8"/><path d="M11.14,34.2c2.06-2.3,3.65-2.9,6.18-2.2-1.34.44-2.26.71-3.17,1S12.39,33.72,11.14,34.2Z" style="fill:#a0a6b4"/><path d="M4,16.73c.19,1.5-.54,1.85-1.22,1.83s-1.41-.25-1.43-1.2c0-.69.15-1.22,1-1.26S3.92,16.29,4,16.73Z" style="fill:#b6bac6"/><path d="M12.85,38a1,1,0,0,1-.76,1c-2.13-1.25-2.16-1.3-2.41-3.92A8.36,8.36,0,0,0,12.85,38Z" style="fill:#a0a6b4"/><path d="M14.84,8.29c-.49-.15-.9-.5-.78-.93A2,2,0,0,1,16,5.77c.48,0,1.09.22,1,.65C16.75,7.52,15.52,7.62,14.84,8.29Z" style="fill:#a0a6b4"/><path d="M49.4,20.16c-.09-1.28.74-1.37,1.69-1.31Z" style="fill:#c4c8d2"/><path d="M31.61,28.11c-2.06,0-5.37-5.48-4.42-7.22.13-.24.25-.48.39-.71,3.37-5.54,3.34-5.52,7-.1a2.43,2.43,0,0,1,.26,2.74c-.73,1.44-1.45,2.88-2.19,4.32C32.43,27.6,32.29,28.2,31.61,28.11Z" style="fill:#3d3e56"/><path d="M39,22l1,.13A2.27,2.27,0,0,1,41,25.29a1.86,1.86,0,0,1-2.16,1.17,2.06,2.06,0,0,1-1.92-1.9A2.3,2.3,0,0,1,39,22Z" style="fill:#3c3d55"/><path d="M19.91,22.65,21.52,22c1.62.12,2.83.78,2.7,2.59a2.06,2.06,0,0,1-1.93,1.91A1.87,1.87,0,0,1,20,25,10.5,10.5,0,0,1,19.91,22.65Z" style="fill:#3c3d55"/></g></g></svg>