<svg xmlns="http://www.w3.org/2000/svg" viewBox="0 0 72.86 100.63"><g id="Ebene_2" data-name="Ebene 2"><g id="Ebene_1-2" data-name="Ebene 1"><path d="M62.19,50.18c1.16-1.07,2.07-1.7,3,.39.53,1.15,2.34,1.67,1.36,4,1.8-1.28,3.27-1.23,4.26-.27s.06,2.24-.41,3.27c-.94,2.07,0,4,.65,5.75,5,12.82-1.14,25.41-11.52,31.46-.91.53-1.74.93-1.53,2.2.1.6-.42,1-.78,1.36-2.35,2.53-7.4,3.07-10.32,1-.7-.5-1.38-.24-2.07-.34-4.57-.68-9.15.22-13.73-.06a9.15,9.15,0,0,1-4.26-1.52c-1.73-1-2.2-2.4-.89-4,.54-.66.69-.94,0-1.67-6.32-7-6.49-14.86-2.78-23.13l.49-1.11A25.42,25.42,0,0,1,9.86,62.37C2.35,56.51-.67,48.8.12,39.3,1.18,26.65,11.53,15.1,22.86,11.45c-.65-1.36-1.26-2.74-2-4.06a3.3,3.3,0,0,1,.61-4.21,3.84,3.84,0,0,1,4.18-1.11c3.41,1.11,3.43,1.05,6.66-1C35.18-.79,37-.2,37.61,2.8c2.08-.37,4.63-1.65,6,.47s-1.14,3.51-2.19,5.1c-.69,1.06-1.55,2-2.54,3.25A28.72,28.72,0,0,1,50.5,17.14c6.63,5.51,10.16,12.66,11.43,21.13a43.53,43.53,0,0,1-.27,11.35,1.27,1.27,0,0,0-.11,1.64Zm6.42,30.35C68,81.65,66.16,81.48,66,83c-.45,3.31-2.84,3.91-5.51,3.92a10.35,10.35,0,0,0-4.86,1,6.78,6.78,0,0,1-9.7-5.45c-.32-2.79.94-5.09,2.76-7.09a1.44,1.44,0,0,1,2-.34c.76.62-.09,1.07-.46,1.49a8.39,8.39,0,0,0-1.89,3.26,5.48,5.48,0,0,0,1.27,5.8,4.32,4.32,0,0,0,4.52,1c1.57-.53,3-1.4,2.73-3.18a2.85,2.85,0,0,0-3.27-2.58c-.54,0-1.49.36-1.38-.68.07-.63.75-.88,1.46-1a4.55,4.55,0,0,1,5,4.21c.07.62-.46,1.44.63,1.8a4.19,4.19,0,0,0,5.08-2.62,7.37,7.37,0,0,1-2.43-.22c-.8-.36-2.42-.38-2-1.65.27-.9,1.5-.19,2.35-.08,2.09.26,4.23.28,5.4-2,.49-.92.7-1.75-1-1.38a4.92,4.92,0,0,1-5-1.57,5,5,0,0,1,3.38,0,5,5,0,0,0,4.53-1.12,1.76,1.76,0,0,0,.48-2c-.12-.59-.76-.56-1.12-.41-3.92,1.65-7-2-11.23-1.07.89-1.37,1.56-1.63,2.42-1.73,1.81-.2,3.34.75,4.92,1.27a6.37,6.37,0,0,0,5.37-.61c1.1-.76.1-3.09-.62-4.49A12.52,12.52,0,0,1,69,55.48a1.6,1.6,0,0,0-1.65.24,7.49,7.49,0,0,1-1.45.71c-1.52.45-1.63-.27-.44-3.45-.87,1.54-2-1-2.52.27-1.24,3-3.85,4.74-5.66,7.19-.46.62-.89,1.73-1.82,1.2s-.14-1.44.24-2.07a31,31,0,0,0,3.91-23.18c-2.31-10.78-8.14-18.77-19-22.28-1-.34-2.17-1-3.31-.32-.48.28-.86.76-1.35.1-.38-.51-.17-1,.12-1.5a15.65,15.65,0,0,1,2-2.87,18.4,18.4,0,0,0,3.87-5.45,7.33,7.33,0,0,0-6.34,2.6c-.46.55-1,.89-1.64.47-.8-.54-.12-1.16.14-1.65.6-1.14,1.48-2.15,1.48-3.56A2.58,2.58,0,0,0,32.79,3C30.91,6.4,29,7.7,25.89,4.18a2.32,2.32,0,0,0-3.21.27c-1,1-.23,2,.18,3a12.52,12.52,0,0,0,4.82,5.35c.7.49,2.38,1.08,1.49,2.27s-1.82-.3-2.44-.81c-1.64-1.34-3.14-1.89-5.05-.53a34.91,34.91,0,0,1-3.11,1.59,29.79,29.79,0,0,0-9.69,8.24c6.57,0,9.12,1.48,10.45,5.75a13.2,13.2,0,0,1-5,14.14c-4.25,2.93-7.44,2.68-12.22-1-.91,8.64,5.37,18.1,14.55,21.48s18.06,1.89,26.45-3c.61-.36,1.36-1.43,2.07-.37.84,1.24-.56,1.47-1.21,1.89a35.37,35.37,0,0,1-16.3,5.25c-1,.09-1.76.13-2.41,1.23-4.62,7.85-2.49,18.49,4.9,23.72,6.42,4.55,13.6,5.35,20.93,3.33,8.13-2.25,14.82-6.63,18-15A.73.73,0,0,0,69.33,80ZM13.1,33a2.79,2.79,0,0,0,2.4-3,2,2,0,0,0-2.34-2,2.4,2.4,0,0,0-2.6,2.52C10.52,32.05,11.46,32.78,13.1,33ZM5.83,37.25a2.37,2.37,0,0,0-2.16,2.64A2.18,2.18,0,0,0,6,42.25a2.18,2.18,0,0,0,2.3-2.42A2.47,2.47,0,0,0,5.83,37.25ZM32.89,96.82,28.2,94.17C29,96.64,30.82,97,32.89,96.82ZM15.16,34.52c-.65-.06-.83.53-.83,1.22A1.12,1.12,0,0,0,15.44,37c.89,0,1.25-.53,1.2-1.4S16.13,34.51,15.16,34.52ZM54.88,97.15,49.3,98.71C51.77,99.06,53.47,98.74,54.88,97.15Z" style="fill:#3b3c54"/><path d="M69.1,81c-3.2,8.37-9.89,12.75-18,15-7.33,2-14.51,1.22-20.93-3.33-7.39-5.23-9.52-15.87-4.9-23.72.65-1.1,1.4-1.14,2.41-1.23A35.37,35.37,0,0,0,44,62.5c.65-.42,2-.65,1.21-1.89-.71-1.06-1.46,0-2.07.37-8.39,4.85-17.2,6.36-26.45,3S1.19,51.1,2.1,42.46c4.78,3.65,8,3.9,12.22,1a13.2,13.2,0,0,0,5-14.14C18,25,15.45,23.55,8.88,23.54a29.79,29.79,0,0,1,9.69-8.24,34.91,34.91,0,0,0,3.11-1.59c1.91-1.36,3.41-.81,5.05.53.62.51,1.62,1.91,2.44.81s-.79-1.78-1.49-2.27a12.52,12.52,0,0,1-4.82-5.35c-.41-1-1.14-2-.18-3a2.32,2.32,0,0,1,3.21-.27C29,7.7,30.91,6.4,32.79,3a2.58,2.58,0,0,1,2.74-1.07c0,1.41-.88,2.42-1.48,3.56-.26.49-.94,1.11-.14,1.65.63.42,1.18.08,1.64-.47a7.33,7.33,0,0,1,6.34-2.6A18.4,18.4,0,0,1,38,9.52a15.65,15.65,0,0,0-2,2.87c-.29.51-.5,1-.12,1.5.49.66.87.18,1.35-.1,1.14-.68,2.27,0,3.31.32,10.91,3.51,16.74,11.5,19,22.28a31,31,0,0,1-3.91,23.18c-.38.63-1.26,1.49-.24,2.07s1.36-.58,1.82-1.2C59.1,58,61.71,56.2,63,53.25,63.5,52,64.6,54.52,65.47,53c-1.19,3.18-1.08,3.9.44,3.45a7.49,7.49,0,0,0,1.45-.71A1.6,1.6,0,0,1,69,55.48a12.52,12.52,0,0,0,.69,10.09c.72,1.4,1.72,3.73.62,4.49a6.37,6.37,0,0,1-5.37.61c-1.58-.52-3.11-1.47-4.92-1.27-.86.1-1.53.36-2.42,1.73,4.22-.92,7.31,2.72,11.23,1.07.36-.15,1-.18,1.12.41a1.76,1.76,0,0,1-.48,2A5,5,0,0,1,65,75.72a5,5,0,0,0-3.38,0,4.92,4.92,0,0,0,5,1.57c1.73-.37,1.52.46,1,1.38-1.17,2.25-3.31,2.23-5.4,2-.85-.11-2.08-.82-2.35.08-.39,1.27,1.23,1.29,2,1.65a7.37,7.37,0,0,0,2.43.22,4.19,4.19,0,0,1-5.08,2.62c-1.09-.36-.56-1.18-.63-1.8a4.55,4.55,0,0,0-5-4.21c-.71.09-1.39.34-1.46,1-.11,1,.84.72,1.38.68a2.85,2.85,0,0,1,3.27,2.58c.25,1.78-1.16,2.65-2.73,3.18a4.32,4.32,0,0,1-4.52-1,5.48,5.48,0,0,1-1.27-5.8,8.39,8.39,0,0,1,1.89-3.26c.37-.42,1.22-.87.46-1.49a1.44,1.44,0,0,0-2,.34c-1.82,2-3.08,4.3-2.76,7.09a6.78,6.78,0,0,0,9.7,5.45,10.35,10.35,0,0,1,4.86-1c2.67,0,5.06-.61,5.51-3.92.2-1.5,2-1.33,2.65-2.45ZM36.67,47.17A11.68,11.68,0,0,0,48.23,35.32c.07-6.19-5.06-12-10.84-11.61C30.57,24.2,26.07,28.87,26,35.89S31.13,47.43,36.67,47.17Zm-13,1.51c.53-2.21-1.2-3.29-2.65-4.46s-2.5.08-3.64.69c-1.58.84-3.11,1.77-4.7,2.6-.64.32-1.51.45-1.39,1.36s1,1.05,1.64,1.18c2.62.54,5.26,1,7.91,1.42C22.91,51.82,23.93,51,23.66,48.68Z" style="fill:#dff0f8"/><path d="M13.1,33c-1.64-.22-2.58-1-2.54-2.48A2.4,2.4,0,0,1,13.16,28a2,2,0,0,1,2.34,2A2.79,2.79,0,0,1,13.1,33Z" style="fill:#f8f8f9"/><path d="M5.83,37.25a2.47,2.47,0,0,1,2.5,2.58A2.18,2.18,0,0,1,6,42.25a2.18,2.18,0,0,1-2.36-2.36A2.37,2.37,0,0,1,5.83,37.25Z" style="fill:#f3f3f5"/><path d="M32.89,96.82c-2.07.22-3.94-.18-4.69-2.65Z" style="fill:#9aa0af"/><path d="M15.16,34.52c1,0,1.43.3,1.48,1.08S16.33,37,15.44,37a1.12,1.12,0,0,1-1.11-1.26C14.33,35.05,14.51,34.46,15.16,34.52Z" style="fill:#f3f3f5"/><path d="M54.88,97.15c-1.41,1.59-3.11,1.91-5.58,1.56Z" style="fill:#9aa0af"/><path d="M62.19,50.18l-.64,1.08a1.27,1.27,0,0,1,.11-1.64Z" style="fill:#fefefe"/><path d="M68.61,80.53l.72-.57A.73.73,0,0,1,69.1,81Z" style="fill:#dff0f8"/><path d="M36.67,47.17C31.13,47.43,26,43,26,35.89S30.57,24.2,37.39,23.71c5.78-.41,10.91,5.42,10.84,11.61A11.68,11.68,0,0,1,36.67,47.17Zm7.25-15c0-1.32-.28-2.84-2.14-2.87A2.57,2.57,0,0,0,39,32.16,2.67,2.67,0,0,0,41.89,35C43.4,35,44,33.88,43.92,32.16Zm-8.09,9.37c0-1.86-.79-2.74-2.36-2.61a2.19,2.19,0,0,0-2.16,2.58,2.21,2.21,0,0,0,2.45,2.32C35.44,43.78,35.8,42.61,35.83,41.53Zm9.1-3.16a1,1,0,0,0-1.16-1.25c-.75,0-1.5.16-1.51,1.11a1.16,1.16,0,0,0,1.18,1.2A1.29,1.29,0,0,0,44.93,38.37Z" style="fill:#393a53"/><path d="M23.66,48.68c.27,2.3-.75,3.14-2.83,2.79-2.65-.44-5.29-.88-7.91-1.42-.65-.13-1.53-.36-1.64-1.18s.75-1,1.39-1.36c1.59-.83,3.12-1.76,4.7-2.6,1.14-.61,2.24-1.82,3.64-.69S24.19,46.47,23.66,48.68Zm-7.38-1.21c1.49.39,2.9-.27,4,.44.05,1.06-1.33.51-1.1,1.34.17.62.88.54,1.41.53,2.32,0,1.62-1.59,1.12-2.62C20.69,45,19.52,45.06,16.28,47.47Z" style="fill:#3b3c54"/><path d="M43.92,32.16c.12,1.72-.52,2.82-2,2.79A2.67,2.67,0,0,1,39,32.16a2.57,2.57,0,0,1,2.82-2.87C43.64,29.32,44,30.84,43.92,32.16Z" style="fill:#f8f8f9"/><path d="M35.83,41.53c0,1.08-.39,2.25-2.07,2.29a2.21,2.21,0,0,1-2.45-2.32,2.19,2.19,0,0,1,2.16-2.58C35,38.79,35.8,39.67,35.83,41.53Z" style="fill:#f8f8f9"/><path d="M44.93,38.37a1.29,1.29,0,0,1-1.49,1.06,1.16,1.16,0,0,1-1.18-1.2c0-.95.76-1.13,1.51-1.11A1,1,0,0,1,44.93,38.37Z" style="fill:#f3f3f5"/><path d="M16.28,47.47c3.24-2.41,4.41-2.49,5.44-.31.5,1,1.2,2.6-1.12,2.62-.53,0-1.24.09-1.41-.53-.23-.83,1.15-.28,1.1-1.34C19.18,47.2,17.77,47.86,16.28,47.47Z" style="fill:#4495c5"/></g></g></svg>