<svg xmlns="http://www.w3.org/2000/svg" viewBox="0 0 71.49 96.95"><g id="Ebene_2" data-name="Ebene 2"><g id="Ebene_1-2" data-name="Ebene 1"><path d="M64,32.92a25.4,25.4,0,0,1,2.55-.85,2.51,2.51,0,0,1,2.49.76,2,2,0,0,1-.23,2.52c-2.34,2.92-1.83,6-.52,9.15,3.48,8.39,4.58,17.09,1.12,25.6S60.46,85.41,52.14,89.63c-1.2.61-2.56,1-2.13,2.8.06.26-.28.64-.48.93-2.07,3-10.42,4.82-13.18,2.63a3.42,3.42,0,0,0-2.62-.8,35.42,35.42,0,0,1-11-.92,7.52,7.52,0,0,0-3.91.08,13.26,13.26,0,0,1-9.15-1.29C7,91.81,6.28,89.64,7.72,87.33c.75-1.21-.18-1.47-.61-1.93A25.3,25.3,0,0,1,0,68a32.39,32.39,0,0,1,6.1-19.27c1.15-1.69,1.45-2.65-.18-4.42-9.09-9.9-6.72-24.77,5-32.55a34.18,34.18,0,0,1,6.85-3.4c-.35-.75-.66-1.47-1-2.17C16.05,4.8,15.24,3.35,16.57,2a3.64,3.64,0,0,1,4.55-.3c1.6.92,2.46.84,3.44-.62C25,.37,26.08-.32,26.63.16c1.78,1.54,3.68,1.56,5.89,1.53,1.56,0,1.72,1.56,1,2.9s-1.87,2.22-2.18,3.69C41.53,11.87,51.13,23,48.57,38.53c3.17-.83,4.59-3.3,6-5.76,1-1.72,1.66-3.58,2.59-5.32C58,25.89,59,25,60,27.34c.19.41.4.83.94.87,2.77.21,2.47,2.3,2.54,4.16-.06.2-.11.4-.17.59ZM66.78,68.4a8.42,8.42,0,0,1-3.69,3.09,1.54,1.54,0,0,0-1,1.1c-1.55,5-5,7-10.06,5.57a2.34,2.34,0,0,0-2.4.4c-5.28,3.86-11.13,2.22-13.71-3.83-2-4.8-.1-9.38,2.78-12.4.46-.48,1.16-1.17,1.88-.63s.12,1.27-.27,1.86c-.6.91-1.17,1.84-1.73,2.77a9.17,9.17,0,0,0-1,6.81,6.5,6.5,0,0,0,10.46,4,4,4,0,0,0,1.14-5.35c-.86-1.71-2.3-2.8-4.45-2.09-.66.21-1.43,1.44-2,.2-.42-1,.65-1.51,1.47-1.93a3.63,3.63,0,0,1,3.61,0c2.63,1.41,4.21,3.43,3.9,6.5-.1,1.06,0,1.71,1.07,2.1a6.53,6.53,0,0,0,7.2-2.45c.68-1.15.69-1.92-1-1.73a7.46,7.46,0,0,1-4.89-1.2c-.39-.24-.81-.55-.68-1.07.2-.75.88-.48,1.35-.43a5,5,0,0,1,1.24.5c4.2,1.75,9.43-.85,9.59-5.07-3.1.62-6.09.76-9-1.9a6.39,6.39,0,0,1,3.21.16c3.63,1,6.51,0,8.26-2.85.48-.79.95-1.67.28-2.5-.52-.65-1.35-.41-2-.09a7.46,7.46,0,0,1-5.77.25c-2.13-.69-4.22-1.51-6.37-2.13-.82-.24-2.33.14-2.24-.87s1.6-.82,2.56-.79a7,7,0,0,1,1.28.4c3.75,1,7.3,2.78,11.48,1.34,1.61-.55,2.22-.68,1.5-2.31a15.77,15.77,0,0,1-.72-2c-1.71-5.87-4.77-11.66-.76-18.13l-2.38.68c-1.36.37-2.27,2.77-3.58,1.78-1.58-1.19.33-2.86.53-4.36.08-.62.35-2.24-1.11-1.32-2,1.29-1.92-.16-2.13-1.4-1,.67-1,1.77-1.37,2.65C56,34.57,54.61,37.65,51.87,39a13.15,13.15,0,0,0-6.5,6.89c-.37.82-1,1.88-2,1.31s-.24-1.63.22-2.32C51.33,33.15,45,14.61,29.68,9.81c-1.73-.55-1.62-1-.78-2.12a16.91,16.91,0,0,0,2.59-3.94c-1.95,0-2.61,2-4,2-2.6.09.27-2.56-1.35-3.14-.63.57-5.05,1.07-6,.71-.69-.25-1.51-.47-2.05.08s-.07,1.14.17,1.75a8.67,8.67,0,0,0,4.11,4.17c.46.27,1.33.51.7,1.4a1,1,0,0,1-1.62.2c-1.44-1.21-2.93-.58-4.33,0-7.66,3-11.77,8.31-13.64,16.68C.18,42.33,15.4,51.4,25.63,49.12a39.73,39.73,0,0,0,8.22-2.61c.69-.33,1.45-.62,1.9.2s-.23,1.31-.89,1.67c-.39.21-.8.4-1.21.59A24.19,24.19,0,0,1,10.8,48.4C9.48,47.7,8.87,47.66,8,49A49.09,49.09,0,0,0,4.45,55.7C-1,68.7,3,82,14.39,88.54,22.27,93.1,30.82,93.77,39.55,92c13.32-2.75,23-10.06,27.73-23.14.18-.43.47-.86,0-1.26ZM9.43,88c-.18,3.12,2.8,4.83,6.94,4.2Zm29,6.53a12.49,12.49,0,0,0,8.76-1.67l-.2-.77Z" style="fill:#3c3e56"/><path d="M67.28,68.82C62.52,81.9,52.87,89.21,39.55,92c-8.73,1.81-17.28,1.14-25.16-3.42C3,82-1,68.7,4.45,55.7A49.09,49.09,0,0,1,8,49c.84-1.38,1.45-1.34,2.77-.64A24.19,24.19,0,0,0,33.65,49c.41-.19.82-.38,1.21-.59.66-.36,1.37-.81.89-1.67s-1.21-.53-1.9-.2a39.73,39.73,0,0,1-8.22,2.61C15.4,51.4.18,42.33,3.48,27.58c1.87-8.37,6-13.68,13.64-16.68,1.4-.55,2.89-1.18,4.33,0a1,1,0,0,0,1.62-.2c.63-.89-.24-1.13-.7-1.4a8.67,8.67,0,0,1-4.11-4.17c-.24-.61-.63-1.28-.17-1.75s1.36-.33,2.05-.08c1,.36,5.4-.14,6-.71,1.62.58-1.25,3.23,1.35,3.14,1.36,0,2-2,4-2A16.91,16.91,0,0,1,28.9,7.69c-.84,1.1-.95,1.57.78,2.12C45,14.61,51.33,33.15,43.6,44.88c-.46.69-1.35,1.68-.22,2.32s1.62-.49,2-1.31A13.15,13.15,0,0,1,51.87,39c2.74-1.35,4.11-4.43,5.35-7.29.38-.88.39-2,1.37-2.65.21,1.24.09,2.69,2.13,1.4,1.46-.92,1.19.7,1.11,1.32-.2,1.5-2.11,3.17-.53,4.36,1.31,1,2.22-1.41,3.58-1.78l2.38-.68c-4,6.47-1,12.26.76,18.13a15.77,15.77,0,0,0,.72,2c.72,1.63.11,1.76-1.5,2.31-4.18,1.44-7.73-.34-11.48-1.34a7,7,0,0,0-1.28-.4c-1,0-2.46-.35-2.56.79s1.42.63,2.24.87c2.15.62,4.24,1.44,6.37,2.13A7.46,7.46,0,0,0,66.3,58c.67-.32,1.5-.56,2,.09.67.83.2,1.71-.28,2.5-1.75,2.83-4.63,3.87-8.26,2.85a6.39,6.39,0,0,0-3.21-.16c2.93,2.66,5.92,2.52,9,1.91C65.43,69.35,60.2,72,56,70.2a5,5,0,0,0-1.24-.5c-.47,0-1.15-.32-1.35.43-.13.52.29.83.68,1.07A7.46,7.46,0,0,0,59,72.4c1.64-.19,1.63.58,1,1.73a6.53,6.53,0,0,1-7.2,2.45c-1-.39-1.17-1-1.07-2.1.31-3.07-1.27-5.09-3.9-6.5a3.63,3.63,0,0,0-3.61,0c-.82.42-1.89,1-1.47,1.93.53,1.24,1.3,0,2-.2,2.15-.71,3.59.38,4.45,2.09A4,4,0,0,1,48,77.19a6.5,6.5,0,0,1-10.46-4,9.17,9.17,0,0,1,1-6.81c.56-.93,1.13-1.86,1.73-2.77.39-.59,1.08-1.24.27-1.86s-1.42.15-1.88.63c-2.88,3-4.82,7.6-2.78,12.4,2.58,6,8.43,7.69,13.71,3.83a2.34,2.34,0,0,1,2.4-.4c5,1.41,8.51-.56,10.06-5.57a1.54,1.54,0,0,1,1-1.1,8.42,8.42,0,0,0,3.69-3.09ZM27.52,34.22c4.3,0,7.31-3.15,7.29-7.7,0-3.94-2.35-6.46-6-6.49-4.09,0-7.13,3.17-7.16,7.56C21.58,31.45,24,34.19,27.52,34.22ZM10.74,19.43c-3.5,0-6,3.24-5.92,7.67,0,2.94,2.05,4.78,5.28,4.8,2.83,0,6.16-4,6.06-7.26A5.23,5.23,0,0,0,10.74,19.43Zm9.9,16.23c0-2.86-2.36-4.65-5-3.62-1.59.61-3.09,1.43-4.65,2.13s-1.67,1.52-.06,2.3c1.77.86,3.53,1.78,5.38,2.46C18.64,39.79,20.61,38.23,20.64,35.66Z" style="fill:#dff0f8"/><path d="M9.43,88l6.94,4.2C12.23,92.87,9.25,91.16,9.43,88Z" style="fill:#9aa0af"/><path d="M38.43,94.57,47,92.13l.2.77A12.49,12.49,0,0,1,38.43,94.57Z" style="fill:#9aa0af"/><path d="M66.78,68.4l.46-.84c.51.4.22.83,0,1.26Z" style="fill:#dff0f8"/><path d="M64,32.92l-.65,0c.06-.19.11-.39.17-.59Z" style="fill:#fefefe"/><path d="M27.52,34.22c-3.5,0-5.94-2.77-5.91-6.63,0-4.39,3.07-7.59,7.16-7.56,3.69,0,6,2.55,6,6.49C34.83,31.07,31.82,34.25,27.52,34.22Zm5.1-9.28a2,2,0,0,0-2.15-1.65c-1.49,0-1.66,1.07-1.66,2.24s.46,1.77,1.57,1.72C31.79,27.18,32.31,26.15,32.62,24.94Zm-7,6.53c1.07,0,1.12-.65,1.11-1.31a1.19,1.19,0,0,0-1.12-1.29,1.2,1.2,0,0,0-1.21,1.22A1.32,1.32,0,0,0,25.57,31.47Z" style="fill:#393a53"/><path d="M10.74,19.43a5.23,5.23,0,0,1,5.42,5.21c.1,3.29-3.23,7.29-6.06,7.26-3.23,0-5.25-1.86-5.28-4.8C4.77,22.67,7.24,19.47,10.74,19.43Zm1,6.08c.67-.32,1.71-.67,1.76-2,0-1-.39-1.78-1.52-1.81-1.43-.05-1.79.95-1.86,2.12C10.1,24.69,10.3,25.44,11.78,25.51Z" style="fill:#3b3c54"/><path d="M20.64,35.66c0,2.57-2,4.13-4.31,3.27-1.85-.68-3.61-1.6-5.38-2.46-1.61-.78-1.56-1.56.06-2.3s3.06-1.52,4.65-2.13C18.28,31,20.67,32.8,20.64,35.66Zm-5.72-1.22c.66.7,2.38-.3,2,1.42-.11.52-1.23.88.22,1.19,1.15.24,1.18-.46,1.26-1.16C18.67,33.91,17.46,33.39,14.92,34.44Z" style="fill:#393a53"/><path d="M32.62,24.94c-.31,1.21-.83,2.24-2.24,2.31-1.11.05-1.58-.64-1.57-1.72s.17-2.2,1.66-2.24A2,2,0,0,1,32.62,24.94Z" style="fill:#f8f8f9"/><path d="M25.57,31.47a1.32,1.32,0,0,1-1.22-1.38,1.2,1.2,0,0,1,1.21-1.22,1.19,1.19,0,0,1,1.12,1.29C26.69,30.82,26.64,31.48,25.57,31.47Z" style="fill:#f8f8f9"/><path d="M11.78,25.51c-1.48-.07-1.68-.82-1.62-1.7.07-1.17.43-2.17,1.86-2.12,1.13,0,1.56.79,1.52,1.81C13.49,24.84,12.45,25.19,11.78,25.51Z" style="fill:#f3f3f5"/><path d="M14.92,34.44c2.54-1,3.75-.53,3.51,1.45-.08.7-.11,1.4-1.26,1.16-1.45-.31-.33-.67-.22-1.19C17.3,34.14,15.58,35.14,14.92,34.44Z" style="fill:#4495c5"/></g></g></svg>