<svg xmlns="http://www.w3.org/2000/svg" viewBox="0 0 87.98 107.1">
    <g id="Ebene_2" data-name="Ebene 2">
        <g id="Ebene_1-2" data-name="Ebene 1">
            <path d="M56.41,93.57c.88,3.09,2.75,5.85,2.57,9.34-.13,2.54-1.22,3.41-3.48,3.41-3.19,0-5.69-1.65-8-3.54A70.94,70.94,0,0,1,36.54,91.06c-3.33,3.38-3.43,7.49-.3,12.22.39.6,1,1.07,1,1.88a1.73,1.73,0,0,1-1.81,1.94c-1.29,0-2-.84-1.55-1.9.92-2-.13-3.42-.78-5.06a8.63,8.63,0,0,1,1.35-8.72c1-1.39.9-2.4-.08-3.76a106.45,106.45,0,0,1-8.12-13.18c-4.46,1.86-5.75,8.61-3.25,12.41a1.88,1.88,0,0,1-.48,2.81,1.79,1.79,0,0,1-2.67,0,1.71,1.71,0,0,1,0-2.65,2.17,2.17,0,0,0,.87-2.58c-1.26-4.27.39-7.65,3.37-10.48,1-.93,1.16-1.48.53-2.68-1.31-2.48-2.44-5-3.6-7.61-1-2.25-3-2.7-4.93-1a6.9,6.9,0,0,0-2.53,7A2.19,2.19,0,0,1,12,72.35a3,3,0,0,1-3.52-.59,1.72,1.72,0,0,1,1.36-2.82c1.88-.12,2-1.12,2.34-2.52,1-4.16,2.88-5.64,7.22-6.11C18.83,57.9,18.15,56.07,15,56c-4.68-.15-8.86-4-9.9-8.44-1.14-4.83.47-8.73,4.78-11.68.56-.38,1.3-.58,1.35-1.52.4-7.17-.1-14.13-4.31-20.34a3.68,3.68,0,0,0-3.79-2c-1.42.18-2.81-.1-3.06-1.88S1,7.92,2.37,7.9c1.09,0,1-.67,1.16-1.41.2-1.18,1-2.15,2.16-2A1.82,1.82,0,0,1,7.17,6.92c-1.74,4,1,6.59,2.56,9.71,2.38,4.86,3,10.18,3,15.58,0,.75-.81,1.95.53,2.28a3.6,3.6,0,0,0,2.61-.21c.82-.6.06-1.7-.16-2.5a45.48,45.48,0,0,1-1.37-19.61A17.71,17.71,0,0,1,17.6,3.94a7.11,7.11,0,0,1,9.12-2.38c5.19,2.18,8,6.67,10.58,11.28.81,1.41,1.46,2.92,2.32,4.67C42.09,13.3,44.56,9.37,48,6.2c3.19-2.92,6.67-5.37,11-6,7.06-1.06,13,2.69,15.78,9.71,2.44,6.21,2.21,12.54.88,18.94C73.22,41,67.36,51.51,60.45,61.59c-.65,1-1.35,1.9-2,2.79C62.9,67.22,68,67,72.71,68.22a31.23,31.23,0,0,1,10.51,5c4.09,2.93,5.27,7.1,4.57,11.76-.66,4.35-3.71,7-7.71,8.37-6.54,2.29-13.18,3.11-19.9.6A30.33,30.33,0,0,0,57,93.09c-.22-.25-.5-.43-.76-.13C56.19,93.05,56.35,93.36,56.41,93.57ZM7.27,47.44,7,47.13c-.25.23-.13.37.11.48a4.53,4.53,0,0,0,1.77,3.17l0,0a8.67,8.67,0,0,0,8.82,3.52,7.79,7.79,0,0,0,6.88-6.46,9.09,9.09,0,0,0-3.66-9.62,9.12,9.12,0,0,0-10.23-.91c-1.27.66-2,1-.64,2.69C12.22,42.65,10.43,47,7.27,47.44ZM67.73,69.29l-1.67.09c-4.92-1.24-9.35,1-14.39,2.49L55,66.54c.46-.68.93-1.35,1.39-2C64.2,53.77,71,42.47,74,29.35c1.53-6.7,2-13.4-1.15-19.9-3.37-7-9.89-9.79-16.92-6.54C47.94,6.59,43,13.22,40,21.32c-.52.13-.65.52-.67,1a87.72,87.72,0,0,0-8.08,28.43c-.18,1.67-1.4,3.33.09,5.15,5.38,6.6,10.08,13.69,15,20.64,2.5,3.54,4.21,7.59,7.1,10.87,0,.54,0,1.11.46,1.51.25.37.41.89.76,1.08,8.34,4.56,19.63,5,27.31.5a9.19,9.19,0,0,0,2.13-14A22.53,22.53,0,0,0,67.73,69.29ZM32.22,18c1.08,0,2.18.06,3.25-.05.7-.07,2,.55,2-.68,0-1-1.15-.91-2-.86-.35,0-.71.12-1-.4,1.36-2,.52-2.65-1.66-2.36,2.54-1.37,1.36-2.83.1-4.28a42.56,42.56,0,0,0-2.88-3.25C24.09.53,18.81,2,16.66,9.92c-.14.53-.23,1.06-.33,1.6a44.27,44.27,0,0,0-.22,13c.39,3.49.76,7,2.67,10.94.24-3.5.35-6.32,2.09-8.69l.67.85c-.24.78-.51,1.55-.72,2.33-.78,2.9-1.75,5.46,1.77,7.83a9,9,0,0,1,3.69,9.62c-.63,2.88,1,4.11,3.08,5.75.54-3.85.84-7.34,1.58-10.76a117.33,117.33,0,0,1,6.92-21.1c.66-1.56.66-2.17-1.36-2.28C35.1,18.93,33.39,19.42,32.22,18Zm16.14,83.18a3.91,3.91,0,0,0,.69-4.53,15.7,15.7,0,0,0-2.48-4.52c-.3-.36-1-.72-.37-1.29.5-.42,1-.11,1.44.29.19.19.32.44.51.64,2.64,2.79,1.66,7.35,4.83,9.89.13.1.09.55,0,.78-1.15,2.62,1.37,1.83,2.2,2.07,1.27.36,2.24-.38,2.14-2A19.89,19.89,0,0,0,55,95.06c-7.58-15.2-17.32-28.93-28.25-41.87-1-1.21-1.53-1.11-3.14-.27-4.48,2.33-3.73,4.87-1.83,8.51,2,3.89,3.65,8,5.76,11.76,1.3-.74.55-1.6.43-2.47-.34-2.49-1.2-5,0-7.48.32-.69.88-1.33,1.7-.84s.16,1-.16,1.53c-1,1.82-.52,7.41.76,8.14s2.38,1.17,2.14,2.76-1.79,1.26-2.93,2C34.81,85.71,40.25,94.45,48.36,101.21ZM3.86,10.88C5.76,11.2,6,9.48,6,7.64c0-.76.44-2-.62-2-.89,0-1,1.11-.9,2a4.56,4.56,0,0,0,.22,1.05c.11.35.27.69-.05,1-.49.46-.79.07-1.07-.3-.75-1-1.54-.58-2.33-.06-.34.22-.53.53-.3.89C1.52,11,2.41,10.74,3.86,10.88ZM55.54,69c1.78-.61,3.3-.53,4.58-1.73C58.05,66.29,56.42,66,55.54,69Z"
                  style="fill:#44475f"/>
            <path d="M40,21.32c3-8.1,7.9-14.73,15.84-18.41,7-3.25,13.55-.42,16.92,6.54,3.14,6.5,2.68,13.2,1.15,19.9C71,42.47,64.2,53.77,56.38,64.52a16,16,0,0,0-9.11,2c-1.42.84-1.9.48-1.76-1.17a106.54,106.54,0,0,0-1.23-29.67C43.34,30.79,42.68,25.76,40,21.32Z"
                  style="fill:#dff0f8"/>
            <path d="M53.46,87.4c-2.89-3.28-4.6-7.33-7.1-10.87-4.9-7-9.6-14-15-20.64-1.49-1.82-.27-3.48-.09-5.15a87.72,87.72,0,0,1,8.08-28.43c4.57,12.26,5.62,25,5.2,37.94-.11,3.46,0,6.92,0,10.77C47.71,68,50.81,66,55,66.54l-3.32,5.33c5-1.51,9.47-3.73,14.39-2.49,2.89,3,5.93,5.79,6.83,10.13.65,3.13-.26,5.78-3,7.47a15,15,0,0,1-11,1.7C57.1,88.34,55.41,87.32,53.46,87.4Z"
                  style="fill:#dff0f8"/>
            <path d="M48.36,101.21c-8.11-6.76-13.55-15.5-18.89-24.37,1.14-.75,2.7-.54,2.93-2s-1-2.09-2.14-2.76-1.77-6.32-.76-8.14c.32-.57,1-1,.16-1.53s-1.38.15-1.7.84c-1.16,2.49-.3,5,0,7.48.12.87.87,1.73-.43,2.47-2.11-3.77-3.73-7.87-5.76-11.76-1.9-3.64-2.65-6.18,1.83-8.51,1.61-.84,2.12-.94,3.14.27C37.71,66.13,47.45,79.86,55,95.06a19.89,19.89,0,0,1,2.28,7.49c.1,1.61-.87,2.35-2.14,2-.83-.24-3.35.55-2.2-2.07.1-.23.14-.68,0-.78-3.17-2.54-2.19-7.1-4.83-9.89-.19-.2-.32-.45-.51-.64-.41-.4-.94-.71-1.44-.29-.68.57.07.93.37,1.29a15.7,15.7,0,0,1,2.48,4.52A3.91,3.91,0,0,1,48.36,101.21ZM36.26,75.86c2.82,3,2.67,6.18,2.48,9.31A4.82,4.82,0,0,0,39,87.79c.51,1,1.34,1.61,2.43,1s1.83-1.86.84-2.66c-2.42-2-1.63-4.73-2.35-7.11C39.43,77.51,39,75.91,36.26,75.86Z"
                  style="fill:#4495c5"/>
            <path d="M20.87,26.77C19.13,29.14,19,32,18.78,35.46,16.87,31.55,16.5,28,16.11,24.52a44.27,44.27,0,0,1,.22-13c.1-.54.19-1.07.33-1.6C18.81,2,24.09.53,30.05,6.15A42.56,42.56,0,0,1,32.93,9.4c1.26,1.45,2.44,2.91-.1,4.28-1.89,1-1.58,2.71-1.6,4.34h0l-1.1-.08c-.29-.25-.44-.15-.52.19C26.14,20.44,22.68,22.77,20.87,26.77Z"
                  style="fill:#dcedf5"/>
            <path d="M32.22,18c1.17,1.39,2.88.9,4.28,1,2,.11,2,.72,1.36,2.28a117.33,117.33,0,0,0-6.92,21.1c-.74,3.42-1,6.91-1.58,10.76-2.12-1.64-3.71-2.87-3.08-5.75a9,9,0,0,0-3.69-9.62C19.07,35.41,20,32.85,20.82,30c.21-.78.48-1.55.72-2.33a26.5,26.5,0,0,1,8.1-8c.64-.41,1.57-.57,1.59-1.61h1Z"
                  style="fill:#dcedf5"/>
            <path d="M67.73,69.29a22.53,22.53,0,0,1,16.39,7.24,9.19,9.19,0,0,1-2.13,14C74.31,95,63,94.55,54.68,90c-.35-.19-.51-.71-.76-1.08,1.23-.11,2.28.52,3.41.84,4.62,1.33,9.1,1.39,13.39-1.21,3.09-1.88,4.51-4.8,3.65-8.27A20.58,20.58,0,0,0,67.73,69.29Z"
                  style="fill:#dcedf5"/>
            <path d="M8.87,50.78A4.53,4.53,0,0,1,7.1,47.61l.17-.17c3.16-.4,5-4.79,2.74-7.47-1.36-1.65-.63-2,.64-2.69a9.12,9.12,0,0,1,10.23.91,9.09,9.09,0,0,1,3.66,9.62,7.79,7.79,0,0,1-6.88,6.46,8.67,8.67,0,0,1-8.82-3.52c2.08-.83,4.39.79,6.49-.51a8.09,8.09,0,0,0-2.92-.88C11.29,49.27,9.22,48.38,8.87,50.78Zm5.42-6c-.28,1.91.77,3.05,2.82,3.18,1.77.11,3.67-2.1,3.53-4.39-.1-1.75-.36-3.76-2.85-3.86C15.62,39.65,14.3,41.5,14.29,44.8Z"
                  style="fill:#4495c5"/>
            <path d="M55,66.54C50.81,66,47.71,68,44.55,71c0-3.85-.09-7.31,0-10.77.42-13-.63-25.68-5.2-37.94,0-.47.15-.86.67-1,2.64,4.44,3.3,9.47,4.24,14.4a106.54,106.54,0,0,1,1.23,29.67c-.14,1.65.34,2,1.76,1.17a16,16,0,0,1,9.11-2C55.92,65.19,55.45,65.86,55,66.54Z"
                  style="fill:#9aa0af"/>
            <path d="M67.73,69.29a20.58,20.58,0,0,1,6.64,11c.86,3.47-.56,6.39-3.65,8.27-4.29,2.6-8.77,2.54-13.39,1.21-1.13-.32-2.18-1-3.41-.84-.48-.4-.43-1-.46-1.51,1.95-.08,3.64.94,5.49,1.28a15,15,0,0,0,11-1.7c2.72-1.69,3.63-4.34,3-7.47C72,75.17,69,72.34,66.06,69.38Z"
                  style="fill:#9aa0af"/>
            <path d="M32.22,18h-1c0-1.63-.29-3.39,1.6-4.34,2.18-.29,3,.33,1.66,2.36.26.52.62.42,1,.4.82-.05,2-.17,2,.86,0,1.23-1.26.61-2,.68C34.4,18.09,33.3,18,32.22,18Z"
                  style="fill:#c1d2dc"/>
            <path d="M31.23,18c0,1-.95,1.2-1.59,1.61a26.5,26.5,0,0,0-8.1,8c-.22-.28-.45-.56-.67-.85,1.81-4,5.27-6.33,8.74-8.64l.52-.19Z"
                  style="fill:#4e5065"/>
            <path d="M3.86,10.88C2.41,10.74,1.52,11,1,10.15c-.23-.36,0-.67.3-.89.79-.52,1.58-.92,2.33.06.28.37.58.76,1.07.3.32-.3.16-.64.05-1a4.56,4.56,0,0,1-.22-1.05c-.09-.84,0-2,.9-1.95,1.06,0,.64,1.25.62,2C6,9.48,5.76,11.2,3.86,10.88Z"
                  style="fill:#c1d2dc"/>
            <path d="M55.54,69c.88-3,2.51-2.67,4.58-1.73C58.84,68.43,57.32,68.35,55.54,69Z" style="fill:#c1d2dc"/>
            <path d="M7.1,47.61c-.24-.11-.36-.25-.11-.48a4.12,4.12,0,0,0,.28.31Z" style="fill:#4495c5"/>
            <path d="M56.41,93.57c-.06-.21-.22-.52-.14-.61.26-.3.54-.12.76.13Z" style="fill:#fefefe"/>
            <path d="M36.26,75.86c2.77,0,3.17,1.65,3.63,3.17.72,2.38-.07,5.16,2.35,7.11,1,.8.2,2.09-.84,2.66s-1.92,0-2.43-1a4.82,4.82,0,0,1-.23-2.62C38.93,82,39.08,78.86,36.26,75.86Z"
                  style="fill:#44475f"/>
            <path d="M30.13,17.94l-.52.19C29.69,17.79,29.84,17.69,30.13,17.94Z" style="fill:#c1d2dc"/>
            <path d="M14.29,44.8c0-3.3,1.33-5.15,3.5-5.07,2.49.1,2.75,2.11,2.85,3.86.14,2.29-1.76,4.5-3.53,4.39C15.06,47.85,14,46.71,14.29,44.8Z"
                  style="fill:#44475f"/>
            <path d="M8.87,50.78c.35-2.4,2.42-1.51,3.54-1.42a8.09,8.09,0,0,1,2.92.88c-2.1,1.3-4.41-.32-6.49.51Z"
                  style="fill:#44475f"/>
        </g>
    </g>
</svg>