<svg xmlns="http://www.w3.org/2000/svg" viewBox="0 0 71.34 124.28"><g id="Ebene_2" data-name="Ebene 2"><g id="Ebene_1-2" data-name="Ebene 1"><path d="M26.52,48C11.23,47.37,2.24,42.11.61,32.8-1.15,22.66,5,13,16.3,8.32c-.15-.31-.28-.63-.44-.93C15,5.78,13.94,4.1,15.72,2.5,17.34,1,18.92,2,20.33,3c.92.68,1,.13,1.51-.53C24.08-.7,24.25-.7,27.36,1.81c.67.55,1.14,0,1.72-.13,1.14-.24,2.3-.56,3.19.67s0,2.23-.65,3.13c-.8,1.08-1.88,2-2.24,3.33A27.74,27.74,0,0,1,48.12,36.22c-.26,7.73-3,14.54-6.38,21.25a56.06,56.06,0,0,0-3.84,9.47c-.43,1.53.13,1.63,1.35,1.68,5.93.3,13.53-5.1,15.82-11.28a26.27,26.27,0,0,1,1.1-2.75c1-2.05,1.9-2.11,3.28-.25.23.31.37.61.77.57,2.36-.23,2.67,1.66,2.86,3.16.15,1.23.4,1.48,1.51,1.24a9.82,9.82,0,0,1,2.17-.1c1.87,0,2.6,1.19,1.75,2.68-2,3.56-1.19,6.75.22,10.29C73.82,85,71.3,96.57,62.7,107a40.82,40.82,0,0,1-12.29,10.15c-.53.28-1.42.29-1.24,1.43.35,2.36-1.14,3.36-3.14,4-2.46.79-5,2.57-7.51,1.11-5.5-3.26-11.84-.42-17.39-2.81-.66-.28-1.14.09-1.73.38-4,2-10.52-.24-12.48-4.15-.31-.61-.65-1.4-.31-1.79,1.79-2,0-3.1-1.08-4.35C.69,105.33-.52,98.68.19,91.48c1.26-12.85,9-22,17.57-30.63,3.28-3.3,6.43-6.6,8.39-10.86C26.44,49.37,27,48.75,26.52,48ZM4.36,21.66a11.37,11.37,0,0,0-1.94,8.89C3.56,38.38,8.51,43,15.91,45.08a24.81,24.81,0,0,0,13.9-.3c.79-.23,1.81-.59,2.12.4s-.86,1.26-1.53,1.48S29,46.94,28.76,48c-1.51,6-5.48,10.47-9.93,14.54A56.15,56.15,0,0,0,4.19,84.09a29.72,29.72,0,0,0-1.74,16.48c1.37,7.31,6.23,12,12.47,15.45,11,6.06,22.17,5.5,33.12,0,9.52-4.73,16.44-12,19.58-22.39a6,6,0,0,0,.91-4.43c-2.14.8-1.29,2.5-1.38,3.9a7.48,7.48,0,0,1-4.31,4.9,1.9,1.9,0,0,0-1.2,1c-2.3,5.46-3.8,6.31-9.77,5.55a2.4,2.4,0,0,0-2.2.63c-4,3.71-10.84,1.84-13.27-1-2.63-3.07-2.09-10.79,1-13.88.7-.69,1.49-2.25,2.56-1.34,1.27,1.07-.48,1.8-1,2.59-2.25,3.31-2.88,6.78-1.14,10.48,1.54,3.26,4.52,3.11,7.47,3a4.2,4.2,0,0,0,4-2.68,3.84,3.84,0,0,0-.75-4.29c-1.13-1.25-2.47-2.56-4.45-1.51-.52.28-1.18.51-1.46,0-.38-.67.25-1.17.8-1.51a3.31,3.31,0,0,1,3.26-.54,6.5,6.5,0,0,1,4.58,6c.06.77-.21,1.66.74,2.17,1.55.81,5.95-.1,7.11-1.53.46-.57,1-1.22.69-2s-1.14-.1-1.72-.24A13.93,13.93,0,0,1,55,98.3c-1.08-.55-3.39-.47-2.82-2.12.42-1.21,2.24,0,3.36.4,3.84,1.22,7.69.11,9.35-2.78.37-.64.84-1.33.42-2s-1.16-.28-1.74-.25c-1.63.1-3.33.35-4.85-.25-.73-.29-2.63.07-2-1.77s1.69-.21,2.34,0c4,1.26,7.6,0,8.77-3.09.19-.53.44-1,0-1.51s-1-.14-1.43,0a8.86,8.86,0,0,1-4.49.15c-2.81-.37-5.1-2.32-8-2.33-.73,0-2,.42-2-.72,0-1.41,1.39-1,2.1-.86,4.87.91,9.59,2.88,14.7,1.86.12,0,.28.11.48-.51A27,27,0,0,0,66.7,72.43a11.75,11.75,0,0,1-.29-11.31,3.82,3.82,0,0,0-3,.37c-.79.46-1.61,1.71-2.58.89s.38-1.8.35-2.76c0-.33.35-.67.35-1,0-1.07.07-2.5-1.66-1.35-1.53,1-1.71-.52-2.38-1.16C54.4,66.11,44.69,71.32,38,70.37c-1,.64.46,2.43-1,2.43s-1.23-1.72-1.47-2.8a4.5,4.5,0,0,1,.17-1.33c.41-4.41,2.39-8.26,4.28-12.15,3.58-7.35,6.43-14.79,5.75-23.3-.82-10.36-6.81-18.84-16.55-22.33-2.3-.82-2.62-1.72-1.24-3.77.81-1.19,1.74-2.3,2.88-3.78a5.66,5.66,0,0,0-4,2.08c-.55.53-1,1.57-2,1s0-1.42.08-2.16,1.27-1.59.05-2.09-1.63.8-1.79,1.54c-.66,3.08-1.92,3-3.79.94a3.61,3.61,0,0,0-.68-.44c-.53-.37-1.15-.82-1.65-.23a1.83,1.83,0,0,0-.06,1.53,8.34,8.34,0,0,0,3.82,4.41c.57.32,1.22.65.86,1.43-.48,1-1.15.33-1.8.11-1.14-.39-1.9-1.85-3.41-1.21-5.46,2.34-10,5.69-12.21,11.47Zm13.4,98.14a49.38,49.38,0,0,1-6.94-4c-.55-.4-1.29-1.46-2-.4-.5.76.14,1.66.84,2.06A14.68,14.68,0,0,0,17.76,119.8Zm29.41,0-.21-.75-9.09,2.73A13.62,13.62,0,0,0,47.17,119.84Z" style="fill:#3c3e56"/><path d="M67.62,93.68C64.48,104.11,57.56,111.34,48,116.07c-10.95,5.45-22.11,6-33.12,0-6.24-3.44-11.1-8.14-12.47-15.45A29.72,29.72,0,0,1,4.19,84.09,56.15,56.15,0,0,1,18.83,62.56c4.45-4.07,8.42-8.5,9.93-14.54.27-1.08.84-1.11,1.64-1.36s1.85-.46,1.53-1.48-1.33-.63-2.12-.4a24.81,24.81,0,0,1-13.9.3C8.51,43,3.56,38.38,2.42,30.55a11.37,11.37,0,0,1,1.94-8.89c.72,1.18-.49,1.88-.74,2.81C3,26.87,3,29.12,4.72,31a4.4,4.4,0,0,0,4.67,1.4c3.46-1,5.76-5.52,4.54-8.92s-4.64-4.47-7.71-2.6c-.55.33-.85,1.57-1.89.77,2.24-5.78,6.75-9.13,12.21-11.47,1.51-.64,2.27.82,3.41,1.21.65.22,1.32.92,1.8-.11.36-.78-.29-1.11-.86-1.43a8.34,8.34,0,0,1-3.82-4.41A1.83,1.83,0,0,1,17.13,4c.5-.59,1.12-.14,1.65.23a3.61,3.61,0,0,1,.68.44c1.87,2.1,3.13,2.14,3.79-.94.16-.74.62-2,1.79-1.54s0,1.4-.05,2.09-1,1.55-.08,2.16,1.41-.44,2-1a5.66,5.66,0,0,1,4-2.08C29.7,4.82,28.77,5.93,28,7.12c-1.38,2.05-1.06,3,1.24,3.77,9.74,3.49,15.73,12,16.55,22.33.68,8.51-2.17,16-5.75,23.3-1.89,3.89-3.87,7.74-4.28,12.15A4.5,4.5,0,0,0,35.55,70c.24,1.08,0,2.81,1.47,2.8s0-1.79,1-2.43c6.68.95,16.39-4.26,19.46-14.26.67.64.85,2.17,2.38,1.16,1.73-1.15,1.64.28,1.66,1.35,0,.33-.36.67-.35,1,0,1-1.27,2-.35,2.76s1.79-.43,2.58-.89a3.82,3.82,0,0,1,3-.37,11.75,11.75,0,0,0,.29,11.31,27,27,0,0,1,2.51,10.08c-.2.62-.36.48-.48.51-5.11,1-9.83-1-14.7-1.86-.71-.14-2.14-.55-2.1.86,0,1.14,1.27.72,2,.72,2.89,0,5.18,2,8,2.33a8.86,8.86,0,0,0,4.49-.15c.44-.17,1-.66,1.43,0s.16,1,0,1.51C66.64,89.53,63,90.75,59,89.49c-.65-.2-1.73-1.74-2.34,0s1.26,1.48,2,1.77c1.52.6,3.22.35,4.85.25.58,0,1.36-.39,1.74.25s0,1.39-.42,2c-1.66,2.89-5.51,4-9.35,2.78-1.12-.36-2.94-1.61-3.36-.4-.57,1.65,1.74,1.57,2.82,2.12a13.93,13.93,0,0,0,3.13.78c.58.14,1.37-.52,1.72.24s-.23,1.38-.69,2C58,102.7,53.57,103.61,52,102.8c-1-.51-.68-1.4-.74-2.17a6.5,6.5,0,0,0-4.58-6,3.31,3.31,0,0,0-3.26.54c-.55.34-1.18.84-.8,1.51.28.49.94.26,1.46,0,2-1,3.32.26,4.45,1.51a3.84,3.84,0,0,1,.75,4.29,4.2,4.2,0,0,1-4,2.68c-2.95.08-5.93.23-7.47-3-1.74-3.7-1.11-7.17,1.14-10.48.53-.79,2.28-1.52,1-2.59-1.07-.91-1.86.65-2.56,1.34-3.11,3.09-3.65,10.81-1,13.88,2.43,2.83,9.31,4.7,13.27,1a2.4,2.4,0,0,1,2.2-.63c6,.76,7.47-.09,9.77-5.55a1.9,1.9,0,0,1,1.2-1,7.48,7.48,0,0,0,4.31-4.9ZM20.17,28.14a5.81,5.81,0,0,0,6.11,6.1,7.42,7.42,0,0,0,7-7.51,5.89,5.89,0,0,0-6-6.21C23.12,20.52,20.15,23.74,20.17,28.14Zm-4.43,11a1.52,1.52,0,0,0,2-.89c1-1.89.47-3.62-.35-5.33a1.92,1.92,0,0,0-2.55-.89A21.77,21.77,0,0,0,9,34.78c-1.21.77-1,1.58.18,2.18A26,26,0,0,0,15.74,39.16Z" style="fill:#dff0f8"/><path d="M17.76,119.8a14.68,14.68,0,0,1-8.08-2.32c-.7-.4-1.34-1.3-.84-2.06.69-1.06,1.43,0,2,.4A49.38,49.38,0,0,0,17.76,119.8Z" style="fill:#9aa0af"/><path d="M47.17,119.84a13.62,13.62,0,0,1-9.3,2L47,119.09Z" style="fill:#9aa0af"/><path d="M67.62,93.68l-.47-.53c.09-1.4-.76-3.1,1.38-3.9A6,6,0,0,1,67.62,93.68Z" style="fill:#c1d2dc"/><path d="M20.17,28.14c0-4.4,2.95-7.62,7-7.62a5.89,5.89,0,0,1,6,6.21,7.42,7.42,0,0,1-7,7.51A5.81,5.81,0,0,1,20.17,28.14Zm10.9-2.74a1.75,1.75,0,0,0-2-1.65,1.55,1.55,0,0,0-1.53,1.85,1.78,1.78,0,1,0,3.55-.2Zm-6.28,5.49a.93.93,0,0,0-.88-1.06,1.05,1.05,0,0,0-1.32,1A1,1,0,0,0,23.46,32C24.25,32.13,24.59,31.62,24.79,30.89Z" style="fill:#393a53"/><path d="M4.33,21.69c1,.8,1.34-.44,1.89-.77,3.07-1.87,6.51-.75,7.71,2.6s-1.08,8-4.54,8.92A4.4,4.4,0,0,1,4.72,31C3,29.12,3,26.87,3.62,24.47c.25-.93,1.46-1.63.74-2.81Zm6.05,3.95A1.49,1.49,0,0,0,12,23.91a1.58,1.58,0,0,0-1.74-1.63c-1.06,0-1.55.72-1.54,1.78S9.35,25.61,10.38,25.64Z" style="fill:#3c3e56"/><path d="M15.74,39.16A26,26,0,0,1,9.21,37C8,36.36,7.82,35.55,9,34.78a21.77,21.77,0,0,1,5.79-2.73,1.92,1.92,0,0,1,2.55.89c.82,1.71,1.38,3.44.35,5.33A1.52,1.52,0,0,1,15.74,39.16ZM13,34.9c.82.87,2.6-.39,2.24,1.38-.1.48-.83.71.07,1.07.61.25,1.05,0,1.07-.7s.26-2-.59-2.5C14.61,33.45,13.89,34.5,13,34.9Z" style="fill:#393a53"/><path d="M31.07,25.4a1.78,1.78,0,1,1-3.55.2,1.55,1.55,0,0,1,1.53-1.85A1.75,1.75,0,0,1,31.07,25.4Z" style="fill:#f3f3f5"/><path d="M24.79,30.89c-.2.73-.54,1.24-1.33,1.08a1,1,0,0,1-.87-1.16,1.05,1.05,0,0,1,1.32-1A.93.93,0,0,1,24.79,30.89Z" style="fill:#dcedf5"/><path d="M10.38,25.64c-1,0-1.7-.43-1.71-1.58s.48-1.75,1.54-1.78A1.58,1.58,0,0,1,12,23.91,1.49,1.49,0,0,1,10.38,25.64Z" style="fill:#f3f3f5"/><path d="M13,34.9c.93-.4,1.65-1.45,2.79-.75.85.52.61,1.61.59,2.5s-.46,1-1.07.7c-.9-.36-.17-.59-.07-1.07C15.56,34.51,13.78,35.77,13,34.9Z" style="fill:#4495c5"/></g></g></svg>