<svg xmlns="http://www.w3.org/2000/svg" viewBox="0 0 47.44 77.03"><g id="Ebene_2" data-name="Ebene 2"><g id="Ebene_1-2" data-name="Ebene 1"><path d="M0,32.09c2.2.45,3-.3,2.78-2.65-.24-3.16.25-6.38-.11-9.52C1.75,11.86,9.55,2.31,19.38.48c8.78-1.63,16.06.85,21.34,8.27a16.2,16.2,0,0,1,2.86,8.9,104.27,104.27,0,0,1-.21,12.25c-.16,1.92.21,2.44,2,2.23.66-.07,1.42-.31,2,.22,0,.2,0,.48-.07.53C44.44,34.65,44,35.34,42.81,39,40.76,45,36.6,49.5,31.48,53.09a3.78,3.78,0,0,0-1.78,2.77c-.29,1.88.26,3.07,2.39,2.92,1.88-.13,3.76-.42,5.65-.52,2.72-.13,4.41,1.39,5.33,3.78,1,2.63,1.12,5.45,1.34,8.22.08,1.1-.75,1.73-1.62,2.33-3.37,2.34-7.28,3.09-11.18,3.62a83.91,83.91,0,0,1-26.46-.49c-3.95-.71-4.23-.93-4-5a37.34,37.34,0,0,1,.55-4.84c.77-4.07,2.33-5.32,6.57-5.79,2.32-.26,4.73.2,7-.78,1.33-.57,2.55-1.12,2.79-2.91s-.69-2.66-2.11-3.53C9.44,49,4.75,43.59,3.09,36,2.71,34.22,1.15,33.63,0,32.63ZM4.39,23.4v3c0,5.87,0,5.87,5.32,3.7a10.78,10.78,0,0,1,8.91.24c.49.23,1.06.55.95,1.19-.17,1-1.1.67-1.54.51-2.71-1-5.1.28-7.57,1-1.11.32-2.21,1.09-3.3,1.07C4,34,4.5,35.84,5.2,37.68,8.57,46.56,15.16,52,24,54.91a3.1,3.1,0,0,0,2.56-.47,33.88,33.88,0,0,0,9.88-7.95c2.49-3.08,5.07-6.21,5-10.53,0-.58.34-1.48-.55-1.59-3.2-.39-5.81-3-9.31-2.35-.84.15-2.5.84-2.72-.66-.19-1.3,1.46-1.38,2.4-1.72a6.15,6.15,0,0,1,4.25,0c1.43.52,2.91.93,4.29,1.56,1.62.75,2.14.2,2.13-1.41,0-3.81.11-7.62,0-11.42a16,16,0,0,0-3.26-9.56c-7.75-10.08-24-9.3-31.58,1.37C4.14,14.31,4.18,18.78,4.39,23.4ZM40,72.17c1-.3,2.22-.73,2.35-1.64a13,13,0,0,0-1.64-9.1c-1.44-2.19-3.71-1.5-5.92-1.13-1.8.3-3.82.76-5.55-.42-1.52-1-1.23-2.76-1.38-4.43-2.9,2.67-5.43.17-8.07-.3-.45,4.25-2.34,6.06-6.75,6.44a33.38,33.38,0,0,1-4.87.32c-3-.18-4.27,1.6-4.78,4.11-.37,1.85-.35,3.78-.63,5.65s1,2.19,2.37,2.38c2,.27,1.2-1.24,1.38-2.13s-.38-1.78.38-2.54c2,2.18,1.66-2.27,3.46-.94a26.77,26.77,0,0,0-2.7,6,67,67,0,0,0,15.57.73C23,74,22.85,73,22.62,72.08s-1.39-1.62-1.26-2.85c1.55.08,1.48,1.71,2.45,2.22.6-1.23.8-2.8,3.13-2.91a10,10,0,0,0-2.34,4.14c-.51,1.64-.38,2.84,1.88,2.48,2.58-.41,5.18-.67,7.75-1.12,5.23-.91,5.38-1.27,2.82-5.8-.07-.13,0-.33,0-.68C39.74,68.06,39.41,70.44,40,72.17Z" style="fill:#3c3d55"/><path d="M4.39,23.4c-.21-4.62-.25-9.09,2.68-13.19C14.66-.46,30.9-1.24,38.65,8.84a16,16,0,0,1,3.26,9.56c.12,3.8,0,7.61,0,11.42,0,1.61-.51,2.16-2.13,1.41-1.38-.63-2.86-1-4.29-1.56a6.15,6.15,0,0,0-4.25,0c-.94.34-2.59.42-2.4,1.72.22,1.5,1.88.81,2.72.66,3.5-.61,6.11,2,9.31,2.35.89.11.54,1,.55,1.59.09,4.32-2.49,7.45-5,10.53a33.88,33.88,0,0,1-9.88,7.95,3.1,3.1,0,0,1-2.56.47C15.16,52,8.57,46.56,5.2,37.68,4.5,35.84,4,34,7.16,34.1c1.09,0,2.19-.75,3.3-1.07,2.47-.71,4.86-2,7.57-1,.44.16,1.37.45,1.54-.51.11-.64-.46-1-.95-1.19a10.78,10.78,0,0,0-8.91-.24c-5.28,2.17-5.28,2.17-5.32-3.7Zm20,1.61A5.39,5.39,0,0,0,30,19.71a5.22,5.22,0,0,0-5-5A5.61,5.61,0,0,0,19.62,20,4.61,4.61,0,0,0,24.39,25Z" style="fill:#f2e7e2"/><path d="M40,72.17c-.62-1.73-.29-4.11-3-4.61,0,.35-.06.55,0,.68,2.56,4.53,2.41,4.89-2.82,5.8-2.57.45-5.17.71-7.75,1.12-2.26.36-2.39-.84-1.88-2.48a10,10,0,0,1,2.34-4.14c-2.33.11-2.53,1.68-3.13,2.91-1-.51-.9-2.14-2.45-2.22-.13,1.23,1,1.86,1.26,2.85S23,74,23.25,75.2a67,67,0,0,1-15.57-.73,26.77,26.77,0,0,1,2.7-6c-1.8-1.33-1.48,3.12-3.46.94-.76.76-.21,1.71-.38,2.54s.64,2.4-1.38,2.13c-1.41-.19-2.66-.42-2.37-2.38s.26-3.8.63-5.65c.51-2.51,1.76-4.29,4.78-4.11a33.38,33.38,0,0,0,4.87-.32c4.41-.38,6.3-2.19,6.75-6.44,2.64.47,5.17,3,8.07.3.15,1.67-.14,3.4,1.38,4.43,1.73,1.18,3.75.72,5.55.42,2.21-.37,4.48-1.06,5.92,1.13a13,13,0,0,1,1.64,9.1C42.25,71.44,41,71.87,40,72.17Z" style="fill:#f1e6e1"/><path d="M24.39,25a4.61,4.61,0,0,1-4.77-5A5.61,5.61,0,0,1,25,14.68a5.22,5.22,0,0,1,5,5A5.39,5.39,0,0,1,24.39,25ZM28.22,19c-2.32,2.07-4.57,1.8-6.85.16C21,21.58,22,23,24.23,23.34,26.32,23.66,27.83,22,28.22,19Zm-5.77-1.12c1.77,1.66,3.23,1.58,4.84-.24C25.54,17.45,24,16.06,22.45,17.83Z" style="fill:#3c3d55"/><path d="M28.22,19c-.39,3.09-1.9,4.71-4,4.39C22,23,21,21.58,21.37,19.11,23.65,20.75,25.9,21,28.22,19Z" style="fill:#f3f3f5"/><path d="M22.45,17.83c1.59-1.77,3.09-.38,4.84-.24C25.68,19.41,24.22,19.49,22.45,17.83Z" style="fill:#688eb4"/></g></g></svg>