<svg xmlns="http://www.w3.org/2000/svg" viewBox="0 0 47.34 77.09"><g id="Ebene_2" data-name="Ebene 2"><g id="Ebene_1-2" data-name="Ebene 1"><path d="M47.34,32.85c-4,.53-4.41,3.27-5.23,6.4C40.52,45.35,36.05,49.62,31,53.16a3.78,3.78,0,0,0-1.76,2.78c-.28,1.88.28,3.07,2.41,2.91,1.88-.15,3.76-.41,5.65-.53a5.09,5.09,0,0,1,5.23,3.54c1.11,2.69,1.23,5.61,1.43,8.48.07,1.1-.77,1.73-1.64,2.32C39,75,35.06,75.74,31.16,76.28A84.2,84.2,0,0,1,4.7,75.79c-3.92-.71-4.23-1-4-5A39.17,39.17,0,0,1,1.26,66c.76-4,2.32-5.39,6.58-5.74,1.81-.15,3.63-.16,5.44-.28a4.2,4.2,0,0,0,4.31-4.18c.07-1.36-.59-1.87-1.59-2.45A27.16,27.16,0,0,1,2.86,35.68C2.44,34,.08,34.25,0,32.21c2.44.53,2.43-1,2.36-2.74-.11-2.9.18-5.83-.11-8.7-1-9.95,7.48-18,15.92-20.12,10-2.51,20.29,2.42,23.76,11.3,1.46,3.72,1.32,7.62,1.26,11.51,0,1.27,0,2.54-.07,3.81-.06,1.53-.69,3.33-.1,4.52S45.71,31.66,47.34,32.85ZM4,23.4c0,1.09,0,2.18,0,3.27,0,5.69,0,5.71,5.26,3.52a10.93,10.93,0,0,1,8.67.06c.64.26,1.53.64,1.19,1.54-.27.7-1.24.52-1.69.31-2-.9-3.72,0-5.51.44s-3.39,1.54-5.1,1.57c-3.12.06-2.8,1.63-2,3.58C8.12,46.56,14.68,52,23.51,55a3.07,3.07,0,0,0,2.57-.43,34.22,34.22,0,0,0,8.66-6.44C37.88,44.63,41,41,41,35.9c0-.56.36-1.43-.61-1.51-3.14-.27-5.64-2.87-9-2.31-.89.15-2.76,1-2.9-.71-.12-1.45,1.81-1.54,2.93-1.83a5.82,5.82,0,0,1,3.74.21c1.48.62,3,1.09,4.52,1.69,1.32.52,2,.39,1.93-1.29-.11-4,0-8-.11-12a16.69,16.69,0,0,0-3.25-9.29C30.35-1.91,13.76.31,6.54,10.45,3.65,14.51,3.82,18.89,4,23.4ZM7.07,74.53a69.4,69.4,0,0,0,15.53.74c.46-2.38-1.15-4-1.79-6,1.67.08,1.6,1.71,2.57,2.23.57-1.26.85-2.8,3.31-3a8.6,8.6,0,0,0-2.52,4.18c-.53,1.62-.41,2.85,1.86,2.49,2.58-.4,5.19-.66,7.76-1.11,5.23-.92,5.38-1.28,2.83-5.8-.08-.13,0-.33,0-.5,1.82.25,2.39,1.09,3,4.4,2.45-.47,2.65-2.19,2.56-4.29-.29-6.59-1.88-8.08-8.24-7.43-5.1.53-6.33-.38-6.48-4.9-2.82,2.56-5.36.14-8-.39-.5,4.28-2.35,6.07-6.74,6.45A32.17,32.17,0,0,1,7.78,62c-3-.18-4.28,1.58-4.79,4.09-.38,1.85-.36,3.78-.63,5.66s.91,2.2,2.35,2.4c2,.27,1.22-1.22,1.39-2.12s-.36-1.78.35-2.53c2,2.16,1.69-2.27,3.37-1.07C9,70.32,8.1,72.25,7.07,74.53Z" style="fill:#3c3d55"/><path d="M4,23.4c-.14-4.51-.31-8.89,2.58-12.95C13.76.31,30.35-1.91,38.21,8.87a16.69,16.69,0,0,1,3.25,9.29c.16,4,0,8,.11,12,0,1.68-.61,1.81-1.93,1.29-1.49-.6-3-1.07-4.52-1.69a5.82,5.82,0,0,0-3.74-.21c-1.12.29-3.05.38-2.93,1.83.14,1.69,2,.86,2.9.71,3.41-.56,5.91,2,9,2.31,1,.08.6,1,.61,1.51,0,5.14-3.13,8.73-6.27,12.19a34.22,34.22,0,0,1-8.66,6.44,3.07,3.07,0,0,1-2.57.43C14.68,52,8.12,46.56,4.73,37.69,4,35.74,3.66,34.17,6.78,34.11c1.71,0,3.38-1.12,5.1-1.57s3.56-1.34,5.51-.44c.45.21,1.42.39,1.69-.31.34-.9-.55-1.28-1.19-1.54a10.93,10.93,0,0,0-8.67-.06C4,32.38,4,32.36,4,26.67,4,25.58,4,24.49,4,23.4Zm15.53-2.66a4.8,4.8,0,0,0,1.15,2.58c1,1.45,1.33,4.14,2.85,4.16,1.28,0,1.85-2.69,2.81-4.14.81-1.2,1.64-2.35.7-3.92s-1.84-3.26-2.65-4.94c-.42-.86-1-1.27-1.5-.37C21.62,16.26,20.59,18.53,19.49,20.74ZM34,20.17c-.75-.93-1-2.75-2.33-2.62s-1.84,2-1.92,3.18c-.07,1,1.19,2.49,2.14,2.43C33.13,23.08,33.48,21.44,34,20.17Zm-16.31.58c-.82-1-1.07-2.8-2.39-2.65s-1.84,2-1.91,3.19c-.05,1,1.2,2.5,2.15,2.41C16.71,23.59,17,21.87,17.68,20.75Z" style="fill:#f2e7e2"/><path d="M7.07,74.53c1-2.28,1.89-4.21,2.75-6.13-1.68-1.2-1.36,3.23-3.37,1.07-.71.75-.19,1.7-.35,2.53s.61,2.39-1.39,2.12c-1.44-.2-2.63-.48-2.35-2.4s.25-3.81.63-5.66C3.5,63.55,4.77,61.79,7.78,62a32.17,32.17,0,0,0,4.88-.32c4.39-.38,6.24-2.17,6.74-6.45,2.64.53,5.18,2.95,8,.39.15,4.52,1.38,5.43,6.48,4.9,6.36-.65,7.95.84,8.24,7.43.09,2.1-.11,3.82-2.56,4.29-.56-3.31-1.13-4.15-3-4.4,0,.17-.07.37,0,.5,2.55,4.52,2.4,4.88-2.83,5.8-2.57.45-5.18.71-7.76,1.11-2.27.36-2.39-.87-1.86-2.49a8.6,8.6,0,0,1,2.52-4.18c-2.46.17-2.74,1.71-3.31,3-1-.52-.9-2.15-2.57-2.23.64,2,2.25,3.6,1.79,6A69.4,69.4,0,0,1,7.07,74.53Z" style="fill:#f1e6e1"/><path d="M19.49,20.74c1.1-2.21,2.13-4.48,3.36-6.63.51-.9,1.08-.49,1.5.37.81,1.68,1.68,3.34,2.65,4.94s.11,2.72-.7,3.92c-1,1.45-1.53,4.15-2.81,4.14-1.52,0-1.87-2.71-2.85-4.16A4.8,4.8,0,0,1,19.49,20.74Z" style="fill:#3c3d55"/><path d="M34,20.17c-.51,1.27-.86,2.91-2.11,3-.95.06-2.21-1.46-2.14-2.43.08-1.16.53-3,1.92-3.18S33.24,19.24,34,20.17Z" style="fill:#3c3d55"/><path d="M17.68,20.75c-.72,1.12-1,2.84-2.15,2.95-.95.09-2.2-1.44-2.15-2.41.07-1.16.53-3.05,1.91-3.19S16.86,19.79,17.68,20.75Z" style="fill:#3c3d55"/></g></g></svg>