<svg xmlns="http://www.w3.org/2000/svg" viewBox="0 0 46.99 77.05"><g id="Ebene_2" data-name="Ebene 2"><g id="Ebene_1-2" data-name="Ebene 1"><path d="M0,32.14c3.34.92,3.2-.84,3.14-3.45C3,24,2,19.29,3.4,14.71,6,6.45,13.6.59,23.18,0A19.51,19.51,0,0,1,42.44,11.88c1.59,4,1.35,8.15,1.29,12.31a27.11,27.11,0,0,1-.19,5.42C43,32,43.91,32.5,46,32.17a3.74,3.74,0,0,1,1,.11,2.53,2.53,0,0,1,0,.61c-3.2.76-3.45,3.11-4.12,6-1.31,5.62-5.31,9.74-9.78,13.29-.7.55-1.54.95-2.21,1.54a3.66,3.66,0,0,0-.95,3.94c.35,1.39,1.54,1.28,2.65,1.27a16.54,16.54,0,0,0,3.21-.44c4-.81,6.87.91,7.77,4.77a64.34,64.34,0,0,1,1,6.94c.16,1.28-.71,1.92-1.65,2.56-3.37,2.31-7.29,2.94-11.18,3.61-6.12,1.06-12.32.74-18.45.44-3.58-.17-7.33-.23-10.75-1.92-.86-.42-1.29-.72-1.29-1.69a31.7,31.7,0,0,1,.89-7.78c1-3.94,2.14-4.71,6.17-5.17,2.32-.27,4.71.19,7-.74,1.35-.57,2.72-1,2.89-2.8a3.35,3.35,0,0,0-1.78-3.76A27.11,27.11,0,0,1,3.1,35.48C2.64,33.76,0,34.41,0,32.14Zm42,.09c0-5.1.2-10-.06-14.85a15.21,15.21,0,0,0-4.3-10.19C32.2,1.7,25.51.45,18.43,2.44,11.53,4.37,6.12,8.86,4.71,16.06c-1,5.12-.2,10.6-.2,16.3l4.7-2.13a10.86,10.86,0,0,1,8.43-.1c.69.24,1.8.61,1.44,1.64-.28.8-1.34.53-1.91.29-1.19-.5-2.24-.14-3.41,0-2.34.36-4.42,1.67-6.69,1.92-2.86.32-2.48,1.86-1.82,3.61C8.6,46.5,15.15,52,24,55a3.28,3.28,0,0,0,2.81-.48,34.29,34.29,0,0,0,9.68-7.77c2.51-3.07,5-6.21,5.16-10.47,0-.72.44-1.71-.88-1.87-3.79-.45-7.13-3.19-11.22-2.2-.4.1-1,.13-1.13-.44s.12-1,.68-1.29a7.19,7.19,0,0,1,6-.68C37.32,30.53,39.57,31.35,42,32.23ZM7.66,74.5a72.64,72.64,0,0,0,14.06.92c1.31,0,1.51-.39,1.41-1.75C23,72,21.47,71,21.5,69.25c1.47.25,1.52,1.64,2.35,2.28.77-1.06.78-2.94,3.1-2.84a10.46,10.46,0,0,0-2.35,4.69c-.31,1.41,0,1.94,1.56,1.88A57.1,57.1,0,0,0,35,74c4.47-.86,4.62-1.34,2.31-5.35-.16-.28-.4-.61,0-1,2.62.42,2,3,2.91,4.54,2-.47,2.49-1.69,2.45-3.62-.14-7.1-1.63-8.59-8.46-8-5,.4-6.19-.52-6.24-5-2.83,2.59-5.36.23-8-.35-.58,4.4-2.43,6.11-7,6.48A31,31,0,0,1,8.34,62c-3-.19-4.28,1.58-4.79,4.09-.38,1.86-.36,3.79-.64,5.67s1,2.19,2.38,2.38c2,.26,1.24-1.25,1.34-2.14a26.12,26.12,0,0,0,0-2.7c2.3,2.62,2-2,3.74-.9Z" style="fill:#3d3e56"/><path d="M42,32.23c-2.45-.88-4.7-1.7-7-2.48a7.19,7.19,0,0,0-6,.68c-.56.3-.86.69-.68,1.29s.73.54,1.13.44c4.09-1,7.43,1.75,11.22,2.2,1.32.16.91,1.15.88,1.87-.12,4.26-2.65,7.4-5.16,10.47a34.29,34.29,0,0,1-9.68,7.77A3.28,3.28,0,0,1,24,55C15.15,52,8.6,46.5,5.25,37.62c-.66-1.75-1-3.29,1.82-3.61,2.27-.25,4.35-1.56,6.69-1.92,1.17-.17,2.22-.53,3.41,0,.57.24,1.63.51,1.91-.29.36-1-.75-1.4-1.44-1.64a10.86,10.86,0,0,0-8.43.1l-4.7,2.13c0-5.7-.81-11.18.2-16.3C6.12,8.86,11.53,4.37,18.43,2.44c7.08-2,13.77-.74,19.23,4.75A15.21,15.21,0,0,1,42,17.38C42.22,22.24,42,27.13,42,32.23ZM17.09,24.06c1.73-.76,3.44-1.48,3.42,1.58,1.22-.12.59-2,2.14-1.67,1.27.31.41,1.87,1.62,2.24.63-.86,0-2.27,1.46-2.68S27.07,25,28,25.08c1.22-.67-.76-1.93.55-2.29s1.35,1.47,2.45,1.59c.67-1.13-.5-1.62-.77-2.48a4.66,4.66,0,0,0,3.66-1.45c.37-.4,1.26-.8.58-1.51s-.85.3-1.26.51c-1,.52-2,1.27-3.35.15.83-.68,1.91-.92,2.36-2.23a2.44,2.44,0,0,1-3-1.16,3,3,0,0,0-2.51-1.66c-1.77-.21-2.49-1.41-3-3.23-.58,2.9-2.65,3.37-4.92,3.47-.44,0-.64.17-.72.59-.36,1.75-1.71,2.47-3.25,2.88.21,1.33,1.67,1.09,2.25,2.17-.78.27-1.31,1-2.21.62a3.11,3.11,0,0,0-2.7-.12c1.6,1.71,3.44,1.51,5.5,1.26l-1.14,1.47c-.21.3-.95.51-.36,1S17,24.53,17.09,24.06ZM24,26.67a1.78,1.78,0,0,0-1.75,2,1.61,1.61,0,0,0,1.94,1.65,1.71,1.71,0,0,0,1.57-2.09C25.67,27.07,25,26.75,24,26.67Z" style="fill:#f2e7e2"/><path d="M7.66,74.5l2.73-6.11c-1.73-1.07-1.44,3.52-3.74.9a26.12,26.12,0,0,1,0,2.7c-.1.89.67,2.4-1.34,2.14-1.42-.19-2.67-.43-2.38-2.38s.26-3.81.64-5.67C4.06,63.57,5.33,61.8,8.34,62A31,31,0,0,0,13,61.7c4.6-.37,6.45-2.08,7-6.48,2.64.58,5.17,2.94,8,.35.05,4.43,1.24,5.35,6.24,5,6.83-.55,8.32.94,8.46,8,0,1.93-.5,3.15-2.45,3.62-.86-1.54-.29-4.12-2.91-4.54-.4.44-.16.77,0,1,2.31,4,2.16,4.49-2.31,5.35a57.1,57.1,0,0,1-8.85,1.22c-1.56.06-1.87-.47-1.56-1.88A10.46,10.46,0,0,1,27,68.69c-2.32-.1-2.33,1.78-3.1,2.84-.83-.64-.88-2-2.35-2.28C21.47,71,23,72,23.13,73.67c.1,1.36-.1,1.74-1.41,1.75A72.64,72.64,0,0,1,7.66,74.5Z" style="fill:#f1e6e1"/><path d="M16.58,23.66l1.14-1.47c-2.06.25-3.9.45-5.5-1.26a3.11,3.11,0,0,1,2.7.12c.9.4,1.43-.35,2.21-.62-.58-1.08-2-.84-2.25-2.17,1.54-.41,2.89-1.13,3.25-2.88.08-.42.28-.57.72-.59,2.27-.1,4.34-.57,4.92-3.47.47,1.82,1.19,3,3,3.23a3,3,0,0,1,2.51,1.66,2.44,2.44,0,0,0,3,1.16c-.45,1.31-1.53,1.55-2.36,2.23,1.38,1.12,2.35.37,3.35-.15.41-.21.68-1.11,1.26-.51s-.21,1.11-.58,1.51a4.66,4.66,0,0,1-3.66,1.45c.27.86,1.44,1.35.77,2.48-1.1-.12-1.28-1.92-2.45-1.59s.67,1.62-.55,2.29c-.95-.06-.79-2-2.29-1.55s-.83,1.82-1.46,2.68c-1.21-.37-.35-1.93-1.62-2.24-1.55-.36-.92,1.55-2.14,1.67,0-3.06-1.69-2.34-3.42-1.58Zm6.15-.82A15.07,15.07,0,0,0,28,21.41,1,1,0,0,0,28.37,20c-.46-.76-.83-.07-1.22.23-2.85,2.16-4.16,2.2-6.88.22-.31-.22-.44-.86-1-.54a1.49,1.49,0,0,0-.66,1.1c-.21.91.52.8.95.94C20.72,22.32,21.92,22.62,22.73,22.84Zm-1.56-4.16c1.85,2.14,3.44,2.12,5.36,0Z" style="fill:#3d3e56"/><path d="M24,26.67c.94.08,1.64.4,1.76,1.55a1.71,1.71,0,0,1-1.57,2.09,1.61,1.61,0,0,1-1.94-1.65A1.78,1.78,0,0,1,24,26.67Z" style="fill:#46475e"/><path d="M17.09,24.06c-.11.47-.39.94-.87.57s.15-.67.36-1Z" style="fill:#3d3e56"/><path d="M22.73,22.84c-.81-.22-2-.52-3.19-.89-.43-.14-1.16,0-.95-.94a1.49,1.49,0,0,1,.66-1.1c.58-.32.71.32,1,.54,2.72,2,4,1.94,6.88-.22.39-.3.76-1,1.22-.23A1,1,0,0,1,28,21.41,15.07,15.07,0,0,1,22.73,22.84Z" style="fill:#f3f3f5"/><path d="M21.17,18.68h5.36C24.61,20.8,23,20.82,21.17,18.68Z" style="fill:#688eb4"/></g></g></svg>