<svg xmlns="http://www.w3.org/2000/svg" viewBox="0 0 91.04 89.28"><g id="Ebene_2" data-name="Ebene 2"><g id="Ebene_1-2" data-name="Ebene 1"><path d="M36.21,66.8c-6.23-2.87-11-7.6-15.4-12.62a14.91,14.91,0,0,1-3-15.46A19.31,19.31,0,0,0,18.18,28C15.57,15.19,23.9,4.63,36.12,1.72A36,36,0,0,1,54.58,2c7.76,2.23,11.49,8.38,13.24,15.75,2.5,10.52.23,20.44-4.07,30.16a26.89,26.89,0,0,1-10,12c-1.8,1.18-3.16,7.85-2.06,9.52.51.78,1.35.56,2,.4a38.34,38.34,0,0,0,3.82-1.32c5.68-2.1,8.62-.34,9.32,5.67.4,3.45-.39,6.86-.49,10.3,0,.94-.68,1.08-1.36,1.4-10.3,4.85-20.62,4.21-30.91.07-3.08-1.23-5-3.2-4.41-7,.31-2.21.32-4.53.77-6.71.55-2.72,2.21-4.73,5.3-5l2.67,1.7c.45.3,1,.7,1.41.26s.27-1,.26-1.51c0-.88-.69-.54-1.16-.53A5.31,5.31,0,0,1,36.21,66.8ZM45.64,2.31A38.34,38.34,0,0,0,34.74,4C25.63,6.6,17.36,15.65,19.9,27.61a20.18,20.18,0,0,1-.43,11.56,13.32,13.32,0,0,0,2.07,13C24.71,56.48,28.77,59.82,33,63c2.83,2.14,6,3.15,9.49,1.35a79.56,79.56,0,0,0,10.09-5.72c2.89-2,5.77-4.2,7.51-7.33,5.18-9.31,8.3-19.16,6.7-30C65.8,15,63.63,9.21,58.07,5.4,54.17,2.73,49.6,2.64,45.64,2.31Zm4.22,60.3c-2.54,1.22-4.94,2.41-7.38,3.52-.88.41-.76,1.11-.81,1.82a9.57,9.57,0,0,1-1.59,4.83c-.27.38-.59.7-1.11.51a.63.63,0,0,1-.46-.84c.78-2.76-2-2.57-3.15-3.24s-2.45.75-2.89,2.1a19,19,0,0,0-1,8.08,20.18,20.18,0,0,0,4.93-3.67c.91,1.74-.42,2.33-1.22,3s-1.82,1.15-2.68,1.8S31,82,32.51,83a26.27,26.27,0,0,0,5.59,2.66c.36.13,1.15.4,1.21-.06.35-2.82,3.56-3.91,3.75-7.09,1.1,2.36,1.1,2.36-1,5-.87,1.09-2,2.75.07,3.16a33.24,33.24,0,0,0,15,0c-.93-1.76-1.77-3.33-2.58-4.92-.4-.76-.64-1.68.23-2.17s.79.94,1.46,1c.54-1,.47-2.24,1.64-3.09.54,1.6-.37,2.72-.72,4-.59,2,.8,3.43,1.94,4.72.56.64,5.46-1.81,5.46-2.75,0-3.23,1.08-6.41.27-9.71-1.09-4.43-2.33-5.21-6.62-3.61-1.85.69-3.64,1.53-5.7,1.48-1.64,0-2.36-.76-2.71-2.38C49.31,67,50.12,64.93,49.86,62.61Z" style="fill:#3c3d55"/><path d="M8.09,18.4c-4-.93-4.53-1.83-4.12-6,.11-1.11-1-2.36,0-3.35A17.75,17.75,0,0,0,6.5,5.41c.42-.72,1.52-1.16,1.94.3C9.11,8,11,8.59,13,8.82a3.93,3.93,0,0,1,3.82,3.54c.29,2-1,3.06-2.73,3.82A24.58,24.58,0,0,0,11.18,18c2.64,2.3,2.51,3.53,1,6.66C10.9,27.41,9.8,30,6.47,30.85c-1.62.43-2.6.27-3-1.43-.08-.33-.14-.87-.33-.93C.2,27.6,1.47,24.63.33,22.82c-.65-1-.49-2.62,1.81-1.61C4.77,22.38,6.22,20.24,8.09,18.4ZM7.4,7.52c.11,3,.11,3-2.15,2.79-.54,1.38,2,2.26.69,3.65-1.48,1.62.06,2.05,1,2.37a10.5,10.5,0,0,0,3.1.06,4.34,4.34,0,0,1-1-4,2.05,2.05,0,0,1,2.45-1.57,1.59,1.59,0,0,1,1.45,1.93,1.42,1.42,0,0,1-.39.93c-.29.21-.66.09-.8-.37-.24-.79-.68-1.14-1.26-.31a1.17,1.17,0,0,0,.47,1.62A3,3,0,0,0,14,14.38c.75-.49,1.65-1,1.32-2.06a2.42,2.42,0,0,0-2.15-1.79A7.33,7.33,0,0,1,7.4,7.52Zm-5,15.65c-.71,1.48,3.55,1.33,1,3.39.2.1.4.28.6.28,2.82-.09,1.53,1.4.83,2.54,1.08.45,1.69-.3,2.43-.51A4.14,4.14,0,0,0,9.88,26c.43-1.2-1.39-.93-1.59-1.72-.66-2.6-2.17-2.15-4-1.31A5.48,5.48,0,0,1,2.4,23.17Zm6.79-3.25c.17,1,2.42,1,1,2.54-.3.35-1.79-1.36-1,.55.37.85,1.14.55,1.85.16,1-.55.7-1.41.53-2.14C11.35,19.82,10.44,19.58,9.19,19.92Z" style="fill:#3c3d55"/><path d="M77.22,17c-2.74.36-5.16-1.13-7.51-2.51-2.59-1.51-2.52-4.89,0-7a5.45,5.45,0,0,1,2.57-1.43A9.85,9.85,0,0,0,79.45,1c1-1.72,2-.95,2.62.58.4,1,.3,2.44,2.3,2,1-.24,1.23,1.39,1.15,2.11-.21,1.94-.06,3.89-.24,5.79C84.94,15.13,82,17.06,77.22,17ZM73.65,15.4c2.29,0,4.15,0,6,0,2.23,0,3.36-1.48,4.13-3.33.12-.28.56-.79.12-.88-2.7-.53-.65-1.66-.4-2.59.29-1.08,1.11-2.09.47-3.48C82.35,6.52,80.81,7.55,81.41,4c.11-.61-.42-1.32-.81-2.43-1.81,3.84-5,5.25-8.59,6.14a3.43,3.43,0,0,0-1.36.82c-1,.87-1.86,2-1.5,3.26a2.71,2.71,0,0,0,2.34,2,4.33,4.33,0,0,0,3.56-1.65c.51-.57.84-1.51.21-2-.84-.59-1.18.29-1.45,1-.07.18-.38.27-.71.49a2.08,2.08,0,0,1,.82-3A1.86,1.86,0,0,1,76.38,9a2.36,2.36,0,0,1,.46,3C76.24,13.34,74.81,13.92,73.65,15.4Z" style="fill:#3c3d55"/><path d="M87.31,27.86c.69.77,1.88.72,1.58,1.65a3.52,3.52,0,0,1-2.45,2c-1.19.4-2,.35-2.1,2.31-.06,1.38-2.76,1.64-4.47,1a10.72,10.72,0,0,1-5.75-5.43c-1-1.87-.89-4.07-2.28-5.9-.86-1.13-.13-3,1-3.89,1.65-1.34,3.67-1.16,5.61-.52,2.09.7,3.63,2.29,5.43,3.47a5.65,5.65,0,0,0,5.08.81c.6-.19,1.28-.94,1.82,0a2.21,2.21,0,0,1-.22,2.31C89.89,26.7,88.68,27.21,87.31,27.86Zm2.58-3.46c-4.08,1.58-6.61-.65-9.22-2.49-1.41-1-2.75-2-4.56-2.16a2.66,2.66,0,0,0-3,2.13c-.45,1.51.73,2,1.84,2.45,1.61.68,2.18-.34,2.75-1.48a.8.8,0,0,0-1.08-.11c-1.15.56-1.39,0-.81-.88s1.43-.6,2.25-.46c.56.1.69.49.74,1,.21,1.88-.29,3.27-2.44,3.42-.87.06-1.52,0-1.44,1.29.22,3.33,4.79,6.92,8,6.15-.07-.84-1.41-1.14-1.05-2s1.44-.53,2.2-.54a3.51,3.51,0,0,0,2.87-1.06c-.47-.93-2.22-.43-2.08-1.78S86.29,27,87,26.58A7,7,0,0,0,89.89,24.4Z" style="fill:#3c3d55"/><path d="M36.21,66.8a5.31,5.31,0,0,0,2.62.34c.47,0,1.15-.35,1.16.53,0,.52,0,1.19-.26,1.51s-1,0-1.41-.26l-2.67-1.7Z" style="fill:#f3e7e2"/><path d="M45.64,2.31c4,.33,8.53.42,12.43,3.09C63.63,9.21,65.8,15,66.74,21.31c1.6,10.82-1.52,20.67-6.7,30-1.74,3.13-4.62,5.28-7.51,7.33a79.56,79.56,0,0,1-10.09,5.72c-3.51,1.8-6.66.79-9.49-1.35-4.18-3.17-8.24-6.51-11.41-10.78a13.32,13.32,0,0,1-2.07-13,20.18,20.18,0,0,0,.43-11.56c-2.54-12,5.73-21,14.84-23.66A38.34,38.34,0,0,1,45.64,2.31Z" style="fill:#f3e7e2"/><path d="M49.86,62.61c.26,2.32-.55,4.42-.09,6.58.35,1.62,1.07,2.33,2.71,2.38,2.06.05,3.85-.79,5.7-1.48,4.29-1.6,5.53-.82,6.62,3.61.81,3.3-.28,6.48-.27,9.71,0,.94-4.9,3.39-5.46,2.75-1.14-1.29-2.53-2.67-1.94-4.72.35-1.23,1.26-2.35.72-4-1.17.85-1.1,2.14-1.64,3.1-.67-.12-.56-1.55-1.46-1.06s-.63,1.41-.23,2.17c.81,1.59,1.65,3.16,2.58,4.92a33.24,33.24,0,0,1-15,0c-2-.41-.94-2.07-.07-3.16,2.08-2.61,2.08-2.61,1-5-.19,3.18-3.4,4.27-3.75,7.09-.06.46-.85.19-1.21.06A26.27,26.27,0,0,1,32.51,83c-1.49-1-1-1.67,0-2.41s1.87-1.1,2.68-1.8,2.13-1.3,1.22-3a20.18,20.18,0,0,1-4.93,3.67,19,19,0,0,1,1-8.08c.44-1.35,1.65-2.8,2.89-2.1s3.93.48,3.15,3.24a.63.63,0,0,0,.46.84c.52.19.84-.13,1.11-.51A9.57,9.57,0,0,0,41.67,68c0-.71-.07-1.41.81-1.82C44.92,65,47.32,63.83,49.86,62.61Z" style="fill:#f3e7e2"/><path d="M7.4,7.52a7.33,7.33,0,0,0,5.74,3,2.42,2.42,0,0,1,2.15,1.79c.33,1-.57,1.57-1.32,2.06a3,3,0,0,1-3.09.22A1.17,1.17,0,0,1,10.41,13c.58-.83,1-.48,1.26.31.14.46.51.58.8.37a1.42,1.42,0,0,0,.39-.93,1.59,1.59,0,0,0-1.45-1.93A2.05,2.05,0,0,0,9,12.37a4.34,4.34,0,0,0,1,4,10.5,10.5,0,0,1-3.1-.06C6,16,4.46,15.58,5.94,14c1.27-1.39-1.23-2.27-.69-3.65C7.51,10.56,7.51,10.56,7.4,7.52Z" style="fill:#d9eaf3"/><path d="M2.4,23.17A5.48,5.48,0,0,0,4.32,23c1.8-.84,3.31-1.29,4,1.31.2.79,2,.52,1.59,1.72a4.14,4.14,0,0,1-2.67,2.83c-.74.21-1.35,1-2.43.51.7-1.14,2-2.63-.83-2.54-.2,0-.4-.18-.6-.28C6,24.5,1.69,24.65,2.4,23.17Z" style="fill:#d9eaf3"/><path d="M9.19,19.92c1.25-.34,2.16-.1,2.45,1.11.17.73.47,1.59-.53,2.14-.71.39-1.48.69-1.85-.16-.82-1.91.67-.2,1-.55C11.61,20.91,9.36,21,9.19,19.92Z" style="fill:#d9eaf3"/><path d="M73.65,15.4c1.16-1.48,2.59-2.06,3.19-3.41a2.36,2.36,0,0,0-.46-3,1.86,1.86,0,0,0-2.46-.38,2.08,2.08,0,0,0-.82,3c.33-.22.64-.31.71-.49.27-.7.61-1.58,1.45-1,.63.44.3,1.38-.21,2a4.33,4.33,0,0,1-3.56,1.65,2.71,2.71,0,0,1-2.34-2c-.36-1.31.55-2.39,1.5-3.26A3.43,3.43,0,0,1,72,7.69c3.57-.89,6.78-2.3,8.59-6.14.39,1.11.92,1.82.81,2.43-.6,3.57.94,2.54,2.58,1.14.64,1.39-.18,2.4-.47,3.48-.25.93-2.3,2.06.4,2.59.44.09,0,.6-.12.88-.77,1.85-1.9,3.3-4.13,3.33C77.8,15.42,75.94,15.4,73.65,15.4Z" style="fill:#ddeff7"/><path d="M89.89,24.4A7,7,0,0,1,87,26.58c-.71.46-2,.05-2.16,1.26s1.61.85,2.08,1.78a3.51,3.51,0,0,1-2.87,1.06c-.76,0-1.8-.42-2.2.54s1,1.17,1.05,2c-3.2.77-7.77-2.82-8-6.15-.08-1.29.57-1.23,1.44-1.29,2.15-.15,2.65-1.54,2.44-3.42-.05-.48-.18-.87-.74-1-.82-.14-1.74-.33-2.25.46s-.34,1.44.81.88a.8.8,0,0,1,1.08.11C77.12,24,76.55,25,74.94,24.33c-1.11-.46-2.29-.94-1.84-2.45a2.66,2.66,0,0,1,3-2.13c1.81.16,3.15,1.17,4.56,2.16C83.28,23.75,85.81,26,89.89,24.4Z" style="fill:#ddeff7"/></g></g></svg>