<svg xmlns="http://www.w3.org/2000/svg" viewBox="0 0 54.99 52.26">
    <g>
        <path d="M0,18c1.44-2,1.71-4.63,3.24-6.65C8.41,4.5,14.63-.59,23.75.05c7.49.53,12.66,5.21,17.09,10.79a64.46,64.46,0,0,1,7.07,12.1,10.2,10.2,0,0,0,3.16,4.3A12.61,12.61,0,0,1,55,32.14v2.72c-1.65,3.48-4.17,5.49-8.26,5-.77-.11-1.58-.29-1.43,1.13.54,5.13-3.2,8.25-8,6.61-1.78-.62-2.65-.64-3.61,1.34-1.62,3.33-6,4.21-9.21,2.55-7.39-3.82-12-9.9-14.88-17.52-.33-.87-.42-1.95-1.66-2.25C3,30.5,1.68,26.48.55,22.31c-.11-.41,0-.92-.55-1.06Zm33.11,5.5A1.66,1.66,0,0,1,34.32,25c1.3,6.52,5.09,10.88,11.44,12.91,2.51.8,5.41-.21,6.41-2.06,1.3-2.4.95-4.44-1.42-6.47-2.79-2.4-4.5-5.51-6.12-8.71A42.84,42.84,0,0,0,34.54,7.07c-3-2.55-6.27-4.52-10.29-4.88C14.81,1.36,8.75,6.62,4.07,13.84c-2.71,4.2-2.3,8.76.39,13A5.85,5.85,0,0,0,9.51,30c5.77.08,10-6.61,7.93-12.49-.25-.71-1.17-1.7-.24-2.13,1.13-.53,1.74.6,2,1.6,2,6.6-1.14,12.71-6.8,14.56-1.48.48-1.46.88-1,2A34.84,34.84,0,0,0,21.73,47.54c2.09,1.64,4.38,2.91,7.2,2.55,2-.26,3-1.65,3.76-3.43s-.9-2-1.62-2.68A31.46,31.46,0,0,1,22.85,31c-.69-1.87-.62-1.9-.05-3.59.14.11.39.19.41.32,1,5.25,4.08,9.34,7.44,13.22a17.3,17.3,0,0,0,6.47,4.68c2.51,1,5.16.24,6.18-1.68s0-4.6-2.16-6.17C36.37,34.33,33.3,29.83,33.11,23.48Z"
              style="fill:#3a3d57"/>
        <path d="M33.11,23.48c.19,6.35,3.26,10.85,8,14.34,2.15,1.57,3.19,4.23,2.16,6.17s-3.67,2.7-6.18,1.68A17.3,17.3,0,0,1,30.65,41c-3.36-3.88-6.46-8-7.44-13.22,0-.13-.27-.21-.41-.32-.57,1.69-.64,1.72.05,3.59A31.46,31.46,0,0,0,31.07,44c.72.65,2.31,1,1.62,2.68S31,49.83,28.93,50.09c-2.82.36-5.11-.91-7.2-2.55A34.84,34.84,0,0,1,11.44,33.45c-.46-1.07-.48-1.47,1-2,5.66-1.85,8.76-8,6.8-14.56-.3-1-.91-2.13-2-1.6-.93.43,0,1.42.24,2.13C19.55,23.35,15.28,30,9.51,30a5.85,5.85,0,0,1-5-3.14c-2.69-4.22-3.1-8.78-.39-13C8.75,6.62,14.81,1.36,24.25,2.19c4,.36,7.31,2.33,10.29,4.88A42.84,42.84,0,0,1,44.63,20.69C46.25,23.89,48,27,50.75,29.4c2.37,2,2.72,4.07,1.42,6.47-1,1.85-3.9,2.86-6.41,2.06-6.35-2-10.14-6.39-11.44-12.91A1.66,1.66,0,0,0,33.11,23.48Z"
              style="fill:#daeef7"/>
    </g>
</svg>