<svg xmlns="http://www.w3.org/2000/svg" viewBox="0 0 48 41.45">
    <defs>
        <style>
            .ears0 {fill:#dff7fe}
        </style>
    </defs>
    <g>
        <path d="M0,24.08a2.55,2.55,0,0,0,1.08-1.7C4,14.41,10.32,12.05,18,11.57a95.25,95.25,0,0,0,10.91-1C33.62,9.78,36.77,6.94,39,3A10.27,10.27,0,0,1,41.25.24h1.63c2.52.88,3.13,3,3.1,5.27a24.11,24.11,0,0,1-.81,4.13c-.12.61-.8,1.43.26,1.77,1.48.46,1.48,2,2.33,2.91V16c-1.42,2.92-2.66,5.95-5,8.31-.51.5-.37,1.16-.38,1.78a10.76,10.76,0,0,1-2.83,7.05C34.32,39,27.89,41.74,20,40.36a9,9,0,0,0-5.28,1h-3.8C6.48,40,2.77,37.87,1,33.19.5,32,1.23,30.48,0,29.49Zm40.51,2.21-2.79,1.5a23.91,23.91,0,0,1-6,2.18c-.75.19-1.87.36-2.12-.6-.32-1.27,1-.95,1.62-1.1a22.05,22.05,0,0,0,8.68-4,14.76,14.76,0,0,0,5.62-8.79c.2-.94.25-2.05-.92-2.57s-1.47.66-2,1.27a16.25,16.25,0,0,1-7.88,4.9c-1,.26-2.9,1.35-3.25.09s1.72-1.22,2.79-1.59c6.26-2.16,10-7,9.78-12.7C44,3.6,43.78,2.3,42.57,2s-1.88.88-2.34,1.87c-2.33,4.93-6.37,7.64-11.57,8.62a53.55,53.55,0,0,1-8.3.72,33.13,33.13,0,0,0-9.53,1.44C3,17.25.43,27.12,3.12,33.41A10.4,10.4,0,0,0,15.57,39.2c4.68-1.44,6.08-5.47,7.13-9.6.39-1.55.42-3.71-1.4-4.13s-1.78,1.78-2.22,3c-.2.59-.11,1.38-.87,1.49S17,29.44,16.76,28.7a4.42,4.42,0,0,0-2.57-2.58c-.87-.42-1.74-.74-2.48.05s-.06,1.52.27,2.22c.85,1.85,2.39,3.14,3.69,4.63.36.41,1,1,.29,1.62s-1.17,0-1.62-.38A17.68,17.68,0,0,1,10.28,29c-.67-1.41-1.11-3,.25-4.21s2.78-.79,4.29-.31c1.24.4,1.81,1.64,2.92,2.16.87-1.63,1.61-3.65,3.9-2.91,2.09.69,2.9,2.57,2.8,4.75a11.78,11.78,0,0,1-.22,1.87,15.37,15.37,0,0,1-3.31,7.23c-1.1,1.33-.13,1.51.7,1.65a15.18,15.18,0,0,0,5.32-.5C32.46,37.65,39.91,33.11,40.55,26.29Z"
              style="fill:#3b3d57"/>
        <path d="M40.55,26.29c-.64,6.82-8.09,11.36-13.62,12.39a15.18,15.18,0,0,1-5.32.5c-.83-.14-1.8-.32-.7-1.65a15.37,15.37,0,0,0,3.31-7.23,11.78,11.78,0,0,0,.22-1.87c.1-2.18-.71-4.06-2.8-4.75-2.29-.74-3,1.28-3.9,2.91-1.11-.52-1.68-1.76-2.92-2.16-1.51-.48-3-.86-4.29.31s-.92,2.8-.25,4.21a17.68,17.68,0,0,0,4.06,5.31c.45.41.95,1,1.62.38S16,33.43,15.67,33c-1.3-1.49-2.84-2.78-3.69-4.63-.33-.7-1-1.47-.27-2.22s1.61-.47,2.48-.05a4.42,4.42,0,0,1,2.57,2.58c.24.74.6,1.41,1.45,1.29s.67-.9.87-1.49c.44-1.25.45-3.44,2.22-3s1.79,2.58,1.4,4.13c-1.05,4.13-2.45,8.16-7.13,9.6A10.4,10.4,0,0,1,3.12,33.41C.43,27.12,3,17.25,10.83,14.65a33.13,33.13,0,0,1,9.53-1.44,53.55,53.55,0,0,0,8.3-.72c5.2-1,9.24-3.69,11.57-8.62.46-1,1.2-2.15,2.34-1.87S44,3.6,44,4.86c.2,5.68-3.52,10.54-9.78,12.7-1.07.37-3.14.37-2.79,1.59s2.29.17,3.25-.09a16.25,16.25,0,0,0,7.88-4.9c.56-.61.78-1.82,2-1.27s1.12,1.63.92,2.57a14.76,14.76,0,0,1-5.62,8.79,22.05,22.05,0,0,1-8.68,4c-.62.15-1.94-.17-1.62,1.1.25,1,1.37.79,2.12.6a23.91,23.91,0,0,0,6-2.18Z"
              class="ears0"/>
    </g>
</svg>