<svg xmlns="http://www.w3.org/2000/svg" viewBox="0 0 52.81 59.86">
    <g>
        <path d="M41.47,35.32C43,37,44.54,38.67,45.9,40.48c1.63,2.17,3.48,4.62,2.31,7.39-1.25,2.94-4.49,3.2-7.22,3.4a17.86,17.86,0,0,1-12.8-4.07,9.44,9.44,0,0,0-2-.9c1.17,2.67,3,4.29,4.54,6.18C31.87,54,34.18,55.3,33,57.55s-3.85,2.5-6,2.21C17.66,58.5,10.07,54.37,5.27,45.89,2.93,41.76,1.55,37.26,0,32.82V30.1c1-2.92,3.11-3.53,6-3.33,9.58.67,18.4-1.55,26.07-7.56a23.26,23.26,0,0,0,6.26-7.39c2.14-4,5.95-6.7,8.22-10.6a2.3,2.3,0,0,1,3.09-1,3.8,3.8,0,0,1,1.79,4.18,11.64,11.64,0,0,1-3,6.49,5.57,5.57,0,0,1,4.4,3.37v2.18a7.32,7.32,0,0,1-6.57,4.82c.7,1.37,1.9,1.85,2.78,2.64,2.64,2.39,3.52,4.7,2.62,7.1s-3.82,4-7.07,4c-.81,0-1.62-.16-2.42-.24A1,1,0,0,0,41,34.59ZM27,58c1.59-.09,3.55.16,4.22-1.32.6-1.31-1.25-2.14-2.07-3.13a39.38,39.38,0,0,1-5.95-8.69c-.34-.75-1.26-1.53-.39-2.4s1.63.2,2.3.6c1.39.82,2.67,1.84,4,2.74a19.36,19.36,0,0,0,9.67,3.66c2.78.14,6.1.33,7.6-2.28C47.68,45,45.33,43,44,41.07c-1.57-2.26-3.71-4-5.5-6-.6-.7-1.39-1.39-.87-2.35s1.53-.55,2.23-.36c1.15.32,2.35.25,3.46.55,2.79.75,5.17.11,6.45-2.4,1.4-2.76-1.15-4.17-2.7-5.86-1.1-1.2-3.81-1.3-3.37-3.35s2.85-1.83,4.5-2.37c1.87-.6,2.4-1.88,2.49-3.69s-1.11-2-2.37-2.3c-2.14-.5-2.35-1.61-1.07-3.29a14.57,14.57,0,0,0,2.48-5A2.19,2.19,0,0,0,49,2c-1.06-.67-1.5.54-2,1.26-2.72,4-5.65,7.9-8.56,11.73C30.17,26,18.43,29.57,5.05,28.52c-1.77-.14-2.87.16-2.85,2.13a13.35,13.35,0,0,0,.24,3.23A43.49,43.49,0,0,0,7.8,46.41C12.3,53.41,19.17,56.55,27,58Z"
              style="fill:#3b3d58"/>
        <path d="M27,58c-7.84-1.46-14.71-4.6-19.21-11.6A43.49,43.49,0,0,1,2.44,33.88a13.35,13.35,0,0,1-.24-3.23c0-2,1.08-2.27,2.85-2.13C18.43,29.57,30.17,26,38.5,15c2.91-3.83,5.84-7.72,8.56-11.73.48-.72.92-1.93,2-1.26a2.19,2.19,0,0,1,.7,2.58,14.57,14.57,0,0,1-2.48,5c-1.28,1.68-1.07,2.79,1.07,3.29,1.26.3,2.46.48,2.37,2.3s-.62,3.09-2.49,3.69c-1.65.54-4.09.45-4.5,2.37s2.27,2.15,3.37,3.35c1.55,1.69,4.1,3.1,2.7,5.86-1.28,2.51-3.66,3.15-6.45,2.4-1.11-.3-2.31-.23-3.46-.55-.7-.19-1.75-.51-2.23.36s.27,1.65.87,2.35c1.79,2,3.93,3.74,5.5,6,1.32,1.89,3.67,3.91,2.4,6.12-1.5,2.61-4.82,2.42-7.6,2.28a19.36,19.36,0,0,1-9.67-3.66c-1.35-.9-2.63-1.92-4-2.74-.67-.4-1.33-1.58-2.3-.6s.05,1.65.39,2.4a39.38,39.38,0,0,0,5.95,8.69c.82,1,2.67,1.82,2.07,3.13C30.56,58.17,28.6,57.92,27,58Z"
              style="fill:#daeef7"/>
        <path d="M41.47,35.32,41,34.59a1,1,0,0,1,1.14.17Z" style="fill:#fff"/>
    </g>
</svg>