<svg xmlns="http://www.w3.org/2000/svg" viewBox="0 0 43.63 74.64">
    <defs>
        <style>
            .ears0 {fill:#dff7fe}
        </style>
    </defs>
    <g>
        <path d="M32.12,0c5.84,2,9.58,5.81,11,11.94,1.76,7.75-.78,14.07-7.44,18.38a33.33,33.33,0,0,1-16.49,5.12c-1.92.11-3.77.85-5.78.88,4.86,1.31,9.75,2.52,14.57,4a17.09,17.09,0,0,1,9.76,7.48c2,3.25,2.2,6.55,0,9.83a9.71,9.71,0,0,1-9.37,4.18c-5.52-.47-5.51-.65-4.91,4.78.08.72,0,1.46.16,2.16.48,2.48-.08,4.52-2.33,5.91H19.6c-2.77-1.45-3.88-4-4.35-6.87a13.92,13.92,0,0,0-3.72-7,45.7,45.7,0,0,1-10-17.92C.79,40.39,1.1,37.77,0,35.41V33.78c1.17-.75.4-2.07,1-3.13,3.24-5.92,6.22-12,9.35-18A23.27,23.27,0,0,1,22.23,1.42a41.92,41.92,0,0,1,5-1.42Zm-5.5,59.37c1.09.07,1.55.08,2,.12,3.38.3,6.13-.93,7.74-3.89,1.69-3.13.47-6-1.66-8.45C31.47,43.46,27,42,22.42,40.88c-3.82-.93-7.77-1.46-11.29-3.37-.93-.51-2-1.2-1.74-2.46.25-1.07,1.46-.85,2.32-1,4.7-.83,9.49-.82,14.18-1.89,10.4-2.37,15.73-8.43,15.48-17.88C41.24,9.39,37.65,4.12,33,2.78,27,1,21.72,2.94,17.2,7.07c-5.51,5-7.73,12.05-11,18.4-1.61,3.12-3.45,6.28-3.5,10-.09,7.69,3.19,14.16,7.56,20.05,3.37,4.53,7.22,8.65,7.92,14.62.12,1.08,1.15,2.34,2.41,1.89.9-.32,1.21-1.56.95-2.79a38.77,38.77,0,0,1-.83-5.87c-.14-2.78,1.07-4,3.83-4C25.45,59.35,26.35,59.37,26.62,59.37Z"
              style="fill:#393c56"/>
        <path d="M26.62,59.37c-.27,0-1.17,0-2.08,0-2.76.07-4,1.26-3.83,4a38.77,38.77,0,0,0,.83,5.87c.26,1.23-.05,2.47-.95,2.79-1.26.45-2.29-.81-2.41-1.89-.7-6-4.55-10.09-7.92-14.62C5.89,49.67,2.61,43.2,2.7,35.51c0-3.76,1.89-6.92,3.5-10,3.27-6.35,5.49-13.39,11-18.4C21.72,2.94,27,1,33,2.78c4.61,1.34,8.2,6.61,8.33,11.5.25,9.45-5.08,15.51-15.48,17.88-4.69,1.07-9.48,1.06-14.18,1.89-.86.15-2.07-.07-2.32,1-.3,1.26.81,2,1.74,2.46,3.52,1.91,7.47,2.44,11.29,3.37,4.59,1.11,9,2.58,12.28,6.27,2.13,2.43,3.35,5.32,1.66,8.45-1.61,3-4.36,4.19-7.74,3.89C28.17,59.45,27.71,59.44,26.62,59.37Z"
              class="ears0"/>
    </g>
</svg>