<svg xmlns="http://www.w3.org/2000/svg" viewBox="0 0 92.17 88.52"><g id="Ebene_2" data-name="Ebene 2"><g id="Ebene_1-2" data-name="Ebene 1"><path d="M35.41,66.05c-6.23-2.87-11-7.6-15.4-12.62-4-4.5-4.62-9.84-3.08-15.49.71-2.62,2.21-5.13.73-8-.14,0-.36,0-.48.05-4.83,3.33-4.54,4-9.57-.4C5,27.3,2.53,24.74,0,22.28V19.56a9.51,9.51,0,0,1,3.81-1.72c3.35-.5,5.83-2.66,8.35-4.74s5.13-4,8.64-3.9c1.13,0,1.53-.86,2.15-1.45C30.13,1,38.74-.69,48.25.23A24,24,0,0,1,62.59,6.84c2.48,2.22,6.33,3.12,9.13,5.41,4.13,3.37,8.69,5.71,14.19,5.86a7.11,7.11,0,0,1,3.38.84,5.06,5.06,0,0,1,2.88,4.55c0,2.09-1.33,2.95-3,3.71S85,28,84.47,30.69A2.35,2.35,0,0,1,82,32.07c-1.36-.13-2.24,1.17-3,1.31C75.22,34,72.59,39.32,68,36c-.84-.61-1.23.09-1.42.94-.9,3.95-2.64,7.58-4.18,11.31-1.81,4.41-4.88,7.53-8.53,10.27-2.49,1.86-4.14,7-3.07,9.86.43,1.15,1.37.82,2,.67a33.71,33.71,0,0,0,3.82-1.3c5.77-2.14,8.8-.24,9.36,5.91.31,3.37-.43,6.68-.51,10,0,.94-.66,1.09-1.35,1.42C53.81,90,43.49,89.27,33.2,85.2c-3.09-1.23-5-3.2-4.42-7,.31-2.2.32-4.53.77-6.71.55-2.72,2.2-4.73,5.3-5,.89.57,1.79,1.13,2.68,1.71.45.3,1,.7,1.42.28s.25-1,.25-1.52c0-.89-.69-.57-1.16-.55A5.13,5.13,0,0,1,35.41,66.05ZM60.25,7.3a13.57,13.57,0,0,0-7.06-4.55,33.7,33.7,0,0,0-20,.66C24,6.55,16.69,15.49,19.1,26.86c.82,3.91,1,7.64-.43,11.57a13.39,13.39,0,0,0,2.07,13.06,52.32,52.32,0,0,0,10.36,10c2.13,1.67,4.49,3.84,7.71,2.84,13-4.07,22.09-12,25.63-25.67.72-2.8,1.33-5.1-1.41-7.13a7.23,7.23,0,0,1-1.9-2.92A2.46,2.46,0,0,0,58.49,27c-6.44-.24-9.4-4.51-8.05-10.84C51.57,10.83,55,8.34,60.25,7.3ZM30.53,78.66a17,17,0,0,0,4-2.68c.34-.35.56-1.18,1.17-.66s.3,1.16-.23,1.65-.9.9-1.4,1.29c-1.19.91-3.41,1.39-3.23,2.9s2.32,2,3.76,2.68a18.07,18.07,0,0,0,2.76,1.06c.4.11,1.14.49,1.26-.41.37-2.68,3.41-3.7,3.67-6.92,1.49,2.66,0,3.89-1.15,5.19a2.47,2.47,0,0,0-.76,2.48c.33,1,1.34.64,2.09.82,3.5.85,7,.58,10.56.45s3.5-.36,1.84-3.26c-.45-.78-.87-1.58-1.25-2.39s-.52-1.45.16-2c1.13-.9.81,1.1,1.62.9.54-1,.38-2.3,1.64-2.94.49,1.56-.48,2.69-.8,4-.5,2,.78,3.45,2.08,4.61.71.62,5.36-1.91,5.37-2.86,0-3.4,1.07-6.76.13-10.24S61.81,68,58.31,69.07c-2.14.64-4.12,1.81-6.47,1.76-1.75,0-2.53-.74-2.88-2.5-.44-2.12.42-4.2.06-6.51-2.12,1.06-4,2.1-6,2.95-1.43.61-2.34,1.28-2.29,3.09a6.93,6.93,0,0,1-1.55,4.26.86.86,0,0,1-1.15.38c-.4-.19-.41-.53-.33-.9.58-2.5-1.86-2.35-3-3.1s-2.19.33-2.75,1.43C30.66,72.57,30.63,75.42,30.53,78.66ZM76.61,22.07c1.54,1.05,3.07,2.13,4.64,3.14a7.12,7.12,0,0,0,7.67.15c1.94-1,2.14-2.92.43-4.34a5,5,0,0,0-3-1,24.94,24.94,0,0,1-14.58-5.72c-2.46-2.07-4.94-4.25-8.3-4.87C56.28,8.12,51.37,12.71,51.89,20.1a5,5,0,0,0,4.42,4.8c2.79.33,5.89,1,8-1.83s1.07-5.94-2.15-7.18c-.53-.2-1.84.36-1.53-.87.25-1,1.22-.66,2.06-.47A5.35,5.35,0,0,1,67,18.89c.57,2.46-.85,5.32-2.91,6.81-.66.47-2.6.37-1.58,2.1,1.81,3.07,3.83,5.88,7.46,7.13,1.41.48,2.55.58,3.34-.69S72.61,32.63,72,32c-1.38-1.56-3-3-3.13-5.25,2.16,1.65,3.58,4,6,5.35,1,.55,2.11,1.05,2.92,0,1-1.38-.67-1.54-1.25-2.15C75,28.23,73.32,26.65,71.7,25c1.69-.33,2.21.62,3,1.25a30.14,30.14,0,0,0,5.23,3.83,2.38,2.38,0,0,0,3.37-.69c.89-1.52-.81-1.6-1.62-2.1C79.54,26,77.25,24.93,76.61,22.07ZM20.5,10.83a9.07,9.07,0,0,0-5.13,2c-3.85,3-7.4,6.36-12.58,7-1.15.15-1.55,1-.63,2.21,1.33,1.68,2.78,1.63,5.1-.21.73-.59,1.1-1.91,2.55-1.62-.43,2.29-2.17,3.16-3.76,4.14-.4.25-1.27,0-1.06.84.17.66.78.9,1.51.89,1.15,0,1.68-.94,2.44-1.55s1.3-2.06,2.83-1.65c-.2,1.7-1.62,2.39-2.49,3.49-.4.51-1.57.89-.88,1.65s1.39-.2,2.07-.6c1.23-.73,1.28-2.61,3-3,.17,1.84-.87,2.93-1.9,4.05-.48.53-1.68.85-1,1.89s1.76.87,2.68.38c4.11-2.21,4.78-3.44,2.93-7.95-.93-2.29-.88-4.38.6-6S18.93,13,20.5,10.83Z" style="fill:#3c3d55"/><path d="M35.41,66.05a5.13,5.13,0,0,0,2.63.34c.47,0,1.15-.34,1.16.55,0,.52,0,1.2-.25,1.52s-1,0-1.42-.28c-.89-.58-1.79-1.14-2.68-1.71Z" style="fill:#f3e7e2"/><path d="M60.25,7.3c-5.21,1-8.68,3.53-9.81,8.84-1.35,6.33,1.61,10.6,8.05,10.84a2.46,2.46,0,0,1,2.64,1.6A7.23,7.23,0,0,0,63,31.5c2.74,2,2.13,4.33,1.41,7.13C60.9,52.26,51.84,60.23,38.81,64.3c-3.22,1-5.58-1.17-7.71-2.84a52.32,52.32,0,0,1-10.36-10,13.39,13.39,0,0,1-2.07-13.06c1.45-3.93,1.25-7.66.43-11.57C16.69,15.49,24,6.55,33.19,3.41a33.7,33.7,0,0,1,20-.66A13.57,13.57,0,0,1,60.25,7.3Z" style="fill:#f3e7e2"/><path d="M30.53,78.66c.1-3.24.13-6.09,1.44-8.73.56-1.1,1.69-2.12,2.75-1.43s3.59.6,3,3.1c-.08.37-.07.71.33.9a.86.86,0,0,0,1.15-.38,6.93,6.93,0,0,0,1.55-4.26c0-1.81.86-2.48,2.29-3.09,2-.85,3.85-1.89,6-2.95.36,2.31-.5,4.39-.06,6.51.35,1.76,1.13,2.46,2.88,2.5,2.35,0,4.33-1.12,6.47-1.76,3.5-1,4.61-.27,5.56,3.24s-.09,6.84-.13,10.24c0,1-4.66,3.48-5.37,2.86-1.3-1.16-2.58-2.58-2.08-4.61.32-1.28,1.29-2.41.8-4-1.26.64-1.1,2-1.64,2.94-.81.2-.49-1.8-1.62-.9-.68.54-.49,1.31-.16,2s.8,1.61,1.25,2.39c1.66,2.9,1.61,3.14-1.84,3.26s-7.06.4-10.56-.45c-.75-.18-1.76.19-2.09-.82a2.47,2.47,0,0,1,.76-2.48c1.17-1.3,2.64-2.53,1.15-5.19-.26,3.22-3.3,4.24-3.67,6.92-.12.9-.86.52-1.26.41a18.07,18.07,0,0,1-2.76-1.06c-1.44-.68-3.58-1.2-3.76-2.68s2-2,3.23-2.9c.5-.39.93-.85,1.4-1.29s.77-1.19.23-1.65-.83.31-1.17.66A17,17,0,0,1,30.53,78.66Z" style="fill:#f3e7e2"/><path d="M76.61,22.07c.64,2.86,2.93,3.95,5,5.26.81.5,2.51.58,1.62,2.1a2.38,2.38,0,0,1-3.37.69,30.14,30.14,0,0,1-5.23-3.83c-.74-.63-1.26-1.58-3-1.25,1.62,1.61,3.28,3.19,4.86,4.84.58.61,2.26.77,1.25,2.15-.81,1.1-1.91.6-2.92,0-2.41-1.31-3.83-3.7-6-5.35C69.05,29,70.65,30.42,72,32c.58.65,2.09,1,1.3,2.26s-1.93,1.17-3.34.69c-3.63-1.25-5.65-4.06-7.46-7.13-1-1.73.92-1.63,1.58-2.1,2.06-1.49,3.48-4.35,2.91-6.81a5.35,5.35,0,0,0-4.3-4.34c-.84-.19-1.81-.52-2.06.47-.31,1.23,1,.67,1.53.87,3.22,1.24,4.24,4.43,2.15,7.18s-5.24,2.16-8,1.83a5,5,0,0,1-4.42-4.8c-.52-7.39,4.39-12,11.57-10.64,3.36.62,5.84,2.8,8.3,4.87a24.94,24.94,0,0,0,14.58,5.72,5,5,0,0,1,3,1c1.71,1.42,1.51,3.31-.43,4.34a7.12,7.12,0,0,1-7.67-.15C79.68,24.2,78.15,23.12,76.61,22.07Z" style="fill:#ddeff7"/><path d="M20.5,10.83c-1.57,2.18-2.17,4.25-3.69,5.92s-1.53,3.73-.6,6c1.85,4.51,1.18,5.74-2.93,8-.92.49-2,.63-2.68-.38s.51-1.36,1-1.89c1-1.12,2.07-2.21,1.9-4.05-1.74.43-1.79,2.31-3,3-.68.4-1.35,1.38-2.07.6s.48-1.14.88-1.65c.87-1.1,2.29-1.79,2.49-3.49-1.53-.41-2,1-2.83,1.65S7.65,26.07,6.5,26.1c-.73,0-1.34-.23-1.51-.89-.21-.84.66-.59,1.06-.84,1.59-1,3.33-1.85,3.76-4.14-1.45-.29-1.82,1-2.55,1.62-2.32,1.84-3.77,1.89-5.1.21-.92-1.17-.52-2.06.63-2.21,5.18-.64,8.73-4.05,12.58-7A9.07,9.07,0,0,1,20.5,10.83Z" style="fill:#ddeff7"/></g></g></svg>