<svg xmlns="http://www.w3.org/2000/svg" viewBox="0 0 80.4 108.23">
    <g>
        <path d="M76.9,0c2.41,3.23,2.1,6.85,1.52,10.51-.08.5-1,1.4.2,1.39,2.54,0,1.67,1.74,1.49,2.82-.22,1.38-1,2.66-1.37,4-.22.89-2.54,2.18.36,2.8.51.11,0,1,0,1.5a10.16,10.16,0,0,1-7.84,8c-2.92.45-5.88.88-8.84-.42.77,1.08,1.92,1.9,1.48,3.41-.23.77.32,1.07.95,1.38,1.77.86,1.68,3.06.82,3.62-2.39,1.58-1.27,3.55-1.31,5.43a57.08,57.08,0,0,1-5.07,22.15,27.1,27.1,0,0,1-10.2,12.25c-1.79,1.17-3.12,8-2,9.53.53.75,1.36.52,2,.36a40,40,0,0,0,3.81-1.34c5.65-2.08,8.62-.27,9.29,5.74.38,3.44-.39,6.85-.51,10.28,0,.75-.47,1-1.12,1.29-11.07,5.12-22,4.44-32.79-.75A4.33,4.33,0,0,1,25,99.2c.24-2.33.15-4.68.53-7,.59-3.54,1.94-5.2,5.48-6l2.68,1.72c.46.29,1,.69,1.43.27s.25-1,.24-1.52c0-.89-.68-.56-1.16-.55a5.26,5.26,0,0,1-2.63-.33c-6.24-2.85-11-7.61-15.39-12.62a14.81,14.81,0,0,1-3-15.45c1.42-4,1.07-7.71.12-11.5-.58-2.33.29-4.84-1.55-7.2-.62-.78-.68-4.4,1.59-6a1.83,1.83,0,0,0,.9-1.8c-6,1-11.72-1.64-13.83-6.36C.07,24-.27,23.2.32,22.33s1.46.15,2.38-.19A9.94,9.94,0,0,1,.55,16c0-.77-.42-1.75.38-2.26s1.42.39,2.06.85a12.69,12.69,0,0,0,1.48.76,24.09,24.09,0,0,1-.68-6.61A6.22,6.22,0,0,1,4,6.62c.66-1.4.73-3.71,2.51-3.76,1.94,0,1.24,2.27,1.63,3.49a12,12,0,0,0,5.64,7,12.07,12.07,0,0,1,3.89,3.07C22.23,8.12,29.4,4,38.41,3.94S54.51,8,59.54,15.86a10.54,10.54,0,0,1,4.92-4.2C69.91,9.26,74.45,6,76.35,0ZM25.6,34.29c1.31.57,1.31.57,1.35,2.55,1-.33,2.2-1.52,3-.18,1.64,2.69,3.16.05,4.28-.3,1.82-.57,5.27-1.2,6.94-.34,1.88,1,4,1.16,5.67-.37,1.43-1.29,2.58-1.61,3.79.05.3.41.27.72.86.21,1.06-.9,3.58.13,3.36-2.62,0-.48,1.05-.47,1.64-.66s1.37,1.12,1.82-.13c.38-1.07.81-2.06,0-3.26a16.19,16.19,0,0,0-9.37-6.9,33.21,33.21,0,0,0-15.32-.41c-5.48,1.16-10.39,3.44-14.16,7.84-1.36,1.58-.52,3.23,0,4.38.46,1,2.14,1.41,3.46-.2,1-1.28,2.1-.92,2.69.38a5.1,5.1,0,0,1-1.5.47c-.62,0-1.16.12-1.11.76a2.15,2.15,0,0,0,.77,1.33A1.47,1.47,0,0,0,25,36.82C26.24,36.25,25.58,35.18,25.6,34.29Zm2.2,9.88c-.17-.92.33-2.41-1.49-2-.57.15-1.53.49-1.17,1.46.59,1.57,1.8.3,2.7.47.44,1.33-.83,1.54-1.41,1.52A2.31,2.31,0,0,1,24,43.59c-.15-1.09-.46-2.25-1.93-1.54-1.2.57-2.2,1.57-3.66.6-1.63-1.07-.53-2.4-.49-3.64,0-.08-.29-.16-.49-.26-.91.57,0,2.1-.82,2.31-3.17.83-1.71,2.95-1.42,4.67.7,4.15,1.38,8.13-.29,12.38-1.77,4.5-.94,9,2,13,3.18,4.26,7.23,7.6,11.42,10.77,2.83,2.15,6,3.12,9.49,1.36a67.78,67.78,0,0,0,12.07-7.15,20.79,20.79,0,0,0,5.25-5.45,53,53,0,0,0,7.48-24.25c.27-4.71-1-5.7-5.43-4.52a1.75,1.75,0,0,1-2.14-.75c-1.45-2.59-2.09-1.38-2.62.52a1.9,1.9,0,0,1-2.72,1.39c-2.21-.7-3.63,0-4.46,2.15a2.26,2.26,0,0,1-3,1.55c-1.16-.32-4.81,1.84-5.2,3-1.06,3-2.28,6-.23,9.12.65,1-.1,1.73-.73,2.36a1.24,1.24,0,0,1-1.91-.05c-.74-.71-1.1-1.67-.36-2.37,1.26-1.21.71-2.64,1-4,.34-1.61-.82-2.61-.88-4.05C33.72,45,33.13,45.38,27.8,44.17ZM38.41,97.23c1.67,2.56.21,3.79-.91,5.14-.9,1.07-2,2.75,0,3.17a33.14,33.14,0,0,0,15,0c-1-1.82-1.88-3.45-2.69-5.13-.32-.65-.46-1.53.33-2,.95-.5.79.93,1.42,1,.64-.92.47-2.26,1.66-3,.63,1.56-.32,2.67-.68,3.88-.62,2.08.82,3.42,1.92,4.74.53.64,5.47-1.78,5.47-2.72,0-3.24,1.08-6.42.28-9.71-1.08-4.45-2.33-5.23-6.61-3.64-1.85.69-3.64,1.53-5.7,1.48a2.5,2.5,0,0,1-2.72-2.36c-.46-2.17.32-4.27.1-6.61-2.54,1.23-4.94,2.43-7.37,3.53-.9.41-.79,1.1-.84,1.81a9.46,9.46,0,0,1-1.58,4.83c-.26.38-.58.71-1.1.53a.62.62,0,0,1-.47-.83c.81-2.78-2-2.56-3.14-3.25s-2.45.73-2.9,2.08a19.32,19.32,0,0,0-1,8.08,19.43,19.43,0,0,0,4.91-3.62c.91,1.39-.05,2-.77,2.64a20.46,20.46,0,0,1-2.64,1.85c-1.62,1-2.05,2-.05,3,1.61.81,3.23,1.6,4.87,2.32.45.2,1.41.45,1.46,0C35,101.75,38.24,100.67,38.41,97.23ZM18.72,27.83c5.53-5.65,12.38-7.92,19.85-8.15s14.81.49,20.25,7.27C57.21,15.78,48.1,6.88,35.93,8.18,27.27,9.11,18.83,18.56,18.72,27.83Zm58-25.13a16,16,0,0,1-6.8,7.86c-2.08,1.24-4.27,2.29-6.32,3.57-4.7,2.95-4.91,12-.24,15,3.64,2.27,13.28,0,13.86-5.52-1-.41-2.44.41-2.92-.88s1-1.54,1.58-2.29a14,14,0,0,0,2.69-6.1c-1.58.17-2.78,1.74-4.49.53A12.39,12.39,0,0,0,76.69,2.7ZM1.76,24.13a18.8,18.8,0,0,0,1.85,2.3c2.51,2.16,5.42,4.25,8.73,3.31,2.94-.83,4.57-3.68,5.09-6.8s-.15-6-3.27-7.59A13.71,13.71,0,0,1,6.31,4.91c-1.6,3.42-1.19,6.62-.15,9.7.61,1.82-.4,2-1.61,2.3-.82.23-1.39-.9-2.23-.37.46,3.13.5,3.19,2.19,4.66.5.43,1.52.64,1.21,1.54a2.19,2.19,0,0,1-2,1.23C3.24,24,2.72,24.06,1.76,24.13Zm17.72-4.74C23.41,11.31,29.91,6.7,38.64,6.69S54,11.27,58.1,19.4a3.73,3.73,0,0,0-.64-3.61,22.7,22.7,0,0,0-4.1-4.7c-9.74-9.19-27-6.67-33.75,4.9C19,17,18.16,18,19.48,19.39Zm-5.12,17.4a1.76,1.76,0,0,0-1.43,1.78c-.1,1.3,1,1,1.81,1.27,1.41.5,1.22-.68,1.34-1.26C16.32,37.48,15.51,37,14.36,36.79Zm1.82-4.95A1.23,1.23,0,0,0,15,33c0,.82.44,1.86,1.57,1.8a1.55,1.55,0,0,0,1.49-1.59C18.17,31.84,17,32.33,16.18,31.84Zm5.08,5.05c-.07-1.1-1-1.18-1.68-1.39a1.22,1.22,0,0,0-1.65,1.21c-.06.75.31,1.44,1.21,1.4A2.38,2.38,0,0,0,21.26,36.89Zm19.08,8.52A1.57,1.57,0,0,0,39,43.9c-.9-.11-1.39.6-1.4,1.55,0,.71-.15,1.47,1,1.43S40,46.2,40.34,45.41Zm-4.4-.71c-.34-.7-.41-1.8-1.22-1.89s-1.29.84-1.39,1.63.48,1.28,1.29,1.33S35.73,45.36,35.94,44.7Zm-11.37-6c-1-.05-1.21.65-1.16,1.42s.41,1.3,1.16,1.2A1.73,1.73,0,0,0,26,39.91C26.1,39.11,25.41,38.69,24.57,38.71Zm8.82,2.1c.72,0,1-.43,1-1,0-.82-.21-1.59-1.16-1.67-.77-.06-1,.5-1,1.23C32.11,40.26,32.73,40.54,33.39,40.81Zm13.68-3.39c.35.49.49,1.37,1.27,1.2a1.81,1.81,0,0,0,1.27-1.84c0-.59-.25-1.17-.86-1A2.81,2.81,0,0,0,47.07,37.42Zm12.85-5.81s-.51.78-.37,1a7.64,7.64,0,0,0,2.12,1.72c.47.25,1-.06,1-.8C62.67,32.07,61.41,32.27,59.92,31.61Zm-38.66,9.1c.14-.94-.73-1.1-1.19-1.17-.76-.12-1.28.62-1.43,1.26s.44,1.18,1.14,1.12S21.17,41.58,21.26,40.71ZM64,39.2a1.72,1.72,0,0,0,.94-1.76.86.86,0,0,0-1-1c-1.26,0-1,1.1-1.09,1.76C62.76,38.73,63.33,39.13,64,39.2Zm-19.41,5a1.27,1.27,0,0,0-2.52.37,1.11,1.11,0,0,0,1.18,1.14C44,45.67,44.22,44.87,44.55,44.22Zm-.82-6.63c-.5,0-1.18-.14-1.15.68s.59,1.39,1.35,1.24c.44-.08,1.3-.12,1.3-1C45.24,37.31,44.32,37.72,43.73,37.59Zm-15,0c-.75,0-1.33.36-1.36,1.05s.57,1.06,1.28,1.1,1.27-.29,1.3-1S29.42,37.65,28.72,37.62Zm18.66,3.15c-.14-.36-.48-.5-1.13-.23s-1.62-.06-1.36,1.09c.11.49.58,1.06,1.2.81S47.56,42.06,47.38,40.77Zm-6.84,2.68c1.05-1,2.36-1.18,1.73-2.54a1,1,0,0,0-1.36-.51C39.9,41.06,40.47,42,40.54,43.45Zm-.19-5.91c0-.51-.07-1-.68-1a1.41,1.41,0,0,0-1.54,1.22c-.11.64.45,1.29.81,1.21A1.83,1.83,0,0,0,40.35,37.54ZM15.22,29.81l-.52.71c.22.06.48.22.63.15a.94.94,0,0,0,.39-.58C15.74,30,15.77,29.53,15.22,29.81Z"
              style="fill:#3c3d55"/>
        <path d="M31.6,85.74a5.26,5.26,0,0,0,2.63.33c.48,0,1.15-.34,1.16.55,0,.52,0,1.2-.24,1.52s-1,0-1.43-.27L31,86.15Z"
              style="fill:#f3e7e2"/>
        <path d="M27.8,44.17c5.33,1.21,5.92.8,6.16,6.59.06,1.44,1.22,2.44.88,4.05-.29,1.34.26,2.77-1,4-.74.7-.38,1.66.36,2.37a1.24,1.24,0,0,0,1.91.05c.63-.63,1.38-1.36.73-2.36-2.05-3.11-.83-6.11.23-9.12.39-1.12,4-3.28,5.2-3a2.26,2.26,0,0,0,3-1.55c.83-2.19,2.25-2.85,4.46-2.15a1.9,1.9,0,0,0,2.72-1.39c.53-1.9,1.17-3.11,2.62-.52a1.75,1.75,0,0,0,2.14.75c4.45-1.18,5.7-.19,5.43,4.52a53,53,0,0,1-7.48,24.25,20.79,20.79,0,0,1-5.25,5.45,67.78,67.78,0,0,1-12.07,7.15c-3.53,1.76-6.66.79-9.49-1.36-4.19-3.17-8.24-6.51-11.42-10.77-3-4-3.81-8.54-2-13,1.67-4.25,1-8.23.29-12.38-.29-1.72-1.75-3.84,1.42-4.67.8-.21-.09-1.74.82-2.31.2.1.49.18.49.26,0,1.24-1.14,2.57.49,3.64,1.46,1,2.46,0,3.66-.6,1.47-.71,1.78.45,1.93,1.54a2.31,2.31,0,0,0,2.44,2.06c.58,0,1.85-.19,1.41-1.52Z"
              style="fill:#f3e7e2"/>
        <path d="M38.41,97.23c-.17,3.44-3.43,4.52-3.75,7.3,0,.41-1,.16-1.46,0-1.64-.72-3.26-1.51-4.87-2.32-2-1-1.57-2,.05-3A20.46,20.46,0,0,0,31,97.33c.72-.61,1.68-1.25.77-2.64a19.43,19.43,0,0,1-4.91,3.62,19.32,19.32,0,0,1,1-8.08c.45-1.35,1.66-2.8,2.9-2.08s3.95.47,3.14,3.25a.62.62,0,0,0,.47.83c.52.18.84-.15,1.1-.53a9.46,9.46,0,0,0,1.58-4.83c0-.71-.06-1.4.84-1.81,2.43-1.1,4.83-2.3,7.37-3.53.22,2.34-.56,4.44-.1,6.61a2.5,2.5,0,0,0,2.72,2.36c2.06,0,3.85-.79,5.7-1.48,4.28-1.59,5.53-.81,6.61,3.64.8,3.29-.29,6.47-.28,9.71,0,.94-4.94,3.36-5.47,2.72-1.1-1.32-2.54-2.66-1.92-4.74.36-1.21,1.31-2.32.68-3.88-1.19.78-1,2.12-1.66,3-.63-.11-.47-1.54-1.42-1-.79.42-.65,1.3-.33,2,.81,1.68,1.73,3.31,2.69,5.13a33.14,33.14,0,0,1-15,0c-2-.42-.93-2.1,0-3.17C38.62,101,40.08,99.79,38.41,97.23Z"
              style="fill:#f3e7e2"/>
        <path d="M25.64,34.33C25.05,33,24,32.67,23,34c-1.32,1.61-3,1.15-3.46.2-.55-1.15-1.39-2.8,0-4.38,3.77-4.4,8.68-6.68,14.16-7.84a33.21,33.21,0,0,1,15.32.41,16.19,16.19,0,0,1,9.37,6.9c.83,1.2.4,2.19,0,3.26-.45,1.25-1.18-.08-1.82.13s-1.68.18-1.64.66c.22,2.75-2.3,1.72-3.36,2.62-.59.51-.56.2-.86-.21-1.21-1.66-2.36-1.34-3.79-.05-1.68,1.53-3.79,1.34-5.67.37-1.67-.86-5.12-.23-6.94.34-1.12.35-2.64,3-4.28.3-.82-1.34-2-.15-3,.18,0-2,0-2-1.35-2.55Z"
              style="fill:#f3e7e2"/>
        <path d="M76.69,2.7a12.39,12.39,0,0,1-2.64,12.13c1.71,1.21,2.91-.36,4.49-.53a14,14,0,0,1-2.69,6.1c-.57.75-2,1.15-1.58,2.29s2,.47,2.92.89c-.58,5.54-10.22,7.78-13.86,5.51-4.67-2.92-4.46-12,.24-15,2.05-1.28,4.24-2.33,6.32-3.57A16,16,0,0,0,76.69,2.7Z"
              style="fill:#ddeff7"/>
        <path d="M1.76,24.13c1-.07,1.48-.1,2-.16a2.19,2.19,0,0,0,2-1.23C6,21.84,5,21.63,4.51,21.2c-1.69-1.47-1.73-1.53-2.19-4.66.84-.53,1.41.6,2.23.37,1.21-.34,2.22-.48,1.61-2.3-1-3.08-1.45-6.28.15-9.7a13.71,13.71,0,0,0,7.85,10.44c3.12,1.59,3.8,4.41,3.27,7.59s-2.15,6-5.09,6.8c-3.31.94-6.22-1.15-8.73-3.31A18.8,18.8,0,0,1,1.76,24.13Z"
              style="fill:#ddeff7"/>
        <path d="M19.48,19.39C18.16,18,19,17,19.61,16c6.7-11.57,24-14.09,33.75-4.9a22.7,22.7,0,0,1,4.1,4.7,3.73,3.73,0,0,1,.64,3.61C54,11.27,47.41,6.68,38.64,6.69S23.41,11.31,19.48,19.39Z"
              style="fill:#104582"/>
        <path d="M14.36,36.79c1.15.23,2,.69,1.72,1.79-.12.58.07,1.76-1.34,1.26-.78-.28-1.91,0-1.81-1.27A1.76,1.76,0,0,1,14.36,36.79Z"
              style="fill:#d9eaf3"/>
        <path d="M16.18,31.84c.84.49,2,0,1.87,1.38a1.55,1.55,0,0,1-1.49,1.59c-1.13.06-1.53-1-1.57-1.8A1.23,1.23,0,0,1,16.18,31.84Z"
              style="fill:#d9eaf3"/>
        <path d="M21.26,36.89a2.38,2.38,0,0,1-2.12,1.22c-.9,0-1.27-.65-1.21-1.4a1.22,1.22,0,0,1,1.65-1.21C20.23,35.71,21.19,35.79,21.26,36.89Z"
              style="fill:#d9eaf3"/>
        <path d="M40.34,45.41c-.31.79-.67,1.44-1.69,1.47s-1-.72-1-1.43c0-1,.5-1.66,1.4-1.55A1.57,1.57,0,0,1,40.34,45.41Z"
              style="fill:#d9eaf3"/>
        <path d="M35.94,44.7c-.21.66-.59,1.11-1.32,1.07s-1.4-.48-1.29-1.33.59-1.71,1.39-1.63S35.6,44,35.94,44.7Z"
              style="fill:#d9eaf3"/>
        <path d="M24.57,38.7c.84,0,1.53.41,1.46,1.21a1.73,1.73,0,0,1-1.46,1.42c-.75.1-1.13-.52-1.16-1.2S23.55,38.66,24.57,38.7Z"
              style="fill:#d9eaf3"/>
        <path d="M33.39,40.81c-.66-.27-1.28-.55-1.24-1.48,0-.73.27-1.29,1-1.23,1,.08,1.17.85,1.16,1.67C34.34,40.38,34.11,40.81,33.39,40.81Z"
              style="fill:#d9eaf3"/>
        <path d="M47.07,37.42a2.81,2.81,0,0,1,1.68-1.66c.61-.15.91.43.86,1a1.81,1.81,0,0,1-1.27,1.84C47.56,38.79,47.42,37.91,47.07,37.42Z"
              style="fill:#d9eaf3"/>
        <path d="M25.6,34.29c0,.89.64,2-.58,2.53a1.47,1.47,0,0,1-1.22.07A2.15,2.15,0,0,1,23,35.56c-.05-.64.49-.76,1.11-.76a5.1,5.1,0,0,0,1.5-.47Z"
              style="fill:#d9eaf3"/>
        <path d="M59.92,31.61c1.49.66,2.75.46,2.78,1.87,0,.74-.56,1.05-1,.8a7.64,7.64,0,0,1-2.12-1.72C59.41,32.39,59.89,31.6,59.92,31.61Z"
              style="fill:#ddeff7"/>
        <path d="M27.84,44.13c-.9-.17-2.11,1.1-2.7-.47-.36-1,.6-1.31,1.17-1.46,1.82-.44,1.32,1,1.49,2Z"
              style="fill:#d9eaf3"/>
        <path d="M21.26,40.71c-.09.87-.76,1.15-1.48,1.21s-1.29-.41-1.14-1.12.67-1.38,1.43-1.26C20.53,39.61,21.4,39.77,21.26,40.71Z"
              style="fill:#d9eaf3"/>
        <path d="M64,39.2c-.63-.07-1.2-.47-1.15-1,.08-.66-.17-1.75,1.09-1.76a.86.86,0,0,1,1,1A1.72,1.72,0,0,1,64,39.2Z"
              style="fill:#d9eaf3"/>
        <path d="M44.55,44.22c-.33.65-.51,1.45-1.34,1.51A1.11,1.11,0,0,1,42,44.59a1.27,1.27,0,0,1,2.52-.37Z"
              style="fill:#d9eaf3"/>
        <path d="M43.73,37.59c.59.13,1.51-.28,1.5.9,0,.9-.86.94-1.3,1-.76.15-1.31-.41-1.35-1.24S43.23,37.64,43.73,37.59Z"
              style="fill:#d9eaf3"/>
        <path d="M28.72,37.62c.7,0,1.25.34,1.22,1.11s-.56,1.08-1.3,1-1.3-.39-1.28-1.1S28,37.62,28.72,37.62Z"
              style="fill:#ddeff7"/>
        <path d="M47.38,40.77c.18,1.29-.7,1.43-1.29,1.67s-1.09-.32-1.2-.81c-.26-1.15.77-.85,1.36-1.09S47.24,40.41,47.38,40.77Z"
              style="fill:#d9eaf3"/>
        <path d="M40.54,43.45c-.07-1.42-.64-2.39.37-3.05a1,1,0,0,1,1.36.51C42.9,42.27,41.59,42.42,40.54,43.45Z"
              style="fill:#ddeff7"/>
        <path d="M40.35,37.54A1.83,1.83,0,0,1,38.94,39c-.36.08-.92-.57-.81-1.21a1.41,1.41,0,0,1,1.54-1.22C40.28,36.56,40.34,37,40.35,37.54Z"
              style="fill:#d9eaf3"/>
        <path d="M15.22,29.81c.55-.28.52.16.5.28a.94.94,0,0,1-.39.58c-.15.07-.41-.09-.63-.15Z"
              style="fill:#fefeff"/>
    </g>
</svg>