<svg xmlns="http://www.w3.org/2000/svg" viewBox="0 0 47.03 43.7">
    <g style="fill:#bc9982">
        <path d="M.48,26.71v-5C2.06,9.5,13.55,0,26.7,0c10.17,0,18.22,6.19,20,15.72,1.46,8-1.41,14.89-7.25,20.31-7.77,7.22-16.86,9.71-27,5.89C5.42,39.32,1.54,34,.48,26.71Z"
              style="fill:#020202"/>
        <path d="M23.66,4.07c8.65.26,14,2.28,17.21,8.18s2.19,11.8-1.49,17.1c-5,7.18-12.06,10.55-20.8,9.77-11.38-1-17.36-12.65-12-23C9.91,9.64,18.22,3.76,23.66,4.07Z"
              class="ears0"/>
    </g>
</svg>