<svg xmlns="http://www.w3.org/2000/svg" viewBox="0 0 45.36 48.34">
    <g style="fill:#bc9982">
        <path d="M15.83.22C26.94,2,34.88,8.16,39.69,18.06a54.81,54.81,0,0,1,5.67,24.66c0,3.12-1.87,4.27-4.26,5.14s-6.83.49-7.26-1.17c-1.42-5.53-6.18-4.77-10-5.72a13.67,13.67,0,0,1-6.19-3.08c-1.8-1.64-3.78-3.1-5.72-4.58C6.43,29.08,2,24.05,0,17.18V12.27a13.83,13.83,0,0,1,6.05-10A9.89,9.89,0,0,1,12.81,0,10.21,10.21,0,0,1,15.83.22Z"
              style="fill:#030303"/>
        <path d="M12.58,13c11.78,5.5,18.63,14.46,20.67,27.63-3.91-1.58-7.69-2.09-11.43-2.82A3.32,3.32,0,0,1,20.16,37c-4.45-4.63-9.83-8.33-13.67-13.58-4.79-6.56-4.32-13,1.43-18.1,4.16-3.67,8.89-2.74,13.3-1.07,10.63,4,16.57,12.32,19.64,22.91a88,88,0,0,1,2.82,14c.46,3.81-4,6-7.79,4.69-1.35-.44-1-1.54-.87-2.49,2.09-13.18-8.52-26.2-16.43-29.6C16.72,12.88,14.81,12.11,12.58,13Z"
              class="ears0"/>
    </g>
</svg>