<svg xmlns="http://www.w3.org/2000/svg" viewBox="0 0 36.27 27.85">
    <g>
        <path d="M.72,13.74C0,8.09,10.35-1.64,16.26.85c6.57,2.78,13.51,5,16.69,12.29a21.09,21.09,0,0,1,1.91,5.6C35.3,22.31,31.79,26,28.39,25c-3.57-1-6.54.17-9.71,1C10.77,28.2.72,21.33.72,13.74Z"
              style="fill:#c29880"/>
        <path d="M14.13,0C23,0,32.07,6.26,35.46,14.45a8.74,8.74,0,0,1-1.27,9.37c-2.53,3.26-6,3.61-9.57,2.78-1.48-.34-2.69-.9-3.77.63a1.75,1.75,0,0,1-1.18.57c-5.93.49-15.33-2.55-18.24-8.56A13.18,13.18,0,0,1,14.13,0ZM6.2,14l-.57-.91c1.12-.53,2.21-1.44,3.35-1.51,4-.24,7.13,1.65,9.49,4.81,1.24,1.67,2.17,3.64,3.63,5.07a10.37,10.37,0,0,0,4.67,2.74c2.78.61,4.86-1.05,6.26-3.35,1.21-2,1.41-4-.6-5.73a24.47,24.47,0,0,1-2-2.56C25.57,6.88,19.93,2.86,12,3.25c-4.37.22-6.78,3-8.21,6.49S2.36,17.11,5.5,20a20.6,20.6,0,0,0,12.09,5.58c.94.09,2-.61,3.08-1-1.74-2.75-3.11-5.1-4.65-7.33C13.74,14,9.51,12.61,6.2,14Z"/>
    </g>
</svg>