<svg xmlns="http://www.w3.org/2000/svg" viewBox="0 0 37.79 8.77">
    <g>
        <path d="M37.79,2.51a5,5,0,0,1-4.11,2.4,3.92,3.92,0,0,0-3.53,2.53c-.81,1.85-2,1.68-3.06,0-.37-.57-.74-1.15-1.13-1.71C22.64,1,18.54,0,13.38,3.05,10.19,5,7.06,5.86,3.33,4.74A5.74,5.74,0,0,1,0,2.51v-1C1.05-.28,2.4-.25,3.74,1c2,1.85,4.13,1.87,6.45.86a21,21,0,0,1,17.4,0c2.33,1,4.48,1,6.45-.86,1.35-1.27,2.7-1.3,3.75.44Z"
              style="fill:#050606"/>
        <path d="M26.82,4.71c2.85.62,2.85.62,1.74,2.65Z" style="fill:#e7e6e7"/>
    </g>
</svg>