<svg xmlns="http://www.w3.org/2000/svg" viewBox="0 0 70.06 96.83">
    <g>
        <path d="M46.53,96.83c-3.24-2-4-5.29-4.37-8.78-.06-.72.16-1.66-.22-2.12-.68-.82.65-2.77-1.4-2.65-1.74.1-3.82-.41-4.3,2.37a30.94,30.94,0,0,1-1.87,6.15C33,95.21,30.87,96.69,28.66,96c-2.49-.76-4.26-4.25-3.88-7.36a156.53,156.53,0,0,1,4-18.93c.46-1.82.78-3.68,1.25-5.49.28-1.07-.22-1.09-1.07-1.27-3.1-.7-6.29-.28-9.4-1-3.44-.81-5.1-2.55-4.69-5.39s2.84-4.71,6.07-4.44,6.25.72,9.88,1.15c-1.8-2.51-3.75-4.51-4.48-7.19a14.91,14.91,0,0,1,.5-10c.25-.6,1-1.1.2-2.13-3.34-4.3-1.16-9.6,4.28-10.69,3.08-.62,4.91.17,6.44,3.05.84,1.59,2,.32,3,.8,0-1-.4-1.67-.19-2.51,1.07-4.17.42-7.94-2.59-11.24-1.77-1.93-2.78-4.52-5.17-5.92-3-1.73-7.63-1.44-10,.79-.82.76-.9,1.65-.25,2.86,3.86,7.16.57,14.63-7.4,16.19A12.45,12.45,0,0,1,2.47,22.5,10.67,10.67,0,0,1,1.42,10.33C3.69,6,7.54,3.9,12.52,4.13a4.35,4.35,0,0,1,1.59.24c3,1.44,4.84-.46,6.79-2.16.47-.41,1-1.28,1.37-1.2,2.78.63,5.08-1.43,8.09-.93a14.57,14.57,0,0,1,10,6.5,38.74,38.74,0,0,1,6.24,13.51c.47,2.1,1.33,4.34.51,6.58-.43,1.2.7,1.33,1.1,1.31,1-.06,1.76,1.91,3.07.18,2.16-2.87,4.42-3.35,7.62-2.09a7.19,7.19,0,0,1,4.51,7,4.67,4.67,0,0,1-3.36,4.43c-1.11.39-1.44.75-1.18,2.25,1,5.41-.47,10.2-4.8,13.88-.54.46-1,1-2,1.84,4.43-.74,8.36-.34,12.3-.1,3,.18,5.44,1.89,5.61,4C70.3,63,68.78,65,65.45,65.9s-6.69,0-10.07.52a28.09,28.09,0,0,1,.42,3.1,2.18,2.18,0,0,0,1.66,2.31c2.33,1,3.38,3.47,4.22,5.66S59.88,79.21,59,80.1c-.71.67-1.55.62-2.21-.46-1.54-2.53-3.43-4.84-2.21-8.18.41-1.12,0-2.48-.87-4.19.09,7.53-.8,14.44-1.09,21.39a29.12,29.12,0,0,1-.83,4.78c-.34,1.69-1.65,2.59-3,3.39Zm-25.74-36c3.27,0,6.22.22,9.16.47,1.83.16,2.56.3,2,2.48-1.55,5.66-3,11.35-4.08,17.11-.67,3.56-1.89,7.18-.88,10.9.32,1.16.77,2.21,2.27,2.33a2.81,2.81,0,0,0,3-1.77,37.5,37.5,0,0,0,2.13-6.14c1.53-5,1.54-4.91,6.57-4.69,1.53.06,2.18.54,2.41,2.18.41,3,.44,6.15,1.88,9,.6,1.18,1.35,2.15,2.91,2s1.93-1.46,2.17-2.7c.82-4.19.73-8.46,1.1-12.69.42-4.59.77-9.18,1.09-13.78.08-1.2.55-1.07,1.55-1,3.44.19,6.9.26,10.34.13A4.07,4.07,0,0,0,68.3,60c-.26-2.4-1.87-2.94-4-3-4.25-.06-8.49-.31-12.74-.49-.83,0-1.78,0-2.1-.92-.46-1.27.82-1.39,1.52-1.84,5.44-3.54,7.69-9.11,5.91-14.67-2.2-6.84-8.78-10.95-16.6-10.37-5.36.4-10.82,5-12.13,10.29s1,11.34,5.35,14.16c.45.3,1.14.38.94,1.07-.27.95-.95.37-1.54.32-4.14-.29-8.29-.6-12.44-.75a4,4,0,0,0-3.86,4c.11.9.6,1.67,1.47,1.72s.64-.91.66-1.47a5.82,5.82,0,0,1,.53-2.63,1.72,1.72,0,0,1,2-1.08c1,.2.73,1.07.84,1.75C22.28,57.7,21.53,59.08,20.79,60.82ZM13.16,6.87a9.22,9.22,0,0,0-9.69,9.31c.07,4.67,4.29,9.27,8.46,9.21,5.07-.08,9.85-5.09,9.46-10.16-.16-2.05-.16-4.54-3.36-4.51A1.9,1.9,0,0,1,16.21,9C15.91,6.85,14.38,7,13.16,6.87ZM52.5,30.66c1-.7,1.44-1,1.89-1.29a3.66,3.66,0,0,1,5.22,1.13c1.24,1.67.65,3.23-1.19,4.27-.37.2-.92.43-.62,1a.84.84,0,0,0,1.18.29c1.64-.74,3-1.67,2.75-3.81-.32-2.43-2.83-5-5.25-5.15C54.52,27,53.05,27.77,52.5,30.66Zm-24-.69a3.24,3.24,0,0,1,2-3.29,2.87,2.87,0,0,1,3.53.15c.49.43.57,1.48,1.6,1.14a.92.92,0,0,0,.58-1.09,2,2,0,0,0-1.44-1.82,5.7,5.7,0,0,0-5.18.76c-1.61,1.26-2.93,2.71-2.68,5,.11,1,.67,2,1.54,1.87,1.29-.24.25-1.24.16-1.93C28.57,30.51,28.55,30.24,28.53,30ZM60.09,77.6c.07-.63-2.82-4.44-3.51-4.61-1.08-.25-1.41.49-1.12,1.21a36.55,36.55,0,0,0,2.08,4c.44.77,1,.37,1.6.12C59.54,78.19,60.05,78.21,60.09,77.6ZM56.53,30.3c-.93.16-2,.34-1.74,1.55a2,2,0,0,0,2.07,1.72c1,0,1.71-.49,1.68-1.62C58.49,30.64,57.54,30.42,56.53,30.3ZM24.92,4.62c-.71-.44.75-2.21-1.35-1.91-.79.12-1.61.14-1.45.91s.52,2.12,1.57,2.4A1.19,1.19,0,0,0,24.92,4.62ZM46.2,25c-1.61,0-2.93-.57-3.89.31-.49.45.41,1.11.91,1.39C44.64,27.44,45.29,26.45,46.2,25ZM30.32,31c1.15-.76,2.51-1,2.55-2.53,0-.55-.53-.64-1-.49C30.63,28.36,29.92,29.1,30.32,31Zm-11-26.44c-.43.57-1.09,1.26-1,1.38a28.87,28.87,0,0,0,2.25,2.46c.23-.26.7-.65.65-.75C20.74,6.66,20.14,5.76,19.36,4.53Zm8.35.13.72,0V1.46c-.34.06-.83,0-1,.19C26.45,2.79,27.64,3.65,27.71,4.66Z"
              style="fill:#453734"/>
        <path d="M20.79,60.82c.74-1.74,1.49-3.12,1.25-4.71-.11-.68.17-1.55-.84-1.75a1.72,1.72,0,0,0-2,1.08,5.82,5.82,0,0,0-.53,2.63c0,.56.28,1.52-.66,1.47s-1.36-.82-1.47-1.72a4,4,0,0,1,3.86-4c4.15.15,8.3.46,12.44.75.59,0,1.27.63,1.54-.32.2-.69-.49-.77-.94-1.07-4.31-2.82-6.64-9-5.35-14.16s6.77-9.89,12.13-10.29c7.82-.58,14.4,3.53,16.6,10.37,1.78,5.56-.47,11.13-5.91,14.67-.7.45-2,.57-1.52,1.84.32.89,1.27.89,2.1.92,4.25.18,8.49.43,12.74.49,2.17,0,3.78.58,4,3a4.07,4.07,0,0,1-3.91,4.64c-3.44.13-6.9.06-10.34-.13-1,0-1.47-.18-1.55,1-.32,4.6-.67,9.19-1.09,13.78-.37,4.23-.28,8.5-1.1,12.69-.24,1.24-.5,2.54-2.17,2.7s-2.31-.82-2.91-2c-1.44-2.81-1.47-5.94-1.88-9-.23-1.64-.88-2.12-2.41-2.18-5-.22-5-.27-6.57,4.69a37.5,37.5,0,0,1-2.13,6.14,2.81,2.81,0,0,1-3,1.77c-1.5-.12-1.95-1.17-2.27-2.33-1-3.72.21-7.34.88-10.9,1.08-5.76,2.53-11.45,4.08-17.11.59-2.18-.14-2.32-2-2.48C27,61,24.06,60.8,20.79,60.82Zm27.92,6.47a9.92,9.92,0,0,0,0-2.36C48,61.68,46.53,59,43,58c-2.82-.81-4.91.45-6.68,2.41-3.05,3.37-3.89,9.69-1.93,13.75,1.21,2.5,3,4.44,5.89,4.61s4.92-1.35,6.52-3.67A11.5,11.5,0,0,0,48.71,67.29ZM42.94,52.62a9,9,0,0,0,2.42,0c2.06-.53,4-1.43,4.42-3.82s-.91-4-2.78-5.1a9,9,0,0,0-9-.33c-3.67,1.77-4,5.57-.68,7.94A7.51,7.51,0,0,0,42.94,52.62Zm18.9,7.43c-.12,2.32.11,3.62,2.07,3.52S66,62,66,60.63c0-1.51-.38-3.07-2.33-3C61.58,57.67,61.89,59.45,61.84,60.05ZM49.25,38.44a1.84,1.84,0,0,0-2.07,2.06,2.14,2.14,0,0,0,2,2.26c1.53.08,2.1-1.11,2.15-2.3A2,2,0,0,0,49.25,38.44ZM34.53,40.06c0,1,.87,1.59,1.88,1.59a1.89,1.89,0,0,0,1.92-2.13c0-1.22-.76-2.12-2-2S34.52,38.6,34.53,40.06Z"
              style="fill:#876d65"/>
        <path d="M13.16,6.87c1.22.09,2.75,0,3.05,2.13A1.9,1.9,0,0,0,18,10.72c3.2,0,3.2,2.46,3.36,4.51.39,5.07-4.39,10.08-9.46,10.16-4.17.06-8.39-4.54-8.46-9.21A9.22,9.22,0,0,1,13.16,6.87Z"
              style="fill:#fefefe"/>
        <path d="M52.5,30.66c.55-2.89,2-3.68,4-3.57,2.42.15,4.93,2.72,5.25,5.15.29,2.14-1.11,3.07-2.75,3.81a.84.84,0,0,1-1.18-.29c-.3-.56.25-.79.62-1,1.84-1,2.43-2.6,1.19-4.27a3.66,3.66,0,0,0-5.22-1.13C53.94,29.64,53.52,30,52.5,30.66Z"
              style="fill:#876d65"/>
        <path d="M28.53,30c0,.27,0,.54.07.81.09.69,1.13,1.69-.16,1.93-.87.16-1.43-.84-1.54-1.87-.25-2.31,1.07-3.76,2.68-5a5.7,5.7,0,0,1,5.18-.76,2,2,0,0,1,1.44,1.82A.92.92,0,0,1,35.62,28c-1,.34-1.11-.71-1.6-1.14a2.87,2.87,0,0,0-3.53-.15A3.24,3.24,0,0,0,28.53,30Z"
              style="fill:#876d65"/>
        <path d="M60.09,77.61c0,.6-.55.58-1,.74-.57.25-1.16.65-1.6-.12a36.55,36.55,0,0,1-2.08-4c-.29-.72,0-1.46,1.12-1.21C57.27,73.16,60.16,77,60.09,77.61Z"
              style="fill:#c8b3a0"/>
        <path d="M56.53,30.3c1,.12,2,.34,2,1.65,0,1.13-.64,1.6-1.68,1.62a2,2,0,0,1-2.07-1.72C54.56,30.64,55.6,30.46,56.53,30.3Z"
              style="fill:#c8b3a0"/>
        <path d="M24.92,4.62A1.19,1.19,0,0,1,23.69,6c-1.05-.28-1.37-1.5-1.57-2.4s.66-.79,1.45-.91C25.67,2.41,24.21,4.18,24.92,4.62Z"
              style="fill:#fefefe"/>
        <path d="M46.2,25c-.91,1.5-1.56,2.49-3,1.7-.5-.28-1.4-.94-.91-1.39C43.27,24.38,44.59,25,46.2,25Z"
              style="fill:#fefefe"/>
        <path d="M30.32,31c-.4-1.87.31-2.61,1.55-3,.47-.15,1-.06,1,.49C32.83,30,31.47,30.21,30.32,31Z"
              style="fill:#c8b3a0"/>
        <path d="M19.36,4.53c.78,1.23,1.38,2.13,1.9,3.09,0,.1-.42.49-.65.75a28.87,28.87,0,0,1-2.25-2.46C18.27,5.79,18.93,5.1,19.36,4.53Z"
              style="fill:#fefefe"/>
        <path d="M27.71,4.66c-.07-1-1.26-1.87-.28-3,.17-.2.66-.13,1-.19V4.63Z" style="fill:#fefefe"/>
        <path d="M48.71,67.29a11.5,11.5,0,0,1-1.88,7.81c-1.6,2.32-3.73,3.83-6.52,3.67s-4.68-2.11-5.89-4.61c-2-4.06-1.12-10.38,1.93-13.75,1.77-2,3.86-3.22,6.68-2.41,3.5,1,5,3.68,5.65,6.93A9.92,9.92,0,0,1,48.71,67.29Zm-1.65-.09a8.89,8.89,0,0,0,0-1.85c-.51-2.7-1.68-5.07-4.46-6-2.31-.75-4,.69-5.35,2.36C34.56,65,34.31,71,36.66,74.5c2,3,5.24,3.32,7.77.73C46.52,73.09,47.26,70.46,47.06,67.2Z"
              style="fill:#453734"/>
        <path d="M42.94,52.62a7.51,7.51,0,0,1-5.65-1.35c-3.31-2.37-3-6.17.68-7.94a9,9,0,0,1,9,.33c1.87,1.13,3.23,2.7,2.78,5.1s-2.36,3.29-4.42,3.82A9,9,0,0,1,42.94,52.62ZM42.66,51A7.71,7.71,0,0,0,44,51c1.76-.33,3.8-.4,4.14-2.74S46.72,45,44.82,44.4A9,9,0,0,0,42.73,44c-3.24-.18-5.75,1.14-5.9,3.06C36.65,49.18,39.31,51,42.66,51Z"
              style="fill:#453734"/>
        <path d="M61.84,60.05c0-.6-.26-2.38,1.87-2.44,1.95,0,2.37,1.51,2.33,3,0,1.35-.26,2.84-2.13,2.94S61.72,62.37,61.84,60.05Z"
              style="fill:#453734"/>
        <path d="M49.25,38.44a2,2,0,0,1,2,2c-.05,1.19-.62,2.38-2.15,2.3a2.14,2.14,0,0,1-2-2.26A1.84,1.84,0,0,1,49.25,38.44Z"
              style="fill:#50423f"/>
        <path d="M34.53,40.06c0-1.46.56-2.41,1.77-2.53s2,.77,2,2a1.89,1.89,0,0,1-1.92,2.13C35.4,41.65,34.51,41.11,34.53,40.06Z"
              style="fill:#453734"/>
        <path d="M47.06,67.2c.2,3.26-.54,5.89-2.63,8-2.53,2.59-5.75,2.26-7.77-.73-2.35-3.47-2.1-9.51.57-12.77,1.37-1.67,3-3.11,5.35-2.36,2.78.91,4,3.28,4.46,6A8.89,8.89,0,0,1,47.06,67.2Z"
              style="fill:#c8b3a0"/>
        <path d="M42.66,51c-3.35,0-6-1.83-5.83-4,.15-1.92,2.66-3.24,5.9-3.06a9,9,0,0,1,2.09.45c1.9.59,3.69,1.41,3.34,3.86S45.78,50.67,44,51A7.71,7.71,0,0,1,42.66,51Zm-3.44-2.4c1.57,2.1,3.41.83,5,1.14.33.07.84-.65.66-1.28s-.72-.09-1.06-.18C42.31,47.91,40.94,48.37,39.22,48.61ZM42.93,45c-.42.51-1.66-.57-1.79.78-.1,1,1,1.33,1.64,1.35a1.83,1.83,0,0,0,1.84-1.29C44.78,44.7,43.7,45.13,42.93,45Z"
              style="fill:#c8b3a0"/>
        <path d="M39.22,48.61c1.72-.24,3.09-.7,4.55-.32.34.09.83-.56,1.06.18s-.33,1.35-.66,1.28C42.63,49.44,40.79,50.71,39.22,48.61Z"
              style="fill:#4a3b38"/>
        <path d="M42.93,45c.77.17,1.85-.26,1.69.84a1.83,1.83,0,0,1-1.84,1.29c-.67,0-1.74-.3-1.64-1.35C41.27,44.39,42.51,45.47,42.93,45Z"
              style="fill:#453734"/>
    </g>
</svg>