<svg xmlns="http://www.w3.org/2000/svg" viewBox="0 0 61.23 63.82">
    <g>
        <path d="M61.23,0c-2,1.55-2,3.29-2.51,4.71C57.17,9.1,55.79,9.89,51.5,8.5c-2.64-.85-4.78.29-6.65,1.86a1.56,1.56,0,0,1-2.23.17,28.48,28.48,0,0,0-42,18.82A28.25,28.25,0,0,0,22.15,63.07c15.72,3.48,30.06-5.43,34-21,2.84-11.18-.84-20.56-9-28.39-1.8-1.73-1.69-2.13.64-3.12A5.53,5.53,0,0,1,51,10.3c6.4,1.17,8,.21,9.63-6.14A40.46,40.46,0,0,0,61.23,0Z"
              style="fill:#433432"/>
        <path d="M44.75,14.62c1.46,3.88.84,5.47-1.84,5.48-1.34,0-2.37-.47-2.67-1.8a2.87,2.87,0,0,1,1.09-3.37c2.47-1.66,2.44-1.7-.18-3A26.44,26.44,0,0,0,2.48,31.65C.07,48,13.63,61.57,28.19,61.66a27.06,27.06,0,0,0,26.47-21C56.72,31.12,52.48,19.1,44.75,14.62Z"
              style="fill:#a8a7a7"/>
        <path d="M44.42,17.05c-1.74,1-1.74,1-2.34-.93-1.2.27-1,1.18-.66,1.86a1.69,1.69,0,0,0,1.77,1C44.26,18.79,44.76,18.18,44.42,17.05Z"
              style="fill:#f2f0f1"/>
    </g>
</svg>