<svg xmlns="http://www.w3.org/2000/svg" viewBox="0 0 72.79 88.06">
    <g>
        <path d="M0,46.22c.25-.24.67-.44.72-.71C2.94,34.23,9.58,25.39,16.63,16.83A81.72,81.72,0,0,1,34.58.68,2.72,2.72,0,0,1,37.78.4C55.34,10.05,69,22.87,72.42,43.77A24.68,24.68,0,0,1,68,62.87C61.57,71.66,54.26,79.46,44.9,85.3c-6,3.73-11.26,3.73-17-.32C22.33,81.09,17,77.1,13.29,71.32a2.74,2.74,0,0,0-1.43-1.14C5.48,67.7,1.81,63,.53,56.32c-.07-.36-.12-.7-.53-.83ZM29,24.89a5.88,5.88,0,0,1,.6,5.43C28.88,32.56,28,34.73,27.18,37c-1.91,5.47-4.05,10.85-3.79,16.85.29,6.55,5.53,17.51,13.69,18.71a4.45,4.45,0,0,1,3.5,1.95,26.19,26.19,0,0,1-10.82-3c.63,4.51,2.52,8.08,4.48,11.61s2.71,3.71,6.27,2c10.23-4.89,18.15-12.36,24.71-21.55,4.38-6.13,5.78-12.68,4-19.83C64.71,25.51,54.81,11.24,38.27,1.93a2.93,2.93,0,0,0-3.87.31A117.57,117.57,0,0,0,9.9,30.84C5.26,38.36,1.58,46.27,3,55.71a16.89,16.89,0,0,0,21.1,13.51c1.5-.38,2.06-1,.86-2.54a22.56,22.56,0,0,1-4.45-14.8c.09-3.45,1.39-6.59,2.15-9.91-4.56-.08-7.27-1.92-8-5.28-.76-3.71.79-7.37,3.76-8.85,3.22-1.6,5.63-.68,9.15,3.51A16.37,16.37,0,0,0,29,24.89Zm4.11,60.58a53.86,53.86,0,0,1-5-13.49c-.13-.64-.15-1.27-1.14-1-3.73,1-7.54.86-11.87.39A51.12,51.12,0,0,0,33.12,85.47Z"
              style="fill:#4d403c"/>
        <path d="M29,24.89a16.37,16.37,0,0,1-1.38,6.46c-3.52-4.19-5.93-5.11-9.15-3.51-3,1.48-4.52,5.14-3.76,8.85.7,3.36,3.41,5.2,8,5.28-.76,3.32-2.06,6.46-2.15,9.91A22.56,22.56,0,0,0,25,66.68c1.2,1.57.64,2.16-.86,2.54A16.89,16.89,0,0,1,3,55.71C1.58,46.27,5.26,38.36,9.9,30.84A117.57,117.57,0,0,1,34.4,2.24a2.93,2.93,0,0,1,3.87-.31c16.54,9.31,26.44,23.58,30.95,41.76,1.78,7.15.38,13.7-4,19.83-6.56,9.19-14.48,16.66-24.71,21.55-3.56,1.7-4.36,1.45-6.27-2S30.39,76,29.76,71.45a26.19,26.19,0,0,0,10.82,3,4.45,4.45,0,0,0-3.5-1.95c-8.16-1.2-13.4-12.16-13.69-18.71-.26-6,1.88-11.38,3.79-16.85.77-2.22,1.7-4.39,2.43-6.63A5.88,5.88,0,0,0,29,24.89Z"
              style="fill:#f5e5de"/>
        <path d="M33.12,85.47a51.12,51.12,0,0,1-18.06-14.1c4.33.47,8.14.62,11.87-.39,1-.27,1,.36,1.14,1A53.86,53.86,0,0,0,33.12,85.47Z"
              style="fill:#f5e5de"/>
    </g>
</svg>