<svg xmlns="http://www.w3.org/2000/svg" viewBox="0 0 72.79 88.06">
    <g>
            <path d="M0,46.22c.25-.24.67-.44.72-.71C2.94,34.23,9.58,25.39,16.63,16.83A81.72,81.72,0,0,1,34.58.68,2.72,2.72,0,0,1,37.78.4C55.34,10.05,69,22.87,72.42,43.77A24.68,24.68,0,0,1,68,62.87C61.57,71.66,54.26,79.46,44.9,85.3c-6,3.73-11.26,3.73-17-.32C22.33,81.09,17,77.1,13.29,71.32a2.74,2.74,0,0,0-1.43-1.14C5.48,67.7,1.81,63,.53,56.32c-.07-.36-.12-.7-.53-.83Zm21.55-3.14c-2.78,1.23-4.78-.31-6.39-2.15-1.31-1.48-.92-3.47,0-5.1,1.22-2.18,3.26-2.67,5.61-2.18,4.57,1,7.84-1.67,7.83-6.39,0-.81-.38-2,.54-2.06,1.1,0,.83,1.32.89,2.17.22,3.33-1.61,6.07-2.64,9-2,5.64-4.23,11.17-4,17.37.27,6.55,5.52,17.52,13.68,18.73a4.43,4.43,0,0,1,3.5,1.94,26,26,0,0,1-10.82-3c.67,4.6,2.6,8.26,4.62,11.86,1.74,3.12,2.72,3.44,5.92,1.9,10.3-4.95,18.36-12.41,24.95-21.72,4.29-6.06,5.75-12.52,4-19.58-4.47-18.32-14.4-32.67-31.06-42a3,3,0,0,0-3.87.4A95,95,0,0,0,22.92,13.55c-7.79,8.71-14.76,18-18.71,29.13-2.27,6.41-2.45,13,1.12,19.2s11.72,9.34,18.42,7.5c1.83-.5,2.64-1.14,1-3A18.14,18.14,0,0,1,21.27,59c-1.39-5.18-.67-10.24.82-15.27C22.56,43,22.22,42.91,21.55,43.08ZM34,86.26A43.56,43.56,0,0,1,28.08,72C28,71.42,28,70.69,27,71c-3.75,1-7.57.88-11.92.38A57,57,0,0,0,34,86.26Z"
                  style="fill:#4d403c"/>
            <path d="M22.09,43.75c-1.49,5-2.21,10.09-.82,15.27a18.14,18.14,0,0,0,3.49,7.32c1.63,1.9.82,2.54-1,3-6.7,1.84-14.92-1.45-18.42-7.5S1.94,49.09,4.21,42.68c4-11.12,10.92-20.42,18.71-29.13A95,95,0,0,1,34.34,2.28a3,3,0,0,1,3.87-.4c16.66,9.36,26.59,23.71,31.06,42,1.72,7.06.26,13.52-4,19.58C58.65,72.8,50.59,80.26,40.29,85.21c-3.2,1.54-4.18,1.22-5.92-1.9-2-3.6-3.95-7.26-4.62-11.86a26,26,0,0,0,10.82,3,4.43,4.43,0,0,0-3.5-1.94C28.91,71.3,23.66,60.33,23.39,53.78c-.25-6.2,2-11.73,4-17.37,1-3,2.86-5.71,2.64-9-.06-.85.21-2.19-.89-2.17-.92,0-.54,1.25-.54,2.06,0,4.72-3.26,7.36-7.83,6.39-2.35-.49-4.39,0-5.61,2.18-.9,1.63-1.29,3.62,0,5.1,1.61,1.84,3.61,3.38,6.39,2.15Z"
                  style="fill:#f5e5de"/>
            <path d="M34,86.26A57,57,0,0,1,15.06,71.35c4.35.5,8.17.64,11.92-.38,1-.28,1,.45,1.1,1.06A43.56,43.56,0,0,0,34,86.26Z"
                  style="fill:#f5e5de"/>
            <path d="M21.55,43.08c.67-.17,1-.07.54.67Z" style="fill:#f5e5de"/>
        </g>
</svg>