<svg xmlns="http://www.w3.org/2000/svg" viewBox="0 0 65.56 56.07">
    <g>
        <path d="M60.12,24.07a8.06,8.06,0,0,0-.06,4.05c.91,4.79.34,9.58.21,14.38a3.89,3.89,0,0,1-.1,1.08c-.52,1.57,1.45,3.49-.09,4.62-2.61,1.91-5.19,4-8.27,5.13-1.73.62-1.48-1.11-1.56-2-.31-3.85-.93-7.68-.66-11.57,0-.56.26-1.28-.72-1.73a32.74,32.74,0,0,0-1.75,7.73,68.5,68.5,0,0,1-2,8c-.32,1.09-1.12,1-1.87,1.2-7.2,2-14.39,1-21.51-.32-1.57-.28-2.2-2.67-2.17-4.07.07-2.89-1.83-5.18-1.57-8.59-1.95,2.11-1.62,4.12-1.65,6-.12,5.88-.08,5.88-5.47,3.49-6.24-2.77-6.54-3.67-6.09-10.32.31-4.58,1.49-9.08,1.29-13.7,0-.8.26-1.65-.47-2.3l.6-.56A20.21,20.21,0,0,0,9,26.06c1.54.55,3.17,1,4.7,0a2,2,0,0,0-1.32-3.64c-1.88.23.44,1.52-.54,2-1-.53-1.8-1.38-1.19-2.54s2-.85,2.91-.44c2.76,1.25,2.52,3.46,1.25,5.89,1.08,0,1.89,0,2.7,0,6.12,0,6.61-.55,6.6-6.66,0-.82,0-1.64-.05-2.45a19,19,0,0,0-5.78-13C15,2.1,11.29,1.62,7.76,4,5,5.85,4.54,7.87,6.16,12L6,12.89A4.36,4.36,0,0,1,4.51,10.7c-.17-.62-.45-1-1.11-.62a4.78,4.78,0,0,0-2.28,4.29,3.71,3.71,0,0,0,2.06,3.46c.32.2.7.29,1,0a.91.91,0,0,0,.09-1.21c-.32-.32-1.24-.42-.52-1s1.18.16,1.47.66c.82,1.38.32,2.38-1.1,3-.6.25-1.47-.51-1.88.49h-.9a28.6,28.6,0,0,0-1-4.1,3,3,0,0,1-.06-2.39C2.38,9.39,4,5,7.71,2.52,12-.37,16.5,1,20.29,5.56c.69.83,1.34,1.69,2,2.56s.86,2.21,2.33,1.73a3.24,3.24,0,0,0,2.3-3c0-.68.13-1.3.23-2,.43-2.61,2-2.88,4.19-2.71,2.71.21,5.37-.63,8.12-.51,1.73.08,2,.68,1.81,2.06-.18,1.16-.43,2.3-.62,3.45a1.71,1.71,0,0,0,1,2c.75.23.9-.71,1.21-1.22a20,20,0,0,1,6-6.46A8.22,8.22,0,0,1,61.62,6.14,2.67,2.67,0,0,0,62.83,8c2.6,1.69,3.24,4,2.35,7-.34,1.18-.54,2.41-.8,3.62h-.9c-.41-1-1.26-.32-1.89-.47a2,2,0,0,1-1.42-1.48,1.86,1.86,0,0,1,.66-1.94c.33-.31.73-.66,1.15-.26s.2.69-.32.93-.44,1-.1,1.33c.48.54,1,0,1.41-.24,1.92-1.27,1.79-3.17,1.32-5A3.22,3.22,0,0,0,62,8.93c-1.24-.25-.73,1.39-1.43,1.9a7.09,7.09,0,0,0-.91,1l-.16-.92c.79-2,1.9-4.05.22-6.09C56.26.55,52,0,47.41,4.19c-5.8,5.29-6.25,12.26-5.69,19.47a1.63,1.63,0,0,0,.92,1.53,14.88,14.88,0,0,0,6.89,1.25c1.23,0,1.38-.58.76-1.74-1.07-2,0-3.52,1.81-4.36.89-.42,2.25-.82,2.91.42s-.14,2-1.1,2.51c-1.2-.39,1.33-1.75-.61-1.94a1.79,1.79,0,0,0-2.21,1.81C51,25.08,52.52,25.53,54,25.5a9.58,9.58,0,0,0,5.47-2Zm-36-12A34.87,34.87,0,0,1,25.3,24.27,3.6,3.6,0,0,1,22.43,28a28.37,28.37,0,0,1-3.16.73c-1,.14-1.41.83-1,1.48.9,1.52.54,3.19.84,4.76,1,5.13,2.18,10.24,2.25,15.47,0,1.91.75,2.62,2.29,2.82,6.2.8,12.41,1.35,18.64.22.78-.14.86-.37,1-1.14.41-3.11,1.07-6.19,1.53-9.3.76-5.13,2.39-10.05,3.74-15l-3.36-.65c-4.08-.78-4.64-1.38-4.75-5.48a35.61,35.61,0,0,1,.12-5.94c.36-2.46,1.29-4.88-1.31-6.72a1.44,1.44,0,0,1-.4-1c-.05-1.68.6-3.71-.64-4.91-1.38-1.35-3.24.54-4.94.19-2.5-.51-3.26.78-3.5,3.07C29.27,10.85,28.5,11.54,24.15,12.09ZM14.06,50.58a125.65,125.65,0,0,0,2-16.11c.53-6.31,1.71-5.1-4.87-6.77C8.45,27,8.18,28.45,8,30c-.57,5.1-.94,10.23-1.31,15.35-.05.8-.44,1.78.72,2.37C9.56,48.85,11.61,50.16,14.06,50.58ZM57.69,25.72c-1.16.37-2.2,1-3.18,1-3-.27-3.53,1.83-3.36,3.75.55,6-.18,12.15,1.11,18.13.15.73-.06,1.74,1.18,1.78,1.93.07,5.07-3.08,5.08-5.15A134.43,134.43,0,0,0,57.69,25.72Z"
              style="fill:#514441"/>
        <path d="M60.12,24.07l-.62-.6c1.55-1.45,3.16-2.85,4-4.89h.9A10.38,10.38,0,0,1,60.12,24.07Z"
              style="fill:#594e4b"/>
        <path d="M1.31,19.67h.9c.82,2,2.43,3.44,4,4.89l-.6.56A9.92,9.92,0,0,1,1.31,19.67Z" style="fill:#594e4b"/>
        <path d="M24.15,12.09c4.35-.55,5.12-1.24,5.58-5.51.24-2.29,1-3.58,3.5-3.07,1.7.35,3.56-1.54,4.94-.19,1.24,1.2.59,3.23.64,4.91a1.44,1.44,0,0,0,.4,1c2.6,1.84,1.67,4.26,1.31,6.72a35.61,35.61,0,0,0-.12,5.94c.11,4.1.67,4.7,4.75,5.48l3.36.65c-1.35,5-3,9.92-3.74,15.05-.46,3.11-1.12,6.19-1.53,9.3-.1.77-.18,1-1,1.14-6.23,1.13-12.44.58-18.64-.22-1.54-.2-2.26-.91-2.29-2.82C21.28,45.23,20.06,40.12,19.1,35c-.3-1.57.06-3.24-.84-4.76-.4-.65,0-1.34,1-1.48A28.37,28.37,0,0,0,22.43,28a3.6,3.6,0,0,0,2.87-3.75A34.87,34.87,0,0,0,24.15,12.09ZM26.61,29.9c1.81-.76,1.17-2.36,1.26-3.71a6.59,6.59,0,0,0,.54-1.5c.11-.87.35-2.22-.65-2.33-1.42-.16-.52,1.35-.86,2.05a4.54,4.54,0,0,0-.21,1.3c-.47,1.16,0,2.56-1,3.6l-.07.08a12.43,12.43,0,0,0-4.59,2.81c2.37.45,3.61-1,5.08-1.87Zm17,.87c0-.17,0-.47-.1-.49-3.2-1-6.34-2-5.3-6.45.1-.42-.44-.81-.9-.84-.62,0-.56.53-.64,1C35.75,29,38.57,31.78,43.61,30.77ZM32.73,48.49c1-5.57,1.7-11.15.64-16.77C32.71,37.3,33,42.91,32.73,48.49Z"
              style="fill:#f3e3dc"/>
        <path d="M63.48,18.58c-.82,2-2.43,3.44-4,4.89a9.58,9.58,0,0,1-5.47,2c-1.51,0-3-.42-2.94-2.36a1.79,1.79,0,0,1,2.21-1.81c1.94.19-.59,1.55.61,1.94,1-.5,1.73-1.34,1.1-2.51s-2-.84-2.91-.42c-1.81.84-2.88,2.33-1.81,4.36.62,1.16.47,1.7-.76,1.74a14.88,14.88,0,0,1-6.89-1.25,1.63,1.63,0,0,1-.92-1.53c-.56-7.21-.11-14.18,5.69-19.47C52,0,56.26.55,59.75,4.8c1.68,2,.57,4.09-.22,6.09-.79.73-1.53,1.5-2.37,2.15a1.62,1.62,0,0,1-2-.16.93.93,0,0,1,0-1.59c.4-.34,1.11-.67.45-1.19s-1.12.2-1.42.71a2.41,2.41,0,0,0,1.65,3.75c2.13.38,3.4-.7,3.9-2.75a7.09,7.09,0,0,1,.91-1c.7-.51.19-2.15,1.43-1.9a3.22,3.22,0,0,1,2.26,2.49c.47,1.86.6,3.76-1.32,5-.42.28-.93.78-1.41.24-.34-.37-.57-1,.1-1.33s.79-.49.32-.93-.82,0-1.15.26a1.86,1.86,0,0,0-.66,1.94,2,2,0,0,0,1.42,1.48C62.22,18.26,63.07,17.58,63.48,18.58Z"
              style="fill:#f9f4e9"/>
        <path d="M6.19,24.56c-1.55-1.45-3.16-2.85-4-4.89.41-1,1.28-.24,1.88-.49,1.42-.6,1.92-1.6,1.1-3-.29-.5-.79-1.25-1.47-.66s.2.72.52,1a.91.91,0,0,1-.09,1.21c-.27.33-.65.24-1,0a3.71,3.71,0,0,1-2.06-3.46A4.78,4.78,0,0,1,3.4,10.08c.66-.4.94,0,1.11.62A4.36,4.36,0,0,0,6,12.89a3.2,3.2,0,0,0,2.58,2.78,2.63,2.63,0,0,0,3-1.19,2.51,2.51,0,0,0-.38-3c-.25-.34-.67-.67-1.13-.31a.52.52,0,0,0,0,.9c.83.52,1.28,1.19.39,1.9a1.69,1.69,0,0,1-2.43-.15c-.62-.64-1.29-1.22-1.94-1.83C4.54,7.87,5,5.85,7.76,4,11.29,1.62,15,2.1,18.3,5.24a19,19,0,0,1,5.78,13c.06.81.05,1.63.05,2.45,0,6.11-.48,6.61-6.6,6.66-.81,0-1.62,0-2.7,0,1.27-2.43,1.51-4.64-1.25-5.89-.9-.41-2.26-.81-2.91.44s.14,2,1.19,2.54c1-.47-1.34-1.76.54-2a2,2,0,0,1,1.32,3.64c-1.53,1-3.16.56-4.7,0A20.21,20.21,0,0,1,6.19,24.56Z"
              style="fill:#f9f4e9"/>
        <path d="M14.06,50.58c-2.45-.42-4.5-1.73-6.65-2.83-1.16-.59-.77-1.57-.72-2.37C7.06,40.26,7.43,35.13,8,30c.18-1.58.45-3,3.18-2.33,6.58,1.67,5.4.46,4.87,6.77A125.65,125.65,0,0,1,14.06,50.58Z"
              style="fill:#f3e3dc"/>
        <path d="M57.69,25.72a134.43,134.43,0,0,1,.83,19.46c0,2.07-3.15,5.22-5.08,5.15-1.24,0-1-1-1.18-1.78-1.29-6-.56-12.09-1.11-18.13-.17-1.92.39-4,3.36-3.75C55.49,26.76,56.53,26.09,57.69,25.72Z"
              style="fill:#f3e3dc"/>
        <path d="M59.69,11.81c-.5,2-1.77,3.13-3.9,2.75a2.41,2.41,0,0,1-1.65-3.75c.3-.51.74-1.25,1.42-.71s-.05.85-.45,1.19a.93.93,0,0,0,0,1.59,1.62,1.62,0,0,0,2,.16c.84-.65,1.58-1.42,2.37-2.15Z"
              style="fill:#594e4b"/>
        <path d="M6.16,12c.65.61,1.32,1.19,1.94,1.83a1.69,1.69,0,0,0,2.43.15c.89-.71.44-1.38-.39-1.9a.52.52,0,0,1,0-.9c.46-.36.88,0,1.13.31a2.51,2.51,0,0,1,.38,3,2.63,2.63,0,0,1-3,1.19A3.2,3.2,0,0,1,6,12.89Z"
              style="fill:#594e4b"/>
        <path d="M43.61,30.77c-5,1-7.86-1.77-6.94-6.82.08-.43,0-1,.64-1,.46,0,1,.42.9.84-1,4.49,2.1,5.47,5.3,6.45C43.58,30.3,43.57,30.6,43.61,30.77Z"
              style="fill:#594e4b"/>
        <path d="M32.73,48.49c.31-5.58,0-11.19.64-16.77C34.43,37.34,33.73,42.92,32.73,48.49Z" style="fill:#514441"/>
        <path d="M26.69,25.71a4.54,4.54,0,0,1,.21-1.3c.34-.7-.56-2.21.86-2.05,1,.11.76,1.46.65,2.33a6.59,6.59,0,0,1-.54,1.5Z"
              style="fill:#6f625f"/>
        <path d="M26.16,30.33c-1.47.85-2.71,2.32-5.08,1.87a12.43,12.43,0,0,1,4.59-2.81Z" style="fill:#594e4b"/>
        <path d="M26.69,25.71l1.18.48c-.09,1.35.55,2.95-1.26,3.71l-.88-.59C26.67,28.27,26.22,26.87,26.69,25.71Z"
              style="fill:#594e4b"/>
        <path d="M25.67,29.39l.07-.08c.28.2.57.39.87.59l-.45.43Z" style="fill:#594e4b"/>
    </g>
</svg>