<svg xmlns="http://www.w3.org/2000/svg" viewBox="0 0 56.14 54.45">
    <g>
        <path d="M36.7.48a2.9,2.9,0,0,1-.06,2.22c-.93.49-.61,1.28-.51,2C36.41,8,37.19,8.64,40.19,8A24.71,24.71,0,0,1,48,7.74c3.81.35,6.5,3.5,6.86,7.62.14,1.61,0,3.24,0,4.86-.55.81-.7,1.57.33,2.14a19.7,19.7,0,0,1,.3,4.91c-.67.53-.4.85.25,1.08.68,3.81.24,7.61,0,11.42-1.22,1-.9,2.1-.3,3.25,1.19,2.3.59,3.81-1.79,4.95-1.76.85-3.21,2.29-5,3.15-2.4,1.13-2.56,1-3-1.61-.73-4.94-.51-9.89-.61-15.53-1.81,4.77-2.28,9.19-3.06,13.5-.31,1.72-1.4,3.11-1.49,4.86,0,.76-.81.82-1.44,1-6.45,1.69-12.93,1.3-19.37.08-1.15-.22-3.27,1-3.58-1.7-.15-1.33-1.11-2.47-1.27-4-.36-3.32-2-6.43-2.1-9.86-.47,4-1.21,7.86-1,11.83.12,1.95-.68,2.12-2.24,1.51A69.81,69.81,0,0,1,0,46.32v-6c1.38-1.46.08-3.28.64-4.85a71.72,71.72,0,0,0,1-14.13C1.2,12.58,5.53,8.25,14.31,8.26c1.62,0,3.25,0,4.88.05a2.72,2.72,0,0,0,3.09-2.4c.11-1.74,1-3.18,1.2-4.83L24,.67l6-.14V1.75c-1.52.74-4.17-1-4.62,2.11l-.17.83c-.08,4.35-1.29,5.54-5.4,5.62a64.73,64.73,0,0,0-8.69.38c-4.65.72-5.95,2-6.32,6.6C4.53,20.54,4.66,23.87,4,27c-1.24,5.69-1,11.49-1.73,17.21-.09.8-.08,1.56.91,2,2.09,1,4.07,2.28,6.62,2.72.46-4.33.94-8.53,1.35-12.74.19-1.92-.44-3.15-2.58-3.67C5.81,31.92,5,29.87,6.24,27.4c.4-.78.57-1.06,0-1.9-1.34-2-.78-4,1.23-5.63a10.09,10.09,0,0,1,11.63-.1A2.51,2.51,0,0,1,20.23,23c-.66,1.89-1.17,3.83-1.76,5.78,1.17.2,1.76-1.17,2.84-.55-.42,1.37-1.54,1.86-2.57,2.35-3.39,1.6-3.94,3.15-3.33,6.88S17.12,45,16.93,48.91c-.09,2,.82,2.57,2.34,2.76,6.11.74,12.23,1.44,18.37.2.65-.13,1-.1,1.15-1,.75-4.79,1.66-9.57,2.54-14.34.56-3-1.78-6.3-4.71-7.15-1.4-.41-3.81.07-3.66-2.66,0-.07.15-.17.13-.2a3.26,3.26,0,0,0-.29-.36A2.75,2.75,0,0,1,32.6,24c1-.41.3-1.75,1.21-2.21a4.2,4.2,0,0,1,.41,2.9c-.2,2.53,1,3.27,3.3,2.89-.55-1.79-1-3.51-1.6-5.18a2.41,2.41,0,0,1,.93-3c3.28-2.62,8.94-2.65,12,.13,1.57,1.41,2.63,3.16,1.17,5.19-.69,1-.51,1.41,0,2.4.86,1.84.72,3.76-1.63,4.61C47.09,32.17,47,33,47,34.22c-.17,4.36.61,8.64.93,13,0,.66,0,1.51,1.09,1.54,1.83.07,5.07-3,5.1-4.87.05-2.81.05-5.62.06-8.43.06,0,.19-.12.18-.16a2.83,2.83,0,0,0-.17-.4C54,28.4,52.79,22,52.81,15.51c0-2.95-1.55-4.67-4.28-5.4-.53-1.17-1.08-1.19-1.67,0a1.94,1.94,0,0,1-1.6-.06c-.4-.93-.95-1-1.63-.28-1.45.19-2.85,1.07-4.36.29-.23-.67-.54-1-1.1-.26-2.52-.34-4-1.59-3.68-4.33.44-.31.5-.65.09-1-.64-.92,0-2.15-.77-3-.82-.69-2.24.22-2.85-1C32.81-.27,34.67.13,36.53.2A.37.37,0,0,0,36.7.48Zm7.73,27.61-.62-.72c-.32.39-.17.81,0,1.22a3.9,3.9,0,0,0,3.92,1.64c.47,0,1.29-.9,1.22-1.24a4.53,4.53,0,0,0-2.42-3.34,3.54,3.54,0,0,1-.92-.56c-.53-.57-1.36-.92-1.43-1.87s0-1.69,1-1.94a1.21,1.21,0,0,1,1.65.95c.16,1.31-1.6-.77-1.53.2s.62.88.86,1.09c.82.74,1.71,1.74,2.64.34.75-1.13.19-2.27-.72-3.15-2.18-2.07-7.78-2.32-10.15-.49-.53.41-1,.87-.77,1.59,1.13,3.28,2.21,6.61,4.5,9.32,1,1.16,2.21,1.5,3.49.17-1.64-.93-3-2-2.67-4.22.1-.66.37-.95,1-1,.81-.05,1.49.18,1.72,1C45.33,27.55,45.7,28.52,44.43,28.09Zm-32.71.54c-1.26.44-.9-.53-.77-1,.22-.81.9-1,1.71-1,.65.05.92.33,1,1,.37,2.21-1,3.29-2.68,4.23,1.43,1.39,2.57.88,3.66-.39a19.5,19.5,0,0,0,2.85-5.1c2.32-5.38,1-7.19-5-6.78a8,8,0,0,0-3.32,1c-1.55.83-2.91,2.09-1.83,3.85,1.22,2,2.18-.53,3.34-.64,0,0,.06-.31.09-.47-.39-.9-1.16.45-1.5-.24-.24-.5.27-.86.61-1.06a1.2,1.2,0,0,1,1.7.28,1.81,1.81,0,0,1-.27,2.64c-.75.64-1.58,1.18-2.36,1.79-1.07.83-2.17,1.93-1.54,3.27.89,1.85,2.5.65,3.77.3.45-.12.76-.73,1.13-1.12a1.17,1.17,0,0,0,0-1.21Z"
              style="fill:#514441"/>
        <path d="M.64,35.48c-.56,1.57.74,3.39-.64,4.85V35.42Z" style="fill:#f3e3dc"/>
        <path d="M55.51,43c-.6-1.15-.92-2.27.3-3.25A6.77,6.77,0,0,1,55.51,43Z" style="fill:#594e4b"/>
        <path d="M31,.31c.61,1.27,2,.36,2.85,1.05L30,1.75V.53Z" style="fill:#594e4b"/>
        <path d="M55.23,22.36c-1-.57-.88-1.33-.33-2.14A2.46,2.46,0,0,1,55.23,22.36Z" style="fill:#594e4b"/>
        <path d="M36.13,4.72c-.1-.74-.42-1.53.51-2A1.71,1.71,0,0,1,36.13,4.72Z" style="fill:#594e4b"/>
        <path d="M55.78,28.35c-.65-.23-.92-.55-.25-1.08A1,1,0,0,1,55.78,28.35Z" style="fill:#594e4b"/>
        <path d="M24,.67l-.5.41C23.45.71,23.62.58,24,.67Z" style="fill:#594e4b"/>
        <path d="M36.7.48A.37.37,0,0,1,36.53.2l.31.14Z" style="fill:#594e4b"/>
        <path d="M30,1.75l3.82-.39c.76.89.13,2.12.77,3l-.09,1c-.3,2.74,1.16,4,3.68,4.33a.9.9,0,0,0,1.1.26c1.51.78,2.91-.1,4.36-.29a1.68,1.68,0,0,0,1.63.28,1.94,1.94,0,0,0,1.6.06l1.67,0c2.73.73,4.28,2.45,4.28,5.4C52.79,22,54,28.4,54.15,34.87v.56c0,2.81,0,5.62-.06,8.43,0,1.9-3.27,4.94-5.1,4.87-1.07,0-1-.88-1.09-1.54-.32-4.33-1.1-8.61-.93-13,0-1.18.13-2,1.41-2.51,2.35-.85,2.49-2.77,1.63-4.61-.47-1-.65-1.43,0-2.4,1.46-2,.4-3.78-1.17-5.19-3.08-2.78-8.74-2.75-12-.13a2.41,2.41,0,0,0-.93,3c.58,1.67,1,3.39,1.6,5.18-2.33.38-3.5-.36-3.3-2.89a4.2,4.2,0,0,0-.41-2.9c-1.54-.6-1.62-.46-1.21,2.21a2.75,2.75,0,0,0,.2,2.14l.16.56c-.15,2.73,2.26,2.25,3.66,2.66,2.93.85,5.27,4.15,4.71,7.15-.88,4.77-1.79,9.55-2.54,14.34-.14.92-.5.89-1.15,1-6.14,1.24-12.26.54-18.37-.2-1.52-.19-2.43-.79-2.34-2.76.19-3.88-.9-7.68-1.52-11.49s-.06-5.28,3.33-6.88c1-.49,2.15-1,2.57-2.35-1.08-.62-1.67.75-2.84.55.59-1.95,1.1-3.89,1.76-5.78a2.51,2.51,0,0,0-1.13-3.19,10.09,10.09,0,0,0-11.63.1c-2,1.59-2.57,3.65-1.23,5.63.57.84.4,1.12,0,1.9-1.29,2.47-.43,4.52,2.3,5.18,2.14.52,2.77,1.75,2.58,3.67-.41,4.21-.89,8.41-1.35,12.74-2.55-.44-4.53-1.72-6.62-2.72-1-.47-1-1.23-.91-2C2.94,38.52,2.73,32.72,4,27c.69-3.16.56-6.49.82-9.74.37-4.59,1.67-5.88,6.32-6.6a64.73,64.73,0,0,1,8.69-.38c4.11-.08,5.32-1.27,5.4-5.62.06-.28.11-.55.17-.83C25.82.77,28.47,2.49,30,1.75Zm-1.48,44,.83,0c.13-4.8.28-9.6-.06-14.38l-.77,0Zm-5.38-25c-.53,2.17-1.62,4.3,0,6.36C22.86,25,24.9,22.9,23.13,20.81Z"
              style="fill:#f3e3dc"/>
        <path d="M12.37,29.13c-.37.39-.68,1-1.13,1.12C10,30.6,8.36,31.8,7.47,30c-.63-1.34.47-2.44,1.54-3.27.78-.61,1.61-1.15,2.36-1.79a1.81,1.81,0,0,0,.27-2.64A1.2,1.2,0,0,0,9.94,22c-.34.2-.85.56-.61,1.06.34.69,1.11-.66,1.5.24,0,.16-.05.47-.09.47-1.16.11-2.12,2.6-3.34.64-1.08-1.76.28-3,1.83-3.85a8,8,0,0,1,3.32-1c5.94-.41,7.29,1.4,5,6.78a19.5,19.5,0,0,1-2.85,5.1c-1.09,1.27-2.23,1.78-3.66.39,1.65-.94,3.05-2,2.68-4.23-.11-.66-.38-.94-1-1-.81-.05-1.49.18-1.71,1-.13.48-.49,1.45.77,1Z"
              style="fill:#f9f4e9"/>
        <path d="M44.43,28.09c1.27.43.9-.54.77-1-.23-.8-.91-1-1.72-1-.65,0-.92.33-1,1-.37,2.21,1,3.29,2.67,4.22-1.28,1.33-2.51,1-3.49-.17-2.29-2.71-3.37-6-4.5-9.32-.25-.72.24-1.18.77-1.59,2.37-1.83,8-1.58,10.15.49.91.88,1.47,2,.72,3.15-.93,1.4-1.82.4-2.64-.34-.24-.21-.75,0-.86-1.09s1.69,1.11,1.53-.2a1.21,1.21,0,0,0-1.65-.95c-1,.25-1.08,1.06-1,1.94s.9,1.3,1.43,1.87a3.54,3.54,0,0,0,.92.56A4.53,4.53,0,0,1,48.91,29c.07.34-.75,1.2-1.22,1.24a3.9,3.9,0,0,1-3.92-1.64Z"
              style="fill:#f9f4e9"/>
        <path d="M32.6,24c-.41-2.67-.33-2.81,1.21-2.21C32.9,22.25,33.59,23.59,32.6,24Z" style="fill:#6f625f"/>
        <path d="M45.26,10a1.68,1.68,0,0,1-1.63-.28C44.31,9.05,44.86,9.08,45.26,10Z" style="fill:#594e4b"/>
        <path d="M48.53,10.11l-1.67,0C47.45,8.92,48,8.94,48.53,10.11Z" style="fill:#594e4b"/>
        <path d="M39.27,10a.9.9,0,0,1-1.1-.26C38.73,9.05,39,9.35,39.27,10Z" style="fill:#594e4b"/>
        <path d="M43.77,28.59c-.13-.41-.28-.83,0-1.22l.62.72Z" style="fill:#f9f4e9"/>
        <path d="M34.49,5.43l.09-1C35,4.78,34.93,5.12,34.49,5.43Z" style="fill:#594e4b"/>
        <path d="M11.72,28.63l.62-.71a1.17,1.17,0,0,1,0,1.21Z" style="fill:#f9f4e9"/>
        <path d="M25.37,3.86c-.06.28-.11.55-.17.83C25.26,4.41,25.31,4.14,25.37,3.86Z" style="fill:#594e4b"/>
        <path d="M54.14,35.43v-.56a2.83,2.83,0,0,1,.17.4S54.2,35.38,54.14,35.43Z" style="fill:#6f625f"/>
        <path d="M33,26.7l-.16-.56a3.26,3.26,0,0,1,.29.36S33,26.63,33,26.7Z" style="fill:#6f625f"/>
        <path d="M28.51,45.79V31.41l.77,0c.34,4.78.19,9.58.06,14.38Z" style="fill:#514441"/>
        <path d="M23.13,20.81c1.77,2.09-.27,4.21,0,6.36C21.51,25.11,22.6,23,23.13,20.81Z" style="fill:#594e4b"/>
    </g>
</svg>