<svg xmlns="http://www.w3.org/2000/svg" viewBox="0 0 34.84 37.03"><defs><style>.cls-1{fill:#462826;}.cls-2{fill:#f6b9b5;}.cls-3{fill:#c93d6f;}.cls-4{fill:#eaaca8;}</style></defs><g id="Ebene_2" data-name="Ebene 2"><g id="bell2"><path class="cls-1" d="M18.51,37c-2.07-1.4-4.47-2.59-4.87-5.42-.47-3.28.48-6,3.7-7.76-.53-.73-1.33-1.36-1.44-2.08-.24-1.71-1.32-1.57-2.54-1.63a27.12,27.12,0,0,1-9.34-2C2,17.3.68,16.31.39,13.78,0,10.46-.33,7.23.58,4c.71-2.56,3-2.72,5.06-3.06.57-.09.21.71.26,1.1-2.83,0-4.52,1.44-4.75,4.28C1,8.1.7,10.08,1.28,11.68S.69,15.31,3,16.43A29.29,29.29,0,0,0,14.6,19.07c.73,0,1.62-.35,1.48-.8-.64-2.05,1.05-1.84,2-2.36.71-.37,1.39-.79,2.1-1.15.36-.18,1,.06,1-.63s-.52-.85-1.09-1c-1.6-.51-2.4.84-3.64,1.83-.32-2.42,1.15-3.15,2.6-3.39a3.28,3.28,0,0,1,3.76,2.39c1.51,4.46,1.48,4.47,6.05,3,4.34-1.4,4.34-1.4,4.36-5.84,0-2.17-.06-4.35,0-6.52a2.53,2.53,0,0,0-2-2.78c-1.11-.32-2.26-.48-3.4-.71-.1-.59-.05-1,.73-1.06a5.68,5.68,0,0,1,5.81,4.93c0,.19.31.35.48.52V7.64c-.91.43-.5,1.27-.52,1.91-.2,7.19-.19,7.19-7.22,9.13a8.55,8.55,0,0,1-1.55.38c-.6.05-.95.16-1.08.87-.29,1.51-1.81,2.14-2.61,3.3C27,25.44,28.66,29.8,26,34c-1,1.62-2.8,2-4.22,3ZM19,34.86l.11.37.27-.17-.36-.21A16.67,16.67,0,0,0,18,33c-.45-.6-1.5-.9-.87-2a1.09,1.09,0,0,1,1.17-.52c1.1.16.62,1.09.82,1.71.39,1.21,1,2.66,2.41,2.38a2.38,2.38,0,0,0,2.1-3.07c-.26-.86.18-1.5.66-1.46,2.71.26,1.12-1.38.84-2.07-.55-1.38-1.36-2.88-3.16-2.66-1.07.13-1,.41-1.62-.51-.55.38.3,1.39-.61,1.66-.87-.33-.46-2.37-2-1.36-1.82,1.21-3.19,2.94-2.85,5.18S16.22,34.68,19,34.86ZM16.91,20.07c.4,1.25.6,2.31,1.89,2.25A4.59,4.59,0,0,0,23,19.58C20.86,19.66,19.09,20.47,16.91,20.07Zm.3-1.18c2.05.73,3.53-.15,5.07-.39.44-.07.63-.4.42-.74s-.49-.88-1-.41C20.54,18.42,19,18.36,17.21,18.89Z"/><path class="cls-2" d="M27.82,1.07c1.14.23,2.29.39,3.4.71a2.53,2.53,0,0,1,2,2.78c-.08,2.17,0,4.35,0,6.52,0,4.44,0,4.44-4.36,5.84-4.57,1.48-4.54,1.47-6.05-3A3.28,3.28,0,0,0,19,11.54c-1.45.24-2.92,1-2.6,3.39,1.24-1,2-2.34,3.64-1.83.57.18,1,.46,1.09,1s-.6.45-1,.63c-.71.36-1.39.78-2.1,1.15-1,.52-2.66.31-2,2.36.14.45-.75.84-1.48.8A29.29,29.29,0,0,1,3,16.43c-2.26-1.12-1.11-3.2-1.67-4.75S1,8.1,1.15,6.3C1.38,3.46,3.07,2.07,5.9,2L6,3.29c-.83-.13-1.26.28-1.11,1,.19,1,1,1.06,1.86,1.15A147.09,147.09,0,0,0,23.5,6a9.37,9.37,0,0,0,4.12-1c1.57-.77,1.58-1.62.2-2.76Z"/><path class="cls-1" d="M27.82,2.23c1.38,1.14,1.37,2-.2,2.76A9.37,9.37,0,0,1,23.5,6,147.09,147.09,0,0,1,6.71,5.49C5.85,5.4,5,5.31,4.85,4.34c-.15-.77.28-1.18,1.11-1,.1.4-.06,1,.57,1C13,4.63,19.38,5.5,25.87,4.5,27.66,4.23,27.91,3.64,27.82,2.23Z"/><path class="cls-3" d="M19,34.87c-2.82-.19-3.81-2.28-4.15-4.54s1-4,2.85-5.18c1.53-1,1.12,1,2,1.36.91-.27.06-1.28.61-1.66.58.92.55.64,1.62.51,1.8-.22,2.61,1.28,3.16,2.66.28.69,1.87,2.33-.84,2.07-.48,0-.92.6-.66,1.46a2.38,2.38,0,0,1-2.1,3.07c-1.43.28-2-1.17-2.41-2.38-.2-.62.28-1.55-.82-1.71a1.09,1.09,0,0,0-1.17.52c-.63,1.06.42,1.36.87,2a16.67,16.67,0,0,1,1.07,1.84Z"/><path class="cls-4" d="M17.21,18.89c1.76-.53,3.33-.47,4.49-1.54.51-.47.81.11,1,.41s0,.67-.42.74C20.74,18.74,19.26,19.62,17.21,18.89Z"/><path class="cls-3" d="M19.06,34.85l.36.21-.27.17c0-.12-.07-.24-.11-.36Z"/></g></g></svg>