<svg xmlns="http://www.w3.org/2000/svg" viewBox="0 0 61.09 63.23">
    <g>
            <path d="M21.31,12c1.21.74,1.45-.49,2-1A50.83,50.83,0,0,1,35,1.4c.87-.5,1.56-1,2.65-.31C46.13,6.32,53.57,12.58,58,21.71c5.91,12.3,3.38,23.89-7,33a50.23,50.23,0,0,1-13.16,8,5.31,5.31,0,0,1-4.94-.31C28,59.77,23.54,56.53,20.39,51.81a3,3,0,0,0-1-1.17c-7.64-4.28-9.51-8.12-8.23-16.77.08-.54.23-1.06.34-1.6.35-1.83-1.48-1.12-2.12-1.8l.63-.58c5.14,1.26,10.21.67,15.22-.63,1.61-.41,3.36-.85,3.65-3.24-5.31.26-10.44,2.41-15.67.56l.51-1a67.28,67.28,0,0,1,5.08-9.08c.7-1.12,2.12-1.81,2.06-3.38h0c.85-.06,1.32-.3.55-1.14Zm12,49.13c.12.08.29.27.34.24.29-.17.16-.37,0-.56-1-3-2.6-5.74-3.27-8.85-.13-.62-.22-1.46-1.33-1.3-2.34.33-4.7.57-7.41.89C25.06,55.66,28.64,59,33.26,61.1ZM25.89,17.55c-.4-.19-.82-.35-1.21-.58-4-2.29-5.48-1.42-5.51,3.17,0,.45,0,.91,0,1.35-.35,3.29.41,3.78,4,2.85a3.72,3.72,0,0,0,2.2-1.46c.08-.1,0-.28.08-.45L23,22.12c1.36-.49,2.51-.57,3.07-1.66-.72-.7-2-1-2.06-2.42,1.25.25,1.59,2.1,3.12,1.29L26,17.59c2.23,1.72,5,.84,7.42,1.45-.67,2.58,1.77-.3,1.82,1.09-3.1,1.72,1.66,2.22.62,3.65-1.3.48-1.12-1.53-2.26-1.34-.25,2.37.57,4.24,2.06,4.72a4,4,0,0,0,5.26-2.4,31,31,0,0,0,1.66-5.07c.4-1.6-.12-2.35-2-2.35a12.38,12.38,0,0,0-7.16,1.74c-.1-.14-.3-.35-.27-.39,1.51-2.06,7.54-3.48,9.77-2.28a2,2,0,0,1,.82,1c1.12,3.25-2.15,10.06-5.45,11.4-.34.14-1.07-.14-.72.65,1.19,2.65-.54,4.89-1,7.3C36.05,39,34.79,39.13,33,38.21a5.66,5.66,0,0,1-2.41-3.14c-.94-2.09-.44-4.44-1.17-6.95A18.91,18.91,0,0,0,27.21,42c1.55,7.23,7.31,9.75,14.27,11.75-4,.6-6.77-.8-10-2.18a40.39,40.39,0,0,0,4.15,9.78c.59,1,1.16.35,1.8.08a47.77,47.77,0,0,0,11.49-6.66c9.17-7.27,12.76-17.91,9.42-28.28-3.54-11-11.64-18.12-20.87-24.24a1.5,1.5,0,0,0-2,0,59.28,59.28,0,0,0-13,12.17C23.6,15.66,25.93,15.33,25.89,17.55ZM17.39,31.8c-4.42-.49-4.58-.37-4.83,3.77-.05,1-.05,2,0,3,.09,8.1,5.94,12.7,13.94,11.21,2.23-.41,2.24-1,1.17-2.68a16,16,0,0,1-2.07-12.5c.36-1.48.68-3,1-4.48-2.14,2.5-4.34,4.48-7.74,5-1.67.26-2-.16-1.85-1.53A12.7,12.7,0,0,1,17.39,31.8Zm13.78-1.5c0,3.53.39,4.87,1.74,6.48.5.6,1,1.06,1.82.58,2-1.24,2.72-7,.81-8.59-1.1-.91-2-3-3.53-2.42C30.25,27,31.56,29.1,31.17,30.3Zm-8.66.2a3.42,3.42,0,0,1-2.67.53c-1.09-.12-1.43.6-1.67,1.37-.18.59-.34,1.4.2,1.78s1.35-.2,1.95-.53a25.2,25.2,0,0,0,2.75-1.71,1.33,1.33,0,0,0,.4-.92C23.51,30.49,23,30.6,22.51,30.5Zm-5-8.48c-.93,1.22-2.29,2.47-1.83,3.83.23.67,2.19.88,3.66.57C18.12,25.2,18,23.62,17.56,22Zm13.26-.26c.53-.1,1.55.33,1.42-.91-.11-1-.86-1.29-1.78-1.25s-1.95.18-1.87,1.07S29.8,21.77,30.82,21.76Z"
                  style="fill:#4b3230"/>
            <path d="M19.29,2.65a9.34,9.34,0,0,1,2,9.32l.07,0c-.54.21-1.09.41-.55,1.14h0c-3.38.66-4.45.12-4.32-2.18.21-3.67-.43-4.8-3.16-5.54-3.1-.84-5.11.13-6.64,3-1.23,2.35-1.14,4.88-1.28,7.39h-1A12.84,12.84,0,0,1,5.59,8.15C7,5,9.87,3.33,12.92,4c3.6.82,5,2.82,4.78,6.83,0,.59-.11,1,.49,1.34a1.26,1.26,0,0,0,1.67-.45,3.92,3.92,0,0,0,.82-3A16,16,0,0,0,19,3.36Z"
                  style="fill:#644c4a"/>
            <path d="M10,29.89l-.63.58C.78,27.39-1.37,16.7.77,10.35c1.35-4,3.05-7.72,7.48-9.23V2C2.37,5.08.78,10.7,1,16.44A14.61,14.61,0,0,0,10,29.89Z"
                  style="fill:#5b413f"/>
            <path d="M8.24,2v-.9C12.23-1,15.81.06,19.19,2.55l-.71.28C15.17,1.27,11.79.52,8.24,2Z" style="fill:#644c4a"/>
            <path d="M19.19,2.55l.1.1c-.09.24-.19.47-.28.71l-.53-.53Z" style="fill:#644c4a"/>
            <path d="M33.38,19c-2.45-.61-5.19.27-7.42-1.45l-.07,0c0-2.22-2.29-1.89-3.38-3.17a59.28,59.28,0,0,1,13-12.17,1.5,1.5,0,0,1,2,0C46.66,8.33,54.76,15.45,58.3,26.45c3.34,10.37-.25,21-9.42,28.28a47.77,47.77,0,0,1-11.49,6.66c-.64.27-1.21.9-1.8-.08a40.39,40.39,0,0,1-4.15-9.78c3.27,1.38,6,2.78,10,2.18-7-2-12.72-4.52-14.27-11.75a18.91,18.91,0,0,1,2.21-13.84c.73,2.51.23,4.86,1.17,7A5.66,5.66,0,0,0,33,38.21c1.79.92,3,.81,3.48-1.44.47-2.41,2.2-4.65,1-7.3-.35-.79.38-.51.72-.65,3.3-1.34,6.57-8.15,5.45-11.4a2,2,0,0,0-.82-1c-2.23-1.2-8.26.22-9.77,2.28,0,0,.17.25.27.39Z"
                  style="fill:#bfab9e"/>
            <path d="M17.39,31.8A12.7,12.7,0,0,0,17,33.58c-.13,1.37.18,1.79,1.85,1.53,3.4-.52,5.6-2.5,7.74-5-.33,1.5-.65,3-1,4.48a16,16,0,0,0,2.07,12.5c1.07,1.72,1.06,2.27-1.17,2.68-8,1.49-13.85-3.11-13.94-11.21,0-1,0-2,0-3C12.81,31.43,13,31.31,17.39,31.8Z"
                  style="fill:#bfab9e"/>
            <path d="M18.48,2.83l.53.53a16,16,0,0,1,1.67,5.35,3.92,3.92,0,0,1-.82,3,1.26,1.26,0,0,1-1.67.45c-.6-.32-.53-.75-.49-1.34.24-4-1.18-6-4.78-6.83C9.87,3.33,7,5,5.59,8.15a12.84,12.84,0,0,0-1.14,7.62,11.13,11.13,0,0,0,8.73,10.81c5.23,1.85,10.36-.3,15.67-.56-.29,2.39-2,2.83-3.65,3.24-5,1.3-10.08,1.89-15.22.63A14.61,14.61,0,0,1,1,16.44C.78,10.7,2.37,5.08,8.24,2,11.79.52,15.17,1.27,18.48,2.83Z"
                  style="fill:#ece0e0"/>
            <path d="M33.34,19.08a12.38,12.38,0,0,1,7.16-1.74c1.92,0,2.44.75,2,2.35a31,31,0,0,1-1.66,5.07,4,4,0,0,1-5.26,2.4c-1.49-.48-2.31-2.35-2.06-4.72,1.14-.19,1,1.82,2.26,1.34,1-1.43-3.72-1.93-.62-3.65-.05-1.39-2.49,1.49-1.82-1.09Z"
                  style="fill:#f6bcb7"/>
            <path d="M33.26,61.1c-4.62-2.1-8.2-5.44-11.68-9.58,2.71-.32,5.07-.56,7.41-.89,1.11-.16,1.2.68,1.33,1.3.67,3.11,2.23,5.88,3.27,8.85A2.5,2.5,0,0,0,33.26,61.1Z"
                  style="fill:#bda99c"/>
            <path d="M25.89,17.55l.07,0,1.18,1.74c-1.53.81-1.87-1-3.12-1.29.09,1.41,1.34,1.72,2.06,2.42-.56,1.09-1.71,1.17-3.07,1.66l2.42.31c0,.17,0,.35-.08.45a3.72,3.72,0,0,1-2.2,1.46c-3.57.93-4.33.44-4-2.85,0-.44,0-.9,0-1.35,0-4.59,1.55-5.46,5.51-3.17C25.07,17.2,25.49,17.36,25.89,17.55Z"
                  style="fill:#f6bcb7"/>
            <path d="M31.17,30.3c.39-1.2-.92-3.3.84-3.95,1.53-.55,2.43,1.51,3.53,2.42,1.91,1.59,1.23,7.35-.81,8.59-.79.48-1.32,0-1.82-.58C31.56,35.17,31.17,33.83,31.17,30.3Z"
                  style="fill:#f6bcb7"/>
            <path d="M5.43,15.77c.74,5.58,3.57,8.93,8.26,9.76l-.51,1A11.13,11.13,0,0,1,4.45,15.77Z"
                  style="fill:#5b413f"/>
            <path d="M22.51,30.5c.52.1,1,0,1,.52a1.33,1.33,0,0,1-.4.92,25.2,25.2,0,0,1-2.75,1.71c-.6.33-1.27,1-1.95.53S18,33,18.17,32.4c.24-.77.58-1.49,1.67-1.37A3.42,3.42,0,0,0,22.51,30.5Z"
                  style="fill:#f3bab4"/>
            <path d="M17.56,22c.47,1.6.56,3.18,1.83,4.4-1.47.31-3.43.1-3.66-.57C15.27,24.49,16.63,23.24,17.56,22Z"
                  style="fill:#bda99c"/>
            <path d="M30.82,21.76c-1,0-2.15-.22-2.23-1.09s1-1,1.87-1.07,1.67.26,1.78,1.25C32.37,22.09,31.35,21.66,30.82,21.76Z"
                  style="fill:#f6bcb7"/>
            <path d="M20.83,13.07c-.54-.73,0-.93.55-1.14C22.15,12.77,21.68,13,20.83,13.07Z" style="fill:#fefefe"/>
            <path d="M33.59,60.78c.17.19.3.39,0,.56-.05,0-.22-.16-.34-.24A2.5,2.5,0,0,1,33.59,60.78Z"
                  style="fill:#bda99c"/>
        </g>
</svg>