<svg xmlns="http://www.w3.org/2000/svg" viewBox="0 0 43.81 76.98"><g id="Ebene_2" data-name="Ebene 2"><g id="Ebene_1-2" data-name="Ebene 1"><path d="M6.55,0c2.18,1.29,5.2,1.12,6.57,3.8l-.59.61C10.4,3,8.45,1.06,5.52,1.74l-.13-1L5.46,0Z" style="fill:#644c4a"/><path d="M12.53,4.41l.59-.61c.9.88,1.9.64,3,.45a40.23,40.23,0,0,1,15.54.2l.51,1L30,7.1l-.6-.62c.32-.54.47-.88-.43-1.05C21.25,4,14,4.9,7.79,10.12c-1.18,1-2.91,2.18-1.23,4.5.94,1.29,0,3.24-1.44,3.9-2.79,1.25-2.43,3.35-2,5.58.68,3.82,1.33,7.51-.37,11.38-1.37,3.11-.6,6.34,1.23,9.32s4.41,5.22,6.9,7.61c4.45,4.26,8.38,4.56,14.42,1.91C39.62,48,44.25,29,41.45,16.88c0-.71-.39-1-1.08-1.07A31.58,31.58,0,0,0,42.88,2.48l.7-.83A24.06,24.06,0,0,1,43.3,10,20.52,20.52,0,0,0,43.16,18c1.48,10-.18,19.45-5.9,28a17.64,17.64,0,0,1-4.93,5.38c-3,1.94-3.35,4.92-3.43,8,0,1.94.81,2.71,2.73,1.7a14.55,14.55,0,0,1,4.52-1.75,3.51,3.51,0,0,1,4.44,3.19c.53,3.52.26,7.07.35,10.6.05,2-1.7,2.19-2.93,2.68-3.54,1.38-7.31,1.34-11,1.1-4.34-.28-8.66-.81-12.67-2.71-3.49-1.64-4.13-2.66-3.81-6.51.18-2.23.07-4.55,1.55-6.5,1-1.26,2-2.36,3.72-2.46.82.32,1.66.6,2.47,1,.64.28,1.2.51,1.35-.48.12-.81-.4-.8-1-.78a5.62,5.62,0,0,1-2.82-.55c-4.65-3.27-9.39-6.44-12.63-11.3C.56,42.6-.28,38.45,1.7,34a8.47,8.47,0,0,0,.58-5.5,24.59,24.59,0,0,1-.57-9.4C2,17.37.42,16.25.21,14.6,0,12.78-.27,11.05.65,9.38c.24-.43.29-1.16,1-1.16s1,.63,1.13,1.28a1.69,1.69,0,0,0,1.08,1.41c.14.16.35.46.41.43.46-.21.12-.48,0-.72.19-2.43-.45-4.86,0-7.29.19-1,.22-2,1.17-2.6,0,.34.08.67.13,1C5,4.38,4.56,7,5.81,10c1-1.2.6-2.21.7-3.15s-.39-1.95.62-2.44,1.59.45,2.28,1C10.9,6.58,11.88,6,12.53,4.41ZM18.69,63.5c-.1-2-.88-3.41-2.78-3.4s-2.68,1.53-3.05,3a50.37,50.37,0,0,0-.73,5.59c2.13-.43,3.32-1.79,4.63-3.2.57,1.63-.5,2.3-1.31,3.12s-3.11,1-2.79,2.49,2.44,1.62,3.8,2.29c.41.19.88.24,1.29.41,1,.38,1.5.43,2-.85a27.05,27.05,0,0,1,2.85-4.45c.79,1.83-.4,2.7-1,3.69-1,1.62-1,2.61,1.21,2.71,2.72.13,5.43.25,8.15.42,2.3.15,2.64-.76,1.72-2.73-1.35-2.89-1.28-2.92,1.64-3.88.06,1-.91,2-.35,2.89.65,1.05-.16,3.39,2.21,3,1.92-.31,3.34-1.22,3.18-3.61s0-5.08-.13-7.62c-.1-2.14-1.36-3-3.42-2.36-1.38.42-2.7,1-4.05,1.55-2.49,1-4.21-.09-4.48-2.79a13.44,13.44,0,0,1,1.06-5.69,44.9,44.9,0,0,1-5.06,2.36c-1.78.56-2.77,1.33-2.62,3.41A3.9,3.9,0,0,1,18.69,63.5ZM1.87,11.12c-1.31,2-.07,3.49.73,5.06.49,1,1.14,1.82,2.26.91.94-.76.72-1.74,0-2.6C3.87,13.41,2.94,12.33,1.87,11.12Z" style="fill:#4f3836"/><path d="M43.58,1.65l-.7.83c-.86-1-1.89-.65-3-.44-2.83.58-5.23,2.12-7.76,3.39l-.51-1c3-1.89,6.06-3.54,9.72-3.73C42.31.68,43.2.49,43.58,1.65Z" style="fill:#644c4a"/><path d="M15.81,57.82a5.62,5.62,0,0,0,2.82.55c.58,0,1.1,0,1,.78-.15,1-.71.76-1.35.48-.81-.36-1.65-.64-2.47-1C15.79,58.39,15.8,58.1,15.81,57.82Z" style="fill:#e3d6d6"/><path d="M12.53,4.41c-.65,1.6-1.63,2.17-3.12,1-.69-.56-1.3-1.48-2.28-1S6.6,6,6.51,6.8s.29,2-.7,3.15C4.56,7,5,4.38,5.52,1.74,8.45,1.06,10.4,3,12.53,4.41Z" style="fill:#e3d6d6"/><path d="M41.45,16.88C44.25,29,39.62,48,25.26,54.32c-6,2.65-10,2.35-14.42-1.91C8.35,50,5.77,47.8,3.94,44.8s-2.6-6.21-1.23-9.32c1.7-3.87,1-7.56.37-11.38-.39-2.23-.75-4.33,2-5.58,1.47-.66,2.38-2.61,1.44-3.9-1.68-2.32.05-3.5,1.23-4.5C14,4.9,21.25,4,29,5.43c.9.17.75.51.43,1.05-.87,1-2.56,2-1.55,3.54a3,3,0,0,0,4,1.13c.79-.39,1.33.14,2,.41,2,.82,2.09,2.76,2.79,4.36C37.93,18.74,39.48,19,41.45,16.88ZM19.08,14.1a6.17,6.17,0,0,0,2.67,5.69c1.71,1.23,3.32.61,3.86-1.36.39-1.46-2.56-7.22-3.93-7.79-.66-.27-1,.12-1.41.45A3.16,3.16,0,0,0,19.08,14.1Z" style="fill:#bfab9e"/><path d="M18.69,63.5a3.9,3.9,0,0,0,1.95-3.62c-.15-2.08.84-2.85,2.62-3.41a44.9,44.9,0,0,0,5.06-2.36,13.44,13.44,0,0,0-1.06,5.69c.27,2.7,2,3.79,4.48,2.79,1.35-.54,2.67-1.13,4.05-1.55,2.06-.63,3.32.22,3.42,2.36.12,2.54,0,5.09.13,7.62s-1.26,3.3-3.18,3.61c-2.37.39-1.56-1.95-2.21-3-.56-.89.41-1.88.35-2.89-2.92,1-3,1-1.64,3.88.92,2,.58,2.88-1.72,2.73-2.72-.17-5.43-.29-8.15-.42-2.22-.1-2.23-1.09-1.21-2.71.62-1,1.81-1.86,1-3.69A27.05,27.05,0,0,0,19.75,73c-.5,1.28-1,1.23-2,.85-.41-.17-.88-.22-1.29-.41-1.36-.67-3.47-.74-3.8-2.29s1.88-1.58,2.79-2.49,1.88-1.49,1.31-3.12c-1.31,1.41-2.5,2.77-4.63,3.2a50.37,50.37,0,0,1,.73-5.59c.37-1.5,1.21-3,3.05-3S18.59,61.49,18.69,63.5Z" style="fill:#bda99c"/><path d="M32.17,5.43C34.7,4.16,37.1,2.62,39.93,2c1.06-.21,2.09-.57,3,.44a31.58,31.58,0,0,1-2.51,13.33c-.79,1.57-1.63,1.35-2.49.07s-.21-2.56.35-3.81c.72-1.61,1.27-3.83.1-4.85-1.34-1.17-3.18.23-4.58,1.23-.37.27-.74.53-1.09.83-1,.86-2.15,1.71-3.35.59s.74-1.76.71-2.77Z" style="fill:#ece0e0"/><path d="M30,7.1c0,1-1.93,1.64-.71,2.77s2.34.27,3.35-.59c.35-.3.72-.56,1.09-.83,1.4-1,3.24-2.4,4.58-1.23,1.17,1,.62,3.24-.1,4.85-.56,1.25-1.28,2.44-.35,3.81s1.7,1.5,2.49-.07c.69,0,1.08.36,1.08,1.07-2,2.15-3.52,1.86-4.75-1-.7-1.6-.81-3.54-2.79-4.36-.67-.27-1.21-.8-2-.41a3,3,0,0,1-4-1.13c-1-1.54.68-2.49,1.55-3.54Zm7.58.77c-1.52.35-3.41.62-3.54,2.05-.1,1.16,2,1.46,2.85,2.46A5.78,5.78,0,0,0,37.6,7.87Z" style="fill:#5b413f"/><path d="M1.87,11.12c1.07,1.21,2,2.29,3,3.37.76.86,1,1.84,0,2.6-1.12.91-1.77.05-2.26-.91C1.8,14.61.56,13.13,1.87,11.12Z" style="fill:#ba476f"/><path d="M4.22,10.62c.13.24.47.51,0,.72-.06,0-.27-.27-.41-.43A1.28,1.28,0,0,1,4.22,10.62Z" style="fill:#fefefe"/><path d="M19.08,14.1a3.16,3.16,0,0,1,1.19-3c.39-.33.75-.72,1.41-.45,1.37.57,4.32,6.33,3.93,7.79-.54,2-2.15,2.59-3.86,1.36A6.17,6.17,0,0,1,19.08,14.1Zm1.74-1.9c-1.33,1.91-.37,3.59.46,5.24.4.81.93,1.6,2,1.57.88,0,.75-.9.94-1.42.32-.89.73-1.72-.54-2.49A15.67,15.67,0,0,1,20.82,12.2Z" style="fill:#432b29"/><path d="M37.6,7.87a5.78,5.78,0,0,1-.69,4.51c-.89-1-2.95-1.3-2.85-2.46C34.19,8.49,36.08,8.22,37.6,7.87Z" style="fill:#eab2ac"/><path d="M20.82,12.2a15.67,15.67,0,0,0,2.84,2.9c1.27.77.86,1.6.54,2.49-.19.52-.06,1.4-.94,1.42-1.05,0-1.58-.76-2-1.57C20.45,15.79,19.49,14.11,20.82,12.2Z" style="fill:#ba476f"/></g></g></svg>