<svg xmlns="http://www.w3.org/2000/svg" viewBox="0 0 69.39 104.84"><g id="Ebene_2" data-name="Ebene 2"><g id="Ebene_1-2" data-name="Ebene 1"><path d="M65.42,0a3.36,3.36,0,0,1,1.07,2.25C67.07,7.63,66.91,12.86,65,18A22.1,22.1,0,0,0,63.9,26.3c.18,5.45-2.79,9.63-6.47,13.28-1.4,1.38-1.52,2,0,3.53,4.83,4.67,6.65,10.9,7.91,17.24A103.93,103.93,0,0,1,67,85.26,5.19,5.19,0,0,0,68,89c1.41,1.86,1.5,4.22,1.29,6.52a3.83,3.83,0,0,1-1.84,2.87A9.93,9.93,0,0,1,55.32,97c-4.88,6.21-13.37,7.62-16.83,2.79-2.4,3.09-11,5.92-14.5,4.72-3.74-1.27-4.3-4.7-4.85-7.87a66.44,66.44,0,0,0-1.85-7.89c-1-3.13-1.29-6.27,1.63-8.75,1.29-1.1.69-2.58.5-3.82a41.3,41.3,0,0,1-.09-9.75,23.52,23.52,0,0,0-.93-8,3.33,3.33,0,0,0-.38-.72,4.58,4.58,0,0,0-3.62-2.59c-1.53-.1-.88,1.87-2.79,2.7,4.29.08,5.92,2.2,6.35,5.24.29,2.06-.84,3.68-2.52,5.5-.31-1.94-.54-3.34-.76-4.74,1.57-.5.83,1.31,1.54,1.87,1.21-2.34.34-4.15-.94-5.69-.93-1.12-2.56-1.14-3.89-1.59-.36-.13-.51.44-.43.8a4.2,4.2,0,0,0,2.41,2.71c1.15.67,1.14.69,1.3,1.89C12.58,62.71,10.09,62,10,58.92c0-.56-.58-.71-1-.6s-.45.6-.47,1.08c-.08,1.77,1.66,2.73,1.86,4.36-2.58-.24-2.15-3-3.46-4.29C4.16,62.72,4.18,63,6.52,66.24c1.07,1.49,2.1,3.07,1.11,5.32,3.61-2.89,4.18-4.62,2.77-7.8,1.75,0,1.8,1.26,1.79,2.45a7.61,7.61,0,0,1-2.88,5.61A13.93,13.93,0,0,1,4,74.54a.81.81,0,0,1,.35-1.12c3.18-2.62,3.6-3.89,1-6.88-2.34-2.63-1.6-4.62.08-6.94.7-1,2.08-2.07-.23-3-.53-.21-1.22-1.31-.73-1.85,1.85-2.06,0-2.54-1.23-3.43C1.69,50.22,1.62,48,0,46.9V39.81c1.24-2,2-4.36,3.71-6.12,2.71-2.71,6.34-3.87,9-2.72,1.29.55,2.2,1.53,1.91,2.88a2.5,2.5,0,0,1-3,2.13,9.82,9.82,0,0,0-1.6-.24c-3,0-5.18,2.54-5.09,5.84.08,3,2.25,5.32,4.83,5.31.61,0,1.51-.08,1.21,1.07-2.44.88-.47,2.9-1.17,4.26,1.24-1,2.6-1.82,3.19-3.48-1.16-.23-1.1,1.3-2.07,1,0-.6-.36-1.21.09-1.79,1.14-.31,2.46-1.4,2.95.84.14.64,1,.66,1.59.87a9.8,9.8,0,0,1,6.2,5.36C24,49.82,26.7,45.56,31,42.46c-5.2-3.78-8.21-8.36-8.85-14.61-.3-2.94,0-6-1.05-8.83A30.93,30.93,0,0,1,19.49,2.55c.29-1.77.83-2.1,2.38-1.91A30.74,30.74,0,0,1,33.71,5.06,3.62,3.62,0,0,0,37,5.5a21.23,21.23,0,0,1,12.5-.4c.54.16,1.1.44,1.56.13C54.42,2.84,58.54,2,62.14,0ZM46.87,53.45c-.44,1.25-1.87.06-2.46,1,.68,2.23,1.81-.08,2.67.29s1.29-.15,1.18-.85-1-.1-1.37-.44c.22-.82,1.3-1.72-.13-2.42a1.54,1.54,0,0,0-2.22.84C43.72,54.5,46.14,52.8,46.87,53.45ZM48.56,48c.93,0,1.57-1.48,2.7-.54-.71,1.48-2.57,1.39-3.58,2.6,1.87,1.46,2.42,3.26,1,5.19a2.9,2.9,0,0,1-4.29.87c-2.47-1.66-1.84-3.73-.55-5.78-3.94-1.08-8.09-1.51-11.15-4.19-1.91-1.68-2.78-1-4,.47C21.82,55,20.43,64.91,21,75.28c.08,1.64-.07,3.53,3.05,2.94,2.1-.4,4.18,1.38,5.69,3.21.52.63.73,1.63,2,1.81-.92-3.62-1.79-7.1-2.71-10.58-1.13-4.31-1.58-8.19-1.12-10.39.8.4.69,1.28.81,1.88C31,75.46,35,86.2,39.27,96.84c.74,1.82,1.59,3.58,3.75,3.9,2.83.43,5.64.28,8-1.56,1.27-1,2.68-2,2-4s-1.74-3.56-4.16-3.61a10,10,0,0,0-6.51,2.19c-.25-1.37.58-1.87,1.27-2.39a1.75,1.75,0,0,0,.67-2c-1-5.22-2-10.46-2.79-15.73-.27-1.85-1-3.75-.37-5.74.81.23.75.79.86,1.32C43.3,75.44,44.58,81.71,45.94,88c.17.78-.08,2.27,1.6,1.81,1.35-.36,1.6-1.31,1.22-2.55-.26-.85-.53-1.71-.74-2.59-1.06-4.25.33-8.58,3.62-9.79,1.94-.71,2.35-1.83,1.67-3.19-2.25-4.45.67-7.81,2.06-12.19a7.19,7.19,0,0,1-.79,5.25,5,5,0,0,0-.6,3.12q1.77,9.18,3.39,18.4c.22,1.26.6,1.47,1.74,1,1.31-.57,2.69-1.47,4.14-1s1.82,0,1.87-1.38a107,107,0,0,0-1.45-24.64c-1.18-6-3.09-11.9-7.69-16.66-1.28,1.81-2.65,3.3-4.71,3.9-.57-1.26.74-1.28,1.23-1.84.87-1,2.32-1.55,2.34-3.41-2.84,1.33-4.71,3.42-6.66,5.4l-.57.71C48.07,48.69,48.33,48.41,48.56,48ZM35.19,92.91c.18.22.37.27.59,0l-.33-.28a31.44,31.44,0,0,0-3.27-7.55c-.23,1.3,1,2.41,0,4.06a29.54,29.54,0,0,0-3.72-6.45c-2.25-2.6-4.41-3.5-6.51-2.55C19,81.51,17.64,83.58,18.67,87c1.26,4.25,1.88,8.62,3.11,12.86A3.86,3.86,0,0,0,26,103c3.31-.34,6.63-.76,9.66-2.32.53-.27,1.36-.41,1.31-1.2a6.11,6.11,0,0,0-2.32-5,3.85,3.85,0,0,0-4.81.07,11.57,11.57,0,0,0-1.83,2c-.29.36-.54.82-1,.41s-.11-.77.1-1.18C28.7,92.75,31.35,91.8,35.19,92.91ZM20.93,1.74a47,47,0,0,0-.66,6.46C20.3,14.84,23,21,23.56,27.59c1,11.24,10,16.4,19.93,17,8.86.56,19.18-9.79,19.17-18.73a26.92,26.92,0,0,1,1.25-9.11A29.43,29.43,0,0,0,65,2.59c-.15-1.07-.33-1.25-1.47-1.06a30.06,30.06,0,0,0-11.3,4.3,2.57,2.57,0,0,1-2.38.45,21.88,21.88,0,0,0-13.34.56,2,2,0,0,1-2.25-.07A28.58,28.58,0,0,0,20.93,1.74ZM62.39,88c-3.93.07-6.89,3.85-5.68,7.26.85,2.4,2.56,3,6.84,2.32,2.18-.33,4.15-.87,4-3.72C67.26,90.49,65.05,88,62.39,88Zm-52-53.71a8,8,0,0,0,1.08.15c.7,0,1.58.13,1.64-.92,0-.87-.58-1.21-1.38-1.36a5.21,5.21,0,0,0-2.36,0A9.87,9.87,0,0,0,3.15,37C.22,42,1.62,49,6,51.13c.79.38,1.8,1.46,2.58.2.66-1.08.14-2-1-2.65A8.87,8.87,0,0,1,4.19,44.5C1.91,39.46,5.25,34,10.38,34.31ZM49.05,82.14c-.24,1.29.66,2.7.64,4.25,0,.68.44.81,1.12.65,5-1.16,5-1.14,3.85-6.46a29.14,29.14,0,0,1-.61-3.72c-.12-1.41-.93-1.37-1.77-.85A6.55,6.55,0,0,0,49.05,82.14ZM20.4,58.93c.48-4.14-1.16-6.34-5.29-7.85-1.78-.65-2.72-.15-3.4,1.57C15.61,53.32,19.09,54.56,20.4,58.93Zm23.31-9.79C40,45.83,36,44.84,32.19,43.59,34.83,47.38,39.12,47.71,43.71,49.14Zm6,40.5c2.48.34,3.5,1.86,5,3.75-.59-2.34,2.79-3.84.43-5.52C53.42,86.69,51.7,88.06,49.69,89.64ZM41.76,45.92c3.83,3.3,3.94,3.3,5.94,0Z" style="fill:#553f3d"/><path d="M51.27,47.47c2.06-.6,3.43-2.09,4.71-3.9,4.6,4.76,6.51,10.63,7.69,16.66a107,107,0,0,1,1.45,24.64c-.05,1.43-.3,1.92-1.87,1.38s-2.83.4-4.14,1c-1.14.49-1.52.28-1.74-1Q55.77,77,54,67.84a5,5,0,0,1,.6-3.12,7.19,7.19,0,0,0,.79-5.25c-1.39,4.38-4.31,7.74-2.06,12.19.68,1.36.27,2.48-1.67,3.19C48.35,76.06,47,80.39,48,84.64c.21.88.48,1.74.74,2.59.38,1.24.13,2.19-1.22,2.55-1.68.46-1.43-1-1.6-1.81C44.58,81.71,43.3,75.44,42,69.16c-.11-.53-.05-1.09-.86-1.32-.64,2,.1,3.89.37,5.74.79,5.27,1.76,10.51,2.79,15.73a1.75,1.75,0,0,1-.67,2c-.69.52-1.52,1-1.27,2.39a10,10,0,0,1,6.51-2.19c2.42,0,3.48,1.57,4.16,3.61s-.73,3-2,4c-2.39,1.84-5.2,2-8,1.56-2.16-.32-3-2.08-3.75-3.9C35,86.2,31,75.46,28.69,64.15c-.12-.6,0-1.48-.81-1.88-.46,2.2,0,6.08,1.12,10.39.92,3.48,1.79,7,2.71,10.58-1.26-.18-1.47-1.18-2-1.81-1.51-1.83-3.59-3.61-5.69-3.21-3.12.59-3-1.3-3.05-2.94-.55-10.37.84-20.25,7.73-28.63,1.2-1.45,2.07-2.15,4-.47,3.06,2.68,7.21,3.11,11.15,4.19-1.29,2.05-1.92,4.12.55,5.78a2.9,2.9,0,0,0,4.29-.87c1.42-1.93.87-3.73-1-5.19,1-1.21,2.87-1.12,3.58-2.6Z" style="fill:#f1e5e6"/><path d="M20.93,1.74a28.58,28.58,0,0,1,13.36,5,2,2,0,0,0,2.25.07,21.88,21.88,0,0,1,13.34-.56,2.57,2.57,0,0,0,2.38-.45,30.06,30.06,0,0,1,11.3-4.3c1.14-.19,1.32,0,1.47,1.06a29.43,29.43,0,0,1-1.12,14.18,26.92,26.92,0,0,0-1.25,9.11c0,8.94-10.31,19.29-19.17,18.73-10-.62-19-5.78-19.93-17C23,21,20.3,14.84,20.27,8.2A47,47,0,0,1,20.93,1.74ZM26.87,23.5C28,25,29.54,25.2,31.18,25.05c2.24-.21,4.49-.5,6.45,1.08.4.33,1,.61,1.41,0s-.17-1-.56-1.36a6.1,6.1,0,0,0-5.16-1.81A31.28,31.28,0,0,1,26.87,23.5ZM59.3,15.42C62,13.2,62.11,10.5,61.87,7.73c-.08-.94-.4-2-1.63-1.69A11.17,11.17,0,0,0,56,7.63c-1,.72-1.43,1.47-.28,2.6A12.68,12.68,0,0,1,59.3,15.42Zm-8.39,19.1c-1.38,2.07-3,2.21-4.85,1.51a2.65,2.65,0,0,0-2.8.53c-1.92,1.68-3.74,1.44-5.48-.47,0,2.36,1.95,3.94,3.84,2.83a10.39,10.39,0,0,1,7-1.14C50.29,38,51.51,37.05,50.91,34.52Zm-24.42-19c1.66-2,2.33-4.14,4.06-5.5.7-.55.43-1.08,0-1.58a8.2,8.2,0,0,0-3.1-2.08C25.71,5.73,24.77,6,24.36,8,23.77,10.82,25.15,13,26.49,15.54ZM45.09,28c-1.26.17-3.33,0-3.46,1.58C41.47,31.27,44.05,31,45,32.08c1-1.13,3.44-.71,3.44-2.47S46.57,28.11,45.09,28Zm5.12-2.2c2-1.24,4.24-1.26,6.49-1.25,2.55,0,3.47-.61,4.4-2.92C57.89,24.21,52.61,21,50.21,25.76Z" style="fill:#f1e5e6"/><path d="M35.18,92.91c-3.83-1.11-6.48-.16-8.09,2.86-.21.41-.57.8-.1,1.18s.75,0,1-.41a11.57,11.57,0,0,1,1.83-2,3.85,3.85,0,0,1,4.81-.07,6.11,6.11,0,0,1,2.32,5c0,.79-.78.93-1.31,1.2-3,1.56-6.35,2-9.66,2.32a3.86,3.86,0,0,1-4.24-3.07c-1.23-4.24-1.85-8.61-3.11-12.86-1-3.46.34-5.53,3.28-6.85,2.1-1,4.26,0,6.51,2.55a29.54,29.54,0,0,1,3.72,6.45c1-1.65-.23-2.76,0-4.06a31.44,31.44,0,0,1,3.27,7.55Z" style="fill:#f1e5e6"/><path d="M62.39,88c2.66,0,4.87,2.47,5.11,5.86.2,2.85-1.77,3.39-4,3.72-4.28.65-6,.08-6.84-2.32C55.5,91.87,58.46,88.09,62.39,88Z" style="fill:#f1e5e6"/><path d="M10.38,34.31C5.25,34,1.91,39.46,4.19,44.5a8.87,8.87,0,0,0,3.35,4.18c1.16.69,1.68,1.57,1,2.65-.78,1.26-1.79.18-2.58-.2C1.62,49,.22,42,3.15,37a9.87,9.87,0,0,1,6.21-4.91,5.21,5.21,0,0,1,2.36,0c.8.15,1.42.49,1.38,1.36-.06,1.05-.94.91-1.64.92A8,8,0,0,1,10.38,34.31Z" style="fill:#f1e5e6"/><path d="M49.05,82.14A6.55,6.55,0,0,1,52.28,76c.84-.52,1.65-.56,1.77.85a29.14,29.14,0,0,0,.61,3.72c1.15,5.32,1.16,5.3-3.85,6.46-.68.16-1.13,0-1.12-.65C49.71,84.84,48.81,83.43,49.05,82.14Z" style="fill:#f1e5e6"/><path d="M10.4,63.76c1.41,3.18.84,4.91-2.77,7.8,1-2.25,0-3.83-1.11-5.32-2.34-3.26-2.36-3.52.41-6.77,1.31,1.31.88,4.05,3.46,4.29Z" style="fill:#f1b8b2"/><path d="M20.4,58.93c-1.31-4.37-4.79-5.61-8.69-6.28.68-1.72,1.62-2.22,3.4-1.57C19.24,52.59,20.88,54.79,20.4,58.93Z" style="fill:#f1e5e6"/><path d="M43.71,49.14c-4.59-1.43-8.88-1.76-11.52-5.55C36,44.84,40,45.83,43.71,49.14Z" style="fill:#f1b8b2"/><path d="M14.67,63.83c-.16-1.2-.15-1.22-1.3-1.89A4.2,4.2,0,0,1,11,59.23c-.08-.36.07-.93.43-.8,1.33.45,3,.47,3.89,1.59,1.28,1.54,2.15,3.35.94,5.69-.71-.56,0-2.37-1.54-1.87Z" style="fill:#f1b8b2"/><path d="M49.69,89.64c2-1.58,3.73-3,5.38-1.77,2.36,1.68-1,3.18-.43,5.52C53.19,91.5,52.17,90,49.69,89.64Z" style="fill:#f1e5e6"/><path d="M48.18,47.62c2-2,3.82-4.07,6.66-5.4,0,1.86-1.47,2.44-2.34,3.41-.49.56-1.8.58-1.23,1.84v0c-1.13-.94-1.77.54-2.7.54Z" style="fill:#f1b8b2"/><path d="M41.76,45.92H47.7C45.7,49.22,45.59,49.22,41.76,45.92Z" style="fill:#f1e5e6"/><path d="M46.87,53.45c-.73-.65-3.15,1-2.33-1.6A1.54,1.54,0,0,1,46.76,51c1.43.7.35,1.6.13,2.42Z" style="fill:#b2456a"/><path d="M11.05,48c-.45.58-.12,1.19-.09,1.79,1,.27.91-1.26,2.07-1-.59,1.66-1.95,2.48-3.19,3.48.7-1.36-1.27-3.38,1.17-4.26Z" style="fill:#f1b8b2"/><path d="M46.89,53.43c.41.34,1.26-.18,1.37.44s-.36,1.2-1.18.85-2,1.94-2.67-.29c.59-.92,2,.27,2.46-1Z" style="fill:#b2456a"/><path d="M48.56,48c-.23.38-.49.66-1,.3l.57-.71C48.3,47.76,48.43,47.9,48.56,48Z" style="fill:#f1b8b2"/><path d="M35.45,92.68l.33.28c-.22.22-.41.17-.6,0Z" style="fill:#f1e5e6"/><path d="M26.87,23.5a31.28,31.28,0,0,0,6.45-.57,6.1,6.1,0,0,1,5.16,1.81c.39.37.91.77.56,1.36s-1,.36-1.41,0c-2-1.58-4.21-1.29-6.45-1.08C29.54,25.2,28,25,26.87,23.5Z" style="fill:#553f3d"/><path d="M59.3,15.42a12.68,12.68,0,0,0-3.61-5.19C54.54,9.1,55,8.35,56,7.63A11.17,11.17,0,0,1,60.24,6c1.23-.27,1.55.75,1.63,1.69C62.11,10.5,62,13.2,59.3,15.42Zm.5-2c.84-1.36,1.44-2.58,1.2-4-.13-.76.71-2.07-.66-2.18a4.34,4.34,0,0,0-3.72,1.2c-.94,1.06.38,1.55.8,2.18A27,27,0,0,0,59.8,13.44Z" style="fill:#553f3d"/><path d="M50.91,34.52c.6,2.53-.62,3.46-2.28,3.26a10.39,10.39,0,0,0-7,1.14c-1.89,1.11-3.81-.47-3.84-2.83,1.74,1.91,3.56,2.15,5.48.47a2.65,2.65,0,0,1,2.8-.53C47.92,36.73,49.53,36.59,50.91,34.52Z" style="fill:#553f3d"/><path d="M26.49,15.54C25.15,13,23.77,10.82,24.36,8c.41-2,1.35-2.25,3.05-1.6a8.2,8.2,0,0,1,3.1,2.08c.47.5.74,1,0,1.58C28.82,11.4,28.15,13.56,26.49,15.54Zm.13-2c.85-1.22,1.41-2.12,2.07-2.94.49-.62,1.33-1.05.38-2A3.55,3.55,0,0,0,26,7.26c-1.14.2-.74,1.26-.8,2C25.05,10.7,25.93,11.8,26.62,13.49Z" style="fill:#553f3d"/><path d="M45.09,28c1.48.15,3.38-.06,3.39,1.65S46,31,45,32.08c-1-1.13-3.57-.81-3.41-2.54C41.76,28,43.83,28.13,45.09,28Z" style="fill:#553f3d"/><path d="M50.21,25.76c2.4-4.74,7.68-1.55,10.89-4.17-.93,2.31-1.85,2.93-4.4,2.92C54.45,24.5,52.24,24.52,50.21,25.76Z" style="fill:#422b29"/><path d="M59.8,13.44a27,27,0,0,1-2.38-2.78c-.42-.63-1.74-1.12-.8-2.18a4.34,4.34,0,0,1,3.72-1.2c1.37.11.53,1.42.66,2.18C61.24,10.86,60.64,12.08,59.8,13.44Z" style="fill:#f1b8b2"/><path d="M26.62,13.49c-.69-1.69-1.57-2.79-1.46-4.22.06-.75-.34-1.81.8-2a3.55,3.55,0,0,1,3.11,1.32c.95.92.11,1.35-.38,2C28,11.37,27.47,12.27,26.62,13.49Z" style="fill:#f1b8b2"/></g></g></svg>