<?xml version="1.0" standalone="no"?>
<svg xmlns="http://www.w3.org/2000/svg" id="svg" width="800" height="1200" viewBox="0 0 800 1200">
          <defs id="svgDefs"><style id="svgStyle">.skins0 {fill:none; stroke:#000;} .skins1,.skins2,.ears0,.ears1,.ears2 {fill:none;}.skins0{fill: #ebe3e0} .skins1{fill: none} .skins2{fill: none} .ears0{fill: #d3e1e9} .ears1{fill: none} .ears2{fill: none} .eyes0{fill: #61585c} .eyes1{fill: none} .eyes2{fill: none} </style></defs>
          <g id="humanoid" class="skin"> <g id="skin"> <path class="skins0" stroke="#614d4b" stroke-miterlimit="10" stroke-width="2px" d="M198.53,258.31c-1.37.47-1.78,1.71-2.56,2.57-11.19,12.44-19.46,26.72-26.31,41.9-7.51,16.67-13.88,33.8-20.54,50.82C145.05,364,139,373.3,132.24,382.19c-8.68,11.44-18.23,22.16-27.18,33.37a285.7,285.7,0,0,0-21.64,30.17c-4.94,8.16-7.16,17.3-9.55,26.39-1.52,5.81-1.86,11.8-3.05,17.65-1.68,8.27-6.49,15-11,21.83-.56.86-1.2,1.67-1.76,2.53-1.71,2.63-3.2,2.78-5,.17a15,15,0,0,1-1.87-13.92,15.18,15.18,0,0,1,2.08-4.09,13.28,13.28,0,0,0,2.17-3.76c.62-2,1.17-4.3-.55-6-1.3-1.29-6-.21-7.23,1.47a49.54,49.54,0,0,1-9.44,9,57.84,57.84,0,0,0-12.15,13.36c-3.55,5.16-8,9.61-14,12a19.51,19.51,0,0,1-9.34,1c-2.15-.21-2-1.76-1.25-3.24a37.39,37.39,0,0,1,5.27-7.23,94.58,94.58,0,0,0,10.63-13.46c2.35-3.82,3.62-8.3,5.93-12.16,4.37-7.3,7.84-15.21,13.82-21.48a84.74,84.74,0,0,1,10.62-9.24c6.72-5,11.48-11.65,15.82-18.62,7.86-12.58,13.94-26,19.3-39.83,4.7-12.1,8.8-24.44,13.91-36.36,3.85-9,7.71-18.13,13.86-25.91,2.8-3.53,6.22-6.56,9.15-10a110,110,0,0,0,16.77-26.8c6.05-13.57,11.33-27.48,17.75-40.87,5.29-11,9.65-22.43,15.46-33.18,3.67-6.8,7.7-13.27,13.08-18.89a21.8,21.8,0,0,1,16.51-6.88c9.54.05,18.65-1.62,27.19-6,5.67-2.89,10.23-6.74,11.88-13.29.76-3,.42-4.21-2.52-5.44-7.44-3.14-14.19-7.5-20.8-12-9.06-6.22-14.65-15.11-18.39-25.26-2.94-8-3.93-16.34-4.59-24.78-1.08-13.71-1.76-27.45-1.9-41.19-.16-15.18,4.6-28.78,14.62-40.22C213.71,21,224.51,14,237.82,11.13c7.21-1.53,14.46-.51,21.68-.84a39.51,39.51,0,0,1,16.24,2.94c15.55,6.09,26.91,16.7,34.42,31.65,3.1,6.17,4.31,12.7,5.09,19.42,1.29,11.11.23,22.18-.63,33.25a48.64,48.64,0,0,0-.3,5.11A120.18,120.18,0,0,1,312.63,124c-1.83,12-6.23,23-14.52,32.19-5.49,6.07-12.69,9.76-19.48,14a57.79,57.79,0,0,1-8.71,4.31,3.49,3.49,0,0,0-2.34,3.81c.25,6.36,4.09,10.45,9.1,13.39a52.58,52.58,0,0,0,27.57,7.4A30.51,30.51,0,0,1,317,201.49a16.44,16.44,0,0,1,4.59,3.19c7.59,7.07,12.67,15.86,17,25.09,6,12.74,12.3,25.37,17.59,38.41s11,25.75,16.87,38.42A63.53,63.53,0,0,0,386.34,326c8.61,8.2,14.48,18,19.58,28.53,5.87,12.1,10.14,24.81,14.81,37.36,6.48,17.42,14,34.31,24.07,50a59,59,0,0,0,15.5,16.54c7.85,5.55,13.51,12.83,18,21.26,3.22,6,6.57,11.94,9.31,18.21,1.93,4.4,5.46,7.82,8.51,11.5,2.83,3.41,6,6.58,8.19,10.48.44.79,1.26,1.56.69,2.57s-1.82,1-2.94,1.11c-9.07.74-15.69-4.14-20.32-10.79a99.27,99.27,0,0,0-18.11-19.33,43.42,43.42,0,0,1-4.91-4.87,6.11,6.11,0,0,0-3.88-2.18c-3.92-.65-5.17.57-4.6,4.61.35,2.47,1.88,4.36,3.07,6.42a15.4,15.4,0,0,1,.32,15.79,7.89,7.89,0,0,1-2.19,2.48,1.73,1.73,0,0,1-2.83-.41c-6.24-9.08-13-18-14.19-29.41a118.53,118.53,0,0,0-2.95-16.36c-2.68-10.84-6.61-21.11-13-30.43-11.69-17-25.19-32.56-38.17-48.53-9.08-11.17-17.72-22.62-23.14-36.11-4.86-12.13-9.36-24.41-14.34-36.49-5.76-14-11.83-27.79-20.24-40.5a180.39,180.39,0,0,0-13.86-18c-.32-.37-.5-.92-1.05-.93,0,2.7-.1,5.41,0,8.1.41,9-3.91,15.52-11,20.42a6.6,6.6,0,0,0-3,5c-.53,3.78-1.48,7.51-2.11,11.28-.69,4.12-1.62,8.25-1.75,12.4-.36,11-2.35,22-.31,33,.47,2.51,0,5.1.5,7.65,1.71,8.88,6.47,16.37,11.23,23.7a373.26,373.26,0,0,1,27.38,49.21,276,276,0,0,1,13.14,34.95c5.54,18.65,7.09,37.71,6.17,57-.34,7.21-1.85,14.35-3.08,21.49-2,11.35-5.87,22.21-7.8,33.59-1.65,9.7-3.55,19.41-6.14,29-1.62,6-2.3,12.22-3.41,18.34-1.71,9.38-3.35,18.78-5.16,28.15-.78,4-1.83,8-2.92,11.92-1.56,5.67-2.32,11.52-3.71,17.22-1,4.06-2.05,8.08-3,12.16-1.14,5.2-1.42,10.48-2,15.72a98.69,98.69,0,0,0,.33,25.75c1.16,8.11,2.83,16.1,4.3,24.15,3.46,19.06,6.74,38.19,6,57.67-.43,11.51-1.3,23-2.8,34.45s-2.85,23-4.39,34.51c-1.12,8.28-2.71,16.51-3.62,24.82-1.35,12.31-2.1,24.68-1,37.08a111.62,111.62,0,0,1,.58,14.85c-.38,8.41,1.56,16.65,1.78,25,.08,3.12,1.35,6.31,2.71,9.28a79,79,0,0,1,6.54,21.45c1.87,12.4-3.36,19.93-15,24.74-1.66.68-3.27,1.44-4.92,2.13-7.13,3-14.49,4.76-22.07,1.94-7.13-2.65-12.84-10.88-13.16-19.25-.35-9,1.85-17.62,5-26,2.39-6.38,4.21-12.76,3.8-19.67-.25-4.09-.07-8.21-.13-12.31s.9-8,1.83-11.84a114,114,0,0,0,2.28-13.61,217.5,217.5,0,0,0,1.54-30.4,303.62,303.62,0,0,0-2.77-31.86c-1.24-9.49-3.29-18.81-5-28.19s-3.55-18.58-5.23-27.89c-1.53-8.49-2.8-17-3.58-25.58-1.24-13.6-2-27.23-.61-40.94.75-7.28,1.22-14.65,2.14-21.89a142.17,142.17,0,0,0,1.21-23.75c-.59-15.28-1.47-30.54-1.72-45.84-.17-10.22-1-20.46-1.56-30.68-.49-8.92-.59-17.92-2.1-26.8-.69-4-.18-8.17-.68-12.27-1-8.29-2-16.58-3.33-24.84-.81-5-1.29-10-1.65-15-.51-7-1.56-13.93-1.21-21a162.75,162.75,0,0,1,2-19.33,96.84,96.84,0,0,1,5.65-21.18c.63-1.51.23-2.15-1.44-1.66a26.73,26.73,0,0,1-15.12,0c-1.51-.42-1.8,0-1.23,1.53a122.05,122.05,0,0,1,7.48,48.23c-.36,8.86-1.5,17.69-2.63,26.49-1.48,11.5-3.27,23-4,34.55-.9,14.65-2,29.29-2.65,44-.72,16.63-2,33.24-2,49.91,0,5.26-.74,10.54-1,15.84-.39,9.27.86,18.39,1.88,27.54,1.27,11.36,2.46,22.72,2.3,34.19a328.71,328.71,0,0,1-2.81,35.18c-1.13,9.33-3.1,18.49-4.51,27.76-.78,5.12-2.19,10.14-3.17,15.24-1.21,6.19-2.11,12.44-3.42,18.6-2.16,10.14-2.68,20.47-3.72,30.72a150.5,150.5,0,0,0,0,24.85c.25,3.83,1,7.64,1.11,11.47a95.54,95.54,0,0,0,3,18.92,56.16,56.16,0,0,1,1.32,13.46c0,1.45.07,2.92-.07,4.36-.89,9.07,1.33,17.53,4.5,26,3.23,8.59,5.07,17.51,3.78,26.85-1.06,7.7-7.74,14.78-15.29,16.75-6.91,1.8-13.17-.07-19.36-2.52-2.51-1-5-2-7.49-3.24-10.44-5.07-14.67-13.55-12.18-25.51a116.18,116.18,0,0,1,6.94-21.62,29.38,29.38,0,0,0,2.15-8.94c1-11.4,1.6-22.83,2-34.26.22-5.72.6-11.43.57-17.16a241.85,241.85,0,0,0-2.7-33.14q-2.52-17.35-4.69-34.75c-1.08-8.55-2.5-17-3.2-25.65-1-12.35-2.52-24.69-1.6-37.09.52-7.13,1.08-14.28,2.09-21.41,1.28-9,3.08-17.81,4.61-26.71,1.2-7.06,2.89-14,3.58-21.18.53-5.41,2-10.8,1.23-16.29-1.23-8.43-1.11-17-3.19-25.35-2.77-11.07-4.95-22.28-7.58-33.39-2.28-9.63-3.72-19.41-5.69-29.1-2-10-3.53-20.12-6.1-30-1.94-7.49-3.13-15.19-4.49-22.82-1.55-8.65-3.85-17.11-6.13-25.58-1.7-6.35-2.57-12.86-3.68-19.33-1.65-9.59-1.72-19.24-1.38-28.87A159.93,159.93,0,0,1,166.12,458a329,329,0,0,1,29-62.65c5.07-8.62,10.8-16.8,15.66-25.56,3.77-6.77,5.4-13.85,6.05-21.42a151.75,151.75,0,0,0-.17-26.11,185.63,185.63,0,0,0-3.12-23.55c-.65-3-1.12-6-1.77-9a3.17,3.17,0,0,0-1.43-2.27c-10.1-6.27-13.77-15.37-11.81-26.94.1-.59.15-1.19.21-1.78C198.73,258.67,198.66,258.59,198.53,258.31Z"/> </g> <g id="clothes"> <path fill="#57423f" d="M368,259.73a44.51,44.51,0,0,1-1.74-8.25c-1.41-11.7-2.81-23.39-7.13-34.49a33.78,33.78,0,0,1-1.38-21.3c3.89-15.74-.37-24.26-14.7-33-1.76-1.08-.92-1.89-.59-2.89A62.2,62.2,0,0,0,345,146.17c1.62-17.71-.84-35-5.28-52.09-4.58-17.55-10.93-34.37-23.22-48.32-1.3-1.46-3.6-1.42-4.18-3.34-1.09-3.63-4.36-5.22-6.72-7.7C299.45,28.29,292,23.3,286.45,16.15a21.36,21.36,0,0,0-7.94-6.65c-4.23-1.95-8.69-3.13-12.93-5h-7.36c-2.2,1.86-4.34,2.05-7.35,1.4a31.92,31.92,0,0,0-24.17,4.51c-9.26,5.82-16.83,13.82-24.6,21.39-8.31,8.09-15.59,17.28-20.66,27.8-16.26,33.76-19.46,68.7-8.74,104.92a5.81,5.81,0,0,1-.8.29c-12.76,3.13-21.68,11.28-28.68,21.94-5.64,8.58-5.1,17.51-2.16,26.88,2.26,7.21.5,13.71-4.65,19.58A46.2,46.2,0,0,0,127,251.5c-2.19,7.84.48,16.4,6.28,20.46,2.67,1.86,3.92.56,4.64-1.87.16-.55-1-1.28.75-1.19,1.57.08,2.88-.38,3.77,1.57a3.32,3.32,0,0,0,3.27,2.07c1.78-.32,1.24-2.07,1.41-3.36a21.48,21.48,0,0,1,6.7-13.52c.43-.39.78-1.12,1.31-1.34a1.92,1.92,0,0,1,.74-1.11,2.88,2.88,0,0,1,1.44-1.44,1.72,1.72,0,0,1,.4-.31,1.92,1.92,0,0,1,.37-.15c.34-.7.69-1.4,1-2.1s.79-1.7,1.22-2.52a19.9,19.9,0,0,0,1-1.79c.45-1.13.76-2.34,1.23-3.37,2.29-14.25,5.25-28.21,14.91-39.61,5.12-6,8.24-13,8.11-21.17-.05-2.68,1.41-2.32,3.15-2,9.4,1.75,18.84,2.52,28.35.85,4.94-.87,9.78-1.83,13.36-6a2.91,2.91,0,0,1,.54-.48,1.28,1.28,0,0,1,.11-.24,2.19,2.19,0,0,1,.25-.37v0c0-.3,0-.6,0-.9a7.12,7.12,0,0,1,.09-1.46c0-.18.07-.34.11-.51l-.07-.09a.83.83,0,0,1-.09-.16l-.18-.43a.31.31,0,0,0-.05-.1,2,2,0,0,1-.21-.57c-6.14-3-12-6.47-17-11.49-1-1-2-1.89-2.9-2.88-4.25-4.53-7-9.5-5.93-16.12.63-3.73-.48-8,1-11.29,1.62-3.58,6.65-1.69,10-3.24,5.5-2.57,11.37-2.16,17.16-.63.91.24,1.83.43,2.76.61.67.13,1.43.21,1.67-.64s-.55-1.1-1.1-1.45c-6.78-4.31-14-4.75-21.5-2.4-1.68.52-3.47.69-5.12,1.28-3.65,1.31-4.31,0-3.92-3.53a102.92,102.92,0,0,1,4.82-21.74c.67-2,.9-3.65,3.95-1.88,6.75,3.91,14,6,21.6,2a2.4,2.4,0,0,1,2.31,0c4.32,2,8.23.73,11.92-1.62,1.35-.85,2.31-1.31,4-.38,4,2.23,8.23,3.72,12.73,1.12a2.31,2.31,0,0,1,1.94,0c10.43,3.07,14.4,2.53,24.49-3.41,3.66,8.93,2.87,18.32,4.26,27.36.26,1.74-.66,1.78-1.92,1.53-3.06-.6-6.14-1.17-9.2-1.78a22.09,22.09,0,0,0-17.16,3.2c-.69.45-2.09.67-1.43,2s1.47,1.14,2.7.56c8.75-4.11,17.26-1.07,25.8,1,1.51.37,1.39,1.31,1.54,2.4.66,4.56,1.25,9.18,3.24,13.39,1,2-.1,3.41-.89,4.89-5,9.44-12.68,16.32-22,21.15l-.31.16a1.41,1.41,0,0,1-.18.45l-.05,0-.33.43,0,0-.1.12a.24.24,0,0,0-.08.06c-.18,1-.57,2-.77,3.07v.08c.05.21.11.42.17.62s.1.47.17.7a2.25,2.25,0,0,1,.15.66c3.92,4.74,9.74,5.51,15.14,5.91,10.12.77,20.36,1,30.6-3.34-.65,6-2.47,11.46-1.91,17.17.51,5.31,1.95,10.41,3.06,15.81a11.3,11.3,0,0,1,1.12,3.22,15.37,15.37,0,0,0,.54,2.15,28.61,28.61,0,0,0,1.56,2.81c1.15,2.14,2.22,4.33,3.28,6.52s2.25,4,3.21,6,1.44,4.15,2.48,6.11a34.84,34.84,0,0,0,1.88,2.94,23.77,23.77,0,0,1,1.41,2.69c2.89,5.78,5.94,12,7.11,18.46a1.61,1.61,0,0,1,.21.3v0h0s.09.23.15.36a1.31,1.31,0,0,1,.12.11,24.31,24.31,0,0,1,2,2.77c.31.48.6,1,.94,1.43.08.1.18.2.27.3a2.19,2.19,0,0,1,.63.36,4,4,0,0,1,.77-.29s0-.07,0-.1l.15-.34c0-.1,0-.2,0-.3a2,2,0,0,1,.27-1l.31-.4a1.8,1.8,0,0,1,.42-.32,10.71,10.71,0,0,1,.63-5.93c.49,2.63.09,5.57,2.81,6.87,1.75.84,2.28-1.14,2.78-2.26,1.35.43,1.22,1.45,1.65,2.1,1.47,2.23,3.13,2.35,5.55,1.33S368.63,261.8,368,259.73ZM181.25,186.32a44.68,44.68,0,0,1-7.87,14.13c-8.21,9.79-11.72,21.53-14.14,33.75-1.46,7.42-4.11,14.24-9.33,20a18.4,18.4,0,0,0-4.41,15.69c-2.88-.89-2.49-2.8-2.62-4.51-.09-1.09.61-2.77-1.2-3-1.49-.16-1.17,1.57-1.73,2.41-.27.4-.37.92-1.16,1.33,0-2.63,0-5.25,0-7.88,0-1.13-.27-2.33-1.71-2.3-1.15,0-1.29,1.13-1.56,2.08a23.83,23.83,0,0,0,0,12.57c-5.17-3.18-7.71-10.77-6-16.9a53.52,53.52,0,0,1,10.34-19.69c5.39-6.55,7.18-13.91,4.19-21.68-7.3-19,7.29-33,18.77-40.71a10.4,10.4,0,0,1,1.45-.74c4-1.83,8.21-5.28,12.31-1.24C181.07,174.14,183.63,179.55,181.25,186.32ZM323.5,170.73c-3.34,3.6-8.51,4.43-13.17,4.6-7.44.27-15,1-22.37-.67-2.89-.64-6.95-.88-7.55-3.82s3.58-3.87,5.84-5.11a43,43,0,0,0,16.82-16.15c1.06-1.81,1.67-2,3.19-.28s3,5,5.08,3.55c1.45-1-1.44-3.76-2.51-5.63a63.9,63.9,0,0,1-7.15-19.39c-.39-2,.24-3.27,2.52-3,2.76.29,5.4-.4,8.07-.87,7.74-1.36,12.54-6.9,13.26-15.73L320.11,114c-4.64,5-10.48,6.39-17.06,5.89-2.53-.2-2.14-1.81-2.32-3.42-.81-7.39-1-14.91-3.22-22a23.23,23.23,0,0,1-.4-12.22c.8-3.83-.77-7.9-1.93-11.84a65.88,65.88,0,0,0-15.27-26.56,20.3,20.3,0,0,0-1.76-1.71c-.89-.77-2-1.19-3-.38-1.16,1-.16,1.92.52,2.77,3.89,4.88,8,9.57,10.62,15.36,3.24,7.23,6,14.57,6.25,22.61.1,3-1.23,5-3.82,6.65a23.05,23.05,0,0,1-15.08,3.77c-2.6-.25-4.07-.5-2.58-3.87,3.36-7.54,2.24-15.53.79-23.24a121.66,121.66,0,0,0-12.31-34c-.52-1-.85-2.92-2.33-2.23s-.19,2.28.23,3.23a171.32,171.32,0,0,1,10.09,28.8,71.63,71.63,0,0,1,2.1,20.57c-.44,8.27-6.33,11.69-13.46,7.51-2.61-1.53-4.29-1.37-6.94,0-6.49,3.38-11.72,2.09-12.37-6.45-1.19-15.43,4-29.33,9.73-43.11,1.54-3.71,3.52-7.24,5.79-11.85-3.16,1.27-3.88,3.29-4.75,4.88-6.65,12.1-12.12,24.75-14.43,38.38-1,6.14-1.64,12.78,1.28,18.87,1,2.11.38,3-1.83,3.27a22.3,22.3,0,0,1-17.16-4.84C212,86,213,81.91,213.67,78.18c2.09-12.25,7.61-22.84,15.76-32.13.82-.94,2.61-2,1.28-3.35s-2.75-.16-3.82,1c-7.44,7.76-13.23,16.55-16.06,27-1.57,5.81-4.07,11.69-.7,17.74.61,1.1-.44,1.74-.78,2.57-3.57,8.7-6.37,17.61-6.71,27.09-.13,3.48-2.5,2.75-4.32,2.52-7-.87-12.58-4-16.15-10.32-.17-.3-.57-.46-.91-.72-1.24,6.25,2.92,11.64,8.58,13.66,3,1.08,6.21.39,9.23,1.45,1.62.58,2.7,1.09,2.71,2.94,0,7.73.18,15.46-1.38,23.12a24.31,24.31,0,0,1-3.53,7.72c-.47.76-1.28,1.8-.37,2.58s1.64-.41,2.3-1c2.47-2.05,3.53-5,5.15-8.3,5.92,8.59,14.22,13.62,22.78,18.37,2,1.09.8,2.15-.54,3a24.55,24.55,0,0,1-8.84,3c-9.87,1.69-19.67.69-29.41-1.3-.77-.16-2-.33-2.18-.78-2-6-8.25-9.08-10.09-15.41a119.28,119.28,0,0,1-4.74-36.54,159.39,159.39,0,0,1,4.42-34.17c3.51-14.11,8-27.76,16.83-39.38,9-11.77,19.83-21.78,31.24-31.25,8.81-7.32,18.5-9,29.29-7.12,1.08.18,2.27.33,3.12-.52,3-3,6.77-2.31,10-1.47a39.4,39.4,0,0,1,20.62,13A138.29,138.29,0,0,0,306,39.44c.43.33,1.15.48,1.33.9,3.82,8.64,12.26,13.89,16.18,22.57a192.08,192.08,0,0,1,15,50.12c1.4,9.06,1.45,18.11,1.57,27.2.07,5.75-1.19,11.3-1.91,16.94-.54,4.31-3.79,6-6.86,7.9C328.52,166.76,325.83,168.22,323.5,170.73Zm40.73,91.83c-1.66.69-2.19-.95-2.47-2-1.15-4.36-2.86-3.32-4.8-.42-1.74-2.46-1.37-5-1.41-7.57,0-1.38.07-3-1.71-3.23s-2,1.47-2.32,2.75c-.4,1.71-.66,3.45-1.1,5.84-1.36-3.36-2.7-5.93-3.34-9a101.83,101.83,0,0,0-14.4-34.73c-6.26-9.74-8.39-20.54-6.9-32.32.8-6.35,3.1-10.55,8.62-13.59,5.22-2.88,7.51-2.69,12.31,1.15,7.68,6.16,7.86,14.37,6.87,23-.43,3.76-1.91,7.31-2.17,11.14-.46,6.68,2.3,12.59,4.66,18.41,3.51,8.65,5.23,17.64,6.8,26.71.62,3.58,2.07,7,2,10.71C364.89,260.59,365.7,262,364.23,262.56Z"/> <path fill="#8f6f67" d="M174.11,439c1.14-7.57.48-15.73,7.76-21.36-7-1.55-12.39,3.4-11.26,9.44,1.08,5.76-2.76,10.86-8.33,11-4.48.17-6.06,1.78-6.29,6.44-.24,4.9.83,6.28,5.45,7-2.08,2-3.5,2.11-5.44.09-3.31-3.44-2.63-7.44-1.29-11.39,1.14-3.36,3.55-4.76,7.2-4.66,4,.12,7.36-3.58,6.15-7.18-1.89-5.63.18-9.16,4.85-11.83-3.65-4.37-2.65-7.82,2.62-9.48,4.69-1.49,8.4-.19,11.54,4,.05,1.72.12,3.43,2.23,4A11.71,11.71,0,0,0,194,420.6c10.45,6.6,22,10.2,34.45,12.53a27.51,27.51,0,0,1-1.09-2.93c-.26-1-.84-2.19,0-3.11s1.66.53,2.45.5c4.56-.15,9.6,3.05,13.51-2,.83-1.06,2.22-.9,3.25.13.63.63.92,1.61,2.25,1.1,3.35-1.3,6.37,3.64,9.94.64.13-.11,1,.73,1.58,1.06,2.23,1.28,4.33,2.05,6.56-.24,1.2-1.22,3.06-2.64,4.7-1.39,2.36,1.82,4.42,1.56,7,.72,2-.66,4,.28,3.73,2.84-.33,2.88,1.23,3,3.15,2.56,8.05-1.94,16.1-4,23.36-8.11,3.37-1.92,7.1-3.54,9.07-7.26,2.74-.28,1.08-2.78,2-4a13.71,13.71,0,0,1,9.36-9.41A5.13,5.13,0,0,1,335.1,406c1.64,1.89.77,3.82-.4,5.62-2,3-4.95,4.81-8,6.88a50.62,50.62,0,0,0,5.08,0c8.7-.91,12.45,7.72,11.3,13.78-.3,1.6-.66,3.18-1.07,4.75-.91,3.45-.39,6.72,2.43,8.88s6.12,1.75,9.16-.1c.44-.27.92-.49,1.47-.77-1.16,3.6-3.51,4.91-8.05,4.58a8.64,8.64,0,0,1-7.84-7.53,22.76,22.76,0,0,1,.62-8.06c2-7.83-1.62-14.57-11.7-11.78,1.85,2.35,4.1,4.27,5.39,7,2.23,4.73.74,9.26-.16,13.86a8.74,8.74,0,0,0-2.32,5.22,35.64,35.64,0,0,0-5.28,10.9c-1.88,6.21-.32,9.44,5.58,12a15.53,15.53,0,0,1,4.93,2.78c3.49,3.36,2.64,9.87-2,12.31.39-1,.66-1.71.94-2.42,2.33-5.9,1.43-8-4.42-10.16-8.45-3.18-10.54-7.48-7.55-16.1.92-2.68,2.41-5.15,3.49-7.78.91-2.22,2.7-4.13,2.56-6.75,1.87-1.25,1.63-3.24,1.8-5.09,2.08-5.06-.22-8.77-3.65-12.2-.92.95-.26,1.94-.44,2.84L326,435c-2.32,2.82-4.93,5.68-8.89,3.63-5.75-3-4.28-8.1-2.47-13.37a80.27,80.27,0,0,1-28.76,10.5c-3.44.53-4.58,2-3.67,5.44,1,3.73.62,7.54.12,11.34-1,8-3.64,15.56-6.19,23.14a19.51,19.51,0,0,1-1.69,3.85c-1.72,2.79-4,5.28-4.67,8.66l.05-.08a3.26,3.26,0,0,0-2.56,3.53l-1.6,2.22c-1.44-1.66-1.59,1.23-2.7.76-7.06,4.11-14,3.67-20.87-.47l-1-1.26a57.57,57.57,0,0,1-10.16-14.12,89.54,89.54,0,0,1-3.54-10.32,62.19,62.19,0,0,1-.39-29.89c.42-1.73.4-2.93-1.85-3.36a96.53,96.53,0,0,1-32.81-12.54c-1.72,5.49-1.71,5.51-8.73,8.25-.8.31-.61.76-.53,1.22.41,2.33-1.1,3.08-2.91,3.66-3.21,1-2.1,3.4-1.34,5.33.46,1.2,1.67,2.11,2.53,3.17a10.7,10.7,0,0,1,1.78,11.43c-1.75,4.19-5.4,6-9.74,6.06-1.84,0-3,.9-4.33,1.76-.32-1.39.45-2.47,1-3.59,1.2-.16,2.4-.36,3.6-.46,4.78-.4,7.47-2.42,8.29-6.28.75-3.56-1.75-8.12-5.59-10.17A5.2,5.2,0,0,0,174.11,439Zm13.1-20.33c-.48-.73-1.14-2.23-1.93-1-1.43,2.22-3.53,4.62-1.29,7.58-.08,1.1-.06,2.29,1.19,2.65s2-.8,2.41-1.66C188.86,423.65,189.82,421,187.21,418.63Zm136.61,11.18c1.78-3.52-.52-5.92-2.51-8.21-.75-.86-.69.61-1,1-2.13,1.73-2.56,4.32-3.27,6.72-1.09,3.75,0,7.12,2.36,7,3.31-.21,4.25-2.79,4.45-5.7A7.32,7.32,0,0,0,323.82,429.81ZM266.5,485.62a4.74,4.74,0,0,0,2.21-2.32,75,75,0,0,0,9.08-25.17c.91-5.87,2.17-11.77,1.21-17.77-.18-1.12.16-3.1-2-3-2.47.14-1.49,2.17-1.61,3.46-.3,3.36.72,6.94-1.58,10.08-.38-.35-.71-.51-.72-.69-.08-2.3-.15-4.61-.16-6.93,0-5.3,0-5.15-5.32-5.26-2.74-.06-4.15.59-3.74,3.59.09.65.36,1.75-1.11,1.73-.95-1.6,0-4.17-3.33-4.7-7.21-1.15-10.87,1.95-12,9.11-1.52-3.68,1.19-6.26,1.2-9.38-2.61-.77-5.37.05-8-.83s-4.31-.16-4.64,3.16c-.39,3.89-1.45,7.72-2.22,11.57-1.45-4.56-.76-8.91.27-13.22.27-1.13.73-2.22-.91-2.51-1.24-.23-2.53-.22-3,1.3a11.88,11.88,0,0,0-.49,2.37,73.48,73.48,0,0,0-.17,17.85c1.24,9.89,3.84,19.15,9.81,27.26,2.13,2.89,4.45,5.62,8.55,7.49-2.78-4.91-5.19-9.18-4.33-14.3,1.59,3.78,2.76,7.68,4.92,11.15,2.83,4.54,6.71,5.29,11,2.21,2.41-1.73,3.69-4.31,5.15-6.76,1-1.64,1.53-1.4,1.78.37a9.38,9.38,0,0,0-.57.83,4.32,4.32,0,0,0,.4.3Zm-20.35-53.73c1.67,3.93,4.75,4,8,3.74,1.69-.12,3.55.48,4.67-1.56.43-.77,1.47-1.09,1.78.1.45,1.77,1.78,1.2,2.89,1.48,4.38,1.09,8.27-3.68,12.78-1,.22.13.73-.26,1.12-.4a1.78,1.78,0,0,0,1.23-2.25c-.27-1.43-1.25-.54-1.89-.48-3.93.42-8.07-2.34-11.91,1.39-1.1,1.07-3.7-1-5.49-1.84-1.29-.57-2.19-.88-3.23,0-2,1.76-3.65,1.4-5-.85-.36-.61-.92-.71-1.6-.91-4.32-1.33-8.21.26-12.09,1.67-1.46.53-2.56.56-3.71-.5a2.69,2.69,0,0,0-3.07-.34c-1,.45-.18,1.43-.16,2.16,0,1.82,1.54,1.93,2.65,1.63,3.39-.93,6.45.71,9.58,1.23C245.61,435.64,246.73,435.51,246.15,431.89ZM177.88,414.4a8.21,8.21,0,0,0,6-1.64c.52-.45-.25-1.49-.86-2.06-1.95-1.84-4.27-1.35-6.53-.93a4.5,4.5,0,0,0-1.77,1c-.63.47-1.47,1-1.35,1.88.14,1.13,1.28,1.31,2.12,1.59A10.6,10.6,0,0,0,177.88,414.4Zm144.75,1.42a16.63,16.63,0,0,0,8.6-5.42c.57-.67,1-1.5.54-2.17s-1.53-.59-2.25-.29C326.12,409.29,323.87,411.71,322.63,415.82ZM179.4,425.26c-.53,2.52-2.19,3.74-1.72,5.87C181.78,429.44,181.78,429.44,179.4,425.26Z"/> <path fill="#8f6f67" d="M311.27,262.71c0-.14,0-.27,0-.41-.28-.92-.72-1.81-1.07-2.72a2.66,2.66,0,0,1-.27-.76v0a4.7,4.7,0,0,1-.09-2.61c-.68-1.32-1.37-2.64-2-4-1-1.92-3-4.05-2.66-5.71.39-2,3.57-1.83,5.53-2.65,1.73-.72,1.94-1.54.4-2.9-1.79-1.6-5.35-.44-5.89-3.86a5.39,5.39,0,0,1-4.93,1.22,61.67,61.67,0,0,1-8.24-2.73c-7.27-2.51-14.78-2.41-21.95-1.87-5.77.43-10.19-1.76-15.24-3a18.64,18.64,0,0,0-10.62.06,144.47,144.47,0,0,1-14.67,3.74c-5.3,1.17-10.59,1.26-15.88,1.89a4.58,4.58,0,0,0-2.78,1.57c-2.26,2.42-4.15,4.9-8.44,3.92-1.8-.41-4.23,2.28-5.28,4.52-.79,1.67.87,2.83,2.07,3.53,1.88,1.08.54,1.82,0,2.71-.15,3.89-2.8,6.51-4.81,9.45,1.62.82.74,2.14.52,3.19-1.45,7,.37,13.13,4.87,18.59,3.39,4.11,7.93,6.48,12.67,8.58a3.15,3.15,0,0,1,2.56.65l.45.19.07,0,.15.1a2.51,2.51,0,0,0,.75.23c7.78,1.71,15.55,1.52,23.46.68,10.25-1.08,20.57-.65,30.87-.23,6.17.26,12.39.59,18.43-1.25a1.63,1.63,0,0,1,.51-.3,1.6,1.6,0,0,1,.65-.16l.24-.05a4.2,4.2,0,0,1,.62-.08l2.13-.64c6.12-2.06,11.07-5.58,14.38-11.26,3.12-5.36,3.3-11.29,3.61-17.21A2,2,0,0,1,311.27,262.71ZM305,242.88c-.86,1.24-2.12,1.13-3.38,1.38-1.78.36-1.23-2.42-2.57-1.81-3.11,1.43-5.7-.78-8.56-1-2.53-.16-3-1.67-2-3.79A70.37,70.37,0,0,1,305,242.88Zm-105.14,4.43a1.2,1.2,0,0,1,.65-2c5.72-.51,9.8-5.29,14.76-6.37s10.63-1.38,15.93-2.18a58.22,58.22,0,0,0,13.21-3.36c3.75-1.53,6.87-.53,10.39.22,4.49,1,8.74,2.39,13.72,2.11,6.55-.37,13.61-1.59,20,1.92-6.15,4.6-12.67.43-19,.51-3.85,0-7.83-.43-11.76-.54-2.66-.07-5.64.76-7.07-3.37-.21,3.53-2.21,3.3-4.27,3.41-7,.38-14.12.44-20.87,2.53a18.69,18.69,0,0,1-11.41-.35c-.16,1.71,1.62,1.41,1.84,2.8-4.17.31-7.09,4.88-11.94,3.26-.63-.21-1.41.37-.79,1.22.4.56,2.45.75.51,1.66C202.28,249.5,200.82,248.48,199.83,247.31Zm93,40.84a30.15,30.15,0,0,1-10.35,2.28,28,28,0,0,0,10.29-9.27c-9.26,6.3-18.9,11.14-30.74,8.42,2.89-3.94,7-7.48,7.55-13.49-2.37,1-2.76,3.08-3.63,4.54-7.09,11.78-13.73,10.36-22.87,2.87-1-.81-1.53-2.31-3.53-2.19,1,4.18,4,6.16,8.53,8.28-6,.57-11,1.7-15.77-.29s-9.16-4.61-13.76-7.05c1.65,5.05,6.67,6.14,10.73,8.69-13.49.45-28.89-4.57-30.69-19.85-1-8.35,5.67-20.26,13.49-23.41,9.94-4,20.35-5.24,31-6.09,18.64-1.48,36.77,1.16,54.87,5a5,5,0,0,1,4.25,3.67,88.33,88.33,0,0,1,4.33,15.24C308.6,278.09,300.83,284.72,292.85,288.15Z"/> <path fill="#8f6f67" d="M221.73,926.44l3.13,0c5.33,3.07,6,5.71,2.43,10.59-1.07,1.45-.77,2.14.31,3.37,3.94,4.45,3.93,6.93.37,11.75a5.49,5.49,0,0,0-.23,6.15c4.41,7.76,4.66,15.74,3,24.38-1,5.38,2.16,10.5,4.14,15.52a75.22,75.22,0,0,1,4.71,16.35c1.27,8.34-.23,16.25-3.14,24-2.38,6.3-11.59,10.46-19.9,9.81-9.3-.74-17.64-4.56-25.82-8.31s-11.81-11.71-9.11-22.85a32,32,0,0,1,2.93-8c8.28-14.84,10.92-30.81,10-47.57-.24-4.28.15-8.41-3.29-12.11a7.38,7.38,0,0,1-.23-10.09c.59-.72.94-1.3,0-2a1.59,1.59,0,0,1-.29-.29c-2.2-2.75-3-5.89-1.55-9.11s4.81-2.33,7.58-2.43a4.59,4.59,0,0,0,4.05,1.67C208,930.59,214.91,930.14,221.73,926.44ZM198,955.67c1.47,11.54-.18,28-3.06,38.68-2.12,7.84-6.3,14.73-9.21,22.19-3.08,7.89,1.38,17.82,9.45,20.11a57.25,57.25,0,0,1,9.83,3.88,28.27,28.27,0,0,0,16.66,2.81c5.38-.72,9.75-3.06,11.35-9a56.61,56.61,0,0,0,2.26-14.42c.05-7.18-2.05-13.88-4.75-20.49-2.94-7.2-5.35-14.63-3.27-22.54a20.24,20.24,0,0,0-.9-13.15c-1-2.39-2.09-4.73-1.78-7.45.14-1.26-.24-2.22-1.88-1.56-.63.26-1.39.42-1.68-.47s.39-1.26.88-1.69a49.37,49.37,0,0,0,4.09-3.36c1.76-1.85.87-5.75-1.63-7.91-2.21-1.9-3.86-.37-5.2,1.1-3.84,4.19-8.41,2.67-13.53,2.59,1.93-2.42,3.89-2.19,5.74-2.21,1.64,0,3.52.24,4.62-1.12,2.21-2.73,5.29-4.2,8.15-6,1.81-1.11,2.68-2.24,1.83-4.27-.92-2.21-2.78-2.09-4.48-1.42a30.05,30.05,0,0,1-26.31-1.45c-2.37-1.26-4.43.46-3.94,3.12a6.31,6.31,0,0,0,3.15,4.55c2.48,1.41,5,2.78,7.46,4.2.68.39,1.66.82,1.14,1.79a2,2,0,0,1-1.78.49c-1.71-.39-3.36-1-5.06-1.49-1.19-.32-2.43-.5-3.3.76a2.79,2.79,0,0,0-.18,3.06,23.85,23.85,0,0,0,3.7,5.81c4.51,5.06,10.38,5.29,16.48,5.1,1.15,0,3.27-1,3.25,1,0,1.56-2.08,1.27-3.41,1.34C207.78,958.61,202.93,958.42,198,955.67Z"/> <path fill="#8f6f67" d="M280.57,927.29l3.38.77c7.12,3.07,14.13,3.2,21-.83l4.12-.81c2.44-.31,4.82-.08,5.94,2.41a7.77,7.77,0,0,1-1,8.1c-1.21,1.59-1.37,2.55-.23,4.34,2.2,3.45,1.05,7.08-1.34,9.79s-2.74,5.62-2.78,9c-.17,13.22-.55,26.45,5,38.92,1.76,4,3.85,7.81,5.42,11.86,2.56,6.58,4.94,13.25,2.07,20.44-1.74,4.37-4.5,8.15-8.84,9.7-7.63,2.71-14.77,6.7-23.1,7.7-14.79,1.79-23.51-4.92-25.51-19.76-1.41-10.5.47-20.26,4.58-29.79,3.27-7.59,5.54-15.16,3.07-23.65-1.39-4.76,1-9.34,3-13.67,1.73-3.7,2.77-6.87-.6-10.72-2.5-2.87-1.34-6.85,1.55-9.54,1.75-1.63,1.47-2.64.11-4.3C272.85,932.9,274.83,928.38,280.57,927.29Zm17.54,18.32c-7.32,1.24-8.71.87-13.63-3.05-2.14-1.7-4.08-1.78-5.75.88-2.52,4-2.25,5.5,2,8.72,1,.73,2.47,1.44,2.4,2.61-.12,1.92-1.61.56-2.51.59s-1.12.77-1,1.43c.52,3.89-1.69,7.08-2.73,10.55a14.85,14.85,0,0,0-.39,8.45c2.51,8.37.6,16.19-2.57,23.78-4,9.47-5.84,19-4.34,29.37,1.59,11,6.43,15.65,17.48,15.38a29.1,29.1,0,0,0,12.16-3,50,50,0,0,1,8.66-3.59A15.24,15.24,0,0,0,318.19,1017c-1.21-3-2.74-5.91-4-8.91-3.9-9.13-7.34-18.28-7.89-28.46-.41-7.52-.64-15-.29-23.08-5.18,3.09-10.5,2.82-15.79,2.66-1,0-2.18-.35-2.22-1.38-.06-1.4,1.32-1,2.18-1,2-.06,4.09,0,6.13,0,6.91,0,11.39-3.67,14.52-9.41.77-1.4,1.83-2.89.47-4.51s-2.92-.85-4.45-.26a17.52,17.52,0,0,1-3.11,1c-.87.15-2.12.55-2.56-.49-.52-1.22.8-1.51,1.58-1.94,1.68-.91,3.47-1.64,5.05-2.68,1.79-1.17,3.82-2.13,4.66-4.39.55-1.47,1.07-2.9-.18-4.16s-2.54-.86-4,0a28.4,28.4,0,0,1-14.11,3.31,30.88,30.88,0,0,1-11.49-2.27c-1.51-.6-3.25-.82-4.26,1.12-.78,1.51-.92,3.29.7,3.93,5.61,2.22,8.95,9.11,16.26,7.87A2.6,2.6,0,0,1,298.11,945.61Z"/> <path fill="#614d4b" d="M325.53,108.2,320.11,114c-4.64,5-10.48,6.39-17.06,5.89-2.53-.2-2.14-1.81-2.32-3.42-.81-7.39-1-14.91-3.22-22a23.23,23.23,0,0,1-.4-12.22c.8-3.83-.77-7.9-1.93-11.84a65.88,65.88,0,0,0-15.27-26.56,20.3,20.3,0,0,0-1.76-1.71c-.89-.77-2-1.19-3-.38-1.16,1-.16,1.92.52,2.77,3.89,4.88,8,9.57,10.62,15.36,3.24,7.23,6,14.57,6.25,22.61.1,3-1.23,5-3.82,6.65a23.05,23.05,0,0,1-15.08,3.77c-2.6-.25-4.07-.5-2.58-3.87,3.36-7.54,2.24-15.53.79-23.24a121.66,121.66,0,0,0-12.31-34c-.52-1-.85-2.92-2.33-2.23s-.19,2.28.23,3.23a171.32,171.32,0,0,1,10.09,28.8,71.63,71.63,0,0,1,2.1,20.57c-.44,8.27-6.33,11.69-13.46,7.51-2.61-1.53-4.29-1.37-6.94,0-6.49,3.38-11.72,2.09-12.37-6.45-1.19-15.43,4-29.33,9.73-43.11,1.54-3.71,3.52-7.24,5.79-11.85-3.16,1.27-3.88,3.29-4.75,4.88-6.65,12.1-12.12,24.75-14.43,38.38-1,6.14-1.64,12.78,1.28,18.87,1,2.11.38,3-1.83,3.27a22.3,22.3,0,0,1-17.16-4.84C212,86,213,81.91,213.67,78.18c2.09-12.25,7.61-22.84,15.76-32.13.82-.94,2.61-2,1.28-3.35s-2.75-.16-3.82,1c-7.44,7.76-13.23,16.55-16.06,27-1.57,5.81-4.07,11.69-.7,17.74.61,1.1-.44,1.74-.78,2.57-3.57,8.7-6.37,17.61-6.71,27.09-.13,3.48-2.5,2.75-4.32,2.52-7-.87-12.58-4-16.15-10.32-.17-.3-.57-.46-.91-.72-1.24,6.25,2.92,11.64,8.58,13.66,3,1.08,6.21.39,9.23,1.45,1.62.58,2.7,1.09,2.71,2.94,0,7.73.18,15.46-1.38,23.12a24.31,24.31,0,0,1-3.53,7.72c-.47.76-1.28,1.8-.37,2.58s1.64-.41,2.3-1c2.47-2.05,3.53-5,5.15-8.3,5.92,8.59,14.22,13.62,22.78,18.37,2,1.09.8,2.15-.54,3a24.55,24.55,0,0,1-8.84,3c-9.87,1.69-19.67.69-29.41-1.3-.77-.16-2-.33-2.18-.78-2-6-8.25-9.08-10.09-15.41a119.28,119.28,0,0,1-4.74-36.54,159.39,159.39,0,0,1,4.42-34.17c3.51-14.11,8-27.76,16.83-39.38,9-11.77,19.83-21.78,31.24-31.25,8.81-7.32,18.5-9,29.29-7.12,1.08.18,2.27.33,3.12-.52,3-3,6.77-2.31,10-1.47a39.4,39.4,0,0,1,20.62,13A138.29,138.29,0,0,0,306,39.44c.43.33,1.15.48,1.33.9,3.82,8.64,12.26,13.89,16.18,22.57a192.08,192.08,0,0,1,15,50.12c1.4,9.06,1.45,18.11,1.57,27.2.07,5.75-1.19,11.3-1.91,16.94-.54,4.31-3.79,6-6.86,7.9-2.76,1.69-5.45,3.15-7.78,5.66-3.34,3.6-8.51,4.43-13.17,4.6-7.44.27-15,1-22.37-.67-2.89-.64-6.95-.88-7.55-3.82s3.58-3.87,5.84-5.11a43,43,0,0,0,16.82-16.15c1.06-1.81,1.67-2,3.19-.28s3,5,5.08,3.55c1.45-1-1.44-3.76-2.51-5.63a63.9,63.9,0,0,1-7.15-19.39c-.39-2,.24-3.27,2.52-3,2.76.29,5.4-.4,8.07-.87C320,122.57,324.81,117,325.53,108.2Z"/> <path fill="#614d4b" d="M145.5,269.93c-2.88-.89-2.49-2.8-2.62-4.51-.09-1.09.61-2.77-1.2-3-1.49-.16-1.17,1.57-1.73,2.41-.27.4-.37.92-1.16,1.33,0-2.63,0-5.25,0-7.88,0-1.13-.27-2.33-1.71-2.3-1.15,0-1.29,1.13-1.56,2.08a23.83,23.83,0,0,0,0,12.57c-5.17-3.18-7.71-10.77-6-16.9a53.52,53.52,0,0,1,10.34-19.69c5.39-6.55,7.18-13.91,4.19-21.68-7.3-19,7.29-33,18.77-40.71a10.4,10.4,0,0,1,1.45-.74c4-1.83,8.21-5.28,12.31-1.24,4.5,4.43,7.06,9.84,4.68,16.61a44.68,44.68,0,0,1-7.87,14.13c-8.21,9.79-11.72,21.53-14.14,33.75-1.46,7.42-4.11,14.24-9.33,20A18.4,18.4,0,0,0,145.5,269.93Z"/> <path fill="#614d4b" d="M357,260.15c-1.74-2.46-1.37-5-1.41-7.57,0-1.38.07-3-1.71-3.23s-2,1.47-2.32,2.75c-.4,1.71-.66,3.45-1.1,5.84-1.36-3.36-2.7-5.93-3.34-9a101.83,101.83,0,0,0-14.4-34.73c-6.26-9.74-8.39-20.54-6.9-32.32.8-6.35,3.1-10.55,8.62-13.59,5.22-2.88,7.51-2.69,12.31,1.15,7.68,6.16,7.86,14.37,6.87,23-.43,3.76-1.91,7.31-2.17,11.14-.46,6.68,2.3,12.59,4.66,18.41,3.51,8.65,5.23,17.64,6.8,26.71.62,3.58,2.07,7,2,10.71,0,1.19.8,2.56-.67,3.16-1.66.69-2.19-.95-2.47-2C360.61,256.21,358.9,257.25,357,260.15Z"/> <path fill="#d0b5a0" d="M266.35,485.5c-.25-1.77-.79-2-1.78-.37-1.46,2.45-2.74,5-5.15,6.76-4.31,3.08-8.19,2.33-11-2.21-2.16-3.47-3.33-7.37-4.92-11.15-.86,5.12,1.55,9.39,4.33,14.3-4.1-1.87-6.42-4.6-8.55-7.49-6-8.11-8.57-17.37-9.81-27.26a73.48,73.48,0,0,1,.17-17.85,11.88,11.88,0,0,1,.49-2.37c.51-1.52,1.8-1.53,3-1.3,1.64.29,1.18,1.38.91,2.51-1,4.31-1.72,8.66-.27,13.22.77-3.85,1.83-7.68,2.22-11.57.33-3.32,2-4,4.64-3.16s5.4.06,8,.83c0,3.12-2.72,5.7-1.2,9.38,1.14-7.16,4.8-10.26,12-9.11,3.3.53,2.38,3.1,3.33,4.7,1.47,0,1.2-1.08,1.11-1.73-.41-3,1-3.65,3.74-3.59,5.3.11,5.29,0,5.32,5.26,0,2.32.08,4.63.16,6.93,0,.18.34.34.72.69,2.3-3.14,1.28-6.72,1.58-10.08.12-1.29-.86-3.32,1.61-3.46,2.12-.12,1.78,1.86,2,3,1,6-.3,11.9-1.21,17.77a75,75,0,0,1-9.08,25.17,4.74,4.74,0,0,1-2.21,2.32Z"/> <path fill="#d0b5a0" d="M246.15,431.89c.58,3.62-.54,3.75-3.46,3.27-3.13-.52-6.19-2.16-9.58-1.23-1.11.3-2.6.19-2.65-1.63,0-.73-.82-1.71.16-2.16a2.69,2.69,0,0,1,3.07.34c1.15,1.06,2.25,1,3.71.5,3.88-1.41,7.77-3,12.09-1.67.68.2,1.24.3,1.6.91,1.32,2.25,2.94,2.61,5,.85,1-.9,1.94-.59,3.23,0,1.79.8,4.39,2.91,5.49,1.84,3.84-3.73,8-1,11.91-1.39.64-.06,1.62-.95,1.89.48a1.78,1.78,0,0,1-1.23,2.25c-.39.14-.9.53-1.12.4-4.51-2.66-8.4,2.11-12.78,1-1.11-.28-2.44.29-2.89-1.48-.31-1.19-1.35-.87-1.78-.1-1.12,2-3,1.44-4.67,1.56C250.9,435.86,247.82,435.82,246.15,431.89Z"/> <path fill="#d0b5a0" d="M266.5,485.62l-.32,1a4.32,4.32,0,0,1-.4-.3,9.38,9.38,0,0,1,.57-.83Z"/> <path fill="#d0b5a0" d="M282.5,290.43a28,28,0,0,0,10.29-9.27c-9.26,6.3-18.9,11.14-30.74,8.42,2.89-3.94,7-7.48,7.55-13.49-2.37,1-2.76,3.08-3.63,4.54-7.09,11.78-13.73,10.36-22.87,2.87-1-.81-1.53-2.31-3.53-2.19,1,4.18,4,6.16,8.53,8.28-6,.57-11,1.7-15.77-.29s-9.16-4.61-13.76-7.05c1.65,5.05,6.67,6.14,10.73,8.69-13.49.45-28.89-4.57-30.69-19.85-1-8.35,5.67-20.26,13.49-23.41,9.94-4,20.35-5.24,31-6.09,18.63-1.48,36.77,1.16,54.87,5a5,5,0,0,1,4.25,3.67,88.33,88.33,0,0,1,4.33,15.24c2.08,12.62-5.69,19.25-13.67,22.68A30.15,30.15,0,0,1,282.5,290.43Z"/> <path fill="#d0b5a0" d="M288.51,237.64c-6.16,4.69-12.7.48-19,.56-3.85,0-7.83-.43-11.76-.54-2.66-.07-5.64.76-7.07-3.37-.21,3.53-2.21,3.3-4.27,3.41-7,.38-14.12.44-20.87,2.53a18.69,18.69,0,0,1-11.41-.35c-.16,1.71,1.62,1.41,1.84,2.8-4.17.31-7.09,4.88-11.94,3.26-.63-.21-1.41.37-.79,1.22.4.56,2.45.75.51,1.66-1.44.68-2.9-.34-3.89-1.51a1.2,1.2,0,0,1,.65-2c5.72-.51,9.8-5.29,14.76-6.37s10.63-1.38,15.93-2.18a58.22,58.22,0,0,0,13.21-3.36c3.75-1.53,6.87-.53,10.39.22,4.49,1,8.74,2.39,13.72,2.11,6.55-.37,13.62-1.59,20,1.92Z"/> <path fill="#d0b5a0" d="M288.46,237.69A70.62,70.62,0,0,1,305,242.88c-.86,1.24-2.12,1.13-3.38,1.38-1.78.36-1.23-2.42-2.57-1.81-3.11,1.43-5.7-.78-8.56-1-2.55-.17-3-1.7-1.95-3.85Z"/> <path fill="#d0b5a0" d="M198,955.67c4.93,2.75,9.78,2.94,14.69,2.69,1.33-.07,3.4.22,3.41-1.34,0-2-2.1-1.07-3.25-1-6.1.19-12,0-16.48-5.1a23.85,23.85,0,0,1-3.7-5.81,2.79,2.79,0,0,1,.18-3.06c.87-1.26,2.11-1.08,3.3-.76,1.7.45,3.35,1.1,5.06,1.49a2,2,0,0,0,1.78-.49c.52-1-.46-1.4-1.14-1.79-2.47-1.42-5-2.79-7.46-4.2a6.31,6.31,0,0,1-3.15-4.55c-.49-2.66,1.57-4.38,3.94-3.12a30.05,30.05,0,0,0,26.31,1.45c1.7-.67,3.56-.79,4.48,1.42.85,2,0,3.16-1.83,4.27-2.86,1.75-5.94,3.22-8.15,6-1.1,1.36-3,1.1-4.62,1.12-1.85,0-3.81-.21-5.74,2.21,5.12.08,9.69,1.6,13.53-2.59,1.34-1.47,3-3,5.2-1.1,2.5,2.16,3.39,6.06,1.63,7.91a49.37,49.37,0,0,1-4.09,3.36c-.49.43-1.14.92-.88,1.69s1,.73,1.68.47c1.64-.66,2,.3,1.88,1.56-.31,2.72.81,5.06,1.78,7.45a20.24,20.24,0,0,1,.9,13.15c-2.08,7.91.33,15.34,3.27,22.54,2.7,6.61,4.8,13.31,4.75,20.49a56.61,56.61,0,0,1-2.26,14.42c-1.6,5.91-6,8.25-11.35,9a28.27,28.27,0,0,1-16.66-2.81,57.25,57.25,0,0,0-9.83-3.88c-8.07-2.29-12.53-12.22-9.45-20.11,2.91-7.46,7.09-14.35,9.21-22.19C197.82,983.67,199.47,967.21,198,955.67Zm25.79,67.5c-.94-2.76-3.41-3.16-5.54-3.38a41.4,41.4,0,0,1-16.79-5.5,6.31,6.31,0,0,0-3.83-1.14c-.9.09-2.09-.23-2.26,1.1-.13,1,.91,1.07,1.6,1.48A51.5,51.5,0,0,0,223.79,1023.17Z"/> <path fill="#d0b5a0" d="M298.11,945.61a2.6,2.6,0,0,0-2.79-1.83c-7.31,1.24-10.65-5.65-16.26-7.87-1.62-.64-1.48-2.42-.7-3.93,1-1.94,2.75-1.72,4.26-1.12a30.88,30.88,0,0,0,11.49,2.27,28.4,28.4,0,0,0,14.11-3.31c1.51-.82,2.79-1.21,4,0s.73,2.69.18,4.16c-.84,2.26-2.87,3.22-4.66,4.39-1.58,1-3.37,1.77-5.05,2.68-.78.43-2.1.72-1.58,1.94.44,1,1.69.64,2.56.49a17.52,17.52,0,0,0,3.11-1c1.53-.59,3.09-1.36,4.45.26s.3,3.11-.47,4.51c-3.13,5.74-7.61,9.46-14.52,9.41-2,0-4.09,0-6.13,0-.86,0-2.24-.36-2.18,1,0,1,1.2,1.34,2.22,1.38,5.29.16,10.61.43,15.79-2.66-.35,8.06-.12,15.56.29,23.08.55,10.18,4,19.33,7.89,28.46,1.28,3,2.81,5.89,4,8.91a15.24,15.24,0,0,1-10.32,20.77,50,50,0,0,0-8.66,3.59,29.1,29.1,0,0,1-12.16,3c-11.05.27-15.89-4.38-17.48-15.38-1.5-10.35.38-19.9,4.34-29.37,3.17-7.59,5.08-15.41,2.57-23.78a14.85,14.85,0,0,1,.39-8.45c1-3.47,3.25-6.66,2.73-10.55-.09-.66.08-1.4,1-1.43s2.39,1.33,2.51-.59c.07-1.17-1.42-1.88-2.4-2.61-4.26-3.22-4.53-4.72-2-8.72,1.67-2.66,3.61-2.58,5.75-.88C289.4,946.48,290.79,946.85,298.11,945.61Zm-17.8,78.68c8.33-1.2,16.66-1,23.58-6.37.62-.48,1.55-.55,2.19-1,.94-.66,3.38-.15,2.51-2.24-.58-1.38-2.43-.71-3.71-.52a6.46,6.46,0,0,0-2.22,1,41.63,41.63,0,0,1-16.79,5.48C283.76,1020.85,281.26,1021.22,280.31,1024.29Z"/> <path fill="#57423f" d="M278,106.75c-2.71-.51-6-1.19-7.56-4.55-.64-1.36-.75-3.14.72-4.07s2.33.48,3.09,1.63c1.8,2.76,4.57,3,7.52,2.95.86,0,2.12-.48,2.48.66.44,1.39-.95,1.78-1.85,2.25A7.56,7.56,0,0,1,278,106.75Z"/> <path fill="#57423f" d="M235.42,107.65c-1.56-.12-3.27.4-3.58-1-.37-1.76,1.6-1.27,2.55-1.76a7.83,7.83,0,0,0,4.3-4.56c.47-1.36,1.19-3,3.16-2.09,1.74.82,1.46,2.44.89,3.89A8.1,8.1,0,0,1,235.42,107.65Z"/> <path fill="#614d4b" d="M228.29,741.46c.6-2.21,2.48-2.85,3.32-4.36.44-.78.91-2.4,2.16-1.32,1,.86-.14,2-.73,2.75A7.59,7.59,0,0,1,228.29,741.46Z"/> <path fill="#614d4b" d="M202.3,732.26c2.82,1.65,3.91,4.24,4.07,7.33C204.56,737.41,202.52,735.37,202.3,732.26Z"/> <path fill="#614d4b" d="M278,741.59c-3.34-.77-4.94-2.2-6.06-4.24-.31-.56-.66-1.24.08-1.77s1.14.14,1.54.63C274.8,737.72,276,739.24,278,741.59Z"/> <path fill="#614d4b" d="M299.32,740.45c-.57-3.65,1.36-5.56,2.53-7.73.32-.59.91-1.14,1.63-.59a1.24,1.24,0,0,1,.14,1.81C302.32,735.92,301,737.9,299.32,740.45Z"/> <path fill="#614d4b" d="M254.52,397.86c-.76,1.17,1.37,3.43-1.67,3.63-2.5.16-1.8-1.65-1.58-2.71.35-1.74-1.46-4.74,1.54-5S253.74,396.51,254.52,397.86Z"/> <path fill="#8f6f67" d="M223.79,1023.17a51.5,51.5,0,0,1-26.82-7.44c-.69-.41-1.73-.47-1.6-1.48.17-1.33,1.36-1,2.26-1.1a6.31,6.31,0,0,1,3.83,1.14,41.4,41.4,0,0,0,16.79,5.5C220.38,1020,222.85,1020.41,223.79,1023.17Z"/> <path fill="#8f6f67" d="M280.31,1024.29c.95-3.07,3.45-3.44,5.56-3.68a41.63,41.63,0,0,0,16.79-5.48,6.46,6.46,0,0,1,2.22-1c1.28-.19,3.13-.86,3.71.52.87,2.09-1.57,1.58-2.51,2.24-.64.46-1.57.53-2.19,1C297,1023.26,288.64,1023.09,280.31,1024.29Z"/> </g> <g id="eyes"> <path d="M242.09,128.3l-.26-.26a1.57,1.57,0,0,1-.19-.18l.21.09.22.09,0,0,0-.05a5.07,5.07,0,0,0-1.16-1.27l-.33-.32-.37-.37c-.25-.28-.54-.58-.77-.86s-.41-.48-.61-.69a11.92,11.92,0,0,0-1.62-1.49,22.54,22.54,0,0,0-2.74-2,31.48,31.48,0,0,0-2.85-1.46c-.9-.39-1.89-.76-3-1.13-.19-.06-.38-.1-.56-.17a7.19,7.19,0,0,1-1-.34l-.13,0s.07,0,.09,0a5.72,5.72,0,0,0,1,.37,3.06,3.06,0,0,1,.56.17c1.11.36,2.1.73,3,1.12a20,20,0,0,1,2.85,1.47,22.44,22.44,0,0,1,2.74,1.94,13,13,0,0,1,1.6,1.49c.22.22.41.45.61.69s.49.6.77.86c.11.13.24.24.37.37l.32.32a5.37,5.37,0,0,1,1.15,1.26l-.2-.07-.26-.08h0l0,0a1.21,1.21,0,0,0,.24.21,1.26,1.26,0,0,1,.24.22,16.44,16.44,0,0,0-2-.2h0c-.26,0-.51,0-.75,0a11.3,11.3,0,0,0-1.94.13l-.65.07a20.5,20.5,0,0,0-2.64.43l-2,.39h0l-1.26.23a2.5,2.5,0,0,0-.62.28.66.66,0,0,1-.2.11h0a9.78,9.78,0,0,1-2.33,1,8.16,8.16,0,0,1-1.55.16h-.28c-.48,0-1,0-1.43,0-.88,0-1.81,0-2.7.1a8.6,8.6,0,0,0-3,.67,2.82,2.82,0,0,0-.71.63,3.21,3.21,0,0,1,1.36-1.32,5.9,5.9,0,0,1,1.75-.64v0a5.16,5.16,0,0,0-.8-.08,6.52,6.52,0,0,0-1.66.24,7.42,7.42,0,0,0-1.77.73,6.49,6.49,0,0,0-.61.41l-.47.34a7.49,7.49,0,0,1,1.08-1.1,6.66,6.66,0,0,1,1.36-.84c.21-.08.43-.17.65-.24l.28-.08v0h-.74c-.39,0-.82,0-1.21,0a7,7,0,0,0-3.06.86,5.4,5.4,0,0,0-.71.45h0c-.08.07-.17.11-.25.18a4.94,4.94,0,0,1,2.09-1.75,6.08,6.08,0,0,1,1.49-.48.23.23,0,0,0,.11,0,2.7,2.7,0,0,0,.39-.08v0a7.26,7.26,0,0,0-3.2.31,10.52,10.52,0,0,0-2.7,1.36,1.22,1.22,0,0,1-.17.08,3.63,3.63,0,0,1,.8-.82,6.27,6.27,0,0,1,1-.6,8,8,0,0,1,1.51-.52.27.27,0,0,0,.16-.06l0,0h0a13,13,0,0,0-2.92.35,9.68,9.68,0,0,0-2.91,1.1,5.85,5.85,0,0,1,2.41-1.62c.2-.06.42-.11.61-.15s.3-.06.43-.09v0c-.47,0-.93-.06-1.4-.11a11.26,11.26,0,0,0-2.66,0,7.12,7.12,0,0,0-.9.17h0c-.07,0-.13,0-.18.05a5,5,0,0,0,.65-.41c.09-.07.22-.15.33-.22a4,4,0,0,1,1.36-.6,3.68,3.68,0,0,1,1.44,0v0c-.37-.13-.71-.26-1.06-.41a13.14,13.14,0,0,0-3.38-1h.06l.24,0v0a5.08,5.08,0,0,1-2.42-1l.11,0h0a4.77,4.77,0,0,0,1.34.32v0a5.9,5.9,0,0,1-1.62-.65,8.73,8.73,0,0,1-2.07-1.77,8,8,0,0,0,4,1v0c-.24-.11-.47-.24-.69-.35h0a2.14,2.14,0,0,1-.22-.13l-.17-.09h0l-.41-.25a7.41,7.41,0,0,0,1.77.64,1.46,1.46,0,0,1,.2,0,1.4,1.4,0,0,0,.67.08h0l0,0a3.37,3.37,0,0,0-.78-.63l0,0a3.49,3.49,0,0,1,.74.33l.41.21a.64.64,0,0,0,.52,0l.19-.06a.49.49,0,0,1,.2-.05.72.72,0,0,0,.34-.13l0,0h0a4.6,4.6,0,0,1-1.47-1c.33.13.63.3.93.45s.3.16.45.24h0a.88.88,0,0,0,.71.13l1.12-.3v0a7.84,7.84,0,0,1-3.82-1.41,3.33,3.33,0,0,1-1-1.1,6.41,6.41,0,0,0,3.43,1.51h0l0,0-.15-.1-.31-.26a1.52,1.52,0,0,1,.5.23,1.46,1.46,0,0,0,.43.22,2,2,0,0,0,.59,0,1.71,1.71,0,0,1,.32,0v0a3.47,3.47,0,0,1-1.25-.78l.43.22a4.91,4.91,0,0,0,1.32.52,2.9,2.9,0,0,0,1,0v-.06a4.22,4.22,0,0,1-1.9-.86,4.71,4.71,0,0,0,1.9.64v0l-.18-.06a2.89,2.89,0,0,1-.43-.22,4.08,4.08,0,0,1-1-.91,2.93,2.93,0,0,0,1,.48l.11,0a3.58,3.58,0,0,0,1.64.26v0a5.16,5.16,0,0,1-2.27-1,2.52,2.52,0,0,1-.71-1.15,4,4,0,0,0,2,1.23,8.68,8.68,0,0,0,2,.26v0a8.13,8.13,0,0,1-1-.62l-.43-.33,0,0a3.81,3.81,0,0,1-.93-.82.63.63,0,0,0,.13.11,3.49,3.49,0,0,0,.54.41l0,0-.26-.33a3.8,3.8,0,0,1-.43-.58,4.12,4.12,0,0,0,1.3.84v0a1.93,1.93,0,0,1-.44-.39,5.06,5.06,0,0,0,2.05,1,.73.73,0,0,1,.2,0h0a1.35,1.35,0,0,0,.95,0l0,0,0,0a7.33,7.33,0,0,1-2.23-1,4.15,4.15,0,0,0,1.26.49v0a4,4,0,0,1-1.52-1.6,4.72,4.72,0,0,0,3.54,1.54h.13a1.05,1.05,0,0,0,.39-.13h0l0,0a8,8,0,0,1-1-.56,5.43,5.43,0,0,1-.89-.75,3.77,3.77,0,0,1-.92-1.47c.25.24.49.52.73.78a7.16,7.16,0,0,0,1,1,6,6,0,0,0,1.54.8h0l.32-.13h0l0,0a6.36,6.36,0,0,1-1.38-1.1,5,5,0,0,1-1-1.4c.13.15.26.32.41.47a7.45,7.45,0,0,0,1.75,1.66s0,0,.06,0a.82.82,0,0,0,.69.17l.13,0h0a5.43,5.43,0,0,1,.61-.18h0l0,0c-.09-.08-.2-.15-.28-.23h0a6.42,6.42,0,0,1-1.4-1.45,4.72,4.72,0,0,1-.31-.58c.11.13.24.26.35.41a7.94,7.94,0,0,0,1.38,1.4,1.68,1.68,0,0,0,.78.34h0l0,0a1,1,0,0,1-.24-.21,5.07,5.07,0,0,1-1.6-1.88,2,2,0,0,1,.24.28,6,6,0,0,0,1.3,1.27,2.08,2.08,0,0,0,.84.33v0a5.4,5.4,0,0,1-.91-.78,3.61,3.61,0,0,1-.63-.89,6.53,6.53,0,0,0,1.58,1.47l0,0a4.12,4.12,0,0,1-1.08-1.79,5.6,5.6,0,0,0,1.06,1.19,3.86,3.86,0,0,0,1.17.75,1.26,1.26,0,0,0,.28,0l-.07,0a.65.65,0,0,1-.19,0,4.11,4.11,0,0,1-1.15-.76,5.55,5.55,0,0,1-1.1-1.25v0l0,0h0a4.15,4.15,0,0,0,1,1.77,6.59,6.59,0,0,1-1.51-1.47h0l0,0v0a4.31,4.31,0,0,0,.69,1,6.44,6.44,0,0,0,.87.75,2.19,2.19,0,0,1-.78-.32,6.81,6.81,0,0,1-1.3-1.27c-.08-.11-.19-.22-.28-.33v0l0,0h0a4.86,4.86,0,0,0,1.62,2,1.18,1.18,0,0,0,.22.17,1.63,1.63,0,0,1-.74-.33,6.78,6.78,0,0,1-1.38-1.4l-.39-.45h0l0,0v0a3,3,0,0,0,.35.65,6,6,0,0,0,1.4,1.45h0c.08.06.17.15.26.21a2.44,2.44,0,0,0-.56.17h0a.61.61,0,0,1-.12,0,.87.87,0,0,1-.7-.18l-.06,0a8.11,8.11,0,0,1-1.75-1.66l-.45-.52h0v0a4.69,4.69,0,0,0,1,1.47,6.23,6.23,0,0,0,1.36,1.1l-.28.11a6.31,6.31,0,0,1-1.51-.8,6.82,6.82,0,0,1-1-1,9.58,9.58,0,0,0-.75-.82l0,0,0,.07a4,4,0,0,0,.94,1.51,4.79,4.79,0,0,0,.89.77,7.75,7.75,0,0,0,1,.56,1.26,1.26,0,0,1-.34.13,4.67,4.67,0,0,1-3.72-1.59v0l0,0h0a4.32,4.32,0,0,0,1.51,1.64,3.6,3.6,0,0,1-1.31-.59h0l0,0h0a6.76,6.76,0,0,0,2.35,1.16,1.3,1.3,0,0,1-.91,0h0l-.19,0a4.8,4.8,0,0,1-2.12-1h0l0,0v0a1.27,1.27,0,0,0,.39.38,4.81,4.81,0,0,1-1.23-.84h0l0,0v0a6.52,6.52,0,0,0,.47.64l.22.26c-.17-.11-.33-.24-.48-.36a1.57,1.57,0,0,1-.19-.18h0l0,0v0a3.7,3.7,0,0,0,1,.9l0,0c.15.11.31.22.44.33a7,7,0,0,0,.9.6,8.08,8.08,0,0,1-2-.26,4.19,4.19,0,0,1-2-1.25h0v0a2.58,2.58,0,0,0,.73,1.21,4.86,4.86,0,0,0,2.2,1,4.08,4.08,0,0,1-1.55-.26l-.13,0a3.21,3.21,0,0,1-1-.52h0l0,0h0a4.59,4.59,0,0,0,1,1,1.17,1.17,0,0,0,.45.21l.07,0a5,5,0,0,1-1.86-.69h0l0,0h0a4,4,0,0,0,1.92.93,2.31,2.31,0,0,1-.91,0,4.59,4.59,0,0,1-1.31-.49,4.51,4.51,0,0,0-.5-.24h0l0,0h0a3.22,3.22,0,0,0,1.25.78.9.9,0,0,0-.24,0,2.6,2.6,0,0,1-.56,0,2.19,2.19,0,0,1-.43-.22,1.26,1.26,0,0,0-.54-.24l0,0,0,0,.33.28a.35.35,0,0,1,.1.08,6.57,6.57,0,0,1-3.41-1.53h0l0,0h0a3.5,3.5,0,0,0,1.06,1.17,7.78,7.78,0,0,0,3.78,1.4c-.33.09-.65.2-1.06.28a1,1,0,0,1-.69-.13h0c-.15-.08-.31-.15-.46-.24-.32-.17-.64-.32-1-.47h0l0,0h0a4.52,4.52,0,0,0,1.49,1,.76.76,0,0,1-.32.11l-.2,0-.19.07c-.18.06-.35.13-.5,0l-.41-.21a4,4,0,0,0-.8-.35h0l0,0,.11.07a3.6,3.6,0,0,1,.75.6,1.58,1.58,0,0,1-.64-.09.71.71,0,0,0-.2,0,9.11,9.11,0,0,1-1.83-.69h0l0,0h0a2.63,2.63,0,0,0,.49.33h0l.17.08.22.13h0a5.33,5.33,0,0,0,.63.33,7.93,7.93,0,0,1-4-1.06h0l0,0v0a8.92,8.92,0,0,0,2.14,1.81,5.23,5.23,0,0,0,1.47.61,5.46,5.46,0,0,1-1.19-.3h0l-.17-.07h0v0h0a5.39,5.39,0,0,0,2.42,1,.39.39,0,0,1-.15,0h0a.3.3,0,0,1-.13,0h0v0h0a13.16,13.16,0,0,1,3.45,1l1,.36a4.58,4.58,0,0,0-1.33.07,3.7,3.7,0,0,0-1.36.6l-.33.22a4.08,4.08,0,0,1-.73.45h0v0h0l.28-.06h0a6.52,6.52,0,0,1,.9-.18,11.28,11.28,0,0,1,2.66.05l1.29.11a2.37,2.37,0,0,0-.34.08l-.63.15a5.77,5.77,0,0,0-2.46,1.69h0l0,0h0a10.1,10.1,0,0,1,3-1.12,13.83,13.83,0,0,1,2.85-.35l-.11,0a7.28,7.28,0,0,0-1.53.52,6.52,6.52,0,0,0-1,.61,3.17,3.17,0,0,0-.82.86l-.05,0,.05,0a.71.71,0,0,0,.21-.11,10.68,10.68,0,0,1,2.7-1.36,7.3,7.3,0,0,1,3.11-.32l-.33.06-.08,0a5.53,5.53,0,0,0-3.61,2.26h0l0,0h0a1.69,1.69,0,0,0,.31-.21h0a7.54,7.54,0,0,1,.73-.46,7.3,7.3,0,0,1,3.07-.86c.41,0,.82,0,1.2,0h.65l-.21.06a3.35,3.35,0,0,0-.65.24,5.88,5.88,0,0,0-1.36.84,7.18,7.18,0,0,0-1.12,1.15v0l0,0h0a6.45,6.45,0,0,0,.54-.37,6.34,6.34,0,0,1,.6-.41,7.25,7.25,0,0,1,1.77-.73,5.75,5.75,0,0,1,2.38-.19,5.65,5.65,0,0,0-1.71.64,3.2,3.2,0,0,0-1.4,1.41h0l0,0v0a2.26,2.26,0,0,1,.75-.69,8.08,8.08,0,0,1,3-.67c.91-.07,1.82-.09,2.7-.11l1.43,0h.28a6.27,6.27,0,0,0,1.55-.15,11.86,11.86,0,0,0,2.35-1h0a2.39,2.39,0,0,0,.21-.13,2.57,2.57,0,0,1,.63-.28c.43-.08.84-.17,1.25-.23h0c.67-.13,1.34-.24,2-.39a20.34,20.34,0,0,1,2.63-.43l.65-.07a11.5,11.5,0,0,1,1.94-.13l.78,0h0a13.15,13.15,0,0,1,2,.2h.05Z"/> <path d="M226.59,117.7a.45.45,0,0,0-.17-.11l-.11,0h0s0,0-.08,0h-.05l.15.06A1,1,0,0,1,226.59,117.7Z"/> <path class="cls-8" d="M241.81,128.06a1.26,1.26,0,0,1-.24-.22h0c.09,0,.18.07.26.09a1,1,0,0,1,.22.08,5.22,5.22,0,0,0-1.15-1.27l-.32-.32a3.23,3.23,0,0,1-.37-.37c-.26-.28-.54-.58-.77-.88s-.41-.48-.61-.7a13,13,0,0,0-1.6-1.48,21.49,21.49,0,0,0-2.74-1.95,28.18,28.18,0,0,0-5.85-2.59c-.19-.06-.38-.1-.56-.17a6.07,6.07,0,0,1-1-.37l-.05,0a1,1,0,0,1-.28-.11l-.15-.08a1,1,0,0,0-.24-.11l-.1,0c-.39-.07-.78-.13-1.19-.18a7.51,7.51,0,0,0-1.34,0l-.26,0h0a.07.07,0,0,1-.06,0c-.37,0-.74.07-1.12.07a.48.48,0,0,1-.18-.05,1.27,1.27,0,0,1-.26,0,4,4,0,0,1-1.16-.76,4.81,4.81,0,0,1-1.1-1.25,4,4,0,0,0,1.12,1.88h0a6.64,6.64,0,0,1-1.66-1.55,4.64,4.64,0,0,0,1.62,1.77h0a2.79,2.79,0,0,1-.87-.33,6.75,6.75,0,0,1-1.29-1.27l-.26-.33a4.94,4.94,0,0,0,1.62,1.93l.24.21h0a1.6,1.6,0,0,1-.78-.34,7.09,7.09,0,0,1-1.38-1.41c-.13-.15-.24-.3-.39-.45a4.88,4.88,0,0,0,.32.65,6.42,6.42,0,0,0,1.41,1.44,1.66,1.66,0,0,0,.3.24h0a3.05,3.05,0,0,0-.61.17.5.5,0,0,1-.13,0,.86.86,0,0,1-.69-.18l-.06,0a8.11,8.11,0,0,1-1.75-1.66c-.13-.17-.28-.35-.43-.52a5.77,5.77,0,0,0,2.35,2.57h0a3.07,3.07,0,0,1-.32.11h0a7.1,7.1,0,0,1-1.54-.8,7.79,7.79,0,0,1-1-1,7.19,7.19,0,0,0-.76-.8,4.2,4.2,0,0,0,.95,1.51,5.78,5.78,0,0,0,1.9,1.34h0a.79.79,0,0,1-.39.13h-.13a5,5,0,0,1-1.92-.39,4,4,0,0,1-.9-.51,5.63,5.63,0,0,1-.76-.69,4.21,4.21,0,0,0,1.56,1.66h0a3.93,3.93,0,0,1-1.39-.59,7.72,7.72,0,0,0,2.36,1.17h0a1.21,1.21,0,0,1-1,0l-.22,0a4.82,4.82,0,0,1-2.11-1,1.63,1.63,0,0,0,.49.46h0a5,5,0,0,1-1.36-.89,7.26,7.26,0,0,0,.46.63l.26.32h0a2.08,2.08,0,0,1-.54-.41c-.07,0-.11-.11-.18-.15a3.69,3.69,0,0,0,1,.88l.05,0a4.8,4.8,0,0,1,.43.32,4.75,4.75,0,0,0,1,.63h0a7.61,7.61,0,0,1-2-.26,4.4,4.4,0,0,1-1.12-.48,3.59,3.59,0,0,1-.91-.78,2.43,2.43,0,0,0,.73,1.19,4.93,4.93,0,0,0,2.29,1h0a3.42,3.42,0,0,1-1.64-.26.38.38,0,0,1-.13,0,3.59,3.59,0,0,1-1-.52,3.64,3.64,0,0,0,1,1,1.1,1.1,0,0,0,.43.22.77.77,0,0,1,.19.08h0a4.7,4.7,0,0,1-2-.69,3.94,3.94,0,0,0,2,.93h0a2.43,2.43,0,0,1-1,0,4.39,4.39,0,0,1-1.32-.5,5.21,5.21,0,0,0-.47-.24,3.57,3.57,0,0,0,1.32.82h0a1.83,1.83,0,0,0-.33,0,2.82,2.82,0,0,1-.58,0,1.72,1.72,0,0,1-.43-.21,1.53,1.53,0,0,0-.52-.24c.11.11.22.19.32.28l.15.11h0a6.88,6.88,0,0,1-1.85-.52,6.14,6.14,0,0,1-1.62-1,3.6,3.6,0,0,0,1,1.15,7.65,7.65,0,0,0,3.84,1.4h0c-.35.11-.69.19-1.12.3a1.08,1.08,0,0,1-.7-.13h0c-.15-.08-.3-.15-.45-.24a10.51,10.51,0,0,0-1-.45,4.52,4.52,0,0,0,1.49,1h0a.65.65,0,0,1-.35.13,1.33,1.33,0,0,0-.19,0l-.2.06a.58.58,0,0,1-.51,0,2.25,2.25,0,0,1-.41-.21,3.8,3.8,0,0,0-.78-.33s0,0,.06,0a3.09,3.09,0,0,1,.78.62h0a1.38,1.38,0,0,1-.67-.08.67.67,0,0,0-.19,0,9.19,9.19,0,0,1-1.84-.69,2.52,2.52,0,0,0,.48.3c.06,0,.13.07.17.11l.22.13c.21.11.45.24.69.35h0a7,7,0,0,1-2.12-.26,8.43,8.43,0,0,1-2-.8,9.11,9.11,0,0,0,2.11,1.81,5.58,5.58,0,0,0,1.66.65h0a4.54,4.54,0,0,1-1.38-.32l-.17-.07a5.18,5.18,0,0,0,2.48,1h0l-.23,0-.13,0a13.74,13.74,0,0,1,3.43,1c.36.13.71.28,1.08.41h0a3.79,3.79,0,0,0-2.83.65l-.32.22a4.28,4.28,0,0,1-.72.43l.26-.07a6.65,6.65,0,0,1,.91-.17,11.17,11.17,0,0,1,2.65,0c.46.05.95.09,1.41.11h0c-.15,0-.31.07-.46.11s-.41.09-.62.15a5.9,5.9,0,0,0-2.44,1.64,8.88,8.88,0,0,1,1.42-.67,15.54,15.54,0,0,1,1.54-.45,14.23,14.23,0,0,1,2.93-.35h0a.25.25,0,0,1-.17.07,7,7,0,0,0-1.51.52,4.19,4.19,0,0,0-1.84,1.44,2,2,0,0,0,.22-.1A10.06,10.06,0,0,1,214,129a6.65,6.65,0,0,1,3.19-.31h0a1.83,1.83,0,0,1-.39.09.23.23,0,0,0-.11,0,5.33,5.33,0,0,0-1.49.48A4.91,4.91,0,0,0,213,131l.3-.2c.24-.15.48-.32.74-.45a7,7,0,0,1,1.48-.61,7.44,7.44,0,0,1,1.58-.25c.41,0,.84,0,1.25,0h.74l-.31.09a3.87,3.87,0,0,0-.67.24,6.74,6.74,0,0,0-2.46,2,6.15,6.15,0,0,0,.52-.37,4.07,4.07,0,0,1,.61-.41,7.1,7.1,0,0,1,1.77-.73,6,6,0,0,1,1.66-.24,3,3,0,0,1,.8.09h0a5.32,5.32,0,0,0-1.77.67,3.34,3.34,0,0,0-1.41,1.38,2.65,2.65,0,0,1,.76-.69,5.77,5.77,0,0,1,1.47-.48,14,14,0,0,1,1.55-.19c.91-.06,1.81-.09,2.7-.11.47,0,1,0,1.42,0h.28a7.37,7.37,0,0,0,1.56-.15,9.93,9.93,0,0,0,2.35-1h0a.66.66,0,0,1,.2-.11,1.58,1.58,0,0,1,.62-.28l1.25-.24c.67-.13,1.36-.24,2-.39a24.68,24.68,0,0,1,2.64-.43l.64-.06a10.66,10.66,0,0,1,1.95-.13l.77,0a12.19,12.19,0,0,1,2,.19C242,128.21,241.9,128.12,241.81,128.06Z"/> <path fill="#ffffff" d="M207.86,125.55c1.38.26,2.78.65,4.12,1,.48.13,1,.26,1.47.41,2.42.63,4.6,1.23,6.63,1.83a6.73,6.73,0,0,1-1.36-1.48,12.49,12.49,0,0,1-1.32-2.64,14,14,0,0,1-.8-3.34,5.4,5.4,0,0,0-.71.45,8.28,8.28,0,0,1-.71.45h0l-1.15.67c-.58.35-1.16.69-1.77,1a1.22,1.22,0,0,0-.17.08,1.59,1.59,0,0,0-.5.3,2.91,2.91,0,0,1-.75.52A7.92,7.92,0,0,1,207.86,125.55Z"/> <path fill="#ffffff" d="M231.15,120.5a5.71,5.71,0,0,1,.47,1.73,9.56,9.56,0,0,1,0,1.81,12.8,12.8,0,0,1-.22,1.75,6.88,6.88,0,0,1-.54,1.66,4.13,4.13,0,0,1-.73,1.1,4.56,4.56,0,0,1-1,.85,17.2,17.2,0,0,0,3.84-2c.56-.34,1.12-.69,1.7-1a5.88,5.88,0,0,1,2.33-.74,5.66,5.66,0,0,1,1.69.09,6.63,6.63,0,0,1,1.55.54c-.88-.63-1.77-1.3-2.61-1.94-.5-.39-1-.78-1.53-1.15A17.87,17.87,0,0,0,231.15,120.5Z"/> <path class="eyes0" d="M222.67,119.34a3.42,3.42,0,0,0-.46,0,.75.75,0,0,1-.21,0c-.67.09-1.38.18-2.08.3a4.84,4.84,0,0,0-1.38.54.6.6,0,0,0-.28.37,5.55,5.55,0,0,0-.15,2.83,10.18,10.18,0,0,0,.28,1.12c.05.17.11.35.15.52a8.25,8.25,0,0,0,3.2,4,2.31,2.31,0,0,0,.93.39,19.19,19.19,0,0,0,2.2.35,19.45,19.45,0,0,0,2.16,0h.13a1.5,1.5,0,0,0,.64-.26l.13-.07a1.15,1.15,0,0,0,.28-.19,2.35,2.35,0,0,1,.37-.24,3.35,3.35,0,0,0,1.81-1.27,4.68,4.68,0,0,0,.8-2.07,9.4,9.4,0,0,0,.11-2.77,7,7,0,0,0-.8-2.46l0,0c-.11-.17-.22-.39-.43-.45a17.33,17.33,0,0,0-1.9-.52,15.26,15.26,0,0,0-3.28-.37,2.28,2.28,0,0,1,.95.54A4.42,4.42,0,0,1,227,122a3.93,3.93,0,0,1-.18,2.54,2,2,0,0,1-.58.74,2.17,2.17,0,0,1-1.86.41,3.08,3.08,0,0,1-.95-.39,4.55,4.55,0,0,1-1.83-2.14,4.16,4.16,0,0,1-.26-1.25,3.41,3.41,0,0,1,.17-1.25,2.43,2.43,0,0,1,.5-.84,3.24,3.24,0,0,1,.76-.61C222.75,119.34,222.71,119.34,222.67,119.34Z"/> <path d="M261.45,127.45h.05a14.58,14.58,0,0,1,2-.19h0l.78,0a10.43,10.43,0,0,1,1.94.13l.65.06a24.08,24.08,0,0,1,2.63.43c.67.15,1.36.26,2,.39h0c.41.09.84.15,1.25.24a2,2,0,0,1,.63.28l.21.13h0a9.83,9.83,0,0,0,2.36,1,7.21,7.21,0,0,0,1.55.15h.28c.48,0,1,0,1.43,0,.88,0,1.79.05,2.69.11a7.92,7.92,0,0,1,3,.67,2.29,2.29,0,0,1,.76.69l0,0,0,0h0a3.09,3.09,0,0,0-1.4-1.4,5.59,5.59,0,0,0-1.68-.65,5.25,5.25,0,0,1,2.37.19,7.45,7.45,0,0,1,1.77.74,3.53,3.53,0,0,1,.6.41,6.45,6.45,0,0,0,.54.37h0l0,0v0a7.12,7.12,0,0,0-1.12-1.14,5.63,5.63,0,0,0-1.36-.84,3.69,3.69,0,0,0-.65-.24l-.22-.07h.65c.39,0,.82,0,1.23,0a7.06,7.06,0,0,1,3.06.86c.26.13.5.3.74.45h0a2.86,2.86,0,0,1,.3.22h0l0,0h0a4.76,4.76,0,0,0-2.11-1.79,6.08,6.08,0,0,0-1.49-.48l-.09,0a1.32,1.32,0,0,1-.32-.07,6.61,6.61,0,0,1,3.11.33,10.85,10.85,0,0,1,2.7,1.36l.21.11,0,0,0-.05a3.32,3.32,0,0,0-.82-.86,5.72,5.72,0,0,0-1-.6,7.22,7.22,0,0,0-1.52-.52s-.06,0-.1,0a14.32,14.32,0,0,1,2.85.34,10.36,10.36,0,0,1,3,1.12h0l0,0h0a6.06,6.06,0,0,0-2.47-1.68,4,4,0,0,0-.62-.15,2.25,2.25,0,0,1-.35-.09c.44,0,.87-.06,1.3-.11a11.17,11.17,0,0,1,2.65,0,7,7,0,0,1,.91.17h0l.28.07h0l0,0h0a5,5,0,0,1-.73-.46c-.09-.06-.22-.15-.33-.21a4.1,4.1,0,0,0-1.36-.61A4,4,0,0,0,293,126l.95-.37a12.94,12.94,0,0,1,3.46-1h0v0h0c-.05,0-.09,0-.13,0h0l-.15,0a5,5,0,0,0,2.41-1h0l0,0h0l-.17.06h0a5.32,5.32,0,0,1-1.19.3,5.22,5.22,0,0,0,1.47-.6,8.86,8.86,0,0,0,2.12-1.81v0l0,0h0a7.79,7.79,0,0,1-4,1.06c.22-.09.43-.22.63-.32h0a2.39,2.39,0,0,1,.21-.13c.07,0,.11-.07.18-.09h0a2.58,2.58,0,0,0,.49-.32h0l0,0h0a9,9,0,0,1-1.84.69.58.58,0,0,1-.19,0,1.83,1.83,0,0,1-.65.09,4,4,0,0,1,.76-.61l.08-.06,0,0h0a2.79,2.79,0,0,0-.8.34,3.81,3.81,0,0,1-.41.22.56.56,0,0,1-.49,0l-.2-.06a.65.65,0,0,0-.19,0,1.21,1.21,0,0,1-.32-.11,4.52,4.52,0,0,0,1.49-1h0l0,0h0a7.29,7.29,0,0,0-1,.48c-.15.09-.3.15-.45.24h0a1.06,1.06,0,0,1-.69.13l-1.06-.28a7.64,7.64,0,0,0,3.77-1.41,3.37,3.37,0,0,0,1.06-1.16h0l0,0h0a6.57,6.57,0,0,1-3.41,1.53.29.29,0,0,0,.11-.09,2.2,2.2,0,0,0,.34-.28l.05,0-.05,0a2.35,2.35,0,0,0-.54.24,1.72,1.72,0,0,1-.43.21,2.06,2.06,0,0,1-.56,0l-.26,0a3.5,3.5,0,0,0,1.25-.77h0l0,0h0a3.69,3.69,0,0,1-.49.24,4.14,4.14,0,0,1-1.32.5,2.79,2.79,0,0,1-.91,0,4,4,0,0,0,1.92-.93h0l0,0h0a4.94,4.94,0,0,1-1.85.69.07.07,0,0,1,.06,0,1.75,1.75,0,0,0,.43-.22,4,4,0,0,0,1-1h0l0,0h0a2.81,2.81,0,0,1-1,.52l-.13,0a3.86,3.86,0,0,1-1.55.26,5,5,0,0,0,2.2-1,2.52,2.52,0,0,0,.74-1.21v0h0a4,4,0,0,1-2,1.25,8.69,8.69,0,0,1-2,.26,6.56,6.56,0,0,0,.91-.61c.13-.11.28-.21.43-.32l0,0a3.61,3.61,0,0,0,1-.91v0l0,0h0a1.45,1.45,0,0,0-.19.17,3.59,3.59,0,0,1-.48.37,2,2,0,0,1,.22-.26,4.87,4.87,0,0,0,.47-.65v0l0,0h0a5.49,5.49,0,0,1-1.23.84,1.84,1.84,0,0,0,.41-.39v0l0,0h0a5,5,0,0,1-2.11,1,2.25,2.25,0,0,1-.22.05h0a1.49,1.49,0,0,1-.91,0,6.84,6.84,0,0,0,2.36-1.17h0l0,0h0a4.39,4.39,0,0,1-1.34.58,4.27,4.27,0,0,0,1.52-1.64h0l0,0v0a4.7,4.7,0,0,1-3.71,1.6,1.16,1.16,0,0,1-.37-.13,6.34,6.34,0,0,0,1-.56,5.23,5.23,0,0,0,1.83-2.29l0-.06,0,0a7.56,7.56,0,0,0-.78.82,6.75,6.75,0,0,1-1,1,7.21,7.21,0,0,1-1.53.79l-.29-.1a6.81,6.81,0,0,0,1.36-1.1,4.85,4.85,0,0,0,1-1.47v0l0,0h0l-.45.52a7.79,7.79,0,0,1-1.73,1.66s0,0-.06,0a.93.93,0,0,1-.67.17l-.13,0h0a4.91,4.91,0,0,0-.58-.18c.08-.06.17-.15.26-.21h0a6.43,6.43,0,0,0,1.4-1.45,5.75,5.75,0,0,0,.34-.65v0l0,0h0l-.39.46a7.94,7.94,0,0,1-1.38,1.4,1.69,1.69,0,0,1-.73.32c.06-.06.15-.11.21-.17a5.2,5.2,0,0,0,1.64-1.94h0l0,0v0c-.1.1-.19.21-.28.32a6.94,6.94,0,0,1-1.27,1.27,3,3,0,0,1-.78.33,5,5,0,0,0,.87-.76,5.21,5.21,0,0,0,.69-1v0l0,0h0a6,6,0,0,1-1.51,1.46,4.09,4.09,0,0,0,1-1.77h0l0,0v0a5.16,5.16,0,0,1-1.1,1.26,4.9,4.9,0,0,1-1.14.75.65.65,0,0,1-.19,0l-.07,0a.87.87,0,0,0,.28,0,4,4,0,0,0,1.17-.75,4.83,4.83,0,0,0,1.05-1.19,3.79,3.79,0,0,1-1.07,1.79l0,0a6.83,6.83,0,0,0,1.57-1.46,6.39,6.39,0,0,1-.62.88,5.4,5.4,0,0,1-.91.78v0a2.47,2.47,0,0,0,.84-.32,6.57,6.57,0,0,0,1.3-1.28l.23-.28a5.14,5.14,0,0,1-1.59,1.88,1.74,1.74,0,0,0-.24.22l0,0h0a1.53,1.53,0,0,0,.78-.35,7,7,0,0,0,1.38-1.4c.11-.15.24-.28.34-.41a2.66,2.66,0,0,1-.3.58,6.22,6.22,0,0,1-1.4,1.45h0a3.22,3.22,0,0,0-.28.24l0,0h0c.19,0,.41.11.6.17h0l.13,0a.77.77,0,0,0,.69-.17l.07,0a8.11,8.11,0,0,0,1.75-1.66,6.12,6.12,0,0,1,.41-.48,4.89,4.89,0,0,1-.95,1.4,6.75,6.75,0,0,1-1.36,1.1l0,0h0a2.08,2.08,0,0,1,.3.13h0a7.51,7.51,0,0,0,1.53-.8,6.82,6.82,0,0,0,1-1c.24-.26.47-.54.73-.78a3.84,3.84,0,0,1-.93,1.47,4.34,4.34,0,0,1-.88.76,6.57,6.57,0,0,1-1,.56l0,0h0a1.12,1.12,0,0,0,.39.13h.13a4.69,4.69,0,0,0,3.54-1.53,4.36,4.36,0,0,1-1.51,1.59v0a4,4,0,0,0,1.25-.5,7,7,0,0,1-2.22,1.06l0,0,0,0a1.2,1.2,0,0,0,.95,0h0a.65.65,0,0,0,.19,0,5,5,0,0,0,2.05-1,1.63,1.63,0,0,1-.43.38l0,0a4.11,4.11,0,0,0,1.3-.85,6.36,6.36,0,0,1-.43.59l-.26.32,0,0a3.49,3.49,0,0,0,.54-.41.69.69,0,0,1,.13-.11,3.61,3.61,0,0,1-.93.82l0,0c-.15.1-.28.21-.43.32a6.86,6.86,0,0,1-1,.63v0a8.07,8.07,0,0,0,2-.26,4.26,4.26,0,0,0,2-1.23,2.54,2.54,0,0,1-.71,1.14,5.07,5.07,0,0,1-2.27,1v0a3.58,3.58,0,0,0,1.64-.25l.11,0a3.37,3.37,0,0,0,.95-.47,4.25,4.25,0,0,1-1,.9,1.08,1.08,0,0,1-.44.22l-.17.06v0a5.49,5.49,0,0,0,1.9-.65,4,4,0,0,1-1.9.86v0a2.86,2.86,0,0,0,1,0,4.91,4.91,0,0,0,1.32-.52l.45-.22a3.65,3.65,0,0,1-1.25.78v0h.33a1.89,1.89,0,0,0,.58,0,1.25,1.25,0,0,0,.43-.22,1.52,1.52,0,0,1,.5-.23,2.66,2.66,0,0,1-.31.26s-.1.06-.15.1l0,0h0a6.5,6.5,0,0,0,3.43-1.52,3.46,3.46,0,0,1-1,1.11,7.86,7.86,0,0,1-3.82,1.4v0c.35.11.69.19,1.12.3a1.07,1.07,0,0,0,.71-.13h0l.45-.24.93-.45a4.39,4.39,0,0,1-1.47,1h0l0,0a.6.6,0,0,0,.35.13,1.8,1.8,0,0,1,.19,0l.17.06a.63.63,0,0,0,.52,0,4,4,0,0,0,.41-.21,3.41,3.41,0,0,1,.73-.33l0,0a4.34,4.34,0,0,0-.78.62l0,0h0a1.37,1.37,0,0,0,.67-.08.49.49,0,0,1,.2,0,10.55,10.55,0,0,0,1.77-.64l-.41.25h0a1.51,1.51,0,0,1-.18.09l-.21.13h0c-.22.11-.45.24-.69.35v0a8.08,8.08,0,0,0,4-1,8.73,8.73,0,0,1-2.07,1.77,5.9,5.9,0,0,1-1.62.65v0a4.61,4.61,0,0,0,1.34-.32h0a.54.54,0,0,0,.11,0,5,5,0,0,1-2.42,1v0l.24,0h.06a13,13,0,0,0-3.38,1l-1.06.41v0a4.11,4.11,0,0,1,1.44.05,3.87,3.87,0,0,1,1.36.6l.33.22a4.34,4.34,0,0,0,.64.41.84.84,0,0,1-.17,0h0a7.12,7.12,0,0,0-.9-.17,11.25,11.25,0,0,0-2.66,0c-.45,0-.93.09-1.4.11v0a2.55,2.55,0,0,0,.43.09,4.78,4.78,0,0,1,.6.15,5.91,5.91,0,0,1,2.42,1.62,11,11,0,0,0-2.91-1.1,14.22,14.22,0,0,0-2.92-.35h0l0,0,.15.06a6.85,6.85,0,0,1,1.52.52,5.5,5.5,0,0,1,1,.6,3.44,3.44,0,0,1,.8.82l-.17-.08a10.22,10.22,0,0,0-2.7-1.36,6.81,6.81,0,0,0-3.2-.3v0a2.7,2.7,0,0,1,.39.08c.05,0,.07,0,.09,0a5.55,5.55,0,0,1,1.49.48,5,5,0,0,1,2.09,1.75l-.26-.18h0a7.49,7.49,0,0,0-.73-.45,7.16,7.16,0,0,0-3.07-.86c-.41,0-.82,0-1.23,0h-.73v0l.28.08.67.24a6.1,6.1,0,0,1,1.36.84,7,7,0,0,1,1.08,1.1,5.85,5.85,0,0,1-.48-.34c-.19-.13-.38-.28-.6-.41a7.42,7.42,0,0,0-1.77-.73,5.64,5.64,0,0,0-1.66-.24,3.5,3.5,0,0,0-.8.08v0a6,6,0,0,1,1.75.64,3.21,3.21,0,0,1,1.36,1.32,2.89,2.89,0,0,0-.72-.63,8.42,8.42,0,0,0-3-.67c-.9-.06-1.81-.08-2.69-.1l-1.43,0h-.28a8.07,8.07,0,0,1-1.55-.16,9.78,9.78,0,0,1-2.33-1h0l-.19-.11a1.79,1.79,0,0,0-.63-.28c-.43-.08-.84-.17-1.25-.23h0c-.67-.11-1.34-.24-2-.39s-1.72-.35-2.63-.43l-.65-.07a15.8,15.8,0,0,0-1.94-.13l-.78,0h0a16.27,16.27,0,0,0-2,.2,1,1,0,0,1,.24-.22A1.15,1.15,0,0,0,262,127l0,0h0l-.26.08-.19.07a4.78,4.78,0,0,1,1.14-1.26l.33-.32a4.13,4.13,0,0,0,.36-.37l.78-.86q.28-.36.6-.69a14.61,14.61,0,0,1,1.6-1.49,23.24,23.24,0,0,1,2.74-1.94c.89-.52,1.82-1,2.85-1.47s1.9-.75,3-1.12c.17-.07.39-.11.56-.17a6.11,6.11,0,0,0,1-.37s.06,0,.09,0l-.13,0a5.62,5.62,0,0,1-1,.34,4.59,4.59,0,0,0-.56.18c-1.1.36-2.09.73-3,1.12a22.37,22.37,0,0,0-2.85,1.47,25.84,25.84,0,0,0-2.74,1.94,14.61,14.61,0,0,0-1.6,1.49,8,8,0,0,0-.6.69,8,8,0,0,1-.78.86,4.13,4.13,0,0,0-.36.37l-.33.32a5.07,5.07,0,0,0-1.16,1.27l0,0,0,0a1.89,1.89,0,0,0,.21-.09.6.6,0,0,0,.22-.09,1.57,1.57,0,0,1-.19.18,1.07,1.07,0,0,0-.26.26Z"/> <path d="M277.29,116.7l.16-.06h-.05s-.06,0-.08,0h0a.28.28,0,0,1-.13,0l-.17.11A.89.89,0,0,0,277.29,116.7Z"/> <path class="cls-8" d="M261.56,127.43a14.58,14.58,0,0,1,2-.19,6.78,6.78,0,0,0,.77,0,12.4,12.4,0,0,1,1.94.13l.65.07a21.73,21.73,0,0,1,2.64.43c.66.15,1.36.26,2,.39.41.09.85.15,1.26.24a1.94,1.94,0,0,1,.62.28.93.93,0,0,0,.2.1h0a10.39,10.39,0,0,0,2.35,1,7.34,7.34,0,0,0,1.55.15h.29c.47,0,.94,0,1.42,0,.88,0,1.79,0,2.7.11a9.51,9.51,0,0,1,1.55.19,5.52,5.52,0,0,1,1.47.48,2.47,2.47,0,0,1,.75.69,3.15,3.15,0,0,0-1.4-1.38,6.36,6.36,0,0,0-1.77-.67h0a4.17,4.17,0,0,1,.8-.09,7,7,0,0,1,1.66.24,7.42,7.42,0,0,1,1.77.73,4.07,4.07,0,0,1,.61.41,4.74,4.74,0,0,0,.51.37,6.39,6.39,0,0,0-2.46-2,3.06,3.06,0,0,0-.66-.24c-.11,0-.2-.07-.31-.09h.74c.41,0,.82,0,1.25,0a9.71,9.71,0,0,1,1.57.26,6.38,6.38,0,0,1,1.49.61,6.3,6.3,0,0,1,.72.45l.3.19a4.94,4.94,0,0,0-2.12-1.77,5.19,5.19,0,0,0-1.49-.47s-.06,0-.08,0l-.39-.09h0a6.77,6.77,0,0,1,3.19.3,11,11,0,0,1,2.7,1.36,1,1,0,0,0,.2.11,4.19,4.19,0,0,0-1.84-1.44,8.51,8.51,0,0,0-1.51-.52.29.29,0,0,1-.17-.07h0a13.24,13.24,0,0,1,2.93.35,11,11,0,0,1,1.53.45,9,9,0,0,1,1.43.67,5.74,5.74,0,0,0-2.44-1.64,4.8,4.8,0,0,0-.63-.15,3.69,3.69,0,0,1-.45-.11h0a12.6,12.6,0,0,0,1.4-.11,11.26,11.26,0,0,1,2.66,0,7.63,7.63,0,0,1,.91.17l.25.07a5.84,5.84,0,0,1-.71-.43,2,2,0,0,0-.32-.22,3.85,3.85,0,0,0-2.85-.65h0l1.1-.41a13.62,13.62,0,0,1,3.43-1l-.13,0a1.14,1.14,0,0,0-.24-.05h0a5.42,5.42,0,0,0,2.49-1l-.18.06a4.57,4.57,0,0,1-1.38.33h0a5.38,5.38,0,0,0,1.66-.65,8.5,8.5,0,0,0,2.12-1.81,10.94,10.94,0,0,1-2,.8,7.55,7.55,0,0,1-2.12.26h0c.24-.11.48-.24.69-.35l.24-.13a1.63,1.63,0,0,0,.17-.11,2.3,2.3,0,0,0,.48-.3,9.19,9.19,0,0,1-1.84.69.65.65,0,0,1-.19,0,1.43,1.43,0,0,1-.67.09h0a3,3,0,0,1,.78-.63s0,0,.06,0a4.57,4.57,0,0,0-.78.33c-.13.06-.26.15-.41.21a.61.61,0,0,1-.51,0l-.18-.07a.65.65,0,0,0-.19,0,.72.72,0,0,1-.35-.13h0a4.52,4.52,0,0,0,1.49-1c-.32.13-.65.3-1,.45-.15.09-.3.15-.45.24h0a.86.86,0,0,1-.69.13l-1.13-.3h0a7.92,7.92,0,0,0,3.84-1.41,3,3,0,0,0,1-1.14,6.39,6.39,0,0,1-3.47,1.55h0a.7.7,0,0,1,.16-.1c.1-.09.23-.18.32-.28a1.9,1.9,0,0,0-.52.23,1.46,1.46,0,0,1-.43.22,1.88,1.88,0,0,1-.58,0l-.33,0h0a3.57,3.57,0,0,0,1.32-.82c-.17.09-.32.15-.48.24a4.07,4.07,0,0,1-1.31.49,2.25,2.25,0,0,1-1,0h0a4,4,0,0,0,2-.93,4.52,4.52,0,0,1-2,.69h0a1,1,0,0,0,.19-.08,1.75,1.75,0,0,0,.43-.22,4.69,4.69,0,0,0,1-1,3.51,3.51,0,0,1-1,.52.38.38,0,0,0-.13,0,3.54,3.54,0,0,1-1.64.26h0a5.24,5.24,0,0,0,2.29-1,2.37,2.37,0,0,0,.74-1.19,4,4,0,0,1-.91.78,3.7,3.7,0,0,1-1.12.47,8.78,8.78,0,0,1-2,.26h0a8,8,0,0,0,1-.62c.13-.11.28-.22.43-.33l0,0a3.72,3.72,0,0,0,1-.88,1.29,1.29,0,0,0-.17.15,3.07,3.07,0,0,1-.54.41h0l.26-.33a7,7,0,0,0,.45-.62,4.16,4.16,0,0,1-1.36.88h0a2.06,2.06,0,0,0,.5-.45,5.31,5.31,0,0,1-2.11,1l-.22,0a1.35,1.35,0,0,1-.95,0h0a6.8,6.8,0,0,0,2.35-1.17,4.08,4.08,0,0,1-1.38.59h0a4.24,4.24,0,0,0,1.56-1.67,3.83,3.83,0,0,1-.76.69,5.38,5.38,0,0,1-.91.52,4.81,4.81,0,0,1-1.92.39h-.13a1.78,1.78,0,0,1-.39-.13h0a5.8,5.8,0,0,0,1.9-1.34,3.8,3.8,0,0,0,.95-1.51,7.1,7.1,0,0,0-.75.8,8.51,8.51,0,0,1-1,1,7.51,7.51,0,0,1-1.53.8h0a.93.93,0,0,0-.32-.11h0a5.68,5.68,0,0,0,2.35-2.57c-.15.17-.3.34-.43.52a7.27,7.27,0,0,1-1.75,1.66l-.07,0a.87.87,0,0,1-.69.17.38.38,0,0,1-.13,0,4.73,4.73,0,0,0-.6-.17h0a3.15,3.15,0,0,1,.3-.24,6.6,6.6,0,0,0,1.4-1.44,5.69,5.69,0,0,0,.33-.65l-.39.45a7.32,7.32,0,0,1-1.38,1.4,1.59,1.59,0,0,1-.8.35h0l.26-.22a5.06,5.06,0,0,0,1.62-1.92l-.26.33a6.81,6.81,0,0,1-1.3,1.27,1.84,1.84,0,0,1-.86.32h0a5,5,0,0,0,1.62-1.77,6.67,6.67,0,0,1-1.66,1.56h0a3.86,3.86,0,0,0,1.12-1.88,5.55,5.55,0,0,1-1.1,1.25,4.08,4.08,0,0,1-1.17.76.57.57,0,0,1-.26,0,.39.39,0,0,1-.17,0c-.37,0-.73,0-1.12-.06a.11.11,0,0,0-.07,0h0l-.25,0a10,10,0,0,0-1.34,0c-.39,0-.8.11-1.19.17a.37.37,0,0,1-.11,0,.61.61,0,0,0-.23.11,1.19,1.19,0,0,1-.16.08,1,1,0,0,1-.28.11s0,0,0,0a5.55,5.55,0,0,1-1,.37,5.18,5.18,0,0,0-.56.17,28.42,28.42,0,0,0-5.85,2.59,21.7,21.7,0,0,0-2.74,1.94,13.61,13.61,0,0,0-1.59,1.49c-.22.24-.41.48-.61.69a9.37,9.37,0,0,1-.78.89l-.36.37-.33.32a5.38,5.38,0,0,0-1.14,1.27,1.19,1.19,0,0,0,.22-.08.84.84,0,0,1,.25-.09h0a1.2,1.2,0,0,1-.23.22C261.69,127.26,261.6,127.35,261.56,127.43Z"/> <path fill="#ffffff" d="M292.79,124a2.72,2.72,0,0,1-.78-.52,2.08,2.08,0,0,0-.49-.3.51.51,0,0,1-.18-.09c-.6-.3-1.2-.65-1.77-1l-1.14-.67h0a5.4,5.4,0,0,1-.71-.45,6.53,6.53,0,0,0-.71-.46,13.19,13.19,0,0,1-.8,3.35,12.4,12.4,0,0,1-1.32,2.63,9.88,9.88,0,0,1-1.36,1.49c2-.6,4.21-1.21,6.63-1.83.47-.13,1-.26,1.47-.41,1.33-.39,2.71-.76,4.12-1A7.29,7.29,0,0,1,292.79,124Z"/> <path fill="#ffffff" d="M267.45,122.38l-1.53,1.15c-.84.64-1.73,1.31-2.61,1.94a5.71,5.71,0,0,1,1.55-.54,5.64,5.64,0,0,1,1.69-.09,5.94,5.94,0,0,1,2.33.74c.58.32,1.14.66,1.7,1a19,19,0,0,0,3.84,2,4.9,4.9,0,0,1-1-.84,4.13,4.13,0,0,1-.73-1.1,6.6,6.6,0,0,1-.54-1.66,11.08,11.08,0,0,1-.22-1.75,10.56,10.56,0,0,1,0-1.81,5.84,5.84,0,0,1,.48-1.73A16.25,16.25,0,0,0,267.45,122.38Z"/> <path class="eyes0" d="M280.79,118.47a2.93,2.93,0,0,1,.78.61,2.4,2.4,0,0,1,.49.84,4,4,0,0,1,.18,1.25,4.29,4.29,0,0,1-.26,1.25,4.57,4.57,0,0,1-1.84,2.14,2.69,2.69,0,0,1-.95.39,2.29,2.29,0,0,1-1,0,2.13,2.13,0,0,1-.84-.41,1.89,1.89,0,0,1-.59-.73,4,4,0,0,1-.17-2.55,4.53,4.53,0,0,1,1.21-2.38,2.38,2.38,0,0,1,.95-.53,16.32,16.32,0,0,0-3.28.36,19.12,19.12,0,0,0-1.9.52c-.22.06-.32.28-.43.45l0,0a6.87,6.87,0,0,0-.8,2.47,9,9,0,0,0,.11,2.76,5.3,5.3,0,0,0,.79,2.07,3.43,3.43,0,0,0,1.82,1.27,1,1,0,0,1,.36.24l.29.2.12.06a1.68,1.68,0,0,0,.65.26h.13a19.46,19.46,0,0,0,2.16,0,17.5,17.5,0,0,0,2.2-.35,2.32,2.32,0,0,0,.93-.38,8.41,8.41,0,0,0,3.19-4c.05-.17.11-.34.16-.52a8.73,8.73,0,0,0,.28-1.12,5.63,5.63,0,0,0-.16-2.83.53.53,0,0,0-.28-.36,4.47,4.47,0,0,0-1.38-.54,16.93,16.93,0,0,0-2.07-.3c-.09,0-.15,0-.22,0a3.42,3.42,0,0,0-.45,0C280.88,118.47,280.83,118.5,280.79,118.47Z"/> </g> <g id="ears"> <path fill="#463532" d="M212.37,0c5.22,2.17,10.1,4.63,13.48,9.61,2.69,4,4.11,8.12,3.59,12.66-1.59,14.13-9.27,23-23.64,25.15-.29,0-.53.48-.79.74h-2.45c-.21-.9-.95-.82-1.6-.8-7.07.2-12-3.54-16-8.81-9-11.87-3-30.25,11.73-36.51,1.44-.61,3.14-.72,4.25-2ZM186.12,26.61c0,10.57,7.25,18.24,17.21,18.3C212.24,45,225.81,36.32,226,23c.15-11.43-10.23-18.25-18.35-18.42C196.67,4.33,185.16,15.65,186.12,26.61Z"/> <path fill="#463532" d="M303.89,0c4.64,2.06,9.39,3.8,13.15,7.53,11,11,10.32,26.9-1.85,36.54-4.86,3.85-18.41,4.67-25.74,0-8.1-5.13-12.15-12.32-13.26-21.41-1-8.19,3.25-15.71,12-20.53,1.39-.76,3.11-.86,4.22-2.15ZM298.1,4.76c-11,0-19,8.21-18.71,19.14.21,9.52,10,18.85,20.09,20.31,7.16,1,12.55-.87,16.6-6.54,4.92-6.9,4.74-14.33.79-21.48S306.69,4.74,298.1,4.76Z"/> <path class="ears0" d="M186.12,26.61c-1-11,10.55-22.28,21.5-22,8.12.17,18.5,7,18.35,18.42-.16,13.33-13.73,22-22.64,21.92C193.37,44.85,186.12,37.18,186.12,26.61Z"/> <path class="ears0" d="M298.1,4.76c8.59,0,14.78,4.19,18.77,11.43s4.13,14.58-.79,21.48c-4.05,5.67-9.44,7.58-16.6,6.54-10.05-1.46-19.88-10.79-20.09-20.31C279.15,13,287.14,4.79,298.1,4.76Z"/> </g></g>
          <g id="extraSVG0"><path transform="translate(185,315)" fill="#884d4b" d="M12.78,23.54a29.31,29.31,0,0,0-3.32-2.9,57.58,57.58,0,0,1-5.59-4.49A10.58,10.58,0,0,1,0,7.73,6.49,6.49,0,0,1,.58,4.44,7.65,7.65,0,0,1,4,.79,5.84,5.84,0,0,1,7.36,0a5.13,5.13,0,0,1,3.31.8,6.74,6.74,0,0,1,3,3.37l.17.68.43-.93c2.41-5.29,10.12-5.21,12.8.13a11.43,11.43,0,0,1,.19,7.35c-1,2.65-2.83,4.68-7.1,7.78a40.63,40.63,0,0,0-6.2,5.55C13.66,25.23,13.91,24.81,12.78,23.54Z"/></g>
          <g id="extraSVG1"><g transform="translate(233,150)"><polyline fill="#fff" stroke="#432918" stroke-miterlimit="10" points="32.01 6.9 29.89 10.39 27.75 6.29"/><path fill="#41302c" d="M2.8.18c2,3.34,4.83,5.78,8.74,4.61a31.06,31.06,0,0,1,9.33-1.41,12,12,0,0,1,5.14,1,6.59,6.59,0,0,0,8.32-1.81C35,1.73,35.73,1,36.44.18q3.42-.7,2.71,2.67C36,7,31.57,8.36,26.66,6.27a17.08,17.08,0,0,0-13.36-.2C8.22,8,3.89,7.18.08,3.39,0,1.46-.4-.63,2.8.18Z"/><path fill="#41302c" d="M17.45,10.87c-.07-1.72,1.29-1,2-1s2-.73,1.76,1Z"/></g></g>
          <g id="extraSVG2"/>
            <text id="copy" font-size="12px" fill="#1d1d1b" font-family="'Marck Script', cursive" font-style="italic" transform="translate(400,800) rotate(-90)">
              Artwork by Indigo White
            </text>
        </svg>