<?xml version="1.0" standalone="no"?>
<svg xmlns="http://www.w3.org/2000/svg" id="svg" width="800" height="1200" viewBox="0 0 800 1200">
          <defs id="svgDefs"><style id="svgStyle">.skins0 {fill:none; stroke:#000;} .skins1,.skins2,.ears0,.ears1,.ears2 {fill:none;}.skins0{fill: #ceb3c4} .skins1{fill: #8c5e78} .skins2{fill: none} .ears0{fill: #d8b89a} .ears1{fill: #dfc8b0} .ears2{fill: none} .eyes0{fill: #348e42} .eyes1{fill: none} .eyes2{fill: none} </style></defs>
          <g id="humanoid" class="skin"> <g id="skin"> <path class="skins0" d="M189.17,608.77H177.72c-4.53-.72-9.12-.87-13.67-1.4a9.39,9.39,0,0,1-7.6-5.26,42.26,42.26,0,0,1-4.35-13.51c-2.11-12.08-5.29-23.93-8.08-35.87-2.67-11.45-3.16-23.16-4.52-34.77-.89-7.61.39-14.58,2.46-21.66,1.43-4.89,1-10,1.66-15a49.43,49.43,0,0,1,2-9.57c4.15-12,8.15-24,13.66-35.43,7.74-16.11,16-31.92,25.72-46.89a143.43,143.43,0,0,0,9.27-17.28,35.74,35.74,0,0,0,3.47-14.62c.26-12.5-.55-25-.3-37.47.34-17.11-1-34.34,1.59-51.4a68.15,68.15,0,0,0,.33-13.47c-.27-5.57-3.5-7.12-8.26-4.19a16.29,16.29,0,0,0-3.27,2.44c-8.92,9.21-19.91,16.32-26.75,27.69a258.61,258.61,0,0,0-17.82,34.44c-4.74,11.46-9.54,22.9-13.71,34.57-6,16.82-15.51,31.42-26.88,45C88.92,411.5,74.9,427.7,63.52,445.88c-2.19,3.5-5.75,3.83-10.21-.35-.6-.57-.9-1.4-1.53-2v-1.64c2.15-9.1,7.14-17,10.65-25.54,5.91-14.37,11.15-29,16.79-43.46,5.45-14,12.08-27.4,23.55-37.81,6.27-5.69,9.82-13.33,13.3-20.9,10-21.92,18.24-44.65,29-66.28,4.47-9,9.55-17.75,14.16-26.71,5.3-10.27,14-13.81,24.93-13.63a52.71,52.71,0,0,0,27.64-7.5c5.62-3.24,7.87-8.39,8.07-14.68a6.53,6.53,0,0,0-3.83-6.62c-3.29-1.65-6.62-3.2-9.87-4.93-13.21-7-22.51-17.36-27.09-31.79a20.77,20.77,0,0,1-.6-9.67c.9-5.93,1.85-11.84,2.2-17.84a18.87,18.87,0,0,1,1.09-5.6c3.41-8.75,7.84-17,11.29-25.79.79-2,2.75-3.07,4.34-4.4h.82a60.06,60.06,0,0,1,6,4c5.06,4,11.07,4.51,17.09,3.81,3.67-.42,7.46-1,11.1-1.57,3.37-.57,7.63.25,11.48.71,5.39.65,10.83.46,16.25.9,3.68.3,7.09-1.62,10.07-4a21.35,21.35,0,0,1,3.1-2.31c2.38-1.29,3.93-.91,4.56,1.75.9,3.84,1.52,7.75,2.14,11.65,1,6.46,1.95,12.92,4.26,19.11a21.79,21.79,0,0,1,1.05,7.66c0,5.29-.49,10.63,1.3,15.81.61,1.75-.22,3.51-.71,5.19a50.91,50.91,0,0,1-23.1,30,125.42,125.42,0,0,1-13.44,6.93c-5.36,2.47-6.72,5.67-4.48,11.22,2.1,5.19,5.29,9.45,10.62,11.89,8,3.67,16.26,6.28,25.2,6a44.23,44.23,0,0,1,12.9,1.91c5.06,1.4,8.1,5.46,10.62,9.69,12.8,21.47,23.25,44.09,32.48,67.29,4,10,8.56,19.76,12.85,29.63a78.15,78.15,0,0,0,18.25,25.4A45.65,45.65,0,0,1,376.16,353c8.45,15.51,14,32.21,20.24,48.64,2.36,6.26,4.9,12.43,7.67,18.5,2.88,6.31,5.91,12.54,7.54,19.33v1.63c-1,1.42-1.64,3.09-3.38,4-3.74,2-5.91,1.66-8.35-1.82-7.69-10.91-15.58-21.67-24.15-31.92-7-8.35-14-16.69-20.69-25.3a134,134,0,0,1-20-36.34c-5.24-14.32-10.82-28.54-17.16-42.41-6-13.14-12.68-25.95-22.58-36.73q-1.95-2.11-4.05-4c-6.19-5.63-10.93-12.42-15.69-19.22-2.11-3-3.09-3-4.78.23-2.27,4.35-4.54,8.69-6.92,13-2.54,4.56-1.82,9.62-.9,14.4,1.1,5.71.76,11.33.69,17.05-.1,7.58-.12,15.26,1.75,22.73a34.49,34.49,0,0,1,1.05,10.11c-.53,11.32.83,22.58,1,33.88.11,9.75,4.94,18,9.65,26.15,5,8.6,10.71,16.76,15.41,25.54,6.52,12.16,11.16,25.1,15.2,38.2,2.7,8.72,6.54,17.05,8.56,26,1.43,6.37,3.53,12.59,4.58,19.05a7.37,7.37,0,0,0,.73,2.76c3.31,5.27,2.6,11.18,3.18,17,.8,8.12-.44,16-1.33,24-1.13,10-3.58,19.82-6.14,29.57-2.35,9-3.17,18.29-5.77,27.15-2.85,9.69-5.9,12.86-15.5,13.6-2.65.2-5.29.75-8,.73a2.07,2.07,0,0,0-1.52.41H270.13c-4.44-.74-8.94-1.18-13.4-1.63-6.73-.68-11.34-3.36-14-9.86s-3.51-13.4-4.41-20.28c-1.35-10.26-2.3-20.56-2.93-30.89-.56-9.45.78-18.84,2.69-28,1.71-8.24,1.19-16.2.26-24.34a114.4,114.4,0,0,1-.06-24c.7-7.35.14-14.71.49-22.06a3.52,3.52,0,0,0-4.15-4c-4.07.38-8.13.52-12.21.63-2.82.07-4.37,2-4.76,4.73a17.3,17.3,0,0,0,.4,6.49,111.36,111.36,0,0,1,3.35,30.78c-.36,8,1.43,15.59,3.5,23.27,4.67,17.3,4.9,35,3.1,52.71-.89,8.8-1.62,17.62-3.15,26.35a30.27,30.27,0,0,1-4.58,12.13c-3.46,5-9.13,5.87-14.65,6.71S194.64,608.05,189.17,608.77Z"/> </g> <g class="skins1"> <path d="M189,152.19c13.51-1.44,13.12-2.35,21.7-12.31,8.1-8,7.65-11.17,8.8-21.8l-11.87-9.43c-9.38-.48-14.63,4.07-21.73,8.89l-5.5,12.23C178.37,139.2,185,144.93,189,152.19Z"/> <path d="M276.36,531.74c-5.69-7.66-14.08-8.87-22.53-9.07l-5.45,6.15c.34,4.57,6.19,12.56,9,16C270.51,544.05,269.82,542.1,276.36,531.74Z"/> <path d="M195.59,418.12c9.21-2.48,13.42-9.85,16.7-17.63l-3.72-7.33c-4.37-1.36-13.95,1.15-18.16,2.5C186.29,408.16,188.36,408.23,195.59,418.12Z"/> <path d="M277.41,418.06c-8.84,3.62-12.09,11.45-14.38,19.58l4.61,6.8c4.51.81,13.7-2.87,17.7-4.74C287.88,426.78,285.82,427,277.41,418.06Z"/> <path d="M294,594c-9.2-2.55-16.57,1.65-23.35,6.68l-.52,8.2c3.07,3.4,12.59,6.11,16.9,7.09C296.92,607.34,295.17,606.23,294,594Z"/> <path d="M204.58,560.33c-5.69-7.66-14.09-8.87-22.53-9.07l-5.45,6.15c.33,4.57,6.18,12.56,9,16C198.72,572.64,198,570.69,204.58,560.33Z"/> <path d="M162.17,595.48c3.57-3.16,3.82-7.4,3.56-11.61l-3.3-2.45c-2.26.36-6,3.61-7.58,5.15C155.79,593.09,156.73,592.66,162.17,595.48Z"/> <path d="M263.37,335c-5.69-7.66-14.08-8.87-22.53-9.07l-5.45,6.15c.34,4.57,6.19,12.56,9,16C257.52,347.34,256.83,345.39,263.37,335Z"/> <path d="M165.77,514c-5.7-7.66-14.09-8.88-22.54-9.08l-5.45,6.16c.34,4.56,6.19,12.56,9,16C159.91,526.31,159.22,524.36,165.77,514Z"/> <path d="M224.34,530c-2.85-3.83-7.05-4.44-11.27-4.54l-2.72,3.08c.16,2.28,3.09,6.28,4.49,8C221.41,536.11,221.06,535.14,224.34,530Z"/> <path d="M268.72,393.29c-2.84-3.83-7-4.44-11.26-4.54l-2.73,3.08c.17,2.28,3.09,6.28,4.49,8C265.8,399.44,265.45,398.47,268.72,393.29Z"/> <path d="M217.34,346.29c-2.85-3.83-7-4.44-11.26-4.54l-2.73,3.08c.17,2.28,3.09,6.28,4.49,8C214.41,352.44,214.07,351.47,217.34,346.29Z"/> <path d="M119.94,362c-2.85-3.83-7-4.44-11.27-4.53L106,360.51c.17,2.29,3.09,6.28,4.49,8C117,368.12,116.67,367.15,119.94,362Z"/> <path d="M143.24,305.65c2.59-5,2.19-5.1.69-10.35-.92-4.63-2.13-5.21-5.56-8l-6,2c-2.31,3.15-1.94,6-1.89,9.58l3,4.7C136.3,306.38,139.8,305.39,143.24,305.65Z"/> <path d="M360.71,382.05c2.59-5,2.18-5.09.68-10.34-.92-4.63-2.13-5.21-5.55-8l-6,2c-2.31,3.15-1.93,6-1.88,9.58l3,4.7C353.77,382.79,357.26,381.8,360.71,382.05Z"/> <path d="M221.32,262.39c2.58-5,2.18-5.09.68-10.34-.92-4.64-2.13-5.21-5.56-8l-6,2c-2.31,3.14-1.93,6-1.88,9.57l3,4.71C214.37,263.13,217.87,262.14,221.32,262.39Z"/> <path d="M318.51,280.78c2.58-5,2.18-5.1.68-10.35-.92-4.63-2.13-5.21-5.56-8l-6,2c-2.31,3.15-1.93,6-1.88,9.58l3,4.7C311.56,281.51,315.06,280.52,318.51,280.78Z"/> <path d="M260.21,219.05c-2.85-3.83-7-4.43-11.27-4.53l-2.72,3.07c.17,2.29,3.09,6.28,4.49,8C257.28,225.21,256.94,224.23,260.21,219.05Z"/> <path d="M81.71,397.67c-2.84-3.83-7-4.44-11.26-4.54l-2.73,3.08c.17,2.28,3.09,6.28,4.49,8C78.79,403.82,78.44,402.85,81.71,397.67Z"/> <path d="M351.68,325c-2.85-3.83-7.05-4.43-11.27-4.53l-2.72,3.07c.16,2.29,3.09,6.28,4.49,8C348.75,331.12,348.4,330.14,351.68,325Z"/> <path d="M296.17,231.38c1.57-2.87,2.1-11.59,2.29-14.84l-7.1,2.12,1.41,9.69Z"/> <path d="M269.21,154.15c-2.85-3.83-7-4.44-11.27-4.54l-2.72,3.08c.16,2.28,3.09,6.28,4.49,8C266.28,160.3,265.93,159.33,269.21,154.15Z"/> <path d="M174.32,217.76c-2.85-3.83-7-4.44-11.27-4.53l-2.72,3.07c.16,2.29,3.09,6.28,4.49,8C171.39,223.91,171,222.94,174.32,217.76Z"/> <path d="M416,439.88c-2.84-3.83-7-4.44-11.26-4.54L402,438.42c.17,2.28,3.09,6.28,4.49,8C413,446,412.7,445.06,416,439.88Z"/> <path d="M225.42,201c-2.84-3.83-7-4.43-11.26-4.53l-2.73,3.07c.17,2.29,3.1,6.28,4.49,8C222.5,207.2,222.15,206.22,225.42,201Z"/> <path d="M224.34,437.42c-2.85-3.83-7.05-4.44-11.27-4.54L210.35,436c.16,2.28,3.09,6.28,4.49,8C221.41,443.57,221.06,442.59,224.34,437.42Z"/> <path d="M308.39,563.61c-2.85-3.83-7.05-4.43-11.27-4.53l-2.72,3.07c.16,2.29,3.09,6.28,4.49,8C305.46,569.77,305.11,568.79,308.39,563.61Z"/> </g> <g id="outline"> <path fill="#6b6f61" d="M325.36,499.63c2.16,24.07-1.4,47.44-8.18,70.5-2.1,7.14-3,14.62-4.51,21.94a2.84,2.84,0,0,1-.16.8c-5.59,8.67-4.21,18.75-5.79,28.24-1.61,9.65-3.39,19.29-5.44,28.85-3.09,14.47-6.41,28.9-9.78,43.32-5.21,22.31-3.94,44.4.91,66.67,3.55,16.32,6.25,32.82,6.61,49.68.47,22.58-2.65,44.79-5.49,67.06-2.72,21.32-7.18,42.49-6.46,64.14.52,15.78,1.47,31.55,2.33,47.32.23,4.15,2.29,7.8,3.71,11.62,2.69,7.28,5.2,14.57,6,22.4,1,9.4-2.38,16.74-10.72,21-6.66,3.4-13.53,6.24-21.1,7.27-11.16,1.52-22-8.43-22.29-20.88-.2-8.44,1.82-16.53,4.88-24.25a55.1,55.1,0,0,0,3.94-24.71c-.54-7.39.78-14.56,2.18-21.82A207.94,207.94,0,0,0,258.35,899c-2.68-27.53-10.15-54.21-13.87-81.55-3.13-23.05-4.06-46.1-.64-69.2,2.53-17.08,2.13-34.2.76-51.34-.39-4.88-.17-9.81-.41-14.7-1-20.12-2.2-40.24-3-60.37A54.15,54.15,0,0,1,242.9,605a5.34,5.34,0,0,0,0-4c-7-13.57-7.09-28.52-8.71-43.17a130.59,130.59,0,0,1,4.38-49.61c-1.11-1.3-1.92,1.25-2.92-.17,0-.05-.17-.37-.08-.5a11.43,11.43,0,0,1,1.31-1.55c1.6-1.51,3.72-3.41,2.7-5.42-.83-1.62-3.42-.14-5.19.08-3.83.49-7.53-.32-11.15-1-.84,1.07,0,1.62.41,2.23.84,1.15,3,2.18.22,3.6-.16.09.18,1.24.37,1.87,6.19,19.91,6.08,40.19,3.83,60.66-1.22,11-2.59,22-7.07,32.33-1,2.33.87,3.75,1,5.7.64,12.11-.42,24.17-1.09,36.23-.48,8.7-.95,17.4-1.33,26.1-.75,17.41-1.3,34.83-2.22,52.23-.53,10,1.39,19.79,2.47,29.63A280.83,280.83,0,0,1,221,796.3c-.8,14.39-3.18,28.64-5.81,42.82-4,21.5-9,42.78-10.63,64.71a209.28,209.28,0,0,0,4,61.27,44.6,44.6,0,0,1,.87,15.45c-1,7.77.31,15.12,3.07,22.38,3.36,8.8,5.81,17.79,5.49,27.4-.43,12.67-11.15,21.45-23.71,19.72-7.07-1-13.32-3.88-19.47-7-8.77-4.39-12.4-12.53-10.68-22.21,1.07-6,2.38-12.08,5-17.59,3.57-7.43,4.79-15.32,5.19-23.33,1.13-22.7,3.37-45.42.25-68.14-2.59-18.87-5.52-37.71-7.8-56.62-2.61-21.8-4.35-43.71-1.19-65.6q2.79-19.36,6.84-38.54c4.53-21.37,3.1-42.38-2.07-63.41-4.67-19-8.85-38.12-12.12-57.42a61.28,61.28,0,0,1-.24-19.86c.27-1.77.78-3.89-1-5.36-4.38-3.66-5.7-8.72-6.64-14-2.27-12.69-5.55-25.16-8.57-37.69a145.66,145.66,0,0,1-4.45-38c.06-2.11,1.47-5.43-2.88-5.58-.86,0-.29-1-.11-1.27,2.76-4.32,1.62-9.28,2.1-13.9,1.81-17.45,7.65-33.59,14.58-49.53,1.65-3.77.94-8.51,3.15-12.37,1.33-2.31,1.35-5.71,5.41-5.58,1.57.05.73-1.71.93-2.65.35-1.67-1.1-4.1,2.71-4,1.18,0,2.26-3.51,3.27-5.39,7.61-14.16,17-27.25,24.7-41.35,3.91-7.15,4.42-14.77,5-22.45,1.1-15.31-.76-30.45-3.2-45.52-.17-1.08-.35-2.15-.55-3.22-.82-4.47-1.79-8.34-6.14-11.46-9.72-7-10-17.32-7.61-29A173.46,173.46,0,0,0,164,280c-11.86,17.16-19.48,36.38-27.17,55.59-6.46,16.13-11.54,32.92-22.17,47.11-8.74,11.67-18,22.9-27.48,34-8.93,10.47-16.49,22-24.79,32.91,7.1,5,7.56,6.32,2.37,13.23a15.74,15.74,0,0,0-3.19,10.83c.2,4.91-1.13,9.65-2.48,14.31-.65,2.27-.89,4,.89,5.92a5.07,5.07,0,0,1,0,7.34,5.56,5.56,0,0,0-1.47,5.14,7.65,7.65,0,0,1-4.21,8.49A4,4,0,0,0,51.84,519c.09,6.38-2.42,9-8.81,8.93a8.44,8.44,0,0,0-6.61,2.78c-4.74,4.61-10.92,3.79-16.52,2.27C9.49,530.14,4.51,522.08,1.71,512.29c-5.58-19.51,3-44.74,19.09-56.09,1.65-1.16,3.4-2.5,5.29-2.94,4.72-1.1,7-4.13,8.68-8.43,1.31-3.43,3.08-6.92,8-3.87,1.93,1.2,2.69-.93,3.54-2.31,7.61-12.51,13-26,18.21-39.63,6-15.62,11.28-31.5,19.2-46.33a65,65,0,0,1,11.65-16.16,93.32,93.32,0,0,0,19.48-28.46c11-24.25,21-49,32.69-72.9a106.49,106.49,0,0,1,7.83-13.84c.7-1,1.28-1.84.54-3.28-3.63-7.1-3.15-14.71-2.17-22.26,1.57-12.11,1.54-24-3-35.64a18.92,18.92,0,0,0-.8-1.84c-.09-.19-.36-.29-1-.73,1.22,12.36-3.53,23.17-7.21,34.21a11.5,11.5,0,0,1-.49,1.54c-.45.92-.52,2.45-1.91,2.28-1.62-.21-.89-1.74-.9-2.67-.07-3.67.66-7.28.92-10.94,1.06-15.17-2-29.6-7.07-43.73-.64-1.78-1.62-3.47-1.28-5.46,2.17-.07,2,1.84,2.54,3.09a112.66,112.66,0,0,1,8.14,49.2c-.76.52-1.05,1.12-.17,2.09l.16-2.1c4.59-9.33,6.06-19.27,5.74-29.56,0-1-.6-2.46.91-2.73.94-.17,1.55,1,2.09,1.74a11.93,11.93,0,0,1,1,1.79c5.33,11.59,6,23.75,4.52,36.2-.42,3.56-.54,7.17-.8,10.76l1.11.12c.58-9.46,4.19-17.78,9-25.73,1.36-2.23,1.83-1.3,2.58.06,1.24,2.23,2.37,4.51,3.66,7,.24-.57.44-.81.41-1a73.19,73.19,0,0,1,1.52-34.58,6.11,6.11,0,0,0-.9-5,40.73,40.73,0,0,1-4.78-12.47c-3-13.76-5.64-27.56-7.95-41.44a104.21,104.21,0,0,1-.66-26.85c1.22-13.14,8-24.55,13.34-36.37a2.52,2.52,0,0,1,2.93-1.61c1.23.4.57,1.76.21,2.74-2.05,5.74-4.93,11.11-7.49,16.62-5.94,12.8-6.47,26.29-5.67,40.15.52,8.87,2.6,17.38,3.88,26.07.85,5.73,2.45,11.35,3.68,17,.44,2,1.72,3.41,3.67,3,2.2-.5.34-2.45.63-3.72.23-1-.42-2.12-.41-3.18.06-4-1.49-8-.42-13.06,4.79,7.07,2.46,15.29,6.52,21.77,1.22-1.25.88-2.25.93-3.15.35-6.51-.39-13,.67-19.55.78-4.86,5.83-8,4.82-13.44-.05-.28.68-1,1.05-1,1,0,1.27,1,1.48,1.69,1,3.45,3.17,6.11,5.77,8.75-6.31-20.92.9-39.18,10.14-57,1,1.5.24,2.66-.27,3.89-1.78,4.26-4,8.32-5.28,12.8-2.8,10.12,1.78,18.21,11.86,20.87,1.89.5,3.44,1.06,2.72-2.28a24.51,24.51,0,0,1-.08-9.35c.57-3.1.16-6.75,3.1-9.24,1,1,.22,1.7.12,2.43-.74,5.18-2.74,10.25-1.07,15.64,1.37,4.42,2.33,4.85,5.8,1.9,1.28-1.08,2.54-1.68,3.12.24.9,2.93,2.14,1,3.2.41,1.64-.93,3.48-2.91,5.12-1.63,2.57,2,4.59,2.27,7,.17.69-.59,1.86-.52,2.12.29.67,2.07,2.28.24,3.19,1l.45.36-.4-.41c.1-2.72,1-3.08,3.18-1.36,3,2.39,5,2,6.83-1.46,2.68-5,1.53-10-.56-14.88-.33-.77-1.87-1.44-.79-2.33,1.25-1,2,.43,2.43,1.29a27,27,0,0,1,1.91,4.46c1.73,5.21,1,10.21-2.15,15.19,2.12-.37,3.57-.68,5-.88,6.68-.91,10.65-5.27,11.15-11.94.58-7.53-2.36-13.8-6.71-19.59-2-2.69-4.24-5.21-6.37-7.81l1.59-.65c17.34,17.05,19.42,38,14.31,60.8,1.45-.47,2.38-2.65,4.19-1.81s.93,2.89,1.08,4.41-.54,3.59,2.59,3c1.64-.34,1.52,1.53,1.52,2.73,0,3.54-.05,7.08-.05,10.62,0,.81.07,1.72,1.14,1.87s1.49-.69,1.69-1.45c.77-2.87,1.33-5.8,2.14-8.66.77-2.71.66-5.78,3.27-8.66-.1,4.83-1.7,8.65-2.12,12.63-.2,2-2.64,5-.3,5.72,2.85.84,3.31-2.9,4.08-5.09,6.61-18.86,11-38.1,8.05-58.23-1.43-9.82-2.21-19.89-7.66-28.71a8.62,8.62,0,0,1-1.23-5.88c.17-1,.54-1.93,1.72-1.88.91,0,1.31.8,1.5,1.67.37,1.71.32,3.74,1.25,5.07,6,8.66,6.74,18.88,7.55,28.67a135.34,135.34,0,0,1-3.42,43.26c-1.68,6.95-6.25,13.37-4.56,21.07.22,1-.66,1.72-1.32,2.42-4.84,5.16-7.27,11.74-10.48,17.86a6.52,6.52,0,0,0-.21,4.4c1.49,7.72,3,15.42,1.5,23.36-.51,2.71-.51,5.51-.83,9.4,1.68-3.23,2.81-5.51,4.05-7.73.47-.84,1.4-2.46,2.22-.77,2.58,5.35,6.33,10.17,7.56,16.15.71,3.41,1.46,6.82,2.19,10.23a38.89,38.89,0,0,0,0-10.45c-1.55-12.57-.94-24.87,4.51-36.56.68-1.46,1.45-3.77,3-3.44,1.9.41.91,2.8.89,4.27-.14,9.74,1.43,19.11,5.77,27.91.05.64.1,1.27.16,2.1.88-1,.58-1.57-.17-2.09a114,114,0,0,1,10.52-54.78c7.64,5.93,6.48,14.23,7,22.09a15.25,15.25,0,0,0,1.3-3.31,139.87,139.87,0,0,0,5.68-45.83A78.15,78.15,0,0,0,333.07,70a5.21,5.21,0,0,1,0-5.39c7.15,6.64,12.43,13.85,14.59,23.94,2.1-31.46-7.13-57.21-32.46-76.31l2.88-1a5.52,5.52,0,0,0-.79-1.1C306.12,1.5,285.41-2.06,272.77,12c-3.07,3.42-6.55,4.24-10.81,3.08a31.61,31.61,0,0,0-16.1.12c-5.12,1.26-10.66,1.39-15.18-1-8.49-4.5-16.54-3-24.59.26-7.3,2.94-14,1.45-19.74-2.88C171,.09,155.07,1.93,142.74,9.87c-2.58,1.66-2.6,2.55.57,3.26C118.25,32.31,108.79,57.33,111,88.52c2.83-10.21,9.64-20.36,16.45-22.88-6.36,14.33-10.55,28.18-10.27,43.12a145.32,145.32,0,0,0,7.06,43.6c1-16.4,2-19.39,7.8-21.48l-.9,2c-4.56,3.11-4.35,8.16-4.76,12.71-.68,7.37,1.66,14.4,3.4,21.48.43,1.74,2.65,4.34.25,5.25-1.57.59-1.72-2.73-2.35-4.37-3.72-9.67-7.58-19.26-9.66-29.5-4.29-21.18-4.8-42.12,2.72-62.75.58-.42.88-1.14.41-1.56-.72-.65-.87.31-1.18.72-5,5.27-6.76,11.85-7.57,18.79-.15,1.25-.12,2.84-1.47,3-1.63.19-1.64-1.64-1.74-2.7-1.74-19.6-.1-38.65,9.51-56.33,3.52-6.48,8.63-11.8,12.8-17.78,3-4.3,5.93-8.45,10.1-11.77,10.59-8.42,32.14-9.74,41.91-1.17,7,6.12,15.1,7.54,24.17,2.78,6.34-3.32,13.53-2.34,20,.69A29.35,29.35,0,0,0,248.61,12a23.81,23.81,0,0,1,13.27.51c3.52,1.09,6.07-.12,8.42-2.4C277.92,2.76,286.91-1,297.59.23c12.08,1.4,22,6,28.32,17.38,2.42,4.3,6.28,8.09,9.41,12.15,7.68,10,11.3,21.58,13.47,33.84,1.66,9.35,1.25,18.66.73,28a13.19,13.19,0,0,1-.45,2.8c-.16.59-.26,1.46-1.14,1.46s-1.4-.86-1.56-1.61c-.4-2-.62-4-.95-6-1.05-6.48-4.48-11.74-8.69-16.62a137.68,137.68,0,0,1,5.73,21.29c1.91,10.72,1.35,21.35.25,32.05-1.59,15.35-6.79,29.67-12.28,43.9-.38,1-.22,3.27-2.13,2.62-1.67-.57-.29-2.16-.05-3.21,1.27-5.5,3-10.89,3.78-16.51a35.22,35.22,0,0,0-1.51-16c-.43-1.33-1-2.83-2.58-3.33-2.95,8.4-5.87,16.76-7.44,25.51a98.89,98.89,0,0,0-.66,30.81c.27,2,1.3,5.29-.62,5.79-2.27.59-2.24-2.83-2.8-4.58-2.36-7.41-5.45-14.59-6.61-22.4-.52-3.53,0-7-.61-11-3.08,5-3.61,10.39-4.65,15.57-1.62,8.15-.33,16.18.65,24.27a53,53,0,0,1-1,17.88,3.38,3.38,0,0,0,.66,3.26c8.68,11,13.87,23.95,19.52,36.61,8.7,19.48,17.13,39.08,26.05,58.45,3.35,7.29,7.64,14.4,13.52,19.83,13.1,12.11,19.77,27.82,26.07,43.8,7,17.84,13,36.09,21.68,53.27,1,2,2.08,3.83,3.12,5.74,1.27,2.35,2.22,4.68,5.76,2.33,1.7-1.14,3.36.69,4.41,2.39,1.64,2.66,10,10.46,12.57,12.08,12.85,8,19.47,20.15,22.29,34.53,2,10.29,1.66,20.53-3.13,30.21C451.35,527.63,443,532.31,431,531.12c-1.46-.14-3.5-.19-4.22-1.11-3.16-4-7.43-4.48-12-5.07-3.76-.47-5.93-3.25-5.58-7.27.23-2.56-.14-4.54-2.83-5.54-.6-.22-1-.86-1.58-1.27-3.79-2.9-.51-7.82-2.56-10.5-2.87-3.74-3.29-6.53-.29-10a3.3,3.3,0,0,0,.51-3.44,54.16,54.16,0,0,1-3-20.35,5,5,0,0,0-1.4-3.63,51.67,51.67,0,0,1-3.79-5.77c-2.16-3.5-1.7-6.54,2.12-8.37,2.58-1.25,2-2.29.74-4.2-11.36-16.88-24.65-32.25-37.64-47.84a159.8,159.8,0,0,1-28.07-48c-7-19.15-14.25-38.24-24.33-56.08a145.15,145.15,0,0,0-22.27-30.27c.37,3.21.75,5.74.93,8.29.67,9.55-3.07,17-11.07,22.18a5.62,5.62,0,0,0-2.75,3.75c-4.33,21.19-6.27,42.52-4.15,64.13.81,8.17,5.21,14.84,9.21,21.56,7,11.8,14.75,23.19,21,35.47.41.81.53,2.3,2.19,1.42a1.17,1.17,0,0,1,1.62.82c1.16,5.25,5.86,8.36,7.8,13.11.24.61,1.13,1.39.58,1.78-3.69,2.61-.26,4.42.67,6.45a194.07,194.07,0,0,1,15,47.37c.57,3.25-.65,6.75,2,9.76.72.81-1.22.43-1.91.67l-.62-.45ZM277.63,227.71c2-4.84,2.6-10.05,3.91-15.07.21-.82,2-2.4-.3-2.81-1.59-.28-1.92,1.43-1.92,2.55,0,5.14-1.81,10-1.9,15.16-1,.85-.53,2.14-.91,3.18-4.1,13.61-9.15,26.74-19,37.43-13.88,15.11-32.43,17.76-47.92,2.43-10.45-10.34-15.31-23.5-18.81-37.36-1.8-7.14-2.12-14.48-3.15-21.72-.14-1-.21-2.06-1.62-1.73-1,.25-.94,1.25-.83,2,.34,2.41.72,4.81,1.19,7.2,2.63,13.18,2.42,26.1-3.08,38.68a30.89,30.89,0,0,0-2.17,16.8c1.46,10.16,9,14.21,17.74,16.87,6.85,2.09,13.37-.46,20-1.41,0,1.28-1,1.6-1.71,2.13-6.23,4.69-13.43,4.82-20.7,4.12-2.24-.22-2.62.05-2,2.21,1.6,5.27,1.39,11,4.16,16.11,1.11-1.48,2-3,3.23-4.27,1.83-2,3.4-2.81,6.81-2.1,4.45.93,5.86,4.26,8.16,6.74,2.66,2.86,4.1,2.46,6.07-.33,3.49-5,8.62-4.88,13.88-4.32a1.9,1.9,0,0,1,1.82,1.87c.08,2.47,1.72,3.38,3.55,4.43a9.71,9.71,0,0,1,4.18,5.37c1.84,5.06,4.92,8.93,10.12,11,2,.79,3.58,1.15,4.66-1.21,1-2.13,2.07-2.11,3.07.29.25-3.63.29-6.9.73-10.11,1.13-8.47,2.44-16.92,3.67-25.38l.27-.52-.54.25c-3.5.06-7,.37-10.49.13-4.72-.32-9.25-1.46-12.51-5.36.11-.15.23-.29.35-.44,3.07.42,6.14.88,9.22,1.26,14.73,1.82,32.2-8.68,26.41-28.76-3-10.38-7.86-20.61-4.43-31.93C277.83,230.09,277.42,228.84,277.63,227.71ZM423.14,514c-2.73.11-5.7,2.1-8.09-.51-2.62-2.84-2.89-.5-3.3,1.35a10.12,10.12,0,0,0,0,3.25c.42,3.89,3.42,4.36,6.46,4.9,3.36.6,3.23-1.83,3.67-3.89.37-1.72.84-3.41,1.27-5.12a1,1,0,0,0,.31-.16c.05,0,0-.15,0-.24ZM37.9,516.41l-.33-.41c0,.08,0,.19,0,.24a1.29,1.29,0,0,0,.31.16c.54,2.23,1.1,4.46,1.61,6.71.18.76-.12,1.87.87,2.08,3,.61,6,.27,7.89-2.09s1.55-5.1.32-7.71c-.23-.49-1-1.47-1.5-.68C44.56,518.5,41.15,516.89,37.9,516.41ZM258.65,477l.16.16a67.33,67.33,0,0,1-11.3,17.32,21,21,0,0,0-3.6,4.9c-1.28,2.61-.67,3.88,2.14,4.76,7.06,2.2,14.37,2.73,21.64,3.12,9.51.52,19-.77,28.28-2.55,8.38-1.61,16.6-4,24-8.67,2.75-1.73,3.11-4.28,2.87-6.81-1.09-11.3-4.83-21.95-8.64-32.53-1.55-4.29-2.95-8.72-5.61-12.76-1.2.61-.32,2.52-1.7,2.53s-1.29-1.46-1.75-2.37c-.85-1.69-2-3.27-2.72-5-2.09-4.74-6.73-6.91-10.16-10.29a28.94,28.94,0,0,1,3.61.26c1.92.38,3.09-.7,4.07-2a2.7,2.7,0,0,0,.09-3.4c-1.21-1.31-2.13.08-3,.84-1.61,1.42-3.17,2.88-4.75,4.33-1.21.67-2.71.95-3.3,2.45l0,0a6.16,6.16,0,0,0-1.56.4c-11.05,6.25-23,9.29-35.58,10.38-5.39.46-10.71,1.55-16.15,1.52-1.14,0-2.32.08-2.23,1.65.1,1.88,1.33,1.07,2.36,1a25.37,25.37,0,0,1,5.29-.15c5,.61,9.91,1.63,14.18-2.21.5-.45,1.18-.05,1.68.61,2.76,3.63,3.74,14.6,1.3,18.8,0-3.13-1.59-3.1-3.72-2.56a47.22,47.22,0,0,1-6.42.89c-1.18.12-2.21.45-2.45,1.71-.47,2.39-2.19,2.5-4,2.37a33.57,33.57,0,0,0-6.86.72c-1.79.24-2.32,1-2.24,2.65.11,2.29,0,4.5.85,6.8,1.12,3.16,4.2,1.37,7.34,3.42-7.15.07-6.81,4-6.59,8.13a34.84,34.84,0,0,1-.76,10.79c2.37-3.43,4.24,0,6.63-1.31a33.41,33.41,0,0,0,10-8.74C253,484.49,254.54,479.77,258.65,477ZM212.1,504.15a29,29,0,0,0,3-1.1c5-2.55,5.1-3.23,1.19-7.46-3.52-3.82-6.18-8.27-9-12.61-.71-1.11-1.85-2.31-1.06-4.79,1.54,2.27,2.67,4,3.9,5.73,3.8,5.27,7.23,10.87,13.92,13.15,6.12,2.09,8.27.62,8.46-5.7A87,87,0,0,0,231,472.05c-.51-2.58,1-6.11-3.81-5.71a1.14,1.14,0,0,1-.89-.67c-.34-3.18-2.75-2.34-4.65-2.42-3-.13-6,.27-8.91-.67-1.11-.35-2.54-.56-3.48.43-.68.72-.78,2.35-2.27,1.41-.88-.56-.61-1.76-.51-2.68q.75-6.64,1.61-13.28c.16-1.31.29-2.34,2.26-1.48,7.08,3.11,14,1.26,22.2-1-1.85-.41-2.56-.64-3.27-.7-9.57-.8-19.23-.95-28.6-3.32-13.5-3.41-26.93-7.06-37.28-17.2-.53,4.62,2.35,7.74,8.8,8.13-4.84,3-6,7.28-7.08,11.6-.53,2.1-.64,4.3-1.82,6.21-.55.9.16,3-1.76,2.5-1.61-.43-.75-2-.47-3.12.91-3.69-2.5-4.13-4.42-5.37-1.63-1.05-2.64.55-3.25,2.05-6.3,15.56-12.88,30.94-14.4,48.08-.81,9.06-.08,10.25,8.61,13.95,12.25,5.22,25.36,5.16,38.39,3.12,3.5-.55,7.25-2.57,10.18-2.72,6-.32,11-2.34,16-5Zm33.69,100.38a39.44,39.44,0,0,0-1.74,10.68c-.09,9.39,1.23,18.72,1.47,28.08.43,17,2.42,34,1.81,51a22.61,22.61,0,0,0,.32,2.42,296.23,296.23,0,0,1,.14,37.57c-.52,9.88-2.32,19.7-2.88,29.58-1.31,23.33,1,46.46,5.07,69.41,3.9,22,9.55,43.77,11.39,66.18,1.38,16.84,1.94,33.68-.76,50.4-2.09,12.88-4.85,25.65-3.54,38.82a18,18,0,0,1-1,6.83c-2.81,9.62-6.69,18.89-7.78,29-1.35,12.61,7,25.23,21.54,22.22,6.69-1.38,12.61-4.24,18.43-7.35,6.25-3.34,8.85-9.08,8-16.13a67.54,67.54,0,0,0-3.9-16.17c-2.55-6.72-5.47-13.35-5.84-20.67-.52-10.18-2.16-20.25-2.75-30.43-.67-11.72-1.15-23.47-.08-35.1,2.58-28.13,8.12-55.9,10.6-84.07a262.76,262.76,0,0,0,.24-41.13c-1.32-19.09-6.64-37.6-8.47-56.7-1.54-15.91-1.05-31.5,2.58-46.91,2.54-10.82,4.78-21.72,7.5-32.51,3.24-12.86,5.17-26.06,7.37-39.16.63-3.73,2-7.36,1.85-11.23-.09-2.4-.84-3-3.32-2.08C283.1,614.23,264.54,612.44,245.79,604.53Zm-85,3.14a65.06,65.06,0,0,0,0,17.25q4.45,27.74,11.09,55.06c4.15,17.21,7.13,34.44,6,52.36-.85,13.36-3.47,26.36-5.69,39.45-2.19,12.89-4,25.78-4.25,38.86-.24,10.22.63,20.37,1.44,30.55,1.5,18.86,4.77,37.46,7.29,56.16,2.25,16.61,4.33,33.21,3.33,50-.66,11.11-1.68,22.2-2.86,33.28-.77,7.35-1.33,14.62-4.36,21.42a73.78,73.78,0,0,0-5.62,19.53c-1,6.72.14,12.91,6.37,16.92a66.26,66.26,0,0,0,18.18,8c14.07,3.93,24.09-7,23.13-19.87a80.82,80.82,0,0,0-5.21-23.75c-2.38-6.07-4.14-12.19-3.46-19a59,59,0,0,0-.95-19.49c-5.3-22.49-5.58-45.24-3.15-68.11,1.45-13.66,4.06-27.11,6.74-40.57,3.58-18,7.12-36,8.73-54.26,1.09-12.33,1.66-24.71.64-37.11-1.44-17.47-3.68-34.92-3.33-52.47.41-19.85,1.38-39.7,2.32-59.54.49-10.45,1.48-20.88,2.16-31.32.31-4.75.47-9.49-.68-14.2-.58-2.41-1.44-2.57-3.59-1.62a73.71,73.71,0,0,1-29.24,6.19A79.58,79.58,0,0,1,160.77,607.67ZM264.58,350.49c-.25-6-.86-10.11-.33-14.2a2.53,2.53,0,0,0-1.14-2.44c-1.38-1.14-1.51.52-2.07,1a2.67,2.67,0,0,1-2.62.67c-5.08-1.66-10.44-3.88-11.79-9.28-1.56-6.28-8.46-8.06-10-13.91-.05-.17-.43-.34-.67-.35-3.75-.16-7.63-.9-10.57,2.47-1.35,1.54-2.69,3.08-4.14,4.52s-2.42,1.91-3.6-.55c-1.34-2.79-4.07-4.64-6-7.11-1.41-1.8-4.46-1.92-6.56-1.39-3,.76-7.06,8.36-6.82,11.59.66,8.7,1.58,17.42.71,26.12-.83,8.31.58,17-3.58,24.84-2.55,4.8-4.8,9.79-7.64,14.42-7,11.49-14.16,22.92-20.35,34.9-1,2-1.74,3.55.91,5,20.25,11.21,41.46,17.81,65,14.42a165.53,165.53,0,0,1,18.6-1.63c15.77-.43,29.51-6.32,42.35-14.91,1.79-1.2,2.09-2.26,1-4.28-5.34-9.65-10.78-19.22-16.7-28.53C270.1,378.64,262.14,365.22,264.58,350.49Zm-20,166a14.18,14.18,0,0,1,.15-8.56,1.92,1.92,0,0,0-1.17-2.68c-1.68-.54-1.68.9-1.93,1.88-.88,3.41-1.86,6.81-2.53,10.27-3.28,17-2.91,34.12-.75,51.22,1.12,8.86,1.64,17.82,4.81,26.33,1.89,5.05,4.75,8.5,10.25,10.25a79.57,79.57,0,0,0,41.35,2c8.4-1.78,13.24-7,14.68-15.25s3-16.58,5.18-24.71c5.84-21.7,9.38-43.61,7-66.16-.09-.83.45-1.94-.84-2.44-1.19,1,0,2.93-.59,3.31-2.79.77-.6-2.87-3.16-1.81-2,.84-.25,2-.29,3,0,1.21.31,2.51-.51,4-.52-.65-.85-.91-1-1.25-.52-1.38.68-3.79-1.68-4-2.72-.24-2.53,2.41-2.87,4.12-1.34,6.75-2.53,13.53-3.73,20.31-.15.82-.17,1.63-.94,2.15a.89.89,0,0,1-1.35-.36c-3.14-4.89-8.37-7.08-13-10a42.07,42.07,0,0,1-5.59-4.69c-1.64-1.45-.66-5.08-3.79-4.93s-1.57,3.82-3.1,5.24c-2.1-1.12.79-4.5-2.06-4.47-3.59.05-8.32-2.39-10.05,4.16-.48-4-.5-4.36-1.91-4.24-3.11.28-7.73-3.59-9,3.92,1.2-7.66-4.79-6.12-7.26-6C244,507.23,246.78,512.76,244.59,516.45ZM179.21,138.83c2.78,9.56,6.77,17.39,13.46,23.81,9.79,9.39,22.13,14.11,34.32,19.15,3.82,1.58,7.54.93,11.1-.64,6.47-2.86,13-5.61,19.25-8.9,12.84-6.76,21.78-16.94,26.05-31,.66-2.18.86-3.72-2-4.25-3.82-.71-6.72-3.13-9.65-5.53-7.32-6-15.18-9.5-24.63-4.85-1,.49-2.25.92-2.92-.17s.29-2,1.12-2.77A18.52,18.52,0,0,1,261,119.07,45.13,45.13,0,0,1,275.78,124c6.59,3.57,6.69,3.43,6.64-4.13,0-1.82,1.05-4.45-2.8-3.67-.89.18-1.33-1.45-1.28-2.64.06-1.6,0-3.2,0-4.77-1.2-.24-1.59.71-2.3,1-1.4.6-2.61,2.68-4.29,1.25-1.48-1.27.21-2.7.65-4,3.2-9.2,4.84-18.5,2.3-28.29-.37.5-.71.89-1,1.33-4.2,7.07-10.77,9.56-18.92,8-2-.38-5.07-.85-6.55-.21-4.38,1.9-8.74-1.76-12.83.64a.41.41,0,0,1-.39,0c-2.69-3.21-5-1.13-7.36.49-.42.28-1.21.58-1.51.38-3.24-2.12-4.36.36-6.3,2.27-1.36,1.34-.1,2.52-1,3.88-3.27,5-11.66,9.3-18,8.55-.65-.07-1.56.08-1.61-.8a2.08,2.08,0,0,1,1.6-2.12c6-1.18,9-6.14,12.92-9.89,1.48-1.39,1.48-2.54-.54-2.62-7.55-.32-12.41-4.73-16.76-11a62.91,62.91,0,0,0-1.86,15c.09,4.84,2.79,9.08,2.73,13.88,0,1.11.79,2.61-.9,3.14-1.4.43-2.3-.65-3.07-1.58-1.69-2-3.29-4.17-4.92-6.25a25.61,25.61,0,0,0-.92,8c0,.91.22,2.19-1.05,2.31-1.68.15-1.3-1.3-1.44-2.32-.05-.37.22-1-1-1.1-1.19,7.52-.29,15.06-.57,22.63a5.8,5.8,0,0,0,2.84-1.13c5.6-3.51,10.47-8.22,17.42-9.42a26.11,26.11,0,0,1,14.6,1.58c1.45.59,2.53,1.94,1.75,3.62-.68,1.49-1.94.56-3.12.42-6.8-.78-13.61-1.14-18.93,4.36C193,136.12,188.23,141.79,179.21,138.83Zm27.3,374.77c-1.49,0-1.91-.86-2.53-1.49a4.09,4.09,0,0,0-6.71,1.31C194.7,519.7,190,524,184.8,528.11S172.87,534,168,538.75c-1.76,1.76-2.79-.32-3.44-1.85A48.51,48.51,0,0,1,161,519.1c0-1.75.17-3.8-1.2-4.87-1.93-1.51-1.92,2-4,2.06,2.31-5.27-2.62-2.12-3.46-3.85-1.23,1.07-.18,2.81-1.94,4.07-.1-3.81-1.71-5.77-4.93-6-1,1.52.46,3.43-1.48,4.85-1-1.76-.65-3.49-.38-5.12.15-.89-.1-1.29-.8-1.51-1.08-.35-1,.51-1.06,1.14-.24,1.88-.6,3.76-.71,5.64-.77,13.62,1.85,26.86,4.73,40,2.6,11.93,5.9,23.68,7.89,35.78,1.22,7.42,4.21,14.1,13.31,15.77a88.31,88.31,0,0,0,42.23-2c7.58-2.28,11.42-7.38,12.55-14.34,3.61-22.2,6.63-44.49,3.31-67-1.06-7.17-2.23-14.33-4.91-20.82-4.66.46-4.44,3.84-4.72,7.34-1.66-6.76-5-2-7.49-1.7C204.06,508.91,205.27,511.35,206.51,513.6ZM183.17,250.87c2.05-6.41,3.35-12.91,2.64-19.65s-1.61-13.2-2.3-19.81c-.15-1.47-.75-1.81-2-1.78-7.95.15-15.26,1.7-19.54,9.37-5.18,9.27-10.59,18.43-15.3,27.93-10.81,21.84-19.42,44.65-29.27,66.92-4.45,10.06-10.12,19.25-18.32,26.76a50.94,50.94,0,0,0-10.15,13.71c-6.55,12.16-11.16,25.1-16,37.95-5.65,15-11.23,30.11-19.06,44.19-3.92,7-4,6.92,3.22,10.05,1.77.77,2.64.72,3.82-1.13,11.44-17.79,25.07-33.92,38.59-50.12,9.79-11.74,19-23.85,24.68-38.25,4.18-10.63,8.28-21.29,12.53-31.9,9.45-23.58,19.62-46.76,39-64.33,3.67-3.33,6.81-6.65,4.6-12.14-.15-.38-.1-1.12,1-1.3C182.64,247.91,182.28,249.77,183.17,250.87Zm100.35-8.63c.72,1.78,0,2.73-.28,3.76-1.15,5.15-1.58,9.62,3.22,13.93A103.55,103.55,0,0,1,304,279.67c11.37,17.18,18.75,36.19,26.42,55.11,6.07,15,10.7,30.6,20.44,43.88,16.25,22.19,35.59,42,50.52,65.18.45.7,1,1.47,1.94,1.05,2.72-1.17,6.18-1.65,7.82-4,1.14-1.63-1.63-3.64-2.48-5.57-.77-1.74-1.75-3.38-2.59-5.09-8.65-17.48-14.68-36-21.91-54.08-5-12.58-9.62-25.6-19.85-35.28a79.64,79.64,0,0,1-18.17-26.4c-3.23-7.35-6.58-14.66-9.59-22.1-10-24.62-20.68-48.88-34.28-71.76-3.42-5.74-7.66-10-15-10.51-2.56-.17-3.39.43-3.89,2.56-1.39,6.06-3.05,12.06-4.15,18.16-1.24,6.87-2.82,13.88,1.29,20.79A20.92,20.92,0,0,1,283.52,242.24ZM234.7,270.35c.37,1.1.8,2.18,1.11,3.3.95,3.43,2.65,4.36,6.16,2.77,8.1-3.69,14.14-9.58,19.1-16.74,9.94-14.35,13.72-30.84,16.41-47.7.32-2-.58-2.45-2.45-2.63-6.55-.61-12.69-2.76-18.82-5.12-8.15-3.15-12.59-9.27-14.54-17.36-.65-2.68-1.61-2.86-3.83-2.1a17.18,17.18,0,0,1-12.75-.15c-3.28-1.42-4.65,0-4.79,3-.37,7.92-4.93,12.66-11.67,15.81a69.61,69.61,0,0,1-15.45,5.15c-1.87.39-2.68,1.06-2.58,3.23.74,17.12,4.64,33.32,13.65,48.06,4.27,7,9.82,12.62,17.37,16.18,3,1.4,4.66,1.62,5.44-2.35.3-1.56-.06-3.66,1.47-5.31a5.51,5.51,0,0,1,.47,5.4c-2.45,4.58,0,4.85,3.55,4.51l2.87-.24C234.39,275.5,233.58,273.11,234.7,270.35ZM427.33,477.29c1,7.34,8.16,10.12,11.14,15.92.06.12.13.23.18.36,1.09,2.62,2.65,5.26.45,8s-4.78,2-7.45,1c-.25-.09-.52-.15-.77-.26a.91.91,0,0,0-1.32.47c-.46.86,0,1.17.77,1.4a33.87,33.87,0,0,1,5,1.68c2.1,1,4.53,2.82,3.5,5.16s-3.8,3.81-6.62,4.23c-2.5.38-3.82-1.24-4.76-3.45a15.11,15.11,0,0,0-3.4,7.53c-.58,3.3-.08,6.37,3.54,7.77A18.61,18.61,0,0,0,438,528.34c8.82-1.65,14-7.28,17.19-15.19,5.76-14.45,3.15-28.25-3.59-41.61-4.22-8.36-10.31-15-18.91-19-1.47-.69-2.89-1.84-4.77-.2-6.58,5.73-14.41,9.21-22.65,11.71-2.82.86-3.69,2.18-3.34,4.91A149.6,149.6,0,0,0,409.37,500c1.47,4.1,3.62,7.92,8,9.86,2.25,1,3.94.08,5.58-1.18,1.36-1,2.09-2.23,1.33-4.21a8,8,0,0,1,1.58-8.05c2.62-3.22,2.35-6.71,1.77-10.44C427.22,483.26,425.79,480.58,427.33,477.29ZM34.49,480.06a12.06,12.06,0,0,1-.28,4.49c-1.33,5.46-2.47,10.92,1.8,15.83a5.84,5.84,0,0,1,.91,5.84c-1,2.59-.19,4.2,1.82,5.53a5.3,5.3,0,0,0,6.43-.17c3.43-2.35,5.31-5.78,6.64-9.53a153.62,153.62,0,0,0,7.31-30.33c.37-2.75-.23-4.38-3.37-5.28A59.85,59.85,0,0,1,34,455.51c-2-1.61-3.35-1.71-5.36-.74a39,39,0,0,0-17,15.41C3.08,484.63-.31,499.75,6,516.06c4.32,11.14,14.47,16.9,25.16,14.26,4.94-1.22,6.66-3.63,5.79-8.54a16.47,16.47,0,0,0-3.5-7.68c-.94,3-2.59,4.25-5.51,3.42-2.71-.78-5.68-2.15-5.89-4.75s2.47-4.31,5.22-5a5.73,5.73,0,0,0,1.93-.59c.79-.54,2.71-.07,2.31-1.57-.54-2-2-.41-3-.21-2.3.46-4.59,1-6.43-1.11s-1.58-4.24-.53-6.47a21.24,21.24,0,0,1,2.17-3.91c3.45-4.5,8.21-8.08,9.85-13.88A5.83,5.83,0,0,1,34.49,480.06ZM157.3,217.17c.92-.2,1.25-.17,1.41-.32a31.52,31.52,0,0,0,2.23-2.39c4.53-5.6,10.58-7.84,17.57-8,4.08-.11,8.19.06,12.19-.92,8.62-2.09,17.08-4.4,23.32-11.51,3-3.38,2.85-7.41,2.68-11.19-.11-2.58-3.67-2.62-5.73-3.69-13.79-7.18-26.18-16.07-35.56-29.51a76.21,76.21,0,0,0-2.23,27.48c.76,8.12,3.91,15.65,5.76,23.51.34,1.43.86,2.71-.56,4.31-3.49-8.67-7.41-16.7-11.52-25.11C158.68,191.25,157.39,203.84,157.3,217.17Zm144.09-3.77c-.78-12.7-2-24.16-9.81-34.44-4,8.57-7.73,16.7-11.49,24.84-.37-9,4.12-16.69,4.89-25.3,1.18-13.18.93-20.89-1.63-25.91-3.49,6.42-7.84,12-13.82,16-6.45,4.28-12.82,8.79-20.07,11.66-2.5,1-3.43,2.44-2.94,4.93,1.1,5.62,3.11,10.79,8.38,13.8,7.9,4.51,16.38,7.3,25.56,7.36C287.89,206.39,295.12,206.91,301.39,213.4ZM187.26,517.46c-3.68-6.84-9-1.51-13.34-2.47-3.72-.81-.54,3.68-2.88,5.24.23-7.21-4.51-5.51-8.31-5.37.45,7.64.56,15.18,4.24,22.08,5.49-4.44,12-6.71,17.42-10.73s10.08-9.66,10.79-14.2C192.48,514.11,187.14,510.85,187.26,517.46Zm215.25-55.9a5.42,5.42,0,0,0,.81-.06c8.14-1.84,14.82-6.47,21.47-11.16a2,2,0,0,0,.67-1.4c.13-2.85-4.81-6.43-7.48-5.34q-9,3.67-18,7.56c-1.61.7-3.92,1.07-4,3.33C396,456.94,400.49,461.52,402.51,461.56ZM58,464.05c3.65,0,4.31-3,6-5,1.83-2.22,1.19-3.62-1.09-4.6-6.82-2.94-13.7-5.74-20.53-8.68-2-.88-3-.22-4.27,1.53-2.32,3.23-3.46,5.67,1.44,7.51,1.69.64,2.95,2.35,4.52,3.39C48.33,461.05,53.26,462.54,58,464.05Zm247.28,60.64c1.38-7.35,2.67-14.26,4-21.22-3.3,0-5,1.29-4.6,4.55-1.76-.5.2-3.77-2.53-2.78s-7.43-.24-6.34,5.32c-2.42-.43.26-3.41-2.18-3.41a39.68,39.68,0,0,0-4.83.55c-2.63.3-3,1.66-1.52,3.59a13.86,13.86,0,0,0,3.56,3.85A137,137,0,0,1,305.23,524.69Zm-87.14-63.91c7.67,0,7.61,0,7.32-7.67-.08-2.05-.67-3-2.81-2.92-3.26.08-6.52.05-9.77-.11a2.56,2.56,0,0,0-2.92,2.12c-1.9,6.15-.18,8.57,6.14,8.58ZM254,447.68c-7.41-.1-9.15,1.17-9.15,6.63s0,5.49,5.45,4.84c8.22-1,8.66-1.78,6.11-9.67C255.9,448,255.29,447.48,254,447.68ZM161.61,445c1.14-.21,1.28-1,1.57-1.79.52-1.38.8-3,1.73-4.05,3.27-3.7,1.51-5.87-1.78-8.19-3.72-2.64-4.67-2.58-6.48,1.45a20.78,20.78,0,0,0-1.62,3.7c-.33,1.44-2.23,3.09-.82,4.29C156.43,442.24,159.19,443.49,161.61,445ZM235.23,464c8.65,0,8.67,0,7.89-8.69a34.42,34.42,0,0,0-.82-4.82c-.14-.6-.57-1.49-1-1.61a20.85,20.85,0,0,0-12,.69c-2.54.88-1.52,4.07-1.54,6.29C227.61,464,227.66,464,235.23,464Zm198.62,36.81c3.71.07,4.75-1.36,3.36-4.35a69.88,69.88,0,0,0-4-7c-.47-.76-1.17-1.8-2.24-1.25a2.24,2.24,0,0,0-1.11,2.46c.87,2.23.06,4.5.42,6.76C430.71,500.14,432.18,500.72,433.85,500.84ZM30.53,490.22A22.39,22.39,0,0,0,24,497.68c-.88,1.6-1.45,3.38-.07,4.9,1.14,1.25,2.69.67,4.17.34,2.22-.5,2.57-1.91,2.47-3.89C30.43,496.35,30.53,493.66,30.53,490.22ZM307,433.56c-2-.88-1.21-4.63-4.44-4.59-1.33,0-3.56,1.54-3,2.29,1.4,2,2.41,4.75,5,5.48C305.72,437.08,306.67,435.47,307,433.56ZM54.88,503.46c-1.88,2.64-2.65,5.63-4.78,7.75a1.28,1.28,0,0,0-.3,1.79c.46.64,1,.5,1.76.29C55.85,512,57.44,507.92,54.88,503.46Zm351.45-2.22a5.94,5.94,0,0,0,3.51,9.76,1.26,1.26,0,0,0,1.1-2.24C408.81,506.63,408,503.66,406.33,501.24Zm27.18,7c-1.43.64-3.4,1.05-3.77,3.25a1.31,1.31,0,0,0,1.77,1.54c1.68-.5,4-.2,4.53-2.57C436.34,509,435.2,508.35,433.51,508.24ZM31.18,513.73a5.51,5.51,0,0,0-3.95-2.9A1.7,1.7,0,0,0,25,512.51c0,2.35,2.05,2.61,3.71,3A1.94,1.94,0,0,0,31.18,513.73Zm373.9-17.23c-.45-1.05-.15-2.91-1.65-3.46-.94-.34-1.55.94-1.41,1.9.19,1.32.68,2.69,2.1,3.12C405,498.32,405.08,497.44,405.08,496.5Zm-346,1c-.09-1-.48-2.26-1.47-2-1.42.4-1.24,2.13-1.59,3.32-.2.66-.25,1.92.9,1.68C58.36,500.17,58.67,498.67,59.07,497.46Zm-24.29,8.35c1.26-2.74-.28-4.23-1.2-5.9C32.71,502.08,33.31,503.83,34.78,505.81Zm393-9.13c-1.92,2.24-2.65,3.93-1.75,6.54A8.48,8.48,0,0,0,427.79,496.68Z"/> <path fill="#bba987" d="M131.11,132.84l.9-2c-5.79,2.09-6.81,5.08-7.8,21.48a145.32,145.32,0,0,1-7.06-43.6c-.28-14.94,3.91-28.79,10.27-43.12C120.61,68.16,113.8,78.31,111,88.52c-2.18-31.19,7.28-56.21,32.34-75.39-3.17-.71-3.15-1.6-.57-3.26C155.07,1.93,171,.09,186.35,11.56c5.79,4.33,12.44,5.82,19.74,2.88,8-3.25,16.1-4.76,24.59-.26,4.52,2.38,10.06,2.25,15.18,1a31.61,31.61,0,0,1,16.1-.12c4.26,1.16,7.74.34,10.81-3.08,12.64-14,33.35-10.47,44.49-1.8a5.52,5.52,0,0,1,.79,1.1l-2.88,1c25.33,19.1,34.56,44.85,32.46,76.31-2.16-10.09-7.44-17.3-14.59-23.94a5.21,5.21,0,0,0,0,5.39,78.15,78.15,0,0,1,8.22,32.46,139.87,139.87,0,0,1-5.68,45.83,15.25,15.25,0,0,1-1.3,3.31c-.51-7.86.65-16.16-7-22.09a114,114,0,0,0-10.52,54.78h0c-4.34-8.8-5.91-18.17-5.77-27.91,0-1.47,1-3.86-.89-4.27-1.57-.33-2.34,2-3,3.44-5.45,11.69-6.06,24-4.51,36.56a38.89,38.89,0,0,1,0,10.45c-.73-3.41-1.48-6.82-2.19-10.23-1.23-6-5-10.8-7.56-16.15-.82-1.69-1.75-.07-2.22.77-1.24,2.22-2.37,4.5-4.05,7.73.32-3.89.32-6.69.83-9.4,1.52-7.94,0-15.64-1.5-23.36a6.52,6.52,0,0,1,.21-4.4c3.21-6.12,5.64-12.7,10.48-17.86.66-.7,1.54-1.4,1.32-2.42-1.69-7.7,2.88-14.12,4.56-21.07a135.34,135.34,0,0,0,3.42-43.26c-.81-9.79-1.51-20-7.55-28.67-.93-1.33-.88-3.36-1.25-5.07-.19-.87-.59-1.63-1.5-1.67-1.18-.05-1.55.86-1.72,1.88a8.62,8.62,0,0,0,1.23,5.88c5.45,8.82,6.23,18.89,7.66,28.71,2.93,20.13-1.44,39.37-8.05,58.23-.77,2.19-1.23,5.93-4.08,5.09-2.34-.69.1-3.76.3-5.72.42-4,2-7.8,2.12-12.63-2.61,2.88-2.5,6-3.27,8.66-.81,2.86-1.37,5.79-2.14,8.66-.2.76-.65,1.6-1.69,1.45s-1.14-1.06-1.14-1.87c0-3.54.05-7.08.05-10.62,0-1.2.12-3.07-1.52-2.73-3.13.64-2.42-1.3-2.59-3s.88-3.51-1.08-4.41-2.74,1.34-4.19,1.81c5.11-22.84,3-43.75-14.31-60.8l-1.59.65c2.13,2.6,4.36,5.12,6.37,7.81,4.35,5.79,7.29,12.06,6.71,19.59-.5,6.67-4.47,11-11.15,11.94-1.46.2-2.91.51-5,.88,3.16-5,3.88-10,2.15-15.19a27,27,0,0,0-1.91-4.46c-.47-.86-1.18-2.3-2.43-1.29-1.08.89.46,1.56.79,2.33,2.09,4.89,3.24,9.87.56,14.88-1.82,3.42-3.78,3.85-6.83,1.46-2.2-1.72-3.08-1.36-3.18,1.36l-.05,0c-.91-.73-2.52,1.1-3.19-1-.26-.81-1.43-.88-2.12-.29-2.45,2.1-4.47,1.85-7-.17-1.64-1.28-3.48.7-5.12,1.63-1.06.61-2.3,2.52-3.2-.41-.58-1.92-1.84-1.32-3.12-.24-3.47,2.95-4.43,2.52-5.8-1.9-1.67-5.39.33-10.46,1.07-15.64.1-.73.84-1.45-.12-2.43-2.94,2.49-2.53,6.14-3.1,9.24A24.51,24.51,0,0,0,214,84.3c.72,3.34-.83,2.78-2.72,2.28-10.08-2.66-14.66-10.75-11.86-20.87,1.24-4.48,3.5-8.54,5.28-12.8.51-1.23,1.29-2.39.27-3.89-9.24,17.87-16.45,36.13-10.14,57-2.6-2.64-4.77-5.3-5.77-8.75-.21-.71-.51-1.69-1.48-1.69-.37,0-1.1.71-1.05,1,1,5.4-4,8.58-4.82,13.44-1.06,6.54-.32,13-.67,19.55,0,.9.29,1.9-.93,3.15-4.06-6.48-1.73-14.7-6.52-21.77-1.07,5,.48,9,.42,13.06,0,1.06.64,2.2.41,3.18-.29,1.27,1.57,3.22-.63,3.72-1.95.45-3.23-.95-3.67-3-1.23-5.68-2.83-11.3-3.68-17-1.28-8.69-3.36-17.2-3.88-26.07-.8-13.86-.27-27.35,5.67-40.15,2.56-5.51,5.44-10.88,7.49-16.62.36-1,1-2.34-.21-2.74A2.52,2.52,0,0,0,172.55,27c-5.31,11.82-12.12,23.23-13.34,36.37a104.21,104.21,0,0,0,.66,26.85c2.31,13.88,5,27.68,7.95,41.44a40.73,40.73,0,0,0,4.78,12.47,6.11,6.11,0,0,1,.9,5A73.19,73.19,0,0,0,172,183.73c0,.19-.17.43-.41,1-1.29-2.48-2.42-4.76-3.66-7-.75-1.36-1.22-2.29-2.58-.06-4.82,7.95-8.43,16.27-9,25.73l-1.11-.12c.26-3.59.38-7.2.8-10.76,1.48-12.45.81-24.61-4.52-36.2a11.93,11.93,0,0,0-1-1.79c-.54-.77-1.15-1.91-2.09-1.74-1.51.27-.94,1.76-.91,2.73.32,10.29-1.15,20.23-5.74,29.56h0a112.66,112.66,0,0,0-8.14-49.2c-.52-1.25-.37-3.16-2.54-3.09Z"/> <path fill="#b7bcaa" d="M245.79,604.53c18.75,7.91,37.31,9.7,56.23,2.58,2.48-.93,3.23-.32,3.32,2.08.14,3.87-1.22,7.5-1.85,11.23-2.2,13.1-4.13,26.3-7.37,39.16-2.72,10.79-5,21.69-7.5,32.51C285,707.5,284.5,723.09,286,739c1.83,19.1,7.15,37.61,8.47,56.7a262.76,262.76,0,0,1-.24,41.13c-2.48,28.17-8,55.94-10.6,84.07-1.07,11.63-.59,23.38.08,35.1.59,10.18,2.23,20.25,2.75,30.43.37,7.32,3.29,14,5.84,20.67a67.54,67.54,0,0,1,3.9,16.17c.83,7-1.77,12.79-8,16.13-5.82,3.11-11.74,6-18.43,7.35-14.5,3-22.89-9.61-21.54-22.22,1.09-10.15,5-19.42,7.78-29a18,18,0,0,0,1-6.83c-1.31-13.17,1.45-25.94,3.54-38.82,2.7-16.72,2.14-33.56.76-50.4C259.53,877,253.88,855.3,250,833.26c-4.06-23-6.38-46.08-5.07-69.41.56-9.88,2.36-19.7,2.88-29.58a296.23,296.23,0,0,0-.14-37.57,22.61,22.61,0,0,1-.32-2.42c.61-17-1.38-34-1.81-51-.24-9.36-1.56-18.69-1.47-28.08A39.44,39.44,0,0,1,245.79,604.53Zm32.1,137.91c1.94-1.75,3.91-3.56,4.27-7.14C279.11,737.26,278.41,739.77,277.89,742.44Zm-21.34,2.37-5.66-6.19C251.13,742.57,251.6,743.1,256.55,744.81Z"/> <path fill="#b7bcaa" d="M160.77,607.67a79.58,79.58,0,0,0,25.07,3.7,73.71,73.71,0,0,0,29.24-6.19c2.15-.95,3-.79,3.59,1.62,1.15,4.71,1,9.45.68,14.2-.68,10.44-1.67,20.87-2.16,31.32-.94,19.84-1.91,39.69-2.32,59.54-.35,17.55,1.89,35,3.33,52.47,1,12.4.45,24.78-.64,37.11-1.61,18.28-5.15,36.28-8.73,54.26-2.68,13.46-5.29,26.91-6.74,40.57-2.43,22.87-2.15,45.62,3.15,68.11a59,59,0,0,1,.95,19.49c-.68,6.82,1.08,12.94,3.46,19a80.82,80.82,0,0,1,5.21,23.75c1,12.92-9.06,23.8-23.13,19.87a66.26,66.26,0,0,1-18.18-8c-6.23-4-7.33-10.2-6.37-16.92a73.78,73.78,0,0,1,5.62-19.53c3-6.8,3.59-14.07,4.36-21.42,1.18-11.08,2.2-22.17,2.86-33.28,1-16.79-1.08-33.39-3.33-50-2.52-18.7-5.79-37.3-7.29-56.16-.81-10.18-1.68-20.33-1.44-30.55.3-13.08,2.06-26,4.25-38.86,2.22-13.09,4.84-26.09,5.69-39.45,1.14-17.92-1.84-35.15-6-52.36q-6.6-27.32-11.09-55.06A65.06,65.06,0,0,1,160.77,607.67ZM185.35,742.6c-.51-2.65-1.22-5.19-4.28-7.2A10.53,10.53,0,0,0,185.35,742.6Zm21.89,2c3-.29,4.2-2.13,5.41-3.83a1.57,1.57,0,0,0-.14-1.45c-.4-.5-1-.2-1.33.26C210,741.14,208.79,742.67,207.24,744.64Z"/> <path fill="#ae8f76" d="M212.12,504.12c-5,2.69-9.93,4.71-16,5-2.93.15-6.68,2.17-10.18,2.72-13,2-26.14,2.1-38.39-3.12-8.69-3.7-9.42-4.89-8.61-13.95,1.52-17.14,8.1-32.52,14.4-48.08.61-1.5,1.62-3.1,3.25-2.05,1.92,1.24,5.33,1.68,4.42,5.37-.28,1.14-1.14,2.69.47,3.12,1.92.52,1.21-1.6,1.76-2.5,1.18-1.91,1.29-4.11,1.82-6.21,1.09-4.32,2.24-8.62,7.08-11.6-6.45-.39-9.33-3.51-8.8-8.13,10.35,10.14,23.78,13.79,37.28,17.2,9.37,2.37,19,2.52,28.6,3.32.71.06,1.42.29,3.27.7-8.16,2.3-15.12,4.15-22.2,1-2-.86-2.1.17-2.26,1.48q-.85,6.63-1.61,13.28c-.1.92-.37,2.12.51,2.68,1.49.94,1.59-.69,2.27-1.41.94-1,2.37-.78,3.48-.43,2.94.94,5.94.54,8.91.67,1.9.08,4.31-.76,4.65,2.42a1.14,1.14,0,0,0,.89.67c4.81-.4,3.3,3.13,3.81,5.71a87,87,0,0,1,1.62,19.32c-.19,6.32-2.34,7.79-8.46,5.7-6.69-2.28-10.12-7.88-13.92-13.15-1.23-1.7-2.36-3.46-3.9-5.73-.79,2.48.35,3.68,1.06,4.79,2.78,4.34,5.44,8.79,9,12.61,3.91,4.23,3.84,4.91-1.19,7.46a29,29,0,0,1-3,1.1c-.06-.35-.13-.69-.19-1l-.44.25Zm-7.33-27-.44-.34.35.43.44.37Zm-38.32-22.7c-.19,1.09-.25,2.41,1.05,2.7,1.51.33,1.18-1.11,1.26-1.95.26-2.79,1.69-2.48,3.66-1.61a101.26,101.26,0,0,0,25.3,7.22,2.26,2.26,0,0,1,2.22,2.32,1.48,1.48,0,0,0,1.25,1.42c1.15,0,1-1,1.15-1.78,1.15-5.14.13-10.48,1.42-15.62.2-.79-.49-1.42-1.56-1.35-6.75.4-12.56-2.83-18.64-5-2.64-.93-5.62-1.55-7.36-4s-2.89-1.52-3.8.41C169.82,442.71,167.12,448.19,166.47,454.39ZM156,477.48c5.44,4.86,17.49,2.46,24.34-1.27,7.59-4.14,11.73-9,11.41-13.31C182.67,475.3,170.92,480.33,156,477.48Z"/> <path fill="#ae8f76" d="M289,431.34c.59-1.5,2.09-1.78,3.3-2.45l0,0c3.43,3.38,8.07,5.55,10.16,10.29.76,1.73,1.87,3.31,2.72,5,.46.91.25,2.38,1.75,2.37s.5-1.92,1.7-2.53c2.66,4,4.06,8.47,5.61,12.76,3.81,10.58,7.55,21.23,8.64,32.53.24,2.53-.12,5.08-2.87,6.81-7.39,4.63-15.61,7.06-24,8.67-9.3,1.78-18.77,3.07-28.28,2.55-7.27-.39-14.58-.92-21.64-3.12-2.81-.88-3.42-2.15-2.14-4.76a21,21,0,0,1,3.6-4.9A67,67,0,0,0,258.8,477.2l.31-.47-.46.31c-4.11,2.73-5.66,7.45-8.59,11.11a33.41,33.41,0,0,1-10,8.74c-2.39,1.33-4.26-2.12-6.63,1.31a34.84,34.84,0,0,0,.76-10.79c-.22-4.09-.56-8.06,6.59-8.13-3.14-2-6.22-.26-7.34-3.42-.82-2.3-.74-4.51-.85-6.8-.08-1.61.45-2.41,2.24-2.65a33.57,33.57,0,0,1,6.86-.72c1.85.13,3.57,0,4-2.37.24-1.26,1.27-1.59,2.45-1.71a47.22,47.22,0,0,0,6.42-.89c2.13-.54,3.68-.57,3.72,2.56,2.44-4.2,1.46-15.17-1.3-18.8-.5-.66-1.18-1.06-1.68-.61-4.27,3.84-9.22,2.82-14.18,2.21a25.37,25.37,0,0,0-5.29.15c-1,.1-2.26.91-2.36-1-.09-1.57,1.09-1.65,2.23-1.65,5.44,0,10.76-1.06,16.15-1.52,12.58-1.09,24.53-4.13,35.58-10.38a6.16,6.16,0,0,1,1.56-.4c0,1.11-.06,2.13-1.31,2.71-8.22,3.76-16.31,7.93-25.49,8.9-1.17.12-2.08.36-1.67,1.54a63.76,63.76,0,0,1,3.85,18c1.18-6,6.22-5.33,9.91-6.65,7-2.54,14-5.22,20.33-9.26,2-1.29,3.38-1.5,4.23,1.14.24.76.81,1.6,1.79,1.2s.77-1.43.57-2.15c-1.22-4.34-3-8.44-6.38-11.57C293.13,433.61,292,431,289,431.34Zm-6.27,26.85c2.81,7.63,9.59,10.21,16.39,12.14,4,1.15,8.78,2.5,12.55-1.68C299.91,470.74,290.58,466.69,282.71,458.19Z"/> <path fill="#b7bcaa" d="M276.94,231.08c-3.43,11.32,1.44,21.55,4.43,31.93,5.79,20.08-11.68,30.58-26.41,28.76-3.08-.38-6.15-.84-9.22-1.26-.31-.44-.86-.89-1.18-.39s.46.62.83.83c3.26,3.9,7.79,5,12.51,5.36,3.48.24,7-.07,10.49-.13l.28.28c-1.24,8.45-2.55,16.9-3.68,25.37-.44,3.21-.48,6.48-.73,10.11-1-2.4-2.1-2.42-3.07-.29-1.08,2.36-2.65,2-4.66,1.21-5.2-2-8.28-5.91-10.12-11a9.71,9.71,0,0,0-4.18-5.37c-1.83-1-3.47-2-3.55-4.43a1.9,1.9,0,0,0-1.82-1.87c-5.26-.56-10.39-.65-13.88,4.32-2,2.79-3.41,3.19-6.07.33-2.3-2.48-3.71-5.81-8.16-6.74-3.41-.71-5,.14-6.81,2.1-1.18,1.28-2.12,2.79-3.23,4.27-2.77-5.08-2.56-10.84-4.16-16.11-.65-2.16-.27-2.43,2-2.21,7.27.7,14.47.57,20.7-4.12.71-.53,1.73-.85,1.71-2.13-6.67.95-13.19,3.5-20,1.41-8.76-2.66-16.28-6.71-17.74-16.87a30.89,30.89,0,0,1,2.17-16.8c5.5-12.58,5.71-25.5,3.08-38.68-.47-2.39-.85-4.79-1.19-7.2-.11-.77-.22-1.77.83-2,1.41-.33,1.48.77,1.62,1.73,1,7.24,1.35,14.58,3.15,21.72,3.5,13.86,8.36,27,18.81,37.36,15.49,15.33,34,12.68,47.92-2.43,9.82-10.69,14.87-23.82,19-37.43Zm-56.76,76c3,1.37,3.27-.9,3.29-2.67,0-2.34-1.83-3.17-3.88-3.1-2.42.08-2.42,2.08-2.58,3.81C216.77,307.81,218.13,308.07,220.18,307.07Zm36.32,15.54c1.77-.58,3.18-1.44,2.93-3.12a7.64,7.64,0,0,0-4.1-5.56c-1.16-.59-2.31,1.81-2.09,2.8A11.79,11.79,0,0,0,256.5,322.61Z"/> <path fill="#bba987" d="M427.33,477.29c-1.54,3.29-.11,6,.31,8.73.58,3.73.85,7.22-1.77,10.44a8,8,0,0,0-1.58,8.05c.76,2,0,3.17-1.33,4.21-1.64,1.26-3.33,2.18-5.58,1.18-4.39-1.94-6.54-5.76-8-9.86a149.6,149.6,0,0,1-7.49-31.12c-.35-2.73.52-4.05,3.34-4.91,8.24-2.5,16.07-6,22.65-11.71,1.88-1.64,3.3-.49,4.77.2,8.6,4,14.69,10.68,18.91,19,6.74,13.36,9.35,27.16,3.59,41.61-3.16,7.91-8.37,13.54-17.19,15.19a18.61,18.61,0,0,1-10.35-1.18c-3.62-1.4-4.12-4.47-3.54-7.77a15.11,15.11,0,0,1,3.4-7.53c.94,2.21,2.26,3.83,4.76,3.45,2.82-.42,5.58-1.86,6.62-4.23s-1.4-4.12-3.5-5.16a33.87,33.87,0,0,0-5-1.68c-.76-.23-1.23-.54-.77-1.4a.91.91,0,0,1,1.32-.47c.25.11.52.17.77.26,2.67.93,5.34,1.61,7.45-1s.64-5.4-.45-8c0-.13-.12-.24-.18-.36C435.49,487.41,428.37,484.63,427.33,477.29Z"/> <path fill="#bba987" d="M34.49,480.06a5.83,5.83,0,0,0-.86,0c-1.64,5.8-6.4,9.38-9.85,13.88a21.24,21.24,0,0,0-2.17,3.91c-1.05,2.23-1.23,4.46.53,6.47s4.13,1.57,6.43,1.11c1-.2,2.42-1.81,3,.21.4,1.5-1.52,1-2.31,1.57a5.73,5.73,0,0,1-1.93.59c-2.75.66-5.43,2.42-5.22,5s3.18,4,5.89,4.75c2.92.83,4.57-.44,5.51-3.42a16.47,16.47,0,0,1,3.5,7.68c.87,4.91-.85,7.32-5.79,8.54C20.49,533,10.34,527.2,6,516.06c-6.33-16.31-2.94-31.43,5.69-45.88a39,39,0,0,1,17-15.41c2-1,3.39-.87,5.36.74a59.85,59.85,0,0,0,21.72,10.93c3.14.9,3.74,2.53,3.37,5.28a153.62,153.62,0,0,1-7.31,30.33c-1.33,3.75-3.21,7.18-6.64,9.53a5.3,5.3,0,0,1-6.43.17c-2-1.33-2.8-2.94-1.82-5.53a5.84,5.84,0,0,0-.91-5.84c-4.27-4.91-3.13-10.37-1.8-15.83A12.06,12.06,0,0,0,34.49,480.06Z"/> <path fill="#fefefe" d="M187.26,517.46c-.12-6.61,5.22-3.35,7.92-5.45-.71,4.54-5.34,10.17-10.79,14.2S172.46,532.5,167,536.94c-3.68-6.9-3.79-14.44-4.24-22.08,3.8-.14,8.54-1.84,8.31,5.37,2.34-1.56-.84-6.05,2.88-5.24C178.26,516,183.58,510.62,187.26,517.46Z"/> <path fill="#bba987" d="M402.51,461.56c-2,0-6.51-4.62-6.46-7.07.05-2.26,2.36-2.63,4-3.33q8.94-3.89,18-7.56c2.67-1.09,7.61,2.49,7.48,5.34a2,2,0,0,1-.67,1.4c-6.65,4.69-13.33,9.32-21.47,11.16A5.42,5.42,0,0,1,402.51,461.56Z"/> <path fill="#bba987" d="M58,464.05c-4.69-1.51-9.62-3-14-5.87-1.57-1-2.83-2.75-4.52-3.39-4.9-1.84-3.76-4.28-1.44-7.51,1.26-1.75,2.23-2.41,4.27-1.53,6.83,2.94,13.71,5.74,20.53,8.68,2.28,1,2.92,2.38,1.09,4.6C62.26,461,61.6,464.06,58,464.05Z"/> <path fill="#fefefe" d="M305.23,524.69a137,137,0,0,0-14.46-9.55,13.86,13.86,0,0,1-3.56-3.85c-1.46-1.93-1.11-3.29,1.52-3.59a39.68,39.68,0,0,1,4.83-.55c2.44,0-.24,3,2.18,3.41-1.09-5.56,3.58-4.33,6.34-5.32s.77,2.28,2.53,2.78c-.38-3.26,1.3-4.59,4.6-4.55C307.9,510.43,306.61,517.34,305.23,524.69Z"/> <path fill="#b7bcaa" d="M218.09,460.78h-2c-6.32,0-8-2.43-6.14-8.58a2.56,2.56,0,0,1,2.92-2.12c3.25.16,6.51.19,9.77.11,2.14-.05,2.73.87,2.81,2.92C225.7,460.8,225.76,460.79,218.09,460.78Z"/> <path fill="#b7bcaa" d="M254,447.68c1.31-.2,1.92.28,2.41,1.8,2.55,7.89,2.11,8.69-6.11,9.67-5.45.65-5.45.65-5.45-4.84S246.57,447.58,254,447.68Z"/> <path fill="#b7bcaa" d="M161.61,445c-2.42-1.46-5.18-2.71-7.4-4.59-1.41-1.2.49-2.85.82-4.29a20.78,20.78,0,0,1,1.62-3.7c1.81-4,2.76-4.09,6.48-1.45,3.29,2.32,5.05,4.49,1.78,8.19-.93,1-1.21,2.67-1.73,4.05C162.89,443.92,162.75,444.74,161.61,445Z"/> <path fill="#b7bcaa" d="M235.23,464c-7.57,0-7.62,0-7.53-8.14,0-2.22-1-5.41,1.54-6.29a20.85,20.85,0,0,1,12-.69c.46.12.89,1,1,1.61a34.42,34.42,0,0,1,.82,4.82C243.9,464,243.88,464,235.23,464Zm-.12-2.35c6.58-.11,6.52-.11,6.48-7.72,0-7.33-5.51-3.28-8.33-3.65-6.56-.86-3.43,4.57-3.91,7.39C228.38,463.32,232.8,461.29,235.11,461.68Z"/> <path fill="#bba987" d="M37.9,516.41c3.25.48,6.66,2.09,9.2-1.7.53-.79,1.27.19,1.5.68,1.23,2.61,1.49,5.49-.32,7.71s-4.94,2.7-7.89,2.09c-1-.21-.69-1.32-.87-2.08-.51-2.25-1.07-4.48-1.61-6.71Z"/> <path fill="#bba987" d="M423.12,513.94c-.43,1.71-.9,3.4-1.27,5.12-.44,2.06-.31,4.49-3.67,3.89-3-.54-6-1-6.46-4.9a10.12,10.12,0,0,1,0-3.25c.41-1.85.68-4.19,3.3-1.35,2.39,2.61,5.36.62,8.09.51Z"/> <path fill="#ae8f76" d="M433.85,500.84c-1.67-.12-3.14-.7-3.56-3.42-.36-2.26.45-4.53-.42-6.76A2.24,2.24,0,0,1,431,488.2c1.07-.55,1.77.49,2.24,1.25a69.88,69.88,0,0,1,4,7C438.6,499.48,437.56,500.91,433.85,500.84Z"/> <path fill="#ae8f76" d="M30.53,490.22c0,3.44-.1,6.13,0,8.81.1,2-.25,3.39-2.47,3.89-1.48.33-3,.91-4.17-.34-1.38-1.52-.81-3.3.07-4.9A22.39,22.39,0,0,1,30.53,490.22Z"/> <path fill="#b7bcaa" d="M307,433.56c-.36,1.91-1.31,3.52-2.51,3.18-2.55-.73-3.56-3.49-5-5.48-.53-.75,1.7-2.27,3-2.29C305.82,428.93,305,432.68,307,433.56Z"/> <path fill="#bba987" d="M54.88,503.46c2.56,4.46,1,8.58-3.32,9.83-.72.21-1.3.35-1.76-.29a1.28,1.28,0,0,1,.3-1.79C52.23,509.09,53,506.1,54.88,503.46Z"/> <path fill="#bba987" d="M406.33,501.24c1.7,2.42,2.48,5.39,4.61,7.52a1.26,1.26,0,0,1-1.1,2.24A5.94,5.94,0,0,1,406.33,501.24Z"/> <path fill="#b7bcaa" d="M277.41,227.53c.1-5.11,1.94-10,1.91-15.15,0-1.12.33-2.83,1.92-2.55,2.29.41.51,2,.3,2.81-1.31,5-1.91,10.23-3.91,15.07Z"/> <path fill="#ae8f76" d="M292.28,428.89c1.58-1.45,3.14-2.91,4.75-4.33.86-.76,1.78-2.15,3-.84a2.7,2.7,0,0,1-.09,3.4c-1,1.29-2.15,2.37-4.07,2a28.94,28.94,0,0,0-3.61-.26Z"/> <path fill="#ae8f76" d="M433.51,508.24c1.69.11,2.83.72,2.53,2.22-.49,2.37-2.85,2.07-4.53,2.57a1.31,1.31,0,0,1-1.77-1.54C430.11,509.29,432.08,508.88,433.51,508.24Z"/> <path fill="#ae8f76" d="M31.18,513.73a1.94,1.94,0,0,1-2.5,1.76c-1.66-.37-3.69-.63-3.71-3a1.7,1.7,0,0,1,2.26-1.68A5.51,5.51,0,0,1,31.18,513.73Z"/> <path fill="#bba987" d="M405.08,496.5c0,.94-.1,1.82-1,1.56-1.42-.43-1.91-1.8-2.1-3.12-.14-1,.47-2.24,1.41-1.9C404.93,493.59,404.63,495.45,405.08,496.5Z"/> <path fill="#bba987" d="M59.07,497.46c-.4,1.21-.71,2.71-2.16,3-1.15.24-1.1-1-.9-1.68.35-1.19.17-2.92,1.59-3.32C58.59,495.2,59,496.42,59.07,497.46Z"/> <path fill="#ae8f76" d="M34.78,505.81c-1.47-2-2.07-3.73-1.2-5.9C34.5,501.58,36,503.07,34.78,505.81Z"/> <path fill="#ae8f76" d="M427.79,496.68a8.48,8.48,0,0,1-1.75,6.54C425.14,500.61,425.87,498.92,427.79,496.68Z"/> <path fill="#b7bcaa" d="M277.63,227.71c-.21,1.13.2,2.38-.69,3.37l-.43-.36c.38-1-.13-2.33.9-3.19Z"/> <path fill="#bba987" d="M316.8,184.28c.75.52,1.05,1.12.17,2.09-.06-.83-.11-1.46-.16-2.1Z"/> <path fill="#bba987" d="M141.77,185.09l-.16,2.1c-.88-1-.59-1.57.17-2.09Z"/> <path fill="#fefefe" d="M119.94,74.82c.31-.41.46-1.37,1.18-.72.47.42.17,1.14-.41,1.56Z"/> <path fill="#bba987" d="M423.14,514l.32-.42c0,.09,0,.2,0,.24a1,1,0,0,1-.31.16Z"/> <path fill="#bba987" d="M245.68,86.08l.4.41-.45-.36Z"/> <path fill="#fefefe" d="M325.36,499.63l-.13-.91.62.45A3.56,3.56,0,0,1,325.36,499.63Z"/> <path fill="#b7bcaa" d="M268.39,296.18l.54-.25c-.09.18-.18.35-.26.52Z"/> <path fill="#bba987" d="M37.91,516.4a1.29,1.29,0,0,1-.31-.16s0-.16,0-.24l.33.41Z"/> <path fill="#6b6f61" d="M277.89,742.44c.52-2.67,1.22-5.18,4.27-7.14C281.8,738.88,279.83,740.69,277.89,742.44Z"/> <path fill="#6b6f61" d="M256.55,744.81c-5-1.71-5.42-2.24-5.66-6.19Z"/> <path fill="#6b6f61" d="M185.35,742.6a10.53,10.53,0,0,1-4.28-7.2C184.13,737.41,184.84,740,185.35,742.6Z"/> <path fill="#6b6f61" d="M207.24,744.64c1.55-2,2.73-3.5,3.94-5,.36-.46.93-.76,1.33-.26a1.57,1.57,0,0,1,.14,1.45C211.44,742.51,210.26,744.35,207.24,744.64Z"/> <path fill="#6b6f61" d="M230,403.06c.79-1.35-1.26-4.53,1.6-4.39,3.22.15,1.24,3.46,1.7,5.33.32,1.31.37,2.86-1.83,2.65C228.88,406.39,230.33,404.46,230,403.06Z"/> <path fill="#6b6f61" d="M259.67,103.28c-4.61-1.12-9.15-1.42-12.48-5a4.8,4.8,0,0,1-1.49-4.4c.33-1.66,1-3.25,2.85-3.6s2.89.94,3.71,2.51c3.12,6,4.61,6.8,11.74,6,1-.12,2-.39,2.42.7.57,1.39-.46,2-1.56,2.3C263.06,102.37,261.24,102.84,259.67,103.28Z"/> <path fill="#6b6f61" d="M166.47,454.39c.65-6.2,3.35-11.68,5.95-17.18.91-1.93,2.07-2.82,3.8-.41s4.72,3.05,7.36,4c6.08,2.13,11.89,5.36,18.64,5,1.07-.07,1.76.56,1.56,1.35-1.29,5.14-.27,10.48-1.42,15.62-.17.75,0,1.81-1.15,1.78a1.48,1.48,0,0,1-1.25-1.42,2.26,2.26,0,0,0-2.22-2.32,101.26,101.26,0,0,1-25.3-7.22c-2-.87-3.4-1.18-3.66,1.61-.08.84.25,2.28-1.26,1.95C166.22,456.8,166.28,455.48,166.47,454.39Zm34.76-5.26c0-1.29-1.27-1.21-2.48-1.5a113.71,113.71,0,0,1-18.43-6.1c-6.81-2.88-6.62-2.84-9.24,4.42-1.16,3.23-.33,4.65,2.69,5.79a131.52,131.52,0,0,0,18.91,5.81c7.39,1.57,7.37,1.63,8-5.57C200.76,451.18,201,450.4,201.23,449.13Z"/> <path fill="#6b6f61" d="M156,477.48c14.93,2.85,26.68-2.18,35.75-14.58.32,4.35-3.82,9.17-11.41,13.31C173.48,479.94,161.43,482.34,156,477.48Z"/> <path fill="#6b6f61" d="M212.12,504.12l-.65-.75.44-.25c.06.34.13.68.19,1Z"/> <path fill="#6b6f61" d="M204.79,477.09l.35.46-.44-.37Z"/> <path fill="#6b6f61" d="M204.7,477.18l-.35-.43.44.34Z"/> <path fill="#6b6f61" d="M289,431.34c3-.33,4.15,2.27,5.86,3.86,3.37,3.13,5.16,7.23,6.38,11.57.2.72.37,1.77-.57,2.15s-1.55-.44-1.79-1.2c-.85-2.64-2.21-2.43-4.23-1.14-6.33,4-13.29,6.72-20.33,9.26-3.69,1.32-8.73.65-9.91,6.65a63.76,63.76,0,0,0-3.85-18c-.41-1.18.5-1.42,1.67-1.54,9.18-1,17.27-5.14,25.49-8.9,1.25-.58,1.3-1.6,1.31-2.71Zm7.27,10.37a18.6,18.6,0,0,0-4.92-6.64c-.81-.66-1.55,0-2.24.36A150.73,150.73,0,0,1,266,444.5c-1.13.34-2.63.7-2.22,2.36.64,2.63,1.55,5.19,2.29,7.79.41,1.46,1.25.93,2.21.68a98,98,0,0,0,26.18-11C295.37,443.79,296.55,443.38,296.25,441.71Z"/> <path fill="#6b6f61" d="M282.71,458.19c7.87,8.5,17.2,12.55,28.94,10.46-3.77,4.18-8.53,2.83-12.55,1.68C292.3,468.4,285.52,465.82,282.71,458.19Z"/> <path fill="#6b6f61" d="M258.65,477l.46-.31-.31.47Z"/> <path fill="#6b6f61" d="M220.18,307.07c-2.05,1-3.41.74-3.17-2,.16-1.73.16-3.73,2.58-3.81,2-.07,3.9.76,3.88,3.1C223.45,306.17,223.15,308.44,220.18,307.07Z"/> <path fill="#6b6f61" d="M256.5,322.61a11.79,11.79,0,0,1-3.26-5.88c-.22-1,.93-3.39,2.09-2.8a7.64,7.64,0,0,1,4.1,5.56C259.68,321.17,258.27,322,256.5,322.61Z"/> <path fill="#6b6f61" d="M245.39,291c-.37-.21-1.21-.23-.83-.83s.87-.05,1.18.39C245.62,290.66,245.5,290.8,245.39,291Z"/> <path fill="#6b6f61" d="M235.11,461.68c-2.31-.39-6.73,1.64-5.76-4,.48-2.82-2.65-8.25,3.91-7.39,2.82.37,8.3-3.68,8.33,3.65C241.63,461.57,241.69,461.57,235.11,461.68Zm.8-9.85a4.29,4.29,0,0,0-1,0c-1.25.41-3.57-.92-3.6,1.29,0,2,2.12.92,3.3,1.08s2.54.11,2.56,1.38c0,1.63-1.6.89-2.53,1.09-1.11.23-2.52-.56-3.28.83a1.37,1.37,0,0,0,.42,1.82,8.35,8.35,0,0,0,7.38.2c1.86-1,.86-4,.71-6C239.61,450.57,237.08,452.34,235.91,451.83Z"/> <path fill="#b7bcaa" d="M201.23,449.13c-.24,1.27-.47,2.05-.54,2.85-.64,7.2-.62,7.14-8,5.57a131.52,131.52,0,0,1-18.91-5.81c-3-1.14-3.85-2.56-2.69-5.79,2.62-7.26,2.43-7.3,9.24-4.42a113.71,113.71,0,0,0,18.43,6.1C200,447.92,201.27,447.84,201.23,449.13Z"/> <path fill="#b7bcaa" d="M296.25,441.71c.3,1.67-.88,2.08-1.77,2.62a98,98,0,0,1-26.18,11c-1,.25-1.8.78-2.21-.68-.74-2.6-1.65-5.16-2.29-7.79-.41-1.66,1.09-2,2.22-2.36a150.73,150.73,0,0,0,23.07-9.07c.69-.34,1.43-1,2.24-.36A18.6,18.6,0,0,1,296.25,441.71Z"/> <path fill="#b7bcaa" d="M235.91,451.83c1.17.51,3.7-1.26,3.91,1.65.15,2.06,1.15,5.06-.71,6a8.35,8.35,0,0,1-7.38-.2,1.37,1.37,0,0,1-.42-1.82c.76-1.39,2.17-.6,3.28-.83.93-.2,2.55.54,2.53-1.09,0-1.27-1.46-1.24-2.56-1.38s-3.32.9-3.3-1.08c0-2.21,2.35-.88,3.6-1.29A4.29,4.29,0,0,1,235.91,451.83Z"/> </g> <g id="ears"> <path fill="#6c6e5f" d="M313.05,49.23c-1.55,2.2-1.56,4.9-2.34,7.35-3.57,11.23-13.42,13-20.56,5.11a102.3,102.3,0,0,1-15.36-21.63c-.9-1.75-1.34-2.69-3.88-2.34-6.84.94-10.64-2.72-10-9.54.54-5.6,1-11.42,6.42-15.15A4.41,4.41,0,0,1,271,12c5.91,1.3,11.47,1.55,16.66-2.71,3.82-3.14,9.85-1.88,13.83,2.28,5.45,5.72,8,12.88,9.94,20.33.74,2.78.1,5.78,1.58,8.4ZM270.83,22.66c2.24,0,2.12,1.51,2.33,2.82,2.28,13.85,10.47,24.59,19.13,34.9,5.31,6.31,11.93,5,15.49-2.27a25.85,25.85,0,0,0,1.13-3,34.05,34.05,0,0,0,.85-16.74c-1.59-9-3.43-18-10.2-25-3.32-3.39-7.37-4.66-10.91-1.94-5,3.87-10.42,3.85-16.13,3.74-4.11-.07-6.77,2.25-8,6.53-1.54,5.38-.35,11.15,2.63,13.11,1.61,1.06,3,.47,4.6-.11,2-.77.63-2,.51-3C271.88,28.7,271.33,25.73,270.83,22.66Z"/> <path fill="#6c6e5f" d="M158.12,67.89C151.66,62,149,54.4,149.28,46.11c.34-10.11,2.57-20,8.21-28.64,2.73-4.15,6.25-8.16,12.23-8a8.26,8.26,0,0,1,5.19,1.69,14.52,14.52,0,0,0,10.78,3.26c11.4-1.17,14.49,4.46,15.62,14,.91,7.64-3.22,11.45-11.13,10.43-1.42-.18-2.16.36-2.7,1.75-3.24,8.27-9.69,14.48-14.43,21.79-1.76,2.7-5.18,3.55-7.59,5.58ZM191.27,24c-.5,3.46-.59,6.67-1.5,9.63-.84,2.73.8,3,2.46,3.37,2.62.55,4.18-1.13,5-3.21a16.26,16.26,0,0,0-.39-12.9,6.21,6.21,0,0,0-6.63-4.12c-5.78.27-11.38.43-16.56-3.62-3.56-2.78-7.52-1.45-11,1.81a26.12,26.12,0,0,0-6,9.05A64.47,64.47,0,0,0,151.8,46.3a26.42,26.42,0,0,0,3,14c3.72,6.73,9.49,7.61,14.78,2.12a55.73,55.73,0,0,0,6.27-7.91c5-7.48,10.79-14.48,12.16-23.89C188.31,28.59,188.08,25.47,191.27,24Z"/> <path class="ears0" d="M270.83,22.66c.5,3.07,1.05,6,1.43,9,.12,1,1.51,2.24-.51,3-1.56.58-3,1.17-4.6.11-3-2-4.17-7.73-2.63-13.11,1.23-4.28,3.89-6.6,8-6.53,5.71.11,11.09.13,16.13-3.74,3.54-2.72,7.59-1.45,10.91,1.94,6.77,7,8.61,15.94,10.2,25a34.05,34.05,0,0,1-.85,16.74,25.85,25.85,0,0,1-1.13,3c-3.56,7.31-10.18,8.58-15.49,2.27-8.66-10.31-16.85-21.05-19.13-34.9C273,24.17,273.07,22.69,270.83,22.66Z"/> <path class="ears0" d="M191.27,24c-3.19,1.52-3,4.64-3.26,6.69-1.37,9.41-7.2,16.41-12.16,23.89a55.73,55.73,0,0,1-6.27,7.91c-5.29,5.49-11.06,4.61-14.78-2.12a26.42,26.42,0,0,1-3-14A64.47,64.47,0,0,1,156.69,24a26.12,26.12,0,0,1,6-9c3.43-3.26,7.39-4.59,11-1.81,5.18,4,10.78,3.89,16.56,3.62a6.21,6.21,0,0,1,6.63,4.12,16.26,16.26,0,0,1,.39,12.9c-.82,2.08-2.38,3.76-5,3.21-1.66-.35-3.3-.64-2.46-3.37C190.68,30.62,190.77,27.41,191.27,24Z"/> </g> <g id="tail"> <path fill="#696c5f" d="M163.24,420.07c-1.14,2.77-1.94.58-2.64-.25a56.32,56.32,0,0,1-11.52-24c-.58-2.53-.05-5.28-1.56-7.61v-5.7c1-.37.7-1.29.81-2,1-7,3.18-13.35,7.91-18.78,3.81-4.37,8.93-6,14.08-7.71,3.27-.76,2.37,1.61,2.45,3.26-11.13,6-17,21.63-11.92,37.24a48,48,0,0,0,7,13.6c.81,1.11,2.23,2.18.86,3.82-6.79-6.13-10.31-14.1-11.26-22.88-1.3-12,.6-23.3,11.24-31.57-4.39.12-9.46,3.2-12.12,6.89-6.73,9.35-6.8,19.91-5.15,30.55C152.85,404.33,157.53,412.5,163.24,420.07Z"/> <path class="ears0" d="M163.24,420.07c-5.71-7.57-10.39-15.74-11.85-25.19-1.65-10.64-1.58-21.2,5.15-30.55,2.66-3.69,7.73-6.77,12.12-6.89C158,365.71,156.12,377,157.42,389c1,8.78,4.47,16.75,11.26,22.88C167,414.73,166.33,418.19,163.24,420.07Z"/> </g> <g id="eyes"> <path d="M220.84,125.54l-.35-.13a.85.85,0,0,1-.24-.08h.23a.85.85,0,0,0,.23,0h0l0,0a4.85,4.85,0,0,0-1.58-.69l-.43-.16-.49-.19c-.35-.15-.73-.31-1.06-.47s-.57-.26-.83-.38a12.17,12.17,0,0,0-2.09-.7,22,22,0,0,0-3.29-.65,29.38,29.38,0,0,0-3.2-.18c-1,0-2,.09-3.2.2-.2,0-.4.06-.58.07a6.38,6.38,0,0,1-1.05.09l-.13,0s.07,0,.1,0a5.16,5.16,0,0,0,1.1-.09,3.83,3.83,0,0,1,.58-.07c1.15-.11,2.21-.19,3.2-.2a20.44,20.44,0,0,1,3.2.18,22.23,22.23,0,0,1,3.29.65,13.89,13.89,0,0,1,2.07.71,6.86,6.86,0,0,1,.83.38c.35.15.7.35,1.06.47.15.07.32.12.49.18l.43.17a5.5,5.5,0,0,1,1.55.67l-.2,0-.27,0,0,0h0a1.12,1.12,0,0,0,.31.1,1.06,1.06,0,0,1,.3.1,17.06,17.06,0,0,0-1.87.62h0a5.15,5.15,0,0,1-.71.27,11.8,11.8,0,0,0-1.72.92l-.56.32a22.67,22.67,0,0,0-2.23,1.47L212,130.38h0c-.34.25-.71.48-1.05.73a2,2,0,0,0-.45.51.86.86,0,0,1-.14.18h0a10.44,10.44,0,0,1-1.72,1.86,7.57,7.57,0,0,1-1.35.77l-.26.11c-.43.22-.88.42-1.29.61-.8.38-1.65.76-2.42,1.2a8.36,8.36,0,0,0-2.49,1.84,2.92,2.92,0,0,0-.39.86,3.14,3.14,0,0,1,.7-1.75,5.91,5.91,0,0,1,1.33-1.31v0a4.6,4.6,0,0,0-.77.25,7.13,7.13,0,0,0-1.42.89,7.56,7.56,0,0,0-1.31,1.4,5,5,0,0,0-.39.62l-.29.51a7.2,7.2,0,0,1,.54-1.45,6.5,6.5,0,0,1,.89-1.32,5.61,5.61,0,0,1,.5-.48l.22-.2v0l-.65.29h0c-.36.16-.75.34-1.1.52a7,7,0,0,0-2.44,2,7.14,7.14,0,0,0-.47.7h0l-.16.26a4.94,4.94,0,0,1,1.2-2.45,5.72,5.72,0,0,1,1.16-1l.09-.06a3.81,3.81,0,0,0,.32-.24v0a7.27,7.27,0,0,0-2.79,1.58,10.39,10.39,0,0,0-1.91,2.34.7.7,0,0,1-.12.15,3.48,3.48,0,0,1,.39-1.07,7.23,7.23,0,0,1,.68-1,8.75,8.75,0,0,1,1.17-1.09.22.22,0,0,0,.11-.12l0,0,0,0a13.32,13.32,0,0,0-2.52,1.51,9.78,9.78,0,0,0-2.21,2.19,5.31,5.31,0,0,1,2-2.85c.13-.08.25-.18.36-.25v0c-.44.17-.87.32-1.33.47a11.38,11.38,0,0,0-2.44,1,7.2,7.2,0,0,0-.75.52h0c-.05,0-.11.08-.14.11a4.93,4.93,0,0,0,.42-.63,3,3,0,0,1,.21-.33,4,4,0,0,1,1-1.11,3.65,3.65,0,0,1,1.3-.63v0c-.39,0-.76.05-1.14.06a12.68,12.68,0,0,0-3.5.48l.06,0h0c.05-.05.13-.08.2-.14v0a5.23,5.23,0,0,1-2.6.1h.14a5.11,5.11,0,0,0,1.35-.25v0a6.06,6.06,0,0,1-1.74.07,8.73,8.73,0,0,1-2.62-.77,8,8,0,0,0,4.09-.69v0l-.77,0h0a1,1,0,0,1-.25,0h-.19l-.48-.07a7.72,7.72,0,0,0,1.88-.14,1.06,1.06,0,0,0,.19,0,1.3,1.3,0,0,0,.65-.19h0a3,3,0,0,0-1-.25H186a3.57,3.57,0,0,1,.8,0l.46,0a.61.61,0,0,0,.46-.25l.15-.14a.61.61,0,0,1,.16-.12.72.72,0,0,0,.26-.26v0h0a4.36,4.36,0,0,1-1.73-.27c.35,0,.7,0,1,0l.51,0h0a.93.93,0,0,0,.7-.17l.9-.73v0a7.94,7.94,0,0,1-4.06.28,3.64,3.64,0,0,1-1.37-.59,6.48,6.48,0,0,0,3.75,0l0,0h0l-.18,0a3.59,3.59,0,0,1-.39-.12,1.46,1.46,0,0,1,.55,0,2,2,0,0,0,.49,0,1.81,1.81,0,0,0,.54-.22,1.51,1.51,0,0,1,.29-.13v0a3.64,3.64,0,0,1-1.46-.2l.49,0a4.79,4.79,0,0,0,1.41-.06,3.24,3.24,0,0,0,.87-.44l0-.06a4.22,4.22,0,0,1-2.09,0,4.71,4.71,0,0,0,2-.19v0h-.18a1.91,1.91,0,0,1-.48,0,3.86,3.86,0,0,1-1.28-.42,3.14,3.14,0,0,0,1.06,0h.12a3.54,3.54,0,0,0,1.6-.43v0a5.12,5.12,0,0,1-2.46,0,2.47,2.47,0,0,1-1.12-.75,4.09,4.09,0,0,0,2.33.3,9.51,9.51,0,0,0,2-.59v0a7.31,7.31,0,0,1-1.14-.18c-.18,0-.34-.08-.52-.12h-.05a3.58,3.58,0,0,1-1.19-.37l.17.05a3.92,3.92,0,0,0,.66.15v0l-.37-.19a3.57,3.57,0,0,1-.63-.35,4.38,4.38,0,0,0,1.52.24v0a2.06,2.06,0,0,1-.55-.18,5.24,5.24,0,0,0,2.28.07.43.43,0,0,1,.19,0h0a1.32,1.32,0,0,0,.86-.41v0h0a7.35,7.35,0,0,1-2.46-.06,4,4,0,0,0,1.35-.06v0a4,4,0,0,1-2-.84,4.69,4.69,0,0,0,3.86,0l.11-.06a1.18,1.18,0,0,0,.31-.27h0a10.23,10.23,0,0,1-1.16-.1,6.89,6.89,0,0,1-1.12-.33,3.83,3.83,0,0,1-1.44-1c.33.11.66.27,1,.41a7,7,0,0,0,1.36.52,6.14,6.14,0,0,0,1.73.1h0l.24-.25h0l0,0a6.13,6.13,0,0,1-1.71-.44,4.66,4.66,0,0,1-1.44-.89c.18.09.37.19.57.27a7.47,7.47,0,0,0,2.28.8s0,0,.07,0a.84.84,0,0,0,.7-.12.81.81,0,0,1,.1-.09h0c.15-.14.31-.28.48-.41h0l-.36-.1h0a6.06,6.06,0,0,1-1.87-.75,3.47,3.47,0,0,1-.51-.4c.15.07.32.14.48.23a8.3,8.3,0,0,0,1.83.72,1.63,1.63,0,0,0,.85,0h0a.87.87,0,0,1-.31-.1,5,5,0,0,1-2.22-1.06l.33.16a5.71,5.71,0,0,0,1.7.63,2.08,2.08,0,0,0,.9,0v0a5.61,5.61,0,0,1-1.14-.34,3.63,3.63,0,0,1-.94-.55,6.64,6.64,0,0,0,2,.69v0a4,4,0,0,1-1.71-1.19,5.33,5.33,0,0,0,1.45.65,4,4,0,0,0,1.37.21,1.19,1.19,0,0,0,.27-.07h-.08l-.19,0a3.94,3.94,0,0,1-1.35-.23,5.3,5.3,0,0,1-1.52-.69v0h0a4.1,4.1,0,0,0,1.63,1.21,6.81,6.81,0,0,1-2-.72h0v0a4.18,4.18,0,0,0,1,.63,8.19,8.19,0,0,0,1.09.34,2.35,2.35,0,0,1-.84,0,6.69,6.69,0,0,1-1.7-.64c-.12-.06-.27-.11-.39-.18v0h0a4.75,4.75,0,0,0,2.27,1.11,1,1,0,0,0,.27.07,1.66,1.66,0,0,1-.8,0,7.26,7.26,0,0,1-1.84-.72l-.54-.25h0v0a2.9,2.9,0,0,0,.58.45,5.69,5.69,0,0,0,1.87.75h0c.11,0,.22.07.33.09a2.36,2.36,0,0,0-.44.39h0s-.07,0-.1.09a.84.84,0,0,1-.71.13s0,0-.07,0a7.93,7.93,0,0,1-2.28-.8l-.62-.29h0v0a4.57,4.57,0,0,0,1.48.94,6,6,0,0,0,1.69.45c-.08.09-.15.14-.21.22a5.44,5.44,0,0,1-3.07-.64,8.62,8.62,0,0,0-1-.44l-.05,0,0,0a4,4,0,0,0,1.49,1,5.43,5.43,0,0,0,1.12.35,9.8,9.8,0,0,0,1.14.11,2.25,2.25,0,0,1-.27.26,4.66,4.66,0,0,1-4,0v0h0a4.14,4.14,0,0,0,2.05.88,3.65,3.65,0,0,1-1.44,0h0v0h0a7,7,0,0,0,2.63.1,1.32,1.32,0,0,1-.83.37h0l-.2,0a4.87,4.87,0,0,1-2.35-.08h0v.05a1.28,1.28,0,0,0,.51.19,5.24,5.24,0,0,1-1.47-.26h0v0a5.8,5.8,0,0,0,.7.39l.3.15a3.77,3.77,0,0,1-.58-.14,1.44,1.44,0,0,1-.25-.08h0v.05a3.39,3.39,0,0,0,1.28.42h0l.53.12a5.44,5.44,0,0,0,1.07.18,8.11,8.11,0,0,1-1.89.57,4.22,4.22,0,0,1-2.37-.31h0v0a2.56,2.56,0,0,0,1.17.81,4.88,4.88,0,0,0,2.4,0,4.07,4.07,0,0,1-1.52.39l-.14,0a3.42,3.42,0,0,1-1.12-.07h0v0h0a4.59,4.59,0,0,0,1.35.46,1.05,1.05,0,0,0,.5,0h.06a5.05,5.05,0,0,1-2,.12h0v0h0a4,4,0,0,0,2.13.06,2.39,2.39,0,0,1-.82.39,4.43,4.43,0,0,1-1.4.09,3.41,3.41,0,0,0-.55,0h0v0h0a3.16,3.16,0,0,0,1.46.2.83.83,0,0,0-.21.12,2.46,2.46,0,0,1-.52.21,2.75,2.75,0,0,1-.49,0,1.14,1.14,0,0,0-.58,0h0l0,0a2.62,2.62,0,0,0,.41.12l.14,0a6.61,6.61,0,0,1-3.74,0h0v0h0a3.27,3.27,0,0,0,1.44.63,7.56,7.56,0,0,0,4-.26c-.26.21-.51.44-.85.69a1.08,1.08,0,0,1-.68.16h0c-.18,0-.34,0-.51,0l-1.08,0h0l0,0h0a4.46,4.46,0,0,0,1.76.28.69.69,0,0,1-.25.23c-.05.05-.11.07-.16.12l-.15.14c-.13.13-.26.26-.44.24l-.46,0a4.21,4.21,0,0,0-.87,0h0v0l.13,0a3.86,3.86,0,0,1,.93.24,1.48,1.48,0,0,1-.62.18l-.2,0a9,9,0,0,1-2,.12h0v0h0a2,2,0,0,0,.59.09h0a.57.57,0,0,0,.19,0l.25,0h0a5.37,5.37,0,0,0,.7,0,7.73,7.73,0,0,1-4.07.67h0v0a8.58,8.58,0,0,0,2.69.78,5.28,5.28,0,0,0,1.58,0,5.49,5.49,0,0,1-1.2.21h-.23v0h0a5.41,5.41,0,0,0,2.62-.06.57.57,0,0,1-.13.08h0a.26.26,0,0,1-.11.07h0v0h0a13.54,13.54,0,0,1,3.56-.5l1-.06a4.68,4.68,0,0,0-1.2.61,3.75,3.75,0,0,0-1,1.11c-.07.1-.14.22-.21.33a4.66,4.66,0,0,1-.48.71h0v0h0l.23-.17h0a5.15,5.15,0,0,1,.76-.53,11,11,0,0,1,2.44-1c.41-.13.83-.27,1.23-.43a3,3,0,0,0-.28.22,6.4,6.4,0,0,0-.51.4,5.55,5.55,0,0,0-1.56,2.54h0a10,10,0,0,1,2.26-2.24,14,14,0,0,1,2.46-1.48s-.05,0-.08.08a7.72,7.72,0,0,0-1.19,1.1,6.87,6.87,0,0,0-.7,1,3.31,3.31,0,0,0-.39,1.13l0,.05,0,0a1,1,0,0,0,.16-.19,10.61,10.61,0,0,1,1.9-2.34,7.23,7.23,0,0,1,2.71-1.57l-.27.19-.07.06a5,5,0,0,0-1.17,1,4.82,4.82,0,0,0-1.19,2.5h0a1.18,1.18,0,0,0,.19-.32h0a8.17,8.17,0,0,1,.49-.71,6.91,6.91,0,0,1,2.44-2c.37-.19.74-.36,1.1-.52h0l.57-.25-.17.15a3.24,3.24,0,0,0-.5.48,5.66,5.66,0,0,0-.89,1.32,6.72,6.72,0,0,0-.56,1.5v0h0a5.07,5.07,0,0,0,.34-.55,4.9,4.9,0,0,1,.38-.62,6.94,6.94,0,0,1,1.32-1.39,5.69,5.69,0,0,1,2.09-1.15,5.49,5.49,0,0,0-1.3,1.29,3.18,3.18,0,0,0-.7,1.85h0v0a2.37,2.37,0,0,1,.4-.94,8.25,8.25,0,0,1,2.47-1.83c.8-.43,1.62-.82,2.42-1.21.39-.17.85-.4,1.29-.6l.25-.11a6.1,6.1,0,0,0,1.36-.77,12.33,12.33,0,0,0,1.74-1.87h0c0-.07.11-.14.15-.21a2.14,2.14,0,0,1,.45-.51c.36-.25.7-.5,1-.73h0c.56-.39,1.12-.76,1.69-1.18a24.62,24.62,0,0,1,2.23-1.47l.56-.32a10.91,10.91,0,0,1,1.72-.91c.25-.09.49-.2.73-.28h0a12.36,12.36,0,0,1,1.89-.64h0Z"/> <path d="M202.36,122.2a.69.69,0,0,0-.2,0H202s0,0-.08,0l0,0h.16A1,1,0,0,1,202.36,122.2Z"/> <path fill="#ffffff" d="M188.47,137c1.37-.33,2.81-.54,4.19-.74.48-.07,1-.16,1.5-.22,2.47-.42,4.7-.76,6.8-1a7.28,7.28,0,0,1-1.85-.81,12.6,12.6,0,0,1-2.28-1.86,14.3,14.3,0,0,1-2.09-2.73,7.14,7.14,0,0,0-.47.7,6.2,6.2,0,0,1-.46.71h0c-.27.36-.52.73-.77,1.08-.39.55-.78,1.1-1.21,1.63a.7.7,0,0,0-.12.15,1.26,1.26,0,0,0-.33.47,3.06,3.06,0,0,1-.48.79A8.08,8.08,0,0,1,188.47,137Z"/> <path fill="#ffffff" d="M207.66,122.9a6,6,0,0,1,1.14,1.38,9.68,9.68,0,0,1,.78,1.64,11.12,11.12,0,0,1,.52,1.68,7.29,7.29,0,0,1,.19,1.74,4.44,4.44,0,0,1-.22,1.31,4.59,4.59,0,0,1-.55,1.16,17.14,17.14,0,0,0,2.71-3.36c.37-.55.74-1.09,1.14-1.62a5.79,5.79,0,0,1,1.83-1.63,6,6,0,0,1,1.57-.61,7,7,0,0,1,1.64-.14c-1.06-.21-2.15-.46-3.18-.7-.61-.16-1.24-.3-1.86-.42A17.57,17.57,0,0,0,207.66,122.9Z"/> <path class="eyes0" d="M199.45,125.3a2.3,2.3,0,0,0-.4.23.69.69,0,0,1-.19.1c-.57.36-1.19.73-1.77,1.13a4.71,4.71,0,0,0-1,1,.57.57,0,0,0-.1.45,5.46,5.46,0,0,0,1,2.64,9.29,9.29,0,0,0,.72.91l.35.42a8.3,8.3,0,0,0,4.55,2.34,2.59,2.59,0,0,0,1,0,18.53,18.53,0,0,0,2.15-.58,17.45,17.45,0,0,0,2-.89l.12,0a1.38,1.38,0,0,0,.49-.5l.09-.11a1.22,1.22,0,0,0,.17-.29,2.35,2.35,0,0,1,.24-.37,3.33,3.33,0,0,0,1.14-1.9,4.78,4.78,0,0,0-.12-2.22,9.52,9.52,0,0,0-1-2.57,7.07,7.07,0,0,0-1.73-1.92h0a.9.9,0,0,0-.58-.23,19.38,19.38,0,0,0-2,.3,15.53,15.53,0,0,0-3.14,1,2.29,2.29,0,0,1,1.09.11,4.38,4.38,0,0,1,2.07,1.67,4,4,0,0,1,.88,2.4,1.86,1.86,0,0,1-.23.91,2.05,2.05,0,0,1-.6.71,2,2,0,0,1-.93.42,2.68,2.68,0,0,1-1,0,4.53,4.53,0,0,1-2.55-1.2,4.05,4.05,0,0,1-.75-1A3.41,3.41,0,0,1,199,127a2.33,2.33,0,0,1,.11-1,3.18,3.18,0,0,1,.44-.86C199.53,125.27,199.49,125.28,199.45,125.3Z"/> <path d="M244,126.06h0a15.86,15.86,0,0,1,2,.31h0l.77.16a11.34,11.34,0,0,1,1.84.61l.61.23a22.29,22.29,0,0,1,2.44,1.08c.61.32,1.25.6,1.87.89h0c.37.19.77.36,1.15.55a2,2,0,0,1,.53.43l.18.18h0a9.64,9.64,0,0,0,2,1.56,7.38,7.38,0,0,0,1.47.54l.27.07c.46.14.94.27,1.37.38.85.25,1.73.5,2.59.79a8.06,8.06,0,0,1,2.73,1.4,2.41,2.41,0,0,1,.56.86v0l0,0h0a3.15,3.15,0,0,0-1-1.71,5.61,5.61,0,0,0-1.47-1,5.17,5.17,0,0,1,2.25.79,7.44,7.44,0,0,1,1.53,1.16,3.21,3.21,0,0,1,.48.55,4.71,4.71,0,0,0,.43.49h0v0a6.73,6.73,0,0,0-.8-1.39,5.54,5.54,0,0,0-1.1-1.16,3.66,3.66,0,0,0-.57-.4l-.19-.11.61.15h0c.37.1.79.21,1.18.33a7.25,7.25,0,0,1,2.75,1.61,7,7,0,0,1,.59.63h0a2.2,2.2,0,0,1,.24.28h0l0,0h0a5,5,0,0,0-1.59-2.27,6.23,6.23,0,0,0-1.33-.83s-.05,0-.07,0a1.68,1.68,0,0,1-.3-.15,6.51,6.51,0,0,1,2.92,1.1,10.74,10.74,0,0,1,2.27,2,1.29,1.29,0,0,0,.18.16l0,0,0,0a3.52,3.52,0,0,0-.58-1.05,5.21,5.21,0,0,0-.85-.84,7,7,0,0,0-1.33-.89s-.05,0-.09-.07a14,14,0,0,1,2.67,1.06,10.17,10.17,0,0,1,2.6,1.84h0l0,0h0A6.11,6.11,0,0,0,274.1,134a4.37,4.37,0,0,0-.57-.3,1.87,1.87,0,0,1-.31-.17l1.28.22a10.69,10.69,0,0,1,2.58.63,7.86,7.86,0,0,1,.83.4h0l.26.13h0l0,0h0a4.4,4.4,0,0,1-.59-.63c-.07-.08-.17-.2-.26-.29a4.33,4.33,0,0,0-1.17-.93,4.19,4.19,0,0,0-1.27-.4l1-.11a12.68,12.68,0,0,1,3.59-.09h0v0h0c-.05,0-.08,0-.12,0h0c-.05,0-.1-.05-.14-.06a5,5,0,0,0,2.59-.37h0v0h0l-.19,0h0a6.22,6.22,0,0,1-1.22,0,5,5,0,0,0,1.57-.22,8.78,8.78,0,0,0,2.51-1.21v-.05h0a7.92,7.92,0,0,1-4.13,0,5,5,0,0,0,.69-.16h0l.24-.07a1.29,1.29,0,0,0,.19,0h0A2.31,2.31,0,0,0,282,130h0v0h0a9.53,9.53,0,0,1-2,.21h-.2a1.74,1.74,0,0,1-.65-.08,4.34,4.34,0,0,1,.88-.4l.1,0v0h0a2.85,2.85,0,0,0-.86.13c-.14,0-.29.08-.45.1a.57.57,0,0,1-.47-.16l-.17-.11a.81.81,0,0,0-.18-.1.82.82,0,0,1-.29-.18,4.62,4.62,0,0,0,1.69-.56h0l0,0h0a7.38,7.38,0,0,0-1.06.22l-.49.11h0a1,1,0,0,1-.7-.05l-1-.54a7.75,7.75,0,0,0,4-.4,3.47,3.47,0,0,0,1.32-.86h0l0,0h0a6.54,6.54,0,0,1-3.68.62.45.45,0,0,0,.12-.06,2.44,2.44,0,0,0,.41-.18l.05,0h-.05a2.26,2.26,0,0,0-.58.09,1.52,1.52,0,0,1-.47.1,2.27,2.27,0,0,1-.55-.12,2.34,2.34,0,0,1-.24-.09,3.46,3.46,0,0,0,1.4-.43h0v0h0c-.19,0-.36.09-.54.11a4.12,4.12,0,0,1-1.4.14,2.36,2.36,0,0,1-.87-.25,4,4,0,0,0,2.09-.41h0v0h0a5,5,0,0,1-2,.2.06.06,0,0,1,.07,0,1.79,1.79,0,0,0,.47-.1A4.2,4.2,0,0,0,277,126h0v0h0a2.71,2.71,0,0,1-1.12.25h-.13a3.81,3.81,0,0,1-1.57-.15,5,5,0,0,0,2.38-.38,2.5,2.5,0,0,0,1-1v0h0a4,4,0,0,1-2.28.7,8.74,8.74,0,0,1-2-.25,6.93,6.93,0,0,0,1-.35c.15-.08.33-.14.5-.21h0A3.66,3.66,0,0,0,276,124v0h0l-.24.12a3,3,0,0,1-.55.24l.28-.2a4.31,4.31,0,0,0,.62-.51v0l0,0h0a5.49,5.49,0,0,1-1.4.5,1.87,1.87,0,0,0,.49-.27v0l0,0h0a5,5,0,0,1-2.31.47,1.55,1.55,0,0,0-.22,0h0a1.51,1.51,0,0,1-.87-.23,6.89,6.89,0,0,0,2.57-.54h0l0,0h0a4.63,4.63,0,0,1-1.44.23,4.35,4.35,0,0,0,1.88-1.21h0l0,0v0a4.69,4.69,0,0,1-4,.6.91.91,0,0,1-.32-.22,5.38,5.38,0,0,0,1.1-.29,3.81,3.81,0,0,0,1.05-.52,4.17,4.17,0,0,0,1.3-1.23l0,0,0,0a7.27,7.27,0,0,0-1,.59,6.39,6.39,0,0,1-1.27.74,7,7,0,0,1-1.68.39l-.24-.18a6.77,6.77,0,0,0,1.59-.72,4.8,4.8,0,0,0,1.31-1.17v0l0,0h0l-.57.39a7.8,7.8,0,0,1-2.09,1.17l-.07,0a.87.87,0,0,1-.69,0l-.12-.07h0a5.1,5.1,0,0,0-.52-.31,2.8,2.8,0,0,0,.3-.15h0a6.09,6.09,0,0,0,1.73-1c.18-.18.34-.36.5-.54v-.05h0l-.49.34a7.87,7.87,0,0,1-1.7,1,1.69,1.69,0,0,1-.79.13c.08,0,.18-.07.25-.11a5.3,5.3,0,0,0,2.08-1.47h0v0a3.07,3.07,0,0,0-.35.24,7.15,7.15,0,0,1-1.56.91,2.61,2.61,0,0,1-.83.12,4.73,4.73,0,0,0,1-.52,5,5,0,0,0,.92-.78v0h0a6.27,6.27,0,0,1-1.84,1,4.21,4.21,0,0,0,1.41-1.46h0v0a5.14,5.14,0,0,1-1.38.93,4.87,4.87,0,0,1-1.3.45.67.67,0,0,1-.2,0l-.07,0a.86.86,0,0,0,.28,0,3.94,3.94,0,0,0,1.32-.43,5.07,5.07,0,0,0,1.32-.88,3.93,3.93,0,0,1-1.49,1.46v0a6.57,6.57,0,0,0,1.9-1,6.27,6.27,0,0,1-.83.7,4.91,4.91,0,0,1-1.08.52v0a2.55,2.55,0,0,0,.9-.1,6.6,6.6,0,0,0,1.57-.9,3.21,3.21,0,0,1,.3-.21,5.17,5.17,0,0,1-2,1.41,1.84,1.84,0,0,0-.28.15h0a1.55,1.55,0,0,0,.84-.14,7.08,7.08,0,0,0,1.69-1c.14-.12.3-.21.44-.31a2.57,2.57,0,0,1-.44.49,6.46,6.46,0,0,1-1.72,1h0c-.11.06-.23.09-.33.15l0,0h0a4.25,4.25,0,0,1,.54.32h0a.83.83,0,0,1,.12.08.81.81,0,0,0,.71,0l.07,0a7.91,7.91,0,0,0,2.11-1.17c.17-.11.34-.25.52-.35a4.9,4.9,0,0,1-1.27,1.11,6.66,6.66,0,0,1-1.6.72l0,0h0l.26.2h0a7,7,0,0,0,1.68-.39,6.69,6.69,0,0,0,1.27-.74,10.4,10.4,0,0,1,.9-.56,4,4,0,0,1-1.27,1.18,4.19,4.19,0,0,1-1,.51,6.44,6.44,0,0,1-1.13.28l0,0h0a1,1,0,0,0,.34.23l.13,0a4.68,4.68,0,0,0,3.81-.59,4.48,4.48,0,0,1-1.87,1.17v0a3.77,3.77,0,0,0,1.33-.17,6.77,6.77,0,0,1-2.42.47h0v0a1.24,1.24,0,0,0,.92.26h0a.66.66,0,0,0,.2,0,5,5,0,0,0,2.23-.44,1.8,1.8,0,0,1-.52.26l0,0a4,4,0,0,0,1.47-.49,5,5,0,0,1-.57.46l-.33.25v0a3.1,3.1,0,0,0,.63-.26.51.51,0,0,1,.15-.07,3.94,3.94,0,0,1-1.1.56h-.05l-.5.2a5.45,5.45,0,0,1-1.1.36v0a7.66,7.66,0,0,0,2,.27,4.23,4.23,0,0,0,2.26-.69,2.5,2.5,0,0,1-1,.93A5.08,5.08,0,0,1,274,126v0a3.66,3.66,0,0,0,1.65.16h.11a3.1,3.1,0,0,0,1-.22,3.76,3.76,0,0,1-1.19.62,1,1,0,0,1-.47.1l-.18,0v0a5.37,5.37,0,0,0,2-.14,4.07,4.07,0,0,1-2.05.35v0a3,3,0,0,0,.93.29,4.38,4.38,0,0,0,1.4-.17c.17,0,.34-.07.5-.09a3.61,3.61,0,0,1-1.41.43v0l.32.08a1.57,1.57,0,0,0,.57.12,1.2,1.2,0,0,0,.47-.1,1.66,1.66,0,0,1,.54-.1,1.49,1.49,0,0,1-.36.17l-.17.07h0a6.47,6.47,0,0,0,3.71-.59,3.68,3.68,0,0,1-1.26.81,7.82,7.82,0,0,1-4.06.39v0c.31.19.62.36,1,.57a1.12,1.12,0,0,0,.72.06h0l.5-.11,1-.2a4.45,4.45,0,0,1-1.66.54h0l0,0a.62.62,0,0,0,.3.22,1.51,1.51,0,0,1,.18.09l.15.1a.62.62,0,0,0,.49.18,4.2,4.2,0,0,0,.45-.11,3.52,3.52,0,0,1,.79-.13h0a5,5,0,0,0-.91.41l0,0h0a1.29,1.29,0,0,0,.67.09.41.41,0,0,1,.19,0,10.3,10.3,0,0,0,1.88-.18l-.46.14h0a1.29,1.29,0,0,1-.19,0l-.24.08h0c-.24,0-.5.11-.76.15v0a8.25,8.25,0,0,0,4.14,0,9.11,9.11,0,0,1-2.45,1.19,6,6,0,0,1-1.73.21v0a4.51,4.51,0,0,0,1.37,0h0l.12,0a5,5,0,0,1-2.59.33v0l.22.1h0l.06,0a13,13,0,0,0-3.53.1l-1.13.13v0a4.28,4.28,0,0,1,1.39.41,3.87,3.87,0,0,1,1.16.93c.09.09.17.2.26.29a4.6,4.6,0,0,0,.52.56c-.06,0-.12-.05-.16-.09h0a5.22,5.22,0,0,0-.83-.39,10.57,10.57,0,0,0-2.58-.63c-.45-.08-.92-.15-1.38-.25v0a3.52,3.52,0,0,0,.4.19c.19.1.37.19.54.3a5.85,5.85,0,0,1,1.93,2.18,10.35,10.35,0,0,0-2.54-1.8,13.92,13.92,0,0,0-2.73-1.08h0l0,0a.64.64,0,0,1,.13.1,6.37,6.37,0,0,1,1.34.88,5.33,5.33,0,0,1,.82.84,3,3,0,0,1,.57,1,1,1,0,0,0-.15-.13,10.16,10.16,0,0,0-2.26-2,7,7,0,0,0-3-1.1v0a3.84,3.84,0,0,1,.35.18.11.11,0,0,1,.08,0,5.25,5.25,0,0,1,1.32.83,4.93,4.93,0,0,1,1.58,2.22,1.14,1.14,0,0,1-.2-.23h0a7.51,7.51,0,0,0-3.34-2.23c-.4-.13-.79-.23-1.19-.34h0l-.69-.18v0l.24.15a6.1,6.1,0,0,1,.59.4,5.53,5.53,0,0,1,1.1,1.16,6.18,6.18,0,0,1,.77,1.34c-.14-.15-.25-.31-.37-.46s-.31-.36-.48-.54a7.18,7.18,0,0,0-1.53-1.16,5.91,5.91,0,0,0-1.55-.65,3.09,3.09,0,0,0-.79-.12v0a5.67,5.67,0,0,1,1.53,1.07,3.15,3.15,0,0,1,1,1.62,2.67,2.67,0,0,0-.53-.79,8.09,8.09,0,0,0-2.75-1.41c-.86-.29-1.73-.54-2.58-.79-.44-.11-.92-.26-1.38-.38l-.27-.07a7.13,7.13,0,0,1-1.46-.54,9.8,9.8,0,0,1-2-1.55h0a.81.81,0,0,0-.16-.16,1.82,1.82,0,0,0-.53-.43c-.4-.19-.78-.38-1.16-.54h0c-.62-.28-1.23-.57-1.86-.89s-1.58-.77-2.44-1.09l-.61-.22a13.39,13.39,0,0,0-1.85-.62c-.25,0-.5-.11-.76-.15h0a14.14,14.14,0,0,0-2-.31,1.14,1.14,0,0,1,.29-.15.94.94,0,0,0,.28-.15l0,0h0l-.28,0h-.2a4.91,4.91,0,0,1,1.42-.92l.4-.23a4.83,4.83,0,0,0,.45-.26l1-.64c.24-.18.49-.36.75-.52a13.83,13.83,0,0,1,1.93-1,22.36,22.36,0,0,1,3.14-1.19c1-.28,2-.5,3.13-.7,1-.14,2-.25,3.18-.32.19,0,.41,0,.59,0a6.8,6.8,0,0,0,1.1-.09s.06,0,.09,0h-.13a6.27,6.27,0,0,1-1.05.08,3.84,3.84,0,0,0-.59,0c-1.15.08-2.21.18-3.18.33a22.89,22.89,0,0,0-3.13.7,24.57,24.57,0,0,0-3.14,1.19,13.68,13.68,0,0,0-1.92,1,8.46,8.46,0,0,0-.76.52,8.54,8.54,0,0,1-1,.64,4.83,4.83,0,0,0-.45.26l-.4.23a4.91,4.91,0,0,0-1.45.94l0,0h.05a.9.9,0,0,0,.23,0,1.81,1.81,0,0,0,.23,0,1.58,1.58,0,0,1-.23.11,1.69,1.69,0,0,0-.32.19Z"/> <path d="M262.05,119.67l.16,0h0s-.06,0-.09,0h0a.34.34,0,0,1-.14,0l-.19.06A1.13,1.13,0,0,0,262.05,119.67Z"/> <path fill="#ffffff" d="M275.2,130.62a2.69,2.69,0,0,1-.62-.7,2.22,2.22,0,0,0-.4-.41.61.61,0,0,1-.15-.13c-.51-.45-1-.93-1.46-1.41l-.94-.94h0a6.45,6.45,0,0,1-.57-.61,5.8,5.8,0,0,0-.58-.62,13.15,13.15,0,0,1-1.61,3,12.84,12.84,0,0,1-1.94,2.22,10.46,10.46,0,0,1-1.7,1.09c2.12-.07,4.38-.1,6.88-.1.49,0,1,0,1.52,0,1.39,0,2.82,0,4.25,0A7.25,7.25,0,0,1,275.2,130.62Z"/> <path fill="#ffffff" d="M251.09,122.67l-1.77.72c-1,.41-2,.83-3,1.22a5.36,5.36,0,0,1,1.64-.13,5.17,5.17,0,0,1,1.65.34,5.74,5.74,0,0,1,2.07,1.3c.48.46.94.94,1.39,1.41a18.73,18.73,0,0,0,3.22,2.87,5.29,5.29,0,0,1-.74-1.06,4.53,4.53,0,0,1-.44-1.25,7.5,7.5,0,0,1-.1-1.75,10.85,10.85,0,0,1,.24-1.74,9.67,9.67,0,0,1,.5-1.75,5.78,5.78,0,0,1,.89-1.55A16.13,16.13,0,0,0,251.09,122.67Z"/> <path class="eyes0" d="M265,122.26a2.63,2.63,0,0,1,.6.78,2.35,2.35,0,0,1,.27.94,3.92,3.92,0,0,1-.15,1.26,4.2,4.2,0,0,1-.57,1.14,4.54,4.54,0,0,1-2.31,1.61,2.78,2.78,0,0,1-1,.13,2.36,2.36,0,0,1-1-.25,2.1,2.1,0,0,1-.71-.61,2,2,0,0,1-.38-.86,3.93,3.93,0,0,1,.48-2.51,4.42,4.42,0,0,1,1.77-2,2.29,2.29,0,0,1,1-.28,16.75,16.75,0,0,0-3.26-.48,18.21,18.21,0,0,0-2,0,.9.9,0,0,0-.54.33l0,0a6.74,6.74,0,0,0-1.4,2.18,9.33,9.33,0,0,0-.59,2.7,5.18,5.18,0,0,0,.25,2.2,3.33,3.33,0,0,0,1.43,1.69,1,1,0,0,1,.29.33c.07.08.16.17.23.26l.11.09a1.83,1.83,0,0,0,.56.42l.12,0a16.87,16.87,0,0,0,2.09.54,16.29,16.29,0,0,0,2.22.23,2.53,2.53,0,0,0,1-.14,8.44,8.44,0,0,0,4.1-3.06c.09-.16.2-.31.28-.46a7.27,7.27,0,0,0,.56-1,5.71,5.71,0,0,0,.57-2.77.59.59,0,0,0-.18-.43,4.88,4.88,0,0,0-1.2-.87,17.61,17.61,0,0,0-1.93-.81l-.2-.08c-.15-.06-.29-.12-.43-.16S265,122.29,265,122.26Z"/> </g></g>
          <g id="extraSVG0"><g transform="translate(205,185)"> <path fill="#6a6d60" d="M52,14.21c-.83.62-.56,1.56-.44,2.26.67,3.9-1.75,6-4.44,8a35.56,35.56,0,0,1-8.19,4c4.42,3.74,6.18,8.2,4.26,13.63a10.65,10.65,0,0,1-9.55,7.46c-.34,0-.64.1-.76.47h-2c-2.75-1.2-5.76-2-7.66-4.61C19.89,40.72,20,36,23.07,31c-4.65-.44-9.15-.59-13.43-2.08a2,2,0,0,0-.24,0C4.54,27.64.94,25.16.53,19.61c0-.5.2-1.18-.53-1.47V7.84C3.4,4,8,2.49,12.77,1.16c1.37-.39,1.6.1,1.37,1.27A26.58,26.58,0,0,0,4.55,5.86c-1.43.87-3,1.82-3.07,3.81a33.46,33.46,0,0,0,1.59,13A5.77,5.77,0,0,0,6.3,26.15a39.75,39.75,0,0,0,17.34,3.23c2.48-.06,4.75-2.1,4.2-3.92s.23-2.34,1.55-2.91c.54-.23,1.5-.33,1.24-1.2a1.27,1.27,0,0,0-1.87-1c-.48.21-1,.27-1.19-.37a1,1,0,0,1,.61-1.2A2.43,2.43,0,0,1,30,18.42c2.12.44,2.51,2,2.83,3.79.91,5,2.9,6.06,7.55,4.18,1.13-.46,2.28-.89,3.36-1.46,3.67-1.93,6.87-4.21,6.3-9.11a5,5,0,0,1,.3-1.43C51.54,7.92,48.79,3.62,42.42,2a13.45,13.45,0,0,0-4.09-.59L38.23,0h2c.3.51.84.37,1.29.5,4.08,1.1,8.29,1.94,9.77,6.86.34,1.14-.34,2.46.7,3.42ZM33.84,28.9c-1.09.43-1.07.42-1.81-.73-.32-.49-.9-.27-1.32-.21a8.85,8.85,0,0,0-7.28,5.28c-2.64,4.34-1.66,9.41,2.5,13a10.11,10.11,0,0,0,13.49-.63c4-3.91,4.43-9.51,1-13.51-1.08-2.34-3.24-3.23-5.44-4-.68-.25-1,.27-1.22.85Zm-.67-3.1c-.35-.57-.41-1.51-1.14-1.08s-2.22.32-2.52,1.53c-.14.58.61.83,1,.54C31.32,26.23,32.65,27,33.17,25.8Z"/> <path fill="#af9177" d="M38.33,1.42A13.45,13.45,0,0,1,42.42,2c6.37,1.61,9.12,5.91,7.93,12.38a5,5,0,0,0-.3,1.43c.57,4.9-2.63,7.18-6.3,9.11-1.08.57-2.23,1-3.36,1.46-4.65,1.88-6.64.78-7.55-4.18-.32-1.75-.71-3.35-2.83-3.79a2.43,2.43,0,0,0-1.83.39,1,1,0,0,0-.61,1.2c.2.64.71.58,1.19.37a1.27,1.27,0,0,1,1.87,1c.26.87-.7,1-1.24,1.2-1.32.57-2.07,1.13-1.55,2.91s-1.72,3.86-4.2,3.92A39.75,39.75,0,0,1,6.3,26.15a5.77,5.77,0,0,1-3.23-3.49,33.46,33.46,0,0,1-1.59-13c.11-2,1.64-2.94,3.07-3.81a26.58,26.58,0,0,1,9.59-3.43q.07,5.13.13,10.26A17.5,17.5,0,0,1,4.69,8.13c.92,2.55,1.24,2.9,2.92,3.64,7.81,3.4,15.94,3.48,24.17,2.2,2.2-.34,4.53-.36,6.46-1.76l-.07,0c3.65-.4,6.34-2.38,8.52-5.2-2.9,1-5,3.78-8.35,3.81C38.34,7.7,38.33,4.56,38.33,1.42Z"/> <path fill="#6c6f61" d="M38.24,12.21C36.31,13.61,34,13.63,31.78,14c-8.23,1.28-16.36,1.2-24.17-2.2-1.68-.74-2-1.09-2.92-3.64a17.5,17.5,0,0,0,9.58,4.56,61.63,61.63,0,0,0,13.84.53C31.5,13.08,34.8,11.94,38.24,12.21Z"/> <path fill="#6a6d60" d="M38.34,10.84c3.34,0,5.45-2.76,8.35-3.81-2.18,2.82-4.87,4.8-8.52,5.2C38.23,11.77,38.28,11.3,38.34,10.84Z"/> <path fill="#b4bbbd" d="M40.47,32.12c3.38,4,2.94,9.61-1,13.52a10.11,10.11,0,0,1-13.49.63c-4.16-3.62-5.14-8.69-2.5-13l.15.14c-.16,4.1,0,4.35,2.91,4.84-2.59,3.64-1.78,6.52,2.16,8a9.77,9.77,0,0,0,7.06,0c2.37-.85,4.39-2.19,4.94-4.86.52-2.5-1.3-3.77-2.94-5.09l.24-.26c.83.26,1.69.65,2.31-.34a3,3,0,0,0-.1-3.33Z"/> <path fill="#b4bbbd" d="M23.43,33.24A8.85,8.85,0,0,1,30.71,28c.42-.06,1-.28,1.32.21.74,1.15.72,1.16,1.81.73-.31,1.73-1,3.43-.1,5.2.31.62.58,1.18,1.37,1.16a1.66,1.66,0,0,0,1.32-1,3.48,3.48,0,0,0-2.62-5.35c.2-.58.54-1.1,1.22-.85,2.2.81,4.36,1.7,5.44,4l-.31.27c-.76-.52-1.51-.82-1.87.38S37.4,34.9,38,36.06l-.24.26c-2.4-.75-4.88-.52-7.33-.52.51-1.7,1.77-3.39.07-5.11-.79-.8-1.65-1.51-2.52-.18a4.66,4.66,0,0,0-.32,4c.39,1.29,1.61,1.4,2.8,1.29l-3.46,2c0-3.51-.58-4.32-3.37-4.38Z"/> <path fill="#af9177" d="M33.17,25.8c-.52,1.17-1.85.43-2.64,1-.41.29-1.16,0-1-.54.3-1.21,1.66-1,2.52-1.53S32.82,25.23,33.17,25.8Z"/> <path fill="#6c6f61" d="M27,37.76l3.46-2,0,0c2.45,0,4.93-.23,7.33.52,1.64,1.32,3.46,2.59,2.94,5.09-.55,2.67-2.57,4-4.94,4.86a9.77,9.77,0,0,1-7.06,0c-3.94-1.5-4.75-4.38-2.16-8l0,0,.52-.52Zm5.84,7.92a7.63,7.63,0,0,0,5.26-1.93c2.48-2.07,2.14-4.72-.71-6.22A8.6,8.6,0,0,0,31,37.06c-3.29.86-5.26,3-5,5.12S28.86,45.74,32.79,45.68Z"/> <path fill="#6c6f61" d="M23.58,33.38c2.79.06,3.41.87,3.37,4.38l0,0c-.36,0-.56.14-.52.52l0,0C23.58,37.73,23.42,37.48,23.58,33.38Z"/> <path fill="#6a6d60" d="M38,36.06c-.55-1.16,0-2.22.34-3.29s1.11-.9,1.87-.38a3,3,0,0,1,.1,3.33C39.64,36.71,38.78,36.32,38,36.06Z"/> <path fill="#6a6d60" d="M33.81,28.94a3.48,3.48,0,0,1,2.62,5.35,1.66,1.66,0,0,1-1.32,1c-.79,0-1.06-.54-1.37-1.16-.91-1.77-.21-3.47.1-5.2Zm1.33,5.29a2.92,2.92,0,0,0,.18-3.6c-.16-.27-.68-.4-.79-.06a3.63,3.63,0,0,0,.26,3.25A3.36,3.36,0,0,0,35.14,34.23Z"/> <path fill="#6a6d60" d="M30.41,35.77c-1.19.11-2.41,0-2.8-1.29a4.66,4.66,0,0,1,.32-4c.87-1.33,1.73-.62,2.52.18,1.7,1.72.44,3.41-.07,5.11Zm-2-3.28c.1.8-.31,2,.92,2.12.69.07,1-.93,1-1.66s-.36-1.77-1.21-1.89C28,30.89,28.65,32,28.39,32.49Z"/> <path fill="#e7e7e7" d="M32.79,45.68c-3.93.06-6.5-1.39-6.79-3.5s1.68-4.26,5-5.12a8.6,8.6,0,0,1,6.37.47c2.85,1.5,3.19,4.15.71,6.22A7.63,7.63,0,0,1,32.79,45.68Z"/> <path fill="#b4bbbd" d="M26.46,38.25c0-.38.16-.53.52-.52Z"/> <path fill="#e7e7e7" d="M35.14,34.23a3.36,3.36,0,0,1-.35-.41,3.63,3.63,0,0,1-.26-3.25c.11-.34.63-.21.79.06A2.92,2.92,0,0,1,35.14,34.23Z"/> <path fill="#e7e7e7" d="M28.39,32.49c.26-.52-.36-1.6.73-1.43.85.12,1.23,1,1.21,1.89s-.33,1.73-1,1.66C28.08,34.5,28.49,33.29,28.39,32.49Z"/> </g></g>
          <g id="extraSVG1"><g transform="translate(210,160) scale(0.8)"> <path fill="#6f7164" d="M53.88,3.91c-1.37,3-3.32,4.83-7,5-2.5.11-2.27,3-2.7,4.78a32.8,32.8,0,0,0-.52,5.54,11.94,11.94,0,0,1-5.55,9.64H36c-3.57-2.65-4.13-4.65-2.77-9.21,1.27-4.27,2.31-8.55,1.18-13.09-.75-3-1.34-3.74-4.43-3.73-2.62,0-5.25-.11-7.86.11-5.91.5-9.65,3.94-12,9.18-.33.73-.39,2.07-1.43,1.95s-1.48-1.55-1.37-2.35c.3-2.34-.82-2.92-2.83-3.35S1.11,6.26.11,4.45a12,12,0,0,0,0-2.16C-.26.42.42-.3,2.28.11c1,.68,1,1.67,1.14,2.76.28,3,2.14,4.37,4.9,3.68A17.45,17.45,0,0,0,12.52,5C20,.81,28,1.53,36,2.82c3.27.53,6,2.69,9.14,3.53s4.15.21,5.21-2.77c.42-1.16-.17-2.76,1.39-3.47C55.53-.39,53.26,2.59,53.88,3.91ZM41.19,6.27c-.24-.14-.38-.68-.71-.36s-.08.62.31.76c.31,2.15,1.47,3.94,2.43,6,2-4.05,2-4.05-1.57-6.09ZM34.88,3.8C37.07,8.94,36.74,14,34.73,19a9.8,9.8,0,0,0-.91,5A3.47,3.47,0,0,0,36,27.13a3.2,3.2,0,0,0,3.64-1.08,9.33,9.33,0,0,0,1.66-2.44A14.27,14.27,0,0,0,39.89,8.83c-.49,2.33.54,4.86-1.23,7.42,0-2.83.08-5.17,0-7.5C38.51,5.62,37.45,4.25,34.88,3.8ZM11.56,7.35c-3.76.91-4,1.35-2.7,4.82A22.81,22.81,0,0,0,11.56,7.35Z"/> <path fill="#6f7164" d="M21.77,10.58a22.4,22.4,0,0,1,11.69.16C29.57,11.27,25.68,9.43,21.77,10.58Z"/> <path fill="#cf7c6b" d="M34.88,3.8c2.57.45,3.63,1.82,3.76,5,.1,2.33,0,4.67,0,7.5,1.77-2.56.74-5.09,1.23-7.42A14.27,14.27,0,0,1,41.3,23.61a9.33,9.33,0,0,1-1.66,2.44A3.2,3.2,0,0,1,36,27.13,3.47,3.47,0,0,1,33.82,24a9.8,9.8,0,0,1,.91-5C36.74,14,37.07,8.94,34.88,3.8Z"/> <path fill="#faf1ee" d="M41.19,6.27l.46.28c3.53,2,3.53,2,1.57,6.09-1-2-2.12-3.82-2.43-6Z"/> <path fill="#fbf5f3" d="M11.56,7.35a22.81,22.81,0,0,1-2.7,4.82C7.55,8.7,7.8,8.26,11.56,7.35Z"/> <path fill="#faf1ee" d="M40.79,6.67c-.39-.14-.57-.51-.31-.76s.47.22.71.36C41.06,6.41,40.93,6.54,40.79,6.67Z"/> </g></g>
          <g id="extraSVG2"/>
            <text id="copy" font-size="12px" fill="#1d1d1b" font-family="'Marck Script', cursive" font-style="italic" transform="translate(400,800) rotate(-90)">
              Artwork by Indigo White
            </text>
        </svg>