<?xml version="1.0" standalone="no"?>
<svg xmlns="http://www.w3.org/2000/svg" id="svg" width="800" height="1200" viewBox="0 0 800 1200">
          <defs id="svgDefs"><style id="svgStyle">.skins0 {fill:none; stroke:#000;} .skins1,.skins2,.ears0,.ears1,.ears2 {fill:none;}.skins0 {stroke: #716664; fill: #716664} .skins2 {stroke: #edeadf; fill: #edeadf}.ears0{fill: #24213b} .ears1{fill: none} .ears2{fill: #667295} .eyes0{fill: #dca0af} .eyes1{fill: none} .eyes2{fill: none} </style></defs>
          <g id="humanoid" class="skin"> <g id="skins" class="skins0"> <path d="M193.3,599.6c-3.19-5.44-3.36-11.73-4.51-17.66-2.08-10.79-5.13-21.33-7.29-32.08-1.82-9-3-18.14-4-27.32-.84-7.48,2.42-13.78,3-20.7,1.13-14.09,5.52-27.64,6.48-41.76.33-4.83,1.66-9.64,5.17-13.45a10.42,10.42,0,0,0,2.84-5.78c1-9.37,6.73-16.71,10.62-24.83,7.93-16.54,19.87-30.84,26.82-47.93,1.34-3.31,2.74-6.71,2.53-10.17-.49-7.88,1.6-15.69.37-23.57a6.56,6.56,0,0,1,.73-3.14c4.61-11.65,7.27-23.86,10.41-35.93,1.91-7.35,4.21-14.59,5.43-22.11a18.88,18.88,0,0,0-1.64-12.24c-8.47-16.4-13.95-33.86-17.95-51.84-.55-2.44-.1-3.48,2.34-4,2.11-.46,4.1-1.48,6.2-2,6.89-1.85,11.19-7,15.3-12.21,3.28-4.15,2-9.24,1-13.7-.38-1.64-4.1-2.66-6.43-3.69-9-4-17.68-8.55-24.14-16.26-8-9.52-12.3-20.61-13.61-32.94C211.3,109,219.31,98.83,230.23,90c8.25-6.71,18.6-10.49,26.24-17.79,6.74-6.43,14.86-5.47,22.68-6.62,3.62-.53,7.4-.21,10.92-1.06,4.93-1.17,7.55-5.49,10.5-9.18a15.84,15.84,0,0,0,1.51-2.89h.82a34.84,34.84,0,0,0,3.2,17.43c5.93,13.74,7,28.35,7.4,43.06a18.49,18.49,0,0,0,1.45,7.52,31.27,31.27,0,0,1-.8,29.13c-5.55,10.47-14.87,16.69-25.1,21.8-1.33.67-2.71,1.25-4,1.95-3.29,1.76-8.33,1.54-7.58,7.66.49,4,.3,7.78,2.82,11.56,5.88,8.81,15.08,11.16,24.22,13.51,7.79,2,7.89,1.62,5.33,9.21-3.46,10.31-6.57,20.76-11.55,30.47-3.17,6.19-2.47,13-3.45,19.51a45.06,45.06,0,0,1-1.36,7.18c-3.13,9.79-3.15,19.78-1.81,29.79.41,3,2,5.87,3.09,8.8,2.63,7.31,3.72,15.07,4.82,22.62a78.55,78.55,0,0,1,.87,18.17c-.84,9.36,2.33,17.62,6.7,25.6,8,14.52,17.69,28,24.88,43,3,6.24,6.1,12.4,7.89,19.15,3,11.2,8.7,21.37,12.39,32.31,2,6,4.87,11.91,5.45,18.28.41,4.61-.45,9.31-.09,14,1.69,21.82-2.78,42.87-8.3,63.78-1.49,5.63-2.22,11.43-4.27,16.95-1.46,3.94-4.2,5.4-7.82,4.76-16.39-2.92-32.84.47-49.23-.65a5.64,5.64,0,0,0-.82,0c-9.09,1.15-9.1,1.13-10.56-8.39-2.09-13.68-3.79-27.43-3.88-41.27,0-7.28,1.14-14.59,2.06-21.85.59-4.66.31-5.42-4.25-5.4-2.29,0-4.22-.88-6.28-1.55-2.42-.78-4.2-.72-4,2.74.24,3.79.22,7.56.76,11.37,1.71,11.9,1.26,23.85-.08,35.78-1,9-1.89,18-3.47,27-.41,2.34-.93,3.22-3,3.08-11-.71-21.38,3.42-32.17,4.41a40.12,40.12,0,0,1-4.84.5c-4-.13-7.89.07-11.53,1.91s-8.07.63-11.87,2.22Z"/> <path d="M24,522.72c.22-.15.65-.31.64-.46-.22-6.81,5.8-9.78,9.11-14.31,5.76-7.9,9.88-16.87,16.22-24.35.48-.57,1-1.06.27-1.68s-1.26-.07-1.72.44c-1.07,1.18-1.54,2.92-3.89,3.75.71-1.09,1.11-1.79,1.59-2.43,3.11-4.25,6-4.33,8.58.32,3.52,6.23,4.8,7.84-1.06,11.63-9.08,5.89-13.51,15.79-21.05,22.94-2.52,2.39-5.2,4.35-8.69,5Z"/> <path d="M510.65,522.72c-6.58-1.22-11-6-14.12-11-4.74-7.44-11.39-12.62-17.68-18.33-1.34-1.22-3.55-2-2.42-4.46a12.42,12.42,0,0,1,6.28-6.64c1.48-.61,2.76,1.53,3.65,2.8,3.08,4.45,6,9,8.95,13.56,3.57,5.6,7.1,11.2,12.09,15.73,1.3,1.17,2.94,2.49,1.87,4.86-.51,1.13.32,2.06,1.38,2.63Z"/> <path d="M466.17,509.42c-1.9-1.13-2.35-3.31-5.05-2.73-2.18.47-8.58-13.21-7.34-15.18.84-1.33,6.67-1.15,7,.51,1.11,5.64,5.25,10.14,5.67,16A6.63,6.63,0,0,1,466.17,509.42Z"/> <path d="M68.47,510.29c-1.06-4.48,1.4-7.52,3.16-10.59A15.12,15.12,0,0,0,73.76,490c-.38-3.32,4.22-8.4,7.6-8.5,1.8,0,1.48,1.28,1.4,2.25-.62,7.91-2.55,15.41-7,22.11-.53.79-1,2.1-2,1.71C71.07,506.51,70.34,509.05,68.47,510.29Z"/> </g> <g id="spotted" class="skins1"> <path d="M257.79,388.56c-5.8,1.47-9.68,2.22-5.2,3.73s11.16,3.73,9.8-.15S259.11,389.13,257.79,388.56Z"/> <path d="M255.6,226.46c1.92-2.14,5.77-5.31,5.5-.6s-1.24,9.27-4.59,7.23-.8-6.48-.91-6.63Z"/> <path d="M290,419.47c1.62,3.89,3.88,4.12,5.58,1.86s-1.17-3.84-3.62-3.66-1.58,1.25-2,1.8Z"/> <path d="M276.43,240.53c2.75-3.76,6.63-2,6.47-.11s2.15,6.86-2.14,4.6-3.43-4.26-4.33-4.49Z"/> <path d="M224.94,437.64c3.2-2,8.06-2.49,9,1.43s1,9.57-3.5,6.33-4.22-6.82-5.5-7.76Z"/> <path d="M213.63,399.76c-3.73,4.33-6.82,6.21-1.17,7.64s17.33-2,11.49-5-10.32-2.33-10.32-2.63Z"/> <path d="M247.7,240.22c1,4.37,1.09,4.9,3.69,3.62s4.22-2.45,1.58-3.81-4.78.19-5.27.19Z"/> <path d="M257.08,142.06c.33,2.71,3.46,4.14,3.76,1.54S257.57,140.51,257.08,142.06Z"/> <path d="M234.46,140.6c1.2,1.85,4.86,2.37,3.84-.23A2,2,0,0,0,234.46,140.6Z"/> <path d="M275.17,101a3.27,3.27,0,0,0,2.52,3.35l-.49-4-2,.61Z"/> <path d="M283.26,139.76c.26,2.86,3.77,3.32,3.77,3.32s1.47-5.81-.95-5S284.24,140.55,283.26,139.76Z"/> <path d="M289.39,213.52c-1.91,5.39-4.11,8.26,1.67,7.55s15.45-8.09,8.9-8.82-10.46,1.55-10.57,1.27Z"/> <path d="M257.07,354.85c1.14,5.6.74,9.2,5.33,5.61s9.06-14.9,3.08-12.15-8.17,6.73-8.41,6.54Z"/> <path d="M296.35,149.68c1.92-2.14,5.76-5.31,5.5-.6s-1.24,9.27-4.59,7.24-.8-6.48-.91-6.64Z"/> <path d="M244.22,560.22c2.75-3.76,6.63-2,6.48-.11s2.14,6.86-2.15,4.6-3.43-4.26-4.33-4.49Z"/> <path d="M252,74.17c1,4.37,1.09,4.9,3.69,3.62s4.22-2.45,1.59-3.81-4.79.19-5.28.19Z"/> <path d="M188.73,536.52c1.92-2.14,5.76-5.31,5.5-.6s-1.25,9.27-4.6,7.23-.79-6.48-.9-6.63Z"/> <path d="M194,556.59c2.75-3.77,6.63-2,6.48-.11s2.15,6.85-2.15,4.59-3.42-4.25-4.33-4.48Z"/> <path d="M333.41,552.33c1,4.37,1.09,4.9,3.69,3.62s4.22-2.45,1.59-3.8-4.79.18-5.28.18Z"/> <path d="M335.78,524.16c-5.62-2-9.26-3.58-6.39.18s7.15,9.34,8.2,5.36S336.56,525.37,335.78,524.16Z"/> <path d="M238.48,540.18c1.62,3.88,3.88,4.11,5.57,1.85s-1.17-3.83-3.62-3.66-1.58,1.26-2,1.81Z"/> <path d="M269.76,84.2c3.2-2,8.06-2.49,9,1.43s1,9.57-3.51,6.33-4.22-6.82-5.5-7.76Z"/> <path d="M309.21,398.22c-5.71.37-9.21-.52-6.29,4.52s13.52,11,11.62,4.71-5.55-9-5.33-9.23Z"/> <path d="M248.62,418.17c1.92-2.14,5.76-5.31,5.5-.6s-1.24,9.27-4.6,7.23-.79-6.48-.9-6.63Z"/> <path d="M277.63,332.63c1.62,3.89,3.88,4.12,5.58,1.86s-1.17-3.84-3.62-3.66-1.58,1.25-2,1.8Z"/> <path d="M268.92,207.73c2.75-3.77,6.64-2,6.48-.11s2.15,6.85-2.14,4.59-3.43-4.25-4.34-4.48Z"/> <path d="M292.21,547.88c1,4.37,1.09,4.89,3.69,3.61s4.22-2.44,1.59-3.8-4.79.19-5.28.19Z"/> <path d="M252.75,530.28c.26,2.87,3.76,3.32,3.76,3.32s1.47-5.8-.94-5S253.73,531.08,252.75,530.28Z"/> <path d="M283.16,364.28c-5.6,1.17-9.19.79-5.58,5.36s14.95,9,12.17,3-6.77-8.13-6.59-8.37Z"/> <path d="M239.18,210.06c1.92-2.15,5.76-5.31,5.5-.6s-1.25,9.27-4.6,7.23-.79-6.48-.9-6.63Z"/> <path d="M284,529.25c2.75-3.77,6.63-2,6.48-.12s2.15,6.86-2.15,4.6-3.43-4.26-4.33-4.48Z"/> <path d="M202.58,526c1,4.37,1.09,4.9,3.69,3.62s4.22-2.45,1.58-3.81-4.78.19-5.27.19Z"/> <path d="M270.06,432.13c1.92-2.15,5.77-5.32,5.5-.61s-1.24,9.27-4.59,7.24-.79-6.48-.91-6.63Z"/> <path d="M274.51,552.64c1,4.37,1.1,4.9,3.69,3.62s4.22-2.45,1.59-3.81-4.79.19-5.28.19Z"/> <path d="M246.53,335.66c-3,5.18-5.17,8.49-1,6.33s10.46-5.38,6.73-7.12S247.85,335.11,246.53,335.66Z"/> <path d="M228.36,153.54c1.62,3.89,3.88,4.11,5.57,1.86s-1.16-3.84-3.61-3.66-1.58,1.25-2,1.8Z"/> </g> <g id="striped" class="skins2"> <path d="M230.13,146.7c5.25-3.12,15.12-2.52,9.85-.53-15.28,5.77-23.24,26.11-25.88,23C209.14,163.41,225.34,149.52,230.13,146.7Z"/> <path d="M299.25,238.05c-15.72,2.09-33,6.74-48.8,2.51-7.8-2.1-23.62-8.57-5.07-8.95,16.45-.34,33.39-5.49,48.79-.14C297.1,232.49,303.26,237.52,299.25,238.05ZM266,234c-24.88,2.78,18.92,3.74,17.8,1C282.78,232.43,269.69,233.6,266,234Z"/> <path d="M249,570.57c-15.46-9.68-31.29-16.32-49-22.56-18.19-6.41-25.27,3.58-4.72,7.08,20.35,3.47,74.5,30.4,59.09,18.86,0,0-1.08-.85-1.57-1.17-1.1-.73-3.78-2.21-3.78-2.21Z"/> <path d="M316.47,391.57c-9.89,11.59-33.47-5.95-50.75-3.43-12.85,1.87-32.18,8.95-41.3,5.51l.22-5.8c6.74,3.34,23.49.33,27.15-.87,12.31-4.07-18.62-3.68-28.58-2.05-7.64-11.56,24.17-8.56,31.83-6,12.59,4.16,26.39,3,39,7.29,6.68,2.29,25.86,1.33,22.4,5.38Z"/> <path d="M180,517.31c19.41,1.94,40.77,11.49,59.46,19,11,4.41,39.85,19.26,11.73,8.33-21.31-8.27-43.13-16.17-66.26-22.39-2.21-.59-10.94-5.5-4.93-4.91Z"/> <path d="M285.32,350.43c-48.94-.47-73.94-5-22.55-7.47C280.78,342.1,318,351.61,285.32,350.43Z"/> <path d="M206.47,420.42c-12.15-1.67,29.45-6.19,37.66-5.87,22.34.85,55.06-2.22,77.32-5.81,7.78-1.26,2.48.53-.78,5.16-3.91,5.59-39.64,3.44-39.68,5.79s28,4.2,35.77,5.91c1.2,14.85-28.29,6.67-39.1,3-21.78-7.29-49.26-5.19-71.19-8.22Z"/> <path d="M296.44,206.44c-6.79,8-32.7,12.7-51,2.85-12.91-7-2.87-4.53,4.46-1.85,9.31,3.39,12.35,1.77,20.09,1.64,9-.16,30.56-7.5,26.41-2.64Z"/> <path d="M304.75,60.47c-3.78,12.85-44.23,44.12-19.23,15.28C288.72,72.05,306.52,54.46,304.75,60.47Z"/> <path d="M322.75,164.42c-12.54-2.1-48.65-37.6-17.54-16.82C309.19,150.25,328.61,165.4,322.75,164.42Z"/> <path d="M285.61,569.62s-2.68,1.49-3.79,2.22c-.49.31-1.56,1.17-1.56,1.17-15.42,11.54,38.73-15.4,59.08-18.87,20.56-3.5,13.47-13.49-4.71-7.07-17.74,6.24-33.57,12.88-49,22.55Z"/> <path d="M354.64,516.37c6-.6-2.73,4.31-4.94,4.91-23.13,6.22-44.95,14.12-66.26,22.39-28.12,10.93.72-3.93,11.73-8.34,18.69-7.47,40.05-17,59.47-19Z"/> <path d="M249.11,76.45c25,28.84-15.45-2.43-19.23-15.29C228.11,55.16,245.91,72.75,249.11,76.45Z"/> </g> <g id="outline"> <path fill="#482a28" d="M0,539.07c11.35-11.52,23.48-22.4,32.47-36,4.24-6.38,7.15-13.67,10.73-20.51,5.23-10,12.86-17.43,21.62-24a37.36,37.36,0,0,0,3.11-2.64c3-2.83,5.35-5.71,1.45-9.68-1.37-1.4-.88-3.4-.47-5.06,1.73-7,5.26-13.22,9.34-19.13,1.85-2.68,4.5-2.92,7.26-2,3.28,1.06,4.92.28,6.42-3.12,6.58-14.94,11.62-30.46,17.77-45.55s12.76-29.91,25.09-41.54c6.59-6.22,11.23-14.3,15-22.71,9.84-22.19,20.45-44.09,29.34-66.65,4.89-12.41,7.92-25.62,12.26-38.33a52.6,52.6,0,0,0,2.5-12.67c.85-10.13-1.25-20-2.68-29.89-2.26-15.76-5.66-31.34-6.56-47.33a285.32,285.32,0,0,1,.14-36.64c1.06-14.76,7.37-27,16.79-37.93,4.61-5.35,7.4-12.13,12.78-16.82C226.67,10.09,240.44,2.2,257.19.76c.56-.05,1.07-.12,1.25-.76h9c4.4.9,8.94,1.39,13.18,2.78,10.19,3.37,19.26,8.22,26.67,16.65S324.12,35,332.11,43.17c6.2,6.34,11.63,13.47,14.75,22,1.25,3.41,1.37,7.1,1.54,10.7.88,18.53-1.79,36.79-3.91,55.12-2.82,24.4-1.86,48.62,4.86,72.51a106.26,106.26,0,0,1,4,30.11c-.07,5.2,3.08,9.19,5,13.6q13.24,30.63,27,61c3.6,8,8.14,15.68,14.47,21.6,13,12.17,19.63,27.87,26,43.79,5.52,13.75,10.16,27.83,16.1,41.41,1.16,2.66,2.57,3.66,5.22,2.72,4.18-1.48,6.95,0,9.15,3.69,3,5.11,6.05,10.12,7.65,15.94.86,3.14,1,5.76-1.22,8.33-1.69,2-1.83,3.74.21,5.92,2.7,2.89,5.17,6,8.49,8.19,12.56,8.43,19.81,21,26,34.18a71.88,71.88,0,0,0,12.08,18.68c8.06,8.65,15.94,17.49,24.57,25.59v1.64c-4.8-1.84-8-5.92-12.23-8.61a66.79,66.79,0,0,1-5.35-4.17c-.33,0-.85-.22-.94-.09-.28.41.08.58.45.67l9.72,14.15c-3.49-1-4.58-3.32-6.36-4.78-1.15-.94-2-2.22-3.23-3.12-1.77-1.33-3.28-4.88-5.05-3.77s1.78,3.22,2,5.28c0,.24-.17.5-.43,1.17-4.24-3.09-6.22-8.09-10.64-11.83.74,3.11,1.29,5.51,1.89,7.89.19.76.74,1.7-.31,2.05s-1.17-.71-1.49-1.44c-2.68-6.13-5.65-12.15-8-18.4a32.67,32.67,0,0,0-10.86-14.34c-4-3.16-7.87-6.51-11.72-9.87-2.23-1.94-5.3-2.34-7.15-1-1.52,1.09-1.62,4.24-.35,6.58,1.54,2.85,3.81,5.34,4.31,8.7.2,1.34.81,2.88.37,4-1.86,4.73.88,8.24,2.81,12,2.35,4.54,4.86,9,7.29,13.49.43.79,1.14,1.55.33,3.09-3.63-2.62-5.63-6.46-8.18-9.69-5.62-7.13-11.31-14.18-16-22A49.85,49.85,0,0,1,448.27,485c-.83-7.6-3.19-14.85-5.14-22.19a2.24,2.24,0,0,0-2.57-2c-8.3.6-12.27-5.12-16.09-11.07-2.13-3.32-3.21-7.08-4.59-10.7-1-2.55,1.26-4.4,2.66-5.94,2.09-2.32,1.28-3.71-.24-5.77-8.38-11.28-17.67-21.8-26.63-32.59C383.39,380,373.58,364,367,345.78c-7.37-20.27-15.12-40.48-26.25-59.44-8.4,8.82-19.07,11.6-30.63,11.72-2.85,0-3.69,1.33-4.1,3.75a277.09,277.09,0,0,0-3.47,44.3c-.05,13,3.9,24.54,10.93,35.19a368.52,368.52,0,0,1,21.91,37.23,4.47,4.47,0,0,0,4.36,2.81c5.9.28,6.78,1.5,6.56,7.55-.08,2.18-.55,4.47,2.1,5.84a3.67,3.67,0,0,1,1.72,3.09,18,18,0,0,0,1.93,7.81c.45.81.72,1.73,0,2.2-3.77,2.37-1.39,5-.49,7.64,4.57,13.28,8.17,26.77,9.23,40.85a9.35,9.35,0,0,0,8.31,9.08c2.21.34,4.15.2,5.58-2.17,1-1.61,2.94-2.25,4.66-3.14,4.81-2.5,10.76-3.66,13.47-9.82,2.63-6,5.23-11.71,3.62-18.29-1.27-5.2-6.94-7.85-12.81-6.2a23.6,23.6,0,0,0-11.18,6.38,24.07,24.07,0,0,1-2,2c-2.44,2.06-4.71,5-8.46,2.69-2.84-1.73-3.7-5.75-2.31-9.88,3.14-9.34,12.39-16.07,22.18-17.17C407.24,447,417.9,471,411.12,491.05a46.12,46.12,0,0,1-13.75,20.17c3,2,5.61,4.14,5.89,8s-1.61,6.69-4.7,9.26c3.26,1.61,6.33,3.27,7,6.85a16.78,16.78,0,0,1-1,9.58c-1.2,2.85-2.42,5.69-3.75,8.48-2.68,5.65-1.73,10.71,2.29,15.33.6.69,1.71,1.29,1.19,2.35s-1.73.52-2.59.46c-13.09-1-18.09-10.88-11.44-22.52,1.47-2.56,2.72-5.24,4.14-7.82a8.35,8.35,0,0,0,.62-6.61c-.94-3.3-2.48-3.76-5-1.46s-5.59,3.49-8.93,2.18c-2.1-.83-2.65.17-3.19,1.71-1.28,3.59-1.65,7,1,10.32,3.18,4.1,5.85,8.74,5.21,14.08-1,8.83-5.33,11.36-16.68,12.71,3-4.17,6.22-8,5.57-13.46a14.28,14.28,0,0,0-1.91-6.07c-4.75-7.62-4.31-13.33,1.79-19.92,1.83-2,3.39-3.51,1.88-6.55-1-2,.42-4.21,1.19-6.8a30.5,30.5,0,0,1-12.21-.26c-1.43-.31-2.11.06-2.25,1.79-1.61,19.71-6.38,38.8-12.35,57.54-3.68,11.57-3.52,23.61-6.13,35.31-4.37,19.6-7.21,39.53-12.11,59-3.87,15.45-7.34,31-7.48,47-.1,10.85,2,21.6,4.17,32.28,4.24,20.81,7.93,41.73,7.27,63.09-.59,18.93-3,37.69-5.55,56.45-2.84,21.29-7.2,42.48-6.57,64.11.46,15.91,1.31,31.82,2.36,47.71.53,8,5.05,14.83,7.21,22.39,1.57,5.5,2.84,11,2.64,16.78-.23,6.63-3.65,11.52-9,14.69-7.49,4.43-15.5,7.91-24.37,8.51-9.39.63-19.11-7.71-20.28-17.17-1.21-9.86.81-19.29,4.41-28.31A53.78,53.78,0,0,0,289.53,978c-.55-7.38.72-14.54,2.17-21.8a197.74,197.74,0,0,0,3.06-51.64c-1.54-24.21-7.29-47.73-11.67-71.48-5.15-27.94-8-56.14-4-84.47,2.66-18.76,2.52-37.4,1.06-56.18-.65-8.27-.15-16.63-.61-24.92-1.18-21.33-2.62-42.64-3.95-64-.16-2.57-.28-5.11.75-7.6a6,6,0,0,0-.1-4.39c-4.84-12.32-5-25.39-6.43-38.27a123.83,123.83,0,0,1,.72-29.74c.14-1,1-2.8-.53-3.16a12,12,0,0,0-5.64.1c-1.36.35-.39,1.89-.26,2.84,2.25,16.48.92,32.86-1.3,49.22-1,7.34-1.16,14.84-4.56,21.68a2.14,2.14,0,0,0-.14,1.15c2.37,15.38-1.57,30.5-1.84,45.76-.14,7.91-.5,15.79-.92,23.68-.93,17.54-1.36,35.1-2.32,52.63-.61,11.11,1.62,21.94,2.74,32.87,3,29.39.46,58.34-5.22,87.21-4.61,23.44-10,46.8-10.92,70.79-.72,18.29.39,36.44,4.69,54.33a39.84,39.84,0,0,1,.84,15c-1.12,7.77.25,15.13,3,22.37,3.28,8.68,5.59,17.5,5.63,26.94,0,10-9.25,23-24,20.35-7.13-1.26-13.55-4-19.75-7.26-8.42-4.4-11.83-12.27-10.23-21.65,1-6,2.31-12.09,5-17.58,3.58-7.41,4.91-15.21,5.28-23.24.87-18.63,2.65-37.25,1.44-55.94-1-15.37-3.9-30.49-5.85-45.74-2.92-22.82-6.49-45.59-5.82-68.69a236.63,236.63,0,0,1,4.39-37.65c2.91-15.2,6.61-30.39,7.05-45.89a110.18,110.18,0,0,0-2.81-28c-6-25.92-11.65-51.91-16.46-78.09-.88-4.79.11-9.6-1.59-14.39-6.23-17.46-8.15-36-13-53.83a114.85,114.85,0,0,1-4.09-36.37c.14-2.78-.88-4.06-3.49-4.22-8.05-.48-16.31-12.92-17-19.73-.8-8.07,1.43-15.21,4.65-22.3.43-1,1.5-1.81,1.15-2.94-.6-1.94-1.65-3.8.13-5.67a19.67,19.67,0,0,1,9.55-5.82c2.35-.58,4.8-.78,7.2-1.14-1-4.95.25-8.31,5-9.28,6.18-1.25,7.91-5.45,9.15-10.47.29-1.18.08-2.53,1.64-2.9,3.81-.9,5-4.1,6.5-7.13a311.55,311.55,0,0,1,20.07-35c3.87-5.78,7-12,10.32-18.05s3.19-12.61,3.72-19c1-12.39,0-24.75-1.86-37-.67-4.43-1.27-8.88-2-13.31-.34-2.18-.89-3.67-3.85-4a72.59,72.59,0,0,1-16.44-4c-4.59-1.67-8.57-4-11-8.93a121.15,121.15,0,0,0-10.91,19.2c-7.31,15.93-14,32.12-19.9,48.62-6,17-16.05,31.36-27.31,45.12-9.49,11.59-19.47,22.77-28.31,34.89-1.4,1.92-1.84,3.17,0,5.12,2.88,3,3.75,6.34,1.64,10.5-2.39,4.71-4.49,9.5-8.31,13.32-2.59,2.59-5.31,4.6-9.24,4.29-2.09-.17-3.27.59-4,3-1.89,6.68-3.89,13.36-4.39,20.27-.93,12.81-8.26,22.51-15.22,32.36-3.9,5.51-8.37,10.62-12.54,16-1,1.26-1.83,2.62-3.31,3.36-1.28-1.14-.27-2,.19-2.9,2.41-4.51,4.94-9,7.29-13.49,1.93-3.72,4.16-7.12,2.89-12-1.15-4.39,1.72-8.38,4.14-12,1.82-2.72,3.14-6.36.86-8.11s-6-.12-8.29,2.41c-3.27,3.51-7.45,5.93-11.08,9a39.66,39.66,0,0,0-11.84,16.11c-2.22,5.74-4.87,11.31-7.3,17-.31.73-.46,1.78-1.49,1.42s-.49-1.3-.3-2c.6-2.31,1.15-4.64,2-8-4.47,3.9-6.56,8.7-10.46,11.85-1.72-1.64.3-2.47.54-3.59s2.26-2,.86-3c-1.15-.84-2,.9-2.83,1.7-2.84,2.75-5.62,5.56-8.48,8.28-.69.66-1.14,2-2.95,1.19l9.24-13.44c.36-.09.73-.26.45-.67-.09-.12-.61,0-.93.09-5.36,4.16-10.71,8.34-16.09,12.46-.37.28-1,.22-1.5.32Zm63.8-15.53-.58,1,.35.18.21-1.15c.57.05.76-.31.85-.78,4.4-3.22,5.66-8.46,8.16-12.9-4.37,3.22-6.29,8-8.22,12.84Zm406.46-.82-.78-.86c-1.91-4.81-3.86-9.6-8.19-12.75,2.56,4.38,3.79,9.64,8.14,12.81.09.47.28.83.85.78l.21,1.14.35-.17ZM14.72,527.61,16.35,526l.85-.79c.9-.13,1.72-.38,2-1.48-1.29-.36-2,.08-2.05,1.42a.77.77,0,0,0-.76.87c-1.12,0-1.79.4-1.63,1.64l-1,.2.14.33Zm504.62-.81.88.55.13-.33-1-.2c.15-1.24-.52-1.66-1.63-1.64a.79.79,0,0,0-.77-.87c-.06-1.34-.74-1.78-2-1.42.26,1.11,1.09,1.35,2,1.48l.84.79ZM255.29,483.57c3.31-.11,6-.85,5.56-5.1l.6-.07-.09-.38-.45.54a10.24,10.24,0,0,0-5.93,4.69c-.31.14-.79.3-.45.69S255.16,484,255.29,483.57Zm141.35,37.48c2-.27,2.36,1.51,3.21,3.07,2-3.65,1.33-6.41-1.38-9.64.19,2.89-.88,4.72-1.8,6.6-1,.65-2.05,1.26-3,2-1.16.84-1.47,2.16-.56,3.14s2.63.79,3.81.31c1.79-.71.44-1.61-.18-2.36C395.87,523.13,396.67,522.08,396.64,521.05Zm-211-78.57c-2.1-.06-3.81,1.2-5.68,1.86s-2.52,2.25-2.46,4.21.79,2.88,2.84,3.16c1.21.16,2.32,1.18,3.48,1.82,1.76-3.31,1.37-7.09,2.34-10.57.24-.37.39-.73-.06-1C186,441.91,185.75,442.29,185.59,442.48Zm108.25,17.83L293,460l0,1a76.59,76.59,0,0,1,5.8,15.81c1.53,5.69,4.83,6.77,10.72,5.27,4.53-1.15,8.12-4.17,12.45-5.74,4.88-1.78,6.09-4.58,4.58-9.58s-3.14-9.9-4.9-15.4A22,22,0,0,1,316,462.77c-2.05,2.37-3.51,4.43-2,7.71.53,1.15.75,3.31-1.38,3.59-1.84.24-3.54-1.42-3.27-2.86.8-4.41-2.47-4.79-5.08-5.68C300.53,464.25,297.27,462.12,293.84,460.31ZM483.05,478c.3.21.75.67.89.59.68-.39.21-.87,0-1.31-1.73-2.83-4.23-4.95-6.54-7.26-5.8-5.79-13.37-9.47-18.72-15.77-.9-1.07-1.47-.71-2.2.1a20,20,0,0,1-8.2,5.13c-1.8.65-2,1.47-1.57,3,2.36,7.95,4.48,15.95,5.26,24.24.11,1.15.15,2.4,2.12,1.71s3.73.27,5.55.75c1.08.28,2.25,1.36,2.61-.85.22-1.35,1.49-1.35,2.59-1.46,3.16-.3,6.25-.3,9,2.43C475.23,483.9,480.09,481.8,483.05,478ZM260.42,68.91c-7.74,7.13-17.6,11.26-26,17.74,4.07,0,7.71,0,11.34,0,1.27,0,2.69-.26,2.75,1.45s-1.37,1.82-2.63,1.84a111.91,111.91,0,0,1-12.15,0c-3.34-.31-5.7,1-8,3a22.56,22.56,0,0,0-3.71,3.73c-1.61,2.28-5.2,4.35-4.3,6.89.76,2.12,4.73,2,7.41,2.5.94.15,1.89.2,2.83.34,5.51.79,11.12,1.08,16.35,3.25,5,2.08,9.24,5.1,12,9.87.52.9.79,1.88-.09,2.56-.53.42-1.29,0-1.8-.55-5.53-5.44-12.61-6.37-19.87-7.06-6.19-.58-12.48-1.09-17.94-4.65-1.51-1-2.38-.87-3.25,1-1.74,3.8-1.27,7.72-1,11.61,1,14.72,6,27.71,16.85,38.08,9.45,9,21.43,13.49,33.21,18.34a12.91,12.91,0,0,0,10.27-.15c9.29-3.79,18.58-7.66,26.89-13.35,15.11-10.35,21-25,17.08-41.46-1.28,1.88-2.54,3.79-3.86,5.65-.86,1.19-1.77,2.92-3.5,2s-.09-2.35.2-3.46c1.4-5.23,2.86-10.44,2.79-15.8-5.51.63-10.49,1.19-15.47,1.78-5.33.64-10.35,2.15-14.62,5.59-.89.72-1.69,2.44-2.92,1.49-1.42-1.1-.07-2.58.65-3.57a25.83,25.83,0,0,1,16.54-10.28c4.67-.9,9.41-1.4,14.12-2.06,1.55-.22,2.74-.29,2.41-2.65-.91-6.59-1.62-13.2-2.82-19.75-1.87-10.27-8.89-19.13-8-30.25-4.52,7.76-11.59,12.33-18.65,16.85-5.88,3.76-11.47,7.84-15.37,13.71-4.62,7-10,13.74-7.25,23.8-3.59-3.39-3.9-7.28-4.18-11.07-.66-9,1.19-17.73,4.18-26.22.74-.3.81-.83.52-1.48Zm21,218.91c3.06.48,6.14.9,9.19,1.44C306,292,319.39,280.13,318,264.79c-.17-1.87-.74-3.71-1-5.59-.73-5.33-1.8-10.68.62-15.89l.68.61c0,1.09,0,2.18-.15,3.26a10.2,10.2,0,0,0,3.48,9.65c6.52,6.12,12.86,12.46,17.89,20.06,11.29,17,19.17,35.69,26.14,54.71,8.54,23.3,19,45.24,35.91,63.92A321.84,321.84,0,0,1,431,432.64c3.49,5.24,3.56,5.2,9.2,1.94.7-.4,1.39-.84,2.08-1.27,1.35-.84,1.66-1.79.86-3.35-9.88-19.46-16.45-40.26-24.64-60.4-4.63-11.39-9.15-23.12-18.63-31.79a64.38,64.38,0,0,1-15.22-20.57c-5.18-11.24-10.19-22.56-14.91-34A567.37,567.37,0,0,0,339,219.3c-5-8.74-11.76-12.63-21.53-12.42-2.63.06-3.61.78-4.38,3.37-5.07,17.2-11.24,34-19.59,49.9-4.66,8.86-9.63,17.57-17.47,24.22,1.6.63,3.53,1.28,2.79,3.54-1.55,4.68-5-.71-7.35,1.5a139.2,139.2,0,0,0,28.66,42.32c-.09-13.5,2.39-25.63,4.33-37.84l.38-.62-1-.11c-8.29,1.34-16.23,1-23.09-4.68Zm2.3,738c-.82,10.11,8.52,21.81,22.86,18.14a71.49,71.49,0,0,0,17.57-7.3c6.91-3.89,8.82-10.29,7.62-17.88a80.62,80.62,0,0,0-5.94-20.24,46,46,0,0,1-3.6-14.15q-1.71-17-2.89-34.11a200.41,200.41,0,0,1,.58-37.55c3.2-26.6,7.86-53,10.28-79.72a227.06,227.06,0,0,0-.39-44c-1.86-18-6.76-35.51-8.31-53.56-1.15-13.37-1.12-26.66,1.59-39.81,2.65-12.89,5.95-25.65,8.58-38.55,3.78-18.48,7.27-37,10.73-55.57.82-4.36.53-8.54-3.06-12.08a36.84,36.84,0,0,1-5.66-7.93c-10.89-18.82-16.42-39.24-18.07-60.82-.07-.89.76-2.48-1-2.53-1.58,0-1.34,1.4-1.35,2.45a62.14,62.14,0,0,1-1.66,12.46c-4.74,21.66-13.47,41.33-29,57.52a10.37,10.37,0,0,0-2.81,5.28c-1.46,7.15-.64,14.27-.15,21.47,1.31,19,2.11,38,3.17,57.07.46,8.43.26,16.86.82,25.31a256.58,256.58,0,0,1-.08,30.63c-.56,10.44-2.35,20.81-2.92,31.25a252,252,0,0,0,.6,35.5c1.52,17.23,4.58,34.19,7.86,51.13,2.66,13.72,5.56,27.39,7.27,41.29,1.2,9.75,1.33,19.54,1.75,29.33.49,11.21-1,22.25-2.6,33.26-1.32,8.84-4.28,17.52-3.06,26.6,1.05,7.83-.62,15.11-3.4,22.3A74.94,74.94,0,0,0,283.75,1025.81Zm-27.83-418.5c.19-9.52-1.23-14.7-6.73-19a21.45,21.45,0,0,1-3.77-4.27c-8.86-11.92-13.77-25.57-17.28-39.83a127.4,127.4,0,0,1-3.1-23.31c-.2-3.52-2.8-2.18-4.38-2.74s-1.3.66-1.18,1.71a113.33,113.33,0,0,1-1.95,36.78c-3.38,15.48-8.67,30.22-19.59,42.14-3.34,3.65-4,7.38-3.45,11.81.34,2.69.61,5.39,1.09,8,4.07,22.46,8.36,44.88,13.86,67a142.07,142.07,0,0,1,4.43,35.93c-.14,13.72-2.14,27.32-4.81,40.83-2.64,13.34-4.89,26.76-5.39,40.41-.92,25.31,2.75,50.23,6.21,75.18,2.72,19.67,6.4,39.27,6,59.25-.27,12.39-1.47,24.73-2.49,37.08-.87,10.46-2.57,20.63-6.93,30.34a49.24,49.24,0,0,0-3.88,17c-.35,5.38,1.19,10,5.69,13.25,7.28,5.2,15.29,8.88,24.29,9.57,8.7.67,16.17-5.6,17.71-14.19,1.67-9.32-.63-18.14-3.77-26.69s-5.36-17-4.41-26.25a56.75,56.75,0,0,0-1.85-19.82c-2.46-9.67-3.21-19.62-3.65-29.49-1.18-26.29,3.18-52,8.53-77.65a452.26,452.26,0,0,0,8.43-53.93c1.65-19.21.5-38.31-1.51-57.45-2.54-24.2-.72-48.46.22-72.68C253,646,254.06,625.58,255.92,607.31ZM259.4,95.74c1.23-2.62,2.39-5.27,3.71-7.84,5.18-10,13.75-16.56,23-22.41,6.74-4.26,12.79-9.19,15.7-17,.3-.79.37-1.74,1.4-1.66,1.55.13.87,1.47.87,2.24a48,48,0,0,0,3.13,17.06c1.9,5,4.15,10,5.17,15.33A139.87,139.87,0,0,1,315,101.22c.14,3,1.18,3.37,3.77,2.06a27.06,27.06,0,0,0,8.16-6c2.53-2.81,5.19-5.5,8.2-8.66-.07,3.52,0,3.54-1.11,5.36a38.3,38.3,0,0,1-16.29,15.37c-1.12.54-2.89.57-2.92,2.38-.1,4.74-1.82,9.22-1.82,14.17,2.12-3.21,4.23-6.43,6.79-10.32-.55,15.86.25,30.81,3.26,45.49,2.28,11.1,3.83,22.18,3.3,33.52-.13,2.72,0,5.45-.21,8.16-.1,1.35.25,2.11,1.53,2.38,5.29,1.16,8.51,5.07,11.9,8.83,4.36,4.84,7.08,10.79,11.22,16.85a38.93,38.93,0,0,0,0-4.83c-1.63-11-3.25-21.94-6.16-32.68-4.87-18-4.63-36.3-2.94-54.63.95-10.25,2.22-20.47,3.64-30.67.7-5-.14-9.87.4-14.85,1-9.38,2.26-19-2.22-27.9a83.26,83.26,0,0,0-21.25-27c-5.32-4.41-10.78-9.07-14.64-14.69a34.05,34.05,0,0,0-8.36-8.93C277-1,253.88-.78,230.51,12c-4.92,2.69-9.62,5.74-13.32,10.36-5.6,7-10.73,14.36-16.27,21.4a64.94,64.94,0,0,0-13.76,34.07c-1.2,11.13-.72,22.23-.14,33.39.87,16.59,3.61,32.92,6.77,49.11,3.68,18.9,3.83,37-4.66,54.73-1.67,3.48-3.33,7.22-3.47,12.33,1.38-2,2.23-3.24,3-4.47,4.15-6.41,8.3-12.83,15.25-16.66,1.57-.86,1.49-2.21,1.18-3.54-1-4.31-.71-8.66-.59-13,.4-15.38,1.05-30.76,1.29-46.14.19-11.87,1.84-23.42,6.38-34.42.84-2-.09-2.58-1.25-3.6C206.82,102,203,98.06,200.74,93c-.39-.87-2.34-2-.54-3,1.24-.68,2.17.74,2.87,1.74,2.57,3.69,5.25,7.26,9.13,9.73,1.71,1.09,3,2,4.36-.7,1.08-2.13,2.94-3.88,4.59-5.67,6.76-7.33,15.24-12.3,23.67-17.37,8.71-5.23,17.4-10.55,22.27-20.08a1.23,1.23,0,0,1,1.81-.75C262.76,69.07,257.81,81.55,259.4,95.74Zm10.05,194.6A132.23,132.23,0,0,1,257,311.64c-4.85,6.9-9.65,14-16,19.48-5.22,4.5-6.73,9.75-6.29,16.06,1.1,15.67-5.56,28.72-13.72,41.31a382.36,382.36,0,0,0-22.5,40c-1.19,2.45-1.19,3.83,1.53,5.06a124.07,124.07,0,0,0,11.51,4.93c31.54,10.52,63.59,11.64,96,5,9.77-2,19.15-5.17,27.51-10.87,1.51-1,2.22-1.85,1.21-3.9a420.2,420.2,0,0,0-21.8-39.07c-5.77-9.15-11.7-18.28-13.74-29.21-.91-4.85-.41-9.77-.52-14.66-.15-6.89-1.54-12.62-6.83-18.08C283,317.11,275.31,304.44,269.45,290.34Zm-1.21-1.8c-2.73.61-4.34,3.1-6,.95-1.51-2-.31-3.31,1.59-4.5.86-.54-.34-1.42-.9-1.83-4.5-3.27-7.54-7.77-10.32-12.44-11.3-19-18-39.69-22.75-61.07-.67-3-1.66-3.71-4.55-3.28a84.33,84.33,0,0,1-10.19.6c-7.54.19-13.91,2.62-17.77,9.51-5.25,9.38-10.62,18.7-15.4,28.32-10.6,21.31-19,43.6-28.61,65.36-3.82,8.65-7.88,17.37-14.92,23.68-11.52,10.33-17.54,23.78-23.06,37.54-8.18,20.43-14.83,41.48-25.18,61-.36.67-1.18,1.49-.47,2.2a16.29,16.29,0,0,0,8,4.53c2.15.5,2.73-2,3.64-3.32,10.09-15.27,22.2-28.95,33.78-43,9.71-11.81,19-23.83,24.69-38.23,3.78-9.6,7.37-19.28,11.26-28.84,9.89-24.37,19.76-48.79,39.85-67.06,4.13-3.76,7.14-7.6,5.14-13.53,0-.06.39-.26.84-.56,1.92,2.09,1.75,4.73,1.53,7.17-.47,5.13-1.5,10.22-1.89,15.36-.63,8.26,2.83,14.59,10.13,18.49,5.85,3.12,12,5,18.81,3.28,3-.76,6.21-1,9.72-1.52-6.59,6.08-14.24,7.27-22.26,6.14-3.68-.53-3.3.39-2.54,3.14,1,3.51,1.28,7.21,1.93,10.82,1.56,8.64,1.75,17.43,2.75,27.09C248.6,320.6,259.6,306,268.24,288.54Zm-.61-28.27c1-3.46,1.45-6.18,4-8.61-.24,1.14-.33,1.64-.46,2.14-2,7.59-3,15.17.95,22.49,3,5.54,3.79,5.61,7.87,1.13a27.6,27.6,0,0,0,2.06-2.52c14.19-19.79,22-42.46,29.45-65.31.61-1.89.1-2.65-2.19-3-7-.9-13.65-3.3-20.15-6.22-7.54-3.39-12-8.54-11.86-17,0-2.2-.83-2.07-2.44-1.43a18.83,18.83,0,0,1-14.66.1c-2.54-1.08-2.91-.21-3,2.15a15.4,15.4,0,0,1-5.1,11.39c-5.2,4.94-11.56,7.3-18.14,9.11-2.77.77-2.88,1.86-2.37,4.12a248.93,248.93,0,0,0,13.89,43.53c4.11,9.5,8.75,18.77,16,26.68,3.38-4.24,3.78-9,3.77-13.7s-.29-9.58-2.71-14C265.5,253.33,266.07,256.49,267.63,260.27ZM194.24,509.16c8,4.62,16,5.19,23.89,6.22,10.84,1.43,21.75.17,32.6,1.41a124.67,124.67,0,0,0,17.9.74c10.58-.32,21.14-1.41,31.75-1.39a163.85,163.85,0,0,0,28.75-2.49c14.45-2.54,26.32-15.91,25.65-30.44-.46-9.9-4.35-19.29-7.81-28.6-.8-2.14-1.66-1-2.66-.35-4.38,2.72-8.71,5.53-13.17,8.11-2,1.14-2.56,2.24-1.88,4.58,1.14,3.92.57,8.11-3.21,10.07-5.51,2.84-10.78,6.35-16.91,7.85-4.82,1.18-8.48.22-10.23-3.63s-3.9-4-7.15-2.57a16.29,16.29,0,0,1-3.84,1.31c-1.81.32-2.3.79-2,2.91,1.83,11.87-4.87,21.28-16.45,23.2a46.94,46.94,0,0,1-8.56.27,38.94,38.94,0,0,0-12.86,1.55,41.48,41.48,0,0,1-14.88,1.76c-10.42-.56-12.81-2.48-15.15-12.25a6,6,0,0,1,0-3.57c.22-.63.37-1.75-.23-1.81a61.82,61.82,0,0,0-7.7-.32c-2.09,0-1.4,2-1.78,3.13C206.13,501.65,203.34,507.92,194.24,509.16Zm23.83,23.93c.66-4.23-.47-8.39-.47-12.59,0-2.22-1-2.55-2.94-2.75-7.7-.79-15.36-2-22-6.47-4.68-3.18-9.64-1.45-14.53-1-1.59.13-1.1,1.6-1.18,2.61-.95,11.63,1.2,23,3.36,34.3,2.23,11.72,5.89,23.11,7.89,34.89.86,5.05,2.1,10,3.36,15,.65,2.56,1.87,3.24,4,.88a68.27,68.27,0,0,0,10.41-15C214,567.29,217.42,550.52,218.07,533.09Zm125.35,57c9-32.63,18.39-64.11,12.84-98.41-.81,1-1.15,1.22-1.23,1.52-3,10.68-9.78,17.83-20.15,21.66a39.27,39.27,0,0,1-12.69,2.58c-4.26.09-4.49,2.07-4,5.21.08.53,0,1.08.12,1.62a159.13,159.13,0,0,0,12.07,45C333.52,576.45,337.11,583.39,343.42,590.12Zm-71-49.71c-.28,8.75,1,17,1.77,25.22.67,7.26,1.18,14.59,3.61,21.61,1.05,3.06,1.81,2.86,3.82.8,8.28-8.48,14.21-18.5,19-29.17C306,547,310,534.7,310.85,521.56c.15-2.27-.27-3.08-2.71-3-10.6.52-21.21.9-31.82,1.25-1.67.06-2.43.55-2.55,2.3C273.34,528.37,272,534.53,272.38,540.41Zm-28.7-21.18v-.32c-4.35,0-8.74.35-13-.12-2.92-.32-3.39.46-3.31,3.08a113.54,113.54,0,0,0,5.92,31.46c3.93,12.15,8.83,23.92,18,33.31,1.3,1.33,2.7,3.63,4.45,3.1s1.55-3.15,2-5c2-8.07,2.4-16.36,3.3-24.58a154.2,154.2,0,0,0,0-37c-.32-2.4-1.16-3.47-3.83-3.43C252.64,519.84,248.16,519.43,243.68,519.23ZM208.59,133c0,.54-.08,1.08-.09,1.62-.17,13.06-.9,26.1-1.41,39.15-.37,9.57-2.31,19.16-.31,28.81.37,1.79.72,2.13,2.42,1.92a98.71,98.71,0,0,1,10.15-.83c8.92-.17,17-3,24.75-7.21,5.43-3,9.25-6.9,9.52-13.55.1-2.56-.66-4.16-3-5.07-4.08-1.54-7.75-3.91-11.57-6-11.1-6-19.92-14.07-25.24-25.72C211.82,141.89,210.93,137.26,208.59,133ZM303,447.7c-9,2.19-18.25,2.41-27.39,2.88a166.74,166.74,0,0,1-35.34-2.31c-16.24-2.63-32.26-6-45.95-16-1.74-1.27-2.29-1.08-3.12,1.31-2.38,6.82-3.1,14-4.89,20.91a3.64,3.64,0,0,0,2.17,4.68,35.14,35.14,0,0,0,10.87,3.1c5.61.58,11.53.85,14.08,7.6,1,2.59,2.77,1.5,3.9-.21,2.62-4,6.47-6,10.89-7.33a55.33,55.33,0,0,1,15.59-2.55A79.85,79.85,0,0,0,265.05,457a23.89,23.89,0,0,1,15.17,1,9.56,9.56,0,0,0,10.18-1.79A46.21,46.21,0,0,1,303,447.7Zm15.51-296c-.33.2-.79.32-1,.6-7.55,12.56-20,18.87-32.41,25-3.3,1.64-4.48,3.33-3.92,6.83.49,3-.23,6.51,2.76,8.43a109.83,109.83,0,0,0,11.32,6.2c7.85,3.82,16.22,4.79,24.89,5.15,4.26.18,4.65-.72,4.59-4.47C324.53,183.35,322,167.53,318.49,151.72ZM220.43,470c-2.32,3.17-1.49,6-1.07,8.73.84,5.39,2.84,10.49,1.67,16.3-1.12,5.52,2.81,10.59,7.49,11.1,4.46.48,9.17,1.28,13.41,0,8.3-2.5,16.79-2.35,25.24-3,11.25-.91,16.37-6.69,15.85-17.91a162.14,162.14,0,0,1-.13-17.91,6.4,6.4,0,0,0-3-6.37c.23,3.39.48,6.48.63,9.58.3,6.06-2.35,9.79-7.86,12.35-5.34,2.49-11.21,2.55-16.85,4.18,1.65,4.3,3.25,8.44,5.19,13.47-5.14-3.31-4.37-9-7.78-12.77l-7.61,14.57c-.16-5.49,2.74-9.74,4.8-14.72-6.17-.35-11.9,1.12-17.71.85a11.08,11.08,0,0,1-9.22-4.93C220.67,479.61,221.29,475,220.43,470Zm31.89,12.33c2.38-2,4.41-4.4,7.25-5.83a3.4,3.4,0,0,1,3.12-.27c1.16.61.92,2.07.58,3-2,5.23,1.34,3.45,3.63,2.83a46.74,46.74,0,0,0,5.31-1.91,8.09,8.09,0,0,0,5.4-8.17c0-3.26-.31-6.51-.36-9.76,0-2.1-1-2.75-3-2.85a28.15,28.15,0,0,0-11.93,1.56,24.14,24.14,0,0,1-10.3,1.45,69.52,69.52,0,0,0-26.68,4c-1.57.55-3,1.25-2.84,3.39.27,3.64.49,7.39,1.88,10.71s4,5.68,8.18,5.47c4.38-.22,8.81.21,13.06-1.24-1.69-2.11-4.54-4.14-1.64-7.09C246.05,475.47,248.74,477.09,252.32,482.37Zm-92-14.1c-3.59,7.38-6.05,14.77-3.77,22.5,2.06,7,6,12.75,13.86,15.07,7.22,2.11,14.17.06,21.24.07,7.73,0,11.48-4.55,13.25-11.31,1.37-5.2,2.51-10.46,3.61-15.72.53-2.5.68-5.07,1.13-7.58a2.62,2.62,0,0,0-1.74-3.25c-1.94-.54-1.45,1.33-1.76,2.38a28.65,28.65,0,0,0-.9,5.14c-.59,5.34-5.92,12.07-10.34,12s-8.71-.23-13,.05c-5.59.38-9.42-2.64-13.12-6.09-.79-.73-1.47-1.57-2.2-2.36-.37.4-.63.72-.92,1-2,1.91-4.38,5.37-6.81,3.35-2.87-2.39.39-5.37,2.11-7.52C163.1,473.28,163.27,471,160.31,468.27Zm224.6,46.87c14.59-4.75,25.78-22.14,25-38.29-.77-16.47-11.52-25.94-27.78-24.48A23.06,23.06,0,0,0,361.66,469c-.63,2.24-.81,4.46,1.44,5.79,2.42,1.43,3.68-.62,4.88-2.22a26.6,26.6,0,0,1,15.82-10c8.69-2,15.82,3.46,16.27,12.33a27,27,0,0,1-8.52,21.71C385.71,502,386.79,508.69,384.91,515.14ZM189.86,485c3,.17,6,.29,8.48-1.93s4.59-4.92,4.65-8.67c0-2.63,3-5.54,1-7.59-1.65-1.71-5.2-.83-7.74-1.46-5.54-1.37-12.09-1.51-14.14-8.77a3,3,0,0,0-2.16-1.62c-6.5-.91-12.66.1-18.19,3.82-.76.51-2.08,1.44-1,2.63,1.59,1.77,2.32,4,3.45,5.95.81,1.41,1.47,1.7,2.56.24s2.89-2.06,4.24-.83,1.27,3.15,0,4.76c-.4.53-.6,1.24-1,1.72-1.92,2.07-1,3.51.56,5.45C175.73,485,182.89,484.58,189.86,485ZM85.74,429.22c1-1.59,3-3.46,2.17-5.21-1.09-2.22-4-.75-6-1.07-1.45-.22-2.23.75-2.84,1.88-1.56,2.87-3.08,5.74-4.66,8.59-5.1,9.2-2.24,16.51,5.14,22.63,7.55,6.26,19.69,7.86,26.13-3.56,1.46-2.6,2.63-5.36,4.16-7.92,1.85-3.08,1-5.61-1.19-8-.6-.66-1.34-2-2.16-.71s-3.18,2.17-2,4.3c.42.76,2.38.75,1.4,2.26-.87,1.35-2.39,1-3.74.82a32.27,32.27,0,0,1-14.57-6.81c-2-1.55-4.2-3.16-4.85-5.83-.29-1.19-1.52-2.9.08-3.7C84.94,425.8,83.75,429,85.74,429.22Zm362-2.53c1.83.1.68-3.28,2.5-2.38,2,1,.6,3,0,4.3-2.31,5.44-15.5,13.06-21,12.28-1.39-.2-3.25-.92-1.56-2.42,3.12-2.76-.36-4-1.27-4.91-1.58-1.52-1.78,1.11-2.63,1.86-1.95,1.71-1.77,3.8-.72,5.88,1.52,3,3,6.05,4.74,9,3.56,6.17,8.81,8.75,16,7.83,9.93-1.27,22.38-13.67,15.62-26-1.76-3.2-3.38-6.49-5.2-9.66-1-1.79-6.63-3.06-8-1.66-1.92,2,.47,3.6,1,5.36C447.33,426.4,447.59,426.56,447.71,426.69Zm-388,64.85c2.57-4.7,5.77-4.94,9.15-4.76,1.3.07,2.69.56,3.37-1.31A6.48,6.48,0,0,1,77,481.31C84,480,85.24,474.75,86,469a18.17,18.17,0,0,1,1.16-3.9c.49-1.38.37-2.33-1.23-2.82a21.57,21.57,0,0,1-9.59-5.87c-.88-.94-1.52-.69-2.38.09-6.6,5.89-14.26,10.5-20.31,17-2,2.18-1.72,2-.73,4.59C54.65,482.62,59.39,485.2,59.72,491.54Zm260.79-232c1.45,18.88,1.44,18.87-11.57,31.48a4,4,0,0,0-1.32,4.06c.69,1.84,2.31.45,3.52.42s2.44-.16,3.66-.27c8.54-.78,16.35-3.37,22.85-9.22,1-.92,1.76-1.69.77-3.32C333.48,274.58,327.45,267.29,320.51,259.59Zm-296,264c3-.63,5.61-2.65,8.09-5,7.53-6.94,11.79-16.76,20.71-22.6,5.25-3.44,5.15-6.41,1.67-11.77-2.14-3.29-3.46-3.33-6-.28-6.38,7.76-10.46,17-16.59,25C29,513.4,22.69,516.28,24.52,523.59Zm485-.77c1.95-7.33-4.5-10-7.65-14.48-.16-.22-.24-.49-.41-.7-5.67-6.79-9.09-15.07-14.62-22-3.84-4.8-4.61-4.94-8.67-.2-3.23,3.79-3.14,5,.5,8.32,6.42,5.79,13.21,11,17.91,18.68C499.46,517.2,503.85,521.26,509.49,522.82Zm-294.77-264A202.71,202.71,0,0,0,199.87,277c-1.8,2.57-1.29,4.67.82,6.84,4.6,4.76,10.84,5.71,16.76,7.27,2.88.75,5.88,1.86,10.22,1.13C213.68,284.66,211.17,273.35,214.72,258.86ZM320.09,449.31a2.22,2.22,0,0,0-2.91-2.47c-7.46,1.77-15,3.41-21.72,7.36-1.92,1.12-2.71,2.47-.3,4.32,4.15,3.18,9,4.81,13.71,6.75a2.4,2.4,0,0,0,2.71-.24C315.55,460.58,319.58,456.15,320.09,449.31Zm29.8-3.31a9.46,9.46,0,0,1-1.52-5.79c.33-3-1.05-2.92-2.94-1.5a100.26,100.26,0,0,1-14.19,8.55c-7.57,3.9-7.47,3.83-4.43,11.9.77,2,1.45,2.09,3.07,1.21A171.25,171.25,0,0,0,348,448.94,3.61,3.61,0,0,0,349.89,446Zm50.72,123.15c-4.32-6.14-4.07-12.09-.92-18.22a41.16,41.16,0,0,0,3.82-10.12c1.32-6.14-2.38-10.6-9.17-10.47,4,4,3.76,8.41,1.33,13-2.06,3.93-4.61,7.62-5.89,11.93C387.61,562.62,392.62,569.22,400.61,569.15ZM68.08,511.23c1.66-1.81,2.46-4.94,5.88-3.4.72.32,1.12-.93,1.56-1.6,4.75-7.07,6.78-15,7.31-23.36,0-.78.38-1.64-.87-1.84-2.88-.47-9.41,5.58-8.82,8.48.82,4-.28,7.42-2.41,10.77S66.9,506.86,68.08,511.23Zm309.28,22.24a18,18,0,0,0-5.49,6.34c-2.56,4.33-3,8.57.41,12.73a13.84,13.84,0,0,1,2.47,5.9c1,4.49-.45,8.46-2.3,12.56,8.23-.89,9.88-6.48,9.41-12a13.82,13.82,0,0,0-3.18-7.75C374,545.61,373,539.86,377.36,533.47Zm-15.62-28.4c-1.05,13,.41,14.61,12.19,13.5a2.5,2.5,0,0,0,.4,0c1.86-.77,4.79,0,5.54-1.75.59-1.38-1.94-2.86-2.95-4.4a26,26,0,0,1-2-3c-.47-1-1-1.47-2.12-1.33A14.7,14.7,0,0,1,361.74,505.07Zm104.38,5.68c.26-2.61.4-4.51-.29-6.35-1.5-4-4-7.53-4.88-12-.44-2.29-4.35-2.53-6.69-1.92s-1,2.82-.58,4.43a41.94,41.94,0,0,0,4.77,10.3c.48.81.86,2.25,1.85,1.81C463.65,505.57,464.29,508.48,466.12,510.75ZM285.45,477.63c1.53-.4,2.7-.66,3.84-1,7.34-2.27,7.37-2.29,4.31-9.5-.77-1.82-1.05-4.12-4.27-3.43-3,.64-4.3,1.77-3.94,5A85.49,85.49,0,0,1,285.45,477.63ZM209.7,488.88c8.86.82,8.86.82,7.18-7.39-.13-.66-.12-1.35-.19-2-.1-1.09-.1-2.4-1.69-2.15-1.21.19-2.79-.19-3.16,1.8C211.22,482.39,210.42,485.63,209.7,488.88ZM381.39,510.2c-1.63-2-1.09-3.52-1.06-4.92,0-1.68-.8-2.82-2.17-2.87s-1.76,1.45-1.92,2.68c-.49,3.93,2.43,6.1,4.56,8.65.67.81.67.1,1.16-.38,3.24-3.11,2.17-7.38,3.14-11.07.29-1.07.66-3.3-1.42-3a2.72,2.72,0,0,0-2.1,3.63A11.75,11.75,0,0,1,381.39,510.2Zm-40.88-78.42c-6.41,7.07-15.13,9.4-23.25,12.94,2.23-.45,4.17,1.46,6.59.32,5-2.36,10.08-4.62,14.86-7.45C340.88,436.31,341.54,434.58,340.51,431.78ZM383,527.55a9.74,9.74,0,0,0,5.55-1.47c1.52-.9,2.08-2.34.6-3.64-.79-.68-1.68-3.4-3.36-.43-.32.56-2.55.31-3.76,0-.5-.15-.36-2.05-1.8-1.07a6,6,0,0,0-2.92,4.19c-.14,1.11,1,1.42,1.93,1.69C380.52,527.13,381.75,527.77,383,527.55ZM267.27,271.45c-.78,2.91-1.62,5.81-2.31,8.74-.45,1.88.92,2.74,2.37,3.25s3.29,1.17,4.58-.14-.11-2.57-.68-3.7C269.91,277,268.46,274.45,267.27,271.45ZM388.36,518.08c2.11,1.51,2.15,4.2,4.59,2.84s3.94-3.29,3.53-6.26a1.13,1.13,0,0,0-1.46-1c-.9.16-2.21.42-1.88,1.53C394.34,519.12,391.59,518.35,388.36,518.08Zm-50.51-94.15c2,3.14,5.82,4.73,5.6,8.8C345.21,424.47,344.65,423.57,337.85,423.93Zm48.68,105c-2.09,1.07-4.29-.84-5,1.72-.38,1.36.89,2.36,2,2.51C386.17,533.44,385.79,531.11,386.53,528.88ZM251,484.28c-1-2.06-2-3.77-3.72-4.79a1.8,1.8,0,0,0-2.26,0c-.78.81.1,1.46.54,2A7.22,7.22,0,0,0,251,484.28Zm32.9-22.77a8.68,8.68,0,0,0,7-2.12A13.41,13.41,0,0,0,283.91,461.51ZM512,520.84c.4-.05.86-.1.67-.66a2,2,0,0,0-.64-.94c-.46-.37-.67,0-.73.42C511.25,520.21,511.38,520.7,512,520.84Zm-489.23-.65s-.35-.28-.6-.2a1.37,1.37,0,0,0-.77.78,1,1,0,0,0,.36.85C22.43,521.73,22.68,521.27,22.81,520.19Zm486,6.6-.65.55a5.14,5.14,0,0,0,1.07,1c.36.2.69-.14.49-.53A5.23,5.23,0,0,0,508.78,526.79ZM25.85,528.31c-.1-.19-.14-.43-.26-.48-.59-.21-.88.19-1.17.63s.1.88.26.82A5.38,5.38,0,0,0,25.85,528.31Zm484.49,1.33c-.08-.08-.17-.25-.23-.24a1.91,1.91,0,0,0-.49.21c.07.08.16.25.22.24A1.83,1.83,0,0,0,510.34,529.64Zm-485.9.81c-.08-.08-.18-.25-.24-.23a1.88,1.88,0,0,0-.48.22c.08.08.17.24.23.23A1.94,1.94,0,0,0,24.44,530.45Z"/> <path fill="#fdbab4" d="M283.75,1025.81A74.94,74.94,0,0,1,289,1001c2.78-7.19,4.45-14.47,3.4-22.3-1.22-9.08,1.74-17.76,3.06-26.6,1.64-11,3.09-22.05,2.6-33.26-.42-9.79-.55-19.58-1.75-29.33-1.71-13.9-4.61-27.57-7.27-41.29-3.28-16.94-6.34-33.9-7.86-51.13a252,252,0,0,1-.6-35.5c.57-10.44,2.36-20.81,2.92-31.25a256.58,256.58,0,0,0,.08-30.63c-.56-8.45-.36-16.88-.82-25.31-1.06-19-1.86-38.06-3.17-57.07-.49-7.2-1.31-14.32.15-21.47a10.37,10.37,0,0,1,2.81-5.28c15.57-16.19,24.3-35.86,29-57.52a62.14,62.14,0,0,0,1.66-12.46c0-1.05-.23-2.49,1.35-2.45,1.78.05.95,1.64,1,2.53,1.65,21.58,7.18,42,18.07,60.82a36.84,36.84,0,0,0,5.66,7.93c3.59,3.54,3.88,7.72,3.06,12.08C339,620,335.48,638.59,331.7,657.07c-2.63,12.9-5.93,25.66-8.58,38.55-2.71,13.15-2.74,26.44-1.59,39.81C323.08,753.48,328,771,329.84,789a227.06,227.06,0,0,1,.39,44c-2.42,26.71-7.08,53.12-10.28,79.72a200.41,200.41,0,0,0-.58,37.55q1.15,17.07,2.89,34.11a46,46,0,0,0,3.6,14.15,80.62,80.62,0,0,1,5.94,20.24c1.2,7.59-.71,14-7.62,17.88a71.49,71.49,0,0,1-17.57,7.3C292.27,1047.62,282.93,1035.92,283.75,1025.81ZM291.92,742c-1.58-1.93-2.82-3.34-3.91-4.85-.45-.62-.9-1.17-1.55-.74s-.47,1.28-.09,1.83C287.57,740,289,741.62,291.92,742Zm21.18-1.06c2.47-2.74,4.11-4.85,5.07-8.32C314.72,734.63,314,737.29,313.1,740.94Z"/> <path fill="#fdbab4" d="M255.92,607.31c-1.86,18.27-2.91,38.68-3.7,59.08-.94,24.22-2.76,48.48-.22,72.68,2,19.14,3.16,38.24,1.51,57.45a452.26,452.26,0,0,1-8.43,53.93c-5.35,25.62-9.71,51.36-8.53,77.65.44,9.87,1.19,19.82,3.65,29.49a56.75,56.75,0,0,1,1.85,19.82c-1,9.21,1.28,17.71,4.41,26.25s5.44,17.37,3.77,26.69c-1.54,8.59-9,14.86-17.71,14.19-9-.69-17-4.37-24.29-9.57-4.5-3.22-6-7.87-5.69-13.25a49.24,49.24,0,0,1,3.88-17c4.36-9.71,6.06-19.88,6.93-30.34,1-12.35,2.22-24.69,2.49-37.08.44-20-3.24-39.58-6-59.25-3.46-24.95-7.13-49.87-6.21-75.18.5-13.65,2.75-27.07,5.39-40.41,2.67-13.51,4.67-27.11,4.81-40.83a142.07,142.07,0,0,0-4.43-35.93c-5.5-22.16-9.79-44.58-13.86-67-.48-2.66-.75-5.36-1.09-8-.56-4.43.11-8.16,3.45-11.81,10.92-11.92,16.21-26.66,19.59-42.14a113.33,113.33,0,0,0,1.95-36.78c-.12-1-.28-2.22,1.18-1.71s4.18-.78,4.38,2.74a127.4,127.4,0,0,0,3.1,23.31c3.51,14.26,8.42,27.91,17.28,39.83a21.45,21.45,0,0,0,3.77,4.27C254.69,592.61,256.11,597.79,255.92,607.31ZM217.11,733.25a9.78,9.78,0,0,0,4,6.64C220.54,737.31,219.73,734.86,217.11,733.25ZM242.73,742c3-.39,4.26-2.06,5.53-3.71a1.27,1.27,0,0,0,0-1.81c-.71-.57-1.14.11-1.55.63C245.57,738.56,244.39,740,242.73,742Z"/> <path fill="#eedbce" d="M259.4,95.74c-1.59-14.19,3.36-26.67,9.5-38.8a1.23,1.23,0,0,0-1.81.75c-4.87,9.53-13.56,14.85-22.27,20.08-8.43,5.07-16.91,10-23.67,17.37-1.65,1.79-3.51,3.54-4.59,5.67-1.36,2.67-2.65,1.79-4.36.7-3.88-2.47-6.56-6-9.13-9.73-.7-1-1.63-2.42-2.87-1.74-1.8,1,.15,2.1.54,3,2.3,5,6.08,9,10.21,12.55,1.16,1,2.09,1.57,1.25,3.6-4.54,11-6.19,22.55-6.38,34.42-.24,15.38-.89,30.76-1.29,46.14-.12,4.34-.38,8.69.59,13,.31,1.33.39,2.68-1.18,3.54-6.95,3.83-11.1,10.25-15.25,16.66-.8,1.23-1.65,2.44-3,4.47.14-5.11,1.8-8.85,3.47-12.33,8.49-17.72,8.34-35.83,4.66-54.73-3.16-16.19-5.9-32.52-6.77-49.11-.58-11.16-1.06-22.26.14-33.39a64.94,64.94,0,0,1,13.76-34.07c5.54-7,10.67-14.4,16.27-21.4,3.7-4.62,8.4-7.67,13.32-10.36C253.88-.78,277-1,299.24,14.61a34.05,34.05,0,0,1,8.36,8.93c3.86,5.62,9.32,10.28,14.64,14.69a83.26,83.26,0,0,1,21.25,27c4.48,8.87,3.25,18.52,2.22,27.9-.54,5,.3,9.89-.4,14.85-1.42,10.2-2.69,20.42-3.64,30.67-1.69,18.33-1.93,36.64,2.94,54.63,2.91,10.74,4.53,21.71,6.16,32.68a38.93,38.93,0,0,1,0,4.83c-4.14-6.06-6.86-12-11.22-16.85-3.39-3.76-6.61-7.67-11.9-8.83-1.28-.27-1.63-1-1.53-2.38.2-2.71.08-5.44.21-8.16.53-11.34-1-22.42-3.3-33.52-3-14.68-3.81-29.63-3.26-45.49-2.56,3.89-4.67,7.11-6.79,10.32,0-5,1.72-9.43,1.82-14.17,0-1.81,1.8-1.84,2.92-2.38A38.3,38.3,0,0,0,334,94c1.08-1.82,1-1.84,1.11-5.36-3,3.16-5.67,5.85-8.2,8.66a27.06,27.06,0,0,1-8.16,6c-2.59,1.31-3.63.92-3.77-2.06a139.87,139.87,0,0,0-2.63-19.74c-1-5.37-3.27-10.31-5.17-15.33a48,48,0,0,1-3.13-17.06c0-.77.68-2.11-.87-2.24-1-.08-1.1.87-1.4,1.66-2.91,7.79-9,12.72-15.7,17-9.26,5.85-17.83,12.4-23,22.41C261.79,90.47,260.63,93.12,259.4,95.74Z"/> <path fill="#fdbab4" d="M268.24,288.54c-8.64,17.49-19.64,32.06-33.12,46-1-9.66-1.19-18.45-2.75-27.09-.65-3.61-1-7.31-1.93-10.82-.76-2.75-1.14-3.67,2.54-3.14,8,1.13,15.67-.06,22.26-6.14-3.51.53-6.68.76-9.72,1.52-6.81,1.71-13-.16-18.81-3.28-7.3-3.9-10.76-10.23-10.13-18.49.39-5.14,1.42-10.23,1.89-15.36.22-2.44.39-5.08-1.53-7.17-.45.3-.86.5-.84.56,2,5.93-1,9.77-5.14,13.53-20.09,18.27-30,42.69-39.85,67.06-3.89,9.56-7.48,19.24-11.26,28.84-5.67,14.4-15,26.42-24.69,38.23-11.58,14.09-23.69,27.77-33.78,43-.91,1.36-1.49,3.82-3.64,3.32a16.29,16.29,0,0,1-8-4.53c-.71-.71.11-1.53.47-2.2,10.35-19.54,17-40.59,25.18-61,5.52-13.76,11.54-27.21,23.06-37.54,7-6.31,11.1-15,14.92-23.68,9.6-21.76,18-44.05,28.61-65.36,4.78-9.62,10.15-18.94,15.4-28.32,3.86-6.89,10.23-9.32,17.77-9.51a84.33,84.33,0,0,0,10.19-.6c2.89-.43,3.88.29,4.55,3.28,4.79,21.38,11.45,42.11,22.75,61.07,2.78,4.67,5.82,9.17,10.32,12.44.56.41,1.76,1.29.9,1.83-1.9,1.19-3.1,2.53-1.59,4.5C263.9,291.64,265.51,289.15,268.24,288.54Z"/> <path fill="#fdbab4" d="M317.63,243.31c-2.42,5.21-1.35,10.56-.62,15.89.26,1.88.83,3.72,1,5.59,1.38,15.34-12,27.24-27.37,24.47-3.05-.54-6.13-1-9.19-1.44-.38-.64-.85-.91-1.54-.44l.85,1.1c6.86,5.66,14.8,6,23.09,4.68l.63.73c-2,12.21-4.43,24.34-4.34,37.84a139.2,139.2,0,0,1-28.66-42.32c2.39-2.21,5.8,3.18,7.35-1.5.74-2.26-1.19-2.91-2.79-3.54,7.84-6.65,12.81-15.36,17.47-24.22,8.35-15.9,14.52-32.7,19.59-49.9.77-2.59,1.75-3.31,4.38-3.37,9.77-.21,16.56,3.68,21.53,12.42a567.37,567.37,0,0,1,30.73,63.9c4.72,11.44,9.73,22.76,14.91,34a64.38,64.38,0,0,0,15.22,20.57c9.48,8.67,14,20.4,18.63,31.79,8.19,20.14,14.76,40.94,24.64,60.4.8,1.56.49,2.51-.86,3.35-.69.43-1.38.87-2.08,1.27-5.64,3.26-5.71,3.3-9.2-1.94a321.84,321.84,0,0,0-29.42-37.12c-16.91-18.68-27.37-40.62-35.91-63.92-7-19-14.85-37.67-26.14-54.71-5-7.6-11.37-13.94-17.89-20.06a10.2,10.2,0,0,1-3.48-9.65c.14-1.08.11-2.17.15-3.26a4.39,4.39,0,0,0,1.07-3.92C317.84,240.79,318.29,242.31,317.63,243.31Z"/> <path fill="#bb6d85" d="M194.24,509.16c9.1-1.24,11.89-7.51,14.14-14.31.38-1.15-.31-3.09,1.78-3.13a61.82,61.82,0,0,1,7.7.32c.6.06.45,1.18.23,1.81a6,6,0,0,0,0,3.57c2.34,9.77,4.73,11.69,15.15,12.25a41.48,41.48,0,0,0,14.88-1.76,38.94,38.94,0,0,1,12.86-1.55,46.94,46.94,0,0,0,8.56-.27c11.58-1.92,18.28-11.33,16.45-23.2-.33-2.12.16-2.59,2-2.91a16.29,16.29,0,0,0,3.84-1.31c3.25-1.47,5.4-1.28,7.15,2.57s5.41,4.81,10.23,3.63c6.13-1.5,11.4-5,16.91-7.85,3.78-2,4.35-6.15,3.21-10.07-.68-2.34-.1-3.44,1.88-4.58,4.46-2.58,8.79-5.39,13.17-8.11,1-.62,1.86-1.79,2.66.35,3.46,9.31,7.35,18.7,7.81,28.6.67,14.53-11.2,27.9-25.65,30.44a163.85,163.85,0,0,1-28.75,2.49c-10.61,0-21.17,1.07-31.75,1.39a124.67,124.67,0,0,1-17.9-.74c-10.85-1.24-21.76,0-32.6-1.41C210.22,514.35,202.26,513.78,194.24,509.16Z"/> <path fill="#eedbce" d="M208.59,133c2.34,4.23,3.23,8.86,5.18,13.15,5.32,11.65,14.14,19.75,25.24,25.72,3.82,2.06,7.49,4.43,11.57,6,2.38.91,3.14,2.51,3,5.07-.27,6.65-4.09,10.6-9.52,13.55-7.73,4.21-15.83,7-24.75,7.21a98.71,98.71,0,0,0-10.15.83c-1.7.21-2-.13-2.42-1.92-2-9.65-.06-19.24.31-28.81.51-13.05,1.24-26.09,1.41-39.15C208.51,134.11,208.56,133.57,208.59,133Z"/> <path fill="#bb6d85" d="M303,447.7a46.21,46.21,0,0,0-12.58,8.59,9.56,9.56,0,0,1-10.18,1.79,23.89,23.89,0,0,0-15.17-1,79.85,79.85,0,0,1-21.26,2.71,55.33,55.33,0,0,0-15.59,2.55c-4.42,1.29-8.27,3.35-10.89,7.33-1.13,1.71-2.92,2.8-3.9.21-2.55-6.75-8.47-7-14.08-7.6a35.14,35.14,0,0,1-10.87-3.1,3.64,3.64,0,0,1-2.17-4.68c1.79-6.93,2.51-14.09,4.89-20.91.83-2.39,1.38-2.58,3.12-1.31,13.69,10,29.71,13.4,45.95,16a166.74,166.74,0,0,0,35.34,2.31C284.73,450.11,293.94,449.89,303,447.7Z"/> <path fill="#eedbce" d="M318.49,151.72c3.54,15.81,6,31.63,6.27,47.78.06,3.75-.33,4.65-4.59,4.47-8.67-.36-17-1.33-24.89-5.15a109.83,109.83,0,0,1-11.32-6.2c-3-1.92-2.27-5.43-2.76-8.43-.56-3.5.62-5.19,3.92-6.83,12.42-6.17,24.86-12.48,32.41-25C317.7,152,318.16,151.92,318.49,151.72Z"/> <path fill="#eedbce" d="M220.43,470c.86,5,.24,9.57,3,13.49a11.08,11.08,0,0,0,9.22,4.93c5.81.27,11.54-1.2,17.71-.85-2.06,5-5,9.23-4.8,14.72l7.61-14.57c3.41,3.73,2.64,9.46,7.78,12.77-1.94-5-3.54-9.17-5.19-13.47,5.64-1.63,11.51-1.69,16.85-4.18,5.51-2.56,8.16-6.29,7.86-12.35-.15-3.1-.4-6.19-.63-9.58a6.4,6.4,0,0,1,3,6.37,162.14,162.14,0,0,0,.13,17.91c.52,11.22-4.6,17-15.85,17.91-8.45.68-16.94.53-25.24,3-4.24,1.28-9,.48-13.41,0-4.68-.51-8.61-5.58-7.49-11.1,1.17-5.81-.83-10.91-1.67-16.3C218.94,476,218.11,473.21,220.43,470Z"/> <path fill="#eedbce" d="M252.32,482.37c-3.58-5.28-6.27-6.9-8.38-4.77-2.9,2.95-.05,5,1.64,7.09-4.25,1.45-8.68,1-13.06,1.24-4.22.21-6.78-2.14-8.18-5.47s-1.61-7.07-1.88-10.71c-.16-2.14,1.27-2.84,2.84-3.39a69.52,69.52,0,0,1,26.68-4,24.14,24.14,0,0,0,10.3-1.45,28.15,28.15,0,0,1,11.93-1.56c2,.1,3,.75,3,2.85.05,3.25.35,6.5.36,9.76a8.09,8.09,0,0,1-5.4,8.17,46.74,46.74,0,0,1-5.31,1.91c-2.29.62-5.68,2.4-3.63-2.83.34-.88.58-2.34-.58-3a3.4,3.4,0,0,0-3.12.27C256.73,478,254.7,480.38,252.32,482.37Z"/> <path fill="#eedbce" d="M160.31,468.27c3,2.73,2.79,5,.6,7.73-1.72,2.15-5,5.13-2.11,7.52,2.43,2,4.84-1.44,6.81-3.35.29-.28.55-.6.92-1,.73.79,1.41,1.63,2.2,2.36,3.7,3.45,7.53,6.47,13.12,6.09,4.33-.28,8.69-.12,13-.05s9.75-6.66,10.34-12a28.65,28.65,0,0,1,.9-5.14c.31-1.05-.18-2.92,1.76-2.38a2.62,2.62,0,0,1,1.74,3.25c-.45,2.51-.6,5.08-1.13,7.58-1.1,5.26-2.24,10.52-3.61,15.72-1.77,6.76-5.52,11.32-13.25,11.31-7.07,0-14,2-21.24-.07-7.91-2.32-11.8-8-13.86-15.07C154.26,483,156.72,475.65,160.31,468.27Z"/> <path fill="#eedbce" d="M189.86,485c-7-.4-14.13,0-19.3-6.3-1.6-1.94-2.48-3.38-.56-5.45.44-.48.64-1.19,1-1.72,1.25-1.61,1.36-3.49,0-4.76s-3.13-.67-4.24.83-1.75,1.17-2.56-.24c-1.13-2-1.86-4.18-3.45-5.95-1.07-1.19.25-2.12,1-2.63,5.53-3.72,11.69-4.73,18.19-3.82a3,3,0,0,1,2.16,1.62c2.05,7.26,8.6,7.4,14.14,8.77,2.54.63,6.09-.25,7.74,1.46,2,2-1,5-1,7.59-.06,3.75-2.08,6.35-4.65,8.67S192.88,485.15,189.86,485Z"/> <path fill="#fdbab4" d="M483.05,478c-3,3.77-7.82,5.87-9.24,11.27-2.76-2.73-5.85-2.73-9-2.43-1.1.11-2.37.11-2.59,1.46-.36,2.21-1.53,1.13-2.61.85-1.82-.48-3.7-1.4-5.55-.75s-2-.56-2.12-1.71c-.78-8.29-2.9-16.29-5.26-24.24-.45-1.5-.23-2.32,1.57-3a20,20,0,0,0,8.2-5.13c.73-.81,1.3-1.17,2.2-.1,5.35,6.3,12.92,10,18.72,15.77,2.31,2.31,4.81,4.43,6.54,7.26Z"/> <path fill="#bb6d85" d="M85.74,429.22c-2-.23-.8-3.42-2.93-2.35-1.6.8-.37,2.51-.08,3.7.65,2.67,2.86,4.28,4.85,5.83a32.27,32.27,0,0,0,14.57,6.81c1.35.22,2.87.53,3.74-.82,1-1.51-1-1.5-1.4-2.26-1.19-2.13,1.14-3,2-4.3s1.56.05,2.16.71c2.16,2.41,3,4.94,1.19,8-1.53,2.56-2.7,5.32-4.16,7.92C99.23,463.9,87.09,462.3,79.54,456c-7.38-6.12-10.24-13.43-5.14-22.63,1.58-2.85,3.1-5.72,4.66-8.59.61-1.13,1.39-2.1,2.84-1.88,2.06.32,4.92-1.15,6,1.07C88.77,425.76,86.71,427.63,85.74,429.22Z"/> <path fill="#bb6d85" d="M447.71,426.69c-.12-.13-.38-.29-.45-.52-.56-1.76-2.95-3.37-1-5.36,1.35-1.4,6.95-.13,8,1.66,1.82,3.17,3.44,6.46,5.2,9.66,6.76,12.31-5.69,24.71-15.62,26-7.2.92-12.45-1.66-16-7.83-1.69-2.93-3.22-5.95-4.74-9-1.05-2.08-1.23-4.17.72-5.88.85-.75,1.05-3.38,2.63-1.86.91.88,4.39,2.15,1.27,4.91-1.69,1.5.17,2.22,1.56,2.42,5.53.78,18.72-6.84,21-12.28.56-1.32,2-3.3,0-4.3C448.39,423.41,449.54,426.79,447.71,426.69Z"/> <path fill="#fdbab4" d="M59.72,491.54c-.33-6.34-5.07-8.92-6.79-13.43-1-2.58-1.28-2.41.73-4.59,6.05-6.55,13.71-11.16,20.31-17,.86-.78,1.5-1,2.38-.09a21.57,21.57,0,0,0,9.59,5.87c1.6.49,1.72,1.44,1.23,2.82A18.17,18.17,0,0,0,86,469c-.77,5.78-2,11-9.05,12.34a6.48,6.48,0,0,0-4.72,4.16c-.68,1.87-2.07,1.38-3.37,1.31C65.49,486.6,62.29,486.84,59.72,491.54Z"/> <path fill="#eedbce" d="M320.51,259.59c6.94,7.7,13,15,17.91,23.15,1,1.63.26,2.4-.77,3.32-6.5,5.85-14.31,8.44-22.85,9.22-1.22.11-2.44.24-3.66.27s-2.83,1.42-3.52-.42a4,4,0,0,1,1.32-4.06C322,278.46,322,278.47,320.51,259.59Z"/> <path fill="#eedbce" d="M293.84,460.31c3.43,1.81,6.69,3.94,10.41,5.22,2.61.89,5.88,1.27,5.08,5.68-.27,1.44,1.43,3.1,3.27,2.86,2.13-.28,1.91-2.44,1.38-3.59-1.51-3.28-.05-5.34,2-7.71a22,22,0,0,0,5.74-11.47c1.76,5.5,3.4,10.43,4.9,15.4s.3,7.8-4.58,9.58c-4.33,1.57-7.92,4.59-12.45,5.74-5.89,1.5-9.19.42-10.72-5.27a76.59,76.59,0,0,0-5.8-15.81Z"/> <path fill="#eedbce" d="M214.72,258.86c-3.55,14.49-1,25.8,12.95,33.38-4.34.73-7.34-.38-10.22-1.13-5.92-1.56-12.16-2.51-16.76-7.27-2.11-2.17-2.62-4.27-.82-6.84A202.71,202.71,0,0,1,214.72,258.86Z"/> <path fill="#eedbce" d="M320.09,449.31c-.51,6.84-4.54,11.27-8.51,15.72a2.4,2.4,0,0,1-2.71.24c-4.71-1.94-9.56-3.57-13.71-6.75-2.41-1.85-1.62-3.2.3-4.32,6.71-3.95,14.26-5.59,21.72-7.36A2.22,2.22,0,0,1,320.09,449.31Z"/> <path fill="#eedbce" d="M349.89,446a3.61,3.61,0,0,1-1.9,2.94,171.25,171.25,0,0,1-18.11,11.43c-1.62.88-2.3.82-3.07-1.21-3-8.07-3.14-8,4.43-11.9a100.26,100.26,0,0,0,14.19-8.55c1.89-1.42,3.27-1.5,2.94,1.5A9.46,9.46,0,0,0,349.89,446Z"/> <path fill="#fdbab4" d="M400.61,569.15c-8,.07-13-6.53-10.83-13.84,1.28-4.31,3.83-8,5.89-11.93,2.43-4.63,2.63-9-1.33-13,6.79-.13,10.49,4.33,9.17,10.47a41.16,41.16,0,0,1-3.82,10.12C396.54,557.06,396.29,563,400.61,569.15Z"/> <path fill="#fdbab4" d="M377.36,533.47c-4.32,6.39-3.39,12.14,1.32,17.73a13.82,13.82,0,0,1,3.18,7.75c.47,5.57-1.18,11.16-9.41,12,1.85-4.1,3.33-8.07,2.3-12.56a13.84,13.84,0,0,0-2.47-5.9c-3.38-4.16-3-8.4-.41-12.73A18,18,0,0,1,377.36,533.47Z"/> <path fill="#fefefe" d="M361.74,505.07a14.7,14.7,0,0,0,11.06,3c1.14-.14,1.65.34,2.12,1.33a26,26,0,0,0,2,3c1,1.54,3.54,3,2.95,4.4-.75,1.75-3.68,1-5.54,1.75a2.5,2.5,0,0,1-.4,0C362.15,519.68,360.69,518.11,361.74,505.07Z"/> <path fill="#eedbce" d="M285.45,477.63a85.49,85.49,0,0,0-.06-9c-.36-3.21,1-4.34,3.94-5,3.22-.69,3.5,1.61,4.27,3.43,3.06,7.21,3,7.23-4.31,9.5C288.15,477,287,477.23,285.45,477.63Z"/> <path fill="#eedbce" d="M209.7,488.88c.72-3.25,1.52-6.49,2.14-9.76.37-2,1.95-1.61,3.16-1.8,1.59-.25,1.59,1.06,1.69,2.15.07.67.06,1.36.19,2C218.56,489.7,218.56,489.7,209.7,488.88Z"/> <path fill="#fdbab4" d="M381.39,510.2a11.75,11.75,0,0,0,.19-7.25,2.72,2.72,0,0,1,2.1-3.63c2.08-.33,1.71,1.9,1.42,3-1,3.69.1,8-3.14,11.07-.49.48-.49,1.19-1.16.38-2.13-2.55-5.05-4.72-4.56-8.65.16-1.23.62-2.73,1.92-2.68s2.21,1.19,2.17,2.87C380.3,506.68,379.76,508.24,381.39,510.2Z"/> <path fill="#bb6d85" d="M340.51,431.78c1,2.8.37,4.53-1.8,5.81-4.78,2.83-9.84,5.09-14.86,7.45-2.42,1.14-4.36-.77-6.59-.32C325.38,441.18,334.1,438.85,340.51,431.78Z"/> <path fill="#bb6d85" d="M383,527.55c-1.24.22-2.47-.42-3.76-.78-1-.27-2.07-.58-1.93-1.69a6,6,0,0,1,2.92-4.19c1.44-1,1.3.92,1.8,1.07,1.21.36,3.44.61,3.76,0,1.68-3,2.57-.25,3.36.43,1.48,1.3.92,2.74-.6,3.64A9.74,9.74,0,0,1,383,527.55Z"/> <path fill="#eedbce" d="M186.11,443c-1,3.48-.58,7.26-2.34,10.57-1.16-.64-2.27-1.66-3.48-1.82-2-.28-2.78-1.26-2.84-3.16s.68-3.58,2.46-4.21,3.58-1.92,5.68-1.86A3.37,3.37,0,0,0,186.11,443Z"/> <path fill="#bb6d85" d="M388.36,518.08c3.23.27,6,1,4.78-2.88-.33-1.11,1-1.37,1.88-1.53a1.13,1.13,0,0,1,1.46,1c.41,3-1.19,5-3.53,6.26S390.47,519.59,388.36,518.08Z"/> <path fill="#bb6d85" d="M469.43,521.92c-4.35-3.17-5.58-8.43-8.14-12.81,4.33,3.15,6.28,7.94,8.19,12.75Z"/> <path fill="#bb6d85" d="M64.57,522.68c1.93-4.81,3.85-9.62,8.22-12.84-2.5,4.44-3.76,9.68-8.16,12.9Z"/> <path fill="#eedbce" d="M337.85,423.93c6.8-.36,7.36.54,5.6,8.8C343.67,428.66,339.83,427.07,337.85,423.93Z"/> <path fill="#bb6d85" d="M396.67,521.08c.92-1.88,2-3.71,1.8-6.6,2.71,3.23,3.42,6,1.38,9.64-.85-1.56-1.24-3.34-3.21-3.07Z"/> <path fill="#bb6d85" d="M396.64,521.05c0,1-.77,2.08.09,3.09.62.75,2,1.65.18,2.36-1.18.48-2.82.74-3.81-.31s-.6-2.3.56-3.14c1-.71,2-1.32,3-2Z"/> <path fill="#bb6d85" d="M386.53,528.88c-.74,2.23-.36,4.56-3,4.23-1.13-.15-2.4-1.15-2-2.51C382.24,528,384.44,530,386.53,528.88Z"/> <path fill="#eedbce" d="M251,484.28a7.22,7.22,0,0,1-5.44-2.75c-.44-.56-1.32-1.21-.54-2a1.8,1.8,0,0,1,2.26,0C249,480.51,250,482.22,251,484.28Z"/> <path fill="#eedbce" d="M260.85,478.47c.49,4.25-2.25,5-5.56,5.1l-.31-.32a10.24,10.24,0,0,1,5.93-4.69Z"/> <path fill="#eedbce" d="M283.91,461.51a13.41,13.41,0,0,1,7-2.12A8.68,8.68,0,0,1,283.91,461.51Z"/> <path fill="#bb6d85" d="M512,520.83c-.66-.13-.79-.62-.7-1.17.06-.38.27-.79.73-.42a2,2,0,0,1,.64.94C512.9,520.74,512.44,520.79,512,520.83Z"/> <path fill="#bb6d85" d="M516.87,524.37c-.9-.13-1.73-.37-2-1.48,1.3-.36,2,.08,2,1.42Z"/> <path fill="#bb6d85" d="M17.13,525.12c.07-1.33.76-1.77,2.05-1.41-.26,1.1-1.08,1.35-2,1.48Z"/> <path fill="#bb6d85" d="M22.81,520.19c-.13,1.08-.38,1.54-1,1.43a1,1,0,0,1-.36-.85,1.37,1.37,0,0,1,.77-.78C22.46,519.91,22.83,520.19,22.81,520.19Z"/> <path fill="#bb6d85" d="M519.34,526.8l-1.63-1.64,0,0c1.11,0,1.78.4,1.63,1.64Z"/> <path fill="#fefefe" d="M508.78,526.79a5.23,5.23,0,0,1,.91,1c.2.39-.13.73-.49.53a5.14,5.14,0,0,1-1.07-1Z"/> <path fill="#fefefe" d="M25.85,528.31a5.38,5.38,0,0,1-1.17,1c-.16.06-.55-.38-.26-.82s.58-.84,1.17-.63C25.71,527.88,25.75,528.12,25.85,528.31Z"/> <path fill="#bb6d85" d="M16.35,526l-1.63,1.63,0,0c-.16-1.24.51-1.66,1.63-1.64Z"/> <path fill="#fefefe" d="M260.42,68.91l1.1-.76c.29.65.22,1.18-.52,1.48Z"/> <path fill="#bb6d85" d="M470.26,522.72l.58.95-.35.17-.21-1.14Z"/> <path fill="#bb6d85" d="M63.78,523.52l-.21,1.15-.35-.18.58-1Z"/> <path fill="#bb6d85" d="M519.32,526.82l1,.2-.13.33-.88-.55Z"/> <path fill="#bb6d85" d="M14.72,527.61l-.88.56-.14-.33,1-.2Z"/> <path fill="#fdbab4" d="M303.85,293.16l1,.11c-.12.21-.25.42-.38.62Z"/> <path fill="#eedbce" d="M255.29,483.57c-.13.41-.47.7-.76.37s.14-.55.45-.69Z"/> <path fill="#fefefe" d="M17.59,527.93c.32,0,.84-.21.93-.09.28.41-.09.58-.45.67A3.37,3.37,0,0,1,17.59,527.93Z"/> <path fill="#fdbab4" d="M483.9,477.31c.25.44.72.92,0,1.31-.14.08-.59-.38-.89-.59Z"/> <path fill="#eedbce" d="M185.59,442.48c.16-.19.44-.57.46-.56.45.31.3.67.06,1A3.37,3.37,0,0,1,185.59,442.48Z"/> <path fill="#bb6d85" d="M516.92,524.31a.79.79,0,0,1,.77.87l0,0-.84-.79Z"/> <path fill="#fefefe" d="M510.34,529.65a2.18,2.18,0,0,1-.5.2c-.06,0-.15-.16-.22-.24a1.91,1.91,0,0,1,.49-.21C510.17,529.39,510.26,529.56,510.34,529.65Z"/> <path fill="#fefefe" d="M24.44,530.45a1.94,1.94,0,0,1-.49.22c-.06,0-.15-.15-.23-.23a1.88,1.88,0,0,1,.48-.22C24.26,530.2,24.36,530.37,24.44,530.45Z"/> <path fill="#bb6d85" d="M17.2,525.19l-.85.79,0,0a.77.77,0,0,1,.76-.87Z"/> <path fill="#bb6d85" d="M470.28,522.7c-.57,0-.76-.31-.85-.78l.05-.06.78.86Z"/> <path fill="#eedbce" d="M260.91,478.56l.45-.54.09.38-.6.07Z"/> <path fill="#eedbce" d="M293.07,460.94l0-1,.81.33Z"/> <path fill="#fefefe" d="M516,527.69c-.37-.09-.73-.26-.45-.67.09-.13.61.06.94.09A3.42,3.42,0,0,1,516,527.69Z"/> <path fill="#bb6d85" d="M63.8,523.54c.26-.29.51-.58.77-.86l.06.06c-.09.47-.28.83-.85.78Z"/> <path fill="#482a28" d="M291.92,742c-3-.38-4.35-2-5.55-3.76-.38-.55-.54-1.42.09-1.83s1.1.12,1.55.74C289.1,738.66,290.34,740.07,291.92,742Z"/> <path fill="#482a28" d="M313.1,740.94c.93-3.65,1.62-6.31,5.07-8.32C317.21,736.09,315.57,738.2,313.1,740.94Z"/> <path fill="#482a28" d="M217.11,733.25c2.62,1.61,3.43,4.06,4,6.64A9.78,9.78,0,0,1,217.11,733.25Z"/> <path fill="#482a28" d="M242.73,742c1.66-2,2.84-3.45,4-4.89.41-.52.84-1.2,1.55-.63a1.27,1.27,0,0,1,0,1.81C247,740,245.7,741.62,242.73,742Z"/> <path fill="#482a28" d="M269,400.31c.06,1.78,1.19,3.79-1.76,3.69-2.62-.09-1.63-1.84-1.51-3.2a2.64,2.64,0,0,1,0-.4c.48-1.6-1.18-4.57,1.46-4.61C270.42,395.74,268.39,399,269,400.31Z"/> <path fill="#482a28" d="M317.63,243.31c.66-1,.21-2.52,1.75-3.31a4.39,4.39,0,0,1-1.07,3.92Z"/> <path fill="#482a28" d="M280.76,288.48l-.85-1.1c.69-.47,1.16-.2,1.54.44Z"/> <path fill="#482a28" d="M276.51,163c-1.28,0-1.64-.78-2.09-1.45-3.18-4.72-11.95-5.39-15.44-.94-2,2.6-3.11,2.95-4.64-.32-1-2.05-4.07-2.09-4.94-4.51-.31-.86-1.3-1.71-.46-2.56,1-1,2.14-.36,2.84.48,3,3.61,6.29,4.73,10.92,2.64a12.4,12.4,0,0,1,10.27.48c3.29,1.55,5.61.43,7.9-1.75a22.39,22.39,0,0,1,2.48-2.08,1.31,1.31,0,0,1,1.83.26,1.76,1.76,0,0,1,0,1.52c-.61,1.05-1.18,2.37-2.15,2.9A19.23,19.23,0,0,0,276.51,163Z"/> <path fill="#482a28" d="M294.31,92.06c-1.5-.2-4.2-.48-6.86-1-.8-.15-2.11-.26-1.94-1.63a2,2,0,0,1,2.42-1.66c5,.4,10,.91,15,1.35.76.07,1.49.43,1.54,1.07.06.94-.83,1.26-1.65,1.32C300.36,91.72,297.92,91.84,294.31,92.06Z"/> <path fill="#bb6d85" d="M266.39,137.37c1,.68,2.34.46,2.46,1.6s-.81,1.67-1.86,1.57c-.87-.09-2.09-.2-1.91-1.48C265.17,138.44,266,137.91,266.39,137.37Z"/> </g> <g id="ears"> <path class="ears0" d="M409.51,483.79a48.19,48.19,0,0,1-13.09,23.32,51.39,51.39,0,0,1-8.9,6.38c-.61.39-1.29.67-1.88.23s-.1-1.22-.07-1.86c.15-3.11,1.11-6.1,1.15-9.26s3.56-4.15,5.27-6.34c4.39-5.61,7.85-11.66,8.34-18.67.74-10.69-6.33-19.76-21.16-14.5a23.09,23.09,0,0,0-11.52,8.7c-1.06,1.55-2.38,3.4-4.6,2.11-1.86-1.08-1.83-2.92-1.35-5,2.4-10.46,12.92-16.46,22-16.93,12.78-.68,21.68,6.13,24.94,18.63.17.67.23,1.34.85,1.76Z"/> <path fill="#462827" d="M349.83,14.32c6.87,3.06,7.3,4.56,6.53,12.06C355,40,350.37,52.51,344,64.45A71.18,71.18,0,0,1,338,73c-1.54,2-2.61.77-3.83-.58-3.65-4.06-3.82-9.22-4.81-14.18-1.31-6.63-3.46-13-7.72-18.4-1.2-1.53-2.55-2.77-4.73-2.69a5.93,5.93,0,0,1-1.88-.62c-3.45-1.17-6.45-3.68-6.68-6.95-.21-3,3.36-4.79,6-6.39,7-4.21,14.67-6.68,22.44-8.91ZM332.36,31.47c8.14,0,8.29,0,7.63,7.27-.61,6.71-1.48,13.54-6.16,18.83-3.07,3.46-2.13,7.65.22,11.49,1.29,2.1,2.24,2.38,3.88,0,9.78-14.39,15.6-30.07,16.24-47.57.08-2.18-.2-3.44-2.79-3.94-15-2.87-27.93,1.89-39.94,10.32-.65.46-1.69.88-1.42,2.19.61,2.88,6.67,6.18,9.11,4.68A21.14,21.14,0,0,1,332.36,31.47ZM320.63,36c6.19,6,8.43,13.8,10.74,21.68,6.68-6.93,6-15.89,7.62-24.46C332.68,33,326.54,32.73,320.63,36Z"/> <path class="ears0" d="M366.18,518.14c-1.15-1.63-4.33.12-4.65-2.42a52.82,52.82,0,0,1-.13-9.33c.08-1.58,1.17-.93,2.05-.42,2.85,1.68,5.87,2.79,9.21,1.95,1.33-.34,1.69.47,2.13,1.29a31.35,31.35,0,0,0,4.75,6.53c-1.31,2.7-4.44.58-6,2.4Z"/> <path fill="#462827" d="M187.73,15.82a59.3,59.3,0,0,1,32.64,11c5.1,3.51,4.92,6.46-.37,9.72-4.11,2.54-8.67,4.39-11.57,8.57-4,5.79-6.66,12-6.5,19.19a15.8,15.8,0,0,1-3.26,9.76c-1.71,2.41-3.4,2.33-5,0-9.05-13.11-16-27-17.29-43.27-.22-2.82-.41-5.67-.74-8.48-.4-3.32,1.24-4.79,4-5.25C182.69,16.52,185.7,15.49,187.73,15.82Zm8.75,57.9c2.81-4,5.7-8.1,2-12.54-6.18-7.47-6.48-16.58-8.05-25.39-.25-1.4.26-2.63,1.78-2.61,6,.09,12.22-1,17.94,2.11,4.4,2.39,7.53,1.76,10.77-1.83,1.3-1.44,1.62-2.66-.24-4-12-8.41-25-13.18-40-10.34-2.54.48-3,1.63-2.88,3.86C178.55,41.86,185.08,58.53,196.48,73.72ZM212.37,38.8c-5.73-3.88-11.51-4.1-17.39-4-2.28,0-3.06.26-2.28,2.9s.54,5.63,1,8.41c.82,4.8,2.34,9.33,6.17,13.16C201.56,50.84,205.18,44,212.37,38.8Z"/> <path class="ears0" d="M332.36,31.47a21.14,21.14,0,0,0-13.23,3.25c-2.44,1.5-8.5-1.8-9.11-4.68-.27-1.31.77-1.73,1.42-2.19,12-8.43,25-13.19,39.94-10.32,2.59.5,2.87,1.76,2.79,3.94C353.53,39,347.71,54.65,337.93,69c-1.64,2.4-2.59,2.12-3.88,0-2.35-3.84-3.29-8-.22-11.49,4.68-5.29,5.55-12.12,6.16-18.83C340.65,31.48,340.5,31.47,332.36,31.47Z"/> <path class="skins0" d="M320.63,36c5.91-3.31,12.05-3,18.36-2.78-1.58,8.57-.94,17.53-7.62,24.46C329.06,49.84,326.82,42,320.63,36Z"/> <path class="ears0" d="M196.48,73.72c-11.4-15.19-17.93-31.86-18.62-50.7-.08-2.23.34-3.38,2.88-3.86,15-2.84,27.92,1.93,40,10.34,1.86,1.3,1.54,2.52.24,4-3.24,3.59-6.37,4.22-10.77,1.83-5.72-3.12-11.9-2-17.94-2.11-1.52,0-2,1.21-1.78,2.61,1.57,8.81,1.87,17.92,8.05,25.39C202.18,65.62,199.29,69.77,196.48,73.72Z"/> <path class="skins0" d="M212.37,38.8c-7.19,5.17-10.81,12-12.48,20.42-3.83-3.83-5.35-8.36-6.17-13.16-.48-2.78-.23-5.74-1-8.41s0-2.89,2.28-2.9C200.86,34.7,206.64,34.92,212.37,38.8Z"/> </g> <g id="earSpots" class="ears1"> <path d="M336.22,21.14c-4.16,4.3-7.06,7-2.46,5.91s11.45-2.7,8.25-5.29S337.64,20.93,336.22,21.14Z"/> <path d="M177.92,21.88c3.2-2,8.06-2.49,9,1.43s1,9.57-3.5,6.33-4.22-6.82-5.5-7.76Z"/> <path d="M210.23,30c.63,5.76,6.39,8.8,7,3.28S211.14,26.73,210.23,30Z"/> <path d="M183,45.52c2.68,3.29,10.8,4.23,8.54-.41S183.14,43.1,183,45.52Z"/> <path d="M198.55,24.11a3.27,3.27,0,0,0,2.52,3.35l-.49-3.95-2,.6Z"/> <path d="M340.88,47.28c4.65-.3,5.74,3.85,4.22,4.91s-3.9,6-4.9,1.28,1.08-5.35.68-6.19Z"/> <path d="M399.23,489.89c2.59-.69,5.39.33,4.13,3.8s-3.75,8.09-4.7,4.13.82-6.79.57-7.93Z"/> <path d="M347,24c4.65-.29,5.74,3.85,4.23,4.91s-3.91,6-4.91,1.28,1.08-5.35.68-6.19Z"/> <path d="M401.82,474.19c4.65-.29,5.74,3.85,4.22,4.91s-3.9,6-4.9,1.29,1.08-5.36.68-6.2Z"/> <path d="M393.81,502.67c-4.22,4-3.16,10.4,1.57,7.51S397,501.41,393.81,502.67Z"/> <path d="M383.89,457.57c2.68,3.3,10.8,4.24,8.54-.4S384.06,455.16,383.89,457.57Z"/> <path d="M402.51,465.59a3.29,3.29,0,0,0,2.53,3.35l-.49-3.95-2,.6Z"/> <path d="M368.76,457.5c4.65-.3,5.74,3.84,4.22,4.91s-3.9,6-4.9,1.28,1.08-5.35.68-6.19Z"/> <path d="M367.9,506.65c4.65-.29,5.74,3.85,4.22,4.91s-3.9,6-4.9,1.28,1.08-5.35.68-6.19Z"/> </g> <g id="earStripes" class="ears2"> <path d="M181.53,22.3c4,3.7,13.89,16.35,4.33,8.21C179.91,27.79,175.28,16.54,181.53,22.3Z"/> <path d="M404.75,497.42c-.95-.81-4.57-4.12-5.89-5.25-.95-.82-3-2.68-1.15-1.07,1.54,1.36,3.9,3.43,5.83,5.21C403.89,496.63,405,497.64,404.75,497.42Z"/> <path d="M396.71,507.34c-1.34-.76-3.78-4.7-5.55-5.79-1.27-.79-2.57-3-.57-1.34,1.69,1.43,4.3,3.58,5.41,5.77C396.2,506.37,397.07,507.54,396.71,507.34Z"/> <path d="M409.42,481.62c-1.42.08-4.71-1.79-6.62-1.76-1.36,0-3.15-1.09-.87-.76,1.92.27,4.87.65,6.47,1.81C408.69,481.12,409.8,481.6,409.42,481.62Z"/> <path d="M406.67,467c-1.06.46-4.2,0-5.65.57-1,.41-2.77.08-.92-.32,1.56-.35,3.94-.91,5.55-.49C405.94,466.86,407,466.91,406.67,467Z"/> <path d="M394.09,454.55c-.44,1.13-3.14,3.21-3.79,4.71-.46,1.07-2,2.18-.94.48.9-1.43,2.26-3.64,3.78-4.58C393.41,455,394.2,454.25,394.09,454.55Z"/> <path d="M375.09,465.22c-1.38-.34-4-3.11-5.79-3.65-1.31-.39-2.69-2-.61-1,1.75.83,4.46,2.07,5.64,3.66C374.54,464.52,375.46,465.32,375.09,465.22Z"/> <path d="M345.23,29.84c-9.56,8.14.29-4.51,4.33-8.21C355.81,15.87,351.17,27.12,345.23,29.84Z"/> </g> <g id="eyes"> <path d="M258.93,124.06l-.22-.39a1.41,1.41,0,0,1-.18-.27,2.21,2.21,0,0,1,.23.17,1.33,1.33,0,0,0,.23.17l0,0v-.06a6.13,6.13,0,0,0-1-1.87l-.29-.49-.32-.55c-.22-.41-.46-.86-.65-1.27s-.34-.69-.5-1a14.59,14.59,0,0,0-1.46-2.27,28.62,28.62,0,0,0-2.64-3.17c-.89-.89-1.84-1.75-2.92-2.64s-2-1.49-3.21-2.27c-.21-.14-.43-.25-.62-.38a9.5,9.5,0,0,1-1.07-.72.91.91,0,0,0-.14-.07s.07,0,.08.08a6.68,6.68,0,0,0,1.12.76,4.52,4.52,0,0,1,.61.38c1.19.78,2.26,1.53,3.21,2.27a25.46,25.46,0,0,1,2.93,2.64,28.62,28.62,0,0,1,2.64,3.17,16.83,16.83,0,0,1,1.43,2.27,10.54,10.54,0,0,1,.5,1c.22.41.4.87.65,1.26.09.19.21.36.32.56l.29.48a7,7,0,0,1,1,1.85l-.21-.14c-.09,0-.18-.13-.28-.18l-.05,0,0,0a1.24,1.24,0,0,0,.21.33,1.52,1.52,0,0,1,.22.34,17.82,17.82,0,0,0-2.27-.85h0c-.31-.08-.61-.19-.89-.29a14.66,14.66,0,0,0-2.34-.46l-.79-.12a27.68,27.68,0,0,0-3.27-.31l-2.53-.18h0l-1.56-.11a2.58,2.58,0,0,0-.83.14.88.88,0,0,1-.26.06h0a12.25,12.25,0,0,1-3.08.44,9.2,9.2,0,0,1-1.89-.3l-.33-.09c-.58-.12-1.16-.28-1.7-.42-1.06-.25-2.16-.55-3.24-.72a10.12,10.12,0,0,0-3.8-.15,3.28,3.28,0,0,0-1,.52,3.9,3.9,0,0,1,2-1.14,7.14,7.14,0,0,1,2.28-.22v0a5.86,5.86,0,0,0-.92-.35,8.36,8.36,0,0,0-2-.24,9.22,9.22,0,0,0-2.33.32,7.55,7.55,0,0,0-.84.29l-.68.26a9.67,9.67,0,0,1,1.63-1,7.83,7.83,0,0,1,1.88-.58c.28,0,.57-.07.84-.08.11,0,.25,0,.36,0v0l-.85-.22h0c-.46-.12-1-.25-1.44-.35A8.85,8.85,0,0,0,225,118a8.22,8.22,0,0,0-1,.32h0l-.36.13a6.07,6.07,0,0,1,3-1.42,7.1,7.1,0,0,1,1.91-.1.32.32,0,0,0,.14,0,3.93,3.93,0,0,0,.49,0v0a8.87,8.87,0,0,0-3.88-.64,12.66,12.66,0,0,0-3.63.77l-.24,0a4.48,4.48,0,0,1,1.21-.73,7.67,7.67,0,0,1,1.39-.4,10.12,10.12,0,0,1,2-.14.25.25,0,0,0,.2,0h0a16.16,16.16,0,0,0-3.57-.51,12,12,0,0,0-3.81.4,7.26,7.26,0,0,1,3.38-1.17c.25,0,.52,0,.77,0l.54,0v0c-.56-.18-1.08-.37-1.63-.57a13.42,13.42,0,0,0-3.14-.88,8.35,8.35,0,0,0-1.13-.08h0a.81.81,0,0,0-.22,0,8.52,8.52,0,0,0,.9-.29l.45-.15a4.91,4.91,0,0,1,1.81-.29,4.51,4.51,0,0,1,1.73.4v0c-.39-.27-.76-.53-1.12-.82a16.29,16.29,0,0,0-3.72-2.24l.08,0h0l.3,0v0a6.4,6.4,0,0,1-2.56-1.91s.07,0,.11.08h0a5.74,5.74,0,0,0,1.48.8v0a7.63,7.63,0,0,1-1.72-1.28,10.67,10.67,0,0,1-1.9-2.75,9.88,9.88,0,0,0,4.44,2.49v0c-.25-.2-.49-.43-.72-.62h0l-.21-.22s-.11-.11-.18-.16h0c-.13-.14-.28-.29-.41-.44a9.34,9.34,0,0,0,1.9,1.33,2.26,2.26,0,0,1,.22.11,1.77,1.77,0,0,0,.77.31h0l0,0a3.55,3.55,0,0,0-.72-1l-.05,0a4.13,4.13,0,0,1,.77.61c.14.12.27.24.42.39a.77.77,0,0,0,.63.11l.25,0a1,1,0,0,1,.25,0,.89.89,0,0,0,.45,0l0,0h0a5.54,5.54,0,0,1-1.44-1.58c.34.25.65.55,1,.82l.46.43h0a1.14,1.14,0,0,0,.8.37c.55,0,1,0,1.43,0v0a9.63,9.63,0,0,1-4.1-2.86,4.48,4.48,0,0,1-.86-1.63,8,8,0,0,0,3.6,2.87h.05l0,0a.68.68,0,0,0-.15-.18,4,4,0,0,1-.27-.4,1.64,1.64,0,0,1,.51.44,2.11,2.11,0,0,0,.45.39,2.24,2.24,0,0,0,.68.21,1.72,1.72,0,0,1,.39.1v0a4.56,4.56,0,0,1-1.24-1.31c.16.12.31.27.45.39a5.83,5.83,0,0,0,1.4,1,3.82,3.82,0,0,0,1.16.25l0-.08a5.1,5.1,0,0,1-2-1.62,5.82,5.82,0,0,0,2.05,1.37v0l-.19-.13a3.31,3.31,0,0,1-.44-.39,4.88,4.88,0,0,1-.9-1.39,3.84,3.84,0,0,0,1,.86l.12.09a4.38,4.38,0,0,0,1.86.82v0a6.38,6.38,0,0,1-2.39-1.86,3.06,3.06,0,0,1-.48-1.58,5.06,5.06,0,0,0,2,2.09,11.47,11.47,0,0,0,2.33.94v0a9.4,9.4,0,0,1-1-1c-.14-.18-.26-.35-.41-.52l0,0a4.63,4.63,0,0,1-.85-1.27.83.83,0,0,0,.12.17,4.28,4.28,0,0,0,.51.66l0,0-.21-.47a6.1,6.1,0,0,1-.33-.82,5.23,5.23,0,0,0,1.27,1.4v0a2.15,2.15,0,0,1-.39-.6,6.34,6.34,0,0,0,2.12,1.82.68.68,0,0,1,.22.12h0a1.65,1.65,0,0,0,1.14.27l0,0,0,0a9.23,9.23,0,0,1-2.3-2,4.89,4.89,0,0,0,1.33,1v0a5,5,0,0,1-1.29-2.37,5.73,5.73,0,0,0,3.72,2.93l.16,0a1.17,1.17,0,0,0,.5,0h0l0,0a9.65,9.65,0,0,1-1-1,7.5,7.5,0,0,1-.82-1.17,4.66,4.66,0,0,1-.64-2c.23.37.43.77.63,1.16a8.48,8.48,0,0,0,.9,1.55,7.63,7.63,0,0,0,1.57,1.43h0a2.42,2.42,0,0,1,.43,0h0l0,0a8,8,0,0,1-1.29-1.74,6.06,6.06,0,0,1-.69-2c.11.22.21.46.34.69A9.3,9.3,0,0,0,233.7,104a.16.16,0,0,1,.07.07,1,1,0,0,0,.76.42,1,1,0,0,0,.17,0h0a4.92,4.92,0,0,1,.77,0h0v0c-.08-.13-.19-.24-.26-.37h0A8.08,8.08,0,0,1,234,102a4.77,4.77,0,0,1-.17-.78,6.49,6.49,0,0,1,.28.59,9.34,9.34,0,0,0,1.2,2.1,2,2,0,0,0,.81.65l.06,0-.05,0a1.67,1.67,0,0,1-.21-.33,6.24,6.24,0,0,1-1.31-2.73c.07.13.14.28.19.4a7.44,7.44,0,0,0,1.14,1.92,2.56,2.56,0,0,0,.9.65v0a6.59,6.59,0,0,1-.84-1.21,4.41,4.41,0,0,1-.46-1.25,7.61,7.61,0,0,0,1.41,2.24l0,0a5,5,0,0,1-.72-2.47,7.18,7.18,0,0,0,.88,1.75,5.22,5.22,0,0,0,1.15,1.26,2.22,2.22,0,0,0,.32.14s0,0-.06-.07a.68.68,0,0,1-.22-.12,4.87,4.87,0,0,1-1.12-1.25,7,7,0,0,1-.92-1.83v0l0,0h0a5,5,0,0,0,.62,2.41,8.08,8.08,0,0,1-1.33-2.21h0v0a5.51,5.51,0,0,0,.51,1.4,9.94,9.94,0,0,0,.79,1.16,2.58,2.58,0,0,1-.82-.62,8.18,8.18,0,0,1-1.14-1.92c-.07-.16-.17-.32-.23-.48v0l0,0h0a5.92,5.92,0,0,0,1.31,2.81,1.48,1.48,0,0,0,.21.27,2,2,0,0,1-.77-.61,8.59,8.59,0,0,1-1.2-2.1l-.32-.66h0l0,0v0a3.63,3.63,0,0,0,.2.87,7.41,7.41,0,0,0,1.22,2.16h0c.08.1.15.23.24.34a2.46,2.46,0,0,0-.72,0h-.2a1,1,0,0,1-.76-.42s-.05,0-.07-.07a9.78,9.78,0,0,1-1.55-2.52l-.38-.76h0v0a5.79,5.79,0,0,0,.69,2.05,7.53,7.53,0,0,0,1.27,1.73l-.37,0a7.5,7.5,0,0,1-1.54-1.42,8,8,0,0,1-.91-1.55,8.78,8.78,0,0,0-.64-1.21l0-.07v.09a5.06,5.06,0,0,0,.65,2.09,6.84,6.84,0,0,0,.81,1.2,11.67,11.67,0,0,0,1,1,2.15,2.15,0,0,1-.45,0,5.72,5.72,0,0,1-3.9-3.06v0l0,0h0a5,5,0,0,0,1.28,2.42,4.43,4.43,0,0,1-1.38-1.1h0l0,0h0a8.31,8.31,0,0,0,2.43,2.12,1.63,1.63,0,0,1-1.08-.28h0c-.07,0-.15-.07-.22-.12a5.83,5.83,0,0,1-2.18-1.89h0l0,0v0a1.61,1.61,0,0,0,.34.59,6,6,0,0,1-1.2-1.39h0l0,0v0a8.16,8.16,0,0,0,.36.91c.05.13.13.26.18.38a4.1,4.1,0,0,1-.45-.58,1.81,1.81,0,0,1-.18-.27h0l0,0v0A4.32,4.32,0,0,0,227,104l0,0c.15.18.29.35.41.52a7.67,7.67,0,0,0,.89,1,10.18,10.18,0,0,1-2.25-.92,5.2,5.2,0,0,1-2-2.12h0v0a3.1,3.1,0,0,0,.49,1.66,5.86,5.86,0,0,0,2.31,1.84,5.09,5.09,0,0,1-1.76-.79l-.14-.09a4,4,0,0,1-1-.93h0l0,0h0a5.46,5.46,0,0,0,.93,1.48,1.41,1.41,0,0,0,.47.4s0,0,.07,0a6.26,6.26,0,0,1-2-1.41h0l0,0h0a4.91,4.91,0,0,0,2,1.71,3.27,3.27,0,0,1-1.09-.26,5.92,5.92,0,0,1-1.4-1,5.27,5.27,0,0,0-.52-.44h0l0,0h0a4.09,4.09,0,0,0,1.24,1.31,1,1,0,0,0-.29,0,2.81,2.81,0,0,1-.66-.2,2.62,2.62,0,0,1-.44-.39,1.48,1.48,0,0,0-.57-.45l0,0,0,.06a3.73,3.73,0,0,0,.29.44.3.3,0,0,1,.1.14,8.17,8.17,0,0,1-3.57-2.89h0a4.28,4.28,0,0,0,.89,1.72,9.5,9.5,0,0,0,4.05,2.85c-.41,0-.83,0-1.35,0a1.33,1.33,0,0,1-.78-.37h0c-.15-.15-.31-.28-.47-.43-.33-.31-.66-.59-1-.87h0l0,0h0a5.33,5.33,0,0,0,1.46,1.62,1,1,0,0,1-.42,0,1.93,1.93,0,0,0-.24,0l-.25,0a.71.71,0,0,1-.6-.11c-.14-.12-.27-.23-.42-.38a4.36,4.36,0,0,0-.84-.66h0l.11.11a4.77,4.77,0,0,1,.71,1,1.92,1.92,0,0,1-.74-.31.91.91,0,0,0-.22-.11,11.51,11.51,0,0,1-2-1.39h0a2.51,2.51,0,0,0,.48.54h0a1.45,1.45,0,0,0,.18.16c.09.08.15.15.22.22h0a6,6,0,0,0,.64.58,9.55,9.55,0,0,1-4.41-2.5h0v0a10.65,10.65,0,0,0,2,2.82,6.16,6.16,0,0,0,1.55,1.18,6.73,6.73,0,0,1-1.31-.73h0a2,2,0,0,1-.18-.13h0v0h0a6.63,6.63,0,0,0,2.56,2,.31.31,0,0,1-.19,0h0a.42.42,0,0,1-.16,0h0v0h0a17,17,0,0,1,3.79,2.26c.32.25.67.48,1,.74a5.51,5.51,0,0,0-1.61-.34,4.62,4.62,0,0,0-1.81.29l-.45.15a4.93,4.93,0,0,1-1,.31h0v0h0l.35,0h0a7.16,7.16,0,0,1,1.13.08,13.22,13.22,0,0,1,3.14.88c.5.19,1,.37,1.51.53a3.23,3.23,0,0,0-.44,0,7,7,0,0,0-.79,0,7,7,0,0,0-3.45,1.23h0l0,0h0a12.86,12.86,0,0,1,3.89-.4,17.17,17.17,0,0,1,3.49.49H226a8.54,8.54,0,0,0-2,.14,8.31,8.31,0,0,0-1.42.39,4.19,4.19,0,0,0-1.24.77l-.07,0,.06,0a1,1,0,0,0,.29-.06,13.53,13.53,0,0,1,3.63-.77,8.84,8.84,0,0,1,3.79.6l-.4,0s-.08,0-.11,0a6.14,6.14,0,0,0-1.92.1,6,6,0,0,0-3.07,1.46h0l0,0h0a1.59,1.59,0,0,0,.43-.16h0c.32-.1.66-.23,1-.31a8.71,8.71,0,0,1,3.91-.06c.49.1,1,.23,1.44.35h0l.74.2h-.28a4.69,4.69,0,0,0-.84.08,7,7,0,0,0-1.88.58,8.34,8.34,0,0,0-1.69,1v0l0,0h0a6.21,6.21,0,0,0,.76-.27,7.55,7.55,0,0,1,.84-.29,8.69,8.69,0,0,1,2.34-.32,7.21,7.21,0,0,1,2.88.51,6.83,6.83,0,0,0-2.23.24,4,4,0,0,0-2.11,1.22h0l0,0v0a2.81,2.81,0,0,1,1.11-.58,10,10,0,0,1,3.77.14c1.1.21,2.18.47,3.24.72.51.14,1.13.28,1.7.42l.33.09a8,8,0,0,0,1.89.31,14.85,14.85,0,0,0,3.11-.44h0l.29-.09a2.58,2.58,0,0,1,.83-.14c.54,0,1.06.06,1.56.11h0c.84.06,1.67.14,2.54.18a27.72,27.72,0,0,1,3.26.31l.79.13a15.35,15.35,0,0,1,2.34.45c.3.11.61.19.91.3h0a16.32,16.32,0,0,1,2.3.85l0,0Z"/> <path d="M243.85,106.61a1,1,0,0,0-.17-.18.76.76,0,0,0-.11-.08h0a.11.11,0,0,0-.09,0l0,0,.16.13A1.42,1.42,0,0,1,243.85,106.61Z"/> <path fill="#ffffff" d="M219.14,110.07c1.56.74,3.11,1.64,4.57,2.52.53.3,1.08.61,1.62,1,2.67,1.5,5.07,2.9,7.29,4.25a8.78,8.78,0,0,1-1.15-2.19,15,15,0,0,1-.73-3.54,16.71,16.71,0,0,1,.1-4.22,6.76,6.76,0,0,0-1,.31,7,7,0,0,1-1,.31h0l-1.57.44c-.8.23-1.6.46-2.41.62-.06,0-.14,0-.23,0a1.9,1.9,0,0,0-.69.21,3.69,3.69,0,0,1-1.05.37A9.85,9.85,0,0,1,219.14,110.07Z"/> <path fill="#ffffff" d="M248.38,111.37a7.34,7.34,0,0,1,0,2.2,12.6,12.6,0,0,1-.51,2.17,14.92,14.92,0,0,1-.81,2,8.58,8.58,0,0,1-1.16,1.8,5.2,5.2,0,0,1-1.22,1.08,5.42,5.42,0,0,1-1.41.69,21.21,21.21,0,0,0,5.17-1.12c.78-.24,1.55-.47,2.35-.67a6.94,6.94,0,0,1,3-.14,6.76,6.76,0,0,1,2,.63,8.13,8.13,0,0,1,1.67,1.12c-.85-1-1.69-2.09-2.49-3.12-.47-.62-1-1.24-1.46-1.84A21.79,21.79,0,0,0,248.38,111.37Z"/> <path class="eyes0" d="M238.68,107.33a3.44,3.44,0,0,0-.56-.09,1.17,1.17,0,0,1-.26,0c-.82-.11-1.69-.23-2.55-.3a5.73,5.73,0,0,0-1.81.21.68.68,0,0,0-.45.35,6.68,6.68,0,0,0-1.07,3.31,13.49,13.49,0,0,0,0,1.42c0,.22,0,.44,0,.66a10.2,10.2,0,0,0,2.54,5.75,3.24,3.24,0,0,0,1,.75,21.13,21.13,0,0,0,2.51,1.1,22.43,22.43,0,0,0,2.56.68l.15,0a1.65,1.65,0,0,0,.85-.11l.18,0a1.66,1.66,0,0,0,.39-.15,2.32,2.32,0,0,1,.51-.16,4.07,4.07,0,0,0,2.55-1,5.65,5.65,0,0,0,1.6-2.21,11.43,11.43,0,0,0,1-3.24,8.46,8.46,0,0,0-.18-3.18l0,0a1,1,0,0,0-.37-.67,22.22,22.22,0,0,0-2.09-1.21,19.26,19.26,0,0,0-3.78-1.47,2.87,2.87,0,0,1,1,.94,5.38,5.38,0,0,1,.69,3.2,4.93,4.93,0,0,1-1,3,2.36,2.36,0,0,1-.92.69,2.56,2.56,0,0,1-1.13.22,2.48,2.48,0,0,1-1.2-.32,3.32,3.32,0,0,1-1-.76,5.54,5.54,0,0,1-1.51-3.11,5.17,5.17,0,0,1,.09-1.57,4.17,4.17,0,0,1,.6-1.43,3,3,0,0,1,.85-.84,3.81,3.81,0,0,1,1.09-.48A.15.15,0,0,1,238.68,107.33Z"/> <path d="M277.74,122.24h.05a19.26,19.26,0,0,1,2.32-.8h0c.3-.1.61-.17.91-.27a13.86,13.86,0,0,1,2.36-.4l.79-.11a27.44,27.44,0,0,1,3.27-.23c.84,0,1.7-.08,2.53-.12h0c.52,0,1-.06,1.57-.07a2.48,2.48,0,0,1,.82.15,1.75,1.75,0,0,0,.3.1h0a12.34,12.34,0,0,0,3.1.52,8.88,8.88,0,0,0,1.9-.27l.33-.08c.58-.11,1.17-.25,1.71-.38,1.06-.22,2.15-.46,3.25-.64a10,10,0,0,1,3.78-.05,2.71,2.71,0,0,1,1.1.61h0l0,0h0a3.85,3.85,0,0,0-2.08-1.27,6.87,6.87,0,0,0-2.19-.3,6.36,6.36,0,0,1,2.89-.44,9.07,9.07,0,0,1,2.32.37,4.27,4.27,0,0,1,.84.32,6.77,6.77,0,0,0,.75.28h0l0,0v0a8.19,8.19,0,0,0-1.67-1,7,7,0,0,0-1.86-.62,5,5,0,0,0-.84-.09l-.28,0,.75-.18h0c.46-.12,1-.24,1.47-.33a8.83,8.83,0,0,1,3.91.16c.34.08.68.22,1,.33h0l.43.17h0l0,0h0a6,6,0,0,0-3-1.53,7.3,7.3,0,0,0-1.91-.15.41.41,0,0,1-.11,0,1.76,1.76,0,0,1-.4,0,8.11,8.11,0,0,1,3.8-.5,13.43,13.43,0,0,1,3.61.85,1.11,1.11,0,0,0,.29.07h.06l-.07,0a4.35,4.35,0,0,0-1.22-.79,7.37,7.37,0,0,0-1.41-.43,9.17,9.17,0,0,0-1.95-.19.26.26,0,0,1-.15,0,17.1,17.1,0,0,1,3.51-.4,12.87,12.87,0,0,1,3.87.49h0l0,0h0a7.44,7.44,0,0,0-3.42-1.31,6.94,6.94,0,0,0-.79,0,3.08,3.08,0,0,1-.43,0c.51-.15,1-.33,1.51-.5a13.59,13.59,0,0,1,3.16-.81,7.07,7.07,0,0,1,1.13,0h.36l0,0h0a6.89,6.89,0,0,1-1-.33c-.13-.06-.31-.12-.45-.17a5.09,5.09,0,0,0-1.8-.33,4.83,4.83,0,0,0-1.62.3l1-.71a15.34,15.34,0,0,1,3.85-2.17h0v0h0c-.05,0-.11,0-.16,0h-.19a6.16,6.16,0,0,0,2.6-1.9h0l0,0h0a.93.93,0,0,0-.18.12h0a6.84,6.84,0,0,1-1.34.7,6.46,6.46,0,0,0,1.58-1.14,10.43,10.43,0,0,0,2-2.77v0l0,0h0a9.48,9.48,0,0,1-4.47,2.4,6.08,6.08,0,0,0,.66-.56h0l.22-.22c.07,0,.11-.1.18-.15h0a2.8,2.8,0,0,0,.5-.53h0l0,0h0a11.45,11.45,0,0,1-2,1.35.62.62,0,0,1-.22.1,2,2,0,0,1-.75.29,5.51,5.51,0,0,1,.73-.94l.08-.1,0,0h0a3.72,3.72,0,0,0-.85.64c-.14.12-.27.26-.43.38a.73.73,0,0,1-.61.09l-.25,0a.65.65,0,0,0-.24,0,1,1,0,0,1-.42,0,5.35,5.35,0,0,0,1.5-1.58h0l0,0h0a7.84,7.84,0,0,0-1,.84c-.15.15-.32.27-.47.41h0a1.2,1.2,0,0,1-.79.35l-1.34,0a9.44,9.44,0,0,0,4.11-2.76,4.12,4.12,0,0,0,.93-1.69h0l0,0h0a8,8,0,0,1-3.64,2.8.36.36,0,0,0,.11-.13,5.36,5.36,0,0,0,.33-.43l0-.07-.05,0a3.47,3.47,0,0,0-.57.44,2.12,2.12,0,0,1-.46.38,2.66,2.66,0,0,1-.66.18,3.06,3.06,0,0,1-.32,0,4.46,4.46,0,0,0,1.28-1.28h0l0,0h0a6.48,6.48,0,0,1-.53.42,4.82,4.82,0,0,1-1.43,1,2.92,2.92,0,0,1-1.09.23,4.94,4.94,0,0,0,2-1.65h0l0,0h0a6,6,0,0,1-2,1.36s.05,0,.08,0a2,2,0,0,0,.45-.38,5.22,5.22,0,0,0,1-1.45h0l0,0h0a3.27,3.27,0,0,1-1.07.9l-.14.09a4.61,4.61,0,0,1-1.78.75,6,6,0,0,0,2.35-1.78,3,3,0,0,0,.53-1.66v0h0a4.86,4.86,0,0,1-2.06,2.08,10.53,10.53,0,0,1-2.28.87,8.33,8.33,0,0,0,.91-1c.13-.17.28-.34.43-.51l0,0a4.32,4.32,0,0,0,.93-1.37v0l0,0h0a1.43,1.43,0,0,0-.19.27,4.79,4.79,0,0,1-.46.57c.05-.12.13-.28.18-.37a5.54,5.54,0,0,0,.39-.91v0l0,0h0a6.52,6.52,0,0,1-1.23,1.36,2.24,2.24,0,0,0,.38-.58v0l0,0h0a6.2,6.2,0,0,1-2.23,1.84c-.07,0-.18.07-.25.12h0a1.83,1.83,0,0,1-1.08.26,8.49,8.49,0,0,0,2.48-2.07h0l0,0h0a5.38,5.38,0,0,1-1.43,1.08,5.36,5.36,0,0,0,1.34-2.39h0l0,0v0a5.79,5.79,0,0,1-4,3,1.22,1.22,0,0,1-.47,0,8.48,8.48,0,0,0,1-1,5,5,0,0,0,.84-1.18,5.18,5.18,0,0,0,.7-2.08v-.08l0,.06a9,9,0,0,0-.7,1.2,7.59,7.59,0,0,1-.94,1.53,8.82,8.82,0,0,1-1.6,1.4,3.69,3.69,0,0,0-.37,0,8.29,8.29,0,0,0,1.31-1.71,5.84,5.84,0,0,0,.75-2v0l0,0h0l-.4.75a9.23,9.23,0,0,1-1.59,2.47s0,0-.06.07a1.12,1.12,0,0,1-.75.4h-.19c-.23,0-.5,0-.75,0,.09-.1.16-.23.25-.33h0a7.63,7.63,0,0,0,1.26-2.13c.1-.29.16-.58.23-.87v0l0,0h0l-.33.65a9.75,9.75,0,0,1-1.25,2.07,2,2,0,0,1-.79.59c.06-.09.15-.17.21-.26A6.54,6.54,0,0,0,302.6,100h0l0,0v0a4.19,4.19,0,0,0-.24.47,9,9,0,0,1-1.16,1.89,3.44,3.44,0,0,1-.83.6,6.11,6.11,0,0,0,.81-1.14,5.86,5.86,0,0,0,.54-1.39v0l0,0h0a7.64,7.64,0,0,1-1.38,2.18,5.07,5.07,0,0,0,.68-2.4h0l0,0v0A6.44,6.44,0,0,1,300,102a6.32,6.32,0,0,1-1.15,1.23.84.84,0,0,1-.22.1s-.05,0-.07.08a1.83,1.83,0,0,0,.32-.14A4.73,4.73,0,0,0,300,102a5.88,5.88,0,0,0,.92-1.72,4.71,4.71,0,0,1-.77,2.45l0,0a8.4,8.4,0,0,0,1.46-2.21,7.6,7.6,0,0,1-.49,1.24,7.14,7.14,0,0,1-.86,1.19v0a2.92,2.92,0,0,0,.91-.63,7.81,7.81,0,0,0,1.19-1.89,3,3,0,0,1,.2-.4,6.31,6.31,0,0,1-1.37,2.7,3.15,3.15,0,0,0-.22.33l0,0h0a1.88,1.88,0,0,0,.83-.63,8.59,8.59,0,0,0,1.25-2.07c.09-.21.21-.41.3-.59a3.44,3.44,0,0,1-.2.78,7.63,7.63,0,0,1-1.26,2.13h0c-.08.13-.19.23-.27.36l0,0h0a6.69,6.69,0,0,1,.77,0h.19a1,1,0,0,0,.78-.4l.06-.07a9.87,9.87,0,0,0,1.62-2.49c.11-.21.22-.46.35-.68a5.89,5.89,0,0,1-.73,2,9,9,0,0,1-1.31,1.7l0,0h0l.4.07h0a8.41,8.41,0,0,0,1.61-1.39,9,9,0,0,0,.94-1.53c.21-.38.41-.78.65-1.14a4.87,4.87,0,0,1-.69,2,5.13,5.13,0,0,1-.84,1.15,7.49,7.49,0,0,1-1.05,1l0,0h0a1.16,1.16,0,0,0,.5,0l.15,0a5.78,5.78,0,0,0,3.79-2.84,5.49,5.49,0,0,1-1.35,2.34v0a5,5,0,0,0,1.35-1,8.36,8.36,0,0,1-2.35,1.9l-.05,0,0,0a1.47,1.47,0,0,0,1.14-.25h0a.9.9,0,0,0,.22-.11,6,6,0,0,0,2.16-1.77,2,2,0,0,1-.4.59l0,0a5.05,5.05,0,0,0,1.31-1.37c-.1.29-.23.54-.35.81l-.22.47h0a3.68,3.68,0,0,0,.53-.64.74.74,0,0,1,.12-.16,4.48,4.48,0,0,1-.87,1.24l-.05,0c-.15.17-.27.34-.42.51a7.8,7.8,0,0,1-1,1v0a9.71,9.71,0,0,0,2.35-.89,5.16,5.16,0,0,0,2.05-2,3.06,3.06,0,0,1-.52,1.57,6.29,6.29,0,0,1-2.43,1.8v0a4.48,4.48,0,0,0,1.89-.78l.11-.08a4,4,0,0,0,1-.84,5,5,0,0,1-.92,1.37,1.67,1.67,0,0,1-.46.38l-.19.13v0a6.54,6.54,0,0,0,2.08-1.31,5,5,0,0,1-2,1.57v0a3.68,3.68,0,0,0,1.17-.23,6,6,0,0,0,1.43-1c.16-.12.31-.27.48-.39a4.59,4.59,0,0,1-1.28,1.28v0l.38-.09a2.36,2.36,0,0,0,.69-.19,1.79,1.79,0,0,0,.46-.39,1.89,1.89,0,0,1,.52-.42,2.14,2.14,0,0,1-.28.39c0,.07-.11.11-.15.18l-.05,0h.05a7.88,7.88,0,0,0,3.67-2.78,4.22,4.22,0,0,1-.9,1.6,9.52,9.52,0,0,1-4.16,2.77v0c.44,0,.88,0,1.42,0a1.5,1.5,0,0,0,.82-.36h0c.16-.15.32-.27.48-.41s.63-.54,1-.81a5.25,5.25,0,0,1-1.49,1.56h0l0,0a.75.75,0,0,0,.45.06h.24l.23,0a.77.77,0,0,0,.63-.09,5.08,5.08,0,0,0,.43-.38,4.15,4.15,0,0,1,.78-.6l0,0a5.61,5.61,0,0,0-.75,1l0,0h0a1.77,1.77,0,0,0,.78-.3.88.88,0,0,1,.22-.1,12.89,12.89,0,0,0,1.93-1.28c-.13.14-.29.28-.42.42h0c-.07.05-.11.11-.18.16s-.16.14-.22.21h0c-.23.19-.48.42-.73.61v0a10.09,10.09,0,0,0,4.5-2.38,10.84,10.84,0,0,1-2,2.7,7.71,7.71,0,0,1-1.75,1.24v0a5.46,5.46,0,0,0,1.5-.77h0a.76.76,0,0,1,.11-.08,6.3,6.3,0,0,1-2.61,1.85v0l.3,0h.07a15.88,15.88,0,0,0-3.76,2.15c-.38.25-.77.54-1.15.79v0a4.92,4.92,0,0,1,1.74-.36,4.55,4.55,0,0,1,1.79.33c.15,0,.3.12.45.16a5,5,0,0,0,.89.31c-.08,0-.16,0-.22,0h0a8.47,8.47,0,0,0-1.13,0,13.59,13.59,0,0,0-3.16.81c-.53.18-1.08.37-1.64.53v0a4.52,4.52,0,0,0,.54,0,6.54,6.54,0,0,1,.77,0,7.25,7.25,0,0,1,3.35,1.25,13.21,13.21,0,0,0-3.8-.49,17.74,17.74,0,0,0-3.57.42h-.06l.06,0,.2,0a7.86,7.86,0,0,1,1.95.19,6.34,6.34,0,0,1,1.39.43,3.91,3.91,0,0,1,1.18.75l-.23,0a12.8,12.8,0,0,0-3.61-.86,8.66,8.66,0,0,0-3.9.55v0a4,4,0,0,1,.49,0c.05,0,.07,0,.11,0a6.6,6.6,0,0,1,1.91.15,6.08,6.08,0,0,1,3,1.49,2.6,2.6,0,0,1-.36-.13h0a8.74,8.74,0,0,0-4.91-.49c-.5.09-1,.2-1.48.32h0l-.86.2v0l.36,0a8.55,8.55,0,0,1,.87.09,6.68,6.68,0,0,1,1.86.62,8.08,8.08,0,0,1,1.61,1c-.24-.08-.46-.19-.67-.28s-.54-.22-.84-.32a9.6,9.6,0,0,0-2.32-.37,7.41,7.41,0,0,0-2.06.19,4,4,0,0,0-.92.33v0a7,7,0,0,1,2.27.27,3.93,3.93,0,0,1,2,1.19,3.41,3.41,0,0,0-1-.55,10.12,10.12,0,0,0-3.8.07c-1.1.18-2.19.41-3.25.64-.54.12-1.14.24-1.71.38l-.33.08a9.35,9.35,0,0,1-1.9.26,12.73,12.73,0,0,1-3.07-.52h0a1.11,1.11,0,0,0-.26-.07,2.12,2.12,0,0,0-.83-.16c-.54,0-1.05,0-1.56.08h0c-.83.06-1.67.1-2.53.11s-2.16.08-3.27.24l-.79.1a18.45,18.45,0,0,0-2.36.4l-.92.28h0a17.72,17.72,0,0,0-2.29.79,1.72,1.72,0,0,1,.22-.33,1.44,1.44,0,0,0,.23-.32l0,0h-.06c-.09,0-.18.13-.28.18l-.21.13a5.52,5.52,0,0,1,1-1.82l.29-.48a5.33,5.33,0,0,0,.33-.55c.23-.4.46-.84.69-1.25a9.48,9.48,0,0,1,.52-1,16.83,16.83,0,0,1,1.48-2.23,28.44,28.44,0,0,1,2.72-3.1,39.42,39.42,0,0,1,3-2.57c1-.72,2.05-1.44,3.26-2.19.19-.13.44-.24.62-.37a8.49,8.49,0,0,0,1.14-.73s.07,0,.09-.08-.1,0-.15.06a8.71,8.71,0,0,1-1.09.7,5.3,5.3,0,0,0-.62.36c-1.21.76-2.29,1.48-3.26,2.2a27.6,27.6,0,0,0-3,2.57,29.27,29.27,0,0,0-2.72,3.1,16.2,16.2,0,0,0-1.48,2.23c-.2.32-.36.66-.53,1a8.39,8.39,0,0,1-.68,1.25,5.33,5.33,0,0,0-.33.55l-.3.48a6.12,6.12,0,0,0-1,1.85v.06l.05,0a1.7,1.7,0,0,0,.23-.17.87.87,0,0,0,.23-.16,2.93,2.93,0,0,1-.18.26,2.2,2.2,0,0,0-.24.38Z"/> <path d="M293.6,104.88a1.32,1.32,0,0,1,.16-.12h-.05c-.06,0-.08,0-.1.06h0a.31.31,0,0,1-.14.09l-.17.18A1.58,1.58,0,0,0,293.6,104.88Z"/> <path fill="#ffffff" d="M314.18,109.15a3.22,3.22,0,0,1-1.07-.4,2.81,2.81,0,0,0-.68-.21,1,1,0,0,1-.23-.06c-.81-.19-1.63-.43-2.4-.68-.5-.15-1-.33-1.56-.47h0a7.05,7.05,0,0,1-1-.34,8.16,8.16,0,0,0-1-.34,17.22,17.22,0,0,1-.82,7.75,13.13,13.13,0,0,1-1.2,2.16c2.25-1.3,4.68-2.64,7.39-4.08.53-.29,1.09-.59,1.64-.91,1.49-.84,3-1.68,4.63-2.41A9,9,0,0,1,314.18,109.15Z"/> <path fill="#ffffff" d="M283.46,114.47l-1.51,1.8c-.82,1-1.68,2.07-2.56,3.07a7.13,7.13,0,0,1,1.7-1.09,6.68,6.68,0,0,1,2-.58,7.08,7.08,0,0,1,3,.21c.79.22,1.56.47,2.33.73a23.48,23.48,0,0,0,5.15,1.25,6.43,6.43,0,0,1-1.43-.73,5.39,5.39,0,0,1-1.19-1.1,8.25,8.25,0,0,1-1.12-1.83,15.16,15.16,0,0,1-.76-2,12.94,12.94,0,0,1-.46-2.18,7.23,7.23,0,0,1,.07-2.2A20,20,0,0,0,283.46,114.47Z"/> <path class="eyes0" d="M298.28,106a3.33,3.33,0,0,1,1.1.5,2.82,2.82,0,0,1,.83.86,4.7,4.7,0,0,1,.56,1.45,4.84,4.84,0,0,1,.05,1.57,5.55,5.55,0,0,1-1.58,3.08,3.69,3.69,0,0,1-1,.73,2.9,2.9,0,0,1-1.22.29,2.58,2.58,0,0,1-1.12-.25,2.34,2.34,0,0,1-.9-.71,4.87,4.87,0,0,1-.94-3,5.47,5.47,0,0,1,.77-3.18,3,3,0,0,1,1-.92A20.81,20.81,0,0,0,292,107.8c-.78.38-1.48.77-2.12,1.16a1.1,1.1,0,0,0-.39.67l0,0a8.46,8.46,0,0,0-.25,3.17,11.78,11.78,0,0,0,.91,3.27,6.42,6.42,0,0,0,1.55,2.24,4.21,4.21,0,0,0,2.53,1,1.36,1.36,0,0,1,.5.18l.4.15.17,0a2.2,2.2,0,0,0,.85.13l.15,0a22.53,22.53,0,0,0,2.58-.62,20.55,20.55,0,0,0,2.53-1,2.78,2.78,0,0,0,1-.73,10.22,10.22,0,0,0,2.67-5.68c0-.22,0-.44,0-.66a8.43,8.43,0,0,0,0-1.42,6.94,6.94,0,0,0-1-3.33.7.7,0,0,0-.44-.36,5.61,5.61,0,0,0-1.81-.25,19.33,19.33,0,0,0-2.56.23c-.1,0-.19,0-.26,0a5,5,0,0,0-.56.08C298.38,106,298.34,106,298.28,106Z"/> </g></g>
          <g id="extraSVG0"><g transform="translate(250,180)"><path fill="#462827" d="M18.51,37c-2.07-1.4-4.47-2.59-4.87-5.42-.47-3.28.48-6,3.7-7.76-.53-.73-1.33-1.36-1.44-2.08-.24-1.71-1.32-1.57-2.54-1.63a27.12,27.12,0,0,1-9.34-2C2,17.3.68,16.31.39,13.78,0,10.46-.33,7.23.58,4c.71-2.56,3-2.72,5.06-3.06.57-.09.21.71.26,1.1-2.83,0-4.52,1.44-4.75,4.28C1,8.1.7,10.08,1.28,11.68S.69,15.31,3,16.43A29.29,29.29,0,0,0,14.6,19.07c.73,0,1.62-.35,1.48-.8-.64-2.05,1.05-1.84,2-2.36.71-.37,1.39-.79,2.1-1.15.36-.18,1,.06,1-.63s-.52-.85-1.09-1c-1.6-.51-2.4.84-3.64,1.83-.32-2.42,1.15-3.15,2.6-3.39a3.28,3.28,0,0,1,3.76,2.39c1.51,4.46,1.48,4.47,6.05,3,4.34-1.4,4.34-1.4,4.36-5.84,0-2.17-.06-4.35,0-6.52a2.53,2.53,0,0,0-2-2.78c-1.11-.32-2.26-.48-3.4-.71-.1-.59-.05-1,.73-1.06a5.68,5.68,0,0,1,5.81,4.93c0,.19.31.35.48.52V7.64c-.91.43-.5,1.27-.52,1.91-.2,7.19-.19,7.19-7.22,9.13a8.55,8.55,0,0,1-1.55.38c-.6.05-.95.16-1.08.87-.29,1.51-1.81,2.14-2.61,3.3C27,25.44,28.66,29.8,26,34c-1,1.62-2.8,2-4.22,3ZM19,34.86l.11.37.27-.17-.36-.21A16.67,16.67,0,0,0,18,33c-.45-.6-1.5-.9-.87-2a1.09,1.09,0,0,1,1.17-.52c1.1.16.62,1.09.82,1.71.39,1.21,1,2.66,2.41,2.38a2.38,2.38,0,0,0,2.1-3.07c-.26-.86.18-1.5.66-1.46,2.71.26,1.12-1.38.84-2.07-.55-1.38-1.36-2.88-3.16-2.66-1.07.13-1,.41-1.62-.51-.55.38.3,1.39-.61,1.66-.87-.33-.46-2.37-2-1.36-1.82,1.21-3.19,2.94-2.85,5.18S16.22,34.68,19,34.86ZM16.91,20.07c.4,1.25.6,2.31,1.89,2.25A4.59,4.59,0,0,0,23,19.58C20.86,19.66,19.09,20.47,16.91,20.07Zm.3-1.18c2.05.73,3.53-.15,5.07-.39.44-.07.63-.4.42-.74s-.49-.88-1-.41C20.54,18.42,19,18.36,17.21,18.89Z"/><path fill="#f6b9b5" d="M27.82,1.07c1.14.23,2.29.39,3.4.71a2.53,2.53,0,0,1,2,2.78c-.08,2.17,0,4.35,0,6.52,0,4.44,0,4.44-4.36,5.84-4.57,1.48-4.54,1.47-6.05-3A3.28,3.28,0,0,0,19,11.54c-1.45.24-2.92,1-2.6,3.39,1.24-1,2-2.34,3.64-1.83.57.18,1,.46,1.09,1s-.6.45-1,.63c-.71.36-1.39.78-2.1,1.15-1,.52-2.66.31-2,2.36.14.45-.75.84-1.48.8A29.29,29.29,0,0,1,3,16.43c-2.26-1.12-1.11-3.2-1.67-4.75S1,8.1,1.15,6.3C1.38,3.46,3.07,2.07,5.9,2L6,3.29c-.83-.13-1.26.28-1.11,1,.19,1,1,1.06,1.86,1.15A147.09,147.09,0,0,0,23.5,6a9.37,9.37,0,0,0,4.12-1c1.57-.77,1.58-1.62.2-2.76Z"/><path fill="#462827" d="M27.82,2.23c1.38,1.14,1.37,2-.2,2.76A9.37,9.37,0,0,1,23.5,6,147.09,147.09,0,0,1,6.71,5.49C5.85,5.4,5,5.31,4.85,4.34c-.15-.77.28-1.18,1.11-1,.1.4-.06,1,.57,1C13,4.63,19.38,5.5,25.87,4.5,27.66,4.23,27.91,3.64,27.82,2.23Z"/><path fill="#c93d6f" d="M19,34.87c-2.82-.19-3.81-2.28-4.15-4.54s1-4,2.85-5.18c1.53-1,1.12,1,2,1.36.91-.27.06-1.28.61-1.66.58.92.55.64,1.62.51,1.8-.22,2.61,1.28,3.16,2.66.28.69,1.87,2.33-.84,2.07-.48,0-.92.6-.66,1.46a2.38,2.38,0,0,1-2.1,3.07c-1.43.28-2-1.17-2.41-2.38-.2-.62.28-1.55-.82-1.71a1.09,1.09,0,0,0-1.17.52c-.63,1.06.42,1.36.87,2a16.67,16.67,0,0,1,1.07,1.84Z"/><path fill="#eaaca8" d="M17.21,18.89c1.76-.53,3.33-.47,4.49-1.54.51-.47.81.11,1,.41s0,.67-.42.74C20.74,18.74,19.26,19.62,17.21,18.89Z"/><path fill="#c93d6f" d="M19.06,34.85l.36.21-.27.17c0-.12-.07-.24-.11-.36Z"/></g></g>
          <g id="extraSVG1"/>
          <g id="extraSVG2"/>
            <text id="copy" font-size="12px" fill="#1d1d1b" font-family="'Marck Script', cursive" font-style="italic" transform="translate(400,800) rotate(-90)">
              Artwork by Indigo White
            </text>
        </svg>